<svg xmlns="http://www.w3.org/2000/svg" viewBox="0.2 0 44.0 47.6" width="44" height="47.6"><defs><radialGradient gradientUnits="userSpaceOnUse" r="819.2" cx="0" cy="0" spreadMethod="pad" gradientTransform="matrix(.01 0 0 .01 15.6 8.9)" id="a"><stop offset="0" stop-color="#FFC2C2"/><stop offset=".333" stop-color="#f66"/><stop offset=".722" stop-color="#fc0"/><stop offset=".992"/></radialGradient><radialGradient gradientUnits="userSpaceOnUse" r="819.2" cx="0" cy="0" spreadMethod="pad" gradientTransform="matrix(.014 0 0 .014 20.3 12.7)" id="b"><stop offset="0" stop-color="#FFC2C2"/><stop offset=".333" stop-color="#f30"/><stop offset=".992"/></radialGradient><radialGradient gradientUnits="userSpaceOnUse" r="819.2" cx="0" cy="0" fx="355.2" fy="0" spreadMethod="unknown" gradientTransform="matrix(.009 0 0 .009 23.8 24.85)" id="c"><stop offset="0" stop-color="#FFC2C2"/><stop offset=".333" stop-color="#f30"/><stop offset=".992"/></radialGradient><radialGradient gradientUnits="userSpaceOnUse" r="819.2" cx="0" cy="0" spreadMethod="pad" gradientTransform="matrix(.009 0 0 .01 34.5 21.25)" id="d"><stop offset="0" stop-color="#FFC2C2"/><stop offset=".333" stop-color="#f66"/><stop offset=".722" stop-color="#fc0"/><stop offset=".992"/></radialGradient><radialGradient gradientUnits="userSpaceOnUse" r="819.2" cx="0" cy="0" spreadMethod="pad" gradientTransform="matrix(.009 0 0 .011 40.4 31.15)" id="e"><stop offset="0" stop-color="#FFC2C2"/><stop offset=".333" stop-color="#f66"/><stop offset=".722" stop-color="#fc0"/><stop offset=".992"/></radialGradient><radialGradient gradientUnits="userSpaceOnUse" r="819.2" cx="0" cy="0" spreadMethod="pad" gradientTransform="matrix(.007 0 0 .009 28.45 33.1)" id="f"><stop offset="0" stop-color="#FFC2C2"/><stop offset=".333" stop-color="#f66"/><stop offset=".722" stop-color="#fc0"/><stop offset=".992"/></radialGradient><radialGradient gradientUnits="userSpaceOnUse" r="819.2" cx="0" cy="0" spreadMethod="pad" gradientTransform="matrix(.007 -.006 .005 .006 19.9 34.75)" id="g"><stop offset="0" stop-color="#FFC2C2"/><stop offset=".333" stop-color="#f66"/><stop offset=".722" stop-color="#fc0"/><stop offset=".992"/></radialGradient><radialGradient gradientUnits="userSpaceOnUse" r="819.2" cx="0" cy="0" spreadMethod="pad" gradientTransform="matrix(.003 0 0 .003 28.35 38.8)" id="h"><stop offset="0" stop-color="#FFC2C2"/><stop offset=".333" stop-color="#f66"/><stop offset=".722" stop-color="#fc0"/><stop offset=".992"/></radialGradient><radialGradient gradientUnits="userSpaceOnUse" r="819.2" cx="0" cy="0" spreadMethod="pad" gradientTransform="matrix(.007 0 0 .007 31.5 44.45)" id="i"><stop offset=".129" stop-color="#fc0"/><stop offset=".58"/></radialGradient><radialGradient gradientUnits="userSpaceOnUse" r="819.2" cx="0" cy="0" fx="313.6" fy="0" spreadMethod="pad" gradientTransform="matrix(.007 0 0 .007 36.15 41.75)" id="j"><stop offset="0" stop-color="#FFC2C2"/><stop offset=".333" stop-color="#f66"/><stop offset=".722" stop-color="#fc0"/><stop offset=".992"/></radialGradient><radialGradient gradientUnits="userSpaceOnUse" r="819.2" cx="0" cy="0" spreadMethod="pad" gradientTransform="matrix(.006 0 0 .008 17.65 41.05)" id="k"><stop offset=".129" stop-color="#fc0"/><stop offset=".58"/></radialGradient><radialGradient gradientUnits="userSpaceOnUse" r="819.2" cx="0" cy="0" spreadMethod="pad" gradientTransform="matrix(.002 0 0 .002 14.85 2.55)" id="l"><stop offset="0" stop-color="#FFC2C2"/><stop offset=".333" stop-color="#f66"/><stop offset=".722" stop-color="#fc0"/><stop offset=".992"/></radialGradient><radialGradient gradientUnits="userSpaceOnUse" r="819.2" cx="0" cy="0" spreadMethod="pad" gradientTransform="matrix(.003 0 0 .003 12.8 7)" id="m"><stop offset="0" stop-color="#ff0"/><stop offset=".235"/><stop offset=".537" stop-color="#f00"/><stop offset=".686"/></radialGradient><radialGradient gradientUnits="userSpaceOnUse" r="819.2" cx="0" cy="0" spreadMethod="pad" gradientTransform="matrix(.002 0 0 .002 6.05 2.55)" id="n"><stop offset="0" stop-color="#FFC2C2"/><stop offset=".333" stop-color="#f66"/><stop offset=".722" stop-color="#fc0"/><stop offset=".992"/></radialGradient><radialGradient gradientUnits="userSpaceOnUse" r="819.2" cx="0" cy="0" spreadMethod="pad" gradientTransform="matrix(.002 0 0 .002 6.75 7.3)" id="o"><stop offset="0" stop-color="#ff0"/><stop offset=".235"/><stop offset=".537" stop-color="#f00"/><stop offset=".686"/></radialGradient><radialGradient gradientUnits="userSpaceOnUse" r="819.2" cx="0" cy="0" fx="99.2" fy="0" spreadMethod="pad" gradientTransform="matrix(.018 -.011 .009 .015 22.4 12.7)" id="p"><stop offset="0" stop-color="#FFC2C2"/><stop offset=".333" stop-color="#f66"/><stop offset=".722" stop-color="#fc0"/><stop offset=".992"/></radialGradient><radialGradient gradientUnits="userSpaceOnUse" r="819.2" cx="0" cy="0" spreadMethod="pad" gradientTransform="matrix(.01 0 0 .007 12.2 21.65)" id="q"><stop offset="0" stop-color="#FFC2C2"/><stop offset=".333" stop-color="#f66"/><stop offset=".722" stop-color="#fc0"/><stop offset=".992"/></radialGradient><radialGradient gradientUnits="userSpaceOnUse" r="819.2" cx="0" cy="0" spreadMethod="pad" gradientTransform="matrix(.006 0 0 .007 9.5 28.95)" id="r"><stop offset="0" stop-color="#FFC2C2"/><stop offset=".333" stop-color="#f66"/><stop offset=".722" stop-color="#fc0"/><stop offset=".992"/></radialGradient><radialGradient gradientUnits="userSpaceOnUse" r="819.2" cx="0" cy="0" spreadMethod="pad" gradientTransform="matrix(.003 0 0 .003 19.65 37.4)" id="s"><stop offset="0" stop-color="#FFC2C2"/><stop offset=".333" stop-color="#f66"/><stop offset=".722" stop-color="#fc0"/><stop offset=".992"/></radialGradient><radialGradient gradientUnits="userSpaceOnUse" r="819.2" cx="0" cy="0" spreadMethod="pad" gradientTransform="matrix(.007 0 0 .007 5.05 37.15)" id="t"><stop offset="0" stop-color="#FFC2C2"/><stop offset=".333" stop-color="#f66"/><stop offset=".722" stop-color="#fc0"/><stop offset=".992"/></radialGradient><radialGradient gradientUnits="userSpaceOnUse" r="819.2" cx="0" cy="0" spreadMethod="pad" gradientTransform="matrix(.01 .005 -.005 .01 30 9.45)" id="u"><stop offset="0" stop-color="#FFC2C2"/><stop offset=".333" stop-color="#f66"/><stop offset=".722" stop-color="#fc0"/><stop offset=".992"/></radialGradient><radialGradient gradientUnits="userSpaceOnUse" r="819.2" cx="0" cy="0" spreadMethod="pad" gradientTransform="matrix(.012 0 0 .012 10.95 7.1)" id="v"><stop offset="0" stop-color="#FFC2C2"/><stop offset=".333" stop-color="#f30"/><stop offset=".992"/></radialGradient></defs><path fill="#591D00" d="M42.6 18.85l-1.85.6-3.95-.25 2.9-1.55.4-.3 1.15-1.2 1.35 2.7M28.55 19.9l3.05.55q1.6-.05 2.9-1.05-.3 1-1.05 1.5l-1.15.8q-1.85.65-3.7.5l-.05-2.15v-.15m.2 4.1l3.85-.65 1-.4-.85 1q-1.25 1.5-3.05 1.9l-.65-.9v-.1l-.3-.85m2.65 3.2l3.7-3.4-.1.75-.7 2.3-.45.95-2.45-.6m11.25-3.65q-1.75.4-3.2-.5l-.5-.4 2.85-.35 1.1-.55.05-.1-.3 1.75v.15m1.55 2.05v.1q-.25.85-.25 1.8l-3.45.75q.95-.85 1.95-1.6.85-.7 1.75-1.05m-.25 3L43.8 31l-2.1-1-.35-.35 2.6-1.05m-.6 3.35l-.45.6-1.3-1.35 1.75.75m-1.2 1.55l-.7.9-1.7-.8 2.4-.1m-1.6 2.15l-.3.65-1-.5 1.3-.15m-.95 3.65l.05 1.6q-1.85-.9-3.95-.7l-1.7.35q.65-.55 1.45-.85l2.15-.55 2 .15m-.15 2.35l-.35 1H34l.65-.4q2.25-1.1 4.8-.6m-3.05-6.2v-1.1l1.7-.1 1 .4-2.7.8M36 33.2l-.7-.85 1.65-.55 1.5-.05L36 33.2m-1.4-1.85l-.4-1.5 1.8-.5 2.1-.05q-1.55.3-2.75 1.3l-.75.75m-3.45-27.1l.75.35-2.1.45.7-1.1.65.3m3.9 3.2l.65 1.15-1.9-.15 1.25-1m1.85 3.7l.05 1.45-1.5-.1 1.45-1.35m-10.15-7.9l2.05.15-1 2.85-1.05-3m-3.4 1.6l3.3 2.4-3.95-.75q.1-.95.65-1.65m-.6 4.25q1.5-1.5 3.7-1.35h.35q-1.25.75-2.55 1.75-.55.4-.5 1.1l.85.2q1.8-.2 2.9-1.05l2.8-2.1q-.4 1.75-1.4 3.05l-1.75 1.8-1.8 1.3-.15.45q.25 1.15 1.2 1.45 1.8.65 3.3-.5 1.2-1 1.9-2.35.35 1 .1 2.1-.4 1.45-1.6 2.55-.75.6-1.6.6l-.8.05-.8-.45-4.1 1.75 1.1-.7.6-.45 1.35-1.3-1.8-2.25-.5.45-1.5.25 1.7-1.35q-.85-1.55-1-3.55V9.1M12.2 16.2l4.95.3 2.15-.85 2.4-1.6.5-.5q-1.25 1.6-2.85 2.6-1.65 1-3.65 1.35h-3.15l-.35-1.3m2 3.4l4.8-.65 2.55-1.1 1.45-1.1-.35.65-.7 1q-.6.65-1.45.95l-3.75 1.25-1.35.15-1.2-1.15m3.1 2.4l2.4-.1q2-.2 3.95-1.15l-.6.7q-.95 1.4-2.6 1.4l-3.05-.75-.1-.05V22m3.35-18.4q.85 1.4.55 2.9l-.7 2.3-1.15 2.1.35-1.3.35-4.25q0-1.2-.5-2.25l1.1.5m-2.25-.8l.3 1.3q.4 1.95.45 3.95l-.25 1.3-.1-2.8q0-.95-.55-1.65l-1.1-1.45V3.4l.45-.75.8.15m-1.7 2.25l.5 3.1-.8.4-2.65-.1 1.45-.2 1.1-1.95-.65.1-.4-.1-.7-.4 2.15-.85m.85 4.9l-.2 3.8-.85-.45.15-.05.1-.25-1.45.1 1.4-1.8-1.55.45 2.4-1.8m8.3 7.05l1.05.7-1.05-.7m-1.8-2.25l-.3-.65.3.65M11.85 2.3q.4 1.75-.5 3l-.85 1.15-.25-2.8-.55 3.1-.4 1.35q-.35-2.05.05-4.1l.2-.65L8.5 5.1l.4 1.95-.9-1.5q-.65-.95 0-1.8L9.3 2.1l2.55.2m-7 3.6l1.8-.1q-1.3.1-1.4 1.35l.05.35.35.4.35.4 1.4.3-2.55.65V5.9m-.3 4.15l1.3.75-1.3-.1 1.15.95-1.55.55.65.65-1.3.1 1.05-2.9m3.4 5.2V13.6l3.25 2.9-3.25-1.25m-.3 1.85q.9 1.85 2.9 2.95l1 .55-5.3-1.55 1.4-1.95M5.9 20.5l1.4.8 2.05.45-3.1.2q-.35-.75-.35-1.45m1.85 3.35l.6.6.6 2.6-2.2-2.35 1-.85m6.55 2q-1.9-.65-2.9-2.35l-.35-.7 4.8 2.3-1.55.75m2.4-1.65l-1.9-1.3-1.35-1.6 4 1.7-.05.05-.7 1.15M12 28.95l-2.1-1.6 2.9.1-.8 1.5m4.25 7.1l.8.4-.5.6-.3-1m6.55-1.45l-.8-.95 1.9.05-1.1.9m1.85-1.9l-.95-1.2 1.2.65-.25.55m.55-1.8V30.35l4.5-.1-4.15 2.6-.1-.9-.2-.8-.05-.25m-5.8-1q1.95.1 3 1.7l.7 1q-2.15-1.2-4.65-1.25h-.5l1.45-1.45m-2.3 2.7q2.15 0 3.8 1.45l.95.75-5.5-.45.75-1.75M6.35 25.25l1.75 3.1-2.7-1.05.95-2.05m-1.15 3.4l1.9 1.75-2.05-.2.15-1.55m2.95 3l-.25-1.5.9 1.15-.65.35m1.5-.7l-.4-2L11 30l-1.35.95m-9.4 5.1l4.5 2.45-3.85.15-.7-.15.05-2.45M2.35 33l3.45 3.3-4.4-1.9.95-1.4M19 38.65l1.1-1.15-.35 1.7-.75-.55m2.75-1.5l-1.4-.2 1.2-.9.2 1.1m-3.1 1.3L18.1 38l1.55-.85-1 1.3m13.45-7.5v1.9L30.4 32l1.7-1.05m.05 3.45l-.05 1-1.85-.85 1.9-.15m-2.25 5.4l-.6.65-.95-.8 1.55.15m-3.55.1l.15-.8.7 1-.85-.2m.2-1.25l.15-.65.75 1.2-.9-.55m-.1-3.05l-.65-1.75q1.9-1.15 4.2-.6l-3.55 2.35m.65 1.35q1-.45 2.05-.6l1.8-.35-3.1 1.85-.75-.9m-1.9-6.1l.05.3-.05-.3"/><path d="M11.4 9.05l-.95 1.35-1.8.2q-1.1-.05-1.55-1.25l4.3-.3"/><path fill="url(#a)" d="M22.15 4.35q.6.7.15 1.55-1.3 2.25-2.1 4.8-.55 1.8-1.8 3.2L16.85 15l-1.5-.05-3.2-.55-.95-.25q-1.7-.4-2.35-1.55h1.3l2.35-.25 2.85 1.6q1.55.75 2-.2l.2-3.8-.3-1.75-.05-.05-.5-3.1-.15-.65.6-.95 1.1 1.45q.55.7.55 1.65l.1 2.8.25-1.3q-.05-2-.45-3.95l-.3-1.3 1.15.3q.5 1.05.5 2.25L19.7 9.6l-.35 1.3 1.15-2.1.7-2.3q.3-1.5-.55-2.9l1.5.75"/><path fill="url(#b)" d="M22.15 4.35l-1.5-.75-1.1-.5 2.25-.55q2.15-.4 4 .8l-1.75.55-.5.75-.2.2q-.55.7-.65 1.65l.05 2.6v1.45q.15 2 1 3.55l-1.7 1.35 1.5-.25.5-.45 1.8 2.25-1.35 1.3-.6.45-1.1.7 4.1-1.75.8.45.85.25v1.65l-2.45 2q-1.4 1-3.3.95l-2.35-.15q1.65 0 2.6-1.4l.6-.7q-1.95.95-3.95 1.15l-2.4.1-.1-.05-.25-.15-1.55-1.05 1.35-.15 3.75-1.25q.85-.3 1.45-.95l.7-1 .35-.65-1.45 1.1-2.55 1.1-4.8.65-.6-.65-1.05-1.45h3.15q2-.35 3.65-1.35 1.6-1 2.85-2.6l-.5.5-2.4 1.6-2.15.85-4.95-.3-.05-1.8 3.2.55 1.5.05 1.55-1.1q1.25-1.4 1.8-3.2.8-2.55 2.1-4.8.45-.85-.15-1.55"/><path fill="url(#c)" d="M28.6 22.2l.15 1.8.3.85v.1l.65.9.55.55-.85 1.35-2.3-.25q-1.95.15-2.05 2.15H24.9q-1.5-2-3.75-1.2l-.15.05q-1.2-.7-2.1-2.1-1.1-1.6-1.5-3.35l.05-.05-.05-.8v-.1l3.05.75 2.35.15q1.9.05 3.3-.95l2.45-2 .05 2.15"/><path fill="url(#d)" d="M28.6 22.2q1.85.15 3.7-.5l1.15-.8q.75-.5 1.05-1.5-1.3 1-2.9 1.05l-3.05-.55v-1.5h2.4q1.2-.2 2.1-.95l2.55-2.3.9-1.25 2.6.95 2.15 1.3-1.15 1.2-.4.3-2.9 1.55 3.95.25 1.85-.6.35 2.8-.05.1-1.1.55-2.85.35.5.4q1.45.9 3.2.5 0 1.8-2.5 3.05-2.5 1.25-6 1.25l-.3-.05.45-.95.7-2.3.1-.75-3.7 3.4-1.15-.8-.55-.55q1.8-.4 3.05-1.9l.85-1-1 .4-3.85.65-.15-1.8"/><path fill="url(#e)" d="M34.15 27.85q3.5 0 6-1.25t2.5-3.05v-.15q.65 0 1.1.7.45.6.45 1.5-.9.35-1.75 1.05-1 .75-1.95 1.6l3.45-.75v1.1l-2.6 1.05.35.35 2.1 1-.45.95-1.75-.75 1.3 1.35-.75.95-2.4.1 1.7.8-.9 1.25-1.3.15 1 .5-.45 1.7-.55.4-2.25-.45q-.95-.5-.95-1.2l.35-1.3 2.7-.8-1-.4-1.7.1-.4-1.15 2.45-1.45-1.5.05-1.65.55-.7-1 .75-.75q1.2-1 2.75-1.3l-2.1.05-1.8.5q-.2-1-.05-2"/><path fill="url(#f)" d="M25.05 29.65q.1-2 2.05-2.15l2.3.25q1.1 0 1.9.9.8.9.8 2.2v.1L30.4 32l1.7.85.05 1.55-1.9.15 1.85.85-.2 2.05q-.3 1.6-1.55 1.55l-2.5-1.15 3.1-1.85-1.8.35q-1.05.15-2.05.6l-.25-.45-.4-.9L30 33.25q-2.3-.55-4.2.6l-.25-1 4.15-2.6-4.5.1-.15-.55v-.15"/><path fill="url(#g)" d="M21.15 28.45q2.25-.8 3.75 1.2h.05l.1.15.15.55v.55l-.3 1.25-1.2-.65.95 1.2-.75 1-1.9-.05.8.95-1.5.9-3.75 1.9q-.7.15-1-.35l.5-.6-.8-.4.1-1.7 5.5.45-.95-.75q-1.65-1.45-3.8-1.45l.85-1.25h.5q2.5.05 4.65 1.25l-.7-1q-1.05-1.6-3-1.7l1.4-1.2.2-.15.15-.1"/><path fill="url(#h)" d="M30.35 39l-.45.8-1.55-.15.95.8-.35.25q-.8.8-1.95.35l-.25-.15-.3-.45-.1-.55.85.2-.7-1 .05-.45.9.55-.75-1.2.05-.6.05-.2.05-.7.25.45.75.9 2.5 1.15"/><path fill="url(#i)" d="M28.95 40.7l.2.25.6 1.1q.4.8.6 1.75.25 1.05.9 1.95.45.6.1 1.25l-.6.45-3.9.2-.85-.55q-.4-.25-.45-.65-.3-1.6-.3-3.2 0-1.65 1.2-2.8l.3.45.25.15q1.15.45 1.95-.35"/><path fill="url(#j)" d="M39.25 38.4l.35.9-2-.15-2.15.55q-.8.3-1.45.85l1.7-.35q2.1-.2 3.95.7l-.2.75q-2.55-.5-4.8.6l-.65.4h5.1l.45.3.25.05.55-.25 1.05-.8v.95l-.2.75-.7 1.35-.25.75-.7.15-2.65.3-3.8.1-.5-.5-.55-1.1-.2-1.2-.65.2-.3.1v-.2l.05-.25q.3-.95.75-1.8.85-1.55 2.1-2.75l2.25-2.05q0 .7.95 1.2l2.25.45"/><path fill="url(#k)" d="M19.75 39.2l1.5.05.45-1.6 1.55.6-.1.65-.3 2-.3 2.75-.4.95-5.35-.15 2.95-5.25"/><path fill="url(#l)" d="M16.15 1.35l-.9 2.15q-.25.35-.8.35l-.8-.55.1-.45 2.4-1.5"/><path fill="url(#m)" d="M14.65 7l.05.1-1.65 1-2.15-.7v-.05L12.45 6l2.2 1"/><path fill="url(#n)" d="M5.45 3.05l-.35-1.1 1.9.8-.8.55q-.45.05-.75-.25"/><path fill="url(#o)" d="M5.3 7.5l.5-.65q.4-.6 1.25-.4.8.2 1.3.95l-.7.65-.2.05-.05.05-1.7-.25h-.05l-.35-.4"/><path fill="url(#p)" d="M12.15 14.4l.05 1.8.35 1.3 1.05 1.45q-2.05.45-3.7-.95l-1.5-1.45-.45-1.3 3.25 1.25-3.25-2.9.3-1h.6q.65 1.15 2.35 1.55l.95.25"/><path fill="url(#q)" d="M13.6 18.95l.6.65 1.2 1.15 1.55 1.05.25.15.1.05v.05l.1.15.05.8-4-1.7 1.35 1.6 1.9 1.3-.85.9-4.8-2.3.35.7q1 1.7 2.9 2.35l-1.2.2-1.3-.05q-1.85-.35-3.45-1.55l-.6-.6-1.5-1.9 3.1-.2-2.05-.45-1.4-.8.35-1.45 5.3 1.55-1-.55q-2-1.1-2.9-2.95l.75-.55L9.9 18q1.65 1.4 3.7.95"/><path fill="url(#r)" d="M8.35 24.45q1.6 1.2 3.45 1.55l1.3.05-.3 1.4-2.9-.1 2.1 1.6L11 30l-1.75-1.05.4 2-.85.35-.9-1.15.25 1.5L6.2 33l-1.3.2-.95-1.2q.9-.7 1.1-1.8l2.05.2-1.9-1.75.2-1.35 2.7 1.05-1.75-3.1.4-.55 2.2 2.35-.6-2.6"/><path fill="url(#s)" d="M17.55 37.4l3.75-1.9.25.55-1.2.9 1.4.2-.05.5-.45 1.6-1.5-.05.35-1.7-1.1 1.15-.35-.2 1-1.3-1.55.85-.55-.6"/><path fill="url(#t)" d="M3.95 32l.95 1.2 1.3-.2 3.15 2.2.45 4.05h-.55l-1-.75-1.2-1.4q-.7.65-.65 1.75 0 .6.35 1.15l.75 1.45q-.85 1.1-2.3.95-1.3-.15-2.35-1.1L.2 38.5l.7.15 3.85-.15-4.5-2.45L1.4 34.4l4.4 1.9L2.35 33l1.6-1"/><path fill="url(#u)" d="M36.5 13.9l-.9 1.25-2.55 2.3q-.9.75-2.1.95h-2.4l-.85-.25.8-.05q.85 0 1.6-.6 1.2-1.1 1.6-2.55.25-1.1-.1-2.1-.7 1.35-1.9 2.35-1.5 1.15-3.3.5-.95-.3-1.2-1.45l.15-.45 1.8-1.3 1.75-1.8q1-1.3 1.4-3.05l-2.8 2.1q-1.1.85-2.9 1.05l-.85-.2q-.05-.7.5-1.1 1.3-1 2.55-1.75h-.35q-2.2-.15-3.7 1.35l-.05-2.6 3.95.75-3.3-2.4.2-.2.5-.75 1.75-.55.95-.1 1.05 3 1-2.85 1.7.55-.7 1.1 2.1-.45 3.15 2.85-1.25 1 1.9.15 1.2 2.55-1.45 1.35 1.5.1-.45 1.3"/><path fill="url(#v)" d="M17.15 3.45l-.6.95.15.65-2.15.85.7.4.4.1.65-.1-1.1 1.95-1.45.2 2.65.1.8-.4.05.05.3 1.75-2.4 1.8 1.55-.45-1.4 1.8 1.45-.1-.1.25-.15.05.85.45q-.45.95-2 .2l-2.85-1.6-2.35.25h-1.9l-2.6.6-1.75.4-.4-.65 1.3-.1-.65-.65 1.55-.55-1.15-.95 1.3.1-1.3-.75.3-.8L7.4 8.6 6 8.3l-.35-.4h.05l1.7.25.05-.05.2-.05.7-.65q-.5-.75-1.3-.95-.85-.2-1.25.4l-.5.65-.05-.35q.1-1.25 1.4-1.35l-1.8.1q.5-1.25-.05-2.3L3.7 1 3.65.45q.4-.45 1-.25l3.6 1.45 1.05.45L8 3.75q-.65.85 0 1.8l.9 1.5-.4-1.95 1.05-1.75-.2.65q-.4 2.05-.05 4.1l.4-1.35.55-3.1.25 2.8.85-1.15q.9-1.25.5-3Q14.6.65 17.75 0l.7.25-.85 2.4-.45.75v.05m-1-2.1l-2.4 1.5-.1.45.8.55q.55 0 .8-.35l.9-2.15M14.7 7.1h.1l-.15-.1-2.2-1-1.55 1.35-.05.05h.05l2.15.7 1.65-1m-3.3 1.95l-4.3.3q.45 1.2 1.55 1.25l1.8-.2.95-1.35M6.2 3.3l.8-.55-1.9-.8.35 1.1q.3.3.75.25"/><path fill="none" stroke="#000" stroke-width=".05" stroke-linecap="round" stroke-linejoin="round" d="M29.7 25.85l.55.55m3.6 1.4l.3.05m8.5-4.45v.15M39.6 39.3l.05 1.6m-.2.75l-.35 1m-21.9-20.7l.1.05m11.25-1.95v-.15M17.45 23l-.05-.8-.1-.15V22m.1.1l-.1-.05m.1.15v-.1m.05.9l-.05.05M21 28.5l.15-.05m4.05 2.45v-.05m-.15-1.05l-.1-.15M3.95 32l.95 1.2 1.3-.2m19.05-1.85l-.05-.25M21 28.55v-.05l-.2.2"/><path fill="none" stroke="#7D1900" stroke-width=".05" stroke-linecap="round" stroke-linejoin="round" d="M17.4 23.05q.4 1.75 1.5 3.35.9 1.4 2.1 2.1m8.4-.75l.85-1.35"/><path fill="none" stroke="#F0C000" stroke-width=".05" stroke-linecap="round" stroke-linejoin="round" d="M24.9 29.65H25.05q.1-2 2.05-2.15l2.3.25m-4.2 2.6l-.15-.55m7.05 1.05q0-1.3-.8-2.2-.8-.9-1.9-.9m-4.35 1.9v.15"/><path fill="none" stroke="#AD8A00" stroke-width=".05" stroke-linecap="round" stroke-linejoin="round" d="M21.15 28.45q2.25-.8 3.75 1.2m-3.75-1.2l-.15.1-.2.15-1.4 1.2"/><path fill="none" stroke="#591D00" stroke-width=".05" stroke-linecap="round" stroke-linejoin="round" d="M19.4 29.9l-1.45 1.45m24.65-12.5l-1.35-2.7m1.4 7.25l.3-1.75m1 5.85q0-.95.25-1.8v-.1m-.25 3L43.8 31m-.45.95l-.45.6m-.75.95l-.7.9m-.9 1.25l-.3.65m-3.85-.85v-1.1M36 33.2l-.7-.85m-.7-1l-.4-1.5m-3.05-25.6l-.65-.3m4.55 3.5l.65 1.15m1.2 2.55l.05 1.45M28.8 3.4l-2.05-.15m-6.1.35l-1.1-.5M16.7 5.05l.5 3.1m.35 1.8l-.2 3.8M22.7 6.5q.1-.95.65-1.65M28.6 22.2l-.05-2.15M17.6 2.65l.8.15M4.85 5.9v3.35m3.1 4.35v1.65M5.9 20.5q0 .7.35 1.45m1.5 1.9l-1 .85m.9-7.6l-1.4 1.95m6.3-1.55l-.35-1.3m5.2 5.9l3.05.75M16.7 24.2l.7-1.15m-3.2-3.45l1.2 1.15M4.55 10.05l-1.05 2.9m9.3 14.5l-.8 1.5m13.2 1.9v-.35m-8.85 3.85l.75-1.75m-.85 3.45l.3 1m-2.25-11.2l1.55-.75m-9.5.15L5.4 27.3M11 30l-1.35.95M1.4 34.4l.95-1.4m5.8-1.35l.65-.35m-3.6-2.65l-.15 1.55M19 38.65l.75.55M18.1 38l.55.45m-18.4-2.4L.2 38.5m31.2-11.3l2.45.6m-1.75 5.05v-1.9m.05 3.45l-.05 1m-2.2 4.4l-.6.65m-2.95-.55l.15-.8m.05-.45l.15-.65m-.25-2.4l-.65-1.75m-.25-1l-.1-.9-.2-.8-.05-.3m4.5-5l-.65-.9m0-.1l-.3-.85m-4.1 8.7l.25-.55m-2.1 2.45l1.1-.9m3.95 4.15l-.75-.9m-5.35.2l-.2-1.1"/><path fill="none" stroke="#FF6863" stroke-width=".05" stroke-linecap="round" stroke-linejoin="round" d="M16.35 34.35l-.1 1.7m.3 1q.3.5 1 .35l3.75-1.9 1.5-.9m-4.85-3.25l-.85 1.25m-9.6 8.85L6.75 40q-.35-.55-.35-1.15-.05-1.1.65-1.75"/><path fill="none" stroke="#FFA427" stroke-width=".05" stroke-linecap="round" stroke-linejoin="round" d="M23.9 33.7l.75-1"/><path fill="none" stroke="#DAAE00" stroke-width=".05" stroke-linecap="round" stroke-linejoin="round" d="M26.75 3.25l-.95.1-1.75.55-.5.75-.2.2M22.7 6.5l.05 2.6M12.8 27.45l.3-1.4m11.8 6.1l.3-1.25"/><path fill="none" stroke="#FF6A6A" stroke-width=".05" stroke-linecap="round" stroke-linejoin="round" d="M26.7 38l.05-.6m.05-.2l.05-.7-.4-.9m-.65-1.75l-.25-1"/><path fill="none" stroke="#FF7853" stroke-width=".05" stroke-linecap="round" stroke-linejoin="round" d="M26.85 36.5l.25.45"/><path fill="none" stroke="#FFBC0F" stroke-width=".05" stroke-linecap="round" stroke-linejoin="round" d="M27.85 37.85l2.5 1.15"/><path fill="none" stroke="#E5B700" stroke-width=".05" stroke-linecap="round" stroke-linejoin="round" d="M32.1 35.4l-.2 2.05q-.3 1.6-1.55 1.55"/><path fill="none" stroke="#FFAE1D" stroke-width=".05" stroke-linecap="round" stroke-linejoin="round" d="M32.1 32.85l.05 1.55"/><path fill="none" stroke="#FFBF0C" stroke-width=".05" stroke-linecap="round" stroke-linejoin="round" d="M31.9 4.6l3.15 2.85m.65 1.15l1.2 2.55M28.8 3.4l1.7.55M30.35 39l-.45.8m-.6.65l-.35.25m-2.5-.25l-.1-.55m.15-.8l.05-.45"/><path fill="none" stroke="#ECBD00" stroke-width=".05" stroke-linecap="round" stroke-linejoin="round" d="M21.7 37.65l.05-.5m-.2-1.1l-.25-.55M18.1 38l-.55-.6m1.1 1.05l.35.2"/><path fill="none" stroke="#614E00" stroke-width=".05" stroke-linecap="round" stroke-linejoin="round" d="M19.75 39.2l1.5.05.45-1.6m-1.95 1.55l-2.95 5.25 5.35.15.4-.95.3-2.75.3-2 .1-.65-1.55-.6m7.25 3.05l.2.25.6 1.1q.4.8.6 1.75.25 1.05.9 1.95.45.6.1 1.25l-.6.45-3.9.2-.85-.55q-.4-.25-.45-.65-.3-1.6-.3-3.2 0-1.65 1.2-2.8m2.5.25q-.8.8-1.95.35l-.25-.15-.3-.45"/><path fill="none" stroke="#FFB11A" stroke-width=".05" stroke-linecap="round" stroke-linejoin="round" d="M6.25 21.95l1.5 1.9.6.6q1.6 1.2 3.45 1.55l1.3.05 1.2-.2m1.55-.75l.85-.9"/><path fill="none" stroke="#BC9600" stroke-width=".05" stroke-linecap="round" stroke-linejoin="round" d="M22.15 4.35q.6.7.15 1.55-1.3 2.25-2.1 4.8-.55 1.8-1.8 3.2L16.85 15l-1.5-.05-3.2-.55m7.4-11.3l-1.15-.3m-9.55 9.8q.65 1.15 2.35 1.55l.95.25M8.4 16.55l-.75.55m-1.4 1.95L5.9 20.5m-.5 6.8l-.2 1.35m-.15 1.55q-.2 1.1-1.1 1.8m2.8-7.3l-.4.55"/><path fill="none" stroke="#B89300" stroke-width=".05" stroke-linecap="round" stroke-linejoin="round" d="M6.2 33l1.95-1.35"/><path fill="none" stroke="#FF7575" stroke-width=".05" stroke-linecap="round" stroke-linejoin="round" d="M11 30l1-1.05M8.8 31.3l.85-.35"/><path fill="none" stroke="#CEA500" stroke-width=".05" stroke-linecap="round" stroke-linejoin="round" d="M1.4 34.4L.25 36.05M.2 38.5l2.65 2.8q1.05.95 2.35 1.1 1.45.15 2.3-.95m2.3-2.2l-.45-4.05M3.95 32l-1.6 1"/><path fill="none" stroke="#FFC308" stroke-width=".05" stroke-linecap="round" stroke-linejoin="round" d="M9.35 35.2L6.2 33"/><path fill="none" stroke="#FF6962" stroke-width=".05" stroke-linecap="round" stroke-linejoin="round" d="M7.05 37.1l1.2 1.4 1 .75h.55"/><path fill="none" stroke="#DDB100" stroke-width=".05" stroke-linecap="round" stroke-linejoin="round" d="M39.25 38.4l.35.9m.05 1.6l-.2.75m-.35 1l.45.3.25.05.55-.25 1.05-.8v.95l-.2.75-.7 1.35-.25.75-.7.15-2.65.3-3.8.1-.5-.5-.55-1.1-.2-1.2-.65.2-.3.1v-.2l.05-.25q.3-.95.75-1.8.85-1.55 2.1-2.75l2.25-2.05"/><path fill="none" stroke="#D6AB00" stroke-width=".05" stroke-linecap="round" stroke-linejoin="round" d="M36.05 36.75l.35-1.3m3.85.85L39.8 38l-.55.4-2.25-.45q-.95-.5-.95-1.2"/><path fill="none" stroke="#fc0" stroke-width=".05" stroke-linecap="round" stroke-linejoin="round" d="M36.4 34.35L36 33.2m-.7-.85l-.7-1m-.4-1.5q-.2-1-.05-2"/><path fill="none" stroke="#FFA4A4" stroke-width=".05" stroke-linecap="round" stroke-linejoin="round" d="M43.8 31l-.45.95m-.45.6l-.75.95m-.7.9l-.9 1.25"/><path fill="none" stroke="#FF7A51" stroke-width=".05" stroke-linecap="round" stroke-linejoin="round" d="M43.95 27.5v1.1"/><path fill="none" stroke="#D2A800" stroke-width=".05" stroke-linecap="round" stroke-linejoin="round" d="M44.2 25.6q0-.9-.45-1.5-.45-.7-1.1-.7"/><path fill="none" stroke="#8C7000" stroke-width=".05" stroke-linecap="round" stroke-linejoin="round" d="M41.25 16.15l-2.15-1.3-2.6-.95m-7.95 4.5v1.5m.05 2.3l.15 1.8m1.5 2.4l1.15.8m2.75.65q3.5 0 6-1.25t2.5-3.05m.3-1.9l-.35-2.8"/><path fill="none" stroke="#9F1F00" stroke-width=".05" stroke-linecap="round" stroke-linejoin="round" d="M20.45 22.85l2.35.15q1.9.05 3.3-.95l2.45-2"/><path fill="none" stroke="#490D00" stroke-width=".05" stroke-linecap="round" stroke-linejoin="round" d="M23.75 14.1q-.85-1.55-1-3.55V9.1m4.95 9.05l-.8-.45-1.05-.7-1.8-2.25m-.3-.65l.3.65"/><path fill="none" stroke="#675200" stroke-width=".05" stroke-linecap="round" stroke-linejoin="round" d="M36.5 13.9l-.9 1.25-2.55 2.3q-.9.75-2.1.95h-2.4m8.4-5.8l-.45 1.3m-8.8 4.25l.85.25"/><path fill="none" stroke="#F53100" stroke-width=".05" stroke-linecap="round" stroke-linejoin="round" d="M12.15 14.4l.05 1.8m.35 1.3l1.05 1.45.6.65m1.2 1.15l1.55 1.05M25.8 3.35q-1.85-1.2-4-.8l-2.25.55"/><path fill="none" stroke="#856A00" stroke-width=".05" stroke-linecap="round" stroke-linejoin="round" d="M20.65 3.6l1.5.75"/><path fill="none" stroke="#B72400" stroke-width=".05" stroke-linecap="round" stroke-linejoin="round" d="M17.15 3.45l-.6.95.15.65m.55 3.15l.3 1.75m-.2 3.8q-.45.95-2 .2l-2.85-1.6-2.35.25h-1.3m8.75-9.95l.85-2.4-.7-.25q-3.15.65-5.9 2.3L9.3 2.1l-1.05-.45L4.65.2q-.6-.2-1 .25L3.7 1l1.1 2.6q.55 1.05.05 2.3m0 3.35l-.3.8m-1.05 2.9l.4.65 1.75-.4 2.6-.6h.6m8.3-9.2l.45-.75M7.95 13.6l.3-1"/><path fill="none" stroke="#101010" stroke-width=".05" stroke-linecap="round" stroke-linejoin="round" d="M11.4 9.05l-4.3.3q.45 1.2 1.55 1.25l1.8-.2.95-1.35"/><path fill="none" stroke="#FF6868" stroke-width=".05" stroke-linecap="round" stroke-linejoin="round" d="M16.15 1.35l-2.4 1.5-.1.45.8.55q.55 0 .8-.35l.9-2.15m-10.7 1.7l-.35-1.1 1.9.8-.8.55"/><path fill="none" stroke="#886D00" stroke-width=".05" stroke-linecap="round" stroke-linejoin="round" d="M8.4 16.55L9.9 18q1.65 1.4 3.7.95m-5.65-3.7l.45 1.3"/><path fill="none" stroke="#440" stroke-width=".05" stroke-linecap="round" stroke-linejoin="round" d="M5.3 7.5l.5-.65q.4-.6 1.25-.4.8.2 1.3.95l-.7.65m-.25.1L5.7 7.9m9-.8h.1l-.15-.1m.05.1l-1.65 1-2.15-.7h-.05l.05-.05L12.45 6l2.2 1m-9 .9l-.35-.4"/></svg>