<svg xmlns="http://www.w3.org/2000/svg" viewBox="0 0 38.3 41.5" width="38.3" height="41.5"><defs><linearGradient gradientUnits="userSpaceOnUse" x1="-819.2" x2="819.2" gradientTransform="matrix(-.008 0 0 .008 9.25 6.55)" id="a"><stop offset="0" stop-color="#2E2E2E"/><stop offset=".271" stop-color="#fc3"/><stop offset=".467" stop-color="#9D9D9D"/><stop offset=".722" stop-color="#630"/><stop offset="1"/></linearGradient><radialGradient gradientUnits="userSpaceOnUse" r="819.2" cx="0" cy="0" spreadMethod="pad" gradientTransform="matrix(-.002 0 0 .002 3.35 6.2)" id="b"><stop offset="0" stop-color="#ccc"/><stop offset=".573" stop-color="#999"/><stop offset="1" stop-color="#fc0"/></radialGradient><radialGradient gradientUnits="userSpaceOnUse" r="819.2" cx="0" cy="0" spreadMethod="pad" gradientTransform="matrix(-.003 0 0 .003 14.95 1.95)" id="c"><stop offset="0" stop-color="#ccc"/><stop offset=".573" stop-color="#999"/><stop offset="1" stop-color="#fc0"/></radialGradient><radialGradient gradientUnits="userSpaceOnUse" r="819.2" cx="0" cy="0" spreadMethod="pad" gradientTransform="matrix(-.002 0 0 .002 18.15 2.4)" id="d"><stop offset="0" stop-color="#ccc"/><stop offset=".573" stop-color="#999"/><stop offset="1" stop-color="#fc0"/></radialGradient><radialGradient gradientUnits="userSpaceOnUse" r="819.2" cx="0" cy="0" spreadMethod="pad" gradientTransform="matrix(-.002 0 0 .002 19.65 4)" id="e"><stop offset="0" stop-color="#ccc"/><stop offset=".573" stop-color="#999"/><stop offset="1" stop-color="#fc0"/></radialGradient><radialGradient gradientUnits="userSpaceOnUse" r="819.2" cx="0" cy="0" spreadMethod="pad" gradientTransform="matrix(-.001 0 0 .001 19.7 5.5)" id="f"><stop offset="0" stop-color="#ccc"/><stop offset=".573" stop-color="#999"/><stop offset="1" stop-color="#fc0"/></radialGradient><radialGradient gradientUnits="userSpaceOnUse" r="819.2" cx="0" cy="0" spreadMethod="pad" gradientTransform="matrix(-.001 0 0 .001 9.8 6.7)" id="g"><stop offset="0" stop-color="#ccc"/><stop offset=".573" stop-color="#999"/><stop offset="1" stop-color="#fc0"/></radialGradient><radialGradient gradientUnits="userSpaceOnUse" r="819.2" cx="0" cy="0" spreadMethod="pad" gradientTransform="matrix(-.005 0 0 .005 8.9 12.85)" id="h"><stop offset="0" stop-color="#ccc"/><stop offset=".573" stop-color="#999"/><stop offset="1" stop-color="#fc0"/></radialGradient><radialGradient gradientUnits="userSpaceOnUse" r="819.2" cx="0" cy="0" spreadMethod="pad" gradientTransform="matrix(-.003 0 0 .003 10.85 11.95)" id="i"><stop offset="0" stop-color="#ccc"/><stop offset=".573" stop-color="#999"/><stop offset="1" stop-color="#fc0"/></radialGradient><radialGradient gradientUnits="userSpaceOnUse" r="819.2" cx="0" cy="0" spreadMethod="pad" gradientTransform="matrix(-.008 0 0 .008 15.95 12.45)" id="j"><stop offset="0" stop-color="#ccc"/><stop offset=".573" stop-color="#999"/><stop offset="1" stop-color="#fc0"/></radialGradient><radialGradient gradientUnits="userSpaceOnUse" r="819.2" cx="0" cy="0" spreadMethod="pad" gradientTransform="matrix(-.003 0 0 .003 14.45 10.75)" id="k"><stop offset="0" stop-color="#ccc"/><stop offset=".573" stop-color="#999"/><stop offset="1" stop-color="#fc0"/></radialGradient><radialGradient gradientUnits="userSpaceOnUse" r="819.2" cx="0" cy="0" spreadMethod="pad" gradientTransform="matrix(-.002 0 0 .002 19.45 7.55)" id="l"><stop offset="0" stop-color="#ccc"/><stop offset=".573" stop-color="#999"/><stop offset="1" stop-color="#fc0"/></radialGradient><radialGradient gradientUnits="userSpaceOnUse" r="819.2" cx="0" cy="0" spreadMethod="pad" gradientTransform="matrix(-.001 0 0 .001 17.1 9.7)" id="m"><stop offset="0" stop-color="#ccc"/><stop offset=".573" stop-color="#999"/><stop offset="1" stop-color="#fc0"/></radialGradient><radialGradient gradientUnits="userSpaceOnUse" r="819.2" cx="0" cy="0" spreadMethod="pad" gradientTransform="matrix(-.005 0 0 .005 17.5 15)" id="n"><stop offset="0" stop-color="#ccc"/><stop offset=".573" stop-color="#999"/><stop offset="1" stop-color="#fc0"/></radialGradient><radialGradient gradientUnits="userSpaceOnUse" r="819.2" cx="0" cy="0" spreadMethod="pad" gradientTransform="matrix(-.006 0 0 .006 16.45 17.6)" id="o"><stop offset="0" stop-color="#ccc"/><stop offset=".518" stop-color="#636"/><stop offset=".902"/></radialGradient><radialGradient gradientUnits="userSpaceOnUse" r="819.2" cx="0" cy="0" spreadMethod="pad" gradientTransform="matrix(-.005 0 0 .005 16.95 19.35)" id="p"><stop offset="0" stop-color="#ccc"/><stop offset=".518" stop-color="#636"/><stop offset=".902"/></radialGradient><radialGradient gradientUnits="userSpaceOnUse" r="819.2" cx="0" cy="0" spreadMethod="pad" gradientTransform="matrix(-.005 0 0 .005 17.5 21.1)" id="q"><stop offset="0" stop-color="#ccc"/><stop offset=".518" stop-color="#636"/><stop offset=".902"/></radialGradient><radialGradient gradientUnits="userSpaceOnUse" r="819.2" cx="0" cy="0" spreadMethod="pad" gradientTransform="matrix(-.002 0 0 .002 12.35 19.1)" id="r"><stop offset="0" stop-color="#ccc"/><stop offset=".573" stop-color="#999"/><stop offset="1" stop-color="#fc0"/></radialGradient><radialGradient gradientUnits="userSpaceOnUse" r="819.2" cx="0" cy="0" spreadMethod="pad" gradientTransform="matrix(-.001 0 0 .001 13.15 20.35)" id="s"><stop offset="0" stop-color="#ccc"/><stop offset=".573" stop-color="#999"/><stop offset="1" stop-color="#fc0"/></radialGradient><radialGradient gradientUnits="userSpaceOnUse" r="819.2" cx="0" cy="0" spreadMethod="pad" gradientTransform="matrix(-.003 0 0 .003 10.2 16)" id="t"><stop offset="0" stop-color="#ccc"/><stop offset=".573" stop-color="#999"/><stop offset="1" stop-color="#fc0"/></radialGradient><radialGradient gradientUnits="userSpaceOnUse" r="819.2" cx="0" cy="0" spreadMethod="pad" gradientTransform="matrix(-.002 0 0 .002 11.2 17.85)" id="u"><stop offset="0" stop-color="#ccc"/><stop offset=".573" stop-color="#999"/><stop offset="1" stop-color="#fc0"/></radialGradient><radialGradient gradientUnits="userSpaceOnUse" r="819.2" cx="0" cy="0" spreadMethod="pad" gradientTransform="matrix(-.002 0 0 .002 2.2 9.35)" id="v"><stop offset="0" stop-color="#ccc"/><stop offset=".573" stop-color="#999"/><stop offset="1" stop-color="#fc0"/></radialGradient><radialGradient gradientUnits="userSpaceOnUse" r="819.2" cx="0" cy="0" spreadMethod="pad" gradientTransform="matrix(-.001 0 0 .001 2.6 11.35)" id="w"><stop offset="0" stop-color="#ccc"/><stop offset=".573" stop-color="#999"/><stop offset="1" stop-color="#fc0"/></radialGradient><radialGradient gradientUnits="userSpaceOnUse" r="819.2" cx="0" cy="0" spreadMethod="pad" gradientTransform="matrix(-.001 0 0 .001 3.25 12.7)" id="x"><stop offset="0" stop-color="#ccc"/><stop offset=".573" stop-color="#999"/><stop offset="1" stop-color="#fc0"/></radialGradient><radialGradient gradientUnits="userSpaceOnUse" r="819.2" cx="0" cy="0" spreadMethod="pad" gradientTransform="matrix(-.005 0 0 .005 7.05 35.2)" id="y"><stop offset="0" stop-color="#ccc"/><stop offset=".682" stop-color="#960"/><stop offset="1" stop-color="#fc0"/></radialGradient><radialGradient gradientUnits="userSpaceOnUse" r="819.2" cx="0" cy="0" spreadMethod="pad" gradientTransform="matrix(-.005 0 0 .005 14.25 24.95)" id="z"><stop offset="0" stop-color="#ccc"/><stop offset=".682" stop-color="#960"/><stop offset="1" stop-color="#fc0"/></radialGradient><linearGradient gradientUnits="userSpaceOnUse" x1="-819.2" x2="819.2" gradientTransform="matrix(-.011 0 0 .009 17.8 31.25)" id="A"><stop offset="0" stop-color="#646464"/><stop offset=".271" stop-color="#fff"/><stop offset=".851"/></linearGradient><radialGradient gradientUnits="userSpaceOnUse" r="819.2" cx="0" cy="0" spreadMethod="pad" gradientTransform="matrix(-.004 0 0 .004 21.55 20.7)" id="B"><stop offset="0" stop-color="#ccc"/><stop offset=".573" stop-color="#999"/><stop offset="1" stop-color="#fc0"/></radialGradient><radialGradient gradientUnits="userSpaceOnUse" r="819.2" cx="0" cy="0" spreadMethod="pad" gradientTransform="matrix(-.006 0 0 .006 23.2 24.3)" id="C"><stop offset="0" stop-color="#ccc"/><stop offset=".682" stop-color="#960"/><stop offset="1" stop-color="#fc0"/></radialGradient><radialGradient gradientUnits="userSpaceOnUse" r="819.2" cx="0" cy="0" spreadMethod="pad" gradientTransform="matrix(-.005 0 0 .005 25.55 6.05)" id="D"><stop offset="0" stop-color="#ccc"/><stop offset=".573" stop-color="#003"/><stop offset="1" stop-color="#fc0"/></radialGradient><radialGradient gradientUnits="userSpaceOnUse" r="819.2" cx="0" cy="0" fx="87942.4" fy="0" spreadMethod="repeat" gradientTransform="matrix(-.004 0 0 .004 22.9 6.05)" id="E"><stop offset="0" stop-color="#ccc"/><stop offset=".573" stop-color="#003"/><stop offset="1" stop-color="#fc0"/></radialGradient><linearGradient gradientUnits="userSpaceOnUse" x1="-819.2" x2="819.2" gradientTransform="matrix(-.289 0 0 .289 42.7 -.85)" id="F"><stop offset="0" stop-color="#ff9"/><stop offset=".427" stop-color="#FF3922"/><stop offset=".894" stop-color="#f00"/></linearGradient><radialGradient gradientUnits="userSpaceOnUse" r="819.2" cx="0" cy="0" spreadMethod="pad" gradientTransform="matrix(-.011 0 0 .011 34.75 14.8)" id="G"><stop offset="0" stop-color="#ccc"/><stop offset=".573"/><stop offset="1" stop-color="#f00"/></radialGradient><radialGradient gradientUnits="userSpaceOnUse" r="819.2" cx="0" cy="0" spreadMethod="pad" gradientTransform="matrix(-.007 0 0 .007 26.15 11.05)" id="H"><stop offset="0" stop-color="#ccc"/><stop offset=".573" stop-color="#999"/><stop offset="1" stop-color="#fc0"/></radialGradient><radialGradient gradientUnits="userSpaceOnUse" r="819.2" cx="0" cy="0" spreadMethod="pad" gradientTransform="matrix(-.004 0 0 .004 29.5 14.05)" id="I"><stop offset="0" stop-color="#ccc"/><stop offset=".573" stop-color="#999"/><stop offset="1" stop-color="#fc0"/></radialGradient><radialGradient gradientUnits="userSpaceOnUse" r="819.2" cx="0" cy="0" spreadMethod="pad" gradientTransform="matrix(-.005 0 0 .005 30.7 17.3)" id="J"><stop offset="0" stop-color="#ccc"/><stop offset=".573" stop-color="#999"/><stop offset="1" stop-color="#fc0"/></radialGradient><radialGradient gradientUnits="userSpaceOnUse" r="819.2" cx="0" cy="0" spreadMethod="pad" gradientTransform="matrix(-.007 0 0 .007 32.3 19.85)" id="K"><stop offset="0" stop-color="#ccc"/><stop offset=".573" stop-color="#999"/><stop offset="1" stop-color="#fc0"/></radialGradient><radialGradient gradientUnits="userSpaceOnUse" r="819.2" cx="0" cy="0" spreadMethod="pad" gradientTransform="matrix(-.004 0 0 .004 22.2 12.5)" id="L"><stop offset="0" stop-color="#ccc"/><stop offset=".573" stop-color="#999"/><stop offset="1" stop-color="#fc0"/></radialGradient><radialGradient gradientUnits="userSpaceOnUse" r="819.2" cx="0" cy="0" spreadMethod="pad" gradientTransform="matrix(-.005 0 0 .005 26.6 11.1)" id="M"><stop offset="0" stop-color="#ccc"/><stop offset=".573" stop-color="#999"/><stop offset="1" stop-color="#fc0"/></radialGradient><radialGradient gradientUnits="userSpaceOnUse" r="819.2" cx="0" cy="0" spreadMethod="pad" gradientTransform="matrix(-.002 0 0 .002 21.9 16.45)" id="N"><stop offset="0" stop-color="#ccc"/><stop offset=".573" stop-color="#999"/><stop offset="1" stop-color="#fc0"/></radialGradient><radialGradient gradientUnits="userSpaceOnUse" r="819.2" cx="0" cy="0" spreadMethod="pad" gradientTransform="matrix(-.003 0 0 .003 22.05 17.75)" id="O"><stop offset="0" stop-color="#ccc"/><stop offset=".573" stop-color="#999"/><stop offset="1" stop-color="#fc0"/></radialGradient><radialGradient gradientUnits="userSpaceOnUse" r="819.2" cx="0" cy="0" spreadMethod="pad" gradientTransform="matrix(-.003 0 0 .003 21.7 19.4)" id="P"><stop offset="0" stop-color="#ccc"/><stop offset=".573" stop-color="#999"/><stop offset="1" stop-color="#fc0"/></radialGradient><radialGradient gradientUnits="userSpaceOnUse" r="819.2" cx="0" cy="0" spreadMethod="pad" gradientTransform="matrix(-.004 0 0 .004 30.15 25.85)" id="Q"><stop offset="0" stop-color="#ccc"/><stop offset=".573" stop-color="#999"/><stop offset="1" stop-color="#fc0"/></radialGradient><radialGradient gradientUnits="userSpaceOnUse" r="819.2" cx="0" cy="0" spreadMethod="pad" gradientTransform="matrix(-.006 0 0 .006 26.9 31.85)" id="R"><stop offset="0" stop-color="#ccc"/><stop offset=".682" stop-color="#960"/><stop offset="1" stop-color="#fc0"/></radialGradient><radialGradient gradientUnits="userSpaceOnUse" r="819.2" cx="0" cy="0" fx="87942.4" fy="0" spreadMethod="repeat" gradientTransform="matrix(-.003 0 0 .003 15.9 6.85)" id="S"><stop offset="0" stop-color="#ccc"/><stop offset=".573" stop-color="#003"/><stop offset="1" stop-color="#fc0"/></radialGradient></defs><path d="M12.55 20.55l-.6.95.25.25q.45.45 1.05.75l.2-.4.05-.5.45.6.85 1.45q.15.25.35-.15l.45-.75.55 2.6v.05q.25.75.7.25l.25-.3.65-1.2.15-.45.2-.95-.1-.05-1.1.1q-.7-.05-1.35-.55L13.7 21.1l-.8-.35-.35-.2m17 8.5q1.3.1 2.15-1.1.85-1.15 1.05-2.55l.05-.95q-1.35-.85-3.15-1.2-.75-.15-.8-.6l-.1.05q-1 .75-1.2 1.75l-.05.5.1.65 1.3-.55.2.05-3 1.95-.4.2 1.4-.45 2-1.25.55-.35-.55-.1.55.1.05-.05.4-.3.1.15-.2.3-.05.1-1.05.85-1.8 1-1.95 1.1-.8.4 1.35-.45 1.3-.65 2.15-1.15 1.05-.55-.7.95-1.8 1.35.4.35.15.05 1.3.4M13 7.4l.15-.15.05-.1-.9.05.7.2m.05.35l-.85.05.8.3-.55.15-.5.05q.3.3.9.5v-.5l.15-.2.05-.35m-.2 1.1l-.9.15q.75.2.8.7l.1-.25.05-.35-.05-.25M19 22.25l-.8.35-.05.25.95 1.4.3.75.5.4-1.15-2.45 1.4.8 2.75 2.05-.05-.35-.05-.1-.3-.85-.8-1.9.55.3q1.05.75 2.2 1.2l-.05-.35-.7-2.3.9.85 1.15 1.45-.2-.6-.6-1.95-.6-1.3-.6-.45q-1.2 1.4-2.85 2.3l-.1.05-1.7.45H19m13.7-8.75l-.25-.15-.5.55-.6.5-.35.2q-.95.5-1.9.8l-1.5.4q-.2 1.25.75 2.45l.4.75.65.55 1.35 1.75q-.35-.85-.4-1.85l-.1-2.75q-.05-.5.4-.5l.95.05q.45.05.7.3.45.5.7 1.2l.3 1.2.2-.05-.05-.75V16.5l.05-.05q0-.9.15-1.75l.1-.05-.15-.2-.9-.95m-2.5 12.45q.15-.35-.15-.55l-.05-.1.05.1q.3.2.15.55"/><path fill="#fff" d="M10.45 24.6l-.3-1v-.05l-.25-2.5V19.7l-.8 1.05-2.45 5.65-.3 1.8.05 1.85.25 1.3q.4 1.3 1.15 2.35l.9 1.05 1.05.9 8 5.2q1.15.7 2.5.65l2.85-.1 5.2-.8.8-.2 2.1-.5 3.75-1-5.8.25-7.65-.65-.6-.25-1.7-1.05-7.85-5.8q-.85-.65-.75-2v-2.1l-.15-2.7"/><path fill="#900" d="M4.35 36.75L3.5 37.8l-.95.9-.35.25-2.2 2.2 1.25.25H3l1.75-.35v-.25q0-.35.15-.65l.15.65.1.4 3.35.25q-.25-.15-.15-.7v-.05L7.7 39l-.3-.2L7 38l-.05-.75L6.6 37l-.1-.15q-.4-.65-1-.65-.7.85-1.15.55M29.1 40.4l.85.55q.7-.35 1.25-1.05l-2.1.5m2.9-1.9l.1-.15q.25-.7-.2-1.4l-.85-.9-.55-.55-.05-.05-1.8-1.2-.15-.05v-.05q-.85-.55-1.75-.95.4.65.3 1.15v.15l-.15.3-1.4-.4v.15l-.05.35-.55 1.15 2.25 1.05 1.05.4 3.45.9.35.1"/><path fill="#f00" d="M6.6 5.7h1l.4-.15.35-.2L6.6 5.2q-.35.1-.15.4l.15.1m5.05-1.8l-.45.5-.15.4.75-.25h.1l.45-.55-.05-.2-.4-.1-.25.2"/><path fill="#660" d="M8.2 10.8l-.1-.05-.3-.6-.25-.7v.7l.35 2.1.2.55 1.85 1.95.75.55-1-1.4-.1-.15-.45-.75-.05-.15-.1-.55-.05-.85-.75-.65m5.3-3.65l-.15-.2-.15.2-.05.1-.15.15v.2l.05.15-.05.35-.15.2v.5l.2.05h-.2l.05.25-.05.35-.1.25-.05.15-.25.55-.1.2v.05l.2.6.2.9v.6l.05.1v.8l-.05.8.1-.15.6-1.5.15-.6.05-.05.15-.6.15-.75v-.05l.1-.7.05-1.15-.1-.7-.5-1.05"/><path fill="#930" d="M27.6 25.6l-2 1-3.35 1.6-1.2.45-2.3.9h.05q1.7.45 3.4-.05l.25-.05-.15.15-.5.7q-.35.65-.55 1.45l.85-.5 1.2-.75 1.4-.7.45-.15 1.9-.95q.3-.2.65-.45l1.8-1.35.7-.95-1.05.55L27 27.65l-1.3.65-1.35.45.8-.4 1.95-1.1 1.8-1 1.05-.85.05-.1-.35-.1-.55.35-2 1.25-1.4.45.4-.2 3-1.95-.2-.05-1.3.55"/><path fill="url(#a)" d="M4.55 3l-.2.05H4.3l.15.65v.05l.1.25-.7-.75-.35.35-.2.25-.15.45-.1.1L5.2 6.55l.25-.05.3.05.55.2.3.15h.45l.2-.1h.2l.25.05v.6l1.4.4-1.5.2-.05.1h.05l.7.2q-.1.45-.7.5l.8.1v.65l-.05.25-.15.1q.2 0 .25.2v.3l-.25.35.75.65L10 12.7l.2.35-.35-1.8L9.5 9.5l.1-.35.05-1.05-.1-.1-.4-.3q-.55-.25-.45-.8l.15-.25.65-.5.25-.15h.3l.05.05v.1l.6.7v.05q.2.35-.1.75l-.3.4v.05l.55.8.3.65.05 1.3v1.8l.7-1.4.4-.6.05-.05.1-.2.25-.55.05-.15q-.05-.5-.8-.7l.9-.15V8.8q-.6-.2-.9-.5l.5-.05.55-.15-.8-.3.85-.05L13 7.6v-.2l-.7-.2.9-.05.15-.2.05-.05v-.1l.05-.35V6.4q0-.3.15-.5v-.05l.05-.65.1-.45 1.55-.8.15-.05L13.7.05l-.45.1-.35.15 1.55 2.5L11.8.85l-.15.1L12.9 2.6l.45.5-.8-.6-1.65-1v.05l-.35.55-.05.1-.05.15v.1l-.2.85v.05l-.05.25-.35.9v.05l-.05.05-.1.15-.25.15-.95-1.15-.15-.3-.2-.25q-.3-.25-.75-.35l-.15-.05-.2.7-.3.6-.2-.55-.05-.05-.25-.9-.3-.1H5.9l-.45 1.95-.1.25-.8-1.7M6.6 5.7l-.15-.1q-.2-.3.15-.4l1.75.15-.35.2-.4.15h-1m5.05-1.8l.25-.2.4.1.05.2-.45.55h-.1l-.75.25.15-.4.45-.5m2.1.85l-.1.1h-.05L11.75 6.5l1.85-1.65h.05l.1-.1m-2 1.75l-1.05.35 1.05-.35"/><path fill="url(#b)" d="M2.5 4.9l-.75 1.35.15.05 1.4.7.75.5.15-.05.7-.5L2.5 4.9"/><path fill="url(#c)" d="M15.9.25l-.15-.1L14.8.1l-.55.05-.55-.1 1.75 3.85.75-.15-.3-3.5"/><path fill="url(#d)" d="M19.15 1.85q-.05-.35-.45-.3l-.5-.3-.45-.55-.6 2.7v.05l-.05.25h.2l.65.4 1.15-2.2.05-.05"/><path fill="url(#e)" d="M20.75 4.35v-.3l-.15-.15v-.05l-.05-.15-.45-.75-.05-.05-.5.7-1 .95.15.25.1.35h.05l1.9-.4v-.4"/><path fill="url(#f)" d="M18.85 5.5l-.05.35 1.7-.1-.1-.1.05-.2.15-.3-1.75.35"/><path fill="url(#g)" d="M10.1 6.15v-.1L10.05 6h-.3l-.25.15.05.2.2.5.35.6.05-1-.05-.3"/><path fill="url(#h)" d="M7.15 15.55l.85.8.25-.5.2-.8.25.45.5.6q.65.65.65 0l1.35.05q.5-.3.55-.75.1-.35-.2-.8v-.05l-.15-.15-.8-1.05L9.15 13l.45.75.1.15 1 1.4-.75-.55L8.1 12.8l-.2-.55-.35-2.1v-.7l-.05-.2-.4.35-.35.45q-.55.85-.7 2.05l-.05.8.2.95.05.2.8 1.2.1.2v.1"/><path fill="url(#i)" d="M8.95 11.45l.05.85.1.55.05.15 1.45.35-.4-.3.4.3.8-.1 1.15-.35h.05l.2-.05-.05-.1v-.6l-.2-.9-.2-.6v-.05l-.05.05-.4.6-.7 1.4v-1.8h-.15q-.55 0-1 .3l-.2.1.35 1.8-.2-.35-1.05-1.25"/><path fill="url(#j)" d="M15.45 8.2l-.25 5.05q-.8-.5-1.75-.45l-.6 1.5-.1.15.05-.8v-.8l-.2.05h-.05l-1.15.35-.8.1.8 1.05.15.15v.05l.8 1.15q.5.7 1.35 1.2l.45-.45q1.05.5 1.7-.35l1.5-.4q.6-.05.55-.55l-.2-.5q1 .25 2 0l.3-.2.05-.05.35-1.05v-.15l-.4-.9 1.25.55-.3-.8-.25-.25-.35-.45q-.4-.7.25-1.4l.3-.35V9.6l-.05-.9L21 8l-1 .1-.15.45-.05.05v.05l-.05.05v-.05h-.45l-.1.05-.65.45-.15.05-.05.05-.2.1-.5.35-.45.4-.4.5-.25.45-.15.65-.15 3.35L16.1 14l-.15-2.9.05-.1.1-.65q.15-.4.45-.65l.1-.05.5-.35.3-.15.4-.2.5-.65.05-.1h-2.95"/><path fill="url(#k)" d="M15.45 8.2H14l.1.7-.05 1.15-.1.7v.05l-.15.75-.15.6-.05.05-.15.6q.95-.05 1.75.45l.25-5.05"/><path fill="url(#l)" d="M18.8 6.55l.05.5-.05.3-.3.6.1.05.2.05.5.2.55.3.15-.45.05-.2v-.1l.35-1.1-1.6-.15"/><path fill="url(#m)" d="M17.15 9.3l-.5.35-.1.05.2.1.45.3.45-.4-.4-.3-.1-.1"/><path fill="url(#n)" d="M21.25 12.9L20 12.35l.4.9v.15l-.35 1.05-.05.05-.3.2q-1 .25-2 0l.2.5q.05.5-.55.55l-1.5.4q-.65.85-1.7.35l-.45.45.7.3.8.25 3.65-.3 1.65-.5.15-.5.2-.8.4-1.7.05-.35-.05-.45"/><path fill="url(#o)" d="M13.7 16.95q-.85-.5-1.35-1.2.15 1.1-.45 1.5l.45.65.5.35v.3l1.2.4.3.15 2.5.2L20.6 18l.35-.1.1-.1-.1-.2-.1-.15q.1-.65-.2-1.25l-.15.5-1.65.5-3.65.3-.8-.25-.7-.3"/><path fill="url(#p)" d="M21.05 17.8l-.1.1-.35.1-3.75 1.3-2.5-.2-.3-.15-1.2-.4.1.5.35.55.3.3.4.15.4.2 1.05.45 2.5-.25 2.2-1.05.8-.9.1-.7"/><path fill="url(#q)" d="M14 20.05l-.3 1.05 1.85 1.15q.65.5 1.35.55l1.1-.1.2-.1.8-.35.1-.1 2.2-1.35-.4-.6-1.15-.35.4-.45-2.2 1.05-2.5.25-1.05-.45-.4-.2"/><path fill="url(#r)" d="M11.15 18.3l.15.45.15.2q.3.5.85.7l.9.2.4.05-.3-.3-.35-.55-.1-.5-.35-.1-1.35-.15"/><path fill="url(#s)" d="M12.3 19.65q-.2.55.25.9l.35.2.8.35.3-1.05-.4-.15-.4-.05-.9-.2"/><path fill="url(#t)" d="M8 16.35l1.5.8.05.05.4.1 1.05.15.9-.2q.6-.4.45-1.5l-.8-1.15q.3.45.2.8-.05.45-.55.75l-1.35-.05q0 .65-.65 0l-.5-.6-.25-.45-.2.8-.25.5"/><path fill="url(#u)" d="M9.55 17.2q.4 1 1.45 1.05h.05l.1.05 1.35.15.35.1v-.3l-.5-.35-.45-.65-.9.2-1.05-.15-.4-.1"/><path fill="url(#v)" d="M1.15 8.3l.1 1v.15l.15.15h.05l.1.3.1.5.75-.2.45-.05v-.2l.35-.85.1-.35V8.7l-.75-.2-1.4-.2"/><path fill="url(#w)" d="M2.15 11.15l.05.15v.7l.3-.25.55-.65-.1-.4-.8.45"/><path fill="url(#x)" d="M2.8 12.8l.2.3.15.3.5-1.05-.2-.4-.65.85"/><path fill="url(#y)" d="M6.65 31.35l-.45 1.6-.45 1.4-.25.6-.75 1.3-.4.5q.45.3 1.15-.55.6 0 1 .65l.1.15.35.25L7 38l.4.8.3.2-.05-.25v-.05q.15-.7.45-1.25l.7-1 .8-.7.15-.1-1.05-.9-.9-1.05q-.75-1.05-1.15-2.35m.4 5.5l-.1.4.1-.65v.25"/><path fill="url(#z)" d="M11.95 21.5l-.15.2v.4l-.2-.15-1.25 1.35.1 1.3.3.65 1.15 1.3q1.45 1.2 3.45 1.8l.35.1 1.1-1.3q.7-.75 1-1.8l.25-1.2.1-1.3-.05-.1-.2.95-.15.45-.65 1.2-.25.3q-.45.5-.7-.25v-.05l-.55-2.6-.45.75q-.2.4-.35.15l-.85-1.45-.45-.6-.05.5-.2.4q-.6-.3-1.05-.75l-.25-.25"/><path fill="url(#A)" d="M34.95 38.9l.4-.15L32 38.5l-.35-.1-3.45-.9-1.05-.4-2.25-1.05-1.55-1.15-1.25-1.5-.9-1.6v-.05h.05q.2-.8.55-1.45l.5-.7.15-.15-.25.05q-1.7.5-3.4.05h-.1l-3-1.1-.35-.1q-2-.6-3.45-1.8l-1.15-1.3-.3-.65.15 2.7v2.1q-.1 1.35.75 2l7.85 5.8 1.7 1.05.6.25 7.65.65 5.8-.25"/><path fill="url(#B)" d="M21.3 20.8l-2.2 1.35v.1l1.7-.45.1-.05q1.65-.9 2.85-2.3l.2-.25h-.45l-.05.1-1.1.9-1.05.6"/><path fill="url(#C)" d="M24.35 19.9l.6 1.3.6 1.95.2.6-1.15-1.45-.9-.85.7 2.3.05.35q-1.15-.45-2.2-1.2l-.55-.3.8 1.9.3.85.05.1.05.35-2.75-2.05-1.4-.8 1.15 2.45-.5-.4.25.9q.2 1.7 1.4 2.75l1.2-.45 3.35-1.6 2-1-.1-.65.05-.5-.25-.4-.45-.8-1-1.35q-.6-1.2-1.5-2"/><path fill="url(#D)" d="M26.65 6.65l.95-.2 1.4.05-1.65-1.3-.95-.6-.65-.25.1.15-.1.25-.2.35-.2.2-1 .7.05.15.45.15-.1.1-1.35.75-.3.1-.95.55 4.5-1.15"/><path fill="url(#E)" d="M25.75 4.35L24.05 4h-1.5l-1.8.35v.4l-.15.4-.15.3-.05.2.1.1.15.15-.25.8-.35 1.1v.1l-.05.2 1-.1 1.15-.2.95-.55.3-.1 1.35-.75.1-.1-.45-.15-.35.05q.1-.05.25-.15l.05-.05 1-.7.2-.2.2-.35.1-.25-.1-.15"/><path fill="url(#F)" d="M36.85 21.8q.85-.75 1.15-1.9l.1-1.55-.05-1.05.1-1.8.15-4.5-1.6 2.2-.1 1.05v.9l.25 6.65m-1.4-9.95l-.05-.75-.6-2.65-.1-.15-.6-1.3v-.05l-.9-1.3-.05-.05-.1-.2-.6-.5.1.6v.05h.05l.15 1 .65.65.65 1 .75 1.6.4 1.3v.05l.2.7h.05"/><path fill="url(#G)" d="M35.05 23.05l1.8-1.25-.25-6.65v-.9l.1-1.05-1.05 1.2v-.1l-.2-2.3-.05-.15-.2-.7v-.05l-.4-1.3-.75-1.6-.65-1-.65-.65.3 2-.2 1.45-.2.7-.05.65.05.05V12.85l.05.05v.6l.9.95.15.2v.05l.45 1.5.05.4.05 1.85-.15 1.45q1.2-.85 1.45-2.95v-.05l.05-.4.05.4v.05q.3 2.1-.1 4.5-.1.75-.6 1.55l.05.05"/><path fill="url(#H)" d="M31.45 12.25v-.05l-.05-.55-.05-.25-.5-.95-.15-.2-1.9 3.25q-.5.8-1.75.65-.65-.1-1.35-.7l.15-.25.25-.85q-.5.05-.9.35l-.7.25q-.95.1-1.55-1l-.2-.4q-.45-1.05-.15-2.15l.15-.45.25-.25.45-.25q1.2-.55 2.3-.35.65.15 1.25.45l-.05.2-.2.95-.1.25-.3.5.3-.2 2-1L29.3 9l-1.75-1.65-.9-.7-4.5 1.15L21 8l-.15.7.05.9v.05l.15.7.4 1.1v.05l.4.7.6.7.6.4 1.05.9.1.1 1.15 1.15h.95l.2-.05q.45-.1.35-.55v-.05l-.15-.35.95.35 1.3.05.05-.15q.35-1 1.45-1.7l1-.5v-.25"/><path fill="url(#I)" d="M31.45 12.25v.25l-1 .5q-1.1.7-1.45 1.7l-.05.15-1.3-.05-.95-.35.15.35v.05q.1.45-.35.55l-.2.05q.55.5 1.3.35l1.5-.4q.95-.3 1.9-.8l.35-.2.6-.5.5-.55.2-.45v-.45l-1.2-.2"/><path fill="url(#J)" d="M33.75 14.65l-.1.05h.1v-.05m-.25 4.25l-.2.05.2 1.35v-1.4"/><path fill="url(#K)" d="M33.5 18.9v1.4l-.2-1.35-.3-1.2q-.25-.7-.7-1.2-.25-.25-.7-.3l-.95-.05q-.45 0-.4.5l.1 2.75q.05 1 .4 1.85l-1.35-1.75-.65-.55q.5 1.5.2 3.1v.1l-.1.45q.05.45.8.6 1.8.35 3.15 1.2l.75.5 1.4-1.85.05-.1q.5-.8.6-1.55.4-2.4.1-4.5v-.05l-.05-.4-.05.4v.05q-.25 2.1-1.45 2.95l.15-1.45-.05-1.85-.05-.4-.45-1.5h-.1q-.15.85-.15 1.75l-.05.05v1.65l.05.75"/><path fill="url(#L)" d="M20.9 9.65l-.3.35q-.65.7-.25 1.4l.35.45.25.25.3.8.05.45-.05.35-.4 1.7 2.3-.35.1-.05h.05l.1-.05.8-.65-.1-.1-1.05-.9-.6-.4-.6-.7-.4-.7v-.05l-.4-1.1-.15-.7"/><path fill="url(#M)" d="M30.7 10.25L29.3 9l-.65.25-2 1-.3.2.3-.5.1-.25.2-.95.05-.2q-.6-.3-1.25-.45-1.1-.2-2.3.35L23 8.7l-.25.25-.15.45q-.3 1.1.15 2.15l.2.4q.6 1.1 1.55 1l.7-.25q.4-.3.9-.35l-.25.85-.15.25q.7.6 1.35.7 1.25.15 1.75-.65l1.9-3.25"/><path fill="url(#N)" d="M20.65 16.2q.3.6.2 1.25l.1.15.1.2.85-.45q.75-.5 1.05-1.3l.2-1-2.3.35-.2.8"/><path fill="url(#O)" d="M22.95 16.05q-.3.8-1.05 1.3l-.85.45-.1.7-.8.9 3.2-1.45q1.45-.95-.4-1.9"/><path fill="url(#P)" d="M20.15 19.4l-.4.45 1.15.35.4.6 1.05-.6 1.1-.9.05-.1q.35-.65-.15-1.25l-3.2 1.45"/><path fill="url(#Q)" d="M28.75 22.7l.1-.05h-.05l-.05.05m.9 2.5l.35.1.2-.3-.1-.15-.4.3-.05.05"/><path fill="url(#R)" d="M30.5 35.45l-.2-.7-.15-2.5-.6-3.2-1.3-.4-.15-.05-.4-.35q-.35.25-.65.45l-1.9.95-.45.15-1.4.7q.4 1.1 1.2 2l.4.45.1.15q.45.65.5 1.3l1.4.4.15-.3v-.15q.1-.5-.3-1.15.9.4 1.75.95v.05l.15.05 1.8 1.2h.05"/><path fill="url(#S)" d="M18.45 7.95l-.05-.5-.15-.4-.3-.55-.55-.55-.25-.1-.7-.15-.9.45q-1.05.45-2.05 1L14 8.2h4.4l.05-.1V7.95"/><path fill="#110800" d="M18.45 7.95h.05l.3-.6.05-.3-.05-.5-.05-.4.05-.05v-.25.25l-.05.05.05.4 1.6.15.25-.8-.15-.15-1.7.1.05-.35-.05-.35.05.35 1.75-.35.15-.4-1.9.4h-.05l-.1-.35-.15-.25q-.2-.2-.55-.25l-.05-.2.05.2q.35.05.55.25l1-.95.5-.7-.15-.05h-.15l-.5-.05q-.2-.15-.1-.6v-.35l-.05.05-1.15 2.2-.65-.4h-.2l-.9.05.9-.05.05-.25V3.4l.6-2.7-.35-.2-.4-.1h-.05L16.9.3q-.2-.35-.6-.15l-.4.1.3 3.5-.75.15-.15.05-1.55.8-.1.45-.05.65v.05q-.15.2-.15.5.25-.3.6-.45l1.15-.35 1.25.1.7.15.25.1.55.55.3.55.15.4.05.5M4.3 3.05l-.45.2.7.75-.1-.25V3.7l-.15-.65M3.05 4.4l-.55.5 2.4 2.05-.7.5-.15.05L3.3 7l-1.4-.7-.15-.05-.4.9-.2.75v.4l1.4.2.75.2v-.3l.5-.75q.1-.05.25-.15-.15.1-.25.15l-.5.75v.35l-.1.35-.35.85v.5l.1.25-.1-.25v-.3l-.45.05-.75.2v.2l.1.1.4.45.8-.45.1.4.4.85-.4-.85-.55.65-.3.25.35.6.25.2.65-.85.2.4.6.55.15.1.3.1-.3-.1-.15-.1-.6-.55-.5 1.05v.05l.15.3.15.2q.3.3.7.35l.85-.05.2.15q.15.6.65.6.6 0 .9.5v.05l.65 1.2-.05-.25-.2-.95v-.1l-.1-.2-.8-1.2-.2-.2H6q-.55-.5-1.3-.75v-.05l-.6-1.25-.15-.75.1-.95.6-1h.05l.05-.1.5-.6h.05l.2-.2q.35-.4.9-.35.5.05 1.05.5v.6l.05.3.05.2.25.7.3.6.1.05.25-.35v-.3q-.05-.2-.25-.2l.15-.1.05-.25v-.65l-.8-.1q.6-.05.7-.5l-.7-.2h-.05l-.3-.05.35-.05.05-.25.05-.35-.05.35-.05.25 1.5-.2-1.4-.4v-.6l-.25-.05h-.2l-.2.1H6.6l-.3-.15-.55-.2-.3-.05-.25.05-.2.2-.1.2.1-.2.2-.2L3.05 4.4M12.9.3l-.4.3-.05.05h-.2l-.3.1-.15.1 2.65 1.95L12.9.3m-1.25.65l-.3.3-.45.25 1.65 1 .8.6-.45-.5L11.65.95M10.5 2.2l-.4.1-.3.15-.8.35-.85.4.2.25.15.3.95 1.15.25-.15.1-.15.05-.05V4.5l.35-.9.05-.25V3.3l.2-.85v-.1l.05-.15m-3.25.6l-.2-.1q-.25-.3-.6-.15l-.2.05.25.9.05.05.2.55.3-.6.2-.7M5.9 2.5q-.7-.3-1.05.45l-.3.05.8 1.7.1-.25.45-1.95m1.55 5.85l.1-.2-.1.2m2.65-2.2l.05.3-.05 1-.35-.6-.2-.5-.05-.2-.65.5-.15.25q-.1.55.45.8l.4.3.1.1-.05 1.05-.1.35.35 1.75.2-.1q.45-.3 1-.3h.15l-.05-1.3-.3-.65-.55-.8v-.05l.3-.4q.3-.4.1-.75v-.05l-.6-.7m8.3 2.05l-.05.1-.5.65-.4.2-.3.15.1.1.4.3.5-.35.2-.1.05-.05.15-.05.65-.45.1-.05h.45v.05l.05-.05V8.6l.05-.05-.55-.3-.5-.2-.2-.05-.1-.05-.05.1v.05l-.05.1m-1.85 1.5q-.3.25-.45.65L16 11l-.05.1.15 2.9.15 1.05.15-3.35.15-.65.25-.45.4-.5-.45-.3-.2-.1M10.3 8.1l-.3.4-.35-.4.35.4.3-.4"/><path fill="none" stroke="#000" stroke-width=".05" stroke-linecap="round" stroke-linejoin="round" d="M9.5 17.15l.05.05m3 3.35l-.6.95m-.15.2l-.2.25m-1.7-2.2l.05-.05H9.9m19.65 9.35q1.3.1 2.15-1.1.85-1.15 1.05-2.55l.05-.95m2.15-1.35l.1-.05 1.8-1.25m-4.1-15.25l.3 2-.2 1.45-.2.7-.05.65.05.05v1.05m-1.2-.2v-.05M3.3 8.7v-.3l.5-.75q.1-.05.25-.15l.15-.05.7-.5.1-.2.2-.2.25-.05.3.05.55.2.3.15m.45 0l.2-.1h.2l.25.05v.6l-.05.35-.05.25m-.05.1l-.1.2q-.55-.45-1.05-.5-.55-.05-.9.35l-.2.2m-.05 0l-.5.6-.05.1h-.05l-.6 1-.1.95.15.75.6 1.25v.05l-.3-.1-.15-.1-.6-.55-.2-.4-.4-.85-.1-.4-.1-.25v-.5l.35-.85.1-.35V8.7m4.15-.35v.6l.05.3m-1.25 4.8l-.2-.2H6q-.55-.5-1.3-.75m2.85-4.95l.05-.1m1.9-1.9L9.75 6h.3l.05.05v.1l.05.3-.05 1-.35-.6-.2-.5-.05-.2-.65.5-.15.25q-.1.55.45.8l.4.3.1.1-.05 1.05-.1.35.35 1.75m.35 1.8l-.2-.35m7.1-9h.2l.65.4.05.2q.35.05.55.25l.15.25.1.35.05.35-.05.35v.25l-.05.05.05.4.05.5-.05.3-.3.6m-.05 0l-.05-.5-.15-.4-.3-.55-.55-.55-.25-.1-.7-.15-1.25-.1-1.15.35q-.35.15-.6.45 0-.3.15-.5v-.05l.05-.65.1-.45 1.55-.8.15-.05.75-.15.9-.05m-3.75 3.25l.05-.05v-.1l.05-.35V6.4m-1.7.1l1.85-1.65h.05l.1-.1m-.9 4.05v.05m-.5 1.75l-.05.05m-1.1.2l-.05-1.3-.3-.65-.55-.8v-.05l.3-.4q.3-.4.1-.75v-.05M9.65 8.1l.35.4.3-.4m.9 2.75h-.15q-.55 0-1 .3l-.2.1m.25-5.1l.6.7m1.2 10.4q.6-.4.45-1.5m8.7 2.05l-.1.1-.35.1m-1.5 4.15l-.1.1m-.8.35l-.2.1m.45-14.65l.05-.1m-.1.25l.05-.1V7.95m10.5 6.9l.05-.15m2.45-2.2v-.25m1 1.1l.25.15.9.95.15.2v.05m-5 4.3l-.4-.75q-.95-1.2-.75-2.45l1.5-.4q.95-.3 1.9-.8l.35-.2.6-.5.5-.55m.2-.45v-.05l.05.05v.6m-3.95 9.2l.05-.05h.05m-2-7.8v-.05m-.55.65l.2-.05M19.4 25l-.3-.75-.95-1.4.05-.25m2.7-.85l-.1.05-1.7.45H19m-.9.5l-.1-.05m10.75 0q-1 .75-1.2 1.75l-.05.5.1.65m-6.4 6.2l.05-.05m7.85-6.65l.55.1m.35.1l.05.1q.3.2.15.55"/><path fill="none" stroke="#900" stroke-width=".05" stroke-linecap="round" stroke-linejoin="round" d="M30.2 25.95l-.7.95-1.8 1.35m-.1-2.65l-2 1-3.35 1.6-1.2.45m.2 3.1q.2-.8.55-1.45l.5-.7.15-.15-.25.05q-1.7.5-3.4.05h-.05l2.3-.9m8.6-3.45l.35.1m-6.7 5.2l-1.2.75-.85.5m6.35-6.15l1.3-.55.2.05"/><path fill="none" stroke="#640000" stroke-width=".05" stroke-linecap="round" stroke-linejoin="round" d="M4.35 36.75L3.5 37.8l-.95.9-.35.25-2.2 2.2 1.25.25H3l1.75-.35v-.25q0-.35.15-.65l.15.65.1.4 3.35.25q-.25-.15-.15-.7v-.05L7.7 39"/><path fill="none" stroke="#9E9E9E" stroke-width=".05" stroke-linecap="round" stroke-linejoin="round" d="M10.45 24.6l-.3-1v-.05l-.25-2.5v-1.3m0-.05l-.8 1.05-2.45 5.65-.3 1.8.05 1.85.25 1.3q.4 1.3 1.15 2.35l.9 1.05 1.05.9 8 5.2q1.15.7 2.5.65l2.85-.1 5.2-.8.8-.2 2.1-.5 3.75-1"/><path fill="none" stroke="#4B4B4B" stroke-width=".05" stroke-linecap="round" stroke-linejoin="round" d="M34.95 38.9l.4-.15L32 38.5m-13.25-8.95h-.05l-3-1.1-.35-.1q-2-.6-3.45-1.8l-1.15-1.3-.3-.65m10.8 7.15h-.05v.05l.9 1.6 1.25 1.5 1.55 1.15 2.25 1.05 1.05.4 3.45.9.35.1"/><path fill="none" stroke="#9F6C00" stroke-width=".05" stroke-linecap="round" stroke-linejoin="round" d="M6.65 31.35l-.45 1.6-.45 1.4-.25.6-.75 1.3-.4.5M7.7 39l-.05-.25v-.05q.15-.7.45-1.25l.7-1 .8-.7.15-.1"/><path fill="none" stroke="#9A6805" stroke-width=".05" stroke-linecap="round" stroke-linejoin="round" d="M30.5 35.45l-.2-.7-.15-2.5-.6-3.2m1.3-18.6l-.15-.2m-3 18q-.35.25-.65.45l-1.9.95-.45.15-1.4.7q.4 1.1 1.2 2l.4.45.1.15q.45.65.5 1.3m2.2-6.15l.4.35.15.05 1.3.4"/><path fill="none" stroke="#960" stroke-width=".05" stroke-linecap="round" stroke-linejoin="round" d="M11.95 21.5l-.15.2m-.2.25l-1.25 1.35m17.2 1.15l-.25-.4-.45-.8-1-1.35q-.6-1.2-1.5-2m-6.2 2.95l-.05-.1m2.95 5.9q-1.2-1.05-1.4-2.75l-.25-.9m-3.7 3.45l1.1-1.3q.7-.75 1-1.8l.25-1.2.1-1.3"/><path fill="none" stroke="#710000" stroke-width=".05" stroke-linecap="round" stroke-linejoin="round" d="M29.1 40.4l.85.55q.7-.35 1.25-1.05m.8-1.4l.1-.15q.25-.7-.2-1.4l-.85-.9-.55-.55v-.05m-5-1.05v.15l-.05.35-.55 1.15"/><path fill="none" stroke="#9C6900" stroke-width=".05" stroke-linecap="round" stroke-linejoin="round" d="M32.8 24.45l.75.5 1.4-1.85M35 23q.5-.8.6-1.55.4-2.4.1-4.5v-.05l-.05-.4-.05.4v.05q-.25 2.1-1.45 2.95l.15-1.45-.05-1.85-.05-.4-.45-1.5M35 23l-.05.1m-6.1-.45l.1-.45v-.1q.3-1.6-.2-3.1m.1 3.65q.05.45.8.6 1.8.35 3.15 1.2"/><path fill="none" stroke="#8C0000" stroke-width=".05" stroke-linecap="round" stroke-linejoin="round" d="M36.85 21.8q.85-.75 1.15-1.9l.1-1.55-.05-1.05.1-1.8.15-4.5-1.6 2.2m-1.25-1.35l-.05-.75-.6-2.65-.1-.15-.6-1.3v-.05l-.9-1.3-.05-.05-.1-.2-.6-.5.1.6v.05h.05l.15 1M6.6 5.7h1l.4-.15.35-.2L6.6 5.2q-.35.1-.15.4l.15.1m5.05-1.8l.25-.2.4.1.05.2-.45.55h-.1l-.75.25.15-.4.45-.5"/><path fill="none" stroke="#595959" stroke-width=".05" stroke-linecap="round" stroke-linejoin="round" d="M29.3 9l-1.75-1.65-.9-.7M29 14.7q.35-1 1.45-1.7l1-.5m-7.25 1.8l1.15 1.15h.95m.4-1l.95.35 1.3.05m-2.45.55q.45-.1.35-.55"/><path fill="none" stroke="#996702" stroke-width=".05" stroke-linecap="round" stroke-linejoin="round" d="M32.65 12.45l-1.2-.2m0-.05l-.05-.55-.05-.25-.5-.95m-.15-.2L29.3 9m-7.15-1.2L21 8m11.45 5.35l.2-.45m0-.05v-.4m-6.35 3q.55.5 1.3.35"/><path fill="none" stroke="#545454" stroke-width=".05" stroke-linecap="round" stroke-linejoin="round" d="M26.85 14.8l-.15-.35"/><path fill="none" stroke="#646464" stroke-width=".05" stroke-linecap="round" stroke-linejoin="round" d="M15.45 8.2l-.25 5.05q-.8-.5-1.75-.45m4.95-4.6l-.05.1-.5.65-.4.2-.3.15-.5.35-.1.05q-.3.25-.45.65L16 11l-.05.1.15 2.9.15 1.05.15-3.35.15-.65.25-.45.4-.5.45-.4.5-.35.2-.1.05-.05.15-.05.65-.45.1-.05h.45v.05l.05-.05V8.6m.05-.05L20 8.1l1-.1-.15.7.05.9v.05m-7.2 7.3q-.85-.5-1.35-1.2l-.8-1.15m-.95-1.25l.8-.1 1.15-.35h.05l.2-.05m.9 4.1l.7.3.8.25 3.65-.3 1.65-.5.15-.5m-5.2-8h2.95"/><path fill="none" stroke="#737373" stroke-width=".05" stroke-linecap="round" stroke-linejoin="round" d="M7.15 15.55l.85.8 1.5.8m.05.05q.4 1 1.45 1.05h.05l.1.05.15.45.15.2q.3.5.85.7-.2.55.25.9M7.5 9.25l-.4.35-.35.45q-.55.85-.7 2.05l-.05.8.2.95.05.2.8 1.2.1.2v.1m.4-6.1l-.05-.2m13.4.4l-.3.35q-.65.7-.25 1.4l.35.45.25.25.3.8m-9.7 1.7v-.05m-.15-.15l-.8-1.05L9.15 13m3.7 5.55l-.35-.1-1.35-.15m.75-1.05l-.9.2-1.05-.15-.4-.1m4.05 2.7l-.4-.05-.9-.2m1.3.25l.4.15m-.3 1.05l-.8-.35-.35-.2m8.35-10.9l.15.7.4 1.1v.05l.4.7.6.7.6.4 1.05.9.1.1-.8.65-.1.05h-.05l-.1.05-2.3.35.4-1.7.05-.35-.05-.45m1.7 3.15q-.3.8-1.05 1.3l-.85.45m-.9 1.6l3.2-1.45q.5.6.15 1.25l-.05.1-1.1.9-1.05.6m-.65-4.6l.2-.8m2.9 4.05q-1.2 1.4-2.85 2.3m2.05-5.7l.2-1m.2 2.9q1.45-.95-.4-1.9"/><path fill="none" stroke="#422142" stroke-width=".05" stroke-linecap="round" stroke-linejoin="round" d="M20.6 18l-3.75 1.3-2.5-.2m-.3-.15l-1.2-.4m1.15 1.5l.4.2 1.05.45 2.5-.25 2.2-1.05m1.15 1.4l-2.2 1.35m-.1.1l-.8.35m-.2.1l-1.1.1q-.7-.05-1.35-.55L13.7 21.1"/><path fill="none" stroke="#3E1F3E" stroke-width=".05" stroke-linecap="round" stroke-linejoin="round" d="M14.35 19.1l-.3-.15"/><path fill="none" stroke="#818181" stroke-width=".05" stroke-linecap="round" stroke-linejoin="round" d="M24.35 19.9l-.6-.45.2-.25h-.45"/><path fill="none" stroke="#333" stroke-width=".05" stroke-linecap="round" stroke-linejoin="round" d="M36.7 13.2l-1.05 1.2v-.1l-.2-2.3v-.15m-19-6.15l-.9.45q-1.05.45-2.05 1"/><path fill="none" stroke="#373700" stroke-width=".05" stroke-linecap="round" stroke-linejoin="round" d="M13.5 7.15l-.15-.2m-5.8 2.5l.25.7.3.6.1.05m.75.65l.05.85.1.55.05.15.45.75.1.15 1 1.4-.75-.55L8.1 12.8l-.2-.55-.35-2.1v-.7M13 7.4l.15-.15.05-.1.15-.2M13 7.4v.2l.05.15-.05.35-.15.2v.5m-.1.9l-.05.15-.25.55-.1.2m.5-1.75l.05.25-.05.35-.1.25m.7 3.1l.15-.6.05-.05.15-.6.15-.75v-.05l.1-.7.05-1.15-.1-.7m-.55 4.6l-.6 1.5-.1.15.05-.8v-.8l-.05-.1v-.6l-.2-.9-.2-.6v-.05m1.15-3.45L14 8.2"/><path fill="none" stroke="#AA8B30" stroke-width=".05" stroke-linecap="round" stroke-linejoin="round" d="M12.3 10.65l-.4.6-.7 1.4v-1.8"/><path fill="none" stroke="#5D5D5D" stroke-width=".05" stroke-linecap="round" stroke-linejoin="round" d="M8.2 10.8l.75.65m.9-.2l.35 1.8m-.2-.35l-1.05-1.25"/><path fill="none" stroke="#6B6B6B" stroke-width=".05" stroke-linecap="round" stroke-linejoin="round" d="M10.2 13.05l.4.3"/><path fill="none" stroke="#6C6C6C" stroke-width=".05" stroke-linecap="round" stroke-linejoin="round" d="M14 8.2h1.45"/><path fill="none" stroke="#71481F" stroke-width=".05" stroke-linecap="round" stroke-linejoin="round" d="M10.7 6.85l1.05-.35"/><path fill="none" stroke="#474747" stroke-width=".05" stroke-linecap="round" stroke-linejoin="round" d="M26.65 6.65l.95-.2 1.4.05-1.65-1.3-.95-.6-.65-.25-1.7-.35h-1.5l-1.8.35v-.3l-.15-.15v-.05l-.05-.15-.45-.75-.05-.05-.15-.05m.85 1.9v-.4m-.15.8l.15-.4m-.15.4l-.15.3-.05.2.1.1.15.15-.25.8-.35 1.1v.1l-.05.2m2.15-.3l4.5-1.15"/><path fill="none" stroke="#2F2F2F" stroke-width=".05" stroke-linecap="round" stroke-linejoin="round" d="M4.55 3l-.2.05H4.3l-.45.2-.35.35-.2.25-.15.45-.1.1-.55.5-.75 1.35-.4.9-.2.75v.4l.1 1v.15l.15.15h.05l.1.3.1.5v.2l.1.1.4.45.05.15v.7l.35.6.25.2.2.3.15.3v.05l.15.3.15.2q.3.3.7.35l.85-.05.2.15q.15.6.65.6.6 0 .9.5v.05l.65 1.2-.05-.25-.2-.95m12.6-12.7l-.5-.05q-.2-.15-.1-.6v-.35q-.05-.35-.45-.3l-.5-.3-.45-.55-.35-.2-.4-.1h-.05L16.9.3q-.2-.35-.6-.15l-.4.1-.15-.1L14.8.1l-.55.05-.55-.1-.45.1-.35.15-.4.3-.05.05h-.2l-.3.1-.15.1-.15.1-.3.3-.45.25v.05l-.35.55-.05.1-.4.1-.3.15-.8.35-.85.4q-.3-.25-.75-.35l-.15-.05-.2-.1q-.25-.3-.6-.15l-.2.05-.3-.1H5.9q-.7-.3-1.05.45l-.3.05m5.95-.8l-.05.15v.1l-.2.85v.05l-.05.25-.35.9v.05l-.05.05-.1.15-.25.15-.95-1.15-.15-.3-.2-.25"/></svg>