<svg xmlns="http://www.w3.org/2000/svg" viewBox="0 0 46.8 46.4" width="46.8" height="46.4"><defs><radialGradient gradientUnits="userSpaceOnUse" r="819.2" cx="0" cy="0" spreadMethod="pad" gradientTransform="matrix(.003 0 0 .003 32.4 4.2)" id="a"><stop offset="0" stop-color="#960"/><stop offset=".765" stop-color="#5D3E00"/><stop offset=".98"/></radialGradient><radialGradient gradientUnits="userSpaceOnUse" r="819.2" cx="0" cy="0" spreadMethod="pad" gradientTransform="matrix(.032 0 0 .031 19.8 25.45)" id="b"><stop offset="0" stop-color="#960"/><stop offset=".765" stop-color="#5D3E00"/><stop offset=".98"/></radialGradient><radialGradient gradientUnits="userSpaceOnUse" r="819.2" cx="0" cy="0" spreadMethod="pad" gradientTransform="matrix(.003 0 0 .003 37.5 6.1)" id="c"><stop offset="0" stop-color="#960"/><stop offset=".765" stop-color="#5D3E00"/><stop offset=".98"/></radialGradient><radialGradient gradientUnits="userSpaceOnUse" r="819.2" cx="0" cy="0" spreadMethod="pad" gradientTransform="matrix(.002 0 0 .002 43.4 10.95)" id="d"><stop offset="0" stop-color="#960"/><stop offset=".765" stop-color="#5D3E00"/><stop offset=".98"/></radialGradient><radialGradient gradientUnits="userSpaceOnUse" r="819.2" cx="0" cy="0" fx="100374.4" fy="0" spreadMethod="pad" gradientTransform="matrix(.012 0 0 .011 20.85 4.3)" id="e"><stop offset="0" stop-color="#960"/><stop offset=".765" stop-color="#5D3E00"/><stop offset=".98"/></radialGradient><radialGradient gradientUnits="userSpaceOnUse" r="819.2" cx="0" cy="0" fx="355.2" fy="0" spreadMethod="unknown" gradientTransform="matrix(.014 0 0 .014 21.9 11.55)" id="f"><stop offset="0" stop-color="#960"/><stop offset=".765" stop-color="#5D3E00"/><stop offset=".98"/></radialGradient><radialGradient gradientUnits="userSpaceOnUse" r="819.2" cx="0" cy="0" spreadMethod="pad" gradientTransform="matrix(.01 0 0 .01 29.3 16.85)" id="g"><stop offset="0" stop-color="#960"/><stop offset=".573"/></radialGradient><radialGradient gradientUnits="userSpaceOnUse" r="819.2" cx="0" cy="0" fx="313.6" fy="0" spreadMethod="pad" gradientTransform="matrix(.021 0 0 .02 32.8 29.35)" id="h"><stop offset="0" stop-color="#960"/><stop offset=".765" stop-color="#5D3E00"/><stop offset=".98"/></radialGradient><radialGradient gradientUnits="userSpaceOnUse" r="819.2" cx="0" cy="0" fx="96985.6" fy="0" spreadMethod="pad" gradientTransform="matrix(.003 0 0 .003 45.2 15.3)" id="i"><stop offset="0" stop-color="#960"/><stop offset=".765" stop-color="#5D3E00"/><stop offset=".98"/></radialGradient><radialGradient gradientUnits="userSpaceOnUse" r="819.2" cx="0" cy="0" fx="2240" fy="0" spreadMethod="pad" gradientTransform="matrix(.003 0 0 .003 44.35 20.5)" id="j"><stop offset="0" stop-color="#960"/><stop offset=".765" stop-color="#5D3E00"/><stop offset=".98"/></radialGradient><radialGradient gradientUnits="userSpaceOnUse" r="819.2" cx="0" cy="0" spreadMethod="pad" gradientTransform="matrix(.008 0 0 .007 19.5 28.95)" id="k"><stop offset=".204"/><stop offset=".431" stop-color="#f00"/><stop offset=".718"/></radialGradient><radialGradient gradientUnits="userSpaceOnUse" r="819.2" cx="0" cy="0" spreadMethod="pad" gradientTransform="matrix(.005 0 0 .005 4.4 14.25)" id="l"><stop offset="0" stop-color="#960"/><stop offset=".573"/></radialGradient><radialGradient gradientUnits="userSpaceOnUse" r="819.2" cx="0" cy="0" fx="1548.8" fy="0" spreadMethod="pad" gradientTransform="matrix(.004 0 0 .004 7 27.6)" id="m"><stop offset=".204"/><stop offset=".431" stop-color="#f00"/><stop offset=".718"/></radialGradient></defs><path fill="#c00" d="M44.95 11.15l.1.15 1.25 2.3-2.3.65-.4.05-.85-1.7 2.2-1.45m1.8 5.9l-.6 1.85-.15.35-2.15-.65.25-1.85 2.3.2.35.1M45 26.45l-.15 3.4-.2-.3-.05-.1q-.75-1.8-2.4-3.25-1.95-1.75-4.1-2.2l1.3-.05q2.8-.25 4.85 1.7l.75.8m-.6 7L44 35.7l-.95 1.65-2.35-5.2q-1-2.55-2.25-4.45 1-.1 1.75.5 1.9 1.6 3.35 3.85v.05l.85 1.35m-5.85 7.6l-1.75-.15-.55-.35-.1-2.7q-.15-2.8 1.15-4.6.15 2.3 1.45 4.85l1.45 2.25-1.65.7M1.7 39.5l1.2-2.2q.9.25 1.65.85l.5.5 1.25 1.5-3.8-.6-.8-.05m1.9-3.75l.75-2.8q1 .3 1.95.95l.6.55q1.1 1 1.55 2.4L5.9 36l-2.3-.25M35.15 6.4l-2.05-1L35 3.85l2.5 1 .05.05-2.4 1.5M29.9 4.45l-1.8-.1 1.05-2.05 2.8.65-.05.05-2 1.45M42.3 8l1.25 1.25-.9 1-.8 1.15-.95-1L42.3 8m-17.95 7.6l-1.15 1.05-.15.1-2.2.9-4.15 2.65q-3.3 2.45-5.4 5.1l.75-1.8q1-2.05 2.6-3.9l3.55-3.8 2-1.6q2.25.45 4.15 1.3m4.55 11.35V27q-.8 5.4-4 9.2l-1.35 1.35-6.05-.1-1.5-.7-7.15-4.6 2-2 3.9-3q1.85-1.55 4.4-1.65l5.2.45 4.55 1m-15-13.4l3.65.25-3.25 3.1q-3.75 3.95-6.15 8.05.75-2.3 1.9-4.55l2.05-4.35q.65-1.55 1.8-2.5m-.45 18.05q-.05.65.35.95l2.4 1.15 3.6.55q2.9.05 4.3-2 1.25-1.95 1.55-4.55H22.2q-2.7 0-4.9 1.05l-2.65 1.75-1.2 1.1"/><path fill="#f63" d="M42.25 38.1q-.05 2.6 1.2 4.6.6.95.65 2.05-.05-1.05-1.55-1.35.1 1.7-.85 3-.1-1.2-.6-2.2-1.55 1.65-3.4 2.2.5-1.65.85-5.35l1.65-.7.3-.25 1.75-2M18.5 42l-1.75 1.25Q15.2 44.4 14.6 46.4l-.3-2.1-1.7 1.3-.2-1.45-2.4.55q2.05-1.55 2.45-4.15l2.1-.05q1.8.85 3.9 1.2l.05.3"/><path d="M2.1 43.05L.7 42.6q-.9-.45-.65-1.05.15-.65.6-.7l.45-.05q2.9.25 1 2.25"/><path fill="url(#a)" d="M33.1 5.4l-.7-.3-2.5-.65 2-1.45.1-.05 3 .9-1.9 1.55"/><path fill="url(#b)" d="M12.45 40.55l-.55-.05-.8.4q-2.3 1.05-4.75 1.7l-4.25.45q1.9-2-1-2.25l.6-1.2v-.1l.8.05 3.8.6-1.25-1.5-.5-.5q-.75-.6-1.65-.85l.7-1.55 2.3.25 2.55.85q-.45-1.4-1.55-2.4l-.6-.55q-.95-.65-1.95-.95l.1-.35q-.4-1.6-.3-3.4l.05-1.3q.2-3.55 0-5.4l.05-.5.1-.3.05-.3v-.05l-.75-1.5q-1.35-2.9-1.9-6.1-.4-2.15-.4-4.35L1.3 8.1l.3-.25q2.35.05 4.2 1.35l.35.7-.2.1-1.5 1.5q1.35.45 2.25 1.8-.7.5-.7 1.3 2 .3 2.7 2.45l-.4-2.25q.9-.65 2.15-.95l3.45-.3q-1.15.95-1.8 2.5l-2.05 4.35q-1.15 2.25-1.9 4.55 2.4-4.1 6.15-8.05l3.25-3.1 2.65.5-2 1.6-3.55 3.8q-1.6 1.85-2.6 3.9l-.75 1.8q2.1-2.65 5.4-5.1l4.15-2.65 2.2-.9h.2l-.05-.1 1.15-1.05 4.4-3.45q.4.6.35 1.6l3.95-3.55q.45.6.35 1.85 2.15-1.9 5.1-3.5-.15 2.05-1.1 3.95l-.85 1.55-3.05 4.55.4-.15 1.2-.8-.4.85q-.65 1-2.05 1.3-1.9.35.1 1.65l.25.1-3.85 1.75-.25 3.65-4.55-1-5.2-.45q-2.55.1-4.4 1.65l-3.9 3-2 2 7.15 4.6 1.5.7 6.05.1-2.95 2-1.6.6-1 .25-2.1.15-1.35-.05-2.1.05m11-19.95l1.8.1 3.6-.4q1.25-.35 2.2-1.15l4.7-5.5.5-.9-1.05.7-5.25 1.8-3.75 2.2-3.9 3.5 1.15-.35m.6 3.8l3.1-.4 2-.7-2 .7-3.1.4m-3.55-3.6q.55-2.15 2.3-3.75l.25-.3-.25.3q-1.75 1.6-2.3 3.75M4.35 17.2q2.45 1.25 1.8.1L4.4 12.65l-1.15-2q-.6 1.35-.7 3.05-.25 2.45 1.8 3.5m.95 5.9l-.9-1.7.9 1.7m1.05 3.55l-1.6-1.05.05 1.15Q5 28 6.1 28.8q1.5 1.15 3.35.7-1.55-1.75-3.1-2.85M5.3 29.1l-.85 3.5.85-3.5m10.15 9.7l-3.55 1.7 3.55-1.7"/><path fill="url(#c)" d="M36.95 7.4l-1.8-1 2.4-1.5L39.8 6l-2.85 1.4"/><path fill="url(#d)" d="M43.55 9.25l1.4 1.9-2.2 1.45-.9-1.2.8-1.15.9-1"/><path fill="url(#e)" d="M28.1 4.35h-.7q-.7.65-2.05.9l-5.45.7q-3.9.3-7.3 2.65l.3-1.2q1.1-2.2 2.95-3.95.15-.85.8-1.1l.65-.15q.45-.95 1.4-1.35.2.6.85.65L20.6.4l.45.85.6-.65q.6-.85.85-.5 1.15 1.6 2.9.2l.4.85 1.1-.2q-.05.8.2 1.3.15-.35.85-.15l1.2.2-1.05 2.05"/><path fill="url(#f)" d="M10.45 13.85l2.15-2.4 1.65-1.25 2.65-1 4.9-1.15 5-.6q2.7-.05 4.75.95l1.85.95-4.65 2.8-4.4 3.45q-1.9-.85-4.15-1.3l-2.65-.5-3.65-.25-3.45.3"/><path fill="url(#g)" d="M22.3 20.95l3.9-3.5 3.75-2.2 5.25-1.8 1.05-.7-.5.9-4.7 5.5q-.95.8-2.2 1.15l-3.6.4-1.8-.1-1.15.35"/><path fill="url(#h)" d="M44.05 22.45q1 1.5.95 3.5v.5l-.75-.8q-2.05-1.95-4.85-1.7l-1.3.05q2.15.45 4.1 2.2 1.65 1.45 2.4 3.25l.05.1.2.3-.45 3.6-.85-1.35v-.05Q42.1 29.8 40.2 28.2q-.75-.6-1.75-.5 1.25 1.9 2.25 4.45l2.35 5.2-.8.75-1.75 2-.3.25-1.45-2.25q-1.3-2.55-1.45-4.85-1.3 1.8-1.15 4.6l.1 2.7-.15-.1v.05l-.9-.35h-1.45q-4.1 1.25-8.35 1.7l.5 1-1.1-.7q-.15.7.4 1.55v.05l-.3-.05q-1.85-.4-2.2-1.75l-1.25.05-.1.65-.55 1.4-1-1.5-1.3 1.75V42l-.05-.3q-2.1-.35-3.9-1.2l1.35.05 2.1-.15.45 1.3-.45-1.3 1-.25 1.6-.6 2.95-2 1.35-1.35q3.2-3.8 4-9.2v-.05l.25-3.65L33 21.55l1.25-.75 2.25-2.15 1.75-3.4.2-.25.5.9 1.65 4.5q.9-.25 2.15.65l.45.4.85 1M21.45 42q0-1.3-.85-2.45.85 1.15.85 2.45m12.2-7.25l.55 2.35q.2 1.55 1.05 2.55l.3.35.55.45-.55-.45-.3-.35q-.85-1-1.05-2.55l-.55-2.35m-11 6.25l.05.95-.05-.95q.05-2.65 3-2.4 1.15.15.35-1.6.8 1.75-.35 1.6-2.95-.25-3 2.4m2.75.85l-.1-1.3q0-.9 1.5-.9 2.85-.05 1.25-3.1 1.6 3.05-1.25 3.1-1.5 0-1.5.9l.1 1.3M40.6 20.4l-1.2.95 1.2-.95m-8.2 19.65l1.35.1-1.35-.1"/><path fill="url(#i)" d="M46.3 13.6l.25.75q.35 1.35.2 2.7l-.35-.1-2.3-.2q-.05-1.25-.5-2.45l.4-.05 2.3-.65"/><path fill="url(#j)" d="M46 19.25l-1.95 3.2-.85-1-.45-.4 1.05-2.25.05-.2 2.15.65"/><path fill="url(#k)" d="M13.45 31.6l1.2-1.1 2.65-1.75q2.2-1.05 4.9-1.05h3.45q-.3 2.6-1.55 4.55-1.4 2.05-4.3 2l-3.6-.55-2.4-1.15q-.4-.3-.35-.95"/><path fill="url(#l)" d="M4.35 17.2q-2.05-1.05-1.8-3.5.1-1.7.7-3.05l1.15 2 1.75 4.65q.65 1.15-1.8-.1"/><path fill="url(#m)" d="M6.35 26.65q1.55 1.1 3.1 2.85-1.85.45-3.35-.7Q5 28 4.8 26.75l-.05-1.15 1.6 1.05"/><path fill="#F40202" d="M1.3 8.1l.2-3 .35-1.9.3-.7.05.5.5 1.05q1.55 2 2.65 4.25l.45.9Q3.95 7.9 1.6 7.85l-.3.25m4.85 1.8l.05.15 2.1 4.75.4 2.25Q8 14.9 6 14.6q0-.8.7-1.3-.9-1.35-2.25-1.8l1.5-1.5.2-.1m27.25-.55l.4-.3 3.15-1.65L39.8 6h.05q2.25-.95 4.6-1.25L42.3 8l-1.4 2.4-2.45 4.6-.2.25-1.75 3.4-2.25 2.15-1.25.75-.25-.1q-2-1.3-.1-1.65 1.4-.3 2.05-1.3l.4-.85-1.2.8-.4.15 3.05-4.55.85-1.55q.95-1.9 1.1-3.95-2.95 1.6-5.1 3.5.1-1.25-.35-1.85l-3.95 3.55q.05-1-.35-1.6l4.65-2.8"/><path fill="none" stroke="#000" stroke-width=".05" stroke-linecap="round" stroke-linejoin="round" d="M44.95 11.15l.1.15m1.25 2.3l.25.75q.35 1.35.2 2.7m-.75 2.2l-1.95 3.2M36.8 40.9l-.55-.3-.05-.05-.1-.05m-10.7 1.35l.5 1-1.1-.7q-.15.7.4 1.55v.05l-.3-.05q-1.85-.4-2.2-1.75l-1.25.05-.1.65-.55 1.4-1-1.5-1.3 1.75V42l-.05-.3-.45-1.3M2.1 43.05L.7 42.6q-.9-.45-.65-1.05.15-.65.6-.7l.45-.05q2.9.25 1 2.25m-.4-3.45v-.1m2.65-6.55l.1-.35M4.25 22l.1-.3.05-.3v-.05M6.15 9.9l.05.15m21.9-5.7h-.7q-.7.65-2.05.9l-5.45.7q-3.9.3-7.3 2.65l.3-1.2q1.1-2.2 2.95-3.95.15-.85.8-1.1l.65-.15q.45-.95 1.4-1.35.2.6.85.65L20.6.4l.45.85.6-.65q.6-.85.85-.5 1.15 1.6 2.9.2l.4.85 1.1-.2q-.05.8.2 1.3.15-.35.85-.15l1.2.2m2.8.65H32m5.5 1.9l.05.05M39.8 6h.05m2.9 15.05l1.05-2.25.05-.2m.25-1.85q-.05-1.25-.5-2.45m-.85 6.75l.45.4.85 1m-5.8-7.2l.2-.25m-15 5.6l-1.15.35m.75-4.2l.15-.1m-2.6 22.9q.85 1.15.85 2.45m-8-10.4l1.2-1.1 2.65-1.75q2.2-1.05 4.9-1.05h3.45q-.3 2.6-1.55 4.55-1.4 2.05-4.3 2l-3.6-.55-2.4-1.15q-.4-.3-.35-.95m-7.1-4.95l-1.6-1.05.05 1.15Q5 28 6.1 28.8q1.5 1.15 3.35.7-1.55-1.75-3.1-2.85m8.2 13.85q1.8.85 3.9 1.2m4.25.25l-.05-.95m13.6-.45l-.15-.1"/><path fill="none" stroke="#412B00" stroke-width=".05" stroke-linecap="round" stroke-linejoin="round" d="M33.75 40.15q-4.1 1.25-8.35 1.7"/><path fill="none" stroke="#674500" stroke-width=".05" stroke-linecap="round" stroke-linejoin="round" d="M36.1 40.5l-.9-.35h-1.45"/><path fill="none" stroke="#3C2800" stroke-width=".05" stroke-linecap="round" stroke-linejoin="round" d="M33.75 40.15l-1.35-.1m7-18.7l1.2-.95"/><path fill="none" stroke="#553800" stroke-width=".05" stroke-linecap="round" stroke-linejoin="round" d="M36.1 40.45l-.55-.45-.3-.35q-.85-1-1.05-2.55l-.55-2.35"/><path fill="none" stroke="#080500" stroke-width=".05" stroke-linecap="round" stroke-linejoin="round" d="M22.65 41q.05-2.65 3-2.4 1.15.15.35-1.6"/><path fill="none" stroke="#261900" stroke-width=".05" stroke-linecap="round" stroke-linejoin="round" d="M28.05 36.55q1.6 3.05-1.25 3.1-1.5 0-1.5.9l.1 1.3"/><path fill="none" stroke="#c00" stroke-width=".05" stroke-linecap="round" stroke-linejoin="round" d="M45.05 11.3l1.25 2.3m.45 3.45l-.6 1.85-.15.35m-1 7.2l-.15 3.4m-.45 3.6L44 35.7l-.95 1.65m-4.5 3.7l-1.75-.15-.55-.35M1.7 39.5l1.2-2.2m.7-1.55l.75-2.8M1.3 8.1l.2-3 .35-1.9.3-.7.05.5.5 1.05q1.55 2 2.65 4.25l.45.9m.4.85l2.1 4.75.4 2.25m24.7-7.7l.4-.3 3.15-1.65m-1.8-1l-2.05-1m-3.2-.95l-1.8-.1m1.05-2.05l2.8.65m3.05.9l2.5 1M39.85 6q2.25-.95 4.6-1.25L42.3 8l1.25 1.25M40.9 10.4l.95 1M42.3 8l-1.4 2.4-2.45 4.6m5.4 3.6l.25-1.85m-.5-2.45l-.85-1.7M40.2 40.35l-1.65.7M33 21.55l1.25-.75 2.25-2.15 1.75-3.4M39.8 6l-2.85 1.4m-8.2 4.75l4.65-2.8"/><path fill="none" stroke="#d41" stroke-width=".05" stroke-linecap="round" stroke-linejoin="round" d="M42.25 38.1q-.05 2.6 1.2 4.6.6.95.65 2.05-.05-1.05-1.55-1.35.1 1.7-.85 3-.1-1.2-.6-2.2-1.55 1.65-3.4 2.2.5-1.65.85-5.35"/><path fill="none" stroke="#EB521F" stroke-width=".05" stroke-linecap="round" stroke-linejoin="round" d="M18.5 42l-1.75 1.25Q15.2 44.4 14.6 46.4l-.3-2.1-1.7 1.3-.2-1.45-2.4.55q2.05-1.55 2.45-4.15"/><path fill="none" stroke="#875A00" stroke-width=".05" stroke-linecap="round" stroke-linejoin="round" d="M43.05 37.35l-.8.75-1.75 2-.3.25"/><path fill="none" stroke="#865900" stroke-width=".05" stroke-linecap="round" stroke-linejoin="round" d="M44.85 29.85l-.45 3.6M32.4 5.1l-2.5-.65m2.1-1.5l3 .9"/><path fill="none" stroke="#855900" stroke-width=".05" stroke-linecap="round" stroke-linejoin="round" d="M44.05 22.45q1 1.5.95 3.5v.5m-4.4-6.05q.9-.25 2.15.65"/><path fill="none" stroke="#5D3E00" stroke-width=".05" stroke-linecap="round" stroke-linejoin="round" d="M38.45 15l.5.9 1.65 4.5"/><path fill="none" stroke="#754E00" stroke-width=".05" stroke-linecap="round" stroke-linejoin="round" d="M43.55 9.25l1.4 1.9m-3.1.25l.9 1.2"/><path fill="none" stroke="#704B00" stroke-width=".05" stroke-linecap="round" stroke-linejoin="round" d="M36.95 7.4l-1.8-1m2.4-1.5L39.8 6"/><path fill="none" stroke="#795100" stroke-width=".05" stroke-linecap="round" stroke-linejoin="round" d="M33.1 5.4l-.7-.3"/><path fill="none" stroke="#634200" stroke-width=".05" stroke-linecap="round" stroke-linejoin="round" d="M10.45 13.85l2.15-2.4 1.65-1.25 2.65-1 4.9-1.15 5-.6q2.7-.05 4.75.95l1.85.95"/><path fill="none" stroke="#4C3200" stroke-width=".05" stroke-linecap="round" stroke-linejoin="round" d="M23.2 16.65l1.15-1.05 4.4-3.45m-5.7 4.6l-.25.3q-1.75 1.6-2.3 3.75m8.65 2.5l-2 .7-3.1.4M33 21.55l-3.85 1.75m-24.7 9.3l.85-3.5"/><path fill="none" stroke="#3D2900" stroke-width=".05" stroke-linecap="round" stroke-linejoin="round" d="M22.3 20.95l3.9-3.5 3.75-2.2 5.25-1.8 1.05-.7-.5.9-4.7 5.5q-.95.8-2.2 1.15l-3.6.4-1.8-.1"/><path fill="none" stroke="#3F2A00" stroke-width=".05" stroke-linecap="round" stroke-linejoin="round" d="M4.35 17.2q2.45 1.25 1.8.1L4.4 12.65l-1.15-2q-.6 1.35-.7 3.05-.25 2.45 1.8 3.5"/><path fill="none" stroke="#362400" stroke-width=".05" stroke-linecap="round" stroke-linejoin="round" d="M8.3 14.8q.9-.65 2.15-.95m3.45-.3l-3.45.3"/><path fill="none" stroke="#E00000" stroke-width=".05" stroke-linecap="round" stroke-linejoin="round" d="M24.35 15.6q-1.9-.85-4.15-1.3m-2.65-.5l-3.65-.25"/><path fill="none" stroke="#956300" stroke-width=".05" stroke-linecap="round" stroke-linejoin="round" d="M17.55 13.8l2.65.5"/><path fill="none" stroke="#4A3100" stroke-width=".05" stroke-linecap="round" stroke-linejoin="round" d="M4.4 21.35l-.75-1.5q-1.35-2.9-1.9-6.1-.4-2.15-.4-4.35L1.3 8.1m4.5 1.1l.35.7M4.4 21.4l.9 1.7"/><path fill="none" stroke="#5F3F00" stroke-width=".05" stroke-linecap="round" stroke-linejoin="round" d="M4.45 32.6q-.4-1.6-.3-3.4l.05-1.3q.2-3.55 0-5.4l.05-.5m.1-.3l.05-.35m24.75 1.95l-.25 3.65"/><path fill="none" stroke="#ED0000" stroke-width=".05" stroke-linecap="round" stroke-linejoin="round" d="M28.9 27q-.8 5.4-4 9.2l-1.35 1.35"/><path fill="none" stroke="#644300" stroke-width=".05" stroke-linecap="round" stroke-linejoin="round" d="M23.55 37.55l-2.95 2m-8.15 1l-.55-.05m6.1-.1l-2.1.15-1.35-.05-2.1.05M18 40.4l1-.25 1.6-.6"/><path fill="none" stroke="#4F3400" stroke-width=".05" stroke-linecap="round" stroke-linejoin="round" d="M11.9 40.5l-.8.4q-2.3 1.05-4.75 1.7l-4.25.45m-1-2.25l.6-1.2m10.2.9l3.55-1.7"/><path fill="none" stroke="#640" stroke-width=".05" stroke-linecap="round" stroke-linejoin="round" d="M2.9 37.3l.7-1.55"/></svg>