<svg xmlns="http://www.w3.org/2000/svg" viewBox="0 0 48.9 48.0" width="48.9" height="48"><defs><radialGradient gradientUnits="userSpaceOnUse" r="819.2" cx="0" cy="0" spreadMethod="pad" gradientTransform="matrix(.024 0 0 .025 36 26.95)" id="a"><stop offset="0" stop-color="#00f"/><stop offset="1"/></radialGradient><radialGradient gradientUnits="userSpaceOnUse" r="819.2" cx="0" cy="0" spreadMethod="pad" gradientTransform="matrix(.01 0 0 .011 38.4 17.4)" id="b"><stop offset="0" stop-color="#00f"/><stop offset="1"/></radialGradient><radialGradient gradientUnits="userSpaceOnUse" r="819.2" cx="0" cy="0" spreadMethod="pad" gradientTransform="matrix(.011 0 0 .011 33.4 18.15)" id="c"><stop offset="0" stop-color="#00f"/><stop offset="1"/></radialGradient><radialGradient gradientUnits="userSpaceOnUse" r="819.2" cx="0" cy="0" spreadMethod="pad" gradientTransform="matrix(.021 0 0 .022 18.85 7)" id="d"><stop offset=".129" stop-color="#fff"/><stop offset="1"/></radialGradient><radialGradient gradientUnits="userSpaceOnUse" r="819.2" cx="0" cy="0" spreadMethod="pad" gradientTransform="matrix(.014 0 0 .015 19.1 13)" id="e"><stop offset="0" stop-color="#00f"/><stop offset="1"/></radialGradient><radialGradient gradientUnits="userSpaceOnUse" r="819.2" cx="0" cy="0" spreadMethod="pad" gradientTransform="matrix(.019 0 0 .007 19.3 9.6)" id="f"><stop offset="0" stop-color="#00f"/><stop offset=".369" stop-color="#030"/><stop offset="1"/></radialGradient><radialGradient gradientUnits="userSpaceOnUse" r="819.2" cx="0" cy="0" spreadMethod="pad" gradientTransform="matrix(.019 0 0 .02 18.45 24.85)" id="g"><stop offset="0" stop-color="#00f"/><stop offset="1"/></radialGradient><radialGradient gradientUnits="userSpaceOnUse" r="819.2" cx="0" cy="0" spreadMethod="pad" gradientTransform="matrix(.006 0 0 .006 33.55 16.15)" id="h"><stop offset="0" stop-color="#00f"/><stop offset="1"/></radialGradient><radialGradient gradientUnits="userSpaceOnUse" r="819.2" cx="0" cy="0" spreadMethod="pad" gradientTransform="matrix(.007 0 0 .008 23.35 18.25)" id="i"><stop offset="0" stop-color="#00f"/><stop offset="1"/></radialGradient><radialGradient gradientUnits="userSpaceOnUse" r="819.2" cx="0" cy="0" spreadMethod="pad" gradientTransform="matrix(.004 0 0 .004 25.95 23.15)" id="j"><stop offset="0" stop-color="#00f"/><stop offset="1"/></radialGradient><radialGradient gradientUnits="userSpaceOnUse" r="819.2" cx="0" cy="0" fx="87942.4" fy="0" spreadMethod="repeat" gradientTransform="matrix(.012 0 0 .012 37.35 22.3)" id="k"><stop offset="0" stop-color="#00f"/><stop offset="1"/></radialGradient><radialGradient gradientUnits="userSpaceOnUse" r="819.2" cx="0" cy="0" spreadMethod="pad" gradientTransform="matrix(.011 0 0 .012 40.45 35)" id="l"><stop offset="0" stop-color="#00f"/><stop offset="1"/></radialGradient><radialGradient gradientUnits="userSpaceOnUse" r="819.2" cx="0" cy="0" spreadMethod="pad" gradientTransform="matrix(.004 0 0 .004 38.35 37.95)" id="m"><stop offset="0" stop-color="#00f"/><stop offset="1"/></radialGradient><radialGradient gradientUnits="userSpaceOnUse" r="819.2" cx="0" cy="0" spreadMethod="pad" gradientTransform="matrix(.01 0 0 .01 32.95 45.35)" id="n"><stop offset="0" stop-color="#00f"/><stop offset="1"/></radialGradient><radialGradient gradientUnits="userSpaceOnUse" r="819.2" cx="0" cy="0" spreadMethod="pad" gradientTransform="matrix(.004 0 0 .004 2.45 14.45)" id="o"><stop offset="0" stop-color="#00f"/><stop offset="1"/></radialGradient><radialGradient gradientUnits="userSpaceOnUse" r="819.2" cx="0" cy="0" spreadMethod="pad" gradientTransform="matrix(.008 0 0 .009 7.4 13.8)" id="p"><stop offset="0" stop-color="#00f"/><stop offset=".51" stop-color="#060"/><stop offset="1"/></radialGradient><radialGradient gradientUnits="userSpaceOnUse" r="819.2" cx="0" cy="0" spreadMethod="pad" gradientTransform="matrix(.002 0 0 .002 5.75 15.75)" id="q"><stop offset="0" stop-color="#fff"/><stop offset=".467" stop-color="#f00"/><stop offset="1"/></radialGradient><radialGradient gradientUnits="userSpaceOnUse" r="819.2" cx="0" cy="0" spreadMethod="pad" gradientTransform="matrix(.008 .001 -.001 .005 7.65 24.9)" id="r"><stop offset=".133" stop-color="#0000C3"/><stop offset=".396" stop-color="#00004C"/><stop offset=".722" stop-color="#00f"/><stop offset="1"/></radialGradient><radialGradient gradientUnits="userSpaceOnUse" r="819.2" cx="0" cy="0" spreadMethod="pad" gradientTransform="matrix(.007 0 0 .008 17.85 23.7)" id="s"><stop offset="0" stop-color="#00f"/><stop offset="1"/></radialGradient><radialGradient gradientUnits="userSpaceOnUse" r="819.2" cx="0" cy="0" spreadMethod="pad" gradientTransform="matrix(.004 0 0 .005 9.65 27.4)" id="t"><stop offset="0" stop-color="#00f"/><stop offset="1"/></radialGradient><radialGradient gradientUnits="userSpaceOnUse" r="819.2" cx="0" cy="0" spreadMethod="pad" gradientTransform="matrix(.009 0 0 .009 5.4 33.6)" id="u"><stop offset="0" stop-color="#00f"/><stop offset="1"/></radialGradient></defs><path fill="#fff" d="M9.4 17.3l.5.3.6.55q-.85 1.2-2.3 1.2l-3.3-.05-.8.1-.35.15-.75.55-.4 1 .25-1.85-.85.7-.4.5-.5 1.2.25-1.15.3-.75q.35-.95 1.15-1.5l2.6-.1.8-.3q.75-.65 1.65-.75h.2l1.35.2"/><path fill="url(#a)" d="M30.3 29.05l2.95-.3.75-.15q1.35-.4 2.6-1.2l6.1-5.1q1.75-1.3 1.7-3.4 0-.9-.7-1.55-1.25-1.2-2.65-1.6l-.4-.15.85-1.9q.35-1.2-.6-1.9l-2.6-1.6.15-.05q5.1-.55 7.7 3.35 2.7 3.95.75 9.5-1.55 4.5-5.7 6.6l-2.4 1.15-2.5 1.35-4.5 2.7q-5.25 3.45-2 7.9-.9.8-2 1l-1.7.05-1-.2q-.65-1.45-.75-3.35l.05-2.65.45-1.9.25-.2-.05-.4.45-1q.85-1.65 2.3-3l2.5-2"/><path fill="url(#b)" d="M38.3 10.2l2.6 1.6q.95.7.6 1.9l-.85 1.9-.05.05-1.35 1.3-.75.5-.85.7-1.3 1.7-.1.4q1.05.5.55 1.3l-.2.25.4.65.35.8.15 1.35-1.45.95-.6-2.95q-.5-1.8.15-2.85v-.05l3.45-4.65q1.1-1.55-.8-2.8L37.1 11.2q-.7-.85-.95-1.85l.15-.05 1.15.3.75.55.1.05"/><path fill="url(#c)" d="M36.05 25.55l-2.5 1.4q-.5-.95-.55-2.05l.25-2.35q-.8 0-1.05-.7v-.05q-.2-.75.35-.95.7-.3.85-1v-.05l.05-.7q-.15-1.1 0-2.15v-.05q.1-1.05.55-2l.35-.5 1.05-1.05.85-.95-1.1.25-2.15 1q-1.1.35-1.5 1.2-.4.8-.2 2 .25 1.7-.5 3l-.9-.15-.65-.3-.05.05-1-.1q-1.3-1.45-.7-3.55.4-1.6 1.25-1.1v.05l.25.15.75-.55.4-.35h.05l2.6-2.2 1.3-1.2.2.4-.2-.4.45-.4q.8-.7 1.6-.85.25 1 .95 1.85l1.15 1.05q1.9 1.25.8 2.8L35.6 19.7v.05q-.65 1.05-.15 2.85l.6 2.95M28.5 15.3l.5-.4-.5.4m-.05 3.05q.25.7.8 1.05-.55-.35-.8-1.05m5.1 4.15l-.3.05.1-.65-.1.65.3-.05m-3.1-8.2l-.25-.3.25.3"/><path fill="url(#d)" d="M32.8 11.8l-2.15-1.35q-3.05-1.7-6.4-3-1.75-.7-2.5-1.45l-.2-.25-4.8-.55-3.1.35q-1.4.35-1.45 0l-1.85 1-2.85 2.2-1.7 2.05-.9 1.65-.3.7-.5-.5-.4-.05-.1.25L3.3 14l-.1-2.55q.1 1.15.9.75.5-.3.35-1.15-.4-2.4.15-4.6-.35 1.65.7 3 .45-.1.4-.5Q5.15 4.75 8 2l.4-.4q-1.3 2.1-.65 4.6.25 1.1 1.3.25.55-3.8 3.7-5.5l.6-.3q-1.1.85-1.15 2.45l-.05.4q2.4-2.45 5.5-3.4l.9-.1 1.65.15-1.7.45q-1.05.45-1.55 1.3L24 1.7l-1.95 1.65q4.45-1.5 8.9.7-2.15-.5-4.05 1.15l-.45.45q2.9-.7 5.55 1.05l1.45.75q-1.7-.15-2.95 1.25 1.9-.7 3.85 0-.9.55-1.35 1.5l1.55-.8q-.45.5-.45 1.15v.05l-1.3 1.2"/><path fill="url(#e)" d="M12.9 12.5l2.25-1.85q.8-.65 1.75-1l2-.6 2-.3 1.95.05 2.05.55 1.8 1.05.85.7L30.2 14h-.05l-.4.35-1-1.1q-1.5-1.1-3.3-1.75l-.25-.1-3.65-.7-4.1.4q-2 .45-3.3 1.85L11.5 15.7l-2.1 1.6-1.35-.2 2.4-1.7 1.8-2.2.55-.55.1-.15"/><path fill="url(#f)" d="M12.9 12.5l-1 .4L8 13q-.6-.15-.55-.75l.25-.8L9.1 9.4l.05-.05h-.1q-1.8.5-3.25 1.45l1.7-2.05 2.85-2.2 1.85-1q.05.35 1.45 0l3.1-.35 4.8.55.2.25q.75.75 2.5 1.45 3.35 1.3 6.4 3l2.15 1.35-2.6 2.2-2.65-2.9-.85-.7-1.8-1.05-2.05-.55-1.95-.05-2 .3-2 .6q-.95.35-1.75 1L12.9 12.5"/><path fill="url(#g)" d="M9.4 17.3l2.1-1.6 2.65-2.75q1.3-1.4 3.3-1.85l4.1-.4 3.65.7.25.1q1.8.65 3.3 1.75l1 1.1-.75.55-.25-.15v-.05q-.85-.5-1.25 1.1-.6 2.1.7 3.55l1 .1.05-.05.65.3.9.15h2.6q-.15.7-.85 1-.55.2-.35.95v.05l-1.55.6-2 .2-.9-.15-2.2-1.3q-1.8-.95-2.5-2.9-.6-1.6-1.8-3.1-.8-.95-1.6-1.15h-.7l.4.3.3.45.55 1.3.3 2.1q0 1.15.4 2.1l.8.9.7.35.65.15q.9 1.2 1.5 2.7l-.05 2.1-.05.1q-.05.75-.7 1.2-.8.6-1.25 1.55l-.05.1-1.05 1.65q-.35.45-.2.95l.05.2.9 1.75 1.05.6q.8.6.95-.2l.3-1 .6 1.65-.2.6-.55.25-.1.35-.65 1.4-.45.65q-1 1.25-1.95.2l-1.05-1.45q-.8-1.2-2-1.2l-.35-3.8 1.5-1.1.05-.1q.7-.65.75-1.7v-.55l.2-.1.95-.65.8-1.2q.25-.75.1-1.65l-.35-1.2q-.35-.8-1.3-1.25-.9-.4-1.7-1.1L17.7 20.3q-1.35-1.7-3.45-1.5-.7.1-.65.85.15 1.85 1.15 3.55l-1.1.1-.1.05-.15.05q-.95-1.1-2.3-1.7L9.15 21l-1.65-.3q-1.7-.15-3 .85l-.2-.95-.5-.1-.3-.6.25-.35.35-.15.8-.1 3.3.05q1.45 0 2.3-1.2l-.6-.55-.5-.3m-4.8 3.3h-.3.3m19.55 4.1l.4-.3-.4.3m-6.1-11l.9.35-.9-.35m4.2 23.15v.1l.05-.1h-.05q-.15-1.15-1.2-1.1h-.15v-.05q-.25-1.05-1-1.6.75.55 1 1.6v.05h.15q1.05-.05 1.2 1.1m-1.2-2.4q.9.35 1.25 1.25l.65.4-.65.75.65-.75-.65-.4q-.35-.9-1.25-1.25m2.55.7l-.15-.05.15.1v-.05l.85.3-.15.45.15-.45-.85-.3m-.65.95l.1-.05q.3-.2.75-.25h.05q.05-.45-.25-.6.3.15.25.6h-.05q-.45.05-.75.25l-.1.05m-.1-1.2l.6.2-.6-.2m-.7 2.4l.1-.35-.1.35"/><path fill="url(#h)" d="M33.4 19.85h-2.6q.75-1.3.5-3-.2-1.2.2-2 .4-.85 1.5-1.2l2.15-1 1.1-.25-.85.95-1.05 1.05-.35.5q-.45.95-.55 2v.05q-.15 1.05 0 2.15l-.05.7v.05"/><path fill="url(#i)" d="M18.95 14.05h.7q.8.2 1.6 1.15 1.2 1.5 1.8 3.1.7 1.95 2.5 2.9l2.2 1.3-1.1-.3-1.75-.75-.1-.1q-.4-.5-1.15-.45l-1.95.3-.8-.9q-.4-.95-.4-2.1l-.3-2.1-.55-1.3-.3-.45-.4-.3"/><path fill="url(#j)" d="M23.05 21.7l3.05 1.15 1.85 1 .9.75-4.25-.2h-.05q-.6-1.5-1.5-2.7"/><path fill="url(#k)" d="M40.65 15.6l.4.15q1.4.4 2.65 1.6.7.65.7 1.55.05 2.1-1.7 3.4l-6.1 5.1q-1.25.8-2.6 1.2l-.75.15-2.95.3 3.25-2.1 2.5-1.4 1.45-.95 4.05-3.05q3.25-2.85-3.05-4.1l.75-.5 1.35-1.3.05-.05"/><path fill="url(#l)" d="M36.3 32.1l2.5-1.35.4.9q.45.95 1.3 1.4.45-.2.7.25l1 1.35q.5.55 1.25.3l.8-.3 1.45-.2q.35-.05.45.2l.25.3.5.4 2 2.15-2.75-1.55-.45-.1-.4.1-2.15.8 2.6 1.35q1.35.75 2.5 1.15l-1.7-.25-3.9-1.45q-.85-.5-1.75-.4l-.95.05.05-1.55q0-.45-.5-.35l-.85.1h-1.1l-.4.15-.7 1.45v.1H34.6l-.95.15-.8.35-.9.85.05-.5q.2-1.15 1.1-1.65.85-.55 1.85-.7 1.3-.25 1.45-1.15l-.05-2.1-.05-.25m3.7 1.3l.5-.35-.5.35"/><path fill="url(#m)" d="M36.45 37l.7-1.45.4-.15h1.1l.85-.1q.5-.1.5.35l-.05 1.55.05 2.05.2 1.35-.5-.6-.05-.05-1.35-1.55q-.5-.65-.65-1.35-.5.2-1.1 0l-.1-.05m1.1-.55l.1.6-.1-.6"/><path fill="url(#n)" d="M25.1 43.55l1 .2 1.7-.05q1.1-.2 2-1l.2.3 1.25 1.3q2.95 2.4 7.6 1.15 1.15-.3 2-1-3.75 4.7-10.4 3.25-3.95-.9-5.35-4.15"/><path fill="url(#o)" d="M3.25 14.45q-.15 1.45.45 2.7l-1-.5.05-.8q-1-.8-1.35-2.1l-.05-.25-.15-1.75.65 1.2.35.5 1.05 1"/><path fill="url(#p)" d="M3.25 14.45L3.3 14l.3-1.15.1-.25.4.05.5.5.3-.7.9-1.65q1.45-.95 3.25-1.45l.05.05-1.4 2.05-.25.8q-.05.6.55.75l3.9-.1 1-.4-.1.15-.55.55-1.8 2.2-2.4 1.7h-.2q-.9.1-1.65.75l-.8.3-2.6.1-.5-.1q-.6-.15-.2-.55l.6-.95 1 .5q-.6-1.25-.45-2.7m3.4.45q-.35-.35-.85-.35-.55 0-.9.35-.4.35-.4.85 0 .55.4.9.35.35.9.35l.85-.35q.4-.35.4-.9 0-.5-.4-.85"/><path fill="url(#q)" d="M6.65 14.9q.4.35.4.85 0 .55-.4.9L5.8 17q-.55 0-.9-.35-.4-.35-.4-.9 0-.5.4-.85.35-.35.9-.35.5 0 .85.35"/><path fill="url(#r)" d="M4.5 21.55q1.3-1 3-.85l1.65.3 1.95.7q1.35.6 2.3 1.7l-1.4.8-.4.15-1.55.4-1.95-.1-1.75-.85-1.2-1-.2-.3-.45-.95"/><path fill="url(#s)" d="M14.75 23.2q-1-1.7-1.15-3.55-.05-.75.65-.85 2.1-.2 3.45 1.5l1.05 1.15q.8.7 1.7 1.1.95.45 1.3 1.25l.35 1.2q.15.9-.1 1.65l-.8 1.2-.95.65-.2.1.1-1.7.05-.1v-.15q.15-.95.75-1.95-.25-.9-1-1.65l-.65-.45-.35.3q-.6.4-1.4.4l-2.8-.1m.35-3.15q.25 1.1 1.25 1.45l2.55.9.4.2-.4-.2-2.55-.9q-1-.35-1.25-1.45"/><path fill="url(#t)" d="M8.1 24.65l1.95.1 1.55-.4-.8 1.3q-.35.4-.2 1l.1 1.15-.1.95-.65 1.6-.1.15-.1-.15q-.6-1.35-1.8-2.15l-.3-.15.1-1.25q-.1-1.2.35-2.15"/><path fill="url(#u)" d="M9.85 30.5l-.6 1.3q-.25.9-.1 1.85l.2.65 1.05 1.2q.4.35.45.85L10.8 38l-.85-.75q-.7-.65-1.75-.4h-.05v.05q-.4.9-1.5.95-1.85.05-2.95 1.35l.1-2.05.25-.6-1.35.25L0 38.3l.55-1.1 1.35-1.65q.8-.75 1.8-.65l2.05-.25q1.1-.35 1.25-1.5L7.1 31l.55-2.7v-.25l.3.15q1.2.8 1.8 2.15l.1.15M5.25 36q-.7-.05-1.1.45l-.1.1.1-.1q.4-.5 1.1-.45m3 .45l-.05.4.05-.4"/><path fill="none" stroke="#000" stroke-width=".05" stroke-linecap="round" stroke-miterlimit="3" d="M34.1 10.6l.2.4m1.85-1.65q-.8.15-1.6.85l-.45.4m4.2-.4l-.1-.05-.75-.55-1.15-.3-.15.05M13.35.65l.65-.4-.45.3-.2.1M4.6 6.45l.15-.55"/><path fill="none" stroke="#575757" stroke-width=".05" stroke-linecap="round" stroke-miterlimit="3" d="M32.8 11.8l1.3-1.2v-.05q0-.65.45-1.15l-1.55.8q.45-.95 1.35-1.5-1.95-.7-3.85 0 1.25-1.4 2.95-1.25L32 6.7q-2.65-1.75-5.55-1.05l.45-.45q1.9-1.65 4.05-1.15-4.45-2.2-8.9-.7L24 1.7l-7.05.2q.5-.85 1.55-1.3l1.7-.45L18.55 0l-.9.1q-3.1.95-5.5 3.4l.05-.4q.05-1.6 1.15-2.45l-.6.3q-3.15 1.7-3.7 5.5Q8 7.3 7.75 6.2q-.65-2.5.65-4.6L8 2Q5.15 4.75 5.7 8.95q.05.4-.4.5-1.05-1.35-.7-3-.55 2.2-.15 4.6.15.85-.35 1.15-.8.4-.9-.75L3.3 14"/><path fill="none" stroke="#000067" stroke-width=".05" stroke-linecap="round" stroke-miterlimit="3" d="M30.3 29.05l-2.5 2q-1.45 1.35-2.3 3l-.45 1 .05.4-.25.2-.45 1.9-.05 2.65q.1 1.9.75 3.35m4.7-.85q-3.25-4.45 2-7.9l4.5-2.7 2.5-1.35 2.4-1.15q4.15-2.1 5.7-6.6 1.95-5.55-.75-9.5-2.6-3.9-7.7-3.35l-.15.05 2.6 1.6q.95.7.6 1.9l-.85 1.9"/><path fill="none" stroke="#000069" stroke-width=".05" stroke-linecap="round" stroke-miterlimit="3" d="M40.65 15.6l-.05.05-1.35 1.3-.75.5q6.3 1.25 3.05 4.1L37.5 24.6l-1.45.95-2.5 1.4-3.25 2.1M12.9 12.5l2.25-1.85q.8-.65 1.75-1l2-.6 2-.3 1.95.05 2.05.55 1.8 1.05.85.7L30.2 14l2.6-2.2M3.75 19.55l-.25.35.3.6.5.1h.3m25.15-6.25l-.75.55-.5.4m1.7-1.3h-.05l-.4.35m-.5 5.05q-.55-.35-.8-1.05m-9.5-4.3l.4.3.3.45.55 1.3.3 2.1q0 1.15.4 2.1l.8.9 1.95-.3q.75-.05 1.15.45l.1.1 1.75.75 1.1.3.9.15 2-.2 1.55-.6v-.05q-.2-.75.35-.95.7-.3.85-1h-2.6l-.9-.15-.65-.3m-7.55 1.8l.7.35.65.15 3.05 1.15 1.85 1 .9.75-4.25-.2h-.05l-.05 2.1-.05.1q-.05.75-.7 1.2-.8.6-1.25 1.55l-.05.1-1.05 1.65q-.35.45-.2.95l.05.2.9 1.75 1.05.6q.8.6.95-.2l.3-1 .6 1.65-.2.6-.55.25-.1.35-.65 1.4h.25l.6-.1m-4.35-8.95v.55q-.05 1.05-.75 1.7l-.05.1-1.5 1.1.35 3.8q1.2 0 2 1.2l1.05 1.45q.95 1.05 1.95-.2l.45-.65m1-13.25l-.4.3m13.35-.1l-.15-1.35-.35-.8-.4-.65.2-.25q.5-.8-.55-1.3l.1-.4 1.3-1.7.85-.7m-3.1-4.1l-1.05 1.05-.35.5q-.45.95-.55 2v.05q-.15 1.05 0 2.15l-.05.7v.05m-.15 2.7l.1-.65m-.1.65l.3-.05m-1.35-.65q.25.7 1.05.7L33 24.9q.05 1.1.55 2.05M30.2 14l.25.3m-22.4 2.8l2.4-1.7 1.8-2.2.55-.55.1-.15M3.3 14l-.05.45-1.05-1-.35-.5-.65-1.2.15 1.75.05.25q.35 1.3 1.35 2.1l-.05.8-.6.95q-.4.4.2.55l.5.1m1.5 2.35l.2.95.45.95.2.3 1.2 1 1.75.85 1.95.1 1.55-.4.4-.15 1.4-.8.15-.05.1-.05 1.1-.1 2.8.1q.8 0 1.4-.4l.35-.3-.4-.2-2.55-.9q-1-.35-1.25-1.45m3.85-6l-.9-.35m2 14.9l.1-1.7.05-.1v-.15q.15-.95.75-1.95-.25-.9-1-1.65l-.65-.45m-9.45 7.9l.1-.15.65-1.6.1-.95-.1-1.15q-.15-.6.2-1l.8-1.3m-3.4 12.5q1.05-.25 1.75.4l.85.75.05-1.65q-.05-.5-.45-.85l-1.05-1.2-.2-.65q-.15-.95.1-1.85l.6-1.3m-2.2-2.45v.25L7.1 31 7 33.15q-.15 1.15-1.25 1.5l-2.05.25q-1-.1-1.8.65L.55 37.2 0 38.3l2.7-1.5 1.35-.25.1-.1q.4-.5 1.1-.45M8.1 24.65q-.45.95-.35 2.15l-.1 1.25m-3.6 8.5l-.25.6-.1 2.05q1.1-1.3 2.95-1.35 1.1-.05 1.5-.95v-.05h.05l.05-.4m14 .4v.1l.05-.1.65-.75-.65-.4q-.35-.9-1.25-1.25m1.2 2.4q-.15-1.15-1.2-1.1h-.15v-.05q-.25-1.05-1-1.6m3.7 1.05l-.15-.05.15.1q.3.15.25.6h-.05q-.45.05-.75.25l-.1.05m.65-.95l.85.3-.15.45m-.85-.8l-.6-.2m-.6 2.05l-.1.35"/><path fill="none" stroke="#999" stroke-width=".05" stroke-linecap="round" stroke-miterlimit="3" d="M9.4 17.3l.5.3.6.55q-.85 1.2-2.3 1.2l-3.3-.05-.8.1-.35.15m4.3-2.45h-.2q-.9.1-1.65.75l-.8.3-2.6.1q-.8.55-1.15 1.5l-.3.75-.25 1.15.5-1.2.4-.5.85-.7-.25 1.85.4-1 .75-.55M9.4 17.3l-1.35-.2"/><path fill="none" stroke="#000039" stroke-width=".05" stroke-linecap="round" stroke-miterlimit="3" d="M39.95 37.2l.95-.05q.9-.1 1.75.4l3.9 1.45 1.7.25q-1.15-.4-2.5-1.15l-2.6-1.35 2.15-.8.4-.1.45.1 2.75 1.55-2-2.15-.5-.4-.25-.3q-.1-.25-.45-.2l-1.45.2-.8.3q-.75.25-1.25-.3l-1-1.35q-.25-.45-.7-.25l-.5.35m-3.7-1.3l.05.25.05 2.1q-.15.9-1.45 1.15-1 .15-1.85.7-.9.5-1.1 1.65l-.05.5.9-.85.8-.35.95-.15h1.85V37l.7-1.45.4-.15h1.1l.85-.1q.5-.1.5.35l-.05 1.55.05 2.05.2 1.35-.5-.6-.05-.05-1.35-1.55q-.5-.65-.65-1.35-.5.2-1.1 0l-.1.05m1.2-.05l-.1-.6m-1 .6l-.1-.05m2.35-6.25l.4.9q.45.95 1.3 1.4"/><path fill="none" stroke="#000026" stroke-width=".05" stroke-linecap="round" stroke-miterlimit="3" d="M25.1 43.55q1.4 3.25 5.35 4.15 6.65 1.45 10.4-3.25-.85.7-2 1-4.65 1.25-7.6-1.15L30 43l-.2-.3"/><path fill="none" stroke="#870000" stroke-width=".05" stroke-linecap="round" stroke-miterlimit="3" d="M6.65 14.9q.4.35.4.85 0 .55-.4.9L5.8 17q-.55 0-.9-.35-.4-.35-.4-.9 0-.5.4-.85.35-.35.9-.35.5 0 .85.35"/></svg>