<svg xmlns="http://www.w3.org/2000/svg" viewBox="0 0 21.5 29.4" width="21.5" height="29.4"><defs><radialGradient gradientUnits="userSpaceOnUse" r="819.2" cx="0" cy="0" spreadMethod="pad" gradientTransform="matrix(.007 0 0 .007 12.3 6.7)" id="a"><stop offset="0" stop-color="#EA0000"/><stop offset=".463" stop-color="#f60"/><stop offset=".682" stop-color="#fc0"/><stop offset="1"/></radialGradient><radialGradient gradientUnits="userSpaceOnUse" r="819.2" cx="0" cy="0" fx="87942.4" fy="0" spreadMethod="repeat" gradientTransform="matrix(.006 0 0 .006 10.85 3.15)" id="b"><stop offset="0" stop-color="#EA0000"/><stop offset=".463" stop-color="#f60"/><stop offset=".682" stop-color="#fc0"/><stop offset="1"/></radialGradient><radialGradient gradientUnits="userSpaceOnUse" r="819.2" cx="0" cy="0" spreadMethod="pad" gradientTransform="matrix(.015 0 0 .015 10.45 15.95)" id="c"><stop offset="0" stop-color="#EA0000"/><stop offset=".463" stop-color="#f60"/><stop offset=".682" stop-color="#fc0"/><stop offset="1"/></radialGradient><radialGradient gradientUnits="userSpaceOnUse" r="819.2" cx="0" cy="0" spreadMethod="pad" gradientTransform="matrix(.005 0 0 .005 3.65 8.35)" id="d"><stop offset="0" stop-color="#EA0000"/><stop offset=".463" stop-color="#f60"/><stop offset=".682" stop-color="#fc0"/><stop offset="1"/></radialGradient><radialGradient gradientUnits="userSpaceOnUse" r="819.2" cx="0" cy="0" spreadMethod="pad" gradientTransform="matrix(.001 0 0 .001 4.8 9.55)" id="e"><stop offset="0" stop-color="#EA0000"/><stop offset=".463" stop-color="#f60"/><stop offset=".682" stop-color="#fc0"/><stop offset="1"/></radialGradient><radialGradient gradientUnits="userSpaceOnUse" r="819.2" cx="0" cy="0" spreadMethod="pad" gradientTransform="matrix(.005 0 0 .003 2.55 8.5)" id="f"><stop offset="0"/><stop offset=".325" stop-color="#EA0000"/><stop offset=".639" stop-color="#f60"/><stop offset=".851"/></radialGradient><radialGradient gradientUnits="userSpaceOnUse" r="819.2" cx="0" cy="0" spreadMethod="pad" gradientTransform="matrix(.004 0 0 .004 6.1 11.15)" id="g"><stop offset="0" stop-color="#EA0000"/><stop offset=".463" stop-color="#f60"/><stop offset=".682" stop-color="#fc0"/><stop offset="1"/></radialGradient><radialGradient gradientUnits="userSpaceOnUse" r="819.2" cx="0" cy="0" spreadMethod="pad" gradientTransform="matrix(.004 0 0 .004 7.9 12)" id="h"><stop offset="0" stop-color="#EA0000"/><stop offset=".463" stop-color="#f60"/><stop offset=".682" stop-color="#fc0"/><stop offset="1"/></radialGradient><radialGradient gradientUnits="userSpaceOnUse" r="819.2" cx="0" cy="0" spreadMethod="pad" gradientTransform="matrix(.006 0 0 .006 5.3 21.65)" id="i"><stop offset="0" stop-color="#EA0000"/><stop offset=".463" stop-color="#f60"/><stop offset=".682" stop-color="#fc0"/><stop offset="1"/></radialGradient><radialGradient gradientUnits="userSpaceOnUse" r="819.2" cx="0" cy="0" spreadMethod="pad" gradientTransform="matrix(.007 .003 -.002 .004 15.05 16.6)" id="j"><stop offset="0"/><stop offset=".325" stop-color="#EA0000"/><stop offset=".639" stop-color="#f60"/><stop offset=".851"/></radialGradient><radialGradient gradientUnits="userSpaceOnUse" r="819.2" cx="0" cy="0" spreadMethod="pad" gradientTransform="matrix(.005 0 0 .005 13.95 17.25)" id="k"><stop offset="0" stop-color="#EA0000"/><stop offset=".463" stop-color="#f60"/><stop offset=".682" stop-color="#fc0"/><stop offset="1"/></radialGradient><radialGradient gradientUnits="userSpaceOnUse" r="819.2" cx="0" cy="0" spreadMethod="pad" gradientTransform="matrix(.005 0 0 .005 15.1 23.8)" id="l"><stop offset="0" stop-color="#EA0000"/><stop offset=".463" stop-color="#f60"/><stop offset=".682" stop-color="#fc0"/><stop offset="1"/></radialGradient></defs><path fill="url(#a)" d="M15.45 3.75l.2.2q.55.4.6 1.25.65.25.3.7l.35.5-.15.15q.35.35.1.75-.15.25-.05.6l-.25.95-.05.15-.15.15-.5.3-.7.3-.25.1h-.05l-2 .45-.15.05-.15.15-.65.1-.2-.15-1.35-.1h-1.9q-.35 0-.5-.25L7.9 10q-.15-.35.1-.7l.25-.8H8.2q-.35-.25-.05-.45l.1-.05h.05l3.15-.9.45-.3.25-.1q.35-.45-.2-.4l-.55-.35.55.35q.55-.05.2.4H10.6l-.75.2-.65.35-.95.7L8.2 8l-.05.05q-.8-.1-.3-.75v-1q.9-.75 1.05-2l.05-.35q0 .5.3.9l.25.65.9-1.1.2-1.1q0 .7.45 1.65.6.05.65-.6l.7.2.75-1.2.1-.7q.35 1.5 1.75 2l.45-.9m1 2.15l-.05-.05-.45-.1-.8.05-2.15.6q-.45-.15.05-.5.35-.25.1-.65.25.4-.1.65-.5.35-.05.5l.35.05 1.85-.1 1.25-.45h.1-.1m-.6-.85l.3.1.1.05-.1-.05-.3-.1m-1.15 3.2l.2-.05.1-.05h.1l.55.65.25-1 .35-.2-.3.05-.2.05-3.9.4-.75.2-.5.2-.2.15-.6.15-.05.05-.3.25.45.05.3.4.2-.4 1.15.05.85-.15 2.3-.8M13 10l-.3.35.3-.35m3-1l.35.15L16 9"/><path fill="#f00" d="M13 6.4l2.15-.6.8-.05.45.1.05.05-1.25.45-1.85.1L13 6.4m-.85.3l-.25.1-.45.3L8.3 8l-.05-.05.95-.7.65-.35.75-.2h1.55"/><path fill="url(#b)" d="M7.85 6.3l.1-.55.05-1.4q-.05-.65-.45-1.15l-.2-.2-.45-.1-.7-.05q.1-.15.3-.2l1.05-.1-.45-.4.25-.05 2 .35q0-.65-.75-1.1l1.35.2q-.05-.8-.7-1.3L9.8.4l.55.65q.3.75.95.85 1 .2.25-.65l.7.3q.4.15.35-.3 0-.8-.7-1.25 1 .3 1.6 1.3l.3.3q.4.3.35-.7l.2 1.15.5 1.1.6.6-.45.9q-1.4-.5-1.75-2l-.1.7-.75 1.2-.7-.2q-.05.65-.65.6Q10.6 4 10.6 3.3l-.2 1.1-.9 1.1-.25-.65q-.3-.4-.3-.9l-.05.35q-.15 1.25-1.05 2"/><path fill="#fff" d="M14.7 8.25l-.1-.1-.4.05-.3-.05-.8.35q-.2.05-.15-.25l-.55.3q-.4.25-.4-.25l-.25.3q-.25.25-.3-.1l-.2.3q-.15.3-.3.15-.35-.35-.5 0l-.05.2.05-.2q.15-.35.5 0 .15.15.3-.15l.2-.3q.05.35.3.1l.25-.3q0 .5.4.25l.55-.3q-.05.3.15.25l.8-.35.3.05.4-.05.1.1-2.3.8-.85.15-1.15-.05-.2.4-.3-.4-.15-.3.15.3-.45-.05.3-.25.05-.05.6-.15.2-.15.5-.2.75-.2 3.9-.4.2-.05.3-.05-.35.2-.25 1-.55-.65L15 8l-.1.2-.2.05m1.25-.6l-.05.15.05-.15"/><path d="M17.7 25q.5.15.75-.25.7 0 1.15-.9-.05.85.4 1.4l.1.15 1.4 1.55q-1-.6-1.7 0l-1.45-.3-.45.35q-.6.6-1.2.35l-.2.35-.5-.2q.65-.15 1.1-.65-.8-1.25.6-1.85m-6.5-1.8l-.1.05q-.7.35-.25 1.25l.6.8q.45.4 1.1.6l-.55.05.4.75 1.15.95-.65-.25q-.85-.2-1.65-.6l-1.1-.5.85 1.5q-1 .15-1.75-.7L8.2 29.4q.3-1.25-.15-2.65-.15-.65-.7-1.15l-.5-.5 1.25-.2-.35-1.15q1.4.85 1.8-.5.2-.6-.25-.95l.65-.05.1-.1.95.3.5.2.85.05-1.15.5m-.85-12.85l1.35.1.2.15.65-.1.15-.15.15-.05 2-.45h.05q.2.8-.1 1.5l-.25-.7q-.55 1.25-1.5 1.9l.15-1.2-.3.2-2.15 2.25-.5-1.3-.9 1.75L8.1 16q.4-.8.15-1.6l-.35.45L6.95 16v.05l-.1.1Q6.05 17 5 17.3l1.1-.95.15-.25.45-.9.4-1.4-.5.35-.75.75q.25-.75.75-1.3l.3-.35 1.7-1.2-.25-.05 1.15-.85.85-.8m8.6 15.75l-.6.55.6-.55m-9 0l.2.2-.2-.2"/><path fill="url(#c)" d="M16.35 9.15l.35.3.25-.45.75.7q-.2-.7.45-.65 1.1 0 1.3-.85.95 1.55.4 2.95.6-.1 1-.65.2 1.8-1.5 2.4h.7l-.65.55q-.95.3-1.55.85-.1-1.55-1.15-2.7.4 1.6-1.3.95l-.1-.05q-.75-.25-1.4.3l.45.2q-1.4.6-2.45 1.4l1.6-.05-.2.4-.45.5-.7.25q-.2.6-.8.7l1.55-.3-.45.95-.5.8-.05-.05-.85.55q.5-.15.8-.45-.3 1.15-1.15 1.7 1.1-.45 1.9-1.4l1.1-.95-.5 1.55.5-.45L11.85 21q1.05-.55 1.7-1.3.4.2 1.1-.6l.25-.3.55.2q.65-.8.85-1.8.1 1.2-.15 2.25l-.1.7-.65.85-.35.55-.1-.75q-.6.55-1.1 1.6l-.9.05-.4 1.25v-.35l-1.1.4-.25-.55 1.15-.5-.85-.05-.5-.2v-.15q-.15-.95 0-1.85l-.35.1q.1-.45-.25-.4-.65.05-.95.25l-.1-.75L8.3 20l-.6-.3-1.6-.7-.25.3q-.4.45-.9.2.3.55-.1.5-1.55-.1-2.6-1.4-.5-.65-.85-.2l-.55.7-.25-.3-.3-.25v-.05L0 18l.6-1.15 1.75-.3q1.55.1 1.55-.95.95.55 2.2.5h.15l-.15.25-1.1.95q1.05-.3 1.85-1.15l.1.05V16l.95-1.15.35-.45q.25.8-.15 1.6l1.25-1.75.9-1.75.5 1.3 2.15-2.25.3-.2-.15 1.2q.95-.65 1.5-1.9l.25.7q.3-.7.1-1.5l.25-.1.7-.3.5-.3m-8.15 7.6q-.6-.4-1.25-.55.65.15 1.25.55M16.25 11q-.65-.05-.5 1.1l-.35-.25-.1.65.1-.65.35.25q-.15-1.15.5-1.1M6.6 14.15l.5-.35-.4 1.4-.1.05v-1.1m.1 4.25H6l-.45.35.55.25-.55-.25.45-.35-2.45-.4 2.45.4h.7m4.9-2.9h.55-.55m3.6 3.9l.25-.4-.25.4"/><path fill="url(#d)" d="M1.05 9.85q.4-.3.05-.75Q.7 8.6 1 8l.7-.85 1-.6.9-.2 1.2-.2.6-.55-.1.25.7-.65-.6.85-.3.35.5-.25q-.5.55-1.3.7.3.1.6.4l.35.75.4 1.15.25.3.3.35h-.55l.8 1q-.75-.25-1.25-1v-.05L5 9.4l-.45-.9-.1-.15.05.15.15.95-.15-.1-.05.65.05.45-.05-.1v.4l.1.75-.4-.6-.85-1.7-.1-.1v.2l.15 1.6q-.05-.6-.45-1h-.05l-.25-.3-.1.4-.35-.15-.1 1.05-.25-.45q-.45-.15-.7.3l-.05-.9m.45-1.2q.3.55.9.8l.2.15-.2-.15q-.6-.25-.9-.8M3.85 6.7l.35.1.1.05-.1-.05-.35-.1"/><path fill="url(#e)" d="M4.5 8.5h.05l.45.9.2.35v.05l-.1.3-.1-.25-.1.7-.45-.55.05-.65.15.1-.15-.95"/><path fill="url(#f)" d="M1.05 9.85l.05.9q.25-.45.7-.3l.25.45.1-1.05.35.15.1-.4.25.3.05.35V9.9q.4.4.45 1L3.2 9.3l.1-.1.85 1.7-.05.6-.3-.4v.8l-.55-.1-.3-.1q-.2.5.1.95l-.55-.55q-.3-.4-.9-.55-.5.55-.6 1.2L.85 12q0-.6.15-1.1-.5 0-.7.4V11q0-.65.55-1l.2-.15"/><path fill="url(#g)" d="M7.9 10l.05.1q.15.25.5.25h.5l-.45.35q-.45.35-1.1.5-.2.05-.35.2l.4.15-1.1.8q-.3.15-.5.4-.45.1-.8.35l.2-.3.55-.75-1.1.15-.6.1q-.6 0-.85-.5l.55.1v-.8l.3.4.05-.6.4.6-.1-.75v-.3h.05L4.45 10l.45.55.1-.7.1.25.1-.3q.5.75 1.25 1l-.8-1h.55l-.3-.35.4-.25q.4.65 1.1.3l.2-.05q-.35.55.3.55m-3.45.75l.05-.3-.05.3"/><path fill="url(#h)" d="M8.95 10.35h1.4l-.85.8-1.15.85.25.05-1.7 1.2-.3.35-.75.05-.1-.25-.3.05.4-.7q.2-.25.5-.4l1.1-.8-.4-.15q.15-.15.35-.2.65-.15 1.1-.5l.45-.35"/><path fill="url(#i)" d="M.85 19.1l.55-.7q.35-.45.85.2 1.05 1.3 2.6 1.4.4.05.1-.5.5.25.9-.2l.25-.3 1.6.7.6.3.5.3-.6.1q-.45.05-.9.25l.6.5q1 .6 2.15 1l-.1.1-.65.05q.45.35.25.95-.4 1.35-1.8.5l.35 1.15-1.25.2-1.1-.85-.25-.15-1.95-1.2-2.2-1.45 1.15.25-2-1.8q.05-.4.5-.3l-.15-.5"/><path fill="url(#j)" d="M17.85 14.3q.3-.15.6 0l.05 1.4-.55-.4q-.3.45-.2 1.05l-.65-.45.1-.45q-.35-.45-.55-1.45l-.3-.3-1.2-.1-.25.1h-.05q-.9 0-1.35.65l-1.6.05q1.05-.8 2.45-1.4l-.45-.2q.65-.55 1.4-.3l.1.05q1.7.65 1.3-.95 1.05 1.15 1.15 2.7l-.3.25.3-.25"/><path fill="url(#k)" d="M17.1 15.9l-.75 1.15-.05.15q-.2 1-.85 1.8l-.55-.2-.25.3q-.7.8-1.1.6-.65.75-1.7 1.3l1.85-2.85-.5.45.5-1.55-1.1.95q-.8.95-1.9 1.4.85-.55 1.15-1.7l.1-.05.5-.8.45-.95-1.55.3q.6-.1.8-.7l.7-.25.45-.5.2-.4q.45-.65 1.35-.65h.05l.25-.1 1.2.1.3.3q.2 1 .55 1.45l-.1.45m-3.4-.85l-.8.85.8-.85m1.85 2.15l-.65 1.6.65-1.6"/><path fill="url(#l)" d="M16.05 20.15v.45l.45-.25q-.25.65-.2 1.9l.65-.25.1 2.25q.05.55.65.75-1.4.6-.6 1.85-.45.5-1.1.65l-.7-.4-2-1.65-.4-.45q-.3-.55-.35-1.3l.4-1.25.9-.05q.5-1.05 1.1-1.6l.1.75.35-.55.65-.85"/><path fill="none" stroke="#000" stroke-width=".05" stroke-linecap="round" stroke-miterlimit="3" d="M10.4 9.15l.05-.2q.15-.35.5 0 .15.15.3-.15l.2-.3q.05.35.3.1l.25-.3q0 .5.4.25l.55-.3q-.05.3.15.25l.8-.35.3.05.4-.05.1.1.2-.05.1-.2.1.15.55.65.25-1 .05-.15-.2.05-3.9.4-.75.2-.5.2-.2.15-.6.15-.05.05.15.3.3.4.2-.4 1.15.05.85-.15 2.3-.8m.4-.1H15l-.1.05m1.05-.55l.3-.05-.35.2m-6 1.35l-.45-.05.3-.25"/><path fill="none" stroke="#A40000" stroke-width=".05" stroke-linecap="round" stroke-miterlimit="3" d="M15.45 3.75l.2.2q.55.4.6 1.25.65.25.3.7l.35.5-.15.15q.35.35.1.75-.15.25-.05.6l-.25.95-.05.15-.15.15.35.3.25-.45.75.7q-.2-.7.45-.65 1.1 0 1.3-.85.95 1.55.4 2.95.6-.1 1-.65.2 1.8-1.5 2.4h.7l-.65.55q-.95.3-1.55.85.3-.15.6 0l.05 1.4-.55-.4q-.3.45-.2 1.05l-.65-.45-.75 1.15-.05.15q.1 1.2-.15 2.25l-.1.7v.45l.45-.25q-.25.65-.2 1.9l.65-.25.1 2.25q.05.55.65.75.5.15.75-.25.7 0 1.15-.9-.05.85.4 1.4l.1.15 1.4 1.55q-1-.6-1.7 0l-1.45-.3-.45.35q-.6.6-1.2.35l-.2.35-.5-.2-.7-.4-2-1.65-.4-.45q-.3-.55-.35-1.3v-.35l-1.1.4-.25-.55-.1.05q-.7.35-.25 1.25l.6.8q.45.4 1.1.6l.8.1M13 6.4l2.15-.6.8-.05.45.1.05.05h.1m-.3-.7l-.1-.05-.3-.1m-.4-1.3l-.6-.6-.5-1.1-.2-1.15q.05 1-.35.7l-.3-.3q-.6-1-1.6-1.3.7.45.7 1.25.05.45-.35.3l-.7-.3q.75.85-.25.65-.65-.1-.95-.85L9.8.4 9.25.25q.65.5.7 1.3l-1.35-.2q.75.45.75 1.1l-2-.35-.25.05.45.4-1.05.1q-.2.05-.3.2l.7.05.45.1.2.2q.4.5.45 1.15l-.05 1.4-.1.55v1q-.5.65.3.75-.3.2.05.45h.05L8 9.3q-.25.35-.1.7l.05.1q.15.25.5.25h1.9l1.35.1.2.15.65-.1.15-.15.3-.35m0-3.6q-.45-.15.05-.5.35-.25.1-.65m3.3.65l-1.25.45-1.85.1L13 6.4m-.85.3q.35-.45-.2-.4l-.55-.35m.75.75l-.25.1-.45.3L8.3 8h-.05l-.1.05m.1-.1l.95-.7.65-.35.75-.2h1.55m.55 3.65l.15-.05 2-.45h.05l.25-.1.7-.3.5-.3L16 9m-1.1.85q.2.8-.1 1.5l-.25-.7q-.55 1.25-1.5 1.9l.15-1.2-.3.2-2.15 2.25-.5-1.3-.9 1.75L8.1 16q.4-.8.15-1.6l-.35.45L6.95 16v.2q.65.15 1.25.55m7.1-4.25l.1-.65.35.25q-.15-1.15.5-1.1M4.3 6.85q.8-.15 1.3-.7l-.5.25.3-.35.6-.85-.7.65.1-.25-.6.55-1.2.2-.9.2-1 .6L1 8q-.3.6.1 1.1.35.45-.05.75l.05.9q.25-.45.7-.3l.25.45.1-1.05.35.15.1-.4-.2-.15q-.6-.25-.9-.8M6 5.2l.15-.2m-1.6 3.5l-.1-.15.05.15.15.95-.15-.1-.05.65.45.55.1-.7.1.25.1-.3v-.05L5 9.4l-.45-.9m-1.35.8v-.2l.1.1.85 1.7.4.6-.1-.75v-.4l.05.1-.05-.45m1.45-.55l-.25-.3L5.25 8l-.35-.75q-.3-.3-.6-.4l-.1-.05-.35-.1m-2.8 3.15l-.2.15q-.55.35-.55 1v.3q.2-.4.7-.4-.15.5-.15 1.1l.15.75q.1-.65.6-1.2.6.15.9.55l.55.55q-.3-.45-.1-.95l.3.1.55.1v-.8l.3.4.05-.6m.35-.45l-.05.3M2.6 9.6l.25.3.05.35V9.9q.4.4.45 1L3.2 9.3m.05 2.5q.25.5.85.5l.6-.1 1.1-.15-.55.75-.2.3q.35-.25.8-.35.2-.25.5-.4l1.1-.8-.4-.15q.15-.15.35-.2.65-.15 1.1-.5l.45-.35M8.2 8l.05-.05M8.2 8h.05M5.2 9.8q.5.75 1.25 1l-.8-1h.55l-.3-.35.4-.25q.4.65 1.1.3l.2-.05q-.35.55.3.55m-1.3 3.6l.3-.35 1.7-1.2-.25-.05 1.15-.85.85-.8m-4.5 2.4l-.4.7.3-.05.1.25.75-.05q-.5.55-.75 1.3l.75-.75.5-.35-.4 1.4-.45.9-.15.25-1.1.95q1.05-.3 1.85-1.15l.1-.1m-.35-1.9v1.1l.1-.05m.15.95l.1.05m-.7-.1H6.1q-1.25.05-2.2-.5 0 1.05-1.55.95l-1.75.3L0 18l.3.5v.05l.3.25.25.3.15.5q-.45-.1-.5.3l2 1.8-1.15-.25 2.2 1.45 1.95 1.2.25.15 1.1.85.5.5q.55.5.7 1.15.45 1.4.15 2.65l1.05-2.3q.75.85 1.75.7l-.85-1.5-.2-.2M6.1 19l-.55-.25.45-.35-2.45-.4m2.45.4h.7m3.35 3.75q-1.15-.4-2.15-1l-.6-.5q.45-.2.9-.25l.6-.1-.5-.3-.6-.3-1.6-.7m2.2 1l1.05-.35.1.75q.3-.2.95-.25.35-.05.25.4l.35-.1q-.15.9 0 1.85v.15l.5.2.85.05-1.15.5m5.9-7.3l.1-.45q-.35-.45-.55-1.45l-.3-.3-1.2-.1-.25.1h-.05q-.9 0-1.35.65l-.2.4-.45.5-.7.25q-.2.6-.8.7l1.55-.3.8-.85m1.6-2.55l.1.05q1.7.65 1.3-.95 1.05 1.15 1.15 2.7l-.3.25m-4.05-.2l-1.6.05q1.05-.8 2.45-1.4l-.45-.2q.65-.55 1.4-.3m-3.15 3h-.55m.3 2.1l-.85.55q.5-.15.8-.45l.05-.1m.05.05l.5-.8.45-.95m-.95 1.75l-.1.05q-.3 1.15-1.15 1.7 1.1-.45 1.9-1.4l1.1-.95-.5 1.55.5-.45L11.85 21q1.05-.55 1.7-1.3.4.2 1.1-.6l.25-.3.65-1.6m-.1 1.8l-.25.4m-.3-.6l.55.2q.65-.8.85-1.8M11 22.45l-.95-.3m8.3 4.5l.6-.55m-8.8.2l1.1.5q.8.4 1.65.6l.65.25-1.15-.95-.4-.75.55-.05"/></svg>