<svg xmlns="http://www.w3.org/2000/svg" viewBox="0 0 58.7 64.0" width="58.7" height="64"><defs><radialGradient gradientUnits="userSpaceOnUse" r="819.2" cx="0" cy="0" fx="87942.4" fy="0" spreadMethod="repeat" gradientTransform="matrix(.009 0 0 .009 49.35 10.65)" id="a"><stop offset=".008" stop-color="#330"/><stop offset=".463" stop-color="#330"/><stop offset="1" stop-color="#693"/></radialGradient><radialGradient gradientUnits="userSpaceOnUse" r="819.2" cx="0" cy="0" spreadMethod="pad" gradientTransform="matrix(.006 -.006 .004 .005 50.15 11.8)" id="b"><stop offset="0" stop-color="#c00"/><stop offset=".212" stop-color="#c00"/><stop offset=".376" stop-color="#fff"/><stop offset=".427" stop-color="#ff0"/><stop offset=".639" stop-color="#fc0"/><stop offset=".788" stop-color="#f60"/><stop offset="1" stop-color="#f00"/></radialGradient><radialGradient gradientUnits="userSpaceOnUse" r="819.2" cx="0" cy="0" spreadMethod="pad" gradientTransform="matrix(.008 0 0 .008 46.8 9.85)" id="c"><stop offset=".008" stop-color="#330"/><stop offset=".463" stop-color="#330"/><stop offset="1" stop-color="#693"/></radialGradient><radialGradient gradientUnits="userSpaceOnUse" r="819.2" cx="0" cy="0" spreadMethod="pad" gradientTransform="matrix(.006 0 0 .007 35.35 2.65)" id="d"><stop offset="0" stop-color="#c00"/><stop offset=".212" stop-color="#c00"/><stop offset=".376" stop-color="#fff"/><stop offset=".427" stop-color="#ff0"/><stop offset=".639" stop-color="#fc0"/><stop offset=".788" stop-color="#f60"/><stop offset="1" stop-color="#f00"/></radialGradient><radialGradient gradientUnits="userSpaceOnUse" r="819.2" cx="0" cy="0" spreadMethod="pad" gradientTransform="matrix(.008 0 0 .008 36.4 5.25)" id="e"><stop offset=".008" stop-color="#330"/><stop offset=".463" stop-color="#330"/><stop offset="1" stop-color="#693"/></radialGradient><radialGradient gradientUnits="userSpaceOnUse" r="819.2" cx="0" cy="0" spreadMethod="pad" gradientTransform="matrix(.02 0 0 .02 32.15 12.95)" id="f"><stop offset=".02"/><stop offset=".369" stop-color="#f30"/><stop offset="1"/></radialGradient><radialGradient gradientUnits="userSpaceOnUse" r="819.2" cx="0" cy="0" spreadMethod="pad" gradientTransform="matrix(.016 .005 -.007 .026 34.65 15.95)" id="g"><stop offset=".2"/><stop offset=".518" stop-color="#f00"/><stop offset=".796"/></radialGradient><radialGradient gradientUnits="userSpaceOnUse" r="819.2" cx="0" cy="0" spreadMethod="pad" gradientTransform="matrix(.022 0 0 .022 31.65 21.2)" id="h"><stop offset=".02"/><stop offset=".463" stop-color="#c60"/><stop offset="1" stop-color="#900"/></radialGradient><radialGradient gradientUnits="userSpaceOnUse" r="819.2" cx="0" cy="0" spreadMethod="pad" gradientTransform="matrix(.022 0 0 .022 31.2 23.6)" id="i"><stop offset=".02"/><stop offset=".463" stop-color="#c60"/><stop offset="1" stop-color="#900"/></radialGradient><radialGradient gradientUnits="userSpaceOnUse" r="819.2" cx="0" cy="0" spreadMethod="pad" gradientTransform="matrix(.007 0 0 .007 49.1 27.4)" id="j"><stop offset=".008" stop-color="#330"/><stop offset=".463" stop-color="#660"/><stop offset="1" stop-color="#693"/></radialGradient><radialGradient gradientUnits="userSpaceOnUse" r="819.2" cx="0" cy="0" spreadMethod="pad" gradientTransform="matrix(.015 -.001 .002 .026 30.3 37.25)" id="k"><stop offset=".314"/><stop offset=".463" stop-color="#c60"/><stop offset="1" stop-color="#900"/></radialGradient><radialGradient gradientUnits="userSpaceOnUse" r="819.2" cx="0" cy="0" spreadMethod="pad" gradientTransform="matrix(.009 0 0 .008 40.4 29.35)" id="l"><stop offset=".02" stop-color="#fff"/><stop offset=".463" stop-color="#c60"/><stop offset="1" stop-color="#900"/></radialGradient><radialGradient gradientUnits="userSpaceOnUse" r="819.2" cx="0" cy="0" spreadMethod="pad" gradientTransform="matrix(.008 0 0 .008 21.8 8.6)" id="m"><stop offset=".008" stop-color="#330"/><stop offset=".463" stop-color="#330"/><stop offset="1" stop-color="#693"/></radialGradient><radialGradient gradientUnits="userSpaceOnUse" r="819.2" cx="0" cy="0" spreadMethod="pad" gradientTransform="matrix(.009 0 0 .009 18.7 8.15)" id="n"><stop offset=".008" stop-color="#330"/><stop offset=".463" stop-color="#330"/><stop offset="1" stop-color="#693"/></radialGradient><radialGradient gradientUnits="userSpaceOnUse" r="819.2" cx="0" cy="0" spreadMethod="pad" gradientTransform="matrix(.006 0 0 .006 16.9 8.15)" id="o"><stop offset="0" stop-color="#c00"/><stop offset=".212" stop-color="#c00"/><stop offset=".376" stop-color="#fff"/><stop offset=".427" stop-color="#ff0"/><stop offset=".639" stop-color="#fc0"/><stop offset=".788" stop-color="#f60"/><stop offset="1" stop-color="#f00"/></radialGradient><radialGradient gradientUnits="userSpaceOnUse" r="819.2" cx="0" cy="0" spreadMethod="pad" gradientTransform="matrix(.008 0 0 .008 13.45 23.75)" id="p"><stop offset=".008" stop-color="#330"/><stop offset=".463" stop-color="#660"/><stop offset="1" stop-color="#693"/></radialGradient><radialGradient gradientUnits="userSpaceOnUse" r="819.2" cx="0" cy="0" spreadMethod="pad" gradientTransform="matrix(.013 0 0 .009 22.6 27.75)" id="q"><stop offset=".02" stop-color="#fff"/><stop offset=".463" stop-color="#c60"/><stop offset="1" stop-color="#900"/></radialGradient></defs><path d="M47.95 30.75l.5 3.45q.1 2.05 2.05 2.85 1.7.7 3.1 1.85l2.75 2.85q.9 1.05 1.25 2.3.7 1.95.9 3.75v1.5q0 1.4.25 2.4l.35 1.5q0 1.4-.9 2.2-.6.45-.7 1.15l-.1-1.15.2-2.3-.9 2.65q-.35.9-1.3 1.25-.45.1-.65.35l1.15-2.85.55-2.2-.1-.7-.1-.1q-1.05-1.05-1.5 1.25l-.25 1.15q-.2-1.35 0-2.85.1-.45.45-.6 1.15-.55 1.85.25.7-1.6 0-3.2-.8-1.85-1.05-3.8l-.2.55q0-1.15-1.15-.9-.25.1-.6.35-2.85 2.05-3.1 5.4l-.3 4q2.15.8 1 3.2l-1.6 2.9q.6-1.5.45-3.1v-1.6q-.45 2.05-1.8 3.65-.7.8-1.75.7 1.6-.45 1.75-1.95v-2.3l-.15-.35q-1.5.55-1.35 2.05-.35-2.15 1.25-3.2l.55-.55q.8-1.4.8-3.45 0-1.4.6-2.65.55-1.6 1.95-2.75l.1-.45q.8-1.05 2.2-1.05l-5.65-4.7q-1.25-.9-2.05-2.85-.45-1.3-1.25-2.1l.1-1.15q1.25.6 2.4-.65m-11.25 14q.25 1.8 0 3.65l-.65 3.45-1.15 3.65-.35 1.4v.9q0 1.05.45 2.05.35.95 1.15 1.5l2.5 2.2q-1.25-.6-2.85-1.05.35.9.1 1.5l-1-1.25q-1.15-1.4-2.4-.35l.45-1.05q.35-1.85.1-3.8.25.25.35-.8l-.25-3.65-.35-3.65q-.3-1.95 0-3.8 1.5 0 2.9-.6l1-.3m-9.05-.35q-.8 1.6-.9 3.55l-.1 3.65q0 1.95.45 3.8l.35 1.35v.15l-.35 2.05q-.35 1.6.65 2.5l-1.25.15q-1.25.35-1.7 2.05v-1.5h-1.4q1.85-.7 2.2-2.65.35-1.8 0-3.75v-.25q-.25-1.85-1.25-3.3-1.15-1.75-1.3-3.7-.1-1.95.15-3.55.65.1 1.35-.35l3.1-.2M16.3 27.05q-1.05-.1-1.7 1.15l-.35.45-.6 1.85q-.35 1.15-.45 2.2-.25 2.15-1.7 3.2-1.85 1.25-1.05 3.3-.45-.8-1.25-.65-.7 1.7-.6 3.65l.15 3.55q1.6-1.25 2.6.7.7.9 1.85 1.05-1.5.45-2.65-.25-.9 1.5.7 2.65l.45.45q.8.9 1.5-.45.35.9-.7 1.25-1.15.45-1.25 1.5l-2.2-2.75q-.55 1.7 0 3.3l.5-.55q0 .7-.7 1.5-.35.45-.35 1.15-1.25-1.65-1.25-3.8l-.15-4.35q.15-1.4-.1-2.65-.45-1.95.1-3.9.6-1.7 1.65-3.1v-.1l-1.3-3.7Q7 32 5.15 30.95q-1.35-.8-1.95-2.4l-.55 1.6.1-2.65q-.45.6-.35 1.75l.15 1.05.2 3.55L.8 30.5q-.55-1.35-.35-3.3 1.6-.7 2.3-2.1V25q0-1.85 1.05-1.15 1.05.8 1.25 1.95.1 1.25.6 2.4l.1-.7q.1-1 1.05-.9.1 1.5-.7 2.55-.35.45.1.9 2.85 2.75 3.2 6.55.45 0 .7-.35 1.05-1.6 1.5-3.55.55-1.85.7-3.8.1-2.05 1-3.55 1.6-.1 2.75 1.15l.5.35-.25.2M55.2 42.2h-.8.8M2.75 27.5v-2.4 2.4m1.15-1.8q.45.1.25.7l-.95 2.05v.1-.1l.95-2.05q.2-.6-.25-.7"/><path fill="url(#a)" d="M50.6 5.4l.7-.45.8-.15 1.5.15.45 1.6.45 1.25-.2.1h-3q-.8.15-1.25.7l-1.5 1.25-1.4 1.25-1.5 1.65.15 1.35q0 .8.7 1.4l.55.55.1.6-1.5-.25-1.1-.45q-.35 0-.35-.6l.1-.8v-.1l.25-1.4.55-1.1.9-1.3q.35-.65.35-1.5l.15-.2.2-.35 3.9-3.2"/><path fill="url(#b)" d="M53.25 7.9l.35.8.55 1.4v1.5q-.1.65-.55 1.15l-.8 1q-.45.7-1.15 1.05l-1.15.7-1.5.55h-1.95l-.55-.55q-.7-.6-.7-1.4l-.15-1.35 1.5-1.65 1.4-1.25 1.5-1.25q.45-.55 1.25-.7h1.95"/><path fill="url(#c)" d="M45.9 6.75l.9-1.5q.5-.55 1.3-.8h1.7q.6.35.8.95l-3.9 3.2-.2.35-.15.2q0 .85-.35 1.5l-.9 1.3-.55 1.1-.25 1.4v.1l-.1.8-.6-.1q-.7-.35-.7-1.25l.15-2.75q-.15-.7.2-1.4t.8-1.25q.5-.55 1.15-.9l.35-.35.35-.6"/><path fill="url(#d)" d="M30.05 2.85l.8-1.15L32 .7q.6-.35 1.4-.45L34.45 0h1.35l3 .35q.7.1 1.15.55l.8 1.15v.5l-.15.3-1.25.15q-.8 0-1.5.45L35.9 4.7q-.55.55-1.35.55h-1.5l-1.4-.2q-.65-.25-1.35-.7l-.1-.1-.15-.1-.1-.15q-.25-.35.1-.7v-.45"/><path fill="url(#e)" d="M40.6 2.85h.15q.8 0 1.35.35 1.05.7.25 1.15l-.7.35h-.1L35.8 7.1l-1.25.45-1.5-.2-1.25-.7-1.15-.9q-.6-.6-.6-1.4l.15-.1.1.1q.7.45 1.35.7l1.4.2h1.5q.8 0 1.35-.55l1.95-1.25q.7-.45 1.5-.45l1.25-.15"/><path fill="url(#f)" d="M47.15 16.65v.1q1.4.9.6 1.6l-.45.45-.15.15-.9 1.25q-.9 1.7-2.65 2.5-1.6.7-3.65.7l-3.7.2v-.1l1.95-1.25.95-.7 1-.8q.6-.55 1.4-.7l1.5-.1q.8 0 1.35-.7.45-.55.15-1.25l-.5-.55L42.6 17l-9.2-1.65-1.25-.35q-.8-.2-1.5-.65L30.3 14q-.6-.6-1.4-.45h-1.45l-1.4.35q-.45.1-.7.45l-.35.45q-.45.55.15 1.15l.9 1.05L28 20.9l.6 1.25-1.05-.25q-1.85-.9-3.7-1.15-1.8-.2-3.4-1.35l-3.1-2.1q-1.3-.8-1.15-1.7 0-.6.55-1.15l.35.1h.9l.35-.1.25-.35h.1q.45.45 1.25.8l1.3-.45L22.5 14l1.05-.7.9-1.05.55-1.35V9.65q-.1-.7-.55-1.15L24 7.55l-.95-2.75 1.05-.65q.45-.35 1.05-.35.8.1 1.35-.35l1.15-.8q.6-.35 1.25-.25l.95.35.2.1v.45q-.35.35-.1.7l.1.15v.2q0 .8.6 1.4l1.15.9 1.25.7 1.5.2 1.25-.45 5.75-2.4h.1q.8.1 1.05.8l-.1.9h.2q.9.15 1.25.5l.15.1 1.7-.25-.35.6-.35.35q-.65.35-1.15.9-.45.55-.8 1.25-.35.7-.2 1.4L42.9 14q0 .9.7 1.25l.6.1q0 .6.35.6l1.1.45 1.5.25"/><path fill="url(#g)" d="M42.6 17l1.45.45.5.55q.3.7-.15 1.25-.55.7-1.35.7l-1.5.1q-.8.15-1.4.7l-1 .8-.95.7-1.95 1.25v.1l-1.15.6-1.5.35-1.45.1-1.15-.2-1.5-.6q-.45-.1-.6-.55l-.3-1.15-.6-1.25-1.95-3.9-.9-1.05q-.6-.6-.15-1.15l.35-.45q.25-.35.7-.45l1.4-.35h1.45q.8-.15 1.4.45l.35.35q.7.45 1.5.65l1.25.35L42.6 17"/><path fill="url(#h)" d="M47.3 18.8q2.15.7 2.25 2.65 0 .9-.55 1.6-.45.7-1.5.9-1.85.5-3.45 1.4l-1.7.9q-1.25.8-3.1.5l-3.7-.35-3.3-.6-3.2-.7-3.8-.9q-1.7-.6-3.2-1.5l-3.45-1.8q-1.4-.85-3-1.15-1-.25-1.5-.95-.45-.8-.2-1.8.1-.6.7-.95.55-.55 1.6-.45-.15.9 1.15 1.7l3.1 2.1q1.6 1.15 3.4 1.35 1.85.25 3.7 1.15l1.05.25.3 1.15q.15.45.6.55l1.5.6 1.15.2 1.45-.1 1.5-.35 1.15-.6 3.7-.2q2.05 0 3.65-.7 1.75-.8 2.65-2.5l.9-1.25.15-.15"/><path fill="url(#i)" d="M49 23.05q.35.45 0 1.15l-.35.45q-2.15.15-3.3 1.6l-1.85 1.6-1.15.35-3 .15-.9-.15q-1.85-.35-3.8 0-1.95.35-4 0l-3.55-.9q-1.6-.45-3-1.6-1.6-1.15-3.45-1.75l-1.15-.35-2.05-.55q-1.85-.55-3.1-1.7l-.9-1.15q-.5-.8.3-1.25l.35-.15q.5.7 1.5.95 1.6.3 3 1.15l3.45 1.8q1.5.9 3.2 1.5l3.8.9 3.2.7 3.3.6 3.7.35q1.85.3 3.1-.5l1.7-.9q1.6-.9 3.45-1.4 1.05-.2 1.5-.9"/><path fill="url(#j)" d="M49 24.2q1.4-1.5 3.55-.6 1.95.85 2.2 2.8.1 1.6-1.85 1.8-1.95.15-3.55 1.15-.7.45-1.05 1.05l-.35.35q-1.15 1.25-2.4.65l-.35-.2q-1.5-.9-1.7-3.35l1.85-1.6q1.15-1.45 3.3-1.6l.35-.45"/><path fill="url(#k)" d="M45.45 32.55q-.35 1.15-1.4 1.95l-.2.25q.1 1.95-1.15 3.35-.7.8-1.6 1 .1 1.95-1.85 2.75l-.45.25h-.15q.35 1.35-.55 1.95l-.7.45-.7.25-1 .3q-1.4.6-2.9.6h-.9q-1.95-.1-3.55-1.05l-.7-.2-3.1.2q-.7.45-1.35.35-.95-.1-1.75-1-1.35-1.65-.55-3.45l-.7-.45q-1.7-1.3-1.25-3.45-.8-.6-1.4-1.75-.9-1.5-.2-2.85l-.45-.35q-.95-.8-1.3-1.7-.45-1.75.7-2.9l.6.15h.1q1 .55 2.4-.35.9-.8.7-1.95l-.6-1.3 1.15.35q1.85.6 3.45 1.75 1.4 1.15 3 1.6l3.55.9q2.05.35 4 0 1.95-.35 3.8 0l.9.15 3-.15 1.15-.35q.2 2.45 1.7 3.35l.35.2-.1 1.15M40.6 35.2l.7-.35q1.6-.8 2.3-2.75.6-2.15-1.6-3.1l-2.65-.55-1.85.45-3.3.9-1.6.25-.45 2.9q.1-1.6-.7-2.8-.35-.7-1.05-.9l-3.45-1.4-3.65-1.8q-2.05-1.05-3.1.55l-.25.8q-.1 1.85.35 3.8l.5 1.95q.3 1.95 2.05 2.75 1.6.7 3.3.7l3.8-.35Q31.8 36 32 33.95q-.1 2.05 2.1 2.4l3.75-.2 2.75-.95q1.85.6 3.25-.45-1.4 1.05-3.25.45m-21.9-2.3l-1.35-.9 1.35.9m1.4 4.15l-1.15-.45 1.15.45m2.15 4.1l-1.35-.65 1.35.65m9.3-4.2q-1.15 1-1.25 2.5L26.85 39l3.45.45q.1-1.5 1.25-2.5M25.6 42.1l3.45-.35 1.35.25v2.05V42l-1.35-.25-3.45.35m10.2-1.75l-5.5-.9.1 2.55h2.2q1.35 0 2.85.65l3.2-.55-3.2.55Q33.95 42 32.6 42h-2.2l-.1-2.55 5.5.9m2.3-1.25h3-3"/><path fill="url(#l)" d="M32.15 32.95l.45-2.9 1.6-.25 3.3-.9 1.85-.45L42 29q2.2.95 1.6 3.1-.7 1.95-2.3 2.75l-.7.35-2.75.95-3.75.2q-2.2-.35-2.1-2.4v-.1l.15-.5v-.4m-.15 1l.15-.6-.15.6"/><path fill="url(#m)" d="M19.15 2.85q.45-.3 1.05-.55.7-.25 1.4.25.55.2.9.75l.45 1.4.1.1.95 2.75.45.95q.45.45.55 1.15v1.25l-.55 1.35-.9 1.05-1.05.7-1.25.45-1.3.45q-.8-.35-1.25-.8l1.05-1.05 1.5-1.35.55-.6q.95-1 .95-2.4l-.25-1.25-2.3-3.55-1.05-1.05"/><path fill="url(#n)" d="M19.15 2.85L20.2 3.9l2.3 3.55.25 1.25q0 1.4-.95 2.4l-.55.6-1.5 1.35-1.05 1.05h-.1l-.25.35-.35.1h-.9l-.35-.1-.7-.1.35-.25.6-.2.9-.7 2.05-1.85q.5-.45.6-.9l.1-1.05q-.2-1.35-1.15-2.65l-.55-.9q-.45-.9-1.3-1.5L17.1 4l-.9-.8-1.5-.65q.2-.6.9-.7l1.6-.15q.8 0 1.4.6l.55.55"/><path fill="url(#o)" d="M17.9 13.2l-.1-.15-.8-.45-2.55-1.8-.45-.6-.7-1.35-.2-1.3.2-1.35q.25-.7.8-.95l1.05-1q.35-.7 1.05-1.05l.9.8.55.35q.85.6 1.3 1.5l.55.9q.95 1.3 1.15 2.65l-.1 1.05q-.1.45-.6.9L17.9 13.2"/><path fill="url(#p)" d="M13.3 25.35l-4 .35q-.9 0-1.6-.35-1.75-1.05-.45-3l.9-1.15q.8-1.15 1.95-1.15l3.35.15.9 1.15q1.25 1.15 3.1 1.7l2.05.55.6 1.3q.2 1.15-.7 1.95-1.4.9-2.4.35h-.1l-.35-.35-.5-.35q-1.15-1.25-2.75-1.15"/><path fill="url(#q)" d="M32 33.95q-.2 2.05-2.05 2.3l-3.8.35q-1.7 0-3.3-.7-1.75-.8-2.05-2.75l-.5-1.95q-.45-1.95-.35-3.8l.25-.8q1.05-1.6 3.1-.55l3.65 1.8 3.45 1.4q.7.2 1.05.9.8 1.2.7 2.8v.4l-.15.5v.1"/><path fill="none" stroke="#000" stroke-width=".05" stroke-linecap="round" stroke-miterlimit="3" d="M47.15 16.75q1.4.9.6 1.6l-.45.45m.65 11.95l.5 3.45q.1 2.05 2.05 2.85 1.7.7 3.1 1.85l2.75 2.85q.9 1.05 1.25 2.3.7 1.95.9 3.75v1.5q0 1.4.25 2.4l.35 1.5q0 1.4-.9 2.2-.6.45-.7 1.15l-.1-1.15.2-2.3-.9 2.65q-.35.9-1.3 1.25-.45.1-.65.35l1.15-2.85.55-2.2-.1-.7-.1-.1q-1.05-1.05-1.5 1.25l-.25 1.15q-.2-1.35 0-2.85.1-.45.45-.6 1.15-.55 1.85.25.7-1.6 0-3.2-.8-1.85-1.05-3.8l-.2.55q0-1.15-1.15-.9-.25.1-.6.35-2.85 2.05-3.1 5.4l-.3 4q2.15.8 1 3.2l-1.6 2.9q.6-1.5.45-3.1v-1.6q-.45 2.05-1.8 3.65-.7.8-1.75.7 1.6-.45 1.75-1.95v-2.3l-.15-.35q-1.5.55-1.35 2.05-.35-2.15 1.25-3.2l.55-.55q.8-1.4.8-3.45 0-1.4.6-2.65.55-1.6 1.95-2.75l.1-.45q.8-1.05 2.2-1.05l-5.65-4.7q-1.25-.9-2.05-2.85-.45-1.3-1.25-2.1m-8.75 12.2q.25 1.8 0 3.65l-.65 3.45-1.15 3.65-.35 1.4v.9q0 1.05.45 2.05.35.95 1.15 1.5l2.5 2.2q-1.25-.6-2.85-1.05.35.9.1 1.5l-1-1.25q-1.15-1.4-2.4-.35l.45-1.05q.35-1.85.1-3.8.25.25.35-.8l-.25-3.65-.35-3.65q-.3-1.95 0-3.8m-5.15-1.25q-.8 1.6-.9 3.55l-.1 3.65q0 1.95.45 3.8l.35 1.35v.15l-.35 2.05q-.35 1.6.65 2.5l-1.25.15q-1.25.35-1.7 2.05v-1.5h-1.4q1.85-.7 2.2-2.65.35-1.8 0-3.75v-.25q-.25-1.85-1.25-3.3-1.15-1.75-1.3-3.7-.1-1.95.15-3.55m-6.9-17.9q-1.05-.1-1.7 1.15l-.35.45-.6 1.85q-.35 1.15-.45 2.2-.25 2.15-1.7 3.2-1.85 1.25-1.05 3.3-.45-.8-1.25-.65-.7 1.7-.6 3.65l.15 3.55q1.6-1.25 2.6.7.7.9 1.85 1.05-1.5.45-2.65-.25-.9 1.5.7 2.65l.45.45q.8.9 1.5-.45.35.9-.7 1.25-1.15.45-1.25 1.5l-2.2-2.75q-.55 1.7 0 3.3l.5-.55q0 .7-.7 1.5-.35.45-.35 1.15-1.25-1.65-1.25-3.8l-.15-4.35q.15-1.4-.1-2.65-.45-1.95.1-3.9.6-1.7 1.65-3.1v-.1l-1.3-3.7Q7 32 5.15 30.95q-1.35-.8-1.95-2.4l-.55 1.6.1-2.65q-.45.6-.35 1.75l.15 1.05.2 3.55L.8 30.5q-.55-1.35-.35-3.3 1.6-.7 2.3-2.1V25q0-1.85 1.05-1.15 1.05.8 1.25 1.95.1 1.25.6 2.4l.1-.7q.1-1 1.05-.9.1 1.5-.7 2.55-.35.45.1.9 2.85 2.75 3.2 6.55.45 0 .7-.35 1.05-1.6 1.5-3.55.55-1.85.7-3.8.1-2.05 1-3.55m2.9-9.75q0-.6.55-1.15m13.3-10.1v-.2M16.3 27.05l.25-.2M54.4 42.2h.8m-23.05-9.15v.3l-.15.6m-28.8-5.4v-.1l.95-2.05q.2-.6-.25-.7m-1.15-.6v2.4m29.4 5.85l-.15.5v.1"/><path fill="none" stroke="#c00" stroke-width=".05" stroke-linecap="round" stroke-miterlimit="3" d="M53.25 7.9l.35.8.55 1.4v1.5q-.1.65-.55 1.15l-.8 1q-.45.7-1.15 1.05l-1.15.7-1.5.55h-1.95M17.9 13.2l-.1-.15-.8-.45-2.55-1.8-.45-.6-.7-1.35-.2-1.3.2-1.35q.25-.7.8-.95l1.05-1q.35-.7 1.05-1.05m13.85-.35l.8-1.15L32 .7q.6-.35 1.4-.45L34.45 0h1.35l3 .35q.7.1 1.15.55l.8 1.15v.5l-.15.3m-10.55 1.3l-.1-.15q-.25-.35.1-.7v-.45m.15 1.4l-.15-.1"/><path fill="none" stroke="#330" stroke-width=".05" stroke-linecap="round" stroke-miterlimit="3" d="M16.75 14.45l-.7-.1.35-.25.6-.2.9-.7m-1.7-10l-1.5-.65q.2-.6.9-.7l1.6-.15q.8 0 1.4.6l.55.55q.45-.3 1.05-.55.7-.25 1.4.25.55.2.9.75l.45 1.4.1.1.95 2.75.45.95q.45.45.55 1.15v1.25l-.55 1.35-.9 1.05-1.05.7-1.25.45-1.3.45q-.8-.35-1.25-.8h-.1l-.25.35-.35.1h-.9l-.35-.1M40.6 2.85h.15q.8 0 1.35.35 1.05.7.25 1.15l-.7.35h-.1L35.8 7.1l-1.25.45-1.5-.2-1.25-.7-1.15-.9q-.6-.6-.6-1.4m15.85 2.4l.9-1.5q.5-.55 1.3-.8h1.7q.6.35.8.95m-4.7 1.35l-.35.6-.35.35q-.65.35-1.15.9-.45.55-.8 1.25-.35.7-.2 1.4L42.9 14q0 .9.7 1.25l.6.1m-3.6-12.5L39.35 3q-.8 0-1.5.45L35.9 4.7q-.55.55-1.35.55h-1.5l-1.4-.2q-.65-.25-1.35-.7l-.1-.1m-14-1.05l.9.8.55.35q.85.6 1.3 1.5l.55.9q.95 1.3 1.15 2.65l-.1 1.05q-.1.45-.6.9L17.9 13.2m.8.9l1.05-1.05 1.5-1.35.55-.6q.95-1 .95-2.4l-.25-1.25-2.3-3.55-1.05-1.05"/><path fill="none" stroke="#242400" stroke-width=".05" stroke-linecap="round" stroke-miterlimit="3" d="M50.6 5.4l.7-.45.8-.15 1.5.15.45 1.6.45 1.25-.2.1h-3q-.8.15-1.25.7l-1.5 1.25-1.4 1.25-1.5 1.65.15 1.35q0 .8.7 1.4l.55.55.1.6M50.6 5.4l-3.9 3.2-.2.35-.15.2q0 .85-.35 1.5l-.9 1.3-.55 1.1-.25 1.4v.1l-.1.8q0 .6.35.6l1.1.45 1.5.25"/><path fill="none" stroke="#721600" stroke-width=".05" stroke-linecap="round" stroke-miterlimit="3" d="M47.3 18.8q2.15.7 2.25 2.65 0 .9-.55 1.6M14.1 18.8q-.45-.8-.2-1.8.1-.6.7-.95.55-.55 1.6-.45-.15.9 1.15 1.7l3.1 2.1q1.6 1.15 3.4 1.35 1.85.25 3.7 1.15l1.05.25m7.65 1.45l3.7-.2q2.05 0 3.65-.7 1.75-.8 2.65-2.5l.9-1.25.15-.15"/><path fill="none" stroke="#4A0E00" stroke-width=".05" stroke-linecap="round" stroke-miterlimit="3" d="M23.05 4.8l1.05-.65q.45-.35 1.05-.35.8.1 1.35-.35l1.15-.8q.6-.35 1.25-.25l.95.35.2.1m11.6 1.85q.8.1 1.05.8l-.1.9h.2q.9.15 1.25.5l.15.1 1.7-.25"/><path fill="none" stroke="#661400" stroke-width=".05" stroke-linecap="round" stroke-miterlimit="3" d="M42.6 17l1.45.45.5.55q.3.7-.15 1.25-.55.7-1.35.7l-1.5.1q-.8.15-1.4.7l-1 .8-.95.7-1.95 1.25v.1m-7.65-1.45L28 20.9 26.05 17l-.9-1.05q-.6-.6-.15-1.15l.35-.45q.25-.35.7-.45l1.4-.35h1.45q.8-.15 1.4.45l.35.35m-2.05 7.8l.3 1.15q.15.45.6.55l1.5.6 1.15.2 1.45-.1 1.5-.35 1.15-.6"/><path fill="none" stroke="#420000" stroke-width=".05" stroke-linecap="round" stroke-miterlimit="3" d="M30.65 14.35q.7.45 1.5.65l1.25.35L42.6 17"/><path fill="none" stroke="#804000" stroke-width=".05" stroke-linecap="round" stroke-miterlimit="3" d="M49 23.05q.35.45 0 1.15m-35.55-4q-.5-.8.3-1.25l.35-.15M49 23.05q-.45.7-1.5.9-1.85.5-3.45 1.4l-1.7.9q-1.25.8-3.1.5l-3.7-.35-3.3-.6-3.2-.7-3.8-.9q-1.7-.6-3.2-1.5l-3.45-1.8q-1.4-.85-3-1.15-1-.25-1.5-.95"/><path fill="none" stroke="#6C0000" stroke-width=".05" stroke-linecap="round" stroke-miterlimit="3" d="M45.45 32.55q-.35 1.15-1.4 1.95l-.2.25q.1 1.95-1.15 3.35-.7.8-1.6 1 .1 1.95-1.85 2.75l-.45.25h-.15q.35 1.35-.55 1.95l-.7.45-.7.25m-3.9.9h-.9q-1.95-.1-3.55-1.05l-.7-.2-3.1.2q-.7.45-1.35.35-.95-.1-1.75-1-1.35-1.65-.55-3.45l-.7-.45q-1.7-1.3-1.25-3.45-.8-.6-1.4-1.75-.9-1.5-.2-2.85l-.45-.35q-.95-.8-1.3-1.7-.45-1.75.7-2.9m27.2.8l-1.15.35-3 .15-.9-.15q-1.85-.35-3.8 0-1.95.35-4 0l-3.55-.9q-1.6-.45-3-1.6-1.6-1.15-3.45-1.75l-1.15-.35m-2.6 3.6l-.6-.15m15.85 5.9l.45-2.9 1.6-.25 3.3-.9 1.85-.45L42 29q2.2.95 1.6 3.1-.7 1.95-2.3 2.75l-.7.35q1.85.6 3.25-.45m1.7-3.35l-.1 1.15M32 33.95q-.2 2.05-2.05 2.3l-3.8.35q-1.7 0-3.3-.7-1.75-.8-2.05-2.75l-.5-1.95q-.45-1.95-.35-3.8l.25-.8q1.05-1.6 3.1-.55l3.65 1.8 3.45 1.4q.7.2 1.05.9.8 1.2.7 2.8v.1m-.15.9q-.1 2.05 2.1 2.4l3.75-.2 2.75-.95m-21.65 1.4l1.15.45M17.35 32l1.35.9m11.7 11.15V42l-1.35-.25-3.45.35m1.25-3.1l3.45.45q.1-1.5 1.25-2.5M20.9 40.5l1.35.65m16.4.95l-3.2.55Q33.95 42 32.6 42h-2.2l-.1-2.55 5.5.9m-3 5.3q1.5 0 2.9-.6l1-.3m4.4-5.65h-3"/><path fill="none" stroke="#393900" stroke-width=".05" stroke-linecap="round" stroke-miterlimit="3" d="M49 24.2q1.4-1.5 3.55-.6 1.95.85 2.2 2.8.1 1.6-1.85 1.8-1.95.15-3.55 1.15-.7.45-1.05 1.05l-.35.35q-1.15 1.25-2.4.65l-.35-.2q-1.5-.9-1.7-3.35l1.85-1.6q1.15-1.45 3.3-1.6l.35-.45m-35.7 1.15l-4 .35q-.9 0-1.6-.35-1.75-1.05-.45-3l.9-1.15q.8-1.15 1.95-1.15l3.35.15m6.05 3.4l.6 1.3q.2 1.15-.7 1.95-1.4.9-2.4.35h-.1m-.35-.35l-.5-.35q-1.15-1.25-2.75-1.15m6.2-1.75l-2.05-.55q-1.85-.55-3.1-1.7l-.9-1.15m3.1 6.65l.35.35"/></svg>