<svg xmlns="http://www.w3.org/2000/svg" viewBox="0 0 56.4 64.0" width="56.4" height="64"><defs><radialGradient gradientUnits="userSpaceOnUse" r="819.2" cx="0" cy="0" fx="87942.4" fy="0" spreadMethod="repeat" gradientTransform="matrix(.011 0 0 .011 33.8 8)" id="a"><stop offset="0" stop-color="#f00"/><stop offset="1"/></radialGradient><radialGradient gradientUnits="userSpaceOnUse" r="819.2" cx="0" cy="0" spreadMethod="pad" gradientTransform="matrix(.02 0 0 .02 23.45 19.1)" id="b"><stop offset="0" stop-color="#580000"/><stop offset=".537" stop-color="#f00"/><stop offset=".808" stop-color="#7E0000"/><stop offset="1"/></radialGradient><radialGradient gradientUnits="userSpaceOnUse" r="819.2" cx="0" cy="0" spreadMethod="pad" gradientTransform="matrix(.326 0 0 .326 -6.75 -.9)" id="c"><stop offset="0" stop-color="#f00"/><stop offset="1"/></radialGradient><radialGradient gradientUnits="userSpaceOnUse" r="819.2" cx="0" cy="0" spreadMethod="pad" gradientTransform="matrix(.015 0 0 .015 45.2 24.65)" id="d"><stop offset="0" stop-color="#f00"/><stop offset="1"/></radialGradient><radialGradient gradientUnits="userSpaceOnUse" r="819.2" cx="0" cy="0" spreadMethod="pad" gradientTransform="matrix(.034 0 0 .034 25.15 21.6)" id="e"><stop offset="0" stop-color="#580000"/><stop offset=".537" stop-color="#f00"/><stop offset=".808" stop-color="#7E0000"/><stop offset="1"/></radialGradient><radialGradient gradientUnits="userSpaceOnUse" r="819.2" cx="0" cy="0" spreadMethod="pad" gradientTransform="matrix(.012 0 0 .012 31.35 33.65)" id="f"><stop offset="0" stop-color="#f00"/><stop offset="1"/></radialGradient><radialGradient gradientUnits="userSpaceOnUse" r="819.2" cx="0" cy="0" spreadMethod="pad" gradientTransform="matrix(.011 0 0 .011 30.2 37.95)" id="g"><stop offset="0" stop-color="#580000"/><stop offset=".537" stop-color="#f00"/><stop offset=".808" stop-color="#7E0000"/><stop offset="1"/></radialGradient><radialGradient gradientUnits="userSpaceOnUse" r="819.2" cx="0" cy="0" spreadMethod="pad" gradientTransform="matrix(.027 0 0 .028 26.1 46.4)" id="h"><stop offset="0" stop-color="#580000"/><stop offset=".537" stop-color="#f00"/><stop offset=".808" stop-color="#7E0000"/><stop offset="1"/></radialGradient><radialGradient gradientUnits="userSpaceOnUse" r="819.2" cx="0" cy="0" spreadMethod="pad" gradientTransform="matrix(.008 0 0 .008 22.2 5.6)" id="i"><stop offset="0" stop-color="#f00"/><stop offset="1"/></radialGradient><radialGradient gradientUnits="userSpaceOnUse" r="819.2" cx="0" cy="0" spreadMethod="pad" gradientTransform="matrix(.003 0 0 .003 29.2 13.7)" id="j"><stop offset="0" stop-color="#fff"/><stop offset=".318" stop-color="#0f0"/><stop offset="1"/></radialGradient><radialGradient gradientUnits="userSpaceOnUse" r="819.2" cx="0" cy="0" spreadMethod="pad" gradientTransform="matrix(.006 0 0 .006 30.1 25)" id="k"><stop offset="0" stop-color="#f00"/><stop offset="1"/></radialGradient><radialGradient gradientUnits="userSpaceOnUse" r="819.2" cx="0" cy="0" spreadMethod="pad" gradientTransform="matrix(.009 0 0 .009 13.1 26.1)" id="l"><stop offset="0" stop-color="#f00"/><stop offset="1"/></radialGradient><radialGradient gradientUnits="userSpaceOnUse" r="819.2" cx="0" cy="0" spreadMethod="pad" gradientTransform="matrix(.013 0 0 .013 18 44.4)" id="m"><stop offset="0" stop-color="#f00"/><stop offset="1"/></radialGradient><radialGradient gradientUnits="userSpaceOnUse" r="819.2" cx="0" cy="0" spreadMethod="pad" gradientTransform="matrix(.014 0 0 .014 38.7 51.9)" id="n"><stop offset="0" stop-color="#f00"/><stop offset="1"/></radialGradient><radialGradient gradientUnits="userSpaceOnUse" r="819.2" cx="0" cy="0" spreadMethod="pad" gradientTransform="matrix(.013 0 0 .013 11.05 57.9)" id="o"><stop offset="0" stop-color="#580000"/><stop offset=".537" stop-color="#f00"/><stop offset=".808" stop-color="#7E0000"/><stop offset="1"/></radialGradient></defs><path d="M41.45 21l-.4-6.35q-.05-.95.3-1.7.7 2.1 1.8 3.85l.3.85q.3 1.8 1.15 3.4l.35 1.25.15.9.05.05q.85.9 1.15 1.9l.1.4.55-.15.3-.05-.1-.2q-.85-1.85-.85-3.9l-.2-8.65q.1-2.15-.45-4.15L45.3 6.5q1.05 2.4 2.7 4.4 1.1 1.35 1.7 3.05l1.25 3.1q1.05 2.25.95 4.85l-.3 3.25v.2h.45l.1-.2q1-1.9.95-4.15v-6.7l1.8 5q1.15 2.9 1.45 6.05.25 2.2-.8 3.9l-.4.55q-.7.85-1 2.05l-.6 2.1-.95 2.2q-2.65.85-4.2-.25h-.1q-2 .25-3.55-.45l-.7-.35-.6-.55-.25-.35-.25-.4-.3-.1-1.6.15-.3.1q-2.05.8-4.15.45l-2.8-.6-2.05.15q1.3-.65 2.15-1.95l.95-1.25.3.45q1.15 1.2 2.85 1.6l1.3.2H41l.85-.15 1.85-.55q1.2-.5 1.15.5-.25 2.1 1.45 2 1.45-.1 1.85-1.25.4.65 1.55 1.15l.6.2q1.55.3 2.35-.65l.55-.6.45-.7 1.7-6.2.2-3.2-2.6 3.65.05-1.8-.55.55q-1.7 1.35-2.75 2.95 0-1.2.15-2.35l.45-5.5q0-1.3-.45-2.5-.95-2.3-2.55-4.2l.05 1.1q.2 2.85.7 5.75l.65 4.45q.05.45-.35.45-.45 0-.6.25l.1 2.6-2.45-3.15-1-1.65-.05-.15v.05l-.5.15-.55-1.4-.15-1.35v-2.1l-.55 1.7-1 1.85-.15-1.9m5.05 5.35l-.05-.7-.05-.1.05.1.05.7m4.95-.15l.1-.7.05-.1v-.05.05l-.05.1-.1.7M43.7 34l-.7-.15-.05-.05.05.05.7.15M33.1 13.9l.1.05.05.1q.2.55-.1 1.3-.35.75-.25 1.8-1.05-1-1.85.15l-.35.65q-1.25-1.1-2.05-.15-.6.7-1.55-.25l-.25-.25q-.8-.65-1 0l-.1.25-.05-.25q-.35-1.55 0-3.05l1.8 1.4q.8.75 2 .75t2.05-.7l1.35-1.45.2-.35m-7.05 8.6l-.1-.3-.1-1.3v-.15l.5-.95.75 1.25q0-1 .7-1.25h.65q.6.15 1.05-.35.2.45.9.15 1.1-.5 1.7.4l.2.7h.05l.75-1.2 1.1 1 .3.5-.25.9-.05.4q-.6-.55-1.5-.7l-3.5-.35h-.35q-1.25-.05-2.2.7l-.6.55"/><path fill="#fff" d="M25.5 14.1q.95-.4 1.55-1.15l.3-.4.2-.15-.1.2-.2 1.8.2.75h-.05l-1-.6-.65-.3-.1-.05-.15-.1m5.65-1.85l1.95 1.65-1.65 1.4-.6.4.35-1.3-.05-2.15"/><path fill="#cc0" d="M25.75 14.25l.65.3 1 .6.05.05.55.25 1.4.4 1.45-.15.6-.4 1.65-1.4-.2.35-1.35 1.45q-.85.7-2.05.7-1.2 0-2-.75l-1.8-1.4h.05"/><path fill="url(#a)" d="M29.4 8.2l.6.25.2.25.9.05-.45-5.15q-.2-1.05.2-1.95.5-1 1.55-1.4L34.05 0l2.05.35q.95.25 1.45 1.1l.65 2.1-.05 2.2-.5 2.25-.8 1.9q-.55 1-.35 2.15.2 1.1.8 2.1l.25.55q1.1.35.2 1.3-1.1-.3-.75-1.05l-1.1-1.9q-.45-1.05-.5-2.1l.15-1.3.3-.7L37 7q.65-1.05.55-2.2l-.65-2.2q-.5-1.05-1.75-1.15-1.2-.15-2.05.75-.65.7-.75 1.75-.15 1 0 2l.35 2.65.05.05.35.1.3.65v.05l-.05.2v1.15l-2.45-.35-.55-.4-.35-.4q-.5-.6-.6-1.45m1.7 1.35v-.8.8"/><path fill="url(#b)" d="M33.35 10.8l.15.75.05.1.6 1.95-.3.5h.05l.1.5.35 1.05q.2.7.95 1.2l.6.4.1.05q1.3.95 2.2 2.3l.45.8.3 1 .15 1.3-.05.7-.05-.7q-.4-1.15-1.15-1.9l-.35-.3-2.2-1.55.5 1.5.05.4-.1 2-.45 1.5-.35.8v-1.9q.05-1.2-.45-2.25l-.3-.5-1.1-1-.75 1.2h-.05l-.2-.7q-.6-.9-1.7-.4-.7.3-.9-.15-.45.5-1.05.35h-.65q-.7.25-.7 1.25l-.75-1.25-.5.95-.1.15-.6 1.6-.05.1-.2 1.7v.9l-.5-1.2-.15-1.15v-.6q.05-1.3.45-2.5l-.45.05q-1.1.55-1.8 1.75l-.05.1q-.7 1.1-.75 2.1l.05-2.4.65-1.5 1.4-1.7.6-.85.2-.45.05-.1q.3-1.05-.1-2.1v-.1l-.4-.45q0-.75.45-1.2l.3-.85V10.1l1.35.4.3-.2.1-.05.7-.55.05-.05 1-1.25 1.05-.2q.1.85.6 1.45l.35.4.55.4 2.45.35m-5.8 1.6l-.2.15-.3.4q-.6.75-1.55 1.15l-.05.05h-.05l.25.05.05.05q-.35 1.5 0 3.05l.05.25.1-.25q.2-.65 1 0l.25.25q.95.95 1.55.25.8-.95 2.05.15l.35-.65q.8-1.15 1.85-.15-.1-1.05.25-1.8.3-.75.1-1.3l-.05-.1-.1-.05-1.95-1.65-.25-.2q-.75-.55-1.65-.4l-.45.05-1.2.65-.05.05"/><path fill="url(#c)" d="M38.65 20.4q1.45-.25 2.6.5l.2.1.15 1.9.05.65.05.2q-.85.35-1.4 1.2l-.25.3q-.25.35-.2.9l-.7-.65q-.5-.55-1.15-.55-2.15-.1-1.7 2.2l.15.55-1.15-.5q-.9-.55-1.45-1.4l-.4 1.45v.1l-.75-1.3.25-2V22.7l.35.95.35.45.55-1.8.05-.4.25-.9q.5 1.05.45 2.25v1.9l.35-.8.45-1.5.1-2-.05-.4-.5-1.5 2.2 1.55.35.3q.75.75 1.15 1.9l.05.7.05-.7-.15-1.3-.3-1M27.4 24.55q-.55.6-1.05.4l-1.45-.65.2-1.7.05-.1.6-1.6h.1l.1 1.3.1.3.1.4.35.75.85.9h.05m-3-.55l-.45-.35-.45-.45-.2-.7-1.4 1.5-.45.85-.5-1.05-.65-2.4-.05-.5q-.05-1.3 1.2-1.9 0-1.6-1.45-1.9.65-.75 2-.75l2.55.5-.2.45-.6.85-1.4 1.7-.65 1.5-.05 2.4q.05-1 .75-2.1l.05-.1q.7-1.2 1.8-1.75l.45-.05q-.4 1.2-.45 2.5v.6L24.4 24m3.95-15.6l-1 1.25-.05.05v-.05l-.35-.6 1.4-.65"/><path fill="url(#d)" d="M41.6 22.9l1-1.85.55-1.7v2.1l.15 1.35.55 1.4.5-.15V24l.05.15 1 1.65 2.45 3.15-.1-2.6q.15-.25.6-.25.4 0 .35-.45l-.65-4.45q-.5-2.9-.7-5.75l-.05-1.1q1.6 1.9 2.55 4.2.45 1.2.45 2.5l-.45 5.5q-.15 1.15-.15 2.35 1.05-1.6 2.75-2.95l.55-.55-.05 1.8 2.6-3.65-.2 3.2-1.7 6.2-.45.7-.55.6q-.8.95-2.35.65l-.6-.2q-1.15-.5-1.55-1.15-.4 1.15-1.85 1.25-1.7.1-1.45-2 .05-1-1.15-.5l-1.85.55L41 33h-1.7l-1.3-.2q-1.7-.4-2.85-1.6l-.3-.45q.95-.95 2.35-1.35l.95-.3 1.2-.25 2.35-.15.25.05H42q1.2-.3.4-2.15-.55-1.3-.7-2.85l-.05-.2-.05-.65m8.25 9.3q-.25-1.45-1.95-1.55 1.7.1 1.95 1.55-.05-.9.4-1.3.35-.4 1.05-.45-.7.05-1.05.45-.45.4-.4 1.3v.35l-.05.9.05-.9v-.35"/><path fill="url(#e)" d="M43.2 34.2l-.55-.5.3.1.25.4m-25 12.7l-.1 2.35-2-.95q-1.85-.8-2.25-2.65l-.25-1.45h.1q1.25 1.9 3.35 2.4l1.15.3m3.45-14.3q-2-1.45-2-2.35l-.3-1.6-.15-.45-.25-1.2v-.1l.05-.7.15-.5.65-1.3-.35-.45-.9-.85-.15 1q-.35 1.1-1.1 2.05l-.65.55-1 .45q-1.3.25-1.8-.75l-.3-1-.9.85-1.05-.15-.55-.4-.6-.7q-.6-.7-1.7-.5l-2.4.65-.3-.1q-.75-.4-1.45-.35l-.65.1-.55.25-1.15 1q-.85.8-1.4 1.75l.95-2.05q.35-.95 1.1-1.7.65-.65 1.55-.75h.05l-.2-.15-.2-.1q-1.4-.85-1.9-2.2L2 19.8q-.4.25-.6-.15-.2-.35-.05-.55l.15-1.05q-1.2.15-1.5 1.1l.45-1.65q.4-1 1.6-1.15L0 14.1l.45-.2q1.15 0 2.15.8-.2-1.2.55-1.6l-.2-.7q-.05-.3.25-.4l.5-.3.6-.8.15-.3v-.05l.3-1.7q.15-.95.75-1.5l2.7.55q1.25.2 2.3.8-1.35-.25-2.15.5l-.6.2-.9-.3-.7.15-.7 1.2q-.5.95-1.75 1.25 1.25-.3 1.75-1.25l.7-1.2.7-.15.9.3 1.3.65.9.95.35.7-.45-.25L7.9 10.1l-1.05.1-1.1 1.6q-.6 1-1.55 1.6.95-.6 1.55-1.6l1.1-1.6 1.05-.1 1.95 1.35.45.25.35.05.8.3.45.4.3.75q.25 1.05-.1 2.15l-.15.45q.1-.75-.45-1.6l-.05-.05-.2-.25-.5 2.2q.25-1.4-.8-2.35l-.6-.35-.5-.15-1.55-.3.6-.35 1.5-.1.45.25 1 .7.4.45-.4-.45-1-.7-.45-.25-1.5.1-.6.35-1.05.85H6.2v.05L6.55 15l.05.95q.05 1.05-.55 1.85l-.1.2-.3.45-.05.55-.1.1-.05.15q-.4.85.05 1.65l.2.35.75.65 1.25.35q.6-1 1.8-1.25h.45q.8 0 1.55.7h.05q1.05.4 1.55 1.3l.05.2.2.5.3.4q.1-.3.4-.1l.75.45.05-.5q-.15-1.2.45-2.2.6-1 1.75-1.35l.55-.2 1.15-.25v-.05q.05-1.1 1.15-2.65l.1-.15q1.45.3 1.45 1.9-1.25.6-1.2 1.9l.05.5.65 2.4.5 1.05.45-.85 1.4-1.5.2.7.45.45.45.35.5 1.2v-.9l1.45.65q.5.2 1.05-.4.9.6 1.25 1.65l.4.6-.5-3.1v-.55l.1.55.65 1.5.85 1.45.25.7.2 1.45.1-2.15-.05-2.15-.05-1.1 1.4 3.5.1.4.1.95v.4l.05-.3.05-.1.4-2.2.75 1.3v-.1l.4-1.45q.55.85 1.45 1.4l1.15.5-.15-.55q-.45-2.3 1.7-2.2.65 0 1.15.55l.7.65q-.05-.55.2-.9l.25-.3q.55-.85 1.4-1.2.15 1.55.7 2.85.8 1.85-.4 2.15h-.05l-.25-.05-2.35.15q-.45-.4-.95-.5l-.2-.05-.05.8-.95.3q-1.4.4-2.35 1.35L33.9 32q-.85 1.3-2.15 1.95l2.05-.15 2.8.6-1.1.4-4.15.5h-.05q-2.65-.1-3.65-1.85l-.1-.2.05.25-2 .7q-1.35.2-3.6-1.35l-.35-.25M5 18.6l.65-.15-.65.15M38.3 27l-.1 1.3.1-1.3M5.6 14.3l.6-.5-.6.5m22.95 13.05H28h.55m-6.3-2.75q.3.5.95.7 2.15.7 3.65 2h.1-.1q-1.5-1.3-3.65-2-.65-.2-.95-.7m9 9.55l.5-.2-.5.2m-4.2-6.05v1.8q-.05 2 .5 3.35-.55-1.35-.5-3.35v-1.8m.95-.75l-1.05-.05 1.05.05"/><path fill="url(#f)" d="M41.05 33.85l-.7 2.15-.35.5-.75.6-.45 1.1-.4.7q-.85-.2-.9-1v-1.25q-.15-.85-.95-.7l-2.8.55-2.45.15q-1.15-.2-2.1-.9-1.15-.75-1.2.2l-.1 1.95-1.85-1.95-.85-.1-.25.15-1.25-.05-1.7-1q-.55-1.05-.35-2.35l.35.25q2.25 1.55 3.6 1.35l2-.7.05-.05q1 1.75 3.65 1.85h.05l4.15-.5 1.1-.4q2.1.35 4.15-.45l.3-.1m-1.7-5l-1.2.25.05-.8.2.05q.5.1.95.5"/><path fill="url(#g)" d="M38.4 38.9l-.15.25-.1.45-.05.1-.05.05v.05q-.5.85-1.75 1.1l-1.55.05-7.7-1-1.25-.4-.1-.1-.25-.5v-.05q-.8-1.45-2.25-2.55l-.9-.95-.3-.45 1.7 1 1.25.05.25-.15.85.1 1.85 1.95.1-1.95q.05-.95 1.2-.2.95.7 2.1.9l2.45-.15 2.8-.55q.8-.15.95.7v1.25q.05.8.9 1m-.15.25l-.2.6.2-.6"/><path fill="url(#h)" d="M38.1 39.7l.1 1.05-.05.1.4.7 1.8 2.6 3.1 3.15q1.15.95 1.7 2.15l.15 1.5-.45 1.85q-.75-3-2.9-5.2l-.55-.5q.5 4.55.5 9.55v1.7l-.1.95q-.15-3.4-.85-6.75l-.8-2.6q-.65-1.8-2-3.2l-1.7-2.6Q35.4 42.7 34.1 41.7l-.75 3.15-.05.55q-.1.7-.05 1.5l-.55-1.95q-1.2 2.7-1.5 6-.05.75.3 1.45l1.8 4.65-.6-1-1.6-4.1q-.65-2-.4-3.95l-2.65-.4-.85-1q-1.45-1.1-.3-2.8l.35-.45.55-1.05q.1-.9-1.35-1.45l-.3-.05-.85-.4q-1.75-.8-3.45-.95l-.75.3q-1.1.8-1.25 2l.2-1.9v-.9q-.2-1.1-1.4-1.6-2.1-.9-4.2-1.5-2.3-.7-3.65.8-.7.8-.9 1.9v.15l-.05.25-.5 1.5L8 42.85l.2-5.45-.1-.05q-1.5-.9-1.15-2.85.8-.55 2.35-.6l4.5-.35q2.3-.3 4.3.8l3.8 1.8q.55.2.9.6l2.9 2.7.1.1 1.25.4 7.7 1 1.55-.05q1.25-.25 1.75-1.1v-.05l.05-.05m-7.75 5.8q.55.75.35 2.2v.3-.3q.2-1.45-.35-2.2"/><path fill="url(#i)" d="M27.3 9.7l-.7.55-.1.05-.3.2-1.35-.4v-.3h.05v-.15l.35-1.55.1-2.25q-.05-1.15-.95-2-.9-.75-1.95-1.2l-1.5.1q-1.05.5-.8 1.75l.3 2.1q.1.85-.55 1.25l-.85 1.05.15.65-.15.55-.05.05-.25.15-.65.25q-.4.1-.65-.2-.5-.6-.3-.95l.1-.15.4-.25v-.05q.85-.65 1.25-1.7.2-.5 0-1.05-.4-1.05-.35-2.2l.1-.55 1.2-1.85q.7-.9 1.9-.9 1.15 0 1.9.8l1.4 1.75q.6.95.8 2l.45 3.55.15.05.45.2h.05l.35.6v.05"/><path fill="url(#j)" d="M27.55 12.4l.05-.05 1.2-.65.45-.05q.9-.15 1.65.4l.25.2.05 2.15-.35 1.3-1.45.15-1.4-.4-.55-.25v-.05l-.2-.75.2-1.8.1-.2"/><path fill="url(#k)" d="M32.7 26.05l-.4 2.2h-.1l-.1-.95-.1-.4-1.4-3.5.05 1.1.05 2.15-.1 2.15-.2-1.45-.25-.7-.85-1.45-.65-1.5-.1-.55v.55l.5 3.1-.4-.6q-.35-1.05-1.25-1.65h-.05l-.85-.9-.35-.75-.1-.4.6-.55q.95-.75 2.2-.7h.35l3.5.35q.9.15 1.5.7l-.55 1.8-.35-.45-.35-.95v1.35l-.25 2"/><path fill="url(#l)" d="M18.95 27l-.4.15-.15.05-.8.55-1.3.4-1 .05-.35.05q-.3.1-.35.55-.1.4-.65.2l-.85-.4-1.15-1.05-.2-.25q-.65-.95-1.65-1.3l-1.15-.25h-.1l-1.35-.2-1.15-.4 2.4-.65q1.1-.2 1.7.5l.6.7.55.4 1.05.15.9-.85.3 1q.5 1 1.8.75l1-.45.65-.55q.75-.95 1.1-2.05l.15-1 .9.85.35.45-.65 1.3-.15.5-.05.7v.1"/><path fill="url(#m)" d="M28.05 47.6q-1.2-.05-2.3.5l-4.45-.2-3.1-1-1.15-.3q-2.1-.5-3.35-2.4l-.1-.15v.15l.25 1.45q.4 1.85 2.25 2.65l2 .95.05.8.5 1.75-.8.25-2 .85-1.85.35.05-1.2q-.2-1.3-2.1-2.85-1.7-1.35-2.9-3.1Q8.1 44.6 8 42.85l1.35-2.4.5-1.5.05-.25v-.15q.2-1.1.9-1.9 1.35-1.5 3.65-.8 2.1.6 4.2 1.5 1.2.5 1.4 1.6v.9l-.2 1.9q.15-1.2 1.25-2l.75-.3q1.7.15 3.45.95l.85.4.3.05q1.45.55 1.35 1.45l-.55 1.05-.35.45q-1.15 1.7.3 2.8l.85 1m-16-7.45l.85 2.6.7 1.3-.7-1.3-.85-2.6"/><path fill="url(#n)" d="M45.15 49.45l.45 1.5.5 4.4q.25 2.6-1.25 4.1l-.45.9q-.4 2.1-3 1.7-1.05-.15-1.9-.9-1.7-1.55-3.8-2.35-1.6-.6-2.4-1.75l-1.8-4.65q-.35-.7-.3-1.45.3-3.3 1.5-6l.55 1.95q-.05-.8.05-1.5l.05-.55.75-3.15q1.3 1 2.35 2.45l1.7 2.6q1.35 1.4 2 3.2l.8 2.6q.7 3.35.85 6.75l.1-.95v-1.7q0-5-.5-9.55l.55.5q2.15 2.2 2.9 5.2l.45-1.85-.15-1.5"/><path fill="url(#o)" d="M18.65 51.8l1.2 1.7q1 1 1.05 2.95-1.35-1.3-2.7-.9h-.05q-1.1-.1-1.55.9-1 2-3.15 1.95-1.65-.1-2.7.8l-.1.05.05.05-.05.25-.05.1-.8.65-1.65.1q-.7 0-.85.3-.85 1.35-.7 3.3l-1.95-2.6q-.85-1.65-.45-2.8l-.4.1q-1.75 1.1-2 3.35-.65-1.1-.65-2.4 0-1.35.8-2.35l2.4-3.8q.95.9 3 1.05l4.45.1q1.85 0 2.2-1.4l1.85-.35 2-.85.8-.25M4.5 58.65l-.3-.05.5-.95-.5.95.3.05m6.15.9v-.3.3m.1-1.2v.85-.85"/><path fill="none" stroke="#000" stroke-width=".05" stroke-linecap="round" stroke-miterlimit="3" d="M10.75 59.2l-.05.1-.05.25m7.9-32.4l-.15.05-.8.55-1.3.4-1 .05-.35.05q-.3.1-.35.55-.1.4-.65.2l-.85-.4-1.15-1.05-.2-.25q-.65-.95-1.65-1.3l-1.15-.25h-.1l-1.35-.2-1.15-.4M10.5 8.7l.8.5m28.05 19.65l-1.2.25M26.95 9.05l1.4-.65m-2.5 12.5l.1 1.3.1.3.1.4.35.75.85.9h.05m-1.55-3.8v.15"/><path fill="none" stroke="#730000" stroke-width=".05" stroke-linecap="round" stroke-miterlimit="3" d="M21.65 32.6q-2-1.45-2-2.35l-.3-1.6-.15-.45-.25-1.2v-.1l.05-.7.15-.5.65-1.3m-13.45.75l-.3-.1q-.75-.4-1.45-.35l-.65.1-.55.25-1.15 1q-.85.8-1.4 1.75l.95-2.05q.35-.95 1.1-1.7.65-.65 1.55-.75h.05l-.2-.15-.2-.1q-1.4-.85-1.9-2.2L2 19.8q-.4.25-.6-.15-.2-.35-.05-.55l.15-1.05q-1.2.15-1.5 1.1l.45-1.65q.4-1 1.6-1.15L0 14.1l.45-.2q1.15 0 2.15.8-.2-1.2.55-1.6l-.2-.7q-.05-.3.25-.4l.5-.3.6-.8.15-.3v-.05l.3-1.7q.15-.95.75-1.5l2.7.55q1.25.2 2.3.8m24.35 22.05L33.9 32q-.85 1.3-2.15 1.95l2.05-.15 2.8.6m5.1-10.65q.15 1.55.7 2.85.8 1.85-.4 2.15h-.05l-.25-.05-2.35.15q-.45-.4-.95-.5l-.2-.05-.05.8-.95.3q-1.4.4-2.35 1.35m-2.15-4.7l-.4 2.2-.05.1-.05.3v-.4l-.1-.95-.1-.4-1.4-3.5.05 1.1.05 2.15-.1 2.15-.2-1.45-.25-.7-.85-1.45-.65-1.5-.1-.55v.55l.5 3.1-.4-.6q-.35-1.05-1.25-1.65M20 17.1l-.1.15q-1.1 1.55-1.15 2.65v.05l-1.15.25-.55.2q-1.15.35-1.75 1.35-.6 1-.45 2.2l-.05.5-.75-.45q-.3-.2-.4.1l-.3-.4-.2-.5-.05-.2q-.5-.9-1.55-1.3h-.05q-.75-.7-1.55-.7H9.5q-1.2.25-1.8 1.25l-1.25-.35-.75-.65-.2-.35q-.45-.8-.05-1.65l.05-.15.1-.1.05-.55-.65.15m33.2 9.7l.1-1.3m-28-15.3l-.45-.25L7.9 10.1l-1.05.1-1.1 1.6q-.6 1-1.55 1.6m3.55-4l.6-.2q.8-.75 2.15-.5m-2.75.7l-.9-.3-.7.15-.7 1.2q-.5.95-1.75 1.25m6.6 0l-.35-.7-.9-.95-1.3-.65m-.45 3.55l-1.05.85H6.2v.05L6.55 15l.05.95q.05 1.05-.55 1.85l-.1.2-.3.45m.55-4.65l-.6.5m5.65-.4l.2.25.05.05q.55.85.45 1.6l.15-.45q.35-1.1.1-2.15l-.3-.75-.45-.4-.8-.3-.35-.05M28 27.35h.55m-.9 6.1l-.1-.2.05.25m.05-.05q1 1.75 3.65 1.85h.05l4.15-.5 1.1-.4m-9.65-7.1h-.1q-1.5-1.3-3.65-2-.65-.2-.95-.7m-.6 8l.35.25q2.25 1.55 3.6 1.35l2-.7m-.05-.25q-.55-1.35-.5-3.35v-1.8m4.7 5.85l-.5.2M26.95 27.3l1.05.05"/><path fill="none" stroke="#540000" stroke-width=".05" stroke-linecap="round" stroke-miterlimit="3" d="M33.35 10.8l.15.75.05.1.6 1.95-.3.5h.05l.1.5.35 1.05q.2.7.95 1.2l.6.4.1.05q1.3.95 2.2 2.3l.45.8m-4.15.6q.5 1.05.45 2.25v1.9l.35-.8.45-1.5.1-2-.05-.4-.5-1.5 2.2 1.55.35.3q.75.75 1.15 1.9l.05.7.05-.7-.15-1.3-.3-1M24.9 24.3v.9l-.5-1.2m5-15.8l-1.05.2m-3.5 1.7v1.95l-.3.85q-.45.45-.45 1.2l.4.45v.1q.4 1.05.1 2.1l-.05.1-.2.45-.6.85-1.4 1.7-.65 1.5-.05 2.4q.05-1 .75-2.1l.05-.1q.7-1.2 1.8-1.75l.45-.05q-.4 1.2-.45 2.5v.6L24.4 24m1.1-9.9q.95-.4 1.55-1.15l.3-.4.2-.15.05-.05 1.2-.65.45-.05q.9-.15 1.65.4l.25.2 1.95 1.65.1.05.05.1m-7.55.2l-.05-.05-.25-.05h.05l.05-.05.15.1.1.05m1.7-1.65l.1-.2m-1.85 1.85l1.8 1.4q.8.75 2 .75t2.05-.7l1.35-1.45.2-.35m-5.65 1.3l-.05-.05M34.5 21l-.3-.5-1.1-1-.75 1.2h-.05l-.2-.7q-.6-.9-1.7-.4-.7.3-.9-.15-.45.5-1.05.35h-.65q-.7.25-.7 1.25l-.75-1.25-.5.95-.1.15-.6 1.6-.05.1-.2 1.7m2.55-9.15v.05M7.3 12.95l1.55.3.5.15.6.35q1.05.95.8 2.35l.5-2.2-.4-.45-1-.7-.45-.25-1.5.1-.6.35"/><path fill="none" stroke="#005000" stroke-width=".05" stroke-linecap="round" stroke-miterlimit="3" d="M27.45 15.15l-.2-.75.2-1.8m3.7-.35l.05 2.15-.35 1.3"/><path fill="none" stroke="#660" stroke-width=".05" stroke-linecap="round" stroke-miterlimit="3" d="M30.85 15.7l-1.45.15-1.4-.4-.55-.25m-1.7-.95l.65.3 1 .6m5.7-1.25l-1.65 1.4-.6.4"/><path fill="none" stroke="#820000" stroke-width=".05" stroke-linecap="round" stroke-miterlimit="3" d="M29.4 8.2l.6.25.2.25.9.05-.45-5.15q-.2-1.05.2-1.95.5-1 1.55-1.4L34.05 0l2.05.35q.95.25 1.45 1.1l.65 2.1-.05 2.2-.5 2.25-.8 1.9q-.55 1-.35 2.15.2 1.1.8 2.1l.25.55q1.1.35.2 1.3-1.1-.3-.75-1.05l-1.1-1.9q-.45-1.05-.5-2.1l.15-1.3.3-.7L37 7q.65-1.05.55-2.2l-.65-2.2q-.5-1.05-1.75-1.15-1.2-.15-2.05.75-.65.7-.75 1.75-.15 1 0 2l.35 2.65.05.05.35.1.3.65v.05l-.05.2v1.15M31.1 8.75v.8"/><path fill="none" stroke="#410000" stroke-width=".05" stroke-linecap="round" stroke-miterlimit="3" d="M26.95 9.05h-.05l-.45-.2-.15-.05-.45-3.55q-.2-1.05-.8-2l-1.4-1.75q-.75-.8-1.9-.8-1.2 0-1.9.9l-1.2 1.85-.1.55q-.05 1.15.35 2.2.2.55 0 1.05-.4 1.05-1.25 1.7V9l-.4.25-.1.15q-.2.35.3.95.25.3.65.2l.65-.25.25-.15.05-.05.15-.55-.15-.65.85-1.05q.65-.4.55-1.25l-.3-2.1q-.25-1.25.8-1.75l1.5-.1q1.05.45 1.95 1.2.9.85.95 2l-.1 2.25-.35 1.55v.15h-.05v.3m2.45-.4v-.05l-.35-.6"/><path fill="none" stroke="#700" stroke-width=".05" stroke-linecap="round" stroke-miterlimit="3" d="M34.2 22.3l.05-.4.25-.9m-1.8 5.05l.25-2V22.7l.35.95.35.45.55-1.8"/><path fill="none" stroke="#340000" stroke-width=".05" stroke-linecap="round" stroke-miterlimit="3" d="M51.3 30.45q-.7.05-1.05.45-.45.4-.4 1.3v.35l-.05.9m-1.9-2.8q1.7.1 1.95 1.55"/><path fill="none" stroke="#6E0000" stroke-width=".05" stroke-linecap="round" stroke-miterlimit="3" d="M18.65 51.8l1.2 1.7q1 1 1.05 2.95-1.35-1.3-2.7-.9h-.05q-1.1-.1-1.55.9-1 2-3.15 1.95-1.65-.1-2.7.8v-.85m-.1 1.2l-.05.1-.8.65-1.65.1q-.7 0-.85.3-.85 1.35-.7 3.3l-1.95-2.6q-.85-1.65-.45-2.8l-.4.1q-1.75 1.1-2 3.35-.65-1.1-.65-2.4 0-1.35.8-2.35l2.4-3.8q.95.9 3 1.05l4.45.1q1.85 0 2.2-1.4m-9.3 4.4l-.5.95.3.05m6.15.6v.3m0-.3l.1-.05"/><path fill="none" stroke="#490000" stroke-width=".05" stroke-linecap="round" stroke-miterlimit="3" d="M38.65 20.4q1.45-.25 2.6.5l.2.1-.4-6.35q-.05-.95.3-1.7.7 2.1 1.8 3.85l.3.85q.3 1.8 1.15 3.4l.35 1.25.15.9.05.05q.85.9 1.15 1.9l.1.4.55-.15.3-.05-.1-.2q-.85-1.85-.85-3.9l-.2-8.65q.1-2.15-.45-4.15L45.3 6.5q1.05 2.4 2.7 4.4 1.1 1.35 1.7 3.05l1.25 3.1q1.05 2.25.95 4.85l-.3 3.25v.2h.45l.1-.2q1-1.9.95-4.15v-6.7l1.8 5q1.15 2.9 1.45 6.05.25 2.2-.8 3.9l-.4.55q-.7.85-1 2.05l-.6 2.1-.95 2.2q-2.65.85-4.2-.25h-.1q-2 .25-3.55-.45l-.7-.35-.6-.55-.25-.35-.55-.5-1.6.15-.7 2.15-.35.5-.75.6-.45 1.1-.4.7m-.15.25l-.1.45-.05.1.1 1.05-.05.1.4.7 1.8 2.6 3.1 3.15q1.15.95 1.7 2.15l.45 1.5.5 4.4q.25 2.6-1.25 4.1l-.45.9q-.4 2.1-3 1.7-1.05-.15-1.9-.9-1.7-1.55-3.8-2.35-1.6-.6-2.4-1.75l-.6-1-1.6-4.1q-.65-2-.4-3.95l-2.65-.4q-1.2-.05-2.3.5l-4.45-.2-3.1-1-.1 2.35.05.8.5 1.75M14 53.25l.05-1.2q-.2-1.3-2.1-2.85-1.7-1.35-2.9-3.1Q8.1 44.6 8 42.85l.2-5.45-.1-.05q-1.5-.9-1.15-2.85.8-.55 2.35-.6l4.5-.35q2.3-.3 4.3.8l3.8 1.8q.55.2.9.6l2.9 2.7m-3.7-4.5q-.55-1.05-.35-2.35m14.95 1.8q2.1.35 4.15-.45l.3-.1m10.55-8.5v.05l-.05.1-.1.7m-5.05-.65l.05.1.05.7m-4.9-3.45l.05.65.05.2m1.5 10.45l-.25-.4-.3-.1m.3.1l.05.05.7.15m-5.6 5.7l-.05.05M41.45 21l.15 1.9M13.7 44.2l-.1-.15-.7-1.3-.85-2.6m1.65 4.05q1.25 1.9 3.35 2.4l1.15.3M30.7 48v-.3q.2-1.45-.35-2.2"/><path fill="none" stroke="#7F0000" stroke-width=".05" stroke-linecap="round" stroke-miterlimit="3" d="M38.4 38.9l-.15.25m-12.55.3l-.25-.5v-.05q-.8-1.45-2.25-2.55l-.9-.95-.3-.45m16.05 4.8v.05q-.5.85-1.75 1.1l-1.55.05-7.7-1-1.25-.4-.1-.1m12.35.3l.2-.6"/><path fill="none" stroke="#600000" stroke-width=".05" stroke-linecap="round" stroke-miterlimit="3" d="M24.55 16.85l-2.55-.5q-1.35 0-2 .75"/></svg>