<svg xmlns="http://www.w3.org/2000/svg" viewBox="0 0 39.4 71.0" width="39.4" height="71"><defs><radialGradient gradientUnits="userSpaceOnUse" r="819.2" cx="0" cy="0" spreadMethod="pad" gradientTransform="matrix(.003 0 0 .003 21.1 10.25)" id="a"><stop offset="0" stop-color="#fff"/><stop offset=".427" stop-color="#f90"/></radialGradient><radialGradient gradientUnits="userSpaceOnUse" r="819.2" cx="0" cy="0" spreadMethod="pad" gradientTransform="matrix(.011 0 0 .011 21.75 21.05)" id="b"><stop offset="0" stop-color="#903"/><stop offset=".525"/><stop offset=".945" stop-color="#669"/></radialGradient><radialGradient gradientUnits="userSpaceOnUse" r="819.2" cx="0" cy="0" spreadMethod="pad" gradientTransform="matrix(.007 .001 0 .008 35.25 26.95)" id="c"><stop offset="0" stop-color="#903"/><stop offset=".525"/><stop offset=".945" stop-color="#669"/></radialGradient><radialGradient gradientUnits="userSpaceOnUse" r="819.2" cx="0" cy="0" spreadMethod="pad" gradientTransform="matrix(.01 .002 0 .008 26.05 27.05)" id="d"><stop offset="0" stop-color="#903"/><stop offset=".325" stop-color="#3A0014"/><stop offset=".525"/><stop offset=".945" stop-color="#669"/></radialGradient><radialGradient gradientUnits="userSpaceOnUse" r="819.2" cx="0" cy="0" spreadMethod="pad" gradientTransform="matrix(.005 0 0 .005 12.75 3.75)" id="e"><stop offset="0" stop-color="#903"/><stop offset=".525"/><stop offset=".945" stop-color="#669"/></radialGradient><linearGradient gradientUnits="userSpaceOnUse" x1="-819.2" x2="819.2" gradientTransform="matrix(.007 0 0 .006 14.4 4.7)" id="f"><stop offset="0" stop-color="#903"/><stop offset=".525"/><stop offset=".945" stop-color="#669"/></linearGradient><linearGradient gradientUnits="userSpaceOnUse" x1="-819.2" x2="819.2" gradientTransform="matrix(.008 0 0 .005 13.95 7.5)" id="g"><stop offset="0" stop-color="#903"/><stop offset=".525"/><stop offset=".945" stop-color="#669"/></linearGradient><radialGradient gradientUnits="userSpaceOnUse" r="819.2" cx="0" cy="0" spreadMethod="pad" gradientTransform="matrix(.007 0 -.001 .007 14.9 12.75)" id="h"><stop offset="0" stop-color="#903"/><stop offset=".525"/><stop offset=".945" stop-color="#669"/></radialGradient><radialGradient gradientUnits="userSpaceOnUse" r="819.2" cx="0" cy="0" spreadMethod="pad" gradientTransform="matrix(.017 0 0 .017 6.7 28.75)" id="i"><stop offset="0" stop-color="#903"/><stop offset=".525"/><stop offset=".945" stop-color="#669"/></radialGradient><radialGradient gradientUnits="userSpaceOnUse" r="819.2" cx="0" cy="0" spreadMethod="pad" gradientTransform="matrix(.006 0 0 .006 14.55 13.1)" id="j"><stop offset="0" stop-color="#f00"/><stop offset=".624"/></radialGradient><radialGradient gradientUnits="userSpaceOnUse" r="819.2" cx="0" cy="0" spreadMethod="pad" gradientTransform="matrix(.007 0 0 .007 15.05 14.25)" id="k"><stop offset="0" stop-color="#903"/><stop offset=".525"/><stop offset=".945" stop-color="#669"/></radialGradient><radialGradient gradientUnits="userSpaceOnUse" r="819.2" cx="0" cy="0" spreadMethod="pad" gradientTransform="matrix(.009 0 -.001 .009 -6.55 13.3)" id="l"><stop offset="0" stop-color="#903"/><stop offset=".525"/><stop offset=".945" stop-color="#669"/></radialGradient><radialGradient gradientUnits="userSpaceOnUse" r="819.2" cx="0" cy="0" spreadMethod="pad" gradientTransform="matrix(.003 0 0 .003 9.3 11.25)" id="m"><stop offset="0" stop-color="#fff"/><stop offset=".427" stop-color="#f90"/></radialGradient><radialGradient gradientUnits="userSpaceOnUse" r="819.2" cx="0" cy="0" spreadMethod="pad" gradientTransform="matrix(.008 0 0 .008 14.55 30.3)" id="n"><stop offset="0" stop-color="#903"/><stop offset=".525"/><stop offset=".945" stop-color="#669"/></radialGradient><radialGradient gradientUnits="userSpaceOnUse" r="819.2" cx="0" cy="0" spreadMethod="pad" gradientTransform="matrix(.025 0 0 .025 21.85 52.65)" id="o"><stop offset="0" stop-color="#903"/><stop offset=".525"/><stop offset=".945" stop-color="#669"/></radialGradient></defs><path fill="#630" d="M18.75 13.05l.1-.15.4-.15.4.15.2.35-.05.15-.15.2.15.1.15.4-.15.4-.4.15h-.1l-.15-.05h-.05.05l.15.05.15.15.2.5-.1.35-.1.15q-.15.2-.4.2h-.2l-.25-.2-.05-.05-.1-.45.15-.5.45-.2h.05l-.1-.1-.2-.4.2-.4v-.05l.25.1.4-.15-.4.15-.25-.1-.15-.05-.15-.35.05-.2m-8.3 1.85v-.05l.15-.45.5-.15.4.15.15.15-.15-.15h.05l.1.15.05.3-.15.5-.45.15H11l-.4-.15-.15-.45m-.2 1.8l-.05-.05-.1-.15-.1-.35.2-.45.3-.15.2-.05.3.1.15.1.2.45-.1.35-.05.1-.05.05-.45.2-.45-.15m-1.2 1.95v-.15l.1-.45.35-.15.3.15.1.45-.1.4-.3.2-.35-.2-.1-.25m.65-1.05l-.05-.25.15-.4.35-.15h.05l.35.15.15.4-.15.4-.35.15-.4-.15-.1-.15m-.8 1.35l.4.2.15.35-.05.25-.1.15-.15.1h.1l.45.2.15.45-.05.25-.1.25-.45.2-.15-.05-.3-.15-.2-.5.2-.45.2-.15h-.1l-.4-.15-.05-.1-.1-.3.15-.35.4-.2m.95 1.95l.15-.3.45-.15.5.15.15.5v.1l.2-.3.4-.2h.05l.4.2.15.25.25-.5.55-.25h.15l.4.25.1.1.05.1.1.4v.05l-.25.55-.05.05-.5.2-.55-.25-.2-.35-.2.35q-.15.2-.4.2h-.05l-.4-.2-.2-.45-.15.2-.5.2-.45-.2-.2-.5.05-.2m-.7-.9l-.15.05.15-.05m8.3-3.05l-.05-.35.15-.5q.15-.2.35-.2l.35.2.15.3.05.2-.2.5-.35.2h-.1l-.25-.2-.1-.15m-1.15.4q.15-.2.45-.2l.4.15.05.05.2.55-.05.1-.15.4h-.05l-.3.2h-.1l-.5-.2-.05-.05-.15-.45.2-.55h.05m-.35 1.3v.05l.2.5-.2.5-.4.2q-.25 0-.4-.2l-.1-.1-.1-.4.2-.5.4-.2.4.15m-1.1 1.15h.05l.2.5-.2.4q-.2.2-.45.2t-.4-.2H14l-.15-.4.2-.5.3-.15h.25l.25.15m-2.5 1.7l-.05-.25v-.1.1l.05.25m-1.25-.3v.2-.2"/><path fill="#555580" d="M11.1 21.2v-.1l-.15-.5-.5-.15-.45.15-.15.3H9.8l.05-.25-.15-.45-.45-.2h-.1l.15-.1.1-.15.05-.25-.15-.35-.4-.2.15-.3.1.25.35.2.3-.2.1-.4-.1-.45-.3-.15.2-.3.1.15.4.15.35-.15.15-.4-.15-.4-.35-.15h-.05l.1-.1.45.15.45-.2.05-.05.55.85.05.05 1 1.4.4.45-.15-2.85q-.05-.85.6-1.25l.4 1.2.4.85q.25-.8 1.2-.7h.15l.5.75h-.05l-.2.55.15.45-.25.3-.4-.15-.4.2-.2.5.1.4-.2.2-.25-.15h-.25l-.3.15-.2.5.15.4-.2.15-.05-.1-.05-.25-.05.15-.4-.25h-.15l-.55.25-.25.5-.15-.25-.4-.2h-.05l-.4.2-.2.3m8.7-7.8l2.35.15.35.2q1-.6 2.25-.3l2.1.85q1 .65 1.05 2l1.25 1.2q.8.8 1.15 1.9l.7 2.65q.1 1.15-.5 2.2l-.35.4.05.55.05.05q.1 1.25-.3 2.3l-.05.2-.05.05v-.45l-.1-1.1-.55-2.55-.3-.45.25-.7.4-.5.15-.35v-.15l-.05-.35-.4-1q-.4-1.15-1.25-2l-1.35-.95-.7-.2-1.85-.15h-.05q-.3-.05-.25-.4.05-.75-.45-1L21 15.2l-1.45.45.1-.35-.2-.5-.15-.15h.1l.4-.15.15-.4-.15-.4v-.3m3.8 12.3h-.05l-.4 1.75-.9 1.05-.2.1.05.05-.05.1-.15-.1-.1.3.05 1.8q-.1.9-.65 1.5L20 33l-.95.3-4.5.4-2.35-.25-1.05-.4-1-.7-.45-.7-.2-1.1 1 .75 1.25 1.2q.4.35.5-.3l.15-2.05q.2 1.25 1 2.25l.4.35.75.1 2.25-.35.3-.3.15-.95h.05l.3.8q.65.8 1.75.9l.6-.15.2-.4.05-2.05-.3-2q-.1-.45-.85-.35l-3.9-.3-1.05.75-1.6-.05-.75-.45-.6-.15-.55-.05q-.95 0-1.7.55v-.05l-.75-.35-.8-.95-.3-.8-.1-.6-.55.6-.15.1v-.1l.2-1.95q.35-1.4 0-2.7l.1-.45.45-.65.1-.1.15-.25.1-.15.25-.2.05.2.05 1 .25 1.5.95-.7q-.85 1.5-.55 3.2l.55 1.05.2.2q.4.25.9 0l.25-.45-.1-.8q.55.45 1.6.4l.1-.05q.85-.1 1-.7v-.95l-.45-.25.05-1.15.1-.35.55.25.5-.2.15 1.9q.15 1.1.7 1.95-.55-.85-.7-1.95l-.15-1.9.05-.05.25-.55.55 1.7 1.3-.5q-.9.5-1.05 1.4-.25 1.25.55 2l.7.5.1.05 1.9.1.3-.2.05-.1.1-.4q-.2-1.2.5-2.1l.25.4q.4.9.4 1.9v.2l.2.75.95-.1 1-.25.75-1.45.15-.65-.05-.55-.3-.8q-1.4-.7-1.05-2.15l.2-1.05.05-1.2.85-.2h.4l.35-.8 1.15 1.45.5.9.85-.15-.5.7q-.7 1.4-.35 2.9l-.7.3q-.35.25-.45.7l.05 1.05v.05m-1.3 6.65l.2.65v.05l.6 1.05-.75.1-.05.35.15 1.6.3 1.15 2.8 7.05.1 1L23.8 42l-3.65-4.55-.8-.7-.5.7-.55.45-2.15.5-1.5-.15q-1.15-.35-1.35-1.2l-.25.65-.2.35-.25-1.85v-.1l-.2.05-1.25-.05q-.6.15-.65 1v.35l-1.1 4-.15 1-.15-.95v-.35l-.3-3.25-.35.05.25-1.9.05-.05.1-.6v-.15l.45-2.3.35.85 1.15 1.1 4.7 1.4 2 .05.75-.15 1.25-.55 1.25-1.05 1.45-2.05.1-.2m4.45 15.8q.75.35 1.5 2 .95 2.2.85 6.35l-1.95-2.2-.3.2-.05.05.65-1.65q.2-1.05-.25-2l-.7-1.5q-.35-.8.25-1.25M35 63.6q2-.1 3.2.75.75.5 1.15 1.35-1.45-.8-3 .35l-.05.05-.3.2.7.4q1.65 1.35 2.7 3.2-2-1.35-4.2-1.85l.25-.7-.3-.75-.65-.55q-1.25-.95.55-1.05.8-.1.6-.55l-.3-.5-.35-.35m-3.2 5.6q.35.5 1.5 1.05v.1q-2.6-.25-5.75-1.4-1.15-.4-1.3 1.25-1-1.4-.85-3.3l.1-1.75 1.8 2.6.55-.8 1.05-1.1V67l.2.8.85.75 1.85.65m-9.65-13.1l-.8-2.2q-.25-1.7-.65-2.4-.4-.75-.3-2.25.05-1.5-1.65-2.4-1.25-.65-1.65-2.3l-.15-1.15q-.05.7-.5 1.25Q15 46.5 14.1 48.7l.65.45q.75.7.75 2.25l-.45 2.9-.05-.35-1-3.3q-.5-.95-1.3-1.5l-.3-.3 1.4-1.75.85-1.95 2.7-4.65.5-.45.3-.2.25 2.15.55 1.45q.5.95 1.45 1.4 1.15.5 1.6 1.55l-.35 1.05q-.05.7.55 1.15l1.45 1.4-.75 1.4q-.55.65-.6 1.55l-.15 3.15m-8.45 6.15q-.25 2.95 1.85 3.65-.85 1.85-2.25 1.45L11.05 67q-3 .1-3.9 3.95-.4-2.6.7-4.35l-.25-.15-1 .6q-2.2-.85-4.25.75.2-1.1 1.6-2.2 2.4.25 3.5-1.35l.85-1.4.05 1.1.2 1.1 1.2-.55-.55 1.35q-.25.65.3.65l2.4.05.85-.3.35-.9q.25-.85-.2-1.55-.7-1.2.25-1.6l.55.05m-4.65-1.6l.15-.9q.15-1.4-.05-2.7l-.65-2.2q-1.1-2.5-.9-5.1l-.1-.15q-.85-1.5.25-1.95H8V44.1l.25.4 1.65 1.35q.75.4.15 1.35l-.35.85-.15 1.9.5 5.3.3 1.35.15-.9q.1.7.6 1.35l.45.95q.3 1.05-1 1.05-.6 0-.85.7l-.65.9m-4-31.75L5 30.55l-.15 2.2-.05.15-.5 2.15v.1l.45.75 1.1 1.3-.35-.1-1.35-.8q-.85-.95-1.25.2v-.8l.2-2 .4-1.4.95-1.9q.2-.8-.4-1.4l1-.1M.5 33.3L0 31.05v-.1q-.1-1.35.55-2.35l.15-.25.15-.9v-.15l.1-1.15.55-.9-.25-.45q-.5-1.25-.5-2.6l.15-.95.45-1.2L2.6 18.4l.25-.95.05-.05.7-.9.95-.9.4-.15 2.2.3.1-.15.85-.6.8-.05-.7.75-.55.8-.25.6-.95 1.75q-.05-1.3-.75-2.35h-.75l-1.05.3-.85.75-.05.55.1.4q.2.35.05.6l-.85 1.55-.1.25-.2.8q-.05 1.2.3 2.3l.7-.95-.3 1.9.15.7-.25.5-.1.1-1.15 2.1-.05.25q-.35 1.4.3 2.7l.2.35.85.75-1.4.2-.75.7m9.6-18.4h.35l.15.45.4.15v.1l-.3-.1-.2.05-.35-.5-.05-.15m13.1 5.75l-.15.5-.05.25q-.3 1.35.3 2.6l.25.6-.25-.6q-.6-1.25-.3-2.6l.05-.25.15-.5-.1-.45-.4-.9.4.9.1.45.2-.4-.2.4m-.45-6.75l-.25-.15.25.15m4.8 2.1l.35.3-.35-.3m-4.6 8.95q.15.4-.2.85l-.25.3-.8.55.8-.55.25-.3q.35-.45.2-.85m6.8-2.15l.4 1.85-.4-1.85m-22.9-6.65l.3-.4-.3.4M3 18.1l-.4.3.4-.3m10.75 1.85h-.1v.35l.05.2v-.25l.05-.3.3-1.3-.3 1.3m-6.5 4.9l-.1-.5-.05-4.05.05 4.05.1.5q.15.75.65 1.3l.05.05.3.25.05.05.65.4 1.55.25 2.15-.15 1.2-.35.2-.2.35-.5-.35.5-.2.2-1.2.35-2.15.15-1.55-.25-.65-.4-.05-.05-.3-.25-.05-.05q-.5-.55-.65-1.3l-.3.7.3-.7m7.2.9l-.05.2.25.1-.2-.3m4.1-10l.05.05.25.2-.45.4-.15-.3v-.05l.3-.3m-1.1 1.2l.1.15.25.2-.05.05-.4.65.05-.1-.2-.55-.05-.05.3-.35m-.6 1.65l.3-.2-.15.75-.15-.55m-2.2 7.45l.3.4.15.1q.65.6 1.65.65l2.25-.1.75-.1-.75.1-2.25.1q-1-.05-1.65-.65l-.15-.1-.3-.4m-5.8 1.85l.05.35-.05-.35M5.1 39l.45-.05-.55.3.1-.25M8 48v-.35.35m8.95-5.1v.5-.5m6.6-17.2l.05-.05-.05.05m-13.2 30.9l-.05.05v.4l.15.5v-.5l-.1-.45m-2.2 9.55l-.3.45.3-.45"/><path d="M21.85 30.75q.55.3.45 1.4v.2l-.1.2-1.45 2.05-1.25 1.05-1.25.55-.75.15-2-.05-4.7-1.4-1.15-1.1-.35-.85q-.1-.65.4-1.3l.45.7 1 .7 1.05.4 2.35.25 4.5-.4.95-.3 1.2-.75q.55-.6.65-1.5"/><path fill="#fc0" d="M17.45 4.55h.25l-.1 2.05.05.7-.1.25-.35.1-1.65.05h-.2l-.4.1 2.4-3.2.1-.05m-4.2 3.5l-.2.05-.45.15-.3.15h-.05l-.4.05-.35.2h-.55l-.7-1.4L10 6.9l1.25.05q1.35.55 3.05.8l-.7.25-.35.05"/><path fill="#fff" d="M11.85 10.45l.3.15.1.1.3.15q.5.25 1 0l.1-.05.25-.1 2.55-.3.85-.55.1-.05.55-.55.35-.75.05.25.05.75.05.1v.5l-.1.25v.05l-.3 1.1-.05.1-.1.45-.4.7.05-1.25-.05-.65.05-.2-.4.6-.3.3-.15.3-.15-.3h-.05l-.45.45-.1-.4-.2-.25-.1.25h-.05l-.25.45-.5-.4-.05-.05-.35-.3v.35l.15.7-.15.2-.7-.8-.05-.15v.15l.1.45.15.35.1.55-1.35-1.05-.35-.3-.1-.05-.1-.15-.25-.25-.7-.9h-.1l-.05-.25.8.3m4.9.4l-.25.7.25-.7"/><path fill="url(#a)" d="M20.45 7.85l.45.2.85 1.05.35.65.35 1.3-.05.85-.2.45q-.15.3-.45.25-.65-.2-1.15-.7l-.1-.15-.4-.45-.35-.9-.05-.45.1-1V8.7h.05l.25.05q.25.15.3.7l.25.95.3.3q.35.35.35-.3 0-.75-.35-1.35l-.5-1.15v-.05"/><path fill="url(#b)" d="M19.55 15.65L21 15.2l2.35.3q.5.25.45 1-.05.35.25.4h.05l1.85.15.7.2 1.35.95q.85.85 1.25 2l.4 1 .05.35v.15l-.15.35-.4.5-.25.7-.45-.25h-.1l-.15-.1-1.85-.1-1.65.8q-.35-1.5.35-2.9l.5-.7-.85.15-.5-.9-1.15-1.45-.35.8h-.4l-.85.2-.05 1.2-.2 1.05q-.35 1.45 1.05 2.15l.3.8.05.55-.15.65-.75 1.45-1 .25-.95.1-.2-.75v-.2q0-1-.4-1.9l-.25-.4q-.7.9-.5 2.1l-.1.4-.05.1-.3.2-1.9-.1-.1-.05-.7-.5q-.8-.75-.55-2 .15-.9 1.05-1.4l-1.3.5-.55-1.7v-.05l-.1-.4.2-.15h.05q.15.2.4.2t.45-.2l.2-.4-.2-.5h-.05l.2-.2.1.1q.15.2.4.2l.4-.2.2-.5-.2-.5v-.05l.25-.3.05.05.5.2h.1l.15.55.15-.75h.05l.15-.4.4-.65.05-.05h.1l.35-.2.2-.5-.05-.2.45-.4h.2q.25 0 .4-.2l.1-.15"/><path fill="url(#c)" d="M29.85 27.8l-.4 1.9q-.45 1.1-1.65 1.1h-1.65l.35-.2 1.8-.45.25-.25.1-1.3-.2-2.9-.2-.75-.55-.9q-.8-1.15-1.75-.5l-1.15.4h-.7l-.1-.05.7-.3 1.65-.8 1.85.1.15.1h.1l.45.25.3.45.55 2.55.1 1.1v.45"/><path fill="url(#d)" d="M26.15 30.8l-.55-.05q-1-.05-1.3-1.25-.1-.6.15-.9-.4-.45-.4-1.05l.15-.85-.35-.35-.25-.65v-.05l-.05-1.05q.1-.45.45-.7l.1.05h.7l1.15-.4q.95-.65 1.75.5l.55.9.2.75.2 2.9-.1 1.3-.25.25-1.8.45-.35.2m1.2-5.75l-1.55.7-.45.1-.95.55-.2.3.2-.3.95-.55.45-.1 1.55-.7M27 28l-1.7.25q-.7.15-.85.35.15-.2.85-.35L27 28"/><path fill="url(#e)" d="M9.9 6l-.4-1.45v-.8l.15-1.3V2.4q.05-.75.65-1.25l1.2-.8 1.3-.3 1.2.7q.85.35 1.05 1.2l.9 2.75-1.2-1.75v.8l.25 1.1v.7l-.4 1.95-.25-.8-2.45-3.85.05 2.5.15.95-.4.4q-.75 0-.85-.75l-.3.3L9.9 6"/><path fill="url(#f)" d="M9.9 6l.65.25.3-.3q.1.75.85.75l.4-.4-.15-.95-.05-2.5 2.45 3.85.25.8.4-1.95v-.7l-.25-1.1v-.8l1.2 1.75-.9-2.75q-.2-.85-1.05-1.2l-1.2-.7.1-.05 2.85.25q.75.2 1.15.85l1.4 2.3.05.05.4 1.1.05.2.05.45.65-1.65.2-1.8.25 1.6.45 1.1-.05.05-.95 1.6-.3.7-.55-1.05-.1-.25v.2l-.2.9h-.65l.1-2.05.05-.4-.3.4-.1.05-2.4 3.2.4-.1h.2l-.25.3-.1.15-.1.55-.65-.3-1.2-.35.35-.05.7-.25q-1.7-.25-3.05-.8L10 6.9l.25.35.7 1.4h.55l-.2.3-.25.5-.35-.35-1.25-.75q-.6-.3-.85-.9l-.15-.35-.15-.65q0-.55.65-.5l.1.05.95.55L9.9 6"/><path fill="url(#g)" d="M20.35 4.5l.1.05.25.6q.35.75.25 1.55l-.5 1.15v.05l-.25.55-.1.3-.25-.05h-.05v.25l-.35-.1h-.1l.2.7-.35.55-.3.7v-1q0-.85-.45-1.4l-.25-.25-.85.75-1.05.6-1.65.7-.45.25-.3.25-.25.1-.95-.2-.2-.15-.25-.1-.4.1-.8-.3.05.25.25 1.05h.05l-.35.35v-.1l-.05-.05-.25-.95v-.05l-.05-.1-.05-.15-.15-.65q-.35 0-.4.65l-.35-1.3q-.3-.2-.4 0l-.05.1v.05l.05.75-.15-.05-1.05-.6q-.75-.5-.9-1.25l.1-4.8 1.6 2.6v.05q-.65-.05-.65.5l.15.65.15.35q.25.6.85.9l1.25.75.35.35.25-.5.2-.3.75-.25h.05l.3-.15.45-.15.2-.05 1.2.35.65.3.1-.55.1-.15.25-.3 1.65-.05.35-.1.1-.25-.05-.7h.65l.2-.9v-.2l.1.25.55 1.05.3-.7.95-1.6m-1.1 4.1l.1.25-.1-.25"/><path fill="url(#h)" d="M18.9 10.8l-.1.15-.45 1.3v.05l-.2.9-.05.1v.85l-.3 1.15-.15.35q-.2.55-.65.35-.55-.3-.6.25l-.15.25-.45.1h-.15q-.95-.1-1.2.7l-.4-.85-.4-1.2-.05-.1-1.75-2.1V13l-.05-.05-.4-.5-.3-.6-.05-.05.35-.35.05.2.05.05.15.2.05.1 2.65 2.9.35.3.25.3.5.35 2.15-1.05.25-.7.1-.75.05-.15.15-.95v-.05l.05-.2.15-.4.05-1.35.05-.15v-.5l-.05-.1-.05-.75-.05-.25-.35.75-.55.55-.1.05-.85.55-2.55.3.3-.25.45-.25 1.65-.7 1.05-.6.85-.75.25.25q.45.55.45 1.4v1"/><path fill="url(#i)" d="M6.25 26.25l-.7.4-.05.4-.4.95-.05.9-1 .1q.6.6.4 1.4l-.95 1.9-.4 1.4-.2 2v.8q.4-1.15 1.25-.2l1.35.8.35.1.15.25.1.8.15.15q.65.65.4 2.1l-.85 1q-.85 1.4-1.9 1.1-1.25-.3-1.65-1.5l-.8-2.4-.6-.75-.2-.5-.05-.9.15-2.7-.2-.4-.05-.05v-.1l.75-.7 1.4-.2-.85-.75-.2-.35q-.65-1.3-.3-2.7l.05-.25 1.15-2.1.1-.1.25-.5-.15-.7.3-1.9-.7.95q-.35-1.1-.3-2.3l.2-.8.1-.25.85-1.55q.15-.25-.05-.6l-.1-.4.05-.55.85-.75 1.05-.3h.75q.7 1.05.75 2.35l.95-1.75.25-.6.55-.8.7-.75 1.2-.05.05.15.35.5-.3.15-.2.45.1.35.1.15.05.05-.1.1-.35.15-.15.4.05.25-.2.3-.35.15-.1.45v.15l-.15.3-.4.2-.15.35.1.3.05.1.4.15H9l-.2.15-.2.45.2.5.3.15.15.05.45-.2.1-.25h.05l-.05.2.2.5.45.2.5-.2.15-.2.2.45.4.2h.05q.25 0 .4-.2l.2-.35.2.35-.1.35-.05 1.15.45.25v.95q-.15.6-1 .7l-.1.05q-1.05.05-1.6-.4l.1.8-.25.45q-.5.25-.9 0l-.2-.2-.55-1.05q-.3-1.7.55-3.2l-.95.7-.25-1.5-.05-1-.05-.2-.25.2-.1.15-.15.25-.1.1-.45.65-.1.45q.35 1.3 0 2.7l-.2 1.95v.1m-.7 12.7L5.1 39l-.1.25.55-.3.5-.55.05-.15-.05.15-.5.55m-.6 1.85l-.15-.5-.95-.8.95.8.2-1.05q-.8.25-1.2-1.05.4 1.3 1.2 1.05l-.2 1.05.15.5M2 39.2l-.55-.5.55.5"/><path fill="url(#j)" d="M11.1 10.4h.1l.7.9.25.25.1.15.1.05.35.3 1.35 1.05-.1-.55-.15-.35-.1-.45v-.15l.05.15.7.8.15-.2-.15-.7v-.35l.35.3.05.05.5.4.25-.45h.05l.1-.25.2.25.1.4.45-.45h.05l.15.3.15-.3.3-.3.4-.6-.05.2.05.65-.05 1.25.4-.7.1-.45.05-.1.3-1.1v-.05l.1-.25-.05.15-.05 1.35-.15.4-.05.2v.05l-.15.95-.05.15-.1.75-.25.7-2.15 1.05-.5-.35-.25-.3-.35-.3L11.7 12l-.05-.1-.15-.2-.05-.05-.05-.2h-.05l-.25-1.05"/><path fill="url(#k)" d="M18.35 12.3l.4.75-.05.2.15.35.15.05v.05l-.2.4.2.4.1.1h-.05l-.45.2-.15.5.1.45-.3.3v.05l-.35-.2q-.2 0-.35.2l-.15.5.05.35-.3.35-.4-.15q-.3 0-.45.2l-.5-.75.45-.1.15-.25q.05-.55.6-.25.45.2.65-.35l.15-.35.3-1.15v-.85l.05-.1.2-.9m-6.85 2.1l.15-.95.15-.5.05.05v.05l1.75 2.1.05.1q-.65.4-.6 1.25l.15 2.85-.4-.45-1-1.4-.05-.05-.55-.85.05-.1.1-.35-.2-.45-.15-.1v-.1h.1l.45-.15.15-.5-.05-.3-.1-.15h-.05"/><path fill="url(#l)" d="M13.65 10.8l-.1.05q-.5.25-1 0l-.3-.15-.1-.1-.3-.15.4-.1.25.1.2.15.95.2"/><path fill="url(#m)" d="M10.1 10.4v.1l.25 1.2v.05l-.1.9-.2.55q-.15.3-.55.3-.7 0-.85-.7l-.4-1.4q-.15-.55.05-1l.25-.55v.55q.1.65.55 1.05l.25-.75.05-.3-.05-.4-.05-.75V9.2l.05-.1q.1-.2.4 0l.35 1.3"/><path fill="url(#n)" d="M9.5 30.55l-.6-2.2v-.05q.75-.55 1.7-.55l.55.05.6.15.75.45 1.6.05 1.05-.75 3.9.3q.75-.1.85.35l.3 2-.05 2.05-.2.4-.6.15q-1.1-.1-1.75-.9l-.3-.8.05-1.05-.1 1.05-.15.95-.3.3-2.25.35-.75-.1-.4-.35q-.8-1-1-2.25l-.15 2.05q-.1.65-.5.3l-1.25-1.2-1-.75"/><path fill="url(#o)" d="M23.1 34.1l2.9 5 .3 1.2q.15 1.25-.2 2.55-.2.7-.1 1.35l.3.95.25 1.3-.4 1.6.6.1q-.6.45-.25 1.25l.7 1.5q.45.95.25 2l-.65 1.65.05-.05.3-.2 1.95 2.2v.55q-.15 4.2 1.1 3.75.25 3.35 4.1 2.9l.7-.1.35.35.3.5q.2.45-.6.55-1.8.1-.55 1.05l.65.55.3.75-.25.7-2.3-.3q-.55 0-.9.3-.6.6-.2 1.15l-1.85-.65-.85-.75-.2-.8v-1.15l-1.05 1.1-.55.8-1.8-2.6v-.35l-.25-2.45q-.4-2.6-2-4.7l-.5-.6-.6-.95.15-3.15q.05-.9.6-1.55l.75-1.4-1.45-1.4q-.6-.45-.55-1.15L22 46.4q-.45-1.05-1.6-1.55-.95-.45-1.45-1.4L18.4 42l-.25-2.15-.3.2-.5.45-2.7 4.65-.85 1.95-1.4 1.75.3.3q.8.55 1.3 1.5l1 3.3.05.35-1 2.75q-.75 2.3-.25 4.45l-.05.4-.15.1-.45.2q-.95.4-.25 1.6.45.7.2 1.55l-.35.9-.85.3-2.4-.05q-.55 0-.3-.65l.55-1.35-1.2.55-.2-1.1-.05-1.1.65-1.8.1-.4.65-.9q.25-.7.85-.7 1.3 0 1-1.05l-.45-.95q-.5-.65-.6-1.35l-.15.9-.3-1.35-.5-5.3.15-1.9.35-.85q.6-.95-.15-1.35L8.25 44.5 8 44.1v-.95l.45-5.2.35-.05.3 3.25v.35l.15.95.15-1 1.1-4v-.35q.05-.85.65-1l1.25.05.2-.05v.1l.25 1.85.2-.35.25-.65q.2.85 1.35 1.2l1.5.15 2.15-.5.55-.45.5-.7.8.7L23.8 42l1.85 3.35-.1-1-2.8-7.05-.3-1.15-.15-1.6.05-.35.75-.1"/><path fill="none" stroke="#000" stroke-width=".05" stroke-linecap="round" stroke-linejoin="round" d="M19.45 8.85h-.1m10.5 18.95l-.4 1.9q-.45 1.1-1.65 1.1h-1.65m-4.3-.05q.55.3.45 1.4v.2m11 37.9l.25.1h-.25M13.75 61.9l-.05.35m-4.4-29.3q-.1-.65.4-1.3m-.8-3.3v-.05m-1.95-2.75l-.55.6-.15.1M10.1 14.9h.35m.6-3.1v-.1l-.05-.05m-.25-.95v-.05l-.05-.1M9.35 10l-.15-.05M8.95 5.9v.05m11.5 1.95l-.25.55-.1.3m8.8 14.5l-.45-.25h-.1l-.15-.1-1.85-.1-1.65.8m-7-19.05l.05-.4-.3.4m-5.2 3.85l-.75.25m-.15 2.8l-.25-1.05m2.55 10.25l.05-.15m.7 5.45l.05-.2m3.8-9.65v-.05l.3-.3m-1.4 1.55l.3-.35m-1.25 1.4l-.25.3m-.9.95l-.2.2m-3.35-5.4h.05l.1.15m-.65.95v.1m2.75 4.35l-.05.3v.25m.95 5.55l-.2-.3"/><path fill="none" stroke="#32324B" stroke-width=".05" stroke-linecap="round" stroke-linejoin="round" d="M19.8 13.4l2.35.15.35.2q1-.6 2.25-.3l2.1.85q1 .65 1.05 2l1.25 1.2q.8.8 1.15 1.9l.7 2.65q.1 1.15-.5 2.2l-.35.4.05.55.05.05q.1 1.25-.3 2.3l-.05.2-.05.05m-6.3-2.1l-.4 1.75m-.9 1.05l-.2.1.05.05m-.2 0l-.1.3.05 1.8q-.1.9-.65 1.5L20 33l-.95.3-4.5.4-2.35-.25-1.05-.4-1-.7-.45-.7-.2-1.1-.6-2.2m17.85 19.8q.75.35 1.5 2 .95 2.2.85 6.35m-6.95-.4l-.8-2.2q-.25-1.7-.65-2.4-.4-.75-.3-2.25.05-1.5-1.65-2.4-1.25-.65-1.65-2.3l-.15-1.15q-.05.7-.5 1.25Q15 46.5 14.1 48.7l.65.45q.75.7.75 2.25l-.45 2.9m-6 6.35l.15-.9q.15-1.4-.05-2.7l-.65-2.2q-1.1-2.5-.9-5.1m-.1-.15q-.85-1.5.25-1.95m.25 0V44.1m.9-15.8v-.05l-.75-.35-.8-.95-.3-.8-.1-.6.3-.7q.15.75.65 1.3l.05.05.3.25.05.05.65.4 1.55.25 2.15-.15 1.2-.35.2-.2.35-.5M5.05 28.9L5 30.55l-.15 2.2-.05.15-.5 2.15v.1l.45.75 1.1 1.3M.5 33.3L0 31.05v-.1q-.1-1.35.55-2.35l.15-.25.15-.9v-.15l.1-1.15.55-.9-.25-.45q-.5-1.25-.5-2.6l.15-.95.45-1.2L2.6 18.4l.25-.95.05-.05.7-.9.95-.9.4-.15 2.2.3.1-.15.85-.6.8-.05m20 8.3l.3.45.55 2.55.1 1.1v.45M27.9 16.3l-.35-.3m-5.05-2.25l.25.15m-.05 5.4l.4.9.1.45.2-.4m.15 4.35l-.25-.6q-.6-1.25-.3-2.6l.05-.25.15-.5m-1.5 6l.8-.55.25-.3q.35-.45.2-.85M24 23.9q-.35.25-.45.7l.05 1.05-.05.05m1.15-2.1l-.7.3m6.15.75l-.4-1.85m-22.6-7.05l-.3.4M2.6 18.4l.4-.3M19.75 27l.95-.1 1-.25m-1.95.35l-.75.1-2.25.1q-1-.05-1.65-.65l-.15-.1-.3-.4m-5.75 2.2l-.05-.35M8 47.65V48m8.95-4.6v-.5"/><path fill="none" stroke="#33334D" stroke-width=".05" stroke-linecap="round" stroke-linejoin="round" d="M35 63.6q2-.1 3.2.75.75.5 1.15 1.35-1.45-.8-3 .35l-.05.05-.3.2.7.4q1.65 1.35 2.7 3.2-2-1.35-4.2-1.85m-3.4 1.15q.35.5 1.5 1.05m0 .1q-2.6-.25-5.75-1.4-1.15-.4-1.3 1.25-1-1.4-.85-3.3l.1-1.75m-11.8-2.9q-.25 2.95 1.85 3.65-.85 1.85-2.25 1.45L11.05 67q-3 .1-3.9 3.95-.4-2.6.7-4.35l.3-.45m-.55.3l-1 .6q-2.2-.85-4.25.75.2-1.1 1.6-2.2 2.4.25 3.5-1.35l.85-1.4"/><path fill="none" stroke="#252537" stroke-width=".05" stroke-linecap="round" stroke-linejoin="round" d="M6.25 26.25l-.7.4-.05.4-.4.95-.05.9m.8 8.3l.15.25.1.8.15.15q.65.65.4 2.1l-.85 1q-.85 1.4-1.9 1.1-1.25-.3-1.65-1.5l-.8-2.4-.6-.75-.2-.5-.05-.9.15-2.7-.2-.4-.05-.05v-.1m8.4-18.35l1.2-.05m-.6 3l.2-.3m.45-.8l.1-.1m-1.2 1.95l-.15.3m.9 1.95h.05m-2.6-.85l-.15.25M5.55 38.95l.5-.55.05-.15M3.85 39.5l.95.8.2-1.05q-.8.25-1.2-1.05m-2.35.5l.55.5m2.8 1.1l.15.5m.6-1.85l-.55.3.1-.25"/><path fill="none" stroke="#2D000F" stroke-width=".05" stroke-linecap="round" stroke-linejoin="round" d="M11 11.65l-.25-.95m-.05-.15l-.05-.15-.15-.65q-.35 0-.4.65m-.9-.45l-1.05-.6q-.75-.5-.9-1.25l.1-4.8 1.6 2.6m.1.1l.95.55"/><path fill="none" stroke="#22000B" stroke-width=".05" stroke-linecap="round" stroke-linejoin="round" d="M26.15 30.8l-.55-.05q-1-.05-1.3-1.25-.1-.6.15-.9-.4-.45-.4-1.05l.15-.85-.35-.35-.25-.65m0-.05v.05m.6 1l.2-.3.95-.55.45-.1 1.55-.7m-2.9 3.55q.15-.2.85-.35L27 28"/><path fill="none" stroke="#2E2E46" stroke-width=".05" stroke-linecap="round" stroke-linejoin="round" d="M13.75 19.95l.3-1.3M7.1 20.3l.05 4.05.1.5m7.2.9q-.55-.85-.7-1.95l-.15-1.9m.4-1.2l-.2.15"/><path fill="none" stroke="#824E00" stroke-width=".05" stroke-linecap="round" stroke-linejoin="round" d="M20.45 7.85l.45.2.85 1.05.35.65.35 1.3-.05.85-.2.45q-.15.3-.45.25-.65-.2-1.15-.7l-.1-.15-.4-.45-.35-.9-.05-.45.1-1m-9.7 1.45v.1l.25 1.2v.05l-.1.9-.2.55q-.15.3-.55.3-.7 0-.85-.7l-.4-1.4q-.15-.55.05-1l.25-.55v.55q.1.65.55 1.05l.25-.75.05-.3-.05-.4m11.1-2.1l.5 1.15q.35.6.35 1.35 0 .65-.35.3l-.3-.3-.25-.95q-.05-.55-.3-.7l-.25-.05h-.05v.25m.65-1.1v.05m-3-3.35l-.1.05-2.4 3.2.4-.1h.2l1.65-.05.35-.1.1-.25-.05-.7.1-2.05M13.05 8.1l-.45.15-.3.15h-.05m-.75.25h-.55l-.7-1.4L10 6.9l1.25.05q1.35.55 3.05.8l-.7.25-.35.05M10.1 10.4l-.35-1.3q-.3-.2-.4 0l-.05.1v.05l.05.75"/><path fill="none" stroke="#3E1F00" stroke-width=".05" stroke-linecap="round" stroke-linejoin="round" d="M18.75 13.05l.1-.15.4-.15.4.15.2.35-.05.15m-9.35 1.5v-.05l.15-.45.5-.15.4.15m-1.25 2.3l-.05-.05-.1-.15-.1-.35.2-.45.3-.15m-1 2.35l-.35.15-.1.45v.15l.1.25.35.2.3-.2.1-.4-.1-.45-.3-.15m.2-.3l-.05-.25.15-.4.35-.15m.1-.1l.45.15.45-.2.05-.05.05-.1.1-.35-.2-.45-.15-.1-.3-.1-.2.05m-.8 2.05l.1.15.4.15.35-.15.15-.4-.15-.4-.35-.15h-.05M8.9 18.95l.4.2.15.35-.05.25-.1.15-.15.1h.1l.45.2.15.45-.05.25m.05 0l.15-.3.45-.15.5.15.15.5v.1l.2-.3.4-.2h.05l.4.2.15.25.25-.5.55-.25h.15l.4.25M9 20.05l.15-.05m-.25-1.05l-.4.2-.15.35.1.3.05.1.4.15H9l-.2.15-.2.45.2.5.3.15.15.05.45-.2.1-.25m3.8 1l-.5.2-.55-.25-.2-.35-.2.35q-.15.2-.4.2h-.05l-.4-.2-.2-.45-.15.2-.5.2-.45-.2-.2-.5.05-.2M19 13.65v.05l-.2.4.2.4.1.1h.05l.15.05h.1l.4-.15.15-.4-.15-.4-.15-.1-.4.15-.25-.1-.15-.05-.15-.35.05-.2m.9.55l.15-.2m-.7 1.2h-.05l-.45.2-.15.5.1.45.05.05.25.2h.2q.25 0 .4-.2l.1-.15.1-.35-.2-.5-.15-.15m-1.05 1.45l-.35-.2q-.2 0-.35.2l-.15.5.05.35.1.15.25.2h.1l.35-.2.2-.5-.05-.2-.15-.3m-1.95 1.25q.15-.2.45-.2l.4.15m-.95 1.05l.05.05.5.2h.1l.3-.2h.05l.15-.4.05-.1-.2-.55-.05-.05m-.85.05h-.05l-.2.55.15.45m-.25.3v.05l.2.5-.2.5-.4.2q-.25 0-.4-.2l-.1-.1m-.2.2h.05l.2.5-.2.4q-.2.2-.45.2t-.4-.2H14m-.2.15l.1.4v.05m-3.45-6.4l.15.45.4.15h.1l.45-.15.15-.5-.05-.3-.15-.15m4.45 4.25l-.4-.15-.4.2-.2.5.1.4m-.2.2l-.25-.15h-.25l-.3.15-.2.5.15.4m-.25.05l.05.1m-.05-.1l-.1-.1m-2.55.75v-.2m1.2-.05v.1l.05.25m1.25.4l.05-.05.25-.55"/><path fill="none" stroke="#13131C" stroke-width=".05" stroke-linecap="round" stroke-linejoin="round" d="M18.9 10.8l-.1.15m-.45 1.3v.05m-7.25-.45l-.05-.05m7.4-1.7l-.05.15-.05 1.35-.15.4-.05.2v.05l-.15.95-.05.15-.1.75-.25.7-2.15 1.05-.5-.35-.25-.3-.35-.3L11.7 12l-.05-.1-.15-.2-.05-.05-.05-.2m4.4 5.15l.45-.1.15-.25q.05-.55.6-.25.45.2.65-.35l.15-.35.3-1.15v-.85l.05-.1.2-.9m-4.7 2.95l.4 1.2.4.85q.25-.8 1.2-.7h.15m-4-3.65l.05.05v.05l1.75 2.1.05.1"/><path fill="none" stroke="#999" stroke-width=".05" stroke-linecap="round" stroke-linejoin="round" d="M11.85 10.45l.3.15.1.1.3.15q.5.25 1 0l.1-.05m-1.8-.35l-.8-.3.05.25m.1 0l.7.9.25.25.1.15.1.05m.35.3l1.35 1.05-.1-.55-.15-.35-.1-.45v-.15l.05.15.7.8.15-.2-.15-.7v-.35l.35.3.05.05.5.4.25-.45h.05l.1-.25.2.25.1.4.45-.45.25-.7m-2.85-.15l2.55-.3.85-.55.1-.05.55-.55.35-.75.05.25.05.75.05.1v.5l-.1.25v.05l-.3 1.1-.05.1-.1.45-.4.7.05-1.25-.05-.65.05-.2-.4.6-.3.3-.15.3-.15-.3h-.05"/><path fill="none" stroke="#202030" stroke-width=".05" stroke-linecap="round" stroke-linejoin="round" d="M20.45 4.55l-.05-.1m.05.1l.25.6q.35.75.25 1.55l-.5 1.15m-.65 1.1l-.35-.1m-.1 0l.2.7-.35.55-.3.7m-.1.15l-.45 1.3M10 6.55L9.9 6l-.4-1.45v-.8l.15-1.3V2.4q.05-.75.65-1.25l1.2-.8 1.3-.3.1-.05 2.85.25q.75.2 1.15.85l1.4 2.3.05.05.4 1.1.05.2.05.45.65-1.65.2-1.8.25 1.6.45 1.1m-1.05 4.4l-.1-.25"/><path fill="none" stroke="#303048" stroke-width=".05" stroke-linecap="round" stroke-linejoin="round" d="M18.35 12.3l.4.75"/><path fill="none" stroke="#1E1E2D" stroke-width=".05" stroke-linecap="round" stroke-linejoin="round" d="M11.5 14.4l.15-.95.15-.5-.4-.5-.3-.6"/><path fill="none" stroke="#28283C" stroke-width=".05" stroke-linecap="round" stroke-miterlimit="3" d="M22.3 32.35l.2.65v.05l.6 1.05 2.9 5 .3 1.2q.15 1.25-.2 2.55-.2.7-.1 1.35l.3.95.25 1.3-.4 1.6.6.1m2.35 8.35v.55q-.15 4.2 1.1 3.75.25 3.35 4.1 2.9l.7-.1m.2 4.45l-2.3-.3q-.55 0-.9.3-.6.6-.2 1.15m-6.3-4.05v-.35l-.25-2.45q-.4-2.6-2-4.7l-.5-.6-.6-.95m-7.1-1.8l-1 2.75q-.75 2.3-.25 4.45l-.05.4m-5.45.95l.65-1.8.1-.4M8 44.1v-.95l.45-5.2.25-1.9.05-.05.1-.6v-.15l.45-2.3.35.85 1.15 1.1 4.7 1.4 2 .05.75-.15 1.25-.55 1.25-1.05 1.45-2.05.1-.2M8 44.1l.25.4 1.65 1.35q.75.4.15 1.35l-.35.85-.15 1.9.5 5.3.3 1.35.15-.9q.1.7.6 1.35l.45.95q.3 1.05-1 1.05-.6 0-.85.7l-.65.9m6-6.35l-.05-.35-1-3.3q-.5-.95-1.3-1.5l-.3-.3 1.4-1.75.85-1.95 2.7-4.65.5-.45.3-.2.25 2.15.55 1.45q.5.95 1.45 1.4 1.15.5 1.6 1.55l-.35 1.05q-.05.7.55 1.15l1.45 1.4-.75 1.4q-.55.65-.6 1.55l-.15 3.15m6.95.4l-1.95-2.2-.3.2-.05.05.65-1.65q.2-1.05-.25-2l-.7-1.5q-.35-.8.25-1.25m-1.25 17l1.8 2.6.55-.8 1.05-1.1V67l.2.8.85.75 1.85.65m3.4-1.15l.25-.7-.3-.75-.65-.55q-1.25-.95.55-1.05.8-.1.6-.55l-.3-.5-.35-.35m-26.7-.75l.05 1.1.2 1.1 1.2-.55-.55 1.35q-.25.65.3.65l2.4.05.85-.3.35-.9q.25-.85-.2-1.55-.7-1.2.25-1.6l.45-.2.15-.1"/><path fill="none" stroke="#1B1B29" stroke-width=".05" stroke-linecap="round" stroke-linejoin="round" d="M23.15 27.45l-.9 1.05"/></svg>