<svg xmlns="http://www.w3.org/2000/svg" viewBox="0 0 38.4 37.9" width="38.4" height="37.9"><defs><radialGradient gradientUnits="userSpaceOnUse" r="819.2" cx="0" cy="0" spreadMethod="pad" gradientTransform="matrix(.004 0 0 .004 22.5 1.65)" id="a"><stop offset="0" stop-color="#ffc"/><stop offset=".235" stop-color="#360"/><stop offset=".588" stop-color="#f00"/><stop offset=".878"/></radialGradient><radialGradient gradientUnits="userSpaceOnUse" r="819.2" cx="0" cy="0" spreadMethod="pad" gradientTransform="matrix(.022 0 0 .022 19.6 13.05)" id="b"><stop offset="0" stop-color="#f00"/><stop offset="1"/></radialGradient><radialGradient gradientUnits="userSpaceOnUse" r="819.2" cx="0" cy="0" spreadMethod="pad" gradientTransform="matrix(.007 0 0 .007 35 23.1)" id="c"><stop offset="0" stop-color="#f00"/><stop offset="1"/></radialGradient><radialGradient gradientUnits="userSpaceOnUse" r="819.2" cx="0" cy="0" spreadMethod="pad" gradientTransform="matrix(.022 0 0 .022 19.35 30.1)" id="d"><stop offset="0" stop-color="#f00"/><stop offset="1"/></radialGradient><radialGradient gradientUnits="userSpaceOnUse" r="819.2" cx="0" cy="0" spreadMethod="pad" gradientTransform="matrix(.005 0 0 .005 35.05 35)" id="e"><stop offset="0" stop-color="#ffc"/><stop offset=".235" stop-color="#360"/><stop offset=".588" stop-color="#f00"/><stop offset=".878"/></radialGradient><linearGradient gradientUnits="userSpaceOnUse" x1="-819.2" x2="819.2" gradientTransform="matrix(0 -.005 .006 0 20.7 25.95)" id="f"><stop offset="0" stop-color="#f00"/><stop offset="1"/></linearGradient><radialGradient gradientUnits="userSpaceOnUse" r="819.2" cx="0" cy="0" spreadMethod="pad" gradientTransform="matrix(.003 0 0 .003 4.15 5.05)" id="g"><stop offset="0" stop-color="#ffc"/><stop offset=".235" stop-color="#360"/><stop offset=".588" stop-color="#f00"/><stop offset=".878"/></radialGradient><radialGradient gradientUnits="userSpaceOnUse" r="819.2" cx="0" cy="0" spreadMethod="pad" gradientTransform="matrix(.008 0 0 .008 3.8 19.85)" id="h"><stop offset="0" stop-color="#f00"/><stop offset="1"/></radialGradient><radialGradient gradientUnits="userSpaceOnUse" r="819.2" cx="0" cy="0" spreadMethod="pad" gradientTransform="matrix(.005 0 0 .005 3.3 33.7)" id="i"><stop offset="0" stop-color="#ffc"/><stop offset=".235" stop-color="#360"/><stop offset=".588" stop-color="#f00"/><stop offset=".878"/></radialGradient><radialGradient gradientUnits="userSpaceOnUse" r="819.2" cx="0" cy="0" spreadMethod="pad" gradientTransform="matrix(.004 0 0 .004 34.9 8.9)" id="j"><stop offset="0" stop-color="#ffc"/><stop offset=".235" stop-color="#360"/><stop offset=".588" stop-color="#f00"/><stop offset=".878"/></radialGradient></defs><path fill="#fff" d="M30.5 28.25l-.05-.1-1.35-1.85q-.9-1.05-1.45-2.45l-.45-1.8q-.1-.6.2-1.35l.95-.55 1.85.1 1.25.45h.05l1.2 2.5.1.35q.5 1.3.55 2.75v.1l.1 3.35q.1 1.45-.3 2.8L31.6 29.9l-1.1-1.65m-16.65-7.4L13.9 22q-.1 1.2-.7 2.2l-1.15 2.3-1.15 2.6-.65 1.8-.8 1.9Q8.4 31.5 7.7 30.05q-.65-1.5-.45-3.15t.55-3.25v-.1q.35-1.55 1.05-2.8 1.1-.65 2.4-.6 1.3 0 2.6.7m.6 8.75l.35-2.2q.5-1.7 1.75-2.85l1.1-1.05q-.1 1.4.1 3.15l.1 2.2-.25 1.4q-1.7.9-2.25.4l-.9-1.05m4.55.75l-.1-1.5q-.1-1.65.7-3.1l1-1.8 2.45 6.15.05.1q-.45.75-1.5 1.1-1 .35-2.6-.95m5.65-.3l-.3-.95q-.5-1.5-.7-3l-.15-1.6q2.05 2.55 5.1 4.45l.25.2-.9 1.2q-.75.8-1.9.2-1.1-.55-1.4-.5"/><path fill="url(#a)" d="M24.95 3.35L23.4 3.3l-2.55-.4-.8-.3.05-.45Q20.25.3 22 .05q1.95-.3 2.45 1.1l.5 2.2"/><path fill="url(#b)" d="M24.95 3.35V7.1H25l.5.1q1.4.35 2.65 1.05l3.75 2.1 1.1-1.6.7 1q1.15 1.1 2.6 1.55l.25.05-1.05 3.95q-.3 1.15-.45 2.3l-.1.9q-.05 1-.65 1.5.05 1.4-.55 2.45l-.95 1.1-.1-.35-1.2-2.5h-.05l-1.25-.45-1.85-.1-.95.55-13.55.15q-1.3-.7-2.6-.7-1.3-.05-2.4.6-.7 1.25-1.05 2.8l-.85-.35-.45-.4q-1.1-1-.7-2.8.25-1.15.75-1.95-.3-.45-.45-1.1L5.05 14l-.3-.75-.65-2.1L3.15 8 2.7 6.65l1-.35q1.35-.65 2.25-1.8l3.6 3.05q.65-.5 1.65-.8l2.75-.85 3.15-.5 2.25.2.15-.4.55-2.6.8.3 2.55.4 1.55.05m3.15 12.5l1.7-2.55 2.1-2.95-2.1 2.95-1.7 2.55m-4.4-1.8q.75-.05.95-.45.55-1.45.45-3.2L25 7.1l.1 3.3q.1 1.75-.45 3.2-.2.4-.95.45m-6.35-2.7l1.05-3.1.95-2.65-.95 2.65-1.05 3.1m14.9 8.3q.65.55 1.25.6l.65-.15-.65.15q-.6-.05-1.25-.6m-.15 1.05h-.6.6m2.05-.6l.15-.1-.15.1M12.6 10.35l-3.05-2.8 3.05 2.8M9.7 19.1l-1.75.1q-.9-.25-1.4-1.15.5.9 1.4 1.15l1.75-.1m-1.35 1.15l.5.5-.5-.5"/><path fill="url(#c)" d="M33.35 26.3q-.05-1.45-.55-2.75l.95-1.1q.6-1.05.55-2.45.6-.5.65-1.5l.1-.9.8 1.2q.9 1.3 1.2 2.85.4 1.7-.35 3.25l-1.75 3.75-1.55-2.3-.05-.05"/><path fill="url(#d)" d="M30.5 28.25l1.1 1.65 1.55 2.65q.4-1.35.3-2.8l-.1-3.35.05-.05 1.55 2.3.85 1.35 1.2 2.15-.25.1q-1.35.4-2.55 1.25-1.1.75-1.8 1.95L31.75 37l-.15-.1q-1.5-.7-3.1-.95-1.65-.25-2.65-1.5l-.4-.65L20 34.95l-2.7-.1-3.15-.5-.7.85q-1.15.9-2.7 1l-4.35.35.2-1.4q-.1-1.55-1.2-2.75-1.1-1.1-2.6-1.5l-1.1-.25 2.75-4.25 2.5-3.2.85.35v.1q-.35 1.6-.55 3.25-.2 1.65.45 3.15.7 1.45 1.75 2.75l.8-1.9.65-1.8q.75.6 1.95.5h1.6l.9 1.05q.55.5 2.25-.4l1.4.1q1.6 1.3 2.6.95 1.05-.35 1.5-1.1l1.55-.15q.3-.05 1.4.5 1.15.6 1.9-.2l.9-1.2q1-.3 1.65-.9m-5.2 4.9l.15.65-.15-.65"/><path fill="url(#e)" d="M37 32.15l.3.65q.7 1.55 1 3.1.15.75-.55 1.2-1.35.9-3 .7l-3-.8.65-1.55q.7-1.2 1.8-1.95 1.2-.85 2.55-1.25l.25-.1"/><path fill="url(#f)" d="M27.4 20.7q-.3.75-.2 1.35l.45 1.8q.55 1.4 1.45 2.45l1.35 1.85.05.1q-.65.6-1.65.9l-.25-.2q-3.05-1.9-5.1-4.45l.15 1.6q.2 1.5.7 3l.3.95-1.55.15-.05-.1-2.45-6.15-1 1.8q-.8 1.45-.7 3.1l.1 1.5-1.4-.1.25-1.4-.1-2.2q-.2-1.75-.1-3.15l-1.1 1.05Q15.3 25.7 14.8 27.4l-.35 2.2h-1.6q-1.2.1-1.95-.5l1.15-2.6 1.15-2.3q.6-1 .7-2.2l-.05-1.15 13.55-.15"/><path fill="url(#g)" d="M2.7 6.65l-.35-1.7q-.1-.55.2-.85 1.2-1.25 2.7-.15l.7.55q-.9 1.15-2.25 1.8l-1 .35"/><path fill="url(#h)" d="M4.75 13.25l.3.75 1.05 2.95q.15.65.45 1.1-.5.8-.75 1.95-.4 1.8.7 2.8l.45.4-2.5 3.2q-.5-1.2-1.45-2.3l-1.95-2.7q-.85-1.6 0-2.95l1.9-2.65 1.8-2.55"/><path fill="url(#i)" d="M1.7 30.65l1.1.25q1.5.4 2.6 1.5 1.1 1.2 1.2 2.75l-.2 1.4-2.05.15-3.1-.4Q.3 36 .1 35q-.4-1.6.6-2.95l1-1.4"/><path fill="url(#j)" d="M36.55 11.35l-.25-.05q-1.45-.45-2.6-1.55l-.7-1 .2-.3q1-1.5 2.35-2.05 1.4 1.2 1.3 2.85l-.3 2.1"/><path fill="none" stroke="#000" stroke-width=".05" stroke-linecap="round" stroke-linejoin="round" d="M33.4 26.35l-.05-.05"/><path fill="none" stroke="#3F0000" stroke-width=".05" stroke-linecap="round" stroke-linejoin="round" d="M19.5 5.2l-.15.4m8.05 15.1l-13.55.15M34.3 20q.05 1.4-.55 2.45l-.95 1.1M34.3 20l-.15.1m-2.65.6h.6M2.7 6.65L3.15 8l.95 3.15.65 2.1.3.75 1.05 2.95q.15.65.45 1.1.5.9 1.4 1.15l1.75-.1m-2.75 4.1l-.45-.4q-1.1-1-.7-2.8.25-1.15.75-1.95m2.3 2.7l-.5-.5"/><path fill="none" stroke="#460000" stroke-width=".05" stroke-linecap="round" stroke-linejoin="round" d="M7.8 23.55l-.85-.35M31.75 37l-.15-.1"/><path fill="none" stroke="#2E0000" stroke-width=".05" stroke-linecap="round" stroke-linejoin="round" d="M20.1 2.15l-.05.45"/><path fill="none" stroke="#ccc" stroke-width=".05" stroke-linecap="round" stroke-linejoin="round" d="M27.4 20.7q-.3.75-.2 1.35l.45 1.8q.55 1.4 1.45 2.45l1.35 1.85.05.1 1.1 1.65 1.55 2.65q.4-1.35.3-2.8l-.1-3.35v-.1q-.05-1.45-.55-2.75l-.1-.35-1.2-2.5h-.05l-1.25-.45-1.85-.1-.95.55m-13.55.15L13.9 22q-.1 1.2-.7 2.2l-1.15 2.3-1.15 2.6-.65 1.8-.8 1.9Q8.4 31.5 7.7 30.05q-.65-1.5-.45-3.15t.55-3.25v-.1q.35-1.55 1.05-2.8m5.6 8.85l.35-2.2q.5-1.7 1.75-2.85l1.1-1.05q-.1 1.4.1 3.15l.1 2.2-.25 1.4m1.4.1l-.1-1.5q-.1-1.65.7-3.1l1-1.8 2.45 6.15.05.1m1.55-.15l-.3-.95q-.5-1.5-.7-3l-.15-1.6q2.05 2.55 5.1 4.45l.25.2m-15-8.3q-1.3-.7-2.6-.7-1.3-.05-2.4.6m5.6 8.85l.9 1.05q.55.5 2.25-.4m7.05-.2q.3-.05 1.4.5 1.15.6 1.9-.2l.9-1.2M19 30.35q1.6 1.3 2.6.95 1.05-.35 1.5-1.1"/><path fill="none" stroke="#BC0000" stroke-width=".05" stroke-linecap="round" stroke-linejoin="round" d="M23.1 30.2l1.55-.15M10.9 29.1q.75.6 1.95.5h1.6m3.15.65l1.4.1m9.85-1.2q1-.3 1.65-.9"/><path fill="none" stroke="#900000" stroke-width=".05" stroke-linecap="round" stroke-linejoin="round" d="M4.75 13.25l-1.8 2.55-1.9 2.65q-.85 1.35 0 2.95L3 24.1q.95 1.1 1.45 2.3L1.7 30.65m4.7 5.9l4.35-.35q1.55-.1 2.7-1l.7-.85 3.15.5 2.7.1 5.45-1.15"/><path fill="none" stroke="#3C0000" stroke-width=".05" stroke-linecap="round" stroke-linejoin="round" d="M4.45 26.4l2.5-3.2"/><path fill="none" stroke="#7F0000" stroke-width=".05" stroke-linecap="round" stroke-linejoin="round" d="M34.95 28.65l1.75-3.75q.75-1.55.35-3.25-.3-1.55-1.2-2.85l-.8-1.2m-9.6 16.2l-.15-.65m9.65-4.5L35.8 30l1.2 2.15m-5.4 4.75q-1.5-.7-3.1-.95-1.65-.25-2.65-1.5l-.4-.65"/><path fill="none" stroke="#210000" stroke-width=".05" stroke-linecap="round" stroke-linejoin="round" d="M33.4 26.35l1.55 2.3"/><path fill="none" stroke="#A50000" stroke-width=".05" stroke-linecap="round" stroke-linejoin="round" d="M36.55 11.35l.3-2.1q.1-1.65-1.3-2.85-1.35.55-2.35 2.05l-.2.3m-8.05-5.4l-.5-2.2q-.5-1.4-2.45-1.1-1.75.25-1.9 2.1M5.95 4.5l-.7-.55q-1.5-1.1-2.7.15-.3.3-.2.85l.35 1.7m3.7 29.9l-2.05.15-3.1-.4Q.3 36 .1 35q-.4-1.6.6-2.95l1-1.4m35.3 1.5l.3.65q.7 1.55 1 3.1.15.75-.55 1.2-1.35.9-3 .7l-3-.8"/><path fill="none" stroke="#320000" stroke-width=".05" stroke-linecap="round" stroke-linejoin="round" d="M35.05 17.6l-.1.9q-.05 1-.65 1.5m-.15.1l-.65.15q-.6-.05-1.25-.6m2.8-2.05q.15-1.15.45-2.3l1.05-3.95"/><path fill="none" stroke="#730000" stroke-width=".05" stroke-linecap="round" stroke-linejoin="round" d="M33 8.75l-1.1 1.6-2.1 2.95-1.7 2.55m3.8-5.5l-3.75-2.1q-1.25-.7-2.65-1.05l-.5-.1h-.05m-5.6-1.5l-2.25-.2-3.15.5-2.75.85q-1 .3-1.65.8l3.05 2.8M5.95 4.5l3.6 3.05"/><path fill="none" stroke="#A10000" stroke-width=".05" stroke-linecap="round" stroke-linejoin="round" d="M25 7.1l.1 3.3q.1 1.75-.45 3.2-.2.4-.95.45m1.25-6.95V3.35m-4.9-.75l-.55 2.6m-.15.4l-.95 2.65-1.05 3.1"/></svg>