<svg xmlns="http://www.w3.org/2000/svg" viewBox="0 0 89.0 84.8" width="89" height="84.8"><defs><radialGradient gradientUnits="userSpaceOnUse" r="819.2" cx="0" cy="0" spreadMethod="pad" gradientTransform="matrix(.093 0 0 .029 7.25 32.25)" id="a"><stop offset="0" stop-color="#140700"/><stop offset=".431" stop-color="#930"/><stop offset=".984"/></radialGradient><radialGradient gradientUnits="userSpaceOnUse" r="819.2" cx="0" cy="0" fx="96985.6" fy="0" spreadMethod="pad" gradientTransform="matrix(.06 0 0 .031 52.2 44.2)" id="b"><stop offset="0" stop-color="#140700"/><stop offset=".431" stop-color="#930"/><stop offset=".984"/></radialGradient><radialGradient gradientUnits="userSpaceOnUse" r="819.2" cx="0" cy="0" fx="2240" fy="0" spreadMethod="pad" gradientTransform="matrix(.055 -.014 .006 .024 66.75 14.35)" id="c"><stop offset="0" stop-color="#140700"/><stop offset=".431" stop-color="#930"/><stop offset=".984"/></radialGradient><radialGradient gradientUnits="userSpaceOnUse" r="819.2" cx="0" cy="0" spreadMethod="pad" gradientTransform="matrix(.048 0 0 .048 44.35 11.45)" id="d"><stop offset="0" stop-color="#140700"/><stop offset=".431" stop-color="#930"/><stop offset=".984"/></radialGradient><linearGradient gradientUnits="userSpaceOnUse" x1="-819.2" x2="819.2" gradientTransform="matrix(.036 0 0 .012 43.65 10.55)" id="e"><stop offset=".239" stop-color="#ff3"/><stop offset=".525" stop-color="#fff"/><stop offset=".737" stop-color="#fc0"/></linearGradient><radialGradient gradientUnits="userSpaceOnUse" r="819.2" cx="0" cy="0" fx="100374.4" fy="0" spreadMethod="pad" gradientTransform="matrix(.043 -.018 .005 .013 59.6 58.85)" id="f"><stop offset="0" stop-color="#140700"/><stop offset=".431" stop-color="#930"/><stop offset=".984"/></radialGradient><radialGradient gradientUnits="userSpaceOnUse" r="819.2" cx="0" cy="0" fx="355.2" fy="0" spreadMethod="unknown" gradientTransform="matrix(.043 0 0 .043 59.85 62.45)" id="g"><stop offset="0" stop-color="#140700"/><stop offset=".431" stop-color="#930"/><stop offset=".984"/></radialGradient><radialGradient gradientUnits="userSpaceOnUse" r="819.2" cx="0" cy="0" spreadMethod="pad" gradientTransform="matrix(.029 0 0 .029 16.95 65)" id="h"><stop offset="0" stop-color="#140700"/><stop offset=".431" stop-color="#930"/><stop offset=".984"/></radialGradient><radialGradient gradientUnits="userSpaceOnUse" r="819.2" cx="0" cy="0" spreadMethod="pad" gradientTransform="matrix(.039 .02 -.011 .021 15.3 53.2)" id="i"><stop offset="0" stop-color="#140700"/><stop offset=".431" stop-color="#930"/><stop offset=".984"/></radialGradient><linearGradient gradientUnits="userSpaceOnUse" x1="-819.2" x2="819.2" gradientTransform="matrix(.006 -.008 .011 .009 71.25 35.05)" id="j"><stop offset="0"/><stop offset=".835" stop-color="#f90"/></linearGradient><linearGradient gradientUnits="userSpaceOnUse" x1="-819.2" x2="819.2" gradientTransform="matrix(-.003 -.015 .021 -.004 34.3 30.25)" id="k"><stop offset="0"/><stop offset=".835" stop-color="#f90"/></linearGradient><linearGradient gradientUnits="userSpaceOnUse" x1="-819.2" x2="819.2" gradientTransform="matrix(.029 .013 -.009 .021 58.1 62.8)" id="l"><stop offset=".239" stop-color="#ff3"/><stop offset=".525" stop-color="#fff"/><stop offset=".737" stop-color="#fc0"/></linearGradient><linearGradient gradientUnits="userSpaceOnUse" x1="-819.2" x2="819.2" gradientTransform="matrix(.018 0 0 .019 17.05 63.9)" id="m"><stop offset=".239" stop-color="#ff3"/><stop offset=".525" stop-color="#fff"/><stop offset=".737" stop-color="#fc0"/></linearGradient></defs><path fill="url(#a)" d="M6.7 18.95l14.15 4 2.55 10.6L8.2 35l-6.6.65L0 27.8l6.2-8.65.5-.2"/><path fill="url(#b)" d="M59.2 21.8l-.15-.1L10 39.4l19.8 17.7 29.3-11.95L81.6 36 59.2 21.8m4.2-3.15l25.65 17.5-.4.15L27.6 61.6l-.1.25-25-23.5-.05-.5L8.2 35l15.2-1.45.35-.05L63.4 18.65"/><path fill="url(#c)" d="M63.4 18.65L23.75 33.5l-.35.05-2.55-10.6L82.05 1.6l4.3 8.4-22.95 8.65"/><path fill="url(#d)" d="M14.25 17.2l8.4 3.05L73.15 2.2 60.45.9l-1.5.1L61 0l21.05 1.6-61.2 21.35-14.15-4 6.35-2.2 1.2.45"/><path fill="url(#e)" d="M14.25 17.2L60.45.9l12.7 1.3-50.5 18.05-8.4-3.05"/><path fill="url(#f)" d="M88.65 36.3l-1.25 6.35-1.3.55-1.95.8-52.1 22.3-3.4 1.45-.55.2-.5-6.15v-.2l61.05-25.3"/><path fill="url(#g)" d="M86.1 43.2l-.85 15.1Q57.6 71.55 29.95 84.75l-.05-.05-1.25-16.95 3.4-1.45.3 15.4 51.2-24.5.6-13.2 1.95-.8"/><path fill="url(#h)" d="M29.9 84.7L7.2 61.4l.05-.05L5.6 59.5 4.05 45.3l3 2.85.15 11.2L27.1 79.7l-1.4-13.95 2.35 2.3.1.15-.05-.25.55-.2L29.9 84.7"/><path fill="url(#i)" d="M4.05 45.3l-.8-.8-.75-6.15 25 23.5.1-.05.5 6.15-.05.1-2.35-2.3-18.65-17.6-3-2.85"/><path fill="url(#j)" d="M59.2 21.8L81.6 36l-22.5 9.15.1-23.35"/><path fill="url(#k)" d="M59.2 21.8l-.1 23.35L29.8 57.1 10 39.4l49.05-17.7.15.1"/><path fill="url(#l)" d="M32.05 66.3L84.15 44l-.6 13.2-51.2 24.5-.3-15.4"/><path fill="url(#m)" d="M25.7 65.75l1.4 13.95L7.2 59.35l-.15-11.2 18.65 17.6"/></svg>