<svg xmlns="http://www.w3.org/2000/svg" viewBox="-0.1 0 46.5 48.9" width="46.5" height="48.9"><defs><radialGradient gradientUnits="userSpaceOnUse" r="819.2" cx="0" cy="0" fx="87942.4" fy="0" spreadMethod="repeat" gradientTransform="matrix(-.009 0 0 .009 5.45 12.8)" id="a"><stop offset="0"/><stop offset=".796" stop-color="#600"/></radialGradient><radialGradient gradientUnits="userSpaceOnUse" r="819.2" cx="0" cy="0" spreadMethod="pad" gradientTransform="matrix(-.005 0 0 .005 13.35 10.35)" id="b"><stop offset="0" stop-color="#660"/><stop offset=".737" stop-color="#2E2E00"/><stop offset="1"/></radialGradient><linearGradient gradientUnits="userSpaceOnUse" x1="-819.2" x2="819.2" gradientTransform="matrix(-.004 0 0 .005 7.7 12.9)" id="c"><stop offset="0" stop-color="#fff"/><stop offset="1"/></linearGradient><radialGradient gradientUnits="userSpaceOnUse" r="819.2" cx="0" cy="0" spreadMethod="pad" gradientTransform="matrix(-.009 0 0 .009 25.6 8.1)" id="d"><stop offset="0" stop-color="#fff"/><stop offset=".945"/></radialGradient><radialGradient gradientUnits="userSpaceOnUse" r="819.2" cx="0" cy="0" spreadMethod="pad" gradientTransform="matrix(-.021 0 0 .021 16.8 19)" id="e"><stop offset="0" stop-color="#c9c"/><stop offset=".796" stop-color="#660"/></radialGradient><linearGradient gradientUnits="userSpaceOnUse" x1="-819.2" x2="819.2" gradientTransform="matrix(-.005 0 0 .007 13.65 14.05)" id="f"><stop offset="0" stop-color="#660"/><stop offset=".737" stop-color="#2E2E00"/><stop offset="1"/></linearGradient><radialGradient gradientUnits="userSpaceOnUse" r="819.2" cx="0" cy="0" spreadMethod="pad" gradientTransform="matrix(-.006 0 0 .006 24.35 10.65)" id="g"><stop offset="0" stop-color="#fff"/><stop offset=".945" stop-color="#BF8FBF"/></radialGradient><radialGradient gradientUnits="userSpaceOnUse" r="819.2" cx="0" cy="0" spreadMethod="pad" gradientTransform="matrix(-.007 0 0 .007 18.9 17.35)" id="h"><stop offset="0" stop-color="#c9c"/><stop offset=".796" stop-color="#660"/></radialGradient><radialGradient gradientUnits="userSpaceOnUse" r="819.2" cx="0" cy="0" spreadMethod="pad" gradientTransform="matrix(-.01 0 0 .01 22.45 22.7)" id="i"><stop offset="0" stop-color="#660"/><stop offset=".737" stop-color="#2E2E00"/><stop offset="1"/></radialGradient><radialGradient gradientUnits="userSpaceOnUse" r="819.2" cx="0" cy="0" spreadMethod="pad" gradientTransform="matrix(-.01 0 0 .01 23.85 22.55)" id="j"><stop offset="0" stop-color="#660"/><stop offset=".737" stop-color="#2E2E00"/><stop offset="1"/></radialGradient><radialGradient gradientUnits="userSpaceOnUse" r="819.2" cx="0" cy="0" spreadMethod="pad" gradientTransform="matrix(-.001 0 0 .001 8.5 21.15)" id="k"><stop offset="0" stop-color="#c9c"/><stop offset=".796" stop-color="#660"/></radialGradient><radialGradient gradientUnits="userSpaceOnUse" r="819.2" cx="0" cy="0" spreadMethod="pad" gradientTransform="matrix(-.006 0 0 .006 12.7 27.05)" id="l"><stop offset=".129"/><stop offset=".616" stop-color="#f00"/></radialGradient><radialGradient gradientUnits="userSpaceOnUse" r="819.2" cx="0" cy="0" spreadMethod="pad" gradientTransform="matrix(-.008 0 0 .008 11 31.35)" id="m"><stop offset="0" stop-color="#c9c"/><stop offset=".796" stop-color="#660"/></radialGradient><radialGradient gradientUnits="userSpaceOnUse" r="819.2" cx="0" cy="0" spreadMethod="pad" gradientTransform="matrix(-.003 0 0 .003 16.25 30.25)" id="n"><stop offset="0" stop-color="#c9c"/><stop offset=".796" stop-color="#660"/></radialGradient><radialGradient gradientUnits="userSpaceOnUse" r="819.2" cx="0" cy="0" spreadMethod="pad" gradientTransform="matrix(-.009 0 0 .009 23.1 29.5)" id="o"><stop offset="0" stop-color="#c9c"/><stop offset=".796" stop-color="#660"/></radialGradient><radialGradient gradientUnits="userSpaceOnUse" r="819.2" cx="0" cy="0" spreadMethod="pad" gradientTransform="matrix(-.009 0 0 .009 37.05 18.75)" id="p"><stop offset="0"/><stop offset=".796" stop-color="#600"/></radialGradient><linearGradient gradientUnits="userSpaceOnUse" x1="-819.2" x2="819.2" gradientTransform="matrix(-.006 0 0 .007 36.5 20.9)" id="q"><stop offset="0" stop-color="#fff"/><stop offset="1"/></linearGradient><radialGradient gradientUnits="userSpaceOnUse" r="819.2" cx="0" cy="0" spreadMethod="pad" gradientTransform="matrix(-.016 0 0 .016 34.85 40.4)" id="r"><stop offset="0" stop-color="#c9c"/><stop offset=".796" stop-color="#030"/></radialGradient><radialGradient gradientUnits="userSpaceOnUse" r="819.2" cx="0" cy="0" spreadMethod="pad" gradientTransform="matrix(-.012 0 0 .012 36.3 38.85)" id="s"><stop offset="0" stop-color="#c9c"/><stop offset=".796"/></radialGradient></defs><path d="M10.2 15.6L9.25 17l-.5 1.1-.2.6q0-1.4.4-2.7v-.1L7.6 19.1v.75l.1.45.05.1.5.6.2.2q.3-.7.65-.6h.2l.7-.1.25-.25.05-.55-.05-.05h.05l-.05-1.55.2-1.35-.5 1.3q-.2-.7-.1-1.35l.3-.9.05-.2m13.9 1.15l-3.85 1.15.5-.45 1.3-.9-2.6.85-3.55 1.75 1.35-1.5-.45.2-1.45.85q-.55.45-.8 1.05l-.05.25.2.55.1.35.2.35.3.3.75.3.8-.05 1.25-.5 1.1-.8-.5.05 1.55-.95-1.75.25 3.45-1.45 1.5-.7.25-.1 2-1.2v-.05l-1.6.4m-6.25 4.15l.85-.35-.85.35"/><path fill="#fff" d="M7.9 23.4l-.05.15-.55.85-.15.45q-.25 1 0 2l.1.3.15.3v-.25l.35-1.8.25-.6.45-.8v1.05l.05.1v.25l.3 1v-.65l.1-.45.35-.9.1.8v.5l.1-.3.1-.2.55-.85.3 1 .1.65.35-.9.15.35.05.25.05.75.65-1.05.2.45.05.4.45-.35.2-.1.05.15.25.8.2-.3.2-.2-.05 1.05-.25.7.25-.5.95-1.35.3-.5v-.1q-.4-.6-.4-1.45-.35.05-.9-.4l-.7-.3h-.45l-.95-.2-1.5-.3-.4.05-.5.2q-.25.2-.5 0l-.2.15-.15.1m-.15 6.1l.05-.8-.45.45q-.5.65-.55 1.5v.4l.05.1v.05q.15.45.6.7l1.6.3h1.65q.85 0 1.45-.55l1.05-1 .85-1.35.2-.55.1-.45v-.2h-.2v.1l-.1.3-.4-.1v.5l-.3-.1v.8l-.6-.45-.15 1.25q-.25-.85-1-1l-.3 1.8-.6-1.4-.85 1.35-.4-1.15q-.5.6-.5 1.35-.4-.7-.5-1.45-.4.8-.4 1.35l-.25-.7-.05-.65v-.4m5-8.85l.2.6v.5l.1.7.5.8q.3-.2.25-.6l-.2-.6-.85-1.4m-1.05.05l-1.2.8-.25.25.25.15.25-.05.25-.25.6-.8.1-.1"/><path fill="url(#a)" d="M11 10.45q-1.6-.55-2.6-2.2-.45-.75.05-1.75l.05-.1.35-.45-1.35.45q-.6.25-1.2.65l-.95.75-2.5 1.95q-1.4 1-2.2 2.65l-.5 1.35q-.35 1.1 0 2.25.5 1.85 1.85 3.05l.6.55-.55-1.4Q1.7 16.9 2 15.6l.55-1.45.15-.25q.6-1.1 1.4-1.4h.05v.05L6 10.05 7.3 8.8l.65-.4.35 1.15q.65.95 1.65 1.4l.95.25.05-.55.05-.2"/><path fill="url(#b)" d="M11 10.45l-.05.2-.05.55v.55l.3 1.7.05.05.15.6 1.15-1.45 1-1L13.6 13l-.05.3.05-.05 1.1-1.75 1.1-1.3-2.1-.1-.45-.5q-.35.3-.55-1.25l-.05-1.7-.85 1.15-.25.8-.15 1.25q-.3 0-.4.6"/><path fill="url(#c)" d="M4.15 12.55v.05l.2.85.95 2.35 1.1 1.6q-.6-1.25-.15-2.55l.65-1.2.2.45 1.2 2.2.25.3-.05-.4q-.2-2.05 1.25-2.65l1.45-.1-.3-1.7v-.55l-.95-.25q-1-.45-1.65-1.4L7.95 8.4l-.65.4L6 10.05l-1.85 2.5"/><path fill="url(#d)" d="M16.15 4.45q.7.5 1.75.55l1.6.15q1.8.4 3.7-.6h.6l1.2.65 3.4 1.7q.8.4.8.9-.05 1.5.7 2.55l.7.75q.95.7.05 2.45l-.3.75q-.3 1 0 1.9l.1-.1.65-.25.2-.05h.9L31 14.5l-.1-.05h.5l3.4.55-1.2-1.7q-1.05-1.5-2.4-2.4l.7-.45 3.1-1.6-.5-.2-1.55-.75-2.9-.7.15-.35.55-.75 1.7-2-6.15.65V3.8l.2-1 .2-.55L23.8 4l-.2-.25-.2-.85-.3-2.9-3.9 4.5-.4-.7-.7-2.75-.35.6-.8 1.75-.8 1.05"/><path fill="url(#e)" d="M16.15 4.45L16 4.5q-1.2.5-2.25 1.25l-1.1.9.05 1.7q.2 1.55.55 1.25l.45.5 2.1.1 1.65-1.75.1-.1.3-.6-.3.6-.1.1-2.95 6.95q-1-1-1.45-2.2l-1.2 2.65Q11.4 17 11.1 18.2q-.2 1-.8 1.45v.05l-.05.55-.25.25-.7.1-.1.85.05.35-1.3.1-.15.5-.4.35h-.15l-.45.05h-.7l-.9-.15-1.3.05-.3.15q-.4.2-.7.55l-.3.65q-.25.9.15 1.55l.5.45 1.4.7 1.15.95q.5.7.2 1.5-.25.75-1.15.9l-1.65.05q.6.5 1.45.4.75 0 1.4-.4.75-.4.85-1.25.1-.6-.2-1l-.85-.85-.95-.65-.85-.55-.6-.55q-.3-.45-.1-.85l.1-.15.6-.45.05-.05 1.35-.3 2.45-.1.05-.15q0 .1.1.05l.2-.15q.25.2.5 0l.5-.2.4-.05 1.5.3.95.2h.45l.7.3q.55.45.9.4 0 .85.4 1.45l.05.05-.05.05.05.25.1.25.4.45 1.15 1 .2.1.5.25.8.3.3.05h1.05q.85-.05 1.45.4l.95.9.05.15q.35.6.3 1.4l-.25.8-.6.6-.65.35-1.75.25q.65.45 1.6.35.8-.1 1.4-.7l.45-.6.35-.8q.15-.8-.1-1.55l-.1-.2-.8-1.1-.1-.1q-.6-.45-1.3-.7l-1.05-.25-.55-.05-1.5-.35-.4-.25-.75-.65-.55-.95.5-.15q1.25-.65 2.65-.8-.1-.8-1-.95h.1l.6-.15.7-.4.35-.4q1-1.2 2.35-1.5l3.9-1.1q.35-.7-.5-.95l4.85-.5.1-.15.25-.55V17q0-.45.3-.8-.3-.9 0-1.9l.3-.75q.9-1.75-.05-2.45l-.7-.75q-.75-1.05-.7-2.55 0-.5-.8-.9L25 5.2l-1.2-.65h-.6q-1.9 1-3.7.6L17.9 5q-1.05-.05-1.75-.55m-1.75 18.8q.6.45.7 1.35l.1.65-.1-.65q-.1-.9-.7-1.35m8.1-13.15l6.85.45q-1.9.1-3.7.75l-1.45.4q1.25.55 2.3 1.45l.2.2.4.55q-1.25-.8-2.8-1l-2.15-.5-.3-.1-.9-.45-1.55-1.2 2.75-2.45q.65-.6 1.35-.8.05.8-.3 1.55l-.7 1.15m-7.95 9.65q-1.7-.9.05-2.3 1.95-1 3.95-2.05l.65-.45v.1l-.15.5-.75 1.05 1.75-.6 1.95-.4q.5.5 1.4.3h.1l-.1.15-.6.55 1.3.15 1.6-.4.1-.05-.1.1-2 1.2-.25.1-1.5.7-3.45 1.45 1.75-.25-1.55.95.5-.05-1.1.8-1.25.5-.8.05-.75-.3-.3-.3-.2-.35-.1-.35-.2-.55.05-.25m-1.8.9l.85 1.4.2.6q.05.4-.25.6l-.5-.8-.1-.7v-.5l-.2-.6m-1.05.05l-.1.1-.6.8-.25.25-.25.05-.25-.15.25-.25 1.2-.8m-3.35 1.7l-.95.35.95-.35"/><path fill="url(#f)" d="M11.4 14.1l-.65 1-.1.2-.25.5-.55.9q-.1.65.1 1.35l.5-1.3-.2 1.35.05 1.55q.6-.45.8-1.45.3-1.2.75-2.35l1.2-2.65q.45 1.2 1.45 2.2l2.95-6.95-1.65 1.75-1.1 1.3-1.1 1.75-.05.05.05-.3-.05-1.35-1 1-1.15 1.45"/><path fill="url(#g)" d="M22.5 10.1l.7-1.15q.35-.75.3-1.55-.7.2-1.35.8l-2.75 2.45 1.55 1.2.9.45.3.1 2.15.5q1.55.2 2.8 1l-.4-.55-.2-.2q-1.05-.9-2.3-1.45l1.45-.4q1.8-.65 3.7-.75l-6.85-.45"/><path fill="url(#h)" d="M14.55 19.75q.25-.6.8-1.05l1.45-.85.45-.2-1.35 1.5 3.55-1.75 2.6-.85-1.3.9-.5.45 3.85-1.15-1.3-.15.6-.55.1-.15h-.1q-.9.2-1.4-.3l-1.95.4-1.75.6.75-1.05.15-.5v-.1l-.65.45q-2 1.05-3.95 2.05-1.75 1.4-.05 2.3"/><path fill="url(#i)" d="M29.7 18.35l-4.85.5q.85.25.5.95l-3.9 1.1q-1.35.3-2.35 1.5l-.35.4-.7.4-.6.15h-.1q.9.15 1 .95-1.4.15-2.65.8l-.5.15.55.95.75.65.4.25q.45-.7 1.4-.65l.85-.25.3-.55v-.05l.15-.5q-1.2.1-.3-.45l1.15-.8 1.05-1.2q-.75.2-.65-.3.7-.55 1.55-.55l1.55.15H24l1.15.1q-.3-.65-.9-1l.3-.05h1.1l1.35-.1 1.5-.8.85-.8-.95.1.85-.65.45-.4m-8.15 3.1l-.6.6-.1.3.1-.3.6-.6"/><path fill="url(#j)" d="M28.25 23.9l.05-.05.15-.1 1.7-2.35q.7-1.15.65-2.3l-.25-1.05h-.05l-.45-.4-.25.55-.1.15-.45.4-.85.65.95-.1-.85.8-1.5.8-1.35.1h-1.1l-.3.05q.6.35.9 1l-1.15-.1h-.05l-1.55-.15q-.85 0-1.55.55-.1.5.65.3l-1.05 1.2-1.15.8q-.9.55.3.45l-.15.5v.05l-.3.55-.85.25q-.95-.05-1.4.65l1.5.35.55.05q.6-1.05 1.65-1.4l1.1-.2 1.95-.1 1 .5-.2-.6q-.3-1 .1-1.3l.35-.15.15-.05.7-.15 1.2-.3h.6l.7.15"/><path fill="url(#k)" d="M7.75 20.4l-.05.5.2.85.05.15 1.3-.1-.05-.35.1-.85h-.2q-.35-.1-.65.6l-.2-.2-.5-.6"/><path fill="url(#l)" d="M7.75 25.4l.55 1.2.05-.25.3 1.1.2-.35.1.35.4-.4.05.6-.1.5q-.2.4-.55.15l-.2-.25v.7l-.3-.3.15.85-.25-.05v.45l-.4-.15v.35l.05.65.25.7q0-.55.4-1.35.1.75.5 1.45 0-.75.5-1.35l.4 1.15.85-1.35.6 1.4.3-1.8q.75.15 1 1l.15-1.25.6.45v-.8l.3.1v-.5l.4.1.1-.3v-.1h.2l.05-.75-.1-1-.05-.2-.95 1.35-.25.5.25-.7.05-1.05-.2.2-.2.3-.25-.8-.05-.15-.2.1-.45.35-.05-.4-.2-.45-.65 1.05-.05-.75-.05-.25-.15-.35-.35.9-.1-.65-.3-1-.55.85-.1.2-.1.3v-.5l-.1-.8-.35.9-.1.45v.65l-.3-1v-.25l-.05-.1V24l-.45.8-.25.6"/><path fill="url(#m)" d="M6.8 31.25l-.05.1-.2.65.3.15-1.2 1.1q-.15 1 .15 1.75.1-.5.55-1.15l.05-.25.65 1.9.45.65q-.25-.65 0-1.5.35.85 1.05 1.1.4.15.3-.55v-.35l.4.4.3.25.25-.35.6.5q0-.35.35-.5 1.05.6 1.4 1.45l.1.5.45-1.45q.1-.5-.15-.7l.35.4.5-.75q.25-.45.1-1l-.15-.35q.65-.25 1.3.25l.6.75-.45-.95q-.25-.5-.8-.65l-.2-.3q-.1-.45.2-.85l.25-.35.5-.3.15-.05.25-.3.1-1.45.05-.25.3-.5.85-.6-.2-.1-1.15-1-.4-.45-.1-.25-.05-.25-.3.5.05.2.1 1-.05.75v.2l-.1.45-.2.55-.85 1.35-1.05 1q-.6.55-1.45.55H9.05l-1.6-.3q-.45-.25-.6-.7l-.05.05m7.6-.75l.35.35-.35-.35m-5.25 3.05l1.45-.05q.9-.05 1.3-.55l2.7-3.6-2.7 3.6q-.4.5-1.3.55l-1.45.05m-1.85-.8l-.45-.6.45.6"/><path fill="url(#n)" d="M14.75 30.85l.4.4.2.4q.4.65 1.1 1.1v-1.3q.1-1 .45-1.85.35-.75.85-1.35l-.8-.3-.5-.25-.85.6-.3.5-.05.25-.1 1.45-.25.3-.15.05"/><path fill="url(#o)" d="M16.45 32.75l.6.35q1.9.8 4 1.05 1.45.2 2.65 1.1v-.75q.55.65 1.35.8l-.4-2.6L27 34.2l-.9-2.3 3.7 1.5-.05-.3q-1.45-.15-2.3-1.25l-.3-.45-.65-1.45q-.25-1.1-.15-2.25.1-1.5.85-2.6l.3-.4.75-.8-.7-.15h-.6l-1.2.3-.7.15-.15.05-.35.15q-.4.3-.1 1.3l.2.6-1-.5-1.95.1-1.1.2q-1.05.35-1.65 1.4l1.05.25q.7.25 1.3.7l.1.1.8 1.1.1.2q.25.75.1 1.55l-.35.8-.45.6q-.6.6-1.4.7-.95.1-1.6-.35l1.75-.25.65-.35.6-.6.25-.8q.05-.8-.3-1.4l-.05-.15-.95-.9q-.6-.45-1.45-.4h-1.05l-.3-.05q-.5.6-.85 1.35-.35.85-.45 1.85v1.3"/><path fill="url(#p)" d="M30.55 18.05l.9.6.1.05 3.3-.4 3.75-1.1 1.15-.6q.85-.65 1.15-1.85 1 .9.85 2.65l-.3 1.35-.55 1.15.35.45.25.45q.65 1.6-.05 3.4v.05l-.45.9.8-.95 1.75-3.1.25-.7.1-.5q.35-1.65-.2-3.35l-.15-.45q-.9-2.3-3.35-3.3l-2-.5h-.25l.55.55.2.25q.55.65.55 1.45v.1q0 .9-.65 1.3l-1.4.65-1.35.35-1.95.1-1.55-.35-1.25-.85-.65.25-.1.1q-.3.35-.3.8v.65l.45.4h.05"/><path fill="url(#q)" d="M31.55 18.7l.25.35.1.3q.1.8-.6 1.55l.45-.2 1.2-.75.45-.3.95-.15.55.4q.3.35 0 .95L34.25 22l-1.2 1.35-1.6 1.05h.45q2.65-.2 4.5-1.85l1.45-1.75.3.95-.25 1.65-.8 1.45Q36.3 26.1 35 27q2-.8 3.45-2.3l1.35-1.6q.9-1.35.95-2.75l-.05-.55.2.1.55-1.15.3-1.35q.15-1.75-.85-2.65-.3 1.2-1.15 1.85l-1.15.6-3.75 1.1-3.3.4"/><path fill="url(#r)" d="M23.7 35.25l.4.35q.85.75.35 1.55l-.95 1.6q-.8 1.75.45 2.8 1.5 1.3 2.15 3.1.45 1.35.05 2.85l-.55 1.4q1.5-.85 2.35-2.35l.2-.6q.15-.6-.15-1.2l-.55-1.3-.5-1.15q-.7-1.8.25-3.55.9-1.5 2.4-2.35l.75-.4q1.45-.7 2.8-1.3l.15-.05 2.9-.35 3.65.3q1.4.15 2.6.65 1.85.8 3.5 1.65l.55.3-2.1-2.3q-1.45-1.3-3.25-1.35-1.3-1.15-3.45-1.15l-3.85.4-3.65.35-.45-.05.05.3-3.7-1.5.9 2.3-2.35-1.5.4 2.6q-.8-.15-1.35-.8v.75"/><path fill="url(#s)" d="M42.85 36.9q1.55.2 3.1 0-1.65-.85-3.5-1.65-1.2-.5-2.6-.65l-3.65-.3-2.9.35-.15.05q-1.35.6-2.8 1.3l-.75.4q-1.5.85-2.4 2.35-.95 1.75-.25 3.55l.5 1.15.6-1.75q.25-.65-.4-1.4l.2-1 .95.3q-.15-.7.25-1.25l1.65.25.2-.95 1.5.35v-.2l.15-1.15 1.05-.05.5.5q-.1-1.7 2-1.6l3.9.55 2.55.75.3.1M27.6 40.8l-.1-.6.15.1-.05.5"/><path fill="#1E0000" d="M28.15 45.95l.3-.4.6.55q-.1-1.1.1-1.95.6 1.25 1.35 1.75.65-1.45.6-2.9l.55.35q.7.55 1.55.75 1.55.35 1.2-2.2 1.35.6 2.45 1.5l-.65-3.55q2.25.65 4.3 1.75.4-1.2.4-2.7l3-.1q-.6-1.1-1.4-1.9l.05-.1-2.55-.75-3.9-.55q-2.1-.1-2 1.6l-.5-.5-1.05.05-.15 1.15v.2l-1.5-.35-.2.95-1.65-.25q-.4.55-.25 1.25l-.95-.3-.2 1q.65.75.4 1.4l-.6 1.75.55 1.3q.3.6.15 1.2"/><path fill="none" stroke="#000" stroke-width=".05" stroke-linecap="round" stroke-miterlimit="3" d="M11 10.45q-1.6-.55-2.6-2.2-.45-.75.05-1.75l.05-.1.35-.45-1.35.45q-.6.25-1.2.65l-.95.75-2.5 1.95q-1.4 1-2.2 2.65l-.5 1.35q-.35 1.1 0 2.25.5 1.85 1.85 3.05l.6.55-.55-1.4Q1.7 16.9 2 15.6l.55-1.45.15-.25q.6-1.1 1.4-1.4h.05v.1l.2.85.95 2.35 1.1 1.6m2.15-.8l-.05-.4m2.7-2.75l.05.05.15.6-.65 1-.35.2-.2.3-.95 1.4-.5 1.1-.2.6q0-1.4.4-2.7v-.1L7.6 19.1v.75l.1.45.05.1-.05.5.2.85.05.15m-.05 1.5l-.05.15-.55.85-.15.45q-.25 1 0 2l.1.3.15.3v-.25l.35-1.8.55 1.2.05-.25.3 1.1.2-.35.1.35.4-.4.05.6-.1.5q-.2.4-.55.15l-.2-.25v.7l-.3-.3.15.85-.25-.05v.45l-.4-.15v-.05l.05-.8-.45.45q-.5.65-.55 1.5v.4l.05.1-.05.1m7.95-.4l.4.4.2.4q.4.65 1.1 1.1l.6.35q1.9.8 4 1.05 1.45.2 2.65 1.1l.4.35q.85.75.35 1.55l-.95 1.6q-.8 1.75.45 2.8 1.5 1.3 2.15 3.1.45 1.35.05 2.85l-.55 1.4q1.5-.85 2.35-2.35l.2-.6.3-.4.6.55q-.1-1.1.1-1.95.6 1.25 1.35 1.75.65-1.45.6-2.9l.55.35q.7.55 1.55.75 1.55.35 1.2-2.2 1.35.6 2.45 1.5l-.65-3.55q2.25.65 4.3 1.75.4-1.2.4-2.7l3-.1q-.6-1.1-1.4-1.9h.35q1.55.2 3.1 0l.55.3-2.1-2.3q-1.45-1.3-3.25-1.35-1.3-1.15-3.45-1.15l-3.85.4-3.65.35-.45-.05q-1.45-.15-2.3-1.25l-.3-.45-.65-1.45q-.25-1.1-.15-2.25.1-1.5.85-2.6l.3-.4.75-.8.05-.05.15-.1 1.7-2.35q.7-1.15.65-2.3l-.25-1.05M35 27q-.5.25-.95.45M10.9 11.2v.55l.3 1.7m-.2-3q.1-.6.4-.6l.15-1.25.25-.8.85-1.15m.95 6.6l-.05.05m-2.65-2.1l.05-.55.05-.2m5.15-6l.8-1.05.8-1.75.35-.6.7 2.75.4.7L23.1 0l.3 2.9.2.85.2.25 2.9-1.75-.2.55-.2 1v.95l6.15-.65-1.7 2-.55.75-.15.35 2.9.7 1.55.75.5.2-3.1 1.6-.7.45q1.35.9 2.4 2.4l1.2 1.7-3.4-.55h-.5l.1.05 1.2 1.3h-.9l-.2.05m-20.35-.75l-.1.2-.25.5-.55.9.3-.9.05-.2m-.35 1.1q-.1.65.1 1.35l.5-1.3-.2 1.35.05 1.55m-1 .95h-.2q-.35-.1-.65.6l-.2-.2-.5-.6m.15 3l.15-.1m37.9 13.6q-1.65-.85-3.5-1.65-1.2-.5-2.6-.65l-3.65-.3-2.9.35-.15.05q-1.35.6-2.8 1.3l-.75.4q-1.5.85-2.4 2.35-.95 1.75-.25 3.55l.5 1.15.55 1.3q.3.6.15 1.2M41 25.15l-1.2 1M7.75 25.4l.25-.6.45-.8v1.05l.05.1v.25l.3 1v-.65l.1-.45.35-.9.1.8v.5l.1-.3.1-.2.55-.85.3 1 .1.65.35-.9.15.35.05.25.05.75.65-1.05.2.45.05.4.45-.35.2-.1.05.15.25.8.2-.3.2-.2-.05 1.05-.25.7.25-.5.95-1.35m.1 1.95h-.2v.1l-.1.3-.4-.1v.5l-.3-.1v.8l-.6-.45-.15 1.25q-.25-.85-1-1l-.3 1.8-.6-1.4-.85 1.35-.4-1.15q-.5.6-.5 1.35-.4-.7-.5-1.45-.4.8-.4 1.35l-.25-.7-.05-.65v-.35m0 .35v-.4m6.8-3.85v-.1m-7.7 5.65v-.05"/><path fill="none" stroke="#353500" stroke-width=".05" stroke-linecap="round" stroke-miterlimit="3" d="M7.95 21.9l-.15.5-.4.35h-.15l-.45.05h-.7l-.9-.15-1.3.05-.3.15q-.4.2-.7.55l-.3.65q-.25.9.15 1.55l.5.45 1.4.7 1.15.95q.5.7.2 1.5-.25.75-1.15.9l-1.65.05q.6.5 1.45.4.75 0 1.4-.4.75-.4.85-1.25.1-.6-.2-1l-.85-.85-.95-.65-.85-.55-.6-.55q-.3-.45-.1-.85l.1-.15.6-.45.05-.05 1.35-.3 2.45-.1m-1.1 7.85l-.05.1-.2.65.3.15-1.2 1.1q-.15 1 .15 1.75.1-.5.55-1.15l.05-.25.65 1.9.45.65q-.25-.65 0-1.5.35.85 1.05 1.1.4.15.3-.55v-.35l.4.4.3.25.25-.35.6.5q0-.35.35-.5 1.05.6 1.4 1.45l.1.5.45-1.45q.1-.5-.15-.7l.35.4.5-.75q.25-.45.1-1l-.15-.35q.65-.25 1.3.25l.6.75-.45-.95q-.25-.5-.8-.65l-.2-.3q-.1-.45.2-.85l.25-.35.5-.3-.35-.35M12.65 6.65l1.1-.9Q14.8 5 16 4.5l.15-.05m13.9 13.2l-.25.55-.1.15m-14.5 6.9l-.1-.65q-.1-.9-.7-1.35m8.1-13.15l6.85.45q-1.9.1-3.7.75l-1.45.4q1.25.55 2.3 1.45l.2.2.4.55q-1.25-.8-2.8-1l-2.15-.5-.3-.1-.9-.45-1.55-1.2 2.75-2.45q.65-.6 1.35-.8.05.8-.3 1.55l-.7 1.15m-5.05-1.65l.1-.1.3-.6m6.25 9l-3.85 1.15.5-.45 1.3-.9-2.6.85-3.55 1.75 1.35-1.5-.45.2-1.45.85q-.55.45-.8 1.05m9.55-3l1.6-.4m0 .05l-2 1.2-.25.1-1.5.7-3.45 1.45 1.75-.25-1.55.95-.85.35m7.85-4.5l.1-.1-.1.05m-7 4.2l.5-.05-1.1.8-1.25.5-.8.05-.75-.3-.3-.3-.2-.35-.1-.35-.2-.55.05-.25m-4.25-.05l-.05.55-.25.25-.7.1m1-.95v.05m2.45.95l.85 1.4.2.6q.05.4-.25.6l-.5-.8-.1-.7v-.5l-.2-.6m-1.05.05l-1.2.8-.25.25.25.15.25-.05.25-.25.6-.8.1-.1m2.85 4.85q-.4-.6-.4-1.45-.35.05-.9-.4l-.7-.3h-.45l-.95-.2-1.5-.3-.4.05-.5.2q-.25.2-.5 0l-.2.15q-.1.05-.1-.05l-.05.15m-.5-.65l.95-.35m7.45-12.2l1.65-1.75m-3.2 17.7l.05.2.1 1-.05.75m.2-2.55l.05.05-.05.05-.3.5m.3-.5l.05.25.1.25.4.45 1.15 1 .2.1-.85.6-.3.5-.05.25-.1 1.45-.25.3-.15.05m.45-5.6l.55.95.75.65.4.25 1.5.35.55.05 1.05.25q.7.25 1.3.7l.1.1.8 1.1.1.2q.25.75.1 1.55l-.35.8-.45.6q-.6.6-1.4.7-.95.1-1.6-.35l1.75-.25.65-.35.6-.6.25-.8q.05-.8-.3-1.4l-.05-.15-.95-.9q-.6-.45-1.45-.4h-1.05l-.3-.05-.8-.3-.5-.25m-9.6 3.5q.15.45.6.7l1.6.3h1.65q.85 0 1.45-.55l1.05-1 .85-1.35.2-.55.1-.45v-.2m-7.5 4.05l.45.6m7.3-3.4l-2.7 3.6q-.4.5-1.3.55l-1.45.05"/><path fill="none" stroke="#1C0000" stroke-width=".05" stroke-linecap="round" stroke-miterlimit="3" d="M30.55 18.05l.9.6.1.05m-1.2-2.5q-.3.35-.3.8v.65m1.05-1.8l-.65.25-.1.1m.75-.35l1.25.85 1.55.35 1.95-.1 1.35-.35 1.4-.65q.65-.4.65-1.3v-.1q0-.8-.55-1.45l-.2-.25-.55-.55h.25l2 .5q2.45 1 3.35 3.3l.15.45q.55 1.7.2 3.35l-.1.5-.25.7-1.75 3.1-.8.95.45-.9v-.05q.7-1.8.05-3.4l-.25-.45-.35-.45m-10.35-1.85h-.05l-.45-.4"/><path fill="none" stroke="#2F2F2F" stroke-width=".05" stroke-linecap="round" stroke-miterlimit="3" d="M6.4 17.4q-.6-1.25-.15-2.55l.65-1.2.2.45 1.2 2.2.25.3m-.05-.4q-.2-2.05 1.25-2.65l1.45-.1m20.35 5.25l.25.35.1.3q.1.8-.6 1.55l.45-.2 1.2-.75.45-.3.95-.15.55.4q.3.35 0 .95L34.25 22l-1.2 1.35-1.6 1.05h.45q2.65-.2 4.5-1.85l1.45-1.75.3.95-.25 1.65-.8 1.45Q36.3 26.1 35 27q2-.8 3.45-2.3l1.35-1.6q.9-1.35.95-2.75l-.05-.55.2.1"/><path fill="none" stroke="#232300" stroke-width=".05" stroke-linecap="round" stroke-miterlimit="3" d="M29.7 18.35l-.45.4-.85.65.95-.1-.85.8-1.5.8-1.35.1h-1.1l-.3.05q.6.35.9 1l-1.15-.1h-.05l-1.55-.15q-.85 0-1.55.55l.1-.3.6-.6M16.9 27.1q.45-.7 1.4-.65l.85-.25.3-.55v-.05l.15-.5q-1.2.1-.3-.45l1.15-.8 1.05-1.2q-.75.2-.65-.3"/><path fill="none" stroke="#2E2E00" stroke-width=".05" stroke-linecap="round" stroke-miterlimit="3" d="M15.8 10.2l-1.1 1.3-1.1 1.75m0-.25l-.05-1.35-1 1-1.15 1.45"/><path fill="none" stroke="#2A2A00" stroke-width=".05" stroke-linecap="round" stroke-miterlimit="3" d="M13.55 13.3l.05-.3"/></svg>