<svg xmlns="http://www.w3.org/2000/svg" viewBox="0 0 34.3 38.4" width="34.3" height="38.4"><defs><radialGradient gradientUnits="userSpaceOnUse" r="819.2" cx="0" cy="0" spreadMethod="pad" gradientTransform="matrix(.025 0 0 .025 15.85 17.95)" id="a"><stop offset=".008" stop-color="#FD3E3E"/><stop offset="1" stop-color="#f00"/></radialGradient></defs><path fill="#f00" d="M2.65 14.1l-.6-.6-.05-.05.6-.1.05.75M1.1 20.15v.25h-.05l.05-.25m2.2 9.7h-.05v-.05l.05.05m10.9 4.7l1.6-.3.25.3-1.1.25h-.25l-.5-.25m5.9-.15l.2-.4h.1l.35.35-.25.1 1.55.05-.4.25-.45.15-1.1-.5M20.1 34.4l1.1.5.45-.15.4-.25.4.05.4-.15 3.75-.15-.3 1.05.5-.1-1.05.7h-.6l-.25-.25-.55-.05.1.55-.25.4-1.5.9-.6.2-1.5-.05.2-.1-.25-.3-.05.05-.2.55q-.8.05-1.5.5h-.2q-.9-.1-1.55-.85-1.55.15-2.7.95l-.3-.1-.5-.3q-2.45-.3-5.4 0l-.1-1.55q-1.4-.6-2.5-1.6 3.05-.2 5.6.1l.7.3.4.15q.9-.55 1.95-.85l.5.25h.25l1.1-.25q.8.65 1.8.75h.25q.95-.55 1.95-.6l.05-.3"/><path fill="#760101" d="M28.65 22.4q-1.8-1.15-3.55-.2l-3.7 1.9q-1.8.9-4.2.85 2-.85 4-2.25 1.95-1.3 4.15-2.15 2.85-1.05 3.3 1.85m-23.2-.9q.8-2.65 3-.6 1.65 1.5 3.65 2.65 1.7.95 3.55 1.25-3.2.15-5.85-1.15-1.45-.7-2.7-1.75-.9-.75-1.65-.4m1.7 10.35l-.3-.45-.5-1.5-.25-1.6q-.05-.8.05-1.6.1-.9.85-.7l1.45.65 1.4.6 3 .7 1.45.35 1.55.2 1.1-.15.75-.15 1.9-.1 1.35-.55 2.5-1.45q.45-.3 1-.35l.95-.25.65-.35v2.95l-.3 1.5-.85 1.55v-1.6q-.1-1.05-.6-2.05l-1.05 1.55-.25-.8-1.25 1.85-.85-1.45-1.05 1-.25.2q-.85.3-1.25-.8-.75.8-1.35 1.75-.7-.5-1.05-1.25l-.55 1.1-.25.15-.9-.95q-.25-.35-.4-.2-.45.35-.95 1.1l-.5-.35-.95-1.4-.3-.25-.65.9-.45-.5-.6-.65h-.3l-.25.75q-.25 1.1-.15 2.15l-.65-1.15q-.65-1.3-.6-2.5l-.3.3q-.2.15-.2.45l.05.55v.8l.05 1 .05 1"/><path fill="#CA0202" d="M25.35 10.85l-.05.25q-2.85-.45-4-2.3 1.25-1.05.9-2.65.85 2.6 3.15 4.7m-6.3-4.25q-1.7-1.35-2.75-3.05l1.05-1.7V0l1.7 6.6m-4.5-1.25l-1.15 4.7q-1.75-.75-2.1-2.1l.6-1.5.35-1.35v1.45l.25.2 2.05-1.4m-4.4 3.95Q9.1 11 7.3 12.45L5.7 11.2q.2 1.65-.45 3.15l-.45.55-1.7-.5-.15-1.35 3.1-3.25.5-.15.6-.5q-.7.6-.5 1.45 2.2-.3 3.5-1.3m-8.1 4.2q-.25 2.35.3 4.55l.85.95q-1.1.1-1.85-.7.05-2.25-.55-4.45l1.2-.4.05.05m-.95 6.9q0 1.5.35 3.15l.15.55.9.6-1.15.25q1.6 2.15 2.3 4.5l-.35.4-.05-.05-2-2.05 1.2.2Q-.85 25 .3 21.45q.15-.6.75-1.05h.05m21.75 14l.4-.15 1.95-1.05.35-.45-.1-.7.65.1.35.25h.8l1.4-.75-.7.05.45-1.4 1.8-2.05-1.1.25q2.95-3 1.95-6.55-.15-.6-.65-1.05l-.1-.3q-.45-3.15.3-6.25l-.25-.1q1.3-.35 2.15-1.25.25 2.35-.35 4.55-.65.4-.9.95 1.25.05 2.15-.8.35 2.6-.2 5.3l-.15.6-1.05.6 1.3.25q-1.85 2.15-2.55 4.5 1.25 1.3 3.55 1.55-1.7 1.35-3.95 2.1l-.1 1.85-3.65-.2-3.75.15M29 13.9l-.15 1.7-.2-.35-.1-.1.1-1.55-1.6-1.95 1.4-.95q-.2 1.65.5 3.15l.05.05"/><path fill="url(#a)" d="M29 13.9v-.05l1.35.4.25.1q-.75 3.1-.3 6.25l.1.3q.5.45.65 1.05 1 3.55-1.95 6.55l1.1-.25-1.8 2.05-.45 1.4.7-.05-1.4.75h-.8l-.35-.25-.65-.1.1.7-.35.45-1.95 1.05-.4.15-.4.15-.4-.05-1.55-.05.25-.1-.35-.35h-.1l-.2.4-.05.3q-1 .05-1.95.6h-.25q-1-.1-1.8-.75l-.25-.3-1.6.3q-1.05.3-1.95.85l-.4-.15-.7-.3q-2.55-.3-5.6-.1l-1.45.1-.1-1.8Q1.95 32.35.4 31q1.75-.2 2.85-1.15h.05l.35-.4q-.7-2.35-2.3-4.5l1.15-.25-.9-.6-.15-.55Q1.1 21.9 1.1 20.4v-.25q0-1 .15-1.95l.1.1q.75.8 1.85.7l-.85-.95q-.55-2.2-.3-4.55l.6.6.45.3 1.7.5.45-.55q.65-1.5.45-3.15l1.6 1.25Q9.1 11 10.15 9.3l1.15-2.65v1.3q.35 1.35 2.1 2.1l1.15-4.7L15.7.5v1.85l.6 1.2q1.05 1.7 2.75 3.05l1 .65.2-.15V5.6l.35 1.35q.2 1.05.7 1.85 1.15 1.85 4 2.3l.05-.25q.05-.7-.45-1.25l.55.55.45.2 1.15 1.3 1.6 1.95-.1 1.55.1.1.2.35.15-1.7M17.2 24.95q2.4.05 4.2-.85l3.7-1.9q1.75-.95 3.55.2-.45-2.9-3.3-1.85-2.2.85-4.15 2.15-2 1.4-4 2.25m-1.55-.15q-1.85-.3-3.55-1.25-2-1.15-3.65-2.65-2.2-2.05-3 .6.75-.35 1.65.4 1.25 1.05 2.7 1.75 2.65 1.3 5.85 1.15m10.4.35l-.65.35-.95.25q-.55.05-1 .35l-2.5 1.45-1.35.55-1.9.1-.75.15-1.1.15-1.55-.2-1.45-.35-3-.7-1.4-.6L7 26q-.75-.2-.85.7-.1.8-.05 1.6l.25 1.6.5 1.5.3.45-.05-1-.05-1v-.8L7 28.5q0-.3.2-.45l.3-.3q-.05 1.2.6 2.5l.65 1.15q-.1-1.05.15-2.15l.25-.75h.3l.6.65.45.5.65-.9.3.25.95 1.4.5.35q.5-.75.95-1.1.15-.15.4.2l.9.95.25-.15.55-1.1q.35.75 1.05 1.25.6-.95 1.35-1.75.4 1.1 1.25.8l.25-.2 1.05-1 .85 1.45L23 28.25l.25.8 1.05-1.55q.5 1 .6 2.05v1.6l.85-1.55.3-1.5v-2.95"/><path fill="none" stroke="#410101" stroke-width=".05" stroke-linecap="round" stroke-miterlimit="3" d="M17.2 24.95q2-.85 4-2.25 1.95-1.3 4.15-2.15 2.85-1.05 3.3 1.85m-23.2-.9q.8-2.65 3-.6 1.65 1.5 3.65 2.65 1.7.95 3.55 1.25m10.4.35l-.65.35-.95.25q-.55.05-1 .35l-2.5 1.45-1.35.55-1.9.1-.75.15-1.1.15-1.55-.2-1.45-.35-3-.7-1.4-.6L7 26q-.75-.2-.85.7-.1.8-.05 1.6l.25 1.6.5 1.5.3.45"/><path fill="none" stroke="#9E0101" stroke-width=".05" stroke-linecap="round" stroke-miterlimit="3" d="M21.3 8.8q1.15 1.85 4 2.3l.05-.25q-2.3-2.1-3.15-4.7.35 1.6-.9 2.65-.5-.8-.7-1.85l-.35-1.35v1.5l-.2.15-1-.65q-1.7-1.35-2.75-3.05l-.6-1.2V.5l-1.15 4.85-1.15 4.7q-1.75-.75-2.1-2.1v-1.3L10.15 9.3Q9.1 11 7.3 12.45L5.7 11.2q.2 1.65-.45 3.15l-.45.55-1.7-.5-.45-.3-.6-.6q-.25 2.35.3 4.55l.85.95q-1.1.1-1.85-.7l-.1-.1q-.15.95-.15 1.95v.25q0 1.5.35 3.15l.15.55.9.6-1.15.25q1.6 2.15 2.3 4.5l-.35.4h-.05Q2.15 30.8.4 31q1.55 1.35 3.6 2.15l.1 1.8 1.45-.1M29.1 28.5q2.95-3 1.95-6.55-.15-.6-.65-1.05l-.1-.3q-.45-3.15.3-6.25l-.25-.1-1.35-.4v.05l-.15 1.7-.2-.35-.1-.1.1-1.55-1.6-1.95-1.15-1.3-.45-.2-.55-.55q.5.55.45 1.25m1.7.8l1.4-.95q-.2 1.65.5 3.15l.05.05m1.35.35q1.3-.35 2.15-1.25.25 2.35-.35 4.55-.65.4-.9.95 1.25.05 2.15-.8.35 2.6-.2 5.3l-.15.6-1.05.6 1.3.25q-1.85 2.15-2.55 4.5 1.25 1.3 3.55 1.55-1.7 1.35-3.95 2.1l-.1 1.85-3.65-.2-.3 1.05.5-.1-1.05.7h-.6l-.25-.25-.55-.05.1.55-.25.4-1.5.9-.6.2-1.5-.05.2-.1-.25-.3-.05.05-.2.55q-.8.05-1.5.5h-.2q-.9-.1-1.55-.85-1.55.15-2.7.95l-.3-.1-.5-.3q-2.45-.3-5.4 0l-.1-1.55q-1.4-.6-2.5-1.6M16.3 3.55l1.05-1.7V0l1.7 6.6M11.3 7.95l.6-1.5.35-1.35v1.45l.25.2 2.05-1.4M3.1 14.4l-.15-1.35 3.1-3.25.5-.15.6-.5q-.7.6-.5 1.45 2.2-.3 3.5-1.3M2 13.45l.6-.1.05.75m-1.3 4.2q.05-2.25-.55-4.45l1.2-.4m-.95 6.95q-.6.45-.75 1.05-1.15 3.55 2.15 6.5l-1.2-.2 2 2.05m-2.2-9.4l.05-.25m2.15 9.7v-.05"/></svg>