<svg xmlns="http://www.w3.org/2000/svg" viewBox="0 0 91.3 100.1" width="91.3" height="100.1"><defs><linearGradient gradientUnits="userSpaceOnUse" x1="-819.2" x2="819.2" gradientTransform="matrix(0 .027 .007 0 9.05 49.6)" id="a"><stop offset="0"/><stop offset=".561" stop-color="#939"/><stop offset="1" stop-color="#c30"/></linearGradient><linearGradient gradientUnits="userSpaceOnUse" x1="-819.2" x2="819.2" gradientTransform="matrix(0 .018 .015 0 25.2 73.35)" id="b"><stop offset="0"/><stop offset=".561" stop-color="#939"/><stop offset="1" stop-color="#c30"/></linearGradient><linearGradient gradientUnits="userSpaceOnUse" x1="-819.2" x2="819.2" gradientTransform="matrix(0 .013 .01 0 24.3 41.15)" id="c"><stop offset="0"/><stop offset=".561" stop-color="#939"/><stop offset="1" stop-color="#c30"/></linearGradient><linearGradient gradientUnits="userSpaceOnUse" x1="-819.2" x2="819.2" gradientTransform="matrix(0 .049 .04 0 51.1 54.65)" id="d"><stop offset="0" stop-color="#600"/><stop offset=".561" stop-color="#939"/><stop offset="1" stop-color="#c30"/></linearGradient><linearGradient gradientUnits="userSpaceOnUse" x1="-819.2" x2="819.2" gradientTransform="matrix(0 .01 .007 0 48.85 48.45)" id="e"><stop offset="0"/><stop offset=".561" stop-color="#939"/><stop offset="1" stop-color="#c30"/></linearGradient><linearGradient gradientUnits="userSpaceOnUse" x1="-819.2" x2="819.2" gradientTransform="matrix(0 .008 .015 0 53.55 71.85)" id="f"><stop offset="0"/><stop offset=".561" stop-color="#939"/><stop offset="1" stop-color="#c30"/></linearGradient><linearGradient gradientUnits="userSpaceOnUse" x1="-819.2" x2="819.2" gradientTransform="matrix(.011 .013 .01 -.009 39.45 86.1)" id="g"><stop offset=".239" stop-color="#f90"/><stop offset=".51" stop-color="#630"/><stop offset=".773" stop-color="#C77400"/></linearGradient><linearGradient gradientUnits="userSpaceOnUse" x1="-819.2" x2="819.2" gradientTransform="matrix(.013 .009 .005 -.007 47.2 13.05)" id="h"><stop offset=".239" stop-color="#f90"/><stop offset=".51" stop-color="#630"/><stop offset=".773" stop-color="#C77400"/></linearGradient><linearGradient gradientUnits="userSpaceOnUse" x1="-819.2" x2="819.2" gradientTransform="matrix(0 .021 .008 0 60.85 37.5)" id="i"><stop offset="0"/><stop offset=".561" stop-color="#939"/><stop offset="1" stop-color="#c30"/></linearGradient><linearGradient gradientUnits="userSpaceOnUse" x1="-819.2" x2="819.2" gradientTransform="matrix(.001 .008 .016 -.002 77.95 40.2)" id="j"><stop offset=".239" stop-color="#f90"/><stop offset=".51" stop-color="#630"/><stop offset=".773" stop-color="#C77400"/></linearGradient><linearGradient gradientUnits="userSpaceOnUse" x1="-819.2" x2="819.2" gradientTransform="matrix(.002 .007 .014 -.004 76.5 29.2)" id="k"><stop offset=".239" stop-color="#f90"/><stop offset=".51" stop-color="#630"/><stop offset=".773" stop-color="#C77400"/></linearGradient><linearGradient gradientUnits="userSpaceOnUse" x1="-819.2" x2="819.2" gradientTransform="matrix(.005 .009 .009 -.005 70.1 17.25)" id="l"><stop offset=".239" stop-color="#f90"/><stop offset=".51" stop-color="#630"/><stop offset=".773" stop-color="#C77400"/></linearGradient><linearGradient gradientUnits="userSpaceOnUse" x1="-819.2" x2="819.2" gradientTransform="matrix(0 .029 .015 0 76.45 71.15)" id="m"><stop offset="0"/><stop offset=".561" stop-color="#939"/><stop offset="1" stop-color="#c30"/></linearGradient><linearGradient gradientUnits="userSpaceOnUse" x1="-819.2" x2="819.2" gradientTransform="matrix(0 .013 .014 0 42.55 89.5)" id="n"><stop offset="0"/><stop offset=".561" stop-color="#939"/><stop offset="1" stop-color="#c30"/></linearGradient></defs><path fill="#f00" d="M3.25 27.55Q2 21.3 1.95 14.95L.1 30.6q-.25 3.7.05 7.35l.65 12q.9 5.95 3.25 11.5L5.7 65.4q1.4 3.25 2.45 6.6 1.3 3.95 3.85 7.2l5.85 6.7-.75-1.55-2.45-5q-1.15-2.05-1.5-4.4l-.5-3.3-1.1-2.35q-1.45-3.35-2-7.05L7.6 49.6q-.6-3.9-1.55-7.65L4.5 35.4l-1.25-7.85"/><path fill="#00c" d="M22.25 78.7L25.9 83l.2-.25q1.45-4.2 4.05-7.6L29 73.75q-1.75-2.25-3.95-4.05l-.9-.8q-1.95 4.55-1.9 9.8m42.7 16.1l1.85-.1 1.25-1.4.5-.4.3-.1q.1-2.2-1.05-5.35l-1.65-4.1-.1.05-3.9 1.1 1.8 5.75q.75 2.35 1 4.55m15-8.7v-.05l4.4-6.3-2.45-3.5q-2.1-2.45-4.65-3.75Q77 74.4 76 75.85l-1.5 2-.9.9 3.45 3.3 2.9 4.05M51.4 21.7h-1.25l-1.05-.6-.7-.95-.25 1q-.3 2.8-1.45 5l-.65-1.2-7.45 15.9h.1q1.7-2.4 5.05-1.1L51.4 21.7m-8.15 34.95l.2 1.2 2.5-.25 5.95-.7 11.75-3.1-.2-.8q-.25-1.45-1.2-2l-2.45 1.35q-2.1.95-4.4 1.55l-.4.1-11.5 2.15-.15.3-.1.2m14.2-18.4q1.2-4.05 3.3-7.6 1.05-1.8 1.35-3.75L48.3 40.55q.95.2 1.95.9l.2.2q.5.4 1.25.6l.7.25 5.05-4.25"/><path fill="#fff" d="M25.3 50.9q4.45-2.2 6.7-5.3l-2.55-.2q2.5-2.2 4.4-4.55l-2.75-.55q3.1-2.05 5.45-4.75l-2.35-.95q1.95-.75 4-1.25l1.25-.35-.7-.85-1.7-1.95-.95 1.05q-2 2.25-3.25 4.95l-.75 1.55-1.45 3.05-1.95 4.25L26.95 48q-1 1.35-1.65 2.9m2.55-18.15l-.3 1.4 4.25-4.2q2.65-2.9 5.7-5.35l-6 3.35q-2.85 1.7-3.65 4.8"/><path fill="url(#a)" d="M3.25 27.55L4.5 35.4l1.55 6.55Q7 45.7 7.6 49.6l1.95 12.65q.55 3.7 2 7.05l1.1 2.35-.3-3.05.3-3.85.2-1.45q.45-2.4 1.7-4.05l.35-.45-1.4-1.6-.75-1.25q-.8-2.4-2.05-4.65-1.5-2.7-2.15-5.7-.8-3.55-2.1-6.95-1.35-3.5-2.25-7.05l-.95-4.05"/><path fill="url(#b)" d="M12.65 64.75q.25-.8.75-1.45-.3 1.4.5 2.6 1.55 2.25 2.7 5.35 1.05 2.75 3.15 4.85l2.5 2.6q-.05-5.25 1.9-9.8l-5.6-6-.9-.9-1.2-1-1.55-2.2-.35.45q-1.25 1.65-1.7 4.05l-.2 1.45M25.9 83l2.2 1.95 4.4 3 5.3-5.75-1.65-1.1-6-5.95q-2.6 3.4-4.05 7.6l-.2.25"/><path fill="url(#c)" d="M22.5 30.25l-1.15.85q-2.8 1.95-4.05 4.95-1.25 3.15-.55 6.5.7 3.25 2.75 5.75t5.05 3.6l.3.15.45-1.15q.65-1.55 1.65-2.9l1.75-2.95 1.95-4.25 1.45-3.05q-1.15.6-2.15 1.65l-3 2.9q-1.55 1.9-3.85 3l-1.65.5L22.5 42q.8-2.6 2.2-5.55-1.15 1.4-2.85 2.2L19.65 40l-1.1 1.05q.65-2.45 1.9-6 .9-2.45 2.05-4.8"/><path fill="url(#d)" d="M22.5 30.25q-1.15 2.35-2.05 4.8-1.25 3.55-1.9 6l1.1-1.05 2.2-1.35q1.7-.8 2.85-2.2-1.4 2.95-2.2 5.55l-1.05 3.8 1.65-.5q2.3-1.1 3.85-3l3-2.9q1-1.05 2.15-1.65l.75-1.55q1.25-2.7 3.25-4.95l.95-1.05.75-.75 1.25-1.3 1.35-1.2q.95-.8 2.05-1l.3-.05-2.7 3.9-1.3 2.35.7.85-1.25.35q-1 2.05-1.7 4.25-.9 2.6-2.35 5-2.5 3.95-3.65 7.75l-.35 1.6q1.5-.5 2.65-1.55l1.65-1.5q1.05-.95 1.5-2.35 1.1-3.25 2.55-5.4l.2-.3h-.1l7.45-15.9q-2.2-4-2.9-7.65-.6 1.3-1.1 1.4l-2.4-4.15-.7.7q-2.15-.9-2.95.15-.45.55-.5 1.7-.1 3.45-2.4 6.05-2.05 2.35-4.8 3.4l-2 1.1-3.8 2.6M49.1 92.7l9.4 1.35 5.3.7 1.15.05q-.25-2.2-1-4.55l-1.8-5.75-2 .35-5.2.35-.45 2.35-3.05.15 3.05-.15.45-2.35q.6-2.7 1.3-4.65.25-.8.95-1.45l4.2-4.2 1.2-.95q1.7-1.1 3.95-1.5l.45-.1q3.6-.8 3.55-4.2 0-1.7-1.05-1.95l-3.05-.8q-.7-.25-1-1.35l-.8-1.1.5-.45q.7-1.05 2.35-1.35 3.3-.55 6.15 1.2.9.6 1.6 1.8 1.8 2.9 2.05 6.2l-.05 2.15q2.55 1.3 4.65 3.75.55-1.4-.85-3.4-.6-.9-1.5-1.25 1.65-1.55 2.1-3.9.3-1.4.8-2l.15-.2q1.8-1.65.4-4.05l-1.3-1.85-1.5-1.4q.55-1.3-.8-2.45-1.4-1.25-3.7-1.35l-1.65-.7-.65-.15-3.6-.4q-1.4.1-2.3 1.05-1.65 1.65-2.7.95l-.2-.15-1.55 1.2-1.55 1-.5.2.5-.2 1.55-1L64.6 55q-.65-.45-.95-1.2L51.9 56.9l-5.95.7-2.5.25.45 3.4q.45 3.2 2.2 5.9 1.15 1.65 2.8 2.1l4.75-2.75q2.95-1.55 6.15-.75l1.2.35 3.25.8.8.15q1.15.35.5 1.4l-.9 1q-1.35 1.2-2.9 1.85l-1.25.35q-3.5.8-6.2 3.15-3.1 2.7-6.7 3.2-2.4.4-4.95 0l-.9-.05 1.75 1 .2.1.8.15q.75.1 1.3.8l.5.75 1.05 1.95.85 2.05.3 1q1.45 1.45 2.95 1.95l-1.85 1.7q-.6.4-.6 1.2l.1 2.1m5.6-71.75l-3.3.75-7.65 18.05h.05l1.8 1.15q1.35-.7 2.7-.35L62.1 26.9l.05-1.65-1.8.15-1.05 1.1-.1-3.5-3 2.7q-2.1 1.9-2.25 1.55l.75-6.3m18.9 57.8l-3.3 2.55q-1.95 1.2-4.15 2.05l1.65 4.1q1.15 3.15 1.05 5.35l.4-.1q3.4 0 4.2-2.85l.25-1.8q0-1.35.6-2.4 1-1.85 2.75-3.6l-3.45-3.3M52.4 42.5q2.8 1.05 1.9 2.7l-1.55 2q-1.25 1.1-3 1.65-2.4.8-3.8 2.95l-2.45 4.35L55 54l.4-.1q2.3-.6 4.4-1.55L62.25 51l-.85-.35-1.55-.2q1.9-.1 3.35-1.5 1.45-1.4.2-4.1-.9-1.75-2.75-1.9l.9-.8q2.35-2.45.9-4.85l-2.95.1-2.1.95.05-.1-5.05 4.25m-24.55-9.75q.8-3.1 3.65-4.8l6-3.35q-3.05 2.45-5.7 5.35l-4.25 4.2.3-1.4m28.8 27.4q.55 1.1 1.65 2l.3.2q2.3 1.7 5.1.95l.95-.35-.95.35q-2.8.75-5.1-.95l-.3-.2q-1.1-.9-1.65-2"/><path fill="url(#e)" d="M45.6 40.9l1.3 1.2q.75.9.95 1.9l.55 1.85.7 1.45-4.15 3.15q-2.2 1.9-1.75 5.75l.05.2.1.05.15-.3 2.45-4.35q1.4-2.15 3.8-2.95 1.75-.55 3-1.65l1.55-2q.9-1.65-1.9-2.7l-.7-.25q-.75-.2-1.25-.6l-.2-.2q-1-.7-1.95-.9-1.35-.35-2.7.35m6.85 4.85l-.3.1q-1.6.55-3.05 1.45 1.45-.9 3.05-1.45l.3-.1"/><path fill="url(#f)" d="M48.9 69.25q1.15.3 2.6 0 3.25-.7 6.15-.05-.8 1.55-2.55 2.2l-5.8 2.15q-2.95 1.2-6.15 1.1-1.75-.05-1.85 1.55-.1 1.05.45 1.75l.9.05q2.55.4 4.95 0 3.6-.5 6.7-3.2 2.7-2.35 6.2-3.15l1.25-.35q1.55-.65 2.9-1.85l.9-1q.65-1.05-.5-1.4l-.8-.15-3.25-.8-1.2-.35q-3.2-.8-6.15.75l-4.75 2.75"/><path fill="url(#g)" d="M32.5 87.95l-1.2 1.2q1.55 1.95 3.45 3.6l2.55 2.4q2.7 2.7 6.3 3.6l1.5.4 4.85.75 3.8.2v-.2q-2.3-.65-3.6-3.15l-.6-1.5-.45-2.55-.1-2.1q0-.8.6-1.2l1.85-1.7q-1.5-.5-2.95-1.95l-.3-1-.85-2.05-2.75 2.7 2.75-2.7-1.05-1.95-.5-.75q-.55-.7-1.3-.8l-.8-.15-.2-.1q-2.6.6-4.7 2.35l-1 .9-5.3 5.75m7-1.75l.25.05-.25-.05m5.45 9.5l3.55 2.35q2.35 1.75 5.25 1.85-2.9-.1-5.25-1.85l-3.55-2.35m-5.2-9.45q.95-.05 2.15-1.45 2-2.45 4.4-4.05-2.4 1.6-4.4 4.05-1.2 1.4-2.15 1.45"/><path fill="url(#h)" d="M48.4 20.15l.05-1.05.55-1.45q.8-1.9 1.95-4.1l2.95-6.8q.7-1.8.7-3.65l.05-3.1q-.05 1.8-1.7 2.85l-5.15 3.4-1.5 1.25q-1.6 1.3-2.75 2.9l-3.9 4.15 2.4 4.15q.5-.1 1.1-1.4.7 3.65 2.9 7.65l.65 1.2q1.15-2.2 1.45-5l.25-1"/><path fill="url(#i)" d="M67.2 48.65l-.7-2q-1.7-5.2-1.9-10.75v-.65l.15-8-.1-1.6-.05-.25-.2-1.1-.4-1.15q-.5-1.35-1.4-2.1l-1.25-.7-3.25-.1-3.4.7-.75 6.3q.15.35 2.25-1.55l3-2.7.1 3.5 1.05-1.1 1.8-.15-.05 1.65q-.3 1.95-1.35 3.75-2.1 3.55-3.3 7.6l-.05.1 2.1-.95 2.95-.1q1.45 2.4-.9 4.85l-.9.8q1.85.15 2.75 1.9 1.25 2.7-.2 4.1-1.45 1.4-3.35 1.5l1.55.2.85.35q.95.55 1.2 2l.2.8q.3.75.95 1.2l1-.7q1.2-.75 1.7-1.75.85-1.5.1-3.45l-.2-.45"/><path fill="url(#j)" d="M66.5 46.65l13.3-3.25 8.35-3.1 3.15-1.45-3.75-1.6q-4.2-1.6-8.7-2.5l-3.05-.6-9.3.4-1.9.8v.55q.2 5.55 1.9 10.75"/><path fill="url(#k)" d="M64.6 35.25l1.8-1q2.35-1.25 5.1-2.3l6.85-2.8q3.65-1.75 6.6-3.6l3.45-2.4-23.65 4.1-.15 8"/><path fill="url(#l)" d="M64.75 25.5q1.6-2.6 3.5-5.05 3.4-4.35 7-8.05l.8-.85.15-.1 2.65-2.5-2.65 1.75-2.8 1.55q-6 2.95-11.15 7.3l-.9.8 1.25.7q.9.75 1.4 2.1l.4 1.15.2 1.1.15.1"/><path fill="url(#m)" d="M66.8 94.7l3-.7q2.35-.75 4.4-2.2l1.15-.95q2.55-2.2 4.6-4.75l-2.9-4.05q-1.75 1.75-2.75 3.6-.6 1.05-.6 2.4l-.25 1.8q-.8 2.85-4.2 2.85l-.4.1-.3.1-.5.4-1.25 1.4m17.55-14.95l1.75-2.55q1.9-2.7 2.15-5.4l.05-3.3-.45-3.25-1.7-5.6q-1.15-3.15-3.1-5.9-1.05-1.55-2.4-2.85l-1.45-1.3q-1.8-1.45-4.05-1.8l-1.55-.1-2.7.2-3.7.75.2.45q.75 1.95-.1 3.45-.5 1-1.7 1.75l-1 .7.2.15q1.05.7 2.7-.95.9-.95 2.3-1.05l3.6.4.65.15 1.65.7q2.3.1 3.7 1.35 1.35 1.15.8 2.45l1.5 1.4 1.3 1.85q1.4 2.4-.4 4.05l-.15.2q-.5.6-.8 2-.45 2.35-2.1 3.9.9.35 1.5 1.25 1.4 2 .85 3.4l2.45 3.5"/><path fill="url(#n)" d="M53.75 100.1h.1l-.1-.2v.2"/><path fill="none" stroke="#9F3385" stroke-width=".05" stroke-linecap="round" stroke-miterlimit="3" d="M12.65 71.65l-.3-3.05.3-3.85q.25-.8.75-1.45-.3 1.4.5 2.6 1.55 2.25 2.7 5.35 1.05 2.75 3.15 4.85l2.5 2.6L25.9 83l2.2 1.95m15.5 13.8l1.5.4m8.65.95h.1l.85-.05-.95-.15m10.05-5.15l1.15.05 1.85-.1m13.15-8.6v-.05l4.4-6.3 1.75-2.55q1.9-2.7 2.15-5.4l.05-3.3-.45-3.25-1.7-5.6q-1.15-3.15-3.1-5.9-1.05-1.55-2.4-2.85l-1.45-1.3q-1.8-1.45-4.05-1.8l-1.55-.1-2.7.2-3.7.75-.7-2m-1.9-11.3v-.1l1.8-1q2.35-1.25 5.1-2.3m-6.75-4.7l-.1-1.6.1-.15m11.3-13.95l.15-.1m-13.95 8.1l-.9.8-3.25-.1-3.4.7-3.3.75h-1.25l-1.05-.6-.7-.95m-8.75-5.6l-.7.7q-2.15-.9-2.95.15-.45.55-.5 1.7-.1 3.45-2.4 6.05-2.05 2.35-4.8 3.4l-2 1.1-3.8 2.6-1.15.85q-2.8 1.95-4.05 4.95-1.25 3.15-.55 6.5.7 3.25 2.75 5.75t5.05 3.6l.3.15.45-1.15m12.9-17.55q-1 2.05-1.7 4.25-.9 2.6-2.35 5-2.5 3.95-3.65 7.75l-.35 1.6q1.5-.5 2.65-1.55l1.65-1.5q1.05-.95 1.5-2.35 1.1-3.25 2.55-5.4l.2-.3q1.7-2.4 5.05-1.1h.05l1.8 1.15 1.3 1.2q.75.9.95 1.9l.55 1.85.7 1.45-4.15 3.15q-2.2 1.9-1.75 5.75l.05.2v.25l.2 1.2m5.45 11.4q1.15.3 2.6 0 3.25-.7 6.15-.05-.8 1.55-2.55 2.2l-5.8 2.15q-2.95 1.2-6.15 1.1-1.75-.05-1.85 1.55-.1 1.05.45 1.75l1.75 1 .2.1.8.15q.75.1 1.3.8l.5.75 1.05 1.95-2.75 2.7M30.15 75.15L29 73.75q-1.75-2.25-3.95-4.05l-.9-.8-5.6-6-.9-.9-1.2-1-1.55-2.2-1.4-1.6-.75-1.25q-.8-2.4-2.05-4.65-1.5-2.7-2.15-5.7-.8-3.55-2.1-6.95-1.35-3.5-2.25-7.05l-.95-4.05m44.1 55.15l.85 2.05.3 1q1.45 1.45 2.95 1.95m-11.7-1.45l-.25-.05m17.7-7.1l4.2-4.2 1.2-.95q1.7-1.1 3.95-1.5l.45-.1q3.6-.8 3.55-4.2 0-1.7-1.05-1.95l-3.05-.8q-.7-.25-1-1.35l-.8-1.1.5-.45m12.15 7.85l-.05 2.15Q77 74.4 76 75.85l-1.5 2-.9.9m-7.45 4.6l-.1.05-3.9 1.1M32.1 37.75l-1.45 3.05-1.95 4.25L26.95 48q-1 1.35-1.65 2.9m6.8-13.15l.75-1.55q1.25-2.7 3.25-4.95l.95-1.05m2-2.05l1.35-1.2q.95-.8 2.05-1l.3-.05-2.7 3.9-1.3 2.35m-.95-2.7l1.25-1.3m-1.25 1.3l-.75.75m27.55-4.8l-.2-1.1-.4-1.15q-.5-1.35-1.4-2.1l-1.25-.7m3.25 5.05l.05.25M64.6 35.9q.2 5.55 1.9 10.75m-1.75-19.4l-.15 8m.05 27.7l-.95.35q-2.8.75-5.1-.95l-.3-.2q-1.1-.9-1.65-2M64.6 55l-1.55 1.2-1.55 1-.5.2M49.1 47.3q1.45-.9 3.05-1.45l.3-.1m14.75 2.9l.2.45q.75 1.95-.1 3.45-.5 1-1.7 1.75l-1 .7"/><path fill="none" stroke="#C40000" stroke-width=".05" stroke-linecap="round" stroke-miterlimit="3" d="M12.65 71.65l.5 3.3q.35 2.35 1.5 4.4l2.45 5 .75 1.55L12 79.2Q9.45 75.95 8.15 72 7.1 68.65 5.7 65.4l-1.65-3.95Q1.7 55.9.8 49.95l-.65-12Q-.15 34.3.1 30.6l1.85-15.65q.05 6.35 1.3 12.6"/><path fill="none" stroke="#8B4C00" stroke-width=".05" stroke-linecap="round" stroke-miterlimit="3" d="M32.5 87.95l-1.2 1.2q1.55 1.95 3.45 3.6l2.55 2.4q2.7 2.7 6.3 3.6m1.5.4l4.85.75 3.8.2m0-.2q-2.3-.65-3.6-3.15l-.6-1.5-.45-2.55m17.4-46.05l13.3-3.25 8.35-3.1 3.15-1.45-3.75-1.6m-21.05-2.7l-1.9.8v.55m6.9-3.95l6.85-2.8q3.65-1.75 6.6-3.6l3.45-2.4M64.75 25.5q1.6-2.6 3.5-5.05 3.4-4.35 7-8.05l.8-.85m.15-.1l2.65-2.5-2.65 1.75-2.8 1.55q-6 2.95-11.15 7.3m-13.85.6l.05-1.05.55-1.45q.8-1.9 1.95-4.1l2.95-6.8q.7-1.8.7-3.65l.05-3.1q-.05 1.8-1.7 2.85l-5.15 3.4-1.5 1.25m-2.8 71.45q-2.6.6-4.7 2.35l-1 .9-5.3 5.75m18.95-.25l-1.85 1.7q-.6.4-.6 1.2l.1 2.1m-2.8-11.95q-2.4 1.6-4.4 4.05-1.2 1.4-2.15 1.45m14 13.65q-2.9-.1-5.25-1.85l-3.55-2.35"/><path fill="none" stroke="#BA6B00" stroke-width=".05" stroke-linecap="round" stroke-miterlimit="3" d="M87.55 37.25q-4.2-1.6-8.7-2.5l-3.05-.6-9.3.4m21.9-11.4l-23.65 4.1M46.3 7.5q-1.6 1.3-2.75 2.9l-3.9 4.15"/><path fill="none" stroke="#B03115" stroke-width=".05" stroke-linecap="round" stroke-miterlimit="3" d="M28.1 84.95l4.4 3m16.6 4.75l9.4 1.35 5.3.7m3-.05l3-.7q2.35-.75 4.4-2.2l1.15-.95q2.55-2.2 4.6-4.75M37.8 82.2l-1.65-1.1-6-5.95m24.8 10.05l5.2-.35 2-.35m-10.7 3.2l3.05-.15.45-2.35q.6-2.7 1.3-4.65.25-.8.95-1.45m16.4-.35l-3.3 2.55q-1.95 1.2-4.15 2.05"/><path fill="none" stroke="#851F5D" stroke-width=".05" stroke-linecap="round" stroke-miterlimit="3" d="M43.45 57.85l.45 3.4q.45 3.2 2.2 5.9 1.15 1.65 2.8 2.1m16.25-6.75q.7-1.05 2.35-1.35 3.3-.55 6.15 1.2.9.6 1.6 1.8 1.8 2.9 2.05 6.2"/><path fill="none" stroke="#999" stroke-width=".05" stroke-linecap="round" stroke-miterlimit="3" d="M25.3 50.9q4.45-2.2 6.7-5.3l-2.55-.2q2.5-2.2 4.4-4.55l-2.75-.55q3.1-2.05 5.45-4.75l-2.35-.95q1.95-.75 4-1.25m-1.15-3.15l1.7 1.95.7.85-1.25.35m.85-5.2l.25.45-1.5.85"/><path fill="none" stroke="#6C0614" stroke-width=".05" stroke-linecap="round" stroke-miterlimit="3" d="M27.85 32.75q.8-3.1 3.65-4.8l6-3.35q-3.05 2.45-5.7 5.35l-4.25 4.2.3-1.4"/></svg>