<svg xmlns="http://www.w3.org/2000/svg" viewBox="0 0 56.0 57.6" width="56" height="57.6"><defs><radialGradient gradientUnits="userSpaceOnUse" r="819.2" cx="0" cy="0" spreadMethod="pad" gradientTransform="matrix(.01 0 0 .01 42 15.25)" id="a"><stop offset="0" stop-color="#f00"/><stop offset=".482"/><stop offset=".569" stop-color="#630"/><stop offset=".667" stop-color="#c30"/><stop offset="1"/></radialGradient><radialGradient gradientUnits="userSpaceOnUse" r="819.2" cx="0" cy="0" spreadMethod="pad" gradientTransform="matrix(.016 0 0 .016 41.55 17.1)" id="b"><stop offset="0" stop-color="#f00"/><stop offset=".482" stop-color="#fff"/><stop offset=".569" stop-color="#630"/><stop offset=".667" stop-color="#c30"/><stop offset="1" stop-color="#fff"/></radialGradient><radialGradient gradientUnits="userSpaceOnUse" r="819.2" cx="0" cy="0" spreadMethod="pad" gradientTransform="matrix(.018 0 0 .018 42.4 14.65)" id="c"><stop offset="0" stop-color="#f00"/><stop offset=".482" stop-color="#fff"/><stop offset=".569" stop-color="#630"/><stop offset=".667" stop-color="#c30"/><stop offset="1" stop-color="#fff"/></radialGradient><radialGradient gradientUnits="userSpaceOnUse" r="819.2" cx="0" cy="0" spreadMethod="pad" gradientTransform="matrix(.006 0 0 .006 29.1 28.15)" id="d"><stop offset="0" stop-color="#f00"/><stop offset=".482"/><stop offset=".569" stop-color="#630"/><stop offset=".667" stop-color="#c30"/><stop offset="1"/></radialGradient><radialGradient gradientUnits="userSpaceOnUse" r="819.2" cx="0" cy="0" spreadMethod="pad" gradientTransform="matrix(.016 0 0 .016 15.9 18.25)" id="e"><stop offset="0" stop-color="#f00"/><stop offset=".482" stop-color="#fff"/><stop offset=".569" stop-color="#630"/><stop offset=".667" stop-color="#c30"/><stop offset="1" stop-color="#fff"/></radialGradient><radialGradient gradientUnits="userSpaceOnUse" r="819.2" cx="0" cy="0" spreadMethod="pad" gradientTransform="matrix(.018 0 0 .018 14.9 15.95)" id="f"><stop offset="0" stop-color="#f00"/><stop offset=".482" stop-color="#fff"/><stop offset=".569" stop-color="#630"/><stop offset=".667" stop-color="#c30"/><stop offset="1" stop-color="#fff"/></radialGradient><radialGradient gradientUnits="userSpaceOnUse" r="819.2" cx="0" cy="0" spreadMethod="pad" gradientTransform="matrix(.004 0 0 .004 35.45 27.9)" id="g"><stop offset="0" stop-color="#f00"/><stop offset=".157" stop-color="#039"/><stop offset=".349" stop-color="#690"/><stop offset=".612" stop-color="#600"/><stop offset="1"/></radialGradient><radialGradient gradientUnits="userSpaceOnUse" r="819.2" cx="0" cy="0" spreadMethod="pad" gradientTransform="matrix(.008 0 0 .008 42.4 27.8)" id="h"><stop offset="0" stop-color="#f00"/><stop offset=".482" stop-color="#fff"/><stop offset=".569" stop-color="#630"/><stop offset=".667" stop-color="#c30"/><stop offset="1" stop-color="#fff"/></radialGradient><radialGradient gradientUnits="userSpaceOnUse" r="819.2" cx="0" cy="0" spreadMethod="pad" gradientTransform="matrix(.02 0 0 .02 49.3 22.3)" id="i"><stop offset="0" stop-color="#f00"/><stop offset=".157" stop-color="#039"/><stop offset=".349" stop-color="#690"/><stop offset=".612" stop-color="#600"/><stop offset="1"/></radialGradient><radialGradient gradientUnits="userSpaceOnUse" r="819.2" cx="0" cy="0" spreadMethod="pad" gradientTransform="matrix(.013 0 0 .013 39.85 35.35)" id="j"><stop offset="0" stop-color="#f00"/><stop offset=".482" stop-color="#fff"/><stop offset=".569" stop-color="#630"/><stop offset=".667" stop-color="#c30"/><stop offset="1" stop-color="#fff"/></radialGradient><radialGradient gradientUnits="userSpaceOnUse" r="819.2" cx="0" cy="0" spreadMethod="pad" gradientTransform="matrix(.007 0 0 .007 46.3 41.5)" id="k"><stop offset="0" stop-color="#f00"/><stop offset=".157" stop-color="#039"/><stop offset=".349" stop-color="#690"/><stop offset=".612" stop-color="#600"/><stop offset="1"/></radialGradient><radialGradient gradientUnits="userSpaceOnUse" r="819.2" cx="0" cy="0" spreadMethod="pad" gradientTransform="matrix(.009 0 0 .009 50.8 48.65)" id="l"><stop offset="0" stop-color="#f00"/><stop offset=".482" stop-color="#fff"/><stop offset=".569" stop-color="#630"/><stop offset=".667" stop-color="#c30"/><stop offset="1" stop-color="#fff"/></radialGradient><radialGradient gradientUnits="userSpaceOnUse" r="819.2" cx="0" cy="0" spreadMethod="pad" gradientTransform="matrix(.02 0 0 .02 49.3 22.3)" id="m"><stop offset="0" stop-color="#f00"/><stop offset=".482" stop-color="#fff"/><stop offset=".569" stop-color="#630"/><stop offset=".667" stop-color="#c30"/><stop offset="1" stop-color="#fff"/></radialGradient><linearGradient gradientUnits="userSpaceOnUse" x1="-819.2" x2="819.2" gradientTransform="matrix(.006 0 0 .008 36 35.3)" id="n"><stop offset="0" stop-color="#f00"/><stop offset=".482" stop-color="#fff"/><stop offset=".569" stop-color="#630"/><stop offset=".667" stop-color="#c30"/><stop offset="1" stop-color="#fff"/></linearGradient><linearGradient gradientUnits="userSpaceOnUse" x1="-819.2" x2="819.2" gradientTransform="matrix(.003 0 0 .01 32.45 38.85)" id="o"><stop offset="0" stop-color="#0f0"/><stop offset=".22"/><stop offset=".455" stop-color="#00BE00"/><stop offset=".831" stop-color="#630"/></linearGradient><linearGradient gradientUnits="userSpaceOnUse" x1="-819.2" x2="819.2" gradientTransform="matrix(.006 0 0 .009 21.4 35.6)" id="p"><stop offset="0" stop-color="#f00"/><stop offset=".482" stop-color="#fff"/><stop offset=".569" stop-color="#630"/><stop offset=".667" stop-color="#c30"/><stop offset="1" stop-color="#fff"/></linearGradient><linearGradient gradientUnits="userSpaceOnUse" x1="-819.2" x2="819.2" gradientTransform="matrix(.004 0 0 .016 23.95 43.1)" id="q"><stop offset="0" stop-color="#0f0"/><stop offset=".22"/><stop offset=".455" stop-color="#00BE00"/><stop offset=".831" stop-color="#630"/></linearGradient><linearGradient gradientUnits="userSpaceOnUse" x1="-819.2" x2="819.2" gradientTransform="matrix(.009 0 0 .016 34.5 44.15)" id="r"><stop offset="0" stop-color="#0f0"/><stop offset=".22"/><stop offset=".455" stop-color="#00BE00"/><stop offset=".831" stop-color="#630"/></linearGradient><linearGradient gradientUnits="userSpaceOnUse" x1="-819.2" x2="819.2" gradientTransform="matrix(.002 0 0 .006 27.65 51.35)" id="s"><stop offset="0" stop-color="#0f0"/><stop offset=".22"/><stop offset=".455" stop-color="#00BE00"/><stop offset=".831" stop-color="#630"/></linearGradient><radialGradient gradientUnits="userSpaceOnUse" r="819.2" cx="0" cy="0" spreadMethod="pad" gradientTransform="matrix(.02 0 0 .02 7.4 24.55)" id="t"><stop offset="0" stop-color="#f00"/><stop offset=".157" stop-color="#039"/><stop offset=".349" stop-color="#690"/><stop offset=".612" stop-color="#600"/><stop offset="1"/></radialGradient><radialGradient gradientUnits="userSpaceOnUse" r="819.2" cx="0" cy="0" spreadMethod="pad" gradientTransform="matrix(.01 0 0 .01 15.45 16.3)" id="u"><stop offset="0" stop-color="#f00"/><stop offset=".482"/><stop offset=".569" stop-color="#630"/><stop offset=".667" stop-color="#c30"/><stop offset="1"/></radialGradient><radialGradient gradientUnits="userSpaceOnUse" r="819.2" cx="0" cy="0" spreadMethod="pad" gradientTransform="matrix(.008 0 0 .008 15 28.95)" id="v"><stop offset="0" stop-color="#f00"/><stop offset=".482" stop-color="#fff"/><stop offset=".569" stop-color="#630"/><stop offset=".667" stop-color="#c30"/><stop offset="1" stop-color="#fff"/></radialGradient><radialGradient gradientUnits="userSpaceOnUse" r="819.2" cx="0" cy="0" spreadMethod="pad" gradientTransform="matrix(.004 0 0 .004 22.4 28.35)" id="w"><stop offset="0" stop-color="#f00"/><stop offset=".157" stop-color="#039"/><stop offset=".349" stop-color="#690"/><stop offset=".612" stop-color="#600"/><stop offset="1"/></radialGradient><radialGradient gradientUnits="userSpaceOnUse" r="819.2" cx="0" cy="0" spreadMethod="pad" gradientTransform="matrix(.013 0 0 .013 17.5 35.85)" id="x"><stop offset="0" stop-color="#f00"/><stop offset=".482" stop-color="#fff"/><stop offset=".569" stop-color="#630"/><stop offset=".667" stop-color="#c30"/><stop offset="1" stop-color="#fff"/></radialGradient><radialGradient gradientUnits="userSpaceOnUse" r="819.2" cx="0" cy="0" spreadMethod="pad" gradientTransform="matrix(.008 0 0 .008 10.75 42.7)" id="y"><stop offset="0" stop-color="#f00"/><stop offset=".157" stop-color="#039"/><stop offset=".349" stop-color="#690"/><stop offset=".612" stop-color="#600"/><stop offset="1"/></radialGradient><radialGradient gradientUnits="userSpaceOnUse" r="819.2" cx="0" cy="0" spreadMethod="pad" gradientTransform="matrix(.009 0 0 .009 5.75 50.3)" id="z"><stop offset="0" stop-color="#f00"/><stop offset=".482" stop-color="#fff"/><stop offset=".569" stop-color="#630"/><stop offset=".667" stop-color="#c30"/><stop offset="1" stop-color="#fff"/></radialGradient></defs><path d="M26.75 24.4q-.55-2.35-.8-5.1-.3-2.9-1.1-5.6L23 8.35l-.1-.2q-1-2.55-2.85-4.65L17.6 1.1l4.25 2.85q1.4 1 2.2 2.6l2.45 6q.6 2 .55 4.3l-.2 7.55h-.1m3.35-.5q1.3-2.4 1.65-5.1l.6-5.45q.25-2.9 1.35-5.55v-.05q1.05-2.6 2.8-4.75 1.4-1.75 3.2-3-1.65 1.8-2.7 4.1l-1.6 3.4-.15.4q-.85 1.85-1.5 4.2-.7 2.6-.7 4.85-.05 2.25-.65 4.3l-1.2 2.8-.15.15q-.6.75-1.05-.1l.1-.2"/><path fill="url(#a)" d="M45.1 10.5h.35q1.1.15 2 .7l.65.5q-1.25.7-2.55 2.05L41.7 17.4q-2 1.7-4.25 2.35h-.05l-1 .25-.5.05 9.15-9.55h.05"/><path fill="url(#b)" d="M45.1 10.5l2.3-2q1.15-1 2.6-1.6 1.4 2.05.65 5.35l-1.2 3.6-.95 1.8-.05.05-3 4.45-.25.3q-1.25 1.6-2.85 2.8l-1 .75-1.25.4-1.5.05-.35.05-5.3.8q.15-.85-.25-1.55l-.5-.8v-.05l3.7-4.85.5-.05 1-.25h.05q2.25-.65 4.25-2.35l3.85-3.65q1.3-1.35 2.55-2.05l-.65-.5q-.9-.55-2-.7h-.35"/><path fill="url(#c)" d="M45.1 10.5h-.05l-9.15 9.55-3.7 4.85-.1-.05q1-3 2.45-5.5l3.3-5q1.65-2.2 3.7-4l1.05-.9 8.25-4.7q1.4-.65 1.75.15l.1.35q.1.8-1.05 1.1l-.4.1L50 6.9q-1.45.6-2.6 1.6l-2.3 2"/><path fill="url(#d)" d="M27.85 32.3l-1-.75v-.2q-.05-.55-.65-.95v-.05q-1.2-.3-.9-1.55v-.15l-.05-.3V27.3q.1-1.4 1-2.4l.05-.05.1-.1.35-.25.1.2v-.3l2.35-.45.9-.05-.1.2q.45.85 1.05.1l.15-.15.9.8.1.1.5.8q.4.7.25 1.55l-.25.85-.15.3-.75 1.9-.05.1v.15l-.4.95-.95-1 .35 1.3-1.25.55-.55-.65-.7-.65q-.55-.55-.7-.25l.3 1.45"/><path fill="url(#e)" d="M26.2 24.85l.05.05q-.9 1-1 2.4l-1.9-.25L19.6 27l-1.85.15h-.15l-1.4-.3-1.15-.55q-1.75-1-3.1-2.45l-.25-.25-3.35-4v-.05L7.3 17.9q-.9-1.6-1.4-3.4-.85-3.1.75-5.25 1.55.4 2.85 1.25l2.55 1.65-.4.1q-1.2.25-2.15.9l-.75.55q1.35.55 2.8 1.7l4.25 3.15q2.2 1.4 4.7 1.8l1.15.15h.55l1.95 1.8 2.05 2.55"/><path fill="url(#f)" d="M26.2 24.85l-2.05-2.55-1.95-1.8v-.05l-8-6.8-2.15-1.5L9.5 10.5q-1.3-.85-2.85-1.25l-1.35-.3-.5-.05q-1.25-.2-1.15-.95l.1-.4q.4-.8 1.95-.3l5.35 1.85q2.6.95 4.9 2.5v.05q2.2 1.5 4.05 3.5l3.65 4.45q1.75 2.5 2.55 5.25"/><path fill="url(#g)" d="M32.95 27.3l5.3-.8q-.55.65-.45 1.6l.15 1.2-2.25-.75-3-.4.25-.85"/><path fill="url(#h)" d="M45.45 22.15q1.65 2.55 1.55 5.3-.1 2.6-1.6 4.55l-.55.6q-.7.7-2.25.85h-.1l-.15-.1-.45-.4q-1.15-1.05-2-2.3l-.05-.1-1.9-1.25-.15-1.2q-.1-.95.45-1.6l.35-.05 1.5-.05 1.25-.4 1-.75q1.6-1.2 2.85-2.8l.25-.3"/><path fill="url(#i)" d="M45.45 22.15l3-4.45.05-.05.95-1.8 1.2-3.6q.75-3.3-.65-5.35l1.25-.45q1.65 2.5 2 4.95l.35 5.95q-.1 1.85.45 3.45l2 4.35q-1.45-2.75-4.4-2.4-2.4.25-1.3 2.7l1.65 4.8 1.7 7.9q-1-1.4-3-1.7l-.9-.1h-1.85l-.75-.4-.35-.1-.1-.05-.45-.15q-1.45-.55-2.9-1.55l-.65-.45-.15-.15v-.05q1.55-.15 2.25-.85l.55-.6q1.5-1.95 1.6-4.55.1-2.75-1.55-5.3"/><path fill="url(#j)" d="M41.85 42.25l-1.15-3.4-1.05-4.3q-.4-1.5-1.25-2.6-1.55-1.85-3.7-2.65l-2.15-.85.15-.3 3 .4 2.25.75 1.9 1.25.05.1q.85 1.25 2 2.3l.45.4.15.1h.05l.05.05.15.15.65.45q1.45 1 2.9 1.55l.45.15.1.05.05.15.1.5.2 2-.55 1.85-.05.1q-.6 1-1.55 1.6l-2 .55-.45-.1-.75-.25"/><path fill="url(#k)" d="M41.85 42.25l.75.25.45.1 2-.55q.95-.6 1.55-1.6l.05-.1.55-1.85-.2-2-.1-.5-.05-.15.35.1.75.4q.8.55 1.35 1.55.85 1.55 1.2 3.65l.1.85.05.1.05 1.35-.05.55q-.3 2.45-2.85 2.75h-1l-1.35-.35q-1.1-.55-2-1.8l-1.6-2.75"/><path fill="url(#l)" d="M50.7 42.5l1.4 1.75L53.65 47q.65 1.5.95 3.15l.2 4.65-.6-1.05q-.8-1.1-1.95-1.85L49 49.6l-2.2-2.45h1q2.55-.3 2.85-2.75l.05-.55-.05-1.35h.05"/><path fill="url(#m)" d="M42.6 33.45v.05l-.05-.05h.05"/><path fill="url(#n)" d="M40.7 38.85l-.1.3-.9 2.95-.45-1-2.65-3.5q-1.45-1.65-3.3-2.75v-.25q-.05-1.05-1.95-3.05l.4-.95v-.15l.05-.1.75-1.9 2.15.85q2.15.8 3.7 2.65.85 1.1 1.25 2.6l1.05 4.3"/><path fill="url(#o)" d="M33.3 34.85q0 1.1.3 2.1l.95 4.25-.1 2.35q-.1 1.1-.6 2.1l-1.05 1.6-.8-2.65-.6-4.85v-.1l.2-.4.6-1.7.05-1.7q-.05-.8-.6-1.7l-.9-2.3-.35-1.3.95 1q1.9 2 1.95 3.05v.25"/><path fill="url(#p)" d="M25.45 34.15l-2.3 1.65q-1.35 1-2.3 2.55l-3.3 4.25q-.7-1.1-.9-2.3l1.3-4.75.1-.5q.45-1.5 1.4-2.65 1.65-2 4.1-3.05l1.7-.7h.05v.15q-.3 1.25.9 1.55v.05l-.3 2.15-.45 1.6"/><path fill="url(#q)" d="M25.45 34.15l.45-1.6.3-2.15q.6.4.65.95v.2l-.1 1.1-1.3 3.35q-.85 2.5-1.2 5.15l-.15 2.25.2 2.3.65 2.95.15 2.3-.15.95-.55 1.2-.95 1.4-2 1.35q.65-.95.9-2.05l.15-2.35-.45-2.2-.65-2.05q-.35-1.05-.3-2.1 0-1.2.35-2.35l4-8.6"/><path fill="url(#r)" d="M32.8 47.25l.05.1 2.25 5.8.6 1.15 1.1.85 3.5 1.7 1.25.75-.9-.05-6.5-1.5q-1.1-.3-2-1L30.7 53.4l-1.6-2.7-1.2-3.15-.3-1.3-.1-.95q-.05-1.15.05-2.3l.75-8.8-.45-1.9-.3-1.45q.15-.3.7.25l.7.65.55.65.45.7.7 1.7.45 2.05.3 2.8v.1l.6 4.85.8 2.65"/><path fill="url(#s)" d="M29.1 50.7q-.75.65-.7 1.8.05 1.15-.25 2.15l-.85 1.8-1-6.15q-.3-1.4.4-2.4l.9-1.65.3 1.3 1.2 3.15"/><path fill="url(#t)" d="M8.9 37.75l-2.05.2-.95.2q-2.2.55-3.3 2.05l1.85-7.95q.75-2.6 1.85-4.85 1.15-2.5-1.45-2.5-3.3 0-4.85 2.85l1.35-2.8.85-1.7q.55-1.6.5-3.4V17.9l.4-3.9q.4-2.45 2.2-5.05l1.35.3q-1.6 2.15-.75 5.25.5 1.8 1.4 3.4l1.05 1.65v.05l3.35 4q-1.85 2.7-1.75 5.35.1 2.55 1.8 4.25l.6.55 1.25.5 1.25.05v.05l-.9.7-1.9 1.2-1.8.8h-.1l-.05.05-1.2.65"/><path fill="url(#u)" d="M22.2 20.5h-.55l-1.15-.15q-2.5-.4-4.7-1.8l-4.25-3.15q-1.45-1.15-2.8-1.7l.75-.55q.95-.65 2.15-.9l.4-.1 2.15 1.5 8 6.8v.05"/><path fill="url(#v)" d="M11.7 23.6l.25.25q1.35 1.45 3.1 2.45l1.15.55 1.4.3h.15L19.6 27q.6.6.5 1.55l-.15 1.2q-1.15.55-2.1 1.4l-.1.1q-1.15 1.6-2.7 2.9l-.15.15h-.05l-1.25-.05-1.25-.5-.6-.55q-1.7-1.7-1.8-4.25-.1-2.65 1.75-5.35"/><path fill="url(#w)" d="M19.6 27l3.75.05 1.9.25v1.05l-1.1.05-1.75.35q-1.3.35-2.45 1l.15-1.2q.1-.95-.5-1.55"/><path fill="url(#x)" d="M16.65 40.3l-.95 2.35-.1.2-.75.3-.5.1-2.25-.3-1.7-1.35-.25-.4q-.4-.7-.4-1.4l.2-2 .15-.7.15-.05 1.8-.8 1.9-1.2.9-.7.05-.05.15-.15q1.55-1.3 2.7-2.9l.1-.1q.95-.85 2.1-1.4 1.15-.65 2.45-1l1.75-.35 1.1-.05.05.3h-.05l-1.7.7q-2.45 1.05-4.1 3.05-.95 1.15-1.4 2.65l-.1.5-1.3 4.75"/><path fill="url(#y)" d="M15.6 42.85l-1.75 2.85-2.2 1.95-.2.1-1.3.45-1.05.1q-2.85 0-3.15-2.4l-.05-1.2.05-.6.05-.15q.3-2.6 1.4-4.55.6-1 1.5-1.65l1.2-.65-.15.7-.2 2q0 .7.4 1.4l.25.4 1.7 1.35 2.25.3.5-.1.75-.3"/><path fill="url(#z)" d="M10.15 48.2q-1 1.4-2.4 2.6L4.2 53.45q-1.3.85-2.15 2.05l-.7 1.05L1.6 52q.3-1.65 1.05-3.2l1.7-2.9 1.55-1.85.05.05-.05.6.05 1.2q.3 2.4 3.15 2.4l1.05-.1"/><path fill="none" stroke="#734517" stroke-width=".05" stroke-linecap="round" stroke-linejoin="round" d="M51.25 6.45q1.65 2.5 2 4.95l.35 5.95q-.1 1.85.45 3.45l2 4.35q-1.45-2.75-4.4-2.4-2.4.25-1.3 2.7l1.65 4.8 1.7 7.9q-1-1.4-3-1.7l-.9-.1h-1.85q.8.55 1.35 1.55.85 1.55 1.2 3.65l.1.85.1.1 1.4 1.75L53.65 47q.65 1.5.95 3.15l.2 4.65-.6-1.05q-.8-1.1-1.95-1.85L49 49.6l-2.2-2.45-1.35-.35q-1.1-.55-2-1.8l-1.6-2.75-1.15-3.4-.1.3-.9 2.95-.45-1-2.65-3.5q-1.45-1.65-3.3-2.75m-5.45-2.55l-1-.75m-1.4 2.6l-2.3 1.65q-1.35 1-2.3 2.55l-3.3 4.25q-.7-1.1-.9-2.3l-.95 2.35-.1.2-1.75 2.85-2.2 1.95-.2.1-1.3.45q-1 1.4-2.4 2.6L4.2 53.45q-1.3.85-2.15 2.05l-.7 1.05L1.6 52q.3-1.65 1.05-3.2l1.7-2.9 1.55-1.85.1-.1q.3-2.6 1.4-4.55.6-1 1.5-1.65l-2.05.2-.95.2q-2.2.55-3.3 2.05l1.85-7.95q.75-2.6 1.85-4.85 1.15-2.5-1.45-2.5-3.3 0-4.85 2.85l1.35-2.8.85-1.7q.55-1.6.5-3.4V17.9l.4-3.9q.4-2.45 2.2-5.05l-.5-.05q-1.25-.2-1.15-.95l.1-.4q.4-.8 1.95-.3l5.35 1.85q2.6.95 4.9 2.5v.05q2.2 1.5 4.05 3.5l3.65 4.45q1.75 2.5 2.55 5.25m.05.05v-.05l.15-.1.35-.25v-.1m.1 0l2.35-.45.9-.05m1.1.15l.9.8q1-3 2.45-5.5l3.3-5q1.65-2.2 3.7-4l1.05-.9 8.25-4.7q1.4-.65 1.75.15l.1.35q.1.8-1.05 1.1l-.4.1L50 6.9q1.4 2.05.65 5.35l-1.2 3.6-.95 1.8-.05.05-3 4.45q1.65 2.55 1.55 5.3-.1 2.6-1.6 4.55l-.55.6q-.7.7-2.25.85m0 .05l.15.15.65.45q1.45 1 2.9 1.55l.45.15.1.05.35.1.75.4M35.9 20.05l-3.7 4.85v.05l.5.8q.4.7.25 1.55l5.3-.8.35-.05 1.5-.05 1.25-.4 1-.75q1.6-1.2 2.85-2.8l.25-.3M45.1 10.5l2.3-2q1.15-1 2.6-1.6M35.9 20.05l9.15-9.55h.05m-2.55 22.95h-.05l-.15-.1-.45-.4q-1.15-1.05-2-2.3l-.05-.1-1.9-1.25-2.25-.75-3-.4-.15.3 2.15.85q2.15.8 3.7 2.65.85 1.1 1.25 2.6l1.05 4.3m1.85-5.4l.05.05m8.05 9l.05 1.35-.05.55q-.3 2.45-2.85 2.75h-1m3.8-4.75l.05.1m-38.6-30.35L9.5 10.5q-1.3-.85-2.85-1.25-1.6 2.15-.75 5.25.5 1.8 1.4 3.4l1.05 1.65v.05l3.35 4 .25.25q1.35 1.45 3.1 2.45l1.15.55 1.4.3h.15L19.6 27l3.75.05 1.9.25q.1-1.4 1-2.4m.05-.05h-.05M22.2 20.5l1.95 1.8 2.05 2.55m-14.15-12.7l2.15 1.5 8 6.8v.05m4.65 3.9v.3l-.1-.2M6.65 9.25l-1.35-.3m14.65 20.8q1.15-.65 2.45-1l1.75-.35 1.1-.05V27.3M11.7 23.6q-1.85 2.7-1.75 5.35.1 2.55 1.8 4.25l.6.55 1.25.5 1.25.05h.05l.15-.15q1.55-1.3 2.7-2.9l.1-.1q.95-.85 2.1-1.4M10.1 37.1l.15-.05 1.8-.8 1.9-1.2.9-.7.05-.05m10.4-5.65h-.05l-1.7.7q-2.45 1.05-4.1 3.05-.95 1.15-1.4 2.65l-.1.5-1.3 4.75m-10.7 3.8l.05-.15m-.05.15l-.05.6.05 1.2q.3 2.4 3.15 2.4l1.05-.1m-.05-11.1l-1.2.65m23.3-12.8l-.1-.1m-.75 6.7l.4-.95v-.15l.05-.1.75-1.9m.4-1.15l-.25.85m-6.3-3.4l-.1.1m-1 3.8v.15q-.3 1.25.9 1.55v.05m-.95-2.05l.05.3m5.45 3.2l-1.25.55"/><path fill="none" stroke="#005800" stroke-width=".05" stroke-linecap="round" stroke-linejoin="round" d="M29.5 32.4l.45.7.7 1.7.45 2.05.3 2.8v.1l.6 4.85.8 2.65.05.1 2.25 5.8.6 1.15 1.1.85 3.5 1.7 1.25.75-.9-.05-6.5-1.5q-1.1-.3-2-1L30.7 53.4l-1.6-2.7q-.75.65-.7 1.8.05 1.15-.25 2.15l-.85 1.8-1-6.15q-.3-1.4.4-2.4l.9-1.65-.1-.95q-.05-1.15.05-2.3l.75-8.8-.45-1.9m5.45 2.55q0 1.1.3 2.1l.95 4.25-.1 2.35q-.1 1.1-.6 2.1l-1.05 1.6m-5.95-15.7l-.1 1.1-1.3 3.35q-.85 2.5-1.2 5.15l-.15 2.25.2 2.3.65 2.95.15 2.3-.15.95-.55 1.2-.95 1.4-2 1.35q.65-.95.9-2.05l.15-2.35-.45-2.2-.65-2.05q-.35-1.05-.3-2.1 0-1.2.35-2.35l4-8.6m7.85.7v-.25q-.05-1.05-1.95-3.05l-.95-1 .35 1.3.9 2.3q.55.9.6 1.7l-.05 1.7-.6 1.7-.2.4m-5.2-9.25q.6.4.65.95v.2m2.65.85l-.55-.65-.7-.65q-.55-.55-.7-.25l.3 1.45m-1.65-1.9l-.3 2.15-.45 1.6M29.1 50.7l-1.2-3.15-.3-1.3"/></svg>