<svg xmlns="http://www.w3.org/2000/svg" viewBox="-0.1 0 29.6 23.1" width="29.6" height="23.1"><defs><radialGradient gradientUnits="userSpaceOnUse" r="819.2" cx="0" cy="0" spreadMethod="pad" gradientTransform="matrix(-.001 0 0 .001 2.65 2.2)" id="a"><stop offset="0" stop-color="#ff9"/><stop offset=".502" stop-color="#1B1B6C"/><stop offset=".796" stop-color="#B6B68B"/><stop offset=".894" stop-color="#006"/></radialGradient><radialGradient gradientUnits="userSpaceOnUse" r="819.2" cx="0" cy="0" spreadMethod="pad" gradientTransform="matrix(-.001 0 0 .002 2.35 3.8)" id="b"><stop offset="0" stop-color="#ff9"/><stop offset=".502" stop-color="#1B1B6C"/><stop offset=".796" stop-color="#B6B68B"/><stop offset=".894" stop-color="#006"/></radialGradient><radialGradient gradientUnits="userSpaceOnUse" r="819.2" cx="0" cy="0" spreadMethod="pad" gradientTransform="matrix(-.001 0 0 .001 2.35 5.2)" id="c"><stop offset="0" stop-color="#ff9"/><stop offset=".502" stop-color="#1B1B6C"/><stop offset=".796" stop-color="#B6B68B"/><stop offset=".894" stop-color="#006"/></radialGradient><radialGradient gradientUnits="userSpaceOnUse" r="819.2" cx="0" cy="0" spreadMethod="pad" gradientTransform="matrix(-.02 0 0 .024 14.75 11.55)" id="d"><stop offset="0"/><stop offset=".561" stop-color="#90f"/><stop offset="1" stop-color="#f69"/></radialGradient><radialGradient gradientUnits="userSpaceOnUse" r="819.2" cx="0" cy="0" spreadMethod="pad" gradientTransform="matrix(-.001 0 0 .001 3.6 6.25)" id="e"><stop offset="0" stop-color="#ff9"/><stop offset=".502" stop-color="#1B1B6C"/><stop offset=".796" stop-color="#B6B68B"/><stop offset=".894" stop-color="#006"/></radialGradient><radialGradient gradientUnits="userSpaceOnUse" r="819.2" cx="0" cy="0" spreadMethod="pad" gradientTransform="matrix(-.001 0 0 .001 2.75 6)" id="f"><stop offset="0" stop-color="#ff9"/><stop offset=".502" stop-color="#1B1B6C"/><stop offset=".796" stop-color="#B6B68B"/><stop offset=".894" stop-color="#006"/></radialGradient><radialGradient gradientUnits="userSpaceOnUse" r="819.2" cx="0" cy="0" spreadMethod="pad" gradientTransform="matrix(-.002 0 0 .002 4.95 6.15)" id="g"><stop offset="0" stop-color="#ff9"/><stop offset=".502" stop-color="#1B1B6C"/><stop offset=".796" stop-color="#B6B68B"/><stop offset=".894" stop-color="#006"/></radialGradient><radialGradient gradientUnits="userSpaceOnUse" r="819.2" cx="0" cy="0" spreadMethod="pad" gradientTransform="matrix(-.001 0 0 .002 5.85 6.65)" id="h"><stop offset="0" stop-color="#ff9"/><stop offset=".502" stop-color="#1B1B6C"/><stop offset=".796" stop-color="#B6B68B"/><stop offset=".894" stop-color="#006"/></radialGradient><radialGradient gradientUnits="userSpaceOnUse" r="819.2" cx="0" cy="0" spreadMethod="pad" gradientTransform="matrix(-.001 0 0 .001 6.15 7.7)" id="i"><stop offset="0" stop-color="#ff9"/><stop offset=".502" stop-color="#1B1B6C"/><stop offset=".796" stop-color="#B6B68B"/><stop offset=".894" stop-color="#006"/></radialGradient><radialGradient gradientUnits="userSpaceOnUse" r="819.2" cx="0" cy="0" spreadMethod="pad" gradientTransform="matrix(-.008 0 0 .009 13 11.3)" id="j"><stop offset=".404"/><stop offset=".545" stop-color="#f00"/><stop offset=".949" stop-color="#f69"/></radialGradient><radialGradient gradientUnits="userSpaceOnUse" r="819.2" cx="0" cy="0" spreadMethod="pad" gradientTransform="matrix(-.01 0 0 .006 12.6 9)" id="k"><stop offset=".404"/><stop offset=".545" stop-color="#f00"/><stop offset=".949" stop-color="#f69"/></radialGradient><radialGradient gradientUnits="userSpaceOnUse" r="819.2" cx="0" cy="0" spreadMethod="pad" gradientTransform="matrix(-.001 0 0 .001 4.6 14.9)" id="l"><stop offset="0" stop-color="#ff9"/><stop offset=".502" stop-color="#1B1B6C"/><stop offset=".796" stop-color="#B6B68B"/><stop offset=".894" stop-color="#006"/></radialGradient><radialGradient gradientUnits="userSpaceOnUse" r="819.2" cx="0" cy="0" spreadMethod="pad" gradientTransform="matrix(-.001 0 0 .002 4.85 16.45)" id="m"><stop offset="0" stop-color="#ff9"/><stop offset=".502" stop-color="#1B1B6C"/><stop offset=".796" stop-color="#B6B68B"/><stop offset=".894" stop-color="#006"/></radialGradient><radialGradient gradientUnits="userSpaceOnUse" r="819.2" cx="0" cy="0" spreadMethod="pad" gradientTransform="matrix(-.001 0 0 .001 5.05 13.9)" id="n"><stop offset="0" stop-color="#ff9"/><stop offset=".502" stop-color="#1B1B6C"/><stop offset=".796" stop-color="#B6B68B"/><stop offset=".894" stop-color="#006"/></radialGradient><radialGradient gradientUnits="userSpaceOnUse" r="819.2" cx="0" cy="0" spreadMethod="pad" gradientTransform="matrix(-.001 0 0 .002 5.55 18)" id="o"><stop offset="0" stop-color="#ff9"/><stop offset=".502" stop-color="#1B1B6C"/><stop offset=".796" stop-color="#B6B68B"/><stop offset=".894" stop-color="#006"/></radialGradient><radialGradient gradientUnits="userSpaceOnUse" r="819.2" cx="0" cy="0" spreadMethod="pad" gradientTransform="matrix(-.001 0 0 .002 5.35 19.5)" id="p"><stop offset="0" stop-color="#ff9"/><stop offset=".502" stop-color="#1B1B6C"/><stop offset=".796" stop-color="#B6B68B"/><stop offset=".894" stop-color="#006"/></radialGradient><radialGradient gradientUnits="userSpaceOnUse" r="819.2" cx="0" cy="0" spreadMethod="pad" gradientTransform="matrix(-.002 0 0 .002 4 20)" id="q"><stop offset="0" stop-color="#ff9"/><stop offset=".502" stop-color="#1B1B6C"/><stop offset=".796" stop-color="#B6B68B"/><stop offset=".894" stop-color="#006"/></radialGradient><radialGradient gradientUnits="userSpaceOnUse" r="819.2" cx="0" cy="0" spreadMethod="pad" gradientTransform="matrix(-.001 0 0 .001 2.4 20.5)" id="r"><stop offset="0" stop-color="#ff9"/><stop offset=".502" stop-color="#1B1B6C"/><stop offset=".796" stop-color="#B6B68B"/><stop offset=".894" stop-color="#006"/></radialGradient><radialGradient gradientUnits="userSpaceOnUse" r="819.2" cx="0" cy="0" spreadMethod="pad" gradientTransform="matrix(-.001 0 0 .002 20.05 6.7)" id="s"><stop offset="0" stop-color="#ff9"/><stop offset=".502" stop-color="#1B1B6C"/><stop offset=".796" stop-color="#B6B68B"/><stop offset=".894" stop-color="#006"/></radialGradient><radialGradient gradientUnits="userSpaceOnUse" r="819.2" cx="0" cy="0" spreadMethod="pad" gradientTransform="matrix(-.001 0 0 .002 19.8 7.75)" id="t"><stop offset="0" stop-color="#ff9"/><stop offset=".502" stop-color="#1B1B6C"/><stop offset=".796" stop-color="#B6B68B"/><stop offset=".894" stop-color="#006"/></radialGradient><radialGradient gradientUnits="userSpaceOnUse" r="819.2" cx="0" cy="0" spreadMethod="pad" gradientTransform="matrix(-.003 0 0 .003 24.75 3.45)" id="u"><stop offset="0" stop-color="#ff9"/><stop offset=".502" stop-color="#1B1B6C"/><stop offset=".796" stop-color="#B6B68B"/><stop offset=".894" stop-color="#006"/></radialGradient><radialGradient gradientUnits="userSpaceOnUse" r="819.2" cx="0" cy="0" spreadMethod="pad" gradientTransform="matrix(-.001 0 0 .001 24.4 4.95)" id="v"><stop offset="0" stop-color="#ff9"/><stop offset=".502" stop-color="#1B1B6C"/><stop offset=".796" stop-color="#B6B68B"/><stop offset=".894" stop-color="#006"/></radialGradient><radialGradient gradientUnits="userSpaceOnUse" r="819.2" cx="0" cy="0" spreadMethod="pad" gradientTransform="matrix(-.001 0 0 .002 23.3 5.4)" id="w"><stop offset="0" stop-color="#ff9"/><stop offset=".502" stop-color="#1B1B6C"/><stop offset=".796" stop-color="#B6B68B"/><stop offset=".894" stop-color="#006"/></radialGradient><radialGradient gradientUnits="userSpaceOnUse" r="819.2" cx="0" cy="0" spreadMethod="pad" gradientTransform="matrix(-.001 0 0 .002 21.55 5.1)" id="x"><stop offset="0" stop-color="#ff9"/><stop offset=".502" stop-color="#1B1B6C"/><stop offset=".796" stop-color="#B6B68B"/><stop offset=".894" stop-color="#006"/></radialGradient><radialGradient gradientUnits="userSpaceOnUse" r="819.2" cx="0" cy="0" spreadMethod="pad" gradientTransform="matrix(-.002 0 0 .002 20.5 5.5)" id="y"><stop offset="0" stop-color="#ff9"/><stop offset=".502" stop-color="#1B1B6C"/><stop offset=".796" stop-color="#B6B68B"/><stop offset=".894" stop-color="#006"/></radialGradient><radialGradient gradientUnits="userSpaceOnUse" r="819.2" cx="0" cy="0" spreadMethod="pad" gradientTransform="matrix(-.002 0 0 .002 23.15 13.15)" id="z"><stop offset="0" stop-color="#ff9"/><stop offset=".502" stop-color="#1B1B6C"/><stop offset=".796" stop-color="#B6B68B"/><stop offset=".894" stop-color="#006"/></radialGradient><radialGradient gradientUnits="userSpaceOnUse" r="819.2" cx="0" cy="0" spreadMethod="pad" gradientTransform="matrix(-.001 0 0 .002 21.2 12.4)" id="A"><stop offset="0" stop-color="#ff9"/><stop offset=".502" stop-color="#1B1B6C"/><stop offset=".796" stop-color="#B6B68B"/><stop offset=".894" stop-color="#006"/></radialGradient><radialGradient gradientUnits="userSpaceOnUse" r="819.2" cx="0" cy="0" spreadMethod="pad" gradientTransform="matrix(-.001 0 0 .001 22.2 12.55)" id="B"><stop offset="0" stop-color="#ff9"/><stop offset=".502" stop-color="#1B1B6C"/><stop offset=".796" stop-color="#B6B68B"/><stop offset=".894" stop-color="#006"/></radialGradient><radialGradient gradientUnits="userSpaceOnUse" r="819.2" cx="0" cy="0" spreadMethod="pad" gradientTransform="matrix(-.001 0 0 .002 23.15 14.7)" id="C"><stop offset="0" stop-color="#ff9"/><stop offset=".502" stop-color="#1B1B6C"/><stop offset=".796" stop-color="#B6B68B"/><stop offset=".894" stop-color="#006"/></radialGradient><radialGradient gradientUnits="userSpaceOnUse" r="819.2" cx="0" cy="0" spreadMethod="pad" gradientTransform="matrix(-.001 0 0 .001 23.1 15.95)" id="D"><stop offset="0" stop-color="#ff9"/><stop offset=".502" stop-color="#1B1B6C"/><stop offset=".796" stop-color="#B6B68B"/><stop offset=".894" stop-color="#006"/></radialGradient><radialGradient gradientUnits="userSpaceOnUse" r="819.2" cx="0" cy="0" spreadMethod="pad" gradientTransform="matrix(-.001 0 0 .001 23.75 16.65)" id="E"><stop offset="0" stop-color="#ff9"/><stop offset=".502" stop-color="#1B1B6C"/><stop offset=".796" stop-color="#B6B68B"/><stop offset=".894" stop-color="#006"/></radialGradient><radialGradient gradientUnits="userSpaceOnUse" r="819.2" cx="0" cy="0" spreadMethod="pad" gradientTransform="matrix(-.001 0 0 .001 24.95 16.7)" id="F"><stop offset="0" stop-color="#ff9"/><stop offset=".502" stop-color="#1B1B6C"/><stop offset=".796" stop-color="#B6B68B"/><stop offset=".894" stop-color="#006"/></radialGradient><radialGradient gradientUnits="userSpaceOnUse" r="819.2" cx="0" cy="0" spreadMethod="pad" gradientTransform="matrix(-.001 0 0 .001 24.95 16.7)" id="G"><stop offset="0"/><stop offset=".561" stop-color="#90f"/><stop offset="1" stop-color="#f69"/></radialGradient><radialGradient gradientUnits="userSpaceOnUse" r="819.2" cx="0" cy="0" spreadMethod="pad" gradientTransform="matrix(-.001 0 0 .001 26.45 17)" id="H"><stop offset="0" stop-color="#ff9"/><stop offset=".502" stop-color="#1B1B6C"/><stop offset=".796" stop-color="#B6B68B"/><stop offset=".894" stop-color="#006"/></radialGradient><radialGradient gradientUnits="userSpaceOnUse" r="819.2" cx="0" cy="0" spreadMethod="pad" gradientTransform="matrix(-.001 0 0 .002 27.45 18.3)" id="I"><stop offset="0" stop-color="#ff9"/><stop offset=".502" stop-color="#1B1B6C"/><stop offset=".796" stop-color="#B6B68B"/><stop offset=".894" stop-color="#006"/></radialGradient></defs><path fill="#fff" d="M9.3 8.7l.5-.25.55-.45q0 .9.35 1.45l.75 1.1.55.9-1.5-.75-.55-.6-.6-1-.05-.4m2.1-1.35l.45-.05.2-.05-.15 1.4-.3 1.5-.1-1.45-.1-1.35m1.6-.6v.05l.4.3.35.15-.2 1.35-.6 1.15-.65 1.15q-.1-.95.1-1.8l.4-1.9.2-.45m1.7.75l.25.4.3.2.35.2q-.05.8-.5 1.35l-.95 1.1-.7.55.4-1.55q.05-.5.25-.95l.3-.8.15-.3.15-.2m-6.05 7.15q.4-.55.95-.95l1.15-.7q.5-.3 1.05-.5l-.35.9-.45.7-.85.8-1 .55q-.3.1-.6-.3-.2-.25.1-.5m9.3-.3l-.05.35-.25.35-.1.1q-.3.3-.75.4-.5.15-.9-.3l-.95-1q-.65-.8-.8-1.85l.25.15 1.15.75.25.2.9.35 1.25.5"/><path fill="url(#a)" d="M2.05 3.1l.25-.5.3-.3q.45-.4.35-.95.4.5.25 1.15l-.1.4-1.05.2"/><path fill="url(#b)" d="M2.05 3.1l1.05-.2q-.25.65-.25 1.35v.2l-.1.05-.75.15h-.4l.3-1.15.15-.4"/><path fill="url(#c)" d="M1.8 6l-.2-.75v-.6H2l.75-.15.1-.05.05.25.2.65-.7.3-.6.35"/><path fill="url(#d)" d="M24.4 5.85q.55.75.3 2-.15.75 0 1.45.3 1 .9 1.9l.25.35q.8.95.4 2.1l.95 1.2 1.75 2.35.2.4.35 1.5v.95q-.15 1.8-1.4 2.4l-2.55.65-2.7-.3-2.45-.85-2.55-.1-2.65.95-2.2.2-5.15-.5-2.75.15-2.65.3-.6-.2q-.85-.5-.9-1.55v-.85q.2-1.25.85-3l-.1-.15-.4-.7-.85-1.4L.4 15q-.95-1.55.1-2.8l1.9-1.75q.7-.5.55-1.35-.25-1.3 0-2.4l.85.05.85.05.15.05.4.35.15.4.2.6q.1.35.35.3h.15l.5-.3.25-.25q.2-.25 0-.3l.1-.8-.25-.6V6.2l-.55-.5-.5-.25-.55.1-.45.2-.25.05-.65.1v-.05l.15-.35.2-.3q.55-.9 1.35-1.3l.65-.05q1.5.3 2.4-.75L9.5 1.7Q10.4.5 11.75.05q.4-.15.65.15 1 1.25 2.35 1.15l2.75-.1q1.45-.1 1.85 1.25l.05.2q1.05.6 2.4.65 1.5.05 1.75 1.5-.4.25-.9 0l-.3-.15-.95-.4-.65-.1-.5.15q-.6.25-.7 1l-.05.25-.25 1.35-.4.85.15.05.05.1.15.3.35.25h.05l.85-.05q.35-.2.3-.6v-.3l.1-.7V6.8l.2-.4.4-.4.5-.05.35.05 1.05.2.5-.05.4-.2.15-.1m-2.45 5.8l-.45.05q-.4.1-.7.3l-.2.35q-.2.25-.1.55l.25.25.4-.05.4-.1.25.05.45.4.05.05.25.7-.05.35-.15.6-.05.55.05.5.15.4.45.35.45.15.9.05h.05l1.15-.05q.55 0 1 .3l.45.4H27q.7.6.8 1.6l.05-.45-.3-1.35-.05-.05-.15-.4-.25-.3q-.4-.5-1-.55H26l-.4-.05-1.1.1-.6-.2-.25-.2q-.35-.4-.15-.85l.05-.15.4-1.2v-.05q.2-.65-.05-1.2l-.1-.15q-.2-.3-.55-.45l-.35-.1-.95-.15m1.9-1.9l-.45-.35-1.95-.1q-1.2.6-2.35-.2l-.2-.15.05.1q.65 1.25 1.95 1.25l1.55.3-1.55-.3q-1.3 0-1.95-1.25l-.05-.1-.1-.05-.45-.5q-.5-.7-.45-1.6-.05.9.45 1.6l.45.5.1.05.2.15q1.15.8 2.35.2l1.95.1.45.35m-9.5-7l1 .05.95.5 2 1.65-2-1.65-.95-.5-1-.05M27.85 20l-.55.6-1.25.75 1.25-.75.55-.6M13.65 5.6q-.3-.8-1.05-.75L11.2 5q-.65.05-1.1.55l-.65.85-.1.25-.2.4-.6.75-.1-.55.25-.85.3-.55q.35-.65.95-.95.55-.35 1.2-.5l1.35-.2-1.35.2q-.65.15-1.2.5-.6.3-.95.95l-.3.55-.25.85.1.55.6-.75.2-.4.1-.25.65-.85q.45-.5 1.1-.55l1.4-.15q.75-.05 1.05.75l-.15-.1-1.15-.3-1.25.2q-.65.25-1.1.85l-.8 1.2-.6 1.35-.25.9v.15l-.05.95-.15.75-.35.65-.25.7-.2 1.15v.4q.1.65.55 1.05l.2.15 1.25.35 2.55.2 3.7-.15 1.4-.15q.65-.15 1.15-.6l.15-.2.05-.05.3-.75.05-.3-.05-.35-.5-1-.85-1.15-.2-.45-.35-1.4-.1-.45-.35-.65-.1-.15-.8-1 .05-.05-.7-1.05-.15-.1q-.4-.4-.95-.6m1.1-.55l.9 1.15.35.65.15.5.3.9.2.95-.2-.95-.3-.9-.15-.5-.35-.65-.9-1.15m-.85-.8l.95.25 1.1.9-1.1-.9-.95-.25m-6.7 1.7q.85-.2 1.25-1.2l.05-.05q.6-1.45 1.95-1.85l2.3.05-2.3-.05Q9.1 3.25 8.5 4.7l-.05.05q-.4 1-1.25 1.2m12.05 7.25l-.75-.8-.75-1.15q-.25-.75-.25-1.5l-.3-1.25-1.05-1.15L17.2 8.5l.3 1.25q0 .75.25 1.5l.75 1.15.75.8M16.1 5.95l.85 1.1.6 1.35.3 1.6.5 1-.5-1-.3-1.6-.6-1.35-.85-1.1m3.35 5.6q-.3-.1-.3-.8 0 .7.3.8M6.95 5.4l1.5-.65-1.5.65m-3.1 6.85l.2-.15.05-.05Q5.25 11.2 6 9.9q-.75 1.3-1.9 2.15l-.05.05-.2.15-.3.3q-.7.7-1 1.8-.35 1.1-.05 1.85-.3-.75.05-1.85.3-1.1 1-1.8l.3-.3v-.1l.2-.65q.4-1.05 1.3-1.85-.9.8-1.3 1.85l-.2.65v.1m2.55 2.2q-.25-.4-.15-1.05.15-.75.75-1.25l.55-1.25L7 12.15q-.6.5-.75 1.25-.1.65.15 1.05m1.65-4.15L8 11.4l-.2.8.2-.8.05-1.1V8.8v1.5m-2.7 4.3l.15-.15q.3-.25.2-.8l-.3-.45-1 .75-.05.05q-.6.45-.55 1.3l.05.45.35.8v.05l.55.55.05.05q.45.4.45 1.05v.2l-.05.1-.1.1-.75.6-.3.1-1.2.55-.1.05q-.45.3-.75.75l-.15.3q.35-.4.95-.35h.1l1.2.05 1.15-.3.75-.7.3-.8v-.4l-.2-.8-.3-.6-.45-.65-.3-.6v-.25l.1-.7.2-.3M1.8 21.55q-.05-.3.05-.55-.1.25-.05.55m5.55-7.5q-.4.8-.05 1.4l.6.05-.6-.05q-.35-.6.05-1.4m-5.3 4.25l-.25-.9v-.05.05l.25.9m1.5-7.65q-1 .9-1.55 2.3Q1.5 14.2.45 15.1 1.5 14.2 2 12.95q.55-1.4 1.55-2.3m-1.9 4.45q-.25 1.35.05 2.1-.3-.75-.05-2.1m6.6 4.2q.95.15 1.85.65-.9-.5-1.85-.65m10.4-5q.5.4.4.65l-.75.15.75-.15q.1-.25-.4-.65m3.95 3.6l-11.7.85q-1.3.05-2.4-.6 1.1.65 2.4.6l11.7-.85m-11.95 1.7l1.4.1 4.6-.5 2.8-.1-2.8.1-4.6.5-1.4-.1M8.4 17q1 .7 2.4.4l1.3-.1 1.35.15h1.2l2.6-.2 2.5-.8-2.5.8-2.6.2h-1.2l-1.35-.15-1.3.1q-1.4.3-2.4-.4"/><path fill="url(#e)" d="M2.95 6.7h-.1l.85-.8.65-.1-.55.95-.85-.05"/><path fill="url(#f)" d="M2.85 6.7l-.4-.1q-.4-.1-.65-.55V6l.6-.35.7-.3.2.25q.2.25.4.3l-.85.8"/><path fill="url(#g)" d="M4.35 5.8l.25-.05.45-.2.55-.1.5.25-.5.3-.8.85-.15-.05-.85-.05.55-.95"/><path fill="url(#h)" d="M6.1 5.7l.55.5v.05l.25.6q-.75.2-1.35.6l-.2.15-.15-.4-.4-.35.8-.85.5-.3"/><path fill="url(#i)" d="M6.9 6.85l-.1.8q.2.05 0 .3l-.25.25-.5.3H5.9q-.25.05-.35-.3l-.2-.6.2-.15q.6-.4 1.35-.6"/><path fill="url(#j)" d="M16.3 8.55l.35.65.1.45.35 1.4.2.45.85 1.15.5 1 .05.35-.05.3-.3.75-.05.05-.15.2q-.5.45-1.15.6l-1.4.15-3.7.15-2.55-.2-1.25-.35-.2-.15q-.45-.4-.55-1.05v-.4l.2-1.15.25-.7.35-.65.15-.75.05-.95V9.7l.25-.9.7-.1.05.4.6 1 .55.6 1.5.75-.55-.9-.75-1.1q-.35-.55-.35-1.45l.35-1.05q.3.3.7.4l.1 1.35.1 1.45.3-1.5.15-1.4q.65-.2.75-.9l.2.4-.2.45-.4 1.9q-.2.85-.1 1.8l.65-1.15.6-1.15.2-1.35.85-.2.1.45-.15.2-.15.3-.3.8q-.2.45-.25.95l-.4 1.55.7-.55.95-1.1q.45-.55.5-1.35l.7.25m-7.65 6.1q-.3.25-.1.5.3.4.6.3l1-.55.85-.8.45-.7.35-.9q-.55.2-1.05.5l-1.15.7q-.55.4-.95.95m9.3-.3l-1.25-.5-.9-.35-.25-.2-1.15-.75-.25-.15q.15 1.05.8 1.85l.95 1q.4.45.9.3.45-.1.75-.4l.1-.1.25-.35.05-.35"/><path fill="url(#k)" d="M13.65 5.6q.55.2.95.6l.15.1.7 1.05-.05.05.8 1 .1.15-.7-.25-.35-.2-.3-.2-.25-.4-.1-.45-.85.2-.35-.15-.4-.3v-.05l-.2-.4q-.1.7-.75.9l-.2.05-.45.05q-.4-.1-.7-.4L10.35 8l-.55.45-.5.25-.7.1.6-1.35.8-1.2q.45-.6 1.1-.85l1.25-.2 1.15.3.15.1"/><path fill="url(#l)" d="M4.4 13.95l.25.1.7.55-.2.3-.1.7v.25l-.85-.15-.35.05-.05-.45q-.05-.85.55-1.3l.05-.05"/><path fill="url(#m)" d="M5.05 15.85l.3.6.45.65-1 .1-.05-.05-.55-.55v-.05l-.35-.8.35-.05.85.15"/><path fill="url(#n)" d="M4.4 13.95l1-.75.3.45q.1.55-.2.8l-.15.15-.7-.55-.25-.1"/><path fill="url(#o)" d="M5.8 17.1l.3.6.2.8v.4l-.8-.3-.3-.05.05-.1v-.2q0-.65-.45-1.05l1-.1"/><path fill="url(#p)" d="M6.3 18.9l-.3.8-.75.7-.65-.9-.25-.25.75-.6.1-.1.3.05.8.3"/><path fill="url(#q)" d="M5.25 20.4l-1.15.3-1.2-.05-.15-.7.1-.05 1.2-.55.3-.1.25.25.65.9"/><path fill="url(#r)" d="M2.9 20.65h-.1q-.6-.05-.95.35l.15-.3q.3-.45.75-.75l.15.7"/><path fill="url(#s)" d="M20.85 6.8v.05l-.1.7v.25l-.2-.1-.7-.55-.6-.2.25-1.35 1.35 1.2"/><path fill="url(#t)" d="M20.75 7.8v.05q.05.4-.3.6l-.85.05h-.05l-.35-.25-.15-.3-.05-.1-.15-.05.4-.85.6.2.7.55.2.1"/><path fill="url(#u)" d="M24.2 3.95l.2-.85-.3-1.6-.15-.35.4.55.4 1L25 3.9l.05.15-.05.7-.05.15-.05-.1-.7-.85"/><path fill="url(#v)" d="M24.2 3.95l.7.85.05.1-.1.3-.35.55-.1.1-.15.1-.15-.65v-.05l-.3-.65.05-.05.35-.6"/><path fill="url(#w)" d="M23.55 4.85l.25-.25.3.65v.05l.15.65-.4.2-.5.05L22.3 6l.05-.25V4.7l.3.15q.5.25.9 0"/><path fill="url(#x)" d="M20.75 4.2l.65.1.95.4v1.05L22.3 6l-.35-.05-.5.05q-.15-1-.7-1.8"/><path fill="url(#y)" d="M20.75 4.2q.55.8.7 1.8l-.4.4-.2.4-1.35-1.2.05-.25q.1-.75.7-1l.5-.15"/><path fill="url(#z)" d="M22.9 11.8l.35.1q.35.15.55.45l.1.15q.25.55.05 1.2v.05l-.3.25q-.45.35-1 .5l-.15.05.05-.35-.25-.7-.05-.05.35-.6.3-1.05"/><path fill="url(#A)" d="M21.55 13l-.4.1-.4.05-.25-.25q-.1-.3.1-.55l.2-.35q.3-.2.7-.3l.45-.05-.05.5-.35.85"/><path fill="url(#B)" d="M21.55 13l.35-.85.05-.5.95.15-.3 1.05-.35.6-.45-.4-.25-.05"/><path fill="url(#C)" d="M23.95 13.75l-.4 1.2q-.45.55-1.25.75l.05-.55.15-.6.15-.05q.55-.15 1-.5l.3-.25"/><path fill="url(#D)" d="M23.55 14.95l-.05.15q-.2.45.15.85l.25.2-.6.55-.35.25-.45-.35-.15-.4-.05-.5q.8-.2 1.25-.75"/><path fill="url(#E)" d="M23.9 16.15l.6.2-.2.7v.1l-.9-.05-.45-.15.35-.25.6-.55"/><path fill="url(#F)" d="M24.5 16.35l1.1-.1-.1.85-1.15.05-.05-.05v-.05l.2-.7"/><path fill="url(#G)" d="M24.35 17.15h-.05v-.05l.05.05"/><path fill="url(#H)" d="M25.6 16.25l.4.05h.1q.6.05 1 .55l.25.3-.4.65-.45-.4q-.45-.3-1-.3l.1-.85"/><path fill="url(#I)" d="M27.35 17.15l.15.4.05.05.3 1.35-.05.45q-.1-1-.8-1.6h-.05l.4-.65"/><path fill="none" stroke="#53008A" stroke-width=".05" stroke-linecap="round" stroke-linejoin="round" d="M24.95 4.9l-.1.3-.35.55-.1.1q.55.75.3 2-.15.75 0 1.45.3 1 .9 1.9l.25.35q.8.95.4 2.1l.95 1.2 1.75 2.35.2.4.35 1.5v.95q-.15 1.8-1.4 2.4l-2.55.65-2.7-.3-2.45-.85-2.55-.1-2.65.95-2.2.2-5.15-.5-2.75.15-2.65.3-.6-.2q-.85-.5-.9-1.55v-.85q.2-1.25.85-3l-.1-.15-.4-.7-.85-1.4L.4 15q-.95-1.55.1-2.8l1.9-1.75q.7-.5.55-1.35-.25-1.3 0-2.4h-.1l-.4-.1q-.4-.1-.65-.55V6l-.2-.75v-.6l.3-1.15.15-.4.25-.5.3-.3q.45-.4.35-.95.4.5.25 1.15l-.1.4q-.25.65-.25 1.35v.2l.05.25.2.65.2.25q.2.25.4.3v-.05l.15-.35.2-.3q.55-.9 1.35-1.3l.65-.05q1.5.3 2.4-.75L9.5 1.7Q10.4.5 11.75.05q.4-.15.65.15 1 1.25 2.35 1.15l2.75-.1q1.45-.1 1.85 1.25l.05.2q1.05.6 2.4.65 1.5.05 1.75 1.5l.25-.25.05-.05.35-.6M19.5 5.6l.05-.25q.1-.75.7-1l.5-.15.65.1.95.4.3.15q.5.25.9 0M21.45 6l.5-.05.35.05m-.85 0l-.4.4-.2.4v.05l-.1.7v.3q.05.4-.3.6l-.85.05h-.05l-.35-.25-.15-.3-.05-.1-.15-.05.4-.85.25-1.35m4.75.35l.15-.1m-.15.1l-.4.2-.5.05L22.3 6m-.35 5.65l-.45.05q-.4.1-.7.3l-.2.35q-.2.25-.1.55l.25.25.4-.05.4-.1m.4-1.35l.95.15.35.1q.35.15.55.45l.1.15q.25.55.05 1.2v.05l-.4 1.2-.05.15q-.2.45.15.85l.25.2.6.2 1.1-.1.4.05h.1q.6.05 1 .55l.25.3.15.4.05.05.3 1.35-.05.45q-.1-1-.8-1.6h-.05l-.45-.4q-.45-.3-1-.3l-1.15.05h-.05l-.9-.05-.45-.15-.45-.35-.15-.4-.05-.5.05-.55.15-.6.05-.35-.25-.7-.05-.05-.45-.4-.25-.05m4.5 8.35l1.25-.75.55-.6M18.3 4.95l-2-1.65-.95-.5-1-.05m-1.6.15l-2.3-.05Q9.1 3.25 8.5 4.7l-.05.05q-.4 1-1.25 1.2m11.95 4.8q0 .7.3.8M4.35 5.8l.25-.05.45-.2.55-.1.5.25.55.5v.05l.25.6-.1.8q.2.05 0 .3l-.25.25-.5.3H5.9q-.25.05-.35-.3l-.2-.6-.15-.4-.4-.35-.15-.05-.85-.05-.85-.05m5.5-1.95l-1.5.65m-3.25.5l.65-.1M2.5 16.2q-.3-.75.05-1.85.3-1.1 1-1.8l.3-.3v-.1l.2-.65q.4-1.05 1.3-1.85M6 9.9q-.75 1.3-1.9 2.15l-.05.05-.2.15m3.95-.05l.2-.8.05-1.1m-2.7 4.3l.15-.15q.3-.25.2-.8l-.3-.45-1 .75-.05.05q-.6.45-.55 1.3l.05.45.35.8v.05l.55.55.05.05q.45.4.45 1.05v.2l-.05.1m.15-3.95l-.2.3-.1.7v.25l.3.6.45.65.3.6.2.8v.4l-.3.8-.75.7-1.15.3-1.2-.05h-.1q-.6-.05-.95.35-.1.25-.05.55M.45 15.1Q1.5 14.2 2 12.95q.55-1.4 1.55-2.3m-1.75 6.7v.05l.25.9m-.35-1.1q-.3-.75-.05-2.1m2.7 4.15l-.3.1-1.2.55-.1.05q-.45.3-.75.75l-.15.3m2.5-1.75l.75-.6.1-.1m4.9 1.4q-.9-.5-1.85-.65m10.05-4.2l.75-.15q.1-.25-.4-.65"/><path fill="none" stroke="#3C0064" stroke-width=".05" stroke-linecap="round" stroke-linejoin="round" d="M18.65 14.3l.05-.3-.05-.35-.5-1-.85-1.15-.2-.45-.35-1.4-.1-.45-.2-.95-.3-.9-.15-.5-.35-.65-.9-1.15m7.7 5.55l-1.55-.3q-1.3 0-1.95-1.25l-.05-.1-.1-.05-.45-.5q-.5-.7-.45-1.6m1 2.15l.2.15q1.15.8 2.35.2l1.95.1.45.35M12.5 4.2l-1.35.2q-.65.15-1.2.5-.6.3-.95.95l-.3.55-.25.85.1.55.6-.75.2-.4.1-.25.65-.85q.45-.5 1.1-.55l1.4-.15q.75-.05 1.05.75.55.2.95.6l.15.1.7 1.05m-.05.05l.8 1 .1.15.35.65m-3-3.6l-.15-.1-1.15-.3-1.25.2q-.65.25-1.1.85l-.8 1.2-.6 1.35-.25.9v.15l-.05.95-.15.75-.35.65-.25.7-.2 1.15v.4q.1.65.55 1.05l.2.15 1.25.35 2.55.2 3.7-.15 1.4-.15q.65-.15 1.15-.6l.15-.2.05-.05.3-.75m-2.7-8.9l-1.1-.9-.95-.25M18.35 11l-.5-1-.3-1.6-.6-1.35-.85-1.1m.05 1.4L17.2 8.5l.3 1.25q0 .75.25 1.5l.75 1.15.75.8m-11.7-2.3L7 12.15q-.6.5-.75 1.25-.1.65.15 1.05m1.65-4.15V8.8m-.15 6.7l-.6-.05q-.35-.6.05-1.4m12.4 2.4l-2.5.8-2.6.2h-1.2l-1.35-.15-1.3.1q-1.4.3-2.4-.4m11.05 2.1l-2.8.1-4.6.5-1.4-.1M8.5 18.15q1.1.65 2.4.6l11.7-.85"/><path fill="none" stroke="#666" stroke-width=".05" stroke-linecap="round" stroke-linejoin="round" d="M11.85 7.3l.2-.05m.95-.5v.05m1.7.7l-.15.2-.15.3-.3.8q-.2.45-.25.95l-.4 1.55.7-.55.95-1.1q.45-.55.5-1.35M13 6.75l-.2.45-.4 1.9q-.2.85-.1 1.8l.65-1.15.6-1.15.2-1.35m-2.35.1l.1 1.35.1 1.45.3-1.5.15-1.4m-1.7.75q0 .9.35 1.45l.75 1.1.55.9-1.5-.75-.55-.6-.6-1-.05-.4m-.65 5.95q.4-.55.95-.95l1.15-.7q.5-.3 1.05-.5l-.35.9-.45.7-.85.8-1 .55q-.3.1-.6-.3-.2-.25.1-.5m9.3-.3l-1.25-.5-.9-.35-.25-.2-1.15-.75-.25-.15q.15 1.05.8 1.85l.95 1q.4.45.9.3.45-.1.75-.4l.1-.1.25-.35.05-.35"/><path fill="none" stroke="#940000" stroke-width=".05" stroke-linecap="round" stroke-linejoin="round" d="M8.6 8.8l.7-.1.5-.25.55-.45.35-1.05q.3.3.7.4l.45-.05m.2-.05q.65-.2.75-.9l.2.4m0 .05l.4.3.35.15.85-.2.1.45.25.4.3.2.35.2.7.25"/><path fill="none" stroke="#7100BD" stroke-width=".05" stroke-linecap="round" stroke-linejoin="round" d="M24.95 4.9l.05-.15.05-.7L25 3.9l-.25-1.2-.4-1-.4-.55.15.35.3 1.6-.2.85"/></svg>