<svg xmlns="http://www.w3.org/2000/svg" viewBox="0 0 46.9 47.3" width="46.9" height="47.3"><defs><radialGradient gradientUnits="userSpaceOnUse" r="819.2" cx="0" cy="0" spreadMethod="pad" gradientTransform="matrix(.007 0 0 .007 33.85 12.6)" id="a"><stop offset="0" stop-color="#f00"/><stop offset="1"/></radialGradient><linearGradient gradientUnits="userSpaceOnUse" x1="-819.2" x2="819.2" spreadMethod="repeat" gradientTransform="matrix(.005 0 0 .005 36.35 14.2)" id="b"><stop offset="0" stop-color="#fff"/><stop offset="1"/></linearGradient><radialGradient gradientUnits="userSpaceOnUse" r="819.2" cx="0" cy="0" spreadMethod="pad" gradientTransform="matrix(.011 0 0 .011 25.8 5.7)" id="c"><stop offset=".227" stop-color="#993"/><stop offset=".412" stop-color="#930"/><stop offset=".651" stop-color="#930"/><stop offset=".8" stop-color="#030"/></radialGradient><radialGradient gradientUnits="userSpaceOnUse" r="819.2" cx="0" cy="0" spreadMethod="pad" gradientTransform="matrix(.003 0 0 .003 28.1 2.55)" id="d"><stop offset="0" stop-color="#f00"/><stop offset="1"/></radialGradient><radialGradient gradientUnits="userSpaceOnUse" r="819.2" cx="0" cy="0" spreadMethod="pad" gradientTransform="matrix(.01 0 0 .01 31.55 10.9)" id="e"><stop offset="0" stop-color="#f00"/><stop offset="1"/></radialGradient><radialGradient gradientUnits="userSpaceOnUse" r="819.2" cx="0" cy="0" spreadMethod="pad" gradientTransform="matrix(.011 0 0 .011 25.8 5.7)" id="f"><stop offset="0" stop-color="#f00"/><stop offset="1"/></radialGradient><radialGradient gradientUnits="userSpaceOnUse" r="819.2" cx="0" cy="0" spreadMethod="pad" gradientTransform="matrix(.013 0 0 .013 28.85 16.7)" id="g"><stop offset=".227" stop-color="#993"/><stop offset=".412" stop-color="#930"/><stop offset=".651" stop-color="#930"/><stop offset=".8" stop-color="#030"/></radialGradient><radialGradient gradientUnits="userSpaceOnUse" r="819.2" cx="0" cy="0" spreadMethod="pad" gradientTransform="matrix(.032 0 0 .032 23.85 19.4)" id="h"><stop offset=".227" stop-color="#993"/><stop offset=".412" stop-color="#930"/><stop offset=".651" stop-color="#930"/><stop offset=".8" stop-color="#030"/></radialGradient><radialGradient gradientUnits="userSpaceOnUse" r="819.2" cx="0" cy="0" spreadMethod="pad" gradientTransform="matrix(.004 0 0 .004 24.9 14.8)" id="i"><stop offset="0" stop-color="#fff"/><stop offset="1"/></radialGradient><radialGradient gradientUnits="userSpaceOnUse" r="819.2" cx="0" cy="0" spreadMethod="pad" gradientTransform="matrix(.007 0 0 .007 27.85 22.8)" id="j"><stop offset="0" stop-color="#fff"/><stop offset="1"/></radialGradient><radialGradient gradientUnits="userSpaceOnUse" r="819.2" cx="0" cy="0" spreadMethod="pad" gradientTransform="matrix(.008 0 0 .008 23.2 22.8)" id="k"><stop offset="0" stop-color="#fff"/><stop offset="1"/></radialGradient><radialGradient gradientUnits="userSpaceOnUse" r="819.2" cx="0" cy="0" spreadMethod="pad" gradientTransform="matrix(.004 0 0 .004 33.2 24.1)" id="l"><stop offset="0" stop-color="#fff"/><stop offset="1"/></radialGradient><linearGradient gradientUnits="userSpaceOnUse" x1="-819.2" x2="819.2" gradientTransform="matrix(.002 0 0 .003 39.1 15.5)" id="m"><stop offset="0" stop-color="#fff"/><stop offset="1"/></linearGradient><radialGradient gradientUnits="userSpaceOnUse" r="819.2" cx="0" cy="0" spreadMethod="pad" gradientTransform="matrix(.014 0 0 .014 24.65 33.05)" id="n"><stop offset=".227" stop-color="#993"/><stop offset=".412" stop-color="#930"/><stop offset=".651" stop-color="#930"/><stop offset=".8" stop-color="#030"/></radialGradient><linearGradient gradientUnits="userSpaceOnUse" x1="-819.2" x2="819.2" gradientTransform="matrix(.003 0 0 .002 29.35 31.25)" id="o"><stop offset="0" stop-color="#fff"/><stop offset="1"/></linearGradient><linearGradient gradientUnits="userSpaceOnUse" x1="-819.2" x2="819.2" gradientTransform="matrix(.002 0 0 .003 29.8 35.05)" id="p"><stop offset="0" stop-color="#fff"/><stop offset="1"/></linearGradient><radialGradient gradientUnits="userSpaceOnUse" r="819.2" cx="0" cy="0" spreadMethod="pad" gradientTransform="matrix(.008 -.003 .004 .011 29.05 39.6)" id="q"><stop offset=".227" stop-color="#993"/><stop offset=".412" stop-color="#930"/><stop offset=".651" stop-color="#930"/><stop offset=".8" stop-color="#030"/></radialGradient><radialGradient gradientUnits="userSpaceOnUse" r="819.2" cx="0" cy="0" spreadMethod="pad" gradientTransform="matrix(.007 0 0 .007 26.1 45.25)" id="r"><stop offset="0" stop-color="#fff"/><stop offset="1"/></radialGradient><radialGradient gradientUnits="userSpaceOnUse" r="819.2" cx="0" cy="0" spreadMethod="pad" gradientTransform="matrix(.011 0 0 .011 35.4 43.45)" id="s"><stop offset="0" stop-color="#0f0"/><stop offset="1"/></radialGradient><linearGradient gradientUnits="userSpaceOnUse" x1="-819.2" x2="819.2" gradientTransform="matrix(.01 0 0 .007 8.95 20.65)" id="t"><stop offset="0" stop-color="#fff"/><stop offset="1"/></linearGradient><linearGradient gradientUnits="userSpaceOnUse" x1="-819.2" x2="819.2" gradientTransform="matrix(.006 0 0 .014 4.9 22.65)" id="u"><stop offset="0" stop-color="#fff"/><stop offset="1"/></linearGradient><radialGradient gradientUnits="userSpaceOnUse" r="819.2" cx="0" cy="0" spreadMethod="pad" gradientTransform="matrix(.003 0 0 .003 21.4 2.6)" id="v"><stop offset="0" stop-color="#f00"/><stop offset="1"/></radialGradient><radialGradient gradientUnits="userSpaceOnUse" r="819.2" cx="0" cy="0" spreadMethod="pad" gradientTransform="matrix(.009 0 0 .009 18.45 11.15)" id="w"><stop offset="0" stop-color="#f00"/><stop offset="1"/></radialGradient><radialGradient gradientUnits="userSpaceOnUse" r="819.2" cx="0" cy="0" spreadMethod="pad" gradientTransform="matrix(.005 0 0 .005 16.65 13.75)" id="x"><stop offset="0" stop-color="#f00"/><stop offset="1"/></radialGradient><linearGradient gradientUnits="userSpaceOnUse" x1="-819.2" x2="819.2" gradientTransform="matrix(.004 0 0 .002 15.65 15.65)" id="y"><stop offset="0" stop-color="#fff"/><stop offset="1"/></linearGradient><radialGradient gradientUnits="userSpaceOnUse" r="819.2" cx="0" cy="0" spreadMethod="pad" gradientTransform="matrix(.003 0 0 .003 20.05 24.4)" id="z"><stop offset="0" stop-color="#fff"/><stop offset="1"/></radialGradient><linearGradient gradientUnits="userSpaceOnUse" x1="-819.2" x2="819.2" gradientTransform="matrix(.004 0 0 .003 17.45 27.95)" id="A"><stop offset="0" stop-color="#fff"/><stop offset="1"/></linearGradient><linearGradient gradientUnits="userSpaceOnUse" x1="-819.2" x2="819.2" gradientTransform="matrix(.003 0 0 .004 14.1 29.85)" id="B"><stop offset="0" stop-color="#fff"/><stop offset="1"/></linearGradient><radialGradient gradientUnits="userSpaceOnUse" r="819.2" cx="0" cy="0" spreadMethod="pad" gradientTransform="matrix(.02 0 0 .02 19.9 33.55)" id="C"><stop offset=".227" stop-color="#993"/><stop offset=".412" stop-color="#930"/><stop offset=".651" stop-color="#930"/><stop offset=".8" stop-color="#030"/></radialGradient><radialGradient gradientUnits="userSpaceOnUse" r="819.2" cx="0" cy="0" spreadMethod="pad" gradientTransform="matrix(.01 -.006 .005 .008 6.95 38.75)" id="D"><stop offset=".227" stop-color="#993"/><stop offset=".412" stop-color="#930"/><stop offset=".651" stop-color="#930"/><stop offset=".8" stop-color="#030"/></radialGradient><radialGradient gradientUnits="userSpaceOnUse" r="819.2" cx="0" cy="0" spreadMethod="pad" gradientTransform="matrix(.008 0 0 .008 15.05 42.65)" id="E"><stop offset="0" stop-color="#fff"/><stop offset="1"/></radialGradient><radialGradient gradientUnits="userSpaceOnUse" r="819.2" cx="0" cy="0" spreadMethod="pad" gradientTransform="matrix(.009 0 0 .009 17.1 39.9)" id="F"><stop offset="0" stop-color="#fff"/><stop offset="1"/></radialGradient><linearGradient gradientUnits="userSpaceOnUse" x1="-819.2" x2="819.2" gradientTransform="matrix(.002 -.015 .008 .001 41 20.75)" id="G"><stop offset="0" stop-color="#fff"/><stop offset="1"/></linearGradient><linearGradient gradientUnits="userSpaceOnUse" x1="-819.2" x2="819.2" gradientTransform="matrix(.014 0 0 .012 49.35 23.35)" id="H"><stop offset="0" stop-color="#fff"/><stop offset="1"/></linearGradient></defs><path fill="#fff" d="M30.45 11.2q-.4.5-.5 1.15l-.1.05-.35.45-.6-.6-.25-.2q-.4-.15-.75.6l-.85-.65q-.05.6-.7 1l-1.3-1.1-.55 1.1-.8-1.2-1.15 1.4-.05-1.2q-1.05.3-1.4 1.35l-.5-1.05q-.45.6-.2 1.3l-.5-.55.1-.25q.2-.55-.2-.9l1.4-.6 1.4-.25 5.9-.05 1.95.2"/><path fill="#9c0" d="M30.5 7.9l-.65 1.15-.4.35-.4.25-.95.05-.45-.1-.8-.3-.4-.05-.65-.15.45-.1.35-.3 1.55-1.1.9-.25.5.05.85.4.1.1m-10.95.75l.3-.4.7-.6.9.05.9.4.8.55.6.3-.75.55-.9.35-.9-.15-.8-.55-.15-.15-.7-.35"/><path d="M18.1 22.35l-.7-1-.55-1.25-.05-.2.05-1.4.1-.35L18 16.5l1 .1.75.25 1.3.85q-1.25-.1-2.2.6-.7.5.25 1.3l3.15 2.65-3.3-1.4q-.5-.2-.55.4v.2l.15.5q.7 1.2 1.95 2.1l.4.3-.35-.05h-.05q-.95-.1-1.5-.8l-.05-.05-.85-1.1m11.8 1.2l.7-.15.6-.5 1.25-1.7-.4.25-.6.25-4.4.1 3.25-.5q.75-.05 1.2-.6l.2-.25q.5-.8.35-1.95l-.7.2-1.85.2 1.5-.75 1.35-1.1q.65-.65 1.5-.85l.65.2.9 1.6V18.15l.2 2q-.1 1.05-.85 1.8l-.55.45-.3.15-.8.45-1.25.4-.5.1-1.45.15v-.1"/><path fill="url(#a)" d="M33.2 10.45l.75.25q1.35.4 2.25 1.3l.8 1.2.1 1.35-.5 2.75-.8-1.2-1.25-1.3-2.15-1.3-.5-.45.4-.45.7-1.4.2-.75"/><path fill="url(#b)" d="M37 13.2l1.75-.6q1-.4 1.35-1.35l.1-.75.6 2.5-.95.85q-1.2.5-1.25 1.65l-.35 1.55q-.4.8-.95.9h-.1l-1.05-.6-.05-.05-.4-.5q-.75-1.05-2.15-1.35l-1.65-.15.4-.95.1-.85 2.15 1.3 1.25 1.3.8 1.2.5-2.75-.1-1.35"/><path fill="url(#c)" d="M17.65 8.25q-.2-1.8.65-2.85.8-.95 2-1.55l.55.95.85-.1.65-.5q.3-.55.05-.9l.8.05 2.9-.05 1.1-.15q-.1.45.1.9.4.45.9.45l.7-.35.45-.85q1.25.3 2.4 1.3l.1.65.05.2.1 1.35-.15 1.6-.45 1.45-.85 1.25-.1.1-1.95-.2-5.9.05-1.4.25-1.4.6-.45-.25-.8-1.3-.9-2.1m13.4-.05l.1-.25q.2-.75-.15-1.75-.85 1.7-1.7-.4l-.55 1.05h-.05l-1.75-.4.05.15-.1.4q-.85 1.05-1.55-.1l.05.65-.3.55q-1.85.75-.95-.85l-1 .05-1.4-.1q.35-.9 1.2-1.05-1.7.1-3.05 1.15-1.4 1.05-.8-.5-.75.9 0 2l-.3.6.85.1q.9.25 1.35 1.2l1.75-.8 1.5.05q.55-.75 1.25-.15l.1-.05.45-.05q.6.1.25.75h1.95l2.1-.3.7-1.95"/><path fill="url(#d)" d="M27.2 3.15l.3-.5.55-1.4L28 .1l1 1.4.35 1.2v.6l-.45.85-.7.35q-.5 0-.9-.45-.2-.45-.1-.9"/><path fill="url(#e)" d="M31.75 4.6l-.15-1.5 1.55 3.15.25 1.1-.1 2.6-.1.5-.2.75-.7 1.4-.4.45-.15.1-.5.15-.65-.05-.6-.4-.1-.4.05-.1q.1-.65.5-1.15l.1-.1.85-1.25.45-1.45.15-1.6-.1-1.35-.15-.85"/><path fill="url(#f)" d="M30.5 7.9l-.1-.1-.85-.4-.5-.05-.9.25-1.55 1.1-.35.3-.45.1.65.15.4.05.8.3.45.1.95-.05.4-.25.4-.35.65-1.15.55.3-.55-.3m-11.4.9q-.75-1.1 0-2-.6 1.55.8.5 1.35-1.05 3.05-1.15-.85.15-1.2 1.05l1.4.1 1-.05q-.9 1.6.95.85l.3-.55-.05-.65q.7 1.15 1.55.1l.1-.4-.05-.15 1.75.4h.05l.55-1.05q.85 2.1 1.7.4.35 1 .15 1.75l-.1.25-.7 1.95-2.1.3H26.3q.35-.65-.25-.75l-.45.05-.1.05q-.7-.6-1.25.15l-1.5-.05-1.75.8q-.45-.95-1.35-1.2l-.85-.1.3-.6.25-.05.2-.1.7.35.15.15.8.55.9.15.9-.35.75-.55-.6-.3-.8-.55-.9-.4-.9-.05-.7.6-.3.4-.2.1-.25.05"/><path fill="url(#g)" d="M31.25 13.3l.5-.15.15-.1.5.45-.1.85-.4.95-.45.6-.95.65-1.3.55q-.85.3-1.55.75-.35.3-.75.55-1.05.9-1.15 2.35L25.2 20l-5.95-4.75-.35-.45-.55-1.2.4-.25.35.1.4-.05.7 1.35.5.55.9-.05h.05l1.05.85 1 .55 1.2-.1 1.1.1 1.45-.7.55-.35.7-.65.55-.1 1.7-1.1.3-.45"/><path fill="url(#h)" d="M17.6 25.5l-.05-1.1.35-1.75.05-.05.05-.1.1-.15.85 1.1-.1.1h-.05q-.3.9.25 1.9l.05.1.95 1.5.1-1.85.3-.65.05-.15v-.1h.05l.35.05 1.55.25 1.95.05q1.1-.2 1.2-1.4l-.1-2.15-.6-.85-3.1-2.15-.75-.4-1.3-.85-.75-.25-1-.1-1.05 1.65-.1.35-1.25.55-.95.2-1.75-.15-1.65-.6-1.15-.9-.3-.45-.5-1.3-.05-1 .4-1.7.6-1 .5 1.05.85.9.8.5.05.9q0 1.3 1.1 2 .8.55 1.7-.65l1.15-1.1 2.5-.95.35.45L25.2 20l.55.75q.1-1.45 1.15-2.35.4-.25.75-.55.7-.45 1.55-.75l1.3-.55.95-.65.45-.6 1.65.15q1.4.3 2.15 1.35l.4.5.05.05 1.05.6V18l-1.8.05V18l-.9-1.6-.65-.2q-.85.2-1.5.85L31 18.15l-1.5.75-.2.1-1.7.7h-.1q-.85.35-1.45 1.05l-.1.1v1.95q.05 1.15.95 1.5l.75-.2q.85-.45 1.8-.45h.45l1.45-.15.5-.1q.25.95.15 2.05l-.6 1.2q1.2-.7 2.2-1.8.55-.65.5-1.6l-.2-.7.3-.15.05.15.1.15v.7l-.2 2.1-.65 1.95L32.45 29l-.65.5h-.05l-.85.45-1.85.7-1.75.35h-.35l-3.5-.1-1.1-.15-.8-.1-1.1-.45-.5-.45-1.25-1.55-.85-1.7-.25-1m12.25 2.35l-.5.15-1.75.1-3.6-.55-1.55-.65 1.55.65 3.6.55 1.75-.1.5-.15m-.6 1.35l-.85.25-1.9.3-1.8-.2-1.75-.7 1.75.7 1.8.2 1.9-.3.85-.25M28.8 26l-1.8.35-1.7.1-3.45-.7 3.45.7 1.7-.1 1.8-.35"/><path fill="url(#i)" d="M28 15.6l-.55.35-1.45.7-1.1-.1-1.2.1-1-.55-1.05-.85 1.75-.85 2.7.15L28 15.6"/><path fill="url(#j)" d="M29.45 23.65q-.95 0-1.8.45l-.75.2q-.9-.35-.95-1.5v-1.95l.1-.1q.6-.7 1.45-1.05h.1l1.7-.7.2-.1 1.85-.2.7-.2q.15 1.15-.35 1.95l-.2.25q-.45.55-1.2.6l-3.25.5 4.4-.1.6-.25.4-.25-1.25 1.7-.6.5-.7.15-.45.1"/><path fill="url(#k)" d="M21.05 17.7l.75.4 3.1 2.15.6.85.1 2.15q-.1 1.2-1.2 1.4l-1.95-.05-1.55-.25-.4-.3q-1.25-.9-1.95-2.1l-.15-.5v-.2q.05-.6.55-.4l3.3 1.4-3.15-2.65q-.95-.8-.25-1.3.95-.7 2.2-.6"/><path fill="url(#l)" d="M31.85 23.4l1.25-.4.8-.45.2.7q.05.95-.5 1.6-1 1.1-2.2 1.8l.6-1.2q.1-1.1-.15-2.05"/><path fill="url(#m)" d="M40.8 13l.05.25.05.7-.1.9q-.15.85-.75 1.5l-.65.7-.5.35q-.75.45-1.6.55.55-.1.95-.9l.35-1.55q.05-1.15 1.25-1.65l.95-.85"/><path fill="url(#n)" d="M23.4 35.65l-.3-.35q-1-1.05-1.45-2.4l.35-.5q.4-.7.35-1.65l1.1.15 3.5.1.3.4.9 1.5.05.05.3.9q.6 1.85.2 3.45l1.25-1.15 1.25-2.45.25-.9.1-.55.2-2.15.4.3.9 1 .15.2 2.3 3.8-1.7 1.15-1.15-1-.1-.2-.4.8q-.8 1.95-2.65 3.25l-2.05 1.45.15-1.45-.2-1.25-.05-.2-.85-2.5-.15-.35q-.6-1.15-1.9-1.3-1.4-.2-1.05 1.85"/><path fill="url(#o)" d="M31.75 29.5v.6l-.2 2.15-.1.55-2.4.2-.25-.05-.55-.05h-.1l-.9-1.5-.3-.4h.35l1.75-.35 1.85-.7.85-.45"/><path fill="url(#p)" d="M31.45 32.8l-.25.9-1.25 2.45-1.25 1.15q.4-1.6-.2-3.45l-.3-.9-.05-.05h.1l.55.05.25.05 2.4-.2"/><path fill="url(#q)" d="M25.35 41.75l-.05-.05q-.6-1.55-.8-3.2l-.15-.8-.45-1.3-.5-.75q-.35-2.05 1.05-1.85 1.3.15 1.9 1.3l.15.35.85 2.5.05.2.2 1.25-.15 1.45 2.05-1.45q1.85-1.3 2.65-3.25l.4-.8.1.2 1.15 1-1.2.65h1.7q.35 1.25.15 2.6l-.05.55-.65 2.3-.35.65q-.65.9-1.95.85l-2.4-.3-.5-.15-2.15-.25-.65-.9-.4-.75v-.05"/><path fill="url(#r)" d="M25.35 41.75v.05l.4.75.65.9.95.85q1.4.9 3.05 1.25l1 .2-.35 1.55-1.8-.15-4-2.2q-1.35 1-1.9 1.95l.4-2.3v-.35q.05-1.15.5-1.75.35-.6 1.1-.75"/><path fill="url(#s)" d="M36.15 37.1l.2 3.9q.15 2.05-.75 3.5-.7 1.1-1.85 1.25H31.4l-1-.2q-1.65-.35-3.05-1.25l-.95-.85 2.15.25.5.15 2.4.3q1.3.05 1.95-.85l.35-.65.65-2.3.05-.55q.2-1.35-.15-2.6l1.8-.1h.05"/><path fill="url(#t)" d="M16.8 19.9l-.85.1-.55.15-1.5.2h-.95l-.75-.15-3.1-1.05-.65.15-.6.35-1.8.9-.85.6q-1.1.85-1.9 2.1l-.6 1.4-.3 1.4h-.05q-.7-1.15-1.05-2.5-.35-1.4-.15-2.8l.2-.9.8-1.75 1.8-2.25q1.2-1.35 1.9.25l.05.25q.4 1.1 1.15 1.25l1.2-.1 1.55-.35.3.45 1.15.9 1.65.6 1.75.15.95-.2 1.25-.55-.05 1.4"/><path fill="url(#u)" d="M2.4 26.15l-.15 1.95q-.1 3.45 1.35 6.1l-1-1.3L1 29.65Q-.25 26.7.05 23.4q.35-3.65 1.4-7.15.75-2.55 2.85-3.95 2.05-1.35 4.1-1.15l-1 1.15q-.6 1.05-.8 2.25-.05.45.55.45l1 .25.95.65.2-.05.5 1.3-1.55.35-1.2.1q-.75-.15-1.15-1.25l-.05-.25q-.7-1.6-1.9-.25l-1.8 2.25-.8 1.75-.2.9q-.2 1.4.15 2.8.35 1.35 1.05 2.5l.05.1"/><path fill="url(#v)" d="M20.3 3.85l-.15-1.9L20.6.5 21 0q-.15.65.25 1.35L22.4 3.3q.25.35-.05.9l-.65.5-.85.1-.55-.95"/><path fill="url(#w)" d="M16.85 11.15l-.35-.85q-.4-.95-.45-2.05l.1-1.4.3-1.15.65-1.6v.7l.4 3.05.15.4.9 2.1.8 1.3.45.25q.4.35.2.9l-.1.25-.35.3-.05.05-.4.05-.35-.1-.15-.05-.95-1-.8-1.15"/><path fill="url(#x)" d="M16.85 11.15l.8 1.15.95 1 .15.05-.4.25-.6.3-1.7 1.15q-1.1.95-1.75 2.25l-.1-2.4q.1-1.15.55-2.15h.05q.7-1.5 2.05-1.6"/><path fill="url(#y)" d="M12.4 14.6l1.8.3.1 2.4q.65-1.3 1.75-2.25l1.7-1.15.6-.3.55 1.2-2.5.95-1.15 1.1q-.9 1.2-1.7.65-1.1-.7-1.1-2l-.05-.9"/><path fill="url(#z)" d="M20.5 24.3v.1l-.05.15-.3.65-.1 1.85-.95-1.5-.05-.1q-.55-1-.25-1.9h.05l.1-.1.05.05q.55.7 1.5.8"/><path fill="url(#A)" d="M14.45 26.9l.1-.1q1.1-1.5 3.05-1.3l.25 1 .85 1.7 1.25 1.55.5.45-.9.25h-2.8l-.5-.4q-1-.85-1.5-2l-.1-.3-.2-.85"/><path fill="url(#B)" d="M14.45 26.9l.2.85.1.3q.5 1.15 1.5 2l.5.4h-.6l-.65.2q-2 1.1-4.05 2.15l1.25-3.05 1.05-1.8.05-.1.65-.95"/><path fill="url(#C)" d="M21.65 32.9l-.3.2-2.05 1.75-.25.3H19l-.75 1-.15-1 .15 1-1.3 2.45-.6.75-1.7 1.1-1.3.6-2.8.7-.75.05-.2.05-2.45.2-.9-.05H6.2q-.1-.25.2-.65l.35-.3.7-.3 2.75-.4.1-.05 1.35-.3.55-.35q1.4-1.05 2.4-2.55 1.3-1.95 2.05-3.9l.15-.3.05-.15-.15.05-.3.15-4.95 1.5q-1.25.3-2.35 1.05-1.3.9-1.15-.3.15-1.4 1-2.65l2.3-2.9.15-.3.2-.2q1-.9 2.15-1.2l-1.05 1.8-1.25 3.05q2.05-1.05 4.05-2.15l.65-.2h.6l.05.05v-.05h2.75l.9-.25 1.1.45.8.1q.05.95-.35 1.65l-.35.5"/><path fill="url(#D)" d="M6.2 42q-1.15-.25-1.5-1.35-.45-1.55-.15-3.5.25-1.8 1.75-2.75l4.9-4.8.05.05-2.3 2.9q-.85 1.25-1 2.65-.15 1.2 1.15.3 1.1-.75 2.35-1.05l4.95-1.5.3-.15.15-.05-.05.15-.15.3q-.75 1.95-2.05 3.9-1 1.5-2.4 2.55l-.55.35-1.35.3-.1.05-2.75.4-.7.3-.35.3q-.3.4-.2.65"/><path fill="url(#E)" d="M16.75 42.55v.1l-.7 3.4-.5-1.15-1-1.45q-.3-.35-.9-.45l-2.4.1-.95.3q-.85.3-1.35.85l1.65-2 .05.05 1.5.15.7-.1h.1l.7-.15 1.15-.45q1.5-.65 1.95.8"/><path fill="url(#F)" d="M16.75 42.55q-.45-1.45-1.95-.8l-1.15.45-.7.15h-.1l-.7.1-1.5-.15-.05-.05-.8-.45.75-.05 2.8-.7 1.3-.6 1.7-1.1.6-.75 1.3-2.45-.05 2-1.1 2.95v.05l-.35 1.4"/><path fill="#400000" d="M29.9 12.45l.1.4.6.4.65.05-.3.45-1.7 1.1-.55.1-.7.65-1.9-1.05-2.7-.15-1.75.85h-.05l-.9.05-.5-.55-.7-1.35.05-.05.35-.3.5.55q-.25-.7.2-1.3l.5 1.05q.35-1.05 1.4-1.35l.05 1.2 1.15-1.4.8 1.2.55-1.1 1.3 1.1q.65-.4.7-1l.85.65q.35-.75.75-.6l.25.2.6.6.35-.45.05.05"/><path fill="url(#G)" d="M40.85 13.25q1.35-.45 1.55-1.3.3-1.3-.2-2.5 1.75 1.15 2.85 2.8l.85 1.9.5 2.35q.5 3 .5 6.1 0 4.2-1.8 8-1.15 2.35-2.85 4.15l-.75.6-.55.35-2.35 1-2.45.4h-.05l-1.8.1h-1.7l1.2-.65 1.7-1.15 1.65-1.45.5-.55.35-.15 3.3-2.05q1.1-.8 1.6-1.95l2.15-6.8q.65-2.75-.7-5.2l-1.85-3.8-.25.75q-.65.7-1.45.65l.1-.9-.05-.7"/><path fill="url(#H)" d="M40.8 14.85q.8.05 1.45-.65l.25-.75 1.85 3.8q1.35 2.45.7 5.2l-2.15 6.8q-.5 1.15-1.6 1.95L38 33.25l-.35.15q1.5-1.8 2.35-4.1l.05-.25q.6-1.75.8-3.6L41 21.6l-.5-3.5-.2-.35-.45-.3-.45-.4.65-.7q.6-.65.75-1.5"/><path fill="none" stroke="#000" stroke-width=".05" stroke-linecap="round" stroke-miterlimit="3" d="M17.95 22.6l.05-.1M30.5 7.9l.55.3m-11.95.6l.25-.05.2-.1m12.6 21.75l.9 1 .15.2 2.3 3.8"/><path fill="none" stroke="#f00" stroke-width=".05" stroke-linecap="round" stroke-miterlimit="3" d="M17.9 22.65l.05-.05m.05-.1l.1-.15m2.4 2.05l-.05.15m-1.6-1l.1-.1M34.2 22.4l.05.15m-2.5 7.55l.4.3"/><path fill="none" stroke="#E0E0E0" stroke-width=".05" stroke-linecap="round" stroke-miterlimit="3" d="M2.4 26.15l-.15 1.95q-.1 3.45 1.35 6.1l-1-1.3L1 29.65Q-.25 26.7.05 23.4q.35-3.65 1.4-7.15.75-2.55 2.85-3.95 2.05-1.35 4.1-1.15l-1 1.15q-.6 1.05-.8 2.25-.05.45.55.45l1 .25.95.65m.2-.05l.5 1.3m3.15 25.2h-.1M12.85 42.35l-.7.1M9.1 15.9l.2-.05"/><path fill="none" stroke="#4B4B4B" stroke-width=".05" stroke-linecap="round" stroke-miterlimit="3" d="M29.5 18.9l-.2.1-1.7.7h-.1q-.85.35-1.45 1.05l-.1.1v1.95q.05 1.15.95 1.5l.75-.2q.85-.45 1.8-.45h.45l1.45-.15.5-.1 1.25-.4.8-.45.3-.15m-4.7-3.5l1.5-.75 1.35-1.1q.65-.65 1.5-.85l.65.2.9 1.6v.05l1.8-.05.1-.05q.85-.1 1.6-.55l.5-.35m-4 1v.1l.2 2q-.1 1.05-.85 1.8l-.55.45m-2.35 1q.25.95.15 2.05l-.6 1.2q1.2-.7 2.2-1.8.55-.65.5-1.6l-.2-.7"/><path fill="none" stroke="#585858" stroke-width=".05" stroke-linecap="round" stroke-miterlimit="3" d="M18.1 22.35l-.7-1-.55-1.25-.05-.2-.85.1-.55.15-1.5.2h-.95l-.75-.15-3.1-1.05m-6.7 6.9v.1m18.5-1.8l1.55.25 1.95.05q1.1-.2 1.2-1.4l-.1-2.15-.6-.85-3.1-2.15-.75-.4m-.15 6.65l-.35-.05h-.05m-1.55-.85l-.85-1.1m-8.3-5.2l.3.45 1.15.9 1.65.6 1.75.15.95-.2 1.25-.55.1-.35L18 16.5l1 .1.75.25 1.3.85m-2.1 5.75l.05.05q.55.7 1.5.8m-3.7-4.4l.05-1.4"/><path fill="none" stroke="#717171" stroke-width=".05" stroke-linecap="round" stroke-miterlimit="3" d="M9.1 19.15l-.65.15-.6.35-1.8.9-.85.6q-1.1.85-1.9 2.1l-.6 1.4-.3 1.4"/><path fill="none" stroke="#333" stroke-width=".05" stroke-linecap="round" stroke-miterlimit="3" d="M19.8 11.9l1.4-.6 1.4-.25 5.9-.05 1.95.2m-.6 1.2l.1-.05"/><path fill="none" stroke="#030" stroke-width=".05" stroke-linecap="round" stroke-miterlimit="3" d="M36.15 37.1l.2 3.9q.15 2.05-.75 3.5-.7 1.1-1.85 1.25H31.4m-5-2.3l.95.85q1.4.9 3.05 1.25l1 .2"/><path fill="none" stroke="#461600" stroke-width=".05" stroke-linecap="round" stroke-miterlimit="3" d="M21.85 25.75l3.45.7 1.7-.1 1.8-.35m-5.85 2.85l1.75.7 1.8.2 1.9-.3.85-.25m-6.8-2.3l1.55.65 3.6.55 1.75-.1.5-.15"/><path fill="none" stroke="#6D6D6D" stroke-width=".05" stroke-linecap="round" stroke-miterlimit="3" d="M23.4 35.65l-.3-.35q-1-1.05-1.45-2.4M6.2 42q-1.15-.25-1.5-1.35-.45-1.55-.15-3.5.25-1.8 1.75-2.75l4.9-4.8.2-.25m22.85-6.8l.1.15m-2.6 6.8v.6m-4.8.9h.35m4.15 1.8l-.25.9-1.25 2.45-1.25 1.15q.4-1.6-.2-3.45l-.3-.9-.05-.05-.9-1.5-.3-.4m4.5 1.8l.1-.55.2-2.15"/><path fill="none" stroke="#5E5E5E" stroke-width=".05" stroke-linecap="round" stroke-miterlimit="3" d="M20.45 24.55l-.3.65-.1 1.85-.95-1.5-.05-.1q-.55-1-.25-1.9h.05"/><path fill="none" stroke="#683300" stroke-width=".05" stroke-linecap="round" stroke-miterlimit="3" d="M25.35 41.75l-.05-.05q-.6-1.55-.8-3.2l-.15-.8-.45-1.3-.5-.75m1.95 6.1v.05l.4.75.65.9"/><path fill="none" stroke="#743300" stroke-width=".05" stroke-linecap="round" stroke-miterlimit="3" d="M21.65 32.9l-.3.2-2.05 1.75-.25.3H19l-.75 1-.15-1M9.8 41.8l-.2.05-2.45.2-.9-.05m5.15-12.65l.2-.2q1-.9 2.15-1.2m4.5 8.2l-1.3 2.45-.6.75-1.7 1.1-1.3.6-2.8.7-.75.05m12.55-11.05q.05.95-.35 1.65l-.35.5"/><path fill="none" stroke="#6F6F6F" stroke-width=".05" stroke-linecap="round" stroke-miterlimit="3" d="M13.75 27.95l.05-.1.65-.95.1-.1q1.1-1.5 3.05-1.3m-.8 4.95h-.65l-.65.2q-2 1.1-4.05 2.15l1.25-3.05 1.05-1.8m3.05 2.5h2.75l.9-.25"/><path fill="none" stroke="#969696" stroke-width=".05" stroke-linecap="round" stroke-miterlimit="3" d="M18.25 36.15l-.05 2-1.1 2.95v.05l-.35 1.4v.1l-.7 3.4-.5-1.15-1-1.45q-.3-.35-.9-.45l-2.4.1-.95.3q-.85.3-1.35.85l1.65-2-.8-.45m2.35.65l-1.5-.15-.05-.05"/><path fill="none" stroke="#B6B6B6" stroke-width=".05" stroke-linecap="round" stroke-miterlimit="3" d="M31.4 45.75l-.35 1.55-1.8-.15-4-2.2q-1.35 1-1.9 1.95l.4-2.3v-.35q.05-1.15.5-1.75.35-.6 1.1-.75"/><path fill="none" stroke="#7B7B7B" stroke-width=".05" stroke-linecap="round" stroke-miterlimit="3" d="M9.3 15.85l-.05-1 .4-1.7.6-1 .5 1.05.85.9.8.5 1.8.3m3.45-6.65q-.2-1.8.65-2.85.8-.95 2-1.55m2.1-.55l.8.05 2.9-.05 1.1-.15m2.15.15q1.25.3 2.4 1.3M37 13.2l1.75-.6q1-.4 1.35-1.35l.1-.75.6 2.5.05.25m-8.95-7.8l-.05-.2-.1-.65"/><path fill="none" stroke="#6F0000" stroke-width=".05" stroke-linecap="round" stroke-miterlimit="3" d="M14.2 14.9q.1-1.15.55-2.15h.05q.7-1.5 2.05-1.6m16.35-.7l.75.25q1.35.4 2.25 1.3l.8 1.2m-4.6.3l2.15 1.3 1.25 1.3.8 1.2.5-2.75-.1-1.35m-18.65.4l-.6.3-1.7 1.15q-1.1.95-1.75 2.25l-.1-2.4"/><path fill="none" stroke="#628200" stroke-width=".05" stroke-linecap="round" stroke-miterlimit="3" d="M30.5 7.9l-.65 1.15-.4.35-.4.25-.95.05-.45-.1-.8-.3-.4-.05-.65-.15.45-.1.35-.3 1.55-1.1.9-.25.5.05.85.4.1.1m-10.95.75l.3-.4.7-.6.9.05.9.4.8.55.6.3-.75.55-.9.35-.9-.15-.8-.55-.15-.15-.7-.35"/><path fill="none" stroke="#820000" stroke-width=".05" stroke-linecap="round" stroke-miterlimit="3" d="M20.3 3.85l-.15-1.9L20.6.5 21 0q-.15.65.25 1.35L22.4 3.3q.25.35-.05.9l-.65.5-.85.1-.55-.95m6.9-.7l.3-.5.55-1.4L28 .1l1 1.4.35 1.2v.6l-.45.85-.7.35q-.5 0-.9-.45-.2-.45-.1-.9"/><path fill="none" stroke="#995C14" stroke-width=".05" stroke-linecap="round" stroke-miterlimit="3" d="M31.9 15.3l-.45.6-.95.65-1.3.55q-.85.3-1.55.75-.35.3-.75.55-1.05.9-1.15 2.35L25.2 20l-5.95-4.75-.35-.45m-.15-1.45l-.4.25.55 1.2m13 .5l.4-.95.1-.85-.5-.45"/><path fill="none" stroke="#6B6B6B" stroke-width=".05" stroke-linecap="round" stroke-miterlimit="3" d="M19.9 13.05l.5.55q-.25-.7.2-1.3l.5 1.05q.35-1.05 1.4-1.35l.05 1.2 1.15-1.4.8 1.2.55-1.1 1.3 1.1q.65-.4.7-1l.85.65q.35-.75.75-.6l.25.2.6.6.35-.45M28 15.6l.7-.65.55-.1 1.7-1.1.3-.45m-9.6 1.95l1.05.85 1 .55 1.2-.1 1.1.1 1.45-.7.55-.35m-6.35-.35h-.05l-.9.05-.5-.55-.7-1.35"/><path fill="none" stroke="#8F0000" stroke-width=".05" stroke-linecap="round" stroke-miterlimit="3" d="M19.5 13.4l-.4.05-.35-.1-.15-.05-.95-1-.8-1.15-.35-.85q-.4-.95-.45-2.05l.1-1.4.3-1.15.65-1.6v.7l.4 3.05.15.4.9 2.1.8 1.3.45.25q.4.35.2.9l-.1.25-.35.3-.05.05m12.25-8.8l-.15-1.5 1.55 3.15.25 1.1-.1 2.6-.1.5M31.75 4.6l.15.85.1 1.35-.15 1.6-.45 1.45-.85 1.25-.1.1q-.4.5-.5 1.15l-.05.1.1.4.6.4.65.05.5-.15.15-.1.4-.45.7-1.4.2-.75"/><path fill="none" stroke="#6F2400" stroke-width=".05" stroke-linecap="round" stroke-miterlimit="3" d="M17.6 25.5l-.05-1.1.35-1.75m16.45.05v.7l-.2 2.1-.65 1.95L32.45 29l-.65.5h-.05m-11.3.7l-.5-.45-1.25-1.55-.85-1.7-.25-1m2.85 4.7l1.1.45.8.1 1.1.15 3.5.1m.35 0l1.75-.35 1.85-.7.85-.45"/><path fill="none" stroke="#ccc" stroke-width=".05" stroke-linecap="round" stroke-miterlimit="3" d="M40.85 13.25q1.35-.45 1.55-1.3.3-1.3-.2-2.5 1.75 1.15 2.85 2.8l.85 1.9.5 2.35q.5 3 .5 6.1 0 4.2-1.8 8-1.15 2.35-2.85 4.15l-.75.6-.55.35-2.35 1-2.45.4m4.7-23.85l.05.7-.1.9M37.65 33.4l-.5.55-1.65 1.45-1.7 1.15-1.2.65h1.7l1.8-.1h.05"/><path fill="none" stroke="#909090" stroke-width=".05" stroke-linecap="round" stroke-miterlimit="3" d="M39.4 17.05l.45.4.45.3.2.35.5 3.5-.15 3.85q-.2 1.85-.8 3.6l-.05.25q-.85 2.3-2.35 4.1m1.75-16.35l.65-.7q.6-.65.75-1.5"/></svg>