<svg xmlns="http://www.w3.org/2000/svg" viewBox="0 0 54.4 54.9" width="54.4" height="54.9"><defs><radialGradient gradientUnits="userSpaceOnUse" r="819.2" cx="0" cy="0" spreadMethod="pad" gradientTransform="matrix(.005 0 0 .005 25.55 1.8)" id="a"><stop offset=".157"/><stop offset="1" stop-color="#0f0"/></radialGradient><radialGradient gradientUnits="userSpaceOnUse" r="819.2" cx="0" cy="0" spreadMethod="pad" gradientTransform="matrix(.006 0 0 .006 32.15 3.85)" id="b"><stop offset=".157"/><stop offset="1" stop-color="#0f0"/></radialGradient><radialGradient gradientUnits="userSpaceOnUse" r="819.2" cx="0" cy="0" spreadMethod="pad" gradientTransform="matrix(.007 0 0 .007 24.95 6.45)" id="c"><stop offset="0" stop-color="#fff"/><stop offset=".239" stop-color="#f00"/><stop offset="1"/></radialGradient><radialGradient gradientUnits="userSpaceOnUse" r="819.2" cx="0" cy="0" spreadMethod="pad" gradientTransform="matrix(.005 0 0 .005 32.95 8.95)" id="d"><stop offset=".157"/><stop offset="1" stop-color="#0f0"/></radialGradient><radialGradient gradientUnits="userSpaceOnUse" r="819.2" cx="0" cy="0" spreadMethod="pad" gradientTransform="matrix(.016 0 0 .016 43.05 28.1)" id="e"><stop offset="0" stop-color="#f00"/><stop offset=".957" stop-color="#060"/></radialGradient><radialGradient gradientUnits="userSpaceOnUse" r="819.2" cx="0" cy="0" spreadMethod="pad" gradientTransform="matrix(.008 0 0 .008 24.6 10.55)" id="f"><stop offset=".157"/><stop offset="1" stop-color="#0f0"/></radialGradient><radialGradient gradientUnits="userSpaceOnUse" r="819.2" cx="0" cy="0" spreadMethod="pad" gradientTransform="matrix(.006 0 0 .006 24.1 16.35)" id="g"><stop offset="0" stop-color="#f00"/><stop offset=".957" stop-color="#060"/></radialGradient><radialGradient gradientUnits="userSpaceOnUse" r="819.2" cx="0" cy="0" spreadMethod="pad" gradientTransform="matrix(.016 0 0 .016 24.85 27.9)" id="h"><stop offset=".475" stop-color="#f00"/><stop offset="1" stop-color="#cc0"/></radialGradient><radialGradient gradientUnits="userSpaceOnUse" r="819.2" cx="0" cy="0" spreadMethod="pad" gradientTransform="matrix(.014 0 0 .014 24.75 30.15)" id="i"><stop offset=".133"/><stop offset=".537" stop-color="#f00"/><stop offset=".906"/></radialGradient><radialGradient gradientUnits="userSpaceOnUse" r="819.2" cx="0" cy="0" spreadMethod="pad" gradientTransform="matrix(.016 0 0 .016 44.9 36.5)" id="j"><stop offset="0" stop-color="#f00"/><stop offset=".957" stop-color="#060"/></radialGradient><radialGradient gradientUnits="userSpaceOnUse" r="819.2" cx="0" cy="0" spreadMethod="pad" gradientTransform="matrix(.001 0 0 .001 36.9 30)" id="k"><stop offset="0" stop-color="#f00"/><stop offset="1"/></radialGradient><radialGradient gradientUnits="userSpaceOnUse" r="819.2" cx="0" cy="0" spreadMethod="pad" gradientTransform="matrix(.004 0 0 .004 16.95 8.6)" id="l"><stop offset=".157"/><stop offset="1" stop-color="#0f0"/></radialGradient><radialGradient gradientUnits="userSpaceOnUse" r="819.2" cx="0" cy="0" spreadMethod="pad" gradientTransform="matrix(.006 0 0 .006 18.75 3.5)" id="m"><stop offset=".157"/><stop offset="1" stop-color="#0f0"/></radialGradient><radialGradient gradientUnits="userSpaceOnUse" r="819.2" cx="0" cy="0" spreadMethod="pad" gradientTransform="matrix(.001 0 0 .001 24.3 6.75)" id="n"><stop offset="0" stop-color="#f00"/><stop offset="1"/></radialGradient><radialGradient gradientUnits="userSpaceOnUse" r="819.2" cx="0" cy="0" spreadMethod="pad" gradientTransform="matrix(.015 0 0 .015 9.1 24.95)" id="o"><stop offset="0" stop-color="#f00"/><stop offset=".957" stop-color="#060"/></radialGradient><radialGradient gradientUnits="userSpaceOnUse" r="819.2" cx="0" cy="0" spreadMethod="pad" gradientTransform="matrix(.002 0 0 .002 2.5 23.8)" id="p"><stop offset="0" stop-color="#f00"/><stop offset="1"/></radialGradient><radialGradient gradientUnits="userSpaceOnUse" r="819.2" cx="0" cy="0" spreadMethod="pad" gradientTransform="matrix(.005 0 0 .005 7.9 21.3)" id="q"><stop offset="0" stop-color="#f00"/><stop offset=".957" stop-color="#060"/></radialGradient><radialGradient gradientUnits="userSpaceOnUse" r="819.2" cx="0" cy="0" spreadMethod="pad" gradientTransform="matrix(.009 0 0 .009 14.5 15.35)" id="r"><stop offset="0" stop-color="#f00"/><stop offset=".957" stop-color="#060"/></radialGradient><radialGradient gradientUnits="userSpaceOnUse" r="819.2" cx="0" cy="0" spreadMethod="pad" gradientTransform="matrix(.013 0 0 .013 6.9 34.8)" id="s"><stop offset="0" stop-color="#f00"/><stop offset=".957" stop-color="#060"/></radialGradient><radialGradient gradientUnits="userSpaceOnUse" r="819.2" cx="0" cy="0" spreadMethod="pad" gradientTransform="matrix(.017 0 0 .017 39.15 12.95)" id="t"><stop offset="0" stop-color="#f00"/><stop offset=".957" stop-color="#060"/></radialGradient></defs><path d="M28.65 38.7l-.05 3.5q-.05 1.65.45 3.45l.05.1h1.25l6.15-.65 5.7.25-8.5.9 1.95.05 3.2.45 4.8 1.4-.05.15-3.4-.7q-3.95-.95-7.55-.75l.35.4 3.7 3-1.15-.3q-1.35-.6-2.75-1.65l-1.75-1.05q-1.35-.65-2.9-.6l-1.5.1q1.5-.5 1.55-1.8.1-2.25-1.35-3.1.7-.75.8-1.95l-.05-.9h.15l.85-.2.05-.1m-5.75.5l-.6.65q-.85.85-.5 2.8.8.5 2 .5l-1.55 1-2.6 2.55 2.05-.05 1.6.45-1.1.2q-1.7.25-2.2 1.3-.6 1.05-.6 2.6.05 1.95-1.25 3l.1-4.2-6.3 4.9 4.6-5.3q-.55.05-.95.4l-1.25.45q-.85.15-5.55 1.8 4.85-2.75 6.35-3.2 1.6-.55 2.65-1.75l2.1-2.55q1.15-1.4 1.35-2.9l.55-2.95.1-.3h.25l.75.55v.05"/><path fill="#f60" d="M22.9 39.2v-.05h.05l-.05.05"/><path fill="#fff" d="M30.15 4.15l1.35.7 2.45 1.05.6.15.8.3v.1l-1.1.3-1.25.8q-1.15.95-2.45 1.6l-.9.35-.1.05-.15.05.05-.05.55-1.9q.45-1.7.1-3.4l.05-.1m-9.8 5.35L20 9.25l-1.15-1-2.6-1.8h-.05l3-1.5.8-.4q-.5 1.25-.3 2.85l.2.9.45 1.2"/><path fill="#ff6" d="M13.8 27.9q1.25-.7 2.15-1.85l1.5-1.55.9-.7 1.95-.9 1.05-.25 3.4-.15q1.8.05 3.05 1l5.1 3.4 2.15.75h.2l-1.8 2.4L32 31.5l.4-.85.5-2.25-.55.95q-1.2 1.8-2.85 2.9l-1 .6q.7-1.9.9-3.9l.4-2.35-1.2 1-.1-1.9-1.6 1.4-.1-1.95-1.85 1.5.15-1.85-.35.5-1.55 1.45-.35-.5q-.6-.5-.7-1.3l-.45 4.25-.75-.85q-1.2-1.25-1.4-2.8-.35.95-.2 2.15l.55 3.8-1.2-1q-1.65-1.35-2.45-3.15-.35 1 0 2.25l.9 2.8-1.8-1.35q-1.15-1.1-1.7-2.4l-.05-.05.2-.7m17.55 6.2l-.15.15-2.3 1.4-1.2.25q-2.6.25-5.3 0l-4.25-.4q-.55-.85-.65-1.95-.1-.8.3-1.4.3 2.3 2.55 3.25v-3.35q.25 1.9 1.5 1.75l.55-.6q.55-1.5.7-3l.15 4.65q1.2-1.15 1.6-3.25l.2 3.25q1.25-.9 1.6-2.35-.35 1.45.45 1.85l1.3-1.1-.25 1.1L30 33.2v1.5q1-1.7 1.35-.6"/><path fill="url(#a)" d="M22.25.55l2.6-.55 3.4.55 1.2.55-1.65 2.05-2.4-.35q-1.8.05-3.3.7l-.2.1q-.3-.9-.15-1.8l.5-1.25"/><path fill="url(#b)" d="M29.45 1.1l1.3 1 2.45 2q1.3.9 2.8 1.4.7.25.4.8l-.65.3-.05-.05-.15-.1V6.4l-.2-.05-.8-.3-.6-.15-2.45-1.05-1.35-.7h-.05l-1.45-.7-.85-.3 1.65-2.05"/><path fill="url(#c)" d="M29.4 9.6l-3.55.55-4-.2-1.5-.45-.45-1.2-.2-.9q-.2-1.6.3-2.85l1.9-.95.2-.1q1.5-.65 3.3-.7l2.4.35.85.3 1.45.7v.1q.35 1.7-.1 3.4l-.55 1.9-.05.05m-4.6-2q.85-.9-.35-1.9-1.7.3-.45 1.95l.8-.05"/><path fill="url(#d)" d="M35.75 6.6v.1q-.45 1.15-1.6 1.85l-4.05 2.9.45-1.6v-.7q1.3-.65 2.45-1.6l1.25-.8 1.1-.3h.2l.15.1.05.05"/><path fill="url(#e)" d="M32.3 20.5l.85.55.8-1 1.15-.95q1.5-.9 3.3-.75 1.7.05 2.8 1.4l3.55 5.5q.9 1.5 2.7 1.8l3.4.65q1.7.45 2.65 1.75t.85 3.2q-.1 1.75-1.05 3.2-.95 1.45-2.4 2.1.1-.6.7-1.05 1-.8.95-2.2l-.05-2.65-.45-1.75-1.1-1.15-1.1-.35-1.6-.2q-1.55-.25-2.9-.9-1.6-.75-2.25-2l-1.75-2.6-1.95-1.8q-1.7-1.2-3.5-.7l-.95.5-.4.35-.4.5 1.2 1.15-1.55.85-.85-.15q-1.95-1.7-.65-3.3m1.2 2.35l.65-.9-.65.9m-.6-1.35l.25-.45-.25.45"/><path fill="url(#f)" d="M24.1 12.85h-.2q-1.75.1-3.15-.7L18.8 10.8l-.1-.55.15-2 1.15 1 .35.25 1.5.45 4 .2 3.55-.55.15-.05.1-.05.9-.35v.7l-.45 1.6-1.2.65-1.6.5-.6.05-2.6.2"/><path fill="url(#g)" d="M24.1 12.85l2.6-.2q-.6 1.4-1.55 2.5l-.3.7q1.35.4.8 1.45v.05l.9.8.5.35-.7.6-.7-.7q-1.8 1.85-2.4-.65-1 1.05-1.15 2.35l-.95-3.5q.45-1.2 1.75-1 1.05-.8 1.2-2.75"/><path fill="url(#h)" d="M31.9 20.25l.4.25q-1.3 1.6.65 3.3l.85.15 1.55-.85 1.25 1.1 1.05 1.35q-.55.35-.85 1l-.2.7-.05.35q-.1 1.05.1 1.9l.15.4.35.7v.1h.05q.15 1.8-.55 3.35-.8 1.5-2.3 2.3-1.35.7-2.95 1-1.75.25-2.65 1.25l-.1.1-.05.1-.85.2-.15-.05-3-.35q-.9.75-1.6.6l-.05-.05h-.05l-.75-.55h-.25l-2.05-.25-2.4-.7L16 36.8l-1.8-1.45-1.35-1.85-.05-.1-.4-.95-.35-1.3.35-.45.6-.8.45-.95.1-.25.8 2.5 1.9 3.55q.8.55 1.9.75l4.25.4q2.7.25 5.3 0l1.2-.25 2.3-1.4.15-.15q1.6-1.65 2.85-3.65l1.7-2.65-.6-.1-.05-.05h-.2l-2.15-.75-5.1-3.4q-1.25-.95-3.05-1l-3.4.15-1.05.25-1.95.9-.9.7-1.5 1.55q-.9 1.15-2.15 1.85.35-1.75-1.35-2.1l-.45-.05.45-.05v-.35l.15-.65q.85-.1 1.75-.6l1.2-.75h.05q1.75-1.35.35-3.55l.55-.45 1.2 1.05 1.55.05.9-1.1.25-.8q.1-.7-.2-1.45l.95-.5.95 3.5q.15-1.3 1.15-2.35.6 2.5 2.4.65l.7.7.7-.6 1.5.6-.1 1.45q0 1.15 1.15.85l1.7-.7.15-.1.45-.35"/><path fill="url(#i)" d="M13.65 28.65q.55 1.3 1.7 2.4l1.8 1.35-.9-2.8q-.35-1.25 0-2.25.8 1.8 2.45 3.15l1.2 1-.55-3.8q-.15-1.2.2-2.15.2 1.55 1.4 2.8l.75.85.45-4.25q.1.8.7 1.3l.35.5 1.55-1.45.35-.5-.15 1.85 1.85-1.5.1 1.95 1.6-1.4.1 1.9 1.2-1-.4 2.35q-.2 2-.9 3.9l1-.6q1.65-1.1 2.85-2.9l.55-.95-.5 2.25-.4.85 1.45-1.45 1.8-2.4.05.05.6.1-1.7 2.65q-1.25 2-2.85 3.65Q31 33 30 34.7v-1.5l-1.85 1.15.25-1.1-1.3 1.1q-.8-.4-.45-1.85-.35 1.45-1.6 2.35l-.2-3.25q-.4 2.1-1.6 3.25l-.15-4.65q-.15 1.5-.7 3l-.55.6q-1.25.15-1.5-1.75v3.35q-2.25-.95-2.55-3.25-.4.6-.3 1.4.1 1.1.65 1.95-1.1-.2-1.9-.75l-1.9-3.55-.8-2.5.1-.05"/><path fill="url(#j)" d="M37.65 25.55l.2.55-.1.65q1.2.25 2.35.85 1.55.85 2.55 2.15 1.15 1.5.2 3.1-.9 1.3-1.5 2.65-.9 1.75.7 2.8 1.4.9 3.15 1.25l3.15.95q1.6.6 3.05 1.65 1.4 1.05 1.8 2.65.35 1.45-.7 2.3-.5.35-1.3.3l.65-1q.75-.9.1-1.8l-1.8-1.45q-1.6-.9-3.4-1.35l-3.25-1.15-2.6-1.35q-.9-.55-1.1-1.55-.25-1.35-.15-2.8.05-1.6.8-2.75.5-.8 0-1.35-.8-.8-1.85-1.1l-1.3-.25h-.65q-.2-.85-.1-1.9l.05-.35.2-.7q.3-.65.85-1m.1 1.2l-.95-.2.95.2"/><path fill="url(#k)" d="M37.15 29.5v1.1l-.35-.7-.15-.4h.5"/><path fill="url(#l)" d="M18.8 10.8l-.55-.5-.1-.15L16.2 8.1l-.85-.7q-.8-.8.55-.9l.35-.05 2.6 1.8-.15 2 .1.55"/><path fill="url(#m)" d="M15.65 6.25Q14.5 5 16.6 4.4q1.6-.45 2.6-1.6l1.05-1 1.4-.95.6-.3-.5 1.25q-.15.9.15 1.8l-1.9.95-.8.4-3 1.5-.55-.2"/><path fill="url(#n)" d="M24.8 7.6l-.8.05Q22.75 6 24.45 5.7q1.2 1 .35 1.9"/><path fill="url(#o)" d="M12.6 24.7l.65-1.6-.4-.6L11.5 20l-.55-.75-1.3-.95-1.1-.3Q7 17.65 6 18.4q-1.7 1.2-1.55 3.5.05.8.5 1.45l.3.45.4.45.05.1.75 1.05.7 1.35.2 1.6q-.05 1.15-.5 2l-1.1 1.4-4.1 2.7.2-.6q.55-1.55 2-2.4 1.1-.7 2.05-2.2l.35-1.35q-.2-1.6-1.35-2.9l-.6-.7-.5-.95-.4-1.15q-.4-1.6-.1-3.25.3-1.8 1.75-2.8 1.45-1 3.3-.45l.7.2 1.6.85.3.25.3.2 3.8 3.65.9-1.05q1.4 2.2-.35 3.55h-.05l-1.2.75q-.9.5-1.75.6m.65-1.6l1.1 1-1.1-1m2.7-1.4l-.9-.85.9.85"/><path fill="url(#p)" d="M4.3 24.3l-3.65-.1q.35-.65 1.1-.75l2.05-.1.5.95"/><path fill="url(#q)" d="M10.95 19.25l-.1 1.1q-.2 1.8-1.35 2.9-1.05 1-2.3 1H5.65l-.4-.45-.3-.45h.3q1.85.05 3.05-1.2 1.1-1.25 1.3-2.9l.05-.95 1.3.95"/><path fill="url(#r)" d="M9.05 15.9q-.7-1.55-.45-3.2l.3-.9q.45-1 1.7-1.45l.5-.2q1.4-.35 2.85.3 1.55.75 2.45 2.15l1.9 2.7q.75.95 1.15 2.25l.75-.45q.3.75.2 1.45l-.25.8-.9 1.1-1.55-.05-1.2-1.05.95-.75.05.05v-.1q-.3-2.5-2.3-4.5-1.65-1.7-4-1.15-1.25.3-.9 1.45l.5 1.6.15 1.05-.3-.25-1.6-.85m8.9 3.9q-.4-.5-.45-1.15.05.65.45 1.15"/><path fill="url(#s)" d="M12.05 31.15l.05-1.35-.5.35q-1 1.1-.75 3.05l.55 3.2q.4 1.75-.6 3.1-.95 1.15-2.8 1.1l-3.25-.3q-1.95-.3-2.5 1.25L1.4 43.6q-.2.4-.6.2-1.3-.7-.55-2.75.55-1.5 2-2.2l.2-.1q1.15-.5 2.45.25 1.35.75 3.15.55 1.8-.2 1.9-2.05.1-1.75-.15-3.45l-.05-3.25.7-3.25q.45-1.5 1.55-1.8l.45.05q1.7.35 1.35 2.1l-.35.15.05.2v.1l.05.35-.1.25-.45.95-.6.8-.35.45m.05-1.35l.9.1-.9-.1"/><path fill="url(#t)" d="M28.55 19.1h.05l.8.2 1.35-2.4q.9-1.55 2.5-2.1 1.65-.6 3.35-.7l3.25-.75q1.65-.7 2.05-2.4.3-1.55 1.2-3.05.85-1.4 2.25-2.3 1.3-.9 3-1.05l1.6-.05-1.4.65q-.8.15-1.4.65L44.5 8.05q-.85.95-1.2 2.2l-.8 2.65q-.3.85-1.2 1.25l-6.05.75q-1.6.65-2.5 1.9-.85 1.05-1.1 2.5l-.1.8-.1.5-.15.1-1.7.7q-1.15.3-1.15-.85l.1-1.45"/><path fill="none" stroke="#000" stroke-width=".05" stroke-linecap="round" stroke-miterlimit="3" d="M31.55 20.1l.35.15m5.25 9.25v1.1m-8.5 8.1l-.05 3.5q-.05 1.65.45 3.45l.05.1h1.25l6.15-.65 5.7.25-8.5.9 1.95.05 3.2.45 4.8 1.4.65.25-.7-.1-3.4-.7q-3.95-.95-7.55-.75l.35.4 3.7 3-1.15-.3q-1.35-.6-2.75-1.65l-1.75-1.05q-1.35-.65-2.9-.6l-1.5.1q1.5-.5 1.55-1.8.1-2.25-1.35-3.1.7-.75.8-1.95l-.05-.9v-.05m-4.65.2l-.05.05-.6.65q-.85.85-.5 2.8.8.5 2 .5l-1.55 1-2.6 2.55 2.05-.05 1.6.45-1.1.2q-1.7.25-2.2 1.3-.6 1.05-.6 2.6.05 1.95-1.25 3l.1-4.2-6.3 4.9 4.6-5.3q-.55.05-.95.4l-1.25.45q-.85.15-5.55 1.8 4.85-2.75 6.35-3.2 1.6-.55 2.65-1.75l2.1-2.55q1.15-1.4 1.35-2.9l.55-2.95.1-.3m-9.3-13.9l.65-1.6M15.9 6.5l-.25-.25M13.6 28.6l.05.05m2.6-22.2h-.05m1.25 12.15l.05-.05m-4 9.8l.1.25"/><path fill="none" stroke="#002D00" stroke-width=".05" stroke-linecap="round" stroke-miterlimit="3" d="M24.1 12.85h-.2q-1.75.1-3.15-.7L18.8 10.8l-.55-.5-.1-.15L16.2 8.1l-.85-.7q-.8-.8.55-.9l.35-.05 2.6 1.8m-3.2-2Q14.5 5 16.6 4.4q1.6-.45 2.6-1.6l1.05-1 1.4-.95.6-.3 2.6-.55 3.4.55 1.2.55 1.3 1 2.45 2q1.3.9 2.8 1.4.7.25.4.8l-.65.3v.1q-.45 1.15-1.6 1.85l-4.05 2.9-1.2.65-1.6.5-.6.05m3.45-8.5l1.35.7 2.45 1.05.6.15.8.3.2.05v.05l.15.1.05.05m-.4-.15l-1.1.3-1.25.8q-1.15.95-2.45 1.6l-.9.35-.1.05-.15.05m-9.05-.1L20 9.25l-1.15-1m16.5-1.8h.2m-5.45-2.3h.05M16.2 6.45l3-1.5.8-.4m-3.8 1.9l-.55-.2"/><path fill="none" stroke="#9B0000" stroke-width=".05" stroke-linecap="round" stroke-miterlimit="3" d="M28.55 19.1h.05l.8.2 1.35-2.4q.9-1.55 2.5-2.1 1.65-.6 3.35-.7l3.25-.75q1.65-.7 2.05-2.4.3-1.55 1.2-3.05.85-1.4 2.25-2.3 1.3-.9 3-1.05l1.6-.05-1.4.65q-.8.15-1.4.65L44.5 8.05q-.85.95-1.2 2.2l-.8 2.65q-.3.85-1.2 1.25l-6.05.75q-1.6.65-2.5 1.9-.85 1.05-1.1 2.5l-.1.8m-.1.5l.1-.5"/><path fill="none" stroke="#4E4600" stroke-width=".05" stroke-linecap="round" stroke-miterlimit="3" d="M32.3 20.5l.85.55.8-1 1.15-.95q1.5-.9 3.3-.75 1.7.05 2.8 1.4l3.55 5.5q.9 1.5 2.7 1.8l3.4.65q1.7.45 2.65 1.75t.85 3.2q-.1 1.75-1.05 3.2-.95 1.45-2.4 2.1.1-.6.7-1.05 1-.8.95-2.2l-.05-2.65-.45-1.75-1.1-1.15-1.1-.35-1.6-.2q-1.55-.25-2.9-.9-1.6-.75-2.25-2l-1.75-2.6-1.95-1.8q-1.7-1.2-3.5-.7l-.95.5-.4.35-.4.5 1.2 1.15m-1.2-1.15l-.65.9m-.35-1.8l-.25.45"/><path fill="none" stroke="#802300" stroke-width=".05" stroke-linecap="round" stroke-miterlimit="3" d="M37.65 25.55l.2.55-.1.65q1.2.25 2.35.85 1.55.85 2.55 2.15 1.15 1.5.2 3.1-.9 1.3-1.5 2.65-.9 1.75.7 2.8 1.4.9 3.15 1.25l3.15.95q1.6.6 3.05 1.65 1.4 1.05 1.8 2.65.35 1.45-.7 2.3-.5.35-1.3.3l.65-1q.75-.9.1-1.8l-1.8-1.45q-1.6-.9-3.4-1.35l-3.25-1.15-2.6-1.35q-.9-.55-1.1-1.55-.25-1.35-.15-2.8.05-1.6.8-2.75.5-.8 0-1.35-.8-.8-1.85-1.1l-1.3-.25h-.15m-.35-2.95l.95.2m-1.1 2.75h.5"/><path fill="none" stroke="#773600" stroke-width=".05" stroke-linecap="round" stroke-miterlimit="3" d="M12.05 31.15l.05-1.35-.5.35q-1 1.1-.75 3.05l.55 3.2q.4 1.75-.6 3.1-.95 1.15-2.8 1.1l-3.25-.3q-1.95-.3-2.5 1.25L1.4 43.6q-.2.4-.6.2-1.3-.7-.55-2.75.55-1.5 2-2.2l.2-.1q1.15-.5 2.45.25 1.35.75 3.15.55 1.8-.2 1.9-2.05.1-1.75-.15-3.45l-.05-3.25.7-3.25q.45-1.5 1.55-1.8m1.25-2.65l-.4-.6L11.5 20l-.55-.75m-5.3 5l.05.1.75 1.05.7 1.35.2 1.6q-.05 1.15-.5 2l-1.1 1.4-4.1 2.7.2-.6q.55-1.55 2-2.4 1.1-.7 2.05-2.2l.35-1.35q-.2-1.6-1.35-2.9l-.6-.7m-.5-.95l-.4-1.15q-.4-1.6-.1-3.25.3-1.8 1.75-2.8 1.45-1 3.3-.45l.7.2m.6 2.4l-1.1-.3Q7 17.65 6 18.4q-1.7 1.2-1.55 3.5.05.8.5 1.45m6-6.35l.3.2 3.8 3.65.9-1.05m-1.6 4.3l-1.1-1m1.8-2.25l.9.85m-2.15 6.2l-.35.15.05.2v.1m.05.35l-.05-.35M13 29.9l-.9-.1"/><path fill="none" stroke="#BD1A00" stroke-width=".05" stroke-linecap="round" stroke-miterlimit="3" d="M4.3 24.3l-3.65-.1q.35-.65 1.1-.75l2.05-.1m.5.95l-.5-.95"/><path fill="none" stroke="#006E00" stroke-width=".05" stroke-linecap="round" stroke-miterlimit="3" d="M10.95 19.25l-.1 1.1q-.2 1.8-1.35 2.9-1.05 1-2.3 1H5.65m-.7-.9h.3q1.85.05 3.05-1.2 1.1-1.25 1.3-2.9l.05-.95 1.3.95m-6 4.1l.3.45.4.45"/><path fill="none" stroke="#004E00" stroke-width=".05" stroke-linecap="round" stroke-miterlimit="3" d="M9.05 15.9q-.7-1.55-.45-3.2l.3-.9q.45-1 1.7-1.45l.5-.2q1.4-.35 2.85.3 1.55.75 2.45 2.15l1.9 2.7q.75.95 1.15 2.25l.75-.45m-9.25-.1l-.15-1.05-.5-1.6q-.35-1.15.9-1.45 2.35-.55 4 1.15 2 2 2.3 4.5v.1q.05.65.45 1.15m-1.45-.45l.95-.75m-8.4-2.7l1.6.85.3.25"/><path fill="none" stroke="#940000" stroke-width=".05" stroke-linecap="round" stroke-miterlimit="3" d="M31.9 20.25l.4.25m3.05 2.6l1.25 1.1 1.05 1.35m-.5 5.05v.1h.05q.15 1.8-.55 3.35-.8 1.5-2.3 2.3-1.35.7-2.95 1-1.75.25-2.65 1.25l-.1.1m-1.05.25l-3-.35q-.9.75-1.6.6l-.05-.05m-1.05-.55l-2.05-.25-2.4-.7L16 36.8l-1.8-1.45-1.35-1.85m-.05-.1l-.4-.95-.35-1.3m-.05-5.4l.45-.05v-.35l.15-.65m7.6-7.6l.95-.5m5.9 1.9l1.5.6m2.75 1.6l.15-.1m3.8 7.05h-.2l-2.15-.75-5.1-3.4q-1.25-.95-3.05-1l-3.4.15-1.05.25-1.95.9-.9.7-1.5 1.55q-.9 1.15-2.15 1.85m22.1-.1l-1.7 2.65q-1.25 2-2.85 3.65l-.15.15-2.3 1.4-1.2.25q-2.6.25-5.3 0l-4.25-.4q-1.1-.2-1.9-.75l-1.9-3.55-.8-2.5m2.4-8.9l.55-.45M27.75 39l.85-.2.05-.1m-.9.3l-.15-.05m-4.7.2h.05m-1.05-.55h.25l.75.55"/><path fill="none" stroke="#9B9B00" stroke-width=".05" stroke-linecap="round" stroke-miterlimit="3" d="M13.65 28.65q.55 1.3 1.7 2.4l1.8 1.35-.9-2.8q-.35-1.25 0-2.25.8 1.8 2.45 3.15l1.2 1-.55-3.8q-.15-1.2.2-2.15.2 1.55 1.4 2.8l.75.85.45-4.25q.1.8.7 1.3l.35.5 1.55-1.45.35-.5-.15 1.85 1.85-1.5.1 1.95 1.6-1.4.1 1.9 1.2-1-.4 2.35q-.2 2-.9 3.9l1-.6q1.65-1.1 2.85-2.9l.55-.95-.5 2.25-.4.85 1.45-1.45 1.8-2.4.05.05.6.1m-17.75 7.7q-.55-.85-.65-1.95-.1-.8.3-1.4.3 2.3 2.55 3.25v-3.35q.25 1.9 1.5 1.75l.55-.6q.55-1.5.7-3l.15 4.65q1.2-1.15 1.6-3.25l.2 3.25q1.25-.9 1.6-2.35-.35 1.45.45 1.85l1.3-1.1-.25 1.1L30 33.2v1.5q1-1.7 1.35-.6"/><path fill="none" stroke="#003E00" stroke-width=".05" stroke-linecap="round" stroke-miterlimit="3" d="M21.15 16.6q.45-1.2 1.75-1 1.05-.8 1.2-2.75m2.6-.2q-.6 1.4-1.55 2.5l-.3.7q1.35.4.8 1.45v.05l.9.8.5.35m-.35-5.85l-2.6.2"/><path fill="none" stroke="#500" stroke-width=".05" stroke-linecap="round" stroke-miterlimit="3" d="M29.4 9.6l-3.55.55-4-.2-1.5-.45m7.45-6.35l.85.3 1.45.7v.1q.35 1.7-.1 3.4l-.55 1.9-.05.05m-1.6-6.45l-2.4-.35q-1.8.05-3.3.7l-.2.1-1.9.95q-.5 1.25-.3 2.85l.2.9.45 1.2"/><path fill="none" stroke="#240000" stroke-width=".05" stroke-linecap="round" stroke-miterlimit="3" d="M24.8 7.6q.85-.9-.35-1.9-1.7.3-.45 1.95l.8-.05"/></svg>