<svg xmlns="http://www.w3.org/2000/svg" viewBox="0 0 32.1 28.8" width="32.1" height="28.8"><defs><linearGradient gradientUnits="userSpaceOnUse" x1="-819.2" x2="819.2" spreadMethod="repeat" gradientTransform="matrix(.004 0 0 .003 26.85 5.85)" id="a"><stop offset="0" stop-color="#c00"/><stop offset=".788"/><stop offset="1" stop-color="#ff0"/></linearGradient><linearGradient gradientUnits="userSpaceOnUse" x1="-819.2" x2="819.2" gradientTransform="matrix(.003 0 0 .003 23.85 2.45)" id="b"><stop offset="0" stop-color="#c00"/><stop offset=".788"/><stop offset="1" stop-color="#ff0"/></linearGradient><linearGradient gradientUnits="userSpaceOnUse" x1="-819.2" x2="819.2" gradientTransform="matrix(.007 0 0 .003 17.4 3.15)" id="c"><stop offset="0" stop-color="#c00"/><stop offset=".788"/><stop offset="1" stop-color="#ff0"/></linearGradient><radialGradient gradientUnits="userSpaceOnUse" r="819.2" cx="0" cy="0" spreadMethod="pad" gradientTransform="matrix(.022 0 0 .022 16.3 16.55)" id="d"><stop offset="0" stop-color="#fc0"/><stop offset=".553"/><stop offset="1" stop-color="#960"/></radialGradient><linearGradient gradientUnits="userSpaceOnUse" x1="-819.2" x2="819.2" gradientTransform="matrix(.001 0 0 .001 18.75 5.1)" id="e"><stop offset="0" stop-color="#c00"/><stop offset=".788"/><stop offset="1" stop-color="#ff0"/></linearGradient><linearGradient gradientUnits="userSpaceOnUse" x1="-819.2" x2="819.2" gradientTransform="matrix(.001 0 0 .002 16.4 6.55)" id="f"><stop offset="0" stop-color="#c00"/><stop offset=".788"/><stop offset="1" stop-color="#ff0"/></linearGradient><radialGradient gradientUnits="userSpaceOnUse" r="819.2" cx="0" cy="0" spreadMethod="pad" gradientTransform="matrix(.006 0 0 .006 15.1 12.05)" id="g"><stop offset="0" stop-color="#c00"/><stop offset="1" stop-color="#ff0"/></radialGradient><radialGradient gradientUnits="userSpaceOnUse" r="819.2" cx="0" cy="0" spreadMethod="pad" gradientTransform="matrix(.004 0 0 .004 14.1 12.05)" id="h"><stop offset="0" stop-color="#fff"/><stop offset=".184" stop-color="#f00"/><stop offset=".51"/><stop offset=".58"/></radialGradient><linearGradient gradientUnits="userSpaceOnUse" x1="-819.2" x2="819.2" gradientTransform="matrix(.003 0 0 .001 27.5 9.4)" id="i"><stop offset="0" stop-color="#c00"/><stop offset=".788"/><stop offset="1" stop-color="#ff0"/></linearGradient><radialGradient gradientUnits="userSpaceOnUse" r="819.2" cx="0" cy="0" spreadMethod="pad" gradientTransform="matrix(.006 0 0 .006 23.75 18.95)" id="j"><stop offset="0" stop-color="#fc0"/><stop offset=".553"/><stop offset="1" stop-color="#960"/></radialGradient><radialGradient gradientUnits="userSpaceOnUse" r="819.2" cx="0" cy="0" spreadMethod="pad" gradientTransform="matrix(.005 0 0 .005 13.05 22.95)" id="k"><stop offset="0" stop-color="#fc0"/><stop offset=".553"/><stop offset="1" stop-color="#960"/></radialGradient><radialGradient gradientUnits="userSpaceOnUse" r="819.2" cx="0" cy="0" spreadMethod="pad" gradientTransform="matrix(.003 0 0 .003 4.2 7.6)" id="l"><stop offset="0" stop-color="#fc0"/><stop offset=".553"/><stop offset="1" stop-color="#960"/></radialGradient><linearGradient gradientUnits="userSpaceOnUse" x1="-819.2" x2="819.2" gradientTransform="matrix(.002 0 0 .002 13.55 7.05)" id="m"><stop offset="0" stop-color="#c00"/><stop offset=".788"/><stop offset="1" stop-color="#ff0"/></linearGradient><radialGradient gradientUnits="userSpaceOnUse" r="819.2" cx="0" cy="0" spreadMethod="pad" gradientTransform="matrix(.008 0 0 .008 9.25 19.8)" id="n"><stop offset="0" stop-color="#fc0"/><stop offset=".553"/><stop offset="1" stop-color="#960"/></radialGradient></defs><path fill="#ffc" d="M4.55 23.4q-1-.35-1.2-1.6l-.05-.85q.35 1.5 1.5 2.4h-.05l-.2.05m1.25-.5l-.75-1.8-.2-.6 1.4.85.8.35-.25.4-1 .8m1.55-1.65q-.1-1.65-.85-3.35.55 1.1 1.85 1.65l-1 1.7M9.3 18.4l-.15-1 .45.6-.3.4m-.25-3.55q-.85.85-2.2 1.2.75-1.5.7-2.85-.85 1.85-2.4 2.15.75-1.6.85-3.3l.15.1 1.7 1.2.85.95.35.55m-3.6-3.1Q4.4 13.2 4.3 15.15q-1-2.25-.45-4.4l1.6 1m-1.7-1.1l-.25.3Q2.35 12.2 2.35 14l-.15-.8q-.5-1.8.1-3.4l1.45.85m-1.7-1q-.55.3-.85.95-.85 1.65-.95 3.45Q-.1 13 0 11.85q.15-1.7 1.2-2.7l.85.5"/><path fill="url(#a)" d="M25.65 5.6q.85-.15 1.6-.75.9-.65.95-1.75.8.4 1.4 1.8.4 1-.15 1.85-.65 1.15-1.8 1.65l-.3.15-3.4-.3.5-.7 1.2-1.95"/><path fill="url(#b)" d="M24.1 4.3l.3-1.35q.1-1.45-1.25-2.3-.75-.5-1.6-.65l2.55.05q.95.25 1.55 1 .65.85.55 2-.1 1.15-.65 2-.85 0-1.45-.75"/><path fill="url(#c)" d="M21.8 5.55q.15-.45-.1-1.25-.45-1.5-1.8-2.15-1.35-.65-2.95-.75-1.55-.05-2.8.6-1.2.6-2.2 1.6l-.5.45q.8-1.75 2.35-2.6 1.25-.7 2.8-.75l2.8.15q1.6.25 2.75 1.3 1.25 1.15 1.2 2.9-.6.75-1.55.5"/><path fill="url(#d)" d="M21.8 5.55q.95.25 1.55-.5l-.05.5.8-1.25q.6.75 1.45.75l-.15.2-.4.4.65-.05-1.2 1.95-.5.7 3.4.3-.25.1.7.3q-.8.8-1.95 1.1l-.6.2 3.05.05v.05q.8.9 2.05 1.25-1.3 1.3 1.25 2.15l.5.3q-1.35.1-1.3 1.65.05.55-.35.7v.4l-.35 1.25-.6 1-.8 1.05-.15.45q-.2.65.75.45.8-.15.55.7.4.2 0 .7l-.25.25-.1.2.05.05.25.7q-1.15.1-1.95.7l-.1.1-.35.5q-1.1 1.4-2.45.85-.25.75-.25 1.75l-1-1.45.45-1.4-2.2-.05-.7.65q-.95 1.5-.25 3.55l-.8-1.6q-.4-1.15-.05-2.4.4-1.4 1.25-2.55-.75-.25-1.2-.95l-.75.6.35.75q.5 1.45-1.05 3l.05-2.25-.15.45q-.95 1.65-2.5 2.8l1.2-1.55q1.35-1.95-.15-2.25l.55-.6-.95-.5-1.05.1q-.75-.05-.85-.7l-.4-.15-.95-.45-.8-.25-2.15-.2 2.75-.9q.9-.4 1.15-1.35l.15-.7q.15-.95-.45-1.4-.4-.3-1.2-.25-.9 0-1.5.5l-.85.85-.8-.85-.8-1.15-.35-.55-.85-.95-1.7-1.2-.15-.1-.55-.3-1.6-1-.1-.1L2.3 9.8l-.25-.15-.85-.5-.5-.25q-.6-.85.65-1.3l.4-.25.2-.15-.05.3 2.4-.4-.7 1.45 1.2-.15q.35.2.2.7l1.25-.35.15.05q-.05 1.15 1.1 1.5l1.2.3q1.05.15 1.85-.5.85-.7 1.7-1.15l1.05-.25v-.1q.9.05 1.55-.8l.55.3h.2l1.15-.5.55-.7.65-.75L19.5 6l.9.25q1.15 0 1.4-.7m-1.15 9.4V13.8 15.1l.2 1.3.5 1.15.8.9 1 .7 1.15.65 1.2.55q.65.25.7.9l.05.6-.1.15-.6.45 1.3.55-.25-1.7-.1-.8q-.1-.7-.75-1.5-.8-.95.1-1.75-1 .6-2.35.4-1.8-.3-1.15-2.35-.7-.45-1.7-.35m7.45-2.5l.55 1.1 1.5 2.05.3.8-.3-.8-1.5-2.05-.55-1.1m-6.7 9.8q.35-.55.85-1l1.65 1q.9.5 1.65.2-.75.3-1.65-.2l-1.65-1q-.5.45-.85 1m8.15-.65l.3.1-.15.35.15-.35-.3-.1m-4.95 2.85l-.45.2.15-.5q.2-.9 1.6-.55-1.4-.35-1.6.55l-.15.5.45-.2M11.9 13.1l2.2 1.3.9.9.65-1.35q2.05.2 3.45.8L18.25 12q-.45-1.25-1.75-1.6l.4-.85.7-.75q-1.4.15-2.7.8-1.5.8-2.45 1.8l.2-.6-1.55 2.45.8-.15m4.6 7.7l-1.1.4H15l-.1-.05.1.05h.4l1.1-.4m1.25-.4q.35 1.15 0 1.85.35-.7 0-1.85m-.2 1.05l-.5.25-.25.05.25-.05.5-.25m.85-2.35l.9.85q-.05 1.05.15 1.95-.2-.9-.15-1.95l-.9-.85"/><path fill="url(#e)" d="M17.95 6.15l.1-1.15q-.15-1.55 1.55-.85-.75 1.4-.1 1.85l-1.55.15"/><path fill="url(#f)" d="M15.45 8.1q.1-1.6.35-2.95 2.15-.45 1.25 1.2-.15.35 0 .65l.25-.1-.55.7-1.15.5h-.15"/><path fill="url(#g)" d="M11.1 13.25l1.55-2.45-.2.6q.95-1 2.45-1.8 1.3-.65 2.7-.8l-.7.75-.4.85q1.3.35 1.75 1.6l.85 2.75q-1.4-.6-3.45-.8L15 15.3l-.9-.9-2.2-1.3 1.95-.15 3.3.1-.4-.3q-1.5-.95-.85-1.9-1.05.35-2.35.95-1.3.65-2.45 1.45"/><path fill="url(#h)" d="M11.1 13.25q1.15-.8 2.45-1.45 1.3-.6 2.35-.95-.65.95.85 1.9l.4.3-3.3-.1-1.95.15-.8.15"/><path fill="url(#i)" d="M27.8 8.95q.95.2 1.95-.5.3 1.5-.75 1.8l-.7.05-3.05-.05.6-.2q1.15-.3 1.95-1.1"/><path fill="url(#j)" d="M20.65 14.95q1-.1 1.7.35-.65 2.05 1.15 2.35 1.35.2 2.35-.4-.9.8-.1 1.75.65.8.75 1.5l.1.8.25 1.7-1.3-.55.6-.45.1-.15-.05-.6q-.05-.65-.7-.9l-1.2-.55-1.15-.65-1-.7-.8-.9-.5-1.15-.2-1.3v-.15"/><path fill="url(#k)" d="M14.5 21l-.85.95q-.5.65-.05 1.15.4.4.95.6l.85.4 1.2.9-1.7-.7-2.35-.3q-.5.05-.95.4l-1.5.95.85-.8.9-1-1.2.1-1.15.25.45-.35q.5-.35 1.15-.4.65-.05 1.15-.55l.75-.95.55-1.1.95.45"/><path fill="url(#l)" d="M1.95 7.2q.7-.6 1.5-1 .65-.3 1.3.2-.85.95.45 1.2 1 .2 1.35.85v.25l-.3.05L5 9.1q.15-.5-.2-.7l-1.2.15.7-1.45-2.4.4.05-.3"/><path fill="url(#m)" d="M13.3 8.6q-.3-1.45-1-2.5.6-.45 1.1-.55.05 1.45 1.45 2.25-.65.85-1.55.8"/><path fill="url(#n)" d="M10.6 20.1q-.95.4-1.8.9-.6.35-.85.85l-.15.2-.55.95.85.2-1.05.8-.25.05-1.45.05-1.55-.25.75-.45.2-.05h.05l1-.45 1-.8.25-.4.3-.45 1-1.7.95-1.15.3-.4 1.05-1.15.85-.85q.6-.5 1.5-.5.8-.05 1.2.25.6.45.45 1.4l-.15.7q-.25.95-1.15 1.35l-2.75.9"/><path fill="none" stroke="#000" stroke-width=".05" stroke-linecap="round" stroke-linejoin="round" d="M11.1 13.25q1.15-.8 2.45-1.45 1.3-.6 2.35-.95-.65.95.85 1.9l.4.3-3.3-.1-1.95.15-.8.15"/><path fill="none" stroke="#3D3100" stroke-width=".05" stroke-linecap="round" stroke-linejoin="round" d="M25.65 5.6q.85-.15 1.6-.75.9-.65.95-1.75.8.4 1.4 1.8.4 1-.15 1.85-.65 1.15-1.8 1.65l-.3.15-.25.1.7.3q.95.2 1.95-.5.3 1.5-.75 1.8l-.7.1q.8.9 2.05 1.25-1.3 1.3 1.25 2.15l.5.3q-1.35.1-1.3 1.65.05.55-.35.7v.4l-.35 1.25-.6 1-.8 1.05-.15.45q-.2.65.75.45.8-.15.55.7.4.2 0 .7l-.25.25-.1.2.05.05.25.7q-1.15.1-1.95.7l-.1.1-.35.5q-1.1 1.4-2.45.85-.25.75-.25 1.75l-1-1.45.45-1.4-2.2-.05-.7.65q-.95 1.5-.25 3.55l-.8-1.6q-.4-1.15-.05-2.4.4-1.4 1.25-2.55-.75-.25-1.2-.95l-.75.6.35.75q.5 1.45-1.05 3l.05-2.25-.15.45q-.95 1.65-2.5 2.8l1.2-1.55q1.35-1.95-.15-2.25l.55-.6-.95-.5-1.05.1q-.75-.05-.85-.7l-.4-.15-.85.95q-.5.65-.05 1.15.4.4.95.6l.85.4 1.2.9-1.7-.7-2.35-.3q-.5.05-.95.4l-1.5.95.85-.8.9-1-1.2.1-1.15.25.45-.35q.5-.35 1.15-.4.65-.05 1.15-.55l.75-.95.55-1.1-.8-.25-2.15-.2q-.95.4-1.8.9-.6.35-.85.85l-.15.2-.55.95.85.2-1.05.8-.25.05-1.45.05-1.55-.25.75-.45m.25-.05l1-.45m1.25-1.2l.3-.45m1-1.7l.95-1.15m.3-.4l1.05-1.15-.8-.85-.8-1.15M6 12.05l-.55-.3-1.6-1-.1-.1M2.3 9.8l-.25-.15m-.85-.5L.7 8.9q-.6-.85.65-1.3l.4-.25.2-.15q.7-.6 1.5-1 .65-.3 1.3.2-.85.95.45 1.2 1 .2 1.35.85v.25l-.15.1q-.05 1.15 1.1 1.5l1.2.3q1.05.15 1.85-.5.85-.7 1.7-1.15l1.05-.25v-.1q-.3-1.45-1-2.5.6-.45 1.1-.55.05 1.45 1.45 2.25l.55.3h.05q.1-1.6.35-2.95 2.15-.45 1.25 1.2-.15.35 0 .65l.25-.1.65-.75.1-1.15q-.15-1.55 1.55-.85-.75 1.4-.1 1.85l.9.25q1.15 0 1.4-.7.15-.45-.1-1.25-.45-1.5-1.8-2.15-1.35-.65-2.95-.75-1.55-.05-2.8.6-1.2.6-2.2 1.6l-.5.45q.8-1.75 2.35-2.6 1.25-.7 2.8-.75l2.8.15q1.6.25 2.75 1.3 1.25 1.15 1.2 2.9l-.05.5.8-1.25.3-1.35q.1-1.45-1.25-2.3-.75-.5-1.6-.65l2.55.05q.95.25 1.55 1 .65.85.55 2-.1 1.15-.65 2l-.15.2-.4.4.65-.05m4.8 10.8l-.3-.8-1.5-2.05-.55-1.1m-7.45 1.35V15.1l.2 1.3.5 1.15.8.9 1 .7 1.15.65 1.2.55q.65.25.7.9l.05.6-.1.15-.6.45q-.75.3-1.65-.2l-1.65-1q-.5.45-.85 1m4.5 1.35q-1.4-.35-1.6.55l-.15.5.45-.2m5.25-2.75l-.15.35m.15-.35l-.3-.1M15.45 8.1h.15M2.3 9.8l1.45.85M1.2 9.15l.85.5m4.2-.9l.15.05m-.25 3.35l1.7 1.2.85.95m.9 3.7l-.3.4m-4.5 4.95h-.05l-.2.05m2.5-1.7l-.25.4-1 .8m4.85-6.05l.85-.85q.6-.5 1.5-.5.8-.05 1.2.25.6.45.45 1.4l-.15.7q-.25.95-1.15 1.35l-2.75.9m4.3 1.05l.1.05h.4l1.1-.4m-2.95-.25l.95.45m4.95.9q-.2-.9-.15-1.95l-.9-.85m-1.6 2.65l.25-.05.5-.25m.2.8q.35-.7 0-1.85"/><path fill="none" stroke="#540" stroke-width=".05" stroke-linecap="round" stroke-linejoin="round" d="M4.55 23.4q-1-.35-1.2-1.6l-.05-.85q.35 1.5 1.5 2.4m1-.45l-.75-1.8-.2-.6 1.4.85.8.35m.3-.45q-.1-1.65-.85-3.35.55 1.1 1.85 1.65l-1 1.7M9.3 18.4l-.15-1 .45.6m-.55-3.15q-.85.85-2.2 1.2.75-1.5.7-2.85-.85 1.85-2.4 2.15.75-1.6.85-3.3l.15.1m-.7-.4Q4.4 13.2 4.3 15.15q-1-2.25-.45-4.4m-.1-.1l-.25.3Q2.35 12.2 2.35 14l-.15-.8q-.5-1.8.1-3.4m-.25-.15q-.55.3-.85.95-.85 1.65-.95 3.45Q-.1 13 0 11.85q.15-1.7 1.2-2.7m7.5 5.15l.35.55"/></svg>