<svg xmlns="http://www.w3.org/2000/svg" viewBox="-0.1 0 43.8 49.2" width="43.8" height="49.2"><defs><radialGradient gradientUnits="userSpaceOnUse" r="819.2" cx="0" cy="0" spreadMethod="pad" gradientTransform="matrix(-.01 0 0 .01 16.95 6.65)" id="a"><stop offset="0" stop-color="#f00"/><stop offset="1"/></radialGradient><radialGradient gradientUnits="userSpaceOnUse" r="819.2" cx="0" cy="0" spreadMethod="pad" gradientTransform="matrix(-.005 0 0 .005 14.6 4.75)" id="b"><stop offset="0" stop-color="#f00"/><stop offset="1"/></radialGradient><radialGradient gradientUnits="userSpaceOnUse" r="819.2" cx="0" cy="0" spreadMethod="pad" gradientTransform="matrix(-.006 0 0 .006 12.75 11.9)" id="c"><stop offset="0" stop-color="#f00"/><stop offset="1"/></radialGradient><radialGradient gradientUnits="userSpaceOnUse" r="819.2" cx="0" cy="0" fx="87942.4" fy="0" spreadMethod="repeat" gradientTransform="matrix(-.003 0 0 .004 4.1 13.35)" id="d"><stop offset="0" stop-color="#f00"/><stop offset="1"/></radialGradient><radialGradient gradientUnits="userSpaceOnUse" r="819.2" cx="0" cy="0" spreadMethod="pad" gradientTransform="matrix(-.005 0 0 .005 1.5 14.35)" id="e"><stop offset="0" stop-color="#f00"/><stop offset="1"/></radialGradient><radialGradient gradientUnits="userSpaceOnUse" r="819.2" cx="0" cy="0" spreadMethod="pad" gradientTransform="matrix(-.004 0 0 .004 17.05 3.05)" id="f"><stop offset="0" stop-color="#f00"/><stop offset="1"/></radialGradient><radialGradient gradientUnits="userSpaceOnUse" r="819.2" cx="0" cy="0" spreadMethod="pad" gradientTransform="matrix(-.001 0 0 .001 19.3 2.15)" id="g"><stop offset="0" stop-color="#f00"/><stop offset="1"/></radialGradient><radialGradient gradientUnits="userSpaceOnUse" r="819.2" cx="0" cy="0" spreadMethod="pad" gradientTransform="matrix(-.007 0 0 .007 23.9 5.3)" id="h"><stop offset="0" stop-color="#f00"/><stop offset="1"/></radialGradient><radialGradient gradientUnits="userSpaceOnUse" r="819.2" cx="0" cy="0" spreadMethod="pad" gradientTransform="matrix(-.004 0 0 .004 20.25 10)" id="i"><stop offset="0" stop-color="#f00"/><stop offset="1"/></radialGradient><radialGradient gradientUnits="userSpaceOnUse" r="819.2" cx="0" cy="0" spreadMethod="pad" gradientTransform="matrix(-.001 0 0 .001 22 9.7)" id="j"><stop offset="0" stop-color="#f00"/><stop offset="1"/></radialGradient><radialGradient gradientUnits="userSpaceOnUse" r="819.2" cx="0" cy="0" spreadMethod="pad" gradientTransform="matrix(-.009 0 0 .009 15.35 15.7)" id="k"><stop offset="0" stop-color="#f00"/><stop offset="1"/></radialGradient><radialGradient gradientUnits="userSpaceOnUse" r="819.2" cx="0" cy="0" spreadMethod="pad" gradientTransform="matrix(-.001 0 0 .001 20.5 10.55)" id="l"><stop offset="0" stop-color="#f00"/><stop offset="1"/></radialGradient><radialGradient gradientUnits="userSpaceOnUse" r="819.2" cx="0" cy="0" spreadMethod="pad" gradientTransform="matrix(-.002 0 0 .002 14.55 19)" id="m"><stop offset="0" stop-color="#f00"/><stop offset="1"/></radialGradient><radialGradient gradientUnits="userSpaceOnUse" r="819.2" cx="0" cy="0" spreadMethod="pad" gradientTransform="matrix(-.004 0 0 .009 18 19.55)" id="n"><stop offset="0" stop-color="#f00"/><stop offset="1"/></radialGradient><radialGradient gradientUnits="userSpaceOnUse" r="819.2" cx="0" cy="0" spreadMethod="pad" gradientTransform="matrix(-.003 0 0 .003 11.05 17.2)" id="o"><stop offset="0" stop-color="#f00"/><stop offset="1"/></radialGradient><radialGradient gradientUnits="userSpaceOnUse" r="819.2" cx="0" cy="0" spreadMethod="pad" gradientTransform="matrix(-.004 0 0 .008 21 17.6)" id="p"><stop offset="0" stop-color="#f00"/><stop offset="1"/></radialGradient><radialGradient gradientUnits="userSpaceOnUse" r="819.2" cx="0" cy="0" spreadMethod="pad" gradientTransform="matrix(-.006 .006 .011 .012 10.75 36.85)" id="q"><stop offset="0" stop-color="#f00"/><stop offset="1"/></radialGradient><radialGradient gradientUnits="userSpaceOnUse" r="819.2" cx="0" cy="0" spreadMethod="pad" gradientTransform="matrix(-.006 0 0 .006 7 19.1)" id="r"><stop offset="0" stop-color="#f00"/><stop offset="1"/></radialGradient><radialGradient gradientUnits="userSpaceOnUse" r="819.2" cx="0" cy="0" spreadMethod="pad" gradientTransform="matrix(-.002 0 0 .002 .65 14.25)" id="s"><stop offset="0" stop-color="#f00"/><stop offset="1"/></radialGradient><radialGradient gradientUnits="userSpaceOnUse" r="819.2" cx="0" cy="0" spreadMethod="pad" gradientTransform="matrix(-.005 0 0 .005 2.4 33.45)" id="t"><stop offset="0" stop-color="#f00"/><stop offset="1"/></radialGradient><radialGradient gradientUnits="userSpaceOnUse" r="819.2" cx="0" cy="0" spreadMethod="pad" gradientTransform="matrix(-.005 0 0 .005 11.7 27.7)" id="u"><stop offset="0" stop-color="#f00"/><stop offset="1"/></radialGradient><radialGradient gradientUnits="userSpaceOnUse" r="819.2" cx="0" cy="0" spreadMethod="pad" gradientTransform="matrix(-.007 0 0 .007 16.3 32.3)" id="v"><stop offset="0" stop-color="#f00"/><stop offset="1"/></radialGradient><radialGradient gradientUnits="userSpaceOnUse" r="819.2" cx="0" cy="0" spreadMethod="pad" gradientTransform="matrix(0 0 0 0 15.65 27.35)" id="w"><stop offset="0" stop-color="#f00"/><stop offset="1"/></radialGradient><radialGradient gradientUnits="userSpaceOnUse" r="819.2" cx="0" cy="0" spreadMethod="pad" gradientTransform="matrix(-.005 0 0 .005 16.7 35.15)" id="x"><stop offset="0" stop-color="#f00"/><stop offset="1"/></radialGradient><radialGradient gradientUnits="userSpaceOnUse" r="819.2" cx="0" cy="0" spreadMethod="pad" gradientTransform="matrix(-.007 0 0 .007 18.9 43.7)" id="y"><stop offset="0" stop-color="#f00"/><stop offset="1"/></radialGradient><radialGradient gradientUnits="userSpaceOnUse" r="819.2" cx="0" cy="0" spreadMethod="pad" gradientTransform="matrix(-.006 0 0 .006 38.35 7.75)" id="z"><stop offset="0" stop-color="#f00"/><stop offset="1"/></radialGradient><radialGradient gradientUnits="userSpaceOnUse" r="819.2" cx="0" cy="0" spreadMethod="pad" gradientTransform="matrix(-.008 0 0 .008 27.5 6.2)" id="A"><stop offset="0" stop-color="#f00"/><stop offset="1"/></radialGradient><radialGradient gradientUnits="userSpaceOnUse" r="819.2" cx="0" cy="0" spreadMethod="pad" gradientTransform="matrix(-.018 0 0 .023 34.3 18.7)" id="B"><stop offset="0" stop-color="#f00"/><stop offset="1"/></radialGradient><radialGradient gradientUnits="userSpaceOnUse" r="819.2" cx="0" cy="0" spreadMethod="pad" gradientTransform="matrix(-.006 0 0 .006 32.7 14.1)" id="C"><stop offset="0" stop-color="#f00"/><stop offset="1"/></radialGradient><radialGradient gradientUnits="userSpaceOnUse" r="819.2" cx="0" cy="0" spreadMethod="pad" gradientTransform="matrix(-.019 0 0 .019 40.35 28.7)" id="D"><stop offset="0" stop-color="#f00"/><stop offset="1"/></radialGradient><radialGradient gradientUnits="userSpaceOnUse" r="819.2" cx="0" cy="0" spreadMethod="pad" gradientTransform="matrix(-.005 0 0 .005 30.75 19.45)" id="E"><stop offset="0" stop-color="#f00"/><stop offset="1"/></radialGradient><radialGradient gradientUnits="userSpaceOnUse" r="819.2" cx="0" cy="0" spreadMethod="pad" gradientTransform="matrix(-.006 0 0 .006 25.3 37.25)" id="F"><stop offset="0" stop-color="#f00"/><stop offset="1"/></radialGradient><radialGradient gradientUnits="userSpaceOnUse" r="819.2" cx="0" cy="0" spreadMethod="pad" gradientTransform="matrix(-.005 0 0 .005 34.25 28.35)" id="G"><stop offset="0" stop-color="#f00"/><stop offset="1"/></radialGradient><radialGradient gradientUnits="userSpaceOnUse" r="819.2" cx="0" cy="0" spreadMethod="pad" gradientTransform="matrix(-.005 0 0 .005 36.35 35.65)" id="H"><stop offset="0" stop-color="#f00"/><stop offset="1"/></radialGradient><radialGradient gradientUnits="userSpaceOnUse" r="819.2" cx="0" cy="0" spreadMethod="pad" gradientTransform="matrix(-.002 .004 .013 .007 21.7 30)" id="I"><stop offset="0" stop-color="#f00"/><stop offset="1"/></radialGradient></defs><path fill="#fff" d="M11.1 8.6l-.1-.45-.15-.55-.4.85-.15.45v.6q.1.45.7.6h.4l.3-.25-.45-.75-.65.45q-.05-.7.5-.95m3.2.15l-.25.3-.1.1-.25.55-.15.25v.2q.4.45 1.05.65h.15q1.15.25 1.55-.75l.35-2.35-.05-1.4-1.7 1.75q.7.65.7 1.65l-.05.65q-.25-1.05-1.25-1.6"/><path fill="#ff0" d="M14.3 8.75q1 .55 1.25 1.6l.05-.65q0-1-.7-1.65l-.6.7m-3.05.35l-.15-.5q-.55.25-.5.95l.65-.45"/><path fill="url(#a)" d="M11.25 9.1l.45.75-.3.25H11q-.6-.15-.7-.6v-.6l.15-.45.4-.85.15.55.1.45.15.5m3.6-4.1q-.95 0-1.55 1.1l-.6.5q-.4.4-.45 1.15l-.55-.2-.15-.7V6.7l-.05-.05-.4.3-.65.65-.6 1.65v.3l.45-.05-.45.05q-.05.95.55 1.45.7.55 1.7.8t2 0l1-.15h.9l1.35-.3.55-.3 1.6-1.25 1.35-1.35.8-1.05v-.05l.2-.35.05-.05v.1l.25.25.55 1 .2-.25.3-.8.15-.95q.25.3.7.3v-.5q.05-1-.4-1.8l-.95-1.75-.6-.5q-.8-.2-1.3-.7l-.75.6-.6.3-.15.1-.9 1.4-.1.1-.1-.1-.3-.45-.35.4-1.3 1.05-.55.25-.95.3.1-.3m-3.1 3.15l-.05-.6.05.6m2.9-2.4l.1-.45-.1.45m2.8.75l-.2-.3-.15-.15-.5-.3q-.5-.1-1 .45l-.25.25L14.2 7.9l1.15-1.45.25-.25q.5-.55 1-.45l.5.3.15.15.2.3m4.5.05l-.05.3v.1-.1l.05-.3m-7.05 1.5l1.7-1.75.05 1.4-.35 2.35q-.4 1-1.55.75h-.15q-.65-.2-1.05-.65v-.2l.15-.25.25-.55.1-.1.25-.3.6-.7"/><path fill="url(#b)" d="M17.7 2.1l-.15-.2-.2-.2-.75.85-.15-.2-.25-.25-1.5 1.55-.35.5-.25-.25q-.7.5-.85 1.4l-.35.2q-.9.3-1.3 1.2l-.05.05v.1l.15.7.55.2q.05-.75.45-1.15l.6-.5Q13.9 5 14.85 5l.65-1.1.2-.25.4-.4v.85l.3-.45 1.3-1.55"/><path fill="url(#c)" d="M9.85 9.55l-.6.15-.3.15-.85.85 1 .35q-.55.55-.2 1l1.7-.6.2.65.4.45.05.05q.25.1.45-.2l.1-.2.15.3.6.55.65-.7.15.2.05.15.8 1.5.45-.5.95-1.35.05-.1q.2-.25.3-.1l1.05.95h.05q.45-.8.35-1.75h-.05l-1.35.3h-.9l-1 .15q-1 .25-2 0t-1.7-.8q-.6-.5-.55-1.45"/><path fill="url(#d)" d="M2.05 10.7l-.1.35.15 1.05.05.15.05.3v.1l.1.2-.3.6V14.85l-.05.2.3 1.2.1.1h.05v.1l.15.15 1.25.05-.1-.6q0-.55.8-.7l.1.5.2.6.35-.5.05-.2.35-.9.2-.3.5-1.2v-.85l-.15-.2-.45-.1q-.65-1.25-1.7-1.85l-.1-.05-.3-.2-1.1.25-.4.35m1.75.9l-.35.85-.1 2.25q-.45.55-.3 1.35-.55-.4-.55-1.05l-.2-2.15.2 2.15q0 .65.55 1.05-.15-.8.3-1.35l.1-2.25.35-.85m1.55 1.35l-.3.35-.15.3v.05q-.45.9-.4 1.7-.05-.8.4-1.7v-.05l.15-.3.3-.35"/><path fill="url(#e)" d="M2 13.45l.3-.6-.1-.2v-.1l-.05-.3-.05-.15-.15-1.05.1-.35-.35-.25-.1-.1L.05 12.5l.3.5.4.75.15.45.15 1.3L1 16.75q1.2.6 1.85 1.5.2-.9-.15-1.45l-.15-.2-.3.1V16.25l-.3-1.2.05-.2V13.45l-.1-.4.1.4"/><path fill="url(#f)" d="M17.7 2.1l-1.3 1.55-.3.45v-.85l-.4.4-.2.25-.65 1.1-.1.3.95-.3.55-.25 1.3-1.05.35-.4.3.45.1.1.1-.1.9-1.4-.7.4.25-.9.45-1.1-1.1.85-.5.5"/><path fill="url(#g)" d="M18.85 1.85l-.25.9.7-.4.15-.1.6-.3-.15-.35-1.05.25"/><path fill="url(#h)" d="M23 9.2l.95.65.35.3.4.45-.25-1.45-.65-1.65.35.25 1.3 1.15.85 1v-.45l-.05-.35-.5-1.65-1.05-1.6.9.4 1.05.95.3.55-.6-1.4-.6-1-.65-.8L24 3.6q1.2-.6 2.5-.8l-.4-.3-1.7-.55-1.9-.35.4-.45L24.1 0q-1.65.1-3 1.15l-.3.2q.5.5 1.3.7l.6.5.95 1.75q.45.8.4 1.8v.5q-.45 0-.7-.3l-.15.95-.3.8-.2.25.3.9"/><path fill="url(#i)" d="M23 9.2l-.5-.35.5.35-.3-.9-.55-1-.25-.25V7h-.05l-.2.35v.05l-.8 1.05L19.5 9.8l-1.6 1.25-.55.3h.05l.2.5.65 1.1.05-.3.45-1.95 1.15 1.4.2.3.05-.35.15-.5.05-.65-.2-1.35.35.3.4.65.3.85.4 1 .3-.9.1-.8-.1-.55-.4-1.2-.1-.2.15.1.05.05.9 1.5.05.2.6 1.1V10.4L23 9.2"/><path fill="url(#j)" d="M22 10.65l.5-.3-.9-1.5-.1.05.4 1.2.1.55"/><path fill="url(#k)" d="M9.9 19.15l.1.1.3.25q0 .7-.75.7l2.85.15-.1.55q.8-.3 1.2-1.05l.2-.3.8-1.3.85-.95 2.05-1.55.2-.2.55-.4.1-.05.1-.1.7-.4.8-.6.2-.25.25-.55.8-1.7.1-.15-.3-.85-.6 1.05-.15.5-.05.35-.2-.3-6.6 6-.65.5-.1.05-.45.15-1.2-.05q-.35-.05-.6-.3l-.25.2-.55.15.4.35m3.25-.05l.55.45-.55-.45"/><path fill="url(#l)" d="M20.9 10.5l-.4-.65-.35-.3.2 1.35-.05.65.6-1.05"/><path fill="url(#m)" d="M13.7 19.55l1.45 1.2.2-3.45-.85.95-.8 1.3"/><path fill="url(#n)" d="M15.15 20.75l1 .65.5.2q1.2.45.8 1.25.6.1 1.1.75l2 .1-.05-.2.2-1.55-1.4-.05 1-1.2.5-1.2q-1.1.3-2-.55l.35-.2q1.2-.8.75-1.75l-.8-.4.1-.1.35-.7q.05-.55-1.05-.7h-.25l-.1.05-.55.4-.2.2-2.05 1.55-.2 3.45m2.2-3.35q.7.2 1.4-.45l.35-.35-.35.35q-.7.65-1.4.45"/><path fill="url(#o)" d="M10.85 17.55q-.55-.7-.55-1.75h-.05l-.2 1q-.15.55.25 1l-.95-.7.35 1 .1.1h.3l.05.05.05.1.15.05-.05.05q.25.25.6.3l1.2.05.45-.15.1-.05.05-.35h-.05l.05-.05.05-1.6-.15-.75q.2 1.25-.35 2.45-.5-.45-.35-1.55l.05-.65-.3 1.55-.05.55-.75-.65"/><path fill="url(#p)" d="M21.7 14.15v-.05q-.4-.75-1.4-.9l-.25.55-.2.25-.8.6-.7.4-.1.1h.25q1.1.15 1.05.7l-.35.7-.1.1.8.4q.45.95-.75 1.75l-.35.2q.9.85 2 .55l-.5 1.2-1 1.2 1.4.05q.4-.9 1.45-1.25l.9-.55.15-.2.5-1.45v-.55q-1-.1-1.45-.75l-.3-.6-.15-.75-.2-.3q-.4-.9.05-1.35l.05-.05"/><path fill="url(#q)" d="M14.9 24.55l-3.6.8q-1.7.4-3.25 1.3L8 26.7l-3 1.95-1.25 1.1.1.5-.05 4.8q.1 1 .6 1.7l.3.4.45.05q1 .05 2 .55l4.1 2.1 1.2.9.75.75q.85.9 1.1 2-2.2.45-3.4-.65-.75-.7-2.1.2L5.85 45.3 4.6 46.5q1.1-1 2.9-1.6l1.05-.35 1.85-.05.2.05-.75.35-2.8 2.45-1.4 1.85q1.3-1.25 3.75-2.4.9-.4 1.8-.45l4.85-.2 1.4-.35.3-.1q-.05-.7-.9-1.35L15.8 43.2l-.55-1.05-.55-1.85-.05-.1-.4-.65-2-2.6-1.3-1.05-1.4-.7-.2-.05-2.95-1-.35-.15-.4-.25-.2-.1q.7-1.2 1.65-1.85l.8-.5.2-.1 3.3-.85 1.15-.35 1.3-.6.1-.1 1.85-1.35v-.05l-.15-.5q-.25-.4-.75-.35l-1.2.25-1.85.6-4.15 1.85q-.05-.8.5-1.05l2.5-1.1h.1l2.6-1.1 1.75-.85-.25-.8v-.3m-1.25 4.65l.3.1-.3-.1m-.5 15.35l-2.2-.1-.35.1.35-.1 2.2.1"/><path fill="url(#r)" d="M3.8 16.65l1 .9.2.35q.7 1.3.4 2.75l.6.55 1.95 2.15q-.45-1.2-1.4-2.1l-.5-.35q1.45-.85 1.2-2l2.65.25-.4-.35.55-.15.25-.2-.1-.1-.1-.05-.3-.1h-.55l-2.4-1.3-.65-1.35-.65-.7-.35.9-.05.2-.35.5-.2-.6-.1-.5q-.8.15-.8.7l.1.6m3.25 1.15l-.2-.9.2.9m.1.75l.1.35-.1-.35"/><path fill="url(#s)" d="M.35 13l-.15.9q0 .7.35 1.15l.5.45-.15-1.3-.15-.45-.4-.75"/><path fill="url(#t)" d="M3.75 29.75l-.4.55-.5 1.1-.35 1.45v.05l-.05.65-1.5-1.35L0 31l.9 2.1.2.35.9 1.1.75.65.05.35q.2 1.35 1.85 1.6h.05l-.3-.4q-.5-.7-.6-1.7l.05-4.8-.1-.5"/><path fill="url(#u)" d="M15.15 25.65l-1.75.85-2.6 1.1h-.1l-2.5 1.1q-.55.25-.5 1.05l4.15-1.85 1.85-.6 1.2-.25q.5-.05.75.35l-.05-.2.1.25-.55-1.8"/><path fill="url(#v)" d="M11.4 30.35l.3.7.1.9 2.1.05 3.7 1.9.5.1 1.1.45.45.25q.85.55 1.55.55l-.7-.7-.45-.65-1.5-.35q-1.15-.35-1.9-.9l-.1-.05-.8-.75-.2-.3-.7-1.5-.85-.7-.05-.05-.1.1-1.3.6-1.15.35"/><path fill="url(#w)" d="M15.65 27.4l.05.05-.1-.25.05.2"/><path fill="url(#x)" d="M16.6 36.45l3 1.2-2.1-2.25h-.05l-3.6-2.75.05.35.95 1.85.45.55 1.25 1 .05.05"/><path fill="url(#y)" d="M17.75 45.7l3.3.2q1.2.35 1.9 1.25.35-2.15-1.3-2.75l-2.3-.35h-.05q-1.5-.25-2.5-1.15l-.4-.4-1.7-2.2.55 1.85.55 1.05 1.05 1.15q.85.65.9 1.35"/><path fill="url(#z)" d="M36.25 3.55l1.7 1.75.6.8-3.4-.65 1.05 1.1-1.7-.15.65.95 1.75 2 3.15 2.6-1.15-1.7-2.7-3 1.1.25q2.25.6 3.95 2.2l1 1.2Q40.7 7.6 38 5l-1.75-1.45"/><path fill="url(#A)" d="M26.25 9.1l.5.3.7.75 1.25 2.2q-.7-2.05-1.05-4.2l1.1 1.05-.35-1.5.4.2q2 .3 3.65 1.1l-2.4-1.5-.95-.45-.6-.4-1.65-2.8 2.25.8-.95-1.25-1.2-2.35L30.3.5 28.1.05l-5.2 1.1-.4.45 1.9.35 1.7.55.4.3q-1.3.2-2.5.8l1.1.95.65.8.6 1 .6 1.4-.3-.55-1.05-.95-.9-.4 1.05 1.6.5 1.65"/><path fill="url(#B)" d="M28.75 9.2l1.3 1.8.1 1.15q.15 1.7.55 3.25l.15-.4.25-2.25.15-.8 1.05-2 .45-.65-.1 3.6q-.05.85.85 1.25.85-.2.9-1l.1.4.2 2.85v.15l-.05.4v.25l.4 1.9.1 2.15-.85 2.5-.55 1.15.5.35.6.15.5-.05q.55-.2.7-.6l-.05.5-.2.7V26l-.35.75-1.35 2.4-.35.7-.35 1.3-.1.85.35 1.05q.55 1.75 1.5 3.3l.3.5.05.05v-.05l.4-.8.1-2.1.05-.2.2-2.1.1-2.5-.2-1.65.25 1.35.3.35.25.4.05.1.7.95 1.7 2.45.35.65 1 1.05 1 .8-.9-2.95-1.1-2.3-.5-.8-.05-.05-1.1-2.2-.75-2.1-.05-.1-.35-1.8.9-8.35-.1-1.75 1.65 2.05.1.15.95 1.75.75 1 .05-1.5-.15-1.9-.6-1.9-.45-.9-3.15-2.6-1.75-2-.65-.95 1.7.15-1.05-1.1 3.4.65-.6-.8-1.7-1.75-2.7-1.5-2-.4-1.15.15h-.1l-2.2.45 1.85-.55 2.3-.15q-.7-.3-1.45-.8L30.3.5l-3.35.55 1.2 2.35.95 1.25-2.25-.8 1.65 2.8.6.4.95.45 2.4 1.5q-1.65-.8-3.65-1.1l-.4-.2.35 1.5m1.15-.05l.1 1.1v.05l.05.7-.05-.7v-.05l-.1-1.1"/><path fill="url(#C)" d="M30.7 15.4l.65 1.95.6 1.2.1-7 .15 1.6.9 3.8.75 1.9-.1-3.6.6 1 .15.35.05.3.1.3v-.25l.05-.4v-.15l-.2-2.85-.1-.4q-.05.8-.9 1-.9-.4-.85-1.25l.1-3.6-.45.65-1.05 2-.15.8-.25 2.25-.15.4m1.35-3.85l.25-1.6-.25 1.6"/><path fill="url(#D)" d="M39.75 33.75l1.35 2.5q2.1 3.95 2.45 7.9l.15-.95q.1-4.75-1.25-9.3l-1.55-3.7-1-1.7q1 .75 2.5.65l-2.35-1.05q-1.3-.6-1.9-1.9l-.4-1.25-.05-.1-.05-1.45.15-1.25.8-2.65.25-1.5v-.1q.05-1.25-.45-2.3l-.1-.2.1.15.4.5 1.3 1.3q.8.95.95 2.2l.15-1.4-.75-1-.95-1.75-.1-.15-1.65-2.05.1 1.75-.9 8.35.35 1.8.05.1.75 2.1 1.1 2.2.05.05.5.8 1.1 2.3.9 2.95-1-.8-1-1.05"/><path fill="url(#E)" d="M28.25 22.3l2.9-.05q1.4.05 2.55-.55l.85-.55-5.55-.2q-.2-1-1.2-1.2l.55-.85.1-.7-.05-.3-.65-1.15-.15-.15q-.45.6-.3 1.45l.1.3.05.25v.15l-.25.65q-.55.65.45 1.2l.5.7.1 1m.3-1.35H29h-.45"/><path fill="url(#F)" d="M25.15 38.75l.35.15 1 .85q.8.75.95 1.8l-.05-2.15-.35-1.25-.4-.8-.3-.45q-.65-.8-1.6-1.15.55-1.3.25-2.85l-1.65 1.8q-.65 1.5.95 1.8.7.15.95.65l.15.5-.15.9-.1.2"/><path fill="url(#G)" d="M33.75 24.9l-1.3 1.95 1.5-1.1-.8 2q-.3 1.1-.25 2.15l.4 2.1.1-.85.35-1.3.35-.7 1.35-2.4.35-.75v-.05l.2-.7.05-.5q-.15.4-.7.6l-.5.05-.6-.15-.5-.35"/><path fill="url(#H)" d="M35.5 36.9l1.75 2.8-.15-.45-.85-7.6-.2 2.1-.05.2-.1 2.1-.4.8v.05"/><path fill="#0D0000" d="M11.2 12.6l.15.65v.1l.2 1.15v.1l-.1 1.3q-.1 1-.6 1.65l.75.65.05-.55.3-1.55-.05.65q-.15 1.1.35 1.55.55-1.2.35-2.45l.15.75-.05 1.6v.05l-.05.35.65-.5 6.6-6-1.15-1.4-.45 1.95-.05.3-.65-1.1-.2-.5q.1.95-.35 1.75H17l-1.05-.95q-.1-.15-.3.1l-.05.1-.95 1.35-.45.5-.8-1.5-.05-.15-.15-.2-.65.7-.6-.55-.15-.3-.1.2q-.2.3-.45.2h-.05"/><path fill="url(#I)" d="M17.45 22.85h-.4q-.85.05-1.9 1.1l-.25.6v.3l.25.8.55 1.8-.05-.05.15.5v.05l.15.4v.05l.25.3.7.7h.2l.05.05.25.85.05.25.55-.2.2-.05v.1l.15.35.6.7.15.1.55 1.65.4.7.45.65.7.7q-.7 0-1.55-.55l-.45-.25-1.1-.45-.5-.1-3.7-1.9-2.1-.05v.65l-.1.45v.6q.05 1.05 1 1.55l.55.25.05.05 5.1 3.35-.65-1.2-1.15-1.2-.05-.05-1.25-1-.45-.55L13.9 33l-.05-.35 3.6 2.75h.05l1.25.85 2.1 1.9.95.35 1.35.1.25-.05 1.75.2.1-.2.15-.9-.15-.5q-.25-.5-.95-.65-1.6-.3-.95-1.8L25 32.9v-.05l-.45-2.2v-.05l-.05-.15-.7-2.9q-.5-1.3-1.9-2.45l-.4-.3q.95-.9 2.5-1.15h.25l.75-.15q1.2-.3 2.5-1l.25-.1.5-.1-.1-1-.5-.7q-1-.55-.45-1.2l.25-.65v-.15l-.05-.25-.1-.3q-.15-.85.3-1.45l-.35-.3-.7-.3-.1-.05-.05-.05 1.65-1.85-2.6.95-.25-.45q-.8-1.15-2.6-.75l-.85.3-.05.05-.05.05q-.45.45-.05 1.35l.2.3.15.75.3.6q.45.65 1.45.75v-.6.6H24.3l.6.4.3.05.55.8.25 1.1-.3.6-1.05.85-4.1 1.95v.45-.45l-2-.1q-.5-.65-1.1-.75l-.25.4.25-.4m8.6-1.85l-.05-.7.05.7M25 17.6q-.3.25-.75.35.45-.1.75-.35m-7.8 7.6q-.7.6-.25 1.5l.6.85.2.35.85.55h.15q1.45-.35 2.6-1.25l-2.25-.05v-.45l-.3-.55-.85.05.85-.05.3.55v.45l2.25.05q-1.15.9-2.6 1.25h-.15l-.85-.55-.2-.35-.6-.85q-.45-.9.25-1.5m3.95 8.85l-1.1-.15 1.1.15M18.5 29.1l.05-.15.05-.5-.05.5-.05.15-.3.1.3-.1.45-.1 1.9.2.1-.05q1.45-1.1 2.9-.2l-.95.2-1.15.6-.45.4-.65-.05h-.15l-2.3.2-.05-.25.05.25 2.3-.2h.15l.65.05.45-.4 1.15-.6.95-.2q-1.45-.9-2.9.2l-.1.05-1.9-.2-.45.1m.3-2.95l.45-.4-.45-.1.45.1-.45.4m.7-.9l-.25.5q1.5.2 1.95-.7l.3-.25-.45-.35.45.35-.3.25q-.45.9-1.95.7l.25-.5m-3.7.65l1.3 3.5-1.3-3.5m6.4 10.35l-.7-.8-.3-.2.3.2.7.8"/><path fill="none" stroke="#810000" stroke-width=".05" stroke-linecap="round" stroke-miterlimit="3" d="M2.05 10.7l-.1.35.15 1.05.05.15.05.3v.1l.1.2-.3.6-.1-.4m.15-2.35l-.35-.25-.1-.1L.05 12.5l-.1-.3m5.6 2.65l.2-.3.5-1.2v-.85l-.15-.2-.45-.1q-.65-1.25-1.7-1.85l-.1-.05-.3-.2-1.1.25-.4.35M.35 13l-.15.9q0 .7.35 1.15l.5.45L1 16.75q1.2.6 1.85 1.5.2-.9-.15-1.45l-.15-.2 1.25.05 1 .9.2.35q.7 1.3.4 2.75l.6.55 1.95 2.15q-.45-1.2-1.4-2.1l-.5-.35q1.45-.85 1.2-2l2.65.25.1.1.3.25q0 .7-.75.7l2.85.15-.1.55q.8-.3 1.2-1.05l.2-.3 1.45 1.2 1 .65.5.2q1.2.45.8 1.25m-2.55 1.7l-3.6.8q-1.7.4-3.25 1.3L8 26.7l-3 1.95-1.25 1.1-.4.55-.5 1.1-.35 1.45v.05l-.05.65-1.5-1.35L0 31l.9 2.1.2.35.9 1.1.75.65.05.35q.2 1.35 1.85 1.6h.05l.45.05q1 .05 2 .55l4.1 2.1 1.2.9.75.75q.85.9 1.1 2-2.2.45-3.4-.65-.75-.7-2.1.2L5.85 45.3 4.6 46.5q1.1-1 2.9-1.6l1.05-.35 1.85-.05.2.05-.75.35-2.8 2.45-1.4 1.85q1.3-1.25 3.75-2.4.9-.4 1.8-.45l4.85-.2 1.4-.35.3-.1 3.3.2q1.2.35 1.9 1.25.35-2.15-1.3-2.75l-2.3-.35h-.05q-1.5-.25-2.5-1.15l-.4-.4-1.7-2.2-.05-.1-.4-.65-2-2.6-1.3-1.05-1.4-.7-.2-.05-2.95-1-.35-.15-.4-.25-.2-.1q.7-1.2 1.65-1.85l.8-.5.2-.1 3.3-.85.3.7.1.9v.65l-.1.45v.6q.05 1.05 1 1.55l.55.25.05.05 5.1 3.35-.65-1.2-1.15-1.2 3 1.2-2.1-2.25 1.25.85 2.1 1.9.95.35 1.35.1h.2l.05-.05 1.75.2.35.15 1 .85q.8.75.95 1.8l-.05-2.15-.35-1.25-.4-.8-.3-.45q-.65-.8-1.6-1.15.55-1.3.25-2.85v-.05l-.45-2.2v-.05l-.05-.15-.7-2.9q-.5-1.3-1.9-2.45l-.4-.3m6.75-2.5l2.9-.05q1.4.05 2.55-.55l.85-.55-5.55-.2q-.2-1-1.2-1.2l.55-.85.1-.7-.05-.3-.65-1.15-.15-.15m-5.9-2.45v-.05q-.4-.75-1.4-.9l.8-1.7.1-.15.4 1 .3-.9.1-.8.5-.3.05.2.6 1.1V10.4L23 9.2l.95.65.35.3.4.45-.25-1.45-.65-1.65.35.25 1.3 1.15.85 1v-.45l-.05-.35.5.3.7.75 1.25 2.2q-.7-2.05-1.05-4.2l1.1 1.05 1.3 1.8.1 1.15q.15 1.7.55 3.25l.65 1.95.6 1.2.1-7 .15 1.6.9 3.8.75 1.9-.1-3.6.6 1 .15.35.05.3.1.3.4 1.9.1 2.15-.85 2.5-.55 1.15-1.3 1.95 1.5-1.1-.8 2q-.3 1.1-.25 2.15l.4 2.1.35 1.05q.55 1.75 1.5 3.3l.3.5.05.05 1.75 2.8-.15-.45-.85-7.6.1-2.5v-.4l.05.1.3.35.25.4.05.1.7.95 1.7 2.45.35.65 1.35 2.5q2.1 3.95 2.45 7.9l.15-.95q.1-4.75-1.25-9.3l-1.55-3.7-1-1.7q1 .75 2.5.65l-2.35-1.05q-1.3-.6-1.9-1.9l-.4-1.25-.05-.1-.05-1.45.15-1.25.8-2.65.25-1.5v-.1q.05-1.25-.45-2.3l-.1-.2.1.15.4.5 1.3 1.3q.8.95.95 2.2v.05l-.1.85M.05 12.5l.3.5.4.75.15.45.15 1.3M2 13.45V14.85l-.05.2.3 1.2V16.7l.3-.1-.15-.15v-.1h-.05l-.1-.1m.05-3.4L2.5 15q0 .65.55 1.05-.15-.8.3-1.35l.1-2.25.35-.85m-1.45 4.85h.05l-.1.15.05-.15v-.1m0 .1l-.1-.1m.05.25l-.05.1m9.3-9.95l.05-.05q.4-.9 1.3-1.2l.35-.2q.15-.9.85-1.4l.25.25.35-.5 1.5-1.55.25.25.15.2.75-.85.2.2.15.2-1.3 1.55-.3.45v-.85l-.4.4-.2.25-.65 1.1M11.7 7.55l-.15-.7V6.7l-.05-.05-.4.3-.65.65-.6 1.65v.3l-.6.15-.3.15-.85.85 1 .35q-.55.55-.2 1l1.7-.6.2.65.4.45v.05l.15.65v.1l.2 1.15v.1l-.1 1.3q-.1 1-.6 1.65-.55-.7-.55-1.75l.05-.6v-.4m.75-6.2l-.1-.45-.15-.55-.4.85-.15.45v.6l-.45.05q-.05.95.55 1.45.7.55 1.7.8t2 0l1-.15h.9l1.35-.3.55-.3 1.6-1.25 1.35-1.35.8-1.05v-.05l.2-.35.05-.05v-.1l.05-.3m-4.55 4.8q.1.95-.35 1.75H17l-1.05-.95q-.1-.15-.3.1l-.05.1-.95 1.35-.45.5-.8-1.5-.05-.15-.15-.2-.65.7-.6-.55-.15-.3-.1.2q-.2.3-.45.2l-.05-.05m.05-3.45l.45.75-.3.25H11q-.6-.15-.7-.6m1.4-1.95l.05.6M17.7 2.1l.5-.5 1.1-.85-.45 1.1-.25.9.7-.4M14.75 5.3l.1-.3m-.65 2.9l1.15-1.45.25-.25q.5-.55 1-.45l.5.3.15.15.2.3m-2.7-1.2l-.1.45m4.2-3.9l1.05-.25.15.35-.6.3m.6-.3l.75-.6.3-.2Q22.45.1 24.1 0l-1.2 1.15 5.2-1.1 2.2.45.5.25q.75.5 1.45.8l-2.3.15-1.85.55 2.2-.45h.1l1.15-.15 2 .4 2.7 1.5L38 5q2.7 2.6 4.25 5.9l-1-1.2q-1.7-1.6-3.95-2.2l-1.1-.25 2.7 3 1.15 1.7.45.9.6 1.9.15 1.9-.05 1.5-.15 1.4M22.7 8.3l-.55-1-.25-.25v-.1m1-5.8l-.4.45 1.9.35 1.7.55.4.3q-1.3.2-2.5.8l1.1.95.65.8.6 1 .6 1.4-.3-.55-1.05-.95-.9-.4 1.05 1.6.5 1.65M23 9.2l-.5-.35m.2-.55l.3.9m-1.4-.35l.9 1.5m-1-1.45l.05-.1.05.05m-.05-.05l-.15-.1.1.2.4 1.2.1.55m-1.7.9l-.15.5-.05.35-.2-.3-1.15-1.4-.45 1.95-.05.3-.65-1.1-.2-.5m2.9.2l.05-.65-.2-1.35.35.3.4.65-.6 1.05m.9-.2l-.3-.85m-6.6-1.75l-.25.3-.1.1-.25.55-.15.25v.2q.4.45 1.05.65h.15q1.15.25 1.55-.75l.35-2.35-.05-1.4-1.7 1.75m3.35 7.05l.1-.1.7-.4.8-.6.2-.25.25-.55m-4.95 4.1l2.05-1.55.2-.2.55-.4.1-.05h.25q1.1.15 1.05.7l-.35.7-.1.1-.35.35q-.7.65-1.4.45m-2-.1l-.85.95-.8 1.3-.55-.45m10.55-1.15v.55l-.5 1.45-.15.2-.9.55q-1.05.35-1.45 1.25l-.2 1.55.05.2M4.5 15.35q-.05-.8.4-1.7v-.05l.15-.3.3-.35m.2 1.9l.65.7.65 1.35.2.9M3.8 16.65l-.1-.6q0-.55.8-.7l.1.5.2.6.35-.5.05-.2.35-.9m5.3 2.7l.75.65.05-.55.3-1.55-.05.65q-.15 1.1.35 1.55.55-1.2.35-2.45l.15.75-.05 1.6-.05.05h.05l-.05.35-.1.05-.45.15-1.2-.05q-.35-.05-.6-.3l.05-.05-.15-.05-.05-.1-.05-.05h-.3l-.1-.1-.35-1 .95.7q-.4-.45-.25-1l.2-1 .1-.6m2.35 3v.05M6.85 16.9l2.4 1.3h.55l.3.1.1.05.1.1-.25.2-.55.15.4.35m.15-.95l.05.1m-2.85.6l-.1-.35m5.5.05l.65-.5 6.6-6m12.4-2.15l-.25 1.6m-2-.55l-.05-.7v-.05l-.1-1.1m-.9 11.8h-.45m-12.75 7l-1.85 1.35-.3-.1m-2.25 1.15l1.15-.35 1.3-.6.1-.1.05.05.85.7.7 1.5.2.3.8.75.1.05q.75.55 1.9.9l1.5.35.45.65.7.7.3.2.7.8m-6.6-9.05l.05.2m2.55 2.9v.1l.15.35.6.7.15.1.55 1.65.4.7 1.1.15m-4.55 2.4l-.05-.05-1.25-1-.45-.55L13.9 33l-.05-.35 3.6 2.75h.05m5.65 3.2l.25-.05m-12.8 6l.35-.1 2.2.1"/><path fill="none" stroke="#630000" stroke-width=".05" stroke-linecap="round" stroke-miterlimit="3" d="M17.45 22.85h-.4q-.85.05-1.9 1.1l-.25.6m6.6.25q.95-.9 2.5-1.15h.25l.75-.15q1.2-.3 2.5-1l.25-.1.5-.1m-.65-5.7l-.35-.3m-.7-.3l-.1-.05m-.05-.05l1.65-1.85-2.6.95-.25-.45q-.8-1.15-2.6-.75l-.85.3-.05.05-.05.05q-.45.45-.05 1.35l.2.3.15.75.3.6q.45.65 1.45.75v-.6m-3.15 6.35v.45m0-.45l-2-.1q-.5-.65-1.1-.75l-.25.4m3.35.45l4.1-1.95 1.05-.85.3-.6.05.7m-2.35-3.05H24.3l.6.4.3.05.55.8.25 1.1m-1.75-2.35q.45-.1.75-.35m-9.35 9.8l.15.5v.05l.15.4v.05l.25.3.7.7h.2l.05.05.25.85.05.25.55-.2.2-.05-.05-.25m-2.45-2.6l-.55-1.8-.25-.8v-.3m3.05 1.65l.85-.05.3.55v.45l2.25.05q-1.15.9-2.6 1.25h-.15l-.85-.55-.2-.35-.6-.85q-.45-.9.25-1.5m1 4l.3-.1.45-.1 1.9.2.1-.05q1.45-1.1 2.9-.2l-.95.2-1.15.6-.45.4-.65-.05h-.15l-2.3.2m-1.1-.9l-1.3-3.5m5.25-1.45l.45.35-.3.25q-.45.9-1.95.7l.25-.5m-.7.4l.45.1-.45.4m-.2 2.3l-.05.5-.05.15"/><path fill="none" stroke="#919100" stroke-width=".05" stroke-linecap="round" stroke-miterlimit="3" d="M11.25 9.1l-.15-.5q-.55.25-.5.95l.65-.45m3.65-1.05l-.6.7q1 .55 1.25 1.6l.05-.65q0-1-.7-1.65"/></svg>