<svg xmlns="http://www.w3.org/2000/svg" viewBox="0 0 47.0 48.5" width="47" height="48.5"><defs><radialGradient gradientUnits="userSpaceOnUse" r="819.2" cx="0" cy="0" spreadMethod="pad" gradientTransform="matrix(.2 0 0 .173 -6.5 -2.25)" id="a"><stop offset=".094" stop-color="#600"/><stop offset=".518" stop-color="#525252"/><stop offset="1"/></radialGradient><linearGradient gradientUnits="userSpaceOnUse" x1="-819.2" x2="819.2" gradientTransform="matrix(-.007 0 0 -.002 38.9 9.3)" id="b"><stop offset="0" stop-color="#f00"/><stop offset="1"/></linearGradient><radialGradient gradientUnits="userSpaceOnUse" r="819.2" cx="0" cy="0" spreadMethod="pad" gradientTransform="matrix(.037 0 0 .032 24.75 27.3)" id="c"><stop offset=".094" stop-color="#600"/><stop offset="1"/></radialGradient><radialGradient gradientUnits="userSpaceOnUse" r="819.2" cx="0" cy="0" spreadMethod="pad" gradientTransform="matrix(.2 0 0 .173 -6.5 -2.25)" id="d"><stop offset="0" stop-color="#fff"/><stop offset="1"/></radialGradient><radialGradient gradientUnits="userSpaceOnUse" r="819.2" cx="0" cy="0" spreadMethod="pad" gradientTransform="matrix(.01 0 0 .008 21.4 18.2)" id="e"><stop offset=".306"/><stop offset="1" stop-color="#f00"/></radialGradient><radialGradient gradientUnits="userSpaceOnUse" r="819.2" cx="0" cy="0" spreadMethod="pad" gradientTransform="matrix(.037 0 0 .032 24.75 27.3)" id="f"><stop offset=".094" stop-color="#600"/><stop offset=".518" stop-color="#525252"/><stop offset="1"/></radialGradient><radialGradient gradientUnits="userSpaceOnUse" r="819.2" cx="0" cy="0" spreadMethod="pad" gradientTransform="matrix(.022 0 0 .019 18.15 34.65)" id="g"><stop offset="0" stop-color="#f00"/><stop offset="1"/></radialGradient><radialGradient gradientUnits="userSpaceOnUse" r="819.2" cx="0" cy="0" spreadMethod="pad" gradientTransform="matrix(.019 0 0 .016 33.05 35.75)" id="h"><stop offset="0" stop-color="#f00"/><stop offset="1"/></radialGradient><radialGradient gradientUnits="userSpaceOnUse" r="819.2" cx="0" cy="0" spreadMethod="pad" gradientTransform="matrix(.014 0 0 .012 39.15 21.7)" id="i"><stop offset="0" stop-color="#f00"/><stop offset="1"/></radialGradient><linearGradient gradientUnits="userSpaceOnUse" x1="-819.2" x2="819.2" gradientTransform="matrix(.005 0 0 .003 4.3 11.4)" id="j"><stop offset="0" stop-color="#f00"/><stop offset="1"/></linearGradient><radialGradient gradientUnits="userSpaceOnUse" r="819.2" cx="0" cy="0" spreadMethod="pad" gradientTransform="matrix(.012 0 0 .01 5.9 25.15)" id="k"><stop offset="0" stop-color="#f00"/><stop offset="1"/></radialGradient></defs><path fill="#f30" d="M11.9 3.15l.25-.45.5-.5q0 .7.55.55l.9-.55q2.2-1.65 4.7-2-.65.35-.95 1.25 1.35.2 2.5-.75-.35 2.15 1.8 1.35L23.3.9q1.15 2 .95-.6 2.5.35 4.75 1.8-.15-1.3-.9-2.1 3.25.25 4.1 3.15l.15.5.15-.6.1-1.4.65 1.15.55 1.65v.05l-.2.1-.85-.05-.75-.7-.9-1.45-.4.5q-.4-.45-.7-.25-1.1.7-2.25-.25l-.85.15-1.35-.2-1.5.2-2.9.25q-1-.25-1.5.4l-.6-.55q-.45-.75-1.25-.8l-1.15.1-3.4 1-1.35.2"/><path fill="#f00" d="M33.8 5.75l4.35.45q2.15.6 3.5 1.8l3.45 2.4q1.15.6 1.9 1.7l-1.5-.65-1.1-.25-7.05-3-2.75-.75-.95-.05-.05-.3V7l.2-1.25M.9 12.4l1.5-2.55Q3.5 8.2 5.3 7.5l4.25-1v.9q-.65.55-.9 1.35l-.6-.1q-1.55-.25-2.8.65L2.85 11 .9 12.4m17-2.35h-2.95q-1.95-.2-2.05-1.4l.15-.95q.3-1.1 1.55-1.1-.35.05-.7.8-.5.9 2.05 1.3l4.1.4-.35.35-.6.35-.3.1-.25.05h-.05l-.6.1m5.3-.65q1.55-.7 3.4-1.05 2.7-.6 3.45-2.2l.95.95.45.75.05.1q.25.65-.4 1-1.65.75-3.95.7l-1.8-.1-.8-.05.05-.1-.35.1-1.05-.1"/><path d="M23.2 9.4l.15.35-1.65.55-.95.1-1.4-.25-.1-.05-.55-.1-.15-.05.25-.05.3-.1.6-.35.35-.35-4.1-.4q-2.55-.4-2.05-1.3.35-.75.7-.8-1.25 0-1.55 1.1l-.15.95q.1 1.2 2.05 1.4h2.95l.05.35-.1.2v.05q-.25.7.2 1.6l-1.6-.65v-.05l-1-.4q-.6.55-.65 1.6v.65l.15.85-.8-1.05q-1.05-1.5-1.5-3.15-1.2.7-1.85 2.4V11.3q0-1.05.4-1.65l.15-.25h-.05l-1-.4q.55-1 1.75-1.7l.95-.75q.75-.9 2.9-.6l.7 1.25q.35 1.15 1.9 1.2h.3q.35-.9-.35-1.85l-.3-.4q-1.05-1.1-.3-1.7l.9 1.65.55.6q.3.3.55.3 1.6 0 1.65 1.15v.3l.4-.05.05-.5q.2-1.25 1.65-1.6l1.2-.8.05.95-.6.7q-.5.35.25.45l.8-.25q.85-.7 2.2-1.1l1.2-.55.65-.6.4-.95.05-.4.25.25.95 1.35.25.6L31 7.1l-.95-.95q-.75 1.6-3.45 2.2-1.85.35-3.4 1.05m-12.55 7.8l-.4-.95 1.2-.65.2-.3.2-.25.8-.85q-.15.9.1 1.85l.4 1.45q.35 1 1.85 1.25h.15q.6 1.15 1.7 2.1l1 .9-.7.7q-.7.25-1.05 1.15-.6-.1-.9-.55-.3-.5-.2-1.4.15-1.75-1.5-2.15-.4 1.3 0 1.85l-1.4-1.5q-.75-1.1-.85-2.4l-.05-.3.1-1.25.2-.25.15-.35-.15.35-.2.25q-.5.55-.5 1.3v.3l-.15-.3m20.8-9.35l.15.05.75.55q1.05 1.25.75 3.15-.7-1.65-2.7-1.25.25 1.3-.35 2.3l-1 1.05q.2-1.05-.05-1.85-.4-1.15-1.75-1.7l-.25.6q-.55 1-1.55 1.65.9-1.15.3-2.1l-.45-.55.05-.2 1.8.1q2.3.05 3.95-.7.65-.35.4-1l-.05-.1M28.1 17.8l.55-.85q.6-1.3.1-2.6.55 1.05 1.6 1.9l.35.35.1.8.25-.95-.1-2.25.35.5.3.2.6.3 1.5.35-.15 1.85-.35.85-.05-.8q-.15-1-.9-1.55L32 18.95l-.35.65-.05-.6-.2-.4-.2.25v.05q-.75 1.4-.7 2.8l-1.15 1.85q-.3-2.2-2.25-1.7l-.1-.1.7-.9q.95-1.05.45-2.85l-.05-.2"/><path fill="url(#a)" d="M28.1 17.8q-.4-1.4-1.15-2.4l-3-3.2-1.05-.8-1.9-.15-.65.1-.2.05-.75.4-.05-.2v.2L17 13.55l-1.2 1.15-.8.9q-.75.9-.3 2.15l.45 1H15q-1.5-.25-1.85-1.25l-.4-1.45q-.25-.95-.1-1.85l-.8.85-.2.25-.2.3-1.2.65-.35-1.05q-.75-2.35-1.75-.95l-.5.85.15-.9v-.05l.05-.05q.5-1.4.6-2.7v-.95q-.1-1 .2-1.7.25-.8.9-1.35v-.9l.3-1.3q.9-2.35 1.8-.5-.05-.95.25-1.55l1.35-.2 3.4-1 1.15-.1q.8.05 1.25.8l.6.55q.5-.65 1.5-.4l2.9-.25 1.5-.2 1.35.2.85-.15q1.15.95 2.25.25.3-.2.7.25l.4-.5.9 1.45.75.7.85.05.2-.1v1.25L33.6 7v.1l.05.3q.2 1 1.1 1.6l-1.25-.65q.9 1 1.1 2.3v1.4l-.25 1.25-.2-.7-.35 1.9-.1.9v.15l-1.5-.35-.6-.3-.3-.2-.35-.5.1 2.25-.25.95-.1-.8-.35-.35q-1.05-.85-1.6-1.9.5 1.3-.1 2.6l-.55.85M31 7.1l.25-1.15-.25-.6L30.05 4l-.25-.25-.05.4-.4.95-.65.6-1.2.55q-1.35.4-2.2 1.1l-.8.25q-.75-.1-.25-.45l.6-.7-.05-.95-1.2.8q-1.45.35-1.65 1.6l-.05.5-.4.05v-.3Q21.45 7 19.85 7q-.25 0-.55-.3l-.55-.6-.9-1.65q-.75.6.3 1.7l.3.4q.7.95.35 1.85h-.3q-1.55-.05-1.9-1.2l-.7-1.25q-2.15-.3-2.9.6l-.95.75Q10.85 8 10.3 9l1 .4h.05l-.15.25q-.4.6-.4 1.65v1.15q.65-1.7 1.85-2.4.45 1.65 1.5 3.15l.8 1.05-.15-.85v-.65q.05-1.05.65-1.6l1 .4v.05l1.6.65q-.45-.9-.2-1.6v-.05l.1-.2-.05-.35.6-.1h.05l.15.05.55.1.1.05 1.4.25.95-.1 1.65-.55-.15-.35 1.05.1h.3l.8.05-.05.2.45.55q.6.95-.3 2.1 1-.65 1.55-1.65l.25-.6q1.35.55 1.75 1.7.25.8.05 1.85l1-1.05q.6-1 .35-2.3 2-.4 2.7 1.25.3-1.9-.75-3.15l-.75-.55-.15-.05L31 7.1M11.65 4.7V5l.05.45-.05-.45v-.3m5.8 10.25l-.25.1V15l-.15-1.4.4 1.35"/><path fill="url(#b)" d="M44.4 11.2l-4.85-.6-4.95.05q-.2-1.3-1.1-2.3l1.25.65q-.9-.6-1.1-1.6l.95.05 2.75.75 7.05 3M35 9.15L34.75 9l.25.15"/><path fill="url(#c)" d="M33.8 14.5l2.6.65 1.3.85q-.65 1.7-2.6 1.8l2.1.55q-2.5.45-3.1 2.7 1.2-2.85 4.4-1.05l1.7 1.1q.75.55 1.1 1.55l.3 1.35.1 3.45q-.1 2.25 1.35 3.45-.45 1.5 1.1 2.95.9.85.4 2.4-.9 2.55-2.95 4.4 1.1.1 1.85.75 1.6 1.3 3.2 3.5-3.55 0-6.15-1.7l-.35-.25-.35.3-1.1-1.2q-.55-.65-1.45-.9-3.65-.9-1.55-3.45l2.2-3.35q-1.35.4-2.25 1.55l.1-1q.4-2.05 1.95-2.65l-1-.7-.2-.55q-.1-1.65-.65-2.95l-.45-.85-1.2-.7q-2.5-.6-1.5-3.2-2.7.1-4.2 1.75-.9-.55-2-.75l-.65-1 .25-.4.85-1.1.05-.05.1.1q1.95-.5 2.25 1.7l1.15-1.85q-.05-1.4.7-2.8v-.05l.2-.25.2.4.05.6.35-.65.25-3.05q.75.55.9 1.55l.05.8.35-.85.15-1.85v-.15l.1-.9M9.85 43.7l-.55-1.65-6.45 2.35q1.25-2.6 4.25-3.85l2.45-.85-.75-.35.05-.05-.35-.3-1.7-1.55q-2-1.95-2.25-4.5l2.35-1.3q.55-.3.6-.8v-.35q.05-1.65-.9-3.3l-.1-.15q-.55-1.1-.05-2.3.8-2 4-2.5-2.1-.55-3.6.3l.35-1.1q.7-1.55 2.25-2.6l-.8.3-.45.3-1.35.65q.55-1 1.3-1.7 1-.95 2.5-1.2l.15.3v-.3l.4-.05.05.3q.1 1.3.85 2.4l1.4 1.5q-.4-.55 0-1.85 1.65.4 1.5 2.15-.1.9.2 1.4l-.85 1.5q-.55 1.5-1.55 1.85l-2.35.45q1.9 1.9 2.4 4.65.35 2-.4 2.6l-1.1.25-.9-2 .55 2.1 1.25 2.45q.6.95 1.95 1.6 1.85 3-.85 3.55l-.25.05q-1.1.1-2 .75l-1.25.85m1.7-3.3l-2-.7 2 .7"/><path fill="url(#d)" d="M25.3 24.1L24 26.5l-2.85-1.9-2.05-1.75q-.35-.85-.25-1.8l.1-.5.2.45q.9 2.15 2.6 3.45l.1.05v-.1l-.75-4.3.4.8q.8 1.6 1.15 3.35l.1.6.2-.65q.25-1.3-.3-3.05.85 1.3 1 3l.05.5.45-.55.75-1.75.15-1.5 1.05 2.05-.25.4-.55.8m-5.9-12.3l.75-.4.2-.05.65-.1 1.9.15 1.05.8 3 3.2-.15.9-1.4 3.1.05-1.05L25.3 16v-.05l-.25-1.3-.1 1.3V16q-.4 2.45-1.35 4.2l.35-2.5q.15-2.15-.35-4.1l-.15-.5v-.05l-.25-.6-.05.55-.1.15-.05.2-.85 2.15L21 11.6l-.1.25-.9 1.35-.5-.85-.1-.55m-.05 0v.55l1.1 6.3-.7-.75q-1.6-1.25-2.3-2.95l-.4-1.35.15 1.4v.05l1.1 4.45-1.1-1.3q-1.25-1.5-1.3-3.45l-.1-.05 1.2-1.15 2.35-1.75"/><path fill="url(#e)" d="M19.5 12.35l.5.85.9-1.35.1-.25 1.15 3.9.85-2.15.05-.2.1-.15.05-.55.25.6v.05l.15.5q.5 1.95.35 4.1l-.35 2.5q.95-1.75 1.35-4.2v-.05l.1-1.3.25 1.3V16l.15 2.35-.05 1.05 1.4-3.1.15-.9q.75 1 1.15 2.4l-.05.1.1.1q.5 1.8-.45 2.85l-.7.9-.05.05-.85 1.1-1.05-2.05-.15 1.5-.75 1.75-.45.55-.05-.5q-.15-1.7-1-3 .55 1.75.3 3.05l-.2.65-.1-.6q-.35-1.75-1.15-3.35l-.4-.8.75 4.3v.1l-.1-.05q-1.7-1.3-2.6-3.45l-.2-.45-.1.5q-.1.95.25 1.8l-1.25-1.1-1-.9q-1.1-.95-1.7-2.1l-.45-1q-.45-1.25.3-2.15l.8-.9.1.05q.05 1.95 1.3 3.45l1.1 1.3-1.1-4.45.25-.1q.7 1.7 2.3 2.95l.7.75-1.1-6.3h.15"/><path fill="url(#f)" d="M19.5 12.35h-.15v-.75l.05.2.1.55M28.15 18l-.1-.1.05-.1.05.2m-8.8-6.2h.05-.05"/><path fill="url(#g)" d="M26.5 24.3l-1.2-.2.55-.8.65 1m-5.35.3q-1.45.35-2.75 1-2.25 1.1-3.9 2.6 1.35 1.45 1.2 3.65l-.35 3.2v.2q-.15 2.2 3.05 2.7l2 .4h-4.9l2.65.8 5.75.9-6.6 1.05q-.95.15-.2 1.25 1.55 2.15 1.65 4.7-1.25-2.5-4.65-4.25l-.6-.1q-.45.1-.6 1.05-.45 2.95-2.85 4.7.35-2.45-.2-4.75l1.25-.85q.9-.65 2-.75l.25-.05q2.7-.55.85-3.55-1.35-.65-1.95-1.6L11 34.45l-.55-2.1.9 2 1.1-.25q.75-.6.4-2.6-.5-2.75-2.4-4.65l2.35-.45q1-.35 1.55-1.85l.85-1.5q.3.45.9.55.35-.9 1.05-1.15l.7-.7 1.25 1.1 2.05 1.75m-7.25 3l.6.6-.2.2.2-.2-.6-.6"/><path fill="url(#h)" d="M40.15 43.6q-.05 2.45-1.35 4.6-1.05-2.85-2.65-5.35-3.15 1.8-4.25 4.75-.7-1.1-.55-2.45.2-2.45 1.85-3.35-3.05-.45-5.65.05L26 42.2l1-.85h.05l.3-.25q2.15-1.75 5.3-1.5 1.1.05 1.05-.7l-.2-4.1q0-2.25 1.8-3.55l-.65-.25-2.45-1.5q-1.95-1.4-2.2-3.65h-.1l-1.35-.75-.05-.05q1.5-1.65 4.2-1.75-1 2.6 1.5 3.2l1.2.7.45.85q.55 1.3.65 2.95l.2.55 1 .7q-1.55.6-1.95 2.65l-.1 1q.9-1.15 2.25-1.55l-2.2 3.35q-2.1 2.55 1.55 3.45.9.25 1.45.9l1.1 1.2.35.35M30 25.85l-.05-.55.05.55m6.45 5.85l-1.15-.45.3-.2-.3.2 1.15.45"/><path fill="url(#i)" d="M37.7 16q.9.85 1.1 2.15 2.45-1.85 2.8-4.75v-.9l.45.7q1.2 2.05 1.5 4.35.3 2.5-1 4.15l.25.3q1.5 2.25 1.4 4.45-.1 2.1-.95 3.9l-.2.55q-1.45-1.2-1.35-3.45L41.6 24l-.3-1.35q-.35-1-1.1-1.55L38.5 20q-3.2-1.8-4.4 1.05.6-2.25 3.1-2.7l-2.1-.55q1.95-.1 2.6-1.8"/><path fill="url(#j)" d="M8.45 11.4l-1.65-.05-3 .35q-1.75.7-2.9 1.65l-.9.85.6-1.15.1-.15.2-.5L2.85 11l2.4-1.7q1.25-.9 2.8-.65l.6.1q-.3.7-.2 1.7v.95"/><path fill="url(#k)" d="M4.55 32.95l-.05-.5q-.1-2.7.9-4.5l.5-.7-1.05-.65-.35-.3q-4.4-4-2.55-8.9.55 2 1.95 3.3.9.85 2.15 1.4l.8-2 1.35-.65.45-.3.8-.3Q7.9 19.9 7.2 21.45l-.35 1.1q1.5-.85 3.6-.3-3.2.5-4 2.5-.5 1.2.05 2.3l.1.15q.95 1.65.9 3.3v.35q-.05.5-.6.8l-2.35 1.3"/><path fill="none" stroke="#630000" stroke-width=".05" stroke-linecap="round" stroke-miterlimit="3" d="M33.8 5.75l4.35.45q2.15.6 3.5 1.8l3.45 2.4q1.15.6 1.9 1.7l-1.5-.65-1.1-.25-4.85-.6-4.95.05v1.4l-.25 1.25-.2-.7-.35 1.9 2.6.65 1.3.85q.9.85 1.1 2.15 2.45-1.85 2.8-4.75v-.9l.45.7q1.2 2.05 1.5 4.35.3 2.5-1 4.15l.25.3q1.5 2.25 1.4 4.45-.1 2.1-.95 3.9l-.2.55m3.6 14q-3.55 0-6.15-1.7l-.35-.25v.65q-.05 2.45-1.35 4.6-1.05-2.85-2.65-5.35-3.15 1.8-4.25 4.75-.7-1.1-.55-2.45.2-2.45 1.85-3.35-3.05-.45-5.65.05L26 42.2l1-.85h.05l.3-.25q2.15-1.75 5.3-1.5 1.1.05 1.05-.7l-.2-4.1q0-2.25 1.8-3.55l-.65-.25-2.45-1.5q-1.95-1.4-2.2-3.65m-.1 0l-1.35-.75-.05-.05q-.9-.55-2-.75l-1.2-.2m-4.15.5q-1.45.35-2.75 1-2.25 1.1-3.9 2.6 1.35 1.45 1.2 3.65l-.35 3.2v.2q-.15 2.2 3.05 2.7l2 .4h-4.9l2.65.8 5.75.9-6.6 1.05q-.95.15-.2 1.25 1.55 2.15 1.65 4.7-1.25-2.5-4.65-4.25l-.6-.1q-.45.1-.6 1.05-.45 2.95-2.85 4.7.35-2.45-.2-4.75l-.55-1.65m.25-2.35l-.75-.35-.3-.35.35.3m-4.3-6.35l-.05-.5q-.1-2.7.9-4.5l.5-.7-1.05-.65-.35-.3q-4.4-4-2.55-8.9.55 2 1.95 3.3.9.85 2.15 1.4l.8-2q.55-1 1.3-1.7 1-.95 2.5-1.2l-.4-.95-.35-1.05q-.75-2.35-1.75-.95l-.5.85.15-.9v-.05l.05-.05q.5-1.4.6-2.7l-1.65-.05-3 .35q-1.75.7-2.9 1.65l-.9.85.6-1.15.1-.15.2-.5 1.5-2.55Q3.5 8.2 5.3 7.5l4.25-1 .3-1.3q.9-2.35 1.8-.5-.05-.95.25-1.55l.25-.45.5-.5q0 .7.55.55l.9-.55q2.2-1.65 4.7-2-.65.35-.95 1.25 1.35.2 2.5-.75-.35 2.15 1.8 1.35L23.3.9q1.15 2 .95-.6 2.5.35 4.75 1.8-.15-1.3-.9-2.1 3.25.25 4.1 3.15l.15.5.15-.6.1-1.4.65 1.15.55 1.65v1.3L33.6 7m0 .1l.05.3q.2 1 1.1 1.6l.25.15m-17.1.9h-2.95q-1.95-.2-2.05-1.4l.15-.95q.3-1.1 1.55-1.1-.35.05-.7.8-.5.9 2.05 1.3l4.1.4-.35.35-.6.35-.3.1-.25.05M34.75 9l-1.25-.65q.9 1 1.1 2.3m-7.65 4.75q.75 1 1.15 2.4m5.6-2.25v-.15l.1-.9M28.15 18l-.05-.2M27 21.75l-.05.05-.85 1.1m.9-1.15l.1.1q1.95-.5 2.25 1.7l1.15-1.85q-.05-1.4.7-2.8v-.05l.2-.25.2.4.05.6.35-.65.25-3.05q.75.55.9 1.55l.05.8.35-.85.15-1.85M28.15 18q.5 1.8-.45 2.85l-.7.9M11.7 5.45L11.65 5v-.3m6.25 5.35l.6-.1h.05m.8 1.85v-.2l.05.2h-.05m-9.8-5.3v.9q-.65.55-.9 1.35-.3.7-.2 1.7v.95m7.35 3.3l-.8.9q-.75.9-.3 2.15l.45 1q.6 1.15 1.7 2.1l1 .9 1.25 1.1m-7.45-7.55l-.15.35-.2.25-.1 1.25.05.3q.1 1.3.85 2.4l1.4 1.5q-.4-.55 0-1.85 1.65.4 1.5 2.15-.1.9.2 1.4.3.45.9.55.35-.9 1.05-1.15l.7-.7m-6.65-4.6l-.4.05v.3l-.15-.3m.15 0q0-.75.5-1.3m3 12.5l.2-.2-.6-.6M9.55 39.7l2 .7m24.05-9.35l-.3.2 1.15.45m-6.5-6.4l.05.55"/><path fill="none" stroke="#999" stroke-width=".05" stroke-linecap="round" stroke-miterlimit="3" d="M25.3 24.1L24 26.5l-2.85-1.9m5.8-9.2l-3-3.2-1.05-.8-1.9-.15-.65.1-.2.05-.75.4.1.55.5.85.9-1.35.1-.25 1.15 3.9.85-2.15.05-.2.1-.15.05-.55.25.6v.05l.15.5q.5 1.95.35 4.1l-.35 2.5q.95-1.75 1.35-4.2v-.05l.1-1.3.25 1.3V16l.15 2.35-.05 1.05 1.4-3.1.15-.9m-.85 7.5l-1.05-2.05-.15 1.5-.75 1.75-.45.55-.05-.5q-.15-1.7-1-3 .55 1.75.3 3.05l-.2.65-.1-.6q-.35-1.75-1.15-3.35l-.4-.8.75 4.3v.1l-.1-.05q-1.7-1.3-2.6-3.45l-.2-.45-.1.5q-.1.95.25 1.8l2.05 1.75m4.95-1.7l-.25.4-.55.8m-5.95-12.3v.55l1.1 6.3-.7-.75q-1.6-1.25-2.3-2.95l-.4-1.35.15 1.4v.05l1.1 4.45-1.1-1.3q-1.25-1.5-1.3-3.45m-.1-.05l1.2-1.15 2.35-1.75"/></svg>