<svg xmlns="http://www.w3.org/2000/svg" viewBox="0 0 49.2 44.0" width="49.2" height="44"><defs><radialGradient gradientUnits="userSpaceOnUse" r="819.2" cx="0" cy="0" spreadMethod="pad" gradientTransform="matrix(.014 0 0 .014 27 8.85)" id="a"><stop offset="0" stop-color="#666"/><stop offset="1" stop-color="#600"/></radialGradient><radialGradient gradientUnits="userSpaceOnUse" r="819.2" cx="0" cy="0" spreadMethod="pad" gradientTransform="matrix(.012 .014 -.024 .021 17.5 16.3)" id="b"><stop offset="0" stop-color="#666"/><stop offset="1" stop-color="#600"/></radialGradient><radialGradient gradientUnits="userSpaceOnUse" r="819.2" cx="0" cy="0" spreadMethod="pad" gradientTransform="matrix(.014 0 0 .014 20 4.45)" id="c"><stop offset="0" stop-color="#666"/><stop offset="1" stop-color="#600"/></radialGradient><radialGradient gradientUnits="userSpaceOnUse" r="819.2" cx="0" cy="0" spreadMethod="pad" gradientTransform="matrix(.004 0 0 .004 25.6 16.35)" id="d"><stop offset="0" stop-color="#666"/><stop offset="1" stop-color="#600"/></radialGradient><radialGradient gradientUnits="userSpaceOnUse" r="819.2" cx="0" cy="0" spreadMethod="pad" gradientTransform="matrix(.008 0 0 .008 32.1 18.7)" id="e"><stop offset="0" stop-color="#300"/><stop offset="1"/></radialGradient><radialGradient gradientUnits="userSpaceOnUse" r="819.2" cx="0" cy="0" fx="87942.4" fy="0" spreadMethod="repeat" gradientTransform="matrix(.006 0 0 .006 42.35 17.25)" id="f"><stop offset="0" stop-color="#300"/><stop offset="1"/></radialGradient><radialGradient gradientUnits="userSpaceOnUse" r="819.2" cx="0" cy="0" spreadMethod="pad" gradientTransform="matrix(.032 0 0 .032 36 30.8)" id="g"><stop offset="0" stop-color="#300"/><stop offset="1"/></radialGradient><radialGradient gradientUnits="userSpaceOnUse" r="819.2" cx="0" cy="0" spreadMethod="pad" gradientTransform="matrix(.004 0 0 .004 3.2 10.4)" id="h"><stop offset="0" stop-color="#300"/><stop offset="1"/></radialGradient><radialGradient gradientUnits="userSpaceOnUse" r="819.2" cx="0" cy="0" spreadMethod="pad" gradientTransform="matrix(.006 0 0 .006 4.35 13.5)" id="i"><stop offset="0" stop-color="#666"/><stop offset="1" stop-color="#600"/></radialGradient><radialGradient gradientUnits="userSpaceOnUse" r="819.2" cx="0" cy="0" spreadMethod="pad" gradientTransform="matrix(.009 0 0 .009 9.2 27.55)" id="j"><stop offset="0" stop-color="#666"/><stop offset="1" stop-color="#600"/></radialGradient><radialGradient gradientUnits="userSpaceOnUse" r="819.2" cx="0" cy="0" spreadMethod="pad" gradientTransform="matrix(.007 0 0 .007 18.05 26.7)" id="k"><stop offset="0" stop-color="#666"/><stop offset="1" stop-color="#600"/></radialGradient><radialGradient gradientUnits="userSpaceOnUse" r="819.2" cx="0" cy="0" spreadMethod="pad" gradientTransform="matrix(.007 0 0 .007 8.45 31.8)" id="l"><stop offset="0" stop-color="#666"/><stop offset="1" stop-color="#600"/></radialGradient><radialGradient gradientUnits="userSpaceOnUse" r="819.2" cx="0" cy="0" spreadMethod="pad" gradientTransform="matrix(.006 0 0 .006 8.75 29.1)" id="m"><stop offset=".561"/><stop offset="1" stop-color="#f00"/></radialGradient></defs><path fill="#fff" d="M15.35 31.2l.05 1.3-.45 1.85-.9 1.55-1.35 1.6-1.5 1.2 1.4-3.1q.45-.95.5-2l.05-.55L13 31.8l-.3-2.25.9-.15 1.35-.5.05.45.35 1.85M3.8 28.5l-.3.3-.85 1.15-.3 1.25.1 2.9.8 2.9-.65-.55-1.2-1.6q-.5-.9-.6-1.95v-2.15l.4-2.05.9-1.9.1.15 1.45 1.25.15.05v.25"/><path fill="url(#a)" d="M35.65 6.7l.3.8L33.9 6l-1.15-1.5L33.9 6l2.05 1.5-.3-.8m-3.2 1q-.2.15-.3-.9-.1-1-.7-1.85l1.3.45 1.15.6q.5.95.55 2.1-.05-1.15-.55-2.1l-1.15-.6-1.3-.45q.6.85.7 1.85.1 1.05.3.9m-.2-4.7l.25.15 1.65 1.25 1.5 1.5 2.05 3.2.1.25q.45.85.35 2l-.05.85q-.1.15-.05.3-1.7-.95-3.55-1.2l-4.25-.75-3.95.2q-1.85.7-3.45 2.15l-2.9 2.1-.2.1-.35.05q-2.1.3-2.95-1.1-1-1.7-.45-3.75t1.9-3.75q1.35-1.75 3.2-2.6 1.85-.9 3.9-1.2l4.25-.25 3 .5m-3.8 6q.6-1.15-.15-2.25l-1.4-1.7 1.85-.3h.65q.85 1.05 1.1 2.4l-.1.8.1-.8q-.25-1.35-1.1-2.4h-.65l-1.85.3 1.4 1.7q.75 1.1.15 2.25m6.7 1.45q1.3-1.15.8-2.95l1.75 1.6-1.75-1.6q.5 1.8-.8 2.95M20.1 5.65l2.2.8-1.45 1-.9.9-1.9-.5 1.9.5.9-.9 1.45-1-2.2-.8m4.55 2.75q.05-.8-.65-1.15l-1.7-.8q.9-.5 1.9-.8l2.15 1.4q.85.55.7 1.6.15-1.05-.7-1.6l-2.15-1.4q-1 .3-1.9.8l1.7.8q.7.35.65 1.15m-2.4 2.95q-.6-.85-1.55-1.25L19 9.55l.95-1.2 2.2.65 1.6.75-1.6-.75-2.2-.65-.95 1.2 1.7.55q.95.4 1.55 1.25m3.35-7.4l1.3 1.1-2.3.45-.4.15-1.35-.8 1.35.8.4-.15 2.3-.45-1.3-1.1m4.3-.45l1.55 1.45-2.05-.2-1.1-1 1.1 1 2.05.2L29.9 3.5M16.55 9.45l2.45.1-.75 1.35-1.7-.3 1.7.3.75-1.35-2.45-.1m1.15 5.25q-.25-2.05.55-3.8 1.15.45 1.95 1.5-.8-1.05-1.95-1.5-.8 1.75-.55 3.8"/><path fill="url(#b)" d="M41.1 20.2v.05q.75 1.4.95 3.15l.45 4.05q.05.55.65.85l1.5.95-3.6.9-3.4.25q-1.95-.3-3.75-1.1l-1.1-.95.15-.1q1.25-.95 1.15-3.2-.05-1.8-1.1-3.2-.9-1.15-2.4-1.35v-.1l4.75.2 2-.2 1.1-.5h-1l-.5-.1-.65-.55-2.55-1.45-3.05-.85-2.55-.05-2.3-1.45q-1.45-1-2.8-.65l1.1 1.35q.55.85.75 1.9l.8-.3q1.15 1.05 1 2.45l-1.4.05q.5.9.05 1.9-.45.95-1.3 1.55l-3.45 1.95v-.2q-.1-1.8.5-3.3l.15-.35-1 .45q-1.5.9-2.75 2.4-1.45 1.8-3.6 1.15-2.2-.65-1.8-3.1.2-1-.3-1.2l-4.05-.25-1 .45Q5 23.05 3.05 23.4l-1.5-.15.1-1.9-.9-1.8-.6-2.05L0 16l2.3-1.45q2-.85 3.95-1.2l1.95-.2q.45-.6.4-1.35l.1-.85v-.05l.7-2 1.4-.8 3.15-2.7q1.4-1.5 3.1-2.45Q18.8 2 20.85 1.4l3.9-.4 5.85.95.1.05 1.55 1-3-.5-4.25.25q-2.05.3-3.9 1.2-1.85.85-3.2 2.6-1.35 1.7-1.9 3.75-.55 2.05.45 3.75.85 1.4 2.95 1.1l.35-.05.2-.1 2.9-2.1q1.6-1.45 3.45-2.15l3.95-.2 4.25.75q1.85.25 3.55 1.2v.05l.2 1.4.05.35.6 1.75 2.2 4.15M9.2 10.7l-.5.2.5-.2M21.9 14q.6.1.95.55l.2.25-.2-.25q-.35-.45-.95-.55m3.4 6.25h-.25.25m-3.9 1.1l-.15.45.15-.45m-13.55-7.8l.35-.4-.35.4m-2.6 4q.75-.85 2.3-.9 2.25-.1 2.05-2.55.2 2.45-2.05 2.55-1.55.05-2.3.9M1.4 18.8q.3.95.25 2.05v.5-.5q.05-1.1-.25-2.05m17.35 1.7q-.15-1.45-1.3-2l-1.95-.8q-1.85-.6-.65-3-1.2 2.4.65 3l1.95.8q1.15.55 1.3 2"/><path fill="url(#c)" d="M30.6 1.95L24.75 1l-3.9.4q-2.05.6-3.8 1.55-1.7.95-3.1 2.45L10.8 8.1l-1.4.8.25-1.05q.2-1 .85-1.8l2.6-3.2 1.65-1.25L16.6.75l1.95-.5L22.7 0l2.05.1 2.1.4 2 .65 1.75.8"/><path fill="url(#d)" d="M28.15 16.9h-.25q-.85.1-1.6.55l-.6.3-.8.3q-.2-1.05-.75-1.9l-1.1-1.35q1.35-.35 2.8.65l2.3 1.45"/><path fill="url(#e)" d="M28.15 16.9l2.55.05 3.05.85 2.55 1.45.65.55.5.1h1l-1.1.5-2 .2-4.75-.2h-.4l-3.5-.2q.15-1.4-1-2.45l.6-.3q.75-.45 1.6-.55h.25"/><path fill="url(#f)" d="M38.3 14.3q1.3 1.3 3.05 2.05 1.9.75 4.1.55l.9-.15q.05 1.8-1.25 2.7-1.1.75-2.6.6l-1.4.15-2.2-4.15-.6-1.75"/><path fill="url(#g)" d="M44.65 29.25l1.7 1.2q1.65 1.25 2.35 3.2.65 1.85.45 4.1l-2.75-2.6q-1.25-1.5-2.85-2.25-1.9-.9-4.05-.7l-1.4-.25-.05.05q-1.6 1.05-2.9 2.55l-1.3 1q-1.8 1-3 2.75-1.15 1.65-1.75 3.65L28.55 44q-.9-1.05-1.35-3-.4-1.75-.2-3.7.2-1.75 1-3.3 1.05-1.95 2.5-3.55l2.3-2.1 1.1.95q1.8.8 3.75 1.1l3.4-.25 3.6-.9"/><path fill="url(#h)" d="M1.35 13.5l.1-2.05.45-1.95q.35-.95 1.2-1.5l1.15-.7-.15.25-.2.75q-.15.65.2 1.1l.8 1.25q.35.65.1 1.25l-.45.1-1.95.7-1.25.8"/><path fill="url(#i)" d="M1.35 13.5l1.25-.8 1.95-.7.45-.1 3.6-.95h.1l-.1.85q.05.75-.4 1.35l-1.95.2q-1.95.35-3.95 1.2L0 16l.05-.45q.15-1.05.9-1.75l.4-.3"/><path fill="url(#j)" d="M2.1 26.8q-.5-.7-.55-1.65v-1.9l1.5.15q1.95-.35 3.7-1.7l1-.45 4.05.25q.5.2.3 1.2-.4 2.45 1.8 3.1 2.15.65 3.6-1.15 1.25-1.5 2.75-2.4l1-.45-.15.35-4.05 5.25-1.2 1.05-.15.05-.75.4-1.35.5-.9.15-1.15.2-2.1.05-4.95-1.2-.6-.25-.1-.1-.15-.05-1.45-1.25-.1-.15m10.55 1.4l-.45.15h-.05l-.8.4.8-.4h.05l.45-.15m-8.45-.95h-.4.4l.85.7q0-.7-.85-.7"/><path fill="url(#k)" d="M20.6 25.65h-.05q-1 .45-1.5 1.2l-3.7 4.35-.35-1.85.7-.85.15-.05 1.2-1.05 4.05-5.25q-.6 1.5-.5 3.3v.2"/><path fill="url(#l)" d="M13.15 33.05l-1 .75-1.85 1.05-2.05.4-2.1-.15-1.75-.9q-.65-.65-.6-1.8v-3.9l.1-.15.6.25-.05 1.75q-.05 1.15.45 1.95l1.4 1.35q.8.5 1.95.5l2.05-.3 1.7-1 1-1.05.15 1.25"/><path fill="url(#m)" d="M4.5 28.6l4.95 1.2 2.1-.05 1.15-.2.3 2.25-1 1.05-1.7 1-2.05.3q-1.15 0-1.95-.5L4.9 32.3q-.5-.8-.45-1.95l.05-1.75"/><path fill="none" stroke="#000" stroke-width=".05" stroke-linecap="round" stroke-miterlimit="3" d="M11.35 28.75l.8-.4h.05l.45-.15m-8.85-.95h.4q.85 0 .85.7l-.85-.7"/><path fill="none" stroke="#661B1B" stroke-width=".05" stroke-linecap="round" stroke-miterlimit="3" d="M30.6 1.95l-1.75-.8-2-.65-2.1-.4L22.7 0l-4.15.25-1.95.5-1.85.85-1.65 1.25-2.6 3.2q-.65.8-.85 1.8L9.4 8.9"/><path fill="none" stroke="#320000" stroke-width=".05" stroke-linecap="round" stroke-miterlimit="3" d="M9.4 8.9l-.7 2 .5-.2m29.1 3.6q1.3 1.3 3.05 2.05 1.9.75 4.1.55l.9-.15q.05 1.8-1.25 2.7-1.1.75-2.6.6l-1.4.15v.05q.75 1.4.95 3.15l.45 4.05q.05.55.65.85l1.5.95 1.7 1.2q1.65 1.25 2.35 3.2.65 1.85.45 4.1l-2.75-2.6q-1.25-1.5-2.85-2.25-1.9-.9-4.05-.7l-1.4-.25-.05.05q-1.6 1.05-2.9 2.55l-1.3 1q-1.8 1-3 2.75-1.15 1.65-1.75 3.65L28.55 44q-.9-1.05-1.35-3-.4-1.75-.2-3.7.2-1.75 1-3.3 1.05-1.95 2.5-3.55l2.3-2.1.15-.1q1.25-.95 1.15-3.2-.05-1.8-1.1-3.2-.9-1.15-2.4-1.35l-.4-.1-3.5-.2-1.4.05q.5.9.05 1.9-.45.95-1.3 1.55l-3.45 1.95h-.05q-1 .45-1.5 1.2l-3.7 4.35m-2.2 1.85l-1 .75-1.85 1.05-2.05.4-2.1-.15-1.75-.9q-.65-.65-.6-1.8v-3.9m-1.7-1.7q-.5-.7-.55-1.65v-1.9l.1-1.9-.9-1.8-.6-2.05L0 16l.05-.45q.15-1.05.9-1.75l.4-.3.1-2.05.45-1.95q.35-.95 1.2-1.5l1.15-.7.35-.2m29.85 1Q34.4 6.95 33.9 6l-1.15-.6-1.3-.45q.6.85.7 1.85.1 1.05.3.9m.3-3.2L33.9 6l2.05 1.5-.3-.8M32.25 3L30.7 2l-.1-.05m7.1 7.15l-2.05-3.2-1.5-1.5-1.65-1.25-.25-.15m5.8 9.5q-.05-.15.05-.3l.05-.85q.1-1.15-.35-2l-.1-.25-1.75-1.6q.5 1.8-.8 2.95m-4.75-2.5l.1-.8q-.25-1.35-1.1-2.4h-.65l-1.85.3 1.4 1.7q.75 1.1.15 2.25m-.15-5.25l1.1 1 2.05.2L29.9 3.5m-7.05 1.35l1.35.8.4-.15 2.3-.45-1.3-1.1m-1.85 5.8L22.15 9l-2.2-.65-.95 1.2 1.7.55q.95.4 1.55 1.25m4.8-2.7q.15-1.05-.7-1.6l-2.15-1.4q-1 .3-1.9.8l1.7.8q.7.35.65 1.15m-6.6-.55l1.9.5.9-.9 1.45-1-2.2-.8m5.6 12.1l.6-.3q.75-.45 1.6-.55h.25m-5.1-2.1l1.1 1.35q.55.85.75 1.9l.8-.3m-2.65-2.95l-.2-.25q-.35-.45-.95-.55m-.8 8.15l.15-.35.15-.45m3.65-1.1h.25m12.75-7.75v.05l.05-.35m3 8l-2.2-4.15-.6-1.75-.05-.35-.2-1.4M30.6 20.4l4.75.2 2-.2 1.1-.5h-1l-.5-.1-.65-.55-2.55-1.45-3.05-.85-2.55-.05m2.45 3.5h-.4m-13.65-9.8l1.7.3.75-1.35-2.45-.1M4.25 7.3l-.15.25-.2.75q-.15.65.2 1.1l.8 1.25q.35.65.1 1.25l3.6-.95.1-.05v.05l-.1.85q.05.75-.4 1.35l-.35.4m-6.5-.05l1.25-.8 1.95-.7.45-.1m-3.35 9.45v-.5q.05-1.1-.25-2.05m18.8-6.4q-.8-1.05-1.95-1.5-.8 1.75-.55 3.8m3.4 7.45l-4.05 5.25-1.2 1.05-.15.05-.7.85m-.05-.45l.75-.4m-11.2.1l4.95 1.2 2.1-.05 1.15-.2m.3 2.25l-1 1.05-1.7 1-2.05.3q-1.15 0-1.95-.5L4.9 32.3q-.5-.8-.45-1.95l.05-1.75-.6-.25"/><path fill="none" stroke="#666" stroke-width=".05" stroke-linecap="round" stroke-miterlimit="3" d="M12.7 29.55l.9-.15 1.35-.5m-11.3-.7L2.2 26.95"/><path fill="none" stroke="#270000" stroke-width=".05" stroke-linecap="round" stroke-miterlimit="3" d="M9.6 14.1q.2 2.45-2.05 2.55-1.55.05-2.3.9m9.6-2.85q-1.2 2.4.65 3l1.95.8q1.15.55 1.3 2"/><path fill="none" stroke="#A6A6A6" stroke-width=".05" stroke-linecap="round" stroke-miterlimit="3" d="M15.35 31.2l.05 1.3-.45 1.85-.9 1.55-1.35 1.6-1.5 1.2 1.4-3.1q.45-.95.5-2l.05-.55M3.8 28.5l-.3.3-.85 1.15-.3 1.25.1 2.9.8 2.9-.65-.55-1.2-1.6q-.5-.9-.6-1.95v-2.15l.4-2.05.9-1.9M15 29.35l.35 1.85m-.4-2.3l.05.45m-2.3.2l.3 2.25.15 1.25m-9.25-4.7l-.1.15v-.25l-.15-.05M2.2 26.95l-.1-.15m1.8 1.55l-.1-.1"/></svg>