<svg xmlns="http://www.w3.org/2000/svg" viewBox="0 0 39.0 46.9" width="39" height="46.9"><defs><radialGradient gradientUnits="userSpaceOnUse" r="819.2" cx="0" cy="0" spreadMethod="pad" gradientTransform="matrix(.018 0 0 .026 19.1 22.15)" id="a"><stop offset="0" stop-color="#c00"/><stop offset=".212" stop-color="#c00"/><stop offset=".376" stop-color="#fff"/><stop offset=".427" stop-color="#ff0"/><stop offset=".639" stop-color="#fc0"/><stop offset=".788" stop-color="#f60"/><stop offset="1" stop-color="#f00"/></radialGradient><radialGradient gradientUnits="userSpaceOnUse" r="819.2" cx="0" cy="0" spreadMethod="pad" gradientTransform="matrix(.018 0 0 .026 20.25 21.55)" id="b"><stop offset="0" stop-color="#c00"/><stop offset=".212" stop-color="#c00"/><stop offset=".376" stop-color="#fff"/><stop offset=".427" stop-color="#ff0"/><stop offset=".639" stop-color="#fc0"/><stop offset=".788" stop-color="#f60"/><stop offset="1" stop-color="#f00"/></radialGradient><radialGradient gradientUnits="userSpaceOnUse" r="819.2" cx="0" cy="0" spreadMethod="pad" gradientTransform="matrix(.018 0 0 .026 20.85 21.65)" id="c"><stop offset="0" stop-color="#c00"/><stop offset=".212" stop-color="#c00"/><stop offset=".376" stop-color="#fff"/><stop offset=".427" stop-color="#ff0"/><stop offset=".639" stop-color="#fc0"/><stop offset=".788" stop-color="#f60"/><stop offset="1" stop-color="#f00"/></radialGradient><radialGradient gradientUnits="userSpaceOnUse" r="819.2" cx="0" cy="0" spreadMethod="pad" gradientTransform="matrix(.018 0 0 .026 20.65 22.55)" id="d"><stop offset="0" stop-color="#c00"/><stop offset=".212" stop-color="#c00"/><stop offset=".376" stop-color="#fff"/><stop offset=".427" stop-color="#ff0"/><stop offset=".639" stop-color="#fc0"/><stop offset=".788" stop-color="#f60"/><stop offset="1" stop-color="#f00"/></radialGradient><radialGradient gradientUnits="userSpaceOnUse" r="819.2" cx="0" cy="0" spreadMethod="pad" gradientTransform="matrix(.018 0 0 .026 20.1 24.05)" id="e"><stop offset="0" stop-color="#c00"/><stop offset=".212" stop-color="#c00"/><stop offset=".376" stop-color="#fff"/><stop offset=".427" stop-color="#ff0"/><stop offset=".639" stop-color="#fc0"/><stop offset=".788" stop-color="#f60"/><stop offset="1" stop-color="#f00"/></radialGradient><radialGradient gradientUnits="userSpaceOnUse" r="819.2" cx="0" cy="0" spreadMethod="pad" gradientTransform="matrix(.018 0 0 .026 18.55 21.95)" id="f"><stop offset="0" stop-color="#c00"/><stop offset=".212" stop-color="#c00"/><stop offset=".376" stop-color="#fff"/><stop offset=".427" stop-color="#ff0"/><stop offset=".639" stop-color="#fc0"/><stop offset=".788" stop-color="#f60"/><stop offset="1" stop-color="#f00"/></radialGradient><radialGradient gradientUnits="userSpaceOnUse" r="819.2" cx="0" cy="0" spreadMethod="pad" gradientTransform="matrix(.018 0 0 .026 18.55 23.55)" id="g"><stop offset="0" stop-color="#c00"/><stop offset=".212" stop-color="#c00"/><stop offset=".376" stop-color="#fff"/><stop offset=".427" stop-color="#ff0"/><stop offset=".639" stop-color="#fc0"/><stop offset=".788" stop-color="#f60"/><stop offset="1" stop-color="#f00"/></radialGradient><radialGradient gradientUnits="userSpaceOnUse" r="819.2" cx="0" cy="0" spreadMethod="pad" gradientTransform="matrix(.018 0 0 .026 19.75 23.35)" id="h"><stop offset="0" stop-color="#c00"/><stop offset=".212" stop-color="#c00"/><stop offset=".376" stop-color="#fff"/><stop offset=".427" stop-color="#ff0"/><stop offset=".639" stop-color="#fc0"/><stop offset=".788" stop-color="#f60"/><stop offset="1" stop-color="#f00"/></radialGradient><radialGradient gradientUnits="userSpaceOnUse" r="819.2" cx="0" cy="0" spreadMethod="pad" gradientTransform="matrix(.018 0 0 .026 20.75 25.25)" id="i"><stop offset="0" stop-color="#c00"/><stop offset=".212" stop-color="#c00"/><stop offset=".376" stop-color="#fff"/><stop offset=".427" stop-color="#ff0"/><stop offset=".639" stop-color="#fc0"/><stop offset=".788" stop-color="#f60"/><stop offset="1" stop-color="#f00"/></radialGradient><radialGradient gradientUnits="userSpaceOnUse" r="819.2" cx="0" cy="0" spreadMethod="pad" gradientTransform="matrix(.019 0 0 .026 19.45 22.75)" id="j"><stop offset="0" stop-color="#c00"/><stop offset=".212" stop-color="#c00"/><stop offset=".376" stop-color="#fff"/><stop offset=".427" stop-color="#ff0"/><stop offset=".639" stop-color="#fc0"/><stop offset=".788" stop-color="#f60"/><stop offset="1" stop-color="#f00"/></radialGradient></defs><path d="M13.15 11.5v-.3l.15.15-.15.15m-2.1.95l-.1-.35-.05.05-.05-.65.45.6.2.4-.45-.05"/><path fill="url(#a)" d="M30.5 5.75l.25-.5 1-.9-.25.65-1 .75m-5.6.2l-1.15 1.1.4-.9 1.35-1.5-.6 1.3M21.45 2.7l.75-1-.2 1.15-.4.5.05-.25-.4.55.2-.95m6.25 15l.15-.2.15-.05-.1.15-.2.1M17.75 3.25q.45-1.2.35-2.55l.2 2.15V3.9l-.55 1V3.25m-2.55 2.7l-.2.15.15-.85.05.7m-.9.45l-.1.25q-.3.25-.65.45l.05-.3.7-.4m-4.85 7.55l-.45-.6.2-.75v.1l.25 1.25m-.5 2.2l-.75-.55-.1-.55.75.85.1.25M9 9.2l-.25-.45q-.3-.7-.1-1.3.05 1.35.55 1.75H9M.95 31.15l.35-.75v.25l-.35.5m14.8 2.65l.05-.1.1.05-.05.05h-.1m11.35 5.6l-.25-.1.35-.05-.1.15M.95 32.7l-.05.25v-.1l.05-.15m6.2 7.45l-.05-.2.6.45-.55-.25m3.3 3.4l.45.05-1.05.2v-.05l.6-.2m1.05-1.35l-.65-.05h-.35l.15-.15h1.2l-.35.2"/><path fill="url(#b)" d="M29.95 6.6l.55-.85 1-.75 1.4-1.25-.4 1-1.3 1.05v-.05l-.2.15-1.05.7m-5.05-.65l1.75-1.9-.75 1.6-1.35 1.3.4-.9-1.6 1.8.4-.8 1.15-1.1M22 2.85l1.35-1.75-.2 1.15-1.7 2.15.15-1.05.4-.5m-2.55 0l-.45 1-.1.15-.05-1.25q.45-1.25.4-2.65l.2 2.75m-4.1 3.5l-.55.35-.05-.45.1-.1.15-.05.2-.15h.05l.4-.3-.3.7m-1.65 1.2l-.3.2.15-.65q.35-.2.65-.45l-.5.9m13.85 10.5l.15-.35.2-.1.75-.5.5-.25-.3.65-1.3.55M30 19q.7-.45 1.65-.4l1.25.05-.35.05h-.3l-1.5.35L30 19m2.55.15l2-.15.6.1-2.5.3h-.35l.25-.25m4.4 4.95l.05.1h-.05v-.1M18.55 3.45l.15-.35q-.15 1.3-.8 2.45l-.15.25v-.9l.55-1 .1-.15.15-.3m-2.25 1.4l-.05.15.05-.35v.2m-6 3.9l-.05-.2.15.1-.1.1m-.2-.4l.05.25-.25-.45q-.3-.7-.1-1.3l.3 1.5M9.15 19.4v.05H9.1l.05-.05m3.3 10.9l.45-.05.1.1-.55-.05m5.2 5.45l-1.05-.1h1.2l-.15.1m-9.6 3.4l.8.65-1.1-.55-.25-.5.55.4m25.1-.1l.15-.45.2-.35-.15.65-.2.15"/><path fill="url(#c)" d="M25.35 8.15q-.2.65.95.25l.45-.2-2.9 2.85q-1.75 1.4-1.4-.7l.65-2.4.2-.05 1.25-.95 1.35-1.3.1-.1.25-.25 1-1.15-.7 1.45-1.2 2.55m1.6 0q1.55-.65 3-1.55L31 5.9l.2-.1 1.3-1.05 1-.9L33.05 5l-1.2 1.9-1.4 1.6-.7 1.2-.35.8-3.2 1.5q-.85.3-.95 0l.1-.45 1.6-3.4m4.25 3.1l-.4.3.15-.15.25-.15m-8.05-9l.8-1.05-.35 2-1 3.3-2.2 2.6q-.6.65-.5 0L19.75 4q0 1.8-.85 3.45l-1.8 3.25-.3-2.35q-.25 1.7-1.25 2.9l.6-1.9-2.85 2-.15-.15v.3l-.55.45-.65.45-.1.05q-.3-2-1.25-4l-.1-.2q-.3-.7-.1-1.3 0 .95.3 1.45.4.8 1.35.4l1.35-1.05.3-.2 1.1-.85.55-.35.1-.1.1-.05.7-.45-.6 1.9q1-1.2 1.25-2.9l.3 2.35.55-1v-.05L18.9 4l.1-.15.45-1 .15-.4.15-.65.1-1.8.2 3.6L20 5.5q-.1.65.5 0l.2-.25.75-.85 1.7-2.15m-3.4 1.5V4v-.25m9.1 13.75l.4-.3.5-.25L29.2 18l-.6.75-.8.65q-.5-.65-.25-1.35l1.3-.55m3.7 1.2l.95.05q-.5.05-.95.4l-.25.25-.2.2.55-.2 2.5-.3q1.15.1 2 .85l-1.6.15-.85.5-.25.2.25.15 1 .7.85.8 1.05 1.85-.65-.2V24.25l.2.8.1.3.5 1.05q.95 1.7 1.3 3.75l-.15 1.55v.2l-.1.1-.15.4-1-2.4q-.75-1.25-.8-2.3l.65.2-1.05-1.85q-.95-1.1-2.1-1.65l.25-.2q1.1-.85 2.45-.65-.85-.75-2-.85-1.65-.15-3.05.5l.25-.25q.5-.55 1.15-.6l-1.25-.05q-1.1-.05-1.9.6-1.45 1.2-3.3.55l.55-.3q1.45-.9 2.15-2.6l-.5.25q-1.2 1-2.5.95l1.05-1.7q1.45.25 2.65-.75l.4-.25 1.5-.35h.3m6.35 13.1v.1-.1m-4.95-11.25l.5.25-.5-.25m-2.25-.5l.4-.45-.4.45m-20.8-7.9l.05-.05.1.35-.2-.1.05-.2m-.1 7.05l.7-.05.15.6-.85-.55m-.15-2.65q-.7-.95-.8-2 .75 1.05 1.9 1.6l.1 1.25q-.75-.7-1-1.7l-.2.85m1.1-.55l-.9-2.75-.05-.65q.7 1.7.95 3.4M9.8 19.4v-.05l.25-.05 2.3 3.35-2.65.3-.8.5.8-.5q-1.45 2.4-3.6 3.5-2.25 1.05-2.15 3.45.8-.85 2.1-.7l-2.4 2.95-.05-2.05-.95 2.35v-.6q-.15-1.8.85-2.95l2.65-3.3q-1.3-.15-2.1.7-.1-2.4 2.15-3.45 2.15-1.1 3.6-3.45m5.75 9.8l-.05-.05.1-.05-.05.1m-1.35 1.05l.45-.05-.65.7-.55 1.2q.55-.4 1.05-.35l-.3.25-1.4 1-1.15.55.05.05-.1-.05 1.2-1.65q-2.15.2-.95-1.7l.1-.15.2.1.3.15.55.05h.75l.45-.1m2.5 6.35l-2.25.5h-.15l-.75.05-1.7-.1q1.5-.7 2.7-1.9l1.6.45.45.05 1.05.1h.25l-.3.45-.9.4m3.55-.15q.7.55.8 1.5-1.15-.8-.8-1.5m.8 1.85L21 39l-.4.6q-1.1.8.1 1.75l-.05.1-.35.9-.3.2-.05-.1-.5-.75-.4-.5-.4 1.4-.4-.6-.4-.45-.8.35-.35.15-.75.25-4.35 1v-.05l1.45-.5 2.65-1.05-3.45-.05.9-.9 1.2-.05q1.75-.15 3.3-1 1.65-.25 3.15-1.2l.25-.2m6-2.3l.2-.2.35.05-.55.15m-1-2.6l-2-1.25q1.7-1.3 3.45-1.1l.75.3-.25.25-.9.8-1.05 1m2.35-2.2l-.05-.45.1.05.15.05-.1.25-.1.1m-21.55 7l-.1-.25 2.65 1.9.05.05-1.4-.75-.55-.4-.65-.55m27.75-1.65v1.5l-.6.9-.2.2h-.05l-.6.4-.2.1.25-.15.8-1 .25-.6.05-.25.3-1.1m-3.75-1l.35-.5q.15-.4.5-.3.65 1 .1 2.4l-.55 1.2-.95.45-1.6.2h-1.8q1.25-.25 2.2-1.2l1.75-2.25"/><path fill="url(#d)" d="M25.65 8l-.3.15 1.2-2.55.5-.55-.85 1.9L25.65 8m7.4-3l.25-.25-.75 1.7-2.3 2.95-.6.95-.25.15.35-.8.45-.5q1-1.05 1.65-2.3l1.2-1.9m-2.95 7.45l.85-.25-.5.35-.7.5.35-.6M23.6 3.2l-.75 2.55-.25.75 1-3.3m-3.85-1.4l-.15.65.05-1.55.1.9M29.2 18l.35-.15-.75 1.3-.55.3.35-.7.6-.75m6.35 2.1q.8.2 1.4.75h-.45l-1.3.25-.5-.15-.25-.15.25-.2.85-.5m1.4 4.15l.45.95-.25-.15-.2-.8m1.95 7.6l-.05.15.05-.1-.05.1-.15.6-.05-.2.15-.4.1-.1v-.05M10.2 8.8l-.05-.2-.05-.25.1-.5.05.7.05.2-.1.05m2.05 21.25l-.1.1-.2-.1h.3m1.4 3.1l.6-.65.05.1-.65.55m.65 3.95h.15l2.25-.5.65.05-.1.2.45.1-1.1.5-2.3-.35m6.45 4.3l.2.15-.4.65q-.1.1-.25.15l.35-.9.1-.05M20 42.55l-.15.05.1-.15.05.1m5.7-5.25l.8-.8.9.25-.8.2-.75.45-.15-.1m.85-3.65h-.05l.55-.5.45-.6-.4-.15.9-.8.35.1.05.1-.45.55-.75.65-.15.15-.5.5M7 39.45l-.15-1.25.65.55.25.5q.55.95 1.5 1.55L7 39.45m6.2 4.1l.2.05-.65.35-.75.15-.6.1v-.05l.35-.1 1.45-.5m21.4-5.5v.45l-.1.35-.95 1.2-.35.3.2-.3.3-.45.3-.65.6-.9m3.15-3.2v.05l-.1.25.1-.3"/><path fill="url(#e)" d="M37.75 34.85l-.1.3.1-.25.1.05-.25.5-.5 1.2.3-1.15.05-.55.2-.25.1.15M25.85 7.9l-.2.1.55-1.05.3-.4-.65 1.35m6.7-1.45l.2-.2q-.6 1.8-1.9 3.3l-1.2.8.6-.95 2.3-2.95M29.35 14l.6-.15.5-.2-1.3.95.1-.4.1-.2M14 33.9l-.35.05h-.9l.9-.8.65-.55.35.6-.65.7m3.9 1.85h-.25l.15-.1h-1.2l.2-.35.4-.15.9.3-.2.3m3.05 5.8l.1.05v.05l-.35.45-.15.1.4-.65M16.9 43.4h-.2l.05-.15.15.15m-4.7 1.8l-.05.05.75.05-2.05.4v-.05l1.35-.45m10.55-2.55l.35.35-.2 1.15-.15-1.5m3.2-4.15l-.35-.7h.05l1 .45-.05.05-.65.2m1.3-4.5l-.7-.35.5-.5.15-.15.65.25-.45.6-.15.15M7.8 41.85l-.35-.7h.05l1.2 1.15-.9-.45m4.1 1.75l.4-.05h.9l-1.45.5h-.25l.35-.4.05-.05m.85.35l-.4.15H12l.75-.15m3.35-5.85l1.55.05-2 .95-1.4-.4 1.85-.6M30.2 40l-1.1 1.3-2.95.1 1.5-.6.3-.1q1.25-.05 2.25-.7m3.8-1.5l.3-.85-.05.25-.25.6m3.6-3.05l.05-.3-.05.3m-3.8 3.7l.2-.2-.3.65.1-.45m.7-.3L34.05 40q-.55 1.55-1.95 2.1.95-.5 1.4-1.8l.05-.25.95-1.2"/><path fill="url(#f)" d="M30.75 5.25l-.25.5-.55.85q-1.45.9-3 1.55l.2-.4-.4.45-.45.2q-1.15.4-.95-.25l.3-.15.2-.1q2.6-1.25 4.85-3.25l.5-.5-.45 1.1m-7 1.8l-.4.8-.05.05-.2.05.6-2.05 1.25-1.45-.8 1.7-.4.9m-3.05-1.8l-.2.25q-.6.65-.5 0l.05-1.9 1.6-2.1-.2 1.2-.2.95-.5 1.5-.05.1m-2.95.85l-.55 1-.3-2.35q-.25 1.7-1.25 2.9l.6-1.9-.7.45.7-1.2.05-.15.4-.7q.95-1.8.85-3.85l.2 2.95V4.9l-.05.9.05.3m-2.95.6l-1.1.85.5-.9.1-.25.3-1.35.15 1.2.05.45m-1.4 1.05L12.05 8.8q-.95.4-1.35-.4 1.25-.9 2.45-1.85l.8-.5-.35.75-.05.3-.15.65m-2.8.7q.95 2 1.25 4l-.35.05-.2-.4-.45-.6.05.65-.05.2q-.5-.45-.55-1.8-.2.6.1 1.3l.4.75.05.65.9 2.75v.15q-1.15-.55-1.9-1.6.1 1.05.8 2l.1.3.75 2.3-.7.05-1.05-1.05.15.8-.7-1.05-1.45-2.15-.2-.9.65.75.75.55.5.3-.35-1.35v-.05l-.05-.15-.35-1-.15-.35q-.2-.5.1-1.15l.35.95.45.6.2.15-.55-3.3-.9-2.25q-.3-.7-.1-1.3l.15 1.05.1.3.65.6h.35l.4-.1.45-.3.1-.05.1-.1.2-.2m18.2 10.7l1.15-.15H30l.75.05-.4.25q-1.2 1-2.65.75l.3-.4.05-.05.2-.15.55-.3m3.5.25h.35l-.55.2.2-.2m-23.15.05l.65-.05-.8.45.8-.45q-1.45 2.35-3.6 3.45-2.25 1.05-2.15 3.45.8-.85 2.1-.7L3.5 28.9q-1 1.15-.85 2.95v.6l.95-2.35.05 2.05-.25.35q-1 1.15-.85 2.95V36q-1.1-1.8-1.25-3.85V30.4l-.35.75L.4 32.6l-.05.15v-.1l.1-1.95q.2-.85.75-1.5l1.15-1.45 1.5-1.85-1.65.35-.45.35v-.75q.25-1.8 2.15-2.7 2.15-1.1 3.6-3.5l1.45-.2h.2m6.35 9.7l.05.05-.9 1-.45.05v-.15l-.7-.25 2-.7m-2.3.25l-.15-.6-.1-.1.35-.4-.1 1.1m2.45 4.3l-.6-.15.05-.05.35-.7q.3.6.95.6v.35l-.6-.05h-.15m-3.8 3.35l1.7.1-.55.15-1.15.15-.3-.3.3-.1M17.9 37q1.35.2 2.2-.65l.15.1q-.35.7.8 1.5v.35l-.25.2q-1.5.95-3.15 1.2l.65-.35h-.8l.5-.25.5-.3q.55-.4.25-.55l-.4-.35q-.55-.5-.45-.9m8.95 2.3l-.75-.6.5-.4.05-.05.15-.15q1.8-1.85 2.8-4.25l.1-.35q.35-1.2-.2-2.05-.35-.1-.5.3l-.35.5-.15-1.15.1-.25-.15-.05-.05-.5.6.7.35-.5.85 1.4.65 3.65-1.75 2.25q-.95.95-2.2 1.2h1.35l-1.05.25-.35.05M2.55 36l.95-2.3q-.2 2.35.65 4.45L2.55 36m8.95 4.6l1.65.15-.9.9 3.45.05-2.65 1.05-3 .7-.75.15v-.05l.9-.3L13.4 42l-1.1-.05-.45.05h-1.2l-.7-.05 1.55-1.35m5.2 1.45l-.35.85-.4-.6.75-.25m.35-.15l.8-.35.4.45-.35 1.15-.85-1.25"/><path fill="url(#g)" d="M17.05 41.9l.85 1.25.35-1.15.4.6.4-1.4.4.5-.95 1.4-1.5.3-.25-.3v.15l-.05.15h-.8q-1.65-.1-2.9 1l-2.5.55-1.2.25v-.05l3.05-1.05.4-.15.65-.35-.2-.05h-.9l-.4.05h-1l-.45-.05h-.5l.1-.1 3-.7-1.45.5-.2.05h.2-.2l.2-.05v.05l4.35-1 .4.6.35-.85.35-.15M31.2 5.8l-.2.1.2-.15v.05m-7.85 2.05l1.6-1.8-.4.9-1.25.95.05-.05m-1.9-3.45l-.75.85.05-.1.5-1.5.4-.55-.05.25-.15 1.05m-3.7 1.65v.05l-.05-.3.05-.9v1.15M9.1 10.8l.55 3.3-.2-.15-.25-1.25v-.1l-1-2.45q-.3-.7-.1-1.3.05 1.9 1 1.95m-.05 4.1l.05.15v.05l.35 1.35-.5-.3-.1-.25-.3-.75q-.2-.5.1-1.15l.15.35.25.55.05.2-.05-.2m.15 3l.7 1.05.15.35-.25.05v.05l-.65.05v-.05l-.05-.05-.65-.85q-.8-.95-.9-2.05l.8.9.85.55m-7 8.35l1.65-.35-1.5 1.85-.6.45.1-1.05.35-.9M.4 32.6l.55-1.45.35-.5v1.4l-.25.5-.1.15-.05.15-.55 1.5.05-1.75m.9-.45Q1.45 34.2 2.55 36l1.6 2.15 1.4 2.35.75.9q-1.7-.95-2.95-2.6-1.45-1.85-1.85-3.9l-.1-.6v-.1q-.2-1-.1-2.05m12.2-2.3l.7.25v.15l-.45.1H13l-.1-.1-.25-.15-.15-.05h-.55l1-1.35.1.1.15.6v.5l.3-.05m-1.8 3.75l-.05-.05L12.8 33l-.75.75-.35-.15m2.5-1.6l.3-.25q.4 0 .75.35l.2.7-.35.7-.45-.3-.35-.6-.05-.1-.05-.5m2.2 1.75q0 .95.8 1.4l-.4.15-1.75-.15.8-1.35.05-.05-.1-.05.6.05m8.8 7.15l.15-.2 1-.6.2-.15.35-.35.6-.15-.4-.05.1-.15 1.05-.25h.45l1.6-.2q-.85 1.45-2.35 1.9l-.3.1-2.45.1m3.15-9.5l.15.1-.1-.3.1-.1.15 1.15.35-.5q.15-.4.5-.3.55.85.2 2.05l-.2-.45q-.35-.1-.5.3l-.35.5-.25-2.05-.05-.1v-.3m0-.65l.05-.45.05.5-.1-.05m-10 7.15l.4.35q.3.15-.25.55l-.5.3q-.35-.65.35-1.2m-4.3.7l-1.4-.6-.8-.55L13 37.3l3.1.35-2.05.95m-3.35 4.15l.8-.55.35-.2.45-.05 1.1.05-3.2 1.25.5-.5"/><path fill="url(#h)" d="M29.75 9.7l.7-1.2 1.4-1.6q-.65 1.25-1.65 2.3l-.45.5M18.9 4l-1.15 2.05V5.8l.15-.25q.65-1.15.8-2.45l.05-1.4.1 1.05L18.9 4m10.8 9.15l.4-.2-.45.35.05-.15m5.65 8l.7.5h-.35l-1-.7.5.15.15.05M27.8 19.4l.8-.65-.35.7-.2.15-.05.05-.2-.25M9.2 9.2l.1-.55.05.55H9.2m3.45 20.9l-.2.1.05-.15.15.05m.15 2.9l1.4-1 .05.5-.6.65-.9.8-.7-.2.75-.75m.75 4.15l.75-.05 2.3.35h.7l-1.2.65-1.85.6-.2-.1 2.05-.95-3.1-.35.55-.15m7.15 4.2l.05.05-.1.05.05-.1m-.85 1.25l-1.35.5.95-1.4.5.75-.1.15m-2.85.8h-.1l-.15-.15v-.15l.25.3m-4 1l-.15.15-2.35.45v-.05l2.5-.55m9.55-1.75h.15l-.15.8v-.8m3.05-4.85l-.05-.05q-.1-.2.15-.45l.15.1.65.15-.85.25h-.05m.9-4.15l-.45-.25 1.05-1 .4.15-.45.6-.55.5m-19.05 7.5l-.15-.5 1.05.95-.85-.45h-.05m26.1-3.2q.45-1.35 1.05-2.4v1l-.3 1.1-.3.85-.8 1 .15-.6.15-.65.05-.3m-2.3.4L30.2 40q-1 .65-2.25.7 1.5-.45 2.35-1.9l.95-.45m.6 3l.05-.05.75-.7.1-.1.4-.9v-.05l.6-.4-.35.9-.2.3-1.35 1"/><path fill="url(#i)" d="M31.85 41.35q-1.2 1.25-3.25 1.25h-1.8q1.25-.25 2.2-1.2l.1-.1 1.1-1.3 1.05-1.65.55-1.2q.55-1.4-.1-2.4-.35-.1-.5.3l-.35.5-.65-3.65-.85-1.4-.35.5-.6-.7-.05.45.05.45.1.3-.15-.1-.1-.05-.75-.3q-1.75-.2-3.45 1.1l2 1.25.45.25h.05l.7.35 1.25.45-.45.6-.8.75-.2.2-.55.5-.8.8q-.25.25-.15.45l.05.05.35.7.15.2.75.6.25.1.4.05-.6.15q-.3.05-.55.25l-.35.2v.05l-.65.6-.15.2-.6.9q-.9 1.85-1.05 3.55 0-1.2-.4-2.25l-.05-.1-.35-.35h-.2l-.05.05h-.05q-.25.05-.55.4l-.55.65q-.9 1.2-1.25 2.7l-1.15-1.65-.4 1.4-.8-1.05Q16.3 46 11.5 46.9v-.05l4.1-1.55h-2.7l-.75-.05.05-.05.65-.65.15-.15q1.25-1.1 2.9-1H17l1.5-.3 1.35-.5.15-.05.3-.2q.15-.05.25-.15l.15-.1.35-.45v-.05l-.1-.05-.2-.15-.05-.05q-1.2-.95-.1-1.75l.4-.6.05-.7v-.35q-.1-.95-.8-1.5l-.15-.1q-.85.85-2.2.65l-.2-.05-.45-.1.1-.2.25-.45.3-.45.2-.3-.9-.3q-.8-.45-.8-1.4v-.35q-.65 0-.95-.6l-.2-.7q-.35-.35-.75-.35-.5-.05-1.05.35l.55-1.2.65-.7.9-1 .05-.1-.1.05-2 .7-.3.05v-.5l.1-1.1-.35.4-1 1.35-.1.15q-1.2 1.9.95 1.7l-1.2 1.65.1.05.35.15.7.2h.9l.35-.05 1.65-.2h.15l-.05.1-1.2 1.35q-1.2 1.2-2.7 1.9l-.3.1.3.3.8.55 1.4.6.2.1 1.4.4 1.85.25h.8l-.65.35q-1.55.85-3.3 1l-1.2.05-1.65-.15-2.1-.75-2.65-1.9.1.25.15 1.25.1.5.05.2.15.5.15.5.35.7q.55 1 1.55 1.65-1.7-.75-3.05-2.1l-.75-.9-1.4-2.35q-.85-2.1-.65-4.45L2.55 36v-.55q-.15-1.8.85-2.95l.25-.35 2.4-2.95q-1.3-.15-2.1.7-.1-2.4 2.15-3.45 2.15-1.1 3.6-3.5l2.65-.3-2.3-3.35-.15-.35-.15-.8 1.05 1.05.85.55-.15-.6-.75-2.3-.1-.3.2-.85q.25 1 1 1.7l-.1-1.25V16q-.25-1.7-.95-3.4l-.4-.75q-.3-.7-.1-1.3.05 1.35.55 1.8l.2.1.45.05.35-.05.1-.05.65-.45.55-.45.15-.15 2.85-2-.6 1.9q1-1.2 1.25-2.9l.3 2.35 1.8-3.25q.85-1.65.85-3.45l.15 5.1q-.1.65.5 0l2.2-2.6 1.25-1.7-.15 1.1-.6 2.05-.65 2.4q-.35 2.1 1.4.7l2.9-2.85.4-.45-.2.4-1.6 3.4-.1.45q.1.3.95 0l3.2-1.5.25-.15 1.2-.8 2.05-1.6.5-.5q-.65 1.85-1.95 3.4l-.5.55-.15.15-.7.9-.35.6-.05.1-.05.15-.3.7-.1.2-.1.4q-.1.85 1.45.45l.5-.2-2.45 1.85-.8.8-.15.2-.15.35q-.25.7.25 1.35l.2.25-.3.4-1.05 1.7q1.3.05 2.5-.95l.5-.25q-.7 1.7-2.15 2.6l-.55.3q1.85.65 3.3-.55.8-.65 1.9-.6l1.25.05q-.65.05-1.15.6l-.25.25q1.4-.65 3.05-.5 1.15.1 2 .85-1.35-.2-2.45.65l-.25.2q1.15.55 2.1 1.65l1.05 1.85-.65-.2q.05 1.05.8 2.3l1 2.4.05.2.05.15.2 1q.15.85-.25 1.85l-.95 2.25.3-1.15q.2-1.05-.2-1.75l-.1-.05v-.05l-.1-.15-.2.25-.9 1.55q-1 2.25-1.85 4.7-.55 1.55-1.95 2.1.95-.5 1.4-1.8.45-1.4.45-3v-2.95q-.6 1.05-1.05 2.4l-.25.65-.15.45-.2.6-.6 1.1-.45.55-.05.05m-5.7-23.2l.15-.35-.9 1-2.55 1.65.6-1 .95-1.75.75-2.15.2-1.15-.85 1.95-.8 1.2-1.45 1-.2-.65-.05.2q-.2 1.75-.95 3.25-.6.65.5.45l2.15-.7q1.8-.9 2.45-2.95m.95-1.7q-.45.3-.8 1.35.35-1.05.8-1.35m7.25 7.95l-.5-.25.5.25m-2.75-.75l.4-.45-.4.45m-12.3-1.9l-2.2-2.2q-.8-.7-1.15-1.75v.7q-1.55-1.05-2.45-3.1l-.45-.6q.2 2.3 1.25 4l1.45 2.05 2.05 1.6q1.25.65 1.5-.7m8.45 8l.5.4.15.15-.15-.15-.5-.4"/><path fill="url(#j)" d="M26 5.55l.25-.3v.05l-.25.25m10.5 15.3l.3.2-1.45.1-.15-.05 1.3-.25m.65 4.2l.15.35-.05-.05-.1-.3m1.7 6.95l-.1.75-.05-.15.15-.6M18.3 2.85l.1-1.75.15 2.35-.15.3-.1.15V2.85M8.35 8.6l-.1-.3.05-.25.05.55m-.15-.05l.9 2.25-.65-1.45-.25-.8m.5 5.35l.35 1-.25-.55-.1-.45m-.95 1.85L9.2 17.9l-.85-.55q-.55-.75-.6-1.6m-6 10.1v.75l.45-.35-.35.9-.35.25q-.05-.85.25-1.55M.45 30.7l-.1 1.95-.3.9-.05-.6q-.1-1.3.45-2.25m.85 1.35v.1q-.1 1.05.1 2.05l-.35-1.65.25-.5M22.45 42.7h.05l-.05.15v-.15M26 40.1v-.05l.55-.1-.2.15H26M9.6 44.4v-.05l2.25-.7-.35.4-1.9.35m1.1-1.65h-.4l.55-.6.65.05-.8.55m23.05-3.6h.05l-.1.45-.3.45.35-.9m-1 1.35l-.1.1-.3.15.4-.25"/><path fill="#400000" d="M26.3 17.8l-.15.35q-.65 2.05-2.45 2.95l-2.15.7q-1.1.2-.5-.45.75-1.5.95-3.25l.05-.2.2.65 1.45-1 .8-1.2.85-1.95-.2 1.15-.75 2.15-.95 1.75-.6 1 2.55-1.65.9-1m-13.25-3l.45.6q.9 2.05 2.45 3.1v-.7q.35 1.05 1.15 1.75l2.2 2.2q-.25 1.35-1.5.7l-2.05-1.6-1.45-2.05q-1.05-1.7-1.25-4"/><path fill="none" stroke="#000" stroke-width=".05" stroke-linecap="round" stroke-linejoin="round" d="M26.3 17.8q.35-1.05.8-1.35"/><path fill="none" stroke="#9F0000" stroke-width=".05" stroke-linecap="round" stroke-linejoin="round" d="M30.5 5.75l.25-.5.45-1.1-.5.5q-2.25 2-4.85 3.25l-.2.1-.3.15q-.2.65.95.25l.45-.2.4-.45-.2.4q1.55-.65 3-1.55l.55-.85 1-.75.25-.65-1 .9m.45.55l-.2.1-1.05.7M31 5.9l.2-.15v.05l1.3-1.05.4-1L31.5 5m1.55 0l.45-1.15-1 .9m.55.25l.25-.25-.75 1.7.2-.2q-.6 1.8-1.9 3.3l2.05-1.6.5-.5q-.65 1.85-1.95 3.4l-.25.4-.4.3-.7.9.85-.25.05-.05.4-.25m-1.65-2.2l.7-1.2 1.4-1.6 1.2-1.9m-2.1 6.4l-.15.15m.4-.3l-.25.15.5-.55m-5.55-5.2l.75-1.6-1.75 1.9-1.15 1.1-.4.8 1.6-1.8-.4.9 1.35-1.3.1-.1.25-.3v.05l1-1.15-.7 1.45.5-.55-.85 1.9.3-.4-.65 1.35m.4-2.6l-.25.25m-2.85-3.3l.8-1.05-.35 2-.75 2.55-.25.75 1.25-1.7-.15 1.1 1.25-1.45-.8 1.7 1.35-1.5-.6 1.3M22 2.85l1.35-1.75-.2 1.15-1.7 2.15-.75.85-.2.25q-.6.65-.5 0l.05-1.9-.2-3.6-.1 1.8-.15.65-.15.4-.45 1-.1.15-1.15 2.05v.05l-.55 1-.3-2.35q-.25 1.7-1.25 2.9l.6-1.9-.7.45-.1.05-.1.1-.55.35-1.1.85-.3.2-1.35 1.05q-.95.4-1.35-.4-.3-.5-.3-1.45-.2.6.1 1.3l.1.2q.95 2 1.25 4l.1-.05.65-.45.55-.45v-.3l.15.15 2.85-2-.6 1.9q1-1.2 1.25-2.9l.3 2.35 1.8-3.25q.85-1.65.85-3.45v-.25m1.7-1.05l.75-1-.2 1.15-.4.5-.15 1.05m-1.4-.8l1.6-2.1-.2 1.2-.2.95.4-.55-.05.25m-.35.3l-.5 1.5-.05.1m1.9 1.25l-2.2 2.6q-.6.65-.5 0L19.75 4m3.55 3.9l.05-.05m-.25.1l-.65 2.4q-.35 2.1 1.4.7l2.9-2.85m-3.45-.3l-.2.05.6-2.05m.85 1.05l-1.25.95m2.35.1l.55-1.05m3.2 3.55l.35-.8.45-.5q1-1.05 1.65-2.3m-2.2 3.45l-.25.15-3.2 1.5q-.85.3-.95 0l.1-.45 1.6-3.4m5.6-1.7l-2.3 2.95-.6.95 1.2-.8m-4.3-3.95l-1.2 2.55m-1.6-1.1l.4-.9M23.6 3.2l-1 3.3m7.5 5.95l-.35.6.7-.5.5-.35m-1.3 1.1l.45-.35-.4.2-.05.15-.3.7.6-.15.5-.2.4-.25m-1.15-.25l.05-.1m-.6 1.55l.1-.4.1-.2m-1.8 4.05l.15-.35.15-.2.8-.8 2.45-1.85-.5.2q-1.55.4-1.45-.45l1.3-.95M27.9 17.6l.1-.15-.15.05m.05.1l.75-.5.5-.25-.3.65.4-.3.5-.25L29.2 18l.35-.15-.75 1.3 1.15-.15H30q.7-.45 1.65-.4l1.25.05-.35.05.95.05q-.5.05-.95.4l2-.15.6.1q1.15.1 2 .85l-1.6.15q.8.2 1.4.75h-.45l.3.2-1.45.1.7.5h-.35l.85.8 1.05 1.85-.65-.2.05.1h-.05v.05l.45.95-.25-.15.15.35-.05-.05.5 1.05q.95 1.7 1.3 3.75l-.15 1.55V31.85l-.05.15-.1.75.2 1q.15.85-.25 1.85l-.95 2.25-.1.3M27.7 17.7l.2-.1m.95-.1l-1.3.55q-.25.7.25 1.35l.8-.65.6-.75m-1.5 2.05l-1.05 1.7q1.3.05 2.5-.95l.5-.25q-.7 1.7-2.15 2.6l-.55.3q1.85.65 3.3-.55.8-.65 1.9-.6l1.25.05q-.65.05-1.15.6l-.25.25q1.4-.65 3.05-.5 1.15.1 2 .85-1.35-.2-2.45.65l-.25.2q1.15.55 2.1 1.65l1.05 1.85-.65-.2q.05 1.05.8 2.3l1 2.4.15-.4.1-.1v-.1M28.8 19.15l-.55.3-.2.15-.05.05-.3.4q1.45.25 2.65-.75l.4-.25L30 19m-1.75.45l.35-.7m-.6.9l-.2-.25m3.3-4.55l.4-.25m3.7 6.5l.15.05m-.65-.2l.5.15 1.3-.25m-1.8.1l-.25-.15-.5-.25m.5.25l.25-.2.85-.5m-4.8-1.05l1.5-.35h.3m0 .45l-.25.25h.35l2.5-.3m-2.85.3l-.2.2.55-.2m-.55.2l-.4.45m.3 3.15l-.4.45m2.25.5l.5.25m2.6-.3v.1m-1.25-2.55l-1-.7m-4.25-8.4l-.35.4M18.7 3.1l.05-1.4.1 1.05q.45-1.25.4-2.65l.2 2.75m-1.15 0l.1-1.75.15 2.35.15-.35q-.15 1.3-.8 2.45l-.15.25v.25m1.85-3.6L19.65.9l.1.9m-2 1.45q.45-1.2.35-2.55l.2 2.15V3.9l.1-.15.15-.3M16.25 5l.05-.15v-.2l-.05.35-.7 1.2m-.2.15l.3-.7-.4.3h-.05l-.2.15-.15.05-.1.1.05.45m1.5-1.85l.4-.7q.95-1.8.85-3.85l.2 2.95V4.9l.55-1m-.55 1.9v-.9l-.05.9.05.3m1.1-3.35L18.9 4m-3.7 1.95l-.05-.7-.15.85m-.8.55l.1-.25-.7.4-.05.3q.35-.2.65-.45l-.5.9m-.3.2l.15-.65m-3.4 1.5l.05.2.1-.05-.05-.2-.05-.7-.1.5.05.25-.25-.45q-.3-.7-.1-1.3l.3 1.5m.15.2l.15.1.2-.2m-.2.2l-.1.1m.75 3.7l-.1-.35-.05.05-.05.2.2.1.45.05-.2-.4-.45-.6.05.65m-.1.45l-.4-.75q-.3-.7-.1-1.3.05 1.35.55 1.8m2.3-.85l.15-.15m.3-4.55l.35-.75-.8.5q-1.2.95-2.45 1.85m4.05-2.15l-.15-1.2-.3 1.35M8.35 8.6l-.1-.3-.15-1.05q-.2.6.1 1.3l.9 2.25.55 3.3-.2-.15-.45-.6-.35-.95q-.3.65-.1 1.15l.15.35.35 1 .05.15v.05l.35 1.35-.5-.3-.75-.55-.65-.75.2.9L9.2 17.9l.7 1.05-.15-.8 1.05 1.05.7-.05-.75-2.3-.1-.3q-.7-.95-.8-2 .75 1.05 1.9 1.6V16l-.9-2.75-.05-.65q.7 1.7.95 3.4m-3.5-7.7l.05-.25.05.55.65.6-.25-.45q-.3-.7-.1-1.3.05 1.35.55 1.75l.1-.55.05.55.4-.1.45-.3m-.85.4H9m-.8-.65l.25.8.65 1.45q-.95-.05-1-1.95-.2.6.1 1.3l1 2.45v.1l.25 1.25M9.2 12.6l-.2.75m-.2 1L8.65 14q-.3.65-.1 1.15l.3.75.1.25m.1-1.25l.05.2m-.4-1.2l.1.45.25.55m-1.3.85q.05.85.6 1.6l.85.55m-.35-2l-.75-.85.1.55m.15 1.75l-.8-.9q.1 1.1.9 2.05l.65.85.05.05v.05l.65-.05v-.05l.25-.05-.15-.35m-.8.4l-.15.1h.15l.05-.05m-.05.05h.05m.65-.05l-.8.45m-1.5-.2l-.8.5m2.2 3.3l.8-.5 2.65-.3-2.3-3.35m-1.1.15l-1.45.2q-1.45 2.4-3.6 3.5-1.9.9-2.15 2.7v.75l.45-.35 1.65-.35-1.5 1.85L1.2 29.2q-.55.65-.75 1.5l-.1 1.95v.1l.05-.15.55-1.45.35-.75v1.75Q1.45 34.2 2.55 36v-.55q-.15-1.8.85-2.95l.25-.35-.05-2.05-.95 2.35v-.6q-.15-1.8.85-2.95l2.65-3.3q-1.3-.15-2.1.7-.1-2.4 2.15-3.45 2.15-1.1 3.6-3.45m1.7-6.9l.35-.05m-1.2 4.1l.2-.85q.25 1 1 1.7l-.1-1.25m-.95 3.05l.85.55-.15-.6m4 10l.05.05.05-.1-.1.05-2 .7.7.25v.15l.45-.05.9-1m-3.3.85l-.1.1.3.15.45-.05-.25-.15-.2.1.05-.15h-.55l.2.1m.35-.1l.15.05m-.7-.05l-.1.15q-1.2 1.9.95 1.7l-1.2 1.65.1.05-.05-.05L12.8 33l1.4-1 .3-.25q-.5-.05-1.05.35l.55-1.2.65-.7m-1.45-.8l-.15-.6-.1-.1-1 1.35m1-1.35l.35-.4-.1 1.1v.5l.3-.05m-.6.4l.1.1h.75l.45-.1m-1.2.1l-.55-.05M14 33.9l-.35.05h-.9l-.7-.2-.35-.15m1.05.35l.9-.8.6-.65-.05-.5m.45 1.2l-.65.7 1.65-.2-.6-.15.05-.05-.45-.3-.35-.6-.65.55m.6-.65l.05.1m0 4.5h.15l2.25-.5.9-.4.3-.45h-.25l-1.05-.1-.45-.05-1.6-.45q-1.2 1.2-2.7 1.9l1.7.1.75-.05 2.3.35 1.1-.5-.45-.1.1-.2-.65-.05M12.8 33l-.75.75m3.4-.95q.3.6.95.6v.35q0 .95.8 1.4l.9.3-.2.3m-2.25-2.05h.15l.6.05m-.65.05l.05-.1.1.05-.05.05-.8 1.35 1.75.15.4-.15m-1.35-1.35h-.1l-1.2 1.35m.9-2.35l-.2-.7q-.35-.35-.75-.35m3.1 4.45l-.25.45m-.75-1l.2-.35m1.1 1.7q1.35.2 2.2-.65l.15.1q.7.55.8 1.5v.35L21 39l-.4.6q-1.1.8.1 1.75l.05.05.2.15.1.05v.05l-.35.45-.15.1q-.1.1-.25.15l-.3.2-.15.05-1.35.5-1.5.3h-1.1q-1.65-.1-2.9 1l-.15.15-.65.65-.05.05.75.05h2.7l-4.1 1.55-.2.05h.2q4.8-.9 6.25-1.75l.8 1.05.4-1.4 1.15 1.65q.35-1.5 1.25-2.7l.55-.65q.3-.35.55-.4h.05l.05-.05h.2l.35.35.05.1q.4 1.05.4 2.25.15-1.7 1.05-3.55l.6-.9.15-.2.65-.6v-.05l.35-.2q.25-.2.55-.25l.6-.15-.4-.05-.25-.1-.75-.6-.15-.2-.35-.7-.05-.05q-.1-.2.15-.45l.8-.8.55-.5.2-.2.8-.75.45-.6-1.25-.45-.7-.35h-.05l-.45-.25-2-1.25q1.7-1.3 3.45-1.1l.75.3.1.05.15.1-.1-.3-.05-.45.05-.45-.15-.15-.5-.4m-11.15 5.9h1.2l-.15.1m.05 1.2l.2.05q-.1.4.45.9l.4.35q.3.15-.25.55l-.5.3-.5.25h.8l-.65.35q1.65-.25 3.15-1.2l.25-.2m-5.95-4.8l.35-.7m-13.6-5.65l.35-.9m-.45-.4q-.3.7-.25 1.55l.35-.25-.1 1.05.6-.45M.95 32.7l.1-.15.25-.5M.45 30.7q-.55.95-.45 2.25l.05.6.3-.9m.55.2v.1l.05-.25-.05.15-.55 1.5.05-1.75m5.9 8.8q-1.7-.95-2.95-2.6-1.45-1.85-1.85-3.9l-.1-.6v-.1l-.35-1.65M2.55 36l.95-2.3q-.2 2.35.65 4.45l1.4 2.35.75.9q1.35 1.35 3.05 2.1-1-.65-1.55-1.65l-.35-.7-.15-.5-.15-.5-.05-.2-.1-.5-.15-1.25-.1-.25 2.65 1.9 2.1.75 1.65.15 1.2-.05q1.75-.15 3.3-1M1.4 34.2q-.2-1-.1-2.05m0-1.5l-.35.5m2.7 1l2.4-2.95q-1.3-.15-2.1.7-.1-2.4 2.15-3.45 2.15-1.1 3.6-3.5m-1.65 16.2l1.4.75m-1.7-.65l1.1.55-.8-.65-.55-.4.25.5q.55.95 1.5 1.55L7 39.45m.5-.7l-.65-.55m.65 2.95h-.05m.05 0l1.2 1.15-.9-.45m-.7-1.9l.6.45-.55-.25m.15.5l1.05.95-.85-.45m2.55 2.3l-.1.1h.5l.45.05h1l.4-.05h.9l.2.05-.65.35-.4.15-3.05 1.05m0 .05l1.2-.25 2.5-.55m-3.15-.65l-.2.05h.2l1.05-.2m-1.05.15l.6-.2m-1.15 0l-.2.05h.2l.75-.15 3-.7 2.65-1.05-3.45-.05.9-.9M9.6 44.4l1.9-.35.35-.4-2.25.7-.2.05h.2m-.3.8h-.2l.2-.05M18 39.1q-.35-.65.35-1.2m-1.75-.45h.7l-1.2.65 1.55.05-2 .95 1.85.25m-1.55 2.95l.4.6.35-.85-.75.25-4.35 1h-.2l.2-.05 1.45-.5m3.95.65l-.25-.3v.15l.15.15m-.2-1.35l.35-.15.8-.35.4.45.4.6.4-1.4.4.5.5.75.05.1m-2.95-.65l.85 1.25.35-1.15m1.6.6l.1-.15m-.5-.75l-.95 1.4m-4.25-4.4l-.2-.1-1.4-.6-.8-.55-.3-.3.3-.1m1.15.25l.55-.15m-2.7 5l-.55.6h.4l.8-.55-.65-.05h-.35l.15-.15-.7-.05 1.55-1.35m-.8 2.15l-.5.5L13.4 42l-1.1-.05-.45.05-.35.2m-.85-.2h1.2m0-4.55L13 37.3l3.1.35-2.05.95m-2.65 5.6l.6-.1.75-.15m-1 .1h-.25m-.1.1l.35-.1 1.45-.5m-1.2.55h.35m-.45-.5l-.05.05m-1.35 1.3l-.2.05h.2l2.35-.45m-2 1.1l-.2.05h.2m0-.05l1.35-.45m-.8-1h-.2l.2-.05m1.5 1.15l-2.05.4m5.25-7.6l-1.85.6 1.4.4m1.1 4.15l-.05.15M2.55 36l1.6 2.15m6.05 5.1l-.9.3m27.85-18.5l.1.3m-3.7 12.6q.45-1.35 1.05-2.4v2.95q0 1.6-.45 3-.45 1.3-1.4 1.8 1.4-.55 1.95-2.1.85-2.45 1.85-4.7l.9-1.55.2-.25.1.15v.05l.1.05q.4.7.2 1.75l-.3 1.15m-6.9-2.3l.35-.5q.15-.4.5-.3.65 1 .1 2.4l-.55 1.2L30.2 40l-1.1 1.3-.1.1q-.95.95-2.2 1.2h1.8q2.05 0 3.25-1.25l.05-.05.45-.55.6-1.1.2-.6.15-.45.25-.65-.05.3-.15.65-.15.6.8-1 .3-.85.3-1.1m4.3-4.65l-.05.1-.15.6.05.15m.15-.9v.05m-.25.5l.05.2m-1.05 2.55l-.05.3.25-.5m-.1-.1l-.1.3.1-.25m-.3.05l-.05.55-.3 1.15.5-1.2m-.5 1.2l-.1.3m-8.55-6.15l-.05-.5.6.7.35-.5.85 1.4.65 3.65-1.75 2.25q-.95.95-2.2 1.2h1.8l1.6-.2.95-.45M28.5 31.1l.1-.25-.15-.05-.1-.05m-.35.85l.25-.25m.1.35v-.3m-.35.2l.35.1.05.1.25 2.05.35-.5q.15-.4.5-.3l.2.45q.35-1.2-.2-2.05-.35-.1-.5.3l-.35.5-.15-1.15-.1.1m0 .6l-.45.55-.75.65.65.25-.45.6-.15.15m2.45-.5l-.1.35q-1 2.4-2.8 4.25l-.15.15-.05.05-.5.4m1.1-5.7l-.15.15-.5.5m-.05 0l.55-.5.45-.6-.4-.15-1.05 1m.45 3.1l.9.25-.8.2-.75.45.65.15-.85.25 1 .45m.4-2.25l.55-.15-.35-.05m-.15-3.4l.9-.8m-2.15 5.8l-.15-.1m-.05.5h-.05m.75 2.3l.2-.15-.55.1m.35.05H26m1.1-.7l.1-.15-.35.05m-.25-1l-.65.2m.6 1.45l.35-.35m2.2 1.7l-2.95.1 1.5-.6-2.45.1m2-1.65l1.05-.25m2.05-.2q-.85 1.45-2.35 1.9 1.25-.05 2.25-.7m-2.25.7l-.3.1m-2.3-.1l1-.6m-5.65 1.25l-.05.1.1-.05m1.7 1.3v.15l.05-.15m-1.85-1.25l-.35.9m.65-.8l-.4.65m.8 1.55v.65m1.55-.25v.75m.65.45v.75m-1-2.65v.75m0-1.55v.8l.15-.8m-.15.95l-.1-.75m.3-.2l.15 1.5.2-1.15m11.2-5.35l-.05.25-.25.6m-.7.1l.2-.35m.25.9h.05l.2-.2.6-.9m-1.45 1l.2-.15m-.15.6l-.25.15.2-.1.6-.4-.35.9.3-.45.1-.45m-.65.4v.05l-.4.9-.1.1-.75.7m1.8-1.7l.3-.65m-.45 1.1l-.05.25q-.45 1.3-1.4 1.8 1.4-.55 1.95-2.1l.45-1.15-.95 1.2-.35.3-1.35 1m2.65-2.5l.1-.35m-1.85 2l-.4.25.3-.15m.75-.55l-.2.3m3.75-16.1l.2.8m-16.9 11.4q-.35.7.8 1.5"/><path fill="none" stroke="#280000" stroke-width=".05" stroke-linecap="round" stroke-linejoin="round" d="M26.3 17.8l-.15.35m-4.6 3.65q-1.1.2-.5-.45.75-1.5.95-3.25l.05-.2.2.65 1.45-1 .8-1.2.85-1.95-.2 1.15-.75 2.15-.95 1.75-.6 1 2.55-1.65.9-1m-7 3.95l-2.2-2.2q-.8-.7-1.15-1.75v.7q-1.55-1.05-2.45-3.1l-.45-.6"/></svg>