<svg xmlns="http://www.w3.org/2000/svg" viewBox="0 0 47.2 51.4" width="47.2" height="51.4"><defs><radialGradient gradientUnits="userSpaceOnUse" r="819.2" cx="0" cy="0" spreadMethod="pad" gradientTransform="matrix(-.036 0 0 .036 24.65 25.65)" id="a"><stop offset="0" stop-color="#f00"/><stop offset=".165" stop-color="#ff0"/><stop offset=".365" stop-color="#0f0"/><stop offset=".498" stop-color="#0ff"/><stop offset=".667" stop-color="#00f"/><stop offset=".831" stop-color="#f0f"/><stop offset="1" stop-color="#f00"/></radialGradient><radialGradient gradientUnits="userSpaceOnUse" r="819.2" cx="0" cy="0" fx="87942.4" fy="0" spreadMethod="repeat" gradientTransform="matrix(-.013 0 0 .013 8.95 15.1)" id="b"><stop offset="0" stop-color="#f00"/><stop offset=".639" stop-color="#2E0000"/><stop offset="1"/></radialGradient><radialGradient gradientUnits="userSpaceOnUse" r="819.2" cx="0" cy="0" spreadMethod="pad" gradientTransform="matrix(-.008 0 0 .008 7.75 22)" id="c"><stop offset="0" stop-color="#f00"/><stop offset=".639" stop-color="#2E0000"/><stop offset="1"/></radialGradient><radialGradient gradientUnits="userSpaceOnUse" r="819.2" cx="0" cy="0" spreadMethod="pad" gradientTransform="matrix(-.005 0 0 .005 19.35 9.55)" id="d"><stop offset="0"/><stop offset=".796" stop-color="#f00"/></radialGradient><radialGradient gradientUnits="userSpaceOnUse" r="819.2" cx="0" cy="0" spreadMethod="pad" gradientTransform="matrix(-.287 0 0 .287 50.6 -5.25)" id="e"><stop offset="0" stop-color="#f00"/><stop offset=".165" stop-color="#ff0"/><stop offset=".365" stop-color="#0f0"/><stop offset=".498" stop-color="#0ff"/><stop offset=".667" stop-color="#00f"/><stop offset=".831" stop-color="#f0f"/><stop offset="1" stop-color="#f00"/></radialGradient><radialGradient gradientUnits="userSpaceOnUse" r="819.2" cx="0" cy="0" spreadMethod="pad" gradientTransform="matrix(-.003 0 0 .003 19.05 9.5)" id="f"><stop offset=".369"/><stop offset=".949" stop-color="#fff"/></radialGradient><linearGradient gradientUnits="userSpaceOnUse" x1="-819.2" x2="819.2" gradientTransform="matrix(-.287 0 0 .287 50.6 -5.25)" id="g"><stop offset="0" stop-color="#f00"/><stop offset=".165" stop-color="#ff0"/><stop offset=".365" stop-color="#0f0"/><stop offset=".498" stop-color="#0ff"/><stop offset=".667" stop-color="#00f"/><stop offset=".831" stop-color="#f0f"/><stop offset="1" stop-color="#f00"/></linearGradient></defs><path fill="#fff" d="M11.15 19.05l-.7.8-.7-1.35-.7 1.7-.9-2.05q-1.4.7-1.8 2.25-1.1-2.1-.85-4.7l.05-.05-.15.1q-1.6 1.4-1.7 3.75v.1l-.05-.1-.3-1.25-.65-5.2q-1.4 2-1.6 4.65-.55-1.25-.55-2.85V10.4l3.75 2.35 2.75 2.15.7.6 2.55 2.65h-.05l.2.15.7.75"/><path fill="#f00" d="M19.35 25.25l-1.1-.4.15-.05 3.7-1.5q1.95-.9 3.65-2.15 1.9-1.4 2.95-3.2l.5-1q.5-1.35.5-2.9l.1 3.9q-.1 1.3-.65 2.4l-.05.05-.05.1q-1 1.75-2.75 3.1-2.35 1.8-5.45 1.85l-1.5-.2M.5 9.1q.6-.9 1.9-1.45Q4.35 6.8 6.3 5.6l1.8-1.15-2 2.3q-.65.7-.45 1.85.25 1.25.8 2.4l.5.95-1.35-.65-.05-.05q-1.9-1-3.75-1.75L.5 9.1"/><path d="M42.2 35.15l.15.25 1.75 2.75.45.9.05.05 1.5 3.8.95 4.4.15 2.5v.7l-.2-.7-1.1-2.2-1.3-1.85q-.05 1.15-.5 2.25l-.5.95-.35-1.5-.15-.55-.6-1.3-1.6-2-3.1-2.05-2.35-1.4-2.05-1.25-.4-.35-.2-.35-.3-2.55-.25-3-.65-3.6-.6-1.65-.4-.75 2.4.15.6.15q1.45.45 2.65 1.35l.6.4 2.2 2.25 3.15 4.2m-30.5 16.1l-1.75.1q-2.95.1-5.2-.85 1.85-.15 2.7-1.6l-1.8.05q-3 .15-5.65-.6 1.45-.2 2.75-.8 1.35-.65 2.2-1.75.9-1.2.9-2.7 0-1.95-.8-3.7-.95-2.15-2.6-3.2l3.65-.1-.5-.5-2.35-1.55 4 .15 1.75.35q1.2.35 2.3 1.05l.95.65.85.6 1.55 1.1 3.35 2.7q-2.15-.2-4.15-1.1l-3.2-1.65q-1.75-.95-1.3.55l.55 2.65q.55 3.2-.75 6.3l3.05.9-2.45 2.3q.9.55 1.95.65m30-8.6l-1.1-1.1 1.1 1.1M35.05 32.2l.45 2.15.5 1.3.35.7 1.5 2.05L40 40.15q1.4.95 2.1 2.3L41.5 41q-.85-2-2.45-3.45-1.4-1.25-2.45-3.1l-1.45-2.3-.2-.35.05.3.05.1m-.9-1.45l.8 1.05-.8-1.05M43.6 40.8l.2.4-.15-.45-1.35-2.8-2.05-2.65-.65-.6-2.45-2.4-3.55-3.95 2.55 4.35 1.05 1.45v.1h.05q.95 1.25 2.25 2.25 1.5 1.2 2.8 2.55l1.3 1.75M16.85 12.9q1.05.7 2.5.7 1.8 0 3.05-1.2 1.3-1.15 1.3-2.85l-.05-.65q1.55.35 2 2.2.3 1.3.2 2.75l-1.5-1.15q.2 1.7-.2 3.05-.35 1.4-1.2 2.45L21 19.85v-.95q-.05-2.05-1.8-3.75l-.2-.2q-.7-.65-1.5-1-.65-.35-.65-1.05"/><path fill="#3f0" d="M35.15 32.15l1.45 2.3q1.05 1.85 2.45 3.1Q40.65 39 41.5 41l.6 1.45q-.7-1.35-2.1-2.3l-2.15-1.75-1.5-2.05-.35-.7-.5-1.3-.45-2.15.1-.05m8.5 8.6l-.05.05-1.3-1.75Q41 37.7 39.5 36.5q-1.3-1-2.25-2.25l-.05-.1-1.05-1.45-2.55-4.35 3.55 3.95 2.45 2.4.65.6 2.05 2.65 1.35 2.8"/><path fill="url(#a)" d="M21.8 1.15q1.25.7 1.95 2.05.5 1.1 2.15.8 2.15-.45 4.25.05L34.3 5.2q2.15.75 4.05 1.95l-4.65.1q1.6.55 2.9 1.5 2.3 1.6 3.65 4.4v.05l1.15 2.15.35.65-.55-.25q-2.75-1.2-6.05-2.05 2.25 2.1 3.6 4.7l1.15 2.8q1.9 1.9 2.35 4.35l.05.35v1.55l.15 1.55q.2.95.75 1.85.75 1.25.35 2.4L42.6 35l-.4.15-3.15-4.2-2.2-2.25-.6-.4q-1.2-.9-2.65-1.35l-.6-.15-2.4-.15.4.75.6 1.65.65 3.6.25 3 .3 2.55.2.35.4.35 2.05 1.25 2.35 1.4q.45 1.2-.1 2.25l-.55.7q-1.7 1.65-4.05 1.7l-.25.05q-.35.05-.65.35l-1.95 1.3-3.25.05-3.4-.05h-1.15v.1l-.8-.05q-1.4-.05-2.5.6l-2.25 1.2-1.55.65-3.65.85q-1.05-.1-1.95-.65l2.45-2.3-3.05-.9q1.3-3.1.75-6.3l-.55-2.65q-.45-1.5 1.3-.55l3.2 1.65q2 .9 4.15 1.1 1.7 1.45 4 .9l1.35-1.05q1.55-1.6 1.25-3.95-.25-1.75-1.1-3.25l1.05-.6 1.1-1.2 1.7 4 .65 1.25.2-1.35-.3-4.45-.35-2.35-.3-1.75.1-.7v-.1q.4-1.1 1.15-2.25 1.3-1.85.7-3.35l-.05-.1q.55-1.1.65-2.4l-.1-3.9q0 1.55-.5 2.9l-.5 1q-1.05 1.8-2.95 3.2-1.7 1.25-3.65 2.15l-3.7 1.5-.05-.05-.45-.15-3.05-.2-1.1.1-3.35.05-4.2-.05v-.1q2.3.1 4.1-1.05h.05l3.4-2.5.65.2h.95l1.1-.4.2-.15q1.45-.95.75-2.25l-.75-1-2.3-1.9-1.05-.75-1.05-.6q-.8-.45-1.7-.75l-1.1-.4-2.5-.9-.5-.95q-.55-1.15-.8-2.4-.2-1.15.45-1.85l2-2.3 5.35-3.4Q15.4-.2 17.7.05q2.1.2 3.85 1.05l.25.05m1.85 7.75l-.2-.7-.05-.05q-.3-.8-1-1.45-1.25-1.15-3.05-1.15-1.85 0-3.1 1.15-1.15 1.1-1.3 2.55v.3q0 .85.35 1.6.3.65.95 1.25l.6.5q0 .7.65 1.05.8.35 1.5 1l.2.2q1.75 1.7 1.8 3.75v.95l1.95-1.65q.85-1.05 1.2-2.45.4-1.35.2-3.05l1.5 1.15q.1-1.45-.2-2.75-.45-1.85-2-2.2m-6.1 34l2.1-.2q1.25-.4 2.35-1.15-1.1.75-2.35 1.15l-2.1.2"/><path fill="url(#b)" d="M11.85 19.65l-.7-.6.1-.2-.55-.35-.25-.2-.15-.15-2.55-2.65-.7-.6-2.75-2.15L.55 10.4Q.05 10 .4 9.35l.1-.25 1.3.4q1.85.75 3.75 1.75l.05.05 1.35.65 2.5.9 1.1.4q.9.3 1.7.75l1.05.6 1.05.75 2.3 1.9.75 1q.7 1.3-.75 2.25l-.2.15-1.1.4h-.95l-.65-.2-.3-.15-.25-.15-1.35-.9"/><path fill="url(#c)" d="M11.85 19.65l1.35.9.25.15.3.15-3.4 2.5h-.05Q8.5 24.5 6.2 24.4H6q-2.2-.1-4.3-.9.75-.95 2.1-1.05l2.4-.5L8.5 21q1.6-.75 3.35-1.35"/><path fill="url(#d)" d="M23.65 8.9l.05.65q0 1.7-1.3 2.85-1.25 1.2-3.05 1.2-1.45 0-2.5-.7l-.6-.5q-.65-.6-.95-1.25-.35-.75-.35-1.6v-.3q.15-1.45 1.3-2.55 1.25-1.15 3.1-1.15 1.8 0 3.05 1.15.7.65 1 1.45l.05.05.2.7m-3.05-.85q-.65-.6-1.55-.6t-1.55.6q-.4.4-.55.9l-.05.55.15.9.45.55q.65.6 1.55.6t1.55-.6q.6-.6.6-1.45l-.1-.7-.2-.35-.3-.4"/><path fill="url(#e)" d="M21.75 1.1h.05l8.5-.9 4.4.25q1.95.25 3.5 1.25l-3.4-.5-3.85.6-.8.25q3.1-.4 5.55 1.2 2.35 1.5 4.2 3.65 2.75 3.15 5.05 6.7l1.55 2.05-4.65-4.4-1.2-.9-1.75-.7q1.55 1.1 2.75 2.85l2.2 3.6q1.05 1.8 1.75 3.75.7 2.15 1 4.4l.15 3.85q0-1.3-.8-2.95l-1.25-2.2-2.85-3.85-.55-.6q.8 1 1.25 2.55l1.1 3.65.85 2q.65 1.2.65 2.45 0 1.15 1.8 2.75-2.3-.85-2.8-1.4 1.1 1.9 1.25 3.85.15 2.25-.65 4.25v.1l-.2.35-.45-.9-1.75-2.75-.15-.25.4-.15.95-1.75q.4-1.15-.35-2.4-.55-.9-.75-1.85l-.15-1.55V25.9l-.05-.35q-.45-2.45-2.35-4.35l-1.15-2.8q-1.35-2.6-3.6-4.7 3.3.85 6.05 2.05l.55.25-.35-.65-1.15-2.15v-.05q-1.35-2.8-3.65-4.4-1.3-.95-2.9-1.5l4.65-.1q-1.9-1.2-4.05-1.95l-4.15-1.15q-2.1-.5-4.25-.05-1.65.3-2.15-.8-.7-1.35-1.95-2.05l-.05-.05m22.2 29.05l.2.35-.2-.35M40.9 43.6l-1.55 1.2h-.1q-1.8 1.25-3.7 2.05l-.5.15-3.65.8-1.15.1 1.95-1.3q.3-.3.65-.35l.25-.05q2.35-.05 4.05-1.7l.55-.7q.55-1.05.1-2.25l3.1 2.05"/><path fill="url(#f)" d="M20.6 8.05l.3.4.2.35.1.7q0 .85-.6 1.45-.65.6-1.55.6t-1.55-.6l-.45-.55-.15-.9.05-.55q.15-.5.55-.9.65-.6 1.55-.6t1.55.6"/><path fill="url(#g)" d="M23.5 33.3l-2.8-4.25q-.55-.85-.95-2.05l-.4-1.75 1.5.2q3.1-.05 5.45-1.85 1.75-1.35 2.75-3.1l.05-.1.1.05q.6 1.5-.7 3.35-.75 1.15-1.15 2.25v.1l-.1.7.3 1.75.35 2.35.3 4.45-.2 1.35-.65-1.25-1.7-4-1.1 1.2-1.05.6"/><path fill="none" stroke="#000" stroke-width=".05" stroke-linecap="round" stroke-linejoin="round" d="M46.75 28.1v.25m-2.2 10.7l.05.05 1.5 3.8.95 4.4.15 2.5v.7l-.2-.7-1.1-2.2-1.3-1.85q-.05 1.15-.5 2.25l-.5.95-.35-1.5-.15-.55-.6-1.3-1.6-2m-17.3 4.3l-.85.1h-.3l-.8-.05m-9.95 3.3l-1.75.1q-2.95.1-5.2-.85 1.85-.15 2.7-1.6l-1.8.05q-3 .15-5.65-.6 1.45-.2 2.75-.8 1.35-.65 2.2-1.75.9-1.2.9-2.7 0-1.95-.8-3.7-.95-2.15-2.6-3.2l3.65-.1-.5-.5-2.35-1.55 4 .15 1.75.35q1.2.35 2.3 1.05l.95.65m.85.6l1.55 1.1 3.35 2.7M21.55 1.1h.2m.05.05l-.25-.05M40.6 41.55l1.1 1.1M35.05 32.2l.45 2.15.5 1.3.35.7 1.5 2.05L40 40.15q1.4.95 2.1 2.3L41.5 41q-.85-2-2.45-3.45-1.4-1.25-2.45-3.1l-1.45-2.3-.2-.35-.8-1.05m9.5 10l-.05.05.2.4-.15-.45-1.35-2.8-2.05-2.65-.65-.6-2.45-2.4-3.55-3.95 2.55 4.35 1.05 1.45.05.1q.95 1.25 2.25 2.25 1.5 1.2 2.8 2.55l1.3 1.75m-1.4-5.65l-3.15-4.2-2.2-2.25-.6-.4q-1.2-.9-2.65-1.35l-.6-.15-2.4-.15.4.75.6 1.65.65 3.6.25 3 .3 2.55.2.35.4.35 2.05 1.25 2.35 1.4"/><path fill="none" stroke="#8E0000" stroke-width=".05" stroke-linecap="round" stroke-linejoin="round" d="M11.85 19.65l-.7-.6M.4 9.35l.1-.25m9.8 9.05l.15.15m.8.55l-.1.2"/><path fill="none" stroke="#8500FF" stroke-width=".05" stroke-linecap="round" stroke-linejoin="round" d="M8.1 4.45l5.35-3.4Q15.4-.2 17.7.05q2.1.2 3.85 1.05"/><path fill="none" stroke="#1EFF00" stroke-width=".05" stroke-linecap="round" stroke-linejoin="round" d="M40.9 43.6l-1.55 1.2h-.1q-1.8 1.25-3.7 2.05l-.5.15-3.65.8-1.15.1m7.55-6.35l3.1 2.05"/><path fill="none" stroke="#A30000" stroke-width=".05" stroke-linecap="round" stroke-linejoin="round" d="M16.85 12.9q1.05.7 2.5.7 1.8 0 3.05-1.2 1.3-1.15 1.3-2.85l-.05-.65-.2-.7-.05-.05q-.3-.8-1-1.45-1.25-1.15-3.05-1.15-1.85 0-3.1 1.15-1.15 1.1-1.3 2.55v.3q0 .85.35 1.6.3.65.95 1.25l.6.5m3.75-4.85q-.65-.6-1.55-.6t-1.55.6q-.4.4-.55.9l-.05.55.15.9.45.55q.65.6 1.55.6t1.55-.6q.6-.6.6-1.45l-.1-.7-.2-.35-.3-.4"/><path fill="none" stroke="#0C00FF" stroke-width=".05" stroke-linecap="round" stroke-linejoin="round" d="M18 40.65q1.7 1.45 4 .9l1.35-1.05"/><path fill="none" stroke="#00C618" stroke-width=".05" stroke-linecap="round" stroke-linejoin="round" d="M23.35 40.5q1.55-1.6 1.25-3.95-.25-1.75-1.1-3.25"/><path fill="none" stroke="#999" stroke-width=".05" stroke-linecap="round" stroke-linejoin="round" d="M11.15 19.05l-.7.8-.7-1.35-.7 1.7-.9-2.05q-1.4.7-1.8 2.25-1.1-2.1-.85-4.7l.05-.05-.15.1q-1.6 1.4-1.7 3.75v.1l-.05-.1-.3-1.25-.65-5.2q-1.4 2-1.6 4.65-.55-1.25-.55-2.85V10.4l3.75 2.35 2.75 2.15.7.6 2.55 2.65m.85.9l-.7-.75"/><path fill="none" stroke="#8B0000" stroke-width=".05" stroke-linecap="round" stroke-linejoin="round" d="M30.25 47.9l-3.25.05-3.4-.05h-1.15m-.8.05q-1.4-.05-2.5.6l-2.25 1.2-1.55.65-3.65.85"/><path fill="none" stroke="#4E00FF" stroke-width=".05" stroke-linecap="round" stroke-linejoin="round" d="M22 41.55q-1.1.75-2.35 1.15l-2.1.2"/><path fill="none" stroke="#820000" stroke-width=".05" stroke-linecap="round" stroke-linejoin="round" d="M6 24.4q-2.2-.1-4.3-.9.75-.95 2.1-1.05l2.4-.5L8.5 21q1.6-.75 3.35-1.35M6.2 24.4H6m.2 0q2.3.1 4.1-1.05h.05l3.4-2.5-.3-.15-.25-.15-1.35-.9"/><path fill="none" stroke="#00FF07" stroke-width=".05" stroke-linecap="round" stroke-linejoin="round" d="M18.35 24.75l-.45-.15-3.05-.2-1.1.1-3.35.05-4.2-.05-.2-.1"/><path fill="none" stroke="#D20202" stroke-width=".05" stroke-linecap="round" stroke-linejoin="round" d="M19.35 25.25l-1.1-.4.15-.05 3.7-1.5q1.95-.9 3.65-2.15 1.9-1.4 2.95-3.2l.5-1q.5-1.35.5-2.9l.1 3.9q-.1 1.3-.65 2.4l-.05.05-.05.1q-1 1.75-2.75 3.1-2.35 1.8-5.45 1.85l-1.5-.2"/><path fill="none" stroke="#E30202" stroke-width=".05" stroke-linecap="round" stroke-linejoin="round" d="M.55 10.4Q.05 10 .4 9.35m.1-.25q.6-.9 1.9-1.45Q4.35 6.8 6.3 5.6l1.8-1.15m-1.15 7.5L5.6 11.3l-.05-.05q-1.9-1-3.75-1.75L.5 9.1m13.25 11.75l.65.2h.95l1.1-.4.2-.15q1.45-.95.75-2.25l-.75-1-2.3-1.9-1.05-.75-1.05-.6q-.8-.45-1.7-.75l-1.1-.4-2.5-.9"/><path fill="none" stroke="#3924FD" stroke-width=".05" stroke-linecap="round" stroke-linejoin="round" d="M23.5 33.3l-2.8-4.25q-.55-.85-.95-2.05l-.4-1.75"/><path fill="none" stroke="#F96706" stroke-width=".05" stroke-linecap="round" stroke-linejoin="round" d="M21.75 1.1h.05l8.5-.9 4.4.25q1.95.25 3.5 1.25l-3.4-.5-3.85.6-.8.25q3.1-.4 5.55 1.2 2.35 1.5 4.2 3.65 2.75 3.15 5.05 6.7l1.55 2.05-4.65-4.4-1.2-.9-1.75-.7q1.55 1.1 2.75 2.85l2.2 3.6q1.05 1.8 1.75 3.75.7 2.15 1 4.4l.15 3.85q0-1.3-.8-2.95l-1.25-2.2-2.85-3.85-.55-.6q.8 1 1.25 2.55l1.1 3.65.85 2q.65 1.2.65 2.45 0 1.15 1.8 2.75-2.3-.85-2.8-1.4l-.2-.35m-1.75 5l.15.25 1.75 2.75.45.9.2-.35v-.1q.8-2 .65-4.25-.15-1.95-1.25-3.85"/></svg>