<svg xmlns="http://www.w3.org/2000/svg" viewBox="0 0 37.4 48.4" width="37.4" height="48.4"><defs><radialGradient gradientUnits="userSpaceOnUse" r="819.2" cx="0" cy="0" spreadMethod="pad" gradientTransform="matrix(.004 0 0 .01 14.2 7)" id="a"><stop offset=".314" stop-color="#6D6D6D"/><stop offset="1"/></radialGradient><radialGradient gradientUnits="userSpaceOnUse" r="819.2" cx="0" cy="0" spreadMethod="pad" gradientTransform="matrix(0 -.002 .011 .004 16.45 15.8)" id="b"><stop offset=".314" stop-color="#6D6D6D"/><stop offset="1"/></radialGradient></defs><path d="M11.35 4.15h.05l.8 1.1 1.05 2 .35 1.4q.15-.65.9-.5l3.9.15 2.25-.6.75-.65 1.6.15.4-.05-.35.65q-.75 2.05-2.5 2.15h-.3l-5.5.3q-1.2.2-2.3.8L9.3 13l.15-2.45q.2-1.05.9-1.65l1-.9.65-1.3-.65-2.55m.7 3.25L12 6.7l.05.7m11.5 14.2q.35.85 1.15 1.25l2.4.9.1.05v-.05l1.6.55 1.25 1 .9 1.15-2.1-.6-2.65-.3.75 1 .95.9-.1-.05-1.2-.1-1.6-.05 1.2 1.3q-2.35.2-4.7-.6l10.6 7.35.2.05 3.6 3.5 1.2 1.45-1.45-1.05-3-1.35-2.15-1.55q-1.65-.85-3.4-1.05l-3.75-.15q2.35 1.4 4.45 3.5l2.3 2.85.05.05v.05h-.05l-2.7.45-4.55-2.45-2.25-1.15.7 2.5-.7-.45q.45 1.4 1.85 2.25l5.05 3.5h-1.6l-6.1-1.3-.6-.5q-1.55-1.2-2.05-3.3l-1.5-6-.1-1.5q-.35-.05-.5.9l-.1.65-.1 5.25.3 2.8-1.1-.45.35 3.4-.85-1q-1.65-1.65-1.9-4.25l-.35.85-.45.55.05-1.75-.15-1.4-.55 1.7-.5.8.4-3.55-.35.4-3.25 4.5 2.1-9.5-1 2.3-.3 1.25q-.35 1.7-1.45 2.8l1.2-5.35v-.15l-.8.9-.95 1.55v.05l-.05.1v-.1l1.1-4.75.15-.4-1.05.25q-.65.15-1.2.45l-.25.1-.55.35-.05-.05.55-1.45.35-1.55 2.25-2.2 1.05-1.4.05-.15-.1.05-1.85.1h-.05v-.05l-.65.1-.7-.05-.45-.3q1.35-.65 1.7-1.9h-.7L4.9 24l1.6-.65.7-.45L9 21.2l.8-1.45.55.1q.6.15 1.15.6l1.6-.05.55-.65 1.45 1.45q.75.85.95 2.2 0-2.3-.7-3.8.95.45 1.7 1.45 2.3 3.05 2.8 7.05v.05l.15 1.6.15-1.5V28q.3-3.55-.25-7l2.05 3.65q.3-1.3.1-2.6l-.2-1.3q.45.7 1.2.85h.5m-15 3.35l-.9 1.15.9-1.15M9.5.9L9.3.55 8.85 0l1.7.5 1.35.25.7.05.4.15L15.1 3l.65.9.2.4-.6 1.15-.85-1.35-1.25-1.3-1.95-1.2L9.5.9m0 22.6q.75.55 1.5.7l1.5-.2.35-.2-.6.95Q10.8 26.9 8.8 28.9l-1.05 1.05-.75 1.3-.1.55.2.25q.85-1.35 2.05-2.4l.85-.75 1.5-1 .45-.55 1.4-2.15 1.25-1.4q-.9.1-1.6-.35l-.9-.65-.6-.75-.45.55q-.8.7-2.05.55l.5.35m6.65 4.6l.1.6.05.1.6 1.85q.7 1.6 1.75 2.95l.5.6.05.1.25.25q1.3 1.4 2.85 2.4l.75.35q-.8-.5-1.45-1.45l-1.65-2.5-1.05-1.2 3.45.45-4.3-2.6-1.25-1.2-.1-.15-.45-.55-.2-.3.1.3m7.2-1.4l1.65.55-1.65-.55M12.4 36.8l.05.75.35 2.3.15-2.15v-.4l-.4-4.75-.1.85-.05 3.4"/><path fill="#333" d="M12.4 36.8l.05-3.4.1-.85.4 4.75v.4l-.15 2.15-.35-2.3-.05-.75m18.55-10.35l.05.1 1.1 1.4.7 1.2 1.7 4.5.25.9.05.55h-.1l-.15-.55L33.8 33l-1.6-2.45-.15-.15-1-1.25-.6-.3-1.95-1.25-.6-.15-.95-.9-.75-1 2.65.3 2.1.6m-9.1-5.7l.2 1.3q.2 1.3-.1 2.6L19.9 21q.55 3.45.25 7v.25l-.15 1.5-.15-1.6v-.05q-.5-4-2.8-7.05-.75-1-1.7-1.45.7 1.5.7 3.8-.2-1.35-.95-2.2l-1.45-1.45.4-.5q.35-.5.9-.5l1.5.15q1.15.25 1.95 1.3l.3-.9.5-.2q1.55.05 2.65 1.65m-17 3.3h.7q-.35 1.25-1.7 1.9l.45.3v.1L4 26.3q-.85-.05-1.5.45l-.65.4-1.1 1 1.3-2.2 1.25-1.1 1.55-.8m4.65-.55l-.5-.35q1.25.15 2.05-.55l.45-.55.6.75.9.65q.7.45 1.6.35l-1.25 1.4-1.4 2.15-.45.55-1.5 1-.85.75q-1.2 1.05-2.05 2.4l-.2-.25.1-.55.75-1.3L8.8 28.9q2-2 3.45-4.15l.6-.95-.35.2-1.5.2q-.75-.15-1.5-.7m6.75 4.6l.45.55.1.15 1.25 1.2 4.3 2.6-3.45-.45 1.05 1.2 1.65 2.5q.65.95 1.45 1.45l-.75-.35q-1.55-1-2.85-2.4l-.25-.25-.05-.1-.5-.6q-1.05-1.35-1.75-2.95l-.6-1.85-.05-.1-.1-.6h.1m-1.1 15.15l-.3-2.8.1-5.25.1-.65q.15-.95.5-.9l.1 1.5 1.5 6q.5 2.1 2.05 3.3l.6.5q-2.4-.7-4.65-1.7m12.35 3l-5.05-3.5q-1.4-.85-1.85-2.25l.7.45-.7-2.5 2.25 1.15 4.55 2.45q-2.6.25-4.95-.7l.35.5.45.4 4.25 1.65q2.15.9 4.25 1.15l-.65.15q-1.05.15-2 .6l-1.6.45m2.65-4.65v-.05l-.05-.05-2.3-2.85q-2.1-2.1-4.45-3.5l3.75.15q1.75.2 3.4 1.05l2.15 1.55-3.7-.7.85.35 5.4 3.6 1.35 1.15.85 1.45-.2-.2-.25-.1-.6-.35q-1.15-.75-2.45-1l-3.25-.55-.5.05m1.95-6.3l-10.6-7.35q2.35.8 4.7.6l-1.2-1.3 1.6.05.55.25.3.15 1.1.85.3.35.2.15.35.55 1.6 1.25 1.9 2.25.2.2-3.85-1.8-2.1-1.3 2 2.25.65.6.3.2.55.45.75.85.75.65-.05.1M3.3 33l-1.35 1.55L0 37.75.05 37l.5-2.45L.8 34l1-1.7L2.95 31l1.15-.95.2-.2-.35 1.55-.55 1.45-.1.15m2.55 6.9q1.1-1.1 1.45-2.8l.3-1.25 1-2.3-2.1 9.5-3.45 3.65 2.45-5.6.35-1.2m3.85 1.8l.5-.8.55-1.7.15 1.4-.05 1.75.45-.55.35-.85q.25 2.6 1.9 4.25l.85 1 .55 2.15-1.3-1.1q-1.05-1-1.65-2.4l-1-2.2-1.75 4 .45-4.95"/><path fill="#f00" d="M13.25 11.9v-.1l.65-.2 1.45-.05.45.4-2.55-.05m6.6-.85l-.7.6L18 12q-.55.05-1-.3.7-.45 1.55-.5l1.3-.15"/><path fill="#fff" d="M18.45 13.1l1.3-.65-.25.65-.05.05-.05.2-.55 1.55-.1.55-.25 1.05-.6.4-3.6-.3-.3-.3-.9-2.2-.05-.3-.05-.7q.15-.2.35 0l1.7.4 1.65.15 1.5-.45.25-.1m-3.05 1.65q0 .4.15.8l1.4-.85.1 1.2.8-1.5V16l.45-1.25v1.05l.45-.35-.45.35v-1.05L17.85 16v-1.6l-.8 1.5-.1-1.2-1.4.85q-.15-.4-.15-.8l-.05 1.05-.9-1.4v.35l-.15.95-1.2-1.6 1.2 1.6.15-.95v-.35l.9 1.4.05-1.05v-.25.25"/><path fill="url(#a)" d="M21.4 7.05l-.75.65-2.25.6-3.9-.15q-.75-.15-.9.5l-.35-1.4-1.05-2-.8-1.1h-.05V4.1l-1.7-3L9.5.9l1.8.7 1.95 1.2 1.25 1.3.85 1.35.6-1.15.75 1.8 1.75-.05 2.95 1m-4.3-.3l-.4-.65.4.65"/><path fill="url(#b)" d="M20.25 9.95v1.9L20.4 13l.2.7v.05l.75 1.75.2.35 1.5 3.25.5 1.8v.15l.15.15.6.5-.5-.1h-.75q-.75-.15-1.2-.85-1.1-1.6-2.65-1.65l-.5.2-.3.9q-.8-1.05-1.95-1.3l-1.5-.15q-.55 0-.9.5l-.4.5-.55.65-1.6.05q-.55-.45-1.15-.6l-.55-.1q-.8-.05-1.2.75l.6-1.25L10.55 18l.3-.6v-.05l1.15-2.5q.4-.9.35-2l.1-1.8q1.1-.6 2.3-.8l5.5-.3m-7.15 1.9l.15.05 2.55.05-.45-.4-1.45.05-.65.2-.15.05h-.35.35m6.75-.8l-1.3.15q-.85.05-1.55.5.45.35 1 .3l1.15-.35.7-.6m-1.4 2.05l-.25.1-1.5.45-1.65-.15-1.7-.4q-.2-.2-.35 0l.05.7.05.3.9 2.2.3.3 3.6.3.6-.4.25-1.05.1-.55.55-1.55.05-.2.05-.05.25-.65-1.3.65"/><path fill="none" stroke="#333" stroke-width=".05" stroke-linecap="round" stroke-miterlimit="3" d="M11.35 4.15L12 6.7l.05.7m9.35-.35l1.6.15.4-.05-.35.65q-.75 2.05-2.5 2.15h-.3v1.9L20.4 13l.2.7v.05l.75 1.75.2.35 1.5 3.25.5 1.8v.15l.15.15.6.5-.5-.1h-.25q.35.85 1.15 1.25l2.4.9h.1l1.6.55 1.25 1 .9 1.15.05.1 1.1 1.4.7 1.2 1.7 4.5.25.9.05.55v1M23.55 21.6h-.5q-.75-.15-1.2-.85-1.1-1.6-2.65-1.65l-.5.2-.3.9q-.8-1.05-1.95-1.3l-1.5-.15q-.55 0-.9.5l-.4.5-.55.65-1.6.05q-.55-.45-1.15-.6l-.55-.1L9 21.2l-1.8 1.7-.7.45-1.6.65-.05.05-1.55.8-1.25 1.1-1.3 2.2 1.1-1 .65-.4q.65-.5 1.5-.45l.3.05.7-.05.65-.05h.05l1.85-.1.1-.05.9-1.15m7.4-20.65l.75 1.8 1.75-.05 2.95 1M15.95 4.3l-.2-.4-.65-.9L13 .95 12.6.8l-.7-.05L10.55.5 8.85 0l.45.55.2.35m1.85 3.25V4.1l-1.7-3L9.5.9m2.95 10.15L9.3 13l.15-2.45q.2-1.05.9-1.65l1-.9.65-1.3m1.25 5.2l-.15-.05h-.35m.5.05l2.55.05-.45-.4-1.45.05-.65.2-.15.05m7.15-1.9l-5.5.3q-1.2.2-2.3.8l-.1 1.8q.05 1.1-.35 2l-1.15 2.5v.05l-.3.6-1.35 1.25-.6 1.25q.4-.8 1.2-.75m10.05-8.7l-.7.6L18 12q-.55.05-1-.3.7-.45 1.55-.5l1.3-.15M16.7 6.1l.4.65m1.35 6.35l1.3-.65-.25.65-.05.05-.05.2-.55 1.55-.1.55-.25 1.05-.6.4-3.6-.3-.3-.3-.9-2.2-.05-.3-.05-.7q.15-.2.35 0l1.7.4 1.65.15 1.5-.45.25-.1m-5.35 1l1.2 1.6.15-.95v-.35l.9 1.4.05-1.05v-.25m3.35.95l-.45.35v-1.05L17.85 16v-1.6l-.8 1.5-.1-1.2-1.4.85q-.15-.4-.15-.8m-.25 28.5q2.25 1 4.65 1.7l6.1 1.3h1.6m-.1-4.2l2.7-.45h.05m2.5-3.7l3 1.35 1.45 1.05-1.2-1.45-3.6-3.5m-7.3-8.1l-1.65-.55M4.3 29.85l2.25-2.2 1.05-1.4.05-.15M4.3 29.85l-.2.2-1.15.95-1.15 1.3-1 1.7-.25.55L.05 37l-.05.75 1.95-3.2L3.3 33m.15-.1l-.15.1m1.95 4v-.1l1.1-4.75.15-.4-1.05.25q-.65.15-1.2.45l-.25.1-.55.35m2.4 7l1.2-5.35v-.15l-.8.9-.95 1.55v.05l-.05.1-.1.25m.7 2.65l-.35 1.2-2.45 5.6 3.45-3.65 3.25-4.5.35-.4-.4 3.55-.45 4.95 1.75-4 1 2.2q.6 1.4 1.65 2.4l1.3 1.1-.55-2.15-.35-3.4 1.1.45m12.75-15.8l.6.15 1.95 1.25.6.3 1 1.25.15.15L33.8 33l.75 1.55.15.55v.15l.1.6m-2.65-.65l.15.15m-5.7-8.05l.55.25.3.15 1.1.85.3.35.2.15.35.55 1.6 1.25 1.9 2.25.2.2-3.85-1.8-2.1-1.3 2 2.25.65.6.3.2.55.45.75.85.75.65m-4.25-7.75l-.1-.05-1.2-.1-1.6-.05m7.65 10.65l-3.7-.7.85.35 5.4 3.6 1.35 1.15.85 1.45-.2-.2-.25-.1-.6-.35q-1.15-.75-2.45-1l-3.25-.55-.5.05m-2.75.45q-2.6.25-4.95-.7l.35.5.45.4 4.25 1.65q2.15.9 4.25 1.15l-.65.15q-1.05.15-2 .6l-1.6.45"/></svg>