<svg xmlns="http://www.w3.org/2000/svg" viewBox="0 0 45.1 49.4" width="45.1" height="49.4"><defs><radialGradient gradientUnits="userSpaceOnUse" r="819.2" cx="0" cy="0" spreadMethod="pad" gradientTransform="matrix(.03 0 0 .03 19.25 28.55)" id="a"><stop offset=".035" stop-color="#300"/><stop offset=".49" stop-color="#69f"/><stop offset="1"/></radialGradient><radialGradient gradientUnits="userSpaceOnUse" r="819.2" cx="0" cy="0" spreadMethod="pad" gradientTransform="matrix(.012 0 0 .012 9.4 15.85)" id="b"><stop offset="0" stop-color="#9C0000"/><stop offset=".349" stop-color="#336"/><stop offset=".765"/></radialGradient><radialGradient gradientUnits="userSpaceOnUse" r="819.2" cx="0" cy="0" spreadMethod="pad" gradientTransform="matrix(.008 0 0 .008 3.85 19.35)" id="c"><stop offset="0" stop-color="#9C0000"/><stop offset=".349" stop-color="#336"/><stop offset=".765"/></radialGradient><radialGradient gradientUnits="userSpaceOnUse" r="819.2" cx="0" cy="0" spreadMethod="pad" gradientTransform="matrix(.011 0 -.001 .016 8.95 18.5)" id="d"><stop offset="0" stop-color="#9C0000"/><stop offset=".349" stop-color="#336"/><stop offset=".906"/></radialGradient><radialGradient gradientUnits="userSpaceOnUse" r="819.2" cx="0" cy="0" spreadMethod="pad" gradientTransform="matrix(.007 0 0 .007 9.3 18.65)" id="e"><stop offset="0" stop-color="#9C0000"/><stop offset=".349" stop-color="#336"/><stop offset=".765"/></radialGradient><radialGradient gradientUnits="userSpaceOnUse" r="819.2" cx="0" cy="0" spreadMethod="pad" gradientTransform="matrix(.021 0 0 .021 22 39.35)" id="f"><stop offset="0" stop-color="#9C0000"/><stop offset=".349" stop-color="#336"/><stop offset=".765"/></radialGradient><radialGradient gradientUnits="userSpaceOnUse" r="819.2" cx="0" cy="0" spreadMethod="pad" gradientTransform="matrix(.03 0 0 .03 19.25 28.55)" id="g"><stop offset=".035" stop-color="#300"/><stop offset=".702" stop-color="#370000"/><stop offset="1"/></radialGradient><radialGradient gradientUnits="userSpaceOnUse" r="819.2" cx="0" cy="0" spreadMethod="pad" gradientTransform="matrix(.033 0 0 .033 26.75 24.95)" id="h"><stop offset="0" stop-color="#9C0000"/><stop offset=".545" stop-color="#f00"/><stop offset="1"/></radialGradient><radialGradient gradientUnits="userSpaceOnUse" r="819.2" cx="0" cy="0" spreadMethod="pad" gradientTransform="matrix(.031 0 0 .031 25.95 24.3)" id="i"><stop offset=".306" stop-color="#9C0000"/><stop offset=".404" stop-color="#f33"/><stop offset="1"/></radialGradient><radialGradient gradientUnits="userSpaceOnUse" r="819.2" cx="0" cy="0" spreadMethod="pad" gradientTransform="matrix(.031 0 0 .031 25.95 24.3)" id="j"><stop offset="0" stop-color="#9C0000"/><stop offset=".318" stop-color="#370000"/><stop offset="1"/></radialGradient></defs><path fill="#ff6" d="M7.45 23h.1l-.55.5-.3.1q-1 .1-1.85-.45l-.85-.9q-.55-.8-.2-1.55l1.55 1.5q.7.55 1.65.75l.45.05m2.85-.2q-.6.75-1.2.1v-.05l.1-.1q.75-.6.7-1.8l.1-.6.25.25.45 1.1q0 .55-.4 1.1m-1.6 2.1l-.4-.1q-.5.15-.5-.25l.9.35m.65-.1q-.05-.65.45-.7.15.65-.45.7"/><path fill="url(#a)" d="M9.35 24.8q.6-.05.45-.7-.5.05-.45.7m-7.5-13.9L2 11q.7-.7 1.6-.75l1.05.15-.4-.9.2-.45q1.15-.7 2.55-.4 2.55.6 4.55 2.35l.9.85q-.05-.55-.45-1.05l-.65-.8q1.3-.15 2.55.65l1 1.05q.5.95.55 2.05l.05.3.2-.3.25 1.6q.05.95-.5 1.6l-1.1 1.8q.25-.4.95-.3.25 0 .25.35.1 1.1-.4 2.05l-.9 1.65-.25.2.3-.1.4-.05-.55 1.5-.6 1.35-1 1.5q-1.1 1.7-.6 2.75l-.25.1-.2.25-.6 1.65-.1.25.15-.25q.8-1.05 1.6-.1l.3.5q.65 1.95 2.35 3.1l1.15.85q-1.2-2.05.85-3.55.55-.45 1.35-.5l1.05.15q1.25 3.25 4.55 3.6l1.2.05q-1.55-.85-.65-2.15.1-.15.3-.2l.4-.05h.4l.95.2 1.55.7q.85.45 1.5 1.1l.85 1.4.4.85.2-1.95.2-.6q.25 1.65 1.75 2.65 1.35.85 2.9 1.4 1 .3 1.25 1.2v-.65q.5.7.65 1.55.15.95-.25 1.8-.5.95-1.5.65-.95-.25-1.5.45-.4.45-.4 1.15.3 0 .4.45.2 1.1-.9 1.65l-2.05.25-2.65-.35q-1.75-.15-3.25.55l-2.75.7-2.85-.4-.9-.35-.3-.15 1.85-.3q1.2-.05 2.05-.7l-.25.1-.15-.8 6.05-1.1 1.5-.75.8.3.45.35.25-.4.15-.75V41.7l.25-.85.55-.05 1 .1-.7-.3-1.45-.8q-.8-.45-1.65-.75l-1.65-.5-.75-.1-4.15-.45-5.45.4-5.25-.5-.2-.1-.45-.25-.5-.05-3.75-1.9.05.05-2.85-2.35v-.25q.1-.85.6-1.5l.75-1.1.05-.1.9-.65q.6-.5 1.45-.5l1.55-.35.55-.65.75-2.35q.2-.7.05-1.55-.1-.65.25-.95l1-1.3q.9-1.55.35-3.35l-.4-1.85.1-.7q.45-.65 1.45-.15l-.4-.7-1.15-.8q-1.45-.65-2.55-1.75-.7-.65-.75-1.5l-2.25.1.3.35q.5.7.4 1.65h.05l.25.2-.8.7-.2.3.25-.05q.6 0 1.3.6l1.2 1.1.4.9q-.8-.55-1.9-.4l-.3.15.25.05q.95.15 1.7 1.1.35.5.35 1.15l-.7-.75-1.2-.3q.55.45.45 1.2l-.1.85.35 1q.35.5-.05.7-.55.25-.75-.65l-.05.95q.15.55.65.6h.2l-.1.1v.05q.6.65 1.2-.1l.35.9-.05.4-.25 1.35-3.2-.15-.4-.6q-.4-.7-.05-1.1l.3-.1.55-.5h-.1q.3-.6.2-1.4l-.25-.65q.05 1.05-.7.9-.35-.05-.55-.3-.45-.55-.35-1.4.1-.95.85-1.7-.9-.1-1.55.35l-.25.35q-.2.8.2 1.35-1.35-.35-1.75-1.65-.3-1 .8-1.4-1.3-.4-1.85.45-.3.4-.25 1-1.4-1.25-1.5-3-.05-.7.55-1.2.9-.7 2.05-.7l-1.9-.55.1-.3.4-1.85.15-.4m.4 1.65l-.95.6.95-.6M8.7 24.9l-.9-.35q0 .4.5.25l.4.1"/><path fill="url(#b)" d="M14.25 22.5l.9-1.65q.5-.95.4-2.05 0-.35-.25-.35-.7-.1-.95.3l1.1-1.8q.55-.65.5-1.6l-.25-1.6-.2.3-.05-.3q-.05-1.1-.55-2.05l-1-1.05q-1.25-.8-2.55-.65l.65.8q.4.5.45 1.05l-.9-.85Q9.55 9.25 7 8.65q-1.4-.3-2.55.4l-.2.45.4.9-1.05-.15q-.9.05-1.6.75l-.15-.1q.55-1.25 1.6-2.05 2.1-1.6 5-1.3 3 .35 4.85 1.6 2.1 1.4 2.95 3.75.8 2.3.65 5.1-.2 2.65-1.55 4.7l-1 1.5-.2-.15.55-1.5-.4.05-.05-.1"/><path fill="url(#c)" d="M3.4 22.95L1.9 21.5Q.15 19.6 0 16.85q-.1-2.25 1-3.45l.3-.25-.1.3 1.9.55q-1.15 0-2.05.7-.6.5-.55 1.2.1 1.75 1.5 3-.05-.6.25-1 .55-.85 1.85-.45-1.1.4-.8 1.4.4 1.3 1.75 1.65-.4-.55-.2-1.35l.25-.35q.65-.45 1.55-.35-.75.75-.85 1.7-.1.85.35 1.4.2.25.55.3.75.15.7-.9l.25.65q.1.8-.2 1.4L7 22.95q-.95-.2-1.65-.75L3.8 20.7q-.35.75.2 1.55l.85.9q.85.55 1.85.45-.35.4.05 1.1l.4.6-1.05-.5-2.7-1.85"/><path fill="url(#d)" d="M3.4 22.95l2.7 1.85 1.05.5 3.2.15.25-1.35.2.05-.15-.45.6-3.95q.3-3.15-1.45-4.85l-1.65-1.35-.25-.2h-.05q.1-.95-.4-1.65l-.3-.35 2.25-.1q.05.85.75 1.5 1.1 1.1 2.55 1.75l1.15.8.4.7q-1-.5-1.45.15l-.1.7.4 1.85q.55 1.8-.35 3.35l-1 1.3q-.35.3-.25.95.15.85-.05 1.55l-.75 2.35-.55.65-1.55.35q-.85 0-1.45.5l-.9.65-.05.1-.75 1.1q-.5.65-.6 1.5v.25l-.45-.5q-1.5-1.85-1.9-4.6-.3-2.45.9-5.25"/><path fill="url(#e)" d="M10.65 23.7l-.35-.9q.4-.55.4-1.1l-.45-1.1-.25-.25-.1.6q.05 1.2-.7 1.8H9q-.5-.05-.65-.6l.05-.95q.2.9.75.65.4-.2.05-.7l-.35-1 .1-.85q.1-.75-.45-1.2l1.2.3.7.75q0-.65-.35-1.15-.75-.95-1.7-1.1l-.25-.05.3-.15q1.1-.15 1.9.4l-.4-.9-1.2-1.1q-.7-.6-1.3-.6l-.25.05.2-.3.8-.7L9.8 14.9q1.75 1.7 1.45 4.85l-.6 3.95"/><path fill="url(#f)" d="M10.65 23.7l.15.45-.2-.05.05-.4m3.7.5l-.8 1.2.6-1.35.2.15m-2.4 5.45l.6.7.5-.4 1.8-1.15q1.15-.85.95-2.15 1 .75 1.1 2.2.15 1.25-.3 2.25l9.05.25 2.75.65q2.45.75 4.4 2 2.35 1.5 4.05 3.5 1.7 2.05 1.75 4.65.05 2.65-2 4.3-1.8 1.4-4.5 2.05l-5.4.6-10.75-.05-5.15-1.8-2.1-1q-1.5-.8-2.45-2.15-1.05-1.45-.8-3.4l.7-3 .05-.05.1-.6.45-1q.45-.55.95-.4l.3.2-.35-.25 3.75 1.9.5.05.45.25q.15.45-.7 1.6-1.3 1.75-1.25 2.85.05 1.15 1.3 1.95 1.5 1 3.05 1.05l6.15.85h.2l1.5-.2.15.8.25-.1q-.85.65-2.05.7l-1.85.3.3.15.9.35 2.85.4 2.75-.7q1.5-.7 3.25-.55l2.65.35 2.05-.25q1.1-.55.9-1.65-.1-.45-.4-.45 0-.7.4-1.15.55-.7 1.5-.45 1 .3 1.5-.65.4-.85.25-1.8-.15-.85-.65-1.55v.65q-.25-.9-1.25-1.2-1.55-.55-2.9-1.4-1.5-1-1.75-2.65l-.2.6-.2 1.95-.4-.85-.85-1.4q-.65-.65-1.5-1.1l-1.55-.7-.95-.2h-.4l-.4.05q-.2.05-.3.2-.9 1.3.65 2.15l-1.2-.05q-3.3-.35-4.55-3.6l-1.05-.15q-.8.05-1.35.5-2.05 1.5-.85 3.55l-1.15-.85q-1.7-1.15-2.35-3.1l-.3-.5q-.8-.95-1.6.1h-.05l.6-1.65.2-.25.25-.1m2.35-7.05l-.3.1.25-.2.05.1m-1.75 7.75l.55.35q.85.4 1.8.4h1.7-1.7q-.95 0-1.8-.4l-.55-.35M11.4 37.5l.95.3-.95-.3m16 .95l.75.1 1.65.5q.85.3 1.65.75l1.45.8.7.3-1-.1-.55.05-.25.85v1.85l-.15.75-.25.4-.45-.35-.8-.3 1-1.45q-.45-2.6-2.85-3.8l-.2-.1-.7-.25"/><path fill="url(#g)" d="M7.65 35.6l.35.25-.3-.2-.05-.05"/><path d="M35 20.05l.15-.1.2-.2q1.2-1.45 1.45-3.55.25-2.05-.8-3.1-1.1-1.05-2.75-1.8l-.1-.05v.05L33 13.2q-.55 2.25-2.45 3.5l-.5.25q-1 .55-1.7 1.45l-.45.4-.45-.8-.1-.1q-.4-.4-.25-1v-.15l.35-1.2q-.55-.5-.6.25v-.65q0-.6.3-.95 0 .5.4.55.75.1.9-.35.3-.8-.45-1.55.75.5.85 1.35l.65-1.35.05-1.55-.25-.65-1.6-1.9 1.5.3q1.05.8 1.1 1.8l.45-1 .1-1.95L31.9 9q1.1.9 1.25 2.25Q33 9.9 31.9 9l-1.05-1.1q-.75-1.05-.95-2.35l.4-.6q1.25 0 1.8.95l1.15 1.75L34.7 9.2l2.6 2.1.5.55 1.25 1.7q.6.9.55 2.05 0 1.1-.55 2.05l-1.5 1.5-2 .75-.55.15M24.3 18.4l-2.85-3.15q-1.3-1.75-.95-3.95l.1-.7q.5-1.9 1.6-3.75l.7-1.45-.55 1.5-.15 1.55q.6-.7 2-.4L22.9 9.1l-.35.5-.1 1.7q.2 1.3 1.25 2.35l.25-1.05.25-.3q1.5-.65 3.35-.7-1.55.7-2.35 2.2-.7 1.25.45 1.6-.1-.4.05-.55.4.1.45.35l.2 1.95-.05.15-.75.6-.75.2-.5.3m17.6 4.4v-.95l.1-.45.3-.5.55-.55q.35.55.25 1.4l-.1.3-.45.5-.65.25m-10.45-9.4l-.95 1.5q-.5.65-1.35.95l-1.5.75.4.05 1.35-.1.85-.3.6-.45.6-1 .15-1v-.65l-.15.25m-9.4 1.4l.85 1.3q.45.6 1.25.65l1 .05.3-.15-1.5-.95-2.2-1.95.3 1.05"/><path fill="#603" d="M27.9 18.8q-.9.85-1.85.65H26l-1.4-.8-.3-.25.5-.3.75-.2.75-.6.05-.15.15-.35.6.1q-.15.6.25 1l.1.1.45.8m-2.15-.4l.35.45.1-.35-.45-.1m1.05.05h.3l.05-.35-.35.35"/><path fill="#ff6" d="M26.8 18.45l.35-.35-.05.35h-.3m-1.05-.05l.45.1-.1.35-.35-.45m5.85-5v.4l-.15 1-.6 1-.6.45-.85.3-1.35.1-.4-.05 1.5-.75q.85-.3 1.35-.95l.95-1.5h.15m-9.55 1.4l-.3-1.05 2.2 1.95 1.5.95-.3.15-1-.05q-.8-.05-1.25-.65l-.85-1.3"/><path fill="url(#h)" d="M28.55.45Q30.8-.4 33.35.4q2.3.8 4.15 2.15 1.6 1.25 3 3.15l2.7 3.75 1.05 1.85q.55 1.3.75 2.7.3 2.4 0 4.8l-.25 1.25q-.75 2.45-2.15 4.3-1.5 2.05-3.9 3.15l-.4.2q-1.95.85-4.1 1.15l-2.3.25 1.25.5 3.35 1.75q1.7.85 2.6 2.65.9 1.9 1.4 3.95.45 2.1-.3 4.05-.7 1.8-2.1 3.25l-2.2 1.8-1.75 1.05q-1.8 1.25-4.85 1.25l-10.85-.05q-2.75-.05-4.55-1.4l-3.75-2.7q-1.9-1.3-1.8-3.85l.2-1.8.45 2.3.5 1.15 1.5 1.15v-.4q.1-.85.7-1.35-.4.8.15 1.4l4.85 3.55q.8.7 1.85.75 1.25.1 1.5-.8.2-.6-.15-.85l-.8-.6-.95-.45-1.9-.95q-.95-.55-1-1.55v-.1l-.2-.3-.55-.55-.4-.65-.1-.8.05-.85q.25-1.05.85-2-1.6-.25-2.4.4l1.3-2.5.7-.65 3.75-1.9.65-.65.3-.55v-.35q-.05-.3-.35-.3l-2.4.35-.65.3.7-1.15q1.1-1.65 2.95-2.2l2-.05 4 .55 1-.15.15-.05.85-.1h.15q1.2.15 1.95-.45l-.6-.5-.6-.3-2.35-.15 1.2-1.05q.95-.6 2.05-.55l2.2.2 3.85.95 2.15.2q1.2 0 1.5-1.15v-.05L37.8 25l-.6-.25-1.8-.3q.35-.45 1.05-.55l1.95.35q1.65.85 3.05-.45l.45-1q-.4-.6-.45-1.3-.1-.95.4-1.95l1.2-3.05.35-1.85-.15-.95-.55-1.3-.35-.8-.05-.3-.1-1.2-.55.35q-.35.15-.3.5v1.95l.05.25-.1.85q-.3-.3-.3-.85l-.1-1.85-.75-3.35-1-1.85-2-2.25-.45-.4q-1.05-.75-2.3-1.2l.2.4.6.9.4.8.1 1.3-.55-.8-.05-.15-1.25-1.45L32.2 1.9 30.35 1l-1.8-.55m-7.45 24.8l-1.15-.35q-.65-.15-.85-.6-.75-1.9.1-3.75.75-1.8 2.5-2-.6 2.2.55 3.85.7 1.1 1.75 1.75l-.05.05-2.85 1.05m20.8-2.45l.65-.25.45-.5.1-.3q.1-.85-.25-1.4l-.55.55-.3.5-.1.45v.95m-16.75 7.55l-4.6 2.6q-2.15 1.3-3.8 3.25-1.5 1.8-.9 4.4.45 2.05 1.3 3.2l2.05 1.85 1.55.8.8.25 3.6.65 3.65.1 1.95-.9q.85-.5 1.85-.85 1.25-.4 1.75-1.45-.15.7.35 1.1 1.05.8 2.15-.15l1.45-1.65q1.3-2.15.25-4.6l-.7-1.3q.75-.5.25-1.65-.85-2-2.55-2.95.55-.5-.5-1.1-1.6-.85-3.35-.4-.45.15-.5.5.1-.7-.65-1.3L28.6 29.3l-1.45.3-2 .75 2-.75.85 2.8-.35-.15q-1.75-.6-2.5-1.9m6.75-1.25l-3.3.2 3.3-.2"/><path fill="url(#i)" d="M8.55 39.55l.2-1 .65-1.9 2.1-4.35q1.2-2.3 3.15-3.9 1.55-1.3 3.5-2.1l2.95-1.05 2.85-1.05.05-.05q1.25-1.05 3.6-1 2.4 0 4.4-.9l1.6-.95 1.4-1.25.55-.15 2-.75 1.5-1.5q.55-.95.55-2.05.05-1.15-.55-2.05l-1.25-1.7-.5-.55-2.6-2.1-1.45-1.55L32.1 5.9q-.55-.95-1.8-.95l-.4.6-.05-.45.05.45q.2 1.3.95 2.35l-.1 1.95-.45 1q-.05-1-1.1-1.8l-1.5-.3 1.6 1.9.25.65-.05 1.55-.65 1.35q-.1-.85-.85-1.35.75.75.45 1.55-.15.45-.9.35-.4-.05-.4-.55-.3.35-.3.95v.65q.05-.75.6-.25l-.35 1.2v.15l-.6-.1-.15.35-.2-1.95q-.05-.25-.45-.35-.15.15-.05.55-1.15-.35-.45-1.6.8-1.5 2.35-2.2-1.85.05-3.35.7l-.25.3-.25 1.05q-1.05-1.05-1.25-2.35l.1-1.7.35-.5 1.3-1.05q-1.4-.3-2 .4l.15-1.55.55-1.5.15-.3 1.1-1.6.6-.65q1.55-1.55 3.7-2.4h.1l1.8.55 1.85.9 1.65 1.35L35.1 4.7l.05.15.55.8-.1-1.3-.4-.8-.6-.9-.2-.4q1.25.45 2.3 1.2l.45.4 2 2.25 1 1.85.75 3.35.1 1.85q0 .55.3.85l.1-.85-.05-.25v-1.95q-.05-.35.3-.5l.55-.35.1 1.2.05.3.35.8.55 1.3.15.95-.35 1.85-1.2 3.05q-.5 1-.4 1.95.05.7.45 1.3l-.45 1q-1.4 1.3-3.05.45l-1.95-.35q-.7.1-1.05.55l1.8.3.6.25 1.15.8v.05q-.3 1.15-1.5 1.15l-2.15-.2-3.85-.95-2.2-.2q-1.1-.05-2.05.55L26 27.25l2.35.15.6.3.6.5q-.75.6-1.95.45h-.15l-.85.1-.15.05-1 .15-4-.55-2 .05q-1.85.55-2.95 2.2l-.7 1.15.65-.3 2.4-.35q.3 0 .35.3v.35l-.3.55-.65.65-3.75 1.9-.7.65-1.3 2.5q.8-.65 2.4-.4-.6.95-.85 2l-.05.85.1.8.4.65.55.55.2.3v.1q.05 1 1 1.55l1.9.95.95.45.8.6q.35.25.15.85-.25.9-1.5.8-1.05-.05-1.85-.75l-4.85-3.55q-.55-.6-.15-1.4-.6.5-.7 1.35v.4L9.5 43 9 41.85l-.45-2.3"/><path fill="url(#j)" d="M27.15 29.6l1.45-.3 1.95 1.45q.75.6.65 1.3.05-.35.5-.5 1.75-.45 3.35.4 1.05.6.5 1.1 1.7.95 2.55 2.95.5 1.15-.25 1.65l.7 1.3q1.05 2.45-.25 4.6l-1.45 1.65q-1.1.95-2.15.15-.5-.4-.35-1.1-.5 1.05-1.75 1.45-1 .35-1.85.85l-1.95.9-3.65-.1-3.6-.65 3.6.05 4.25-.55 1.65-.75q1.8-1 2.85-2.3.9-1.2.85-2.85-.05-2.3-1.1-3.85-.95-1.35-2.6-2.5-1.3-.9-3.05-1.55l-.85-2.8"/><path fill="none" stroke="#303061" stroke-width=".05" stroke-linecap="round" stroke-miterlimit="3" d="M1.85 10.9l-.15.4-.4 1.85.95-.6m-.4-1.65q.55-1.25 1.6-2.05 2.1-1.6 5-1.3 3 .35 4.85 1.6 2.1 1.4 2.95 3.75.8 2.3.65 5.1-.2 2.65-1.55 4.7l-1 1.5-.8 1.2-1 1.5q-1.1 1.7-.6 2.75l.6.7.5-.4 1.8-1.15q1.15-.85.95-2.15 1 .75 1.1 2.2.15 1.25-.3 2.25l9.05.25 2.75.65q2.45.75 4.4 2 2.35 1.5 4.05 3.5 1.7 2.05 1.75 4.65.05 2.65-2 4.3-1.8 1.4-4.5 2.05l-5.4.6-10.75-.05-5.15-1.8-2.1-1q-1.5-.8-2.45-2.15-1.05-1.45-.8-3.4l.7-3m.05-.05l.1-.6.45-1q.45-.55.95-.4L4.85 33.3l-.45-.5q-1.5-1.85-1.9-4.6-.3-2.45.9-5.25L1.9 21.5Q.15 19.6 0 16.85q-.1-2.25 1-3.45l.3-.25M7.15 25.3l3.2.15.25-1.35.05-.4.6-3.95q.3-3.15-1.45-4.85l-1.65-1.35-.25-.2m8.7 17.75h-1.7q-.95 0-1.8-.4l-.55-.35M22.6 45.9l-1.5.2h-.2l-6.15-.85q-1.55-.05-3.05-1.05-1.25-.8-1.3-1.95-.05-1.1 1.25-2.85.85-1.15.7-1.6l-.95-.3-3.75-1.9.35.25-.3-.2-.05-.05m-.5-10.3l-1.05-.5-2.7-1.85m5.3 1.95l-.9-.35q0 .4.5.25l.4.1m18.7 13.55L23.25 38l-5.45.4-5.25-.5-.2-.1-.45-.25-.5-.05m16 .95l.7.25.2.1q2.4 1.2 2.85 3.8l-1 1.45-1.5.75-6.05 1.1M9.35 24.8q-.05-.65.45-.7.15.65-.45.7"/><path fill="none" stroke="#9D9D00" stroke-width=".05" stroke-linecap="round" stroke-miterlimit="3" d="M7.45 23h.1l-.55.5-.3.1m3.6-.8q-.6.75-1.2.1v-.05l.1-.1q.75-.6.7-1.8l.1-.6.25.25.45 1.1q0 .55-.4 1.1m-2.85.2L7 22.95q-.95-.2-1.65-.75L3.8 20.7q-.35.75.2 1.55l.85.9q.85.55 1.85.45"/><path fill="none" stroke="#641414" stroke-width=".05" stroke-linecap="round" stroke-miterlimit="3" d="M28.55.45Q30.8-.4 33.35.4q2.3.8 4.15 2.15 1.6 1.25 3 3.15l2.7 3.75 1.05 1.85q.55 1.3.75 2.7.3 2.4 0 4.8l-.25 1.25q-.75 2.45-2.15 4.3-1.5 2.05-3.9 3.15l-.4.2q-1.95.85-4.1 1.15l-2.3.25 1.25.5 3.35 1.75q1.7.85 2.6 2.65.9 1.9 1.4 3.95.45 2.1-.3 4.05-.7 1.8-2.1 3.25l-2.2 1.8-1.75 1.05m-25.6-8.55l.2-1 .65-1.9 2.1-4.35q1.2-2.3 3.15-3.9 1.55-1.3 3.5-2.1l2.95-1.05-1.15-.35q-.65-.15-.85-.6-.75-1.9.1-3.75.75-1.8 2.5-2-.6 2.2.55 3.85.7 1.1 1.75 1.75m9.15-12.9v.05L33 13.2q-.55 2.25-2.45 3.5l-.5.25q-1 .55-1.7 1.45l-.45.4q-.9.85-1.85.65H26l-1.4-.8-.3-.25-2.85-3.15q-1.3-1.75-.95-3.95l.1-.7q.5-1.9 1.6-3.75l.7-1.45.15-.3 1.1-1.6.6-.65q1.55-1.55 3.7-2.4h.1m4.6 10.8Q33 9.9 31.9 9l-1.05-1.1q-.75-1.05-.95-2.35l-.05-.45m-4.1 13.3l.35.45.1-.35-.45-.1m1.05.05h.3l.05-.35-.35.35m-2.85 5.75l-2.85 1.05m.45 21.45l-.8-.25-1.55-.8-2.05-1.85q-.85-1.15-1.3-3.2-.6-2.6.9-4.4 1.65-1.95 3.8-3.25l4.6-2.6 2-.75 1.45-.3 3.3-.2M21.55 46.7l3.6.05 4.25-.55 1.65-.75q1.8-1 2.85-2.3.9-1.2.85-2.85-.05-2.3-1.1-3.85-.95-1.35-2.6-2.5-1.3-.9-3.05-1.55l-.35-.15q-1.75-.6-2.5-1.9M24 24.15q1.25-1.05 3.6-1 2.4 0 4.4-.9l1.6-.95 1.4-1.25.15-.1.2-.2q1.2-1.45 1.45-3.55.25-2.05-.8-3.1-1.1-1.05-2.75-1.8l-.1-.05M24 24.15l-.05.05"/><path fill="none" stroke="#6F6F00" stroke-width=".05" stroke-linecap="round" stroke-miterlimit="3" d="M31.45 13.4l-.95 1.5q-.5.65-1.35.95l-1.5.75.4.05 1.35-.1.85-.3.6-.45.6-1 .15-1v-.4m-.15 0l.15-.25v.25m-9.55 1.4l.85 1.3q.45.6 1.25.65l1 .05.3-.15-1.5-.95-2.2-1.95.3 1.05"/></svg>