<svg xmlns="http://www.w3.org/2000/svg" viewBox="0 0 24.3 27.2" width="24.3" height="27.2"><defs><linearGradient gradientUnits="userSpaceOnUse" x1="-819.2" x2="819.2" spreadMethod="repeat" gradientTransform="matrix(-.202 0 0 .202 25.35 -1.3)" id="a"><stop offset="0" stop-color="#ff9"/><stop offset=".427" stop-color="#FF3922"/><stop offset=".894" stop-color="#f00"/></linearGradient><radialGradient gradientUnits="userSpaceOnUse" r="819.2" cx="0" cy="0" spreadMethod="pad" gradientTransform="matrix(-.006 0 0 .006 11.15 9.7)" id="b"><stop offset="0" stop-color="#fff"/><stop offset="0" stop-color="#6fc"/><stop offset=".753" stop-color="#fff"/><stop offset="1"/></radialGradient><radialGradient gradientUnits="userSpaceOnUse" r="819.2" cx="0" cy="0" spreadMethod="pad" gradientTransform="matrix(-.002 0 0 .002 10.6 9.95)" id="c"><stop offset="0" stop-color="#c00"/><stop offset=".212" stop-color="#c00"/><stop offset=".376" stop-color="#fff"/><stop offset=".427" stop-color="#ff0"/><stop offset=".639" stop-color="#fc0"/><stop offset=".788" stop-color="#f60"/><stop offset="1" stop-color="#f00"/></radialGradient><radialGradient gradientUnits="userSpaceOnUse" r="819.2" cx="0" cy="0" spreadMethod="pad" gradientTransform="matrix(-.011 0 0 .011 12.65 18.75)" id="d"><stop offset="0" stop-color="#fff"/><stop offset="0" stop-color="#6fc"/><stop offset=".753" stop-color="#fff"/><stop offset="1"/></radialGradient><radialGradient gradientUnits="userSpaceOnUse" r="819.2" cx="0" cy="0" spreadMethod="pad" gradientTransform="matrix(-.001 0 0 .001 8.3 10.65)" id="e"><stop offset="0" stop-color="#c00"/><stop offset=".212" stop-color="#c00"/><stop offset=".376" stop-color="#fff"/><stop offset=".427" stop-color="#ff0"/><stop offset=".639" stop-color="#fc0"/><stop offset=".788" stop-color="#f60"/><stop offset="1" stop-color="#f00"/></radialGradient></defs><path fill="#900" d="M6.65 7.7q.05-.85-.25-1.6l.2-.4.65-1.25.35-.85q.7.35.85 1.2l-.05 1-.1.25L8 5.4l-.25-.3.05.65-.45.9-.7 1.05m-1.5.55l-.45 1.3q-.25.95-.35 1.85-.1 1.05.15 1.95l-.85-.75q-.6-.75-.9-1.65l-.4-1.55-.05-.35q-.05-1.05.3-2l.2-.5.4 1.6.15.55 1.15-1 .85-1.15-.15.95-.05.75M10.4 1.7l.5.25 1.05.75.1.1h.15l.15.1.65.55.85 1 .7.8-.8-.05-.85.1-.55-.2-.25-.75-.25-.55q-.45-.6-1.25-.45.45-.4.25-.95l-.45-.7m1.95 1.2l-.3-.1.3.1M10.8 7.4l-.3-.65-.75-2.5.8.95.4.7.7.9 1.35.9-1.65-.25-.55-.05m-.15.05q-.4.15-.3.85l-.75.1h-.05l-.15-.45L9.35 7l.2-1.1 1.1 1.55"/><path fill="#930" d="M15.6 10.6q.35-.6 1-1v-.05q.8-.5 1.75-.65l.3-.1-.8 1.2q.9-.8 2.3-.8l1.35.05q-.95.45-1.2 1.3l1.25 1.25 1.1.2.1-.05.7 1.2v-.85l.05.25.1 1.3.15-.4.15-.6.05-.8.3 1.15.05.85-.05.2-.15.65-.35-.4-.05-.05-.25-.2v.35l-.05.4-.35.65-.05-.1q-.8.05-1.45.7l-.05.05q-.35.4-.55 1.05l-.1.55-.05.1.6.85.6.75q.05.5-.45.95l-.4.35-.25-.55-.65.3h-.15l-.2-.3-.15.25-.05-.4-.1-.1.1-.1q.15-.35-.05-.55l-.45-.55-.3-.55-.05-.05-.35-.4-1.3-.35-.8-.1.8.1 1.3.35.35.4.05.05-.85.2-.35.15h-.05l-.05-.3q-.75.8-.75-.1l-.75.05-.05-.05.15-.5.2-.35h-.55l-.1-.1.25-.2.05-.1q.15-.2-.4-.25l.1-.2v-.25l-.3.05.5-.35.35-.55-.5.2-1.1.5.55-.65.05-.05 1.8-.9.2-.05q.65-.2.95.35l.25.65.25.35.35.15.35-.05 1.5-1.1-.25-.05q-.5-.15-.55-.5v-.2l.1-.3.05-.05-.1-.45-.7-.8h.5l-.05-.1 1.25.1-.3-.25-1.35-.6.65-.25-2.15-.05 1.8-.9q-1.1.05-2.1.55l.05-.55-1.35.9.45-.9.1-.55-.2.3-.7.8-.45.45-.05-.55v-.35m-7 7.85l-.15-.05-1.4-.3.35.65-1 .15-.45.3q-.25 0 .1-.9l-.15-.1v-.1l-.3.3-.15.1q-.2.05-.2-.15.5-.7.25-1.55l-.1-.1-.3-.2-.55-.2-.85-.05-.25.55-.05.4v.1l-.15-.05-.3-.25-.1.35-.05.05-.3.25-.05.15-.15-.2-.05-.1-.05-.3-.45.35-.15.15v.05l-.05-.05-.2-.55-.05-.05q-.15-.3.1-.85-.95.7-.6-.15l.5-.7.05-.1.95-.4.8.35.55-.05.8.2-.4-.3-.15-.15 2.05.3.5.35.5.25.75.4.35.25q.65.5.8-.35l.35-2.2q.05-.4-.3-.45-1.25-.2-2.1.7.25-1.1 1.25-1.55l1.55.55h.15l-.3 1.7-.05.25-.05 2.05.05.25-.05.15-.75.85m-.75-5.9h-.2q-1.1.1-1.9.85.05-.65.5-1 .5-.4 1.05-.4l.55.55M22.5 13.9l-.15-.35-1-1.1q.15.65.65.95l.2.15.25.4.1.3-.05-.35m-1.25 1.75H21l-.45.1-.1.1-.8.9-.15.15.6-.3.75-.5.4-.45m-14.75.7l.25.1.1.15-.25-.15-.2-.05h-.85l1.05.45 2.2.7-.2-.25-.45-.3-1.65-.95v.3m-.35 1l-.65-.55.65.55m-2.45-1.1q-.45.05-.75.35l-.75.6.75-.6q.3-.3.75-.35"/><path fill="#531B00" d="M22.75 11.95l.1-.25.15-.3.45.9v.85l-.7-1.2m1.35 2.95l-.05.1-.05.2-.75 1-.2-.55.35-.65.05-.4v-.35l.25.2.05.05.35.4m-2.95 6l-.45.45-.75.45-.95.25q-.95.15-1.6-.3.5-.2 1-.45l.3-.2.7-.65.2-.35.1.1.05.4.15-.25.2.3h.15l.65-.3.25.55m-15.2-1.7l-.2.2-.3.35-.55.15q-.9.15-1.45-.4l.4-.05.2-.1q.65-.3 1.15-.95l.05-.05q0 .2.2.15l.15-.1.3-.3v.1l.15.1q-.35.9-.1.9M3.4 17.3l-.05.4.1.7-.3-.15-.3-.1-.4-.35.05-.15.3-.25.05-.05.1-.35.3.25.15.05m-1.8.45h-.05l-.05.3.1 1.5-.1-.3-.7-1.3-.45-.5q-.8-1.05.2-1.75l.8-.4-.05.1-.5.7q-.35.85.6.15-.25.55-.1.85l.05.05.2.55.05.05m.7-2.85l1.9-.65.8.05.8.75.15.15H5.9l.05.05-2.05-.3.15.15.4.3-.8-.2-.55.05-.8-.35m13.35-3.4l.45-.45.7-.8.2-.3-.1.55-.45.9 1.35-.9-.05.55q1-.5 2.1-.55l-1.8.9 2.15.05-.65.25 1.35.6.3.25-1.25-.1q-.35-.85-1.4-.75l-1.15.3-.3.1h-.3l-.5-.05q-.5-.2-.65-.55m-.4 4.05l-.55.65 1.1-.5.5-.2-.35.55-.5.35.3-.05v.25l-.1.2q.55.05.4.25l-.05.1-.25.2.1.1q-1.65 0-2.4 1.2-.1-.9.35-1.7l.2-.35q.4-.6 1.1-.95l.15-.1m7.2-1.6l-.25-.4-.2-.15q-.5-.3-.65-.95l1 1.1.15.35-.05.05m-1.2 1.7l-.4.45-.75.5-.6.3.15-.15.8-.9.1-.1.45-.1h.25m-14.75.7v-.3l1.65.95.45.3.2.25-2.2-.7-1.05-.45h.85l.2.05.25.15-.1-.15-.25-.1m9.55 1.95l.05.05.75-.05q0 .9.75.1l.05.3q-.55.15-.95.5l-.55.65-.1-.65v-.9"/><path fill="url(#a)" d="M7 9.55l-.1.3q-.3-.4-.3-.85v-.95l.05-.35.7-1.05.45-.9-.05-.65.25.3.3.65.1-.25.05-1q-.15-.85-.85-1.2l-.35.85L6.6 5.7l-.2.4-.1.1-.95 1.6-.2.45.05-.75.15-.95L4.5 7.7l-1.15 1-.15-.55-.4-1.6.45-1.3.5-1.75.2-1.9.1-.65Q4.4.25 5.6.05l1.85.2 1.8.8 1.15.65.45.7q.2.55-.25.95.8-.15 1.25.45l.25.55.25.75.55.2.85-.1.8.05.55.65L16.4 8l-1.45-1.15-.8-.7.05.45-.95-.15v.05l1.3 1.4-1.1-.15h-.2L13 7.7l-1.35-.9-.7-.9-.4-.7-.8-.95.75 2.5.3.65-.15.05-1.1-1.55-.2 1.1.05.95.15.45L9 8.1q-.7.3-.5 1.45-1.15-1-1.5 0"/><path fill="url(#b)" d="M7 9.55q.35-1 1.5 0Q8.3 8.4 9 8.1l.55.3h.05l.75-.1q-.1-.7.3-.85l.15-.05.55.05L13 7.7l.25.05h.2l1.1.15-1.3-1.4v-.05l.95.15-.05-.45.8.7.25.75.05 1.5v.45l-.25.7-.7.7q-.6.35-1.2.8l-1.7 1.1-.4.2-1.25.15H9.6l-1.55-.55-.2-.1L7.3 12l-.25-.95L7 9.55m5.3-.8l-1.05.15 1.05-.15m-.75.55l-.3-.4-.5.4L9.5 11q1.05 0 1.75-.55.6-.45.3-1.15M9 11.1l-1.4-1q-.1 1.05.95 1.05L9 11.1l.5-.1-.5.1"/><path fill="url(#c)" d="M11.55 9.3q.3.7-.3 1.15-.7.55-1.75.55l1.25-1.7.5-.4.3.4"/><path fill="url(#d)" d="M19 22.05l.1.65.1 1.1q.05.8-.35 1.4l-1.25 1.25-1.8.55-3.85.15h-1.9q-.95-.15-1.8-.65l-1.4-1.2q-.5-.7-.7-1.7-.15-1 .05-1.95.1-.65.35-1.1l.35-.5 1.7-1.6.75-.85.05-.15-.05-.25.05-2.05.05-.25.3-1.7 1.25-.15.4-.2 1.7-1.1q.6-.45 1.2-.8l.7-.7.55.3v.05h.05v.35l.05.55q.15.35.65.55l.5.05h.3l.05.1.1 1.55-.15.85-1.8.9-.05.05-.15.1q-.7.35-1.1.95l-.2.35q-.45.8-.35 1.7.75-1.2 2.4-1.2h.55l-.2.35-.15.5v.9l.1.65.55-.65q.4-.35.95-.5h.05l.35-.15v.05l.05.1.15.95v.05l.45 1.4-.3.2q-.5.25-1 .45.65.45 1.6.3M15.55 10.6l.05.25-.05-.25"/><path fill="url(#e)" d="M9 11.1l-.45.05q-1.05 0-.95-1.05l1.4 1"/><path fill="none" stroke="#000" stroke-width=".05" stroke-linecap="round" stroke-linejoin="round" d="M5.95 15.2v.05m2.1-2.6l-.2-.1h-.2m4.4-9.75h.15"/><path fill="none" stroke="#900" stroke-width=".05" stroke-linecap="round" stroke-linejoin="round" d="M7 9.55l-.1.3q-.3-.4-.3-.85v-.95l.05-.35M6.4 6.1l-.1.1-.95 1.6-.2.45M2.8 6.55l.45-1.3.5-1.75.2-1.9.1-.65Q4.4.25 5.6.05l1.85.2 1.8.8 1.15.65m4.15 3.55l.55.65L16.4 8l-1.45-1.15m-1.7.9h.2l1.1.15-1.3-1.4v-.05l.95.15-.05-.45.8.7M9.55 8.4L9 8.1q-.7.3-.5 1.45-1.15-1-1.5 0m3.8-2.15l-.15.05"/><path fill="none" stroke="#5B0000" stroke-width=".05" stroke-linecap="round" stroke-linejoin="round" d="M5.15 8.25l-.45 1.3q-.25.95-.35 1.85-.1 1.05.15 1.95l-.85-.75q-.6-.75-.9-1.65l-.4-1.55-.05-.35q-.05-1.05.3-2l.2-.5m9.4-3.75l.15.1m-.3-.1l.3.1"/><path fill="none" stroke="#650F0F" stroke-width=".05" stroke-linecap="round" stroke-linejoin="round" d="M12.35 2.9l.65.55.85 1 .7.8M6.65 7.7q.05-.85-.25-1.6m4-4.4l.5.25 1.05.75.1.1M10.8 7.4l.55.05L13 7.7m-2.35-.25q-.4.15-.3.85l-.75.1m-2-4.8l-.35.85L6.6 5.7l-.2.4"/><path fill="none" stroke="#531B00" stroke-width=".05" stroke-linecap="round" stroke-linejoin="round" d="M15.6 10.6q.35-.6 1-1v-.05q.8-.5 1.75-.65l.3-.1-.8 1.2q.9-.8 2.3-.8l1.35.05q-.95.45-1.2 1.3l1.25 1.25 1.1.2.1-.05m.7.35l.05.25.1 1.3.15-.4.15-.6.05-.8.3 1.15.05.85-.05.2-.15.65m-1.05.75l-.05-.1q-.8.05-1.45.7l-.05.05q-.35.4-.55 1.05l-.1.55-.05.1.6.85.6.75q.05.5-.45.95l-.4.35M8.6 18.45l-.15-.05-1.4-.3.35.65-1 .15-.45.3m-.7-.85q.5-.7.25-1.55l-.1-.1-.3-.2-.55-.2-.85-.05-.25.55-.05.4v.1m-.95.5l-.15-.2-.05-.1-.05-.3-.45.35-.15.15v.05m-.25-2.45l.95-.4m3.65.35l.5.35.5.25.75.4.35.25q.65.5.8-.35l.35-2.2q.05-.4-.3-.45-1.25-.2-2.1.7.25-1.1 1.25-1.55l1.55.55h.15l-.3 1.7-.05.25-.05 2.05.05.25-.05.15-.75.85m-.95-5.9q-1.1.1-1.9.85.05-.65.5-1 .5-.4 1.05-.4m8.3-1.4v.35l.05.55m4.3.95l.05.1h-.5l.7.8.1.45-.05.05-.1.3v.2q.05.35.55.5l.25.05-1.5 1.1-.35.05-.35-.15-.25-.35-.25-.65q-.3-.55-.95-.35l-.2.05-1.8.9-.05.05m.6 1.9h.55l.8.1 1.3.35.35.4.05.05.3.55.45.55q.2.2.05.55l-.1.1M5.5 16.8l.65.55M2.2 17.2l.75-.6q.3-.3.75-.35m12.35 2.05l.15-.5.2-.35m1.25 1.25h.05l.35-.15.85-.2"/><path fill="none" stroke="#371200" stroke-width=".05" stroke-linecap="round" stroke-linejoin="round" d="M22.75 11.95l.1-.25.15-.3.45.9m.65 2.6l-.05.1-.05.2-.75 1-.2-.55m-1.9 5.25l-.45.45-.75.45-.95.25M5.95 19.2l-.2.2-.3.35-.55.15q-.9.15-1.45-.4l.4-.05.2-.1q.65-.3 1.15-.95l.05-.05M3.4 17.3l-.05.4.1.7-.3-.15-.3-.1-.4-.35m-.85-.05h-.05l-.05.3.1 1.5-.1-.3-.7-1.3-.45-.5q-.8-1.05.2-1.75l.8-.4m.95-.4l1.9-.65.8.05.8.75.15.15m9.7-3.7q.15.35.65.55l.5.05h.3l.3-.1 1.15-.3q1.05-.1 1.4.75m-3.9 5.85v.9l.1.65.55-.65q.4-.35.95-.5m-2.4-3.15l-.15.1q-.7.35-1.1.95l-.2.35q-.45.8-.35 1.7.75-1.2 2.4-1.2m2.85 3.65l-.3.2q-.5.25-1 .45.65.45 1.6.3m.6-1.95l-.2.35-.7.65"/><path fill="none" stroke="#555" stroke-width=".05" stroke-linecap="round" stroke-linejoin="round" d="M18.7 21.1l-.45-1.4v-.05l-.15-.95-.05-.1m.95 3.45l.1.65.1 1.1q.05.8-.35 1.4l-1.25 1.25-1.8.55-3.85.15h-1.9q-.95-.15-1.8-.65l-1.4-1.2q-.5-.7-.7-1.7-.15-1 .05-1.95.1-.65.35-1.1l.35-.5 1.7-1.6m6.35-11.6l.25.75.05 1.5v.45l-.25.7.55.3v.05h.05m-5.85 2.6l1.25-.15.4-.2 1.7-1.1q.6-.45 1.2-.8l.7-.7m2.1 1.85l.05.1.1 1.55-.15.85m-1.5-3.75l-.05-.25m2.5 7.95v.05"/><path fill="none" stroke="#c00" stroke-width=".05" stroke-linecap="round" stroke-linejoin="round" d="M11.25 8.9l1.05-.15m-.75.55l-.3-.4-.5.4L9.5 11q1.05 0 1.75-.55.6-.45.3-1.15M9 11.1l-.45.05q-1.05 0-.95-1.05l1.4 1 .5-.1"/><path fill="none" stroke="#505050" stroke-width=".05" stroke-linecap="round" stroke-linejoin="round" d="M7.3 12l-.25-.95L7 9.55M7.3 12l.55.55"/></svg>