<svg xmlns="http://www.w3.org/2000/svg" viewBox="0 0 40.2 43.9" width="40.2" height="43.9"><defs><radialGradient gradientUnits="userSpaceOnUse" r="819.2" cx="0" cy="0" spreadMethod="pad" gradientTransform="matrix(.003 0 0 .003 33.75 7.8)" id="a"><stop offset="0" stop-color="#fff"/><stop offset=".463" stop-color="#ff9"/><stop offset=".902"/></radialGradient><linearGradient gradientUnits="userSpaceOnUse" x1="-819.2" x2="819.2" gradientTransform="matrix(.007 0 0 .007 30.3 13.5)" id="b"><stop offset="0" stop-color="#f90"/><stop offset=".467" stop-color="#900"/><stop offset="1" stop-color="#600"/></linearGradient><radialGradient gradientUnits="userSpaceOnUse" r="819.2" cx="0" cy="0" spreadMethod="pad" gradientTransform="matrix(.005 0 0 .005 36.4 10.85)" id="c"><stop offset="0" stop-color="#fff"/><stop offset=".463" stop-color="#ff9"/><stop offset=".902"/></radialGradient><radialGradient gradientUnits="userSpaceOnUse" r="819.2" cx="0" cy="0" spreadMethod="pad" gradientTransform="matrix(.004 .003 -.005 .006 33.9 14.85)" id="d"><stop offset="0" stop-color="#fff"/><stop offset=".463" stop-color="#ff9"/><stop offset=".902"/></radialGradient><radialGradient gradientUnits="userSpaceOnUse" r="819.2" cx="0" cy="0" spreadMethod="pad" gradientTransform="matrix(.014 0 0 .014 16.7 6.95)" id="e"><stop offset="0" stop-color="#f90"/><stop offset=".467" stop-color="#630"/><stop offset="1" stop-color="#C77400"/></radialGradient><radialGradient gradientUnits="userSpaceOnUse" r="819.2" cx="0" cy="0" spreadMethod="pad" gradientTransform="matrix(.01 0 0 .01 17 7.5)" id="f"><stop offset="0" stop-color="#f90"/><stop offset=".573" stop-color="#fc0"/><stop offset="1" stop-color="#C77400"/></radialGradient><linearGradient gradientUnits="userSpaceOnUse" x1="-819.2" x2="819.2" gradientTransform="matrix(0 .001 -.002 0 16.7 2.55)" id="g"><stop offset="0" stop-color="#ff9"/><stop offset=".773" stop-color="#FF3922"/><stop offset="1" stop-color="#f00"/></linearGradient><linearGradient gradientUnits="userSpaceOnUse" x1="-819.2" x2="819.2" gradientTransform="matrix(-.002 -.001 .001 -.002 21.55 8.75)" id="h"><stop offset="0" stop-color="#ff9"/><stop offset=".773" stop-color="#FF3922"/><stop offset="1" stop-color="#f00"/></linearGradient><radialGradient gradientUnits="userSpaceOnUse" r="819.2" cx="0" cy="0" spreadMethod="pad" gradientTransform="matrix(.013 0 0 .013 19.4 20.1)" id="i"><stop offset="0"/><stop offset=".282" stop-color="#630"/><stop offset="1" stop-color="#636"/></radialGradient><linearGradient gradientUnits="userSpaceOnUse" x1="-819.2" x2="819.2" gradientTransform="matrix(.003 0 0 .003 23.85 16.6)" id="j"><stop offset="0" stop-color="#f90"/><stop offset=".467" stop-color="#900"/><stop offset="1" stop-color="#600"/></linearGradient><radialGradient gradientUnits="userSpaceOnUse" r="819.2" cx="0" cy="0" spreadMethod="pad" gradientTransform="matrix(.003 -.003 .004 .005 23 18.5)" id="k"><stop offset="0" stop-color="#fff"/><stop offset=".463" stop-color="#ff9"/><stop offset=".902"/></radialGradient><radialGradient gradientUnits="userSpaceOnUse" r="819.2" cx="0" cy="0" spreadMethod="pad" gradientTransform="matrix(0 .004 -.007 .001 34.4 19.1)" id="l"><stop offset="0" stop-color="#fff"/><stop offset=".463" stop-color="#ff9"/><stop offset=".902"/></radialGradient><linearGradient gradientUnits="userSpaceOnUse" x1="-819.2" x2="819.2" gradientTransform="matrix(.006 0 0 .005 34.25 16.65)" id="m"><stop offset="0" stop-color="#f90"/><stop offset=".467" stop-color="#900"/><stop offset="1" stop-color="#600"/></linearGradient><radialGradient gradientUnits="userSpaceOnUse" r="819.2" cx="0" cy="0" spreadMethod="pad" gradientTransform="matrix(.003 0 0 .003 38.2 16.8)" id="n"><stop offset="0" stop-color="#fff"/><stop offset=".463" stop-color="#ff9"/><stop offset=".902"/></radialGradient><radialGradient gradientUnits="userSpaceOnUse" r="819.2" cx="0" cy="0" spreadMethod="pad" gradientTransform="matrix(.012 0 0 .012 28.7 34.85)" id="o"><stop offset="0" stop-color="#f90"/><stop offset=".467" stop-color="#630"/><stop offset="1" stop-color="#C77400"/></radialGradient><radialGradient gradientUnits="userSpaceOnUse" r="819.2" cx="0" cy="0" spreadMethod="pad" gradientTransform="matrix(.003 0 0 .003 28.8 26.75)" id="p"><stop offset="0" stop-color="#f90"/><stop offset=".467" stop-color="#630"/><stop offset="1" stop-color="#C77400"/></radialGradient><radialGradient gradientUnits="userSpaceOnUse" r="819.2" cx="0" cy="0" spreadMethod="pad" gradientTransform="matrix(.007 0 0 .007 21.5 32.15)" id="q"><stop offset="0" stop-color="#f90"/><stop offset=".467" stop-color="#630"/><stop offset="1" stop-color="#C77400"/></radialGradient><radialGradient gradientUnits="userSpaceOnUse" r="819.2" cx="0" cy="0" spreadMethod="pad" gradientTransform="matrix(.011 0 0 .011 15.75 34.15)" id="r"><stop offset="0" stop-color="#f90"/><stop offset=".467" stop-color="#630"/><stop offset="1" stop-color="#C77400"/></radialGradient><radialGradient gradientUnits="userSpaceOnUse" r="819.2" cx="0" cy="0" spreadMethod="pad" gradientTransform="matrix(.002 0 0 .002 28.2 42.5)" id="s"><stop offset="0" stop-color="#f90"/><stop offset=".467" stop-color="#630"/><stop offset="1" stop-color="#C77400"/></radialGradient><linearGradient gradientUnits="userSpaceOnUse" x1="-819.2" x2="819.2" gradientTransform="matrix(.001 0 0 .003 12.7 9.6)" id="t"><stop offset="0" stop-color="#ff9"/><stop offset=".773" stop-color="#FF3922"/><stop offset="1" stop-color="#f00"/></linearGradient><radialGradient gradientUnits="userSpaceOnUse" r="819.2" cx="0" cy="0" spreadMethod="pad" gradientTransform="matrix(.007 0 0 .007 9.75 18.35)" id="u"><stop offset="0" stop-color="#f90"/><stop offset=".467" stop-color="#630"/><stop offset="1" stop-color="#C77400"/></radialGradient><radialGradient gradientUnits="userSpaceOnUse" r="819.2" cx="0" cy="0" spreadMethod="pad" gradientTransform="matrix(.004 0 0 .004 7.8 23.8)" id="v"><stop offset="0" stop-color="#fff"/><stop offset=".467" stop-color="#fc0"/><stop offset="1"/></radialGradient><radialGradient gradientUnits="userSpaceOnUse" r="819.2" cx="0" cy="0" spreadMethod="pad" gradientTransform="matrix(.002 0 0 .002 10.15 26.8)" id="w"><stop offset="0" stop-color="#f90"/><stop offset=".467" stop-color="#630"/><stop offset="1" stop-color="#C77400"/></radialGradient><radialGradient gradientUnits="userSpaceOnUse" r="819.2" cx="0" cy="0" spreadMethod="pad" gradientTransform="matrix(.007 0 0 .007 8.05 27.55)" id="x"><stop offset="0" stop-color="#fff"/><stop offset=".467" stop-color="#fc0"/><stop offset="1"/></radialGradient><radialGradient gradientUnits="userSpaceOnUse" r="819.2" cx="0" cy="0" spreadMethod="pad" gradientTransform="matrix(.004 0 0 .004 3.8 26.25)" id="y"><stop offset="0" stop-color="#fff"/><stop offset=".467" stop-color="#fc0"/><stop offset="1"/></radialGradient><radialGradient gradientUnits="userSpaceOnUse" r="819.2" cx="0" cy="0" spreadMethod="pad" gradientTransform="matrix(.003 0 0 .003 3.9 24.25)" id="z"><stop offset="0" stop-color="#fff"/><stop offset=".467" stop-color="#fc0"/><stop offset="1"/></radialGradient><radialGradient gradientUnits="userSpaceOnUse" r="819.2" cx="0" cy="0" spreadMethod="pad" gradientTransform="matrix(.001 0 0 .001 2.4 26.85)" id="A"><stop offset="0" stop-color="#f90"/><stop offset=".467" stop-color="#630"/><stop offset="1" stop-color="#C77400"/></radialGradient><radialGradient gradientUnits="userSpaceOnUse" r="819.2" cx="0" cy="0" spreadMethod="pad" gradientTransform="matrix(.002 0 0 .002 3.15 27.85)" id="B"><stop offset="0" stop-color="#fff"/><stop offset=".467" stop-color="#fc0"/><stop offset="1"/></radialGradient><radialGradient gradientUnits="userSpaceOnUse" r="819.2" cx="0" cy="0" spreadMethod="pad" gradientTransform="matrix(.005 0 0 .005 5.85 29.35)" id="C"><stop offset="0" stop-color="#fff"/><stop offset=".467" stop-color="#fc0"/><stop offset="1"/></radialGradient><radialGradient gradientUnits="userSpaceOnUse" r="819.2" cx="0" cy="0" spreadMethod="pad" gradientTransform="matrix(.006 0 0 .006 6.95 35.75)" id="D"><stop offset="0" stop-color="#f90"/><stop offset=".467" stop-color="#630"/><stop offset="1" stop-color="#C77400"/></radialGradient><radialGradient gradientUnits="userSpaceOnUse" r="819.2" cx="0" cy="0" spreadMethod="pad" gradientTransform="matrix(.005 .002 -.003 .008 30.1 11)" id="E"><stop offset="0" stop-color="#fff"/><stop offset=".463" stop-color="#ff9"/><stop offset=".902"/></radialGradient></defs><path d="M27.95 19.15q-.25 1.65-.1 3.4.1.9-.2 1.25l-1.05-.15-.45.8.65 1.25.05.05-.15.05h-.1l-1.6.1-.05-.05q-.6-1.45-1.95-2.45-1.5-1.05-3-.3l-1.95-2.65Q17 19.2 16.4 17.7q-.35-.7-.25-1.55.1-1.85 1.75-2.6l2.8-1.45q1-.5 1.2-1.8h.1l.65.2q1.8.65 2.55 2.4v-2.85l.9.75-.25-.85v-.1l2.2.25-.25 2.3-.75.75q-1.1 1.1-2.4 1.55l-1.45-.4q-1.8-1-1.8.5l-2.35-.05.25.65.55 2.25q.7 1.85 2.3 2.9.75.55 1.85.7 1.95.25 2.95 1.1l-.85-2.7-.15-.35q.4-.4.3-.95.75 1.35 1.7.8m-11 6.2q-1.95 0-.9-1.5l-1.2.2-.1-1.6-1.8-.45.1-.75.3-1.1-.5-.9q-1-1.3-.25-2.9.45-.95.35-2.2l-.25.15q-1.15.65-1.7 1.8-.35.7-.85.55l-2.5-.4-.3-.05-2.35.3-2.3.7q-1.55.6-2.7 1.65l.15-.6q.7-1.45 1.65-2.75l1.6-1.7.8-.65 2.7-1.8 3.05.1-.05 1.25q.25-.5.55-.7-.1.95.1 1.95.9-1.05 2.2-1.7l.7-.3.55-.3 1-.5q-.3 1.55-1.05 2.85-.8 1.4-.1 2.95L14.5 18l2.05 2.5q1.05 1.1 1.75 2.6l.3 1.1-.1 1.15h-1.55m-6.35-2.9l-.8.35q-.45-1-1.55-1.6L5.6 21h-.25v.05l.45 1.3.2.7.1.1q.35.5 1 .8l.1.05-1.05.15q.35.95-.2 1.5l-.35-.3-.3-.4-1.8-1.1-.95-.75-.1.45q-.25.9-.25 1.9h-.05l-.75-.05-.05-.55q-.15-.9.45-1.25l-.05-.35q.35-.6 1.35-.9v-.15l.1-.55q.45.2.6-.15l.2-.3.75-.2h.6q.5-.5 1.55-1.15l.15.15.7.3q1.6.55 2.55 1.85l.3.3m13.4.75l2.6.45-2.6-.45m1.25 1.3l.9-.05-.9.05m-22.1-1.6l-.05-.55.05.55m1.6.3l.85.5.55.45-.55-.45-.85-.5m11.6-.55l-1.6-.2 1.6.2m-.3 1.2l2.55.35-2.55-.35m-3.1-9.7q.55-.45.45-1.15-.05-.6.05-1.05-.1.45-.05 1.05.1.7-.45 1.15M1.8 23.6l.35 1.85-.35-1.85"/><path fill="#090" d="M21.5 6.2l-3.05.1.95-.35q.5-.3 1.15-.25.6 0 .95.5m-6.7.45l-2.05-.05.3-.3q.3-.25.8-.25l2.45.4-.5.1-1 .1"/><path fill="url(#a)" d="M33 6l1.55-.5-.45 2.15-.25.9-.65 1.5-.05-.35L33 7.5V6"/><path fill="url(#b)" d="M34.1 7.65Q34.25 9.1 35.95 9l-.35.1q-1.1.3-1.5 1.6l-.1.5-.05.05q-.75.45-1.1 1.35L32.1 14l-.75 1.3-1.2 2-.95 1.2-.3.45-.3-.3-.6.5h-.05q-.95.55-1.7-.8l-.2-.45q-.4-.75-.3-1.65.2-1.55-.85-1.55h-.25q1.3-.45 2.4-1.55l.75-.75-.35 1.7q-.4 1.6-.5 3.25 1.85-1.7 4.25-3.4l1.4-1.35q.75-1.05.6-2.55l.65-1.5.25-.9m-5.5 11l.6-.15-.6.15"/><path fill="url(#c)" d="M35.95 9l2.7-1.1.1 3.4q-.05 1-.5 1.65l-.95.85V9.9q-.8.2-1.7.65l-1.05.45-.55.2.1-.5q.4-1.3 1.5-1.6l.35-.1"/><path fill="url(#d)" d="M29.65 19.3l-1.25.45.5-.8.3-.45.95-1.2 1.2-2 .75-1.3.75-1.4q.35-.9 1.1-1.35l.05-.05.55-.2 1.05-.45q.9-.45 1.7-.65v3.9l-.1 1.5-.55 1q-1.15.8-2.7 1.45l-2.1.8-2.2.75m4.8-6.8l-2.2 2.3-2.1 2.5 2.1-2.5 2.2-2.3"/><path fill="url(#e)" d="M9.95 11.45q.2-1.5 1.1-2.55L11 8.85l-2.45-2.8Q6.6 5.9 6.35 4.2q-.4-2.25 1.6-1.9-1.05.65.1 1.4.8.5 1.35-.25.95-1.35 2.2-2.3 1.3-.95 3.05-.6Q15.9.8 16.7 1.6q-1.2-.65-2.55-1l.65.55-1.65.4-.65.35 1.65-.25q-1.3.25-2.25 1.4 1.45.05 2.15.6-.95.4-2.1.6l-2.4.3 1.65.25-.65.25.35.2-.55.5.8.1q-.2.15-.25.4h.65q-.05.65.15 1 .75-.1.65.2l-.15.65q-.5.85-.85 1.9l1.15-.75-.75 2.1.05.05v.05l2.2.2-.55.3-.7.3q-1.3.65-2.2 1.7-.2-1-.1-1.95-.3.2-.55.7l.05-1.25M18.8.55l.75-.35q1.6-.6 2.85.75l1.7 1.95q.75.85 1.85.5.4-.1.15-.55 1 .2 1 1.2.05 1.45-1.65 1.35-.85-.05-1.45.9-.35.6-.2 1.45 1.35.65 2 2.1l.05.1.25.85-.9-.75v2.85q-.75-1.75-2.55-2.4l-.65-.2.4-.15-.45-.85 1.55.45-.2-.55q-.1-.4.05-.6l.65.3L22.05 7h.05l.4-.7-.35-.15L24 5.05q-.75.15-.65-.35l.35-.4.75-.35-4.1.15.9-.15-.45-.35.9.05-1.95-1.4 1.75-.1q-1.3-.65-2.45-.85l1.4-.9-1.65.15m-6.2 2.4l-.7.1 1.95-.6-1.25.5"/><path fill="url(#f)" d="M20.35 4.1l4.1-.15-.75.35-.35.4q-.1.5.65.35l-1.85 1.1.35.15-.4.7h-.05l-.1.15.2.1-.85.2.15.1 1.2.7-1.9-.5-2.15-.45 1.3.95h-.35l.65.4-.7.3.8.2-.85.25.55.15h.05l-.1.65-1.3 1-2.5.25-1-.35-1.05-.8h-.05l-.4.1.1-.8-.1-.2.15-.45-.45.05q.8-.95 1.75-1.5l-.3.05-2.6.55.15-.65q.1-.3-.65-.2-.2-.35-.15-1h-.65q.05-.25.25-.4l-.8-.1.55-.5-.35-.2.65-.25-1.65-.25 2.4-.3q1.15-.2 2.1-.6l.2-.15-.2-.1.65.1 1.1.4 1.1.15.1.05.95-.35 1.35-.3h.9l-.3.15-.75.5h1.2m1.15 2.1q-.35-.5-.95-.5-.65-.05-1.15.25l-.95.35 3.05-.1m-6.7.45l1-.1.5-.1-2.45-.4q-.5 0-.8.25l-.3.3 2.05.05m1.75 1.6h.05l.05-.05q.35-.15.1-.5l-.2.45v.1m1-.05l-.35-.4q-.1.6.35.4m-.85-2.75l.25 1.05.5-.45-.5.45-.25-1.05m-1.3 4.75h1.9l1.25.2-1.25-.2h-1.9"/><path fill="url(#g)" d="M16.7 1.6l.4.55.15-.2q.6-.8 1.4-1.3l.15-.1L20.45.4l-1.4.9q1.15.2 2.45.85l-1.75.1 1.95 1.4-.9-.05.45.35-.9.15h-1.2l.75-.5.3-.15h-.9l-1.35.3-.95.35-.1-.05-1.1-.15-1.1-.4-.65-.1.2.1-.2.15q-.7-.55-2.15-.6.95-1.15 2.25-1.4l-1.65.25.65-.35 1.65-.4-.65-.55q1.35.35 2.55 1m-4.1 1.35l1.25-.5-1.95.6.7-.1"/><path fill="url(#h)" d="M19.95 10.2l.1-.65H20l-.55-.15.85-.25-.8-.2.7-.3-.65-.4h.35l-1.3-.95 2.15.45 1.9.5-1.2-.7-.15-.1.85-.2-.2-.1.1-.15L24 8.9l-.65-.3q-.15.2-.05.6l.2.55-1.55-.45.45.85-.4.15h-.1l-1.95-.1"/><path fill="url(#i)" d="M19.95 10.2l1.95.1q-.2 1.3-1.2 1.8l-2.8 1.45q-1.65.75-1.75 2.6-.1.85.25 1.55.6 1.5 1.65 2.75L20 23.1q1.5-.75 3 .3 1.35 1 1.95 2.45l.05.05q.7 1.65-.45 2.85l-1.15.85-1.75.35-.55-.05q-1.4-.15-2.4-.9-1.45-1.15-.55-2.8l.35-.85.1-1.15-.3-1.1q-.7-1.5-1.75-2.6L14.5 18l-.65-1.05q-.7-1.55.1-2.95.75-1.3 1.05-2.85l.15-.05 1 .35 2.5-.25 1.3-1"/><path fill="url(#j)" d="M24.65 14.7h.25q1.05 0 .85 1.55-.1.9.3 1.65l.2.45q.1.55-.3.95l-1.4-2.7q-.7-1.05-1.9-1.4l-1.25-.4q0-1.5 1.8-.5l1.45.4"/><path fill="url(#k)" d="M21.4 14.8l1.25.4q1.2.35 1.9 1.4l1.4 2.7.15.35.85 2.7q-1-.85-2.95-1.1-1.1-.15-1.85-.7-1.6-1.05-2.3-2.9l-.55-2.25-.25-.65 2.35.05"/><path fill="url(#l)" d="M38.75 18.05l-.35 1.5q-.35 1.35-1.3 1.45l-4.35.1-4-.05 1.65-.5.45-.2 2.4-1.05 2.9-.8h.05l.3-.05.95-1.1 1.55-1.3-.1.75-.05.8-.1.45"/><path fill="url(#m)" d="M38.25 12.95q0 1.45.6 2.25h-.05l-.6.2-1.7 2.6-.3.5h-.05l-2.9.8-2.4 1.05q-.85-.3-1.2-1.05l2.2-.75 2.1-.8q1.55-.65 2.7-1.45l.55-1 .1-1.5.95-.85"/><path fill="url(#n)" d="M38.85 15.2q.85-.2 1.35 0-.55 1.7-1.45 2.85l.1-.45.05-.8.1-.75-1.55 1.3-.95 1.1-.3.05.3-.5 1.7-2.6.6-.2h.05"/><path fill="url(#o)" d="M30.4 28.55l1.65 1.2q1.3 1.05 1.75 2.55.55 1.7-.45 3.1-.95 1.3-2.6 1.9l-3.05.9-.4.05q-.3.6-.3 1.35-.05 1.05.6.95 1.85-.25 2.55 1.4-.55.2-1 .55-.6-1.75-2-.7.8.35.3 1.15l-.65.95-.65-.75H26q-1.3-.1-1.3-1.6 1.05-.9.9-2.1l-.05-.45-.1-.2q-.7-1.65-.65-3.45l1.1.15q2.05.2 1.7-1.8-.25-1.5-.7-2l-.7-.7q-1.15-.95-2.8-1.4l1.15-.85q1.15-1.2.45-2.85l1.6-.1h.1l.15.15 1.2 1.05 2.35 1.55m-4.15 13l.85.2.05.05-.05-.05-.85-.2"/><path fill="url(#p)" d="M26.8 25.7q1.25-1.15 2.65-.5 1.3.65 1.35 2.45 0 .55-.4.9L28.05 27l-1.2-1.05v-.2l-.05-.05"/><path fill="url(#q)" d="M26.9 31.7l-3.15 1.2-3.35.4-4.25-.2 1.75-.95h4.2q1.7.1 3.1-.55l1-.6.7.7"/><path fill="url(#r)" d="M16.15 33.1l-.5.15q-2.05.55-.6 1.95.95.85 2.3.75l.9-.05q-.25.7-.25 1.65 0 .85.45 1.4l.3.25q.85.7.75 1.7-.1.45.1.8.65 1.05-.6 1.2l-1.5-.25h-.95l-.2-.25q-1.5.6-1.3-1l.1-.55q1.45-.25 2-1.25-.5-1.05-1.2-1.7-1.3-1.1-2.55-1.45-1.55-.4-2.5-1.9-.4-.55-.45-1.15-.05-.5.15-.95l.45-.85 2-2.35 1.7-1.8 2.2-2.1h1.55l-.35.85q-.9 1.65.55 2.8 1 .75 2.4.9l-3.2 2.25-1.75.95m.85 7.7q-1.35.5-.65 1.6-.7-1.1.65-1.6m.55.95q-.25.6-.05.9-.2-.3.05-.9"/><path fill="url(#s)" d="M29.15 42.5l.1.2q.15.5-.1.9-.8-.5-1.7-.65.5-.8-.3-1.15 1.4-1.05 2 .7"/><path fill="url(#t)" d="M12.2 8.1l2.6-.55.3-.05q-.95.55-1.75 1.5l.45-.05-.15.45.1.2-.1.8.4-.1h.05l1.05.8-.15.05-1 .5-2.2-.2v-.05l-.05-.05.75-2.1-1.15.75q.35-1.05.85-1.9"/><path fill="url(#u)" d="M13.05 21.25l-.55.4-.75.55q-.7.5-1.15.25l-.3-.3q-.95-1.3-2.55-1.85l-.7-.3-.15-.15-.45-.75q-.7-1.9.9-2.9l.3.05 2.5.4q.5.15.85-.55.55-1.15 1.7-1.8l.25-.15q.1 1.25-.35 2.2-.75 1.6.25 2.9l.5.9-.3 1.1"/><path fill="url(#v)" d="M9.8 22.8l.1.35q.3.8-.1 1.5-.55 1.1-.95 2.15.05-1.45-.7-2.15L7.2 24l-.1-.05q-.65-.3-1-.8l-.1-.1-.2-.7-.2-1.3.1-.05h-.1l2.65.2q1.1.6 1.55 1.6"/><path fill="url(#w)" d="M8.8 27.1l.5-.15 2.25-.7-2.05 1.1-.7-.25"/><path fill="url(#x)" d="M8.8 27.1l.7.25.85.2 2.95.4-3.6.6-1.05.3-1.1.3-.65.15-.8-.1-1.7-.85-1.6-.7.75-.25.1-.1 1.05-.9.4-.6 1.55.55h.05l2.1.75"/><path fill="url(#y)" d="M5.95 25.65l.7.7-1.55-.55-.4.6-1.05.9-.55-.25-1-.6-.1-.1L.95 25.3l.45.1.75.05h.05l2.85-.3.55.2.35.3"/><path fill="url(#z)" d="M2.2 25.45q0-1 .25-1.9l.1-.45.95.75 1.8 1.1.3.4-.55-.2-2.85.3"/><path fill="url(#A)" d="M2.2 27.3l-.55-.7.45-.15 1 .6-.9.25"/><path fill="url(#B)" d="M2.2 27.3l.9-.25.55.25-.1.1-.75.25 1.6.7q-.35.35-.8.3l-.9-.15-.8-1.15.3-.05"/><path fill="url(#C)" d="M7.55 29.15l2 .45v.05l-1.5.1-1.65.3-1.8.35-1.5-.3-1-1.8.6.2.9.15q.45.05.8-.3l1.7.85.8.1.65-.15"/><path fill="url(#D)" d="M10.45 33.4q-1.4.6-2.2 2l-1.6 2.8q-.65 1.2-2 .75-2.15-.7-.7-1.6l.75-.2Q6.35 37 7.2 35.6q.85-1.35 1.9-2.3.65-.6 1.5-.85-.2.45-.15.95"/><path fill="url(#E)" d="M28.05 10.1q.2-1.35.9-2.5l1.85-1.35 1.05-1.05q1.2-1.25 1.15.35V7.5l.15 2.2.05.35q.15 1.5-.6 2.55l-1.4 1.35q-2.4 1.7-4.25 3.4.1-1.65.5-3.25l.35-1.7.25-2.3"/><path fill="none" stroke="#000" stroke-width=".05" stroke-linecap="round" stroke-linejoin="round" d="M30.85 20.35q-.85-.3-1.2-1.05m-.75-.35l-.3-.3m-.6.5h-.05q-.25 1.65-.1 3.4.1.9-.2 1.25l-1.05-.15-.45.8.65 1.25m2.35 16.8l.1.2q.15.5-.1.9-.8-.5-1.7-.65m-10.5-17.6q-1.95 0-.9-1.5l-1.2.2-.1-1.6-1.8-.45.1-.75m-2.45 1.2l-.8.35M7.2 24l-1.05.15q.35.95-.2 1.5m3.6 3.95l.8.05h-.8M1.4 25.4l-.05-.55q-.15-.9.45-1.25l-.05-.35q.35-.6 1.35-.9v-.15l.1-.55q.45.2.6-.15l.2-.3.75-.2h.6q.5-.5 1.55-1.15m.45-3.65L5 16.5l-2.3.7q-1.55.6-2.7 1.65l.15-.6q.7-1.45 1.65-2.75l1.6-1.7.8-.65 2.7-1.8 3.05.1m15.85-1.6h.05l2.2.25m-6.15.2q-.2 1.3-1.2 1.8l-2.8 1.45q-1.65.75-1.75 2.6-.1.85.25 1.55.6 1.5 1.65 2.75L20 23.1q1.5-.75 3 .3 1.35 1 1.95 2.45l.05.05m1.7-.1l.15-.05M22 10.3h-.1l-1.95-.1m4.7 4.5h.25m1.05 4.6q.4-.4.3-.95m.35 5.3L24 23.2m2.15 1.25l-.9.05M14 11.65l1-.5.15-.05M3.1 22.35l.05.55M5.6 21v.05M5.35 21h.25m-.25.05h.25m.55 3.1l-.55-.45-.85-.5m.6-2.15l.45 1.3m9.2-11.2q-.3 1.55-1.05 2.85-.8 1.4-.1 2.95L14.5 18l2.05 2.5q1.05 1.1 1.75 2.6l.3 1.1-.1 1.15m2.6 4.55l.55.05 1.75-.35m-9.95-17.65q-.1.45-.05 1.05.1.7-.45 1.15M18.6 24.2l-2.55-.35m-1.3-1.4l1.6.2m-14.2 2.8L1.8 23.6"/><path fill="none" stroke="#482400" stroke-width=".05" stroke-linecap="round" stroke-linejoin="round" d="M26.8 25.7q1.25-1.15 2.65-.5 1.3.65 1.35 2.45 0 .55-.4.9l1.65 1.2q1.3 1.05 1.75 2.55.55 1.7-.45 3.1-.95 1.3-2.6 1.9l-3.05.9-.4.05q-.3.6-.3 1.35-.05 1.05.6.95 1.85-.25 2.55 1.4-.55.2-1 .55-.6-1.75-2-.7.8.35.3 1.15l-.65.95-.65-.75H26q-1.3-.1-1.3-1.6 1.05-.9.9-2.1l-.05-.45-.1-.2q-.7-1.65-.65-3.45l1.1.15q2.05.2 1.7-1.8-.25-1.5-.7-2l-3.15 1.2-3.35.4-4.25-.2-.5.15q-2.05.55-.6 1.95.95.85 2.3.75l.9-.05q-.25.7-.25 1.65 0 .85.45 1.4l.3.25q.85.7.75 1.7-.1.45.1.8.65 1.05-.6 1.2l-1.5-.25h-.95l-.2-.25q-1.5.6-1.3-1l.1-.55q1.45-.25 2-1.25-.5-1.05-1.2-1.7-1.3-1.1-2.55-1.45-1.55-.4-2.5-1.9-.4-.55-.45-1.15-1.4.6-2.2 2l-1.6 2.8q-.65 1.2-2 .75-2.15-.7-.7-1.6l.75-.2Q6.35 37 7.2 35.6q.85-1.35 1.9-2.3.65-.6 1.5-.85l.45-.85 2-2.35 1.7-1.8 2.2-2.1h1.55l-.35.85q-.9 1.65.55 2.8 1 .75 2.4.9m-8.05-8.65l-.55.4-.75.55q-.7.5-1.15.25l-.3-.3q-.95-1.3-2.55-1.85l-.7-.3-.15-.15-.45-.75q-.7-1.9.9-2.9m2.6-4.75q.2-1.5 1.1-2.55M11 8.85l-2.45-2.8Q6.6 5.9 6.35 4.2q-.4-2.25 1.6-1.9-1.05.65.1 1.4.8.5 1.35-.25.95-1.35 2.2-2.3 1.3-.95 3.05-.6Q15.9.8 16.7 1.6M18.8.55l.75-.35q1.6-.6 2.85.75l1.7 1.95q.75.85 1.85.5.4-.1.15-.55 1 .2 1 1.2.05 1.45-1.65 1.35-.85-.05-1.45.9-.35.6-.2 1.45 1.35.65 2 2.1l.05.1.25.85-.9-.75v2.85q-.75-1.75-2.55-2.4l-.65-.2m3 15.6l1.6-.1h.1m.15-.05l-.05-.05M9.95 11.45L9.9 12.7q.25-.5.55-.7-.1.95.1 1.95.9-1.05 2.2-1.7l.7-.3.55-.3m-.95 9.6l.3-1.1-.5-.9q-1-1.3-.25-2.9.45-.95.35-2.2l-.25.15q-1.15.65-1.7 1.8-.35.7-.85.55l-2.5-.4-.3-.05M23.4 29.6l1.15-.85q1.15-1.2.45-2.85m-14.4 6.55q-.2.45-.15.95M26.2 31l-1 .6q-1.4.65-3.1.55h-4.2l-1.75.95m1.35 9.55q-.2-.3.05-.9m-1.2.65q-.7-1.1.65-1.6m9.85-14.85l-.15-.15m.15.15l1.2 1.05 2.35 1.55m-3.55-2.8v.2M26.2 31l.7.7m-3.5-2.1q1.65.45 2.8 1.4m.95 10.8l-.05-.05-.85-.2m-8.35-9.4l3.2-2.25"/><path fill="none" stroke="#282818" stroke-width=".05" stroke-linecap="round" stroke-linejoin="round" d="M33 6l1.55-.5-.45 2.15M35.95 9l2.7-1.1.1 3.4q-.05 1-.5 1.65m.6 2.25q.85-.2 1.35 0-.55 1.7-1.45 2.85l-.35 1.5q-.35 1.35-1.3 1.45l-4.35.1-4-.05 1.65-.5.45-.2 2.4-1.05 2.9-.8h.05l.3-.05.95-1.1 1.55-1.3-.1.75-.05.8-.1.45m-9.1 1.25l-1.25.45.5-.8.3-.45.95-1.2 2.1-2.5 2.2-2.3m-6.4-2.4q.2-1.35.9-2.5l1.85-1.35 1.05-1.05q1.2-1.25 1.15.35V7.5l.15 2.2.05.35.65-1.5.25-.9M34 11.2l-.05.05q-.75.45-1.1 1.35L32.1 14l-.75 1.3-1.2 2M34 11.2l.55-.2 1.05-.45q.9-.45 1.7-.65v3.9l.95-.85M35.95 9l-.35.1q-1.1.3-1.5 1.6l-.1.5m-.8-1.15q.15 1.5-.6 2.55l-1.4 1.35q-2.4 1.7-4.25 3.4.1-1.65.5-3.25l.35-1.7.25-2.3m-6.65 4.7l1.25.4q1.2.35 1.9 1.4l1.4 2.7m-4.55-4.5l-2.35-.05.25.65.55 2.25q.7 1.85 2.3 2.9.75.55 1.85.7 1.95.25 2.95 1.1l-.85-2.7-.15-.35m12.9-4.1h-.05l-.6.2-1.7 2.6-.3.5m1.1-4.7l-.1 1.5-.55 1q-1.15.8-2.7 1.45l-2.1.8-2.2.75"/><path fill="none" stroke="#870000" stroke-width=".05" stroke-linecap="round" stroke-linejoin="round" d="M34.1 7.65Q34.25 9.1 35.95 9m2.3 3.95q0 1.45.6 2.25M28.6 18.65l-.6.5m-.2-6.75l-.75.75q-1.1 1.1-2.4 1.55l-1.45-.4q-1.8-1-1.8.5m3.5-.1q1.05 0 .85 1.55-.1.9.3 1.65l.2.45q.75 1.35 1.7.8m1.25-.65l-.6.15"/><path fill="none" stroke="#4C3D00" stroke-width=".05" stroke-linecap="round" stroke-linejoin="round" d="M9.8 22.8l.1.35q.3.8-.1 1.5-.55 1.1-.95 2.15.05-1.45-.7-2.15L7.2 24m-1.25 1.65l.7.7h.05l2.1.75m.7.25l.85.2 2.95.4-3.6.6-1.05.3-1.1.3 2 .45m0 .05l-1.5.1-1.65.3-1.8.35-1.5-.3-1-1.8.6.2-.8-1.15.3-.05m-.1-.85l-.1-.1L.95 25.3l.45.1.75.05h.05l2.85-.3.55.2.35.3m-3.75-.2q0-1 .25-1.9l.1-.45.95.75 1.8 1.1.3.4m0-4.3l.1-.05h-.1l2.65.2q1.1.6 1.55 1.6m-4.2-1.75l.2 1.3.2.7.1.1q.35.5 1 .8l.1.05m2.3 3.35l-.7-.25m-2.15-.75L5.1 25.8l-.4.6-1.05.9-.1.1-.75.25 1.6.7 1.7.85.8.1.65-.15m-3.9-1.85l-.55-.25-.9.25m.5 1.2l.9.15q.45.05.8-.3m-1.3-1.3l-1-.6"/><path fill="none" stroke="#4D4D2E" stroke-width=".05" stroke-linecap="round" stroke-linejoin="round" d="M8.8 27.1l.5-.15 2.25-.7-2.05 1.1m-7.3-.05l-.55-.7.45-.15"/><path fill="none" stroke="#C37100" stroke-width=".05" stroke-linecap="round" stroke-linejoin="round" d="M22.1 7l.4-.7-.35-.15L24 5.05q-.75.15-.65-.35l.35-.4.75-.35-4.1.15m-.35 0h-.85l.75-.5.3-.15h-.9l-1.35.3-.95.35-.1-.05-1.1-.15-1.1-.4-.65-.1.2.1-.2.15q-.95.4-2.1.6l-2.4.3 1.65.25-.65.25.35.2-.55.5.8.1q-.2.15-.25.4h.65q-.05.65.15 1 .75-.1.65.2l-.15.65 2.6-.55.3-.05q-.95.55-1.75 1.5l.45-.05-.15.45.1.2-.1.8.4-.1h.05l1.05.8 1 .35 2.5-.25 1.3-1 .1-.65H20l-.55-.15.85-.25-.8-.2.7-.3-.65-.4h.35l-1.3-.95 2.15.45 1.9.5-1.2-.7-.15-.1.85-.2-.2-.1.1-.15m-5.5 1.25h.05l.05-.05q.35-.15.1-.5l-.2.45v.1m1-.05l-.35-.4q-.1.6.35.4m1 2.2l-1.25-.2h-1.9m2.05-4.15l-.5.45-.25-1.05"/><path fill="none" stroke="#783F00" stroke-width=".05" stroke-linecap="round" stroke-linejoin="round" d="M16.7 1.6l.4.55.15-.2q.6-.8 1.4-1.3"/><path fill="none" stroke="#006F00" stroke-width=".05" stroke-linecap="round" stroke-linejoin="round" d="M21.5 6.2l-3.05.1.95-.35q.5-.3 1.15-.25.6 0 .95.5m-6.7.45l1-.1.5-.1-2.45-.4q-.5 0-.8.25l-.3.3 2.05.05"/></svg>