<svg xmlns="http://www.w3.org/2000/svg" viewBox="0 0 23.0 26.2" width="23" height="26.2"><defs><radialGradient gradientUnits="userSpaceOnUse" r="819.2" cx="0" cy="0" spreadMethod="pad" gradientTransform="matrix(-.002 0 0 .002 10.95 5.45)" id="a"><stop offset="0" stop-color="#900"/><stop offset=".49" stop-color="#f60"/><stop offset="1"/></radialGradient><radialGradient gradientUnits="userSpaceOnUse" r="819.2" cx="0" cy="0" spreadMethod="pad" gradientTransform="matrix(-.001 0 0 .001 10.1 6.7)" id="b"><stop offset="0" stop-color="#900"/><stop offset=".49" stop-color="#f60"/><stop offset="1"/></radialGradient><radialGradient gradientUnits="userSpaceOnUse" r="819.2" cx="0" cy="0" spreadMethod="pad" gradientTransform="matrix(-.01 0 0 .01 13.85 12.7)" id="c"><stop offset="0" stop-color="#900"/><stop offset=".49" stop-color="#f60"/><stop offset="1"/></radialGradient><radialGradient gradientUnits="userSpaceOnUse" r="819.2" cx="0" cy="0" spreadMethod="pad" gradientTransform="matrix(-.002 0 0 .002 10.25 12.95)" id="d"><stop offset="0" stop-color="#900"/><stop offset=".49" stop-color="#f60"/><stop offset="1"/></radialGradient><radialGradient gradientUnits="userSpaceOnUse" r="819.2" cx="0" cy="0" spreadMethod="pad" gradientTransform="matrix(-.001 0 0 .001 8.7 13.35)" id="e"><stop offset="0" stop-color="#900"/><stop offset=".49" stop-color="#f60"/><stop offset="1"/></radialGradient><radialGradient gradientUnits="userSpaceOnUse" r="819.2" cx="0" cy="0" spreadMethod="pad" gradientTransform="matrix(-.004 0 0 .004 4.95 13.2)" id="f"><stop offset="0" stop-color="#900"/><stop offset=".49" stop-color="#f60"/><stop offset="1"/></radialGradient><radialGradient gradientUnits="userSpaceOnUse" r="819.2" cx="0" cy="0" spreadMethod="pad" gradientTransform="matrix(-.005 0 0 .005 12.7 21.9)" id="g"><stop offset="0" stop-color="#900"/><stop offset=".49" stop-color="#f60"/><stop offset="1"/></radialGradient><radialGradient gradientUnits="userSpaceOnUse" r="819.2" cx="0" cy="0" spreadMethod="pad" gradientTransform="matrix(-.002 0 0 .002 15.85 3.95)" id="h"><stop offset="0" stop-color="#900"/><stop offset=".49" stop-color="#f60"/><stop offset="1"/></radialGradient><radialGradient gradientUnits="userSpaceOnUse" r="819.2" cx="0" cy="0" spreadMethod="pad" gradientTransform="matrix(-.002 0 0 .002 18.15 9.05)" id="i"><stop offset="0" stop-color="#900"/><stop offset=".49" stop-color="#f60"/><stop offset="1"/></radialGradient><radialGradient gradientUnits="userSpaceOnUse" r="819.2" cx="0" cy="0" spreadMethod="pad" gradientTransform="matrix(-.002 0 0 .002 13.2 4.85)" id="j"><stop offset="0" stop-color="#900"/><stop offset=".49" stop-color="#f60"/><stop offset="1"/></radialGradient><radialGradient gradientUnits="userSpaceOnUse" r="819.2" cx="0" cy="0" spreadMethod="pad" gradientTransform="matrix(-.003 0 0 .003 14.6 9.5)" id="k"><stop offset="0" stop-color="#900"/><stop offset=".49" stop-color="#f60"/><stop offset="1"/></radialGradient><radialGradient gradientUnits="userSpaceOnUse" r="819.2" cx="0" cy="0" spreadMethod="pad" gradientTransform="matrix(-.003 0 0 .003 17.8 6.55)" id="l"><stop offset="0" stop-color="#900"/><stop offset=".49" stop-color="#f60"/><stop offset="1"/></radialGradient><radialGradient gradientUnits="userSpaceOnUse" r="819.2" cx="0" cy="0" spreadMethod="pad" gradientTransform="matrix(-.003 0 0 .003 17.85 13.9)" id="m"><stop offset="0" stop-color="#900"/><stop offset=".49" stop-color="#f60"/><stop offset="1"/></radialGradient><radialGradient gradientUnits="userSpaceOnUse" r="819.2" cx="0" cy="0" spreadMethod="pad" gradientTransform="matrix(-.005 0 0 .005 20.4 18.55)" id="n"><stop offset="0" stop-color="#900"/><stop offset=".49" stop-color="#f60"/><stop offset="1"/></radialGradient></defs><path d="M19.55 5.7l1.05.1q.95.1 1.6.8l.6.5-1.2-.25h-1.95l-.45.05q-.3-.3-.35-.75l.7-.45m.2 3.55l.1.2-.25.05 1.55 1 .75.35-.5-.15-2.65-.55-.05-.1-.05-.2.1-.1 1-.5M23 21.7l-.2 1.25-.1.3-.6 1.5-.05-2.6.2-.1.7-.4.05.05m-1.35 1.15l-.25.5q-1.3 2-3.7 2.85l1.1-2.75.3-1.05 2.55.45m-2.25-1.4l-2.95-.35 1.35-1.75 1.25 1.1.4.5.05.25-.1.25m-14.95-5.7l-.1.05-2.25.2-.55-.25-.9-.85 1.35.3 1.05-.35.75.35.45.3.2.25m-2.65-1.9q-.75-.85-1-1.95L0 8.95l1.05 1.2 1 .85.45.25.05.35-.1.95-.25.8-.4.5m2.1-2.5l-.5-.95-1.15-2.45-.1-.5v-1.3q.25 1.05.95 2l1.85 2.5H4.9l-.2.2h-.05l-.55.4-.2.1m1.75 0l-.1-1.15-.1-.55L6.7 11.1l-.15.15-.9.15v-.05m4.1-4.2h-.1l-1.25.3-.7.15 1.9-.9.15.3v.15M9.9 5.2l-.75-.55L7.6 3.9l-.55-.35.95.05 1.65.5 1.05.35h.1l-.1.15-.4.4-.4.2m2.7-1.8l-.1-.65.05-.75.25-1.5.2-.5.8 1.95.3 1.25-.35.1-.7.1h-.45M16 2.3l1-.7-.15.8.45-.2 2.55-.85.4-.05-.8.55-2.6 1.45h-.05q-.55-.1-.7-.65L16 2.3"/><path fill="url(#a)" d="M11.7 6.4l-1.2-.6-.6-.6.4-.2.4-.4.1-.15.3.1.55.55.25.35.1.3q-.25.15-.25.55l-.05.1"/><path fill="url(#b)" d="M10.1 7.15h-.35V7l-.15-.3.15-.05-.25-.15-.2-.2h.95l.65.2-.4.2-.25.15-.15.3"/><path fill="url(#c)" d="M10.1 7.15l.15-.3.25-.15.4-.2.2-.05h.45l.15-.05.05-.1q0-.4.25-.55l.15-.05.25-.05.1.2-.15.45.1.25.5-.75.3-.1h.65l.15-.8.9-.2-.1.15v.6l.25.15.5-.35.1-.2.25-.25.65.85.15.3-.2.15h-.2l-.25.15q-.1.05-.05.2l.1.15.45.15.55.1.05.85v.15l-.15.6L17 8.4l-.2-.45-.15.15-.05.15v.05l.1.5.25.2-.15.45-.2.4-.15.2-.95 1.05-.5.4-.85.8-.55.9v.75l.3-.3q.4-.4 1.1-.5l.95-.2.65-.15.9.15.1.25-.15.25-1.15.4-.9.35-1.25.5q-.15.05-.3.2l.1.15h.7l2.4-.25.2.15q.15.5-.3.7-.7.4-1.55.45l-1.15.25 1.3.9.65.3q.65.25.3.45l-.25.1-.2.05-1.4-.25-.65-.4-.1-.15-.05-.25-.1-.15-.2 1.35v.45l.95.3.45.85.05.2.05.6L14 19.65l-.45-.05q-.85.1-1.65.5l-.75.35h-.05l.1-.7.35-.55.3-.4q.15-.25.45-.3h.05v-.85l-.05-.15q-.05-.4-.45-.3l-.3.15-.6.25q-.3.1-.45-.15-.2-.35.1-.45l.6-.25.5-.1.45-.15q.55-.55-.3-.5l-1.05-.1q-.6-.15-.6-.8l.1-.2.85.1h.6q.3-.3-.1-.55l-.95-.65-.1-.05q-.2-.2-.1-.5v-.05q.2-.6.8-.15l.2.15.4.35.25.3v-.25l.1-.5.1-.25.4-.7.3-.6 1.15-1q.6-.45 1.3-.7l.4-.25h.05v-.05l.15-.3v-.1l-.05-.7-.25-.55-.3-.3-.25-.15V7.4l-.1.05h-.25l-.1.05-.05.1v.05l.25.4.15.75-.05.2-.05.05-.1.15-.1.05-.65.25-1.15.55-.5.2q-.6.2-1.05.55-.4.35-.6-.1l-.1-.2-.1-.15-.4-1-.05-1.1-.1-.45-.05-.15v-.5m4.7 1.75l-.35.05-.9.35-.85.55-.95.55-.85.3.85-.3.95-.55.85-.55.9-.35.35-.05m-3.7-1.1l-.2.45-.15 1.15.05 1.1-.05-1.1.15-1.15.2-.45m1.05 7.05v-1 1"/><path fill="url(#d)" d="M10.6 13.75l-.75.35-.35.1v-.1q0-.5-.45-1.05l-.3-.6.1-.05 1.1-.35.5-.25.4-.1h.05l.65.2.15.25.1.3v.15l-.3.6-.2-.15q-.6-.45-.8.15v.05q-.1.3.1.5"/><path fill="url(#e)" d="M9.5 14.2l-.8.05q-.45.05-.65-.2l-.15-.4v-.45l.1-.15.25-.4.05-.05.45-.15.3.6q.45.55.45 1.05v.1"/><path fill="url(#f)" d="M8.05 14.05l-.2.4-.75.2-.05.05-.8.15q-.35.05-.75.35l-.95.55h-.1l-.2-.25-.45-.3-.75-.35.2-.1-1-.45-.45-.45.4-.5.25-.8.1-.95-.05-.35.75.3.9.15-.25-.35.2-.1.55-.4h.05l.2-.2h.05l.2.25.5.45v.05l.9-.15.15-.15.4.4.4.45.3.55.1.7v.45l.15.4"/><path fill="url(#g)" d="M15 20.1l.25.3.4.7.25.95.4 2.15-.45-.8-1.35-1.75q-.4-.6-1.05-.6l-.6.1q-1.5.25-2.6 1.35L9.1 23.65l1-1.95.7-1.4.4-.55-.1.7h.05l.75-.35q.8-.4 1.65-.5l.45.05 1.05 1.05-.05-.6"/><path fill="url(#h)" d="M14.95 4.7H15v-.85l.05-.25.5-.85.45-.45.1.35q.15.55.7.65l.05.05-.6.4-.3.55.05.05h.65l-.3.15-.4.3-.25.25-.1.2-.5.35-.25-.15v-.6l.1-.15"/><path fill="url(#i)" d="M17.05 8.45l.35.25.55.2 1.4.15.4.2-1 .5-.1.1.05.2-.05.05-.25-.1-.35-.3q-.45-.45-1.05-.65L16.95 9l-.25-.2-.1-.5v-.05l.05-.15.15-.15.2.45.05.05"/><path fill="url(#j)" d="M12.4 5.65l-.1-.6V5l-.05-.3V3.6l.45.2-.1-.4h.45l.7-.1.35-.1v1.15l.05.25v.1l-.1.2-.15.8h-.65l-.3.1-.5.75-.1-.25.15-.45-.1-.2"/><path fill="url(#k)" d="M13.05 11.55l.1-.5-.1-1 1.15-.55.65-.25.1-.05.1-.15.05-.05.05-.2-.15-.75-.25-.4V7.6l.05-.1.1-.05h.35l.25.15.3.3.25.55.05.7v.1l-.15.3v.05h-.05l-.4.25q-.7.25-1.3.7l-1.15 1"/><path fill="url(#l)" d="M19.2 6.9h-.15l.1.15.2.55.05.5-.4-.35-.25-.25-.65-.3q-.45-.25-.95-.35l-.55-.1-.45-.15-.1-.15q-.05-.15.05-.2l.25-.15h.2l.2-.15.45-.25 1.5-.6.4-.05.4.2h-.2l-.7.3.3.1.65.05-.7.45q.05.45.35.75"/><path fill="url(#m)" d="M15.95 12.95q0-.65.55-.95l1.2-.1.35.25.8.8.45.4.3.45.1.5-.1.75-.05.15-.2.25-.65.4-.3.05-.3-.1-.7-.85-.2-.25-.6-.55-.3-.3 1.15-.4.15-.25-.1-.25-.9-.15-.65.15"/><path fill="url(#n)" d="M19.9 15.3l.55-.15.35-.9.7 1 .05.05.45 1.15.2.9.2 1.3.2.75.3 1.35.1.9h-.05l-.7.4-.2.1v-.1l-.35.75-.05.05-2.55-.45.25-.85.05-.1.1-.25-.05-.25-.4-.5-1.25-1.1v-.05q.75-1.3 1-2.8l.1-.3.4-.45.6-.45"/><path fill="none" stroke="#000" stroke-width=".05" stroke-linecap="round" stroke-linejoin="round" d="M19.55 5.7l1.05.1q.95.1 1.6.8l.6.5-1.2-.25h-1.95l-.45.05m.55 2.35l.1.2-.25.05 1.55 1 .75.35.35.15m-.35-.15l-.5-.15-2.65-.55-.1-.05m.9 5.1l.35.1m3.1 6.35v.05l-.2 1.25-.1.3-.6 1.5-.05-2.6m-.4.7l-.25.5q-1.3 2-3.7 2.85l1.1-2.75.3-1.05m.3-.95l-2.95-.35 1.35-1.75m1.1-3.15l-.2-.35m-14.25-.1l-.1.05-2.25.2-.55-.25-.9-.85 1.35.3 1.05-.35m-1.25-1q-.75-.85-1-1.95L0 8.95l1.05 1.2 1 .85.45.25m1.4.1l-.5-.95-1.15-2.45-.1-.5v-1.3q.25 1.05.95 2l1.85 2.5m.7.7l-.1-1.15-.1-.55L6.7 11.1m6.35.45l.1-.5-.1-1m-3.3-2.9h-.1l-1.25.3-.7.15 1.9-.9m-.1-.2l-.3-.25.1.05m.6-1.1l-.75-.55L7.6 3.9l-.55-.35.95.05 1.65.5 1.05.35h.1m1.8-1.05l-.1-.65.05-.75.25-1.5.2-.5.8 1.95.3 1.25m1.9-.9l1-.7-.15.8.45-.2 2.55-.85.4-.05-.8.55-2.6 1.45v.05m-1.7 4.1h.1"/><path fill="none" stroke="#B84900" stroke-width=".05" stroke-linecap="round" stroke-linejoin="round" d="M15 20.1l.25.3.4.7.25.95.4 2.15-.45-.8-1.35-1.75q-.4-.6-1.05-.6l-.6.1q-1.5.25-2.6 1.35L9.1 23.65l1-1.95.7-1.4.4-.55"/><path fill="none" stroke="#9E3F00" stroke-width=".05" stroke-linecap="round" stroke-linejoin="round" d="M19.9 15.3l.55-.15.35-.9.7 1 .05.05.45 1.15.2.9.2 1.3.2.75.3 1.35.1.9m-.95.5v-.1l-.35.75m-2.6-.4l.25-.85.05-.1m-1.6-2.1v-.05q.75-1.3 1-2.8l.1-.3m1-.9l-.6.45-.4.45"/><path fill="none" stroke="#BD2400" stroke-width=".05" stroke-linecap="round" stroke-linejoin="round" d="M8.05 14.05l-.2.4-.75.2-.05.05-.8.15q-.35.05-.75.35l-.95.55h-.1m-1.4-.9l.2-.1-1-.45-.45-.45m.7-2.6l.75.3.9.15-.25-.35m1.05-.7l.2.25.5.45v.05m1.05-.3l.4.4.4.45.3.55.1.7"/><path fill="none" stroke="#8B3700" stroke-width=".05" stroke-linecap="round" stroke-linejoin="round" d="M17.15 6.85l.05.85v.15l-.15.6m-.1.55l-.15.45-.2.4-.15.2-.95 1.05-.5.4-.85.8-.55.9v.75l.3-.3q.4-.4 1.1-.5l.95-.2m.35.9l-.9.35-1.25.5q-.15.05-.3.2l.1.15h.7l2.4-.25.2.15q.15.5-.3.7-.7.4-1.55.45l-1.15.25 1.3.9.65.3q.65.25.3.45l-.25.1-.2.05-1.4-.25-.65-.4-.1-.15-.05-.25-.1-.15-.2 1.35v.45l.95.3.45.85.05.2m-3.8-.35l.35-.55.3-.4q.15-.25.45-.3h.05v-.85l-.05-.15q-.05-.4-.45-.3l-.3.15-.6.25q-.3.1-.45-.15-.2-.35.1-.45l.6-.25.5-.1.45-.15q.55-.55-.3-.5l-1.05-.1q-.6-.15-.6-.8l.1-.2.85.1h.6q.3-.3-.1-.55l-.95-.65-.1-.05m.9-.55l.4.35.25.3v-.25l.1-.5.1-.25.4-.7.3-.6m0-1.5l-.5.2q-.6.2-1.05.55-.4.35-.6-.1l-.1-.2-.1-.15-.4-1-.05-1.1-.1-.45-.05-.15v-.5m.8-.65l.2-.05h.45l.15-.05m.3-.65l.15-.05.25-.05m1.65-.75l.9-.2m1 .1l.65.85.15.3m-3.7 4.1l1.15-.55.65-.25.1-.05.1-.15.05-.05.05-.2-.15-.75-.25-.4V7.6l.05-.1.1-.05h.25m.1 0l.25.15m-4.6 3.1l.85-.3.95-.55.85-.55.9-.35.35-.05m-4 1.6l-.05-1.1.15-1.15.2-.45m1.05 6.05v1m-.95 4.9l-.1.7h.05l.75-.35q.8-.4 1.65-.5l.45.05 1.05 1.05-.05-.6"/><path fill="none" stroke="#A44100" stroke-width=".05" stroke-linecap="round" stroke-linejoin="round" d="M15.95 12.95q0-.65.55-.95l1.2-.1.35.25.8.8.45.4.3.45.1.5-.1.75-.05.15m-.85.65l-.3.05-.3-.1-.7-.85-.2-.25-.6-.55-.3-.3m-5.7-.1l-.75.35-.35.1-.8.05q-.45.05-.65-.2m-.15-.85l.1-.15.25-.4.05-.05.45-.15.1-.05 1.1-.35.5-.25.4-.1h.05l.65.2.15.25.1.3v.15l-.3.6-.2-.15q-.6-.45-.8.15v.05q-.1.3.1.5m-2.7-.55v.45l.15.4m10.65 1.8l.65-.4.2-.25m-3.6-2.25l.65-.15.9.15.1.25-.15.25-1.15.4"/><path fill="none" stroke="#772F00" stroke-width=".05" stroke-linecap="round" stroke-linejoin="round" d="M19.2 6.9h-.15l.1.15.2.55.05.5-.4-.35-.25-.25-.65-.3q-.45-.25-.95-.35m-.1 1.6l.35.25.55.2 1.4.15.4.2m-1.1.85l-.25-.1-.35-.3q-.45-.45-1.05-.65L16.95 9M10.1 7.15h-.35M9.6 6.7l.15-.05-.25-.15m-.2-.2h.95l.65.2-.4.2-.25.15-.15.3m1.6-.75l-1.2-.6-.6-.6m.9-.75l.3.1.55.55.25.35.1.3q-.25.15-.25.55l-.05.1m.7-.75l-.1-.6V5l-.05-.3V3.6l.45.2-.1-.4m1.5-.2v1.15l.05.25v.1l-.1.2m.9-.2H15v-.85l.05-.25.5-.85.45-.45m.85 1.05l-.6.4-.3.55.05.05h.65l-.3.15-.4.3-.25.25-.1.2-.5.35-.25-.15v-.6l.1-.15m1.8 1.25l.45-.25 1.5-.6.4-.05.4.2h-.2l-.7.3.3.1.65.05m-2.8.25l-.2.15h-.2l-.25.15q-.1.05-.05.2l.1.15.45.15.55.1m-4.75-1.2l.1.2-.15.45.1.25.5-.75.3-.1h.65l.15-.8m3 3.55L17 8.4l-.2-.45-.15.15-.05.15v.05l.1.5.25.2"/></svg>