<svg xmlns="http://www.w3.org/2000/svg" viewBox="0 0 43.7 47.0" width="43.7" height="47"><defs><radialGradient gradientUnits="userSpaceOnUse" r="819.2" cx="0" cy="0" spreadMethod="pad" gradientTransform="matrix(-.001 0 0 .001 20.35 2.1)" id="a"><stop offset="0" stop-color="#00f"/><stop offset="1"/></radialGradient><radialGradient gradientUnits="userSpaceOnUse" r="819.2" cx="0" cy="0" spreadMethod="pad" gradientTransform="matrix(-.017 0 0 .017 7.45 14.55)" id="b"><stop offset="0" stop-color="#6f0"/><stop offset=".502" stop-color="#0E2200"/><stop offset=".8"/></radialGradient><radialGradient gradientUnits="userSpaceOnUse" r="819.2" cx="0" cy="0" spreadMethod="pad" gradientTransform="matrix(-.016 0 0 .016 5.85 16.65)" id="c"><stop offset="0" stop-color="#6f0"/><stop offset=".502" stop-color="#0E2200"/><stop offset=".8"/></radialGradient><radialGradient gradientUnits="userSpaceOnUse" r="819.2" cx="0" cy="0" spreadMethod="pad" gradientTransform="matrix(-.01 0 .001 .013 14.85 10.55)" id="d"><stop offset="0" stop-color="#fff"/><stop offset=".537" stop-color="#c00"/><stop offset=".675" stop-color="#600"/><stop offset="1"/></radialGradient><radialGradient gradientUnits="userSpaceOnUse" r="819.2" cx="0" cy="0" spreadMethod="pad" gradientTransform="matrix(-.005 0 0 .005 20.8 7.1)" id="e"><stop offset="0" stop-color="#360"/><stop offset="1"/></radialGradient><radialGradient gradientUnits="userSpaceOnUse" r="819.2" cx="0" cy="0" spreadMethod="pad" gradientTransform="matrix(-.001 0 0 .001 22.6 2.3)" id="f"><stop offset="0" stop-color="#00f"/><stop offset="1"/></radialGradient><radialGradient gradientUnits="userSpaceOnUse" r="819.2" cx="0" cy="0" spreadMethod="pad" gradientTransform="matrix(-.006 0 0 .006 21.35 11.65)" id="g"><stop offset="0" stop-color="#360"/><stop offset="1"/></radialGradient><radialGradient gradientUnits="userSpaceOnUse" r="819.2" cx="0" cy="0" spreadMethod="pad" gradientTransform="matrix(-.003 0 0 .003 16.65 15.8)" id="h"><stop offset="0" stop-color="#fff"/><stop offset="1"/></radialGradient><radialGradient gradientUnits="userSpaceOnUse" r="819.2" cx="0" cy="0" spreadMethod="pad" gradientTransform="matrix(-.004 0 0 .004 14.1 15.4)" id="i"><stop offset="0" stop-color="#6f0"/><stop offset=".502" stop-color="#0E2200"/><stop offset=".8"/></radialGradient><radialGradient gradientUnits="userSpaceOnUse" r="819.2" cx="0" cy="0" spreadMethod="pad" gradientTransform="matrix(-.005 0 0 .005 20.6 17.4)" id="j"><stop offset="0" stop-color="#360"/><stop offset="1"/></radialGradient><radialGradient gradientUnits="userSpaceOnUse" r="819.2" cx="0" cy="0" spreadMethod="pad" gradientTransform="matrix(-.005 0 0 .005 20.7 22.2)" id="k"><stop offset="0" stop-color="#360"/><stop offset="1"/></radialGradient><radialGradient gradientUnits="userSpaceOnUse" r="819.2" cx="0" cy="0" spreadMethod="pad" gradientTransform="matrix(-.008 0 0 .008 19.4 25.6)" id="l"><stop offset="0" stop-color="#360"/><stop offset="1"/></radialGradient><radialGradient gradientUnits="userSpaceOnUse" r="819.2" cx="0" cy="0" spreadMethod="pad" gradientTransform="matrix(-.006 0 0 .006 10.35 31.7)" id="m"><stop offset="0" stop-color="#00f"/><stop offset="1"/></radialGradient><radialGradient gradientUnits="userSpaceOnUse" r="819.2" cx="0" cy="0" spreadMethod="pad" gradientTransform="matrix(-.004 0 0 .004 13.85 29.75)" id="n"><stop offset="0" stop-color="#6f0"/><stop offset=".502" stop-color="#0E2200"/><stop offset=".8"/></radialGradient><radialGradient gradientUnits="userSpaceOnUse" r="819.2" cx="0" cy="0" spreadMethod="pad" gradientTransform="matrix(-.004 0 0 .004 13.85 29.75)" id="o"><stop offset="0" stop-color="#00f"/><stop offset="1"/></radialGradient><radialGradient gradientUnits="userSpaceOnUse" r="819.2" cx="0" cy="0" spreadMethod="pad" gradientTransform="matrix(-.003 0 0 .003 13.8 28.35)" id="p"><stop offset="0" stop-color="#6f0"/><stop offset=".502" stop-color="#0E2200"/><stop offset=".8"/></radialGradient><radialGradient gradientUnits="userSpaceOnUse" r="819.2" cx="0" cy="0" spreadMethod="pad" gradientTransform="matrix(-.013 0 0 .013 19.55 41.35)" id="q"><stop offset="0" stop-color="#ff0"/><stop offset=".455" stop-color="#f60"/><stop offset="1"/></radialGradient><radialGradient gradientUnits="userSpaceOnUse" r="819.2" cx="0" cy="0" spreadMethod="pad" gradientTransform="matrix(-.012 0 0 .012 21.6 42.85)" id="r"><stop offset="0" stop-color="#f00"/><stop offset="1"/></radialGradient><radialGradient gradientUnits="userSpaceOnUse" r="819.2" cx="0" cy="0" spreadMethod="pad" gradientTransform="matrix(-.017 0 0 .017 34.85 17.45)" id="s"><stop offset="0" stop-color="#6f0"/><stop offset=".502" stop-color="#0E2200"/><stop offset=".8"/></radialGradient><radialGradient gradientUnits="userSpaceOnUse" r="819.2" cx="0" cy="0" spreadMethod="pad" gradientTransform="matrix(-.003 0 0 .003 24.75 15.9)" id="t"><stop offset="0" stop-color="#fff"/><stop offset="1"/></radialGradient><radialGradient gradientUnits="userSpaceOnUse" r="819.2" cx="0" cy="0" spreadMethod="pad" gradientTransform="matrix(-.004 0 0 .004 27.95 15.3)" id="u"><stop offset="0" stop-color="#6f0"/><stop offset=".502" stop-color="#0E2200"/><stop offset=".8"/></radialGradient><radialGradient gradientUnits="userSpaceOnUse" r="819.2" cx="0" cy="0" spreadMethod="pad" gradientTransform="matrix(-.014 0 0 .014 32.75 20.15)" id="v"><stop offset="0" stop-color="#6f0"/><stop offset=".502" stop-color="#0E2200"/><stop offset=".8"/></radialGradient><radialGradient gradientUnits="userSpaceOnUse" r="819.2" cx="0" cy="0" spreadMethod="pad" gradientTransform="matrix(-.004 0 0 .004 35.45 27.1)" id="w"><stop offset="0" stop-color="#360"/><stop offset="1"/></radialGradient><radialGradient gradientUnits="userSpaceOnUse" r="819.2" cx="0" cy="0" spreadMethod="pad" gradientTransform="matrix(-.004 0 0 .004 30.1 25.25)" id="x"><stop offset="0" stop-color="#360"/><stop offset="1"/></radialGradient><radialGradient gradientUnits="userSpaceOnUse" r="819.2" cx="0" cy="0" spreadMethod="pad" gradientTransform="matrix(-.004 0 0 .004 30.8 37.7)" id="y"><stop offset="0" stop-color="#360"/><stop offset="1"/></radialGradient><radialGradient gradientUnits="userSpaceOnUse" r="819.2" cx="0" cy="0" spreadMethod="pad" gradientTransform="matrix(-.004 0 0 .004 38.95 32.8)" id="z"><stop offset="0" stop-color="#360"/><stop offset="1"/></radialGradient><radialGradient gradientUnits="userSpaceOnUse" r="819.2" cx="0" cy="0" spreadMethod="pad" gradientTransform="matrix(-.004 0 0 .004 37.2 29.65)" id="A"><stop offset="0" stop-color="#360"/><stop offset="1"/></radialGradient><radialGradient gradientUnits="userSpaceOnUse" r="819.2" cx="0" cy="0" spreadMethod="pad" gradientTransform="matrix(-.005 0 0 .005 36.45 37.1)" id="B"><stop offset="0" stop-color="#360"/><stop offset="1"/></radialGradient><radialGradient gradientUnits="userSpaceOnUse" r="819.2" cx="0" cy="0" spreadMethod="pad" gradientTransform="matrix(-.01 0 0 .014 26.75 11.4)" id="C"><stop offset="0" stop-color="#fff"/><stop offset=".537" stop-color="#c00"/><stop offset=".675" stop-color="#600"/><stop offset="1"/></radialGradient></defs><path fill="#ff0" d="M4.25 2.4l1.25-.6.65-.1L5.1.65 3.8 0l.45 2.4m6.95 26.15l-.5 1-1.75 5.1-.2 1.3 1.95-5.1.75-1.3.3-.25.15-1.25.1-.25v-.05l.8-1.55v-.05q.4-.85.9-.4l.6.35 1.85-.1-1-1.8-1.35-3.65q-.4 2.45-1.35 5.05l-.75 1.85.15.15h-.2l-.25.45-.2.5m13.85.6q.2 1.85.95 3.65l.85 2.15V19.3l-1.4 3.15-.3.8q-.6 1.85-.8 3.75l.7.9v1.25m9.6 1.6q-2.2 1-1.45 2.85.15-1.45 1.85-2.25l-.4-.6m1.4 2.2l-2.2.45 2.3.05-.1-.5m.95 7.3l.3 1.2q.05 1.5.25 2.7 1.2-.95 1.45-2.7.2-1.25-.1-2.25l-.45-.95-.5-.65q-2.5.6-1.1 2.45l.15.2m4.65-6q2.05 1.15 1.9 3.45.25-1 .1-2.1-.2-1.95-1.9-2.6.2.7-.1 1.25m-1.6-5.05q1.75-.45 3.6.65l-.4-.65q-1.55-1.7-3.35-.75l.15.75M37.3 5.75q.3-.55.2-1.45l-.2-1.95-.55.35q-1.1.65-1.65 1.75h.25q1.3.25 1.95 1.3m-12.1 20.5q.15 1.05-.15 1.65.3-.6.15-1.65"/><path fill="url(#a)" d="M20.8 3.15q-.7-.85-.4-2.05-.95.8-.2 1.85l.4.25.2-.05"/><path fill="url(#b)" d="M2.45 4.7l.1 3.55q-.05 2.2.7 4.15l3.7 8.45Q7.9 22.8 9.2 24.5l2.5 2.95.75-1.85-.9-1.6q-.55-1.1-.45-2.35.15-2.1-.45-3.9l-.15-.6.6.15.05-.1.2-.6v-.1l-.1-.2L8.3 8.95q-.45-1.45-.4-3Q8 4.4 7.6 3q-.35-1.3-1.45-1.3l-.65.1-1.25.6H4.2l-.85.8-.9 1.5m4.2-1.75l-.5-1.25.5 1.25m-.35 2.3l.5 2.7 3.7 9.2-3.7-9.2-.5-2.7"/><path fill="url(#c)" d="M11.7 27.45L9.2 24.5q-1.3-1.7-2.25-3.65l-3.7-8.45q-.75-1.95-.7-4.15l-.1-3.55-.25 1-.65 1.9-1.1 2.85-.45 2.9q-.05 1.5.35 2.85l.85 2.65q.45 1.2 1.25 2.25l1.95 2.15 6.8 5.3.2-.5.25-.45.05-.15"/><path fill="url(#d)" d="M19.7 3.5l-.1-.1q-1-.9-2.25-1.05-1.5-.25-2.75.65l-2 2-1.45 2.45q-.7 1.35-.3 2.85.4 1.45 1.75 2.25 1.35.7 2.75.95l.45.05 1.25.05.6-.1.1-3.15q.05-1.4.65-2.6l1.35-2.8q.3-.6.1-1.25l-.15-.2"/><path fill="url(#e)" d="M19.7 3.5l.15.2q.2.65-.1 1.25l-1.35 2.8 3.25 3.35 1.55-3.75-.5-2.25-.1-1.4v-.1l-.7-.35-.45-.1h-.65l.1.15-.3-.1-.9.3"/><path fill="url(#f)" d="M22.15 3.3q1.25-.65.8-2l-.8 2"/><path fill="url(#g)" d="M24.9 13.5h.05l.1-.05q-.1-1.6-.65-2.9l-1.2-3.2-1.55 3.75-3.25-3.35q-.6 1.2-.65 2.6l-.1 3.15 1.15.7.9.45 1.1 1.3q.75-1 1.85-1.7l.05-.05q.85-.55 2.15-.7h.05"/><path fill="url(#h)" d="M17.65 13.5l-.6.1-2.4 2.15q-.4.65.25 1.25l1.6 1.1q-.25-.65-.15-1.4.15-1.3 1.25-1.95l1.2-.55-1.15-.7"/><path fill="url(#i)" d="M11.25 16.3l.1.2v.1l-.2.6q1.4-.25 2.6-.9l.9-.55 2.4-2.15-1.25-.05L14 14.9q-1.15.95-2.75 1.4"/><path fill="url(#j)" d="M22.65 14.25q-1.1.7-1.85 1.7l-1.1-1.3-.9-.45-1.2.55 1.05 5.95.9-.8.45-.5q1.5-1.95 2.7-.7l.5-1.5q.4-1.15.4-2.3l-.95-.65"/><path fill="url(#k)" d="M22.7 18.7q-1.2-1.25-2.7.7l-.45.5-.9.8.25 1.15.4 1.85q-.65 1.45 0 2.1l.45.3.4.15q.6.1 1.05-.35 1.1-1 .15-2.3l.35-1.7 1-3.2m-3.4 7.1v-2.1 2.1m1.45-.4l.6-1.8-.6 1.8"/><path fill="url(#l)" d="M15.55 29h.1l.9.15h8.5V27.9l-.7-.9q.2-1.9.8-3.75l-1.2-.75-.15-.1-2.1-.5-.35 1.7q.95 1.3-.15 2.3-.45.45-1.05.35l-.4-.15-.45-.3q-.65-.65 0-2.1l-.4-1.85q-1.5.35-2.75 1.35l-1 1 1 1.8-1.85.1-.1.8h1l-.1.5-.6.55-.85.2.35.3.6.2.95.35m11.3-.35l.4-.55q.8-.15 1.3-.75l.15-.2q1.35-1.9-.7-3.65l-.7-.5-.45-.2v5.85m.4-.55l.1-.95-.5-1.8.5 1.8-.1.95"/><path fill="url(#m)" d="M11.7 27.45l-.05.15h.2l-.15-.15"/><path fill="url(#n)" d="M11.75 29.3l.25.15.25.1 1.25.7.25.1 1.15.65v-.55l-1.15-.9h-.25v-.2l-1.25-1.3H12v-.25l-.1.25-.15 1.25"/><path fill="url(#o)" d="M14.9 31l1.3.7-.95-.9-.25-.3-.1-.05V31m-2.65-2.95l-.2-.25H12v.25h.25m1.25 1.3v.2h.25l-.25-.2"/><path fill="url(#p)" d="M13.5 29.35l.25.2 1.15.9.1.05-.55-.6-.65-.95.7.15.65.05.4-.05V29l-.95-.35-.6-.2-.35-.3.85-.2.6-.55.1-.5h-1.65l-.5-.35-.25-.35-.8 1.55v.05h.05l.2.25 1.25 1.3"/><path fill="url(#q)" d="M29.2 37.4l-3.1-.6-4.6-.15-4.55.55q-2 .45-3.9 1.5-1.95 1.1-3.15 3.15-1.3 2.15.25 4.2l-.1-1.15q-.05-.8.3-1.45.45-.8 1.45-.35h.1l.45-.9q.45.05.65.3l1.15.9q1.4.65 3.15.7 1.4 0 2.15-.8.5-.55.05-1.1-.95-1.3-2.2-.75.45-.1 1.2.4.3 1.95-2.35.9Q13.6 41.7 15.7 40q1.75-1.4 4.25-1.25-.5 1.85.05 2.55l6.9-.75q1.8-.1 2.85-1.1-1.05-.45-1.6-1.4l1.05-.65"/><path fill="url(#r)" d="M11.9 43.1q1.05.45 1.55 1.5 1.3 2.5 4.7 2.35l3.6-.65 1.75-.7 3-2q1.95-1.65 4.25-2.5.7-.3.5-1.3l-1.5-.35q-1.05 1-2.85 1.1l-6.9.75q-.55-.7-.05-2.55-2.5-.15-4.25 1.25-2.1 1.7.45 2.75 2.65 1.05 2.35-.9-.75-.5-1.2-.4 1.25-.55 2.2.75.45.55-.05 1.1-.75.8-2.15.8-1.75-.05-3.15-.7L13 42.5q-.2-.25-.65-.3l-.45.9"/><path fill="url(#s)" d="M30.65 30.45l2.2-1.7L34 27.8l1.85-1.95.7-1 1.85-4.05q.6-1.45.65-2.95l-.2-3.05-.25-2.75-.25-3q-.2-1.45-.8-2.85l-.25-.45q-.65-1.05-1.95-1.3h-.25l-.15.05-.85.2q-1.05.7-1.75 2.15-.55 1.1-.7 3l-.5 4.8-.4 1.7-.1.1.25.65.4.3v-.25l.15-.45 1.25-2.25v-.2l.2-1.5q.3-1.9 1.2-3.45l.2-.35q1.25 1.6 2.1 3.45.7 1.45.8 3.05.15 2.2-.55 4.3-.65 2.1-1.8 4.2l-4.2 6.5m4.2-24.5q-.6 1.15-.05 2.1v.05l-.5.8.5-.8v-.05q-.55-.95.05-2.1m-.55 3l-.1-.1.1.05v.05"/><path fill="url(#t)" d="M24.95 13.55l-.05-.05h-.05q-1.3.15-2.15.7l-.05.05.95.65.9.7q1.15.9.65 2.75l1.15-1.05q.65-.55.45-1.25l-.2-.5q-.65-1.25-1.6-2"/><path fill="url(#u)" d="M24.95 13.55q.95.75 1.6 2l.2.5 1.6.55 2.55.5-.25-.65v-.15l-5.7-2.75"/><path fill="url(#v)" d="M30.4 27.65l-2.2 1.4.75-.05 2.9-.65-.65.7-1.65 2.35 1.1-.95 4.2-6.5q1.15-2.1 1.8-4.2.7-2.1.55-4.3-.1-1.6-.8-3.05-.85-1.85-2.1-3.45l-.2.35q-.9 1.55-1.2 3.45l-.2 1.5v.2q-.1 1.3.05 2.6l.2 4.1-.1.5-.95 1.5-.7.75 1.5-.25-.05-.05h.1l.65-.15-.2.2-.3.2-2.4 1.55 1.8.65-1.9 1.6"/><path fill="url(#w)" d="M32.85 28.75l1.45.5 2.9-.25q.65-.2.7-.8l.05-1.1q-.15-1.35-1.4-2.25l-.7 1L34 27.8l-1.15.95"/><path fill="url(#x)" d="M28.55 27.35l1.85.3 1.9-1.6-1.8-.65 2.4-1.55-.2-.2-1.5.25.7-.75-.75-.2q-1.95-.35-3.85.05l.7.5q2.05 1.75.7 3.65l-.15.2"/><path fill="url(#y)" d="M33.35 35.6l-.9.25q-1.5.6-3.25 1.55l-1.05.65q.55.95 1.6 1.4l1.5.35.6.05 1.45-.15q-.6-.6-.7-1.75-.1-1.4.75-2.35"/><path fill="url(#z)" d="M36.45 32.15q-.35.35-.4.8l.1.5.15.3.35.5q1.55 1.6 3.4 1.1l.65-.3.95-.8q.3-.55.1-1.25v-.05q-.45-1.7-1.75-2.8-.3 1.95-2.55 2.05l-1-.05"/><path fill="url(#A)" d="M36.45 32.15l1 .05q2.25-.1 2.55-2.05l.05-.95-.15-.75q-.35-1.4-1.95-1.35l-.05 1.1q-.05.6-.7.8l-2.9.25.05.6.3.9.4.6q.55.6 1.4.8"/><path fill="url(#B)" d="M36.3 33.75l-2.15 1.2-.8.65q-.85.95-.75 2.35.1 1.15.7 1.75.75.75 2.25.7l1.45-.15-.15-.2q-1.4-1.85 1.1-2.45l.5.65.45.95.4-.4q1.55-1.7.75-3.45-1.85.5-3.4-1.1l-.35-.5"/><path fill="url(#C)" d="M25.15 13.5q1.35 0 2.7-.7t2.2-1.9q.95-1.25.75-2.8-.1-1.45-.7-2.7-.65-1.4-1.95-2.15-1.25-.8-2.85-.55-1.5.25-2.7.9v.1l.1 1.4.5 2.25 1.2 3.2q.55 1.3.65 2.9l.1.05"/><path fill="none" stroke="#000" stroke-width=".05" stroke-linecap="round" stroke-miterlimit="3" d="M2.45 4.7l-.25 1-.65 1.9-1.1 2.85-.45 2.9q-.05 1.5.35 2.85l.85 2.65q.45 1.2 1.25 2.25l1.95 2.15 6.8 5.3m.55.75l.25.15.25.1 1.25.7.25.1 1.15.65 1.3.7-.95-.9-.25-.3-.55-.6-.65-.95.7.15.65.05.4-.05.1-.05h-.05l-.05-.05h.1l.9.15h8.5M24.9 13.5h.05l.1-.05v.05h.1m-9.35.05L14 14.9q-1.15.95-2.75 1.4m3.4-.55l-.9.55q-1.2.65-2.6.9m7.65-3l.9.45 1.1 1.3q.75-1 1.85-1.7m.95.65q0 1.15-.4 2.3l-.5 1.5m-4.05 2l-1.05-5.95m1.3 7.1l.4 1.85q-.65 1.45 0 2.1l.45.3.4.15q.6.1 1.05-.35 1.1-1 .15-2.3l.35-1.7 2.1.5.15.1 1.2.75q-.6 1.85-.8 3.75l.7.9v1.25m-6.4-8.45l.25 1.15q-1.5.35-2.75 1.35l-1 1 1 1.8-1.85.1-.1.8h1l-.1.5-.6.55-.85.2.35.3.6.2.95.35m6.15-7.1l1-3.2m2.75 3.75l-1.5.05M12.8 26.2l-.8 1.55v.05l-.1.25-.15 1.25m-.1-1.7l.05-.15m-.05.15l-.25.45-.2.5m1.6-2.35l.25.35.5.35h.65m7.15-3.3l-.6 1.8m-1.45-1.7v2.1"/><path fill="none" stroke="#6A2A00" stroke-width=".05" stroke-linecap="round" stroke-miterlimit="3" d="M29.2 37.4l-3.1-.6-4.6-.15-4.55.55q-2 .45-3.9 1.5-1.95 1.1-3.15 3.15-1.3 2.15.25 4.2l-.1-1.15q-.05-.8.3-1.45.45-.8 1.45-.35h.1"/><path fill="none" stroke="#690000" stroke-width=".05" stroke-linecap="round" stroke-miterlimit="3" d="M11.9 43.1q1.05.45 1.55 1.5 1.3 2.5 4.7 2.35l3.6-.65 1.75-.7 3-2q1.95-1.65 4.25-2.5.7-.3.5-1.3"/><path fill="none" stroke="#AE0000" stroke-width=".05" stroke-linecap="round" stroke-miterlimit="3" d="M25.15 13.5q1.35 0 2.7-.7t2.2-1.9q.95-1.25.75-2.8-.1-1.45-.7-2.7-.65-1.4-1.95-2.15-1.25-.8-2.85-.55-1.5.25-2.7.9v.1l.1 1.4.5 2.25 1.2 3.2q.55 1.3.65 2.9l.1.05m-5.45-10l-.1-.1q-1-.9-2.25-1.05-1.5-.25-2.75.65l-2 2-1.45 2.45q-.7 1.35-.3 2.85.4 1.45 1.75 2.25 1.35.7 2.75.95l.45.05M19.7 3.5l.15.2q.2.65-.1 1.25l-1.35 2.8q-.6 1.2-.65 2.6l-.1 3.15m-.6.1l-1.25-.05"/><path fill="none" stroke="#8C8C00" stroke-width=".05" stroke-linecap="round" stroke-miterlimit="3" d="M11.2 28.55l-.5 1-1.75 5.1-.2 1.3 1.95-5.1.75-1.3.3-.25m13.3-.15q.2 1.85.95 3.65l.85 2.15v-6.3m7.8 2.1q-2.2 1-1.45 2.85.15-1.45 1.85-2.25m1 1.6l-2.2.45 2.3.05m.85 6.8l.3 1.2q.05 1.5.25 2.7 1.2-.95 1.45-2.7.2-1.25-.1-2.25m2.75-4.95q2.05 1.15 1.9 3.45.25-1 .1-2.1-.2-1.95-1.9-2.6m-1.7-3.8q1.75-.45 3.6.65l-.4-.65q-1.55-1.7-3.35-.75m-2.6-22.7q.3-.55.2-1.45l-.2-1.95-.55.35q-1.1.65-1.65 1.75M4.25 2.4L3.8 0l1.3.65L6.15 1.7m9 22.5l-1.35-3.65q-.4 2.45-1.35 5.05m14.4-2.8v-3.5l-1.4 3.15-.3.8m1.7 2.1v3.3m-1.8-.75q.3-.6.15-1.65m-10.9-.15l-.6-.35q-.5-.45-.9.4v.05"/><path fill="none" stroke="#333" stroke-width=".05" stroke-linecap="round" stroke-miterlimit="3" d="M24.95 13.55l-.05-.05m-7.25 0l-.6.1m.55 1.15q-1.1.65-1.25 1.95-.1.75.15 1.4L14.9 17q-.65-.6-.25-1.25l2.4-2.15m5.6.65l.95.65m-6-.15l1.2-.55-1.15-.7m5 .75l.05-.05q.85-.55 2.15-.7h.05m1.85 2.55q.2.7-.45 1.25l-1.15 1.05q.5-1.85-.65-2.75l-.9-.7m1.35-1.35q.95.75 1.6 2l.2.5"/><path fill="none" stroke="#003" stroke-width=".05" stroke-linecap="round" stroke-miterlimit="3" d="M22.6 3.6l-.7-.35h.25v.05q1.25-.65.8-2l-.8 2m-1.35-.15q-.7-.85-.4-2.05-.95.8-.2 1.85l.4.25-.9.3m2.2-.25l-.45-.1h-.65l-.2.05.3.1-.1-.15"/><path fill="none" stroke="#132F00" stroke-width=".05" stroke-linecap="round" stroke-miterlimit="3" d="M2.45 4.7l.9-1.5.85-.8h.05l1.25-.6.65-.1.5 1.25m20.2 25.7l.4-.55q.8-.15 1.3-.75l1.85.3-2.2 1.4.75-.05 2.9-.65-.65.7-1.65 2.35 1.1-.95 2.2-1.7 1.45.5.05.6.3.9.4.6q.55.6 1.4.8-.35.35-.4.8m.1.5l.15.3-2.15 1.2-.8.65-.9.25q-1.5.6-3.25 1.55m2.05 2.4l.6.05 1.45-.15q.75.75 2.25.7l1.45-.15-.15-.2q-1.4-1.85 1.1-2.45l.5.65.45.95.4-.4q1.55-1.7.75-3.45l.65-.3.95-.8m.1-1.25v-.05q-.45-1.7-1.75-2.8l.05-.95-.15-.75q-.35-1.4-1.95-1.35-.15-1.35-1.4-2.25l1.85-4.05q.6-1.45.65-2.95l-.2-3.05-.25-2.75-.25-3q-.2-1.45-.8-2.85l-.25-.45q-.65-1.05-1.95-1.3h-.25l-.15.05-.85.2q-1.05.7-1.75 2.15-.55 1.1-.7 3l-.5 4.8-.4 1.7-.1-.05-5.7-2.75M6.15 1.7q1.1 0 1.45 1.3.4 1.4.3 2.95-.05 1.55.4 3l2.95 7.35.1.2v.1l-.2.6-.05.1-.6-.15-3.7-9.2-.5-2.7m6.15 20.35l-.9-1.6q-.55-1.1-.45-2.35.15-2.1-.45-3.9l-.15-.6m22.2-2.7v-.2l.2-1.5q.3-1.9 1.2-3.45l.2-.35m0-.05l.5-.8v-.05q-.55-.95.05-2.1M34.3 8.9v.05m-7.55 7.1l1.6.55 2.55.5.4.3v-.25l.15-.45 1.25-2.25q-.1 1.3.05 2.6l.2 4.1-.1.5-.95 1.5-.75-.2q-1.95-.35-3.85.05l-.45-.2v2.55l.5 1.8-.1.95m3.4-11.65v-.15m0 .15l.1-.1m.15.75l-.25-.65m2.1 7.15l-.05.05-.05-.05h.1l.65-.15-.2.2-.45-.05m.15.25l.3-.2m-.5 0l.2.2-2.4 1.55 1.8.65-1.9 1.6m2.3-4l-1.5.25.7-.75M27.3 23l.7.5q2.05 1.75.7 3.65l-.15.2m4.3 1.4L34 27.8l1.85-1.95.7-1m1.4 2.25l-.05 1.1q-.05.6-.7.8l-2.9.25M41.75 33q.2.7-.1 1.25m-5.2-2.1l1 .05q2.25-.1 2.55-2.05m-3.85 3.3l-.1-.5m.25.8l.35.5q1.55 1.6 3.4 1.1m-8.8 4.45l-1.5-.35q-1.05-.45-1.6-1.4l1.05-.65m4.15-1.8q-.85.95-.75 2.35.1 1.15.7 1.75M11.7 27.45l.75-1.85"/></svg>