<svg xmlns="http://www.w3.org/2000/svg" viewBox="0 0 41.6 42.5" width="41.6" height="42.5"><defs><radialGradient gradientUnits="userSpaceOnUse" r="819.2" cx="0" cy="0" fx="87942.4" fy="0" spreadMethod="repeat" gradientTransform="matrix(.014 -.001 0 .015 34.6 9.65)" id="a"><stop offset="0" stop-color="#009"/><stop offset=".525" stop-color="#6f9"/><stop offset="1" stop-color="#330"/></radialGradient><radialGradient gradientUnits="userSpaceOnUse" r="819.2" cx="0" cy="0" spreadMethod="pad" gradientTransform="matrix(.004 0 0 .004 33.9 10.05)" id="b"><stop offset="0" stop-color="#060"/><stop offset="1"/></radialGradient><radialGradient gradientUnits="userSpaceOnUse" r="819.2" cx="0" cy="0" spreadMethod="pad" gradientTransform="matrix(.004 0 0 .004 37.55 13.35)" id="c"><stop offset="0" stop-color="#00f"/><stop offset="1"/></radialGradient><radialGradient gradientUnits="userSpaceOnUse" r="819.2" cx="0" cy="0" spreadMethod="pad" gradientTransform="matrix(.292 -.02 0 .314 -1.05 -.35)" id="d"><stop offset="0" stop-color="#060"/><stop offset="1"/></radialGradient><radialGradient gradientUnits="userSpaceOnUse" r="819.2" cx="0" cy="0" spreadMethod="pad" gradientTransform="matrix(.006 -.002 .002 .013 23.15 1.35)" id="e"><stop offset="0" stop-color="#f90"/><stop offset=".388" stop-color="#300"/><stop offset=".745" stop-color="#330"/></radialGradient><radialGradient gradientUnits="userSpaceOnUse" r="819.2" cx="0" cy="0" spreadMethod="pad" gradientTransform="matrix(.012 -.002 .003 .026 23.3 3.6)" id="f"><stop offset="0" stop-color="#f00"/><stop offset=".278" stop-color="#ff0"/><stop offset=".604" stop-color="#794C00"/><stop offset="1" stop-color="#630"/></radialGradient><radialGradient gradientUnits="userSpaceOnUse" r="819.2" cx="0" cy="0" spreadMethod="pad" gradientTransform="matrix(.001 0 0 .001 26.15 9.7)" id="g"><stop offset="0" stop-color="#00f"/><stop offset="1"/></radialGradient><radialGradient gradientUnits="userSpaceOnUse" r="819.2" cx="0" cy="0" spreadMethod="pad" gradientTransform="matrix(.002 0 0 .002 28.95 12.3)" id="h"><stop offset="0" stop-color="#060"/><stop offset="1"/></radialGradient><radialGradient gradientUnits="userSpaceOnUse" r="819.2" cx="0" cy="0" spreadMethod="pad" gradientTransform="matrix(.006 0 0 .006 34.2 15.85)" id="i"><stop offset="0" stop-color="#060"/><stop offset="1"/></radialGradient><radialGradient gradientUnits="userSpaceOnUse" r="819.2" cx="0" cy="0" spreadMethod="pad" gradientTransform="matrix(.006 -.001 .002 .011 26.75 16.9)" id="j"><stop offset="0" stop-color="#f90"/><stop offset=".388" stop-color="#300"/><stop offset=".745" stop-color="#330"/></radialGradient><radialGradient gradientUnits="userSpaceOnUse" r="819.2" cx="0" cy="0" spreadMethod="pad" gradientTransform="matrix(.004 0 0 .007 25.45 13)" id="k"><stop offset="0" stop-color="#f90"/><stop offset=".388" stop-color="#300"/><stop offset=".745" stop-color="#330"/></radialGradient><radialGradient gradientUnits="userSpaceOnUse" r="819.2" cx="0" cy="0" spreadMethod="pad" gradientTransform="matrix(.005 -.002 .002 .009 27.4 22.4)" id="l"><stop offset="0" stop-color="#f90"/><stop offset=".388" stop-color="#300"/><stop offset=".745" stop-color="#330"/></radialGradient><radialGradient gradientUnits="userSpaceOnUse" r="819.2" cx="0" cy="0" spreadMethod="pad" gradientTransform="matrix(.007 0 0 .007 19.9 22.4)" id="m"><stop offset="0" stop-color="#060"/><stop offset="1"/></radialGradient><radialGradient gradientUnits="userSpaceOnUse" r="819.2" cx="0" cy="0" spreadMethod="pad" gradientTransform="matrix(.005 0 0 .006 34.2 20.35)" id="n"><stop offset="0" stop-color="#060"/><stop offset="1"/></radialGradient><radialGradient gradientUnits="userSpaceOnUse" r="819.2" cx="0" cy="0" spreadMethod="pad" gradientTransform="matrix(.006 0 0 .007 32.75 26.45)" id="o"><stop offset="0" stop-color="#060"/><stop offset="1"/></radialGradient><radialGradient gradientUnits="userSpaceOnUse" r="819.2" cx="0" cy="0" spreadMethod="pad" gradientTransform="matrix(.004 0 0 .004 38.8 23)" id="p"><stop offset="0" stop-color="#00f"/><stop offset="1"/></radialGradient><radialGradient gradientUnits="userSpaceOnUse" r="819.2" cx="0" cy="0" spreadMethod="pad" gradientTransform="matrix(.004 0 0 .004 37.8 28.75)" id="q"><stop offset="0" stop-color="#00f"/><stop offset="1"/></radialGradient><radialGradient gradientUnits="userSpaceOnUse" r="819.2" cx="0" cy="0" spreadMethod="pad" gradientTransform="matrix(.003 0 0 .003 37.4 37.3)" id="r"><stop offset="0" stop-color="#00f"/><stop offset="1"/></radialGradient><radialGradient gradientUnits="userSpaceOnUse" r="819.2" cx="0" cy="0" spreadMethod="pad" gradientTransform="matrix(.007 0 0 .008 33.65 32.2)" id="s"><stop offset="0" stop-color="#060"/><stop offset="1"/></radialGradient><radialGradient gradientUnits="userSpaceOnUse" r="819.2" cx="0" cy="0" spreadMethod="pad" gradientTransform="matrix(.007 0 0 .011 27.95 26.95)" id="t"><stop offset="0" stop-color="#f90"/><stop offset=".388" stop-color="#300"/><stop offset=".745" stop-color="#330"/></radialGradient><radialGradient gradientUnits="userSpaceOnUse" r="819.2" cx="0" cy="0" spreadMethod="pad" gradientTransform="matrix(.006 .002 -.004 .012 27.5 32.6)" id="u"><stop offset="0" stop-color="#f90"/><stop offset=".388" stop-color="#300"/><stop offset=".745" stop-color="#330"/></radialGradient><radialGradient gradientUnits="userSpaceOnUse" r="819.2" cx="0" cy="0" spreadMethod="pad" gradientTransform="matrix(.007 0 0 .007 21 31)" id="v"><stop offset="0" stop-color="#060"/><stop offset="1"/></radialGradient><radialGradient gradientUnits="userSpaceOnUse" r="819.2" cx="0" cy="0" spreadMethod="pad" gradientTransform="matrix(.005 0 0 .006 31.45 37.1)" id="w"><stop offset="0" stop-color="#060"/><stop offset="1"/></radialGradient><radialGradient gradientUnits="userSpaceOnUse" r="819.2" cx="0" cy="0" spreadMethod="pad" gradientTransform="matrix(.003 0 0 .004 32.25 40.25)" id="x"><stop offset="0" stop-color="#00f"/><stop offset="1"/></radialGradient><radialGradient gradientUnits="userSpaceOnUse" r="819.2" cx="0" cy="0" spreadMethod="pad" gradientTransform="matrix(.003 .007 -.011 .006 23.4 37.05)" id="y"><stop offset="0" stop-color="#f90"/><stop offset=".388" stop-color="#300"/><stop offset=".745" stop-color="#330"/></radialGradient><linearGradient gradientUnits="userSpaceOnUse" x1="-819.2" x2="819.2" gradientTransform="matrix(.006 0 0 .007 5.9 27.15)" id="z"><stop offset="0" stop-color="#ff0"/><stop offset=".361" stop-color="#8A6300"/><stop offset="1" stop-color="#630"/></linearGradient><radialGradient gradientUnits="userSpaceOnUse" r="819.2" cx="0" cy="0" spreadMethod="pad" gradientTransform="matrix(.014 -.001 0 .015 10.05 8.35)" id="A"><stop offset="0" stop-color="#009"/><stop offset=".525" stop-color="#6f9"/><stop offset="1" stop-color="#330"/></radialGradient><radialGradient gradientUnits="userSpaceOnUse" r="819.2" cx="0" cy="0" spreadMethod="pad" gradientTransform="matrix(.002 0 0 .002 21.9 10)" id="B"><stop offset="0" stop-color="#00f"/><stop offset="1"/></radialGradient><radialGradient gradientUnits="userSpaceOnUse" r="819.2" cx="0" cy="0" spreadMethod="pad" gradientTransform="matrix(.002 0 0 .002 16.1 12.5)" id="C"><stop offset="0" stop-color="#060"/><stop offset="1"/></radialGradient><radialGradient gradientUnits="userSpaceOnUse" r="819.2" cx="0" cy="0" spreadMethod="pad" gradientTransform="matrix(.004 0 0 .005 12.3 14.2)" id="D"><stop offset="0" stop-color="#00f"/><stop offset="1"/></radialGradient><radialGradient gradientUnits="userSpaceOnUse" r="819.2" cx="0" cy="0" spreadMethod="pad" gradientTransform="matrix(.005 0 0 .006 12.75 20.75)" id="E"><stop offset="0" stop-color="#00f"/><stop offset="1"/></radialGradient><radialGradient gradientUnits="userSpaceOnUse" r="819.2" cx="0" cy="0" spreadMethod="pad" gradientTransform="matrix(.003 0 0 .003 21.15 13.75)" id="F"><stop offset="0" stop-color="#060"/><stop offset="1"/></radialGradient><radialGradient gradientUnits="userSpaceOnUse" r="819.2" cx="0" cy="0" spreadMethod="pad" gradientTransform="matrix(.006 0 0 .006 20.3 17.55)" id="G"><stop offset="0" stop-color="#060"/><stop offset="1"/></radialGradient><radialGradient gradientUnits="userSpaceOnUse" r="819.2" cx="0" cy="0" spreadMethod="pad" gradientTransform="matrix(.006 0 0 .007 20.05 27.3)" id="H"><stop offset="0" stop-color="#060"/><stop offset="1"/></radialGradient><radialGradient gradientUnits="userSpaceOnUse" r="819.2" cx="0" cy="0" spreadMethod="pad" gradientTransform="matrix(.005 0 0 .005 12 25.2)" id="I"><stop offset="0" stop-color="#00f"/><stop offset="1"/></radialGradient><radialGradient gradientUnits="userSpaceOnUse" r="819.2" cx="0" cy="0" spreadMethod="pad" gradientTransform="matrix(.004 0 0 .004 14.1 27.4)" id="J"><stop offset="0" stop-color="#00f"/><stop offset="1"/></radialGradient><radialGradient gradientUnits="userSpaceOnUse" r="819.2" cx="0" cy="0" spreadMethod="pad" gradientTransform="matrix(.002 0 0 .003 16.7 32.6)" id="K"><stop offset="0" stop-color="#00f"/><stop offset="1"/></radialGradient><radialGradient gradientUnits="userSpaceOnUse" r="819.2" cx="0" cy="0" spreadMethod="pad" gradientTransform="matrix(.005 0 0 .006 15.55 34.2)" id="L"><stop offset="0" stop-color="#060"/><stop offset="1"/></radialGradient><radialGradient gradientUnits="userSpaceOnUse" r="819.2" cx="0" cy="0" spreadMethod="pad" gradientTransform="matrix(.004 0 0 .005 18.3 34.7)" id="M"><stop offset="0" stop-color="#060"/><stop offset="1"/></radialGradient><radialGradient gradientUnits="userSpaceOnUse" r="819.2" cx="0" cy="0" spreadMethod="pad" gradientTransform="matrix(.005 0 0 .005 11.3 33.15)" id="N"><stop offset="0" stop-color="#060"/><stop offset="1"/></radialGradient><radialGradient gradientUnits="userSpaceOnUse" r="819.2" cx="0" cy="0" spreadMethod="pad" gradientTransform="matrix(.003 0 0 .003 7.95 35.75)" id="O"><stop offset="0" stop-color="#00f"/><stop offset="1"/></radialGradient><radialGradient gradientUnits="userSpaceOnUse" r="819.2" cx="0" cy="0" spreadMethod="pad" gradientTransform="matrix(.004 0 0 .004 11.45 37.35)" id="P"><stop offset="0" stop-color="#00f"/><stop offset="1"/></radialGradient><radialGradient gradientUnits="userSpaceOnUse" r="819.2" cx="0" cy="0" spreadMethod="pad" gradientTransform="matrix(.002 0 0 .003 16.4 40.45)" id="Q"><stop offset="0" stop-color="#00f"/><stop offset="1"/></radialGradient><radialGradient gradientUnits="userSpaceOnUse" r="819.2" cx="0" cy="0" spreadMethod="pad" gradientTransform="matrix(.002 0 0 .002 29.4 14.15)" id="R"><stop offset="0" stop-color="#060"/><stop offset="1"/></radialGradient></defs><path fill="#fff" d="M31.15 10.2l3.15 2.05.85.8v.05q-2.1 1-4.05 2.5l-.2.15-2.8 2.2 1.7-2 .5-1.05.15-1.5v-.05q-.1-.8-.65-1.1l-1.45-1.05 2.8-1M17.2 11.5l.5.15 3 .6-.7.7q-.85.7-1 1.75l.1.7h.05q2.05 2.4 4.45 3.9l-6.95-2.75-1.2-.65q-.65-.4-.25-.9l.55-.8 1.45-2.7"/><path fill="url(#a)" d="M31.45 2.35q1-.85 2.25-1.3l3.8-.4q2 .25 2.1 2.55l.2 8.45q0 2.1.65 3.95.45 1.3 1.2 2.6l-1.1-1.7-1.1-2.3q-.85-2.05-.7-4.6.15-2.1-.4-3.9Q38 4.5 37.1 3.75L35.05 2.4q-1.1-.65-2.05.3l-.55.55-1 1.4-.4.85q-.85 1.75-2.95 1.1-.6-.2-.5-.45l2.1-2 1.75-1.8"/><path fill="url(#b)" d="M34.55 6.95q.95.15 1.5 1.1.65 1 .6 2.45v.35l-.4 1.25-.35.45-.75.5-.85-.8-3.15-2.05.65-.25q2.7-1.2 2.75-2.95v-.05"/><path fill="url(#c)" d="M36.65 10.5q1.55.95 2 3.05l.25 2.7q-.35-1.8-1.75-3.25l-.9-.9.4-1.25v-.35"/><path fill="url(#d)" d="M32.45 3.25q.9.95 1.25 2.3-.8-.6-2.25-.9l1-1.4m-2.75.9l-2-.8.25-.65.15-1.8h.15l2.05.75 1.15.7-1.75 1.8m-10.3-3.1q0 1.4.75 2.7l.1.2-3 1.25-2.1-.95 2-1.85 2.25-1.35m-5.05 4.4l.9.5-1.05.5.15-1"/><path fill="url(#e)" d="M27.7 3.35L26.95 3l-.25-.15.05.2v.8l-5.5.45-.05-.2v-.6l-.95.45-.1-.2q-.75-1.3-.75-2.7L20.65.5 24.4.1l3.7.8-.15 1.8-.25.65"/><path fill="url(#f)" d="M27.7 3.35l2 .8-2.1 2q-.1.25.5.45 2.1.65 2.95-1.1l.4-.85q1.45.3 2.25.9.75.55.85 1.35V7q-.05 1.75-2.75 2.95l-.65.25-2.8 1-.9.25-2 .55-2.85.35-1.9-.1-3-.6-.5-.15-1.75-.6q-2.65-1.1-2.6-2.45 0-1.15 1.35-2l1.05-.5 1.95 1.4.05.05q.95.7 2.1-.2l.75-.6-2.85-1.4 3-1.25.95-.45v.6l.05.2 5.5-.45v-.8l-.05-.2.25.15.75.35M26.55 4.6l.2-.75-.2.75m-6 5.35l2.75.3q-1.35-.8-2.75-.3m6.65-.7q-1.5.05-2.1.85 1.55.2 2.1-.85"/><path fill="url(#g)" d="M27.2 9.25q-.55 1.05-2.1.85.6-.8 2.1-.85"/><path fill="url(#h)" d="M28.35 11.2l1.45 1.05q.55.3.65 1.1l-.3.05-1.8.1-.55-.6q-.25-.25-.2-.7l-.15-.75.9-.25"/><path fill="url(#i)" d="M35.9 12.55q1.05.3 1.8 1.7-.1.95-1.45 1.9l-.7.5-3.55 2.1-1.25.55.6-.8q.85-1.2-.1-2.25l-.35-.5.2-.15q1.95-1.5 4.05-2.5h.05l-.05-.05.75-.5"/><path fill="url(#j)" d="M30.3 14.9l-.5 1.05-1.7 2 2.8-2.2.35.5q.95 1.05.1 2.25l-.6.8-2.3.65-4 .2-.1-.1q-2.2-2.55.2-4.4l-.85-.7-.35-.35 5-1.1 1.95 1.4m-2.7 3.5l.5-.45-.5.45"/><path fill="url(#k)" d="M22.6 12.35l2.85-.35 2-.55.15.75q-.05.45.2.7l.55.6-5 1.1q-.85-.95-.75-2.25"/><path fill="url(#l)" d="M24.45 20.15l4-.2 2.3-.65-.8 1 .95.3q1.15.45 1.45 1.7.2 1.1-.1 1.85l-2 .5-7.45.95h-.1l-.3-1.1q-.2-3.5 3.1-3.5l-1.05-.85"/><path fill="url(#m)" d="M24.45 20.15l1.05.85q-3.3 0-3.1 3.5l.3 1.1h-2.9l-1.4-.4-.3-.2-.55-.45-.1-.1q-.9-.95-1.95-1.4l.2-.15-.25.15-1.1-.25 3.35-2.75q1.2-.75 2.45-1l4.2 1.1h.1"/><path fill="url(#n)" d="M35.55 16.65l.45.2 2.5 2.05-.75.9-1 1.1-.05.1-2 1.85-2.45 1.3q.3-.75.1-1.85-.3-1.25-1.45-1.7l-.95-.3.8-1 1.25-.55 3.55-2.1"/><path fill="url(#o)" d="M33.1 29q-.6-.9-1.6-1.45l-2.5-.9 2.8-1.95.45-.55 2.45-1.3q1.35 1.35 1.65 3.25l.15 1.6.05 1.35-.05.65-.45-.6-1.35-.2-.55.05-1.05.05"/><path fill="url(#p)" d="M37.75 19.8l2.55 1.3q.75.45.35 1.85-.5 1.6-.55 3.3l-.25-1.6q-.35-1.2-.3-2.5l-2.8-1.25 1-1.1"/><path fill="url(#q)" d="M36.5 27.7l-.15-1.6q1.05.55 1.75 1.6l.55.95q.6 1.25.6 2.7l-1.55-2.5-.4-.45-.8-.7"/><path fill="url(#r)" d="M36.7 34.9l1.05-.05q.5 1.15.35 2.65l-.75 2.25q.1-1.4-.2-3.45l-.45-1.4"/><path fill="url(#s)" d="M36.7 34.9l-1.4.1-5.95.75-.9-1.7q2.25-.35 4.65-1.35 1.05-.45.7-2l-.45-1.3-.25-.4 1.05-.05 2.55 2.8q1.3 1.4 2.2 3.1h-1.15l-1.05.05"/><path fill="url(#t)" d="M22.8 25.6l7.45-.95 2-.5-.45.55-2.8 1.95 2.5.9q1 .55 1.6 1.45l-9.15.6-.1-.05q-1.4-1.9.9-3.05l-.95-.15-1.05-.7.05-.05"/><path fill="url(#u)" d="M29.35 35.75l-3.4-.35-4.8-1.7.15-.3.65-.6q2.35-.8 4.4-.8l-1.7-1.5-.7-.8v-.1l9.15-.6.25.4.45 1.3q.35 1.55-.7 2-2.4 1-4.65 1.35l.9 1.7"/><path fill="url(#v)" d="M17 31l-1.3-1.05 3.55-1.55.1.05q1.55.7 3.4 1l1.1.1.1.15.7.8 1.7 1.5q-2.05 0-4.4.8l-.65.6-.15.3-1.3-.65-1.5-.95-.5-.4L17 31"/><path fill="url(#w)" d="M27.6 39.25l1.5-.85q.5-.3.5-.9l-.25-1.75L35.3 35l-2.9 2.8-.2.15-1.5.7-.35.1-2.75.5"/><path fill="url(#x)" d="M32.4 37.8q1.2 1 1.4 3.05l-.05 1.7-.45-1.25-.85-1.3-1.75-1.35 1.5-.7.2-.15"/><path fill="url(#y)" d="M15.05 36.55l.2-.1.2-.1.95-.7q2.45-2.2 5.15-.3-.7-.65-.4-1.65l4.8 1.7 3.4.35.25 1.75q0 .6-.5.9l-1.5.85-10.05-.3-1.3-.25-2.25-.65 1.05-1.5"/><path fill="url(#z)" d="M9.1 32.95L5.25 32q-1.9-.75-3.15-2.7-.8-1.2-1.2-2.65Q.55 25.4.8 24.1q.25-1.7 1.25-2.55-.2 1.35-.05 2.8.15 1.8 1.25 3.15.8 1 1.85.7-.45-1.75 0-3.55.25-1.15.85-2.1l1.2-1.5-.55 1.15q-.75 1.95-.5 4.1.2 2.05 1.7 3.55t3.35 1.95q-1.05.25-1.9 1l-.1.15H9.1"/><path fill="url(#A)" d="M15.15 4.25l2.1.95 2.85 1.4-.75.6q-1.15.9-2.1.2l-.05-.05-1.95-1.4-.9-.5-3.85-1.2q-2.05-.4-3.75.8Q5.1 6.15 4.1 8l-1.5 3.8q-.6 2-2.6 2.45.85-.55 1.5-2L3.4 8.3Q4.25 6.4 5.65 5 7.1 3.4 9.1 3.25l4 .3 2.05.7"/><path fill="url(#B)" d="M20.55 9.95q1.4-.5 2.75.3l-2.75-.3"/><path fill="url(#C)" d="M15.45 10.9l1.75.6-1.45 2.7-.2-.3-.45-1.2v-.9l.35-.9"/><path fill="url(#D)" d="M15.1 11.8v.9l-.55.05q-1.65.05-2.65 1.15l-2.4 2.65q.25-2.35 2-3.2l3.6-1.55"/><path fill="url(#E)" d="M16.1 17.95l-.6.6q-1.25.5-1.9 1.6l-1.45 1.65-2.8 2.15 1-1.45q.95-2.15 2.4-3.2 1.55-1.2 3.45-1.75l-.1.4"/><path fill="url(#F)" d="M20.7 12.25l1.9.1q-.1 1.3.75 2.25l-4.2.8h-.05l-.1-.7q.15-1.05 1-1.75l.7-.7"/><path fill="url(#G)" d="M23.35 14.6l.35.35.85.7q-2.4 1.85-.2 4.4v.1l-4.2-1.1-4.05-1.1.15-.4-.05-.05.45-.95 6.95 2.75q-2.4-1.5-4.45-3.9l4.2-.8"/><path fill="url(#H)" d="M19.25 28.4L17 27.05l-.2-.15-.7-.65-.7-.85 2-.45h.1l.6.05.3.2 1.4.4h2.9l.05.05 1.05.7.95.15q-2.3 1.15-.9 3.05l-1.1-.1q-1.85-.3-3.4-1l-.1-.05"/><path fill="url(#I)" d="M15.45 23.1l-2.15 1.7q-2.1 1.65-4.75 2.6l.6-.65q1.35-1.7 3.05-2.25l3.25-1.45v.05"/><path fill="url(#J)" d="M17 27.05l-3 1.05-2.75.4q.75-.6 1.8-.9l3.05-1.35.7.65.2.15"/><path fill="url(#K)" d="M16.15 31.95L17 31l.85.7-.25.25q-1.2.9-2 2.3v-.85l.25-.8.3-.65"/><path fill="url(#L)" d="M16.15 31.95l-.3.65-.25.8v.85q.8-1.4 2-2.3l.75.15 1.5.95-.75.25-1.8 1.15q-1.1.6-1.9 1.65l-.25.35h-.05l-1.3-.25-.35-.2-1.35-.65-.8-.4.3-.4h.05q1.3-1.35 2.95-2.1l.5-.2.75.35-.75-.35 1.05-.3"/><path fill="url(#M)" d="M15.15 36.45l.25-.35q.8-1.05 1.9-1.65l1.8-1.15.75-.25 1.3.65q-.3 1 .4 1.65-2.7-1.9-5.15.3l-.95.7-.2.1h-.1"/><path fill="url(#N)" d="M11.15 31.8l.45-.1q1.7-.3 3.5.55l-.5.2q-1.65.75-2.95 2.1h-.05l-1.6.05-2-.4-.5-.1 1.6-1.15h.05l.1-.15q.85-.75 1.9-1"/><path fill="url(#O)" d="M10 34.6l-.7.35q-2.25.75-3.3 2.5-.1-.95.45-1.7L8 34.2l2 .4"/><path fill="url(#P)" d="M12.1 35.35l1.35.65-1.1.7q-1.85.95-2.95 2.8.05-1.95 1.5-3.2l1.2-.95"/><path fill="url(#Q)" d="M16.25 38.7l1.3.25-.5.5q-1.35 1.15-1.75 2.8-.1-1.4.45-2.65l.5-.9"/><path fill="url(#R)" d="M30.45 13.35v.05l-.15 1.5-1.95-1.4 1.8-.1.3-.05"/><path fill="none" stroke="#000" stroke-width=".05" stroke-linecap="round" stroke-linejoin="round" d="M40.1 26.25l.05.95M28.1 17.95l-.5.45m.75-4.9l-5 1.1m1.1 5.55l4-.2 2.3-.65m-8.05 6.3h.1l7.45-.95 2-.5m-17.15 8.1l1.05-.3m-.65-8.9l-.05.05m.75-5.55v-.05m0 .05h.05m-.75 5.5h-.05m-.3 13.4l-.1.1m2.5 2.4l10.05.3m1.75-3.5l-3.4-.35-4.8-1.7m-4.9 5L14 38.05l1.05-1.5m8.8-7l.1.05 9.15-.6"/><path fill="none" stroke="#f00" stroke-width=".05" stroke-linecap="round" stroke-miterlimit="3" d="M15.05 36.55l.2-.1m-.2.1l-1 .3"/><path fill="none" stroke="#000059" stroke-width=".05" stroke-linecap="round" stroke-linejoin="round" d="M31.45 2.35q1-.85 2.25-1.3l3.8-.4q2 .25 2.1 2.55l.2 8.45q0 2.1.65 3.95.45 1.3 1.2 2.6l-1.1-1.7-1.1-2.3q-.85-2.05-.7-4.6.15-2.1-.4-3.9Q38 4.5 37.1 3.75L35.05 2.4q-1.1-.65-2.05.3l-.55.55-1 1.4m5.2 5.85q1.55.95 2 3.05l.25 2.7q-.35-1.8-1.75-3.25l-.9-.9m1.5 7.7l2.55 1.3q.75.45.35 1.85-.5 1.6-.55 3.3m-3.35-5.35l2.8 1.25q-.05 1.3.3 2.5l.25 1.6M29.7 4.15l1.75-1.8m-15.3 29.6L17 31m0-3.95l-3 1.05-2.75.4q.75-.6 1.8-.9l3.05-1.35m-.65-3.15l-2.15 1.7q-2.1 1.65-4.75 2.6l.6-.65q1.35-1.7 3.05-2.25l3.25-1.45m.65-5.1l-.6.6q-1.25.5-1.9 1.6l-1.45 1.65-2.8 2.15 1-1.45q.95-2.15 2.4-3.2 1.55-1.2 3.45-1.75m-.1.4l.1-.4m-1.1-5.75l-3.6 1.55q-1.75.85-2 3.2l2.4-2.65q1-1.1 2.65-1.15l.55-.05m-3 22.65l-1.2.95q-1.45 1.25-1.5 3.2 1.1-1.85 2.95-2.8l1.1-.7m2.4-3.4l.3-.65m1.7-.25l-.25.25M10 34.6l-.7.35q-2.25.75-3.3 2.5-.1-.95.45-1.7L8 34.2m8.25 4.5l1.3.25-.5.5q-1.35 1.15-1.75 2.8-.1-1.4.45-2.65l.5-.9m20.1-12.6q1.05.55 1.75 1.6l.55.95q.6 1.25.6 2.7l-1.55-2.5-.4-.45-.8-.7m1.25 7.15q.5 1.15.35 2.65l-.75 2.25q.1-1.4-.2-3.45l-.45-1.4m-4.3 2.9q1.2 1 1.4 3.05l-.05 1.7-.45-1.25-.85-1.3-1.75-1.35"/><path fill="none" stroke="#003400" stroke-width=".05" stroke-linecap="round" stroke-linejoin="round" d="M30.7 38.65l-.35.1-2.75.5m6.95-32.3q.95.15 1.5 1.1.65 1 .6 2.45v.35l-.4 1.25-.35.45q1.05.3 1.8 1.7-.1.95-1.45 1.9l-.7.5.45.2 2.5 2.05-.75.9m-2.6-6.75l.75-.5m-.75.5l.05.05h-.05m-6.8.4l1.8-.1.3-.05m-6.1 6.8h.1m6.3-.85l1.25-.55 3.55-2.1M33.1 29l1.05-.05.55-.05 1.35.2.45.6.05-.65-.05-1.35-.15-1.6q-.3-1.9-1.65-3.25l-2.45 1.3m4.5-3.25l1-1.1m-3.05 3.05l2-1.85.05-.1m-17.6-5.5l4.2-.8m-7.9-3.7l-.35.9v.9l.45 1.2.2.3m-4.6 17.6l.45-.1q1.7-.3 3.5.55l-.5.2q-1.65.75-2.95 2.1h-.05l-.3.4.8.4 1.35.65.35.2 1.3.25h.05l.25-.35q.8-1.05 1.9-1.65l1.8-1.15.75-.25-1.5-.95-.75-.15q-1.2.9-2 2.3v-.85l.25-.8-.75-.35M17 31l-1.3-1.05 3.55-1.55L17 27.05l-.2-.15-.7-.65-.7-.85 2-.45h.1l.6.05-.55-.45-.1-.1q-.9-.95-1.95-1.4m-.05 0l-1.1-.25 3.35-2.75q1.2-.75 2.45-1l-4.05-1.1m.1-.45l.45-.95m-.4 1l-.15.4m-.65 5.1l.25-.15-.2.15m7.2 2.55h-2.9l-1.4-.4-.3-.2m5.75 4.55l-1.1-.1q-1.85-.3-3.4-1l-.1-.05m-4 8.05h-.1m2.7-4.75l.5.4m-2.9 4.25l-.2.1M17 31l.85.7M8 34.2l-.5-.1 1.6-1.15M8 34.2l2 .4 1.6-.05m9.55-.85l-1.3-.65m9.5 2.7L35.3 35l1.4-.1 1.05-.05h1.15q-.9-1.7-2.2-3.1l-2.55-2.8m-3.45 9.7l1.5-.7.2-.15 2.9-2.8M24.35 20.15l-4.2-1.1"/><path fill="none" stroke="#774A00" stroke-width=".05" stroke-linecap="round" stroke-linejoin="round" d="M9.1 32.95L5.25 32q-1.9-.75-3.15-2.7-.8-1.2-1.2-2.65Q.55 25.4.8 24.1q.25-1.7 1.25-2.55-.2 1.35-.05 2.8.15 1.8 1.25 3.15.8 1 1.85.7-.45-1.75 0-3.55.25-1.15.85-2.1l1.2-1.5-.55 1.15q-.75 1.95-.5 4.1.2 2.05 1.7 3.55t3.35 1.95M9.1 32.95h.05l.1-.15q.85-.75 1.9-1"/><path fill="none" stroke="#630" stroke-width=".05" stroke-linecap="round" stroke-linejoin="round" d="M33.7 5.55q.75.55.85 1.35V7q-.05 1.75-2.75 2.95l-.65.25m.3-5.55l-.4.85q-.85 1.75-2.95 1.1-.6-.2-.5-.45l2.1-2-2-.8m-.95.5l-.2.75m4.9.05q1.45.3 2.25.9m-13 6.7l1.9.1 2.85-.35 2-.55.9-.25m-11.1-6l3-1.25m-6.05 2.5q-1.35.85-1.35 2-.05 1.35 2.6 2.45l1.75.6m-3-5.05l1.05-.5"/><path fill="none" stroke="#00005F" stroke-width=".05" stroke-linecap="round" stroke-linejoin="round" d="M20.55 9.95l2.75.3q-1.35-.8-2.75-.3m6.65-.7q-.55 1.05-2.1.85.6-.8 2.1-.85"/><path fill="none" stroke="#005D00" stroke-width=".05" stroke-linecap="round" stroke-linejoin="round" d="M15.15 4.25l2.1.95m-2.1-.95l-2.05-.7-4-.3Q7.1 3.4 5.65 5 4.25 6.4 3.4 8.3l-1.9 3.95q-.65 1.45-1.5 2 2-.45 2.6-2.45L4.1 8q1-1.85 2.65-2.95 1.7-1.2 3.75-.8l3.85 1.2.9.5 1.95 1.4.05.05q.95.7 2.1-.2l.75-.6-2.85-1.4"/><path fill="none" stroke="#666" stroke-width=".05" stroke-linecap="round" stroke-linejoin="round" d="M31.15 10.2l3.15 2.05.85.8m-4-2.85l-2.8 1 1.45 1.05q.55.3.65 1.1v.05l-.15 1.5-.5 1.05-1.7 2 2.8-2.2.2-.15q1.95-1.5 4.05-2.5M17.2 11.5l.5.15 3 .6-.7.7q-.85.7-1 1.75l.1.7h.05m-3.4-1.2l1.45-2.7m-.55 5.05l-1.2-.65q-.65-.4-.25-.9l.55-.8m.9 2.35l6.95 2.75q-2.4-1.5-4.45-3.9"/><path fill="none" stroke="#331D00" stroke-width=".05" stroke-linecap="round" stroke-linejoin="round" d="M27.7 3.35L26.95 3l-.25-.15.05.2v.8M28.1.9L24.4.1l-3.75.4-1.25.55m.85 2.9l.95-.45v.6l.05.2 5.5-.45"/><path fill="none" stroke="#001E00" stroke-width=".05" stroke-linecap="round" stroke-linejoin="round" d="M32.45 3.25q.9.95 1.25 2.3m-2.25-3.2l-1.15-.7L28.25.9h-.15m-8.7.15L17.15 2.4l-2 1.85m-.8 1.2l-.15 1"/></svg>