<svg xmlns="http://www.w3.org/2000/svg" viewBox="0 0 24.9 29.6" width="24.9" height="29.6"><defs><radialGradient gradientUnits="userSpaceOnUse" r="819.2" cx="0" cy="0" spreadMethod="pad" gradientTransform="matrix(-.005 0 0 .005 19.5 11.95)" id="a"><stop offset="0"/><stop offset=".384" stop-color="#fc6"/><stop offset=".537" stop-color="#986"/><stop offset="1" stop-color="#666"/></radialGradient><radialGradient gradientUnits="userSpaceOnUse" r="819.2" cx="0" cy="0" spreadMethod="pad" gradientTransform="matrix(-.016 0 0 .016 11.35 11.25)" id="b"><stop offset="0"/><stop offset=".384" stop-color="#fc6"/><stop offset=".537" stop-color="#986"/><stop offset="1" stop-color="#666"/></radialGradient><radialGradient gradientUnits="userSpaceOnUse" r="819.2" cx="0" cy="0" spreadMethod="pad" gradientTransform="matrix(-.007 0 0 .007 19.6 17.65)" id="c"><stop offset="0"/><stop offset=".384" stop-color="#fc6"/><stop offset=".537" stop-color="#986"/><stop offset="1" stop-color="#666"/></radialGradient><radialGradient gradientUnits="userSpaceOnUse" r="819.2" cx="0" cy="0" spreadMethod="pad" gradientTransform="matrix(-.003 0 0 .003 20.8 23.7)" id="d"><stop offset="0"/><stop offset=".384" stop-color="#fc6"/><stop offset=".537" stop-color="#986"/><stop offset="1" stop-color="#666"/></radialGradient><radialGradient gradientUnits="userSpaceOnUse" r="819.2" cx="0" cy="0" spreadMethod="pad" gradientTransform="matrix(-.003 0 0 .003 23.95 23.5)" id="e"><stop offset="0"/><stop offset=".384" stop-color="#fc6"/><stop offset=".537" stop-color="#986"/><stop offset="1" stop-color="#666"/></radialGradient><linearGradient gradientUnits="userSpaceOnUse" x1="-819.2" x2="819.2" gradientTransform="matrix(.018 -.003 -.001 -.003 23.35 10.45)" id="f"><stop offset="0" stop-color="#881A1A"/><stop offset=".384" stop-color="#fc6"/><stop offset=".537" stop-color="#986"/><stop offset="1" stop-color="#666"/></linearGradient><radialGradient gradientUnits="userSpaceOnUse" r="819.2" cx="0" cy="0" spreadMethod="pad" gradientTransform="matrix(-.005 0 0 .005 20.95 7.45)" id="g"><stop offset="0"/><stop offset=".384" stop-color="#fc6"/><stop offset=".537" stop-color="#986"/><stop offset="1" stop-color="#666"/></radialGradient><radialGradient gradientUnits="userSpaceOnUse" r="819.2" cx="0" cy="0" spreadMethod="pad" gradientTransform="matrix(-.001 0 0 .001 19.85 10.1)" id="h"><stop offset="0"/><stop offset=".384" stop-color="#fc6"/><stop offset=".537" stop-color="#986"/><stop offset="1" stop-color="#666"/></radialGradient><linearGradient gradientUnits="userSpaceOnUse" x1="-819.2" x2="819.2" gradientTransform="matrix(-.007 -.008 -.003 .002 -2.45 5.85)" id="i"><stop offset="0" stop-color="#881A1A"/><stop offset=".384" stop-color="#fc6"/><stop offset=".537" stop-color="#986"/><stop offset="1" stop-color="#666"/></linearGradient><radialGradient gradientUnits="userSpaceOnUse" r="819.2" cx="0" cy="0" spreadMethod="pad" gradientTransform="matrix(-.002 0 0 .002 14.6 17.6)" id="j"><stop offset="0"/><stop offset=".384" stop-color="#fc6"/><stop offset=".537" stop-color="#986"/><stop offset="1" stop-color="#666"/></radialGradient><radialGradient gradientUnits="userSpaceOnUse" r="819.2" cx="0" cy="0" spreadMethod="pad" gradientTransform="matrix(-.004 0 0 .004 14.2 23.2)" id="k"><stop offset="0"/><stop offset=".384" stop-color="#fc6"/><stop offset=".537" stop-color="#986"/><stop offset="1" stop-color="#666"/></radialGradient><radialGradient gradientUnits="userSpaceOnUse" r="819.2" cx="0" cy="0" spreadMethod="pad" gradientTransform="matrix(-.005 0 0 .005 17.75 25.4)" id="l"><stop offset="0"/><stop offset=".384" stop-color="#fc6"/><stop offset=".537" stop-color="#986"/><stop offset="1" stop-color="#666"/></radialGradient></defs><path d="M19.8 3.6l.45.7.55.55.4.4.25.45.2.55.1.25.15-.15.2-.25.05-.15.05-.3V5.4l.05.25v3.3l-.2 1.5-.3 1-1.2-1.35.05-.05.45.3-.5-1.6.6.75-1.05-2.4h.05l-.55-3.65.15.1.05.05m2.75 10.15l-.4.6-.55.15.55.35q.5.45.55 1.15v.75l-.15.45-.2 1.2-.2-.25Q22 17.9 22 17.5l-.25-1.25-.8-1.8.55.05h.1-.1l-.55-.05-.8-.15v-.05L19.7 14l-1.6.6q-.05-.1-.1.05.05-.15.1-.05l1.6-.6.45.25-.95 2.55-1.55 2.45.2-2.15v-2.05l.15-.4-.25.05-.3.05q-.65.15-.85-.25l1.6-1q.65 1.6 1.35-.45l.1-.3.65.2.95.9-.3-.95-.25-.45.85.4.6.45.4.45m1.1 7.05l.15.9-.35-.35-.4.45q-.25.35.05.6l-.05.1q-.6-.15-.75-.8l-.15-.4-.5-.8.5.3q.8.4 1.5 0m-2.1-.35v.05l-.05.7-.3 1.05-.1-.8q-.15-.15-.75.25l-.05.9-.7-1.6-.25-.75 1.25-.05.95.25m-2.7-.15l-.05 1.05-.4-.1q-.65-.15-1.05.45l-.2.4-.05.05-.2-1.05.05-.2 1.1-.35.8-.25m-4.55 1.5l.35-1.1q.2.3.75.35l-.5.2-.45.3-.15.25m1.6-4.4l-.35.05q.5-.3-.05-.6h-.05l.9-1 .5-.2v.05q-.1 1-.8 1.55l-.15.15m-3.3-2.65l.05.95q.05.9-.85 1.3l-1.3.95-.3.3h-.05q-.05-1.3-.75-2.2l.4-.1 1.2-.3 1.5-.85.1-.05M2.5 8.05q0-.8.3-1.55l.35-.8.6-.9.5-.5.95-1.15Q5.65 2.4 6.45 2l1.15-.45L6.05 4l-1.5 1.9-.4.8.05 1.95.2 1.6h-.05L3.8 8.7q-.4-.75-1.2-.65h-.1M10.25.7l.7-.25 1.5-.35q.85-.15 1.65 0l.95.3 2.6 1.1-.65.55-.5-1-.15 1.3-.05.15-.1-.1-.75-.85Q15 .9 14.4.95l-.3.65-.85-1-.55-.4-.1.25.05 1.15.15.7L10.25.7m11.5 5.8l.5 1.1-.5-1.1M19.4 9.45l-1.2.25v-.05l-.6-3.25-.45-1.8.7 1.85 1.55 3m-1.85.65l-.05.05-.5.85V9.65l.55.45m3.25 6.35l-.1.7-.05-.65-.5-2.15q.7.85.65 2.1"/><path fill="#ccc" d="M6.6 19.6l.05-1.15-.25-.9-.05-.75.1-.25-.1.25.05.75.25.9-.05 1.15-.75.45-.05-1.8-.3-1.65v-.05.05l.3 1.65.05 1.8-.25 1.3-.85-.15-.35-.2h-.05l-.4.1q-.45-.1-.7-.55l-.05-.5.1-.4-.45-.6-.1.6-.1-2.25q.05-.95.85-1.35l.05.1.3-.05h.1l.2-.75v.6q.25-.2.55-.25.2 0 .3.15l.05-.85.15.6.3.95q.1-.2.4-.2l.55.2.25-.15q.75.5.8 1.45L7.45 19l-.15.45L6.5 21l.1-1.4M4.35 21l-.1-.35.1-1.95.15-.75.1-.3.4-1.8-.4 1.8-.1.3-.15.75-.1 1.95.1.35m-.8-4.85q.2.3.05.8l-.45 1.35-.3.75.3-.75.45-1.35q.15-.5-.05-.8m-.25 3.5l.4-2.25.1-.7.15-.6-.15.6-.1.7-.4 2.25m.85-3.7l.05.4.3 1.6-.3-1.6-.05-.4"/><path fill="url(#a)" d="M21.75 11.45l.4.6.3.7.05.25.05.5v.25l-.4-.45-.6-.45-.85-.4.25.45.3.95-.95-.9-.65-.2-.1.3q-.7 2.05-1.35.45l-1.6 1-.1-.75.25-1.75.25-.95V11l.5-.85.05-.05q.3-.25.65-.4l1.2-.25.8 1.25q-.05-.55.05-.9l.3.3 1.2 1.35"/><path fill="url(#b)" d="M16.75 12l-.85-.9-.45.65-1.05 1.15q-.55.5-1.35.65l-.2-.8-.2-.3-1.05-.8-.9-.35-1.4-.3.4-.6q.6-.55 1.4-.7l1.3-.1q-1 0-1.5-.55.2-1.15.9-1.6l1.5-.9-1.5.9q-.7.45-.9 1.6.5.55 1.5.55l-1.3.1q-.8.15-1.4.7l-.4.6-.2-.05.15-.5-.15.5h-.05l-1.6-.15q-.75-.05-1 .4-.1.15-.05.55l-.55.4-.45.8q-.3.8-.25 1.7 0 .95 1 1.2l.75.2 1.2.15 1.3-.15q.7.9.75 2.2v.05l-.7.95-1.15 1.2-1.45.8L5.6 22l-1.55.1q-.65-.4-1.15-1.25l-.7-1.3Q1.9 18.8 2 18q.1-.85-.15-1.65l-.3-1.55.7.1 1.65-.3 1-.65.15-.3q.15-.8-.05-1.5l-.6-1.7v-.2l-.2-1.6-.05-1.95.4-.8L6.05 4 7.6 1.55l.35-.15L9.5.9l.75-.2 2.55 1.6-.15-.7L12.6.45l.1-.25.55.4.85 1 .3-.65q.6-.05 1.05.6l.75.85.1.1.05-.15.15-1.3.5 1 .65-.55 1.25.85.9 1.2h-.05l-.15-.1.55 3.65-.3-.7.2.7h.05l1.05 2.4-.6-.75.5 1.6-.45-.3-.25-.45-.1.2-.2-.25-.55-.1h-.1l-1.55-3-.7-1.85.45 1.8.6 3.25v.05q-.35.15-.65.4L17 9.65V11.05l-.25.95M13.3 6.55l.1-.1-.1.05v.05m-4.05 3.9L7.8 9.7l.5.05 1.2-.25.5-.3q.4-.45.4-1l-.15-.65-.5-.85.7.45.6.25.85-.2 1.4-.7-1.4.7-.85.2-.6-.25-.7-.45.5.85.15.65q0 .55-.4 1l-.5.3-1.2.25-.5-.05 1.45.75m6.8-3.4l.2 1.6-.05 1.7-.3.75.3-.75.05-1.7-.2-1.6M7.5 6l.2-.15.45-.15 1.55-.2-1.55.2-.45.15-.2.15q-.55.4-.7 1.15l-.35 1.1-.15.3-.5 1.4-.05 1.4.05-1.4.5-1.4.15-.3.35-1.1q.15-.75.7-1.15l-.05-.15-.3-.65-.5-.7.5.7.3.65.05.15m-.9 13.6L6.5 21l.8-1.55.15-.45.05-1.15q-.05-.95-.8-1.45l-.25.15-.55-.2q-.3 0-.4.2l-.3-.95-.15-.6-.05.85q-.1-.15-.3-.15-.3.05-.55.25v-.6l-.2.75h-.1l-.3.05-.05-.1q-.8.4-.85 1.35l.1 2.25.1-.6.45.6-.1.4.05.5q.25.45.7.55l.4-.1h.05l.35.2.85.15.25-1.3.75-.45"/><path fill="url(#c)" d="M22.7 16.75q.1 1.15 1.25 1.55 1.45.55.3 1.95l-.6.55q-.7.4-1.5 0l-.5-.3-.1-.05-.95-.25-1.25.05-.5.05-.8.25-1.1.35-.95.15-.15-.05-.45.05q-.55-.05-.75-.35-.4-.4 0-1.4.45-1.1 1.15-1.8l.1-.1.15-.15q.7-.55.8-1.55l.1-.1.8-.9.25-.05-.15.4v2.05l-.2 2.15 1.55-2.45.95-2.55v.05l.8.15.8 1.8.25 1.25q0 .4.15.65l.2.25.2-1.2.15-.45m-1.9-.3q.05-1.25-.65-2.1l.5 2.15.05.65.1-.7"/><path fill="url(#d)" d="M21.2 22.25l.1 3.75-.8-2.2-.15-.65-.05-.55.05-.9q.6-.4.75-.25l.1.8"/><path fill="url(#e)" d="M23.8 21.7q.6.65.9 1.6.35 1.15.05 2.35-.3-1.8-1.55-3.1l-.1-.15q-.3-.25-.05-.6l.4-.45.35.35"/><path fill="url(#f)" d="M13.05 13.55v.1l-.15.65-.3.4-.1.1-1.5.85-1.2.3-.4.1-1.3.15-1.2-.15-.75-.2q-1-.25-1-1.2-.05-.9.25-1.7l.45-.8.55-.4q-.05-.4.05-.55.25-.45 1-.4l1.6.15h.05l.2.05 1.4.3.9.35 1.05.8.2.3.2.8"/><path fill="url(#g)" d="M20.15 7.1h-.1l-.2-.7.3.7"/><path fill="url(#h)" d="M20.25 9.8q-.1.35-.05.9l-.8-1.25h.1l.55.1.2.25"/><path fill="url(#i)" d="M1.55 14.8l-.75-.45-.6-.85q-.25-.5-.2-1.1l.05-.55.3-1.15.7-1.4.05-.1q.45-.7 1.15-1.05l.2-.1H2.6q.8-.1 1.2.65l.55 1.55.05.2.6 1.7q.2.7.05 1.5l-.15.3-1 .65-1.65.3-.7-.1"/><path fill="url(#j)" d="M15.55 17.45l-.3.15-.15.05-1.65.75.25-.5q.55-.95 1.75-1.05h.05q.55.3.05.6"/><path fill="url(#k)" d="M16 21.05l.2.3-.55.85-.2.4-.45.55-.2.15-.45.35q-1.25.65-2.2 1.7l.95-1.7.25-.5q.4-.75.95-1.35l.15-.25.45-.3.5-.2h.6"/><path fill="url(#l)" d="M18.8 21.35l.15.1q.15.9-.25 1.7l-.5.7q-.95 1.05-1 2.5l-.1 2.4-.35.85q.1-1.85-.2-3.7-.05-.6.05-1.2l.1-.85.1-.7.3-.95.05-.1.2-.4q.4-.6 1.05-.45l.4.1"/><path fill="none" stroke="#000" stroke-width=".05" stroke-linecap="round" stroke-miterlimit="3" d="M9.25 10.45l-.15.5"/><path fill="none" stroke="#666" stroke-width=".05" stroke-linecap="round" stroke-miterlimit="3" d="M12.6 14.7v.05l.05.95q.05.9-.85 1.3l-1.3.95-.3.3-.05.05-.7.95-1.15 1.2-1.45.8L5.6 22l-1.55.1q-.65-.4-1.15-1.25l-.7-1.3Q1.9 18.8 2 18q.1-.85-.15-1.65l-.3-1.55m4.9 1.75l-.1.25.05.75.25.9-.05 1.15-.1 1.4.8-1.55.15-.45.05-1.15q-.05-.95-.8-1.45l-.25.15-.55-.2q-.3 0-.4.2v.05l.3 1.65.05 1.8.75-.45m-1.1-3.05l-.3-.95-.15-.6-.05.85-.4 1.8-.1.3-.15.75-.1 1.95.1.35h.05l.35.2.85.15.25-1.3m-1.5.95l-.4.1q-.45-.1-.7-.55l-.05-.5.1-.4-.45-.6-.1.6-.1-2.25q.05-.95.85-1.35l.05.1.3-.05h.1l.2-.75v.6q.25-.2.55-.25.2 0 .3.15m-.5 2.1l-.3-1.6-.05-.4m-.2.15l-.15.6-.1.7-.4 2.25m-.45-.6l.3-.75.45-1.35q.15-.5-.05-.8"/><path fill="none" stroke="#333" stroke-width=".05" stroke-linecap="round" stroke-miterlimit="3" d="M19.8 3.6l.45.7.55.55.4.4.25.45.2.55.1.25.15-.15.2-.25.05-.15.05-.3V5.4l.05.25v3.3l-.2 1.5-.3 1 .4.6.3.7.05.25.05.5v.25l-.4.6-.55.15.55.35q.5.45.55 1.15v.75q.1 1.15 1.25 1.55 1.45.55.3 1.95l-.6.55.15.9q.6.65.9 1.6.35 1.15.05 2.35-.3-1.8-1.55-3.1l-.15-.05q-.6-.15-.75-.8l-.15-.4-.5-.8-.1-.05v.05l-.05.7-.3 1.05.1 3.75-.8-2.2-.15-.65-.05-.55-.7-1.6-.25-.75-.5.05-.05 1.05.15.1q.15.9-.25 1.7l-.5.7q-.95 1.05-1 2.5l-.1 2.4-.35.85q.1-1.85-.2-3.7-.05-.6.05-1.2l.1-.85.1-.7.3-.95v-.05l-.2-1.05.05-.2-.95.15.2.3-.55.85-.2.4-.45.55-.2.15-.45.35q-1.25.65-2.2 1.7l.95-1.7.25-.5q.4-.75.95-1.35l.35-1.1q-.4-.4 0-1.4.45-1.1 1.15-1.8l.1-.1-.35.05-.3.15-.15.05-1.65.75.25-.5q.55-.95 1.75-1.05l.9-1 .5-.2.1-.05.8-.9-.3.05q-.65.15-.85-.25l-.1-.75.25-1.75-.85-.9-.45.65-1.05 1.15q-.55.5-1.35.65M2.5 8.05q0-.8.3-1.55l.35-.8.6-.9.5-.5.95-1.15Q5.65 2.4 6.45 2l1.15-.45.35-.15L9.5.9l.75-.2.7-.25 1.5-.35q.85-.15 1.65 0l.95.3 2.6 1.1 1.25.85.9 1.2v.05m.75 6.5l1.2 1.35m.5-3.85l-.5-1.1m-1.2 3.6l-.3-.3m-.85-.35l-1.2.25q-.35.15-.65.4l-.05.05-.5.85v.05l-.25.95m4.85 2.5h-.1l-.55-.05m2.7 6.35q-.7.4-1.5 0l-.5-.3m-.1-.05l-.95-.25-1.25.05m1.85 2l-.1-.8q-.15-.15-.75.25l-.05.9m2.8-.2q-.3-.25-.05-.6l.4-.45.35.35m-.7.7l.1.15m-9.9-16l.1-.1-.1.05-1.4.7-.85.2-.6-.25-.7-.45.5.85.15.65q0 .55-.4 1l-.5.3-1.2.25-.5-.05 1.45.75m4.05-3.9l-1.5.9q-.7.45-.9 1.6.5.55 1.5.55l-1.3.1q-.8.15-1.4.7l-.4.6m6.6.1l.3-.75.05-1.7-.2-1.6m3.35 2.4h.1l.55.1.2.25m-14.5 1.55l.05-1.4.5-1.4.15-.3.35-1.1q.15-.75.7-1.15l-.05-.15-.3-.65-.5-.7m3.05 1l-1.55.2-.45.15-.2.15M18 14.65q.05-.15.1-.05l1.6-.6.45.25v.05l.8.15m-2.95.2l-.25.05m-.9 1l.1-.1m-.1.1q-.1 1-.8 1.55l-.15.15m-.35.05q.5-.3-.05-.6h-.05M14.3 21.8l.15-.25.45-.3.5-.2q-.55-.05-.75-.35m2.5 1.4l.2-.4q.4-.6 1.05-.45l.4.1m.05-1.05l-.8.25-1.1.35m-1.1.1l-.45.05h.45V21l.15.05h-.15m1.25 1.15l.05-.1"/><path fill="none" stroke="#881A1A" stroke-width=".05" stroke-linecap="round" stroke-miterlimit="3" d="M13.05 13.55v.1l-.15.65-.3.4m-11.05.1l-.75-.45-.6-.85q-.25-.5-.2-1.1l.05-.55.3-1.15.7-1.4.05-.1q.45-.7 1.15-1.05l.2-.1h.05M9.3 11l1.4.3.9.35 1.05.8.2.3.2.8m-3.95-2.6l.2.05m-4.95-.75L3.8 8.7q-.4-.75-1.2-.65h-.1m1.9 2.4l-.05-.2m.05.2l.6 1.7q.2.7.05 1.5l-.15.3-1 .65-1.65.3-.7-.1m7.55-3.85h-.05l-1.6-.15q-.75-.05-1 .4-.1.15-.05.55l-.55.4-.45.8q-.3.8-.25 1.7 0 .95 1 1.2l.75.2 1.2.15 1.3-.15.4-.1 1.2-.3 1.5-.85.1-.1"/></svg>