<svg xmlns="http://www.w3.org/2000/svg" viewBox="0 0 47.5 46.4" width="47.5" height="46.4"><defs><linearGradient gradientUnits="userSpaceOnUse" x1="-819.2" x2="819.2" gradientTransform="matrix(.01 0 0 .005 31.35 9.25)" id="a"><stop offset="0" stop-color="#fff"/><stop offset=".537" stop-color="#ff0"/></linearGradient><radialGradient gradientUnits="userSpaceOnUse" r="819.2" cx="0" cy="0" spreadMethod="pad" gradientTransform="matrix(.243 0 0 .243 -.15 -.9)" id="b"><stop offset="0" stop-color="#930"/><stop offset="1" stop-color="#036"/></radialGradient><radialGradient gradientUnits="userSpaceOnUse" r="819.2" cx="0" cy="0" spreadMethod="pad" gradientTransform="matrix(.008 0 0 .008 35.5 13.8)" id="c"><stop offset="0" stop-color="#f00"/><stop offset=".58" stop-color="#069"/></radialGradient><radialGradient gradientUnits="userSpaceOnUse" r="819.2" cx="0" cy="0" spreadMethod="pad" gradientTransform="matrix(.006 0 0 .006 32.25 2.05)" id="d"><stop offset="0" stop-color="#930"/><stop offset="1" stop-color="#036"/></radialGradient><linearGradient gradientUnits="userSpaceOnUse" x1="-819.2" x2="819.2" gradientTransform="matrix(.007 0 0 .005 30 6.5)" id="e"><stop offset="0" stop-color="#cf0"/><stop offset=".537" stop-color="#910000"/><stop offset="1"/></linearGradient><radialGradient gradientUnits="userSpaceOnUse" r="819.2" cx="0" cy="0" spreadMethod="pad" gradientTransform="matrix(.001 0 0 .001 27.85 4.75)" id="f"><stop offset="0" stop-color="#f00"/><stop offset="1"/></radialGradient><linearGradient gradientUnits="userSpaceOnUse" x1="-819.2" x2="819.2" gradientTransform="matrix(.243 0 0 .243 -.15 -.9)" id="g"><stop offset="0" stop-color="#fff"/><stop offset="1"/></linearGradient><radialGradient gradientUnits="userSpaceOnUse" r="819.2" cx="0" cy="0" spreadMethod="pad" gradientTransform="matrix(.005 0 0 .005 34 15.35)" id="h"><stop offset="0" stop-color="#f60"/><stop offset="1" stop-color="#036"/></radialGradient><radialGradient gradientUnits="userSpaceOnUse" r="819.2" cx="0" cy="0" spreadMethod="pad" gradientTransform="matrix(.013 0 0 .013 38.65 21.45)" id="i"><stop offset="0" stop-color="#f60"/><stop offset="1" stop-color="#036"/></radialGradient><radialGradient gradientUnits="userSpaceOnUse" r="819.2" cx="0" cy="0" spreadMethod="pad" gradientTransform="matrix(.02 0 0 .02 20.15 18.7)" id="j"><stop offset="0" stop-color="#930"/><stop offset="1" stop-color="#036"/></radialGradient><radialGradient gradientUnits="userSpaceOnUse" r="819.2" cx="0" cy="0" spreadMethod="pad" gradientTransform="matrix(.009 0 0 .009 30.95 25.55)" id="k"><stop offset=".078" stop-color="#400000"/><stop offset=".318" stop-color="#f00"/><stop offset=".651" stop-color="#830000"/><stop offset=".867" stop-color="#960"/><stop offset="1"/></radialGradient><radialGradient gradientUnits="userSpaceOnUse" r="819.2" cx="0" cy="0" spreadMethod="pad" gradientTransform="matrix(.002 0 0 .002 32.65 19.25)" id="l"><stop offset="0" stop-color="#f00"/><stop offset="1"/></radialGradient><radialGradient gradientUnits="userSpaceOnUse" r="819.2" cx="0" cy="0" spreadMethod="pad" gradientTransform="matrix(.002 0 0 .002 35.75 20.65)" id="m"><stop offset="0" stop-color="#f00"/><stop offset=".718" stop-color="#069"/><stop offset="1"/></radialGradient><radialGradient gradientUnits="userSpaceOnUse" r="819.2" cx="0" cy="0" spreadMethod="pad" gradientTransform="matrix(.002 0 0 .004 38.35 21.3)" id="n"><stop offset="0" stop-color="#f00"/><stop offset=".718" stop-color="#069"/><stop offset="1"/></radialGradient><radialGradient gradientUnits="userSpaceOnUse" r="819.2" cx="0" cy="0" spreadMethod="pad" gradientTransform="matrix(.002 0 0 .004 40.9 25.1)" id="o"><stop offset="0" stop-color="#f00"/><stop offset=".718" stop-color="#069"/><stop offset="1"/></radialGradient><radialGradient gradientUnits="userSpaceOnUse" r="819.2" cx="0" cy="0" spreadMethod="pad" gradientTransform="matrix(.002 0 0 .003 43.15 26.05)" id="p"><stop offset="0" stop-color="#f00"/><stop offset=".718" stop-color="#069"/><stop offset="1"/></radialGradient><radialGradient gradientUnits="userSpaceOnUse" r="819.2" cx="0" cy="0" spreadMethod="pad" gradientTransform="matrix(.003 0 .001 .007 46.8 31.15)" id="q"><stop offset="0" stop-color="#f00"/><stop offset=".718" stop-color="#069"/><stop offset="1"/></radialGradient><radialGradient gradientUnits="userSpaceOnUse" r="819.2" cx="0" cy="0" spreadMethod="pad" gradientTransform="matrix(.003 0 0 .009 40.8 31.45)" id="r"><stop offset="0" stop-color="#f00"/><stop offset=".718" stop-color="#069"/><stop offset="1"/></radialGradient><radialGradient gradientUnits="userSpaceOnUse" r="819.2" cx="0" cy="0" spreadMethod="pad" gradientTransform="matrix(.002 0 0 .007 43.7 33.3)" id="s"><stop offset="0" stop-color="#f00"/><stop offset=".718" stop-color="#069"/><stop offset="1"/></radialGradient><radialGradient gradientUnits="userSpaceOnUse" r="819.2" cx="0" cy="0" spreadMethod="pad" gradientTransform="matrix(.002 0 0 .004 36.25 25.8)" id="t"><stop offset="0" stop-color="#f00"/><stop offset=".718" stop-color="#069"/><stop offset="1"/></radialGradient><radialGradient gradientUnits="userSpaceOnUse" r="819.2" cx="0" cy="0" spreadMethod="pad" gradientTransform="matrix(.003 0 0 .003 41.6 38.65)" id="u"><stop offset="0" stop-color="#f00"/><stop offset="1"/></radialGradient><radialGradient gradientUnits="userSpaceOnUse" r="819.2" cx="0" cy="0" spreadMethod="pad" gradientTransform="matrix(.008 0 0 .008 5.35 19.9)" id="v"><stop offset="0" stop-color="#f00"/><stop offset=".718" stop-color="#069"/><stop offset="1"/></radialGradient><radialGradient gradientUnits="userSpaceOnUse" r="819.2" cx="0" cy="0" spreadMethod="pad" gradientTransform="matrix(.011 0 0 .011 10.55 17.35)" id="w"><stop offset="0" stop-color="#f33"/><stop offset="1"/></radialGradient><radialGradient gradientUnits="userSpaceOnUse" r="819.2" cx="0" cy="0" spreadMethod="pad" gradientTransform="matrix(.004 .001 -.003 .009 12.85 17.85)" id="x"><stop offset="0" stop-color="#f00"/><stop offset=".718" stop-color="#069"/><stop offset="1"/></radialGradient><radialGradient gradientUnits="userSpaceOnUse" r="819.2" cx="0" cy="0" spreadMethod="pad" gradientTransform="matrix(.006 0 0 .006 6.65 25.95)" id="y"><stop offset="0" stop-color="#f00"/><stop offset=".718" stop-color="#069"/><stop offset="1"/></radialGradient><radialGradient gradientUnits="userSpaceOnUse" r="819.2" cx="0" cy="0" spreadMethod="pad" gradientTransform="matrix(.002 0 -.001 .004 17.55 22.95)" id="z"><stop offset="0" stop-color="#f00"/><stop offset=".718" stop-color="#069"/><stop offset="1"/></radialGradient><radialGradient gradientUnits="userSpaceOnUse" r="819.2" cx="0" cy="0" spreadMethod="pad" gradientTransform="matrix(.001 0 0 .004 12.6 23.8)" id="A"><stop offset="0" stop-color="#f00"/><stop offset=".718" stop-color="#069"/><stop offset="1"/></radialGradient><radialGradient gradientUnits="userSpaceOnUse" r="819.2" cx="0" cy="0" spreadMethod="pad" gradientTransform="matrix(.005 .001 -.002 .01 17.45 17.35)" id="B"><stop offset="0" stop-color="#f00"/><stop offset=".718" stop-color="#069"/><stop offset="1"/></radialGradient><linearGradient gradientUnits="userSpaceOnUse" x1="-819.2" x2="819.2" gradientTransform="matrix(.004 0 0 .005 23.25 15.35)" id="C"><stop offset="0" stop-color="#fff"/><stop offset=".537" stop-color="#ff0"/></linearGradient><radialGradient gradientUnits="userSpaceOnUse" r="819.2" cx="0" cy="0" spreadMethod="pad" gradientTransform="matrix(.002 .001 -.003 .007 21.3 21.2)" id="D"><stop offset="0" stop-color="#f00"/><stop offset=".718" stop-color="#069"/><stop offset="1"/></radialGradient><radialGradient gradientUnits="userSpaceOnUse" r="819.2" cx="0" cy="0" spreadMethod="pad" gradientTransform="matrix(.002 0 0 .005 24.9 23.95)" id="E"><stop offset="0" stop-color="#f00"/><stop offset=".718" stop-color="#069"/><stop offset="1"/></radialGradient><radialGradient gradientUnits="userSpaceOnUse" r="819.2" cx="0" cy="0" spreadMethod="pad" gradientTransform="matrix(.003 0 0 .005 20.95 27.3)" id="F"><stop offset="0" stop-color="#f00"/><stop offset=".718" stop-color="#069"/><stop offset="1"/></radialGradient><radialGradient gradientUnits="userSpaceOnUse" r="819.2" cx="0" cy="0" spreadMethod="pad" gradientTransform="matrix(.003 .001 -.001 .006 17 29.05)" id="G"><stop offset="0" stop-color="#f00"/><stop offset=".718" stop-color="#069"/><stop offset="1"/></radialGradient><radialGradient gradientUnits="userSpaceOnUse" r="819.2" cx="0" cy="0" spreadMethod="pad" gradientTransform="matrix(.002 0 0 .002 21.9 34.8)" id="H"><stop offset="0" stop-color="#fff"/><stop offset=".537" stop-color="#ff0"/></radialGradient><radialGradient gradientUnits="userSpaceOnUse" r="819.2" cx="0" cy="0" spreadMethod="pad" gradientTransform="matrix(.004 .002 -.004 .009 12.1 31.35)" id="I"><stop offset="0" stop-color="#f00"/><stop offset=".718" stop-color="#069"/><stop offset="1"/></radialGradient><radialGradient gradientUnits="userSpaceOnUse" r="819.2" cx="0" cy="0" spreadMethod="pad" gradientTransform="matrix(.004 .003 -.006 .007 4.85 33.3)" id="J"><stop offset="0" stop-color="#f00"/><stop offset=".718" stop-color="#069"/><stop offset="1"/></radialGradient><radialGradient gradientUnits="userSpaceOnUse" r="819.2" cx="0" cy="0" spreadMethod="pad" gradientTransform="matrix(.007 0 0 .007 18.65 41.1)" id="K"><stop offset="0" stop-color="#fff"/><stop offset=".537" stop-color="#ff0"/></radialGradient><radialGradient gradientUnits="userSpaceOnUse" r="819.2" cx="0" cy="0" spreadMethod="pad" gradientTransform="matrix(.007 0 0 .007 16.3 39.15)" id="L"><stop offset="0" stop-color="#fff"/><stop offset=".537" stop-color="#ff0"/></radialGradient><radialGradient gradientUnits="userSpaceOnUse" r="819.2" cx="0" cy="0" spreadMethod="pad" gradientTransform="matrix(.007 0 0 .007 23.75 40.8)" id="M"><stop offset="0" stop-color="#fff"/><stop offset=".537" stop-color="#ff0"/></radialGradient></defs><path d="M39.25 4.05L39.4 4l1.65-.85.45-.5L40.85 4 39.5 5.2q1.25 0 2.45-.7-.35 1-1.15 1.6l-.7.45q.9.05 1.65-.4l-1.2 1.45-.15.1-.45.1-.35-.05-.05-.4-.9-1.55v-.55l-.15-.35.7-.8.05-.05m-5.1-3.6l1.2.65.7-.1q.85-.6 1.35.55l.3.5.2.15.15.05.25.2.6.85.2.65-2.65.05-.35-.5-.15-.3-.75-.65-3.85-.25q.4-.8 1.45-1.1.8-.25 1.35-.75"/><path fill="#fff" d="M28.1 4.9l1.05.2.75.25h.05l2.2.3h.45q.55.1-.05.8l-.85.45-4.7.25q-.5.05-.6-.4V6.4l.05-.15.05-.3q.25-.8 1.1-1.05h.5m6.25.85l-.1.2q-1.15 1.1-.95-.4h.25l.5.05.3.15"/><path fill="url(#a)" d="M39.6 7.75L38.3 8h-.05l-1.15.75-.45.5-.4.4-1.4.6-1.1.15.15-.1h.05l1.7-1.75-1.3.95-6.6 3.3-1.6.8-1-1.85-.05-.15-.55-.2-1.4.3 1.05-1.6.2-.25.35-.35.4.15.15.15.55.4.65.25 2.35-.1.65-.1 2.5-.6 2.45-1.15 2.6-2 1.45-1.6.15.35v.55l.9 1.55.05.4m-.15 29.8l3.85 1.85-.05.15q-2.15-.65-4.15-1.65l.3-.35h.05m-1 0q-1.45-.65-2.8-.95-1.35-.25-2.55-1.55 2.8.65 5.15 1.9l.25.1-.05.5M36.75 7.4l-1.1 1.15 1.1-1.15M30.8 36.8l-.25-1.4 2.7 6.85q.8 2.1 1.85 3.8-1.55-1.95-2.85-4.7-1-2.25-1.45-4.55M28.95 34h2.45q-.6 2.3-2.45 0m2.75 1.55q2.65 1.3 4.15 2.8l5.85 5.5-8.2-6.2-1.8-2.1"/><path fill="url(#b)" d="M39.2 4.1l-.7.8-1.45 1.6-2.6 2 .85-1.55.2-.9q.05-.65-.3-1.3l-.35-.45-.2-.2 1.8-.1 2.65-.05.1.15"/><path fill="url(#c)" d="M38.3 8l.25.95.3 3.2v.05l-.1 1.3q-.25 1.15-.9 2.2l-.1.2-.6.95-1.7 1.95-1.4.75-.45.05h-.2l-.5.05q-.8 0-.65-.75l.05-.25.05-.1.6-.5 2.2-1.7q.9-1.1 1.25-2.7l.2-.95.1-3.2-.05-.25.45-.5L38.25 8h.05"/><path fill="url(#d)" d="M28.1 2.6l.5-.85q.45.55 1.1-.25l.45-.35.1.35.75-.15h.4l.25-.3q.45-.55 1.2-.8L34 0h.05l-.2.35.3.1q-.55.5-1.35.75-1.05.3-1.45 1.1l3.85.25.75.65.15.3.35.5-1.8.1-2.9-.05-2.1-.3-.2-.05-.65-.25q-.5-.2-.65-.7l-.05-.15"/><path fill="url(#e)" d="M28.1 2.6l.05.15q.15.5.65.7l.65.25.2.05 2.1.3 2.9.05.2.2.35.45q.35.65.3 1.3l-.2.9-.85 1.55L32 9.65l-2.5.6-.65.1-2.35.1-.65-.25-.55-.4-.15-.15-.4-.15-.25-.1 1.4-4 1.55-2.25.65-.55m-.5 2.3q-.85.25-1.1 1.05l-.05.3-.05.15v.35q.1.45.6.4l4.7-.25.85-.45q.6-.7.05-.8h-.45l-2.2-.3h-.05l-.75-.25-1.05-.2-.25-.3-.25.3m6.75.85l-.3-.15-.5-.05h-.25q-.2 1.5.95.4l.1-.2"/><path fill="url(#f)" d="M27.6 4.9l.25-.3.25.3h-.5"/><path fill="url(#g)" d="M33.75 10.4l-.75.55q-.65.4-1.35.75l-2.2.9-.75.2h-.95l6.6-3.3 1.3-.95-1.7 1.75h-.05l-.15.1"/><path fill="url(#h)" d="M31.5 17.15q1-2.7 3.25-3.75l1.85-.7-.2.95q-.35 1.6-1.25 2.7l-2.2 1.7-1.15-.1-.3-.8"/><path fill="url(#i)" d="M38.85 12.2q2.4-.1 3.3 2.05l.35 1.45.45 5.5q.3 1.45.9 2.8l.05.15.8 1.85q-.6.9-.85 1.9l-.05.5.05.95.2.5.05.2.15.5-.35-.3-1.8-1.15-.2-.15-.05.1-.05.35q-.15.75 0 1.35l-1.25-2-.7-.85q-1.15-1.25-1.2-2.85v-.55l-.55.55-.2.35q-.4.7-.45 1.5l-.35-.8v-.3l-.1-.7-.15-.15-.6-1.1-.35-1.4-.05.05-.55.25q-.3.05-.45.25l-.5.85v.1l-.05-.05-.1-.05q-.55-.35-.9 0l-.25-.35-.4-.7 1-1.7.2-.45-.05-.5.05-.05.2-.55 1.4-.75 1.7-1.95.6-.95.1-.2q.65-1.05.9-2.2l.1-1.3m4 11.3q-.35.15-.35-.15l-.15 1.35-.05.2q-.15 1.35.2 2.7l.35.9.2.3.15-.35.4-.6q.75-.9.15-2.15l-.65-1.6-.1-.15.1-.05-.25-.4m-1.6-1.35q-.2-.45-.6-.4-.45.05-.35.25-.3.9-.3 1.95l.05 1.05q.15.8.65 1.5.55.95.55 1.95.05-1 .35-1.9l.2-1.45-.05-1.05-.5-1.9m-6.2-1l-.15.95 1-.95.2-.1.55-.8v-1.1l-1.35 1.5-.25.5m4.5-.05q.3-.8-.2-1.6l-.75-.6q-.55-.15-.95.4l-.15 2.55.25 2v.05l.05.5.3-.9 1.4-2.3.05-.1"/><path fill="url(#j)" d="M8.55 29.65l.1-.25.45-1 .75-2.65 1.75-9.85.1-.35v-.1l.2-1.15.05-.15.45-1.95 1.45-3.35.15-.3Q14.95 6.9 16.4 6q1.55-.9 3.6.65l4.4 3.2-.2.25-1.05 1.6-.65 1.1v.05l-.5.85-1.25 2.9q-.4 1-.35 2.15l.05.6.8-1.5 2.3-2.3 2.6-1.95 1.6-.8h.95l.15.15q1.65 1.85 2.65 4.2l.3.8-.3.35-2.25-.15q-1.9.35-1.85 2.55l-.05 1.1-1.6-.95-.55-.25q-.35-.3-.4-.75l-.45.7-.1.25q-.45 1-.4 2.25L24 24.9l-1.05-1.05-.15-.1q-.5-.45-.5-1.15l-.45.4-.65.8-.55 1.15-.6 1.8-.55-.7-.35.45-.15.15-1.3 2.15-.65.85-.1-.6V29l-.3-.75-1.4-2.3-1.5 1.15-.4.4-.1.2-.7 1.1-.2.55-.2.4-.25.5-.5 1.45-.3-1.1-.1-.25-.35-1.25-.1-.75-1.1.6-.15.1-.75.6m12.1-9.5l-.6 1.8-.1 1.85.05.45.4-.45 1.65-2.4.55-.95v-.1q.2-.8-.1-1.45l-.15-.7-1.5 1.65-.2.3m-6.1-8.45l-.65.95v.05l-.45.8-.05.15-.6 1.2-.15.25-1.15 3.35-.1.4-.3 1.9.1 3.25.1-.75.2-.6 2.35-4.25.55-1.35.25-1.65-.05-3.35-.05-.35m4.55.05l-.25-.4-.9-.85-.1-.15-2.25 7.6-.5 5.6.05.85.1-.6 1.1-2.4 1.25-1.65.05-.05 1.95-2.75.2-.85.05-1.9-.3-1.35v-.05l-.2-.5-.1-.15-.15-.4M11.45 24.7q-.1 1.15.35 2.25.15-.95.8-1.95l.8-1.3.3-.8.05-1.15-.45-1.1-1.55 2.65-.3 1.4m6.85-4.85v-.05l-.05.05-.9 1.3q-.55.95-.7 2.1l-.2 2.2v.65q.35-1.15 1.25-2.3l.05-.1.6-.75.35-.75-.15-1.35-.25-1m-6.4 10.4v-.05l.25-.45-.25.45v.05"/><path fill="url(#k)" d="M32.65 22.8l-1.55 1.6q-1.6 1.35-3.5 1.05l-1.15-.3.5-1.3.4-2.05.05-1.1q-.05-2.2 1.85-2.55l2.25.15-.2.8q-.15 1.7 1.65 1.55l.55-.2.3-.3.05.5-.2.45-1 1.7"/><path fill="url(#l)" d="M32.95 18.05l-.6.5-.05.1-.05.25q-.15.75.65.75l.5-.05h.2l.45-.05-.2.55-.05.05-.3.3-.55.2q-1.8.15-1.65-1.55l.2-.8.3-.35 1.15.1"/><path fill="url(#m)" d="M35.05 21.15l.25-.5 1.35-1.5v1.1l-.55.8-.2.1-1 .95.15-.95"/><path fill="url(#n)" d="M39.55 21.1l-.05.1-1.4 2.3-.3.9-.05-.5v-.05l-.25-2 .15-2.55q.4-.55.95-.4l.75.6q.5.8.2 1.6"/><path fill="url(#o)" d="M41.25 22.15l.5 1.9.05 1.05-.2 1.45q-.3.9-.35 1.9 0-1-.55-1.95-.5-.7-.65-1.5L40 23.95q0-1.05.3-1.95-.1-.2.35-.25.4-.05.6.4"/><path fill="url(#p)" d="M43 23.95l.1.15.65 1.6q.6 1.25-.15 2.15l-.4.6-.15.35-.2-.3-.35-.9q-.35-1.35-.2-2.7l.05-.2.15-1.35q0 .3.35.15l.15.45"/><path fill="url(#q)" d="M44.7 26l2.25 4.85q.55 1.75.55 3.75l.05 2.2-2.75-5.25-.3-.5V31l-.25-.45-.15-.5-.05-.2-.2-.5-.05-.95.05-.5q.25-1 .85-1.9"/><path fill="url(#r)" d="M42.1 31.5q-.65 3.6-2.65 6.05h-.05l-.3.35-.85.75.2-1.1.05-.5q.35-2.75.05-5.65l-.4-2.35-.7-2.15q.05-.8.45-1.5l.2-.35.55-.55v.55q.05 1.6 1.2 2.85l.7.85 1.25 2 .15.45.2.3h-.05"/><path fill="url(#s)" d="M44.8 31.55q-.55 3.5-1.55 5.2l-1-4.05-.05-.3-.05-.9-.35-.75q-.15-.6 0-1.35l.05-.35.05-.1.2.15 1.8 1.15.35.3.25.45v.05l.3.5"/><path fill="url(#t)" d="M37.1 26.1l-.75 1.95-.7 1.1-.15-1.2-.7-2.7-.5-1.25.05-.05v-.1l.5-.85q.15-.2.45-.25l.55-.25.05-.05.35 1.4.6 1.1.15.15.1.7v.3"/><path fill="url(#u)" d="M43.3 39.4l.8.45-.85-.3.05-.15"/><path fill="url(#v)" d="M7.75 22.45l-.7.5-.1.05Q4.2 24.7 1.7 25.55q1.9-1 3.5-2.65l.05-.05q2.1-2.25 2-5.65v-1.35l.8-1.1.45-.5-.3.9-.1.7v1.6l.05.15q.1 1.6-.45 2.85l1.35-2.5-.95 3.9v.1l-.35.5"/><path fill="url(#w)" d="M7.25 15.85l.25-2.05.2-.8v-.1l.25-.65.65-1.3q1.65-2.95 5.25-2.1L12.4 12.2l-.45 1.95-.05.15-.2 1.15v.1l-.1.35-1.75 9.85-.1.1-.3.25-.15-2.25-.3.3-.35.1L9 23.1v-.05l-.15-1.55-.7.35H8.1l.95-3.9-1.35 2.5q.55-1.25.45-2.85l-.05-.15v-1.6l.1-.7.3-.9-.45.5-.8 1.1m1.8 2.1l.1-.15.2-.45-.25.4-.05.15v.05m.55 1.8l-1.45 2.1 1.45-2.1"/><path fill="url(#x)" d="M14.55 11.7l.05.35.05 3.35-.25 1.65-.55 1.35-2.35 4.25-.2.6-.1.75-.1-3.25.3-1.9.1-.4 1.15-3.35.15-.25.6-1.2.05-.15.45-.8v-.05l.65-.95"/><path fill="url(#y)" d="M8.65 29.4q-2.15 1.45-4.8.75L5.8 29l.95-.7.3-.3q1.15-1.3 1.4-3.3-1.85 2.4-4.95 2.15 1.8-.45 2.8-2.1l1.45-2.3.35-.5.05-.1.7-.35.15 1.55v.05l-.35 1.15.35-.1.3-.3.15 2.25.3-.25.1-.1-.75 2.65-.45 1"/><path fill="url(#z)" d="M18.3 19.85l.25 1 .15 1.35-.35.75-.6.75-.05.1q-.9 1.15-1.25 2.3v-.65l.2-2.2q.15-1.15.7-2.1l.9-1.3.05-.05v.05"/><path fill="url(#A)" d="M11.45 24.7l.3-1.4 1.55-2.65.45 1.1-.05 1.15-.3.8-.8 1.3q-.65 1-.8 1.95-.45-1.1-.35-2.25"/><path fill="url(#B)" d="M19.1 11.75l.15.4.1.15.2.5v.05l.3 1.35-.05 1.9-.2.85-1.95 2.75-.05.05-1.25 1.65-1.1 2.4-.1.6-.05-.85.5-5.6 2.25-7.6.1.15.9.85.25.4"/><path fill="url(#C)" d="M23.15 11.7l1.4-.3.55.2.05.15 1 1.85-2.6 1.95-2.3 2.3-.8 1.5-.05-.6q-.05-1.15.35-2.15L22 13.7l.5-.85v-.05l.65-1.1"/><path fill="url(#D)" d="M20.65 20.15l.2-.3 1.5-1.65.15.7q.3.65.1 1.45v.1l-.55.95-1.65 2.4-.4.45-.05-.45.1-1.85.6-1.8"/><path fill="url(#E)" d="M26.45 25.15l-.35.7-1 1.35-.5-.75-.1-.25V26l-.2-.7-.05-.3v.25l-.1-.1-.15-.25-.15-1.85q-.05-1.25.4-2.25l.1-.25.45-.7q.05.45.4.75l.55.25 1.6.95-.4 2.05-.5 1.3"/><path fill="url(#F)" d="M24.25 25.25l-.05.05-.1.75-.35 1.2-1.55 2.85-.8.95-.6-1q-.45-.95-.5-2.1l-.05-.9-.2-.3.6-1.8.55-1.15.65-.8.45-.4q0 .7.5 1.15l.15.1L24 24.9l.15.25.1.1"/><path fill="url(#G)" d="M20.25 27.05l-2.3 5.3q-1.15-.45-1.25-1.6l.15-.45.05-.45v-.1l.15-.1.65-.85 1.3-2.15.15-.15.35-.45.55.7.2.3"/><path fill="url(#H)" d="M22.15 34.05l.95-.2-.1.5q-.5 2.05-2.3 1.2.5-1.15 1.45-1.5"/><path fill="url(#I)" d="M16.7 30.75l-.45 1.15-.6.95-.15.2q-2.65 3.5-6.4 4.65l.15-2.9.1-.1 1.2-1.55.85-1.45.5-1.45.25-.5.2-.4.2-.55.7-1.1.1-.2.4-.4 1.5-1.15 1.4 2.3.3.75v.05l-.05.7v.1l-.05.45-.15.45"/><path fill="url(#J)" d="M9.25 34.8l-2.5 1.95-1.8.85q-2.5.95-4.95.55 1.15-.4 2.3-1.15l1.25-1 2.4-2.45L7.2 31.9l.05-.1.15-.2 1.15-1.95.75-.6.15-.1 1.1-.6.1.75.35 1.25.1.25.3 1.1-.85 1.45-1.2 1.55-.1.1"/><path fill="url(#K)" d="M18.25 41.3l.15-.3 2.15-5.15.35.4-.15.9-2 5.05q-1.05 2.6-2.35 4.2l1.85-5.1"/><path fill="url(#L)" d="M20.1 36.6l-.25.3L17 39.75l-1.2 1-.4.25-3.05 2.25 3.75-4.2q1.95-2.45 4.15-3.95.15 1-.15 1.5"/><path fill="url(#M)" d="M21.05 36.25l-.1-.4 1.35 1.35 2.4 3.8 1.3 2.75.55 2-3.3-4.65-.05-.1-.4-.6q-1.25-1.95-1.75-4.15"/><path fill="none" stroke="#000" stroke-width=".05" stroke-linecap="round" stroke-linejoin="round" d="M39.25 4.05L39.4 4l1.65-.85.45-.5L40.85 4 39.5 5.2q1.25 0 2.45-.7-.35 1-1.15 1.6l-.7.45q.9.05 1.65-.4l-1.2 1.45-.15.1-.45.1-.35-.05M28.1 2.6l.5-.85q.45.55 1.1-.25l.45-.35.1.35.75-.15h.4l.25-.3q.45-.55 1.2-.8L34 0h.05l-.2.35.3.1 1.2.65.7-.1q.85-.6 1.35.55l.3.5.2.15.15.05.25.2.6.85.2.65h.25l-.1.1-.05.05-.7.8m5.35 24.45l.2.5M39.1 3.95l.1.15M36.45 4l2.65-.05m-4.45.15l1.8-.1"/><path fill="none" stroke="#f00" stroke-width=".05" stroke-linecap="round" stroke-miterlimit="3" d="M7.25 31.8l.15-.2m36.65-1.75l.05.2"/><path fill="none" stroke="#9D9D00" stroke-width=".05" stroke-linecap="round" stroke-linejoin="round" d="M39.6 7.75L38.3 8m1.15 29.55l3.85 1.85.8.45-.85-.3q-2.15-.65-4.15-1.65m-.65-.35q-1.45-.65-2.8-.95-1.35-.25-2.55-1.55 2.8.65 5.15 1.9M24.4 9.85l.35-.35m9 .9l.15-.1h.05l1.7-1.75-1.3.95-6.6 3.3m8.9-3.55l-.4.4-1.4.6-1.1.15m2.9-1.15l.45-.5L38.25 8h.05m-2.65.55l1.1-1.15m1.75-2.5l-1.45 1.6-2.6 2m-11.3 3.2l1.05-1.6.2-.25m-1.25 1.85l-.65 1.1v.05l-.5.85-1.25 2.9q-.4 1-.35 2.15l.05.6.8-1.5 2.3-2.3 2.6-1.95 1.6-.8M20.1 36.6q.3-.5.15-1.5-2.2 1.5-4.15 3.95l-3.75 4.2L15.4 41l.4-.25 1.2-1 2.85-2.85.25-.3m-1.85 4.7l-1.85 5.1q1.3-1.6 2.35-4.2l2-5.05.15-.9-.35-.4L18.4 41l-.15.3m12.55-4.5q.45 2.3 1.45 4.55 1.3 2.75 2.85 4.7-1.05-1.7-1.85-3.8l-2.7-6.85.25 1.4m-9.75-.55q.5 2.2 1.75 4.15l.4.6.05.1 3.3 4.65-.55-2L24.7 41l-2.4-3.8-1.35-1.35.1.4m1.1-2.2l.95-.2-.1.5q-.5 2.05-2.3 1.2.5-1.15 1.45-1.5m9.55 1.5l1.8 2.1 8.2 6.2-5.85-5.5q-1.5-1.5-4.15-2.8M28.95 34q1.85 2.3 2.45 0h-2.45"/><path fill="none" stroke="#3A0B0B" stroke-width=".05" stroke-linecap="round" stroke-linejoin="round" d="M7.4 31.6l1.15-1.95.1-.25q-2.15 1.45-4.8.75L5.8 29l.95-.7.3-.3q1.15-1.3 1.4-3.3-1.85 2.4-4.95 2.15 1.8-.45 2.8-2.1l1.45-2.3-.7.5-.1.05Q4.2 24.7 1.7 25.55q1.9-1 3.5-2.65l.05-.05q2.1-2.25 2-5.65v-1.35l.25-2.05.2-.8v-.1l.25-.65.65-1.3q1.65-2.95 5.25-2.1l.15-.3Q14.95 6.9 16.4 6q1.55-.9 3.6.65l4.4 3.2m-10.55-1L12.4 12.2l-.45 1.95-.05.15-.2 1.15v.1l-.1.35-1.75 9.85-.75 2.65-.45 1m-.5-7.55l-.05.1-.35.5m.4-.6l1.45-2.1"/><path fill="none" stroke="#492D21" stroke-width=".05" stroke-linecap="round" stroke-linejoin="round" d="M38.3 8l.25.95.3 3.2v.05q2.4-.1 3.3 2.05l.35 1.45.45 5.5q.3 1.45.9 2.8l.05.15.8 1.85 2.25 4.85q.55 1.75.55 3.75l.05 2.2-2.75-5.25q-.55 3.5-1.55 5.2l-1-4.05-.05-.3-.1-.9q-.65 3.6-2.65 6.05m-.35.35l-.85.75.2-1.1m-.2-.6l.25.1q.35-2.75.05-5.65l-.4-2.35-.7-2.15-.35-.8-.75 1.95-.7 1.1-.15-1.2-.7-2.7-.5-1.25v-.1l-.1-.05q-.55-.35-.9 0l-.25-.35-.4-.7-1.55 1.6q-1.6 1.35-3.5 1.05l-1.15-.3-.35.7-1 1.35-.5-.75-.1-.25-.2-.9-.05-.3v.25l-.05.05-.1.75-.35 1.2-1.55 2.85-.8.95-.6-1q-.45-.95-.5-2.1l-.05-.9-2.3 5.3q-1.15-.45-1.25-1.6l-.45 1.15-.6.95-.15.2q-2.65 3.5-6.4 4.65l.15-2.9-2.5 1.95-1.8.85q-2.5.95-4.95.55 1.15-.4 2.3-1.15l1.25-1 2.4-2.45L7.2 31.9l.05-.1m36.85-1.75l.15.5.25.45v.05l.3.5M28.7 12.8l.75-.2 2.2-.9q.7-.35 1.35-.75l.75-.55m-6 2.4h.95l.15.15q1.65 1.85 2.65 4.2 1-2.7 3.25-3.75l1.85-.7.1-3.2-.05-.25M31.5 18.3l-2.25-.15q-1.9.35-1.85 2.55l-.05 1.1-.4 2.05-.5 1.3m7.6-5.6l1.4-.75 1.7-1.95.6-.95.1-.2q.65-1.05.9-2.2l.1-1.3m-2.25.5l-.2.95q-.35 1.6-1.25 2.7l-2.2 1.7-.6.5-.05.1-.05.25q-.15.75.65.75l.5-.05h.2l.45-.05-.2.55-.05.05.05.5-.2.45-1 1.7m.3-4.75l-1.15-.1-.3.35-.2.8q-.15 1.7 1.65 1.55l.55-.2.3-.3m-2-2.2l-.3-.8m-14.6 12.6v.1l-.05.45-.15.45m-4.8-.5l-.5 1.45-.85 1.45-1.2 1.55-.1.1m7.7-5.75l-.05.7m-4.75 0l-.25.45v.05m27.2 7.65l.3-.35h.05m-.95-.5l-.05.5"/><path fill="none" stroke="#310000" stroke-width=".05" stroke-linecap="round" stroke-linejoin="round" d="M24.75 9.5l-.25-.1m10.15-5.3l-2.9-.05-2.1-.3-.2-.05-.65-.25q-.5-.2-.65-.7l-.05-.15m6.35 5.9L32 9.65l-2.5.6-.65.1-2.35.1-.65-.25-.55-.4-.15-.15-.4-.15"/><path fill="none" stroke="#951200" stroke-width=".05" stroke-linecap="round" stroke-linejoin="round" d="M24.5 9.4l1.4-4 1.55-2.25.65-.55"/></svg>