<svg xmlns="http://www.w3.org/2000/svg" viewBox="0 0 26.1 30.5" width="26.1" height="30.5"><defs><radialGradient gradientUnits="userSpaceOnUse" r="819.2" cx="0" cy="0" spreadMethod="pad" gradientTransform="matrix(0 -.011 .008 0 9.7 6.85)" id="a"><stop offset="0"/><stop offset=".255" stop-color="#636"/><stop offset=".431" stop-color="#fc6"/><stop offset=".718" stop-color="#c30"/><stop offset=".957" stop-color="#fc0"/></radialGradient><radialGradient gradientUnits="userSpaceOnUse" r="819.2" cx="0" cy="0" spreadMethod="pad" gradientTransform="matrix(0 -.002 .002 0 10.2 9.75)" id="b"><stop offset="0"/><stop offset=".573" stop-color="#903"/><stop offset="1" stop-color="#663"/></radialGradient><radialGradient gradientUnits="userSpaceOnUse" r="819.2" cx="0" cy="0" spreadMethod="pad" gradientTransform="matrix(0 -.007 .007 0 11.3 13.3)" id="c"><stop offset="0"/><stop offset=".255" stop-color="#636"/><stop offset=".431" stop-color="#fc6"/><stop offset=".718" stop-color="#c30"/><stop offset=".957" stop-color="#fc0"/></radialGradient><radialGradient gradientUnits="userSpaceOnUse" r="819.2" cx="0" cy="0" spreadMethod="pad" gradientTransform="matrix(0 -.008 .008 0 18.25 6.15)" id="d"><stop offset="0"/><stop offset=".255" stop-color="#636"/><stop offset=".431" stop-color="#fc6"/><stop offset=".718" stop-color="#c30"/><stop offset=".957" stop-color="#fc0"/></radialGradient><radialGradient gradientUnits="userSpaceOnUse" r="819.2" cx="0" cy="0" spreadMethod="pad" gradientTransform="matrix(0 -.202 .202 0 1.95 39.95)" id="e"><stop offset="0"/><stop offset=".255" stop-color="#636"/><stop offset=".431" stop-color="#fc6"/><stop offset=".718" stop-color="#c30"/><stop offset=".957" stop-color="#fc0"/></radialGradient><radialGradient gradientUnits="userSpaceOnUse" r="819.2" cx="0" cy="0" spreadMethod="pad" gradientTransform="matrix(0 -.005 .005 0 17.15 12.6)" id="f"><stop offset="0"/><stop offset=".255" stop-color="#636"/><stop offset=".431" stop-color="#fc6"/><stop offset=".718" stop-color="#c30"/><stop offset=".957" stop-color="#fc0"/></radialGradient><radialGradient gradientUnits="userSpaceOnUse" r="819.2" cx="0" cy="0" spreadMethod="pad" gradientTransform="matrix(0 -.006 .006 0 4.25 14.7)" id="g"><stop offset="0"/><stop offset=".255" stop-color="#636"/><stop offset=".431" stop-color="#fc6"/><stop offset=".718" stop-color="#c30"/><stop offset=".957" stop-color="#fc0"/></radialGradient><radialGradient gradientUnits="userSpaceOnUse" r="819.2" cx="0" cy="0" spreadMethod="pad" gradientTransform="matrix(0 -.001 .001 0 6.7 15.15)" id="h"><stop offset="0"/><stop offset=".255" stop-color="#636"/><stop offset=".431" stop-color="#fc6"/><stop offset=".718" stop-color="#c30"/><stop offset=".957" stop-color="#fc0"/></radialGradient><radialGradient gradientUnits="userSpaceOnUse" r="819.2" cx="0" cy="0" spreadMethod="pad" gradientTransform="matrix(0 -.009 .009 0 19.25 16.5)" id="i"><stop offset="0"/><stop offset=".255" stop-color="#636"/><stop offset=".431" stop-color="#fc6"/><stop offset=".718" stop-color="#c30"/><stop offset=".957" stop-color="#fc0"/></radialGradient><radialGradient gradientUnits="userSpaceOnUse" r="819.2" cx="0" cy="0" spreadMethod="pad" gradientTransform="matrix(0 -.002 .002 0 15.8 15.3)" id="j"><stop offset="0"/><stop offset=".255" stop-color="#636"/><stop offset=".431" stop-color="#fc6"/><stop offset=".718" stop-color="#c30"/><stop offset=".957" stop-color="#fc0"/></radialGradient><radialGradient gradientUnits="userSpaceOnUse" r="819.2" cx="0" cy="0" spreadMethod="pad" gradientTransform="matrix(0 -.001 .001 0 13.35 16.55)" id="k"><stop offset="0"/><stop offset=".255" stop-color="#636"/><stop offset=".431" stop-color="#fc6"/><stop offset=".718" stop-color="#c30"/><stop offset=".957" stop-color="#fc0"/></radialGradient><radialGradient gradientUnits="userSpaceOnUse" r="819.2" cx="0" cy="0" spreadMethod="pad" gradientTransform="matrix(0 -.012 .012 0 5.75 21.65)" id="l"><stop offset="0"/><stop offset=".255" stop-color="#636"/><stop offset=".431" stop-color="#fc6"/><stop offset=".718" stop-color="#c30"/><stop offset=".957" stop-color="#fc0"/></radialGradient></defs><path fill="url(#a)" d="M8.8 1.7l1.45-.2 1.25.35 1.2.65-.55.05-.5.25 1.45.55q.65.3.75 1.1l.1.9.25 1.4q-.35-.4-.9-.6l-.25-.05.1 1.2-.1.7h.05q.05 1.1-.3 2.1l-.15.35-1 1.4q-.9.95-2.25.5l-.2-.1-.75-.1-.4-.2-.3-.45.05-.4-1.15-.55-1.1-.9-.3-.35h.9l-.8-1.15q-.55-.55-.6-1.3-.1-.7.1-1.4l.3-1.25.7.65Q5.7 4.1 6 3.4l.9-1.3q.5-.6.6-1.45L7.2 0l1.35 1.3.2.35.05.05m2.5 9.55q.3-.45.2-1l.7-.2.2-.2v-1l.25.2.15-.25.25-.8-.25.8-.15.25-.25-.2v1l-.2.2-.7.2q.1.55-.2 1m-1.45-.45l1.1.6-.05-1.6-.15-.9-.4-.75-.25.25-.5.85q-.35.7.1 1.4l.15.15m1.5-.9l.15.35-.15-.35M7.8 11.1l.25.1-.25-.1"/><path fill="url(#b)" d="M9.85 10.8l-.15-.15q-.45-.7-.1-1.4l.5-.85.25-.25.4.75.15.9.05 1.6-1.1-.6q-.8-.4-.9-1.2-.05-.55.45-.9-.5.35-.45.9.1.8.9 1.2"/><path fill="url(#c)" d="M16.05 9.85q-.3.95-.15 1.95l-.25-.05q-.85-.2-1.5.3l-.8.85q-.25.4.15.8l.85.65-.85-.25-.45.1q-.85.5-.55 1.35l.35.65.05.05.4.6q-.7.15-1.35.7-1.05.9-2.35 1l.45-.8.9-1.95.2-.5q.5-1.6-.45-2.2-1.2-.8-2.15.5-.7 1-.95 2.3l-.3 1.25-.8-1.35.7-1.25.85-1.5.4-.9.75.1.2.1q1.35.45 2.25-.5l1-1.4.15-.35q.35-1 .3-2.1l.85.1.45.1q-.45.55-.75 1.25-.8 1.8 1 1.35l.95-.55.45-.4"/><path fill="url(#d)" d="M16.05 9.85l-.45.4-.95.55q-1.8.45-1-1.35.3-.7.75-1.25.75.1 1.25-.5.45-.55 1.25-1.05l1.05-.3q1.15-.05 1.6-.9.85-1.6 2.15-3.15.6-.7 1.45-.95L22.5 2h-.1l-.15.1-.05.05-.05.3h.05l-.35.7-.15.05-.05.05v.3l.05.05-.1.4-.2.1-.05.05v.45l.1.05.05.05-.35.9h-.1l-.15.1-.05.05-.05.3.05.05q-.8 1.15-2.25 1.5-2 .5-2.55 2.25"/><path fill="url(#e)" d="M22.5 2l.2.1v.4l-.05.05-.1.05-.05.05-.2-.05-.1-.1v-.05h-.05l.05-.3.05-.05.15-.1h.1m-.65 1.15l.05-.05.1.05.15.1.05.05v.25l-.2.1-.05.05-.15-.05-.05-.05h-.05l-.05-.05v-.3l.05-.05.15-.05M21.6 4h.05l.2.15.05.05v.35l-.2.15h-.2l-.05-.05-.1-.05v-.45l.05-.05.2-.1m-.45 1.6q.1 0 .2.15v.35l-.15.15h-.05l-.2-.05-.1-.1-.05-.05.05-.3.05-.05.15-.1h.1m-3.2 4.45l.05-.2.05-.05.15-.1.3.15v.25l-.05.1-.1.1h-.05l-.2-.05-.1-.1-.05-.05v-.05m.65-.05v-.05q.15-.25.45-.15l.15.15v.25l-.1.1-.1.05h-.25l-.2-.2.05-.15m1.35.2l-.05-.05.05-.2.05-.05.15-.1h.1l.2.1v.3l-.05.1h-.05l-.05.05h-.25l-.1-.1v-.05m.75.35l.15-.1h.05l.2.15.05.05v.4l-.15.1-.05.05h-.05l-.15-.05-.05-.05-.1-.05v-.45l.05-.05h.05m.35 1.05l.15.1v.4l-.05.05-.1.05v.05H21l-.2-.05-.15-.15.05-.3.05-.05.15-.1h.15m2.6 3.25v.05l.05.05v.3l-.1.05-.1.1h-.05l-.15-.05-.15-.15v-.3l.05-.05.2-.1h.05l.2.1m-1.25.85l.4-.05.15.15v.25l-.2.15-.25-.05-.2-.15.05-.15v-.05l.05-.1m-.5.75h.05l.2.15.05.05v.3l-.2.15h-.2l-.05-.05-.1-.05v-.4l.05-.05.2-.1m-1.35 1.6l.2.1v.3l-.05.1-.1.05h-.25l-.1-.1v-.1h-.05l.05-.2.05-.05.15-.1h.1M5.7 26.8l.1-.05h.1l.2.15v.25l-.05.1-.1.05H5.7l-.1-.1-.05-.05v-.05l.05-.2.1-.1M5.65 28l.1-.05h.1l.15.15.05.05-.05.2-.15.15h-.2l-.1-.1H5.5v-.3l.05-.05.1-.05m-.35.9l.1.05.15.1.05.05v.25l-.1.05-.1.1h-.05l-.15-.05-.15-.1v-.3L5.1 29l.15-.1h.05m-.55.95l.15.1v.3l-.15.15H4.7l-.2-.05-.1-.1-.05-.05v-.25l.1-.05.15-.1.1.05h.05m15.95-16.5l-.1.05-.1.1-.25-.05-.2-.15.05-.2q.15-.25.45-.15l.15.15v.25m.4 4.3l.05-.2.05-.05.15-.1h.1l.2.1v.3l-.05.1-.1.05h-.25l-.1-.1v-.05l-.05-.05m-20.45-.8l.05.05v.3l-.15.15h-.1L.3 17.3l-.15-.15.05-.25.05-.05.15-.1.1.05.15.05m.55.4l.1-.05h.05l.25.15v.35l-.05.1-.1.05H1.2l-.15-.15v-.05l.05-.3.1-.1m1 .5h.1l.1.05.1.1v.25l-.15.15H2.1l-.1-.1-.05-.1.05-.2.05-.05.15-.1m1.1.1v-.05l.2-.15.15-.05h.1l.2.15v.35l-.1.05-.1.1-.25-.05-.2-.15v-.2m1-.7v-.1l.05-.05.2-.1.1.05.15.1.05.05v.25l-.1.05-.1.1H4.6l-.15-.05-.1-.05-.05-.05v-.2m1.55 8.2l.15.1.05.05-.05.25-.15.15H5.8l-.3-.1v-.35l.05-.05.2-.1.1.05"/><path fill="url(#f)" d="M15.9 11.8l.05.2q.2.9.95 1.2 1.25.55 2.1-.5 1.4-1.7-.55-1.9l-1.75-.1q.45-.5 1.15-.6l.1-.05v.05l.05.05.1.1.2.05h.05l.1-.1.05-.1V10h.1l-.05.15.2.2H19l.1-.05.1-.1v-.15l.75.15v.05l.1.1h.25l.05-.05.35.25h-.05l-.05.05v.45l.1.05.05.05.15.05h.05l.05-.05.05.45h-.15l-.15.1-.05.05-.05.3.15.15.2.05h.05q-.2 1.95-2.65 2.8-.55.2-1.1 0h-.05l-1.7-.5-1.15-.15-.05-.05-.85-.65q-.4-.4-.15-.8l.8-.85q.65-.5 1.5-.3l.25.05m4.8 1.55v-.25l-.15-.15q-.3-.1-.45.15l-.05.2.2.15.25.05.1-.1.1-.05"/><path fill="url(#g)" d="M8.45 12.15l-.4.9-.85 1.5q-.55.2-1 .55l-.3.25-1 1.15-.35.4-.2.1-.05.05v.1l-.55.45h-.1l-.15.05-.2.15v.05l-.9-.05-.1-.05h-.1l-.55-.2-.05-.05v-.15l-.25-.15H1.3l-.1.05-.5-.35-.05-.05-.3-.3Q0 15.85 0 15.1l.2-.7q.35-.65 1.1 0-.85-.3-.85.7 0 .75.75 1.1l1.45.2q.75-.15 1.25-.75l.7-1.3.4-.9.25-.4q.35-.6 1-.95l1.5-.6.3.45.4.2"/><path fill="url(#h)" d="M7.2 14.55l-.7 1.25-.3-.7q.45-.35 1-.55"/><path fill="url(#i)" d="M16.35 16.2l.1.1q1.4.9 2.9.6 1.2-.25 1.7-1.65.5-1.5 2.1-1.35 1.25.05 2.3.6.8.45.65 1.55-.45-.75-1.1-1l-1.35-.2-.2-.1h-.05l-.2.1-.05.05v.15l-.75.65-.05.1v.05l-.45.6-.2.1-.05.05v.2l-1.1 1.25h-.1l-.15.1-.05.05-.05.2q-1 .85-2.45.75-1.45-.15-2.55-1.3l-1.3-1.1-1-.5-.05-.05-.35-.65q-.3-.85.55-1.35l.45-.1.85.25-.05.05h.05l.65.7 1.35 1.1"/><path fill="url(#j)" d="M16.35 16.2L15 15.1l-.65-.7.15.05-.1-.05 1.15.15 1.7.5h.05q-.6.5-.95 1.15"/><path fill="url(#k)" d="M13.9 16.75l-.6.1-.4-.6 1 .5"/><path fill="url(#l)" d="M9.6 18.55l-.35.05-.95 1.2-2.2 2.3q-.65 1.5-.65 3.2l.2 1.4.05.1-.1.1-.05.2v.05l.05.05.1.1h.05l-.1.7-.1.05-.05.05v.3h.05l-.25.5h-.05l-.15.1-.05.05v.3l-.3.5H4.7l-.1-.05-.15.1-.1.05v.25l.05.05-.55.25-.7-.15-1.1-.55-.85-.55L.15 28l.45.4 1.35 1 1.4.2q.9-.15 1.15-1 .25-.75.1-1.55l-.2-2.75q0-.8.35-1.5l.8-1.3 1.15-1.8.65-1.3.25-.75-.3-.5.3-1.25q.25-1.3.95-2.3.95-1.3 2.15-.5.95.6.45 2.2l-.2.5-.9 1.95-.45.8m-1.45-2.8l-.55 1.9.55-1.9M10 17.2l-.2.3-.55 1.1.55-1.1.2-.3"/><path fill="none" stroke="#D14400" stroke-width=".05" stroke-linecap="round" stroke-linejoin="round" d="M22.2 2.45l-.35.7m-.15.45l-.1.4m-.1.7l-.35.9m-.3.5q-.8 1.15-2.25 1.5-2 .5-2.55 2.25-.3.95-.15 1.95l.05.2q.2.9.95 1.2 1.25.55 2.1-.5 1.4-1.7-.55-1.9l-1.75-.1q.45-.5 1.15-.6l.1-.05m.55-.05h.1m.6.05l.75.15m.4.1l.35.25m.3.6l.05.45m0 .6v.05q-.2 1.95-2.65 2.8-.55.2-1.1 0-.6.5-.95 1.15l.1.1q1.4.9 2.9.6 1.2-.25 1.7-1.65.5-1.5 2.1-1.35 1.25.05 2.3.6.8.45.65 1.55-.45-.75-1.1-1l-1.35-.2m-.5.2l-.75.65m-.05.15l-.45.6m-.25.35l-1.1 1.25m-.35.35q-1 .85-2.45.75-1.45-.15-2.55-1.3l-1.3-1.1-.6.1q-.7.15-1.35.7-1.05.9-2.35 1m-9 9.85l-.15-.6M14.4 8.2q.75.1 1.25-.5.45-.55 1.25-1.05l1.05-.3q1.15-.05 1.6-.9.85-1.6 2.15-3.15.6-.7 1.45-.95L22.5 2M8.8 1.7l1.45-.2 1.25.35 1.2.65-.55.05-.5.25 1.45.55q.65.3.75 1.1l.1.9.25 1.4q-.35-.4-.9-.6l-.25-.05.1 1.2-.1.7h.05l.85.1.45.1M13.05 8l-.25.8-.15.25-.25-.2v1l-.2.2-.7.2q.1.55-.2 1m-1.45-.45q-.8-.4-.9-1.2-.05-.55.45-.9m0 3.65l-.2-.1-.75-.1-.4-.2-.3-.45-1.5.6q-.65.35-1 .95l-.25.4-.4.9-.7 1.3q-.5.6-1.25.75l-1.45-.2q-.75-.35-.75-1.1 0-1 .85-.7-.75-.65-1.1 0l-.2.7q0 .75.35 1.45l.3.3.05.05.5.35m5.3-1.45l.8 1.35m4.2-6.9l-.15-.35m3.05 4.5l1.15.15 1.7.5h.05M7.75 11.5l.05-.4-1.15-.55-1.1-.9-.3-.35h.9l-.8-1.15q-.55-.55-.6-1.3-.1-.7.1-1.4l.3-1.25.7.65Q5.7 4.1 6 3.4l.9-1.3q.5-.6.6-1.45L7.2 0l1.35 1.3.2.35m-.7 9.55l-.25-.1m-6.2 6.4l.05.05.55.2m.2.05l.9.05m.45-.25l.55-.45m.25-.25l.35-.4 1-1.15.3-.25q.45-.35 1-.55m-1 .55l.3.7m7.8-1.4h.1m-.05 0l.65.7 1.35 1.1m-3.45.05l-.05-.05m1.05.55l-1-.5"/><path fill="none" stroke="#432143" stroke-width=".05" stroke-linecap="round" stroke-linejoin="round" d="M9.85 10.8l-.15-.15q-.45-.7-.1-1.4l.5-.85.25-.25.4.75.15.9.05 1.6-1.1-.6"/><path fill="none" stroke="#E68400" stroke-width=".05" stroke-linecap="round" stroke-linejoin="round" d="M9.6 18.55l-.35.05-.95 1.2-2.2 2.3q-.65 1.5-.65 3.2l.2 1.4.05.1m.05.5l-.1.7m-.1.4l-.25.5m-.25.45l-.3.5m-.35.4l-.55.25-.7-.15-1.1-.55-.85-.55L.15 28l.45.4m8.65-9.8l.55-1.1.2-.3m-2.4.45l.55-1.9m-.85 1.4l.3.5-.25.75-.65 1.3-1.15 1.8-.8 1.3q-.35.7-.35 1.5l.2 2.75q.15.8-.1 1.55-.25.85-1.15 1l-1.4-.2-1.35-1"/></svg>