<svg xmlns="http://www.w3.org/2000/svg" viewBox="0 0 48.9 48.9" width="48.9" height="48.9"><defs><radialGradient gradientUnits="userSpaceOnUse" r="819.2" cx="0" cy="0" fx="87942.4" fy="0" spreadMethod="repeat" gradientTransform="matrix(.004 .005 -.008 .007 38.95 8.05)" id="a"><stop offset="0" stop-color="#f00"/><stop offset="1"/></radialGradient><radialGradient gradientUnits="userSpaceOnUse" r="819.2" cx="0" cy="0" spreadMethod="pad" gradientTransform="matrix(.008 0 0 .009 19.7 7)" id="b"><stop offset="0" stop-color="#fff"/><stop offset=".341" stop-color="#FFE3B9"/><stop offset=".631" stop-color="#f90"/><stop offset="1"/></radialGradient><radialGradient gradientUnits="userSpaceOnUse" r="819.2" cx="0" cy="0" spreadMethod="pad" gradientTransform="matrix(.021 0 0 .023 38.8 28.3)" id="c"><stop offset="0" stop-color="#fff"/><stop offset=".341" stop-color="#FFE3B9"/><stop offset=".631" stop-color="#f90"/><stop offset="1"/></radialGradient><radialGradient gradientUnits="userSpaceOnUse" r="819.2" cx="0" cy="0" spreadMethod="pad" gradientTransform="matrix(.021 0 0 .023 38.8 28.3)" id="d"><stop offset=".482" stop-color="#3A2300"/><stop offset="1"/></radialGradient><radialGradient gradientUnits="userSpaceOnUse" r="819.2" cx="0" cy="0" spreadMethod="pad" gradientTransform="matrix(.009 0 0 .01 29.65 6.95)" id="e"><stop offset="0" stop-color="#f90"/><stop offset="1"/></radialGradient><radialGradient gradientUnits="userSpaceOnUse" r="819.2" cx="0" cy="0" spreadMethod="pad" gradientTransform="matrix(.005 0 0 .006 27.05 22.35)" id="f"><stop offset="0" stop-color="#900"/><stop offset="1"/></radialGradient><radialGradient gradientUnits="userSpaceOnUse" r="819.2" cx="0" cy="0" spreadMethod="pad" gradientTransform="matrix(.19 0 0 .204 -3.8 -5.6)" id="g"><stop offset="0" stop-color="#f00"/><stop offset="1"/></radialGradient><radialGradient gradientUnits="userSpaceOnUse" r="819.2" cx="0" cy="0" spreadMethod="pad" gradientTransform="matrix(.008 0 0 .009 33.3 40.25)" id="h"><stop offset="0" stop-color="#f00"/><stop offset="1"/></radialGradient><radialGradient gradientUnits="userSpaceOnUse" r="819.2" cx="0" cy="0" spreadMethod="pad" gradientTransform="matrix(.016 0 0 .01 22.7 33.95)" id="i"><stop offset="0" stop-color="#f00"/><stop offset="1"/></radialGradient><radialGradient gradientUnits="userSpaceOnUse" r="819.2" cx="0" cy="0" spreadMethod="pad" gradientTransform="matrix(.007 0 0 .004 29.05 44.2)" id="j"><stop offset="0" stop-color="#f00"/><stop offset="1"/></radialGradient><radialGradient gradientUnits="userSpaceOnUse" r="819.2" cx="0" cy="0" spreadMethod="pad" gradientTransform="matrix(.005 0 0 .006 23.85 40.8)" id="k"><stop offset="0" stop-color="#f00"/><stop offset="1"/></radialGradient><radialGradient gradientUnits="userSpaceOnUse" r="819.2" cx="0" cy="0" spreadMethod="pad" gradientTransform="matrix(.02 0 0 .021 9.4 29.45)" id="l"><stop offset=".482" stop-color="#3A2300"/><stop offset="1"/></radialGradient><radialGradient gradientUnits="userSpaceOnUse" r="819.2" cx="0" cy="0" spreadMethod="pad" gradientTransform="matrix(.004 -.004 .007 .008 3.9 8.5)" id="m"><stop offset="0" stop-color="#f00"/><stop offset="1"/></radialGradient><radialGradient gradientUnits="userSpaceOnUse" r="819.2" cx="0" cy="0" spreadMethod="pad" gradientTransform="matrix(.008 0 0 .009 19.7 7)" id="n"><stop offset="0" stop-color="#f90"/><stop offset="1"/></radialGradient><radialGradient gradientUnits="userSpaceOnUse" r="819.2" cx="0" cy="0" spreadMethod="pad" gradientTransform="matrix(.004 0 0 .004 16.35 22.7)" id="o"><stop offset="0" stop-color="#900"/><stop offset="1"/></radialGradient><radialGradient gradientUnits="userSpaceOnUse" r="819.2" cx="0" cy="0" spreadMethod="pad" gradientTransform="matrix(.018 0 0 .02 21.35 13.5)" id="p"><stop offset="0" stop-color="#036"/><stop offset="1"/></radialGradient><radialGradient gradientUnits="userSpaceOnUse" r="819.2" cx="0" cy="0" spreadMethod="pad" gradientTransform="matrix(.002 -.002 .005 .005 17.75 43.85)" id="q"><stop offset="0" stop-color="#f00"/><stop offset="1"/></radialGradient><radialGradient gradientUnits="userSpaceOnUse" r="819.2" cx="0" cy="0" spreadMethod="pad" gradientTransform="matrix(.003 0 0 .003 17.7 41.2)" id="r"><stop offset="0" stop-color="#f00"/><stop offset="1"/></radialGradient><linearGradient gradientUnits="userSpaceOnUse" x1="-819.2" x2="819.2" gradientTransform="matrix(.001 0 .002 .005 30.9 26.35)" id="s"><stop offset="0" stop-color="#fff"/><stop offset="1" stop-color="#ccc"/></linearGradient><linearGradient gradientUnits="userSpaceOnUse" x1="-819.2" x2="819.2" gradientTransform="matrix(-.001 0 .002 -.004 14.35 27.7)" id="t"><stop offset="0" stop-color="#fff"/><stop offset="1" stop-color="#ccc"/></linearGradient><linearGradient gradientUnits="userSpaceOnUse" x1="-819.2" x2="819.2" gradientTransform="matrix(.011 0 0 .008 22.2 21.1)" id="u"><stop offset="0" stop-color="#0066FD"/><stop offset=".212" stop-color="#fff"/><stop offset=".396" stop-color="#960"/><stop offset=".631" stop-color="#fc0"/><stop offset=".847" stop-color="#fff"/><stop offset="1" stop-color="#0669FD"/></linearGradient><radialGradient gradientUnits="userSpaceOnUse" r="819.2" cx="0" cy="0" spreadMethod="pad" gradientTransform="matrix(.018 0 0 .02 21.35 13.5)" id="v"><stop offset="0" stop-color="#FD1313"/><stop offset="1"/></radialGradient><radialGradient gradientUnits="userSpaceOnUse" r="819.2" cx="0" cy="0" spreadMethod="pad" gradientTransform="matrix(.013 0 0 .014 24.9 35.95)" id="w"><stop offset="0" stop-color="#BA0101"/><stop offset="1" stop-color="#100"/></radialGradient></defs><path d="M40.95 7l3.95 5.8 3.3 7.5q.65 2.05.65 4.2L48 32.25q-.45 2.05-.35 5.2.05 1.8-2.3 7.9L44.3 48l.35-2.65v-.05l.05-.4.15-.6v-.05q2.25-10.6 2.25-12.8l-.25-3.15-.35-1.65q-.65-2-.75-4.3-.15-2.35-3.1-7.7-2.25-4.05-2.1-3.25l-1-1.6 1.4-2.8m-3.9 6.5l3.85 7.1q.7 2.3.95 4.8l.35 6.75q.05 2.2-.75 4.1l-.35.85.1-.9.1-3.5q0-2.25-.4-4.35l-1.25-3.85-.1-.25-5.05-9.85 1.85-.6.35-.2.35-.1m.5-9.65l.65.5-2.25 1.35-1.85-.8-1.05.1-2.45 2.35 1.85.95-2.8 2.7-2.15.2.05-.1.2-1.25q.1-1.5.8-2.45l1.55-1.65q.65-.5 1.4-.8l.85-.3-1.05-.1q-2.1-.1-3.05.9.3-.8 1.2-1.5 1.3-1.05 2.8-1.8l2.05-.9 3.1 2.55.1.05h.05m-4.6 6.35l.75-.45q1.5-1.05 3.2-1.55l.45-.1 1.25-.4-.85.95-.55.85-1 1.1-2.5 1.85-1.35.75-1.65.95-1.85.8-1.1.3 2.8-3.05 2.4-2M21.4 24.25l-.75.25q-1.2-.15-2.6-1.1l3.55-.15.5.05h1l-.95.25-.15.1-.6.6M17.1.6q1.3.8 2.15 1.9l-1.65.7q-.85.35-1.3 1.15l-.45.9q.25-.4 1.2-.6.4.8.3 1.6l-.8 1.95q-.45 1.2-.4 2.55l.3 1.85-.8.05-1.7.35-1.3.5-2.4-1.35.6-1.1 1.5-3.45-1.2.65-1.35 1.1-1.3 1.4L7 8.9l-.9-1.2L13.95 2Q15.4.8 17.1.6M3.7 45.65l-.05.35-3.1-14.7L0 19.9q.1-2.1.85-4l1.65-3.6 1.8-2.8.4 1.3 1.1 2.35-.2.15-.05.05q-1.85 1.4-2.8 3.6L2.05 19q-.45 1.5-.5 3.1l-.05 9.5 2.2 14.05m4.55-29.7l.55.35.9.35-1.4 3.7-1.5 7.3-.05 1.15-.25-5.6q.1-3.85 1.75-7.25"/><path fill="#ff0" d="M15.75 21.1l1.95.3h.05l.85.05-.85.4q-1 .2-2-.5v-.25m7.55.6l-1.4-.4 1.35-.3q2.25-.9 4.2-.9l-1.85 1.35-2.3.25"/><path fill="url(#a)" d="M38.2 4.35l1.55-.8q1.85-.95 3.9-1.1l1.95-.1Q43.65 3 42.3 4.9L40.95 7l-1.4 2.8-1.5 2.8-.5.55-.5.35-.35.1-.35.2h-.6l-3.4-.6 1.35-.75 2.5-1.85 1-1.1.55-.85.85-.95-1.25.4-.45.1q-1.7.5-3.2 1.55l-.75.45q-.1-1.25.4-2.15.3-.6.85-1.05l.2-.15.1-.05.05-.05.1-.05v-.05l1.15-.9.15-.05 2.25-1.35m1.25 2.85l-.85.5.85-.5"/><path fill="url(#b)" d="M34.3 1.25V.8h1.4l-1.4.45"/><path fill="url(#c)" d="M35.95 5.7l-.15.05-1.15.9v.05l-.1.05-.05.05-.1.05-.2.15-1.75 1.3-1.85-.95L33.05 5l1.05-.1 1.85.8m-8.45 5.5l2.15-.2-2.2 1.55-.35.15.35-.95.05-.55m-19-.45l1.3-1.4 1.35-1.1 1.2-.65-1.5 3.45-.6 1.1-.75-.5-1-.9m4.15 2.75l1.3-.5 1.7-.35.8-.05.35.7-.55.3-3.4.1-.2-.2"/><path fill="url(#d)" d="M44.6 44.25l-.6-4.2q-.1-1.4.7-10.6-2.1 13.25-2.75 14.95-.7 1.6-.75 2.45.1-1.55-.4-3.55l-.05-5.9-1.3 7.55-.75-9.65q-.2-3.15-1.6-6l-.4-.85q-.75-1.55-1.2-3.2l1.35 5.65.2 4.2-.45-1.45q-.75-2-1.85-3.9l-1.55-2.8-.45-.45v2.3l-1.2-2.2.05-.1.1-1.85q.05-1.35-1-2.6l-.05-.1q.2-.75.05-1.75l-.1-.4-.05-.1.75-.7q.4-.55.25-1.35-.25-1-.9-1.6l-.1-.05.1-.1.2-.05 3.65-1.45 5.05 9.85.1.25 1.25 3.85q.4 2.1.4 4.35l-.1 3.5-.1.9.35-.85q.8-1.9.75-4.1l-.35-6.75q-.25-2.5-.95-4.8l-3.85-7.1.5-.35.5-.55 1.5-2.8 1 1.6q-.15-.8 2.1 3.25 2.95 5.35 3.1 7.7.1 2.3.75 4.3l.35 1.65.25 3.15q0 2.2-2.25 12.8h-.25"/><path fill="url(#e)" d="M34.3 1.25l-2.05.9q-1.5.75-2.8 1.8-.9.7-1.2 1.5.95-1 3.05-.9l1.05.1-.85.3q-.75.3-1.4.8L28.55 7.4q-.7.95-.8 2.45l-.2 1.25-.05.1-.05.55-.35.95-1.75.35.85-2.6q.35-1.95-.25-3.6l-.2-.5q-1.1-2.2-.65-3.35l.7-.6 3.95-1.15L33.7.8h.6v.45"/><path fill="url(#f)" d="M30.55 19.7l.05.1.1.4q.15 1-.05 1.75l-.1.2v.05l-1.1 1.05-3 1.3-1.1.45v-.05L23.3 21.7l2.3-.25 1.85-1.35h.7l2-.2.4-.2"/><path fill="url(#g)" d="M32.75 28.8l.6 1.2q.7 1.55.6 3.3l-.5-.5-.5-.9q-.55-1.55-1.75-2.9l.1-.45.25-1.95 1.2 2.2m.8 6.6q.85-.75 1.6-.6l-.45 1.05q-.45.6-1.5.75l.3-1.15.05-.05"/><path fill="url(#h)" d="M35.15 34.8q.65.15 1.2 1.2.2.4.05.95-.6 2.05-1.85 3.5l-.6 1-.15.65.35-.05q1.55-.1 1 1.95l-.05.1-.05.2q-.4 1-.1 2.15l-2.15-.4.4-1-.15-1.25q-.35-1.05-1.55-1-.65-1.4-.65-3.2v-.85q.15-2.15-.5-3.95l-.15-.6.3-.15.25.5v.1q.5 1.1.65 2.65.7-.65 1.5-.7h.3l-.05.05-1.2 2.55 1.2-2.55.05-.05q1.05-.15 1.5-.75l.45-1.05"/><path fill="url(#i)" d="M25.35 25l1.1-.45.75.5q1.35.95 2.25 2.5l.9 1.8h-.15l-.35 1.55q-1-1.3-2.2-1.85.4 1.4.1 2.75-.85-1.5-1.9-2.3l-.3-.2-.1-.05.1.8q.5 4.55-.8 7.15l-.3-2.5q-.55-3-2.15-5.35-.5 2.35-.6 4.75l-1.9-4.85-.9.7q-.7.7-.85 1.65l-.1 1.4q-.4-.5-.35-1.4v-.1q.2-2.8-1.3-1.75l1.15-3.15.45-.25.15-.2.1.1q1.15.9 2.15.85l.2-.85.9 1.2 1.1-1.1.15-.35 2.7-1"/><path fill="url(#j)" d="M32.8 46.05l-.25.2q-1.65.85-1.85 2.65-.5-1.35-1.75-2.35l.35-.5-.5.35-1.9 1.65-.65-1.7q-1.15.25-1.3 1l-.05-1.3q-.1-1.3.2-2.3.2-.8.7-1.4l.75-1.2V41l.65-.2-.25.55q-.25.8.6 1.25l.65-.65.15-.35.1.45q.4 1.3.9.35l.1-.05.15-.95q-.05-1.65 1.25-1.8 0 1.8.65 3.2 1.2-.05 1.55 1l.15 1.25-.4 1m-6.9-.2l.35.5-.35-.5m3.2-1.8q.45.45.2 2 .25-1.55-.2-2"/><path fill="url(#k)" d="M25.1 43.75h-.95q-1.55.85-2.55.55l.1-2.1.15-1.6-.5-.75-.05-.7.05-.5-.55-1.35 1.85.85.15.1.15.05 3.85.75.15.05-.4 1.9v.15l-.75 1.2q-.5.6-.7 1.4m-1.3-2.25l-1.8-2-.2-.3-.45-.55.45.55.2.3 1.8 2"/><path fill="url(#l)" d="M13.6 17.95l-.45.65q-.6 1 .05 1.75l.9.3-.15 2.55q-.05.6.75.9h.1q-1.2 1.55-1.35 3.45-.2 2.15.55 3.95.45-2.15 2.3-3.95l1.15-.95-1.15 3.15-.1.45q-.5 1.4-.25 2.75-.4.4-.3 1.05l.25 3.2-.95-1.4q-1-1.2-1.4-2.15l-.3-.95.5 3.3v1.55q-.05-.95-.6-1.95l-.55-.85q-1.15-1.55-1.4-5l-.45-3.9-.4-1.75-.2 4.25Q9.8 30.3 9.8 32.3l.05 5.25-.45-1.25-.8-1.45q-1.45-2.2-2.35-4.4v-.05l-.5-1.35-.05 1.75q-.05.8.3 1.35l.7 2.05.2 4.45-.1 4.4-.3-1.15-.05-.1-1.05-4.55q-.5-3.55-1.7-6.75l-.3-.8v.9l.35 4.25q.4 2.2.35 4.5l-.1 4.5-.3 1.8L1.5 31.6l.05-9.5q.05-1.6.5-3.1l.7-2.05q.95-2.2 2.8-3.6l.05-.05.2-.15.9 1.25 1.55 1.55Q6.6 19.35 6.5 23.2l.25 5.6.05-1.15 1.5-7.3 1.4-3.7.1.05 2.9.9.75.25.15.1"/><path fill="url(#m)" d="M6.1 7.7L7 8.9q-.4 1.35.7 2.65l2.25 2.25 3.6 2.35q-1.45-.1-.85 1.45l-2.9-.9-.1-.05-.9-.35-.55-.35L6.7 14.4l-.9-1.25-1.1-2.35-.4-1.3-.2-2.8-.05-.05-1.35-2.3q.7.35 1.45 1.1L6.1 7.7m5.7 8.65l-1.45-.85-1-.8-2.3-2.6L4.1 6.7l2.95 5.4 2.3 2.6 1 .8 1.45.85"/><path fill="url(#n)" d="M17.1.6l-1-.6.95.05 2.3.65v.05L23.6 2l-2.4 1.65q-1.2.9-1.95 2.2l-.5.9v.1l-.7 2.75-.2 3.4-1.05.3-.35-.7-.3-1.85q-.05-1.35.4-2.55l.8-1.95q.1-.8-.3-1.6-.95.2-1.2.6l.45-.9q.45-.8 1.3-1.15l1.65-.7Q18.4 1.4 17.1.6"/><path fill="url(#o)" d="M14.1 20.65l1.15.35.5.35q1 .7 2 .5l.85-.4h.25q-.3 1.05-.95 1.7l-.1.1-.3.25-1.3 1.3-1.4-.7h-.1q-.8-.3-.75-.9l.15-2.55"/><path fill="url(#p)" d="M21.15 14.8q.55 2.25-.5 3.8-.25-1.6.25-3.15l.25-.65"/><path fill="url(#q)" d="M21.6 44.3l-.05.2q.75.65.15 2.2-2 .4-3.1 1.3l-.05-1.05q-1.3.55-1.7 1.95l-.45-.5q-.35-1-.3-1.7-.6.1-.6.65l-.15-1.85q.05-1 .75-1.3.55-.25 1.05-.55l.8-.7q.75-.7.8-1.55l-.15-1.8-.25-1.15v-.05l.05.1 1.85 1.95.65 1.25q.1.6.8.5l-.1 2.1m-3.1 2.05l.05.6-.05-.6m-1.15-1.2q-1.15.45-1.25 1.55.1-1.1 1.25-1.55"/><path fill="url(#r)" d="M18.6 39.6l.15 1.8q-.05.85-.8 1.55l-.8.7q-.45-.3-.5-1.05-.15-2.35.75-3.8l1.2.8"/><path fill="url(#s)" d="M30.65 21.95l.05.1q1.05 1.25 1 2.6l-.1 1.85-.05.1-.25 1.95-.1.45-.3 1.8-.55-1.45-.9-1.8q-.9-1.55-2.25-2.5l-.75-.5 3-1.3 1.1-1.05v-.05l.1-.2"/><path fill="url(#t)" d="M17.45 26.6l-1.15.95q-1.85 1.8-2.3 3.95-.75-1.8-.55-3.95.15-1.9 1.35-3.45l1.4.7 1.65 1.15.2.2-.15.2-.45.25"/><path fill="url(#u)" d="M30.55 16l.1.05q.65.6.9 1.6.15.8-.25 1.35l-.75.7-.4.2-2 .2h-.7q-1.95 0-4.2.9l-1.35.3 1.4.4 2.05 3.25V25l-2.7 1-.15.35-1.1 1.1-.9-1.2-.2.85q-1 .05-2.15-.85l-.1-.1-.2-.2-1.65-1.15 1.3-1.3.3-.25.1-.1q.65-.65.95-1.7h-.25l-.85-.05h-.05l-1.95-.3-.5-.1-1.15-.35-.9-.3q-.65-.75-.05-1.75l.45-.65 1.1.75.15-.15q1 1.2 2.65.55l.35-.15Q19 16.6 20.5 15.3l.65-.5q1.1 2.3 1.5 4.3l4.25-.15q.7-.1 1.1-.45.45-.45.55-1.3.05-.6.25-.9.45-.75 1.6-.6l.1.3h.05m-9.4-1.2l-.25.65q-.5 1.55-.25 3.15 1.05-1.55.5-3.8m0 5.1l-.1.6q-.05.8.85.8-.9 0-.85-.8l.1-.6m-1.2 0q.55.25.55.65v.05l-.1.35-.7.45-.85.05.85-.05.7-.45.1-.35v-.05q0-.4-.55-.65m1.45 4.35l.6-.6.15-.1.95-.25h-1l-.5-.05-3.55.15q1.4.95 2.6 1.1l.75-.25"/><path fill="url(#v)" d="M36.35 13.8l-1.85.6-3.65 1.45-.05-.1-.25-.05h-.15q-1.15-.15-1.6.6-.2.3-.25.9-.1.85-.55 1.3-.4.35-1.1.45l-4.25.15q-.4-2-1.5-4.3l-.65.5q-1.5 1.3-2.65 3.65l-.35.15q-1.65.65-2.65-.55l-.15.15-1.1-.75-.15-.1-.75-.25q-.6-1.55.85-1.45l-3.6-2.35-2.25-2.25Q6.6 10.25 7 8.9l1.5 1.85 1 .9.75.5 2.4 1.35.2.2 3.4-.1.55-.3 1.05-.3 1.2.25h.05q1-2.15 2.75-3.05-.95.95-.9 2.55 1.1-1.1 2.75-1.6l.1 1.9h1.55l1.75-.35.35-.15 2.2-1.55 2.8-2.7L34.2 7q-.55.45-.85 1.05-.5.9-.4 2.15l-2.4 2-2.8 3.05 1.1-.3 1.85-.8 1.65-.95 3.4.6h.6"/><path fill="url(#w)" d="M33.95 33.3l-.1.85-.3 1.25-.05.05-.3 1.15h-.3q-.8.05-1.5.7-.15-1.55-.65-2.65v-.1l-.25-.5-.3.15.15.6q.65 1.8.5 3.95v.85q-1.3.15-1.25 1.8l-.15.95-.1.05q-.5.95-.9-.35l-.1-.45-.15.35-.65.65q-.85-.45-.6-1.25l.25-.55-.65.2.4-1.9-.15-.05-3.85-.75-.15-.05-.15-.1-1.85-.85.55 1.35-.05.5.05.7.5.75-.15 1.6q-.7.1-.8-.5l-.65-1.25-1.85-1.95-.05-.1-.3-.8-1.65-3.35-.45-1.3q-.25-1.35.25-2.75l.1-.45q1.5-1.05 1.3 1.75v.1q-.05.9.35 1.4l.1-1.4q.15-.95.85-1.65l.9-.7 1.9 4.85q.1-2.4.6-4.75 1.6 2.35 2.15 5.35l.3 2.5q1.3-2.6.8-7.15l-.1-.8.1.05.3.2q1.05.8 1.9 2.3.3-1.35-.1-2.75 1.2.55 2.2 1.85l.35-1.55h.15l.55 1.45.3-1.8q1.2 1.35 1.75 2.9l.5.9.5.5M20.5 35.45l.3 1.85-.3-1.85m10.1-2.75q-.55.55-.4 1.4v.1-.1q-.15-.85.4-1.4M27 34.1q-.2 2.2-.05 4.45v.55-.55q-.15-2.25.05-4.45"/><path fill="none" stroke="#000" stroke-width=".05" stroke-linecap="round" stroke-miterlimit="3" d="M40.95 7l3.95 5.8 3.3 7.5q.65 2.05.65 4.2L48 32.25q-.45 2.05-.35 5.2.05 1.8-2.3 7.9L44.3 48l.35-2.65v-.05l.05-.4-.1-.55v-.1M33.55 35.4q.85-.75 1.6-.6m-6.2 11.75l-.15-.15m-13.3.95v.35m29.35-3.45v.05l-.15.6M37.4 3.8l.15.05.65.5m-.8-.55l-3.1-2.55m-6.8 9.95l2.15-.2m2.8-2.7l-1.85-.95L33.05 5l1.05-.1 1.85.8M34.3.8h1.4l-1.4.45M15.25 21l.5.1m5.65 3.15l-.75.25q-1.2-.15-2.6-1.1l3.55-.15.5.05h1l-.95.25-.15.1-.6.6M30.5 16h.05M17.1.6Q15.4.8 13.95 2L6.1 7.7m2.4 3.05l1.3-1.4 1.35-1.1 1.2-.65-1.5 3.45-.6 1.1m2.4 1.35l1.3-.5 1.7-.35.8-.05M3.7 45.65l-.05.35-3.1-14.7L0 19.9q.1-2.1.85-4l1.65-3.6 1.8-2.8m13.55 16.45l.2.2"/><path fill="none" stroke="#3A2300" stroke-width=".05" stroke-linecap="round" stroke-miterlimit="3" d="M16.2 24.8l1.65 1.15"/><path fill="none" stroke="#241500" stroke-width=".05" stroke-linecap="round" stroke-miterlimit="3" d="M44.6 44.25l-.6-4.2q-.1-1.4.7-10.6-2.1 13.25-2.75 14.95-.7 1.6-.75 2.45.1-1.55-.4-3.55l-.05-5.9-1.3 7.55-.75-9.65q-.2-3.15-1.6-6l-.4-.85q-.75-1.55-1.2-3.2l1.35 5.65.2 4.2-.45-1.45q-.75-2-1.85-3.9l-1.55-2.8-.45-.45v2.3m6.8-19l1 1.6q-.15-.8 2.1 3.25 2.95 5.35 3.1 7.7.1 2.3.75 4.3l.35 1.65.25 3.15q0 2.2-2.25 12.8M34.5 14.4l5.05 9.85.1.25 1.25 3.85q.4 2.1.4 4.35l-.1 3.5-.1.9.35-.85q.8-1.9.75-4.1l-.35-6.75q-.25-2.5-.95-4.8l-3.85-7.1m-6.2 2.35l-.2.05-.1.1.1.05q.65.6.9 1.6.15.8-.25 1.35l-.75.7m.1 2.25l.05.1q1.05 1.25 1 2.6l-.1 1.85-.05.1M34.3 1.25l-2.05.9q-1.5.75-2.8 1.8-.9.7-1.2 1.5.95-1 3.05-.9l1.05.1-.85.3q-.75.3-1.4.8L28.55 7.4q-.7.95-.8 2.45l-.2 1.25-.05.1M34.3.8h-.6l-3.95.45L25.8 2.4l-.7.6q-.45 1.15.65 3.35l.2.5q.6 1.65.25 3.6l-.85 2.6m1.75-.35l.35-.95.05-.55M17.1.6l-1-.6.95.05 2.3.65v.05L23.6 2l-2.4 1.65q-1.2.9-1.95 2.2l-.5.9v.1l-.7 2.75-.2 3.4m-4.25 4.95l-.45.65q-.6 1 .05 1.75l.9.3m2.35-8.05l-.3-1.85q-.05-1.35.4-2.55l.8-1.95q.1-.8-.3-1.6-.95.2-1.2.6l.45-.9q.45-.8 1.3-1.15l1.65-.7Q18.4 1.4 17.1.6m-.65 12l.35.7m-11-.15l-.2.15-.05.05q-1.85 1.4-2.8 3.6L2.05 19q-.45 1.5-.5 3.1l-.05 9.5 2.2 14.05.3-1.8.1-4.5q.05-2.3-.35-4.5L3.4 30.6v-.9l.3.8q1.2 3.2 1.7 6.75l1.05 4.55.05.1.3 1.15.1-4.4-.2-4.45-.7-2.05q-.35-.55-.3-1.35l.05-1.75.5 1.35v.05q.9 2.2 2.35 4.4l.8 1.45.45 1.25-.05-5.25q0-2 .35-3.95l.2-4.25.4 1.75.45 3.9q.25 3.45 1.4 5l.55.85q.55 1 .6 1.95V36l-.5-3.3.3.95q.4.95 1.4 2.15l.95 1.4-.25-3.2q-.1-.65.3-1.05m1.5-6.35l-1.15.95q-1.85 1.8-2.3 3.95-.75-1.8-.55-3.95.15-1.9 1.35-3.45m-6.55-8.15Q6.6 19.35 6.5 23.2l.25 5.6.05-1.15 1.5-7.3 1.4-3.7"/><path fill="none" stroke="#3F0000" stroke-width=".05" stroke-linecap="round" stroke-miterlimit="3" d="M9.7 16.65l.1.05 2.9.9m20.25-7.4l.75-.45q1.5-1.05 3.2-1.55l.45-.1 1.25-.4.85-.5m-7.1 6l1.35-.75 2.5-1.85 1-1.1.55-.85.85-.95m-32.5 0L7 8.9m-.9-1.2L4.15 5.45Q3.4 4.7 2.7 4.35l1.35 2.3.05.05 2.95 5.4 2.3 2.6 1 .8 1.45.85M4.3 9.5l-.2-2.8m.2 2.8l.4 1.3 1.1 2.35.9 1.25 1.55 1.55.55.35.9.35"/><path fill="none" stroke="#5B0000" stroke-width=".05" stroke-linecap="round" stroke-miterlimit="3" d="M32.75 28.8l.6 1.2q.7 1.55.6 3.3l-.1.85-.3 1.25-.05.05-.3 1.15-.05.05-1.2 2.55m3.2-4.4q.65.15 1.2 1.2.2.4.05.95-.6 2.05-1.85 3.5l-.6 1-.15.65.35-.05q1.55-.1 1 1.95l-.05.1-.05.2q-.4 1-.1 2.15l-2.15-.4-.25.2q-1.65.85-1.85 2.65-.5-1.35-1.75-2.35m-.15-.15l-1.9 1.65-.65-1.7q-1.15.25-1.3 1l-.05-1.3q-.1-1.3.2-2.3h-.95q-1.55.85-2.55.55l-.05.2q.75.65.15 2.2-2 .4-3.1 1.3l-.05-1.05q-1.3.55-1.7 1.95l-.45-.5q-.35-1-.3-1.7-.6.1-.6.65M36.35 13.8l-1.85.6-3.65 1.45m-.25 3.95l.1.4q.15 1-.05 1.75m.9 4.65l1.2 2.2M29.65 11l2.8-2.7m-7.1 4.75l1.75-.35m5.85-2.5l-2.4 2-2.8 3.05 1.1-.3 1.85-.8 1.65-.95M34.2 7l-1.75 1.3M17.85 13l1.2.25h.05q1-2.15 2.75-3.05-.95.95-.9 2.55 1.1-1.1 2.75-1.6l.1 1.9h1.55m4.3-2.05l-2.2 1.55-.35.15m-12.4 6l-1.1-.75-.15-.1-.75-.25m1.4 3.05l1.15.35m3.35.45h.25m8.6-1.35h.7l2-.2.4-.2m-4.1 4.85l3-1.3 1.1-1.05v-.05l.1-.2M25.35 25l1.1-.45.75.5q1.35.95 2.25 2.5l.9 1.8.55 1.45.3-1.8.1-.45.25-1.95M7 8.9l1.5 1.85m1.75 1.4l2.4 1.35m4.15-.2l1.05-.3m-7.6-.85l-.75-.5-1-.9m7.45 22.2q-.25-1.35.25-2.75l.1-.45 1.15-3.15m-2.65-2.5h-.1q-.8-.3-.75-.9l.15-2.55m2.7-7.35l-.55.3-3.4.1-.2-.2m3.1 7.85l-.5-.35m2.8 5.15l.1.1q1.15.9 2.15.85l.2-.85.9 1.2 1.1-1.1.15-.35 2.7-1m-7.45 1.35l-.45.25m-1.5 6.35l.45 1.3 1.65 3.35.3.8m3.35 3.8l.15-1.6-.5-.75-.05-.7.05-.5-.55-1.35-.3-1.85m-1.9 4.15l.15 1.8q-.05.85-.8 1.55l-.8.7q-.5.3-1.05.55-.7.3-.75 1.3l.15 1.85m3.1-7.75l-.25-1.15v-.05m-1.2 5.25q-.45-.3-.5-1.05-.15-2.35.75-3.8l1.2.8m-2.5 7.1q.1-1.1 1.25-1.55m1.2 1.8l-.05-.6M30.2 34.2l.15.6q.65 1.8.5 3.95v.85q0 1.8.65 3.2 1.2-.05 1.55 1l.15 1.25-.4 1M30.2 34.2v-.1q-.15-.85.4-1.4m-3.65 6.4v-.55q-.15-2.25.05-4.45m-.45 6.9v.15l-.75 1.2q-.5.6-.7 1.4M26.55 41l.4-1.9m-5.6-.45l.45.55.2.3 1.8 2m5 4.9l.5-.35q.25-1.55-.2-2m-2.85 2.3l-.35-.5m-4.2-3.65l-.1 2.1m-5.4-19.5l-1.4-.7"/><path fill="none" stroke="#9B6905" stroke-width=".05" stroke-linecap="round" stroke-miterlimit="3" d="M15.75 21.1l1.95.3h.05l.85.05-.85.4q-1 .2-2-.5m7.55.35l-1.4-.4 1.35-.3q2.25-.9 4.2-.9l-1.85 1.35-2.3.25"/><path fill="none" stroke="#392200" stroke-width=".05" stroke-linecap="round" stroke-miterlimit="3" d="M18.85 21.45l.85-.05.7-.45.1-.35v-.05q0-.4-.55-.65m1.95 1.4q-.9 0-.85-.8l.1-.6"/><path fill="none" stroke="#8A0A0A" stroke-width=".05" stroke-linecap="round" stroke-miterlimit="3" d="M38.2 4.35l1.55-.8q1.85-.95 3.9-1.1l1.95-.1Q43.65 3 42.3 4.9L40.95 7m-3.9 6.5l-.35.1-.35.2m1.85-9.45L35.95 5.7l-.15.05-1.15.9v.05l-.1.05-.05.05-.1.05-.2.15m2.85 6.5l.5-.35.5-.55 1.5-2.8 1.4-2.8"/></svg>