<svg xmlns="http://www.w3.org/2000/svg" viewBox="0 3.3 41.5 39.0" width="41.5" height="39"><defs><linearGradient gradientUnits="userSpaceOnUse" x1="-819.2" x2="819.2" spreadMethod="repeat" gradientTransform="matrix(-.002 -.002 .004 -.003 31.85 8.05)" id="a"><stop offset="0" stop-color="#ff9"/><stop offset=".8" stop-color="#6ff"/><stop offset="1" stop-color="#ff0"/></linearGradient><linearGradient gradientUnits="userSpaceOnUse" x1="-819.2" x2="819.2" gradientTransform="matrix(-.001 -.002 .002 -.001 32.9 12.35)" id="b"><stop offset="0" stop-color="#ff9"/><stop offset=".8" stop-color="#6ff"/><stop offset="1" stop-color="#ff0"/></linearGradient><radialGradient gradientUnits="userSpaceOnUse" r="819.2" cx="0" cy="0" spreadMethod="pad" gradientTransform="matrix(.008 0 0 .025 19.35 16.7)" id="c"><stop offset="0" stop-color="#ff9"/><stop offset=".561" stop-color="#FF3922"/><stop offset=".906" stop-color="#333"/></radialGradient><radialGradient gradientUnits="userSpaceOnUse" r="819.2" cx="0" cy="0" spreadMethod="pad" gradientTransform="matrix(.007 0 0 .007 19.25 15)" id="d"><stop offset="0" stop-color="#ff9"/><stop offset=".427" stop-color="#FF3922"/><stop offset=".894" stop-color="#f00"/></radialGradient><radialGradient gradientUnits="userSpaceOnUse" r="819.2" cx="0" cy="0" spreadMethod="pad" gradientTransform="matrix(.01 0 0 .01 23 21.3)" id="e"><stop offset="0" stop-color="#f00"/><stop offset="1"/></radialGradient><radialGradient gradientUnits="userSpaceOnUse" r="819.2" cx="0" cy="0" spreadMethod="pad" gradientTransform="matrix(.007 0 0 .007 22.95 19.55)" id="f"><stop offset="0" stop-color="#ff9"/><stop offset="1" stop-color="#690"/></radialGradient><radialGradient gradientUnits="userSpaceOnUse" r="819.2" cx="0" cy="0" spreadMethod="pad" gradientTransform="matrix(.008 0 0 .008 18.4 19.75)" id="g"><stop offset="0"/><stop offset="1" stop-color="#900"/></radialGradient><radialGradient gradientUnits="userSpaceOnUse" r="819.2" cx="0" cy="0" spreadMethod="pad" gradientTransform="matrix(.004 0 0 .004 20.1 19.9)" id="h"><stop offset="0"/><stop offset=".894" stop-color="#600"/></radialGradient><radialGradient gradientUnits="userSpaceOnUse" r="819.2" cx="0" cy="0" spreadMethod="pad" gradientTransform="matrix(.003 0 0 .003 24.6 21.8)" id="i"><stop offset="0" stop-color="#ff9"/><stop offset=".427" stop-color="#FF3922"/><stop offset=".894" stop-color="#f00"/></radialGradient><linearGradient gradientUnits="userSpaceOnUse" x1="-819.2" x2="819.2" gradientTransform="matrix(0 -.003 .004 .001 33.9 18.45)" id="j"><stop offset="0" stop-color="#ff9"/><stop offset=".8" stop-color="#6ff"/><stop offset="1" stop-color="#ff0"/></linearGradient><radialGradient gradientUnits="userSpaceOnUse" r="819.2" cx="0" cy="0" spreadMethod="pad" gradientTransform="matrix(.007 0 0 .007 27.55 24)" id="k"><stop offset=".353" stop-color="#f60"/><stop offset=".58" stop-color="#fff"/><stop offset="1" stop-color="#696"/></radialGradient><radialGradient gradientUnits="userSpaceOnUse" r="819.2" cx="0" cy="0" spreadMethod="pad" gradientTransform="matrix(.007 0 0 .007 28.35 27.45)" id="l"><stop offset=".353" stop-color="#f60"/><stop offset=".58" stop-color="#fff"/><stop offset="1" stop-color="#696"/></radialGradient><radialGradient gradientUnits="userSpaceOnUse" r="819.2" cx="0" cy="0" spreadMethod="pad" gradientTransform="matrix(.005 0 0 .005 29.65 29.1)" id="m"><stop offset=".353" stop-color="#f60"/><stop offset=".58" stop-color="#fff"/><stop offset="1" stop-color="#696"/></radialGradient><radialGradient gradientUnits="userSpaceOnUse" r="819.2" cx="0" cy="0" spreadMethod="pad" gradientTransform="matrix(.014 0 0 .014 13.5 28)" id="n"><stop offset="0" stop-color="#ff9"/><stop offset=".427" stop-color="#FF3922"/><stop offset=".894" stop-color="#f00"/></radialGradient><radialGradient gradientUnits="userSpaceOnUse" r="819.2" cx="0" cy="0" spreadMethod="pad" gradientTransform="matrix(.004 0 0 .004 22.4 26.2)" id="o"><stop offset="0" stop-color="#ff9"/><stop offset=".427" stop-color="#FF3922"/><stop offset=".894" stop-color="#f00"/></radialGradient><radialGradient gradientUnits="userSpaceOnUse" r="819.2" cx="0" cy="0" spreadMethod="pad" gradientTransform="matrix(.003 0 0 .003 19.9 30.75)" id="p"><stop offset=".353" stop-color="#f60"/><stop offset=".58" stop-color="#fff"/><stop offset="1" stop-color="#696"/></radialGradient><linearGradient gradientUnits="userSpaceOnUse" x1="-819.2" x2="819.2" gradientTransform="matrix(.001 -.001 .003 .002 8.25 11.25)" id="q"><stop offset="0" stop-color="#ff9"/><stop offset=".8" stop-color="#6ff"/><stop offset="1" stop-color="#ff0"/></linearGradient><linearGradient gradientUnits="userSpaceOnUse" x1="-819.2" x2="819.2" gradientTransform="matrix(0 -.002 .004 -.001 6.8 19.15)" id="r"><stop offset="0" stop-color="#ff9"/><stop offset=".8" stop-color="#6ff"/><stop offset="1" stop-color="#ff0"/></linearGradient><radialGradient gradientUnits="userSpaceOnUse" r="819.2" cx="0" cy="0" spreadMethod="pad" gradientTransform="matrix(.006 0 0 .006 14.75 20.45)" id="s"><stop offset="0" stop-color="#ff9"/><stop offset="1" stop-color="#690"/></radialGradient><linearGradient gradientUnits="userSpaceOnUse" x1="-819.2" x2="819.2" gradientTransform="matrix(-.001 -.001 .004 -.002 10.25 23.25)" id="t"><stop offset="0" stop-color="#ff9"/><stop offset=".8" stop-color="#6ff"/><stop offset="1" stop-color="#ff0"/></linearGradient><radialGradient gradientUnits="userSpaceOnUse" r="819.2" cx="0" cy="0" spreadMethod="pad" gradientTransform="matrix(.005 0 0 .005 16.65 22.65)" id="u"><stop offset="0" stop-color="#f00"/><stop offset="1"/></radialGradient><radialGradient gradientUnits="userSpaceOnUse" r="819.2" cx="0" cy="0" spreadMethod="pad" gradientTransform="matrix(.003 0 0 .003 16.35 24.3)" id="v"><stop offset=".353" stop-color="#f60"/><stop offset=".58" stop-color="#fff"/><stop offset="1" stop-color="#696"/></radialGradient><radialGradient gradientUnits="userSpaceOnUse" r="819.2" cx="0" cy="0" spreadMethod="pad" gradientTransform="matrix(.003 0 0 .003 17.45 27.1)" id="w"><stop offset=".353" stop-color="#f60"/><stop offset=".58" stop-color="#fff"/><stop offset="1" stop-color="#696"/></radialGradient></defs><path fill="#630" d="M38.55 9.75l2.95.1-.8.3-.4.2-.65.35-.9.45-.05-.8-.15-.6M25.5 12.8q.15.4 1.2.55l.45.05q-.7.85.75 1.05l-.3.3q-.4.65.85.6-.6.95.4 1.35l.05.4q.2 1.25 1.95 1.25h.05q-1.35.95-.25 2.2l.4.15q-.6 1.25.95 1.95-.85.9-.3 1.85l-.35.2q-.5.35-.05 1.05-.95.85.1 1.8-1.05.7-.95 2.45v.35l-.3-.15V29l.2-.7.15-2.3q0-.6.3-1.2l.15-.3-.15-.6q-.85-.9-1-1.85-.5-.3-.3-.8.4-.95-.2-2l-.3-.4q-.7-.65-.95-1.95l-.55-.7q-.35-1.1-1.3-1.55-1.1-.45-1.45-1.5l-.15-.35q-.35-.4-1.25-.45l-1.15-.15-.7-.3-.25-.25q-.05-.5-1.05-.4l-2.25.1q-1.1 0-1.75.85-.7.85-1.8 1.15-.45.1-.5.4l-.1 1.9q-.45.4-.1 1.25l-.25.8-1.05-.65.4-.35-.5-.1-.1-.1-.55-.65.85-.05-.1-.25v-.2q.3-.2.2-.6h.05q.35-.3.35-.8v.25l.55-1.05.1-.35q.85-.25.8-1.35.55.7 1.35-.3l.9-.45.75-.45.25-.15v.45l1.95-.6h.5l1.65-.2-.15.5 1.9-.1-.8.8 1.9.1h.05l.85.05-.75.5 1.15.35-.45.55v.3m14.35 7.5l1.1 1.55.45.95-.9-.5-1.25-.6-.75-.3 1.35-1.1m-2.2-15.5l-.4-1.25 2.85-.25-.45.2-2 1.3M4.9 7.95l-.5.95-.15.45L3 8.55l-1.05-.8L3 7.65l1.9.3M1.2 21.6l.05.15.15.25.55.75-.1.1-1.85.8.55-1.2.65-.85m6.1 5l-.95.85q-1 .9-1.25 1.7L5.35 28l.6-1.95.05-.1 1.3.65"/><path d="M29.4 31.05l-1.65 1.5.05-.6.6-2.4.5-1.2.25-.6.05 1.5.1.95.1.85m-1.85 1.6l-.4.3.15-1-1.25-.4q-1 0-1.55-.75l1.55-.15 1.1-.65.4 2.65m-1.15.85l-1.55 1.2-.05.05-.6-.8-.05-.05q-.35-.65-.1-1.4.7.75 1.75 1h.6m-2.25 2.05l-.25.4q-.45-.65.25-.4m-3.65 2.9l-.2-.35q-.4-1-.2-2.1l.05-.2q.2-.7 0-1.55-.3-1.1-.15-2.2l1 .8-.9-2.8-.15-.8v-.4l1.45.25q-.3 1.2.85 1.7l1.4.2q-.7.55-1.6.35l-.25-.05q-1-.3-.9.9.1.85 1.15.8l.9-.1q-.65.8-1.8.85-.7.05-.3.7.5.85 1.6.5l.5-.25q-.2 1.15-1.35 1.2-.9.05-.35 1.2.3.7.9.2.05.55-.55.85l-1 .5-.1-.2m1.5-25.4l-1.25.25-2.25.2-1.65.4-1.6.6-1.2.2q.25-.7 1.2-.9l5.05-1.2 1.7-.2q1.15-.05.35.45l-.35.2"/><path fill="url(#a)" d="M24.65 11.05l1.25-1.6 1.5-1.5 1.45-1.1.1-.1q.85-.55 1.75-1l2-.95 1.85-.7.15-.05 2.05-.4.5-.1.4 1.25-6.95 3.5-3.75 1.7-.75.25-.6.25-.9.55h-.05"/><path fill="url(#b)" d="M38.75 11.15l-.25.1-1.2.4-.45.1-1.05.35-1.45.5-3.9.5-4.65-.5q.7-.5 1.6-.75l1.65-.6 3.75-1.2 2.05-.3h3.7l.15.6.05.8"/><path fill="url(#c)" d="M27.15 32.95l-.75.55h-.6q-1.05-.25-1.75-1-.25.75.1 1.4l.05.05.6.8-.65.8q-.7-.25-.25.4l-.05.2q-.45.95.1 1.65l.55.1 1.6 1.15q.9.9.55 2.15l-.35.2-1.9.45-2.75.45-1.05-1.75q-.7-.85-.3-1.8l.2-.3.1.2 1-.5q.6-.3.55-.85-.6.5-.9-.2-.55-1.15.35-1.2 1.15-.05 1.35-1.2l-.5.25q-1.1.35-1.6-.5-.4-.65.3-.7 1.15-.05 1.8-.85l-.9.1q-1.05.05-1.15-.8-.1-1.2.9-.9l.25.05q.9.2 1.6-.35l-1.4-.2q-1.15-.5-.85-1.7l1.05.15q.9.15 1.3-.35l1.45-2.05q.7-1 .85-2.15l.4-4.4q.15-1.9-1.1-3.45l-.4-.5-.9-2.5q-.5-1.3-1.9-.35-1 .65-2.2 1.1l-1.9.55-3.2.2q-.75 0-1.05.3l.1-1.9q.05-.3.5-.4 1.1-.3 1.8-1.15.65-.85 1.75-.85l2.25-.1q1-.1 1.05.4l.25.25.7.3 1.15.15q.9.05 1.25.45l.15.35q.35 1.05 1.45 1.5.95.45 1.3 1.55l.55.7q.25 1.3.95 1.95l.3.4q.6 1.05.2 2-.2.5.3.8.15.95 1 1.85l.15.6-.15.3q-.3.6-.3 1.2l-.15 2.3-.2.7-.1-2.4q-.1-1.15-.55-1.7l.1-1.25q.05-1.2-.6-2.1l-.05-.05-.15-1.8q-.2-.85-.9-1.4l-.65-.15.1 2.45.3 2.95-.4.7q-.6 1.25-.95 2.55-.45 1.5-.35 3.1.25-1.45 1.1-2.75l.9-1.35.05.7-.35 1.25q-.65 1-.5 2.2V30l-1.1.65-1.55.15q.55.75 1.55.75l1.25.4-.15 1M22 13.05l.35-.2q.8-.5-.35-.45l-1.7.2-5.05 1.2q-.95.2-1.2.9l1.2-.2 1.6-.6 1.65-.4 2.25-.2 1.25-.25m-1.1 25.9l-.3-.3.3.3m3.4-.8l-.35-.35.35.35"/><path fill="url(#d)" d="M21.85 14.35l-.2.1-1.45.5-2.5.6h-.1l-1.5.25-1.05.05q-.75 0-1.1.35l-.2.55-.05.15q-.35-.85.1-1.25.3-.3 1.05-.3l3.2-.2 1.9-.55q1.2-.45 2.2-1.1 1.4-.95 1.9.35l.9 2.5q-1.05-1.4-1.7-2.95l-.85.65-.55.3"/><path fill="url(#e)" d="M21.85 14.35l.55-.3.85-.65q.65 1.55 1.7 2.95l.4.5q1.25 1.55 1.1 3.45l-.4 4.4q-.15 1.15-.85 2.15l-1.45 2.05q-.4.5-1.3.35l-1.05-.15-1.45-.25h-.05l-.35-.25.55-.55 1.3.3q.95.25 1.35-.2l1.3-1.5q.55-.75.6-1.55v-.3l.15.2-.1-.85v-3.6l-.2-1.05.05-.3-.15-1.35-.7-2.1-.75-1.2q-.2-.3-.6-.3l-.5.1"/><path fill="url(#f)" d="M21.85 14.35l.5-.1q.4 0 .6.3l.75 1.2.7 2.1.15 1.35-.05.3.05 3.05.15 1.6-.05.65-.6-.8-1.55-2.6-.75-1.8-.4-1.7-.05-.6-.15-2.35.5-.5.2-.1"/><path fill="url(#g)" d="M21.65 14.45l-.5.5.15 2.35.05.6-1.8.15q-1.2.35-1.7 1.4-.55 1.1.6 1.35 1.3.25 1.6 1.1l-.55.5-.05.1-.1.15q-.8.9-1.05 2l-.05.45-3.1-6.2v-.15q.1-.55.35-1.05.2-.45.55-.8.45-.35.05-1.1l1.5-.25h.1l2.5-.6 1.45-.5"/><path fill="url(#h)" d="M21.35 17.9l.4 1.7.75 1.8-1.25.05q-.7.15-1.2.45-.3-.85-1.6-1.1-1.15-.25-.6-1.35.5-1.05 1.7-1.4l1.8-.15"/><path fill="url(#i)" d="M24.7 24.15l-.15-1.6-.05-3.05.2 1.05v3.6"/><path fill="url(#j)" d="M27.6 14.75l1.25.15 1.65.35 1.9.65 2 .8 1.8.95 1.8 1.1 1.85 1.55-1.35 1.1-.4-.2-1.35-.55-3.95-1.45-1.9-.85h-.05L28.9 17.1l-.05-.4q-1-.4-.4-1.35-1.25.05-.85-.6"/><path fill="url(#k)" d="M27.95 25.8l-.9 1.35q-.85 1.3-1.1 2.75-.1-1.6.35-3.1.35-1.3.95-2.55l.4-.7-.3-2.95-.1-2.45.65.15q.7.55.9 1.4l.15 1.8v.1l.1 1.55.05.55-.3 1-.85 1.1"/><path fill="url(#l)" d="M27.95 25.8l.85-1.1.3-1-.05-.55-.1-1.55.05-.05q.65.9.6 2.1l-.1 1.25-.05 1.2-.3 1.65-.25.6-.5 1.2-.6 2.4-.05.6q-.1.35-.05.8l-.15-.7-.4-2.65v-.05q-.15-1.2.5-2.2L28 26.5l-.05-.7"/><path fill="url(#m)" d="M30.15 30.2l.1 1.35q.15 1.35-1.2 1.8.45-.95.4-2.05l-.05-.25-.1-.85-.1-.95-.05-1.5.3-1.65.05-1.2q.45.55.55 1.7l.1 2.4v1.2"/><path fill="url(#n)" d="M18.85 29.65l-.3.65q-.3 1.05-1 1.8l-2.25 1.6-1.3.45-2.2.05-2.55-.7-2.3-.1q-1.3.45-1.85 1.15l.6-.85q.6-.85 2-1.25l-.4-.2-.65-.5q-.45-.4-1.15-.4l-2.55.1 1.5-.55 2.6.1 2.35 1.1 2.3.85q1.35.3 2.7 0 1.3-.35 2-1.45l1.05-2.25.4-1.75.2-1.15.2-1.25.05-.45q.25-1.1 1.05-2l.1-.15.05-.1.55-.5q.5-.3 1.2-.45l1.25-.05 1.55 2.6-.8 1.25-3.15 2.8-.55.55-.7 1.05"/><path fill="url(#o)" d="M24.05 24l.6.8v.3q-.05.8-.6 1.55l-1.3 1.5q-.4.45-1.35.2l-1.3-.3 3.15-2.8.8-1.25"/><path fill="url(#p)" d="M20 32.05V32l-.5-.65-.65-1.7.7-1.05.35.25h.05v.4l.15.8.9 2.8-1-.8"/><path fill="url(#q)" d="M4.9 7.95l2.1.9 1.65.95 1.55 1 1.75 1.05 1.7.95-.1.35-3.05-.45-.95-.35-2.15-1-2.1-1.3-1-.7h-.05l.15-.45.5-.95"/><path fill="url(#r)" d="M1.2 21.6l.6-.7 1.5-1.55q.75-.6 1.65-1.05l5.9-2.45 1.5-.35h.05v.05l.1.25-.85.05.55.65-.05.05-.35.3-.3.25-.15.3-.8 1.15-.6.45-1 .6-1.35.7-5.65 2.5v-.05L1.4 22l-.15-.25-.05-.15"/><path fill="url(#s)" d="M13.7 16.9l.05-.15.2-.55q.35-.35 1.1-.35l1.05-.05q.4.75-.05 1.1-.35.35-.55.8-.25.5-.35 1.05v.15l-.1 1.35v1.8l.25 3-1.55-3.1-.35-1.25-.1-.8-.05-.45.1-1.05.1-.7.25-.8"/><path fill="url(#t)" d="M5.95 25.95l.8-1.5.1-.25q.7-.95 1.55-1.65l1.55-1.05 1.9-1.25 1.4-.8.05.45-.35.9-.95 1.65-4.7 4.15-1.3-.65h-.05"/><path fill="url(#u)" d="M18.25 25.1l-.2 1.25-.6-1.2-.55-1.2-.85-1.75-1-1.95.1-1.35 3.1 6.2"/><path fill="url(#v)" d="M16.05 22.2l.85 1.75-.2 1q-.2.75.2 1.4-.95-.65-1.05-1.8-.2-1.3.2-2.35"/><path fill="url(#w)" d="M18.05 26.35l-.2 1.15-.5.65q-.35.5-.45.95l.2-1.7q.1-1.15.35-2.25l.6 1.2"/><path fill="none" stroke="#000" stroke-width=".05" stroke-linecap="round" stroke-linejoin="round" d="M22 13.05l-1.25.25-2.25.2-1.65.4-1.6.6-1.2.2q.25-.7 1.2-.9l5.05-1.2 1.7-.2q1.15-.05.35.45l-.35.2"/><path fill="none" stroke="#333" stroke-width=".05" stroke-linecap="round" stroke-linejoin="round" d="M25.8 12.6l-.3.2m3.9 18.25l-1.65 1.5m-.2.1l-.4.3-.75.55-1.55 1.2-.05.05-.65.8-.25.4-.05.2q-.45.95.1 1.65l.55.1 1.6 1.15q.9.9.55 2.15l-.35.2-1.9.45-2.75.45-1.05-1.75q-.7-.85-.3-1.8l.2-.3-.2-.35q-.4-1-.2-2.1l.05-.2q.2-.7 0-1.55-.3-1.1-.15-2.2m-14.9 2.5v.05h-.05l-.1.25M25.5 12.5l.3.1m3.15 8.9l.05.05m-4.3 2.6l.1.85-.15-.2m-4.7 4.05l1.45.25 1.05.15q.9.15 1.3-.35l1.45-2.05q.7-1 .85-2.15l.4-4.4q.15-1.9-1.1-3.45l-.4-.5m-23.1 6.5l.1-.05m4 3.25v-.1m14.1-4.05q-.3-.85-1.6-1.1-1.15-.25-.6-1.35.5-1.05 1.7-1.4l1.8-.15m-.75 20.75l.3.3m3.05-1.15l.35.35m-3.7.5l-.1-.2"/><path fill="none" stroke="#009F8B" stroke-width=".05" stroke-linecap="round" stroke-linejoin="round" d="M38.75 11.15l-.25.1-1.2.4-.45.1-1.05.35-1.45.5-3.9.5-4.65-.5q.7-.5 1.6-.75l1.65-.6 3.75-1.2 2.05-.3h3.7m-10.95 5l1.25.15 1.65.35 1.9.65 2 .8 1.8.95 1.8 1.1 1.85 1.55m-1.35 1.1l-.4-.2-1.35-.55-3.95-1.45-1.9-.85m6.35-14.8l-.5.1-2.05.4-.15.05-1.85.7-2 .95q-.9.45-1.75 1l-.1.1-1.45 1.1-1.5 1.5-1.25 1.6m.05 0l.9-.55.6-.25.75-.25 3.75-1.7 6.95-3.5M28.9 17.1l1.95 1.25m-17.2-5.55l-1.7-.95-1.75-1.05-1.55-1L7 8.85l-2.1-.9m-.65 1.4h.05l1 .7 2.1 1.3 2.15 1 .95.35 3.05.45M12.4 15.5h-.05l-1.5.35-5.9 2.45q-.9.45-1.65 1.05L1.8 20.9l-.6.7m.75 1.2l5.65-2.5 1.35-.7 1-.6.6-.45.8-1.15.15-.3.3-.25.35-.3.05-.05m-6.25 9.45l.8-1.5.1-.25q.7-.95 1.55-1.65l1.55-1.05 1.9-1.25 1.4-.8m.05.45l-.35.9-.95 1.65-4.7 4.15"/><path fill="none" stroke="#4F2700" stroke-width=".05" stroke-linecap="round" stroke-linejoin="round" d="M7.3 26.6l-.95.85q-1 .9-1.25 1.7L5.35 28l.6-1.95m32.6-16.3l2.95.1-.8.3-.4.2-.65.35-.9.45m1.1 9.15l1.1 1.55.45.95-.9-.5-1.25-.6-.75-.3M37.25 3.55l2.85-.25-.45.2-2 1.3M4.9 7.95L3 7.65l-1.05.1 1.05.8 1.25.8M1.2 21.6l-.65.85-.55 1.2 1.85-.8"/><path fill="none" stroke="#587216" stroke-width=".05" stroke-linecap="round" stroke-linejoin="round" d="M21.65 14.45l-.5.5.15 2.35.05.6.4 1.7.75 1.8m2.2 2.75l-.15-1.6-.05-3.05.05-.3-.15-1.35-.7-2.1-.75-1.2q-.2-.3-.6-.3l-.5.1m-8.6 5.1l.1-1.05.1-.7m2.65-1.9q.4.75-.05 1.1-.35.35-.55.8-.25.5-.35 1.05v.15m-.1 1.35l.1-1.35m-1.85 1l.1.8.35 1.25 1.55 3.1-.25-3v-1.8m-1.8-.8l.05.45"/><path fill="none" stroke="#AE1100" stroke-width=".05" stroke-linecap="round" stroke-linejoin="round" d="M18.85 29.65l-.3.65q-.3 1.05-1 1.8l-2.25 1.6-1.3.45-2.2.05-2.55-.7-2.3-.1q-1.3.45-1.85 1.15M22.5 21.4l1.55 2.6.6.8m-2.15-3.4l-1.25.05q-.7.15-1.2.45l-.55.5-.05.1-.1.15q-.8.9-1.05 2l-.05.45-.2 1.25-.2 1.15-.4 1.75-1.05 2.25q-.7 1.1-2 1.45-1.35.3-2.7 0l-2.3-.85L7.05 31l-2.6-.1-1.5.55 2.55-.1q.7 0 1.15.4l.65.5.4.2q-1.4.4-2 1.25l-.6.85m15-6.5l-.55.55m.55-.55l3.15-2.8.8-1.25"/><path fill="none" stroke="#E85C00" stroke-width=".05" stroke-linecap="round" stroke-linejoin="round" d="M30.15 30.2l.1 1.35q.15 1.35-1.2 1.8.45-.95.4-2.05l-.05-.25m-1.65 1.5q-.1.35-.05.8l-.15-.7m-7.55-.6V32l-.5-.65-.65-1.7.7-1.05.35.25h.05v.4l.15.8.9 2.8-1-.8m8.95-10.55l-.15-1.8q-.2-.85-.9-1.4l-.65-.15.1 2.45.3 2.95-.4.7q-.6 1.25-.95 2.55-.45 1.5-.35 3.1.25-1.45 1.1-2.75l.9-1.35.85-1.1.3-1-.05-.55-.1-1.55v-.1m.05.05q.65.9.6 2.1l-.1 1.25q.45.55.55 1.7l.1 2.4m-15.1-8.75l1 1.95.85 1.75.55 1.2.6 1.2m-2-4.15q-.4 1.05-.2 2.35.1 1.15 1.05 1.8-.4-.65-.2-1.4l.2-1m.55 1.2q-.25 1.1-.35 2.25l-.2 1.7q.1-.45.45-.95l.5-.65m11.65-2.6l-.05 1.2-.3 1.65.05 1.5.1.95.1.85m-1.45-5.25l.05.7-.35 1.25q-.65 1-.5 2.2V30l.4 2.65m1.6-4.9l-.25.6-.5 1.2-.6 2.4-.05.6"/><path fill="none" stroke="#3C1E00" stroke-width=".05" stroke-linecap="round" stroke-linejoin="round" d="M25.5 12.8q.15.4 1.2.55l.45.05q-.7.85.75 1.05l-.3.3q-.4.65.85.6-.6.95.4 1.35l.05.4q.2 1.25 1.95 1.25h.05q-1.35.95-.25 2.2l.4.15q-.6 1.25.95 1.95-.85.9-.3 1.85l-.35.2q-.5.35-.05 1.05-.95.85.1 1.8-1.05.7-.95 2.45v.35l-.3-.15m-5.5-19.15h.05l.85.05-.75.5 1.15.35-.45.55M30.15 29v1.2m-16.5-17.4q.85-.25.8-1.35.55.7 1.35-.3l.9-.45.75-.45.25-.15v.45l1.95-.6h.5l1.65-.2-.15.5 1.9-.1-.8.8 1.9.1m.85 1.75v-.3m-11.95.65l.1-.35m-1.45 3.7l-.55-.65.85-.05-.1-.25v-.2q.3-.2.2-.6h.05q.35-.3.35-.8v.25l.55-1.05m-.1 4.55l-1.05-.65.4-.35-.5-.1-.1-.1m1.5.4l-.25.8"/><path fill="none" stroke="#600000" stroke-width=".05" stroke-linecap="round" stroke-linejoin="round" d="M21.85 14.35l-.2.1m.2-.1l.55-.3.85-.65q.65 1.55 1.7 2.95l-.9-2.5q-.5-1.3-1.9-.35-1 .65-2.2 1.1l-1.9.55-3.2.2q-.75 0-1.05.3-.45.4-.1 1.25l.05-.15.2-.55q.35-.35 1.1-.35l1.05-.05 1.5-.25h.1l2.5-.6 1.45-.5"/></svg>