<svg xmlns="http://www.w3.org/2000/svg" viewBox="0 0 19.6 26.5" width="19.6" height="26.5"><defs><radialGradient gradientUnits="userSpaceOnUse" r="819.2" cx="0" cy="0" spreadMethod="pad" gradientTransform="matrix(.006 0 0 .006 9.85 4.65)" id="a"><stop offset="0" stop-color="#f60"/><stop offset="1"/></radialGradient><radialGradient gradientUnits="userSpaceOnUse" r="819.2" cx="0" cy="0" fx="87942.4" fy="0" spreadMethod="repeat" gradientTransform="matrix(.011 0 0 .011 10.6 8.65)" id="b"><stop offset="0" stop-color="#f60"/><stop offset="1"/></radialGradient><radialGradient gradientUnits="userSpaceOnUse" r="819.2" cx="0" cy="0" spreadMethod="pad" gradientTransform="matrix(.002 0 0 .002 12 3.85)" id="c"><stop offset="0" stop-color="#f60"/><stop offset="1"/></radialGradient><radialGradient gradientUnits="userSpaceOnUse" r="819.2" cx="0" cy="0" spreadMethod="pad" gradientTransform="matrix(.007 0 0 .007 17.45 7.65)" id="d"><stop offset="0" stop-color="#f60"/><stop offset="1"/></radialGradient><radialGradient gradientUnits="userSpaceOnUse" r="819.2" cx="0" cy="0" spreadMethod="pad" gradientTransform="matrix(.004 0 0 .004 16.55 6.25)" id="e"><stop offset="0" stop-color="#f60"/><stop offset="1"/></radialGradient><radialGradient gradientUnits="userSpaceOnUse" r="819.2" cx="0" cy="0" spreadMethod="pad" gradientTransform="matrix(.001 0 0 .001 13.7 5)" id="f"><stop offset="0" stop-color="#f60"/><stop offset="1"/></radialGradient><radialGradient gradientUnits="userSpaceOnUse" r="819.2" cx="0" cy="0" spreadMethod="pad" gradientTransform="matrix(.001 0 0 .001 13.05 6.15)" id="g"><stop offset="0" stop-color="#f60"/><stop offset="1"/></radialGradient><radialGradient gradientUnits="userSpaceOnUse" r="819.2" cx="0" cy="0" spreadMethod="pad" gradientTransform="matrix(.003 0 0 .003 12.95 10.7)" id="h"><stop offset="0" stop-color="#f60"/><stop offset="1"/></radialGradient><radialGradient gradientUnits="userSpaceOnUse" r="819.2" cx="0" cy="0" spreadMethod="pad" gradientTransform="matrix(.003 0 0 .003 11.95 10.7)" id="i"><stop offset="0" stop-color="#f60"/><stop offset="1"/></radialGradient><radialGradient gradientUnits="userSpaceOnUse" r="819.2" cx="0" cy="0" spreadMethod="pad" gradientTransform="matrix(.001 0 0 .001 9.8 12.05)" id="j"><stop offset="0" stop-color="#f60"/><stop offset="1"/></radialGradient><radialGradient gradientUnits="userSpaceOnUse" r="819.2" cx="0" cy="0" spreadMethod="pad" gradientTransform="matrix(.005 0 0 .005 10.35 12.55)" id="k"><stop offset="0" stop-color="#f60"/><stop offset="1"/></radialGradient><radialGradient gradientUnits="userSpaceOnUse" r="819.2" cx="0" cy="0" spreadMethod="pad" gradientTransform="matrix(.008 0 0 .008 16.6 17.55)" id="l"><stop offset="0" stop-color="#f60"/><stop offset="1"/></radialGradient><radialGradient gradientUnits="userSpaceOnUse" r="819.2" cx="0" cy="0" spreadMethod="pad" gradientTransform="matrix(.001 0 0 .001 14.8 16.85)" id="m"><stop offset="0" stop-color="#f60"/><stop offset="1"/></radialGradient><radialGradient gradientUnits="userSpaceOnUse" r="819.2" cx="0" cy="0" spreadMethod="pad" gradientTransform="matrix(.001 0 0 .001 13.6 14.25)" id="n"><stop offset="0" stop-color="#f60"/><stop offset="1"/></radialGradient><radialGradient gradientUnits="userSpaceOnUse" r="819.2" cx="0" cy="0" spreadMethod="pad" gradientTransform="matrix(.012 0 0 .012 10.9 20.5)" id="o"><stop offset="0" stop-color="#f60"/><stop offset="1"/></radialGradient><radialGradient gradientUnits="userSpaceOnUse" r="819.2" cx="0" cy="0" spreadMethod="pad" gradientTransform="matrix(.001 0 0 .001 10.5 17.8)" id="p"><stop offset="0" stop-color="#f60"/><stop offset="1"/></radialGradient><radialGradient gradientUnits="userSpaceOnUse" r="819.2" cx="0" cy="0" spreadMethod="pad" gradientTransform="matrix(.002 0 0 .002 12.55 17.65)" id="q"><stop offset="0" stop-color="#f60"/><stop offset="1"/></radialGradient><radialGradient gradientUnits="userSpaceOnUse" r="819.2" cx="0" cy="0" spreadMethod="pad" gradientTransform="matrix(.007 0 0 .007 3.65 8.75)" id="r"><stop offset="0" stop-color="#f60"/><stop offset="1"/></radialGradient><radialGradient gradientUnits="userSpaceOnUse" r="819.2" cx="0" cy="0" spreadMethod="pad" gradientTransform="matrix(.001 0 0 .001 7.85 4.7)" id="s"><stop offset="0" stop-color="#f60"/><stop offset="1"/></radialGradient><radialGradient gradientUnits="userSpaceOnUse" r="819.2" cx="0" cy="0" spreadMethod="pad" gradientTransform="matrix(.001 0 0 .001 7.85 5.95)" id="t"><stop offset="0" stop-color="#f60"/><stop offset="1"/></radialGradient><radialGradient gradientUnits="userSpaceOnUse" r="819.2" cx="0" cy="0" spreadMethod="pad" gradientTransform="matrix(0 0 0 0 8.6 6.95)" id="u"><stop offset="0" stop-color="#f60"/><stop offset="1"/></radialGradient><radialGradient gradientUnits="userSpaceOnUse" r="819.2" cx="0" cy="0" spreadMethod="pad" gradientTransform="matrix(.003 0 0 .003 4.35 7.55)" id="v"><stop offset="0" stop-color="#f60"/><stop offset="1"/></radialGradient><radialGradient gradientUnits="userSpaceOnUse" r="819.2" cx="0" cy="0" spreadMethod="pad" gradientTransform="matrix(.002 0 0 .002 7.9 11.1)" id="w"><stop offset="0" stop-color="#f60"/><stop offset="1"/></radialGradient><radialGradient gradientUnits="userSpaceOnUse" r="819.2" cx="0" cy="0" spreadMethod="pad" gradientTransform="matrix(.001 0 0 .001 8.3 10.5)" id="x"><stop offset="0" stop-color="#f60"/><stop offset="1"/></radialGradient><radialGradient gradientUnits="userSpaceOnUse" r="819.2" cx="0" cy="0" spreadMethod="pad" gradientTransform="matrix(.008 0 0 .008 3.6 18.5)" id="y"><stop offset="0" stop-color="#f60"/><stop offset="1"/></radialGradient><radialGradient gradientUnits="userSpaceOnUse" r="819.2" cx="0" cy="0" spreadMethod="pad" gradientTransform="matrix(.001 0 0 .001 7.3 14.35)" id="z"><stop offset="0" stop-color="#f60"/><stop offset="1"/></radialGradient><radialGradient gradientUnits="userSpaceOnUse" r="819.2" cx="0" cy="0" spreadMethod="pad" gradientTransform="matrix(.001 0 0 .001 7.05 16.3)" id="A"><stop offset="0" stop-color="#f60"/><stop offset="1"/></radialGradient><radialGradient gradientUnits="userSpaceOnUse" r="819.2" cx="0" cy="0" spreadMethod="pad" gradientTransform="matrix(.001 0 0 .001 8.35 17.65)" id="B"><stop offset="0" stop-color="#f60"/><stop offset="1"/></radialGradient></defs><path fill="url(#a)" d="M10.55.1l-.35.9-.2.9.05 7.4-.35-.45-.2-.35-.05-1.35.25-2.75.1-1.6-.05-1.35-.5-1.3-.1-.1.8-.05.6.1"/><path fill="url(#b)" d="M10.55.1l.85.25 1.2.5.2.1 1.1.7.05.05.8.8.2.3.4.9v.15l.15.95v.25l.15.55v3.5l-.15.85-.25.4-.45.65-.5.65v1.1l-.15.4-.4.45-.05.1-.3.5.05.2.2.3.1.1.95.95.1.15h.05l-.75.75-.1-.5-.2-.55-.05-.15-.25-.4-.25-.25-.8-.05.05.65.05.05.45.95.05.1-.1.25q-.4.5-1.2.35l.05-1.2-.1-.5q-.2-.45-.85-.7l-.15.65.25 1.45-.95.45.05-.95-.2-.95-.3-.55-.25.05v.5l-.1 1.05-.3.65-.3-.15-.3-.25.25-.45.1-.9-.2-.4-.15-.2-.25.1-.3.3-.15.2-.1.3-.05.05-.55-.1.3-.35.75-.95-.8-.7-.05-.05-.45-.35-.05-.6v-.1l.2.1.35.15.55.15 1.5.15.55.4q.1.3.3.1l.55-.35q.45-.15.65.15.2-.15.65-.25l.35-.3.45.15q.05-.6.65-.55l.7-.15-.05-.4-.15-.25.1-.15.15-.8-.05-.4-.1-1.3h-.05l-.45.2v-.15q-.15-.5-.9-.2-.5.2-.6.75l-.1.25v.05l-.35.8-.1.25-.3.15-.6-.1.1.8v.15l-.45.1-.55-.1-.15-.1-.4-.4-.1-.15-.65-1.35-.05-.05-.1-.1-.55.15-.15-.05q-.6-.35-1 0l-.1.25-.05.25q0 .6.35 1.15l.05.1.1.1-.1.35-.7-1.2-.05-.2-.05-.15-.05-.75-.2-1.05-.1-.75v-.55l.15-.75v-.8l.15-.95.45-1.4.2-.45.9-1.3.3-.35L8.8.3l.35-.25.1.1.5 1.3.05 1.35-.1 1.6-.25 2.75.05 1.35.2.35.35.45L10 1.9l.2-.9.35-.9m4.95 4.95l-.05-.15.05-.1-.05.1.05.15m-3.35-2.3q-.35.2-.6.55l-.6 1.15v.15l.05.15.05.05 1.05.2q.75 0 .95-.7l.05-.1-.05-.85-.5-.5-.4-.1m-1.6 6.5l-.05 1.65.05-1.65M13 5.85l-.05-.15q-.45.1-.45.4l.1.3.05.1.4.1q.75-.15.45-.45L13.35 6 13 5.85m.3-.85l.05.05h.3q0 .5.45 0l-.3-.35-.35.05-.15.25m-6.2-.9v.35l.2.3.05.05v.05l.45.45.15.05.65-.1.05-.45q-.05-.6-.6-.8l-.3-.05H7.4l-.3.15m.55 2.05l.35.2.3-.05-.1-.35q-.3-.6-.85-.4l.3.5v.1m1.05.6l-.3.15-.1.25q.8.05.4-.4"/><path fill="url(#c)" d="M12.15 2.75l.4.1.5.5.05.85-.05.1q-.2.7-.95.7l-1.05-.2-.05-.05-.05-.15v-.15l.6-1.15q.25-.35.6-.55"/><path fill="url(#d)" d="M15.65 9.1l1-.6q.65-.4.75-1l.05-.1v-.2l-.15-1.05-.4-1.2-.2-1.15v-.45l-.15.2q-.2.35-.25.8-.05.6-.45 1l-.2.25-.15-.55V4.8l.7-1.15.2-.55V2.05l1.25 1.25.75 1.05.55 1.1.55 1.5.05.4.05.75-.2 1.55-.05.1-.3.75-.75.85-1.65 1.9-.1-.95q-.15-.65-.5-1.15l-.5-.6-.2-.15-.1-.05.25-.4.15-.85"/><path fill="url(#e)" d="M15.65 9.1V5.6l.2-.25q.4-.4.45-1 .05-.45.25-.8l.15-.2v.45l.2 1.15.4 1.2.15 1.05v.2l-.05.1q-.1.6-.75 1l-1 .6"/><path fill="url(#f)" d="M13.3 5l.15-.25.35-.05.3.35q-.45.5-.45 0h-.3L13.3 5"/><path fill="url(#g)" d="M13 5.85l.35.15.15.15q.3.3-.45.45l-.4-.1-.05-.1-.1-.3q0-.3.45-.4l.05.15"/><path fill="url(#h)" d="M11.75 12.4l.1-1.15.25-.7.55-.85.65-.55.15-.05.45-.2h.05l.1 1.3.05.4-.15.8-.1.15-.4.4-.5.3-1.15.25-.05-.1"/><path fill="url(#i)" d="M11.75 12.4h-.05q-.65.5-1.1.25l-.1-.05.05-.05.05-.7v-.15l-.1-.8.6.1.3-.15.1-.25.35-.8v-.05l.1-.25q.1-.55.6-.75.75-.3.9.2v.15l-.15.05-.65.55-.55.85-.25.7-.1 1.15"/><path fill="url(#j)" d="M9.05 11.35l.4.4.15.1.55.1.45-.1-.05.7-.05.05v.1l-.45.1q-.35-.05-.65-.4l.05-.05-.15-.4-.3-.6h.05"/><path fill="url(#k)" d="M6.7 12l.1-.35.4.4.65.35q.75.3 1.55 0 .3.35.65.4l.45-.1v-.1l.1.05q.45.25 1.1-.25h.05l.05.1 1.15-.25.5-.3.4-.4.15.25.05.4-.7.15q-.6-.05-.65.55l-.45-.15-.35.3q-.45.1-.65.25-.2-.3-.65-.15l-.55.35q-.2.2-.3-.1L9.2 13l-1.5-.15-.55-.15-.35-.15-.2-.1.1-.45"/><path fill="url(#l)" d="M14.15 13.15l.15-.4v-1.1l.5-.65q.3.15.45.4l.15.85.1.6.7 1.05.1.1.9 1.1.55.75q.7.15.65 1l.1.8.25.5.1.1-.05 1.05-.35 1.15v.35l.3.65.25 1.25-.05.6-.25-1-.65-.9.05.7-.05 1.45-.35.55q.35-.65.25-1.4l-.35-1.45q.05.65-.25 1.3L16.3 23.6l.45-.45q.8-1 .25-2.05l-.15.25-.5.9q-.45.55-1.25.8l.8-.65q.65-.5.75-1.3l-.2-.45-1.3-.1q0-.8 1-.85l.25-.05h.05l.5-.35.15-.3.05-.15.05-1.4-.3-1.5-.4-.15-.35-.3-.35-.45-.75-1.2q-.3-.5-.9-.7"/><path fill="url(#m)" d="M14.1 16.65l.75-.75.2.3.4.85q.3 1.05-.7.5-.5-.35-.65-.9"/><path fill="url(#n)" d="M13.75 14.8l-.1-.1-.2-.3-.05-.2.3-.5.05 1.1"/><path fill="url(#o)" d="M7.45 15.65l.05-.05.1-.3.15-.2.3-.3.25-.1.15.2.2.4-.1.9-.25.45-.15.25q-.5.65-.35 1.5.15.55.5-.15l.6-1.2.3-.65.1-1.05v-.5l.25-.05.3.55.2.95-.05.95v.05l.05.85q.05.85.5.45.55-.5.45-1.3l-.05-.5-.25-1.45.15-.65q.65.25.85.7l.1.5-.05 1.2v.25q-.1.75.5 1.2.75.65 1.05-.35.2-.65-.1-1.35l-.15-.35-.05-.1-.45-.95-.05-.05-.05-.65.8.05.25.25.25.4.05.15.05 2-.15 1.45-.1.45v.3l.25 1.15.5 1 .7 1.15.4.45.6.55.7.1 1.05.15 1.05.4-.7.25.35.35-1.45.2.95.3-1.05.05.25.5-.95-.45-1.3-.65q-.65-.2-1.1-.6-.25-.15-.1-.4l.35-.6.2-.7-.4-1.15-.7-1.3q-.45-.6-1.2-.6h-.15l-1.5-.15-.7-.15-.9-.05-1.25.1h-.1q-.3.1-.45.3l-.3.5q-.15.45 0 1L7 23l.15.6q0 .55.45.55.3-.05.45.3l-1.2.2q-.2.05-.25.25-.1.35-.05.9l-.3-.05q-.8-.25-.75.4l-.15.35q-.55-.25-.7-.8l-.15.3q-.4.55-.85.35L4 26.1l.25-.35-.45.15-.9-.05q.55-.45 1.3-.65l1.15-.85q.5-.6.6-1.35v-1.6l.1-.85.25-.65.75-1.2.25-.75.05-1.4v-.15l.05-.45.05-.3M17.65 25h.5-.5"/><path fill="url(#p)" d="M10 17.25l.95-.45.05.5q.1.8-.45 1.3-.45.4-.5-.45L10 17.3v-.05"/><path fill="url(#q)" d="M11.75 17.1q.8.15 1.2-.35l.1-.25.15.35q.3.7.1 1.35-.3 1-1.05.35-.6-.45-.5-1.2v-.25"/><path fill="url(#r)" d="M5.7 6.3v.3l-.15.75-.85-.3-.55-.3-.35-.45-.05-.3-.2-.6-.35.5-.2.5q-.2.7-.05 1.2v.1l.2.35.15.2.25.25h.05l1.4.9.2.1.65.2.05.75.05.15-.6.55q-.65.15-.95.65l-.2.4-.1.3-.2.65v.5l.2 1.1q-1.1-.2-1.75-.95l-.05-.05-.5-.75-.2-.65v-.05L1.4 11q-.1-1.35.05-2.7l.1-.65V7.6l.25-1.2q.15-.65.45-1.2.65-1.5 2.1-2.5L4.2 3.9l.05.55.35.8.55.65.5.4h.05"/><path fill="url(#s)" d="M7.1 4.1l.3-.15h.35l.3.05q.55.2.6.8l-.05.45-.65.1-.15-.05-.45-.45V4.8l-.05-.05-.2-.3V4.1"/><path fill="url(#t)" d="M7.65 6.15v-.1l-.3-.5q.55-.2.85.4l.1.35-.3.05-.35-.2"/><path fill="url(#u)" d="M8.7 6.75q.4.45-.4.4l.1-.25.3-.15"/><path fill="url(#v)" d="M5.55 7.35v.55l.1.75.2 1.05-.65-.2-.2-.1-1.4-.9h-.05l-.25-.25-.15-.2-.2-.35v-.1Q2.8 7.1 3 6.4l.2-.5.35-.5.2.6.05.3.35.45.55.3.85.3"/><path fill="url(#w)" d="M6.8 11.65l-.1-.1-.05-.1q-.35-.55-.35-1.15l.05-.25.1-.25q.4-.35 1 0l.15.05.15.15 1 .9.25.45.3.6.15.4-.05.05q-.8.3-1.55 0l-.65-.35-.4-.4"/><path fill="url(#x)" d="M7.6 9.85l.55-.15.1.1.05.05.65 1.35.1.15H9l-.25-.45-1-.9-.15-.15"/><path fill="url(#y)" d="M6.6 12.55l.05.6.45.35.05.05-.45.7-.8 1-.65.45-.65.5-.65.3-.75.45q-.2.25-.25.65-.1.8-.05 1.6l.05.55.2.9.55.1q.45.15.75.4L5 22.2l-.85-.7-.4-.1q-.65.15-.05.85l1.25 1.4-1.55-.75-.7-.85q-.35 1.15.1 2.4-.35-.1-.35-.3-.05-.85-.5-1.55l-.05-.3q-.6.9-.5 2.15-.45-.95 0-1.9l.15-.75-.65.6-.6.75q-.35.25-.3-.25l.3-.7.75-1.15.1-.2.45-1.1.15-.55.05-2.1q.05-.7.6-.9l1.5-.6.65-.35.5-.4.75-1.25.05-.15q.15-.5.6-.8l.15-.1"/><path fill="url(#z)" d="M7.15 13.55l.8.7-.75.95-.1-.3-.4-.65.45-.7"/><path fill="url(#A)" d="M6.9 15.55l.55.1-.05.3-.05.45-.05.15-.35.55-.3-.45v-.4q0-.4.25-.7"/><path fill="url(#B)" d="M8.3 16.65l.3.25.3.15-.6 1.2q-.35.7-.5.15-.15-.85.35-1.5l.15-.25"/><path fill="none" stroke="#662800" stroke-width=".05" stroke-linecap="round" stroke-miterlimit="3" d="M15.25 10.35l.1.05.2.15.5.6q.35.5.5 1.15l.1.95 1.65-1.9.75-.85.3-.75.05-.1.2-1.55-.05-.75-.05-.4-.55-1.5-.55-1.1-.75-1.05-1.25-1.25V3.1l-.2.55-.7 1.15v.25m-3.75 7.35l.1-1.15.25-.7.55-.85.65-.55.15-.05m.4 2.45l-.4.4-.5.3-1.15.25-.05-.1h-.05q-.65.5-1.1.25l-.1-.05v.1m-.45.1q-.35-.05-.65-.4-.8.3-1.55 0l-.65-.35-.4-.4m8-.65q.3.15.45.4l.15.85.1.6.7 1.05.1.1.9 1.1.55.75q.7.15.65 1l.1.8.25.5.1.1-.05 1.05-.35 1.15v.35l.3.65.25 1.25-.05.6-.25-1-.65-.9.05.7-.05 1.45-.35.55q.35-.65.25-1.4l-.35-1.45q.05.65-.25 1.3L16.3 23.6l.45-.45q.8-1 .25-2.05l-.15.25-.5.9q-.45.55-1.25.8l.8-.65q.65-.5.75-1.3l-.2-.45-1.3-.1q0-.8 1-.85l.25-.05h.05l.5-.35.15-.3.05-.15.05-1.4-.3-1.5-.4-.15-.35-.3-.35-.45-.75-1.2q-.3-.5-.9-.7m-5-13.1l.8-.05.6.1m-4.6 10.5l-.6.55q-.65.15-.95.65l-.2.4-.1.3-.2.65v.5l.2 1.1q-1.1-.2-1.75-.95l-.05-.05-.5-.75-.2-.65v-.05L1.4 11q-.1-1.35.05-2.7l.1-.65V7.6l.25-1.2q.15-.65.45-1.2.65-1.5 2.1-2.5L4.2 3.9l.05.55.35.8.55.65.5.4h.05m1.9 3.55l.15.15 1 .9.25.45m.4 1.05l.05-.05-.15-.4-.3-.6m-2.3 2.9l-.8 1-.65.45-.65.5-.65.3-.75.45q-.2.25-.25.65-.1.8-.05 1.6l.05.55.2.9.55.1q.45.15.75.4L5 22.2l-.85-.7-.4-.1q-.65.15-.05.85l1.25 1.4-1.55-.75-.7-.85q-.35 1.15.1 2.4-.35-.1-.35-.3-.05-.85-.5-1.55l-.05-.3q-.6.9-.5 2.15-.45-.95 0-1.9l.15-.75-.65.6-.6.75q-.35.25-.3-.25l.3-.7.75-1.15.1-.2.45-1.1.15-.55.05-2.1q.05-.7.6-.9l1.5-.6.65-.35.5-.4.75-1.25.05-.15q.15-.5.6-.8l.15-.1m.6 2.65l-.1-.3-.4-.65.45-.7m.3 2.1l-.05.3-.05.45v.15l-.05 1.4-.25.75-.75 1.2-.25.65-.1.85V23q-.1.75-.6 1.35l-1.15.85q-.75.2-1.3.65l.9.05.45-.15-.25.35-.35.25q.45.2.85-.35l.15-.3q.15.55.7.8l.15-.35q-.05-.65.75-.4l.3.05q-.05-.55.05-.9.05-.2.25-.25l1.2-.2q-.15-.35-.45-.3-.45 0-.45-.55L7 23l-.35-1.5q-.15-.55 0-1l.3-.5q.15-.2.45-.3h.1l1.25-.1.9.05.7.15 1.5.15H12q.75 0 1.2.6l.7 1.3.4 1.15-.2.7-.35.6q-.15.25.1.4.45.4 1.1.6l1.3.65.95.45-.25-.5 1.05-.05-.95-.3 1.45-.2-.35-.35h-.5m-10.3-8.6l-.05.15-.35.55-.3-.45v-.4q0-.4.25-.7m1.4 1.1l-.15.25q-.5.65-.35 1.5.15.55.5-.15l.6-1.2m1.1.2v.05l.05.85q.05.85.5.45.55-.5.45-1.3l-.05-.5m2.75-3.1l.05 1.1m-3.15-2.95l-.05.7-.05.05m1.25 4.5v.25q-.1.75.5 1.2.75.65 1.05-.35.2-.65-.1-1.35l-.15-.35m1.8-.6l.2.3.4.85q.3 1.05-.7.5-.5-.35-.65-.9m-.3-1.05l.05 2-.15 1.45-.1.45v.3l.25 1.15.5 1 .7 1.15.4.45.6.55.7.1 1.05.15 1.05.4-.7.25M6.6 12.45l.1-.45"/><path fill="none" stroke="#542100" stroke-width=".05" stroke-linecap="round" stroke-miterlimit="3" d="M6.7 12l.1-.35-.1-.1-.05-.1q-.35-.55-.35-1.15l.05-.25.1-.25q.4-.35 1 0l.15.05m8.05-4.25v3.5l-.15.85-.25.4m.25-5.3l.15.55M10.55.1l.85.25 1.2.5.2.1 1.1.7.05.05.8.8.2.3.4.9v.15l.15.95-.05.1.05.15m-6.35-5L8.8.3 7.7 1.35l-.3.35L6.5 3l-.2.45-.45 1.4-.15.95v.8l-.15.75v.55l.1.75.2 1.05.05.75.05.15.05.2.7 1.2m3.9-.3l-.1-.8.05-1.65m2.9-.15l.45-.2h.05l.1 1.3.05.4-.15.8-.1.15m-7.25.9v.1l.05.6.45.35.05.05.8.7-.75.95-.3.35m.55.1l.05-.05.1-.3.15-.2.3-.3.25-.1.15.2.2.4-.1.9-.25.45m.6.4l.3-.65.1-1.05v-.5l.25-.05.3.55.2.95-.05.95m.95-.45l-.25-1.45.15-.65q.65.25.85.7l.1.5-.05 1.2m1.25-.7l-.45-.95-.05-.05-.05-.65.8.05.25.25.25.4.05.15.2.55.1.5m.75-.75h-.05l-.1-.15-.95-.95-.1-.1-.2-.3-.05-.2.3-.5.05-.1.4-.45.15-.4v-1.1l.5-.65.45-.65"/></svg>