<svg xmlns="http://www.w3.org/2000/svg" viewBox="0 0 42.9 37.9" width="42.9" height="37.9"><defs><radialGradient gradientUnits="userSpaceOnUse" r="819.2" cx="0" cy="0" spreadMethod="pad" gradientTransform="matrix(.021 0 0 .021 33.6 18.6)" id="a"><stop offset="0"/><stop offset=".561" stop-color="#960"/><stop offset=".973" stop-color="#630"/></radialGradient><radialGradient gradientUnits="userSpaceOnUse" r="819.2" cx="0" cy="0" fx="87942.4" fy="0" spreadMethod="repeat" gradientTransform="matrix(.202 0 0 .202 13.35 9.25)" id="b"><stop offset="0"/><stop offset=".561" stop-color="#fc6"/><stop offset="1" stop-color="#fc0"/></radialGradient><radialGradient gradientUnits="userSpaceOnUse" r="819.2" cx="0" cy="0" spreadMethod="pad" gradientTransform="matrix(.002 0 0 .002 25.65 4.5)" id="c"><stop offset="0"/><stop offset=".561" stop-color="#fc6"/><stop offset="1" stop-color="#fc0"/></radialGradient><radialGradient gradientUnits="userSpaceOnUse" r="819.2" cx="0" cy="0" spreadMethod="pad" gradientTransform="matrix(.001 0 0 .001 21.5 3.75)" id="d"><stop offset="0"/><stop offset=".561" stop-color="#fc6"/><stop offset="1" stop-color="#fc0"/></radialGradient><radialGradient gradientUnits="userSpaceOnUse" r="819.2" cx="0" cy="0" spreadMethod="pad" gradientTransform="matrix(.003 0 0 .003 25.85 7.2)" id="e"><stop offset="0"/><stop offset=".561" stop-color="#fc6"/><stop offset="1" stop-color="#fc0"/></radialGradient><radialGradient gradientUnits="userSpaceOnUse" r="819.2" cx="0" cy="0" spreadMethod="pad" gradientTransform="matrix(.002 0 0 .002 22.15 5.6)" id="f"><stop offset="0"/><stop offset=".561" stop-color="#fc6"/><stop offset="1" stop-color="#fc0"/></radialGradient><radialGradient gradientUnits="userSpaceOnUse" r="819.2" cx="0" cy="0" spreadMethod="pad" gradientTransform="matrix(.002 0 0 .002 28.65 9.25)" id="g"><stop offset="0"/><stop offset=".561" stop-color="#fc6"/><stop offset="1" stop-color="#fc0"/></radialGradient><radialGradient gradientUnits="userSpaceOnUse" r="819.2" cx="0" cy="0" spreadMethod="pad" gradientTransform="matrix(.004 0 0 .004 26.9 13.75)" id="h"><stop offset="0"/><stop offset=".561" stop-color="#fc6"/><stop offset="1" stop-color="#fc0"/></radialGradient><radialGradient gradientUnits="userSpaceOnUse" r="819.2" cx="0" cy="0" spreadMethod="pad" gradientTransform="matrix(.005 0 0 .005 19.45 12.25)" id="i"><stop offset="0"/><stop offset=".561" stop-color="#fc6"/><stop offset="1" stop-color="#fc0"/></radialGradient><radialGradient gradientUnits="userSpaceOnUse" r="819.2" cx="0" cy="0" spreadMethod="pad" gradientTransform="matrix(.002 0 0 .002 24 11.6)" id="j"><stop offset="0"/><stop offset=".561" stop-color="#fc6"/><stop offset="1" stop-color="#fc0"/></radialGradient><radialGradient gradientUnits="userSpaceOnUse" r="819.2" cx="0" cy="0" spreadMethod="pad" gradientTransform="matrix(.003 0 0 .003 23.2 19.5)" id="k"><stop offset="0"/><stop offset=".561" stop-color="#fc6"/><stop offset="1" stop-color="#fc0"/></radialGradient><radialGradient gradientUnits="userSpaceOnUse" r="819.2" cx="0" cy="0" spreadMethod="pad" gradientTransform="matrix(.019 0 0 .019 8.65 15.15)" id="l"><stop offset="0"/><stop offset=".561" stop-color="#960"/><stop offset=".973" stop-color="#630"/></radialGradient><radialGradient gradientUnits="userSpaceOnUse" r="819.2" cx="0" cy="0" spreadMethod="pad" gradientTransform="matrix(.003 0 0 .003 17.1 5.8)" id="m"><stop offset="0"/><stop offset=".561" stop-color="#fc6"/><stop offset="1" stop-color="#fc0"/></radialGradient><radialGradient gradientUnits="userSpaceOnUse" r="819.2" cx="0" cy="0" spreadMethod="pad" gradientTransform="matrix(.003 0 0 .003 15.05 14.55)" id="n"><stop offset="0"/><stop offset=".561" stop-color="#fc6"/><stop offset="1" stop-color="#fc0"/></radialGradient><radialGradient gradientUnits="userSpaceOnUse" r="819.2" cx="0" cy="0" spreadMethod="pad" gradientTransform="matrix(.003 0 0 .003 17.75 19.1)" id="o"><stop offset="0"/><stop offset=".561" stop-color="#fc6"/><stop offset="1" stop-color="#fc0"/></radialGradient></defs><path fill="url(#a)" d="M28.3 6.5l1.05-1.4q.85-.8 2-.8L33.1 4l.15-.15q.75-.5 1.7-.65l2.3.05L39 3.3q.35-1.4 1.55-.55.65.4.25 1.2l-.05.45-.2 2.25-.35 1.1.2 2.2q.25 1.05 0 2.15-.2 1-.9 1.85l-1.3 1.75q-.65.95-.85 2.05l-.05.3-.05.05v.2l-.55 2q-.25.7-.25 1.55l-.15 4.3q-.1 1.2.6 2.05l1.2 1.1q1.3.05 1.85-1.05.15-.35.5-.35 1.25-.15 1.15 1.35v.05q0 1.35-.8 1.95l-.1.05-.3.1q-.45.1-.65.35l-1.35-1.2-.45-.25-2.2-.4-.7.1-.25.15-1.8 1.5-.25.4q-.15.95-.9 1.5.1.8-.7 1.2 0-1-.75-1.4l-.4-.2q-.5-.15-.8 0l-.55.25-.4.2q-.55-.25-.3-.7.25-.6 1.25-.55l.75-.2 1-.95h-2.1q-.25-.05-.85.3l-1.2-.15.2-.3-.15-1.35q-1.15.05-1.2-.55-.05-.25.15-.55h.15l2.15.6 1.25.35 1.05-.3 1.7-1.1 1.15-.9v-.05l.2-.7.55-2.15 1.1-4.5.4-1.25.6-2.2q.2-1.2.7-2.3l1.05-1.9.1-1.7-.1-1.1q-.25-1.05-.15-2.05v-1.7q-.65.75-1.85.75l-2.2-.15-.85-.2-.95-.45.65-.4q1-.55 2.1-.8l.65-.25-.65.25q-1.1.25-2.1.8l-.65.4-.25.15L30 6.9l-1.3.55-.2-.55-.2-.4m9.45-1.45q.3.1.1.35v.05l-.15.2.15-.2V5.4q.2-.25-.1-.35m.4 7.8l.05-.6q.1-.75.45-1.45l1-1.95.55-1.1-.55 1.1-1 1.95q-.35.7-.45 1.45l-.05.6m-.6 1.95l.3-2.6-.3 2.6M32.3 29.9l-1.35 1.3 1.35-1.3"/><path fill="url(#b)" d="M41.6 29.25q1.55-.3 1.25.85l-.7 1.85-1.1 1.65-.2-1.65-.15-.65.1-.05q.8-.6.8-1.95v-.05m-10.45 5.5q-2.9.3-3.8 3.1v-1.4q-.05-1.1.45-2.05.35-.7.85-1l.55-.25q.3-.15.8 0l.4.2q.75.4.75 1.4m-4.35-3.4l-.1.05q-.45-.05-.95.35-1.3.75-1.75 2.25v-1.95q-.1-1.15.2-2.3.3-1.25 1.45-.6.05.6 1.2.55l.15 1.35-.2.3m6-25.3l-.55.15q-1.05.2-2.1.65L30 6.9l1.6-1.15.25-.15.95.45m-4.1 1.4l.05.35h-.1q-.6 0-1 .4-.4.45-.2.75l.45 1q.2.7.75.7h.05l.05.75q-.75-.65-1.55-.55-.9.05-1.35 1.05l-1.2 2.05q-.75 1.1.1 1.95.75.75 1.7.85l.3.05.45-.05-.05.05-1 1.8-.8.6q-.1-.6-.6-1.05-.65-.55-1.55-.55t-1.5.55q-.65.55-.65 1.35v.1h-.3q.45-.65-.25-.95l-1.45-1.05-1.05-.85q-.5-.25-1.1.4l-.1.1-.55-.65q.55-.1.15-.55-.4-.55-.4-1.5l-.05-2.35q0-1.35-.35-1.5l-.25.05q.1-.75.75-1.35-.3-.7 0-1.3l1 .2q.95 0 1.65-.7.7-.75.7-1.8t.45-1.35q.4-.3-.95-.45l.55-.35 1.55-.1-.05.2q0 .3.15.45l.35.2.55-.05q.4-.1.3-.4-.1-.35.2-.4.2-.05-.3-.2h.45l1.2.8-.15.35q0 .45.55.7l1.35.5 1.35.35q.4.15.55-.4l.75.85.2.4.2.55m-13.05 19l.05.1q1.25-.55 1.5.8l.55 1.45q.55.95.35 1.6-1.1.75-1.65 1.55.25-1.2.1-2.45l-.65-.7-.25-.45q-.3-.65-.25-1.35l.25-.55m-8.35 3.9l-.95 2.8-.4-1.5-.3-1.55-.05-.35q-.15-1 .3-2.35l1.6.15.2.85v.45l-.15.75-.25.75m-5.65-.95l-.65.8q-.35.8.1 1.5-.75-.45-1-1.25-.3-1.15.45-1.9l.2-.1.4.25.5.7M21.3 5.35q-.5-.3-.5.25 0 .6.4 1 .4.45.95.45.5 0 .9-.45.4-.4.4-1 0-.55-.4-.95-.35-.35-.8.3-.45.7-.95.4m2.7 5q-.35 0-.6.4l-.65 1.75q-.4 1.4 0 1.45.4 0 1-.55l.7-.85-.05-.8-.1-.9q0-.5-.3-.5m-1.95 1.95q.45-1.85-.35-3.15-.85-1.3-2.25-1.3-1.45 0-2.3 1.25-.85 1.25-.85 3.1 0 1.8.85 3.1t2.3 1.3q1.4 0 1.75-1.2l.85-3.1M24 7.2q0 .85.55 1.45t1.3.6q.75 0 .85-1 .1-1.05.55-1.45l.15-.45h-2.6q-.8 0-.8.85m.25 8.95l.55.35q.95.55 1.65.25-.7.3-1.65-.25l-.55-.35M7.3 28.05l.2-.5-.2.5"/><path fill="url(#c)" d="M23.9 4.15l.4-.3q.55-.25 1.3 0l1.35.3q.6-.05.6 1.05v.45q-.15.55-.55.4l-1.35-.35-1.35-.5q-.55-.25-.55-.7l.15-.35"/><path fill="url(#d)" d="M21.05 3.55l.1-.25q.15-.2.9 0l.2.05q.5.15.3.2-.3.05-.2.4.1.3-.3.4l-.55.05-.35-.2Q21 4.05 21 3.75l.05-.2"/><path fill="url(#e)" d="M24 7.2q0-.85.8-.85h2.6l-.15.45q-.45.4-.55 1.45-.1 1-.85 1t-1.3-.6Q24 8.05 24 7.2"/><path fill="url(#f)" d="M21.3 5.35q.5.3.95-.4.45-.65.8-.3.4.4.4.95 0 .6-.4 1-.4.45-.9.45-.55 0-.95-.45-.4-.4-.4-1 0-.55.5-.25"/><path fill="url(#g)" d="M28.75 7.8q.5.05.6.45l.2 1.05-.1 1q-.2.4-.75.35h-.05q-.55 0-.75-.7l-.45-1q-.2-.3.2-.75.4-.4 1-.4h.1"/><path fill="url(#h)" d="M28.75 11.4l.25.25q.85.85.15 1.95t-1 2.15q-.2.8-.95 1l-.45.05-.3-.05q-.95-.1-1.7-.85-.85-.85-.1-1.95l1.2-2.05q.45-1 1.35-1.05.8-.1 1.55.55"/><path fill="url(#i)" d="M22.05 12.3l-.85 3.1q-.35 1.2-1.75 1.2-1.45 0-2.3-1.3-.85-1.3-.85-3.1 0-1.85.85-3.1t2.3-1.25q1.4 0 2.25 1.3.8 1.3.35 3.15"/><path fill="url(#j)" d="M24 10.35q.3 0 .3.5l.1.9.05.8-.7.85q-.6.55-1 .55-.4-.05 0-1.45l.65-1.75q.25-.4.6-.4"/><path fill="url(#k)" d="M25.35 19.2v.3q0 .75-.75.7-.75-.05-1.5.5l-1.4.05q-.6-.45-.65-1.15v-.1q0-.8.65-1.35.6-.55 1.5-.55t1.55.55q.5.45.6 1.05"/><path fill="url(#l)" d="M16.05 6.05l-1.2-.85-.05-.05-1.5-.65q-.6-.25-1.1-.7-.55-.45-1.2-.55l-.05.05-1.6.15L8.1 3V5.3l.6 1.6.95 1.7q.55 1 .4 2.15l-.1 1.8-.05 2.05-.15 2.3q-.1 1.15.1 2.35l.3 1.8.1 2.1-.1 1.4.85.2 2 1.35q.75.5 1.6-.15l.75.05.3.4v.05l-.25.55q-.05.7.25 1.35-.65.9-1.5.3-.55-.4-1.05-.4l-.1.05-3.7-.3-.05.05-.45.85q-.4 1.2-1.5 1.45l.25-.75.15-.75v-.45l-.2-.85-1.6-.15q-.45 1.35-.3 2.35l.05.35q-.7-.65-.8-1.4l-2.2.4-1 .3-.5-.7-.4-.25q-.95-1.05.5-1.6l1.7-.4 2.25-.85 1.75-1.1q.9-.7 1.05-1.9l-.1-1.95q-.2-1.15-.7-2.15l-.1-.2v-.1l-.65-2.1q-.45-.9-.6-1.95l-.1-2 .15-1.2.25-1.9v-.1L4.8 6.15l-.35-1.1-.2-2.35q-.1-1.2.8-1.85Q6 .2 7.3.65l.1-.1L8 .1l2.35-.1 2.15.45q1.3.35 1.6 1.45l.2.45 1.55 1.75 1.05 1.1-.85.85M11.25 3l-.25.25.25-.25m.55-.45l.55.2 1.7 1.55.75.85-.75-.85-1.7-1.55-.55-.2M7 12.1l-.2-.75-.5-1.9-.15-.4.15.4.5 1.9.2.75m1.45-4q-.1.05-.25-.8l-.1-2 .1 2q.15.85.25.8M6.75.95l.55-.3-.55.3M6.2 2.4l1.9.6-1.9-.6M6.75 26l-.6.4q-1 .65-1.25 1.8l-.05.5.05-.5q.25-1.15 1.25-1.8l.6-.4m2.3.4q1.25.45.55 1.2l-.3.4.3-.4q.7-.75-.55-1.2"/><path fill="url(#m)" d="M16.1 8.1l-.6-.5q-.65-.7.35-1.4l.2-.15.85-.85.3-.55q.4-.8 1.75-.65 1.35.15.95.45-.45.3-.45 1.35t-.7 1.8q-.7.7-1.65.7l-1-.2"/><path fill="url(#n)" d="M16.25 16.6h-.05q-.65.05-1.3-.75-.7-.8-.65-1.95.05-1.15.55-2.25.3-.75.55-.9l.25-.05q.35.15.35 1.5l.05 2.35q0 .95.4 1.5.4.45-.15.55"/><path fill="url(#o)" d="M20.75 19.6l-.4.35-1.8.05q-.7-.8-1.65-.4-1 .4-.75-.7.15-1 .65-1.65l.1-.1q.6-.65 1.1-.4l1.05.85 1.45 1.05q.7.3.25.95"/><path fill="none" stroke="#000" stroke-width=".05" stroke-linecap="round" stroke-miterlimit="3" d="M41.6 29.25q1.55-.3 1.25.85l-.7 1.85-1.1 1.65-.2-1.65-.15-.65m-9.55 3.45q-2.9.3-3.8 3.1v-1.4q-.05-1.1.45-2.05.35-.7.85-1m-1.85-2.05l-.1.05q-.45-.05-.95.35-1.3.75-1.75 2.25v-1.95q-.1-1.15.2-2.3.3-1.25 1.45-.6m7.15-23.1l-.55.15q-1.05.2-2.1.65L30 6.9m-1.3.55l.05.35m-.05 2.85l.05.75m-1.55 5.35l-.05.05-1 1.8-.8.6m-4.3.4h-.3m-3.95-2.35l-.55-.65m-.9-5.85q.1-.75.75-1.35-.3-.7 0-1.3m-.45 18.35l.05.1q1.25-.55 1.5.8l.55 1.45q.55.95.35 1.6-1.1.75-1.65 1.55.25-1.2.1-2.45l-.65-.7-.25-.45m-8.35 2l-.95 2.8-.4-1.5-.3-1.55m-4-.7l-.65.8q-.35.8.1 1.5-.75-.45-1-1.25-.3-1.15.45-1.9l.2-.1M18.95 4l.55-.35 1.55-.1m1.2-.2h.45l1.2.8m3.65 1.5l.75.85m-1.85 10.25q-.7.3-1.65-.25l-.55-.35M7.5 27.55l-.2.5"/><path fill="none" stroke="#4A3100" stroke-width=".05" stroke-linecap="round" stroke-miterlimit="3" d="M28.3 6.5l1.05-1.4q.85-.8 2-.8L33.1 4l.15-.15q.75-.5 1.7-.65l2.3.05L39 3.3q.35-1.4 1.55-.55.65.4.25 1.2l-.05.45-.2 2.25-.35 1.1.2 2.2q.25 1.05 0 2.15-.2 1-.9 1.85l-1.3 1.75q-.65.95-.85 2.05l-.05.3-.05.05v.2l-.55 2q-.25.7-.25 1.55l-.15 4.3q-.1 1.2.6 2.05l1.2 1.1q1.3.05 1.85-1.05.15-.35.5-.35 1.25-.15 1.15 1.35v.05q0 1.35-.8 1.95l-.1.05-.3.1q-.45.1-.65.35l-1.35-1.2-.45-.25-2.2-.4-.7.1-.25.15-1.8 1.5-.25.4q-.15.95-.9 1.5.1.8-.7 1.2 0-1-.75-1.4l-.4-.2q-.5-.15-.8 0l-.55.25-.4.2q-.55-.25-.3-.7.25-.6 1.25-.55l.75-.2 1-.95h-2.1q-.25-.05-.85.3l-1.2-.15m-1.15-2.2q-.05-.25.15-.55h.15l2.15.6 1.25.35 1.05-.3 1.7-1.1 1.15-.9v-.05l.2-.7.55-2.15 1.1-4.5.4-1.25.6-2.2q.2-1.2.7-2.3l1.05-1.9.1-1.7-.1-1.1q-.25-1.05-.15-2.05v-1.7q-.65.75-1.85.75l-2.2-.15-.85-.2M30 6.9l-1.3.55m-12.65-1.4l-1.2-.85-.05-.05-1.5-.65q-.6-.25-1.1-.7-.55-.45-1.2-.55l-.05.05-1.6.15L8.1 3V5.3l.6 1.6.95 1.7q.55 1 .4 2.15l-.1 1.8-.05 2.05-.15 2.3q-.1 1.15.1 2.35l.3 1.8.1 2.1-.1 1.4.85.2 2 1.35q.75.5 1.6-.15l.75.05.3.4v.05l-.25.55q-.05.7.25 1.35-.65.9-1.5.3-.55-.4-1.05-.4l-.1.05-3.7-.3-.05.05-.45.85q-.4 1.2-1.5 1.45l.25-.75.15-.75v-.45l-.2-.85-1.6-.15q-.45 1.35-.3 2.35l.05.35q-.7-.65-.8-1.4l-2.2.4-1 .3m-.9-.95q-.95-1.05.5-1.6l1.7-.4 2.25-.85 1.75-1.1q.9-.7 1.05-1.9l-.1-1.95q-.2-1.15-.7-2.15l-.1-.2v-.1l-.65-2.1q-.45-.9-.6-1.95l-.1-2 .15-1.2.25-1.9v-.1L4.8 6.15l-.35-1.1-.2-2.35q-.1-1.2.8-1.85Q6 .2 7.3.65l.1-.1L8 .1l2.35-.1 2.15.45q1.3.35 1.6 1.45l.2.45 1.55 1.75 1.05 1.1m11.4 1.3l.2.4.2.55m9-1.8l.15-.2V5.4q.2-.25-.1-.35m-5.9.55l.95.45m-.95-.45l.65-.4q1-.55 2.1-.8l.65-.25M30 6.9l1.6-1.15.25-.15m8.35 2.15l-.55 1.1-1 1.95q-.35.7-.45 1.45l-.05.6m-.3-.65l-.3 2.6M14.8 5.15l-.75-.85-1.7-1.55-.55-.2m-.8.7l.25-.25M8.1 3l-1.9-.6M7.3.65l-.55.3M8.1 5.3l.1 2q.15.85.25.8m-2.3.95l.15.4.5 1.9.2.75M9.3 28l.3-.4q.7-.75-.55-1.2m-4.2 2.3l.05-.5q.25-1.15 1.25-1.8l.6-.4m-6 2.45l.4.25.5.7m29.3 1.8l1.35-1.3m-6.65-.75q.05.6 1.2.55l.15 1.35-.2.3"/><path fill="none" stroke="#796130" stroke-width=".05" stroke-linecap="round" stroke-miterlimit="3" d="M28.75 7.8q.5.05.6.45l.2 1.05-.1 1q-.2.4-.75.35h-.05q-.55 0-.75-.7l-.45-1q-.2-.3.2-.75.4-.4 1-.4h.1m0 3.6l.25.25q.85.85.15 1.95t-1 2.15q-.2.8-.95 1l-.45.05-.3-.05q-.95-.1-1.7-.85-.85-.85-.1-1.95l1.2-2.05q.45-1 1.35-1.05.8-.1 1.55.55m-3.4 7.8v.3q0 .75-.75.7-.75-.05-1.5.5l-1.4.05q-.6-.45-.65-1.15m-.3 0l-.4.35-1.8.05q-.7-.8-1.65-.4-1 .4-.75-.7.15-1 .65-1.65m-.55-.65h-.05q-.65.05-1.3-.75-.7-.8-.65-1.95.05-1.15.55-2.25.3-.75.55-.9m.75-2.65l-.6-.5q-.65-.7.35-1.4l.2-.15m.85-.85l.3-.55q.4-.8 1.75-.65m2.1-.45l.1-.25q.15-.2.9 0l.2.05q.5.15.3.2-.3.05-.2.4.1.3-.3.4l-.55.05-.35-.2Q21 4.05 21 3.75l.05-.2m2.85.6l.4-.3q.55-.25 1.3 0l1.35.3q.6-.05.6 1.05v.45m-3.65-1.5l-.15.35q0 .45.55.7l1.35.5 1.35.35q.4.15.55-.4m-6.25-.3q.5.3.95-.4.45-.65.8-.3.4.4.4.95 0 .6-.4 1-.4.45-.9.45-.55 0-.95-.45-.4-.4-.4-1 0-.55.5-.25m2.7 5q.3 0 .3.5l.1.9.05.8-.7.85q-.6.55-1 .55-.4-.05 0-1.45l.65-1.75q.25-.4.6-.4m-1.95 1.95l-.85 3.1q-.35 1.2-1.75 1.2-1.45 0-2.3-1.3-.85-1.3-.85-3.1 0-1.85.85-3.1t2.3-1.25q1.4 0 2.25 1.3.8 1.3.35 3.15M24 7.2q0-.85.8-.85h2.6l-.15.45q-.45.4-.55 1.45-.1 1-.85 1t-1.3-.6Q24 8.05 24 7.2m1.35 12q-.1-.6-.6-1.05-.65-.55-1.55-.55t-1.5.55q-.65.55-.65 1.35v.1m-.3 0q.45-.65-.25-.95l-1.45-1.05-1.05-.85q-.5-.25-1.1.4l-.1.1m.1-12.05l-.85.85m.05 2.05l1 .2q.95 0 1.65-.7.7-.75.7-1.8t.45-1.35q.4-.3-.95-.45m-2.7 12.6q.55-.1.15-.55-.4-.55-.4-1.5l-.05-2.35q0-1.35-.35-1.5l-.25.05"/></svg>