<svg xmlns="http://www.w3.org/2000/svg" viewBox="0 0 27.6 29.3" width="27.6" height="29.3"><defs><radialGradient gradientUnits="userSpaceOnUse" r="819.2" cx="0" cy="0" spreadMethod="pad" gradientTransform="matrix(.008 0 0 .008 22.45 7.05)" id="a"><stop offset="0" stop-color="#390"/><stop offset=".878" stop-color="#330"/></radialGradient><radialGradient gradientUnits="userSpaceOnUse" r="819.2" cx="0" cy="0" spreadMethod="pad" gradientTransform="matrix(.002 0 0 .002 21.8 1.4)" id="b"><stop offset="0" stop-color="#390"/><stop offset=".878" stop-color="#330"/></radialGradient><radialGradient gradientUnits="userSpaceOnUse" r="819.2" cx="0" cy="0" fx="87942.4" fy="0" spreadMethod="repeat" gradientTransform="matrix(.002 0 0 .002 23.1 3.45)" id="c"><stop offset="0" stop-color="#390"/><stop offset=".878" stop-color="#330"/></radialGradient><radialGradient gradientUnits="userSpaceOnUse" r="819.2" cx="0" cy="0" spreadMethod="pad" gradientTransform="matrix(.021 0 0 .021 17.2 15.55)" id="d"><stop offset="0" stop-color="#390"/><stop offset=".824" stop-color="#330"/><stop offset="1" stop-color="#330"/></radialGradient><radialGradient gradientUnits="userSpaceOnUse" r="819.2" cx="0" cy="0" spreadMethod="pad" gradientTransform="matrix(.001 0 0 .001 15.35 11.25)" id="e"><stop offset="0" stop-color="#390"/><stop offset=".878" stop-color="#330"/></radialGradient><radialGradient gradientUnits="userSpaceOnUse" r="819.2" cx="0" cy="0" spreadMethod="pad" gradientTransform="matrix(.014 0 0 .014 20.45 19.7)" id="f"><stop offset="0" stop-color="#33c"/><stop offset=".765" stop-color="#330"/><stop offset="1" stop-color="#330"/></radialGradient><radialGradient gradientUnits="userSpaceOnUse" r="819.2" cx="0" cy="0" spreadMethod="pad" gradientTransform="matrix(.008 0 0 .008 24.7 21.85)" id="g"><stop offset="0" stop-color="#63c"/><stop offset=".878" stop-color="#330"/></radialGradient><radialGradient gradientUnits="userSpaceOnUse" r="819.2" cx="0" cy="0" spreadMethod="pad" gradientTransform="matrix(.008 0 0 .008 21.35 20.8)" id="h"><stop offset="0" stop-color="#63c"/><stop offset=".878" stop-color="#330"/></radialGradient><radialGradient gradientUnits="userSpaceOnUse" r="819.2" cx="0" cy="0" spreadMethod="pad" gradientTransform="matrix(.004 0 0 .004 16.35 17.95)" id="i"><stop offset="0" stop-color="#63c"/><stop offset=".878" stop-color="#330"/></radialGradient><radialGradient gradientUnits="userSpaceOnUse" r="819.2" cx="0" cy="0" spreadMethod="pad" gradientTransform="matrix(.001 0 0 .001 21.45 26.7)" id="j"><stop offset="0" stop-color="#390"/><stop offset=".878" stop-color="#330"/></radialGradient><radialGradient gradientUnits="userSpaceOnUse" r="819.2" cx="0" cy="0" spreadMethod="pad" gradientTransform="matrix(.002 0 0 .002 7.15 2.3)" id="k"><stop offset="0" stop-color="#c00"/><stop offset=".878" stop-color="#330"/></radialGradient><radialGradient gradientUnits="userSpaceOnUse" r="819.2" cx="0" cy="0" spreadMethod="pad" gradientTransform="matrix(.002 0 0 .002 7.65 4.1)" id="l"><stop offset="0" stop-color="#c00"/><stop offset=".878" stop-color="#330"/></radialGradient><radialGradient gradientUnits="userSpaceOnUse" r="819.2" cx="0" cy="0" spreadMethod="pad" gradientTransform="matrix(.002 0 0 .002 12.2 1.7)" id="m"><stop offset="0" stop-color="#c00"/><stop offset=".878" stop-color="#330"/></radialGradient><radialGradient gradientUnits="userSpaceOnUse" r="819.2" cx="0" cy="0" spreadMethod="pad" gradientTransform="matrix(.002 0 0 .002 11.4 3.9)" id="n"><stop offset="0" stop-color="#c00"/><stop offset=".878" stop-color="#330"/></radialGradient><radialGradient gradientUnits="userSpaceOnUse" r="819.2" cx="0" cy="0" spreadMethod="pad" gradientTransform="matrix(.011 0 0 .011 5.15 16.8)" id="o"><stop offset="0" stop-color="#33c"/><stop offset=".765" stop-color="#330"/><stop offset="1" stop-color="#330"/></radialGradient><radialGradient gradientUnits="userSpaceOnUse" r="819.2" cx="0" cy="0" spreadMethod="pad" gradientTransform="matrix(.002 0 0 .001 9.75 5.75)" id="p"><stop offset="0" stop-color="#c00"/><stop offset=".212" stop-color="#c00"/><stop offset=".376" stop-color="#fff"/><stop offset=".427" stop-color="#ff0"/><stop offset=".639" stop-color="#fc0"/><stop offset=".788" stop-color="#f60"/><stop offset="1" stop-color="#f00"/></radialGradient><radialGradient gradientUnits="userSpaceOnUse" r="819.2" cx="0" cy="0" spreadMethod="pad" gradientTransform="matrix(.001 0 0 .001 8.4 10.45)" id="q"><stop offset="0" stop-color="#390"/><stop offset=".878" stop-color="#330"/></radialGradient><radialGradient gradientUnits="userSpaceOnUse" r="819.2" cx="0" cy="0" spreadMethod="pad" gradientTransform="matrix(.004 0 0 .004 7.25 17.15)" id="r"><stop offset="0" stop-color="#63c"/><stop offset=".878" stop-color="#330"/></radialGradient><radialGradient gradientUnits="userSpaceOnUse" r="819.2" cx="0" cy="0" spreadMethod="pad" gradientTransform="matrix(.005 0 0 .005 4.6 19.05)" id="s"><stop offset="0" stop-color="#63c"/><stop offset=".878" stop-color="#330"/></radialGradient><radialGradient gradientUnits="userSpaceOnUse" r="819.2" cx="0" cy="0" spreadMethod="pad" gradientTransform="matrix(.002 0 0 .002 9.15 25.35)" id="t"><stop offset="0" stop-color="#390"/><stop offset=".878" stop-color="#330"/></radialGradient></defs><path d="M22.7 27v.15l-.05.1.1.3-.55.05-.6.75-.3-.35h-.4l-.35.2-.75.75q-.1-.45-.4-.45l-.45-.15.55-.05.65-.3.1-.1-.35-1.15-.3-.55 1.35 1.3h.65l-.05-.1v-.05L21 26.3h.05l.95 1 .1.15.05-.05.2-.1.1-.1.1-.15.15-.05m-6.3-2.6l-1.5-.75-.4-.25-.6-.1v-.2l-.1-.55v-.5l1.3.9.05.05.25.15.75.75.3.45-.05.05M12 22.25l-.65.4-.05-.3-.3-.65-.2-.25q-.35-.6-.05-1.2l.6-.95.05-.1.65-.5-.15.5q-.15.4-.15.9l-.1.4.1-.4-.05.4h-.05l.1.6v.2l.1.35.05.4.05.05.05.15m-.15 2.85h.85l.2-.05-.05.1-.75 1.1q.05-.6-.25-1.15M7.9 28.45q-.5.05-.9.25v-.5l.1-.85.1.25.3.5.25.25.15.1M7.35 10.3l-.1-.25-.1-.25-.25-.3-.25-.2 1.05.15.2.05.4.15.45.3-.7.2-.7.15m.75-3.15l-.45-.1-.2-.1-.4-.55.7.35.35.05h.05l.2.35H8.1m7.35 3.15l.25-.15.5-.25.35-.35-.1.65-.35.6q-.4-.2-.65-.5m10.35 8.25h-.05l-.2-.25-.65-1-.85-1.45q-.6-.2-1.25.4l-.3.35-.05.15-.1.2-.1 1.6-.1-.25-.3-.9-.15-.65-.05-.85v-.75l.25-.75q.15-.35.5-.35h.05l.1.05 1.25.15q.9.25 1.1 1.1l.9 3.2m-7.7-3.3v-.2l.25-.6q.15-.15.4-.15h.45q.7.1 1 .6l.6 1.1.3.8v.05l.1.3-.85-.85-1.4-1-.85-.05m-7.8-8.4l-.75.25q-.15-.15 0-.35h.05l.75-.3.6-.6-.3.6-.35.4m3.2 5.9h.3l-.2.2q-.35.55-.1 1.2l.55.3.25.1h.05l.8.1q.8 0 1.55.4l.05.05.1.15.1.3.35.8-.75-.1-1.45-.45q-.5-.15-.9.25l-.05.7.05.25.1.55.4.75.45.7-.8-.3.8.3-.05.05-.7-.3-.05-.05-.1-.05-.25-.2-.55-.75-.05-.15-.7-.6-1.5-.4h.7l1.3-.25.2-.15q.45-.75 0-1.1l-.4-.15-.25-.2-.1-.25.45.05-.35-.25-.95-.8-.75-.9 1.35.2h1.1M9.35 4.5l-.15.25.05.9-.05.45-.2.45-.4.5-.25-.95.55.4-.05-.2-.15-1-.05-.2.1.2.2.3.05-.85v-1l.35.65.25-1.45V4l.05.05q.15.3-.3.45M8.8 8.2l.45.05.15.05h.05l.2.05-.35.25-.15-.1-.55-.3h.2m-3.4 6.85L5.3 14v-.3q.05-.8.8-.9h.75l.3.15.15.3v1l-.9-.1-.7.55-.3.35M2.9 17.2l-.45-1.25q-.2-.75-.1-1.55l.15-.5q.15-.5.65-.75l1.15-.4.05.1.05.4.05 1.55.25 1.4-.45-.75-.75-.65-.3.05q-.65.35-.45 1.15l.1.4.05.8m11.45-2.65l-.15 1.5.15-1.5M12.7 13.4l.8.75-.8-.75m1.2 9.7l.6.3-.6-.3"/><path fill="url(#a)" d="M22.2 2.05l2.25.05q1.2.15 1.55-.6.2.45-.15.7-.4.4-.95.45h-1.45l-.25-.05q-.65-.05-1.15.35l-.6.6-.3.55q-.35.8-.2 1.65l.1.4q.75 2.25 2.85 3.6 1.15.7 1.1 2l-.15.8-.75-.9-.5-.85-.45-.65-1.6 1.6-.6.45-.15.15.25-.65.15-1.15q.05-1.15-.55-2.15L19.5 6.55l-.45-.95-.25-1.25q-.05-.55.15-.95l.1-.15q.3-.45.95-.7l.75-.3 1.4-.2h.05"/><path fill="url(#b)" d="M22.2 2.05h-.05l-1.4.2q0-1 .9-1.5l1.15-.2q-.65.6-.6 1.5"/><path fill="url(#c)" d="M23.45 2.65q.15.45.65.75l.65.35q-.45.7-1.35.55l-1.95-.75.6-.6q.5-.4 1.15-.35l.25.05"/><path fill="url(#d)" d="M15.65 19.3l.25.15q.85.55.75 1.7l.05.75.25.5.1.15 1.8 1.3h.05l.9.3.65.2L22 25.4l.15.1.4.5.15.5v.5l-.15.05-.1.15-.1.1-.2.1-.05.05-.1-.15-.95-1-.2-.4.1.3.05.1.55 1.05v.05l.05.1h-.65l-1.35-1.3.3.55.35 1.15-.1.1-.65.3-.55.05-.2-.25v-.45l-.25-1.2-.25-.45-.15-.15q-.3-.3-.1-.65l-1.05-.6-.45-.2-.05-.05-.3-.45-.75-.75-.25-.15-.05-.05-1.3-.9v.5l.1.55v.15h-.1l-.55-.15-.6-.15-.5-.4-.3-.9-.1-.35v-.2l.1.55-.1-.55-.05-.6.05-.4q0-.5.15-.9l.15-.5-.65.5-.05.1-.6.95q-.3.6.05 1.2l.2.25.3.65.05.3-.9.55q-.25.2-.15.5l.35.6.7.6.05.05.45.15q.3.55.25 1.15v.05l-.35.4-.05.25-.3.4-.4.1q-.45-.05-.65.2l-.25.3-.6.35-.85.15H7.9l-.15-.1-.25-.25-.3-.5-.1-.25h.05l.05-.2.1-.2q.55-.55 1.5-.55.55 0 .95-.45l.3-.25q.45-.35.2-.55L9.6 25l-1.65-.2H7.9l-.5-.55-.5-.95-.1-.65q-.05-.4.15-.75l.05-.1.35-.5 2.2-2.15-.05-.05-.45-.6-.6-1.1-.1-.5-.05-.25v-.6l.1-.4-.1-.2-.2-.7-.05-.9.25-.9h.05l.45-.8 1.5-1.9v-.05l1.05-1.4.55-.8.3-.9.2-.9.1-.95-.1-.2-.05-.1-.8.05-.25.35-.15.35v.05l.2.7-.05.35-.1.15-.3.25-.75.3-.45.9-.1.4-.15.2-.5.05-.4-.05-.1-.05-.4-.25-.15-.3q-.15-.5.05-.95l.15-.3h.25l-.2-.35H8.1L8 5.95l-.05-.25.05-.55V5.1l.55-.15.25-.2.05-.15-.05-.35-.6-.15.25-.25q.1-.45.35-.75l.45-.45.25-.15q.35-.25.8-.35l1.75-.35.05.3-.05.45-.2.5-.55.45-.5.2-.2.05-.6.3.1.5.15.1.35.15h.2l.15-.05.05-.05.45-.35.4-.2.55-.35.4-.4.1-.15.15-.35-.05-.6-.1-.35V1.9l.05.05.65.55.4.45.8 1.2.3.8.15 1-.2 1-.1.2v.9l-.2.95-.05.4.1.55.1.15-.7.6q-1.2 1.05-.7 2.05h-1.1l-1.35-.2.75.9.95.8.35.25-.45-.05.1.25.25.2.4.15q.45.35 0 1.1l-.2.15-1.3.25h-.7l1.5.4.7.6.05.15.55.75.25.2.1.05.05.05.7.3h.15l.4.25M10.3 6.85l.35-.4.3-.6-.6.6-.75.3h-.05q-.15.2 0 .35l.75-.25M9.35 4.5q.45-.15.3-.45L9.6 4V2.95L9.35 4.4 9 3.75v1l-.05.85-.2-.3-.1-.2.05.2.15 1 .05.2-.55-.4.25.95.4-.5.2-.45.05-.45-.05-.9.15-.25m.55.25l-.05.1-.05.05-.2.75v.85l.15-.2.3-.65L10 5.4q-.1-.25-.05-.5v-.25l-.05.1M8.8 8.2h-.2l.55.3.15.1.35-.25-.2-.05H9.4l-.15-.05-.45-.05"/><path fill="url(#e)" d="M15.15 10.5l.3-.2q.25.3.65.5l-.2.4-.15.8-.35.2q-.45 0-.7-.4l-.1-.2.05-.25.15-.5.35-.35"/><path fill="url(#f)" d="M15.15 10.5l-.35.35-.15.5-.05.25.1.2q.25.4.7.4l.35-.2.15-.8 1.05.9.75.4.8.2.85.05.8-.15.65-.25.15-.15.6-.45 1.6-1.6.45.65.5.85.75.9 1.55 2.1v.05l.25.55.05.6v.2l.85 4.9v1.5l-.2 6.85-.15-1.4-.05-.25-.1-1.65v-1l-.2-2.5-.2-1.3-.8-2.5-.05-.15-.9-3.2q-.2-.85-1.1-1.1l-1.25-.15-.1-.05h-.05q-.35 0-.5.35l-.25.75v.75l.05.85.15.65.3.9.1.25L25 25.2l.25 1.05.05.45v1.15l-.6-1.45-.85-2.3-.6-1.45-1-2.05-.5-1.3-.55-2.1h.05l-.05-.05-.1-.3v-.05l-.3-.8-.6-1.1q-.3-.5-1-.6h-.45q-.25 0-.4.15l-.25.6v.2l-.05.2v.75l.4 2.15.75 2.1.1.2-.55.75-.2-1.2-.8-2.9-.45-.9v-.05l-.35-.8-.1-.3-.1-.15-.05-.05q-.75-.4-1.55-.4l-.8-.1h-.05l-.25-.1-.55-.3q-.25-.65.1-1.2l.2-.2h-.3q-.5-1 .7-2.05l.7-.6.25.4m1.3 4.15l.25.4-.25-.4"/><path fill="url(#g)" d="M27.2 27.9l-.25-.25q-.7-.7-1.65-.95l-.05-.45L25 25.2l-2.75-6.65.1-1.6.1-.2.05-.15.3-.35q.65-.6 1.25-.4l.85 1.45.65 1 .2.25.1.15.8 2.5.2 1.3.2 2.5v1l.1 1.65.05.25"/><path fill="url(#h)" d="M24.7 26.4l-2.9-3.65v-.05l-.45-.5-.95-.9-.25-.2-.95-.65-.75-2.1-.4-2.15v-.75l.05-.2.85.05 1.4 1 .85.85v.05l.55 2.1.5 1.3 1 2.05.6 1.45.85 2.3"/><path fill="url(#i)" d="M18.55 20.2l-1.7-.65-1.2-.25-.4-.25-.1-.05-.45-.7-.4-.75-.1-.55-.05-.25.05-.7q.4-.4.9-.25l1.45.45.75.1v.05l.45.9.8 2.9"/><path fill="url(#j)" d="M21 26.3l-.05-.1-.1-.3.2.4H21"/><path fill="url(#k)" d="M6.5 3.45L6.6 3l.05-.15 1.2-1.7-.3.9-.25.65v.45l-.05.05-.75.25"/><path fill="url(#l)" d="M6.5 3.45l.75-.25.05-.05.1.3.3.45.25.15.25.05.6.15.05.35-.05.15-.25.2L8 5.1l-.65-.15-.5-.4-.2-.3-.1-.25-.05-.35v-.2"/><path fill="url(#m)" d="M12.05 1.8v-.2l-.3-.85-.4-.75 1.05 1.15.5.75v.05l.1.35.05.6-.15.35-.1.15-.15-.1-.8-.25.2-.5.05-.45-.05-.3"/><path fill="url(#n)" d="M12.8 3.4l-.4.4-.55.35-.4.2-.45.35-.05.05-.15.05h-.2l-.35-.15-.15-.1-.1-.5.6-.3.2-.05.5-.2.55-.45.8.25.15.1"/><path fill="url(#o)" d="M6.9 21.85l-.4-.75-.3-.6-.85-2.1-.6-2.1h.05l-.1-.1-.25-1.4-.05-1.55-.05-.4-.05-.1-1.15.4q-.5.25-.65.75l-.15.5q-.1.8.1 1.55l.45 1.25.5 1.75.65 1.85 1.15 2.55.5 1.35-.7-.85-.85-1.45-.6-1.2v-.05l-1.2-2.85-1.25-3.4q-.4-1.3-.5-2.5v-.05L.5 10.6q-.4.15-.5.25l.8-1.3.4-.45.35-.15.75.1 3.4 1.6 2.1.2.1.05.65.1.9-.1-.2-.4q.25-.2 1-.3l.05.05-1.5 1.9-.45.8H8.3l-.25.9.05.9.2.7.1.2-.1.4v.6l.05.25-.25-.25-.3-.45-.3-.9-.2-1.05v-1l-.15-.3-.3-.15H6.1q-.75.1-.8.9v.3l.1 1.05.2 1.95v.1l.05.2.25 1.55.45 1.25.05.15.6 1.55-.1.05"/><path fill="url(#p)" d="M9.95 4.75v.15q-.05.25.05.5l.05.25-.3.65-.15.2v-.85l.2-.75.05-.05.05-.1h.05"/><path fill="url(#q)" d="M7.8 10.85l-.25-.2-.2-.35.7-.15.7-.2.25.2.25.35.2.4-.9.1-.65-.1-.1-.05"/><path fill="url(#r)" d="M7.3 14.25l.2 1.05.3.9.3.45.25.25.1.5.6 1.1q-.6 0-1.2.4-1 .65-1.45 1.35l-.05-.15-.45-1.25-.25-1.55-.05-.2V17l-.2-1.95.3-.35.7-.55.9.1"/><path fill="url(#s)" d="M6.5 21.1l-.15.15-.9 1.3-.2.5-.05.3-1.15-2.55-.65-1.85-.5-1.75-.05-.8-.1-.4q-.2-.8.45-1.15l.3-.05.75.65.45.75.05.1.6 2.1.85 2.1.3.6"/><path fill="url(#t)" d="M9.75 25.95l.25-.5-.75-.05-.85-.3-.45-.25v-.05l1.65.2.65.15q.25.2-.2.55l-.3.25"/><path fill="none" stroke="#000" stroke-width=".05" stroke-linecap="round" stroke-miterlimit="3" d="M27.2 27.9l-.25-.25q-.7-.7-1.65-.95m-.6-.3l-2.9-3.65v-.05l-.45-.5-.95-.9-.25-.2-.95-.65m-.65-.25l-1.7-.65-1.2-.25M22.7 27v.15l-.05.1.1.3-.55.05-.6.75-.3-.35h-.4l-.35.2-.75.75q-.1-.45-.4-.45l-.45-.15M16.5 24.4h-.1l-1.5-.75-.4-.25-.6-.1h-.05l-.05-.05m-1.65-.7l-.15-.3-.65.4m.5 2.45h.85l.2-.05-.05.1-.75 1.1m-4.2 2.2q-.5.05-.9.25v-.5l.1-.85m2.65-1.4l.25-.5-.75-.05-.85-.3-.45-.25-.05-.05m-.95-2.9l-.05-.05m-.4-.75l-.15.15-.9 1.3-.2.5-.05.3m2.6-12.5l-.25-.2-.2-.35-.1-.25-.1-.25-.25-.3-.25-.2 1.05.15.2.05.4.15.45.3.25.2.25.35m1-.3h.05M8.1 7.15l-.45-.1-.2-.1-.4-.55.7.35.35.05m7.05 3.7l.3-.2.25-.15.5-.25.35-.35-.1.65-.35.6-.2.4m5.3 6v-.05m-14.8 3.1q.45-.7 1.45-1.35.6-.4 1.2-.4M4.7 16.2l.05.1m9.45-.25l-.05.7.05.25.1.55.4.75.45.7.1.05m-.9-.35l.8.3m-1.65-4.85l-.8-.75m1.5 2.65l.15-1.5m-2.6 6.55l-.1-.6.1-.4m.25 2.15l-.05-.15-.05-.05-.05-.4m2.65 1.75l-.6-.3"/><path fill="none" stroke="#333C00" stroke-width=".05" stroke-linecap="round" stroke-miterlimit="3" d="M22.2 2.05l2.25.05q1.2.15 1.55-.6.2.45-.15.7-.4.4-.95.45h-1.45l-.25-.05q-.65-.05-1.15.35l-.6.6-.3.55q-.35.8-.2 1.65l.1.4q.75 2.25 2.85 3.6 1.15.7 1.1 2l-.15.8m-9.2 6.75l.25.15q.85.55.75 1.7l.05.75.25.5.1.15 1.8 1.3h.05l.9.3.65.2L22 25.4l.15.1.4.5.15.5v.5m-3.75 1.35l-.2-.25v-.45l-.25-1.2-.25-.45-.15-.15q-.3-.3-.1-.65l-1.05-.6-.45-.2m-2.7-1.15l-.55-.15-.6-.15-.5-.4m-.8.1l-.9.55q-.25.2-.15.5l.35.6.7.6.05.05.45.15m.25 1.15v.05l-.35.4-.05.25-.3.4-.4.1q-.45-.05-.65.2l-.25.3-.6.35-.85.15H7.9m-.8-1.1h.05l.05-.2.1-.2q.55-.55 1.5-.55.55 0 .95-.45M7.9 24.8l-.5-.55-.5-.95-.1-.65q-.05-.4.15-.75m3.35-11.7l1.05-1.4.55-.8.3-.9.2-.9.1-.95-.1-.2-.05-.1-.8.05-.25.35-.15.35v.05l.2.7-.05.35-.1.15m-.3.25l-.75.3-.45.9-.1.4-.15.2-.5.05-.4-.05-.1-.05-.4-.25-.15-.3q-.15-.5.05-.95l.15-.3h.25l-.2-.35H8.1L8 5.95l-.05-.25.05-.55V5.1m.2-1l.25-.25q.1-.45.35-.75l.45-.45.25-.15q.35-.25.8-.35l1.75-.35m.85.1l.05.05.65.55.4.45.8 1.2.3.8.15 1-.2 1-.1.2v.9l-.2.95-.05.4.1.55.1.15m5.9 2.25l.25-.65.15-1.15q.05-1.15-.55-2.15L19.5 6.55l-.45-.95-.25-1.25q-.05-.55.15-.95l.1-.15q.3-.45.95-.7l.75-.3m1.45-.2h-.05l-1.4.2M10.3 6.85l-.75.25q-.15-.15 0-.35h.05l.75-.3.6-.6-.3.6-.35.4m0 3.4v-.05m-.95-5.7l-.15.25.05.9-.05.45-.2.45-.4.5-.25-.95.55.4-.05-.2-.15-1-.05-.2.1.2.2.3.05-.85v-1l.35.65.25-1.45V4l.05.05q.15.3-.3.45m.6.25v.15q-.05.25.05.5l.05.25-.3.65-.15.2v-.85l.2-.75.05-.05.05-.1.05-.1v.1M8.35 16.9l.1.5.6 1.1.45.6.05.05-2.2 2.15-.35.5-.05.1m8.3-2.85l.4.25m-3.8 2.35l-.1-.55"/><path fill="none" stroke="#242400" stroke-width=".05" stroke-linecap="round" stroke-miterlimit="3" d="M24.85 12.55l1.55 2.1v.05l.25.55.05.6v.2l.85 4.9v1.5l-.2 6.85-.15-1.4-.05-.25-.1-1.65v-1l-.2-2.5-.2-1.3-.8-2.5-.05-.15-.9-3.2q-.2-.85-1.1-1.1l-1.25-.15-.1-.05h-.05q-.35 0-.5.35l-.25.75v.75l.05.85.15.65.3.9.1.25L25 25.2l.25 1.05.05.45v1.15l-.6-1.45m-5.5-5.95l.1.2-.55.75-.2-1.2-.8-2.9-.45-.9v-.05l-.35-.8-.1-.3-.1-.15-.05-.05-.25-.4m-9.55 7.2l-.4-.75-.3-.6-.85-2.1-.6-2.1m.45 7.05l.5 1.35-.7-.85-.85-1.45-.6-1.2v-.05l-1.2-2.85-1.25-3.4q-.4-1.3-.5-2.5v-.05L.5 10.6q-.4.15-.5.25l.8-1.3.4-.45m.35-.15l.75.1 3.4 1.6 2.1.2.1.05.65.1.9-.1-.2-.4q.25-.2 1-.3m4.65-.1l.25.4m.75.7l1.05.9.75.4.8.2.85.05.8-.15.65-.25m4.05.2l-.75-.9-.5-.85-.45-.65-1.6 1.6-.6.45-.15.15m.4 4.8l-.1-.3v-.05l-.3-.8-.6-1.1q-.3-.5-1-.6h-.45q-.25 0-.4.15l-.25.6v.2l-.05.2v.75l.4 2.15.75 2.1m2-3.25l.55 2.1.5 1.3 1 2.05.6 1.45.85 2.3M13.5 14.15l.55.3.25.1h.05l.8.1q.8 0 1.55.4m-.8-3.85l-.15.8-.35.2q-.45 0-.7-.4l-.1-.2.05-.25.15-.5.35-.35m-6.8 6.4l-.05-.25v-.6l.1-.4-.1-.2-.2-.7-.05-.9.25-.9h.05l.45-.8 1.5-1.9m-4.9 4.8L5.3 14v-.3q.05-.8.8-.9h.75l.3.15.15.3v1l.2 1.05.3.9.3.45.25.25M5.4 15.05L5.6 17v.1l.05.2.25 1.55.45 1.25.05.15m-2.05-7.4l-.05-.1-1.15.4q-.5.25-.65.75l-.15.5q-.1.8.1 1.55l.45 1.25.5 1.75.65 1.85 1.15 2.55m-.5-7.15l-.25-1.4-.05-1.55M7 21.8l-.6-1.55"/><path fill="none" stroke="#6F1E00" stroke-width=".05" stroke-linecap="round" stroke-miterlimit="3" d="M8 5.1l-.65-.15-.5-.4-.2-.3-.1-.25-.05-.35v-.2L6.6 3l.05-.15 1.2-1.7-.3.9-.25.65v.45l.1.3.3.45.25.15.25.05m3.85-2.3v-.2l-.3-.85-.4-.75 1.05 1.15.5.75v.05l.1.35.05.6-.15.35-.1.15-.4.4-.55.35-.4.2-.45.35-.05.05-.15.05h-.2l-.35-.15-.15-.1-.1-.5.6-.3.2-.05.5-.2.55-.45.2-.5.05-.45-.05-.3M8 5.1l.55-.15.25-.2.05-.15-.05-.35-.6-.15"/><path fill="none" stroke="#333F00" stroke-width=".05" stroke-linecap="round" stroke-miterlimit="3" d="M23.45 2.65q.15.45.65.75l.65.35q-.45.7-1.35.55l-1.95-.75m-.7-1.3q0-1 .9-1.5l1.15-.2q-.65.6-.6 1.5"/></svg>