<svg xmlns="http://www.w3.org/2000/svg" viewBox="0 0 56.6 57.3" width="56.6" height="57.3"><defs><radialGradient gradientUnits="userSpaceOnUse" r="819.2" cx="0" cy="0" spreadMethod="pad" gradientTransform="matrix(-.015 0 0 .007 28.85 7.8)" id="a"><stop offset=".169" stop-color="#fff"/><stop offset=".831" stop-color="#606060"/><stop offset="1"/></radialGradient><radialGradient gradientUnits="userSpaceOnUse" r="819.2" cx="0" cy="0" spreadMethod="pad" gradientTransform="matrix(-.015 0 0 .015 25.5 15.5)" id="b"><stop offset="0" stop-color="#8F8F8F"/><stop offset=".51" stop-color="#fff"/><stop offset="1"/></radialGradient><radialGradient gradientUnits="userSpaceOnUse" r="819.2" cx="0" cy="0" spreadMethod="pad" gradientTransform="matrix(-.003 0 0 .006 21.25 12.9)" id="c"><stop offset=".169" stop-color="#fff"/><stop offset=".831" stop-color="#606060"/><stop offset="1"/></radialGradient><radialGradient gradientUnits="userSpaceOnUse" r="819.2" cx="0" cy="0" spreadMethod="pad" gradientTransform="matrix(-.01 0 0 .01 13.85 10.9)" id="d"><stop offset="0" stop-color="#8F8F8F"/><stop offset=".51" stop-color="#fff"/><stop offset="1"/></radialGradient><radialGradient gradientUnits="userSpaceOnUse" r="819.2" cx="0" cy="0" spreadMethod="pad" gradientTransform="matrix(-.009 0 0 .004 13.1 7.05)" id="e"><stop offset=".169" stop-color="#fff"/><stop offset=".831" stop-color="#606060"/><stop offset="1"/></radialGradient><radialGradient gradientUnits="userSpaceOnUse" r="819.2" cx="0" cy="0" spreadMethod="pad" gradientTransform="matrix(-.004 0 0 .004 6.8 19.3)" id="f"><stop offset="0" stop-color="#8F8F8F"/><stop offset=".51" stop-color="#fff"/><stop offset="1"/></radialGradient><radialGradient gradientUnits="userSpaceOnUse" r="819.2" cx="0" cy="0" spreadMethod="pad" gradientTransform="matrix(-.002 0 0 .002 22.3 9.15)" id="g"><stop offset="0" stop-color="#8F8F8F"/><stop offset=".51" stop-color="#fff"/><stop offset="1"/></radialGradient><radialGradient gradientUnits="userSpaceOnUse" r="819.2" cx="0" cy="0" spreadMethod="pad" gradientTransform="matrix(-.016 0 0 .004 24.35 18.3)" id="h"><stop offset=".169" stop-color="#fff"/><stop offset=".831" stop-color="#606060"/><stop offset="1"/></radialGradient><radialGradient gradientUnits="userSpaceOnUse" r="819.2" cx="0" cy="0" spreadMethod="pad" gradientTransform="matrix(0 0 0 0 26.7 19.75)" id="i"><stop offset="0" stop-color="#8F8F8F"/><stop offset=".51" stop-color="#fff"/><stop offset="1"/></radialGradient><radialGradient gradientUnits="userSpaceOnUse" r="819.2" cx="0" cy="0" spreadMethod="pad" gradientTransform="matrix(0 0 0 0 19.65 16.25)" id="j"><stop offset="0" stop-color="#8F8F8F"/><stop offset=".51" stop-color="#fff"/><stop offset="1"/></radialGradient><radialGradient gradientUnits="userSpaceOnUse" r="819.2" cx="0" cy="0" spreadMethod="pad" gradientTransform="matrix(-.003 0 0 .003 27.45 23.2)" id="k"><stop offset=".169" stop-color="#fff"/><stop offset=".831" stop-color="#606060"/><stop offset="1"/></radialGradient><radialGradient gradientUnits="userSpaceOnUse" r="819.2" cx="0" cy="0" spreadMethod="pad" gradientTransform="matrix(-.004 0 0 .004 29.8 23.8)" id="l"><stop offset="0" stop-color="#8F8F8F"/><stop offset=".51" stop-color="#fff"/><stop offset="1"/></radialGradient><radialGradient gradientUnits="userSpaceOnUse" r="819.2" cx="0" cy="0" spreadMethod="pad" gradientTransform="matrix(-.003 0 0 .003 29.15 25.1)" id="m"><stop offset="0" stop-color="#8F8F8F"/><stop offset=".51" stop-color="#fff"/><stop offset="1"/></radialGradient><radialGradient gradientUnits="userSpaceOnUse" r="819.2" cx="0" cy="0" spreadMethod="pad" gradientTransform="matrix(-.003 0 0 .003 28.9 26.35)" id="n"><stop offset="0" stop-color="#8F8F8F"/><stop offset=".51" stop-color="#fff"/><stop offset="1"/></radialGradient><radialGradient gradientUnits="userSpaceOnUse" r="819.2" cx="0" cy="0" spreadMethod="pad" gradientTransform="matrix(-.017 0 0 .017 29.25 33.3)" id="o"><stop offset="0" stop-color="#8F8F8F"/><stop offset=".51" stop-color="#fff"/><stop offset="1"/></radialGradient><radialGradient gradientUnits="userSpaceOnUse" r="819.2" cx="0" cy="0" spreadMethod="pad" gradientTransform="matrix(-.003 0 0 .003 29.75 28.25)" id="p"><stop offset="0" stop-color="#8F8F8F"/><stop offset=".51" stop-color="#fff"/><stop offset="1"/></radialGradient><radialGradient gradientUnits="userSpaceOnUse" r="819.2" cx="0" cy="0" spreadMethod="pad" gradientTransform="matrix(-.003 0 0 .003 29.75 29.6)" id="q"><stop offset="0" stop-color="#8F8F8F"/><stop offset=".51" stop-color="#fff"/><stop offset="1"/></radialGradient><radialGradient gradientUnits="userSpaceOnUse" r="819.2" cx="0" cy="0" spreadMethod="pad" gradientTransform="matrix(-.002 0 0 .002 21.05 27.7)" id="r"><stop offset="0" stop-color="#8F8F8F"/><stop offset=".51" stop-color="#fff"/><stop offset="1"/></radialGradient><radialGradient gradientUnits="userSpaceOnUse" r="819.2" cx="0" cy="0" spreadMethod="pad" gradientTransform="matrix(-.003 0 0 .016 4.95 21.9)" id="s"><stop offset=".169" stop-color="#fff"/><stop offset=".831" stop-color="#606060"/><stop offset="1"/></radialGradient><radialGradient gradientUnits="userSpaceOnUse" r="819.2" cx="0" cy="0" spreadMethod="pad" gradientTransform="matrix(-.005 0 0 .005 8.55 52.85)" id="t"><stop offset="0" stop-color="#8F8F8F"/><stop offset=".51" stop-color="#fff"/><stop offset="1"/></radialGradient><radialGradient gradientUnits="userSpaceOnUse" r="819.2" cx="0" cy="0" spreadMethod="pad" gradientTransform="matrix(-.004 0 0 .004 12.15 39.3)" id="u"><stop offset="0" stop-color="#8F8F8F"/><stop offset=".51" stop-color="#fff"/><stop offset="1"/></radialGradient><radialGradient gradientUnits="userSpaceOnUse" r="819.2" cx="0" cy="0" spreadMethod="pad" gradientTransform="matrix(-.01 0 0 .01 23.55 36.75)" id="v"><stop offset="0" stop-color="#8F8F8F"/><stop offset=".51" stop-color="#fff"/><stop offset="1"/></radialGradient><radialGradient gradientUnits="userSpaceOnUse" r="819.2" cx="0" cy="0" spreadMethod="pad" gradientTransform="matrix(-.011 0 0 .011 13.6 46.25)" id="w"><stop offset="0" stop-color="#8F8F8F"/><stop offset=".51" stop-color="#fff"/><stop offset="1"/></radialGradient><radialGradient gradientUnits="userSpaceOnUse" r="819.2" cx="0" cy="0" spreadMethod="pad" gradientTransform="matrix(-.004 0 0 .004 18.55 52.25)" id="x"><stop offset="0" stop-color="#8F8F8F"/><stop offset=".51" stop-color="#fff"/><stop offset="1"/></radialGradient><radialGradient gradientUnits="userSpaceOnUse" r="819.2" cx="0" cy="0" spreadMethod="pad" gradientTransform="matrix(-.006 0 .001 .02 53.3 15)" id="y"><stop offset=".169" stop-color="#fff"/><stop offset=".831" stop-color="#606060"/><stop offset="1"/></radialGradient><radialGradient gradientUnits="userSpaceOnUse" r="819.2" cx="0" cy="0" spreadMethod="pad" gradientTransform="matrix(0 0 0 0 34 7.45)" id="z"><stop offset="0" stop-color="#8F8F8F"/><stop offset=".51" stop-color="#fff"/><stop offset="1"/></radialGradient><radialGradient gradientUnits="userSpaceOnUse" r="819.2" cx="0" cy="0" spreadMethod="pad" gradientTransform="matrix(-.015 0 0 .015 48.9 20.25)" id="A"><stop offset="0" stop-color="#8F8F8F"/><stop offset=".51" stop-color="#fff"/><stop offset="1"/></radialGradient><radialGradient gradientUnits="userSpaceOnUse" r="819.2" cx="0" cy="0" spreadMethod="pad" gradientTransform="matrix(-.011 0 0 .011 38.65 16.1)" id="B"><stop offset="0" stop-color="#8F8F8F"/><stop offset=".51" stop-color="#fff"/><stop offset="1"/></radialGradient><radialGradient gradientUnits="userSpaceOnUse" r="819.2" cx="0" cy="0" spreadMethod="pad" gradientTransform="matrix(0 0 0 0 48.55 14.3)" id="C"><stop offset="0" stop-color="#8F8F8F"/><stop offset=".51" stop-color="#fff"/><stop offset="1"/></radialGradient><radialGradient gradientUnits="userSpaceOnUse" r="819.2" cx="0" cy="0" spreadMethod="pad" gradientTransform="matrix(-.008 0 0 .008 42.7 20.05)" id="D"><stop offset="0" stop-color="#8F8F8F"/><stop offset=".51" stop-color="#fff"/><stop offset="1"/></radialGradient><radialGradient gradientUnits="userSpaceOnUse" r="819.2" cx="0" cy="0" spreadMethod="pad" gradientTransform="matrix(-.004 0 0 .004 29.9 22.05)" id="E"><stop offset="0" stop-color="#8F8F8F"/><stop offset=".51" stop-color="#fff"/><stop offset="1"/></radialGradient><radialGradient gradientUnits="userSpaceOnUse" r="819.2" cx="0" cy="0" spreadMethod="pad" gradientTransform="matrix(-.005 0 0 .005 38 39.7)" id="F"><stop offset="0" stop-color="#8F8F8F"/><stop offset=".51" stop-color="#fff"/><stop offset="1"/></radialGradient><radialGradient gradientUnits="userSpaceOnUse" r="819.2" cx="0" cy="0" spreadMethod="pad" gradientTransform="matrix(-.003 0 0 .003 43.4 41.65)" id="G"><stop offset="0" stop-color="#8F8F8F"/><stop offset=".51" stop-color="#fff"/><stop offset="1"/></radialGradient><radialGradient gradientUnits="userSpaceOnUse" r="819.2" cx="0" cy="0" spreadMethod="pad" gradientTransform="matrix(-.01 0 0 .01 44.4 46.35)" id="H"><stop offset="0" stop-color="#8F8F8F"/><stop offset=".51" stop-color="#fff"/><stop offset="1"/></radialGradient><radialGradient gradientUnits="userSpaceOnUse" r="819.2" cx="0" cy="0" spreadMethod="pad" gradientTransform="matrix(-.003 0 0 .003 40.75 48.7)" id="I"><stop offset="0" stop-color="#8F8F8F"/><stop offset=".51" stop-color="#fff"/><stop offset="1"/></radialGradient><radialGradient gradientUnits="userSpaceOnUse" r="819.2" cx="0" cy="0" spreadMethod="pad" gradientTransform="matrix(-.004 0 0 .004 48.9 52.3)" id="J"><stop offset="0" stop-color="#8F8F8F"/><stop offset=".51" stop-color="#fff"/><stop offset="1"/></radialGradient><radialGradient gradientUnits="userSpaceOnUse" r="819.2" cx="0" cy="0" spreadMethod="pad" gradientTransform="matrix(-.003 .004 .018 .012 9.15 12)" id="K"><stop offset=".169" stop-color="#fff"/><stop offset=".831" stop-color="#606060"/><stop offset="1"/></radialGradient></defs><path fill="#333" d="M36.1 8.7l-1.85-1.25-.55.15h-.05l-.8.55-.75.75-.1.15-1.6 1.65-1.35.9h.05l.85.6 2.05.55q.55.3.6.9l-4.3.5q.05.4-.3.55l-.1.05-.1.25-.1.1-.3 1.05.05.35h.1l2.95-1.3 1.25-.9v.65l1.9-.05.65-.85.4-.8-1.55-1.05q-.65-.6-.6-1.5l1.95.35.75.25-.15-.9.25-.15-.4-.3q-.55-.5-.3-.75l1.2.1q.05-.5.25-.6m-9.4 12.55l.05.05v.05l2.35.3-1.45 1.15.4.2q.6.5 1.3.4l3.65-.15v-.05l-.2-.15q-1.3-.75-1.65-1.6l-2.45-.7q-1.1-.25-2 .5m4.75-4.15l1.3.7.3-.55q-.25-.6-.05-1.2l-1.2-.15-.35 1.2m.75 1.6l-.1-.05q-.8-.5-1.75-.6l-2.5 1-.5.15-.65.5.1.1 1.35-.05 2.15.5.75.3q.15-.7.85-1.45l.3-.4"/><path fill="url(#a)" d="M34.1 7.35l5.35-2.55-1.15.05q-3.75.25-7.15 1.3Q33.2 3.1 34.35 0q-2.8 3.05-5.45 6.5l.45-4.8-1.5 3.25-1.4 2.25q-1.1 1.4-1.2-.45.7-.55.7-1.7.05-.8-.25-1.45-.55-1.4-2.15-2.15-1.7-.8-3.65-.75l1.4.95q1.1.95 1.85 2.35l.05.1h.15q1.65.3 1.35 1.8l-.25 4.15L26.4 8.5l.7-.8-.05.7-.05.25v.4l.4-.35 2.45-1.3-1.25 3.35.55-.35 1.15-.9q.85-.8 1.85-1.3l1.5-.6h.05l.4-.25"/><path fill="url(#b)" d="M17.85 20.35l.25.45-.75 1.75q-.25.85.3 1.55l2.05 2.35.15.15 2.15.3v-.35l.05-.05q1.15-.7 2.5-.85.7-.1 1.2-.55l.25-.75v-1.4q.05-1.2.75-1.65l-.05-.05q-.35-.9-.1-1.45l.1-.1-1.75-.15q.85-.4 1.4-1l1.2-2.05h-.1l-.05-.35.3-1.05.1-.1.1-.25.1-.05q.35-.15.3-.55l-.05-.9q-.1-1 .45-1.4l.35-.25 1.35-.9L32 9.05l.1-.15.75-.75.8-.55-1.5.6q-1 .5-1.85 1.3l-1.15.9-.55.35 1.25-3.35-2.45 1.3-.4.35v-.4l.05-.25.05-.7-.7.8-1.95 1.55.25-4.15q.3-1.5-1.35-1.8h-.15q1.15 2.2-.8 3.05l-.2.15-.15.5.1.15q.45 1.15 1.2 1.75l-.5.85h-.55q-.55 1.4-.3 3.15v.1l-.1.6-.05.15q-.55 1.55-1.25.8l-.8.95q1.1.55.4 1.85l-.55.8-.05-.15-.1-.95-.1.35-.35.85-.85 1-.35.3M23.5 9.3l-.15.4.15-.4m2.6 3.95q.05 1.25-.65 1.65l-2.05 1.3-.15-2.2q-.05-.95.45-1.2l2.45-1.45-.05 1.9m-5.4 8.7l-.05 2.15q0 1.55-.6.15-.5-1.25.65-2.3m3.7 2.45l-.5.45-1.4.95-.45.7.45-.7 1.4-.95.5-.45"/><path fill="url(#c)" d="M21.25 8.9L21 6.65l-.5 2.65-.05.15-.1.3-.15 1.55.05.7.35 2.25v1.1q.7.75 1.25-.8l.05-.15.1-.6v-.1q-.25-1.75.3-3.15-.4-.1-.65-.5l-.15-.3-.25-.85"/><path fill="url(#d)" d="M20.45 9.45l-.5.2q-.75.15-1-.35l-.15-.75Q18.75 7 17.6 6.1l-.75-.6-1.25.15-1.05.3-1.75.7-.25.15L8.9 8.4l-1.95 4.4 2.3 1.4 1.95-3.3 1.25-1.35.8-.65.25-.35.25 2.3v1.7q.05-1.15.85-2.45l.7-.85.45-.2q.8-.05 1.3.4 1.1.95.6 2.35L17 12.85l-1.2.6q.85.05 1.25.85l.1.2.1.35.3-.45L19.1 13v1.05q-.05 1.25.35 2.1l.35.15.8-.95v-1.1L20.25 12l-.05-.7.15-1.55.1-.3"/><path fill="url(#e)" d="M16.85 5.5l-.4-.3.5-1.25 1.1-2.1-5.45 3.2-.25.1-.95.5-1.55 1.3L8.9 8.4l3.65-1.6.25-.15 1.75-.7 1.05-.3 1.25-.15"/><path fill="url(#f)" d="M6.1 15.95l-.8 4.1 1.2 2 .1.1.35.5.2-.35.55-1.1.65-4.05-2.25-1.2"/><path fill="url(#g)" d="M22.05 7.8l-.8 1.1.25.85.15.3q.25.4.65.5h.55l.5-.85q-.75-.6-1.2-1.75l-.1-.15"/><path fill="url(#h)" d="M27.55 16.5l-1.2 2.05q-.55.6-1.4 1l1.75.15.65-.5.5-.15 2.5-1 .45-.3.65-.65.35-1.2-.05-.95v-.65l-1.25.9-2.95 1.3"/><path fill="url(#i)" d="M26.7 19.7l-.1.1h.2l-.1-.1"/><path fill="url(#j)" d="M19.45 16.15l.15.2.2-.05-.35-.15"/><path fill="url(#k)" d="M25.75 25.1l.6-.8.1-.1.15-.25 1.05-1.15 1.45-1.15-2.35-.3v-.05q-.7.45-.75 1.65v1.4l-.25.75"/><path fill="url(#l)" d="M26.6 23.95V24l.25.2q.5.4 1.35.45l3 .15q1.1-.1 1.55-.75l.25-.8-3.65.15q-.7.1-1.3-.4l-.4-.2-1.05 1.15"/><path fill="url(#m)" d="M26.6 24l-.15.3.25.6v.05q.6.85 1.65 1.15l1.55.1 1.15-.1q1.45-.35.15-1.3l-3-.15q-.85-.05-1.35-.45l-.25-.2"/><path fill="url(#n)" d="M26.7 24.95q-.9.3-.15 1.5l.7.75.45.25 2.2.25 1.35-.35q.75-.45-.2-1.25l-1.15.1-1.55-.1q-1.05-.3-1.65-1.15"/><path fill="url(#o)" d="M27.75 29.45l-.3-.15q-.65-.4-1.7-.5h-.05l-2.25.35-2.7.7-1.05.05q-1.9.1-3.45-.55.55 2.2 2.1 3.95l.45.9q.2.75-1.1 2.05l.55.15 1.15-.1 2.7-1.05 2.8-.1 1.45-.05q.8 0 1.1-.45l.15-.55q.2-1.15 1-1.15 1.25 0 1.65 1l1 2.25.25.55q.6 1.1 1.7 1.15l.65-.1.2-.05h.05l3.25-.9.95-.25 3.85-.7q-.95-.35-1.75-1l-.3-.25-.65-.8-2.45-3.6q1.65 0 2.35.75l-.45-.75q-1.15-1.95-3.05-1.4-1 .25-1.55 1-1.5 2.2-2.8.25l-2 .3q-1.8-.05-1.75-.95m10.3 6.95l.25.2-.25-.2m-.95.25l.25.2-.25-.2m-.25-1.75q-1.2-.8-3.4-.35-1.7.3-1.15-1.3.15-.55 1.45-1.25 1.15.15 1.9.7.75.5 1.15 1.35l.4.9.1.35-.45-.4M25.8 31.55l-.7.7-.8.5-1.5.5q-.9.2-1.8 0l2.05-1.8 1-.45.35-.1 2.45.25-1.05.4m9.85 1.15q-.8-1.25-1.9-.7 1.1-.55 1.9.7"/><path fill="url(#p)" d="M27.7 27.45q-.05.85.3 1.3.55.55 1.9.45l1.5-.3q.9-.4-.15-1.55l-1.35.35-2.2-.25"/><path fill="url(#q)" d="M28 28.75l-.25.7q-.05.9 1.75.95l2-.3q.55-.35-.1-1.2l-1.5.3q-1.35.1-1.9-.45"/><path fill="url(#r)" d="M19.85 26.6l.85.9 1.55 1.3-.25-1.9-2.15-.3"/><path fill="url(#s)" d="M5.3 20.05l-1 3.5q-.9 3.2.2 3.4l.1.05q.5 0 1.1.55 1.05 1 2.5 3.65-1.45-4.9-1.15-5.25l.15-.45-.2-1.25-.05-1.6-.35-.5-.1-.1-1.2-2"/><path fill="url(#t)" d="M8.45 51.45q-1.05.3-2.1-.65L6 50.6l-.4-.15-.75.05-.95.35-.95 1.05-.65 1.15-.2.75q-.15.65.5 1.35l.45.35 1.85 1.2 1.75.55q-2.2-1.3-.35-2.25.8-.45 1.75-.65l.65-.1h1.5q-.8-1-1.9-1.5l.15-1.3"/><path fill="url(#u)" d="M13.65 37.85l-.45.45q-.65.8-1.85.25-1.7-.8-.6-2.65l.4-.3q-3.15.65-2.7 3.5.2 1.2.85 1.95l.45.4.65.35.85.3q.05-.8.45-1.35l.4-.45v.4l-.2.8.9-.95.35-.65.5-2.05"/><path fill="url(#v)" d="M18.25 36.4q-2.3.65-2.4 1.55l-.05.05q.9.8 1.8.95-.5 1.15.1 1.45l.65.15h.05l.65-.05.65-.35.05-.05q.75-.9 4.45-2.45l1.25-.5-.25-.4-.3-1.6.3 1.6.25.4.1-.05-.05.1.35.3.1.15 2.6 1.5 1.9.65v-.3l-.05-.35q-.25-1.85.85-2.95l-1-2.25q-.4-1-1.65-1-.8 0-1 1.15l-.15.55q-.3.45-1.1.45l-1.45.05-2.8.1-2.7 1.05-1.15.1"/><path fill="url(#w)" d="M15.45 37.65l-.25-.1q-.75-.4-1.55.3l-.5 2.05-.35.65-.9.95.2-.8v-.4l-.4.45q-.4.55-.45 1.35h.05l.6.85.7 1.45.5 2 .1 1.7-.2 2-1-.45-2.45-.1-.6.5-.1.15-.4 1.2v.05l-.15 1.3q1.1.5 1.9 1.5l.6.9.8-.35 3.3-1.1q.65-.85-.15-2.1l1.5-.25q.5.1.9.5l.05.1.2.05q.35-1.15 1-1.5l.4-.15q-.05-.85-1.15-1.05l-.95-.3-.4-.3-.1-.25-.05-.55.3-.6.25-.25q1.05-1 1.4-2.35-1.05-.2-1.25-.85-.2-.65.35-1.7 2.3.25 1.2-1.6h-.05l-.65-.15q-.6-.3-.1-1.45-.9-.15-1.8-.95l-.35-.35"/><path fill="url(#x)" d="M17.4 52l1.45.4q1.25.3 2.1 1l1.15 1.2-.85-2.25-.05-.15q-.6-1.35-2.8-1.7-.65.35-1 1.5"/><path fill="url(#y)" d="M50.5 32.45l-.25.75 1.95-2.3.7-1 1.35-2.5q1.85-4.15 2.25-8.65.3-3.5-.2-6.85l-.45-2.15q-.35-1.6-1.65-2.55-1.3-1-2.85-1.55-1.4-.5-2.65-1.15l.05.65.9 2.35q.55 1.7.4 3.35l-.05.5-.2-.9q-.7-2.2-2.45-3.65-.3.65-.05 1.9l.15 4.85q0 1.5.15 2.6l.8-1.5v-.05l.2-.6.9-2.75.35.55L51 13.2v-.85l.4-4.25.1.8.95 3.85q.2.9.85 1.5l.45.3q.7.3 1-.85l.1-.3-.4 6.75q-.15 1.95-.7 3.85l-2.7 7.5-.55.95"/><path fill="url(#z)" d="M34.25 7.45l-.15-.1-.4.25.55-.15"/><path fill="url(#A)" d="M42.9 26.4q.35.5.3 1.4 0 .9.3 1.45.35.5 1.4.55.3-.85.2-1.75l.75.45 1.35.5q.4-1.3 1.3-2.4l.85-1.7.3-2.6q.1-1.15.6-2.05.05.5.5.7l.7.7-.5-1.6-.35-2.15v-.45l.3-1.9.65.55.2.4q.5 1 .5 2l.1 4.15q0 3.05-.75 6l-1.1 3.8.55-.95 2.7-7.5q.55-1.9.7-3.85l.4-6.75-.1.3q-.3 1.15-1 .85l-.45-.3q-.65-.6-.85-1.5L51.5 8.9l-.1-.8-.4 4.25v.85l-1.15-1.4-.35-.55-.9 2.75.05.2q.25 1.2.15 2.5l-.35 2.85-.75 2.65-.95 2.1-.05.3q-.25.8-1.5.8-.95-.05-1.45.5l-.85.5"/><path fill="url(#B)" d="M33.05 23.25l.6.1q2.2.55 3.2-.75l2.05-2.75.8-.7-.05-.15-.25-1.1q0-.85-.45-1.45-.35-.45-.35-1 .15-1.75 1.5-1 1.25-1.25 2.15-.35 1 1.05.15 2.25l.4 1.85q1.25.45 1.8 1.8l.25-.5q.6-1.05.55-2.35 0-1.6-.75-2.45l1.6 1.45-.7-1.9q-.3-1.45-1.45-2.1l-.4-.25-2.2-1.15q-1.15-.6-2.5-.85-1.35-.3-2.55-1l-.35-.2q-.2.1-.25.6l1.25.7q1.05.95 1.6 2.2l-2.05-1.15-1.3-.8-.25.15.15.9q.85.5 1.15 1.55l.15 1.45-1.65-.9-.2-.15-.4.8-.65.85.7.3.3.6-.6.25H33q-.2.6.05 1.2l-.3.55.9.2 2.85-.2.9.15q.4.4 0 .65-1.15.75-2.7.7-1.45-.05-2.5-.6l-.3.4q-.7.75-.85 1.45l1.9.25 2.85-.5q.6-.2.7.5-.75.8-2.3 1.05l-2.8-.35-.25-.05q.35.85 1.65 1.6l.2.15.05.05"/><path fill="url(#C)" d="M48.4 14.65l.25-.45-.05-.2-.2.6v.05"/><path fill="url(#D)" d="M39.7 19.15l1.1 1.65.5 1.15.4 1.55.05.8-.15.3q-.4 1 .4 1.55l.9.25.85-.5q.5-.55 1.45-.5 1.25 0 1.5-.8l.05-.3v-.4q-.15-1.45-1.55-1.7l-.75.1-1.65-4.1-.4-1.85q.85-1.2-.15-2.25-.9-.9-2.15.35-1.35-.75-1.5 1 0 .55.35 1 .45.6.45 1.45l.25 1.1.05.15m2.3 4.8l-.25.35.25-.35m2.5-1.4l-.05-.25.05.25"/><path fill="url(#E)" d="M33 23.25h.05L33 23.2v.05"/><path fill="url(#F)" d="M34.1 37.75l.3.35 1.2.8 1.05.5q.95.35.95 1.1 0 1.1.7 1.85l1.55.1.25-.1q1.15-.45.8-1.55-.25-.9.15-1.15l.6-.45.05-.05.1-.05q.4-.4-.35-1-.8-.75-2.35-.7l-.75-.1-1-.45-3.25.9"/><path fill="url(#G)" d="M44.6 42.65l.8-.9q.95-.8 1.1-2v-.15q.1-.85-.25-1.35-.3 1.6-1.8.95l-1.05-.25q.9 1.6-.1 2.3l1.3 1.4"/><path fill="url(#H)" d="M44.6 42.65l-1.3-1.4q1-.7.1-2.3l-1.6.2h-.1l-.05.05-.6.45q-.4.25-.15 1.15.35 1.1-.8 1.55l-.25.1q.65.15 1.05.55l.45.6.1.2q.25.6.1 1.2-.15.55-.7.75 1.3 1.05 1.25 2.65l-.45.2q-.6.4-.95 1.15v.05l-.05.1q-.6 1.35.75 1.7l.1-.9 1.05-.05q2.05-.1 1.9 2 1.5.05 2.05 1.2l.65-.2.1-.1.2-.3q.55-1.4 1.3-2.3l.2-.2q-.65-.95-2.1-1.2l-1.35-.35q-.65-.3-.7-.9-.05-1.35.2-2.65v-.1h-.05l-.25-.3-.35-.7-.05-.95.3-.95m-2.55 6.15l.05-.4-.05.4"/><path fill="url(#I)" d="M41.65 48.6q-1.05-.9-2.75-.75-1.5.15-2.65 1l2.7.3.8.2.95.4q.35-.75.95-1.15"/><path fill="url(#J)" d="M47.15 53.65l.15.3q.8.35.65 1.25-.05.6-.55.85l2-.3q1.55-.2 2.4-1.4 1.05-1.45-.35-2.4-1.2-.85-2.7-1-.75.9-1.3 2.3l-.2.3-.1.1"/><path fill="url(#K)" d="M6.95 12.8l-2.1-1.7q-1.1-1-1.55-2.45-.3-1.25 0-2.5l.75-3.1L.5 8.1q-.9 1.45-.1 2.7l2.25 2.65 3.45 2.5 2.25 1.2 2.5 1.3 1.9.6.55.25q.25-1.5 2.4-1l.6.05.1.05q.8.45 1.2 1.25l.25.65v.05l.35-.3.85-1 .35-.85.1-.35.1.95.05.15.55-.8q.7-1.3-.4-1.85l-.2.05-.15-.2q-.4-.85-.35-2.1V13l-1.55 1.4-.3.45-.45 1.55q-1.55-.45-2.2-1.8l-.2-.45-.15.35-.25 1.55q-2.5-.65-4.75-1.85l-2.3-1.4"/><path fill="none" stroke="#666" stroke-width=".05" stroke-linecap="round" stroke-miterlimit="3" d="M6.1 15.95l-.8 4.1-1 3.5q-.9 3.2.2 3.4l.1.05M7 24.25l-.05-1.6.2-.35.55-1.1.65-4.05m9.5 3.2l.25.45-.75 1.75q-.25.85.3 1.55l2.05 2.35.15.15.85.9 1.55 1.3-.25-1.9v-.35l.05-.05q1.15-.7 2.5-.85.7-.1 1.2-.55l.6-.8.1-.1.15-.25V24l-.15.3.25.6v.05q-.9.3-.15 1.5l.7.75.45.25q-.05.85.3 1.3l-.25.7-.3-.15q-.65-.4-1.7-.5h-.05l-2.25.35-2.7.7-1.05.05m-1.35 3.4l.45.9q.2.75-1.1 2.05l.55.15q-2.3.65-2.4 1.55l-.4-.3-.25-.1q-.75-.4-1.55.3l-.45.45m-3.9 2.75l.45.4.65.35.85.3h.05l.6.85.7 1.45.5 2 .1 1.7-.2 2-1-.45-2.45-.1-.6.5-.1.15-.4 1.2v.05q-1.05.3-2.1-.65L6 50.6m2.05 3.75l.65-.1h1.5l.6.9.8-.35 3.3-1.1q.65-.85-.15-2.1l1.5-.25q.5.1.9.5l.05.1.2.15V52l1.45.4q1.25.3 2.1 1m.3-1.05l-.05-.15q-.6-1.35-2.8-1.7l.4-.15q-.05-.85-1.15-1.05l-.95-.3-.4-.3-.1-.25-.05-.55.3-.6.25-.25q1.05-1 1.4-2.35-1.05-.2-1.25-.85-.2-.65.35-1.7 2.3.25 1.2-1.6l.65-.05.65-.35.05-.05q.75-.9 4.45-2.45l1.25-.5.05.05.35.3.1.15 2.6 1.5 1.9.65v-.3l-.05-.35q-.25-1.85.85-2.95l.25.55q.6 1.1 1.7 1.15l.65-.1.2-.05h.05l.3.35 1.2.8 1.05.5q.95.35.95 1.1 0 1.1.7 1.85l1.55.1q.65.15 1.05.55l.45.6.1.2q.25.6.1 1.2-.15.55-.7.75 1.3 1.05 1.25 2.65l-.45.2q-.6.4-.95 1.15v.05l-.05.1q-.6 1.35.75 1.7l.1-.9 1.05-.05q2.05-.1 1.9 2 1.5.05 2.05 1.2l.65-.2.15.3m-8.35-4.8l.8.2.95.4m8.05 1.2l.2-.2q-.65-.95-2.1-1.2l-1.35-.35q-.65-.3-.7-.9-.05-1.35.2-2.65v-.1h-.05l-.25-.3-.35-.7-.05-.95.3-.95.8-.9m-3.6-2.6h-.1l.1-.05q.4-.4-.35-1-.8-.75-2.35-.7l-.75-.1-1-.45.95-.25 3.85-.7q-.95-.35-1.75-1l-.3-.25-.65-.8-2.45-3.6q1.65 0 2.35.75l-.45-.75q-1.15-1.95-3.05-1.4-1 .25-1.55 1-1.5 2.2-2.8.25.55-.35-.1-1.2.9-.4-.15-1.55.75-.45-.2-1.25 1.45-.35.15-1.3 1.1-.1 1.55-.75l.25-.8h.05l.6.1q2.2.55 3.2-.75l2.05-2.75.8-.7 1.1 1.65.5 1.15.4 1.55.05.8-.15.3q-.4 1 .4 1.55l.9.25q.35.5.3 1.4 0 .9.3 1.45.35.5 1.4.55.3-.85.2-1.75l.75.45 1.35.5q.4-1.3 1.3-2.4l.85-1.7.3-2.6q.1-1.15.6-2.05.05.5.5.7l.7.7-.5-1.6-.35-2.15v-.45l.3-1.9.65.55.2.4q.5 1 .5 2l.1 4.15q0 3.05-.75 6m2.65-1.25q1.85-4.15 2.25-8.65.3-3.5-.2-6.85l-.45-2.15m-6.2-2.25q.55 1.7.4 3.35l-.05.5-.2-.9m-1.4 4.2l.25-.45q.25 1.2.15 2.5l-.35 2.85-.75 2.65-.95 2.1v-.4q-.15-1.45-1.55-1.7l-.75.1-1.65-4.1q1.25.45 1.8 1.8l.25-.5q.6-1.05.55-2.35 0-1.6-.75-2.45l1.6 1.45-.7-1.9q-.3-1.45-1.45-2.1l-.4-.25-2.2-1.15q-1.15-.6-2.5-.85-1.35-.3-2.55-1l-.35-.2-1.85-1.25-.15-.1 5.35-2.55-1.15.05q-3.75.25-7.15 1.3m-2.25.35l.45-4.8-1.5 3.25-1.4 2.25q-1.1 1.4-1.2-.45M23.15 4l.05.1q1.15 2.2-.8 3.05l-.2.15-.15.5-.8 1.1L21 6.65l-.5 2.65-.05.15-.5.2q-.75.15-1-.35l-.15-.75Q18.75 7 17.6 6.1l-.75-.6-.4-.3m-3.85-.15l-.25.1-.95.5-1.55 1.3L8.9 8.4l-1.95 4.4m10.3 2.05l-.1-.35-.1-.2q-.4-.8-1.25-.85l1.2-.6.65-1.05q.5-1.4-.6-2.35-.5-.45-1.3-.4l-.45.2-.7.85q-.8 1.3-.85 2.45v-1.7l-.25-2.3-.25.35-.8.65-1.25 1.35-1.95 3.3m6.2 23.45l.35.35q.9.8 1.8.95-.5 1.15.1 1.45l.65.15h.05M22.05 7.8l.1.15q.45 1.15 1.2 1.75l-.5.85h-.55q-.4-.1-.65-.5l-.15-.3-.25-.85m2.1.8l.15-.4m-3.05.15l-.1.3-.15 1.55.05.7.35 2.25v1.1l-.8.95m13.9-8.7h-.05l-.8.55-.75.75-.1.15-1.6 1.65-1.35.9-.35.25q-.55.4-.45 1.4l.05.9q.05.4-.3.55l-.1.05-.1.25-.1.1-.3 1.05.05.35h.1m-.85 3.2l-.1.1q-.25.55.1 1.45l.05.05v.05l2.35.3-1.45 1.15-1.05 1.15m8.75-13.7l-.4-.3q-.55-.5-.3-.75l1.2.1 1.25.7q1.05.95 1.6 2.2l-2.05-1.15-1.3-.8m-.1 1.05l-.75-.25-1.95-.35q-.05.9.6 1.5l1.55 1.05m-1.05 1.65l-1.9.05m-1.25.25l-2.95 1.3m6.55-9.15l-.4.25m-4.65 4h.05l.85.6 2.05.55q.55.3.6.9l-4.3.5m2.05 3.9l.45-.3.65-.65 1.3.7.9.2 2.85-.2.9.15q.4.4 0 .65-1.15.75-2.7.7-1.45-.05-2.5-.6l-.1-.05q-.8-.5-1.75-.6l-2.5 1-.5.15-.65.5m.1.1h-.2m8.65-8.5q.85.5 1.15 1.55l.15 1.45-1.65-.9-.2-.15m-1.05 1.65l.7.3.3.6-.6.25H33l-1.2-.15-.35 1.2m-.4 3.45l-.75-.3-2.15-.5-1.35.05m4.25.75l1.9.25 2.85-.5q.6-.2.7.5-.75.8-2.3 1.05l-2.8-.35-.25-.05-2.45-.7q-1.1-.25-2 .5M26.6 24l.25.2q.5.4 1.35.45l3 .15m-3.55-2l.4.2q.6.5 1.3.4l3.65-.15m-6.9-10l.05-1.9-2.45 1.45q-.5.25-.45 1.2l.15 2.2 2.05-1.3q.7-.4.65-1.65m-5.4 8.7q-1.15 1.05-.65 2.3.6 1.4.6-.15l.05-2.15M48.6 14l.05.2m-1.9 10.1l-.05.3q-.25.8-1.5.8-.95-.05-1.45.5l-.85.5m-3.2-7.25l-.05-.15-.25-1.1q0-.85-.45-1.45-.35-.45-.35-1 .15-1.75 1.5-1 1.25-1.25 2.15-.35 1 1.05.15 2.25l.4 1.85m1.65 4.1l.05.25m-2.75 1.75l.25-.35m-4.65 12.9l-.25-.2m1.2-.05l-.25-.2m-1.2-1.5q-1.2-.8-3.4-.35-1.7.3-1.15-1.3.15-.55 1.45-1.25 1.15.15 1.9.7.75.5 1.15 1.35l.4.9.1.35-.45-.4m4.85 4.25l-.05.05-.6.45q-.4.25-.15 1.15.35 1.1-.8 1.55l-.25.1m2.25 5.95l-.05.4m-20-22.3l.45-.7 1.4-.95.5-.45m1.4 7.15l1.05-.4-2.45-.25-.35.1-1 .45-2.05 1.8q.9.2 1.8 0l1.5-.5.8-.5.7-.7m-.9 3.6l.3 1.6.25.4.1-.05-.05.1m-7.25-.8l1.15-.1 2.7-1.05 2.8-.1 1.45-.05q.8 0 1.1-.45l.15-.55q.2-1.15 1-1.15 1.25 0 1.65 1l1 2.25M26.7 24.95q.6.85 1.65 1.15l1.55.1 1.15-.1m-3.35 1.35l2.2.25 1.35-.35m.15 1.55l-1.5.3q-1.35.1-1.9-.45m3.5 1.35l-2 .3q-1.8-.05-1.75-.95m6 2.55q1.1-.55 1.9.7m1.7 4.15l-3.25.9M17.4 52q.35-1.15 1-1.5m-1.2 1.45l.2.05m29.75 1.65l.1-.1.2-.3q.55-1.4 1.3-2.3m-40.3.5l-.15 1.3q1.1.5 1.9 1.5"/><path fill="none" stroke="#CFCFCF" stroke-width=".05" stroke-linecap="round" stroke-miterlimit="3" d="M17.25 14.85l.3-.45m1.9 1.75l.15.2.2-.05"/><path fill="none" stroke="#6F6F6F" stroke-width=".05" stroke-linecap="round" stroke-miterlimit="3" d="M6.95 12.8l-2.1-1.7q-1.1-1-1.55-2.45-.3-1.25 0-2.5l.75-3.1m2.9 9.75l2.3 1.4q2.25 1.2 4.75 1.85l.25-1.55.15-.35.2.45q.65 1.35 2.2 1.8l.45-1.55m.3-.45L19.1 13v1.05q-.05 1.25.35 2.1"/><path fill="none" stroke="#B8B8B8" stroke-width=".05" stroke-linecap="round" stroke-miterlimit="3" d="M4.05 3.05L.5 8.1q-.9 1.45-.1 2.7"/><path fill="none" stroke="#6B6B6B" stroke-width=".05" stroke-linecap="round" stroke-miterlimit="3" d="M.4 10.8l2.25 2.65 3.45 2.5 2.25 1.2 2.5 1.3 1.9.6.55.25q.25-1.5 2.4-1l.6.05.1.05q.8.45 1.2 1.25l.25.65v.05"/></svg>