<svg xmlns="http://www.w3.org/2000/svg" viewBox="0 0 29.1 27.8" width="29.1" height="27.8"><defs><radialGradient gradientUnits="userSpaceOnUse" r="819.2" cx="0" cy="0" spreadMethod="pad" gradientTransform="matrix(.004 0 0 .004 24.7 5.55)" id="a"><stop offset="0" stop-color="#ccc"/><stop offset=".573" stop-color="#c00"/><stop offset="1" stop-color="#fc0"/></radialGradient><radialGradient gradientUnits="userSpaceOnUse" r="819.2" cx="0" cy="0" spreadMethod="pad" gradientTransform="matrix(.004 0 0 .002 23.1 4.05)" id="b"><stop offset="0" stop-color="#ccc"/><stop offset=".573" stop-color="#c00"/><stop offset="1" stop-color="#fc0"/></radialGradient><radialGradient gradientUnits="userSpaceOnUse" r="819.2" cx="0" cy="0" spreadMethod="pad" gradientTransform="matrix(.01 0 0 .01 16.2 6)" id="c"><stop offset="0" stop-color="#ccc"/><stop offset=".573" stop-color="#c00"/><stop offset="1" stop-color="#fc0"/></radialGradient><radialGradient gradientUnits="userSpaceOnUse" r="819.2" cx="0" cy="0" spreadMethod="pad" gradientTransform="matrix(.003 0 0 .003 21.75 3.5)" id="d"><stop offset="0" stop-color="#ccc"/><stop offset=".573" stop-color="#c00"/><stop offset="1" stop-color="#fc0"/></radialGradient><radialGradient gradientUnits="userSpaceOnUse" r="819.2" cx="0" cy="0" spreadMethod="pad" gradientTransform="matrix(.004 0 0 .004 14 4)" id="e"><stop offset="0" stop-color="#ccc"/><stop offset=".573" stop-color="#c00"/><stop offset="1" stop-color="#fc0"/></radialGradient><radialGradient gradientUnits="userSpaceOnUse" r="819.2" cx="0" cy="0" spreadMethod="pad" gradientTransform="matrix(.002 0 0 .002 18.3 6.05)" id="f"><stop offset="0" stop-color="#fff"/><stop offset=".204" stop-color="#f00"/><stop offset=".694"/></radialGradient><radialGradient gradientUnits="userSpaceOnUse" r="819.2" cx="0" cy="0" spreadMethod="pad" gradientTransform="matrix(.016 0 0 .016 17.75 17.2)" id="g"><stop offset="0" stop-color="#ccc"/><stop offset=".573" stop-color="#c00"/><stop offset="1" stop-color="#fc0"/></radialGradient><radialGradient gradientUnits="userSpaceOnUse" r="819.2" cx="0" cy="0" spreadMethod="pad" gradientTransform="matrix(.006 0 0 .006 17.8 12.75)" id="h"><stop offset="0"/><stop offset=".573" stop-color="#f00"/><stop offset="1"/></radialGradient><radialGradient gradientUnits="userSpaceOnUse" r="819.2" cx="0" cy="0" spreadMethod="pad" gradientTransform="matrix(.005 0 0 .005 22.75 15.3)" id="i"><stop offset="0" stop-color="#ccc"/><stop offset=".573" stop-color="#c00"/><stop offset="1" stop-color="#fc0"/></radialGradient><radialGradient gradientUnits="userSpaceOnUse" r="819.2" cx="0" cy="0" spreadMethod="pad" gradientTransform="matrix(.005 0 0 .002 27.25 5.9)" id="j"><stop offset="0" stop-color="#ccc"/><stop offset=".573" stop-color="#c00"/><stop offset="1" stop-color="#fc0"/></radialGradient><radialGradient gradientUnits="userSpaceOnUse" r="819.2" cx="0" cy="0" spreadMethod="pad" gradientTransform="matrix(.003 .001 -.001 .002 25.6 7.95)" id="k"><stop offset="0" stop-color="#ccc"/><stop offset=".573" stop-color="#c00"/><stop offset="1" stop-color="#fc0"/></radialGradient><radialGradient gradientUnits="userSpaceOnUse" r="819.2" cx="0" cy="0" spreadMethod="pad" gradientTransform="matrix(.003 0 0 .003 26.25 22.65)" id="l"><stop offset="0" stop-color="#ccc"/><stop offset=".573" stop-color="#c00"/><stop offset="1" stop-color="#fc0"/></radialGradient><radialGradient gradientUnits="userSpaceOnUse" r="819.2" cx="0" cy="0" spreadMethod="pad" gradientTransform="matrix(.004 0 0 .004 23.2 22.3)" id="m"><stop offset="0" stop-color="#ccc"/><stop offset=".573" stop-color="#c00"/><stop offset="1" stop-color="#fc0"/></radialGradient><radialGradient gradientUnits="userSpaceOnUse" r="819.2" cx="0" cy="0" spreadMethod="pad" gradientTransform="matrix(.003 0 0 .003 14.3 15.5)" id="n"><stop offset="0" stop-color="#ccc"/><stop offset=".573" stop-color="#c00"/><stop offset="1" stop-color="#fc0"/></radialGradient><radialGradient gradientUnits="userSpaceOnUse" r="819.2" cx="0" cy="0" spreadMethod="pad" gradientTransform="matrix(.001 0 0 .001 19.1 22.75)" id="o"><stop offset="0" stop-color="#ccc"/><stop offset=".573" stop-color="#c00"/><stop offset="1" stop-color="#fc0"/></radialGradient><radialGradient gradientUnits="userSpaceOnUse" r="819.2" cx="0" cy="0" spreadMethod="pad" gradientTransform="matrix(.005 0 0 .002 7.25 4.05)" id="p"><stop offset="0" stop-color="#ccc"/><stop offset=".573" stop-color="#c00"/><stop offset="1" stop-color="#fc0"/></radialGradient><radialGradient gradientUnits="userSpaceOnUse" r="819.2" cx="0" cy="0" spreadMethod="pad" gradientTransform="matrix(.007 0 0 .007 6.7 6.55)" id="q"><stop offset="0" stop-color="#ccc"/><stop offset=".573" stop-color="#c00"/><stop offset="1" stop-color="#fc0"/></radialGradient><radialGradient gradientUnits="userSpaceOnUse" r="819.2" cx="0" cy="0" spreadMethod="pad" gradientTransform="matrix(.003 .003 -.001 .002 1.85 3.35)" id="r"><stop offset="0" stop-color="#ccc"/><stop offset=".573" stop-color="#c00"/><stop offset="1" stop-color="#fc0"/></radialGradient><radialGradient gradientUnits="userSpaceOnUse" r="819.2" cx="0" cy="0" spreadMethod="pad" gradientTransform="matrix(.003 .002 -.001 .002 4 1.2)" id="s"><stop offset="0" stop-color="#ccc"/><stop offset=".573" stop-color="#c00"/><stop offset="1" stop-color="#fc0"/></radialGradient><radialGradient gradientUnits="userSpaceOnUse" r="819.2" cx="0" cy="0" spreadMethod="pad" gradientTransform="matrix(.005 0 0 .003 2.75 6.65)" id="t"><stop offset="0" stop-color="#ccc"/><stop offset=".573" stop-color="#c00"/><stop offset="1" stop-color="#fc0"/></radialGradient><radialGradient gradientUnits="userSpaceOnUse" r="819.2" cx="0" cy="0" spreadMethod="pad" gradientTransform="matrix(.002 0 0 .002 12.55 8.05)" id="u"><stop offset="0" stop-color="#fff"/><stop offset=".204" stop-color="#f00"/><stop offset=".694"/></radialGradient><radialGradient gradientUnits="userSpaceOnUse" r="819.2" cx="0" cy="0" spreadMethod="pad" gradientTransform="matrix(.002 0 0 .002 8.65 7.05)" id="v"><stop offset="0" stop-color="#ccc"/><stop offset=".573" stop-color="#c00"/><stop offset="1" stop-color="#fc0"/></radialGradient><radialGradient gradientUnits="userSpaceOnUse" r="819.2" cx="0" cy="0" spreadMethod="pad" gradientTransform="matrix(.003 0 0 .003 8.1 10.35)" id="w"><stop offset="0" stop-color="#ccc"/><stop offset=".573" stop-color="#c00"/><stop offset="1" stop-color="#fc0"/></radialGradient><radialGradient gradientUnits="userSpaceOnUse" r="819.2" cx="0" cy="0" spreadMethod="pad" gradientTransform="matrix(.005 0 0 .005 6.25 19.9)" id="x"><stop offset="0" stop-color="#ccc"/><stop offset=".573" stop-color="#c00"/><stop offset="1" stop-color="#fc0"/></radialGradient><radialGradient gradientUnits="userSpaceOnUse" r="819.2" cx="0" cy="0" spreadMethod="pad" gradientTransform="matrix(.003 0 0 .003 8.45 21.55)" id="y"><stop offset="0" stop-color="#ccc"/><stop offset=".573" stop-color="#c00"/><stop offset="1" stop-color="#fc0"/></radialGradient><radialGradient gradientUnits="userSpaceOnUse" r="819.2" cx="0" cy="0" spreadMethod="pad" gradientTransform="matrix(.002 0 0 .002 7.1 20.5)" id="z"><stop offset="0" stop-color="#ccc"/><stop offset=".573" stop-color="#c00"/><stop offset="1" stop-color="#fc0"/></radialGradient><radialGradient gradientUnits="userSpaceOnUse" r="819.2" cx="0" cy="0" spreadMethod="pad" gradientTransform="matrix(.004 0 0 .004 12.35 21.9)" id="A"><stop offset="0" stop-color="#ccc"/><stop offset=".573" stop-color="#c00"/><stop offset="1" stop-color="#fc0"/></radialGradient><radialGradient gradientUnits="userSpaceOnUse" r="819.2" cx="0" cy="0" spreadMethod="pad" gradientTransform="matrix(.005 0 0 .003 27.05 2.9)" id="B"><stop offset="0" stop-color="#ccc"/><stop offset=".573" stop-color="#c00"/><stop offset="1" stop-color="#fc0"/></radialGradient></defs><path fill="#fff" d="M19.9 5.3l1 .25h.35q-.45.15-.75.6l-.5.7.1-.4q.1-.6-.2-1.15m-2.7 2l-.75.1-.3.15q.45-.35.35-1.05v-.3l.1.2.6.9m3.65 2.75l.1.15.05.6-.05 1.4-.2.45-.7.75.2-1.1-.05-1-.25-.9-.05-.2q.1-.55.65-.35l.3.2m-.25 4.85h-.15l-.05-1.05q.35.4.25.9l-.05.15m-6.55-6.05l.05-.55-.05-1.25.95.75.35.1q-.7.05-.95.5l-.35.45M11 7.8l.05.2.5 1.05.3.35-1.1-.05q.3-.25.2-.8-.05-.4.05-.75m3.35 4.15v-.35q.2-.25.5-.2l.5.2.2.5.1 1 .3 1.15-.7-.55-.7-.95-.2-.8m3.5-.8l.1-.15q.1-.2.45-.1l.3.2v.05q.2.4 0 .85l-.2 1-.4-1.05-.1-.2-.15-.6m1.55-.7l.15.15.15.25-.05.9-.4.9-.1-1-.2-.7-.15-.3v-.05l.15-.2.45.05m-2.6.75v-.15h.35l.4.45.1.7-.05.85-.65-.95-.15-.9m-1 .55q-.25-.2.05-.5l.45.05q.35.4.25 1l.05.85-.55-.6-.25-.8m3.75 2l.65.65.05.2-.1.15-.25.35-.45-1.3v-.1l.1.05m-1.2 1.2l.15.6-.05.1-.45.3-.15-.3-.1-.35-.05-1.25.15.15.5.75m.4-.95l.3.25.55.9q.1.3-.15.4h-.6l-.05-1.45-.05-.1m-3.05.9l.55.85.15.05v.15l-.5-.2-.2-.3v-.55m.8-.45q.25.75 1 1.15v.05l-.45.35-.4-.3-.25-.55.1-.7"/><path fill="url(#a)" d="M25.05 3.25l.05.1q.6.85 2.1.65l.75-.1q-.2.45-.05.95h-.05L26.4 4.8q-1.6.25-.85 1.3l.45.4 1.3.45-.6.85q-.8-.5-1.8-.7-.55-.1-.75.15-.5-.15-1.1 0l-.75-.1-.2-.2-.05-.05H22l-.45-.25.05-.35.5-1.2.05-.05q.9-.7 2.25-1.05l.35-.35-.15-.3.45-.1"/><path fill="url(#b)" d="M24.6 3.35l.15.3-.35.35q-1.35.35-2.25 1.05l-.05.05q-.45.3-.6-.2V4.45q0-1.15 1.45-1.45l.75-.1q.65 0 .9.45"/><path fill="url(#c)" d="M22.1 5.1l-.5 1.2-.05.35-.25.5q-.35 1.05-1.4 1.15l-.25.1-1.5.35q-1.45.2-2.05-.9.15.75-.4 1.45l-.2.1-1.25.55-2.15.95-.1.05h-.4l-.7-.45-.25-.25q-.35-.35-.45-.95-.15-.7.05-1.35l.3-.55-.3.55-1.15-1.3h-.05l-.15-.1.05-.4-.2-.4q.5-.5 1.35-.7l.7-.05h.1l.6-.5h.15l.4.1.65.25.5.35.2.1q1.15-.3 1.8.5l.05.05V5.8q-.2-.9.4-1.55l.75-.7v-.2q-.15-.6.05-1.1l3.05-.35q.45-.5 1.35-.7 1.1-.3 2.1.3l.75.85-.3.2-.8.35-1.1.2-1.15.15-.6.35q1.2.1 1.75 1v.3q.15.5.6.2m-2.95-2.6q.1-.35.35-.6-.25.25-.35.6M20 6.85l.5-.7q.3-.45.75-.6h-.35l-1-.25v-.05h-.1l-1.05-.4q-.55-.15-1.15 0l-.85.6-.25.75v.3q.1.7-.35 1.05l.3-.15.75-.1.9.05h.9q.65-.05 1-.5M17 3l-.6.55L17 3m1.9.55l.7.05h.15-.15l-.7-.05m-4.85 3.5q-.4-.3-.9-.35l-1.2.15q-.55.2-.8.65l-.15.3q-.1.35-.05.75.1.55-.2.8l1.1.05.8.05.85-.2.55-.4.35-.45q.25-.45.95-.5L15 7.8l-.95-.75m1.2-1.2q.8 1 .85 2-.05-1-.85-2"/><path fill="url(#d)" d="M19.75 3.6l.6-.35 1.15-.15 1.1-.2.8-.35.3-.2v.55l-.75.1q-1.45.3-1.45 1.45v.15q-.55-.9-1.75-1"/><path fill="url(#e)" d="M16.45 2.25q-.2.5-.05 1.1v.2l-.75.7q-.6.65-.4 1.55h-.05q-.65-.8-1.8-.5l-.2-.1-.5-.35-.65-.25-.4-.1h-.15l1.35-.85q1-.65 2.3-1.05l1.3-.35"/><path fill="url(#f)" d="M19.9 5.3q.3.55.2 1.15l-.1.4q-.35.45-1 .5h-.9l-.9-.05-.6-.9-.1-.2.25-.75.85-.6q.6-.15 1.15 0l1.05.4h.1v.05"/><path fill="url(#g)" d="M21.55 6.65l.45.25h.05l.05.05.2.2-.15.6q.6.45.8 1l.15.55v.3q.1 1.4-.2 2.6l-.25.55h.05q.85.9 2.1 1.5 1.25.65 1.6 1.9l.05.1.05.2q.35 1.15 1 2.25l.7 1.65.4 1.4q.15 1.1-.35 2.15l-1 1.55-.35 1.25-.9.85q-1.3.65-2.35-.3l-.1-.15q-1.25-.15-1.95-.6l-.4-.3q-.85-.75-1.25-1.85l-.45-1.3-.15-.3.2-.35-.35-.75-.25.25-.1.1-.2.4v.4l.15.5.3.45.05.05-.5 1.6q-.2.5-1.1.35l-.15.15-.85-.25q-1.4.15-1.3-.9.1-.95.9-1.55l.65-.4.6-.55.3-.45.6-1.15q.5-.95 1.55-1.15l-.1-1.55q-1.7-.1-2.65.55l-1.05.8-2.25 3.8q-.65.85-1.65 1.4l-1.9 1.1-.8-.05-.5.1-1.55-.2-.4-1.9-.1-.95q0-.65.15-1.25l.05-.15.2-.5.6-.95 1.45-1.9 1.1-1.3.65-1.15q.65-1.05 1.7-1.55h.05l.15-.6q-.85-.75-.6-1.7-.45-.15-.3-.65l2.15-.95 1.25-.55.2-.1q.55-.7.4-1.45.6 1.1 2.05.9l1.5-.35.25-.1q1.05-.1 1.4-1.15l.25-.5M9.6 18.5l.3-.55.55-1.4-.55 1.4-.3.55m12.2-7.05V10.3l-.05-.55-.25-.35q-.4-.35-1.05-.2l-1.15.3-1 .35-1.05.35-2.25.65-1.1.4v.45q-.3.45 0 1.1l.3.55-.2 1.2-.25 1.05-1.1 2.05 1.4-1.75q.15-.15.35-.15h.25l.2.1.25.25.35.2.35-.05.1-.1 2.45.1 1.05-.35.95-.4h.05l.25-.15.55.45v.05l.2.3 1.1.85h.05l.7.4-.4-.4-.35-.65-.1-.3-.2-.85v-.25l.5.3.85.85.7 1.1.3.95.1.65v.3q.45-1.35-.05-2.7l-.1-.3-.7-1.05-.8-.8-.3-.25-.15-.25-.45-1-.1-.9-.15-.35-.05-.05m1.35 8.45l-.2-.45-.6-.6-.25.2-.1.1v.9l1.55 4.15.55.95.4.55-.45-1.95-.5-1.85-.2-1.3-.2-.7m-3.3-.4l.3 2.15.45 1.65.3.65q.5 1.1 1.45 2.1-.95-1-1.45-2.1l-.3-.65-.45-1.65-.3-2.15m5.85 1.15l.5.95.15.4v.05l.05.65-.05 1.95.35-.95.1-.55v-.7l-.2-1.2-.4-.4-.5-.2m-17.6.85l-.65 1-.4 1.05 2.2-1.8.45-.45.1-.2.1-.3v-1.25l-.2.4-.8.8-.8.75m11.5-4.95l.15 1.4-.15-1.4m-6.35 3.8l-.3.75-1.15 2.2-.75.75-.5.45 1.75-.65 1-.8.55-.95.1-.15.1-.45V21l-.1-1.05-.25-.65-.45 1.05m3.25-2.1l-.45 1.05.45-1.05m1.3 6.65l-.25.85.25-.85m9.45-.8v1.35-1.35m-4.35 2.45l.65.55-.65-.55m-11.85-1.9q-.7.7-1.6.9.9-.2 1.6-.9m6.05-.05q-.7.7-.55 1.05-.15-.35.55-1.05"/><path fill="url(#h)" d="M14.2 13.35l-.3-.55q-.3-.65 0-1.1v-.45l1.1-.4 2.25-.65 1.05-.35 1-.35 1.15-.3q.65-.15 1.05.2l.25.35.05.55v1.2l-.05 1.05-.1 1.15v.05l-.35 1-.2.3-.45.3-.3.15-.95.4-1.05.35-2.45-.1-.7-.35-.1-.15-.4-1-.25-.95-.25-.35m6.65-3.3l-.3-.2q-.55-.2-.65.35l.05.2.25.9.05 1-.2 1.1.7-.75.2-.45.05-1.4-.05-.6-.1-.15m-.25 4.85l.05-.15q.1-.5-.25-.9l.05 1.05h.15m-6.25-2.95l.2.8.7.95.7.55-.3-1.15-.1-1-.2-.5-.5-.2q-.3-.05-.5.2v.35m1.45-.2l.25.8.55.6-.05-.85q.1-.6-.25-1l-.45-.05q-.3.3-.05.5m1-.55l.15.9.65.95.05-.85-.1-.7-.4-.45h-.35v.15m2.6-.75l-.45-.05-.15.2v.05l.15.3.2.7.1 1 .4-.9.05-.9-.15-.25-.15-.15m-1.55.7l.15.6.1.2.4 1.05.2-1q.2-.45 0-.85v-.05l-.3-.2q-.35-.1-.45.1l-.1.15m-1.35 3.3l-.1.7.25.55.4.3.45-.35v-.05q-.75-.4-1-1.15m-.8.45v.55l.2.3.5.2v-.15l-.15-.05-.55-.85m3.05-.9l.05.1.05 1.45h.6q.25-.1.15-.4l-.55-.9-.3-.25m-.4.95l-.5-.75-.15-.15.05 1.25.1.35.15.3.45-.3.05-.1-.15-.6m1.2-1.2l-.1-.05v.1l.45 1.3.25-.35.1-.15-.05-.2-.65-.65"/><path fill="url(#i)" d="M21.85 11.5l.15.35.1.9.45 1 .15.25.3.25.8.8.7 1.05.1.3q.5 1.35.05 2.7v-.3l-.1-.65-.3-.95-.7-1.1-.85-.85-.5-.3v.25l.2.85.1.3.35.65.4.4-.7-.4h-.05l-1.1-.85-.2-.3v-.05l-.55-.45.45-.3.2-.3.35-1v-.05l.1-1.15.05-1.05h.05"/><path fill="url(#j)" d="M27.3 6.95L26 6.5l-.45-.4q-.75-1.05.85-1.3l1.45.05h.05q1.3.25 1.2 1.55.2.3-.4.55l-.6.1-.8-.1"/><path fill="url(#k)" d="M24.15 7.25q.2-.25.75-.15 1 .2 1.8.7l.35.25-.05.1-.45.35q-.8.5-1.5.2l-.2-.1-.65-.7q-.2-.45-.05-.65"/><path fill="url(#l)" d="M25.7 20.65l.5.2.4.4.2 1.2v.7l-.1.55-.35.95.05-1.95-.05-.65V22l-.15-.4-.5-.95"/><path fill="url(#m)" d="M23.15 19.9l.2.7.2 1.3.5 1.85.45 1.95-.4-.55-.55-.95L22 20.05v-.9l.1-.1.25-.2.6.6.2.45"/><path fill="url(#n)" d="M15.9 16.15l-.1.1-.35.05-.35-.2-.25-.25-.2-.1h-.25q-.2 0-.35.15l-1.4 1.75 1.1-2.05.25-1.05.2-1.2.25.35.25.95.4 1 .1.15.7.35"/><path fill="url(#o)" d="M19.5 23.05l-.15.25-.2.5-.05-.05-.3-.45-.15-.5v-.4l.2-.4.1-.1.25-.25.35.75-.2.35.15.3m-.55-1.15l.4.85-.4-.85"/><path fill="url(#p)" d="M8.35 5.05l-1.1.2q-1.3-.2-1.7-1.3Q5.2 2.9 6.5 2.9l.8.05 1.35.7q.55 0 .35.6l-.65.8"/><path fill="url(#q)" d="M8.35 5.05l.25.45q-.4.25-.35.85l.1 1.15-.05 1.1.7-1.1.05-.3v-.5l.05-.05 1.15 1.3q-.2.65-.05 1.35.1.6.45.95l.25.25-1.1 1q-.6-.15-1-.6L7.15 9.3l-.05.65-.35-.55-.25-.7.1-.2q.45-.7.15-1.4l-.35-.5v.05l-.55.45-1.1.05-.4-.9q-.4-.5-1.1-.45h-.6l-.15-.85q.75 0 1.05-.55.45-.8-.2-1.35l-.05-.9.6.2q1.45.25 1.6-.75l1.8 1.35-.8-.05q-1.3 0-.95 1.05.4 1.1 1.7 1.3l1.1-.2m-1.85 1l-.1.55.1-.55"/><path fill="url(#r)" d="M3.35 3.05q.65.55.2 1.35-.3.55-1.05.55l-.5-.1Q.75 4.45.2 3.45q-.65-1.15.75-1.6 1.2-.4 1.9.8l.5.4"/><path fill="url(#s)" d="M5.5 1.6q-.15 1-1.6.75l-.6-.2q-.6-.35-.8-1.2Q2.5-.2 4 .05q.65.1 1.1.5.45.45.4.95v.1"/><path fill="url(#t)" d="M2.65 5.8h.6q.7-.05 1.1.45l.4.9q-.1.35-.8.45L1.7 7.35q-1.35-.5-.85-1.7l1.8.15"/><path fill="url(#u)" d="M14.05 7.05l.05 1.25-.05.55-.55.4-.85.2-.8-.05-.3-.35-.5-1.05-.05-.2.15-.3q.25-.45.8-.65l1.2-.15q.5.05.9.35"/><path fill="url(#v)" d="M8.75 5.75l.2.4-.05.4.15.1v.55L9 7.5l-.7 1.1.05-1.1-.1-1.15q-.05-.6.35-.85l.15.25M9 7.5l-.1-.95.1.95"/><path fill="url(#w)" d="M6.5 8.7l.25.7.35.55.05-.65 1.65 1.6q.4.45 1 .6l-.25.35-.45.15q-.95-.15-1.25-1.05h-.1l-.5-.2-.5-.4-.2-.3Q6.2 9.4 6.5 8.7"/><path fill="url(#x)" d="M6.3 21.85v.05l-.9.55-.45.2q-1.4-.1-.8-.8-.7-.6-.7-.95v-.2l.05-.05-.25-.2q-.2-.25.05-.75.6-1.15 1.85-1.2 1.5-.1 2.4-.85 1.4-1.1 1.8.2l-1.45 1.9q-.25-.25-.6-.4l-.2-.15h-.35q-.45.3-.45.9v1.75m-1.65-.5l-.5.5.5-.5M4.25 20q-.5.2-.7.5l-.05.15.05-.15q.2-.3.7-.5"/><path fill="url(#y)" d="M8.1 21.5l.8-.75.8-.8.2-.4v1.25l-.1.3-.1.2-.45.45-2.2 1.8.4-1.05.65-1"/><path fill="url(#z)" d="M7.1 21.2v-.3l-.3.4-.5.55V20.1q0-.6.45-.9h.35l.2.15-.2 1.55.2-1.55q.35.15.6.4l-.6.95-.2.5"/><path fill="url(#A)" d="M13.25 20.35l.45-1.05.25.65.1 1.05v.5l-.1.45-.1.15-.55.95-1 .8-1.75.65.5-.45.75-.75 1.15-2.2.3-.75"/><path fill="url(#B)" d="M27.95 3.9l-.75.1q-1.5.2-2.1-.65l-.05-.1q-.3-.45.1-.75.65-.55 1.7-.7 1.45-.15 1.95 1.05.45.1.35.6-.05.5-.75.45h-.45"/><path fill="none" stroke="#CC1919" stroke-width=".05" stroke-linecap="round" stroke-linejoin="round" d="M27.95 3.9l-.75.1q-1.5.2-2.1-.65l-.05-.1-.45.1.15.3-.35.35q-1.35.35-2.25 1.05l-.05.05-.5 1.2-.05.35.45.25h.05l.05.05.2.2.75.1q.6-.15 1.1 0 .2-.25.75-.15 1 .2 1.8.7l.6-.85L26 6.5l-.45-.4q-.75-1.05.85-1.3l1.45.05h.05q-.15-.5.05-.95h.45q.7.05.75-.45.1-.5-.35-.6-.5-1.2-1.95-1.05-1.05.15-1.7.7-.4.3-.1.75m-5.3.35q1.2.1 1.75 1v-.15q0-1.15 1.45-1.45l.75-.1v-.55m-4.2-.45q-.25.25-.35.6m2.35 2.1v.3q.15.5.6.2m1.6-2.2q.65 0 .9.45m2.1 4.45l.35.25-.05.1-.45.35q-.8.5-1.5.2l-.2-.1-.65-.7q-.2-.45-.05-.65m-2.6-.6l-.25.5q-.35 1.05-1.4 1.15l-.25.1-1.5.35q-1.45.2-2.05-.9.15.75-.4 1.45l-.2.1-1.25.55-2.15.95q-.15.5.3.65-.25.95.6 1.7l-.15.6h-.05q-1.05.5-1.7 1.55l-.65 1.15-.55 1.4-.3.55M22.3 7.15l-.15.6q.6.45.8 1l.15.55v.3q.1 1.4-.2 2.6l-.25.55h.05q.85.9 2.1 1.5 1.25.65 1.6 1.9l.05.1.05.2m-2.85 10.8l-.1-.15m-1.95-.6l-.4-.3q-.85-.75-1.25-1.85l-.45-1.3-.15.25-.2.5-.5 1.6q-.2.5-1.1.35l-.15.15-.85-.25q-1.4.15-1.3-.9.1-.95.9-1.55l.65-.4.6-.55.3-.45.6-1.15q.5-.95 1.55-1.15m-6.05 3.6q-.65.85-1.65 1.4l-1.9 1.1-.8-.05m-2.4-4.2l.05-.15v-.3m-.3.4l-.5.55v.05l-.9.55-.45.2q-1.4-.1-.8-.8-.7-.6-.7-.95v-.2l.05-.05-.25-.2q-.2-.25.05-.75.6-1.15 1.85-1.2 1.5-.1 2.4-.85 1.4-1.1 1.8.2l1.1-1.3m3.75-3.2l-.3-.55q-.3-.65 0-1.1v-.45l1.1-.4 2.25-.65 1.05-.35 1-.35 1.15-.3q.65-.15 1.05.2l.25.35.05.55v1.2l-.05 1.05-.1 1.15v.05l-.35 1-.2.3-.45.3-.25.15h-.05l-.95.4-1.05.35-2.45-.1m-1.7-2.8l.25.35.25.95.4 1 .1.15.7.35m12-11.3q1.3.25 1.2 1.55.2.3-.4.55l-.6.1-.8-.1m-4.95 19.1q-.95-1-1.45-2.1l-.3-.65-.45-1.65-.3-2.15m-3.4-17.25l-1.3.35q-1.3.4-2.3 1.05l-1.35.85m1.7.7l.2.1q1.15-.3 1.8.5l.05.05V5.8q-.2-.9.4-1.55l.75-.7L17 3m2.75.6h-.15l-.7-.05m-2.45-1.3l3.05-.35M8.75 5.75q.5-.5 1.35-.7l.7-.05h.1l.6-.5m-1.25 3.45l.3-.55m-.3.55q-.2.65-.05 1.35.1.6.45.95l.25.25.7.45h.4l.1-.05m4-3.05q-.05-1-.85-2m-6.9-.8l-1.1.2q-1.3-.2-1.7-1.3Q5.2 2.9 6.5 2.9l.8.05L5.5 1.6q-.15 1-1.6.75l-.6-.2.05.9q.65.55.2 1.35-.3.55-1.05.55l.15.85h.6q.7-.05 1.1.45l.4.9 1.1-.05.55-.45V6.6l.1-.55m-3.2-3.9q-.6-.35-.8-1.2Q2.5-.2 4 .05q.65.1 1.1.5.45.45.4.95v.1m3.25 4.15l.2.4-.05.4.15.1h.05l1.15 1.3m-2.95-5l1.35.7q.55 0 .35.6l-.65.8.25.45.15.25m-6.25-.8l-.5-.1Q.75 4.45.2 3.45q-.65-1.15.75-1.6 1.2-.4 1.9.8l.5.4m1.4 4.1q-.1.35-.8.45L1.7 7.35q-1.35-.5-.85-1.7l1.8.15m6.25.75l.1.95M6.5 8.7l.1-.2q.45-.7.15-1.4l-.35-.5m3.15 5.25L9.1 12q-.95-.15-1.25-1.05h-.1l-.5-.2-.5-.4-.2-.3Q6.2 9.4 6.5 8.7m-3 11.95l.05-.15q.2-.3.7-.5m-.1 1.85l.5-.5m2.65-2l-.2 1.55m0 .3l.2-.5.6-.95m1.45-1.9l-1.45 1.9m11.45 3l.15.3m-.15-.3l-.4-.85m-1.4 3.85l.25-.85m-1.25.75q-.15-.35.55-1.05"/><path fill="none" stroke="#961212" stroke-width=".05" stroke-linecap="round" stroke-linejoin="round" d="M20 6.85l.5-.7q.3-.45.75-.6h-.35l-1-.25q.3.55.2 1.15l-.1.4q-.35.45-1 .5h-.9l-.9-.05-.75.1-.3.15q.45-.35.35-1.05v-.3l.25-.75.85-.6q.6-.15 1.15 0l1.05.4h.1v.05m-5.85 3.55l.05-.55-.05-1.25q-.4-.3-.9-.35l-1.2.15q-.55.2-.8.65l-.15.3.05.2.5 1.05.3.35.8.05.85-.2.55-.4.35-.45q.25-.45.95-.5L15 7.8l-.95-.75m-2.2 2.35l-1.1-.05q.3-.25.2-.8-.05-.4.05-.75m5.5-1.6l.1.2.6.9"/><path fill="none" stroke="#666" stroke-width=".05" stroke-linecap="round" stroke-linejoin="round" d="M20.85 10.05l-.3-.2q-.55-.2-.65.35l.05.2.25.9.05 1-.2 1.1.7-.75.2-.45.05-1.4-.05-.6-.1-.15m-.25 4.85h-.15l-.05-1.05q.35.4.25.9l-.05.15m-6.25-2.95l.2.8.7.95.7.55-.3-1.15-.1-1-.2-.5-.5-.2q-.3-.05-.5.2v.35m1.45-.2l.25.8.55.6-.05-.85q.1-.6-.25-1l-.45-.05q-.3.3-.05.5m1-.55l.15.9.65.95.05-.85-.1-.7-.4-.45h-.35v.15m2.6-.75l-.45-.05-.15.2v.05l.15.3.2.7.1 1 .4-.9.05-.9-.15-.25-.15-.15m-1.55.7l.15.6.1.2.4 1.05.2-1q.2-.45 0-.85v-.05l-.3-.2q-.35-.1-.45.1l-.1.15m1.7 2.6l.65.65.05.2-.1.15-.25.35-.45-1.3v-.1l.1.05m-1.2 1.2l.15.6-.05.1-.45.3-.15-.3-.1-.35-.05-1.25.15.15.5.75m.4-.95l.3.25.55.9q.1.3-.15.4h-.6l-.05-1.45-.05-.1m-3.05.9l.55.85.15.05v.15l-.5-.2-.2-.3v-.55m.8-.45q.25.75 1 1.15v.05l-.45.35-.4-.3-.25-.55.1-.7"/><path fill="none" stroke="#AE6800" stroke-width=".05" stroke-linecap="round" stroke-linejoin="round" d="M26.5 16.45q.35 1.15 1 2.25l.7 1.65.4 1.4q.15 1.1-.35 2.15l-1 1.55-.35 1.25-.9.85q-1.3.65-2.35-.3m-.1-.15q-1.25-.15-1.95-.6m1.95.6l-.65-.55m4.35-1.1V24.1"/><path fill="none" stroke="#BD7A00" stroke-width=".05" stroke-linecap="round" stroke-linejoin="round" d="M23.7 2.35l-.75-.85q-1-.6-2.1-.3-.9.2-1.35.7M9.45 25.55l-.5.1-1.55-.2-.4-1.9-.1-.95q0-.65.15-1.25m.05-.45l-.3.4m3-9.8l1.1-1m-1.1 1l-.25.35m-.1 13.7q.9-.2 1.6-.9"/><path fill="none" stroke="#CC8E8E" stroke-width=".05" stroke-linecap="round" stroke-linejoin="round" d="M19.75 17.95q-1.7-.1-2.65.55l-1.05.8"/><path fill="none" stroke="#CC5D5D" stroke-width=".05" stroke-linecap="round" stroke-linejoin="round" d="M16.05 19.3l-2.25 3.8m2.25-3.8l.45-1.05"/><path fill="none" stroke="#CC6C6C" stroke-width=".05" stroke-linecap="round" stroke-linejoin="round" d="M19.85 19.5l-.1-1.55-.15-1.4"/></svg>