<svg xmlns="http://www.w3.org/2000/svg" viewBox="0 0.1 48.2 49.5" width="48.2" height="49.5"><defs><radialGradient gradientUnits="userSpaceOnUse" r="819.2" cx="0" cy="0" spreadMethod="pad" gradientTransform="matrix(.013 0 0 .012 40.45 13.95)" id="a"><stop offset="0" stop-color="#2F2F00"/><stop offset=".239" stop-color="#EAEAEA"/><stop offset=".675" stop-color="#990"/><stop offset="1"/></radialGradient><linearGradient gradientUnits="userSpaceOnUse" x1="-819.2" x2="819.2" gradientTransform="matrix(.013 0 0 .017 27.55 18.75)" id="b"><stop offset="0" stop-color="#2F2F00"/><stop offset=".239" stop-color="#EAEAEA"/><stop offset=".675" stop-color="#990"/><stop offset="1"/></linearGradient><linearGradient gradientUnits="userSpaceOnUse" x1="-819.2" x2="819.2" gradientTransform="matrix(.007 .002 -.005 .013 37.5 19.75)" id="c"><stop offset="0" stop-color="#2F2F00"/><stop offset=".239" stop-color="#f00"/><stop offset=".675" stop-color="#990"/><stop offset="1"/></linearGradient><linearGradient gradientUnits="userSpaceOnUse" x1="-819.2" x2="819.2" gradientTransform="matrix(.009 0 0 .018 20.9 17.5)" id="d"><stop offset="0" stop-color="#2F2F00"/><stop offset=".239" stop-color="#EAEAEA"/><stop offset=".675" stop-color="#990"/><stop offset="1"/></linearGradient><linearGradient gradientUnits="userSpaceOnUse" x1="-819.2" x2="819.2" gradientTransform="matrix(.007 0 0 .009 31.8 25.25)" id="e"><stop offset="0" stop-color="#2F2F00"/><stop offset=".239" stop-color="#EAEAEA"/><stop offset=".675" stop-color="#990"/><stop offset="1"/></linearGradient><linearGradient gradientUnits="userSpaceOnUse" x1="-819.2" x2="819.2" gradientTransform="matrix(.003 0 0 .002 23.1 19.65)" id="f"><stop offset="0" stop-color="#2F2F00"/><stop offset=".239" stop-color="#f00"/><stop offset=".675" stop-color="#990"/><stop offset="1"/></linearGradient><linearGradient gradientUnits="userSpaceOnUse" x1="-819.2" x2="819.2" gradientTransform="matrix(.003 0 .001 .008 41.5 21.05)" id="g"><stop offset="0" stop-color="#2F2F00"/><stop offset=".239" stop-color="#EAEAEA"/><stop offset=".675" stop-color="#990"/><stop offset="1"/></linearGradient><linearGradient gradientUnits="userSpaceOnUse" x1="-819.2" x2="819.2" gradientTransform="matrix(.002 0 0 .005 38 23.85)" id="h"><stop offset="0" stop-color="#2F2F00"/><stop offset=".239" stop-color="#EAEAEA"/><stop offset=".675" stop-color="#990"/><stop offset="1"/></linearGradient><linearGradient gradientUnits="userSpaceOnUse" x1="-819.2" x2="819.2" gradientTransform="matrix(.004 -.001 .001 .011 43.9 32.8)" id="i"><stop offset="0" stop-color="#2F2F00"/><stop offset=".239" stop-color="#EAEAEA"/><stop offset=".675" stop-color="#990"/><stop offset="1"/></linearGradient><linearGradient gradientUnits="userSpaceOnUse" x1="-819.2" x2="819.2" gradientTransform="matrix(.007 0 -.001 .012 31.65 39.75)" id="j"><stop offset="0" stop-color="#2F2F00"/><stop offset=".239" stop-color="#EAEAEA"/><stop offset=".675" stop-color="#990"/><stop offset="1"/></linearGradient><linearGradient gradientUnits="userSpaceOnUse" x1="-819.2" x2="819.2" gradientTransform="matrix(.006 0 0 .011 14.75 39.65)" id="k"><stop offset="0" stop-color="#2F2F00"/><stop offset=".239" stop-color="#EAEAEA"/><stop offset=".675" stop-color="#c63"/><stop offset="1"/></linearGradient><linearGradient gradientUnits="userSpaceOnUse" x1="-819.2" x2="819.2" gradientTransform="matrix(.004 -.001 .002 .009 4.35 18.7)" id="l"><stop offset="0" stop-color="#2F2F00"/><stop offset=".239" stop-color="#f00"/><stop offset=".675" stop-color="#990"/><stop offset="1"/></linearGradient><linearGradient gradientUnits="userSpaceOnUse" x1="-819.2" x2="819.2" spreadMethod="unknown" gradientTransform="matrix(.004 0 0 .01 15.8 8.2)" id="m"><stop offset="0" stop-color="#2F2F00"/><stop offset=".431" stop-color="#900"/><stop offset="1"/></linearGradient><linearGradient gradientUnits="userSpaceOnUse" x1="-819.2" x2="819.2" gradientTransform="matrix(.001 0 0 .003 15.55 9.4)" id="n"><stop offset="0" stop-color="#2F2F00"/><stop offset=".239" stop-color="#EAEAEA"/><stop offset=".675" stop-color="#990"/><stop offset="1"/></linearGradient><linearGradient gradientUnits="userSpaceOnUse" x1="-819.2" x2="819.2" gradientTransform="matrix(.005 0 0 .018 10.45 17.9)" id="o"><stop offset="0" stop-color="#2F2F00"/><stop offset=".239" stop-color="#EAEAEA"/><stop offset=".675" stop-color="#990"/><stop offset="1"/></linearGradient><linearGradient gradientUnits="userSpaceOnUse" x1="-819.2" x2="819.2" gradientTransform="matrix(.002 0 0 .002 8.95 20.05)" id="p"><stop offset="0" stop-color="#2F2F00"/><stop offset=".239" stop-color="#f00"/><stop offset=".675" stop-color="#990"/><stop offset="1"/></linearGradient><linearGradient gradientUnits="userSpaceOnUse" x1="-819.2" x2="819.2" gradientTransform="matrix(.004 0 0 .008 7.3 25.8)" id="q"><stop offset="0" stop-color="#2F2F00"/><stop offset=".239" stop-color="#EAEAEA"/><stop offset=".675" stop-color="#990"/><stop offset="1"/></linearGradient><linearGradient gradientUnits="userSpaceOnUse" x1="-819.2" x2="819.2" gradientTransform="matrix(.002 0 0 .004 21.6 33.8)" id="r"><stop offset="0" stop-color="#2F2F00"/><stop offset=".239" stop-color="#EAEAEA"/><stop offset=".675" stop-color="#990"/><stop offset="1"/></linearGradient><linearGradient gradientUnits="userSpaceOnUse" x1="-819.2" x2="819.2" gradientTransform="matrix(.005 .001 -.002 .009 7.85 36.7)" id="s"><stop offset="0" stop-color="#2F2F00"/><stop offset=".239" stop-color="#EAEAEA"/><stop offset=".675" stop-color="#990"/><stop offset="1"/></linearGradient><linearGradient gradientUnits="userSpaceOnUse" x1="-819.2" x2="819.2" gradientTransform="matrix(.003 0 0 .005 4.1 44.8)" id="t"><stop offset="0" stop-color="#2F2F00"/><stop offset=".239" stop-color="#EAEAEA"/><stop offset=".675" stop-color="#990"/><stop offset="1"/></linearGradient></defs><path fill="#f00" d="M15.65 28.8L19 25.7l3.35-2.45-1.3 2.45q-1 1.65-2.3 2.45-1.35.75-3.1.65m-3.4-.35q-2.1.35-3.1-.6-1.55-1.5-1.1-3.35l4.2 3.95"/><path fill="url(#a)" d="M44.05 22.3l-.2-1.7-1-3q-.55-1.5-2.5-2.9l-.65-6.45L38.3 12l-1.2-1.25-4.35-3.6q1.3-1.05 3.25-1.4 3.25-.55 5.85 1.75l4.25 4.05q2.1 2.1 2.1 5.2-.1 3.2-2.65 4.9l-1.5.65"/><path fill="url(#b)" d="M32.75 7.15l4.35 3.6L38.3 12l-.85 1.6Q36 15.95 34.05 18q-1.3-.95-2.35-.15l-4.6 4q-.45 3.1-.75 6.25v1.25l-2.75.8-3.9.8q-1.6.4-2.9 1.4v-.4q1.65-2.8 4.1-3.9 3.1-1.35 3.6-4.35l.6-2.7.45-1.4.75-1.85q1.8-2.2 2.05-5.15l-.1-.15-3.9-4.7-1.1-1.1q1.35-.8 2.9-1.2 3.2-.85 6.05 1.3l.55.4"/><path fill="url(#c)" d="M38.3 12l1.4-3.75.65 6.45-.1 1.75-.65 3.2-1.4 3.5-.9 1.65-1.3 1.95-.05.05-.25.95q-.3 1.2-1.8 1.95l-2.7 1.25q-.75.3-1-.8l-.75-2.85q-.45-1.4-.55-2.85-.15-1.55.55-2.55l.15-.1 4.1-3.45.35-.35q1.95-2.05 3.4-4.4l.85-1.6m-2.65 7.65v-.05h-.05l.05.05m-.25 7.85l.55-.7-.55.7"/><path fill="url(#d)" d="M23.25 6.65l1.1 1.1 3.9 4.7.1.15q-.25 2.95-2.05 5.15l-.75 1.85-.35-.25q-1.85-1.2-4.5-1.1l1.5.75 2.9 2-.6 2.7q-.5 3-3.6 4.35-2.45 1.1-4.1 3.9v.55l-3.1-1.65v-.1l-.1-10.05q.05-1.8.6-4.4 1.55-2.05 2.55-5.25l1.2-3q1.3-2.55 1.25-5.45l4.05 4.05m-7.6 22.15q1.75.1 3.1-.65 1.3-.8 2.3-2.45l1.3-2.45L19 25.7l-3.35 3.1"/><path fill="url(#e)" d="M29.6 21.8l-.15.1q-.7 1-.55 2.55.1 1.45.55 2.85l.75 2.85q.25 1.1 1 .8l2.7-1.25q1.5-.75 1.8-1.95l.25-.95.05-.05 1.3-1.95-.15 1.35-.8 1.9-.25.35-1.25 1.95-.25.45-2.85 1.75-2.7.15q-1.8-.85-2.4-2.25l-.3-1.1V28.1q.3-3.15.75-6.25l4.6-4q1.05-.8 2.35.15l-.35.35-4.1 3.45"/><path fill="url(#f)" d="M25.1 21l-2.9-2-1.5-.75q2.65-.1 4.5 1.1l.35.25-.45 1.4"/><path fill="url(#g)" d="M40.35 14.7q1.95 1.4 2.5 2.9l1 3 .2 1.7-.35 1.8q-.45 1.05-1.45 1.95l-.1.1-2 1.2-.4-.8L38.9 25l.1-.1.45-1.1.15-4.15.65-3.2.1-1.75"/><path fill="url(#h)" d="M39.6 19.65l-.15 4.15-.45 1.1-.1.1-2.55 3.1v-.05l.8-1.9.15-1.35.9-1.65 1.4-3.5"/><path fill="url(#i)" d="M39.75 26.55l.4.8 2-1.2.1-.1q1-.9 1.45-1.95l1.35 2.05q.7 1.45.85 3.35.25 3.25-1.25 6.1l-3.4 6.1q-.35-3.5-.3-8.05.05-1.2-.65-2.05-1.35-1.65-1.35-3.75-.05-.9.8-1.3"/><path fill="url(#j)" d="M26.65 30.45q.6 1.4 2.4 2.25l2.7-.15 2.85-1.75.25-.45q1.3.95.4 2.55-1 1.75-.65 4.1.45 2.85-.95 4.75-2.85 3.8-3.65 7.75l-2.45-3.05q-2-2.65-2.3-5.85l-.7-6.3q-.25-2.5 2.1-3.85"/><path fill="url(#k)" d="M13.7 30.75v.1l3.1 1.65v.7q-.1 3.3 2.4 5.15 2.05 1.6 3.45 4.4 1.35 2.9 1.9 6.1L21.7 44.8q-1.85-2.4-4.25-4.2-2.5-1.85-5.85-1.2l-4.65 1.65L5 41.7q-2.1.6-3.7 1.8l-.75.6-.05-.05.75-.85q1.6-1.8 3.85-3.2 1-.65 2.45-1l1.15-.4q2.4-1.1 2.6-3.6l-.15-2.4 2.55-1.85"/><path fill="url(#l)" d="M3.95 27.5l-2.3-5.1Q.5 19.6.5 16.45q-.05-2.1.45-3.95L4 16.9q1.05 1.65 2.45 2.65-1.6 1.55-2.3 3.8-.7 2.1-.2 4.15"/><path fill="url(#m)" d="M19.2 2.6q.05 2.9-1.25 5.45l-1.2 3q-1 3.2-2.55 5.25l.05-.2-.25-1.35q-.95-2.15-1.15-4.5l-.4-7L14.1.65l.65 6.7.55 4.2q.95-2.75 1.1-4.35l.25-7.15L19.2 2.6"/><path fill="url(#n)" d="M14.75 7.35l1.65-.15q-.15 1.6-1.1 4.35l-.55-4.2"/><path fill="url(#o)" d="M14.2 16.3q-.55 2.6-.6 4.4l.1 10.05-2.55 1.85-.2-.9q-.45-1.35-1.3-2.55l-2-2.55q-1.8-2.1-.2-5.2l3.1-2.7q-1.35 0-2.75 1-.2.15-.45.25l-.15-1-.4-3.5.2-3.05q.35-2.95 2.7-5.65l2.75-3.5.4 7q.2 2.35 1.15 4.5l.25 1.35-.05.2m-1.95 12.15l-4.2-3.95q-.45 1.85 1.1 3.35 1 .95 3.1.6"/><path fill="url(#p)" d="M7.35 19.95q.25-.1.45-.25 1.4-1 2.75-1l-3.1 2.7.15-.3-.2-.8-.05-.35"/><path fill="url(#q)" d="M7.35 19.95l.05.35.2.8-.15.3q-1.6 3.1.2 5.2l2 2.55q.85 1.2 1.3 2.55l-1.3.6-.25.1q-3.05.85-3.9-1.3l-1.2-2.55-.05-.05-.3-1q-.5-2.05.2-4.15.7-2.25 2.3-3.8l.75-.6.15 1"/><path fill="url(#r)" d="M23.6 30.15l-.3 2.95-1.1 4.3-.7-1.35q-1.7-2.5-1.8-5.1l3.9-.8"/><path fill="url(#s)" d="M4.3 28.55l1.2 2.55q.85 2.15 3.9 1.3l.25-.1.05 1.65q.5 2.55-.7 4.15l-.3.5-1.15.4q-1.45.35-2.45 1-2.25 1.4-3.85 3.2l-.05-.3q-.55-3.05-.3-6.05.1-1.95.75-3.95.85-2.75 2.65-4.35"/><path fill="url(#t)" d="M1.3 43.5q1.6-1.2 3.7-1.8l1.95-.65-5.25 7.5-.4-5.05"/><path fill="none" stroke="#000" stroke-width=".05" stroke-linecap="round" stroke-linejoin="round" d="M39 24.9l-.1.1m-9.45-3.1l.15-.1m6.4 4.95l-.05.05m-.3-7.2v.05M4.25 28.5l.05.05"/><path fill="none" stroke="#731F00" stroke-width=".05" stroke-linecap="round" stroke-linejoin="round" d="M15.65 28.8L19 25.7l3.35-2.45-1.3 2.45q-1 1.65-2.3 2.45-1.35.75-3.1.65m-3.4-.35l-4.2-3.95q-.45 1.85 1.1 3.35 1 .95 3.1.6"/><path fill="none" stroke="#FE0100" stroke-width=".05" stroke-linecap="round" stroke-linejoin="round" d="M38.3 12l1.4-3.75.65 6.45-.1 1.75-.65 3.2-1.4 3.5-.9 1.65-1.3 1.95m-6.4-4.95l4.1-3.45.35-.35q1.95-2.05 3.4-4.4l.85-1.6m-2.35 14.8l-.25.95q-.3 1.2-1.8 1.95l-2.7 1.25q-.75.3-1-.8l-.75-2.85q-.45-1.4-.55-2.85-.15-1.55.55-2.55m6.5 4.9l-.55.7"/><path fill="none" stroke="#FD0200" stroke-width=".05" stroke-linecap="round" stroke-linejoin="round" d="M3.95 27.5l-2.3-5.1Q.5 19.6.5 16.45q-.05-2.1.45-3.95L4 16.9q1.05 1.65 2.45 2.65"/><path fill="none" stroke="#9D9D0C" stroke-width=".05" stroke-linecap="round" stroke-linejoin="round" d="M6.45 19.55l.75-.6m-.75.6q-1.6 1.55-2.3 3.8-.7 2.1-.2 4.15l.3 1m.05.05l1.2 2.55q.85 2.15 3.9 1.3m.25-.1l1.3-.6"/><path fill="none" stroke="#53532E" stroke-width=".05" stroke-linecap="round" stroke-linejoin="round" d="M1.2 42.9q-.55-3.05-.3-6.05.1-1.95.75-3.95.85-2.75 2.65-4.35m-2.6 20l-.4-5.05"/><path fill="none" stroke="#9B9B06" stroke-width=".05" stroke-linecap="round" stroke-linejoin="round" d="M9.4 32.4l.25-.1m-.95 6.3l.3-.5q1.2-1.6.7-4.15l-.05-1.65m-2.7 8.75l-5.25 7.5"/><path fill="none" stroke="#757500" stroke-width=".05" stroke-linecap="round" stroke-linejoin="round" d="M23.6 30.15l-.3 2.95-1.1 4.3"/><path fill="none" stroke="#D4D4CF" stroke-width=".05" stroke-linecap="round" stroke-linejoin="round" d="M22.2 37.4l-.7-1.35q-1.7-2.5-1.8-5.1"/><path fill="none" stroke="#60603D" stroke-width=".05" stroke-linecap="round" stroke-linejoin="round" d="M27.55 46.45q-2-2.65-2.3-5.85l-.7-6.3q-.25-2.5 2.1-3.85"/><path fill="none" stroke="#B4B44E" stroke-width=".05" stroke-linecap="round" stroke-linejoin="round" d="M34.85 30.35q1.3.95.4 2.55-1 1.75-.65 4.1.45 2.85-.95 4.75-2.85 3.8-3.65 7.75l-2.45-3.05"/><path fill="none" stroke="#C2C2B8" stroke-width=".05" stroke-linecap="round" stroke-linejoin="round" d="M41.25 41.7q-.35-3.5-.3-8.05.05-1.2-.65-2.05-1.35-1.65-1.35-3.75-.05-.9.8-1.3"/><path fill="none" stroke="#868600" stroke-width=".05" stroke-linecap="round" stroke-linejoin="round" d="M43.7 24.1l1.35 2.05q.7 1.45.85 3.35.25 3.25-1.25 6.1l-3.4 6.1"/><path fill="none" stroke="#797900" stroke-width=".05" stroke-linecap="round" stroke-linejoin="round" d="M44.05 22.3l1.5-.65q2.55-1.7 2.65-4.9 0-3.1-2.1-5.2L41.85 7.5Q39.25 5.2 36 5.75q-1.95.35-3.25 1.4"/><path fill="none" stroke="#7D7D00" stroke-width=".05" stroke-linecap="round" stroke-linejoin="round" d="M32.75 7.15l4.35 3.6L38.3 12m2.05 2.7q1.95 1.4 2.5 2.9l1 3 .2 1.7M38.9 25l.85 1.55.4.8 2-1.2.1-.1q1-.9 1.45-1.95l.35-1.8M23.25 6.65q1.35-.8 2.9-1.2 3.2-.85 6.05 1.3l.55.4"/><path fill="none" stroke="#A0A08D" stroke-width=".05" stroke-linecap="round" stroke-linejoin="round" d="M19.7 30.95q-1.6.4-2.9 1.4m2.9-1.4l3.9-.8 2.75-.8"/><path fill="none" stroke="#979700" stroke-width=".05" stroke-linecap="round" stroke-linejoin="round" d="M39.6 19.65l-.15 4.15-.45 1.1m-13.45-5.3l.75-1.85q1.8-2.2 2.05-5.15l-.1-.15-3.9-4.7-1.1-1.1L19.2 2.6m-2.4 29.9v-.55q1.65-2.8 4.1-3.9 3.1-1.35 3.6-4.35l.6-2.7M12.45 3.25L9.7 6.75Q7.35 9.45 7 12.4l-.2 3.05.4 3.5.15 1m.1 1.45q-1.6 3.1.2 5.2l2 2.55q.85 1.2 1.3 2.55l.2.9M7.6 21.1l-.15.3M.55 44.1l-.55.55M36.35 28.1L38.9 25"/><path fill="none" stroke="#91917A" stroke-width=".05" stroke-linecap="round" stroke-linejoin="round" d="M34.05 18q-1.3-.95-2.35-.15l-4.6 4q-.45 3.1-.75 6.25v1.25l.3 1.1q.6 1.4 2.4 2.25l2.7-.15 2.85-1.75.25-.45 1.25-1.95.25-.35.8-1.9.15-1.35m-.95 3.3l-.25.3"/><path fill="none" stroke="#B01100" stroke-width=".05" stroke-linecap="round" stroke-linejoin="round" d="M16.4 7.2l.25-7.15L19.2 2.6m-6.75.65L14.1.65l.65 6.7m1.65-.15q-.15 1.6-1.1 4.35l-.55-4.2"/><path fill="none" stroke="#770" stroke-width=".05" stroke-linecap="round" stroke-linejoin="round" d="M14.75 7.35l1.65-.15"/><path fill="none" stroke="#F80900" stroke-width=".05" stroke-linecap="round" stroke-linejoin="round" d="M25.55 19.6L25.1 21M7.35 19.95l.05.35.2.8"/><path fill="none" stroke="#F60C00" stroke-width=".05" stroke-linecap="round" stroke-linejoin="round" d="M.55 44.1l.75-.6q1.6-1.2 3.7-1.8l1.95-.65 4.65-1.65q3.35-.65 5.85 1.2 2.4 1.8 4.25 4.2l2.85 4.05q-.55-3.2-1.9-6.1-1.4-2.8-3.45-4.4-2.5-1.85-2.4-5.15v-.7"/><path fill="none" stroke="#F70B00" stroke-width=".05" stroke-linecap="round" stroke-linejoin="round" d="M11.15 32.6l.15 2.4q-.2 2.5-2.6 3.6l-1.15.4q-1.45.35-2.45 1-2.25 1.4-3.85 3.2l-.75.85m.75-.85l-.05-.3M0 44.65l.5-.6"/></svg>