<svg xmlns="http://www.w3.org/2000/svg" viewBox="0 0 32.7 32.8" width="32.7" height="32.8"><defs><radialGradient gradientUnits="userSpaceOnUse" r="819.2" cx="0" cy="0" spreadMethod="pad" gradientTransform="matrix(.015 0 0 .015 19.7 10.55)" id="a"><stop offset="0" stop-color="#ccc"/><stop offset=".573" stop-color="#f60"/><stop offset="1" stop-color="#fc0"/></radialGradient><radialGradient gradientUnits="userSpaceOnUse" r="819.2" cx="0" cy="0" spreadMethod="pad" gradientTransform="matrix(.225 0 0 .225 -.6 -.5)" id="b"><stop offset="0"/><stop offset=".588" stop-color="#f00"/><stop offset="1"/></radialGradient><radialGradient gradientUnits="userSpaceOnUse" r="819.2" cx="0" cy="0" spreadMethod="pad" gradientTransform="matrix(.003 0 0 .003 22.8 10.1)" id="c"><stop offset="0" stop-color="#fff"/><stop offset=".141" stop-color="#f00"/><stop offset=".404"/></radialGradient><radialGradient gradientUnits="userSpaceOnUse" r="819.2" cx="0" cy="0" spreadMethod="pad" gradientTransform="matrix(.005 0 0 .005 19.2 17.2)" id="d"><stop offset="0" stop-color="#ccc"/><stop offset=".573" stop-color="#f60"/><stop offset="1" stop-color="#fc0"/></radialGradient><radialGradient gradientUnits="userSpaceOnUse" r="819.2" cx="0" cy="0" spreadMethod="pad" gradientTransform="matrix(.004 0 0 .002 19.4 13.85)" id="e"><stop offset="0" stop-color="#ccc"/><stop offset=".573"/><stop offset="1"/></radialGradient><radialGradient gradientUnits="userSpaceOnUse" r="819.2" cx="0" cy="0" spreadMethod="pad" gradientTransform="matrix(.003 0 0 .003 14.75 10.35)" id="f"><stop offset="0" stop-color="#fff"/><stop offset=".141" stop-color="#f00"/><stop offset=".404"/></radialGradient><radialGradient gradientUnits="userSpaceOnUse" r="819.2" cx="0" cy="0" spreadMethod="pad" gradientTransform="matrix(.006 0 0 .006 29.3 22.1)" id="g"><stop offset="0" stop-color="#ccc"/><stop offset=".573" stop-color="#f60"/><stop offset="1" stop-color="#fc0"/></radialGradient><radialGradient gradientUnits="userSpaceOnUse" r="819.2" cx="0" cy="0" spreadMethod="pad" gradientTransform="matrix(.002 0 0 .002 26.25 21.35)" id="h"><stop offset="0" stop-color="#ccc"/><stop offset=".573" stop-color="#f60"/><stop offset="1" stop-color="#fc0"/></radialGradient><radialGradient gradientUnits="userSpaceOnUse" r="819.2" cx="0" cy="0" spreadMethod="pad" gradientTransform="matrix(.013 0 0 .013 16.5 25.25)" id="i"><stop offset="0" stop-color="#ccc"/><stop offset=".573" stop-color="#f60"/><stop offset="1" stop-color="#fc0"/></radialGradient><radialGradient gradientUnits="userSpaceOnUse" r="819.2" cx="0" cy="0" spreadMethod="pad" gradientTransform="matrix(.007 0 0 .007 4.05 19.15)" id="j"><stop offset="0" stop-color="#ccc"/><stop offset=".573" stop-color="#f60"/><stop offset="1" stop-color="#fc0"/></radialGradient><radialGradient gradientUnits="userSpaceOnUse" r="819.2" cx="0" cy="0" spreadMethod="pad" gradientTransform="matrix(.003 0 0 .003 7.65 18.3)" id="k"><stop offset="0" stop-color="#ccc"/><stop offset=".573" stop-color="#f60"/><stop offset="1" stop-color="#fc0"/></radialGradient></defs><path fill="#630" d="M24.35 2.35l.05-.1.2-.5q.45-.85 1.45-.8 1.1.05 2.15.6l.75.7.3.9v.45l-.7-.4-.5-.25q-1.05-.5-2.15-.7l-1.55.1m2.35 11.9l-.1 1.4-.4-.5-.9-1.4 1.4.5M26 16.7l-.45 1.45-1-1.75 1.45.3M25 19l-.5.55-.1-.35q-.25-.55-.6-.55l-.65-1.45q.65.95 1.65 1.65l.2.15m1.35 7.75l-.3.95-.5-.2-.7-.15-1.3-.15q.45-.65 1.8-.6l.65.05.35.1m-1.1 2.45l-1.05 1.45-.55.6-.85-.85-1.4-1.05-.6-.4-.8-.3 5.25.55m-3.05 3.1l-1.85.45H18.1l.15-1.25-.1-.4-.2-.4.7.15q1.95.55 3.55 1.45m-13.1-.5l-.85-.6q-.9-.75-1.35-1.65L6.65 29h.1l2.2.05 4.7.65-1.1.3q-1.05.25-2.05.7l-.3.15-1.1.95m-2.45-4.65q.2-1.05.95-1.85.75-.85 1.65-1.25h.05q1.1.5 2 1.35l1.95 2.15-1.4-.65-2.6-.4q-1.25.1-2.45.55l-.15.1m4.45-3.8l2.3-.6q.7.6.65 1.65l-.2.75q-.6-.95-1.7-1.35l-1.05-.45m3.35-1.1l-.95-1.1q.6-.3 1.3-.45l2.55-.2 1.05.2 1.35.45q1.2.5 2.25 1.1l.65.2-1.7.25-4.95-.05-.35.1-.45.2-.75-.7m-4.3-2.75l1.05.05q-.9.75-1.5 1.75.05-1.05.45-1.8m1.75-.15l.65-.4.1-.1q-.45 1.25-1.15 1.9.05-.75.4-1.4m.9-2l-.15-.75 1-.55q.2 1.05-.6 1.6l-.15.05v-.1h-.05l-.05-.25m-.35-2.05l-.3-.1-.8.15q.2-.75.85-1.35l.45-.35-.2 1.65m-2.3-.05q.05-.95.45-1.85v-.05l1.15-.4-1.6 2.3m.15-8.8l-.45-.9-.2-1.35.1-1 .25-.85.1-.2.5-.95q.65-.75 1.7-1l1.5.2 1 1.05.2.4-1.95.15q-1 .2-1.75.85l-.2.2q-.5.5-.7 1.1-.2.6-.15 1.3l.05.3v.7m13.85 3.95l.1.5q.25 1.45 0 2.55L24 12.4l-.95-2h1.1m-1.25 0l.05.7-.1 2.45-.25-.95-.85-2.15 1.15-.05m-6.5 13.45l1.45-.2q1.3-.05 2.45.45l.1.05q1.25.5 2.6.4l.55-.05q-.55.9-1.5 1.3l-2.4.65h-1.5l-1.5-.2.25-.65q.2-1.1-.5-1.75m-.15 2.8q.9.35 1.4 1.2l.15.3-.45-.15-2.5-.8 1.05-.35.35-.2m-1.8-16.25h.1q.65.05 1.25.35l-1.7 2.2q0-1.45.35-2.55m-1.25-.05l.9.05q-1.25 1.45-1.55 2.75v-.7q.15-1.15.65-2.1"/><path d="M23.45 6.3q.45-.65 1.15-1.15l.6-.35 1.75-.8.65-.25-.3.3-.45.7-.6 1.45q-.25.9-1.1 1-.55.05-1-.4l-.8-.4.1-.1m-11.35-1l-.35-1.15.7.3q.65.15 1.2.55l.6.7.2.25q.85 1.2-.85 1.3-1.4.1-1.45-.95v-.25l-.05-.75"/><path fill="url(#a)" d="M12.1 5.3l.05.75v.25q.05 1.05 1.45.95 1.7-.1.85-1.3l-.2-.25-.6-.7q-.55-.4-1.2-.55l-.7-.3.35 1.15m17.15-1.7L29 5.15l-.2.7q-.4 1.1-1.5 1.6-1.2.55-1.3 1.7-.1 1.25.15 2.35l-.2.4q.8.85.75 2.25v.1l-1.4-.5.9 1.4.4.5-.15 1-.15.45-.3-.4-1.45-.3 1 1.75L25 19l-.2-.15q-1-.7-1.65-1.65l.65 1.45-.1.05q-.15 0-.3.15l-.3.2q-.65.5-1.2-.15l-.3-.45-.3-.35-.15-.1.45-.1q1.1-.2 1.35-1.25l-1.75.3q-1.15-.1-1.85-.95-.3.5-.8.5l-2.25.2-.85-.1.05.25 1.35.85-.6.55-.7.95-.25-.3-.85-.85q-.6.35-.75 1.05l-.8-1.4.15-.05q.8-.55.6-1.6l-1 .55-.05-.6-.15-.7.2-1.65-.45.35q-.65.6-.85 1.35-.7.25-1.1.85l-.1-.95 1.6-2.3-1.15.4q.4-.9.95-1.6-1-.6-.6-1.5l.2-.35q.6-.9.5-2.2-.7-.45-1.2-1.05l-.15-.2v-.7l-.05-.3q-.05-.7.15-1.3.2-.6.7-1.1l.2-.2q.75-.65 1.75-.85L15 1.85l.15.25.55 1.75.2.8.5 1.05.4.5 1.1.15-.1 1q-.05.85-.7.1l.2.45.65 2 .05.25.35 1.25.15 1.2.2-.65.65-2.1q.5-1.65 1.35-3.15l.25-.35 1.9-.1.75-1.15.15-.45.05-.05.55-2.25 1.55-.1q1.1.2 2.15.7l.5.25.7.4m-5.9 2.8l.8.4q.45.45 1 .4.85-.1 1.1-1l.6-1.45.45-.7.3-.3-.65.25-1.75.8-.6.35q-.7.5-1.15 1.15l-.55-.05.45.15m-.5-.15h.05-.05m1.3 4.15l1.1.05-.95-.6-.4-.15-2.15.05-.3.1q-.6.3-1.05.8l1.35-.2.85 2.15.25.95.1-2.45-.05-.7h.15l.95 2 .25 1.05q.25-1.1 0-2.55l-.1-.5m-4.1.7l.35-.45-.35.45m4.75 2.2q.1.85-.2 1.5-.35 1-1.25 1.6l-.4.25.4-.25q.9-.6 1.25-1.6.3-.65.2-1.5m-2.5 1.4q-.05-1.4-1.2-1.75l-2.2-.1-2.25.45q-1.15.15-1.4 1.25l1.1.9 2.2.45 2.3.1q1.55.2 1.45-1.3m-10.75-2.95l.25-.3-.25.3m4.25-1l.55.35.75.25-1.2-1.45-.1-.1q-.7-.55-1.55-.45-.85.1-1.5.7l-.35.35.8-.05q-.5.95-.65 2.1v.7q.3-1.3 1.55-2.75h.35q-.35 1.1-.35 2.55l1.7-2.2m-.45-4.2l1.25-.35h.2-.2l-1.25.35m-.05 10l.15.05-.15-.05.2.3.05.35-.05-.35-.2-.3q-.55-.2-1-.7-.85-.95-.65-2.3-.2 1.35.65 2.3.45.5 1 .7"/><path fill="url(#b)" d="M17.9 6.35l-.1-2.1-.4-1.85-.6-1.65-.2-.75.8 1.35 1 1.2 1.05 1.55.5-1.3v-.05l.15-.45-.1.5-.1 1.35-.05.5.05.6.15.9.85-.45.65-.25-.6.9-.25.35q-.85 1.5-1.35 3.15l-.65 2.1-.2.65-.15-1.2-.35-1.25-.05-.25-.65-2-.2-.45q.65.75.7-.1l.1-1"/><path fill="url(#c)" d="M20.4 10.65q.45-.5 1.05-.8l.3-.1 2.15-.05.4.15.95.6-1.1-.05H22.9l-1.15.05-1.35.2"/><path fill="url(#d)" d="M21.15 18l-.7.2-2.2.05-1.15-.4-.25-.15-1.35-.85-.05-.25.85.1 2.25-.2q.5 0 .8-.5.7.85 1.85.95l1.75-.3q-.25 1.05-1.35 1.25l-.45.1"/><path fill="url(#e)" d="M22.3 14.7q.1 1.5-1.45 1.3l-2.3-.1-2.2-.45-1.1-.9q.25-1.1 1.4-1.25l2.25-.45 2.2.1q1.15.35 1.2 1.75"/><path fill="url(#f)" d="M15.8 10.75q-.6-.3-1.25-.35H14.1l-.9-.05-.8.05.35-.35q.65-.6 1.5-.7.85-.1 1.55.45l.1.1 1.2 1.45-.75-.25-.55-.35"/><path fill="url(#g)" d="M26.35 19.65l.05-.15.3-.5 1-1q.7-.85 1.5-.55l.1.05q.95-.15 1.3.95l.15 1 1.4 1.2.05.05.4.75.1 1.15q-.2 1.15-1.05 1.7l-.4.15q.4.65-.05 1.25l-.4.4q-.7.6-1.6.7-.95.15-1.75-.4l-.35-.35-.15-.65q-.05-.55.3-.75-1-.1-1.3-1.15l-.05-.3v-.1l1.2-.3q.8-.4.75-1.45-.05-1.25-1-1.6l-.5-.1m2.3-.9l-.2.2-.4.75q-.1.6.35 1.25l.75.6q1.05.25 1.4-.95l.2-1.15-.2 1.15q-.35 1.2-1.4.95l-.75-.6q-.45-.65-.35-1.25l.4-.75.2-.2m1.3 4.1q-.6.05-.55.7 0 .6.45.85l.45.15h.15l.8-.1-.8.1h-.15l-.45-.15q-.45-.25-.45-.85-.05-.65.55-.7m-1.85 1.6h-.35l-.5.2.5-.2h.35"/><path fill="url(#h)" d="M24.6 21.35q0-.8.55-1.3.55-.45 1.2-.4l.5.1q.95.35 1 1.6.05 1.05-.75 1.45l-1.2.3h-.3l-.1-.05h-.05q-.65-.35-.8-1.2l-.05-.5"/><path fill="url(#i)" d="M24.6 21.35l.05.5q.15.85.8 1.2l.1.05.6 1.3q.45.95.25 2.05l-.05.3-.35-.1-.65-.05q-1.35-.05-1.8.6l1.3.15.7.15.5.2-.55 1.1-.25.4-5.25-.55.8.3.6.4 1.4 1.05.85.85-.65.55-.8.5q-1.6-.9-3.55-1.45l-.7-.15.2.4.1.4-.15 1.25-4.65.05-1.1-.1-2.2-.45-1.05-.45 1.1-.95.3-.15q1-.45 2.05-.7l1.1-.3-4.7-.65-2.2-.05h-.1l-.05-.2q-.15-.7 0-1.55l.05-.1.15-.1q1.2-.45 2.45-.55l2.6.4 1.4.65-1.95-2.15q-.9-.85-2-1.35V24l1.8-.65 1.05.45q1.1.4 1.7 1.35l.2-.75q.05-1.05-.65-1.65l.1-.05.95-.45.75.7.45-.2.35-.1 4.95.05 1.7-.25-.65-.2q-1.05-.6-2.25-1.1l-1.35-.45-1.05-.2-2.55.2q-.7.15-1.3.45l-.5-.75-1.5 1.25q-.9.75-2.05.65-1.1-.05-1.8-.85l.35-.7.1-.35.3-.1.2-.05q.6-.35.85-1.05l.7.3q-.4.75-.45 1.8.6-1 1.5-1.75l.7-.2q-.35.65-.4 1.4.7-.65 1.15-1.9l-.1.1v-.65l.1-.45.25-.15.8 1.4q.15-.7.75-1.05l.85.85.25.3.7-.95.6-.55.25.15 1.15.4 2.2-.05.7-.2.15.1.3.35.3.45q.55.65 1.2.15l.3-.2q.15-.15.3-.15v.45q0 .5.3 1l.6 1.2m-8.2 2.5l-1.2-.9 1.2.9q.7.65.5 1.75l-.25.65 1.5.2h1.5l2.4-.65q.95-.4 1.5-1.3l-.55.05q-1.35.1-2.6-.4l-.1-.05q-1.15-.5-2.45-.45l-1.45.2m-.15 2.8l.4-.4-.4.4-.35.2-1.05.35 2.5.8.45.15-.15-.3q-.5-.85-1.4-1.2m-2.55.6l1.15-.05-1.15.05m0-7.35q-.2.05-.45.25l-.25.25.25-.25q.25-.2.45-.25"/><path fill="url(#j)" d="M7.65 21.45q-.45.5-1.15.6.35.25.35.85l-.05.35-.5.75q-1 .65-2.15.5-1.05-.1-1.9-.75-1.15-.95-.55-1.95l-.4-.2Q.25 21.05.05 19.7q-.2-1.25.55-2.15.8-1 1.75-1.45L2.5 15q.4-1.3 1.5-1.1h.15q.7-.3 1.35.2l.4.4 1.2 1.1.35.45.1.3-.65.15q-1.1.4-1.15 1.8-.1 1.35 1.1 1.7l1.25.25v.15l-.1.35-.35.7M3.25 20q.7.05.7.8 0 .7-.55.95l-1.7.05 1.7-.05q.55-.25.55-.95 0-.75-.7-.8m1.55-4.7l.25.3q.9 1 .05 2.25l-.85.65q-1.3.3-1.7-1.1l-.2-1.3.2 1.3q.4 1.4 1.7 1.1l.85-.65q.85-1.25-.05-2.25l-.25-.3m.65 6.5h.4q.4.05.65.25-.25-.2-.65-.25h-.4"/><path fill="url(#k)" d="M7.55 16.35q.75-.05 1.4.45.85.75.6 2.1l-.1.3q-.25.7-.85 1.05l-.2.05-.3-.05L6.85 20q-1.2-.35-1.1-1.7.05-1.4 1.15-1.8l.65-.15"/><path fill="none" stroke="#630" stroke-width=".05" stroke-linecap="round" stroke-miterlimit="3" d="M24.35 2.35l.05-.1.2-.5q.45-.85 1.45-.8 1.1.05 2.15.6l.75.7.3.9v.45M26.7 14.25l-.1 1.4M26 16.7l-.45 1.45M25 19l-.5.55-.1-.35q-.25-.55-.6-.55m2.1 4.55l-.3-.1h-.05m.8 3.65l-.3.95m-.8 1.5l-1.05 1.45-.55.6M22.2 32.3l-1.85.45H18.1m-9-.95l-.85-.6q-.9-.75-1.35-1.65L6.65 29m0-1.85q.2-1.05.95-1.85.75-.85 1.65-1.25L9.3 24m1.8-.65l2.3-.6m1.05-.5l-.95-1.1m-3.35-1.65l1.05.05m.7-.2l.65-.4m.1-1.1l.15-.5-.15-.75m-.2-1.3l-.3-.1-.8.15m-1.2-.1q.05-.95.45-1.85v-.05m-.3-6.9l-.45-.9-.2-1.35.1-1 .25-.85.1-.2.5-.95q.65-.75 1.7-1l1.5.2 1 1.05.2.4m2.9 4.5l-.1-2.1-.4-1.85-.6-1.65-.2-.75.8 1.35 1 1.2 1.05 1.55.5-1.3v-.05l.15-.45-.1.5-.1 1.35-.05.5.05.6.15.9.85-.45.65-.25-.6.9m-5.5 10.25l.05.25m10 6.2l.05.05M12.8 17.35l.05.25h.05v.1"/><path fill="none" stroke="#C17000" stroke-width=".05" stroke-linecap="round" stroke-miterlimit="3" d="M23.7 18.7v.45q0 .5.3 1l.6 1.2m.95 1.75l.6 1.3q.45.95.25 2.05l-.05.3m-.3.95l-.55 1.1-.25.4m-1.6 2.05l-.65.55-.8.5m-4.1.45l-4.65.05-1.1-.1-2.2-.45-1.05-.45M6.65 29l-.05-.2q-.15-.7 0-1.55l.05-.1M9.3 24l1.8-.65m2.3-.6l.1-.05.95-.45m-.95-1.1l-.5-.75-1.5 1.25q-.9.75-2.05.65-1.1-.05-1.8-.85m1.8-2.25l.7.3m1.05.05l.7-.2m.65-.4v-.65l.1-.45m8.5.15l-.7.2-2.2.05-1.15-.4-.25-.15m-1.65 5.25l1.2.9m.25 2.4l-.4.4-.35.2-1.05.35-1.15.05m11.85-4.15l-.1-.05M8.4 20.3l-.3.1m4.9 0l.25-.25q.25-.2.45-.25m-1.15-.95l.1-.1m2.55 4.1l-.75-.7m2.2 4l.25-.65q.2-1.1-.5-1.75"/><path fill="none" stroke="#C47400" stroke-width=".05" stroke-linecap="round" stroke-miterlimit="3" d="M24.6 21.35q0-.8.55-1.3.55-.45 1.2-.4l.05-.15.3-.5 1-1q.7-.85 1.5-.55l.1.05q.95-.15 1.3.95l.15 1 1.4 1.2.05.05.4.75.1 1.15q-.2 1.15-1.05 1.7l-.4.15q.4.65-.05 1.25l-.4.4q-.7.6-1.6.7-.95.15-1.75-.4l-.35-.35-.15-.65q-.05-.55.3-.75-1-.1-1.3-1.15l-.05-.3M7.65 21.45q-.45.5-1.15.6.35.25.35.85l-.05.35-.5.75q-1 .65-2.15.5-1.05-.1-1.9-.75-1.15-.95-.55-1.95l-.4-.2Q.25 21.05.05 19.7q-.2-1.25.55-2.15.8-1 1.75-1.45L2.5 15q.4-1.3 1.5-1.1h.15q.7-.3 1.35.2l.4.4 1.2 1.1.35.45.1.3q.75-.05 1.4.45.85.75.6 2.1l-.1.3m16 3.85q-.65-.35-.8-1.2l-.05-.5m6.15-1.9l-.2 1.15q-.35 1.2-1.4.95l-.75-.6q-.45-.65-.35-1.25l.4-.75.2-.2M25.9 23.1l1.2-.3q.8-.4.75-1.45-.05-1.25-1-1.6l-.5-.1m-.9 3.4h.05l.1.05h.3v.1m1.35 1.45l.5-.2h.35m3.15 0l-.8.1h-.15l-.45-.15q-.45-.25-.45-.85-.05-.65.55-.7M8.1 20.25L6.85 20q-1.2-.35-1.1-1.7.05-1.4 1.15-1.8l.65-.15m-5.2-.25l.2 1.3q.4 1.4 1.7 1.1l.85-.65q.85-1.25-.05-2.25l-.25-.3m-3.1 6.5l1.7-.05q.55-.25.55-.95 0-.75-.7-.8m4.85.4l-.1.35-.35.7m.45-1.05v-.15l.3.05.2-.05q.6-.35.85-1.05M6.5 22.05q-.25-.2-.65-.25h-.4"/><path fill="none" stroke="#C77400" stroke-width=".05" stroke-linecap="round" stroke-miterlimit="3" d="M29.25 3.6L29 5.15l-.2.7q-.4 1.1-1.5 1.6-1.2.55-1.3 1.7-.1 1.25.15 2.35l-.2.4q.8.85.75 2.25v.1m-.1 1.4l-.15 1-.15.45-.3-.4m-.45 1.45L25 19m-12.35-2.4l-.05-.6-.15-.7m-1.1.05q-.7.25-1.1.85l-.1-.95m.45-1.9q.4-.9.95-1.6-1-.6-.6-1.5l.2-.35q.6-.9.5-2.2-.7-.45-1.2-1.05l-.15-.2m4.7-4.6l.15.25.55 1.75.2.8.5 1.05.4.5 1.1.15m3.05 0l1.9-.1.75-1.15.15-.45.05-.05.55-2.25m-1.45 3.9h-.05m.6.05l-.55-.05m-1.95.1l-.25.35q-.85 1.5-1.35 3.15l-.65 2.1-.2.65-.15-1.2-.35-1.25-.05-.25-.65-2-.2-.45q.65.75.7-.1l.1-1m2.5 4.3q.45-.5 1.05-.8l.3-.1 2.15-.05.4.15.95.6-1.1-.05H22.9l-1.15.05-1.35.2-.35.45m2.25 3.6q.1 1.5-1.45 1.3l-2.3-.1-2.2-.45-1.1-.9q.25-1.1 1.4-1.25l2.25-.45 2.2.1q1.15.35 1.2 1.75m-10.5-3.25l-.25.3m2.9-1.35h.1q.65.05 1.25.35l.55.35.75.25-1.2-1.45-.1-.1q-.7-.55-1.55-.45-.85.1-1.5.7l-.35.35.8-.05.9.05h.35m2.35-4.2h-.2l-1.25.35"/><path fill="none" stroke="#DF5900" stroke-width=".05" stroke-linecap="round" stroke-miterlimit="3" d="M23.8 18.65l-.1.05q-.15 0-.3.15l-.3.2q-.65.5-1.2-.15l-.3-.45-.3-.35-.15-.1.45-.1q1.1-.2 1.35-1.25l-1.75.3q-1.15-.1-1.85-.95-.3.5-.8.5l-2.25.2-.85-.1-.15-.05q-.55-.2-1-.7-.85-.95-.65-2.3m9.3 3.1l.4-.25q.9-.6 1.25-1.6.3-.65.2-1.5m-7.95 4.4l-.6.55-.7.95-.25-.3-.85-.85q-.6.35-.75 1.05l-.8-1.4m2.6-.85l1.35.85m-1.3-.5l-.05-.35-.2-.3"/></svg>