<svg xmlns="http://www.w3.org/2000/svg" viewBox="0 0 29.2 28.7" width="29.2" height="28.7"><defs><radialGradient gradientUnits="userSpaceOnUse" r="819.2" cx="0" cy="0" spreadMethod="pad" gradientTransform="matrix(-.006 -.004 -.005 .007 17.1 6.45)" id="a"><stop offset="0" stop-color="#900"/><stop offset=".431" stop-color="#200000"/><stop offset=".859"/></radialGradient><radialGradient gradientUnits="userSpaceOnUse" r="819.2" cx="0" cy="0" fx="87942.4" fy="0" spreadMethod="repeat" gradientTransform="matrix(-.009 0 0 .007 8.3 10.55)" id="b"><stop offset=".165" stop-color="#fff"/><stop offset="1"/></radialGradient><linearGradient gradientUnits="userSpaceOnUse" x1="-819.2" x2="819.2" gradientTransform="matrix(.001 .001 .002 -.002 11.3 14.5)" id="c"><stop offset=".227" stop-color="#EAEAEA"/><stop offset=".239" stop-color="#EAEAEA"/><stop offset="1"/></linearGradient><radialGradient gradientUnits="userSpaceOnUse" r="819.2" cx="0" cy="0" spreadMethod="pad" gradientTransform="matrix(-.014 0 0 .014 15.65 19.25)" id="d"><stop offset="0" stop-color="#fff"/><stop offset=".482" stop-color="#EAEAEA"/><stop offset="1"/></radialGradient><radialGradient gradientUnits="userSpaceOnUse" r="819.2" cx="0" cy="0" spreadMethod="pad" gradientTransform="matrix(-.005 0 0 .005 3.7 16)" id="e"><stop offset="0" stop-color="#f60"/><stop offset="1"/></radialGradient><radialGradient gradientUnits="userSpaceOnUse" r="819.2" cx="0" cy="0" spreadMethod="pad" gradientTransform="matrix(-.202 0 0 .202 29.75 -.6)" id="f"><stop offset="0" stop-color="#f60"/><stop offset="1"/></radialGradient><linearGradient gradientUnits="userSpaceOnUse" x1="-819.2" x2="819.2" gradientTransform="matrix(.001 .003 .004 -.001 7.45 18.65)" id="g"><stop offset=".227" stop-color="#EAEAEA"/><stop offset=".239" stop-color="#EAEAEA"/><stop offset="1"/></linearGradient><linearGradient gradientUnits="userSpaceOnUse" x1="-819.2" x2="819.2" gradientTransform="matrix(-.002 -.003 -.004 .004 11.75 21.15)" id="h"><stop offset=".227" stop-color="#EAEAEA"/><stop offset=".239" stop-color="#EAEAEA"/><stop offset="1"/></linearGradient><radialGradient gradientUnits="userSpaceOnUse" r="819.2" cx="0" cy="0" spreadMethod="pad" gradientTransform="matrix(-.002 0 0 .002 20.45 1.65)" id="i"><stop offset="0" stop-color="#900"/><stop offset=".859"/></radialGradient><radialGradient gradientUnits="userSpaceOnUse" r="819.2" cx="0" cy="0" spreadMethod="pad" gradientTransform="matrix(-.007 -.003 -.005 .011 23.1 8.05)" id="j"><stop offset="0" stop-color="#900"/><stop offset=".431" stop-color="#200000"/><stop offset=".859"/></radialGradient><radialGradient gradientUnits="userSpaceOnUse" r="819.2" cx="0" cy="0" spreadMethod="pad" gradientTransform="matrix(-.002 0 0 .002 22.8 1.95)" id="k"><stop offset="0" stop-color="#900"/><stop offset=".859"/></radialGradient><radialGradient gradientUnits="userSpaceOnUse" r="819.2" cx="0" cy="0" spreadMethod="pad" gradientTransform="matrix(-.001 0 0 .003 24.5 7.95)" id="l"><stop offset="0" stop-color="#900"/><stop offset=".859"/></radialGradient><radialGradient gradientUnits="userSpaceOnUse" r="819.2" cx="0" cy="0" spreadMethod="pad" gradientTransform="matrix(-.001 -.001 -.002 .002 18.05 6.55)" id="m"><stop offset="0" stop-color="#900"/><stop offset=".859"/></radialGradient><linearGradient gradientUnits="userSpaceOnUse" x1="-819.2" x2="819.2" gradientTransform="matrix(-.003 0 0 .002 19.05 8.6)" id="n"><stop offset=".227" stop-color="#EAEAEA"/><stop offset=".239" stop-color="#EAEAEA"/><stop offset="1"/></linearGradient><radialGradient gradientUnits="userSpaceOnUse" r="819.2" cx="0" cy="0" spreadMethod="pad" gradientTransform="matrix(-.002 0 0 .002 21.25 5.2)" id="o"><stop offset="0" stop-color="#009"/><stop offset=".086" stop-color="#f00"/><stop offset=".333"/><stop offset=".467" stop-color="#fff"/></radialGradient><radialGradient gradientUnits="userSpaceOnUse" r="819.2" cx="0" cy="0" spreadMethod="pad" gradientTransform="matrix(-.001 -.001 -.001 .002 21.7 9.05)" id="p"><stop offset="0" stop-color="#900"/><stop offset=".859"/></radialGradient><radialGradient gradientUnits="userSpaceOnUse" r="819.2" cx="0" cy="0" spreadMethod="pad" gradientTransform="matrix(-.006 0 0 .006 22.55 24.2)" id="q"><stop offset="0" stop-color="#f60"/><stop offset="1"/></radialGradient><linearGradient gradientUnits="userSpaceOnUse" x1="-819.2" x2="819.2" gradientTransform="matrix(-.001 0 -.001 .003 18.3 24.85)" id="r"><stop offset=".227" stop-color="#EAEAEA"/><stop offset=".239" stop-color="#EAEAEA"/><stop offset="1"/></linearGradient><radialGradient gradientUnits="userSpaceOnUse" r="819.2" cx="0" cy="0" spreadMethod="pad" gradientTransform="matrix(-.004 0 0 .004 20.9 4.75)" id="s"><stop offset="0" stop-color="#f60"/><stop offset="1" stop-color="#3C1700"/></radialGradient></defs><path fill="url(#a)" d="M21.05 2v.2l-.6.8q-.3.4-.3.95h-.05l.05.05v1.1L20 6.15l-.55.9-.15.15-.65.5-.8.7-.6.8-.3.65-.05.1-.5.8-.05.05-.7.75-.7.35.65-.7.55-.7v-.05l.1-.1.05-.2.05-.2-.25.05-.2.05q-.6.25-1 .75l-.55.5-1.25.5q-.65.15-.6.8l-.05-.35.1-.3.3-.45q.65-.5 1.4-.8 1.05-.4 1.2-1.45l-1.55.05q-.75.25-1.15.9l-.85.9-.95.1.25-.15 1-.55.35-.8.1-.4.2-.3q.45-.55 1.35-.7 1.25-.25 1.4-1.35-.45-.25-1.15 0l-1.7.65q-.6.25-1 .65l.15-.3.7-.6 1.9-.85 1.05-.2 1-.3.4-.25q.45-.4-.3-.55l-1.05-.05-.95.2-.9.45.75-.6.9-.5q.55-.15 1.1 0l1.05.05.95-.4.6-.8.1-.65.25-.35q.75-1.25 1.6-.55m-1.8 3.3l.25-.55-.65.4q-.65.4-.8 1.1l-.3.75-1.15 1.35.8-.4q.9-.4 1.25-1.1l.6-1.55"/><path fill="url(#b)" d="M8.85 15.35l-.45-.55-1-1.05-.55-.7-.8-1.35L5 10.25q1.25-.55 2.6-.7l2.6-.1L12.85 9l-.2.3-.1.4-.35.8-1 .55-.25.15.95-.1.85-.9q.4-.65 1.15-.9l1.55-.05q-.15 1.05-1.2 1.45-.75.3-1.4.8l-.3.45-.1.3.05.35q-.05-.65.6-.8l1.25-.5.55-.5q.4-.5 1-.75l.2-.05-.75.95-1.05 1.6q-1.05.3-1.95.95l-.95.6-1.05.55-1.5.7"/><path fill="url(#c)" d="M8.85 15.35l1.5-.7 1.05-.55.95-.6q.9-.65 1.95-.95l-.15.25q-.4 1.05-1.35 1.9l-.45.4-1.7 1.25q-.5.3-1.05.55l-.75-1.55"/><path fill="url(#d)" d="M18.85 10l-.9 1.2-.5.65-.45.2q-.45.25-.8.6l-.2.25q.8-.5 1.75-.75l1.35-.45.85-.3q.25-.1.25.2l-.1.3-1.75 1.75-.3.1 1.15-.15.4-.3.8-.75.2-.1v.3l.15 1-.15 1.05-.95 1.9.9-.7.6-.85.2-1.2.2-.95.55-.9.7-.6.15.85.4 1.75.05 1.35.45-1.2.05-1.05-.1-1.35q.1-.55.5-.3l.55.45.2.25q-.05.8.05 1.6.15 1.4.6 2.6l.6 2.1.2 1.25.05 2.25q-1-1.15-2.4-1.7l-1.2-.2h-.25l-1.8.25q-.65.15-1 .5-.4.45-.3 1.2l.05.5q.05-.9 1.2-1.35h.05q.95.65.95 2.05.05 1.3-1.25 2.05l-1.1.65q-.35.25-.9 0l-.2-.05.05-.7-.05-.45-.25-2.3.05-.65.1-.1.85-1.8-.25.4q-.55.65-.7 1.45v.05l-.2.4q-.55.8-.8 1.5l-.3.75-.6 1.8-.2 1.15q.05.65.5 1.25h-.05q-1-.75-2.35-.95-1.45-.15-2.7 0L10 27.6q-.8-.25-1.2-1.15l-1.2-.5 1.3-.65 1.75-1.55 3.05-3.25 1.6-1.7 1.75-2.4-1.7.7q-2.4 1.05-4.45 2.65L7.15 22.5 7 22.4q-1-.6-2.25-.6l.2-.25L6.7 20.1l.75-.45v-.05l1.1-.7 1.7-1.4 2.1-2.4.45-.4q.95-.85 1.35-1.9l.15-.25 1.05-1.6.75-.95.25-.05-.05.2-.05.2-.1.1v.05l-.55.7-.65.7.7-.35.7-.75.05-.05.5-.8.05-.1.45.15.9.05.55-.05m2.75 17.4v.25l-.05.85q-1.6-1.05-3.6-1.15l.15-.35.3-1 .15.05h.05l1.7.05.2-.1 1.05-.4.05 1.6q-.75.15-1.35.45l1.35-.25m1.75-11.55l-.9 1.3-.65.85q-.05-1.05.6-1.8-.65.75-.6 1.8l.65-.85.9-1.3M21.8 18l-.65 1.1q-.7 1.05-1.95 1.5l1.7-.2-1.7.2q1.25-.45 1.95-1.5l.65-1.1m-1.75.55l-.2.2-.5.85.5-.85.2-.2m-.35 4.4l-.05-.35.05.35"/><path fill="url(#e)" d="M7.4 13.75l-.3.85.1.9.05.15q.2 1.4-1.05 2.15.45-.6.2-1.6-.3-1.2-1.5-.7l-1.55.75-.6.4-.45.3v.7l.3.6q.35.3.95.25l1 .15-1.55.3v-.05l-1.1-.6-.65.05L0 16.5l.35-.45.65-.35-.6-.95 1.1-.45.05-.2q.3-1.2 1.2-.85l.45.25q1.25.55 2.05 0 .75.05 1.2.45l.4-.9.55.7m-4 1.35l-1.95 1.55.05.45.05 1.05.35.15-.35-.15-.05-1.05-.05-.45L3.4 15.1m-1.15-.45L1 15.7l1.25-1.05"/><path fill="url(#f)" d="M3.35 16.25l.6.65-1.2-.25.6-.4m-1.05 1.4h.25l1.8-.3-1.75.9-.3-.6"/><path fill="url(#g)" d="M4.75 21.8H4.6l-2.1.4q.55-1.05 1.5-1.8L5.8 19l.5-.35q.95-.65 2-1.15l1.3-.6q.55-.25 1.05-.55l1.7-1.25-2.1 2.4-1.7 1.4-1.1.7v.05l-.75.45-1.75 1.45-.2.25"/><path fill="url(#h)" d="M7.6 25.95l-.8-.35-.35-.3.05-.1.9-1.45q.4-.8-.25-1.25l3.75-2.75q2.05-1.6 4.45-2.65l1.7-.7-1.75 2.4-1.6 1.7-3.05 3.25L8.9 25.3l-1.3.65M13 20.2l-2.55 1.7-2.1 1.85-1.9 1.55 1.9-1.55 2.1-1.85L13 20.2"/><path fill="url(#i)" d="M19.2 2.1l.85-.9q.7-1.2 1.65-.5l-.55.9-.1.4q-.85-.7-1.6.55l-.25.35v-.8"/><path fill="url(#j)" d="M19.2 2.1l.1-.65q.1-.5.6-.8.45-.25.95-.4l.95.15q.2-.45.8-.4l.95.05q-.1 0-.45.3l.35.15q.45.15.85.45l.75.7.45.9.2 1.05-.15 1.05q-.15.55.05 1.05.15.45.65.7l.1.05.75.25.9.5.2.35-1.15-.4-.85-.05q-.35 0-.4.35l.1.45.8.65.75.7q.4.5.4.95L27 9.65l-.35-.15-.4-.6-.4-.3.25.45.25 1.35.4 1.1.75.8.85.85.6.95.25.7-1.45-1.55-1.6-1.45-.85-1.15-.15-.75.15.75.15.5.35 1.15.5 1.1.5 1.05.5.95.35 1.05q.05.6-.3.9l-.7-1.75-1.25-2.65-.2-.5-.15-.2-.2-.25-.55-.45q-.4-.25-.5.3l.1 1.35-.05 1.05-.45 1.2-.05-1.35-.4-1.75-.15-.85-.7.6-.55.9-.2.95-.2 1.2-.6.85-.9.7.95-1.9.15-1.05-.15-1v-.3l-.2.1-.8.75-.4.3-1.15.15.3-.1 1.75-1.75.1-.3q0-.3-.25-.2l-.85.3-1.35.45q-.95.25-1.75.75l.2-.25q.35-.35.8-.6l.45-.2.5-.65.9-1.2.05-.05.9-.7.85-.85h-1l-1.25.7-.5.5q.15-.55.5-.95l.7-.65 1.05-.35 1.05-.35h.05l.8-.7.45-.45-.05-.75-.45-1-.5-.85-.4-.95-.05-.4V2l.1-.4.55-.9q-.95-.7-1.65.5l-.85.9M22.4.65l.7-.3-.7.3h-.6l-.2.45.85 1.9.05-1.3q1.1.45 1.5 1.6v-.65q.1-.7-.25-1.2-.5-.75-1.35-.8m.5 5.3l-.4.2.4-.2m2.25 3.95l.2.2q.2-.45-.15-.95-.65-.85-.65-1.8V7l-.05-1.2-.65 1.85-.1.25q-.35.55.05 1.1.35.45.9.65l.45.25m.1-1.65l.6.35-.6-.35m-3.05.85l.55-.95-.05-.85-.4.6-.8.8-.35.6-.35.8-.2.7 1.6-1.7m-1.35 2.75q-.2.25-.25.6.05-.35.25-.6"/><path fill="url(#k)" d="M22.4.65q.85.05 1.35.8.35.5.25 1.2v.65q-.4-1.15-1.5-1.6L22.45 3l-.85-1.9.2-.45h.6"/><path fill="url(#l)" d="M25.15 9.9l-.45-.25q-.55-.2-.9-.65-.4-.55-.05-1.1l.1-.25.65-1.85.05 1.2v.35q0 .95.65 1.8.35.5.15.95l-.2-.2"/><path fill="url(#m)" d="M19.25 5.3l-.6 1.55q-.35.7-1.25 1.1l-.8.4L17.75 7l.3-.75q.15-.7.8-1.1l.65-.4-.25.55"/><path fill="url(#n)" d="M19.3 7.2l1.9.05v.05l-1.05.35L19.1 8l-.7.65q-.35.4-.5.95l.5-.5 1.25-.7h1l-.85.85-.9.7-.05.05-.55.05-.9-.05-.45-.15.3-.65.6-.8.8-.7.65-.5"/><path fill="url(#o)" d="M20.15 4.55l.7-.05.55.15.55.55.35.65-.8.05-.7-.15-.45-.6-.2-.55v-.05"/><path fill="url(#p)" d="M22.2 9.1l-1.6 1.7.2-.7.35-.8.35-.6.8-.8.4-.6.05.85-.55.95"/><path fill="url(#q)" d="M22.7 20.15q0 .65.25.65 1.05.15 1.6.9l.1.05q.85.55-.1 1.3l.6.4 1 2.2q.85 1.5-.45 2l-.8.4-.35.25.2-.3q.5-.6 1.3-1.05-.8-.2-.9-1.35v-.05q-.65-.35-1-1.15v-.05l-.4-.2.45 1q.4.55-.15 1.25l-1.1.8-.15.1-1.2.1-1.35.25q.6-.3 1.35-.45l.6-.15L23.25 26h.05v-.05l-.1-1.5v-.05l-.55-.6q-.15.75.15 1.35l-1.25.45-1.05.4-.2.1-1.7-.05V26q.55.25.9 0l1.1-.65q1.3-.75 1.25-2.05 0-1.4-.95-2.05h-.05q-1.15.45-1.2 1.35l-.05-.5q-.1-.75.3-1.2.35-.35 1-.5l1.8-.25m1.1 2.45q-.2.85-.05 1.55-.15-.7.05-1.55m-.8-.3l-.15.75-.2.75.2-.75.15-.75"/><path fill="url(#r)" d="M17.95 27.35l-1.85.1.2-1.15.6-1.8.3-.75q.25-.7.8-1.5l.2-.4-.05.65.25 2.3.05.45-.05.7-.15-.05.15.1-.3 1-.15.35"/><path fill="url(#s)" d="M21.05 2.2l.05.4.4.95.5.85.45 1 .05.75-.45.45-.8.7-.05-.05-1.9-.05.15-.15.55-.9.15-1.05v-.5l.2.55.45.6.7.15.8-.05-.35-.65-.55-.55-.55-.15-.7.05V3.95q0-.55.3-.95l.6-.8"/><path fill="none" stroke="#000" stroke-width=".05" stroke-linecap="round" stroke-miterlimit="3" d="M20.15 3.95V4m1.05 3.25l.05.05"/><path fill="none" stroke="#3C3C3C" stroke-width=".05" stroke-linecap="round" stroke-miterlimit="3" d="M25.05 12.25q-.05.8.05 1.6.15 1.4.6 2.6l.6 2.1.2 1.25.05 2.25q-1-1.15-2.4-1.7l-1.2-.2h-.25m-1.1 7.25v.25l-.05.85q-1.6-1.05-3.6-1.15l-1.85.1q.05.65.5 1.25m5.8-12.5q-.65.75-.6 1.8l.65-.85.9-1.3M20.9 20.4l-1.7.2q1.25-.45 1.95-1.5l.65-1.1m-2.45 1.6l.5-.85.2-.2m-1.85 3.3l.1-.1.85-1.8m-.95 1.9l-.2.4q-.55.8-.8 1.5l-.3.75-.6 1.8-.2 1.15m3.55-4.85l.05.35M18.4 26l-.15-.1.15.05.2.05m0 .05h-.05L18.4 26m3.2 1.2l-.05-1.6"/><path fill="none" stroke="#666" stroke-width=".05" stroke-linecap="round" stroke-miterlimit="3" d="M19.3 7.2l1.9.05M16.55 28.7q-1-.75-2.35-.95-1.45-.15-2.7 0L10 27.6q-.8-.25-1.2-1.15l-1.2-.5-.8-.35-.35-.3.05-.1.9-1.45q.4-.8-.25-1.25L7 22.4q-1-.6-2.25-.6H4.6M5.8 19l.5-.35q.95-.65 2-1.15l1.3-.6-.75-1.55-.45-.55-1-1.05M16.1 10l-.75.95-1.05 1.6-.15.25q-.4 1.05-1.35 1.9l-.45.4M9.6 16.9q.55-.25 1.05-.55l1.7-1.25m-5.9 10.2l1.9-1.55 2.1-1.85L13 20.2"/><path fill="none" stroke="#752E00" stroke-width=".05" stroke-linecap="round" stroke-miterlimit="3" d="M22.7 20.15q0 .65.25.65 1.05.15 1.6.9l.1.05q.85.55-.1 1.3l.6.4 1 2.2q.85 1.5-.45 2l-.8.4-.35.25.2-.3q.5-.6 1.3-1.05-.8-.2-.9-1.35v-.05q-.65-.35-1-1.15v-.05l-.4-.2.45 1q.4.55-.15 1.25l-1.1.8-.15.1-1.2.1-1.35.25q.6-.3 1.35-.45l.6-.15L23.25 26h.05v-.05l-.1-1.5v-.05l-.55-.6.2-.75.15-.75M7.4 13.75l-.3.85.1.9.05.15q.2 1.4-1.05 2.15.45-.6.2-1.6-.3-1.2-1.5-.7l-1.55.75m-.6.4l-.45.3v.7l.3.6q.35.3.95.25l1 .15-1.55.3v-.05l-1.1-.6-.65.05L0 16.5l.35-.45.65-.35-.6-.95 1.1-.45.05-.2q.3-1.2 1.2-.85l.45.25q1.25.55 2.05 0 .75.05 1.2.45l.4-.9.55.7m15.3 6.4l-1.8.25q-.65.15-1 .5-.4.45-.3 1.2l.05.5q.05-.9 1.2-1.35h.05q.95.65.95 2.05.05 1.3-1.25 2.05l-1.1.65q-.35.25-.9 0m0 .05l1.7.05.2-.1 1.05-.4 1.25-.45q-.3-.6-.15-1.35m1.1.35q-.15-.7.05-1.55M1.9 18.3l-.35-.15-.05-1.05-.05-.45L3.4 15.1m-.65 1.55l.6-.4M1 15.7l1.25-1.05"/><path fill="none" stroke="#530000" stroke-width=".05" stroke-linecap="round" stroke-miterlimit="3" d="M25.85 8.6l.4.3.4.6.35.15.85.55q0-.45-.4-.95l-.75-.7-.8-.65-.1-.45q.05-.35.4-.35l.85.05 1.15.4-.2-.35-.9-.5-.75-.25-.1-.05q-.5-.25-.65-.7-.2-.5-.05-1.05l.15-1.05-.2-1.05-.45-.9-.75-.7q-.4-.3-.85-.45L23.1.35l-.7.3m.7-.3q.35-.3.45-.3L22.6 0q-.6-.05-.8.4l-.95-.15q-.5.15-.95.4-.5.3-.6.8l-.1.65M21.7.7l-.55.9-.1.4m0 .1v.1l.05.4.4.95.5.85.45 1 .05.75.4-.2M21.05 2.2l-.6.8q-.3.4-.3.95m0 .05v1.1L20 6.15l-.55.9-.15.15-.65.5-.8.7-.6.8-.3.65-.05.1-.5.8-.05.05-.7.75-.7.35.65-.7.55-.7v-.05l.1-.1.05-.2.05-.2-.25.05-.2.05q-.6.25-1 .75l-.55.5-1.25.5q-.65.15-.6.8l-.05-.35.1-.3.3-.45q.65-.5 1.4-.8 1.05-.4 1.2-1.45l-1.55.05q-.75.25-1.15.9l-.85.9-.95.1.25-.15 1-.55.35-.8.1-.4.2-.3q.45-.55 1.35-.7 1.25-.25 1.4-1.35-.45-.25-1.15 0l-1.7.65q-.6.25-1 .65l.15-.3.7-.6 1.9-.85 1.05-.2 1-.3.4-.25q.45-.4-.3-.55l-1.05-.05-.95.2-.9.45.75-.6.9-.5q.55-.15 1.1 0l1.05.05.95-.4.6-.8.1-.65v-.8m2.05 5.2l.8-.7.45-.45m2.65 3.75l.15.75.85 1.15 1.6 1.45 1.45 1.55-.25-.7-.6-.95-.85-.85-.75-.8-.4-1.1-.25-1.35-.25-.45-.6-.35m-4-.95h-.05l-1.05.35L19.1 8l-.7.65q-.35.4-.5.95l.5-.5 1.25-.7h1l-.85.85-.9.7-.05.05-.9 1.2-.5.65-.45.2q-.45.25-.8.6l-.2.25q.8-.5 1.75-.75l1.35-.45.85-.3q.25-.1.25.2l-.1.3-1.75 1.75-.3.1 1.15-.15.4-.3.8-.75.2-.1q.05-.35.25-.6m-.25.6v.3l.15 1-.15 1.05-.95 1.9.9-.7.6-.85.2-1.2.2-.95.55-.9.7-.6.15.85.4 1.75.05 1.35.45-1.2.05-1.05-.1-1.35q.1-.55.5-.3l.55.45.2.25.15.2.2.5 1.25 2.65.7 1.75q.35-.3.3-.9l-.35-1.05-.5-.95-.5-1.05-.5-1.1-.35-1.15-.15-.5"/><path fill="none" stroke="#512000" stroke-width=".05" stroke-linecap="round" stroke-miterlimit="3" d="M20.15 4.55l.7-.05.55.15.55.55.35.65-.8.05-.7-.15-.45-.6-.2-.55"/><path fill="none" stroke="#331400" stroke-width=".05" stroke-linecap="round" stroke-miterlimit="3" d="M3.35 16.25l.6.65-1.2-.25m-.45 1h.25l1.8-.3-1.75.9"/><path fill="none" stroke="#999" stroke-width=".05" stroke-linecap="round" stroke-miterlimit="3" d="M6.85 13.05l-.8-1.35L5 10.25q1.25-.55 2.6-.7l2.6-.1L12.85 9"/><path fill="none" stroke="#4E4E4E" stroke-width=".05" stroke-linecap="round" stroke-miterlimit="3" d="M4.6 21.8l-2.1.4q.55-1.05 1.5-1.8L5.8 19"/></svg>