<svg xmlns="http://www.w3.org/2000/svg" viewBox="0 -0.1 47.1 46.9" width="47.1" height="46.9"><defs><radialGradient gradientUnits="userSpaceOnUse" r="819.2" cx="0" cy="0" fx="99.2" fy="0" spreadMethod="pad" gradientTransform="matrix(.005 0 0 .005 32.65 1.3)" id="a"><stop offset="0" stop-color="#fc0"/><stop offset=".314" stop-color="#f60"/><stop offset=".475" stop-color="#451C00"/><stop offset="1"/></radialGradient><linearGradient gradientUnits="userSpaceOnUse" x1="-819.2" x2="819.2" gradientTransform="matrix(.024 0 0 .011 24.4 8.85)" id="b"><stop offset="0"/><stop offset=".561" stop-color="#960"/><stop offset="1" stop-color="#900"/></linearGradient><linearGradient gradientUnits="userSpaceOnUse" x1="-819.2" x2="819.2" gradientTransform="matrix(.006 0 0 .006 30.1 12.55)" id="c"><stop offset="0"/><stop offset=".561" stop-color="#960"/><stop offset="1" stop-color="#900"/></linearGradient><linearGradient gradientUnits="userSpaceOnUse" x1="-819.2" x2="819.2" gradientTransform="matrix(.007 0 0 .008 31.95 22.2)" id="d"><stop offset="0"/><stop offset=".561" stop-color="#960"/><stop offset="1" stop-color="#900"/></linearGradient><linearGradient gradientUnits="userSpaceOnUse" x1="-819.2" x2="819.2" gradientTransform="matrix(.004 0 0 .013 26.4 25.3)" id="e"><stop offset="0"/><stop offset=".561" stop-color="#960"/><stop offset="1" stop-color="#900"/></linearGradient><linearGradient gradientUnits="userSpaceOnUse" x1="-819.2" x2="819.2" gradientTransform="matrix(.01 0 0 .018 38.65 30.3)" id="f"><stop offset="0"/><stop offset=".561" stop-color="#960"/><stop offset="1" stop-color="#900"/></linearGradient><radialGradient gradientUnits="userSpaceOnUse" r="819.2" cx="0" cy="0" spreadMethod="pad" gradientTransform="matrix(.001 0 0 .001 43.75 38.65)" id="g"><stop offset="0" stop-color="#f69"/><stop offset=".165" stop-color="#8C8C00"/><stop offset=".263" stop-color="#6fc"/><stop offset=".498" stop-color="#cf3"/><stop offset=".718"/><stop offset="1" stop-color="#ff0"/></radialGradient><radialGradient gradientUnits="userSpaceOnUse" r="819.2" cx="0" cy="0" spreadMethod="pad" gradientTransform="matrix(.001 0 0 .001 44.25 38.2)" id="h"><stop offset="0" stop-color="#f69"/><stop offset=".165" stop-color="#8C8C00"/><stop offset=".263" stop-color="#6fc"/><stop offset=".498" stop-color="#cf3"/><stop offset=".718"/><stop offset="1" stop-color="#ff0"/></radialGradient><radialGradient gradientUnits="userSpaceOnUse" r="819.2" cx="0" cy="0" spreadMethod="pad" gradientTransform="matrix(.001 0 0 .001 44.85 39)" id="i"><stop offset="0" stop-color="#f69"/><stop offset=".165" stop-color="#8C8C00"/><stop offset=".263" stop-color="#6fc"/><stop offset=".498" stop-color="#cf3"/><stop offset=".718"/><stop offset="1" stop-color="#ff0"/></radialGradient><radialGradient gradientUnits="userSpaceOnUse" r="819.2" cx="0" cy="0" fx="2240" fy="0" spreadMethod="pad" gradientTransform="matrix(.001 0 0 .001 45.5 38.6)" id="j"><stop offset="0" stop-color="#f69"/><stop offset=".165" stop-color="#8C8C00"/><stop offset=".263" stop-color="#6fc"/><stop offset=".498" stop-color="#cf3"/><stop offset=".718"/><stop offset="1" stop-color="#ff0"/></radialGradient><radialGradient gradientUnits="userSpaceOnUse" r="819.2" cx="0" cy="0" fx="313.6" fy="0" spreadMethod="pad" gradientTransform="matrix(.001 0 0 .001 46.2 39)" id="k"><stop offset="0" stop-color="#f69"/><stop offset=".165" stop-color="#8C8C00"/><stop offset=".263" stop-color="#6fc"/><stop offset=".498" stop-color="#cf3"/><stop offset=".718"/><stop offset="1" stop-color="#ff0"/></radialGradient><radialGradient gradientUnits="userSpaceOnUse" r="819.2" cx="0" cy="0" spreadMethod="pad" gradientTransform="matrix(.001 0 0 .001 46.1 39.75)" id="l"><stop offset="0" stop-color="#f69"/><stop offset=".165" stop-color="#8C8C00"/><stop offset=".263" stop-color="#6fc"/><stop offset=".498" stop-color="#cf3"/><stop offset=".718"/><stop offset="1" stop-color="#ff0"/></radialGradient><radialGradient gradientUnits="userSpaceOnUse" r="819.2" cx="0" cy="0" fx="355.2" fy="0" spreadMethod="unknown" gradientTransform="matrix(.001 0 0 .001 45.65 39.35)" id="m"><stop offset="0" stop-color="#f69"/><stop offset=".165" stop-color="#8C8C00"/><stop offset=".263" stop-color="#6fc"/><stop offset=".498" stop-color="#cf3"/><stop offset=".718"/><stop offset="1" stop-color="#ff0"/></radialGradient><radialGradient gradientUnits="userSpaceOnUse" r="819.2" cx="0" cy="0" spreadMethod="pad" gradientTransform="matrix(.001 0 0 .001 46.4 40.4)" id="n"><stop offset="0" stop-color="#f69"/><stop offset=".165" stop-color="#8C8C00"/><stop offset=".263" stop-color="#6fc"/><stop offset=".498" stop-color="#cf3"/><stop offset=".718"/><stop offset="1" stop-color="#ff0"/></radialGradient><radialGradient gradientUnits="userSpaceOnUse" r="819.2" cx="0" cy="0" fx="1548.8" fy="0" spreadMethod="pad" gradientTransform="matrix(.001 0 0 .001 46.55 41.3)" id="o"><stop offset="0" stop-color="#f69"/><stop offset=".165" stop-color="#8C8C00"/><stop offset=".263" stop-color="#6fc"/><stop offset=".498" stop-color="#cf3"/><stop offset=".718"/><stop offset="1" stop-color="#ff0"/></radialGradient><radialGradient gradientUnits="userSpaceOnUse" r="819.2" cx="0" cy="0" spreadMethod="pad" gradientTransform="matrix(.001 0 0 .001 46.75 39.7)" id="p"><stop offset="0" stop-color="#f69"/><stop offset=".165" stop-color="#8C8C00"/><stop offset=".263" stop-color="#6fc"/><stop offset=".498" stop-color="#cf3"/><stop offset=".718"/><stop offset="1" stop-color="#ff0"/></radialGradient><linearGradient gradientUnits="userSpaceOnUse" x1="-819.2" x2="819.2" gradientTransform="matrix(.003 0 0 .007 37.9 36.15)" id="q"><stop offset="0"/><stop offset=".561" stop-color="#960"/><stop offset="1" stop-color="#900"/></linearGradient><radialGradient gradientUnits="userSpaceOnUse" r="819.2" cx="0" cy="0" spreadMethod="pad" gradientTransform="matrix(.001 0 0 .001 26.35 31.6)" id="r"><stop offset="0" stop-color="#f69"/><stop offset=".165" stop-color="#8C8C00"/><stop offset=".263" stop-color="#6fc"/><stop offset=".498" stop-color="#cf3"/><stop offset=".718"/><stop offset="1" stop-color="#ff0"/></radialGradient><radialGradient gradientUnits="userSpaceOnUse" r="819.2" cx="0" cy="0" spreadMethod="pad" gradientTransform="matrix(.001 0 0 .001 26.2 32.55)" id="s"><stop offset="0" stop-color="#f69"/><stop offset=".165" stop-color="#8C8C00"/><stop offset=".263" stop-color="#6fc"/><stop offset=".498" stop-color="#cf3"/><stop offset=".718"/><stop offset="1" stop-color="#ff0"/></radialGradient><radialGradient gradientUnits="userSpaceOnUse" r="819.2" cx="0" cy="0" spreadMethod="pad" gradientTransform="matrix(.001 0 0 .001 26.25 35.2)" id="t"><stop offset="0" stop-color="#f69"/><stop offset=".165" stop-color="#8C8C00"/><stop offset=".263" stop-color="#6fc"/><stop offset=".498" stop-color="#cf3"/><stop offset=".718"/><stop offset="1" stop-color="#ff0"/></radialGradient><radialGradient gradientUnits="userSpaceOnUse" r="819.2" cx="0" cy="0" spreadMethod="pad" gradientTransform="matrix(.001 0 0 .001 26.25 34.15)" id="u"><stop offset="0" stop-color="#f69"/><stop offset=".165" stop-color="#8C8C00"/><stop offset=".263" stop-color="#6fc"/><stop offset=".498" stop-color="#cf3"/><stop offset=".718"/><stop offset="1" stop-color="#ff0"/></radialGradient><radialGradient gradientUnits="userSpaceOnUse" r="819.2" cx="0" cy="0" spreadMethod="pad" gradientTransform="matrix(.001 0 0 .001 26.1 33.15)" id="v"><stop offset="0" stop-color="#f69"/><stop offset=".165" stop-color="#8C8C00"/><stop offset=".263" stop-color="#6fc"/><stop offset=".498" stop-color="#cf3"/><stop offset=".718"/><stop offset="1" stop-color="#ff0"/></radialGradient><radialGradient gradientUnits="userSpaceOnUse" r="819.2" cx="0" cy="0" spreadMethod="pad" gradientTransform="matrix(.001 0 0 .001 26.35 35.7)" id="w"><stop offset="0" stop-color="#f69"/><stop offset=".165" stop-color="#8C8C00"/><stop offset=".263" stop-color="#6fc"/><stop offset=".498" stop-color="#cf3"/><stop offset=".718"/><stop offset="1" stop-color="#ff0"/></radialGradient><linearGradient gradientUnits="userSpaceOnUse" x1="-819.2" x2="819.2" gradientTransform="matrix(.004 0 0 .003 30.05 41.05)" id="x"><stop offset="0"/><stop offset=".561" stop-color="#960"/><stop offset="1" stop-color="#900"/></linearGradient><radialGradient gradientUnits="userSpaceOnUse" r="819.2" cx="0" cy="0" spreadMethod="pad" gradientTransform="matrix(.001 0 0 .001 26.8 40.2)" id="y"><stop offset="0" stop-color="#f69"/><stop offset=".165" stop-color="#8C8C00"/><stop offset=".263" stop-color="#6fc"/><stop offset=".498" stop-color="#cf3"/><stop offset=".718"/><stop offset="1" stop-color="#ff0"/></radialGradient><radialGradient gradientUnits="userSpaceOnUse" r="819.2" cx="0" cy="0" spreadMethod="pad" gradientTransform="matrix(.001 0 0 .001 27.45 41.05)" id="z"><stop offset="0" stop-color="#f69"/><stop offset=".165" stop-color="#8C8C00"/><stop offset=".263" stop-color="#6fc"/><stop offset=".498" stop-color="#cf3"/><stop offset=".718"/><stop offset="1" stop-color="#ff0"/></radialGradient><radialGradient gradientUnits="userSpaceOnUse" r="819.2" cx="0" cy="0" spreadMethod="pad" gradientTransform="matrix(.001 0 0 .001 28.05 41.55)" id="A"><stop offset="0" stop-color="#f69"/><stop offset=".165" stop-color="#8C8C00"/><stop offset=".263" stop-color="#6fc"/><stop offset=".498" stop-color="#cf3"/><stop offset=".718"/><stop offset="1" stop-color="#ff0"/></radialGradient><radialGradient gradientUnits="userSpaceOnUse" r="819.2" cx="0" cy="0" spreadMethod="pad" gradientTransform="matrix(.001 0 0 .001 28.8 42.25)" id="B"><stop offset="0" stop-color="#f69"/><stop offset=".165" stop-color="#8C8C00"/><stop offset=".263" stop-color="#6fc"/><stop offset=".498" stop-color="#cf3"/><stop offset=".718"/><stop offset="1" stop-color="#ff0"/></radialGradient><radialGradient gradientUnits="userSpaceOnUse" r="819.2" cx="0" cy="0" spreadMethod="pad" gradientTransform="matrix(.001 0 0 .001 30.85 42.9)" id="C"><stop offset="0" stop-color="#f69"/><stop offset=".165" stop-color="#8C8C00"/><stop offset=".263" stop-color="#6fc"/><stop offset=".498" stop-color="#cf3"/><stop offset=".718"/><stop offset="1" stop-color="#ff0"/></radialGradient><radialGradient gradientUnits="userSpaceOnUse" r="819.2" cx="0" cy="0" spreadMethod="pad" gradientTransform="matrix(.001 0 0 .001 30.2 42.9)" id="D"><stop offset="0" stop-color="#f69"/><stop offset=".165" stop-color="#8C8C00"/><stop offset=".263" stop-color="#6fc"/><stop offset=".498" stop-color="#cf3"/><stop offset=".718"/><stop offset="1" stop-color="#ff0"/></radialGradient><radialGradient gradientUnits="userSpaceOnUse" r="819.2" cx="0" cy="0" spreadMethod="pad" gradientTransform="matrix(.001 0 0 .001 29.6 42.6)" id="E"><stop offset="0" stop-color="#f69"/><stop offset=".165" stop-color="#8C8C00"/><stop offset=".263" stop-color="#6fc"/><stop offset=".498" stop-color="#cf3"/><stop offset=".718"/><stop offset="1" stop-color="#ff0"/></radialGradient><radialGradient gradientUnits="userSpaceOnUse" r="819.2" cx="0" cy="0" spreadMethod="pad" gradientTransform="matrix(.001 0 0 .001 42.25 38.6)" id="F"><stop offset="0" stop-color="#f69"/><stop offset=".165" stop-color="#8C8C00"/><stop offset=".263" stop-color="#6fc"/><stop offset=".498" stop-color="#cf3"/><stop offset=".718"/><stop offset="1" stop-color="#ff0"/></radialGradient><radialGradient gradientUnits="userSpaceOnUse" r="819.2" cx="0" cy="0" fx="100374.4" fy="0" spreadMethod="pad" gradientTransform="matrix(.001 0 0 .001 42.9 38.35)" id="G"><stop offset="0" stop-color="#f69"/><stop offset=".165" stop-color="#8C8C00"/><stop offset=".263" stop-color="#6fc"/><stop offset=".498" stop-color="#cf3"/><stop offset=".718"/><stop offset="1" stop-color="#ff0"/></radialGradient><linearGradient gradientUnits="userSpaceOnUse" x1="-819.2" x2="819.2" gradientTransform="matrix(.009 0 0 .019 7.4 31.2)" id="H"><stop offset="0"/><stop offset=".561" stop-color="#960"/><stop offset="1" stop-color="#900"/></linearGradient><radialGradient gradientUnits="userSpaceOnUse" r="819.2" cx="0" cy="0" spreadMethod="pad" gradientTransform="matrix(.004 0 0 .004 15.4 2.2)" id="I"><stop offset="0" stop-color="#fc0"/><stop offset=".314" stop-color="#f60"/><stop offset=".475" stop-color="#451C00"/><stop offset="1"/></radialGradient><linearGradient gradientUnits="userSpaceOnUse" x1="-819.2" x2="819.2" gradientTransform="matrix(.003 0 0 .006 19.4 12.7)" id="J"><stop offset="0"/><stop offset=".561" stop-color="#960"/><stop offset="1" stop-color="#900"/></linearGradient><linearGradient gradientUnits="userSpaceOnUse" x1="-819.2" x2="819.2" gradientTransform="matrix(.006 0 0 .01 12.05 23.45)" id="K"><stop offset="0"/><stop offset=".561" stop-color="#960"/><stop offset="1" stop-color="#900"/></linearGradient><linearGradient gradientUnits="userSpaceOnUse" x1="-819.2" x2="819.2" gradientTransform="matrix(.004 0 0 .012 20.1 26.2)" id="L"><stop offset="0"/><stop offset=".561" stop-color="#960"/><stop offset="1" stop-color="#900"/></linearGradient><radialGradient gradientUnits="userSpaceOnUse" r="819.2" cx="0" cy="0" fx="-78720" fy="0" spreadMethod="pad" gradientTransform="matrix(.001 0 0 .001 23.15 31)" id="M"><stop offset="0" stop-color="#f69"/><stop offset=".165" stop-color="#8C8C00"/><stop offset=".263" stop-color="#6fc"/><stop offset=".498" stop-color="#cf3"/><stop offset=".718"/><stop offset="1" stop-color="#ff0"/></radialGradient><radialGradient gradientUnits="userSpaceOnUse" r="819.2" cx="0" cy="0" fx="25.6" fy="0" spreadMethod="pad" gradientTransform="matrix(.001 0 0 .001 22.7 31.85)" id="N"><stop offset="0" stop-color="#f69"/><stop offset=".165" stop-color="#8C8C00"/><stop offset=".263" stop-color="#6fc"/><stop offset=".498" stop-color="#cf3"/><stop offset=".718"/><stop offset="1" stop-color="#ff0"/></radialGradient><radialGradient gradientUnits="userSpaceOnUse" r="819.2" cx="0" cy="0" spreadMethod="pad" gradientTransform="matrix(.001 0 0 .001 21 34.3)" id="O"><stop offset="0" stop-color="#f69"/><stop offset=".165" stop-color="#8C8C00"/><stop offset=".263" stop-color="#6fc"/><stop offset=".498" stop-color="#cf3"/><stop offset=".718"/><stop offset="1" stop-color="#ff0"/></radialGradient><radialGradient gradientUnits="userSpaceOnUse" r="819.2" cx="0" cy="0" spreadMethod="pad" gradientTransform="matrix(.001 0 0 .001 22.4 32.9)" id="P"><stop offset="0" stop-color="#f69"/><stop offset=".165" stop-color="#8C8C00"/><stop offset=".263" stop-color="#6fc"/><stop offset=".498" stop-color="#cf3"/><stop offset=".718"/><stop offset="1" stop-color="#ff0"/></radialGradient><radialGradient gradientUnits="userSpaceOnUse" r="819.2" cx="0" cy="0" spreadMethod="pad" gradientTransform="matrix(.001 0 0 .001 21.85 33.6)" id="Q"><stop offset="0" stop-color="#f69"/><stop offset=".165" stop-color="#8C8C00"/><stop offset=".263" stop-color="#6fc"/><stop offset=".498" stop-color="#cf3"/><stop offset=".718"/><stop offset="1" stop-color="#ff0"/></radialGradient><radialGradient gradientUnits="userSpaceOnUse" r="819.2" cx="0" cy="0" fx="201.6" fy="0" spreadMethod="pad" gradientTransform="matrix(.001 0 0 .001 21.4 34.05)" id="R"><stop offset="0" stop-color="#f69"/><stop offset=".165" stop-color="#8C8C00"/><stop offset=".263" stop-color="#6fc"/><stop offset=".498" stop-color="#cf3"/><stop offset=".718"/><stop offset="1" stop-color="#ff0"/></radialGradient><linearGradient gradientUnits="userSpaceOnUse" x1="-819.2" x2="819.2" gradientTransform="matrix(.003 0 0 .005 8.35 38.4)" id="S"><stop offset="0"/><stop offset=".561" stop-color="#960"/><stop offset="1" stop-color="#900"/></linearGradient><linearGradient gradientUnits="userSpaceOnUse" x1="-819.2" x2="819.2" gradientTransform="matrix(.003 0 0 .001 15.1 42.6)" id="T"><stop offset="0"/><stop offset=".561" stop-color="#960"/><stop offset="1" stop-color="#900"/></linearGradient><radialGradient gradientUnits="userSpaceOnUse" r="819.2" cx="0" cy="0" spreadMethod="pad" gradientTransform="matrix(.001 0 0 .001 16.8 43.1)" id="U"><stop offset="0" stop-color="#f69"/><stop offset=".165" stop-color="#8C8C00"/><stop offset=".263" stop-color="#6fc"/><stop offset=".498" stop-color="#cf3"/><stop offset=".718"/><stop offset="1" stop-color="#ff0"/></radialGradient><radialGradient gradientUnits="userSpaceOnUse" r="819.2" cx="0" cy="0" spreadMethod="pad" gradientTransform="matrix(.001 0 0 .001 16.05 43.4)" id="V"><stop offset="0" stop-color="#f69"/><stop offset=".165" stop-color="#8C8C00"/><stop offset=".263" stop-color="#6fc"/><stop offset=".498" stop-color="#cf3"/><stop offset=".718"/><stop offset="1" stop-color="#ff0"/></radialGradient><radialGradient gradientUnits="userSpaceOnUse" r="819.2" cx="0" cy="0" spreadMethod="pad" gradientTransform="matrix(.001 0 0 .001 15.15 43.5)" id="W"><stop offset="0" stop-color="#f69"/><stop offset=".165" stop-color="#8C8C00"/><stop offset=".263" stop-color="#6fc"/><stop offset=".498" stop-color="#cf3"/><stop offset=".718"/><stop offset="1" stop-color="#ff0"/></radialGradient><radialGradient gradientUnits="userSpaceOnUse" r="819.2" cx="0" cy="0" fx="1648" fy="0" spreadMethod="pad" color-interpolation="linearRGB" gradientTransform="matrix(.001 0 0 .001 14.35 43.65)" id="X"><stop offset="0" stop-color="#f69"/><stop offset=".165" stop-color="#8C8C00"/><stop offset=".263" stop-color="#6fc"/><stop offset=".498" stop-color="#cf3"/><stop offset=".718"/><stop offset="1" stop-color="#ff0"/></radialGradient><radialGradient gradientUnits="userSpaceOnUse" r="819.2" cx="0" cy="0" spreadMethod="pad" gradientTransform="matrix(.001 0 0 .001 .8 41.1)" id="Y"><stop offset="0" stop-color="#f69"/><stop offset=".165" stop-color="#8C8C00"/><stop offset=".263" stop-color="#6fc"/><stop offset=".498" stop-color="#cf3"/><stop offset=".718"/><stop offset="1" stop-color="#ff0"/></radialGradient><radialGradient gradientUnits="userSpaceOnUse" r="819.2" cx="0" cy="0" spreadMethod="pad" gradientTransform="matrix(.001 0 0 .001 .45 41.65)" id="Z"><stop offset="0" stop-color="#f69"/><stop offset=".165" stop-color="#8C8C00"/><stop offset=".263" stop-color="#6fc"/><stop offset=".498" stop-color="#cf3"/><stop offset=".718"/><stop offset="1" stop-color="#ff0"/></radialGradient><radialGradient gradientUnits="userSpaceOnUse" r="819.2" cx="0" cy="0" spreadMethod="pad" gradientTransform="matrix(.001 0 0 .001 1.9 40.3)" id="aa"><stop offset="0" stop-color="#f69"/><stop offset=".165" stop-color="#8C8C00"/><stop offset=".263" stop-color="#6fc"/><stop offset=".498" stop-color="#cf3"/><stop offset=".718"/><stop offset="1" stop-color="#ff0"/></radialGradient><radialGradient gradientUnits="userSpaceOnUse" r="819.2" cx="0" cy="0" spreadMethod="pad" gradientTransform="matrix(.001 0 0 .001 1.25 40.55)" id="ab"><stop offset="0" stop-color="#f69"/><stop offset=".165" stop-color="#8C8C00"/><stop offset=".263" stop-color="#6fc"/><stop offset=".498" stop-color="#cf3"/><stop offset=".718"/><stop offset="1" stop-color="#ff0"/></radialGradient><radialGradient gradientUnits="userSpaceOnUse" r="819.2" cx="0" cy="0" fx="1177.6" fy="0" spreadMethod="pad" gradientTransform="matrix(.001 0 0 .001 .35 42.3)" id="ac"><stop offset="0" stop-color="#f69"/><stop offset=".165" stop-color="#8C8C00"/><stop offset=".263" stop-color="#6fc"/><stop offset=".498" stop-color="#cf3"/><stop offset=".718"/><stop offset="1" stop-color="#ff0"/></radialGradient><radialGradient gradientUnits="userSpaceOnUse" r="819.2" cx="0" cy="0" spreadMethod="pad" gradientTransform="matrix(.001 0 0 .001 .3 42.85)" id="ad"><stop offset="0" stop-color="#f69"/><stop offset=".165" stop-color="#8C8C00"/><stop offset=".263" stop-color="#6fc"/><stop offset=".498" stop-color="#cf3"/><stop offset=".718"/><stop offset="1" stop-color="#ff0"/></radialGradient><radialGradient gradientUnits="userSpaceOnUse" r="819.2" cx="0" cy="0" spreadMethod="pad" gradientTransform="matrix(.001 0 0 .001 .35 43.5)" id="ae"><stop offset="0" stop-color="#f69"/><stop offset=".165" stop-color="#8C8C00"/><stop offset=".263" stop-color="#6fc"/><stop offset=".498" stop-color="#cf3"/><stop offset=".718"/><stop offset="1" stop-color="#ff0"/></radialGradient></defs><path fill="url(#a)" d="M31.9 5.05l-.25-.1-1.55-1.3q-.65-.8-.7-1.8-.1-1 .35-1.8l.95-.1q1.15 0 2.05.55.95.45 1.35 1.3.25.6.1 1.15-.4.9-1.2 1.5l-1.1.6"/><path fill="url(#b)" d="M31.9 5.05l-.65.2-1.65.2q-.35.95.25 1.8L31.1 8.6q.7.55 1.6.9l9.15 4.15 1.55 1.45q.5.6.25 1.2v.15q-.35.35-.9.35l-.45-.05-4-.85-2 .1-1.2.45-1.7-1.95q-1.2-1.5-3.1-2.65l-2.3-1.8-2.8-2.75 1.45 3.45q.65 1.8.9 3.7l.25 1.45-1-.4-4-.8-1.2.6-.3-7.75-.3.7-2.7 4.5q-.7 1.15-.85 2.55l-.2 2.4-.2-.1-.05-.05-1.05-.9q-.85-.55-1.8-.75l-1.95-.35-.3.05-1.35.1-5.15.3q-.55-.35 0-.85l.9-1.1q.65-.85 1.45-1.55.7-.65 1.6-1.05l5.5-2.25 1.8-.95 1.45-1.3.85-1.6-3.5-.35q1.15.05 1.95-.6.7-.65.95-1.65.2-.85-.1-1.75L17.8.05l1.65.3 4 1.05 2.05.15 1.95-.6 2.3-.9q-.45.8-.35 1.8.05 1 .7 1.8l1.55 1.3.25.1"/><path fill="url(#c)" d="M27.8 15.9l-.25-1.45q-.25-1.9-.9-3.7L25.2 7.3l2.8 2.75 2.3 1.8q1.9 1.15 3.1 2.65l1.7 1.95-.45.2-1.8 1.1-1.6-.15-3.45-1.7"/><path fill="url(#d)" d="M27.8 15.9l3.45 1.7q.05 2.4 1.4 3.9l4.65 4.45-2.65 3-4.8-3.75-.85-.9q-1.7-1.8-2.15-4.15-.5-2.4-.05-4.65l1 .4"/><path fill="url(#e)" d="M22.8 14.7l4 .8q-.45 2.25.05 4.65.45 2.35 2.15 4.15l.85.9.15 2.6-.55 2.65q-1.15 2.8-2.8 5.35.05-.35-.25-.35h.05l.05-.15q.05-.4-.35-.4l-.05-.5h.35l.05-.15q.05-.35-.35-.3h-.05v-.55l.2-.05.05-.1-.2-.35v-.1l.25-.05.05-.15q.1-.3-.15-.3l.05-.4.2-.05.1-.15-.15-.3.05-.15q.75-2.3.1-4.75-.6-2.2-1.9-4.25-1.3-2.1-1.65-4.35l-.3-3.2M26.5 36l-.15.2-.05-.2h.2m-.3-.5v-.05h.1l-.05.05h-.05"/><path fill="url(#f)" d="M35.1 16.45l1.2-.45 2-.1 4 .85.45.05q1.65 1.6 2.55 3.8.9 2.2-.05 4.5-.95 2-2.75 3.65l-2.55 2-3.35 2.6q-.7.9-.95 2.15-.45 1.75-.25 3.55l.7 2.5q.8 1.4 2.55 2.05 2.7 1 4.85-.55 2.55-1.9.05-3.25-1.35-.7-2.8 0v-.1q.55-.7 1.2-1.05v.05q.1.25.45.15l.1-.15-.05-.25.25-.1q.05.3.4.2l.15-.3h.7q.1.25.45.2l.05-.1.8.25.05.1q.05.25.4.15l.05-.05.2.1v.2q.05.25.4.15v-.05l.25.3q-.1.05-.05.2l.2.25q.1.45-.2 1.1h-.15l-.1.3.05.05q-1.2 1.9-3.3 2.75-2.4.95-5.2.65-2.55-.25-4.45-1.65l-1.95-2.3-.6-1.55q-.7-2.3 0-4.7.65-2.1 1.7-3.35l2.1-2.3 2.65-3 1.25-1.8q1.35-2.2-.25-4-1.55-1.85-3.65-3.5l.45-.2M45.95 39.4l-.35-.3h-.1l-.1.3q.05.25.45.15l.1-.15m.1.1l-.1.05-.1.25q.05.3.45.2l.05-.15q.1-.35-.3-.35m.25.7h-.05l-.1.3q.05.25.4.15l.1-.15-.35-.3m-2.65-1.75h-.1q-.15.1-.05.3 0 .25.4.15l.05-.1q.1-.4-.3-.35m1.15.35h-.1q-.15.1-.05.3 0 .25.4.15l.05-.15q.1-.35-.3-.3"/><path fill="url(#g)" d="M43.65 38.45q.4-.05.3.35l-.05.1q-.4.1-.4-.15-.1-.2.05-.3h.1"/><path fill="url(#h)" d="M43.95 38.25l.15-.3h.05q.4-.05.35.3l-.05.1-.05.1q-.35.05-.45-.2"/><path fill="url(#i)" d="M44.8 38.8q.4-.05.3.3l-.05.15q-.4.1-.4-.15-.1-.2.05-.3h.1"/><path fill="url(#j)" d="M45.25 38.6l.1-.25h.1q.4-.05.35.35l-.05.1-.05.05q-.35.1-.4-.15l-.05-.1"/><path fill="url(#k)" d="M45.95 38.9l.1-.1h.05l.35.3-.1.1v.05q-.35.1-.4-.15v-.2"/><path fill="url(#l)" d="M46.05 39.5q.4 0 .3.35l-.05.15q-.4.1-.45-.2l.1-.25.1-.05"/><path fill="url(#m)" d="M45.95 39.4l-.1.15q-.4.1-.45-.15l.1-.3h.1l.35.3"/><path fill="url(#n)" d="M46.3 40.2l.35.3-.1.15q-.35.1-.4-.15l.1-.3h.05"/><path fill="url(#o)" d="M46.55 41.05q.35 0 .25.35l-.05.1-.4-.1-.05-.05.1-.3h.15"/><path fill="url(#p)" d="M46.6 39.5l.05-.05.1-.05q.4 0 .35.35l-.15.15-.2.05-.2-.25q-.05-.15.05-.2"/><path fill="url(#q)" d="M39.95 30.75q.5 1.9.45 4 0 2-.95 3.7-.95 1.6-2.6 2.65l-.75.45-.7-2.5q1.1-1.2 1.3-3.05l-.1-2.65 3.35-2.6"/><path fill="url(#r)" d="M26.35 31.9l-.2-.2q-.1-.2.05-.3h.05l.05-.05.2.05.15.3-.1.15-.2.05"/><path fill="url(#s)" d="M26.15 32.8l-.15-.2q-.1-.2.05-.3h.25q.25 0 .15.3l-.05.15-.25.05"/><path fill="url(#t)" d="M26.2 35.45l-.2-.2.1-.3h.05v-.05q.4 0 .35.4l-.05.15h-.25"/><path fill="url(#u)" d="M26.1 34.4l-.1-.15.1-.3h.05q.4-.05.35.3l-.05.15h-.35"/><path fill="url(#v)" d="M26.1 33.4l-.25-.2.1-.3h.2l.2.35-.05.1-.2.05"/><path fill="url(#w)" d="M26.65 35.8l-.1.15-.05.05h-.2l-.15-.2q-.1-.2.05-.3h.05l.05-.05h.1q.3 0 .25.35"/><path fill="url(#x)" d="M33.4 43.15h-2.35l.05-.1q.05-.4-.35-.35l-.05.05-.1.25v.05l-.15-.1q.05-.3-.3-.25l-.05.05H29.95l-.1-.1v-.05q.05-.35-.3-.3l-.15.1-.3-.2-.35-.2-.45-.3q.1-.4-.3-.35l-.05.05h-.1l-.2-.15.05-.15q.1-.35-.35-.35l-.05.05-.1.05-.3-.35h.1l.05-.15q.05-.4-.35-.35v.05q-.1-.6.3-1.2.7 1.2 2.4 1.7l2.05.3 1.95 2.3"/><path fill="url(#y)" d="M26.9 40.5l-.35-.2.1-.25h.05V40q.4-.05.35.35l-.05.15h-.1"/><path fill="url(#z)" d="M27.65 41.25q-.4.1-.45-.2v-.2l.1-.05.05-.05q.45 0 .35.35l-.05.15"/><path fill="url(#A)" d="M28.3 41.7l-.05.1q-.4.1-.4-.15v-.25h.1l.05-.05q.4-.05.3.35"/><path fill="url(#B)" d="M29.1 42.2v.1l-.1.2q-.4.1-.45-.2l.1-.3h.1l.35.2"/><path fill="url(#C)" d="M31.05 43.15H31l-.4-.1V43l.1-.25.05-.05q.4-.05.35.35l-.05.1"/><path fill="url(#D)" d="M30.45 42.95v.1l-.05.1q-.4.1-.4-.15v-.25h.1l.05-.05q.35-.05.3.25"/><path fill="url(#E)" d="M29.85 42.65l-.15.2q-.4.05-.35-.3l.05-.15.15-.1q.35-.05.3.3v.05"/><path fill="url(#F)" d="M41.95 38.65l.15-.3h.05l.3.1.05.25-.1.15q-.35.1-.45-.15v-.05"/><path fill="url(#G)" d="M42.7 38.35l.1-.3h.05q.35-.05.4.2l-.15.3q-.35.1-.4-.2"/><path fill="url(#H)" d="M5.4 16l5.15-.3q-1.25 2.05-3 3.5-1.9 1.45-2.35 3.75-.55 2.6.6 4.75L7 29.3l3.05 2.05q1.95 1 3 2.5.75 1.05 1.15 2.35.8 2.45-.25 4.65l-.95 1.7-.55.8-1.05 1.2L10 45.6l-.2.05q-.85.95-2.35 1.1-2.95.25-5.25-.7-1.65-.65-1.95-2.3h.3l.1-.1q.05-.4-.35-.35l-.05.05v-.25l.2-.05.05-.1q.05-.35-.25-.35v-.05l.25-.05.1-.1q.05-.35-.25-.35v-.15H.6l.05-.15-.1-.3.1-.15H1l.1-.15-.15-.3.15-.15.35.05.1-.15v-.2l.15-.05q.05.25.4.15l.1-.15v-.15l1.7.05q-3.25 1.4-1.8 3.85 1.4 2.35 4.35 1.55 2.75-.8 3.65-3.15l.1-.25.3-1.75q0-1.45-.75-2.8l-1.4-1.8q-.95-.9-2.2-1.4l-.2-.1Q3.3 33.3 2.3 31.25q-.75-1.5-1.05-3.25L.8 23.35q0-2.5 1.85-4.8 1.8-2.3 2.75-2.55"/><path fill="url(#I)" d="M17.8.05l.45.95q.3.9.1 1.75-.25 1-.95 1.65-.8.65-1.95.6-.5-.3-.7-.95-.3-.9.05-1.8L15.65.8q.7-.75 1.8-.75h.35"/><path fill="url(#J)" d="M17.25 17.7l.2-2.4q.15-1.4.85-2.55l2.7-4.5.3-.7.3 7.75-1.45 1.35-2.7 1.15-.2-.1"/><path fill="url(#K)" d="M11.9 15.6l.3-.05 1.95.35q.95.2 1.8.75l1.05.9.05.05v1.9l-.15 2-.15.85q-.55 2.3-2.4 4.1L11 30l-.95 1.35L7 29.3l.2-.55q.9-2.4 2.7-4.35 1.7-1.75 1.6-4-.1-2.1.15-4.05l.25-.75"/><path fill="url(#L)" d="M17.45 17.8l2.7-1.15q-.45 2.8.6 5.6l2.1 5.15q.65 1.4.55 3.05l-.05.3H23l-.05.3.3.2-.25.55q-.05-.2-.35-.15h-.1l-.1.3q.05.25.4.15h.05l-.3.6-.25-.05-.05.05-.1.25.05.15-.25.25h-.3l-.1.3-.15.15-.15-.05-.05.05h-.05l-.05.25-.05.05-.2-.05v.05h-.05l-.1.3-2.55 1.45 1.55-2.9q.95-2.25-.75-4.4-1.55-1.95-1.95-4.3l-.15-2.75.15-2 .2-.85v-.15l.2-.7"/><path fill="url(#M)" d="M23.25 31.25l-.3-.2.05-.3h.35l.1.3-.1.2h-.1"/><path fill="url(#N)" d="M22.9 32.1h-.05q-.35.1-.4-.15l.1-.3h.1q.3-.05.35.15v.15l-.1.15.1-.3-.1.3"/><path fill="url(#O)" d="M20.75 34.4l.1-.3h.05v-.05l.2.05h.05l.1.15v.15l-.1.2q-.35.05-.4-.2"/><path fill="url(#P)" d="M22.25 33.1l-.05-.15.1-.25.05-.05.25.05.1.3-.1.15-.35-.05"/><path fill="url(#Q)" d="M21.6 33.65l.1-.3h.3l.1.3-.1.2q-.35.05-.4-.2"/><path fill="url(#R)" d="M21.15 34.05l.05-.25h.05l.05-.05.15.05.2.3-.1.15h-.3l-.1-.15v-.05"/><path fill="url(#S)" d="M6.15 34.5q1.25.5 2.2 1.4-.1 1.55.85 3l1.3 1.6-.3 1.75-.55-.3-2.1-1.85q-.7-.85-.95-2-.4-1.55-.4-3.25l-.05-.35"/><path fill="url(#T)" d="M12.45 43.35l.55-.8q2.15 1.2 4.3-.45l.4-.65q0 .95-.65 1.55-.05-.15-.3-.15l-.1.05-.1.25.05.15-.3.15q0-.3-.35-.3l-.05.05-.15.25.05.1-.4.1q.05-.4-.35-.35l-.05.05-.1.25v.1l-.25.05q.1-.4-.3-.35l-.1.05h-.05l-.05.25-1.7-.35"/><path fill="url(#U)" d="M16.6 43.3l-.05-.15.1-.25.1-.05q.25 0 .3.15v.2l-.05.15-.4-.05"/><path fill="url(#V)" d="M15.8 43.55l-.05-.1.15-.25.05-.05q.35 0 .35.3v.05l-.1.15-.4-.1"/><path fill="url(#W)" d="M14.9 43.7v-.1l.1-.25.05-.05q.4-.05.35.35h-.05l-.05.1-.4-.05"/><path fill="url(#X)" d="M14.15 43.7l.05-.25h.05l.1-.05q.4-.05.3.35l-.1.1q-.35.1-.4-.15"/><path fill="url(#Y)" d="M.95 40.85l.15.3-.1.15H.65l-.05-.15.05-.3h.3"/><path fill="url(#Z)" d="M.55 41.45l.1.3-.05.15H.35l-.15-.2.05-.25H.3l.05-.05.2.05"/><path fill="url(#aa)" d="M2.2 40.2v.15l-.1.15q-.35.1-.4-.15l.1-.3h.1q.25-.05.3.15"/><path fill="url(#ab)" d="M1.55 40.4v.2l-.1.15-.35-.05-.05-.1.05-.3h.15l.3.1"/><path fill="url(#ac)" d="M.35 42.05q.3 0 .25.35l-.1.1-.25.05-.15-.2.1-.25h.05v-.05h.1"/><path fill="url(#ad)" d="M.25 42.6q.3 0 .25.35l-.05.1-.2.05-.25-.2.1-.3h.15"/><path fill="url(#ae)" d="M.25 43.35l.05-.05q.4-.05.35.35l-.1.1h-.3L.1 43.6l.15-.25"/><path fill="none" stroke="#000" stroke-width=".05" stroke-linecap="round" stroke-linejoin="round" d="M30 42.75h-.05M26.2 35.5v-.05m-5.1-1.35l.05-.05m-5.8 9.6h.05"/><path fill="none" stroke="#990300" stroke-width=".05" stroke-linecap="round" stroke-linejoin="round" d="M42.75 16.8q.55 0 .9-.35v-.15q.25-.6-.25-1.2l-1.55-1.45L32.7 9.5q-.9-.35-1.6-.9l-1.25-1.35q-.6-.85-.25-1.8l1.65-.2.65-.2M15.45 5l3.5.35m16.15 11.1l1.2-.45 2-.1 4 .85.45.05m-22.6-.15l1.45-1.35m-4.15 2.5l-.2-.1"/><path fill="none" stroke="#452E00" stroke-width=".05" stroke-linecap="round" stroke-linejoin="round" d="M34.65 16.65l.45-.2m-3.85 1.15l1.6.15 1.8-1.1m-6.85-.75l3.45 1.7M7 29.3l-1.2-1.6q-1.15-2.15-.6-4.75.45-2.3 2.35-3.75 1.75-1.45 3-3.5M5.4 16q-.95.25-2.75 2.55Q.8 20.85.8 23.35L1.25 28q.3 1.75 1.05 3.25 1 2.05 3.65 3.15m.2.1q1.25.5 2.2 1.4l1.4 1.8q.75 1.35.75 2.8l-.3 1.75m-.1.25q-.9 2.35-3.65 3.15-2.95.8-4.35-1.55-1.45-2.45 1.8-3.85l-1.7-.05m-.5.15l-.15.05m-.45.3l-.15.15m-.3.45l-.1.15m-.2.45v.15m-.1.5v.05m0 .5v.25m0 .4q.3 1.65 1.95 2.3 2.3.95 5.25.7 1.5-.15 2.35-1.1l.2-.05 1.4-1.05 1.05-1.2.55-.8.95-1.7q1.05-2.2.25-4.65-.4-1.3-1.15-2.35-1.05-1.5-3-2.5L7 29.3"/><path fill="none" stroke="#503500" stroke-width=".05" stroke-linecap="round" stroke-linejoin="round" d="M21.6 15.3l1.2-.6 4 .8 1 .4"/><path fill="none" stroke="#472F00" stroke-width=".05" stroke-linecap="round" stroke-linejoin="round" d="M20.15 16.65l-2.7 1.15"/><path fill="none" stroke="#2B1D00" stroke-width=".05" stroke-linecap="round" stroke-linejoin="round" d="M18.95 5.35l-.85 1.6-1.45 1.3-1.8.95-5.5 2.25q-.9.4-1.6 1.05-.8.7-1.45 1.55l-.9 1.1q-.55.5 0 .85l5.15-.3 1.35-.1.3-.05 1.95.35q.95.2 1.8.75l1.05.9"/><path fill="none" stroke="#543800" stroke-width=".05" stroke-linecap="round" stroke-linejoin="round" d="M29.75.05l-2.3.9-1.95.6-2.05-.15-4-1.05-1.65-.3"/><path fill="none" stroke="#3F1900" stroke-width=".05" stroke-linecap="round" stroke-linejoin="round" d="M17.8.05l.45.95q.3.9.1 1.75-.25 1-.95 1.65-.8.65-1.95.6m16.45.05l-.25-.1-1.55-1.3q-.65-.8-.7-1.8-.1-1 .35-1.8m2.15 5l1.1-.6q.8-.6 1.2-1.5.15-.55-.1-1.15-.4-.85-1.35-1.3-.9-.55-2.05-.55l-.95.1M17.8.05h-.35q-1.1 0-1.8.75l-.85 1.45q-.35.9-.05 1.8.2.65.7.95"/><path fill="none" stroke="#3C2800" stroke-width=".05" stroke-linecap="round" stroke-linejoin="round" d="M17 17.55l.05.05.2.1M5.95 34.4l.2.1m4.05 7.75l-.1.25M7 29.3l.2-.55q.9-2.4 2.7-4.35 1.7-1.75 1.6-4-.1-2.1.15-4.05l.25-.75m5.35 3.05l-.2.85-.15 2 .15 2.75q.4 2.35 1.95 4.3 1.7 2.15.75 4.4l-1.55 2.9 2.55-1.45M16.9 21.5l-.15.85q-.55 2.3-2.4 4.1L11 30l-.95 1.35m7-13.75v1.9M10.2 42.25l-.55-.3-2.1-1.85q-.7-.85-.95-2-.4-1.55-.4-3.25l-.05-.35m10.15 8.95l.3-.15m.45-.3q.65-.6.65-1.55l-.4.65q-2.15 1.65-4.3.45m1.65 1.2l.25-.05m.5-.05l.4-.1m-1.65.15l-1.7-.35m-4.1-7.45q-.1 1.55.85 3l1.3 1.6"/><path fill="none" stroke="#402A00" stroke-width=".05" stroke-linecap="round" stroke-linejoin="round" d="M17.45 17.8l-.2.7m4.2 15.3l.15-.15m.4-.3l.25-.25m.35-.4l.3-.6.1-.3.25-.55m.1-.5l.05-.3q.1-1.65-.55-3.05l-2.1-5.15q-1.05-2.8-.6-5.6"/><path fill="none" stroke="#563900" stroke-width=".05" stroke-linecap="round" stroke-linejoin="round" d="M42.75 16.8q1.65 1.6 2.55 3.8.9 2.2-.05 4.5-.95 2-2.75 3.65l-2.55 2q.5 1.9.45 4 0 2-.95 3.7-.95 1.6-2.6 2.65l-.75.45q.8 1.4 2.55 2.05 2.7 1 4.85-.55 2.55-1.9.05-3.25-1.35-.7-2.8 0h-.1l.1-.1q.55-.7 1.2-1.05m.5-.2l.25-.1m.55-.1h.7m.5.1l.8.25m.5.2l.2.1m.4.3l.25.3m.15.45q.1.45-.2 1.1m-.2.35q-1.2 1.9-3.3 2.75-2.4.95-5.2.65-2.55-.25-4.45-1.65h-2.35m-.45-.1l-.15-.1m-.5-.2l-.1-.1m-.45-.25l-.3-.2m-.35-.2l-.45-.3m-.45-.3l-.2-.15m-.45-.4l-.3-.35m-.2-.45q-.1-.6.3-1.2.7 1.2 2.4 1.7l2.05.3-.6-1.55q-.7-2.3 0-4.7.65-2.1 1.7-3.35l2.1-2.3-4.8-3.75.15 2.6-.55 2.65q-1.15 2.8-2.8 5.35m-.15.2l-.15.2-.05-.2m-.15-1.1l-.05-.5m0-.45v-.55m.05-.5v-.1m.15-.5l.05-.4m.15-.5l.05-.15q.75-2.3.1-4.75-.6-2.2-1.9-4.25-1.3-2.1-1.65-4.35l-.3-3.2m7.05 10.5l-.85-.9q-1.7-1.8-2.15-4.15-.5-2.4-.05-4.65m7.85 1.15q2.1 1.65 3.65 3.5 1.6 1.8.25 4l-1.25 1.8-2.65 3m-3.4-11.35q.05 2.4 1.4 3.9l4.65 4.45m-1.9 13.1q1.1-1.2 1.3-3.05l-.1-2.65q-.7.9-.95 2.15-.45 1.75-.25 3.55l.7 2.5m.5-8.2l3.35-2.6M28.75 42l.35.2m4.3.95l-1.95-2.3"/></svg>