<svg xmlns="http://www.w3.org/2000/svg" viewBox="0 0 38.8 35.9" width="38.8" height="35.9"><defs><radialGradient gradientUnits="userSpaceOnUse" r="819.2" cx="0" cy="0" spreadMethod="pad" gradientTransform="matrix(-.035 0 0 .035 23 23.8)" id="a"><stop offset="0" stop-color="#fff"/><stop offset="1"/></radialGradient><radialGradient gradientUnits="userSpaceOnUse" r="819.2" cx="0" cy="0" spreadMethod="pad" gradientTransform="matrix(-.003 0 0 .003 9.85 5)" id="b"><stop offset="0" stop-color="#fff"/><stop offset="1"/></radialGradient><radialGradient gradientUnits="userSpaceOnUse" r="819.2" cx="0" cy="0" spreadMethod="pad" gradientTransform="matrix(-.016 0 0 .016 10.95 24.25)" id="c"><stop offset="0" stop-color="#fff"/><stop offset="1"/></radialGradient><linearGradient gradientUnits="userSpaceOnUse" x1="-819.2" x2="819.2" gradientTransform="matrix(-.006 0 0 .004 17.25 3.25)" id="d"><stop offset="0" stop-color="#f00"/><stop offset="1"/></linearGradient><radialGradient gradientUnits="userSpaceOnUse" r="819.2" cx="0" cy="0" spreadMethod="pad" gradientTransform="matrix(-.004 0 0 .004 19.5 9.15)" id="e"><stop offset="0" stop-color="#fff"/><stop offset="1"/></radialGradient><radialGradient gradientUnits="userSpaceOnUse" r="819.2" cx="0" cy="0" spreadMethod="pad" gradientTransform="matrix(-.007 0 0 .007 10.6 12.1)" id="f"><stop offset="0" stop-color="#fff"/><stop offset="1"/></radialGradient><radialGradient gradientUnits="userSpaceOnUse" r="819.2" cx="0" cy="0" spreadMethod="pad" gradientTransform="matrix(-.001 0 0 .001 10.05 13.65)" id="g"><stop offset="0" stop-color="#fff"/><stop offset="1"/></radialGradient><radialGradient gradientUnits="userSpaceOnUse" r="819.2" cx="0" cy="0" spreadMethod="pad" gradientTransform="matrix(-.007 0 0 .007 7.15 18.85)" id="h"><stop offset="0" stop-color="#fff"/><stop offset="1"/></radialGradient><radialGradient gradientUnits="userSpaceOnUse" r="819.2" cx="0" cy="0" spreadMethod="pad" gradientTransform="matrix(-.004 0 0 .004 5.7 22.85)" id="i"><stop offset="0" stop-color="#fff"/><stop offset="1"/></radialGradient><radialGradient gradientUnits="userSpaceOnUse" r="819.2" cx="0" cy="0" spreadMethod="pad" gradientTransform="matrix(-.001 0 0 .001 4.5 24.35)" id="j"><stop offset="0" stop-color="#fff"/><stop offset="1"/></radialGradient><radialGradient gradientUnits="userSpaceOnUse" r="819.2" cx="0" cy="0" spreadMethod="pad" gradientTransform="matrix(-.001 0 0 .001 2.8 21.9)" id="k"><stop offset="0" stop-color="#fff"/><stop offset="1"/></radialGradient><radialGradient gradientUnits="userSpaceOnUse" r="819.2" cx="0" cy="0" spreadMethod="pad" gradientTransform="matrix(-.009 .001 .002 .015 26.6 13.9)" id="l"><stop offset="0" stop-color="#fff"/><stop offset="1"/></radialGradient><radialGradient gradientUnits="userSpaceOnUse" r="819.2" cx="0" cy="0" spreadMethod="pad" gradientTransform="matrix(-.002 0 0 .002 36.15 16.6)" id="m"><stop offset="0" stop-color="#fff"/><stop offset="1"/></radialGradient><radialGradient gradientUnits="userSpaceOnUse" r="819.2" cx="0" cy="0" spreadMethod="repeat" gradientTransform="matrix(-.011 0 0 .011 37.6 19.15)" id="n"><stop offset="0" stop-color="#fff"/><stop offset="1" stop-color="#7B7B7B"/></radialGradient><radialGradient gradientUnits="userSpaceOnUse" r="819.2" cx="0" cy="0" spreadMethod="pad" gradientTransform="matrix(-.006 0 0 .006 28.75 21.95)" id="o"><stop offset="0" stop-color="#fff"/><stop offset="1"/></radialGradient><radialGradient gradientUnits="userSpaceOnUse" r="819.2" cx="0" cy="0" spreadMethod="pad" gradientTransform="matrix(-.027 0 0 .027 32.9 34.45)" id="p"><stop offset="0" stop-color="#fff"/><stop offset="1"/></radialGradient><radialGradient gradientUnits="userSpaceOnUse" r="819.2" cx="0" cy="0" spreadMethod="pad" gradientTransform="matrix(-.002 0 0 .002 28.75 35.35)" id="q"><stop offset="0" stop-color="#fff"/><stop offset="1"/></radialGradient><radialGradient gradientUnits="userSpaceOnUse" r="819.2" cx="0" cy="0" spreadMethod="pad" gradientTransform="matrix(-.001 0 0 .001 26.15 35.15)" id="r"><stop offset="0" stop-color="#fff"/><stop offset="1"/></radialGradient><radialGradient gradientUnits="userSpaceOnUse" r="819.2" cx="0" cy="0" spreadMethod="pad" gradientTransform="matrix(-.002 0 0 .002 33.45 25.6)" id="s"><stop offset="0" stop-color="#fff"/><stop offset="1"/></radialGradient><radialGradient gradientUnits="userSpaceOnUse" r="819.2" cx="0" cy="0" spreadMethod="pad" gradientTransform="matrix(-.001 0 0 .001 32.1 34.65)" id="t"><stop offset="0" stop-color="#fff"/><stop offset="1"/></radialGradient><radialGradient gradientUnits="userSpaceOnUse" r="819.2" cx="0" cy="0" spreadMethod="pad" gradientTransform="matrix(-.001 0 0 .001 7.15 35.1)" id="u"><stop offset="0" stop-color="#fff"/><stop offset="1"/></radialGradient><radialGradient gradientUnits="userSpaceOnUse" r="819.2" cx="0" cy="0" spreadMethod="pad" gradientTransform="matrix(-.001 0 0 .001 4.05 34.4)" id="v"><stop offset="0" stop-color="#fff"/><stop offset="1"/></radialGradient><radialGradient gradientUnits="userSpaceOnUse" r="819.2" cx="0" cy="0" spreadMethod="pad" gradientTransform="matrix(-.002 0 0 .002 11.35 35.45)" id="w"><stop offset="0" stop-color="#fff"/><stop offset="1"/></radialGradient></defs><path fill="#fff" d="M22.2 15.15l.05.05q.6.85 1.55 1.4l.6.35 1.25.25.55.05 2.5-.4.1-.05q1.15-.3 1.65-1.2l.15-.35.65-2.5v-.6q.65 1 .75 2.5v.3l-.2 1.55-.4.85-.85 1.35-.1.1-1.6 1.3-.15.1-.9.35-2.45.35H25l-2.55-.3-1.15-.45-.8-.6-.65-.65-.95-1.45-.2-.25.7-.6q.35-.55.85-.85.5-.35 1.1-.5l.7-.1h.15m-12.8 1.5l.1.15q.55.9 1.2.85l.35-.1V19.45l-.25.4-.9.75-.4.2-1.05.3-.1.05-.7.05-1.5-.25q-1.05-.35-1.6-1.1-.5-.65-.6-1.65l-.2-3.35 1 1.75q.9.9 2.35.9l1.5-.35.7-.45.1-.05"/><path d="M38.15 18.55l.2.55-1.75.1-.25.05 1.8-.7m.3.75l.25.85v1.4l-.95-.1q-.25.25-.35 1.05v.05l.1.3-1 .6-.05-1.1-1.25.2-.7.3q.85-.75.7-1.65v-.05q.75-.3 1.45-.65l1.8-1.2m-7.65 5.95l-.15-.25-.9-.75-.7-.55L29 23v-.1l.3-.65.6-1 .05-.05.1.05.25.15-.4.85-.45 1.25 1.6-.6 1-.65-.35.6-.45.9-.3.9-.15.6m-1.85 3.8l.45.65-1.9.75.6-.7.85-.7m.95 1.4l.65.8-3.05.6.55-.3 1.85-1.1m.9 1.05l.3.35-1.8.35 1.5-.7m-25.45-2l.4-.95.45-.75q.75.25 1.45.8l.75.7.4.45.1.4-3.55-.65m.95-1.9l.35-.5.1-.05 1.05.55q.65.5.8 1.25-.55-.6-1.55-1l-.75-.25m.65-.9l.1-.15q.65 0 1.3.4l1.9 1.65q.4.4.45.95v.15l-1.2-1.35-1.55-1.2-1-.45m15.4-3.5l-.3.15-.95.45.35-.5.2-.4.7.3m-1.95-.9l-.9.75.55-.95h.05l.3.2m-1.1-.95l-2.2 1.2.6-1.15 1-1.45.2.65.4.75m-.65-1.7l-1.8.1.3-.2.55-.25.95-.25v.6m4.6 3.95l.9.5-.3.15-.8.35.1-.6.1-.4m1 .6l.6.5.95 1-.5.3-.35.2v-1h-.45q-.85.2-1.4.65l1.15-1.65m2.8 4.45v.4l-.05.7-.6-1.4.65.3m-.4 1.85l-.4.45-.1-.1-1.2-.85 1.55.45.15.05m-.8.7l-.5.3-.4-.55.9.25m-1 .6l-.25.2-.4-.4.65.2M11.05 19v-1.1l.4.05.85-.4L11.05 19m.4 2.3l-.3-1.1 1.75-.85-1.45 1.95m1.85 2.75l.7-1.3q.05 1.05.4 2l-1.1-.7m1.9 1.05q.55-1.05.6-2.3.3 1.35 1.4 2.55l-.75-.05-1.25-.2m2.05.25q.95-.3 1.25-1.45l.45 1.55-1.7-.1M12.35 23l-.6-1 .95-.8-.35 1.8m-6.6 5.55l1.45.6.7.35-.5-.35q-.85-.5-1.65-.6"/><path fill="url(#a)" d="M30.6 3.75l-2.65.05-2.5.35q-1.3.2-2.25.9-1.35.95-.5 1.9.3.35-.15.5l-.25.1 1 .6.25.55-.05.25-.3.4q.4.5-.75.7-.95.15-.55 1.1l.4.6q.4.45 1.1.55l-1.9.15-.05.05.05.05.3.25.85 1q.35.5.25 1.15l-.25.2h-.6l-.7.1q-.6.15-1.1.5-.5.3-.85.85l-.7.6.2.25-.05.2-.2 1.1v.3l-.95.25-.55.25-.3.2 1.8-.1.05.3-1 1.45-.6 1.15 2.2-1.2.1.15.45.45.2.15-.55.95.9-.75 1.25.6-.2.4-.35.5.95-.45.3-.15.9.4-.1.4-.1.6.8-.35.3-.15.1.1-1.15 1.65q.55-.45 1.4-.65h.45v1l.35-.2.5-.3.55.85q.55 1 .7 2.1l-.65-.3.6 1.4-.3.7-.05.05-.15-.05-1.55-.45 1.2.85.1.1-.05.05-.3.15-.05.05-.9-.25.4.55-.5.3-.65-.2.4.4-.6.4-.2.2-.15.15-.25.55q-.5 1.05-1.05-.2l-.9-1.45-.9-.75-.45-.2-.5-.2-.3-.05q-.8-.1-.25-.3l.9-.25 1.85-.05q1.35.1 1.75-1.25.2-.6-.1-1.1-.7-1.15-1.9-1.6L19 25.45h-.05l-.45-1.55q-.3 1.15-1.25 1.45h-.05q-1.1-1.2-1.4-2.55-.05 1.25-.6 2.3l-.8-.35q-.35-.95-.4-2l-.7 1.3-.75-.8-.2-.25.35-1.8-.95.8-.3-.7 1.45-1.95-1.75.85-.1-.75V19l1.25-1.45-.85.4-.4-.05v-.35l-.35.1q-.65.05-1.2-.85l-.1-.15-.05-.05q-.55-1 .25-2.2l.25-.45.95.25-.65-1.25v-.1l2.1.55-.65-1.8 3.1 1.05q-1-1.3-1.7-2.75l-.1-.2.25-.1.9-.5-1.9-.7-.75-.35q.3-1.05-.65-1.45l-.05.05-.45.35-.25.3q-1.1-.1-2 .55l-.7.55q.5.25.55.85l.05 1.5.05 1.55-.1 1.35-.05.4-.45.85-.1.1-.6-.6Q5.9 13.7 5.5 13L5 11.55q-.2-1.2-.9-2.15-1.5-2.35-4.1-3 1.2-.65 2.55-.55l2.9.4q1.2.15 2.2-.45l.3-.15.7.1q1.2.2 2.2-.5l.4-.25q.7-.25 1.3.2l.1.05.5 1.3L14.1 5q.7-1 1.65-1.9 1.05-.2 1.75.25l.35.2q.95.8 2 .95l1.75-.15 2.4-.7 2.4-.6 2.55.05q.9.2 1.65.65m-19.5 12.2l-.05 1.6.05-1.6M21.4 7.8l.05-.35v-.1l-.4-.8-.35.4-.15.1-.4.25-.8.2-.1.4q-1.6 1.05-2.5 2.6l1.75-.2-.35.2.8-.25.95-.05-.3.55-1.05.95-.5.35 1.2-.05-.1.1-.1.3.35-.1 1.3-.75-.05-.1-.3-.7.15-.15q.55-.4.35-1 .7-.3.4-.9.35-.25.1-.85h.05V7.8m-.7 3.75l.2.35.55.6-.55-.6-.2-.35m-3.8 4.6q-.05.75.55 1.05.6.3 1.25 0-.65.3-1.25 0t-.55-1.05"/><path fill="url(#b)" d="M12.65 5.25l-.1-.05q-.6-.45-1.3-.2l-.4.25q-1 .7-2.2.5l-.7-.1 1.3-.85.5-.4q1-.8 2.25-.9l.3 1 .35.75"/><path fill="url(#c)" d="M7.25 15l.1-.1.45-.85.05-.4.1-1.35-.05-1.55-.05-1.5q-.05-.6-.55-.85l.7-.55q.9-.65 2-.55-.35.5-.4 1.15v.85l.1.2-.05.05q-.5.4-.15.85-.2.6 0 1.15l.65.55.05.05v.25l-.05.45v.1l-.3 1-.25.45q-.8 1.2-.25 2.2l-.05.1-.7.45-.2-.4-.6-1.15-.55-.6m11.8 15.15l-.25-.3-.05-.05-1-1.25-1.75-.1-1.25-.3h-.1q-.6.4-1.25.95l-.85.9q-.45.55-.6 1.25l-.1.55v2.05l-.2 1.45-1.3-.05-.05.65-2.15-.1q.3-.9-.95-1.05-.6-.05-.95.35l-1.4-.4-.35-.05q.6-.7-.7-.9-.55-.15-.7.3-.6-.35.15-1.3l.85-.7.3-.45.75-1.5.3.1.15.05 1.15.3-1.3-.35-.3-.15.2-.55 3.55.65-.1-.4-.4-.45-.75-.7q-.7-.55-1.45-.8l.1-.2.75.25q1 .4 1.55 1-.15-.75-.8-1.25l-1.05-.55H6.7l.25-.35 1 .45 1.55 1.2 1.2 1.35v-.15q-.05-.55-.45-.95l-1.9-1.65q-.65-.4-1.3-.4l.9-1.3-.05-.1-.25-1.1q-.05-.95.2-1.75l.35-.75.05-.05.2-.4 1.05-.3.4-.2.9-.75.25-.4.1.75.3 1.1.3.7.6 1 .2.25.75.8 1.1.7.8.35 1.25.2.75.05.05.05v-.05l1.7.1H19l2.55.45q1.2.45 1.9 1.6.3.5.1 1.1-.4 1.35-1.75 1.25l-1.85.05-.9.25M15.8 26.3l1.9.55-1.9-.55m-2.15 1.35l1 .5-1-.5m3.6.35l.5.55-.5-.55"/><path fill="url(#d)" d="M17.5 3.35q-.7-.45-1.75-.25Q14.8 4 14.1 5l-.95 1.55-.5-1.3-.35-.75-.3-1q-.1-.75.25-1.5.55-1.1 1.7-1.7l.6-.3-.45 1.05q-.2.45-.15 1Q16.2 1.1 18.9.95q1.9-.15 3.6.85l-3 .3q-1.05.15-1.7.75l-.3.5"/><path fill="url(#e)" d="M21.05 6.55l.4.8v.1l-.05.35-.05.05h-.1l-1.25.3q-.6.15-1.05.55l-.7 1 .7-1q.45-.4 1.05-.55l1.25-.3h.1q.25.6-.1.85.3.6-.4.9.2.6-.35 1l-.15.15h-.75.75l.3.7.05.1-1.3.75-.35.1.1-.3.1-.1-1.2.05.5-.35 1.05-.95.3-.55-.95.05-.8.25.35-.2-1.75.2q.9-1.55 2.5-2.6l.1-.4.8-.2.4-.25.15-.1.35-.4M20.1 9.3l.85-.45.3-.15-.3.15-.85.45"/><path fill="url(#f)" d="M10 7.3l.25-.3.45-.35.05-.05q.95.4.65 1.45l.75.35 1.9.7-.9.5-.25.1.1.2q.7 1.45 1.7 2.75l-3.1-1.05.65 1.8-2.1-.55.05-.45v-.25l-.05-.05-.65-.55q-.2-.55 0-1.15-.35-.45.15-.85l.05-.05-.1-.2v-.85q.05-.65.4-1.15m1.75 3.05l-.6-.3-.55-.1h-.05q-.6 0-.85-.45.25.45.85.45h.05l.55.1.6.3m-1.8.55l-.45-.5.45.5"/><path fill="url(#g)" d="M10.15 12.95l.65 1.25-.95-.25.3-1"/><path fill="url(#h)" d="M9.35 16.6l.05.05-.1.05.05-.1"/><path fill="url(#i)" d="M8.35 21.15L7.6 22.3l-.9 1.9-1.3.35-.15.1q-.15-1.75-1.35-.5l-1.1-1.5.55-.4q.45-.45-.65-.85l.45-.5 1.4-1.05q.55.75 1.6 1.1l1.5.25.7-.05"/><path fill="url(#j)" d="M5.25 24.65q-.85.3-1.25-.3l-.1-.2q1.2-1.25 1.35.5"/><path fill="url(#k)" d="M2.8 22.65l-.2-.45q-.1-.4.1-.8 1.1.4.65.85l-.55.4"/><path fill="url(#l)" d="M30.6 3.75l.7.4.7.7Q30.45 5 29.7 6.4l-1 2.05-.3.9q-.1.65.15 1.3l.5 1.3.2.65.15.75-.05.8-.25 1.55-.4 1.15-2.5.4-.55-.05-1.25-.25-.6-.35q-.95-.55-1.55-1.4l-.05-.05h.45l.25-.2q.1-.65-.25-1.15l-.85-1-.3-.25v-.1l1.9-.15q-.7-.1-1.1-.55l-.4-.6q-.4-.95.55-1.1 1.15-.2.75-.7l.3-.4.05-.25-.25-.55-1-.6.25-.1q.45-.15.15-.5-.85-.95.5-1.9.95-.7 2.25-.9l2.5-.35 2.65-.05"/><path fill="url(#m)" d="M34.9 16.15q.9-.65 1.95-.15l.15.1q.2 1.15-1.65.75l-.4-.45-.05-.25"/><path fill="url(#n)" d="M34.9 16.15l.05.25.4.45q1.85.4 1.65-.75.6.35.75.95l.05.75.35.75-1.8.7.25-.05 1.75-.1.1.2-1.8 1.2q-.7.35-1.45.65v.05q.15.9-.7 1.65l.7-.3 1.25-.2.05 1.1-.15.1-.85.65-.7.9q-1-.2-1.85.45l-.5.65q-1-.15-1.65-.95l.15-.6.3-.9.45-.9.35-.6-1 .65-1.6.6.45-1.25.4-.85-.25-.15-.1-.05 2.15-2.4 2.8-2.65"/><path fill="url(#o)" d="M30.45 18.8h1.65l-2.15 2.4-.05.05-.6 1-.3.65v.1l-.4-.1-1-.35-1.4-.65-.5-.25-.35-.75 2.45-.35.9-.35.15-.1 1.6-1.3"/><path fill="url(#p)" d="M25.7 21.65l.2.6.15 1.35v.3l-.45.8q.25 1.15 1.25 1.85 1.05.7 1.65 1.7l.45.8-.85.7-.6.7 1.9-.75.5.75-1.85 1.1-.55.3 3.05-.6.25.25-1.5.7 1.8-.35.9 1.3.3.6q.7.45.7.9l-1.45-.25q-.3 0-.05.45.25.55.7.7l-1.95-.2q-.6-.95-1.7-.95v1.05l-1.7.05q.1-.9-1.2-.6l-.1-.05-.8-1-.4-.55-.55-.7.2-.2.6-.4.25-.2.5-.3.5-.3h.05v-.05l.3-.15.05-.05.4-.45.05-.05.3-.7.05-.7v-.4q-.15-1.1-.7-2.1l-.55-.85-.95-1-.6-.5.1-.15-.2.05-.9-.5-.9-.4-.7-.3-1.25-.6-.3-.2h-.05l-.2-.15-.45-.45-.1-.15-.4-.75-.2-.65.2-.3h-.25V18.75l.2-1.1.05-.2.95 1.45.65.65.8.6 1.15.45 2.55.3h.35l.35.75"/><path fill="url(#q)" d="M30.25 35.35l-1.7.1V34.4q1.1 0 1.7.95"/><path fill="url(#r)" d="M26.85 35.5q-.65-.05-1.05-.45l-.15-.15q1.3-.3 1.2.6"/><path fill="url(#s)" d="M34.8 25.1q-.65 1.25-2.1 1.15l-.25-.05.5-.65q.85-.65 1.85-.45"/><path fill="url(#t)" d="M33 34.65l-.75.9h-.05q-.45-.15-.7-.7-.25-.45.05-.45l1.45.25"/><path fill="url(#u)" d="M8.15 35.8l-1.85-.65-.05-.05q.35-.4.95-.35 1.25.15.95 1.05"/><path fill="url(#v)" d="M4.5 34.65l-1.35-.6H3.1q.15-.45.7-.3 1.3.2.7.9"/><path fill="url(#w)" d="M11.65 35.3l-.05.1q-.45.4-1.3.5l.05-.65 1.3.05"/><path fill="none" stroke="#3F3F3F" stroke-width=".05" stroke-linecap="round" stroke-miterlimit="3" d="M31.3 4.15l-.7-.4q-.75-.45-1.65-.65l-2.55-.05-2.4.6-2.4.7-1.75.15q-1.05-.15-2-.95l-.35-.2m4 9.2l.3.25.85 1q.35.5.25 1.15l-.25.2h-.45m6.5 1.7l.4-1.15.25-1.55.05-.8-.15-.75-.2-.65-.5-1.3q-.25-.65-.15-1.3l.3-.9 1-2.05M7.95 5.65l-.3.15q-1 .6-2.2.45m1.2 8.15l.6.6M10 7.3l.25-.3.45-.35m-.55 6.2v.1l-.3 1-.25.45q-.8 1.2-.25 2.2l.05.05m1.65.9l.05-1.6M21.4 7.8l.05-.35v-.1l-.4-.8m-1.45 4.2h.75l.15-.15q.55-.4.35-1 .7-.3.4-.9l-.3.15-.85.45m1.25-1.45h-.1l-1.25.3q-.6.15-1.05.55l-.7 1m3-1q.35-.25.1-.85m.05-.05v.05h-.05m.1 4.65l-.55-.6-.2-.35-.05-.1-.3-.7m10.1 8.05h1.65l2.8-2.65q.9-.65 1.95-.15l.15.1q.6.35.75.95l.05.75.35.75.2.55.1.2.25.85v1.4l-.1.25-.45.65-.55.35-.1.05-1 .6-.15.1-.85.65-.7.9q-.65 1.25-2.1 1.15l-.25-.05q-1-.15-1.65-.95l-.15-.25-.9-.75-.7-.55L29 23l-.4-.1-1-.35-1.4-.65-.5-.25.2.6.15 1.35v.3l-.45.8q.25 1.15 1.25 1.85 1.05.7 1.65 1.7l.45.8.45.65.5.75.65.8.25.25.3.35.9 1.3.3.6q.7.45.7.9l-.75.9h-.05l-1.95-.2-1.7.1-1.7.05q-.65-.05-1.05-.45l-.15-.15-.1-.05-.8-1-.4-.55-.55-.7-.15.15-.25.55q-.5 1.05-1.05-.2l-.9-1.45-.9-.75-.8-.3-.15-.1-.3-.05q-.8-.1-.25-.3l-.25-.3-.05-.05-1-1.25-1.75-.1-1.25-.3h-.1q-.6.4-1.25.95l-.85.9q-.45.55-.6 1.25l-.1.55v2.05l-.2 1.45-.05.1q-.45.4-1.3.5l-2.15-.1-1.85-.65-.05-.05-1.4-.4-.35-.05-1.35-.6H3.1q-.6-.35.15-1.3l.85-.7.3-.45.75-1.5v-.05l.2-.55.4-.95.45-.75.1-.2.35-.5.05-.05.25-.35.1-.15.9-1.3-.05-.1-.25-1.1q-.05-.95.2-1.75l.35-.75.05-.05.2-.4m-.1.05L7.6 22.3l-.9 1.9-1.3.35-.15.1q-.85.3-1.25-.3l-.1-.2-1.1-1.5-.2-.45q-.1-.4.1-.8l.45-.5 1.4-1.05m4.05-2.7l-.2-.4-.6-1.15-.55-.6m14.2-2.5l.05.05m.15 10.35l-1.25-.6m-.35-.2l-.2-.15-.45-.45-.1-.15m-.6-1.4l-.05-.3m0-.6v-.3l.2-1.1.05-.2m2.75 5.45l.7.3.9.4.9.5.1.1.6.5.95 1 .55.85q.55 1 .7 2.1v.4l-.05.7-.3.7-.05.05-.4.45-.05.05-.3.15-.05.05-.5.3-.5.3-.25.2-.6.4-.2.2m6.15-11.4l-.05.05-.6 1-.3.65v.1m-3.65-2.1l.35.75M37 16.1q.2 1.15-1.65.75l-.4-.45-.05-.25m3.8 5.4l-.95-.1q-.25.25-.35 1.05v.05l.1.3m-7.55-1.65l2.15-2.4m-21.95-5.95l.05-.45v-.25l-.05-.05-.65-.55q-.2-.55 0-1.15-.35-.45.15-.85l.05-.05-.1-.2v-.85q.05-.65.4-1.15m-.3 2.2q.25.45.85.45h.05l.55.1.6.3M12 3.5q-1.25.1-2.25.9l-.5.4-1.3.85M9.5 10.4l.45.5m-.6 5.7l-.05.1m-6.6 4.7q1.1.4.65.85l-.55.4m1.1 1.5q1.2-1.25 1.35.5M18.7 17.2q-.65.3-1.25 0t-.55-1.05m-5.75 4.05l.3 1.1m-.3-1.1l-.1-.75m1.3 3.55l.2.25.75.8 1.1.7.8.35 1.25.2.75.05h.05l1.7.1H19l2.55.45q1.2.45 1.9 1.6.3.5.1 1.1-.4 1.35-1.75 1.25l-1.85.05-.9.25M11.75 22l.6 1m-.6-1l-.3-.7m7.25-1.35l.2.65.4.75m-.65-2.3v.6m1.4 2.45h.05l.3.2m-2.7 4.55l-1.9-.55m3.8 4.2l.5.2.45.2m-2.8-2.35l-.5-.55m-2.6.15l-1-.5M10.3 35.9l.05-.65 1.3.05M3.1 34.05q.15-.45.7-.3 1.3.2.7.9m1.75.45q.35-.4.95-.35 1.25.15.95 1.05m24.3-9.6l.5-.65q.85-.65 1.85-.45M33 34.65l-1.45-.25q-.3 0-.05.45.25.55.7.7m-6.55-.65q1.3-.3 1.2.6m1.7-.05V34.4q1.1 0 1.7.95"/><path fill="none" stroke="#999" stroke-width=".05" stroke-linecap="round" stroke-miterlimit="3" d="M22.2 15.15l.05.05q.6.85 1.55 1.4l.6.35 1.25.25.55.05 2.5-.4.1-.05q1.15-.3 1.65-1.2l.15-.35.65-2.5v-.6q.65 1 .75 2.5v.3l-.2 1.55-.4.85-.85 1.35-.1.1M9.4 16.65l.1.15q.55.9 1.2.85l.35-.1m-2.6 3.55l-.1.05m-3.8-1.3q-.5-.65-.6-1.65l-.2-3.35 1 1.75q.9.9 2.35.9l1.5-.35m13.6-2h-.15l-.7.1q-.6.15-1.1.5-.5.3-.85.85l-.7.6.2.25.95 1.45.65.65.8.6 1.15.45 2.55.3h.35l2.45-.35.9-.35.15-.1 1.6-1.3M9.3 16.7l-.7.45m-4.05 2.7q.55.75 1.6 1.1l1.5.25.7-.05m.1-.05l1.05-.3.4-.2.9-.75.25-.4v-1.9"/><path fill="none" stroke="#4B0000" stroke-width=".05" stroke-linecap="round" stroke-miterlimit="3" d="M17.5 3.35q-.7-.45-1.75-.25Q14.8 4 14.1 5l-.95 1.55-.5-1.3m4.85-1.9l.3-.5q.65-.6 1.7-.75l3-.3q-1.7-1-3.6-.85-2.7.15-4.95 1.1-.05-.55.15-1L14.55 0l-.6.3Q12.8.9 12.25 2q-.35.75-.25 1.5l.3 1 .35.75"/></svg>