<svg xmlns="http://www.w3.org/2000/svg" viewBox="-0.2 -0.1 200.4 208.5" width="200.4" height="208.5"><defs><radialGradient gradientUnits="userSpaceOnUse" r="819.2" cx="0" cy="0" spreadMethod="pad" gradientTransform="matrix(.006 .001 .001 .006 22.5 97.25)" id="a"><stop offset="0" stop-color="#ff9"/><stop offset=".431" stop-color="#930"/><stop offset=".737"/><stop offset=".922" stop-color="#630"/></radialGradient><radialGradient gradientUnits="userSpaceOnUse" r="819.2" cx="0" cy="0" spreadMethod="pad" gradientTransform="matrix(.004 0 .001 .004 31.75 98.6)" id="b"><stop offset="0" stop-color="#ff9"/><stop offset=".431" stop-color="#930"/><stop offset=".737"/><stop offset=".922" stop-color="#630"/></radialGradient><radialGradient gradientUnits="userSpaceOnUse" r="819.2" cx="0" cy="0" spreadMethod="pad" gradientTransform="matrix(.003 0 0 .003 38.35 123.9)" id="c"><stop offset="0" stop-color="#ff9"/><stop offset=".431" stop-color="#930"/><stop offset=".737"/><stop offset=".922" stop-color="#630"/></radialGradient><radialGradient gradientUnits="userSpaceOnUse" r="819.2" cx="0" cy="0" spreadMethod="pad" gradientTransform="matrix(.006 .001 .001 .005 41.8 130.9)" id="d"><stop offset="0" stop-color="#ff9"/><stop offset=".431" stop-color="#930"/><stop offset=".737"/><stop offset=".922" stop-color="#630"/></radialGradient><radialGradient gradientUnits="userSpaceOnUse" r="819.2" cx="0" cy="0" spreadMethod="pad" gradientTransform="matrix(.004 0 0 .003 42.5 137.05)" id="e"><stop offset="0" stop-color="#ff9"/><stop offset=".431" stop-color="#930"/><stop offset=".737"/><stop offset=".922" stop-color="#630"/></radialGradient><radialGradient gradientUnits="userSpaceOnUse" r="819.2" cx="0" cy="0" spreadMethod="pad" gradientTransform="matrix(.004 0 .001 .004 44.55 142.45)" id="f"><stop offset="0" stop-color="#ff9"/><stop offset=".431" stop-color="#930"/><stop offset=".737"/><stop offset=".922" stop-color="#630"/></radialGradient><radialGradient gradientUnits="userSpaceOnUse" r="819.2" cx="0" cy="0" spreadMethod="pad" gradientTransform="matrix(.11 .011 .015 .108 52.95 92.9)" id="g"><stop offset="0" stop-color="#ff9"/><stop offset=".431" stop-color="#930"/><stop offset=".737"/><stop offset=".922" stop-color="#630"/></radialGradient><radialGradient gradientUnits="userSpaceOnUse" r="819.2" cx="0" cy="0" spreadMethod="pad" gradientTransform="matrix(.093 -.007 .006 .08 65.5 73.1)" id="h"><stop offset="0" stop-color="#ff9"/><stop offset=".431" stop-color="#930"/><stop offset=".737"/><stop offset=".922" stop-color="#630"/></radialGradient><radialGradient gradientUnits="userSpaceOnUse" r="819.2" cx="0" cy="0" spreadMethod="pad" gradientTransform="matrix(.005 0 0 .004 39.2 80.75)" id="i"><stop offset="0" stop-color="#ff9"/><stop offset=".431" stop-color="#930"/><stop offset=".737"/><stop offset=".922" stop-color="#630"/></radialGradient><radialGradient gradientUnits="userSpaceOnUse" r="819.2" cx="0" cy="0" spreadMethod="pad" gradientTransform="matrix(.004 0 0 .003 46.95 80.55)" id="j"><stop offset="0" stop-color="#ff9"/><stop offset=".431" stop-color="#930"/><stop offset=".737"/><stop offset=".922" stop-color="#630"/></radialGradient><radialGradient gradientUnits="userSpaceOnUse" r="819.2" cx="0" cy="0" spreadMethod="pad" gradientTransform="matrix(.002 0 0 .002 51.1 99)" id="k"><stop offset="0" stop-color="#ff9"/><stop offset=".431" stop-color="#930"/><stop offset=".737"/><stop offset=".922" stop-color="#630"/></radialGradient><radialGradient gradientUnits="userSpaceOnUse" r="819.2" cx="0" cy="0" spreadMethod="pad" gradientTransform="matrix(.005 0 0 .004 53.55 103.9)" id="l"><stop offset="0" stop-color="#ff9"/><stop offset=".431" stop-color="#930"/><stop offset=".737"/><stop offset=".922" stop-color="#630"/></radialGradient><radialGradient gradientUnits="userSpaceOnUse" r="819.2" cx="0" cy="0" spreadMethod="pad" gradientTransform="matrix(.003 0 0 .003 55.25 112.4)" id="m"><stop offset="0" stop-color="#ff9"/><stop offset=".431" stop-color="#930"/><stop offset=".737"/><stop offset=".922" stop-color="#630"/></radialGradient><radialGradient gradientUnits="userSpaceOnUse" r="819.2" cx="0" cy="0" spreadMethod="pad" gradientTransform="matrix(.003 0 0 .003 53.85 108.45)" id="n"><stop offset="0" stop-color="#ff9"/><stop offset=".431" stop-color="#930"/><stop offset=".737"/><stop offset=".922" stop-color="#630"/></radialGradient><radialGradient gradientUnits="userSpaceOnUse" r="819.2" cx="0" cy="0" spreadMethod="pad" gradientTransform="matrix(.159 .015 -.018 .119 52.25 101.7)" id="o"><stop offset="0" stop-color="#ff9"/><stop offset=".431" stop-color="#930"/><stop offset=".737"/><stop offset=".922" stop-color="#630"/></radialGradient><radialGradient gradientUnits="userSpaceOnUse" r="819.2" cx="0" cy="0" spreadMethod="pad" gradientTransform="matrix(.008 .001 -.001 .006 5.45 105.75)" id="p"><stop offset="0" stop-color="#ff9"/><stop offset=".431" stop-color="#930"/><stop offset=".737"/><stop offset=".922" stop-color="#630"/></radialGradient><radialGradient gradientUnits="userSpaceOnUse" r="819.2" cx="0" cy="0" spreadMethod="pad" gradientTransform="matrix(.006 .001 -.001 .005 18.65 107.55)" id="q"><stop offset="0" stop-color="#ff9"/><stop offset=".431" stop-color="#930"/><stop offset=".737"/><stop offset=".922" stop-color="#630"/></radialGradient><radialGradient gradientUnits="userSpaceOnUse" r="819.2" cx="0" cy="0" spreadMethod="pad" gradientTransform="matrix(.008 .001 -.001 .006 21.75 143.45)" id="r"><stop offset="0" stop-color="#ff9"/><stop offset=".431" stop-color="#930"/><stop offset=".737"/><stop offset=".922" stop-color="#630"/></radialGradient><radialGradient gradientUnits="userSpaceOnUse" r="819.2" cx="0" cy="0" spreadMethod="pad" gradientTransform="matrix(.004 0 0 .003 19.2 135.6)" id="s"><stop offset="0" stop-color="#ff9"/><stop offset=".431" stop-color="#930"/><stop offset=".737"/><stop offset=".922" stop-color="#630"/></radialGradient><radialGradient gradientUnits="userSpaceOnUse" r="819.2" cx="0" cy="0" spreadMethod="pad" gradientTransform="matrix(.005 0 -.001 .004 20.6 150.2)" id="t"><stop offset="0" stop-color="#ff9"/><stop offset=".431" stop-color="#930"/><stop offset=".737"/><stop offset=".922" stop-color="#630"/></radialGradient><radialGradient gradientUnits="userSpaceOnUse" r="819.2" cx="0" cy="0" spreadMethod="pad" gradientTransform="matrix(.006 .001 -.001 .004 21.75 156.2)" id="u"><stop offset="0" stop-color="#ff9"/><stop offset=".431" stop-color="#930"/><stop offset=".737"/><stop offset=".922" stop-color="#630"/></radialGradient><radialGradient gradientUnits="userSpaceOnUse" r="819.2" cx="0" cy="0" spreadMethod="pad" gradientTransform="matrix(.1 0 0 .1 172.7 92)" id="v"><stop offset="0" stop-color="#ff9"/><stop offset=".431" stop-color="#930"/><stop offset=".737"/><stop offset=".922" stop-color="#630"/></radialGradient><radialGradient gradientUnits="userSpaceOnUse" r="819.2" cx="0" cy="0" spreadMethod="pad" gradientTransform="matrix(.009 0 0 .009 176.55 105.75)" id="w"><stop offset="0" stop-color="#ff9"/><stop offset=".431" stop-color="#930"/><stop offset=".737"/><stop offset=".922" stop-color="#630"/></radialGradient><radialGradient gradientUnits="userSpaceOnUse" r="819.2" cx="0" cy="0" spreadMethod="pad" gradientTransform="matrix(.004 0 0 .004 169.4 103.4)" id="x"><stop offset="0" stop-color="#ff9"/><stop offset=".431" stop-color="#930"/><stop offset=".737"/><stop offset=".922" stop-color="#630"/></radialGradient><radialGradient gradientUnits="userSpaceOnUse" r="819.2" cx="0" cy="0" spreadMethod="pad" gradientTransform="matrix(.004 0 0 .004 161.95 124)" id="y"><stop offset="0" stop-color="#ff9"/><stop offset=".431" stop-color="#930"/><stop offset=".737"/><stop offset=".922" stop-color="#630"/></radialGradient><radialGradient gradientUnits="userSpaceOnUse" r="819.2" cx="0" cy="0" spreadMethod="pad" gradientTransform="matrix(.007 0 0 .007 159.55 129.35)" id="z"><stop offset="0" stop-color="#ff9"/><stop offset=".431" stop-color="#930"/><stop offset=".737"/><stop offset=".922" stop-color="#630"/></radialGradient><radialGradient gradientUnits="userSpaceOnUse" r="819.2" cx="0" cy="0" spreadMethod="pad" gradientTransform="matrix(.004 0 0 .004 156.55 134.45)" id="A"><stop offset="0" stop-color="#ff9"/><stop offset=".431" stop-color="#930"/><stop offset=".737"/><stop offset=".922" stop-color="#630"/></radialGradient><radialGradient gradientUnits="userSpaceOnUse" r="819.2" cx="0" cy="0" spreadMethod="pad" gradientTransform="matrix(.005 0 0 .005 154.45 138.95)" id="B"><stop offset="0" stop-color="#ff9"/><stop offset=".431" stop-color="#930"/><stop offset=".737"/><stop offset=".922" stop-color="#630"/></radialGradient><radialGradient gradientUnits="userSpaceOnUse" r="819.2" cx="0" cy="0" spreadMethod="pad" gradientTransform="matrix(.141 0 0 .141 181.35 126.1)" id="C"><stop offset="0" stop-color="#ff9"/><stop offset=".431" stop-color="#930"/><stop offset=".737"/><stop offset=".922" stop-color="#630"/></radialGradient><radialGradient gradientUnits="userSpaceOnUse" r="819.2" cx="0" cy="0" spreadMethod="pad" gradientTransform="matrix(.005 0 0 .005 178.55 112.6)" id="D"><stop offset="0" stop-color="#ff9"/><stop offset=".431" stop-color="#930"/><stop offset=".737"/><stop offset=".922" stop-color="#630"/></radialGradient><radialGradient gradientUnits="userSpaceOnUse" r="819.2" cx="0" cy="0" spreadMethod="pad" gradientTransform="matrix(.005 0 0 .005 188.35 112.75)" id="E"><stop offset="0" stop-color="#ff9"/><stop offset=".431" stop-color="#930"/><stop offset=".737"/><stop offset=".922" stop-color="#630"/></radialGradient><radialGradient gradientUnits="userSpaceOnUse" r="819.2" cx="0" cy="0" spreadMethod="pad" gradientTransform="matrix(.005 0 0 .005 175.8 139.1)" id="F"><stop offset="0" stop-color="#ff9"/><stop offset=".431" stop-color="#930"/><stop offset=".737"/><stop offset=".922" stop-color="#630"/></radialGradient><radialGradient gradientUnits="userSpaceOnUse" r="819.2" cx="0" cy="0" spreadMethod="pad" gradientTransform="matrix(.005 0 0 .005 172.1 145.2)" id="G"><stop offset="0" stop-color="#ff9"/><stop offset=".431" stop-color="#930"/><stop offset=".737"/><stop offset=".922" stop-color="#630"/></radialGradient><radialGradient gradientUnits="userSpaceOnUse" r="819.2" cx="0" cy="0" spreadMethod="pad" gradientTransform="matrix(.005 0 0 .005 172.75 151.95)" id="H"><stop offset="0" stop-color="#ff9"/><stop offset=".431" stop-color="#930"/><stop offset=".737"/><stop offset=".922" stop-color="#630"/></radialGradient><radialGradient gradientUnits="userSpaceOnUse" r="819.2" cx="0" cy="0" spreadMethod="pad" gradientTransform="matrix(.006 0 0 .006 171.35 158.05)" id="I"><stop offset="0" stop-color="#ff9"/><stop offset=".431" stop-color="#930"/><stop offset=".737"/><stop offset=".922" stop-color="#630"/></radialGradient><radialGradient gradientUnits="userSpaceOnUse" r="819.2" cx="0" cy="0" spreadMethod="pad" gradientTransform="matrix(-.114 .028 .023 .091 161.95 99.6)" id="J"><stop offset="0" stop-color="#ff9"/><stop offset=".431" stop-color="#930"/><stop offset=".737"/><stop offset=".922" stop-color="#630"/></radialGradient><radialGradient gradientUnits="userSpaceOnUse" r="819.2" cx="0" cy="0" spreadMethod="pad" gradientTransform="matrix(.098 0 0 .098 186.15 93.2)" id="K"><stop offset="0" stop-color="#ff9"/><stop offset=".431" stop-color="#930"/><stop offset=".737"/><stop offset=".922" stop-color="#630"/></radialGradient><radialGradient gradientUnits="userSpaceOnUse" r="819.2" cx="0" cy="0" spreadMethod="pad" gradientTransform="matrix(.006 0 0 .006 190 139.25)" id="L"><stop offset="0" stop-color="#ff9"/><stop offset=".431" stop-color="#930"/><stop offset=".737"/><stop offset=".922" stop-color="#630"/></radialGradient><radialGradient gradientUnits="userSpaceOnUse" r="819.2" cx="0" cy="0" spreadMethod="pad" gradientTransform="matrix(.006 0 0 .006 190.3 133.4)" id="M"><stop offset="0" stop-color="#ff9"/><stop offset=".431" stop-color="#930"/><stop offset=".737"/><stop offset=".922" stop-color="#630"/></radialGradient><radialGradient gradientUnits="userSpaceOnUse" r="819.2" cx="0" cy="0" spreadMethod="pad" gradientTransform="matrix(.007 0 0 .007 188.8 129.9)" id="N"><stop offset="0" stop-color="#ff9"/><stop offset=".431" stop-color="#930"/><stop offset=".737"/><stop offset=".922" stop-color="#630"/></radialGradient><radialGradient gradientUnits="userSpaceOnUse" r="819.2" cx="0" cy="0" spreadMethod="pad" gradientTransform="matrix(.005 0 0 .005 189.25 122.55)" id="O"><stop offset="0" stop-color="#ff9"/><stop offset=".431" stop-color="#930"/><stop offset=".737"/><stop offset=".922" stop-color="#630"/></radialGradient><radialGradient gradientUnits="userSpaceOnUse" r="819.2" cx="0" cy="0" spreadMethod="pad" gradientTransform="matrix(.006 0 0 .006 195.55 98.25)" id="P"><stop offset="0" stop-color="#ff9"/><stop offset=".431" stop-color="#930"/><stop offset=".737"/><stop offset=".922" stop-color="#630"/></radialGradient><radialGradient gradientUnits="userSpaceOnUse" r="819.2" cx="0" cy="0" spreadMethod="pad" gradientTransform="matrix(.005 0 0 .005 186.05 100.55)" id="Q"><stop offset="0" stop-color="#ff9"/><stop offset=".431" stop-color="#930"/><stop offset=".737"/><stop offset=".922" stop-color="#630"/></radialGradient><radialGradient gradientUnits="userSpaceOnUse" r="819.2" cx="0" cy="0" spreadMethod="pad" gradientTransform="matrix(-.105 0 0 .129 140.35 104.55)" id="R"><stop offset="0" stop-color="#ff9"/><stop offset=".431" stop-color="#930"/><stop offset=".737"/><stop offset=".922" stop-color="#630"/></radialGradient><radialGradient gradientUnits="userSpaceOnUse" r="819.2" cx="0" cy="0" spreadMethod="pad" gradientTransform="matrix(.144 0 0 .144 158.05 90.5)" id="S"><stop offset="0" stop-color="#ff9"/><stop offset=".431" stop-color="#930"/><stop offset=".737"/><stop offset=".922" stop-color="#630"/></radialGradient><radialGradient gradientUnits="userSpaceOnUse" r="819.2" cx="0" cy="0" spreadMethod="pad" gradientTransform="matrix(.005 0 0 .005 161.85 114.6)" id="T"><stop offset="0" stop-color="#ff9"/><stop offset=".431" stop-color="#930"/><stop offset=".737"/><stop offset=".922" stop-color="#630"/></radialGradient><radialGradient gradientUnits="userSpaceOnUse" r="819.2" cx="0" cy="0" spreadMethod="pad" gradientTransform="matrix(.007 0 0 .007 169.5 114.6)" id="U"><stop offset="0" stop-color="#ff9"/><stop offset=".431" stop-color="#930"/><stop offset=".737"/><stop offset=".922" stop-color="#630"/></radialGradient><radialGradient gradientUnits="userSpaceOnUse" r="819.2" cx="0" cy="0" spreadMethod="pad" gradientTransform="matrix(.004 0 0 .004 158.95 143.25)" id="V"><stop offset="0" stop-color="#ff9"/><stop offset=".431" stop-color="#930"/><stop offset=".737"/><stop offset=".922" stop-color="#630"/></radialGradient><radialGradient gradientUnits="userSpaceOnUse" r="819.2" cx="0" cy="0" spreadMethod="pad" gradientTransform="matrix(.007 0 0 .007 157.9 151.35)" id="W"><stop offset="0" stop-color="#ff9"/><stop offset=".431" stop-color="#930"/><stop offset=".737"/><stop offset=".922" stop-color="#630"/></radialGradient><radialGradient gradientUnits="userSpaceOnUse" r="819.2" cx="0" cy="0" spreadMethod="pad" gradientTransform="matrix(.006 0 0 .006 157.75 159.45)" id="X"><stop offset="0" stop-color="#ff9"/><stop offset=".431" stop-color="#930"/><stop offset=".737"/><stop offset=".922" stop-color="#630"/></radialGradient><radialGradient gradientUnits="userSpaceOnUse" r="819.2" cx="0" cy="0" spreadMethod="pad" gradientTransform="matrix(.006 0 0 .006 156.05 166.5)" id="Y"><stop offset="0" stop-color="#ff9"/><stop offset=".431" stop-color="#930"/><stop offset=".737"/><stop offset=".922" stop-color="#630"/></radialGradient><radialGradient gradientUnits="userSpaceOnUse" r="819.2" cx="0" cy="0" spreadMethod="pad" gradientTransform="matrix(.128 0 0 .129 56.15 103.75)" id="Z"><stop offset="0" stop-color="#ff9"/><stop offset=".431" stop-color="#930"/><stop offset=".737"/><stop offset=".922" stop-color="#630"/></radialGradient><radialGradient gradientUnits="userSpaceOnUse" r="819.2" cx="0" cy="0" spreadMethod="pad" gradientTransform="matrix(.006 0 0 .006 36.7 151.3)" id="aa"><stop offset="0" stop-color="#ff9"/><stop offset=".431" stop-color="#930"/><stop offset=".737"/><stop offset=".922" stop-color="#630"/></radialGradient><radialGradient gradientUnits="userSpaceOnUse" r="819.2" cx="0" cy="0" spreadMethod="pad" gradientTransform="matrix(.004 0 0 .004 36.55 158.6)" id="ab"><stop offset="0" stop-color="#ff9"/><stop offset=".431" stop-color="#930"/><stop offset=".737"/><stop offset=".922" stop-color="#630"/></radialGradient><radialGradient gradientUnits="userSpaceOnUse" r="819.2" cx="0" cy="0" spreadMethod="pad" gradientTransform="matrix(.005 0 0 .005 38.2 164.9)" id="ac"><stop offset="0" stop-color="#ff9"/><stop offset=".431" stop-color="#930"/><stop offset=".737"/><stop offset=".922" stop-color="#630"/></radialGradient><radialGradient gradientUnits="userSpaceOnUse" r="819.2" cx="0" cy="0" spreadMethod="pad" gradientTransform="matrix(.005 0 0 .005 30.05 113.3)" id="ad"><stop offset="0" stop-color="#ff9"/><stop offset=".431" stop-color="#930"/><stop offset=".737"/><stop offset=".922" stop-color="#630"/></radialGradient><radialGradient gradientUnits="userSpaceOnUse" r="819.2" cx="0" cy="0" spreadMethod="pad" gradientTransform="matrix(.007 0 0 .007 19.25 112.85)" id="ae"><stop offset="0" stop-color="#ff9"/><stop offset=".431" stop-color="#930"/><stop offset=".737"/><stop offset=".922" stop-color="#630"/></radialGradient><radialGradient gradientUnits="userSpaceOnUse" r="819.2" cx="0" cy="0" spreadMethod="pad" gradientTransform="matrix(.003 0 0 .003 33.8 143.2)" id="af"><stop offset="0" stop-color="#ff9"/><stop offset=".431" stop-color="#930"/><stop offset=".737"/><stop offset=".922" stop-color="#630"/></radialGradient><radialGradient gradientUnits="userSpaceOnUse" r="819.2" cx="0" cy="0" spreadMethod="pad" gradientTransform="matrix(.014 0 0 .029 104.55 62.45)" id="ag"><stop offset="0" stop-color="#900"/><stop offset=".282" stop-color="#660"/><stop offset=".49" stop-color="#E4BA54"/><stop offset=".765" stop-color="#969"/><stop offset=".98" stop-color="#fc6"/></radialGradient><radialGradient gradientUnits="userSpaceOnUse" r="819.2" cx="0" cy="0" spreadMethod="pad" gradientTransform="matrix(.018 0 0 .039 135.85 85)" id="ah"><stop offset="0" stop-color="#900"/><stop offset=".282" stop-color="#660"/><stop offset=".49" stop-color="#E4BA54"/><stop offset=".765" stop-color="#969"/><stop offset=".98" stop-color="#fc6"/></radialGradient><radialGradient gradientUnits="userSpaceOnUse" r="819.2" cx="0" cy="0" spreadMethod="pad" gradientTransform="matrix(.038 0 0 .083 107.05 102.55)" id="ai"><stop offset="0" stop-color="#900"/><stop offset=".282" stop-color="#660"/><stop offset=".49" stop-color="#E4BA54"/><stop offset=".765" stop-color="#969"/><stop offset=".98" stop-color="#fc6"/></radialGradient><radialGradient gradientUnits="userSpaceOnUse" r="819.2" cx="0" cy="0" spreadMethod="pad" gradientTransform="matrix(.025 0 0 .054 105.15 99.55)" id="aj"><stop offset="0"/><stop offset=".588" stop-color="#f00"/><stop offset="1"/></radialGradient><radialGradient gradientUnits="userSpaceOnUse" r="819.2" cx="0" cy="0" spreadMethod="pad" gradientTransform="matrix(.001 0 0 .001 101.15 86.85)" id="ak"><stop offset="0" stop-color="#900"/><stop offset=".282" stop-color="#660"/><stop offset=".49" stop-color="#E4BA54"/><stop offset=".765" stop-color="#969"/><stop offset=".98" stop-color="#fc6"/></radialGradient><radialGradient gradientUnits="userSpaceOnUse" r="819.2" cx="0" cy="0" spreadMethod="pad" gradientTransform="matrix(.001 0 0 .003 121.2 105.7)" id="al"><stop offset="0" stop-color="#900"/><stop offset=".282" stop-color="#660"/><stop offset=".49" stop-color="#E4BA54"/><stop offset=".765" stop-color="#969"/><stop offset=".98" stop-color="#fc6"/></radialGradient><radialGradient gradientUnits="userSpaceOnUse" r="819.2" cx="0" cy="0" spreadMethod="pad" gradientTransform="matrix(.02 0 0 .044 148.75 110.55)" id="am"><stop offset="0" stop-color="#900"/><stop offset=".282" stop-color="#660"/><stop offset=".49" stop-color="#E4BA54"/><stop offset=".765" stop-color="#969"/><stop offset=".98" stop-color="#fc6"/></radialGradient><radialGradient gradientUnits="userSpaceOnUse" r="819.2" cx="0" cy="0" spreadMethod="pad" gradientTransform="matrix(.017 0 0 .037 122.75 128.6)" id="an"><stop offset="0" stop-color="#900"/><stop offset=".282" stop-color="#660"/><stop offset=".49" stop-color="#E4BA54"/><stop offset=".765" stop-color="#969"/><stop offset=".98" stop-color="#fc6"/></radialGradient><radialGradient gradientUnits="userSpaceOnUse" r="819.2" cx="0" cy="0" spreadMethod="pad" gradientTransform="matrix(.003 0 0 .007 119.2 109.4)" id="ao"><stop offset="0" stop-color="#900"/><stop offset=".282" stop-color="#660"/><stop offset=".49" stop-color="#E4BA54"/><stop offset=".765" stop-color="#969"/><stop offset=".98" stop-color="#fc6"/></radialGradient><radialGradient gradientUnits="userSpaceOnUse" r="819.2" cx="0" cy="0" spreadMethod="pad" gradientTransform="matrix(.004 0 0 .008 115.3 109.25)" id="ap"><stop offset="0" stop-color="#900"/><stop offset=".282" stop-color="#660"/><stop offset=".49" stop-color="#E4BA54"/><stop offset=".765" stop-color="#969"/><stop offset=".98" stop-color="#fc6"/></radialGradient><radialGradient gradientUnits="userSpaceOnUse" r="819.2" cx="0" cy="0" spreadMethod="pad" gradientTransform="matrix(.026 0 0 .056 74.1 100.4)" id="aq"><stop offset="0" stop-color="#900"/><stop offset=".282" stop-color="#660"/><stop offset=".49" stop-color="#E4BA54"/><stop offset=".765" stop-color="#969"/><stop offset=".98" stop-color="#fc6"/></radialGradient><radialGradient gradientUnits="userSpaceOnUse" r="819.2" cx="0" cy="0" spreadMethod="pad" gradientTransform="matrix(.001 0 0 .003 98.9 108.9)" id="ar"><stop offset="0" stop-color="#900"/><stop offset=".282" stop-color="#660"/><stop offset=".49" stop-color="#E4BA54"/><stop offset=".765" stop-color="#969"/><stop offset=".98" stop-color="#fc6"/></radialGradient><radialGradient gradientUnits="userSpaceOnUse" r="819.2" cx="0" cy="0" spreadMethod="pad" gradientTransform="matrix(.012 0 0 .026 84.1 124.75)" id="as"><stop offset="0" stop-color="#900"/><stop offset=".282" stop-color="#660"/><stop offset=".49" stop-color="#E4BA54"/><stop offset=".765" stop-color="#969"/><stop offset=".98" stop-color="#fc6"/></radialGradient><radialGradient gradientUnits="userSpaceOnUse" r="819.2" cx="0" cy="0" spreadMethod="pad" gradientTransform="matrix(.001 0 0 .002 79 108.05)" id="at"><stop offset="0" stop-color="#900"/><stop offset=".282" stop-color="#660"/><stop offset=".49" stop-color="#E4BA54"/><stop offset=".765" stop-color="#969"/><stop offset=".98" stop-color="#fc6"/></radialGradient></defs><path fill="url(#a)" d="M26.2 99.9q-1.95-.2-3.3-1l-4.65-3.2 2.95-.3h4.9l-.3 2.65.4 1.85"/><path fill="url(#b)" d="M30.05 95.75L34.2 99l-1.7.3-2.45 1.75-.8-2.3.8-3"/><path fill="url(#c)" d="M36.65 122.85l2.55-.65.5.55-2.3 2.85-.75-2.75"/><path fill="url(#d)" d="M38.05 128l1.45.6 5.15-.3-5 5.45-1.6-5.75"/><path fill="url(#e)" d="M39.95 135h3.85l.6.5-3.15 3.5-.2.05-1.1-4.05"/><path fill="url(#f)" d="M41.8 141.6l2.4-.1 2.9-.6-4.75 3.25-.55-2.55"/><path fill="url(#g)" d="M41.8 141.6l.55 2.55q4.5 17.15 8.15 34.2Q34.65 138.6 26.2 99.9l-.4-1.85.3-2.65q5.7-47.7 15.15-89.45Q63.7 43.8 80 88.15l.3.95q-.6 1.05-2.65.3l-.25-.15q-23.45-36.3-33.55-72.3-3.6 41-13.8 78.8l-.8 3 .8 2.3 6.6 21.8.75 2.75.65 2.4 1.6 5.75.3 1.25 1.1 4.05.15.15.6 2.4"/><path fill="url(#h)" d="M42.4 78.75q7.8-37.25 18.3-70.7 17 25.75 28.25 57.55l.2.55q-.6 1-2.35.65h-.25Q68.7 42.25 62.25 16 56.7 48.1 45.7 78.6l-.85 2.4.55 1.6 4.25 15.8.55 2.05.35 1.7 1.1 4.25.15.9.7 2.95.05.05.4 1.75.4 1.85q2.75 12.45 4.8 25.15-11.1-28.2-16.05-56.8v-.7l-.15-.7.45-2.1"/><path fill="url(#i)" d="M42.4 78.75l-.45 2.1.15.7v.7L39.4 82l-3.75-1.75 6.75-1.5"/><path fill="url(#j)" d="M45.4 82.6l-.55-1.6.85-2.4 3.3 1.95q-.9-.1-1.45.4L45.4 82.6"/><path fill="url(#k)" d="M50.2 100.45l-.55-2.05 2.2-.8.5.3-2.15 2.55"/><path fill="url(#l)" d="M51.65 106.4l-1.1-4.25 1.3.25q2.85.45 4.4-1l-4.6 5"/><path fill="url(#m)" d="M53.35 113.9l-.4-1.85 4.6-1.3-4.2 3.15"/><path fill="url(#n)" d="M52.5 110.25l-.7-2.95 3.3-.55.45.25-2.85 3.15-.2.1"/><path fill="url(#o)" d="M11.6 103.75Q37.5 51.4 66.7 5.55q19.45 42.25 27.45 91.6l.1 1-4.1.15-.3-.15Q68.3 57.65 66.55 17.7q-20.35 45.15-49.3 86.7l-2.3 3.2.3 2.65q1.15 12.05 1.85 24.1l.1 3.1.05 2.6.35 6.45.05 1.4.1 4.55.05.15.1 2.6v2.8q.35 18.95-.65 37.95-8.8-44.2-7.3-87.1l.15-2.1 1.5-3"/><path fill="url(#p)" d="M11.6 103.75l-1.5 3-.15 2.1q-2.85-.25-4.35-1.25L-.2 104l11.8-.25"/><path fill="url(#q)" d="M15.25 110.25l-.3-2.65 2.3-3.2 4.95 3.65-2.55.25-4.4 1.95"/><path fill="url(#r)" d="M17.6 146.5l-.35-6.45 1.95.7q4.75 1.4 7.75-.15l-3.35 2.25-6 3.65"/><path fill="url(#s)" d="M17.2 137.45l-.1-3.1 3.95-.6.7.6-4.55 3.1"/><path fill="url(#t)" d="M17.75 152.45l-.1-4.55 5.7.15.7.45-5.95 3.85-.35.1"/><path fill="url(#u)" d="M17.9 158v-2.8l3.6-.05 4.55-.65-8.15 3.5"/><path fill="url(#v)" d="M175.5 102.4l.15 2.5-.45 1.55q-10.7 32.25-29.05 62.9 4.5-14.3 10.05-28.3l.7-2 .85-2 .15-.05 1.3-3.4.3-.9 2-4.8.8-1.9.9-2.25 7.9-17.45.95-1.85-.7-2.9q-8.7-37.45-10.45-75.6-12.25 29.15-38.3 54.3l-.4-.1q-2.15.15-2.65-1.05l.3-.7q19.05-34.75 44.25-61.55 7.7 40.8 11.4 85.55"/><path fill="url(#w)" d="M175.5 102.4q2.45 1 5 1.6 1.85.6 3.1 1.3l-5 1.4-3.4-.25.45-1.55-.15-2.5"/><path fill="url(#x)" d="M171.35 101.55l.7 2.9-.95 1.85-2.45-2.45-1.7-.8 4.4-1.5"/><path fill="url(#y)" d="M163.2 123.75l-.9 2.25-2.35-3.3-.3-.75.25-.1.75.6 2.55 1.3"/><path fill="url(#z)" d="M161.5 127.9l-2 4.8-4.85-6.7q1.7 1.9 5.3 2l1.55-.1"/><path fill="url(#A)" d="M159.2 133.6l-1.3 3.4-.15.05-3.25-4.35-.45-.8 1.15.55 4 1.15"/><path fill="url(#B)" d="M156.9 139.05l-.7 2-4.7-4.45 5.4 2.45"/><path fill="url(#C)" d="M184.9 110.4l.45 2.8-.25 2q-5.9 40-18.8 79.6 2.45-17.65 5.8-35.2l.4-2.45.45-2.55.1-.1.75-4.2.25-1.15 1.3-6 .45-2.4.6-2.85 5-22.15.65-2.3-.95-3.3q-12.05-42.3-17.9-86.8Q155.6 60 135.15 94.7l-.25.05q-2 .55-2.7-.75l.3-.9q13.1-44.6 32.6-81 11.5 46.3 19.8 98.3"/><path fill="url(#D)" d="M181.1 110.15l.95 3.3-.65 2.3-2.45-2.3q-.6-.6-1.6-.6l3.75-2.7"/><path fill="url(#E)" d="M185.1 115.2l.25-2-.45-2.8 7.6 1.75-4.4 2.55-3 .5"/><path fill="url(#F)" d="M176.4 137.9l-.6 2.85-2.45-3.45-.3-.8-.05-.1.1-.1.8.55 2.5 1.05"/><path fill="url(#G)" d="M175.35 143.15l-1.3 6-5.1-6.85q1.7 1.85 4.95 1.2l1.45-.35"/><path fill="url(#H)" d="M173.8 150.3l-.75 4.2-.1.1-.15-.15-3.7-5.1 1 .3 3.7.65"/><path fill="url(#I)" d="M172.5 157.15l-.4 2.45-4.75-4.25 5.15 1.8"/><path fill="url(#J)" d="M191.25 135.85l-.2-.1h.3l-.1.1"/><path fill="url(#K)" d="M191.25 135.85l.1-.1-.3-3.55-.15-1.05-.35-5.1-.15-2.05-.15-2.45-.7-19.15-.05-2-1.95-2.35q-24.5-29.5-43.05-62.8 2.1 31.45-10 65.5l-.3.15-3 .25.1-.75q1.45-39.55 12.05-74.7 25 32.85 48.3 71.3l1.3 2.15.25 1.7q4.85 33.45 2.15 69.05-2.3-14.75-3.7-29.75l-.15-2.25-.25-2.05"/><path fill="url(#L)" d="M191.65 140.15l-6.15-1.85h3.4l2.6-.4.15 2.25"/><path fill="url(#M)" d="M191.05 135.75l-5.3-2.85 1.2-.05 4.1-.65.3 3.55h-.3"/><path fill="url(#N)" d="M190.9 131.15l-7.3-3.8q2.35 1 5.65-.5l1.3-.8.35 5.1"/><path fill="url(#O)" d="M190.4 124q-1.9-.85-3.5-2l-.7-.45-.55-.5.7.25 1 .15 2.9.1.15 2.45"/><path fill="url(#P)" d="M191.65 97l8.55-1.1-3.85 3.5q-1.1.9-3.15 1.45l-.25-1.7-1.3-2.15"/><path fill="url(#Q)" d="M189.55 102.4l-3.3-1.1-1.9.1 3.2-3.35 1.95 2.35.05 2"/><path fill="url(#R)" d="M158.05 162.15l-.25-.25.35.1-.1.15"/><path fill="url(#S)" d="M158.05 162.15l.1-.15.45-4.8.15-1.45.75-6.85.4-2.75.3-3.3 3.55-25.55.45-2.7-1.15-3.7q-15-47.1-24-97.35-5 42.4-23 83.45l-.3.1q-1.85.75-2.6-.65l.15-1.05q10-51.75 26.85-94.75 14.75 51.75 26.65 110.2l.7 3.3-.15 2.25q-3.05 45.9-13.15 92 1.15-20.3 3.25-40.5l.3-2.9.3-2.85"/><path fill="url(#T)" d="M163.75 117.3l-2.65-2.45q-.6-.65-1.6-.55l3.55-3.4 1.15 3.7-.45 2.7"/><path fill="url(#U)" d="M166.8 110.85l7.7 1.35-4.05 3.35q-1.2.85-3.1.85l.15-2.25-.7-3.3"/><path fill="url(#V)" d="M159.9 146.15l-2.7-3.8-.85-1.65.55.6.85.55 2.45 1-.3 3.3"/><path fill="url(#W)" d="M158.75 155.75l-5.55-7.3q1.75 2 5 1l1.3-.55-.75 6.85"/><path fill="url(#X)" d="M157.8 161.9l-4-5.45 1.1.3 3.7.45-.45 4.8-.35-.1"/><path fill="url(#Y)" d="M157.45 167.9l-5-4.45 2.9 1.05 2.4.5-.3 2.9"/><path fill="url(#Z)" d="M23.95 110.05Q38.5 51.65 56.4-.1q20.55 42.95 32.7 94.7l.2 1.1q-.9 1.4-3.2.6l-.3-.05Q63.85 55.15 57.7 12.8 46.8 63 28.55 110.15l-1.45 3.7.55 2.7 4.3 25.5.45 3.3.4 2.8 1 6.85.15 1.45.6 4.75.1.15.4 2.85.3 2.95q2.55 20.2 4 40.5-12.3-46.15-16.1-92.05l-.15-2.2.85-3.35"/><path fill="url(#aa)" d="M33.8 155l-1-6.85 1.6.5q3.95 1 6.15-1L33.8 155"/><path fill="url(#ab)" d="M34.55 161.2l-.6-4.75 4.55-.45.6.5-4.2 4.65-.35.05"/><path fill="url(#ac)" d="M35.35 167.15l-.3-2.95 2.85-.45 3.5-1.1-6.05 4.5"/><path fill="url(#ad)" d="M27.65 116.55l-.55-2.7 1.45-3.7 4.35 3.4q-1.25-.1-2 .5l-3.25 2.5"/><path fill="url(#ae)" d="M23.95 110.05l-.85 3.35.15 2.2q-2.3 0-3.65-.85l-5-3.3 9.35-1.4"/><path fill="url(#af)" d="M32.4 145.35l-.45-3.3 3.1-1 .6.55-3.25 3.75"/><path fill="#fff" d="M91.4 90.15L93.1 89l2-.7 4.65-.75h1.1q-.55 6.3.9 13.85-4.85-2-5.9-11.1-3.4.85-4.6 6.95-1.1-4.7.15-7.1m10.05-3l1.15-.45 2.85-.55 5.7.55 3.4.3q2.85.55 5.35 2.55l2.8 2.6 1.05 1.55q-2.75 5.15-6.35 8.7 1.65-5.85 2.5-12.85-4.2 7.45-9.05 12 .6-4.85.3-14.85-1.85 12-5.1 19.7-.3-12.7-4.6-19.25M118 109.9l-2.6 1.5-2.4.8-.1-.3q1.95-3.5 3.65-5.65.75 2.3 1.45 3.65m-6.25 2.65l-5.15-.15-1.9-.35.45-1.15q3.4-8.2 6.25.85l.35.8m-17.6-4.65q-1.3-.65-2.55-1-.3-3.2 2.55-5.2-.45 3.55 0 6.2"/><path fill="url(#ag)" d="M98.6 81.3q-.2-8.7 1.85-15.2 2.55-7.85 5.8-14.7 1.65-3.6 2.3-8.15-.15 8.85.7 17.85l1.05 11.35.1 9.25-3.7-.55q-4.25-.55-8.1.15"/><path fill="url(#ah)" d="M121.35 83.45q2.5-2 5.35-3.15 4.2-1.85 8.5-1.7 4.45 0 8.8 1.7 3.2 1.15 6.2 3.55l-5.4.6q-3.6.7-6.95 3.55l-4 3.55q-2.1-2.55-5.55-4.7-3.25-2-6.95-3.4"/><path fill="url(#ai)" d="M121.35 83.45q3.7 1.4 6.95 3.4 3.45 2.15 5.55 4.7 2.05 2.45 4.3 3.6-.85 3.4-.85 5.4 0 4.5-2.95 8.5l.4.35q5.6 5.15-5.4 4.15l-1.05.65q-7.75 4.85-18.15 5.7-1.6 3.15-6.1 4.15-4.5 1-10.95-6-6.55 0-10.3-2.45-3.85-2.7-4.25-7.05l1.15-1-1.4.5h-.05q-2.3-3.5-2.3-7.5 0-8 9-13.7 3.3-2.15 7.15-3.4 3.05-1.45 6.5-2.15 3.85-.7 8.1-.15l3.7.55 10.95 1.75m-20.5 4.1h-1.1l-4.65.75-2 .7-1.7 1.15q-2.7 2-4.8 6.25-3.9 8 2.5 9.65l2.5.85q1.25.35 2.55 1l3.95 1.65.15.15 1.35.7 5.1 1.65 1.9.35 5.15.15.95-.15.3-.2 2.4-.8 2.6-1.5q1.75 3.5 2.55-2.2l1.35-1.8 1.45-2.2q3.35-5.3.4-10l-1.05-1.55-2.8-2.6q-2.5-2-5.35-2.55l-3.4-.3-5.7-.55-2.85.55-1.15.45-.55-.85-.05 1.25"/><path fill="url(#aj)" d="M100.85 87.55l.6-.4q4.3 6.55 4.6 19.25 3.25-7.7 5.1-19.7.3 10-.3 14.85 4.85-4.55 9.05-12-.85 7-2.5 12.85 3.6-3.55 6.35-8.7 2.95 4.7-.4 10l-1.45 2.2-1.15-2.05-.2 3.85-2.55 2.2q-.7-1.35-1.45-3.65-1.7 2.15-3.65 5.65l-.2.5-.95.15-.35-.8q-2.85-9.05-6.25-.85l-.45 1.15-5.1-1.65-.6-2.85q-.55.85-.75 2.15l-.15-.15-3.95-1.65q-.45-2.65 0-6.2-2.85 2-2.55 5.2l-2.5-.85q-6.4-1.65-2.5-9.65 2.1-4.25 4.8-6.25-1.25 2.4-.15 7.1 1.2-6.1 4.6-6.95 1.05 9.1 5.9 11.1-1.45-7.55-.9-13.85"/><path fill="url(#ak)" d="M100.85 87.55l.05-1.25.55.85-.6.4"/><path fill="url(#al)" d="M121.9 105.9l-1.35 1.8.2-3.85 1.15 2.05"/><path fill="url(#am)" d="M138.15 95.15q-.3 1.85.75 2.25 4.95 1.6 9.6 5.15 3.8 2.85 7.3 6.85 5.15 6 7.4 16.35-5.85-5.7-13-9.85-7.7-4.5-15.5-6.85h-.35q2.95-4 2.95-8.5 0-2 .85-5.4"/><path fill="url(#an)" d="M129.35 113.55l2.1 4.05q2 3.45 3.25 8.3.9 3.85.65 8-.3 5.4-2.3 8.7-.9 1.55-1.7 1-6.2-9.3-12.75-16l-5.4-5.4-3.05-2.3q10.4-.85 18.15-5.7l1.05-.65"/><path fill="url(#ao)" d="M120.55 107.7q-.8 5.7-2.55 2.2l2.55-2.2"/><path fill="url(#ap)" d="M113 112.2l-.3.2.2-.5.1.3"/><path fill="url(#aq)" d="M78.25 108.05L67.8 112.2q-7 2.85-11.65 10.7.25-4.7 1.2-8.85 1.05-4.8 2.8-8.5 1.55-3.3 3.5-5.55l3.9-4.3q4.55-5 9.6-5.15-.9 0-1.7-.7Q66.1 83.7 57 85.45q3.1-3.6 6.5-5.6 3.9-2.4 8-1.85L88 81q2.25.7 4.1 2.45-3.85 1.25-7.15 3.4-9 5.7-9 13.7 0 4 2.3 7.5"/><path fill="url(#ar)" d="M99.6 110.4l-1.35-.7q.2-1.3.75-2.15l.6 2.85"/><path fill="url(#as)" d="M93.1 118.05q-.85.15-1.35.7l-5.6 7.55-1.45 2.6-1.55 3.85q-1.3 3.7-.9 8.25l-2.55-2.55-2.6-5q-1.3-3.15-1.8-7.4l-.15-6.45q.55-8.2 3.4-11.05.4 4.35 4.25 7.05 3.75 2.45 10.3 2.45"/><path fill="url(#at)" d="M78.55 108.55l-.3-.5h.05l1.4-.5-1.15 1"/><path fill="none" stroke="#732600" stroke-width=".05" stroke-linecap="round" stroke-miterlimit="3" d="M26.1 95.4h-4.9l-2.95.3 4.65 3.2q1.35.8 3.3 1l-.4-1.85.3-2.65q5.7-47.7 15.15-89.45Q63.7 43.8 80 88.15l.3.95q-.6 1.05-2.65.3l-.25-.15q-23.45-36.3-33.55-72.3-3.6 41-13.8 78.8L34.2 99l-1.7.3-2.45 1.75 6.6 21.8 2.55-.65.75-.3.55-.5-.8 1.35-2.3 2.85.65 2.4 1.45.6 5.15-.3-5 5.45.3 1.25h3.85l1.05-.1-.45.6-3.15 3.5-.05.2.6 2.4 2.4-.1 2.9-.6-4.75 3.25q4.5 17.15 8.15 34.2Q34.65 138.6 26.2 99.9m3.85 1.15l-.8-2.3.8-3m11 43.3l.15.15m1.15 4.95l-.55-2.55m-2.15-7.85l-1.6-5.75m-.65-2.4l-.75-2.75m4.4 16.2l-1.1-4.05"/><path fill="none" stroke="#692300" stroke-width=".05" stroke-linecap="round" stroke-miterlimit="3" d="M45.7 78.6q11-30.5 16.55-62.6 6.45 26.25 24.3 50.8h.25q1.75.35 2.35-.65l-.2-.55Q77.7 33.8 60.7 8.05 50.2 41.5 42.4 78.75l-.45 2.1.15.7v.7q4.95 28.6 16.05 56.8-2.05-12.7-4.8-25.15l-.4-1.85-.4-1.75-.05-.05-.7-2.95-.15-.9-1.1-4.25-.35-1.7-.55-2.05-4.25-15.8-.55-1.6.85-2.4 3.3 1.95q-.9-.1-1.45.4L45.4 82.6m-3-3.85l-6.75 1.5L39.4 82l2.7.25M52.35 97.9l.65-1.15-.35.4-.8.45-2.2.8m2.15 8.9l3.3-.55.9-.2-.45.45-2.85 3.15-.15.15m-.9-3.9l4.6-5q-1.55 1.45-4.4 1l-1.3-.25m2.8 11.75l4.2-3.15-4.6 1.3m-.6-14.15l-2.15 2.55"/><path fill="none" stroke="#973200" stroke-width=".05" stroke-linecap="round" stroke-miterlimit="3" d="M17.25 104.4q28.95-41.55 49.3-86.7 1.75 39.95 23.3 80.45l.3.15 4.1-.15-.1-1q-8-49.35-27.45-91.6-29.2 45.85-55.1 98.2l-1.5 3-.15 2.1q-1.5 42.9 7.3 87.1 1-19 .65-37.95v-2.8l-.1-2.6-.05-.15-.1-4.55-.05-1.4-.35-6.45-.05-2.6-.1-3.1q-.7-12.05-1.85-24.1l-.3-2.65 2.3-3.2 4.95 3.65-2.55.25-4.4 1.95m-3.65-6.5L-.2 104l5.8 3.6q1.5 1 4.35 1.25m7.65 37.65l6-3.65 3.35-2.25q-3 1.55-7.75.15l-1.95-.7m6.1 8l1.6-.15-.9.6-5.95 3.85-.3.25m3.95-18.25l1.5-1.45-.9.55-1.3.3-3.95.6m6.25 13.7l-5.7-.15m4.1-13.55l-4.55 3.1m.7 20.55l8.15-3.5-4.55.65-3.6.05"/><path fill="none" stroke="#6D2400" stroke-width=".05" stroke-linecap="round" stroke-miterlimit="3" d="M175.5 102.4l.15 2.5-.45 1.55 3.4.25 5-1.4q-1.25-.7-3.1-1.3-2.55-.6-5-1.6-3.7-44.75-11.4-85.55-25.2 26.8-44.25 61.55l-.3.7q.5 1.2 2.65 1.05l.4.1q26.05-25.15 38.3-54.3 1.75 38.15 10.45 75.6l.7 2.9-.95 1.85-7.9 17.45-.9 2.25-.8 1.9-2 4.8-.3.9-1.3 3.4-.15.05-.85 2-.7 2q-5.55 14-10.05 28.3 18.35-30.65 29.05-62.9m-4.1-.15l-2.45-2.45-1.7-.8 4.4-1.5m-11.45 20.3l-.55-.65.3.75.3.75 2.35 3.3m-2.4-4.15l.75.6 2.55 1.3m-5.45 13.3l-3.25-4.35-.45-.8 1.15.55 4 1.15m.3-.9l-4.85-6.7q1.7 1.9 5.3 2l1.55-.1m-5.3 13.15l-4.7-4.45 5.4 2.45"/><path fill="none" stroke="#933100" stroke-width=".05" stroke-linecap="round" stroke-miterlimit="3" d="M184.9 110.4l.45 2.8-.25 2 3-.5 4.4-2.55-7.6-1.75q-8.3-52-19.8-98.3-19.5 36.4-32.6 81l-.3.9q.7 1.3 2.7.75l.25-.05m45.95 15.45l.95 3.3-.65 2.3-5 22.15-.6 2.85-.45 2.4-1.3 6-.25 1.15-.75 4.2-.1.1-.45 2.55-.4 2.45q-3.35 17.55-5.8 35.2 12.9-39.6 18.8-79.6m-4-5.05l-3.75 2.7q1 0 1.6.6l2.45 2.3M173 136.4l.05.1.3.8 2.45 3.45m.6-2.85l-2.5-1.05-.8-.55-.5-.6.4.7m2.35 6.75l-1.45.35q-3.25.65-4.95-1.2l5.1 6.85m-1.1 5.45l-.15-.15-3.7-5.1 1 .3 3.7.65m-1.3 6.85l-5.15-1.8 4.75 4.25"/><path fill="none" stroke="#381200" stroke-width=".05" stroke-linecap="round" stroke-miterlimit="3" d="M135.15 94.7Q155.6 60 163.2 23.35q5.85 44.5 17.9 86.8"/><path fill="none" stroke="#732600" stroke-width=".05" stroke-linecap="round" stroke-miterlimit="3" d="M191.65 97l8.55-1.1-3.85 3.5q-1.1.9-3.15 1.45 4.85 33.45 2.15 69.05-2.3-14.75-3.7-29.75l-6.15-1.85h3.4l2.6-.4-.25-2.05-.2-.1-5.3-2.85 1.2-.05 4.1-.65-.15-1.05-7.3-3.8q2.35 1 5.65-.5l1.3-.8-.15-2.05q-1.9-.85-3.5-2l-.7-.45-.55-.5.7.25 1 .15 2.9.1-.7-19.15-3.3-1.1-1.9.1 3.2-3.35q-24.5-29.5-43.05-62.8 2.1 31.45-10 65.5l-.3.15-3 .25.1-.75q1.45-39.55 12.05-74.7 25 32.85 48.3 71.3l1.3 2.15.25 1.7m-3.65 1.55l-.05-2-1.95-2.35m3.7 37.8l.1-.1-.3-3.55m-.15-1.05l-.35-5.1m1.1 14.1l-.15-2.25m-1.1-13.9l-.15-2.45"/><path fill="none" stroke="#620" stroke-width=".05" stroke-linecap="round" stroke-miterlimit="3" d="M167.35 116.4q1.9 0 3.1-.85l4.05-3.35-7.7-1.35.7 3.3-.15 2.25q-3.05 45.9-13.15 92 1.15-20.3 3.25-40.5l-5-4.45 2.9 1.05 2.4.5.3-2.85-.25-.25-4-5.45 1.1.3 3.7.45.15-1.45-5.55-7.3q1.75 2 5 1l1.3-.55.4-2.75-2.7-3.8-.85-1.65.55.6.85.55 2.45 1 3.55-25.55-2.65-2.45q-.6-.65-1.6-.55l3.55-3.4q-15-47.1-24-97.35-5 42.4-23 83.45l-.3.1q-1.85.75-2.6-.65l.15-1.05q10-51.75 26.85-94.75 14.75 51.75 26.65 110.2m-3.05 6.45l.45-2.7-1.15-3.7m-3.15 35.25l.3-3.3m-.7 6.05l-.75 6.85m-1 9.25l-.3 2.9m.7-5.9l-.1.15m.55-4.95l-.45 4.8"/><path fill="none" stroke="#913000" stroke-width=".05" stroke-linecap="round" stroke-miterlimit="3" d="M28.55 110.15Q46.8 63 57.7 12.8q6.15 42.35 28.1 83.45l.3.05q2.3.8 3.2-.6l-.2-1.1Q76.95 42.85 56.4-.1 38.5 51.65 23.95 110.05l-.85 3.35.15 2.2q3.8 45.9 16.1 92.05-1.45-20.3-4-40.5l-.3-2.95-.4-2.85-.1-.15-.6-4.75-.15-1.45-1-6.85-.4-2.8-.45-3.3-4.3-25.5-.55-2.7 1.45-3.7 4.35 3.4q-1.25-.1-2 .5l-3.25 2.5m-3.7-6.5l-9.35 1.4 5 3.3q1.35.85 3.65.85m11.8 25.45l-3.1 1m3.1-1q.5-.25 1-.55l.65-.6-1.05 1.7-3.25 3.75M38.5 156l-4.55.45m4.55-.45l1.3-.35-.7.85-4.2 4.65-.25.2m.7 5.8l6.05-4.5-3.5 1.1-2.85.45M33.8 155l6.75-7.35q-2.2 2-6.15 1l-1.6-.5"/><path fill="none" stroke="#4A4706" stroke-width=".05" stroke-linecap="round" stroke-miterlimit="3" d="M110.4 81.7l-.1-9.25-1.05-11.35q-.85-9-.7-17.85-.65 4.55-2.3 8.15-3.25 6.85-5.8 14.7-2.05 6.5-1.85 15.2 3.85-.7 8.1-.15l3.7.55 10.95 1.75q2.5-2 5.35-3.15 4.2-1.85 8.5-1.7 4.45 0 8.8 1.7 3.2 1.15 6.2 3.55l-5.4.6q-3.6.7-6.95 3.55l-4 3.55q2.05 2.45 4.3 3.6-.3 1.85.75 2.25 4.95 1.6 9.6 5.15 3.8 2.85 7.3 6.85 5.15 6 7.4 16.35-5.85-5.7-13-9.85-7.7-4.5-15.5-6.85h-.35l.4.35q5.6 5.15-5.4 4.15l2.1 4.05q2 3.45 3.25 8.3.9 3.85.65 8-.3 5.4-2.3 8.7-.9 1.55-1.7 1-6.2-9.3-12.75-16l-5.4-5.4-3.05-2.3q-1.6 3.15-6.1 4.15-4.5 1-10.95-6-.85.15-1.35.7l-5.6 7.55-1.45 2.6-1.55 3.85q-1.3 3.7-.9 8.25l-2.55-2.55-2.6-5q-1.3-3.15-1.8-7.4l-.15-6.45q.55-8.2 3.4-11.05l-.3-.5-10.45 4.15q-7 2.85-11.65 10.7.25-4.7 1.2-8.85 1.05-4.8 2.8-8.5 1.55-3.3 3.5-5.55l3.9-4.3q4.55-5 9.6-5.15-.9 0-1.7-.7Q66.1 83.7 57 85.45q3.1-3.6 6.5-5.6 3.9-2.4 8-1.85L88 81q2.25.7 4.1 2.45 3.05-1.45 6.5-2.15m-6.5 2.15q-3.85 1.25-7.15 3.4-9 5.7-9 13.7 0 4 2.3 7.5h.05l1.4-.5m-1.15 1q.4 4.35 4.25 7.05 3.75 2.45 10.3 2.45m40.75-26.5q-2.1-2.55-5.55-4.7-3.25-2-6.95-3.4m-11.2 36.45q10.4-.85 18.15-5.7l1.05-.65m5-4.5q2.95-4 2.95-8.5 0-2 .85-5.4"/><path fill="none" stroke="#333" stroke-width=".05" stroke-linecap="round" stroke-miterlimit="3" d="M91.4 90.15L93.1 89l2-.7 4.65-.75h1.1l.05-1.25.55.85 1.15-.45 2.85-.55 5.7.55 3.4.3q2.85.55 5.35 2.55l2.8 2.6 1.05 1.55q2.95 4.7-.4 10l-1.45 2.2-1.35 1.8q-.8 5.7-2.55 2.2l-2.6 1.5-2.4.8-.3.2-.95.15-5.15-.15-1.9-.35-5.1-1.65-1.35-.7-.15-.15-3.95-1.65q-1.3-.65-2.55-1l-2.5-.85q-6.4-1.65-2.5-9.65 2.1-4.25 4.8-6.25-1.25 2.4-.15 7.1 1.2-6.1 4.6-6.95 1.05 9.1 5.9 11.1-1.45-7.55-.9-13.85l.6-.4q4.3 6.55 4.6 19.25 3.25-7.7 5.1-19.7.3 10-.3 14.85 4.85-4.55 9.05-12-.85 7-2.5 12.85 3.6-3.55 6.35-8.7M118 109.9q-.7-1.35-1.45-3.65-1.7 2.15-3.65 5.65l-.2.5m7.85-4.7l-2.55 2.2m3.9-4l-1.15-2.05-.2 3.85m-8.8 4.85l-.35-.8q-2.85-9.05-6.25-.85l-.45 1.15m-5.1-1.65l-.6-2.85q-.55.85-.75 2.15m-4.1-1.8q-.45-2.65 0-6.2-2.85 2-2.55 5.2"/></svg>