<svg xmlns="http://www.w3.org/2000/svg" viewBox="0 0.1 35.2 31.5" width="35.2" height="31.5"><defs><radialGradient gradientUnits="userSpaceOnUse" r="819.2" cx="0" cy="0" spreadMethod="pad" gradientTransform="matrix(-.022 0 0 .022 14.8 16.55)" id="a"><stop offset="0" stop-color="#ccc"/><stop offset=".753" stop-color="#630"/><stop offset=".894" stop-color="#f00"/></radialGradient><radialGradient gradientUnits="userSpaceOnUse" r="819.2" cx="0" cy="0" spreadMethod="pad" gradientTransform="matrix(-.005 0 0 .005 5.6 11)" id="b"><stop offset="0" stop-color="#ff9"/><stop offset=".427" stop-color="#fc0"/><stop offset=".894"/></radialGradient><radialGradient gradientUnits="userSpaceOnUse" r="819.2" cx="0" cy="0" spreadMethod="pad" gradientTransform="matrix(-.007 0 0 .007 20.9 8.9)" id="c"><stop offset="0" stop-color="#ccc"/><stop offset=".753" stop-color="#630"/><stop offset=".894" stop-color="#f00"/></radialGradient><radialGradient gradientUnits="userSpaceOnUse" r="819.2" cx="0" cy="0" spreadMethod="pad" gradientTransform="matrix(-.007 0 0 .007 12.85 13.5)" id="d"><stop offset="0" stop-color="#ccc"/><stop offset=".753" stop-color="#630"/><stop offset=".894" stop-color="#f00"/></radialGradient><radialGradient gradientUnits="userSpaceOnUse" r="819.2" cx="0" cy="0" spreadMethod="pad" gradientTransform="matrix(-.005 0 0 .003 22.5 3.3)" id="e"><stop offset="0"/><stop offset=".349" stop-color="#633"/><stop offset="1" stop-color="#690"/></radialGradient><radialGradient gradientUnits="userSpaceOnUse" r="819.2" cx="0" cy="0" spreadMethod="pad" gradientTransform="matrix(-.003 0 0 .003 24.95 5.9)" id="f"><stop offset="0" stop-color="#ccc"/><stop offset=".753" stop-color="#630"/><stop offset=".894" stop-color="#f00"/></radialGradient><radialGradient gradientUnits="userSpaceOnUse" r="819.2" cx="0" cy="0" fx="87942.4" fy="0" spreadMethod="repeat" gradientTransform="matrix(-.007 .003 .001 .003 28.8 5.75)" id="g"><stop offset="0"/><stop offset=".349" stop-color="#633"/><stop offset="1" stop-color="#690"/></radialGradient><radialGradient gradientUnits="userSpaceOnUse" r="819.2" cx="0" cy="0" spreadMethod="pad" gradientTransform="matrix(-.002 0 0 .002 24 5.9)" id="h"><stop offset="0" stop-color="#fff"/><stop offset=".349" stop-color="#ff0"/><stop offset=".631"/></radialGradient><radialGradient gradientUnits="userSpaceOnUse" r="819.2" cx="0" cy="0" spreadMethod="pad" gradientTransform="matrix(-.225 0 0 .225 33.85 -1)" id="i"><stop offset="0" stop-color="#fff"/><stop offset="1"/></radialGradient><radialGradient gradientUnits="userSpaceOnUse" r="819.2" cx="0" cy="0" spreadMethod="pad" gradientTransform="matrix(-.006 0 0 .006 20.55 22.1)" id="j"><stop offset="0" stop-color="#ccc"/><stop offset=".753" stop-color="#630"/><stop offset=".894" stop-color="#f00"/></radialGradient><radialGradient gradientUnits="userSpaceOnUse" r="819.2" cx="0" cy="0" spreadMethod="pad" gradientTransform="matrix(-.002 0 0 .002 26.25 18.6)" id="k"><stop offset="0" stop-color="#ccc"/><stop offset=".753" stop-color="#630"/><stop offset=".894" stop-color="#f00"/></radialGradient><radialGradient gradientUnits="userSpaceOnUse" r="819.2" cx="0" cy="0" spreadMethod="pad" gradientTransform="matrix(-.006 0 0 .006 23.2 25.3)" id="l"><stop offset="0" stop-color="#ccc"/><stop offset=".753" stop-color="#630"/><stop offset=".894" stop-color="#f00"/></radialGradient></defs><path d="M31.7 5.8l.8-.65Q33 6.3 33 7.7q-.45-1.25-1.3-1.9M31 3.05l-1.05.35q-.95.4-1.9 1.2l-.55.55h-.05l-.9-1.45-.3-.4-.7-.1-2.35.45.15-.1.8-1.1.55-.5 2.15-.5 1.8.05-1.4.6 2.2.1q.45 0 .85.3l.7.55m-4.05 3.2l.7.55 1.05.35.45 1.9.35 1.1L28.1 9q.25 1.1.95 2.1l.75.8-1.5-.6.25.35-1.4-1.45q-.5-.9-.7-2.3.4-.3 0-.85l.25.05.45.2-.2-1.05m2.7.75l.3-.1 1-.55q.55 1.4-.3 3 0-1.55-1-2.35M27.7 26.9v.05h.05q1.1.3 1.45 1.4.25.7-.05 1.2l-.5.45-1.7.55q-.2 1.1-1.5 1.05l-2.15-.2q-.7-.55-1.3-.45l-5.15.3 8.1-1.65-6.35-.65-2-.45 2.25-.35 5.9-.65q-2.35-.75-4.55-.95l2.5-1.1-.9-.25 1.55-.4q1.3-.1 1.9.6.45.55.5 1.25l1.95.25M24 28.45q1.15 0 2.1.5 1 .5.85 1.55v.05-.05q.15-1.05-.85-1.55-.95-.5-2.1-.5m-.3-2.1l1.95.3h.1-.1l-1.95-.3"/><path fill="url(#a)" d="M27.5 5.15l-.65.85-.35-.5-.6-.35q-.5-.2-.85-.4.1-.3.35-.5l.8-.65-1.45.25Q23.6 4.3 22.8 5.1h-.65q.25 1.1 1.25 1.5l.15.05.45.1h.3l.75.8q.65.45 1.2.6l-.25-.4q-.1-.45-.05-.9l.5.2q.4.55 0 .85.2 1.4.7 2.3l1.4 1.45.9 1.55q.25.45.15 1l-.15.35v.1q-.1.9-.8 1.7l-1.4 1.6-.65.3-2.15.5 1.05.3 1.05.3 1.1-.25.35-.15h.15q1.2.55 1.4 1.55.1.85-.15 1.5-.4 1.05-1.3 1.25l-.55.05-.35-.1-.6-.4q-.55-.6.45-.6h.05l.25-.15q.65-.35.6-1.3l-.2-.25q-.5-.4-1.15-.5l-2.1-.3-1.35-.05-.2 1.75-2.4 1.45-.15.05H20q-1.1-.1-1-1.6 0-.5-.6-.65l-1.8-.1.85.55 1.4 1.35q.65.9.5 2.05h-.05q-.1 1-.8 1.45l.95.05 1-.25.8-.35.55-.2.9.25-2.5 1.1q2.2.2 4.55.95l-5.9.65-2.25.35 2 .45 6.35.65-8.1 1.65-1.15-.2q-.7-.25-.6-.6v-.55h-.05q-.8-.55-1.9-.6H11l-2.15-.1q.3-.05.25-.4-.05-.35-.7-.4-.55 0-.75-.2l-.8.1q.8-.7-.05-1.45l-1.25-1.3q.25-1.05.8-1.55l.1-.1v-.05l-.35-.7q-.6-.8-1.65-.9l-2.2-.15Q1.1 22 .4 21.1q-.65-.9-.3-2.05.35-1.1 1.4-1.45l.95-.45L4 15.95l.45-1-.05-.75-.05-.25-.4-.35v-.05H4q.5.1 1 .55l.75.85V15l-.15.6q-.45 1-1.25 1.5-.95.55-1.8 1.2-1 .7-.15 1.75.6.8 1.7 1l2.15.2q0-.75.15-1.55.2-1.1.8-1.9.6-.9 1.45-1.55.35-.25.75-.35l.3-.1.1.15q.8 1.1 2.15 1.45 1.3.4 2.6 0 1.2-.4 2.2-1.15l.3-.25q.7-.75.35-1.9l.3.1 2.05.45 2.15.1 2 .45 2.05.45.35-.15q1.1-.6.65-1.75-.35-.9-1.05-1.6l-.3-.3v-1.8q0-1.15-1.6-.8-.85.25-1.05-.65-.15-.75-.75-1.35l-.05-.05-.05-.1v.1q-.1.6-.8.5v-.2q.15-1.65-1-2.3l-1.05-.35.5.8.05.45q-1.2-.7-2.7-.75-.4 0-.55.25 1.15.25 2.25 1.3.65.6-.35.75l-2.3.45q1 .15 1.75.65l.4.3q-.15 1 .2 1.35.85.85.8 2.15l-.1.45-1.15.35q.05-.9-.35-1.7-.5-1.05-1.6-1.35l-1.3-.5-.7-.35q-.7-.45-.9-1.15-.3-1.05.2-2.05l1.05-1.85 1.25-1.7q.6-.8 1.65-.85 1 0 1.9.5l1.8 1 1.4.55.4.05.25-.2.1-.1 2.35-.45.7.1.3.4.9 1.45h.05M6.3 21.8l-.05-.55.05.55m17.1-3.85l-.35.1q-.4.1-.65.45-.95 1.25.6 1.15h.15H23q-1.55.1-.6-1.15.25-.35.65-.45l.35-.1m4.75 4.55q-.45.7-.95.7.5 0 .95-.7m-14.4-2.8l1.9.35.95.5-.95-.5-1.9-.35M7.5 26.05q.25.65.95 1l2.15.55 1.9-.2 2.05-.4h.1l1.65-.2 2-.7.2-.15-.2.15-2 .7-1.65.2h-.1l-2.05.4-1.9.2-2.15-.55q-.7-.35-.95-1"/><path fill="url(#b)" d="M3.85 13.55H3.8q-.6-.25-.4-.95.25-.9-.95-1.8 1.6-.3.65-1.45l.8-.05L3.05 8h1l-.65-.9q2.25.4 3.95 1.35V8.1l.9 2.25.5-.3-.9 1.45-.25.65v.05q-.1 1.35-1.6 1.1.4.65.35 1.35l-.6-.15v.45L5 14.1q-.5-.45-1-.55H3.85"/><path fill="url(#c)" d="M19.2 13l.1-.45q.05-1.3-.8-2.15-.35-.35-.2-1.35l-.4-.3q-.75-.5-1.75-.65l2.3-.45q1-.15.35-.75-1.1-1.05-2.25-1.3.15-.25.55-.25 1.5.05 2.7.75l-.05-.45-.5-.8 1.05.35q1.15.65 1 2.3v.2q.7.1.8-.5v-.1l.05.1.05.05q.6.6.75 1.35.2.9 1.05.65 1.6-.35 1.6.8v1.8l-1.25-1.15v-.65q-.7 0-1.25-.4l-.9-.95-.3-.45q-.7-.1-1.2-.5l-.35-.45.5-.45-.5.45-.65.2-.15.65-.45.5q-.3.2-.05.5.45.55.35 1.4-.15 1.05.5 1.25.1-.3.5-.15l.4.35q.55.85-.65.85l-.95.15m5.6-2.95h-.45.45M19.5 6.8l.2.7-.2-.7"/><path fill="url(#d)" d="M17.4 14.1q.35 1.15-.35 1.9l-.3.25q-1 .75-2.2 1.15-1.3.4-2.6 0-1.35-.35-2.15-1.45l-.1-.15.4-.45.15-1.05q-.1-.9.25-1.5.4-.75 1.3-.75l2.1.45 1.95.9 1.5.7h.05"/><path fill="url(#e)" d="M23.35 3.55l-.15.1-.1.1-.25.2-.4-.05-.45-.4q-.65-.35-.65-1.05l-.1-1.3q-.15-.7-.7-1.05l.7.35Q22.2.9 22.8 1.7q.65.8.55 1.85"/><path fill="url(#f)" d="M22.8 5.1q.8-.8 1.95-1.25l1.45-.25-.8.65q-.25.2-.35.5.35.2.85.4l.6.35.35.5-.05.15.15.1.2 1.05-.45-.2-.25-.05-.5-.2q-.05.45.05.9l.25.4q-.55-.15-1.2-.6l-.75-.8 1.2-.15.35-.15-.5-.5-1.1-.6-1.45-.25"/><path fill="url(#g)" d="M32.5 5.15l-.8.65-.75.55-1 .55-.3.1-.95.15-1.05-.35-.7-.55-.1-.25.65-.85.55-.55q.95-.8 1.9-1.2L31 3.05l1.05-.2L34 2.9l1.2.4-1.05.2-1.1 1-.55.65"/><path fill="url(#h)" d="M22.8 5.1l1.45.25 1.1.6.5.5-.35.15-1.2.15H24l-.45-.1-.15-.05q-1-.4-1.25-1.5h.65"/><path fill="url(#i)" d="M22.2 8.7l.9.95q.55.4 1.25.4v.65l-.15 1.7q-.15.9-.85 1.25l-1.7.35.45-.95q.25-1.05.1-2.2-.15-1.05 0-2.15"/><path fill="url(#j)" d="M24.5 19.7l-.85 1.85q-.3.9-1.15 1.45l-1.1.8q-.7.5-1.5.65l-.5.05h-.05q.15-1.15-.5-2.05l-1.4-1.35-.85-.55 1.8.1q.6.15.6.65-.1 1.5 1 1.6h.4l.15-.05 2.4-1.45.2-1.75 1.35.05"/><path fill="url(#k)" d="M27.25 17.95l-.65.5-.5.25.45.15 1.45.1-.35.15-1.1.25-1.05-.3-1.05-.3 2.15-.5.65-.3"/><path fill="url(#l)" d="M21.4 23.8l2.1-.1q1.55-.2 2.2.6 1.25-.2 1.9 1.05.5 1 .1 1.55l-1.95-.25q-.05-.7-.5-1.25-.6-.7-1.9-.6l-1.55.4-.55.2-.8.35-1 .25-.95-.05q.7-.45.8-1.45h.1l.5-.05q.8-.15 1.5-.65"/><path fill="none" stroke="#6D3E0F" stroke-width=".05" stroke-linecap="round" stroke-miterlimit="3" d="M32.5 5.15l-.8.65q.85.65 1.3 1.9 0-1.4-.5-2.55l.55-.65 1.1-1 1.05-.2-1.2-.4-1.95-.05-1.05.2-1.05.35q-.95.4-1.9 1.2l-.55.55-.65.85-.05.15.15.1.7.55 1.05.35.95-.15.3-.1 1-.55.75-.55M29.65 7q1 .8 1 2.35.85-1.6.3-3m.05-3.3l-.7-.55q-.4-.3-.85-.3l-2.2-.1 1.4-.6-1.8-.05-2.15.5-.55.5-.8 1.1m5.2 8.1l-.25-.35 1.5.6-.75-.8q-.7-1-.95-2.1l1.4 1.15-.35-1.1-.45-1.9M14.45 4.4L13.4 6.25q-.5 1-.2 2.05.2.7.9 1.15l.7.35 1.3.5q1.1.3 1.6 1.35.4.8.35 1.7L19.2 13l.95-.15q1.2 0 .65-.85l-.4-.35q-.4-.15-.5.15-.65-.2-.5-1.25.1-.85-.35-1.4-.25-.3.05-.5l.45-.5.15-.65-.2-.7m6.1 5.05l.3.3q.7.7 1.05 1.6.45 1.15-.65 1.75l-.35.15-2.05-.45-2-.45-2.15-.1-2.05-.45-.3-.1h-.05l-1.5-.7-1.95-.9-2.1-.45q-.9 0-1.3.75-.35.6-.25 1.5l-.15 1.05-.4.45-.3.1q-.4.1-.75.35-.85.65-1.45 1.55-.6.8-.8 1.9-.15.8-.15 1.55l.05.55M20.35 7.3l.5-.45m-.5.45l.35.45q.5.4 1.2.5l.3.45m2.15 1.35h.45m-.45.65l1.25 1.15m3.85 2.8v-.1M28 18.95l-1.45-.1-.45-.15.5-.25.65-.5 1.4-1.6m-.65 2.6h.15m-.05 4.3l-.55.05-.35-.1-.6-.4q-.55-.6.45-.6h.05l.25-.15q.65-.35.6-1.3l-.2-.25q-.5-.4-1.15-.5l-2.1-.3-.85 1.85q-.3.9-1.15 1.45l-1.1.8 2.1-.1q1.55-.2 2.2.6m2 2.6v.05h.05q1.1.3 1.45 1.4.25.7-.05 1.2l-.5.45-1.7.55q-.2 1.1-1.5 1.05l-2.15-.2q-.7-.55-1.3-.45l-5.15.3-1.15-.2q-.7-.25-.6-.6v-.55h-.05q-.8-.55-1.9-.6H11l-2.15-.1q.3-.05.25-.4-.05-.35-.7-.4-.55 0-.75-.2l-.8.1q.8-.7-.05-1.45l-1.25-1.3q.25-1.05.8-1.55l.1-.1v-.05l-.35-.7q-.6-.8-1.65-.9l-2.2-.15Q1.1 22 .4 21.1q-.65-.9-.3-2.05.35-1.1 1.4-1.45l.95-.45L4 15.95l.45-1-.05-.75-.05-.25-.4-.35-.1-.05m1.9 1.4V15l-.15.6q-.45 1-1.25 1.5-.95.55-1.8 1.2-1 .7-.15 1.75.6.8 1.7 1l2.15.2m16.9-1.6H23q-1.55.1-.6-1.15.25-.35.65-.45l.35-.1m1.1 1.75l-1.35-.05m-6.55.9l.85.55 1.4 1.35q.65.9.5 2.05h.05l.5-.05q.8-.15 1.5-.65m5.8-.6q.5 0 .95-.7M16.6 20.55l-.95-.5-1.9-.35m5.6 4.8h-.05q-.1 1-.8 1.45l.95.05 1-.25.8-.35.55-.2 1.55-.4q1.3-.1 1.9.6.45.55.5 1.25l1.95.25m-9.2-.95l-.2.15-2 .7-1.65.2h-.1l-2.05.4-1.9.2-2.15-.55q-.7-.35-.95-1m18.25.6h-.1l-1.95-.3m3.25 4.2v-.05q.15-1.05-.85-1.55-.95-.5-2.1-.5M19.7 7.5l.65-.2"/><path fill="none" stroke="#666" stroke-width=".05" stroke-linecap="round" stroke-miterlimit="3" d="M22.2 8.7l.9.95q.55.4 1.25.4v.65m-2.15-2q-.15 1.1 0 2.15.15 1.15-.1 2.2l-.45.95 1.7-.35q.7-.35.85-1.25l.15-1.7"/><path fill="none" stroke="#937600" stroke-width=".05" stroke-linecap="round" stroke-miterlimit="3" d="M3.85 13.55H3.8q-.6-.25-.4-.95.25-.9-.95-1.8 1.6-.3.65-1.45l.8-.05L3.05 8h1l-.65-.9q2.25.4 3.95 1.35V8.1l.9 2.25.5-.3-.9 1.45-.25.65v.05q-.1 1.35-1.6 1.1.4.65.35 1.35l-.6-.15v.45"/><path fill="none" stroke="#6F0B00" stroke-width=".05" stroke-linecap="round" stroke-miterlimit="3" d="M22.45 3.9l-1.4-.55-1.8-1q-.9-.5-1.9-.5-1.05.05-1.65.85l-1.25 1.7m15 10.15l.15-.35q.1-.55-.15-1l-.9-1.55m-.4 7.3q1.2.55 1.4 1.55.1.85-.15 1.5-.4 1.05-1.3 1.25m-2.4 1.05q1.25-.2 1.9 1.05.5 1 .1 1.55m.95-10.55q.7-.8.8-1.7"/><path fill="none" stroke="#666818" stroke-width=".05" stroke-linecap="round" stroke-miterlimit="3" d="M23.35 3.55l-.15.1m.15-.1q.1-1.05-.55-1.85-.6-.8-1.55-1.25l-.7-.35q.55.35.7 1.05l.1 1.3q0 .7.65 1.05l.45.4.4.05.25-.2"/><path fill="none" stroke="#6A3100" stroke-width=".05" stroke-linecap="round" stroke-miterlimit="3" d="M24.3 6.75l1.2-.15.35-.15-.5-.5-1.1-.6-1.45-.25h-.65q.25 1.1 1.25 1.5l.15.05.45.1h.3"/></svg>