<svg xmlns="http://www.w3.org/2000/svg" viewBox="0 0 34.7 42.5" width="34.7" height="42.5"><defs><linearGradient gradientUnits="userSpaceOnUse" x1="-819.2" x2="819.2" gradientTransform="matrix(.005 .005 -.017 .02 17.55 18)" id="a"><stop offset=".157" stop-color="#8A3700"/><stop offset=".314" stop-color="#993D00"/><stop offset=".765"/></linearGradient><linearGradient gradientUnits="userSpaceOnUse" x1="-819.2" x2="819.2" gradientTransform="matrix(.003 0 0 .017 34.9 17.35)" id="b"><stop offset="0" stop-color="#fff"/><stop offset=".239" stop-color="#888"/><stop offset="1"/></linearGradient><radialGradient gradientUnits="userSpaceOnUse" r="819.2" cx="0" cy="0" spreadMethod="pad" gradientTransform="matrix(.004 0 0 .004 17.1 2.4)" id="c"><stop offset="0" stop-color="#690000"/><stop offset=".325" stop-color="#740000"/><stop offset="1"/></radialGradient><linearGradient gradientUnits="userSpaceOnUse" x1="-819.2" x2="819.2" gradientTransform="matrix(.01 0 0 .011 18 10.05)" id="d"><stop offset="0" stop-color="#5F5F5F"/><stop offset=".129" stop-color="#1F1F1F"/><stop offset=".325" stop-color="#5F5F5F"/><stop offset="1"/></linearGradient><radialGradient gradientUnits="userSpaceOnUse" r="819.2" cx="0" cy="0" spreadMethod="pad" gradientTransform="matrix(.004 0 0 .004 17.1 6.2)" id="e"><stop offset="0" stop-color="#fff"/><stop offset="1"/></radialGradient><radialGradient gradientUnits="userSpaceOnUse" r="819.2" cx="0" cy="0" spreadMethod="pad" gradientTransform="matrix(.002 0 0 .002 20 6.75)" id="f"><stop offset="0" stop-color="#690000"/><stop offset=".325" stop-color="#740000"/><stop offset="1"/></radialGradient><radialGradient gradientUnits="userSpaceOnUse" r="819.2" cx="0" cy="0" spreadMethod="pad" gradientTransform="matrix(.002 0 0 .002 21.2 6.7)" id="g"><stop offset="0" stop-color="#690000"/><stop offset=".325" stop-color="#740000"/><stop offset="1"/></radialGradient><linearGradient gradientUnits="userSpaceOnUse" x1="-819.2" x2="819.2" spreadMethod="repeat" gradientTransform="matrix(.002 .004 -.011 .016 18.8 18.75)" id="h"><stop offset=".157" stop-color="#8A3700"/><stop offset=".314" stop-color="#993D00"/><stop offset=".396" stop-color="#f60"/><stop offset=".765"/></linearGradient><linearGradient gradientUnits="userSpaceOnUse" x1="-819.2" x2="819.2" gradientTransform="matrix(.002 0 -.001 .013 28.5 17.6)" id="i"><stop offset="0" stop-color="#fff"/><stop offset=".239" stop-color="#888"/><stop offset="1"/></linearGradient><radialGradient gradientUnits="userSpaceOnUse" r="819.2" cx="0" cy="0" spreadMethod="pad" gradientTransform="matrix(.004 0 0 .004 23.6 9.7)" id="j"><stop offset="0" stop-color="#f00"/><stop offset="1"/></radialGradient><radialGradient gradientUnits="userSpaceOnUse" r="819.2" cx="0" cy="0" spreadMethod="pad" gradientTransform="matrix(.002 0 0 .002 22.95 13.8)" id="k"><stop offset="0" stop-color="#f00"/><stop offset="1"/></radialGradient><radialGradient gradientUnits="userSpaceOnUse" r="819.2" cx="0" cy="0" spreadMethod="pad" gradientTransform="matrix(.002 0 0 .002 20.6 10.35)" id="l"><stop offset="0" stop-color="#f00"/><stop offset="1"/></radialGradient><radialGradient gradientUnits="userSpaceOnUse" r="819.2" cx="0" cy="0" spreadMethod="pad" gradientTransform="matrix(.003 0 0 .003 16.4 12.15)" id="m"><stop offset="0" stop-color="#f00"/><stop offset="1"/></radialGradient><radialGradient gradientUnits="userSpaceOnUse" r="819.2" cx="0" cy="0" spreadMethod="pad" gradientTransform="matrix(.002 0 0 .002 21.6 12.05)" id="n"><stop offset="0" stop-color="#f00"/><stop offset="1"/></radialGradient><radialGradient gradientUnits="userSpaceOnUse" r="819.2" cx="0" cy="0" spreadMethod="pad" gradientTransform="matrix(.002 0 0 .002 21.3 18.6)" id="o"><stop offset="0" stop-color="#690000"/><stop offset=".325" stop-color="#740000"/><stop offset="1"/></radialGradient><radialGradient gradientUnits="userSpaceOnUse" r="819.2" cx="0" cy="0" spreadMethod="pad" gradientTransform="matrix(.005 0 0 .005 15.8 18.1)" id="p"><stop offset="0" stop-color="#690000"/><stop offset=".325" stop-color="#740000"/><stop offset="1"/></radialGradient><radialGradient gradientUnits="userSpaceOnUse" r="819.2" cx="0" cy="0" spreadMethod="pad" gradientTransform="matrix(.004 0 0 .004 20.7 22.4)" id="q"><stop offset="0" stop-color="#690000"/><stop offset=".325" stop-color="#740000"/><stop offset="1"/></radialGradient><linearGradient gradientUnits="userSpaceOnUse" x1="-819.2" x2="819.2" gradientTransform="matrix(.004 0 0 .005 15.8 21.85)" id="r"><stop offset="0" stop-color="#5F5F5F"/><stop offset=".129" stop-color="#1F1F1F"/><stop offset=".325" stop-color="#5F5F5F"/><stop offset="1"/></linearGradient><linearGradient gradientUnits="userSpaceOnUse" x1="-819.2" x2="819.2" gradientTransform="matrix(.003 0 0 .01 21.6 28.65)" id="s"><stop offset="0" stop-color="#5F5F5F"/><stop offset=".129" stop-color="#1F1F1F"/><stop offset=".325" stop-color="#5F5F5F"/><stop offset="1"/></linearGradient><radialGradient gradientUnits="userSpaceOnUse" r="819.2" cx="0" cy="0" spreadMethod="pad" gradientTransform="matrix(.008 0 0 .008 25.95 37.75)" id="t"><stop offset="0" stop-color="#690000"/><stop offset=".325" stop-color="#740000"/><stop offset="1"/></radialGradient><radialGradient gradientUnits="userSpaceOnUse" r="819.2" cx="0" cy="0" spreadMethod="pad" gradientTransform="matrix(.009 0 0 .009 18.3 27.8)" id="u"><stop offset="0" stop-color="#690000"/><stop offset=".325" stop-color="#740000"/><stop offset="1"/></radialGradient><linearGradient gradientUnits="userSpaceOnUse" x1="-819.2" x2="819.2" gradientTransform="matrix(.001 0 0 .005 16.1 27.45)" id="v"><stop offset="0" stop-color="#5F5F5F"/><stop offset=".129" stop-color="#1F1F1F"/><stop offset=".325" stop-color="#5F5F5F"/><stop offset="1"/></linearGradient><linearGradient gradientUnits="userSpaceOnUse" x1="-819.2" x2="819.2" gradientTransform="matrix(-.004 .005 .014 .023 14.2 18.2)" id="w"><stop offset=".157" stop-color="#8A3700"/><stop offset=".314" stop-color="#993D00"/><stop offset=".396" stop-color="#f60"/><stop offset=".765"/></linearGradient><linearGradient gradientUnits="userSpaceOnUse" x1="-819.2" x2="819.2" gradientTransform="matrix(-.004 .004 .01 .016 16.6 18.35)" id="x"><stop offset=".157" stop-color="#8A3700"/><stop offset=".314" stop-color="#993D00"/><stop offset=".765"/></linearGradient><linearGradient gradientUnits="userSpaceOnUse" x1="-819.2" x2="819.2" gradientTransform="matrix(.009 0 0 .005 17.8 34.75)" id="y"><stop offset="0" stop-color="#5F5F5F"/><stop offset=".129" stop-color="#1F1F1F"/><stop offset=".325" stop-color="#5F5F5F"/><stop offset="1"/></linearGradient><radialGradient gradientUnits="userSpaceOnUse" r="819.2" cx="0" cy="0" spreadMethod="pad" gradientTransform="matrix(.01 0 0 .01 12.45 39.45)" id="z"><stop offset="0" stop-color="#690000"/><stop offset=".325" stop-color="#740000"/><stop offset="1"/></radialGradient><linearGradient gradientUnits="userSpaceOnUse" x1="-819.2" x2="819.2" gradientTransform="matrix(-.002 0 -.002 .013 5.25 16.7)" id="A"><stop offset="0" stop-color="#fff"/><stop offset=".239" stop-color="#888"/><stop offset="1"/></linearGradient><radialGradient gradientUnits="userSpaceOnUse" r="819.2" cx="0" cy="0" spreadMethod="pad" gradientTransform="matrix(.007 0 0 .007 11.75 11.9)" id="B"><stop offset="0" stop-color="#690000"/><stop offset=".325" stop-color="#740000"/><stop offset="1"/></radialGradient><linearGradient gradientUnits="userSpaceOnUse" x1="-819.2" x2="819.2" gradientTransform="matrix(-.003 0 -.001 .017 -.2 15.35)" id="C"><stop offset="0" stop-color="#fff"/><stop offset=".239" stop-color="#888"/><stop offset="1"/></linearGradient><radialGradient gradientUnits="userSpaceOnUse" r="819.2" cx="0" cy="0" spreadMethod="pad" gradientTransform="matrix(.003 0 0 .003 13.95 11.8)" id="D"><stop offset="0" stop-color="#f00"/><stop offset="1"/></radialGradient><radialGradient gradientUnits="userSpaceOnUse" r="819.2" cx="0" cy="0" spreadMethod="pad" gradientTransform="matrix(.002 0 0 .002 12.3 12.75)" id="E"><stop offset="0" stop-color="#690000"/><stop offset=".325" stop-color="#740000"/><stop offset="1"/></radialGradient><radialGradient gradientUnits="userSpaceOnUse" r="819.2" cx="0" cy="0" spreadMethod="pad" gradientTransform="matrix(.003 0 0 .003 13.45 20.75)" id="F"><stop offset="0" stop-color="#fff"/><stop offset="1"/></radialGradient><radialGradient gradientUnits="userSpaceOnUse" r="819.2" cx="0" cy="0" spreadMethod="pad" gradientTransform="matrix(.001 0 0 .001 12.7 22.2)" id="G"><stop offset="0" stop-color="#fff"/><stop offset="1"/></radialGradient><radialGradient gradientUnits="userSpaceOnUse" r="819.2" cx="0" cy="0" spreadMethod="pad" gradientTransform="matrix(.003 0 0 .004 15.15 20.5)" id="H"><stop offset="0" stop-color="#fff"/><stop offset="1"/></radialGradient><radialGradient gradientUnits="userSpaceOnUse" r="819.2" cx="0" cy="0" spreadMethod="pad" gradientTransform="matrix(.007 0 0 .007 14.35 27.55)" id="I"><stop offset="0" stop-color="#690000"/><stop offset=".325" stop-color="#740000"/><stop offset="1"/></radialGradient></defs><path d="M13.6 5l.1-.6.25-.9.45-.9.6-1.15-.35.85q-.35.75-.15 1.35v.1l-.25.5h-.05l-.55.75h-.05M20 3.2l.25.35q.3.35.15.65l-.15.65-.15.2-.2.4-.1-.05-.5 1.75v.8l.05.1v.05l.1.3v.55l-.6.55q-1.05.45-1.8 1.45l-.25.4q-.45 0-.85-.4l-.1-.1-.2-.25.05.3-.45-.45q-.15-.25-.15-.5l-.2-1-.15-.15.1-.1.1-.3-.1-.65L14.3 7l-.3-.6q0-.35.15-.6l.2-.15h.05l.05.3h.2l.9.3.15.35-.35.85v.05l-.3-.3-.1-.2q0-.35-.2-.55l-.3-.5.3.5q.2.2.2.55l.1.2.3.3.05.1.1.35.1.45.15.4 2 .1h.05q.55.05.5-.5v-.2q0-.3.15-.5l-.1-.35.05-.4V6.9l.15-.45q.2-.4.65-.3l.3-.55v-.05l.1-.35.25-.3-.15-.45-.1-.2-.4-.25-.3-.3-.25-.25-.4.3-.45.15-.35.1-.45.1h-1.15l.4.35q.15.35.6.35-.15.3-.6.3l-1.35-.05.55-.65.3-.3h.05l.4-.1.75-.15.75-.45.8-.3.65.2.05.05-.3-.5.65.3.45.05m.4 1l-.15.15V4.3l-.4-.45-.65-.5.65.5.4.45v.05l.15-.15m-4.55-.1h-.05.05m1.1 1.15l-.3.65-.3.65.1-.85.05-.15.15-.1.3-.2m.6.25l.05.05q.25.25.3.85l-.75-1.2.4.3m1.8-.9q.35.4.05.5l-.35.1-1-.1-.7-.35q.5 0 .8-.3l.35-.25.55.1.3.3m.5.3l.2-.05-.25.55.25-.55-.2.05m.4-.55l-.05.2-.15.3.15-.3.05-.2m-5.75-.6l-.3.5.3-.5m4.55 2.6l.1-.1.05-.1-.05.1-.1.1-.2.65v.25h.05l.05-.25q-.05-.25.05-.45l.05-.2M18.3 8.2l.2-.25.05-.05.25-.2.1-.2v-.25.25l-.1.2-.25.2-.05.05-.2.25m.15-.5v-.05l.4-.4-.4.4v.05m-.65 1.2l-.05.05-.2.3-.75.5-.35.15h-.05l-.8-.95-.2-.4-.05-.15q-.05-.45.05-.8-.1.35-.05.8l.05.15.2.4.8.95h.05l.35-.15.75-.5.2-.3.05-.05m-1.75 1.3l.35-.3-.35.3"/><path fill="#fff" d="M18.3 6.95l-.15.65-.3.7v-.85l-.35.95h-.05l-.05-.8-.25.7-.15-.8-.25.7-.2-.8v.85L16.5 8l-.25-.7.05 1.05-.5-1.3.1-.05h1.3l.75-.15.35-.25v.35"/><path fill="url(#a)" d="M29.75 7.9v-.45q.05-.95.55-1.8l.9-1.7.95-1.55h-.05q-.15-.75.4-.75l.75.25q1.05.45.45 1.3v-.1l-2.8 5.6-.1.05.05.1-.2.5-1.8 1.6L27 12.5l-1.35 1.05q-3.9 3.05-7.6 5.05l-1.15.65-.8.55.15-.4.15-.2q.85-.3.35-.9l.2-.15 3.25-2.3.15-.1.65-.45 2.65-2.1.4-.3 1.3-1.1.05-.05.15-.1.8-.7 1.15-1 1.3-1.2.95-.85.25-.15-.25.15.05.4-.05-.4M7 37.55l-.2.2-.4-.15-.4-.35-.15-.45q3.55-9.65 6.8-14.35l.15.25.05.35v.2q-3.3 4.8-5.75 14l-.05.2-.05.1m7-16.75l.15.25v.05l.15.3-.35.4v-.6l.05-.4m-.9 1l.1-.2.35.7-.5.7.05-.8v-.4"/><path fill="url(#b)" d="M30.9 8.7l2.8-5.6v.1l.15 1.85q2.4 12.65-1.85 29.4 1.75-15.9-1.05-25.2l-.05-.55"/><path fill="url(#c)" d="M15 1.45l.25-.45.6-.65q.3-.25.7-.2l.95.05q.55.05.8.35l.5.75.55.7.65 1.2-.45-.05-.65-.3-.2-.3-.4-.8-.25-.5-.25 1.35-.05.05-.3.4-1.05.45q-.6.3-.65-.15L15.8 3l.15-.8-.65 1.35q-.55.4-.9 1.15l-.2-.45h.05l.25-.5v-.1q-.2-.6.15-1.35l.35-.85M17.9 1l.15.25L17.9 1m-1.65.2l-.15.55-.15.45.15-.45.15-.55"/><path fill="url(#d)" d="M25.65 13.55l-.1.75v.05l-.75 2.45q-.6 1.25-1.65 1.05l-.35-.1-.8-.2-.55-.05-1.15.2 1.15-.2.55.05-.2.15-.05.05-.1.1-.3.25q-.55.5-1.25.7l-.35.05h-.4l-1.3-.25q3.7-2 7.6-5.05M13.25 6.5q-.2-.25-.05-.7l.1-.25.2-.3.1-.2.05-.05.55-.75.2.45q.35-.75.9-1.15l.45-.2-.45.2-.35.75.35-.75.65-1.35-.15.8-.05.35q.05.45.65.15l1.05-.45.3-.4.05-.05.25-1.35.25.5.4.8.2.3.3.5-.05-.05-.65-.2-.8.3-.75.45-.75.15-.4.1h-.05l-.3.3-.55.65-.5.55-.05.05-.2.15q-.15.25-.15.6l.3.6.55.75.1.65-.1.3-.1.1.15.15.2 1q0 .25.15.5l.45.45-.05-.3.2.25.1.1q.4.4.85.4l.25-.4q.75-1 1.8-1.45l.6-.55v-.3l.6-.25.15-.2q-.75-.4.15-.75l.35-.35.1-.2.65.95.15.35v.2-.2l.15.2.45.6v.05h.05l1.4.2.1.1h.05l.45.5.1.15.3.55.55 1.05h.05l.1.2-1.3 1.1-.15-.3v.1l-.05.2-.2.3L21 15.3l-.65.45-.15.1-3.25 2.3h-.05l-.7-.35q-.75-.4-1.5-.7l-1.45-.65-.05-.05-.95-.4.95.4-.05.05-.35.15-.55-.6-2-2.15.1-1.25.3-1.1.2-.35.2-.4q0-.9.45-1.6l.4-.5.35-.25.45-.3.7-.1q.7 0 1-.3l-.4-.55-.7-.55-.05-.1m8.3 2.3l.05-.4-.05.4m-1.1 4.6l.65-.3 1.15-1.2q.45-.55.45-1.25l.05-.15-.1.15-.6.6-.45.45-.45.45-.25.55-.45.7h-.05v.1l.05-.1m-.45.25l.4-.15-.4.15m-1.1-2.55l.6.1 1.25.15.4-.05q.7-.1 1-.9l.1-.25-.1-.8v.25l-.35.4-.85.35-.75.2-.8.25-.5.3-.5.25.5-.25m.6 2.3l.3-.7.5-.75.45-.6-.45.6-.5.75-.3.7m3.35-3.55l-.1.65.1-.65m-.7-.5l.05-.3-.05.3m1.45 2.45l.3.8-.3-.8m-3.2 3.85l.2-.15-.2.15-.05.1.05-.1m.2-.15l.4-.2-.4.2m-8.1-5.35l-.2-.7.2.7.15.95v.05l.5.95.3.45 1.35.85h.55l-.6-.6-2.25-2.65M14.4 16l-1.15.45L14.4 16m1.5-2.3l-.5-.3h-.05.05l.5.3m-2.15.3l-.75-.9-.5-.8-.4-.7-.1-.2q-.5 0-.85.4l-.1.2-.1.7.05.25.45.55.8.5.15.1.2-.2h.65l.5.1.55.55.8.55.75.4.95.15.85-.05.7-.4-.7.4-.85.05-.95-.15-.75-.4-.8-.55-.55-.55m-2.05-3.25l.3.65-.3-.65m2.55-.2l.55.65.35.45.8.75.75.55.8.5.7.3.35-.95-1.1-.2-1.35-.7-1.85-1.35-.45-.9.45.9m4.45 1.85l-.15.4.15-.4m-5.05 2.4l-1.25-.7 1.25.7"/><path fill="url(#e)" d="M14.4 5.6l.5-.55 1.35.05q.45 0 .6-.3-.45 0-.6-.35l-.4-.35H17l.45-.1.35-.1.45-.15.4-.3.25.25.3.3.4.25.1.2.15.45-.25.3-.1.35v.05l-.3.55q-.45-.1-.65.3l-.15.45h-.1v-.3l-.35.25-.75.15h-1.3l-.15-.05.05.1.5 1.3-.05-1.05.25.7.05.25V7.4l.2.8.25-.7.15.8.25-.7.05.8h.05l.35-.95v.85l.3-.7.15-.65h.1l-.05.4.1.35q-.15.2-.15.5v.2q.05.55-.5.5h-.05l-2-.1-.15-.4-.1-.45-.1-.35-.05-.15.35-.85-.15-.35-.9-.3h-.2l-.05-.3V5.6m3.15-.1l-.4-.3.75 1.2q-.05-.6-.3-.85l-.05-.05m-.6-.25l-.3.2-.15.1-.05.15-.1.85.3-.65.3-.65m2.4-.65l-.3-.3-.55-.1-.35.25q-.3.3-.8.3l.7.35 1 .1.35-.1q.3-.1-.05-.5"/><path fill="url(#f)" d="M20.25 4.85l.55.6-.15.15q-.25.35-.05.7l.1.25.1.35-.1.2-.35.35q-.9.35-.15.75l-.15.2-.6.25V8.4l-.1-.3v-.05l-.05-.1v-.8l.5-1.75.1.05.2-.4.15-.2M19.9 7.2l-.1-.35-.05-.8.1-.5.05-.1-.05.1-.1.5.05.8.1.35m-.85-.85l-.05.2q-.1.2-.05.45l-.05.25h-.05V7l.2-.65"/><path fill="url(#g)" d="M20.8 5.45l.1.1.55.7.1.35q.45.2.3.7v.05l-.15.55-.25-.05-.65-.95-.1-.35-.1-.25q-.2-.35.05-.7l.15-.15"/><path fill="url(#h)" d="M25.55 11.65l.8-.95v-.3q.1-.75.45-1.4l1.25-2.5v-.05q-.05-.55.25-.55.2 0 .4.15.55.3.15.95v-.05l-1.35 3-1.15 1-.8.7m.8-.95v.25-.25M14 25.7v1.05l-.1 1.15-2.4 5.9v.1l-.15.15-.2-.1-.2-.25-.05-.3q1.65-4.55 3.1-7.7"/><path fill="url(#i)" d="M28.85 10.95q-.1 8.5-3.15 19.55 1.95-11.25 1.3-18l1.85-1.55m0-3.95l-.05 1.75-1.3 1.2 1.35-3V7"/><path fill="url(#j)" d="M21.85 7.35q.15.45.55.7l.75.55.75.6.5.55.1.15.45.8.45 1.05-.05.05-.1-.2h-.05l-.55-1.05-.3-.55-.1-.15-.45-.5h-.05l-.1-.1-1.4-.2L22.2 9l-.45-.6-.15-.2.1-.3.15-.55m.5 1.35l-.15.3.15-.3"/><path fill="url(#k)" d="M24.05 12.9l-.4.3.2-.3.05-.2v-.1l.15.3"/><path fill="url(#l)" d="M22.15 9.35l.1.8-.1.25q-.3.8-1 .9l-.4.05-1.25-.15-.6-.1.5-.3.8-.25.75-.2.85-.35.35-.4v-.25"/><path fill="url(#m)" d="M18.55 12.8l-.35.95-.7-.3-.8-.5-.75-.55-.8-.75-.35-.45-.55-.65 1.85 1.35 1.35.7 1.1.2"/><path fill="url(#n)" d="M22.75 10.5l-.05.15q0 .7-.45 1.25l-1.15 1.2-.65.3.45-.7.25-.55.45-.45.45-.45.6-.6.1-.15"/><path fill="url(#o)" d="M23.15 17.85l-.75 1.75-1.4-.2-1.5-.05.25-.5.35-.05q.7-.2 1.25-.7l.3-.25.1-.1.05-.05.2-.15.8.2.35.1"/><path fill="url(#p)" d="M12.15 18.75q-.3-.5-.35-1.1l.65.7-.3.4m4.8-.6l-.2.15-.2-.15Q16.35 18 16 18l-1-.05-.3-.3-.4-.1-.45.1-1.05-1.05.35-.15h.1l1.45.65q.75.3 1.5.7l.7.35h.05m-.05 1.1l1.15-.65 1.3.25h.4l-.25.5-.1.1-.35.15-.25.05-1.45-.2-.45-.2"/><path fill="url(#q)" d="M22.4 19.6l-.5 1.35-.35 1.7-.25 2.7-.2.1q-.45-.8-.5-1.8l-.1-3.2-.35.55-.6 1.25-.2-.1-.3-1.1-.05-.7.1-.45v-.1l-.05-.2.35-.15.1-.1 1.5.05 1.4.2"/><path fill="url(#r)" d="M12.65 19.45L12.3 19l-.15-.25.3-.4.7.65q-.3.15-.5.45m3.45.35l.8-.55.45.2 1.45.2.25-.05.05.2v.1l-.1.45.05.7.3 1.1.1.25-.35 1-.3 1.3-1.4-2.75-.05-.25v-.05h-.05l-.4-1.2v.1l-.05.45-.85-1.15.1-.05M15 17.95l-.15.05-.25.4-.75-.75.45-.1.4.1.3.3m-.7 3.45l.05.3q.2.85.7 1.5l-.15-2.05.5.5.5.7-.1-.25.45.7-.2.7-.1-.4v.9l-.05.15-.75 2.05-1.1-3.45-.1-.95.35-.4m1.65 1.7l-.55-1.45.55 1.45"/><path fill="url(#s)" d="M21.3 25.75l-.1 1.4-.05.85.15 1.7.2 1q.3 1.15.9 2.25l.2.4 1.1 1.85.05.05-.2.2-.25.1q-.35.15-.6.35l-.3-1Q21 30 19.6 26.55l.2-2.45-.05-.7-.25-.9-.05-.1.1-.15.6-1.25.35-.55.1 3.2q.05 1 .5 1.8l.2.3m1.85 9.3l-.75-.15.75.15m-2.7-2.5l1.25 3.85-1.15-1.2h-.05l-.15-.7-.4-1.85.5-.1"/><path fill="url(#t)" d="M25.4 36.2l.75.45h.05q3.7 1.2 6-1.3-.35.9-1.2 1.5-3 2-6.25.85 2.2 2.1 5.15 1.7l-.3.5-1 .3-6.4-.85-2.45-.6v-.1q.25-.4.15-.9l2.45.9.05.35.05.1.15.2.35-.05.3-.3.15-.45-.2-.85q.25-.2.75-.3 1.3-.3 1.45-1.15"/><path fill="url(#u)" d="M19.45 22.4l.05.1.25.9.05.7-.2 2.45-.8-1.85.3-1.3.35-1m-3.2.4q1.7 2.8 3.4 7.45l.3 2.4.4 1.85.15.7-.85-1.1q-1.3.1-1.05-.9l-.4.45-1.2-.1.05-.65.05-1.25V30.5l-.05-2.65Q17 26.5 16.6 25.2l-.35-1.2-.15-.45v-.05h-.05l.2-.7m.6-1.8l.05-.45v-.1l.4 1.2h.05v.05l.05.25-.55-.95"/><path fill="url(#v)" d="M23.75 35.25l.25.35-.35.05-.1-.2.2-.2m-4.2-13l-.1.15-.1-.25.2.1M13.6 32.9l.1-.1.2-.4-.05.5-.05.1-.2-.1m1.5-2.1v-.05l.55-1.25.2-1.2.1-2.75V23.1l.1.4h.05v.05l.15.45.35 1.2q.4 1.3.45 2.65l.05 2.65v1.15l-.75-.65-1.25-.2m4.55-.55l.45 1.25v.05l.35 1-.5.1-.3-2.4"/><path fill="url(#w)" d="M19.65 30.25q-1.7-4.65-3.4-7.45l-.45-.7-.25-1.65q0-.3.35-.55l.1-.05.85 1.15.55.95 1.4 2.75.8 1.85Q21 30 22.4 34.9l.3 1 .5 1.75.2.85-.15.45-.3.3-.35.05-.15-.2-.05-.1-.05-.35-.65-2.25-1.25-3.85-.35-1v-.05l-.45-1.25m-7.85-12.6l-.5-.55-2.15-2.35-1.4-1.6-1.6-1.95L3.5 7.9l-.1-.5v-.1l-.05-.05L1.2 1.3l-.05.1Q.7.45 1.55.15L2.2 0q.45.05.3.8l.7 1.7.75 1.75q.35.95.35 1.9v.45l2.25 2.8 1.75 2.15 1.05 1.2.9 1.1 2 2.15.55.6 1.05 1.05.75.75v.1l-.05-.1-1.25.55-.15.05-.7-.65-.65-.7M4.25 7l.05-.4-.05.4"/><path fill="url(#x)" d="M21.2 27.15l1.4 6.15v.05l-.2-.4q-.6-1.1-.9-2.25l-.2-1-.15-1.7.05-.85m-13.9-21q-.35-.65.4-.95l.5-.1q.35 0 .2.55l-.05.05.5 1.2.45 1.3.2 1.45-.05.3.75 1-.65 1.1-.85-1.1-.05-.35.05-.1h-.05L7.3 6.1v.05m2.05 4.1l.1-.3-.1.3"/><path fill="url(#y)" d="M24 35.6q.8-.1 1.25.45l.15.15q-.15.85-1.45 1.15-.5.1-.75.3l-.5-1.75q.25-.2.6-.35l.25-.1.1.2.35-.05m-4.3 3.15l-.6-.15v.05q-1.35-.55-1.65-2.2L16 37.8l-.05.05-1.1.8.95-1.9-.55.55-1.15.55-1.7.3h-.2q-.75-.1-.55-1.05l-1.3.75-.15-.75.1-.1.2-.3.05-.1 1.05-1.95.15-.25.95-2.25h.05l.1 1.3.75-.55.2.1.05-.1 1.25-2.1 1.25.2.75.65-.05 1.25-.05.65-.5.8.5-.8 1.2.1.4-.45q-.25 1 1.05.9l.85 1.1h.05l1.15 1.2.65 2.25-2.45-.9q.1.5-.15.9l-.05.1m-6.15-1.9q-.7-.3-.7-1-.05-.25.05-.55l.05-.3.85-2-.85 2-.05.3q-.1.3-.05.55 0 .7.7 1"/><path fill="url(#z)" d="M19.15 38.7l.15 1.15.5 2.65-2.95-3.75-.05 2.3q0-1.65-.8-3.15l-.5.6q-.7 1.15-2.1 1.7-1.85.75-3.1 1.8 1.25-1.45 1.8-3.4l.1-.3-.8.25q-1.85.6-2.65 2.1Q7.1 39.5 5.1 40.4q.85-1.25 2.5-1.7L7 37.55l.05-.1.05-.2.4.3.85.25 1.1-.3.65-.5.1.1.15.75 1.3-.75q-.2.95.55 1.05h.2l1.7-.3 1.15-.55.55-.55-.95 1.9 1.1-.8.05-.05 1.45-1.35q.3 1.65 1.65 2.2l.05.05m-9.5-1l.55-.6-.55.6"/><path fill="url(#A)" d="M7.75 13.15Q5.8 19.6 5.6 29.75 4.55 19.3 6.15 11.2l1.6 1.95M6.55 9.4l.75-3.25V6.1l1.35 4.4-.1.4-.25.65L6.55 9.4"/><path fill="url(#B)" d="M11.3 17.1l-.4.1v.05l-.05.05-.05.05-.15-.1-.95-.75q-.7-.75-.55-1.75l2.15 2.35m-1.1-6.15v-.05l.15-.85q-.1-.55.1-.9l.05-.3.5-.45.9-.55.05-.05.85-.5q.4-.25.45-.8l.05.1.7.55.4.55q-.3.3-1 .3l-.7.1-.45.3-.35.25-.4.5q-.45.7-.45 1.6l-.2.4-.2.35-.3 1.1-.1 1.25-.9-1.1.05-.25.15-.45.65-1.1"/><path fill="url(#C)" d="M3.3 7.75h-.05q-2.55 8.95-1.5 25Q-1.35 15.45 1 3.2l.15-1.8.05-.1 2.15 5.95-.05.5"/><path fill="url(#D)" d="M12.5 10.15l2.25 2.65.6.6h-.55l-1.35-.85-.3-.45-.5-.95v-.05l-.15-.95"/><path fill="url(#E)" d="M12.4 14.1l-.15-.1-.8-.5-.45-.55-.05-.25.1-.7.1-.2q.35-.4.85-.4l.1.2.4.7.5.8.75.9-.5-.1h-.65l-.2.2"/><path fill="url(#F)" d="M12.75 21q-.55-.65-.25-1.3l.15-.25q.2-.3.5-.45l.15-.05 1.25-.55.05.1q-.3.8-.9 1.1h-.05q-.4.15-.1.65l.1.15.3.35.05.05-.05.4v.6l.1.95v.6l-.45-1-.05-.05-.35-.7v-.05l-.3-.4-.15-.15"/><path fill="url(#G)" d="M12.75 21l.15.15.3.4-.1.25v.4l-.05.8-.2.4v-.35l-.05-.35-.15-.25-.25-.35q-.5-.65.3-1l.05-.1"/><path fill="url(#H)" d="M16.75 18.3q.5.6-.35.9l-.15.2-.15.4-.1.05-.1.05q-.35.25-.35.55l.25 1.65.1.25-.5-.7-.5-.5.15 2.05q-.5-.65-.7-1.5l-.05-.3-.15-.3v-.05L14 20.8l-.05-.05-.3-.35-.1-.15q-.3-.5.1-.65h.05q.6-.3.9-1.1v-.1l.25-.4.15-.05 1 .05q.35 0 .55.15l.2.15m-2.2 1.75q-.05.55.2.9l.15.2-.15-.2q-.25-.35-.2-.9"/><path fill="url(#I)" d="M13.6 22.35l.45 1v-.6l1.1 3.45.75-2.05.05-.15v1.55l-.1 2.75-.2 1.2-.55 1.25v.05l-1.25 2.1.05-.5-.2.4-.1.1-.75.55-.1-1.3v-.2l1-3.2.15-.85.1-1.15V25.7l-.15-1-.25-2.35"/><path fill="none" stroke="#000" stroke-width=".05" stroke-linecap="round" stroke-miterlimit="3" d="M25.65 13.55l-.1.75v.05l-.75 2.45q-.6 1.25-1.65 1.05m-1.85 7.5v.4l-.1 1.4 1.4 6.15v.05l1.1 1.85.05.05.25.35q.8-.1 1.25.45l.15.15m-5.65 2.55h-.05m-.6-.15l.05.1m-6.5-19.25L12.3 19l-.15-.25q-.3-.5-.35-1.1m-.5-.55l-.4.1m-.05.1l-.05.05M13.25 6.5q-.2-.25-.05-.7l.1-.25.2-.3.1-.2V5l.1-.6.25-.9.45-.9.6-1.15m5 1.75l.25.35q.3.35.15.65l-.15.65m1.6 2.5q.15.45.55.7m3.15 3.6l.8-.95M19.2 3.35l.65.5.4.45v.05l.15-.15m-5.65 4.6l.1-.1.1-.3-.1-.65L14.3 7l-.3-.6q0-.35.15-.6l.2-.15.05-.05.5-.55.55-.65.3-.3h.05l.4-.1.75-.15.75-.45.8-.3.65.2.05.05-.3-.5m-3.6.7l-.35.75m6.65 3.9v.2m0-.2l.1-.3m.5 1.1v.05m-1.75 4.35l-.05.1m3.5-.9v.1l-.05.2-.2.3m-3.25 2.45l-.05.1m.65-.45l-.4.2M14.2 4.25l-.55.75-.05.05m5.6 1.1l.3-.55v-.05l.1-.35.25-.3-.15-.45-.1-.2-.4-.25-.3-.3-.25-.25-.4.3-.45.15-.35.1-.45.1h-1.15l.4.35q.15.35.6.35-.15.3-.6.3l-1.35-.05m.9-.95h.05m1.7 1.4l-.4-.3.75 1.2q-.05-.6-.3-.85l-.05-.05m-.6-.25l-.3.2-.15.1-.05.15-.1.85.3-.65.3-.65m2.4-.65q.35.4.05.5l-.35.1-1-.1-.7-.35q.5 0 .8-.3l.35-.25.55.1.3.3m.45.8l.25-.55-.2.05m.2-.05l.15-.3.05-.2m-5.85 1.3l.05.3.3.5q.2.2.2.55l.1.2.3.3m.05.1l.1.35.1.45.15.4 2 .1h.05q.55.05.5-.5v-.2q0-.3.15-.5m-2.65-.65l-.05-.1.15.05m3.3-.85l-.05.1-.1.1-.05.2q-.1.2-.05.45l-.05.25v.25l-.1.2-.25.2-.05.05-.2.25m-3.9-2.55V5.6m-1.2 10.8l.05.05m2.1-3.05h.05l.5.3m2.95-6.45l-.4.4v.05m.4-.45V7l.2-.65M15.4 7.6q-.1.35-.05.8l.05.15.2.4.8.95h.05l.35-.15.75-.5.2-.3.05-.05m-2.4-1.3l-.05-.1m1.05 2.4l-.35.3m2.5 2.6l.15-.4m-8.05 4.85l.15.1m2.3 4.45l.1-.2m-.15 1.4l.5-.7m.4-.5l.35-.4m5.15 1l-.1-.25m-3.4.95l.1.4m-.1.5v-.9m-3.2 8.85l-.05.2m-2.2 4.55l-.35.2-.05.1m11.1-9.85l-.05.85.15 1.7.2 1q.3 1.15.9 2.25l.2.4m1.05 2.3l.35-.05"/><path fill="none" stroke="#606" stroke-width=".05" stroke-linecap="round" stroke-miterlimit="3" d="M10.9 17.25l-.05.05m-.05.05l-.2.25q-.05-.15.05-.35m5.1-13.9l-.45.2m-1.1.7l.3-.5"/><path fill="none" stroke="#757575" stroke-width=".05" stroke-linecap="round" stroke-miterlimit="3" d="M33.7 3.2l.15 1.85q2.4 12.65-1.85 29.4m-3.15-23.5q-.1 8.5-3.15 19.55m-20.1-.75Q4.55 19.3 6.15 11.2M3.3 7.75h-.05m-1.5 25Q-1.35 15.45 1 3.2l.15-1.8m5.4 8l.75-3.25M28.85 7l-.05 1.75"/><path fill="none" stroke="#ccc" stroke-width=".05" stroke-linecap="round" stroke-miterlimit="3" d="M32 34.45q1.75-15.9-1.05-25.2M25.7 30.5q1.95-11.25 1.3-18m-19.25.65Q5.8 19.6 5.6 29.75m-2.35-22q-2.55 8.95-1.5 25m6.55-21.2l.25-.65"/><path fill="none" stroke="#666" stroke-width=".05" stroke-linecap="round" stroke-miterlimit="3" d="M12.65 22.45l-.25-.35q-.5-.65.3-1m.05-.1q-.55-.65-.25-1.3l.15-.25q.2-.3.5-.45M18.3 6.95l-.15.65-.3.7v-.85l-.35.95h-.05l-.05-.8-.25.7-.15-.8-.25.7-.2-.8v.85L16.5 8l-.25-.7.05 1.05-.5-1.3m.1-.05h1.3l.75-.15.35-.25v.35m-3.3 11l-.15.05-.25.4m0 .1q-.3.8-.9 1.1h-.05q-.4.15-.1.65l.1.15.3.35.05.05.15.25v.05l.15.3.05.3q.2.85.7 1.5l-.15-2.05-.15-.2q-.25-.35-.2-.9m-1.35 1.5l-.3-.4-.15-.15m.45.6v-.05l-.1.25v.4l-.05.8m.15-1.4l.35.7.05.05m.45.4l-.1-.95v-.6l.05-.4m-1.15 2.45v.15l.2-.4m3.05-3.2l-.1.05m-.2 2.25l.1.25-.5-.7-.5-.5"/><path fill="none" stroke="#570000" stroke-width=".05" stroke-linecap="round" stroke-miterlimit="3" d="M23.15 17.85l-.75 1.75-.5 1.35-.35 1.7-.25 2.7m4.1 10.85l.75.45h.05q3.7 1.2 6-1.3-.35.9-1.2 1.5-3 2-6.25.85 2.2 2.1 5.15 1.7l-.3.5-1 .3-6.4-.85-2.45-.6m-.6-.05l.15 1.15.5 2.65-2.95-3.75-.05 2.3q0-1.65-.8-3.15l-.5.6q-.7 1.15-2.1 1.7-1.85.75-3.1 1.8 1.25-1.45 1.8-3.4l.1-.3-.8.25q-1.85.6-2.65 2.1Q7.1 39.5 5.1 40.4q.85-1.25 2.5-1.7L7 37.55m3.65-20.3l-.95-.75q-.7-.75-.55-1.75m1.05-3.8v-.05l.15-.85q-.1-.55.1-.9l.05-.3.5-.45.9-.55.05-.05.85-.5q.4-.25.45-.8M15 1.45l.25-.45.6-.65q.3-.25.7-.2l.95.05q.55.05.8.35l.5.75.55.7.65 1.2m.25 1.65l.55.6.1.1.55.7.1.35q.45.2.3.7v.05m.55.7l.75.55.75.6.5.55.1.15.45.8.45 1.05M21.7 7.9l.15-.55m-2.95-4.5l-.2-.3-.4-.8-.25-.5L17.9 1m4.85 9.5l-.1.15-.6.6-.45.45-.45.45-.25.55-.45.7m1.7-4.05v.25l-.35.4-.85.35-.75.2-.8.25-.5.3m2.75 6.75l-.3.25q-.55.5-1.25.7l-.35.05h-.4l-1.3-.25m3.75-.9l-.05.05m1.4.1l-.35-.1-.8-.2m-2.55 4.85l.05.1.25.9.05.7-.2 2.45M15.95 2.2l-.65 1.35m.65-1.35l.15-.45.15-.55m3.65 4.25l-.05.1-.1.5.05.8.1.35m-.1-1.8l-.5 1.75v.8l.05.1m.9-3.2l-.15.2-.2.4m-5.4-1.8v.1l-.25.5h-.05m.2 3.45l-.4-.55-.7-.55-.05-.1m-.75 3.65l2.25 2.65.6.6m-1.6.6l-.75-.9-.5-.8-.4-.7-.1-.2q-.5 0-.85.4l-.1.2-.1.7.05.25.45.55.8.5.15.1m1.85-3.55l.55.65.35.45.8.75.75.55.8.5.7.3.35-.95m-9.2-.05l.05-.25.15-.45m7.2 6.25l-.2-.15Q16.35 18 16 18l-1-.05m-1.75-1.5l1.45.65q.75.3 1.5.7l.7.35h.05m-3.8-1.7h.1m-.45.15l.35-.15m.45 5.9l.45 1v-.6m-.45-.4l.25 2.35.15 1m-.1 2.2l-.15.85-1 3.2m2.35-1.15v-.05l.55-1.25.2-1.2.1-2.75V24m3.4-1.85l-.3-1.1-.05-.7.1-.45v-.1m-2 11.85V30.5l-.05-2.65Q17 26.5 16.6 25.2l-.35-1.2-.15-.45v-.05h-.05m3.6 6.75l.3 2.4.4 1.85.15.7M10.1 37l-.65.5-1.1.3-.85-.25-.4-.3m3.1-.15l-.55.6M21.75 17.75l-.1.1M15.3 3.55q-.55.4-.9 1.15l-.2-.45m-1.8 9.85l.2-.2"/><path fill="none" stroke="#592300" stroke-width=".05" stroke-linecap="round" stroke-miterlimit="3" d="M32.15 2.4l-.95 1.55-.9 1.7q-.5.85-.55 1.8v.45l.25-.15m3.7-4.55q.6-.85-.45-1.3l-.75-.25q-.55 0-.4.75m-1.2 6.3l2.8-5.6v.1m-3.05 6.15l-1.8 1.6L27 12.5l-1.35 1.05M7 37.55l-.2.2-.4-.15-.4-.35-.15-.45q3.55-9.65 6.8-14.35m-.85-4.8l-.5-.55m-2.15-2.35l-1.4-1.6m-1.6-1.95L3.5 7.9M1.15 1.4Q.7.45 1.55.15L2.2 0q.45.05.3.8l.7 1.7.75 1.75q.35.95.35 1.9v.45l2.25 2.8 1.75 2.15 1.05 1.2M7.3 6.15q-.35-.65.4-.95l.5-.1q.35 0 .2.55m-.05.05l.5 1.2.45 1.3.2 1.45-.05.3.75 1m15.2.8l.15-.1m.8-.95v-.3q.1-.75.45-1.4l1.25-2.5m0-.05q-.05-.55.25-.55.2 0 .4.15.55.3.15.95v-.05l-1.35 3 1.3-1.2.95-.85.05.4m1 .45l.05.1m-3.35 1.1l-1.15 1-.8.7m-.15.1l-.05.05-1.3 1.1-.4.3L21 15.3l-.65.45-.15.1-3.25 2.3-.2.15q.5.6-.35.9l-.15.2-.15.4.8-.55 1.15-.65q3.7-2 7.6-5.05m.7-2.6v-.25M19.6 26.55Q21 30 22.4 34.9M10.25 13.85l2 2.15m-3.6-5.5L7.3 6.1v.05m-3.95 1.1L1.2 1.3l-.05.1M4.3 6.6l-.05.4m-.85.3v.1m6.05 2.55l-.1.3m-.65.25l-.05.1m.05.35l.85 1.1.65-1.1m4.4 7.45v.1m-2.15-.15l-.65-.7m2.05 0l.75.75m-.75-.75L12.8 16.6l-.55-.6m.9 3l.15-.05 1.25-.55m-1.7 4.85v-.2l-.05-.35-.15-.25M14 25.7v1.05l-.1 1.15m-.75-8.9l-.7-.65m3.55 1.5l-.1.05q-.35.25-.35.55l.25 1.65.45.7q1.7 2.8 3.4 7.45l.45 1.25v.05l.35 1 1.25 3.85m.65 2.25l.05.35.05.1.15.2.35-.05.3-.3.15-.45-.2-.85-.5-1.75-.3-1M16 19.85l.85 1.15.55.95 1.4 2.75.8 1.85m-9.35-12.7l-.9-1.1m-.2 2l2.15 2.35m-5.15-5.9l1.6 1.95M14 25.7q-1.45 3.15-3.1 7.7l.05.3.2.25.2.1.15-.15v-.1l2.4-5.9m-6.8 9.35l-.05.2-.05.1m.1-.3q2.45-9.2 5.75-14"/><path fill="none" stroke="#333" stroke-width=".05" stroke-linecap="round" stroke-miterlimit="3" d="M21.6 8.4l-.05.4m.65.2l.15-.3m-1.95 4.8l-.4.15m-1.1-2.55l-.5.25m2.35 0l-.45.6-.5.75-.3.7m2.7-4.35l-.05.3m.6 1.15l.1-.65m1.05 2.75l-.3-.8M22 17.55l-.55-.05-1.15.2m.3-2.2l-.2.15m-8.15.35l.95.4m.05.05L14.4 16m-2.1-6.55l.2.7M13.75 14l.55.55.8.55.75.4.95.15.85-.05.7-.4M12 11.4l-.3-.65m2.55-.2l-.45-.9m-1.4 4.45l1.25.7"/><path fill="none" stroke="#999" stroke-width=".05" stroke-linecap="round" stroke-miterlimit="3" d="M30.95 9.25l-.1-.4M3.4 7.4l-.1.35m5.25 3.15l.1-.3"/><path fill="none" stroke="#161616" stroke-width=".05" stroke-linecap="round" stroke-miterlimit="3" d="M19.7 38.75l-.6-.15m3.3-3.7l.75.15m-9.3-2.15l1.25-2.1m6.6 5.6l.65 2.25m-6.95-17l.55 1.45M13.8 33l.05-.1m-.05.1l-.85 2-.05.3q-.1.3-.05.55 0 .7.7 1m-3.35.25l.1-.1.2-.3.05-.1 1.05-1.95.15-.25.95-2.25m4.3 1.4l.05-.65.05-1.25m-.1 1.9l-.5.8m4 .85h.05"/></svg>