<svg xmlns="http://www.w3.org/2000/svg" viewBox="-0.1 0 42.0 56.2" width="42" height="56.2"><defs><radialGradient gradientUnits="userSpaceOnUse" r="819.2" cx="0" cy="0" spreadMethod="pad" gradientTransform="matrix(-.004 0 0 .004 15.1 6.85)" id="a"><stop offset="0" stop-color="#930"/><stop offset=".78" stop-color="#660"/><stop offset=".98"/></radialGradient><linearGradient gradientUnits="userSpaceOnUse" x1="-819.2" x2="819.2" gradientTransform="matrix(-.004 0 0 .003 22.35 5.45)" id="b"><stop offset="0" stop-color="#900"/><stop offset=".341" stop-color="#ff0"/><stop offset=".78" stop-color="#f30"/><stop offset=".98" stop-color="#f00"/></linearGradient><radialGradient gradientUnits="userSpaceOnUse" r="819.2" cx="0" cy="0" spreadMethod="pad" gradientTransform="matrix(-.007 0 0 .007 11.85 10.15)" id="c"><stop offset="0" stop-color="#930"/><stop offset=".78" stop-color="#660"/><stop offset=".98"/></radialGradient><radialGradient gradientUnits="userSpaceOnUse" r="819.2" cx="0" cy="0" spreadMethod="pad" gradientTransform="matrix(-.016 0 0 .016 6.35 21.5)" id="d"><stop offset=".098" stop-color="#006"/><stop offset=".98" stop-color="#003"/></radialGradient><radialGradient gradientUnits="userSpaceOnUse" r="819.2" cx="0" cy="0" spreadMethod="pad" gradientTransform="matrix(-.02 0 0 .02 10.55 28.05)" id="e"><stop offset="0" stop-color="#003"/><stop offset=".498" stop-color="#06c"/><stop offset=".937" stop-color="#039"/></radialGradient><radialGradient gradientUnits="userSpaceOnUse" r="819.2" cx="0" cy="0" spreadMethod="pad" gradientTransform="matrix(-.018 0 0 .018 10.7 24.3)" id="f"><stop offset=".098" stop-color="#006"/><stop offset=".98" stop-color="#003"/></radialGradient><radialGradient gradientUnits="userSpaceOnUse" r="819.2" cx="0" cy="0" spreadMethod="pad" gradientTransform="matrix(-.018 0 0 .018 15.85 7.05)" id="g"><stop offset=".239" stop-color="#f90"/><stop offset=".51" stop-color="#630"/><stop offset=".773" stop-color="#C77400"/></radialGradient><radialGradient gradientUnits="userSpaceOnUse" r="819.2" cx="0" cy="0" spreadMethod="pad" gradientTransform="matrix(-.006 0 0 .006 17.65 12.55)" id="h"><stop offset=".016" stop-color="#cc3"/><stop offset=".51" stop-color="#9f0"/><stop offset=".98"/></radialGradient><linearGradient gradientUnits="userSpaceOnUse" x1="-819.2" x2="819.2" gradientTransform="matrix(-.004 0 0 .005 21.6 10.2)" id="i"><stop offset="0" stop-color="#3B3B3B"/><stop offset=".439" stop-color="#fff"/><stop offset="1"/></linearGradient><radialGradient gradientUnits="userSpaceOnUse" r="819.2" cx="0" cy="0" spreadMethod="pad" gradientTransform="matrix(-.006 0 0 .006 22.8 13.45)" id="j"><stop offset=".016" stop-color="#cc3"/><stop offset=".51" stop-color="#9f0"/><stop offset=".98"/></radialGradient><radialGradient gradientUnits="userSpaceOnUse" r="819.2" cx="0" cy="0" spreadMethod="pad" gradientTransform="matrix(-.017 0 0 .017 14.8 22.25)" id="k"><stop offset=".157" stop-color="#330"/><stop offset=".561" stop-color="#390"/><stop offset=".878" stop-color="#330"/></radialGradient><radialGradient gradientUnits="userSpaceOnUse" r="819.2" cx="0" cy="0" spreadMethod="pad" gradientTransform="matrix(-.017 0 0 .017 14.8 22.25)" id="l"><stop offset="0" stop-color="#390"/><stop offset=".878" stop-color="#330"/></radialGradient><radialGradient gradientUnits="userSpaceOnUse" r="819.2" cx="0" cy="0" spreadMethod="pad" gradientTransform="matrix(-.291 0 0 .291 50.3 -1.3)" id="m"><stop offset=".098" stop-color="#006"/><stop offset=".98" stop-color="#003"/></radialGradient><radialGradient gradientUnits="userSpaceOnUse" r="819.2" cx="0" cy="0" spreadMethod="pad" gradientTransform="matrix(-.008 0 0 .008 20.55 29.65)" id="n"><stop offset="0" stop-color="#900"/><stop offset=".051" stop-color="#900"/><stop offset=".204" stop-color="#900"/><stop offset=".98" stop-color="#330"/></radialGradient><radialGradient gradientUnits="userSpaceOnUse" r="819.2" cx="0" cy="0" spreadMethod="pad" gradientTransform="matrix(-.012 0 0 .012 24.45 31.9)" id="o"><stop offset="0" stop-color="#900"/><stop offset=".78" stop-color="#f30"/><stop offset=".98" stop-color="#030"/></radialGradient><radialGradient gradientUnits="userSpaceOnUse" r="819.2" cx="0" cy="0" spreadMethod="pad" gradientTransform="matrix(-.006 0 0 .006 14.1 28.5)" id="p"><stop offset=".098" stop-color="#006"/><stop offset=".98" stop-color="#003"/></radialGradient><radialGradient gradientUnits="userSpaceOnUse" r="819.2" cx="0" cy="0" spreadMethod="pad" gradientTransform="matrix(-.009 0 0 .009 10.05 28.35)" id="q"><stop offset=".098" stop-color="#006"/><stop offset=".98" stop-color="#003"/></radialGradient><radialGradient gradientUnits="userSpaceOnUse" r="819.2" cx="0" cy="0" spreadMethod="pad" gradientTransform="matrix(-.007 0 0 .007 14.5 32.95)" id="r"><stop offset="0" stop-color="#900"/><stop offset=".051" stop-color="#900"/><stop offset=".204" stop-color="#900"/><stop offset=".98" stop-color="#330"/></radialGradient><radialGradient gradientUnits="userSpaceOnUse" r="819.2" cx="0" cy="0" spreadMethod="pad" gradientTransform="matrix(-.012 0 0 .012 28.15 14.3)" id="s"><stop offset="0" stop-color="#930"/><stop offset=".78" stop-color="#660"/><stop offset=".98"/></radialGradient><radialGradient gradientUnits="userSpaceOnUse" r="819.2" cx="0" cy="0" spreadMethod="pad" gradientTransform="matrix(-.014 0 0 .014 27.9 15.6)" id="t"><stop offset=".098" stop-color="#006"/><stop offset=".98" stop-color="#003"/></radialGradient><radialGradient gradientUnits="userSpaceOnUse" r="819.2" cx="0" cy="0" spreadMethod="pad" gradientTransform="matrix(-.025 0 0 .025 30.75 18)" id="u"><stop offset="0" stop-color="#003"/><stop offset=".498" stop-color="#06c"/><stop offset=".937" stop-color="#039"/></radialGradient><radialGradient gradientUnits="userSpaceOnUse" r="819.2" cx="0" cy="0" spreadMethod="pad" gradientTransform="matrix(-.004 0 0 .004 30.15 16.7)" id="v"><stop offset=".098" stop-color="#006"/><stop offset=".98" stop-color="#003"/></radialGradient><radialGradient gradientUnits="userSpaceOnUse" r="819.2" cx="0" cy="0" spreadMethod="pad" gradientTransform="matrix(-.007 0 0 .007 33.3 23.25)" id="w"><stop offset=".098" stop-color="#006"/><stop offset=".98" stop-color="#003"/></radialGradient><radialGradient gradientUnits="userSpaceOnUse" r="819.2" cx="0" cy="0" spreadMethod="pad" gradientTransform="matrix(-.004 0 0 .004 40.1 26.4)" id="x"><stop offset=".098" stop-color="#006"/><stop offset=".98" stop-color="#003"/></radialGradient><radialGradient gradientUnits="userSpaceOnUse" r="819.2" cx="0" cy="0" spreadMethod="pad" gradientTransform="matrix(-.005 0 0 .005 38.65 30.85)" id="y"><stop offset=".098" stop-color="#006"/><stop offset=".98" stop-color="#003"/></radialGradient><radialGradient gradientUnits="userSpaceOnUse" r="819.2" cx="0" cy="0" spreadMethod="pad" gradientTransform="matrix(-.006 0 0 .006 27.85 22.65)" id="z"><stop offset="0" stop-color="#630"/><stop offset=".922" stop-color="#f90"/></radialGradient><radialGradient gradientUnits="userSpaceOnUse" r="819.2" cx="0" cy="0" spreadMethod="pad" gradientTransform="matrix(-.006 0 0 .006 28.8 37.6)" id="A"><stop offset=".239" stop-color="#f90"/><stop offset=".51"/><stop offset=".773" stop-color="#C77400"/></radialGradient><radialGradient gradientUnits="userSpaceOnUse" r="819.2" cx="0" cy="0" spreadMethod="pad" gradientTransform="matrix(-.006 0 0 .006 29.35 34.6)" id="B"><stop offset="0" stop-color="#900"/><stop offset=".051" stop-color="#900"/><stop offset=".204" stop-color="#900"/><stop offset=".98" stop-color="#330"/></radialGradient><radialGradient gradientUnits="userSpaceOnUse" r="819.2" cx="0" cy="0" spreadMethod="pad" gradientTransform="matrix(-.006 0 0 .006 28.25 38.5)" id="C"><stop offset=".239" stop-color="#f90"/><stop offset=".51"/><stop offset=".773" stop-color="#C77400"/></radialGradient><radialGradient gradientUnits="userSpaceOnUse" r="819.2" cx="0" cy="0" spreadMethod="pad" gradientTransform="matrix(-.008 0 0 .008 26 42.95)" id="D"><stop offset="0" stop-color="#900"/><stop offset=".098" stop-color="#930C0C"/><stop offset=".78" stop-color="#666"/><stop offset=".98"/></radialGradient><radialGradient gradientUnits="userSpaceOnUse" r="819.2" cx="0" cy="0" spreadMethod="pad" gradientTransform="matrix(-.009 0 0 .009 22.55 44.25)" id="E"><stop offset="0" stop-color="#900"/><stop offset=".098" stop-color="#930C0C"/><stop offset=".78" stop-color="#666"/><stop offset=".98"/></radialGradient><radialGradient gradientUnits="userSpaceOnUse" r="819.2" cx="0" cy="0" spreadMethod="pad" gradientTransform="matrix(-.008 0 0 .008 34.1 51.75)" id="F"><stop offset=".098" stop-color="#006"/><stop offset=".98" stop-color="#003"/></radialGradient><radialGradient gradientUnits="userSpaceOnUse" r="819.2" cx="0" cy="0" spreadMethod="pad" gradientTransform="matrix(-.012 0 0 .012 24.2 49.2)" id="G"><stop offset="0" stop-color="#003"/><stop offset=".498" stop-color="#06c"/><stop offset=".937" stop-color="#039"/></radialGradient><radialGradient gradientUnits="userSpaceOnUse" r="819.2" cx="0" cy="0" spreadMethod="pad" gradientTransform="matrix(-.007 0 0 .007 21.9 47.25)" id="H"><stop offset=".098" stop-color="#006"/><stop offset=".98" stop-color="#003"/></radialGradient><radialGradient gradientUnits="userSpaceOnUse" r="819.2" cx="0" cy="0" spreadMethod="pad" gradientTransform="matrix(-.009 0 0 .009 4.9 39.2)" id="I"><stop offset=".098" stop-color="#006"/><stop offset=".98" stop-color="#003"/></radialGradient><radialGradient gradientUnits="userSpaceOnUse" r="819.2" cx="0" cy="0" spreadMethod="pad" gradientTransform="matrix(-.006 0 0 .006 9.9 37.9)" id="J"><stop offset=".239" stop-color="#f90"/><stop offset=".51"/><stop offset=".773" stop-color="#C77400"/></radialGradient><radialGradient gradientUnits="userSpaceOnUse" r="819.2" cx="0" cy="0" spreadMethod="pad" gradientTransform="matrix(-.007 0 0 .007 13.45 33.9)" id="K"><stop offset="0" stop-color="#900"/><stop offset=".78" stop-color="#f30"/><stop offset=".98" stop-color="#030"/></radialGradient><radialGradient gradientUnits="userSpaceOnUse" r="819.2" cx="0" cy="0" spreadMethod="pad" gradientTransform="matrix(-.005 0 0 .005 11.05 37.8)" id="L"><stop offset=".239" stop-color="#f90"/><stop offset=".51"/><stop offset=".773" stop-color="#C77400"/></radialGradient><radialGradient gradientUnits="userSpaceOnUse" r="819.2" cx="0" cy="0" spreadMethod="pad" gradientTransform="matrix(-.01 0 0 .01 6.15 40.3)" id="M"><stop offset="0" stop-color="#003"/><stop offset=".498" stop-color="#06c"/><stop offset=".937" stop-color="#039"/></radialGradient></defs><path d="M26.9 4.95q.85-1.45 1-2.9l-.35.55-1.4 2.15-.85.9-1.75 1.7-1.9.75q-.5-.4-1.7-.45l-.15-.45-.45-2.25q-.25-1.7-.95-3.15L17.95 0l-.2 5.7.05 1.25v.5q-1.2.1-.6.7l.25.25.9 1.7v.35l-.25.85-1.1.45v.1l.5 1.55v.05l.8 2.3 1.15-.7 1.15-.7-1.6.4v-.45l-.3-.85-.1-.2.1-.2q.15-.7-.7-.55l.75-.85.15-.2 2.2-.25-.55-.15-.55-.25-.7-.7v-.05l-.95-1.55-.15-.65V7.6l.4-1.55.05-.35v.35l.4 1.4h.05l.1.2.1.15q.7.8 1.05 1.75l1.15-.35.35-.05.4-.15 2.9-1.15h.05l.6-1.1.75-1.25h.05l.3-.55m-5.8 3.3l.55-.15-.55.15"/><path fill="url(#a)" d="M17.75 5.7l-1.35-.55q.7.5.5 1.15l-3.2-.8q.85.95.65 1.95-.8-.7-2.05-.75.8.65.9 1.65l.55-.05.05-.15 1.25.15-.05-.8.7.3-.25-.95 1.05.3-.25-.55 1.55.35-.05-1.25"/><path fill="url(#b)" d="M25.3 5.65V5.6l-.35-1.85q-.25 1.25-1 1.9l-.85.5-.15-.45-.15-1.3-1.1 1.9-.55.6-.25-.4-.1-.65V5.2q-.25-1.2.05-2.4l-1.5 2.15.45 2.25.15.45q1.2.05 1.7.45l1.9-.75 1.75-1.7"/><path fill="url(#c)" d="M13.05 8.35H13l-2.6-.4L9.35 8 7.5 9l2.45-.15q-1.25.3-1.75 1.6 1.05-1 2.15-.55l.45.25.1.05q.4.25.3 1.1l-.05 1q.8-1.35 2.1-2.1l.25 1.5.15.4.45-.55.1-.15.1.1.4.7.1.6.25-.2.2-.1q.2.15 0 .65v.2l.05.55.1-.05.25-.3.05-.2-.05-.8.05-.5-.05-.2q-.15-.3-.5-.2l-.5.2.1-.5.1-1.4q.05-.35-.2-.3l-.9.5.1-.6-.7-.2-1.2.05.2-.2.75-.3.85.15V8.3l-.55.05v.15l-.15-.15M11.35 10l-.55.15.55-.15"/><path fill="url(#d)" d="M10.8 10.15L8.4 11l-.55.35q-.75.65-.5 2.2l.25.85.1.15-.8 1.1-1.4 1.2-.25.15q-.7.55-.85 1.3l.05 1.25.8 2.5v.05l-2.05-.05q-.6.75-.45 1.55l.85.05.3.1.25.1v-.3l.8-.85 1.35-.05v-.05l.2-.4q.3-.4.85-.25.7.1.4-.4l-.15-.45.1-.45 1-1.95q.4-.55.6 0l.15-.1h.05l.25-.4.5.1.7.9-.05-.55q-.4-.9-1.3-1.15l-.65-.2-1.35-.2.2.2.2.35V18l-.5 2.1-.45.65-.3.2-.1.1-.2.1q-.4.2-.25-.15l.2-.75-.15-.3-.5-.4-.1-.15v-2l.3-.4.7-.5 1.3-.7h.4l.3.15-.05-.4V15l.1-.9.6-1.45.15-.15.6-.5h.65l-.15.25-.15.5-.05.3h-.05l-.05.65.15 1.4.05-.65.65-1.3.25-.2 1.15-.75.4 1.05v.05l.45.9.1.6-.2.4-1.1 1.4-.05.15.7-.15h.05l.2-.1 1.4-.9.2-.2.45-.75.2-.75-.05-.55v-.2l-.2-.55-.25.2-.1-.6-.4-.7-.1-.1-.1.15-.45.55-.15-.4-.25-1.5q-1.3.75-2.1 2.1l.05-1q.1-.85-.3-1.1l-.1-.05M8.6 15.4l-.9-.85.9.85"/><path fill="url(#e)" d="M8.6 15.4v.15l.05.4-.3-.15h-.4l-1.3.7-.7.5-.3.4v2l.1.15.5.4.15.3-.2.75q-.15.35.25.15l.2-.1.1-.1.3-.2.45-.65L8 18v-.35l-.2-.35-.2-.2 1.35.2.65.2q.9.25 1.3 1.15l.05.55-.7-.9-.5-.1-.25.4h-.05l-.15.1q-.2-.55-.6 0l-1 1.95-.1.45.15.45q.3.5-.4.4-.55-.15-.85.25l-.2.4v.05l-1.35.05-.8.85v.3l.55.45h.05l.5.05.5.55.4.35.65.3 4.9.8 1 .4-3.9-.55q.3.9 1.05 1.55l.25.15q1.1.65 2.25.55l.1-.05 2.85-.1.3-.1.5-.1.25-.1.25-.35h.35l1 .15h1l.2-.05.25-.2.1-.15.2-.15.25-.25.4.45.15.1 1.25.3h.05l.9-.45.35-.1 1-.45.7-.6.45-.7.05-.05v-.1l.05-.2v-.05l.15-.85.05-.15.05-.1.1-.35V23h-.1l-.3-.25h-.05l-.25-.2-.05-.05-.4-.2-.95-.05-.3.1-.45.45-.4.6q-.1.25-.3.15l-.35-.7q0-.65-.4-1l-.75 1.25h-.05l-.25.8-.05.05-.25.55-.15.85-.05.05-.55.25-.45.1-1.7-.05-1.5-.3.35.6-.3-.1-.5-.25-1.25-.85q-.65-.45-1.5-.3l-1 .15-1.4-.05-.4.2-.35.05-.6-.8-.55-.55v-.25l1.25-1.3.15-.2v.15l.05.15.2.3.45.4.85.1 1.1-.4.75-.85.15-.2.1-.25.1-.45v-.1l.05-1.1-.2-.9q-.35-.55-1.15-.35l-.45-1.15.45-.35h.15l.05-.15 1.1-1.4.2-.4-.1-.6-.45-.9v-.05l-.4-1.05-1.15.75-.25.2-.65 1.3-.05.65-.15-1.4.05-.65h.05l.05-.3.15-.5.15-.25h-.65l-.6.5-.15.15-.6 1.45-.1.9v.4m4.1 11.35l.35.05h-.35v-.05"/><path fill="url(#f)" d="M12.1 16.75h-.15l-.45.35.45 1.15q.8-.2 1.15.35l.2.9-.05 1.1v.1l-.1.45-.1.25-.15.2-.75.85-1.1.4-.85-.1-.45-.4-.2-.3-.05-.15v-.15l-.15.2-1.25 1.3v.25l.55.55.6.8.35-.05.4-.2 1.4.05 1-.15q.85-.15 1.5.3l1.25.85.5.25.3.1-.35-.6 1.5.3 1.7.05.45-.1.55-.25.05-.05.15-.85.25-.55.05-.05.25-.8h.05l.75-1.25q.4.35.4 1l.35.7q.2.1.3-.15l.4-.6.45-.45.3-.1.95.05.4.2.05.05.25.2h.05l.3.25.05-.05-.1-.25-.45-.6-.55-.45h-.15q-1.1-.25-1.75 0l-.45.35-.25-.25h-.8l-.8.45-.3.55-.15.75-.3.9-.5.9-.05.05-1.45.05-1.2-.2-.9-.95-.3-.55-.15-.15q-.6-.7-1.95-.75l.45-.65.3-.7.15-1.1-.05-.9q-.15-1.15-.65-2.15l-.4-.7h-.05l-.7.15m-2.8 7.3l1.25-.05 1.05-.2 1-.55.45-.45-.45.45-1 .55-1.05.2-1.25.05m12.95-1.4l-.1-.65.1.65"/><path fill="url(#g)" d="M25.15 7.85l-.25.65-.1 1 1.3-.05-.8.65.45.2.2.05H26l-.85.8.5.45-.15.25-1.05.25.25.45.25.85.05.45-.85-.35-.25-.15.25 2.25v.1l-.2.3-.85-.3-.35-.25-.1.3-.5.95-.2.3v.05l-.25.1-.05-.1-.5-.75-.25.85h-.05v.05l-.2.3-.2-.3v-.05l-.1-.2-.3-.75-.15-.25-.05-.2-.15.05-.15.15-.15.6-.35-.35-.45.05-.7.45-.1-.6-.25-.35-.3.4-.05.15-.05-.15v-.05l.15-.9.15-.75Q17.4 14 17 13.6l-.15-.2-.15-.5-.05-.35-.35-.6-.15-.15.4-.25-.05-.2-.2-.35-.05-.05h.1l.3.05.95.25-.3-.45-.1-.05-.65-.75h.2l.4-.1-.3-.25-.6-.35-.8-.35.2-.1.95-.3.85-.15-.25-.25q-.6-.6.6-.7v-.5l-1.55-.35.25.55-1.05-.3.25.95-.7-.3.05.8-1.25-.15-.05.15v.75l-.85-.15-.75.3-.2.2 1.2-.05.7.2-.1.6.9-.5q.25-.05.2.3l-.1 1.4-.1.5.5-.2q.35-.1.5.2l.05.2-.05.5.05.8-.05.2-.25.3-.1.05-.2.75-.45.75-.2.2v1.05l.15.6.35.8q.45.2.8-.8l.05-.05v.05q.2 1.3.95 2.3l.05.05.05-.05.35-.95.1.85.4 1.2.35.65.05.15.1-.15.85-1.7 1.1 1.6h.2l.55-.45.35-.8.3-.4q.55-.25 1.25.7.9-.7 1.05-1.95l.05-.6.75.5.7.35.05-.85-.25-1.35.45.35.75 1 .05-1.1-.05-.4-.15-.55-.15-.2-.1-.1-.05-.1-.25-.2.7-.3v-.25l-.2-.2-.55-.35-.05-.05h.1v-.05l-.1-1.05.15.1.3.35q.35.35.8.4v-.6l-.15-.75-.3-.8 1.65.7.55.15-.05-.2v-.1l-.55-1.5.4.2 1.5.35-1.15-1.45.8-.35-.25-.15-1.05-.25.2-.35.35-1.1v-.2h-.45l-1.05.1.05-.15.25-.3.9-.6-.6.05-2.05.4-.6 1.1h-.05"/><path fill="url(#h)" d="M19.45 15.05l-1.15.7-.8-2.3v-.05l-.5-1.55v-.1l1.1-.45.25-.85v-.35l-.9-1.7-.85.15-.95.3-.2.1.8.35.6.35.3.25-.4.1h-.2l.65.75.1.05.3.45-.95-.25-.3-.05h-.1l.05.05.2.35.05.2-.4.25.15.15.35.6.05.35.15.5.15.2q.4.4.45.85l-.15.75-.15.9v.05l.05.15.05-.15.3-.4.25.35.1.6.7-.45.45-.05.35.35.15-.6.15-.15.15-.05-.4-.7"/><path fill="url(#i)" d="M25.15 7.85L22.25 9l-.4.15-.35.05-1.15.35Q20 8.6 19.3 7.8l-.1-.15-.1-.2h-.05l-.4-1.4V5.7l-.05.35-.4 1.55v.25l.15.65.95 1.55v.05l.7.7.55.25.55.15-2.2.25-.15.2-.75.85q.85-.15.7.55l-.1.2.1.2.3.85v.45l1.6-.4.3-.15.2-.15.85-.45q.3-.2.25-.75v-.2q-.15-1 .35-1.35.4-.3 1.15-.25l.25.05q.7.05.9-.35l.05-.65-.1-.6.1-1 .25-.65"/><path fill="url(#j)" d="M24.8 9.5l.1.6-.05.65q-.2.4-.9.35l-.25-.05q-.75-.05-1.15.25-.5.35-.35 1.35v.2q.05.55-.25.75l-.85.45-.2.15-.3.15-1.15.7.4.7.05.2.15.25.3.75.1.2v.05l.2.3.2-.3v-.05h.05l.25-.85.5.75.05.1.25-.1V17l.2-.3.5-.95.1-.3.35.25.85.3.2-.3v-.1l-.25-2.25.25.15.85.35-.05-.45-.25-.85-.25-.45 1.05-.25.15-.25-.5-.45.85-.8h-.05l-.2-.05-.45-.2.8-.65-1.3.05"/><path fill="url(#k)" d="M26.2 15.65l.15.55.05.4-.05 1.1-.75-1-.45-.35.25 1.35-.05.85-.7-.35-.75-.5-.05.6q-.15 1.25-1.05 1.95-.7-.95-1.25-.7l-.3.4-.35.8-.55.45h-.2l-1.1-1.6-.85 1.7-.1.15-.05-.15-.35-.65-.4-1.2-.1-.85-.35.95-.05.05-.05-.05q-.75-1-.95-2.3v-.05l-.05.05q-.35 1-.8.8l-.35-.8-.15-.6V15.6l-1.4.9-.2.1.4.7q.5 1 .65 2.15l.05.9-.15 1.1-.3.7.35.65v-1.15q.6.45.8 1.1l.35-1 .5.55v1.35l.2.6.65.95 1.2.2 1.45-.05.05-.05.5-.9.3-.9.15-.75.3-.55.8-.45h.8l.25.25.45-.35q.65-.25 1.75 0h.15l.55.45.8-.35.25-.15.5-.6v-.05l.15-.4q.25-1-.35-1.35.15-.7.45-.7.9 1.05 1.05 1.85l.25-1.85-.2-1.45-.2-.15-.1-.15-.25-.25-.05-.1q-.2-.3-.55-.25h-.1l-.4-.3-.1-.2m-10.7 6v.65-.65"/><path fill="url(#l)" d="M13.5 22.15l-.45.65q1.35.05 1.95.75l.15.15.3.55.9.95-.65-.95-.2-.6V22.3l-.5-.55-.35 1q-.2-.65-.8-1.1v1.15l-.35-.65"/><path fill="url(#m)" d="M21.75 27.85l-1.25-.3-.15-.1-.4-.45-.25.25-.2.15-.1.15-.25.2.8-.1.05.05q.6.75 1.75.15m-1.4-.4l-.4.2.4-.2m-.65-.2l.25.4-.25-.4"/><path fill="url(#n)" d="M19.55 33.2l2.05.05.05.05 1.2.8-.2-.7-1.2-1.7-.45-.8q-.05-.2-.15-.1l-.7.9-.4 1.05-.25-.45-.3-.3-.15-.3-.45-.65v-.3l.1-.25q.5-.85 1.65-1.05l.95-.15h2.45l2.15.35h.5l.05-.05-.15-.1-.6-1.3-.1-.3-.2-1v-.65l1.2.2h.05l-.05-.05-.3-.25-.45-.5-.05.3-.3-.35-.2-.4-.05.2v.1l-.05.05-.45.7-.7.6-1 .45-.35.1-.9.45h-.05q-1.15.6-1.75-.15l-.05-.05-.8.1-.2.05h-.05l-4.2.95h-.2v.1l.2.8q.3.95.95 1.7l.25.25.3.3q.85.65 1.95 1l1.4.3m.75-1.05l1.3 1.1-1.3-1.1m-5.05-2.2l.65 1.65-.65-1.65"/><path fill="url(#o)" d="M22.85 34.1q.95.55 2.05.65l.15-.05 3.1-.8h1.25l.4-.15.15.25.25 1.15.1.25.55.35.55.2.25.15.4.55.1.3.3-.15.55-.45.1-.65-.35-.35-.8-.5-.45-1.45-.35-.4-.65-.3.35-1.2v-.15l-.05-.05-1.6-2.5-.85-.95-1.55-1.25-.15-.15h-.05l-1.2-.2v.65l.2 1 .1.3.6 1.3.15.1-.05.05h-.5l-2.15-.35H21.3l-.95.15q-1.15.2-1.65 1.05l-.1.25v.3l.45.65.15.3.3.3.25.45.4-1.05.7-.9q.1-.1.15.1l.45.8 1.2 1.7.2.7"/><path fill="url(#p)" d="M18.9 27.8h-.95l-1-.15h-.35l-.25.35-.25.1-.5.1-.3.1-2.85.1-.1.05-.15.65 2.15-.35h.35l4.2-.95"/><path fill="url(#q)" d="M3.9 23.75l-.05.55.05.6q.15 1.05.85 1.4L10 28.9l.3.2 1.2.15.7-.15.15-.65q-1.15.1-2.25-.55l-.25-.15Q9.1 27.1 8.8 26.2l3.9.55-1-.4-4.9-.8-.65-.3-.4-.35-.5-.55-.5-.05H4.7l-.55-.45-.25-.1m1.05.85l-.2-.3.2.3"/><path fill="url(#r)" d="M18.55 37.2l.6-.95.1-.3.05-.05q.4-1.25.25-2.7l-1.4-.3q-1.1-.35-1.95-1l-.3-.3-.25-.25q-.65-.75-.95-1.7l-.2-.8v-.1h-.15l-2.15.35q-.35 1.15-1.35 2l-.75.75q-.45.6-.4 1.2v.65l-.15 1.1-.05.05-.05.2.35.25.1.05 1.35 1.2.7.5.05-.15.25-.25.95-.7.75-.75-1.3.55-.25-.15-.4-.65-1-.7.55-.95.5-.5 1.25-.65.9-.3.25.35.2.55.7.65 1.15.1q.6-.05.85.5l.85 1.95.05.05.3 1.2"/><path fill="url(#s)" d="M30.9 10.05l-.3-.4h1.85q-.6-1.1-1.75-1.4l2.4-.15q-1.1-1.85-3.2-.95h-.1l.05-.05.3-.75.8-1L31.5 5q-1-.3-1.95.4l-.75.7 1.1-1.7q-1.25-.4-3 .55l-.3.55h-.05l-.75 1.25 2.05-.4.6-.05-.9.6-.25.3-.05.15 1.05-.1h.45v.2l-.35 1.1-.2.35 1.05.25.25.15-.8.35 1.15 1.45-1.5-.35-.4-.2.55 1.5v.1l.05.2-.55-.15-1.65-.7.3.8.15.75v.6q-.45-.05-.8-.4l-.3-.35-.15-.1.1 1.05v.05l-.05.05.55.35.2.2v.25l-.7.3.25.2.05.1.1.1.15.2.1.2.4.3h.1q.35-.05.55.25l.05.1.25.25.1.15.2.15-.15-.6-.75-1.25-.35-.45.7.4 1.3.95v-2.4l.55.2.6.75.05.1v-.7l-.1-.4-.3-.7q1.4.05 2 .6l-.6-1.5-.65-1.15.95-.1-.3-.75"/><path fill="url(#t)" d="M30.9 10.05l.3.75-.95.1.65 1.15.6 1.5q-.6-.55-2-.6l.3.7.1.4v.7l-.05-.1-.6-.75-.55-.2v2.4l-1.3-.95-.7-.4.35.45.75 1.25.15.6h.3l.1.25.3.5.9 1.1.15-1.65-.3.4-.1.1h-.05l-.4.1v-.1l.2-1.4.1-.25.05-.2.6-.4.8-.9 1 .4-.1-1.1.35.25.65.8.15-1-.05-1.65-.05-.35.6.35.25.35.35.9.05.05v.15l.1 1.1.1.35.15.3.9 1 .05.15.05.55-.05.25-.55.45q-.35.05-.3-.45l.05-.15q.1-.6-.45-.8l-.65-.15-.45.05q.7.15.7 1.1v.2L33 19.75l.05.45q.4.75 1.2.5l.65-.35.7-.6q.5-.45.9.35l.25.55q.2.25.5.15l.65-.2.35-.05h.05l-.4-.65-.7-.35.3-1 .05-1.15q-.1-1.05-.7-1.9l-.1-.2h-.05q-.7-.95-1.75-1.5v-.25q.2-1.85-.9-2.8-.9-.75-3.15-.7M36.95 20l.25-.45-.25.45m-2.1-5.85l.1-.35-.35-.2.35.2-.1.35m-6.7 2.4l.1.5-.1-.5"/><path fill="url(#u)" d="M30.1 22.15l.4.85.15.25.3.35h.15l.7-.2.95-.75q.45-.45.35-1v-.1l.05.1.15.2 1.2.8-.05-.45.2.05.7.3.6.7.25.55.85 1.25.6 1.4-.35-.45q-.3-.6-.9-.35l-.45.2.55 1.2 1.55 2.15.8-.15h.2l.15.15.35 1.7.3.9.1.7-1-.75-.1-.15-.75-.55-.25-.05-.3.1-.05.2.3.6.05.05.25.9.05.55-.7-.05q-.45.25-.75.75l-.05.05.2.2.5.8v.05q.45 1.55 1.6 1.3 1.3-.25 1.85-1.05l.35-.65.45-1.85-.3-2.5v-.35l.3-2-.05-.45.3-1.3q.15-1.4-.25-2.45l-.3-.55-.85-.65q-1.15-.45-2.15-1.6v-.55h-.05l-.35.05-.65.2q-.3.1-.5-.15l-.25-.55q-.4-.8-.9-.35l-.7.6-.65.35q-.8.25-1.2-.5l-.05-.45.45-2.05v-.2q0-.95-.7-1.1l.45-.05.65.15q.55.2.45.8l-.05.15q-.05.5.3.45l.55-.45.05-.25-.05-.55-.05-.15-.9-1-.15-.3-.1-.35-.1-1.1v-.15l-.05-.05-.35-.9-.25-.35-.6-.35.05.35.05 1.65-.15 1-.65-.8-.35-.25.1 1.1-1-.4-.8.9-.6.4-.05.2-.1.25-.2 1.4v.1l.4-.1h.05l.1-.1.3-.4.25-.35.25-.4.3-.35.5-.45.05.05v.35l-.65 1.55v.2l-.45 1.05-.1.3-.3.55.05.25v.1l.1.8.4 1.25m10.1 2l.2.85.1.95-.15 2.15-.5-2-.1-1.9-.05-.2-.2-.5q-.2-.3 0-.5l.6.9.1.25m.15 3.95l.15 1.3v.05l.1.45-.2-.55-.05-1.25"/><path fill="url(#v)" d="M29.7 17.25l-.15 1.65v.85l.3-.55.1-.3.45-1.05v-.2l.65-1.55v-.35L31 15.7l-.5.45-.3.35-.25.4-.25.35"/><path fill="url(#w)" d="M30.95 23.6l.05.05q.5.45 1.05.55l1.05-.15 1.25-.6q.25.6 1.1.65l.05.05.05.1.4 1.6.45-.2q.6-.25.9.35l.35.45-.6-1.4-.85-1.25-.25-.55-.6-.7-.7-.3-.2-.05.05.45-1.2-.8-.15-.2-.05-.1v.1q.1.55-.35 1l-.95.75-.7.2h-.15m4.1 0l.4.5-.4-.5"/><path fill="url(#x)" d="M40.2 24.15l-.1-.25-.6-.9q-.2.2 0 .5l.2.5.05.2.1 1.9.5 2 .15-2.15-.1-.95-.2-.85"/><path fill="url(#y)" d="M38.05 29.2l.1.1q.55.55.7 1.2l-.75.05-.2-.05-.8-.45q-.8.8-.7 1.4l.15.35q-.35.55-.4 1.1.05.6.5 1.2h.05q.3-.5.75-.75l.7.05-.05-.55-.25-.9-.05-.05-.3-.6.05-.2.3-.1.25.05.75.55.1.15 1 .75-.1-.7-.3-.9-.35-1.7-.15-.15h-.2l-.8.15m.95 1.9l-.1-.5-.05-.05v-.05.05l.05.05.1.5m-2 1.15l-.45-.45.45.45"/><path fill="url(#z)" d="M25.85 25.65l.05-.2.15.2.6.45h.05l.65.35.9.7-.2-.7-.1-.25-.05-.2-.1-.2-.5-1.6-.1-.2.35.2h.05l1.45 1.15.05-1.15-.05-.1-.25-1.4-.25-.85h.1l.45.1q.75.35 1 1.05v-.85l-.4-1.25-.1-.8-.05-.2-1.4-1.4-.25 1.85q-.15-.8-1.05-1.85-.3 0-.45.7.6.35.35 1.35l-.15.4V21l-.5.6-.25.15-.8.35.45.6.1.25.05.05v.7l-.1.35-.05.1-.05.15-.15.85.55.5"/><path fill="url(#A)" d="M32.75 39.85l.2-1.2-.15-.7-.1-.15q-.4-.8-1.65-.85l-.75-.1-1-.4-.75-.75q-.35-.5-.85-.3l-1.3.35h-.6l-.3.3-.2.25-.65 1 1.65-.55q.55-.15.75.25l.75.85q.35.25.5 0l.1-.15q.4-.1.5.15l.05.1.5.75.95.5q.55.15.9-.5.2-.45.4-.15l.3.4.3.6.45.3"/><path fill="url(#B)" d="M25.1 34.75l-.1.15-.1.35q0 .45.9.5h.6l1.3-.35q.5-.2.85.3l.75.75 1 .4.75.1q1.25.05 1.65.85l1.1-2.65q.05-1-.7-1.35l-1.05-.3-1.2-2.15v.15l-.35 1.2.65.3.35.4.45 1.45.8.5.35.35-.1.65-.55.45-.3.15-.1-.3-.4-.55-.25-.15-.55-.2-.55-.35-.1-.25-.25-1.15-.15-.25-.4.15h-1.25l-3.1.8.05.05h3.5-3.5"/><path fill="url(#C)" d="M24.9 35.25l-.7.75-.45.75.2.9.2.35q.7.9 2.25 0l.2.6.25.35q.85.85 1.75-.5 0 1 .65 2.1h.25q.85 0 1.9-.8l.2 1.1.1.25.2.7q.25-1 .65-1.65l.2-.3-.45-.3-.3-.6-.3-.4q-.2-.3-.4.15-.35.65-.9.5l-.95-.5-.5-.75-.05-.1q-.1-.25-.5-.15l-.1.15q-.15.25-.5 0l-.75-.85q-.2-.4-.75-.25l-1.65.55.65-1 .2-.25.3-.3q-.9-.05-.9-.5"/><path fill="url(#D)" d="M24.15 38l-.65 1.65v.05l.1.1.1.35-.15.6-.5.85-.05.1-.8 1.3.05.05.65-.3.65-.25.6-.4.8-.75-.05.25-1.5 3.3-.05.4.25.2.3.1h.1l1.6.45.55.25.2.15.4.2.7.25q.65.1.45-.55l-.35-.95-.25-.3h-.05L28 44l.1-.2q.7-1.15.9-2.4l.15.25.15.65-.05 1.9 2.25-2.8.2-.3-.1-.25-.2-1.1q-1.05.8-1.9.8h-.25q-.65-1.1-.65-2.1-.9 1.35-1.75.5l-.25-.35-.2-.6q-1.55.9-2.25 0"/><path fill="url(#E)" d="M23.5 39.7l-1 1.65-.05.05-1.6 2.15-.55 1.2v.1l.9.45 1.25.6 4.45 1.5.65.15 1.45.1q.5-.25.15-1.15L29 46q-.15-.75.05-1.35l.2-.45.05-1.9-.15-.65-.15-.25q-.2 1.25-.9 2.4l-.1.2-.75 1.1h.05l.25.3.35.95q.2.65-.45.55l-.7-.25-.4-.2-.2-.15-.55-.25-1.6-.45h-.1l-.3-.1-.25-.2.05-.4 1.5-3.3.05-.25-.8.75-.6.4-.65.25-.65.3-.15.15.1-.2.8-1.3.05-.1.5-.85.15-.6-.1-.35-.1-.1"/><path fill="url(#F)" d="M27.45 53.35l1.15.45.1.45.2.4.45.35 2.95.1q2.45-.8 3.35 1.1.9-1.15.5-2.85l-.05-.3h1.15q-.4-.5-.55-1.3-.2-1-.9-1.3l-1.3-.2h-1.2q.2.3-.45.5l-1.1.25v.05l.4.1q.55.2.6.8l.15.5.05.05.1.5q-.05.55-.6.75-1.3.55-2.6 0-.6-.25-.4-.95l.25-.9-1.05.4-.8-.1q0 .6-.4 1.15m6.8-2.15q.95-.05 1.4.8l.45 1.05-.45-1.05q-.45-.85-1.4-.8"/><path fill="url(#G)" d="M23.4 53.1l.65-.1h1.6l1.05.15.75.2q.4-.55.4-1.15l.8.1 1.05-.4-.25.9q-.2.7.4.95 1.3.55 2.6 0 .55-.2.6-.75l-.1-.5-.05-.05-.15-.5q-.05-.6-.6-.8l-.4-.1h-.2l.2-.05 1.1-.25q.65-.2.45-.5h-.1l-1.8-.55Q30 49 29 47.65l-1.45-.1-.65-.15-.5.3-1.75-.3-.2-.1-1.05-.4-.4.05-.75.6-1.25 1.6q-.35.45-.3 1 0 .25.4.3l.7.2 1 .1-.45 1.1 1.05 1.25"/><path fill="url(#H)" d="M23.4 53.1l-1.05-1.25.45-1.1-1-.1-.7-.2q-.4-.05-.4-.3-.05-.55.3-1l1.25-1.6.75-.6.4-.05 1.05.4.2.1 1.75.3.5-.3-4.45-1.5-1.25-.6q-.15.95-.85 1.7-.9 1.05-1.45 2.65-.65 1.95 1.65 1.8-.05 2.1 1.85 1.8l1-.15"/><path fill="url(#I)" d="M5.55 37.3l-2.1 2.45q-1 1.1-2.4 1.6-1.45.5-.95 2.45l.85.95q1.35.8 3.05.6l2.55-.1q-.95-.55-2-.75l-.25-.05-1.45-.15-.4-.25q-.5-.75-.55-1.7l.35-.5.55-.25.25-.15 1.1-.9 1.6-.85.45-.3.2-.05.85.45.1.45-.2.25-.55.95-.15.2-1.5 1.4.35-.15L8.05 41l.05.1q.15.25.45.2h.25l.6-.1 1-.5.3-.25.1-.1.2.45.45.45.45-.35.2-.2-.6.05.6-.5.2-.5-2 .25q-1.8.2-1.05-1.8l-.8.15q-1.65.5-1.65-.4l.05-.3.2-.6-1.5.25"/><path fill="url(#J)" d="M5.55 37.3l1.5-.25-.2.6-.05.3q0 .9 1.65.4l.8-.15q-.75 2 1.05 1.8l2-.25-.2.5-.6.5.6-.05.9.3.2.25h.05q.6.15.45-.3l.65-.55-.6-.3-.2-.25-.2-.6-.05-.4v-.2l-.5.4-.6.05-.7-.2q-.6.7-1.25.45L10 37.9l-.15-.4-.05-.05-1.2.55-.8-.15.05-.35.1-.1.05-.1q.15-.3-.05-.5l-.45-.2-.2-.2.65-.5.85-.5.65-.2.35.1-.35-.25-.3-.15-.6-.25-.2-.05q-.65-.15-1.15.25l-1.2.9q-.6.55-.6 1.05l.15.5"/><path fill="url(#K)" d="M14.85 39.7l.1-.2q.55-1 1.6-1.45l.8-.2q.7-.1 1.2-.65l-.3-1.2-.05-.05-.85-1.95q-.25-.55-.85-.5l-1.15-.1-.7-.65-.2-.55-.25-.35-.9.3-1.25.65-.5.5-.55.95 1 .7.4.65.25.15 1.3-.55-.75.75-.95.7-.25.25-.05.15.1.1 1.05.6q1.35.65 1.75 1.95"/><path fill="url(#L)" d="M14.85 39.7q-.4-1.3-1.75-1.95l-1.05-.6-.1-.1-.7-.5-1.35-1.2-.1-.05-.35-.1-.65.2-.85.5-.65.5.2.2.45.2q.2.2.05.5l-.05.1-.1.1-.05.35.8.15 1.2-.55.05.05.15.4.25 1.45q.65.25 1.25-.45l.7.2.6-.05.5-.4v.2l.05.4.2.6.2.25.6.3.45-.6.05-.1"/><path fill="url(#M)" d="M6.55 45.25h.05l.55.05 2.15-.1.45-.3q1.15-.65 2.6-.5l1 .05q-.1-1.15-1.05-1.7l-1.75-.95.2-.1.7-.45-.45-.45-.2-.45-.1.1-.3.25-1 .5-.6.1h-.25q-.3.05-.45-.2l-.05-.1-2.75 1.9-.35.15 1.5-1.4.15-.2.55-.95.2-.25-.1-.45-.85-.45-.2.05-.45.3-1.6.85-1.1.9-.25.15-.55.25-.35.5q.05.95.55 1.7l.4.25 1.45.15.25.05q1.05.2 2 .75M6.5 43.6q1.15-.85 2.8-1.3l1-.35.25-.15-.25.15-1 .35q-1.65.45-2.8 1.3"/><path fill="none" stroke="#000" stroke-width=".05" stroke-linecap="round" stroke-linejoin="round" d="M24.9 34.75h.2m11.55-.65v.05M26.9 4.95q.85-1.45 1-2.9l-.35.55-1.4 2.15-.85.9m-5.95-.7q-.25-1.7-.95-3.15L17.95 0l-.2 5.7M13.2 8.35h-.15M7.5 9l-.45.25m2.45 25.6l-.35.05m14.8-23.8l-.25-.05m-1.5 1.6v.2m-1.6 1.5l-1.15.7-1.15.7-.8-2.3v-.05l-.5-1.55v-.1l1.1-.45.25-.85v-.35l-.9-1.7-.25-.25q-.6-.6.6-.7v-.5m1.55-2l.45 2.25.15.45q1.2.05 1.7.45l-.55.15m4.05-.4h.05l.6-1.1M21.65 8.1l1.9-.75 1.75-1.7m4.25 14.1v-.85m0 1l.05.1"/><path fill="none" stroke="#00104B" stroke-width=".05" stroke-linecap="round" stroke-linejoin="round" d="M5.55 37.3l-2.1 2.45q-1 1.1-2.4 1.6-1.45.5-.95 2.45l.85.95q1.35.8 3.05.6l2.55-.1m4.9-4l.45-.35.2-.2m9.1 4.6q-.15.95-.85 1.7-.9 1.05-1.45 2.65-.65 1.95 1.65 1.8-.05 2.1 1.85 1.8l1-.15m4.05.25l1.15.45.1.45.2.4.45.35 2.95.1q2.45-.8 3.35 1.1.9-1.15.5-2.85l-.05-.3h1.15q-.4-.5-.55-1.3-.2-1-.9-1.3l-1.3-.2h-1.2M30.95 23.6l.05.05q.5.45 1.05.55l1.05-.15 1.25-.6q.25.6 1.1.65l.05.05.05.1.4 1.6m2.1 3.35l.1.1q.55.55.7 1.2l-.75.05-.2-.05-.8-.45q-.8.8-.7 1.4l.15.35q-.35.55-.4 1.1.05.6.5 1.2m1.65-13.55l-.4-.65-.7-.35.3-1 .05-1.15q-.1-1.05-.7-1.9l-.1-.2h-.05q-.7-.95-1.75-1.5v-.25q.2-1.85-.9-2.8-.9-.75-3.15-.7m-20.1.1L8.4 11l-.55.35q-.75.65-.5 2.2l.25.85.1.15-.8 1.1-1.4 1.2-.25.15q-.7.55-.85 1.3l.05 1.25.8 2.5v.05l-2.05-.05q-.6.75-.45 1.55l.85.05.3.1-.05.55.05.6q.15 1.05.85 1.4L10 28.9l.3.2 1.2.15.7-.15m-8.05-5.25l-.25-.1M15.05 12.6l.2.55m-.8 2.45l.2-.2.45-.75.2-.75m-2.45 2.7h-.05l-.7.15m1.4 5.4l-.45.65-.45.45-1 .55-1.05.2-1.25.05M22.15 22l.1.65m-5.9 2.55l-.9-.95-.3-.55-.15-.15q-.6-.7-1.95-.75M7.7 14.55l.9.85m-3.85 8.9l.2.3m24.75-7.35l-.15 1.65-.9-1.1-.3-.5-.1-.25-.1-.5m6.45-2.95l.35.2-.1.35m2.35 5.4l-.25.45m-1.5 4.1l-.4-.5m3.8 6.9v.05l.05.05.1.5m-2.45.7l.45.45m-24.65-3.8l-.15.65m7.75-1.45l.4-.2m-.4.2l-.25-.4m16.4 25.8L35.65 52q-.45-.85-1.4-.8"/><path fill="none" stroke="#000061" stroke-width=".05" stroke-linecap="round" stroke-linejoin="round" d="M6.55 45.25h.05l.55.05 2.15-.1.45-.3q1.15-.65 2.6-.5l1 .05q-.1-1.15-1.05-1.7l-1.75-.95.2-.1.7-.45M23.4 53.1l.65-.1h1.6l1.05.15.75.2m5.85-3.1h-.1l-1.8-.55Q30 49 29 47.65m1.1-25.5l.4.85.15.25.3.35m5 2.25l.55 1.2 1.55 2.15m-1.4 4.95l.2.2.5.8v.05q.45 1.55 1.6 1.3 1.3-.25 1.85-1.05l.35-.65.45-1.85-.3-2.5v-.35l.3-2-.05-.45.3-1.3q.15-1.4-.25-2.45l-.3-.55-.85-.65q-1.15-.45-2.15-1.6v-.55m-26.2-3.8h-.15m13.35 8.4v.05m-20.55-.9H4.7l-.55-.45m25.55-6.6l.25-.35M29.6 20v.1m-.05-.35l.05.25M10.55 41.8l-.25.15-1 .35q-1.65.45-2.8 1.3"/><path fill="none" stroke="#8A1D1D" stroke-width=".05" stroke-linecap="round" stroke-linejoin="round" d="M14.85 39.7l.1-.2q.55-1 1.6-1.45l.8-.2q.7-.1 1.2-.65m4.3-3.1q.95.55 2.05.65m-1.4 4.95l-1 1.65-.05.05-1.6 2.15-.55 1.2v.1l.9.45m7.8 2.35q.5-.25.15-1.15L29 46q-.15-.75.05-1.35l.2-.45m1.6-12.85l-.05-.05-1.6-2.5-.85-.95-1.55-1.25M29 47.65l-1.45-.1-.65-.15-4.45-1.5-1.25-.6"/><path fill="none" stroke="#590000" stroke-width=".05" stroke-linecap="round" stroke-linejoin="round" d="M18.55 37.2l.6-.95.1-.3.05-.05q.4-1.25.25-2.7l2.05.05.05.05 1.2.8m2.25.65l-.1.15-.1.35M24.15 38l-.65 1.65v.05m5.75 4.5l2.25-2.8.2-.3m1-3.3l1.1-2.65q.05-1-.7-1.35l-1.05-.3-1.2-2.15m-4.2-4.9l-.05-.05-.3-.25-.45-.5M12.2 29.1q-.35 1.15-1.35 2l-.75.75q-.45.6-.4 1.2v.65l-.15 1.1-.05.05m15.8-9.65l-.05.2v.1l-.05.05-.45.7-.7.6-1 .45-.35.1-.9.45h-.05q-1.15.6-1.75-.15l-.05-.05m-.8.1l-.2.05h-.05m6.4-2.6l.2.4.3.35.05-.3m-.75 9.1h3.5m-19.15.3l.05-.2m5-6.1h.2l4.2-.95m-4.4.95v.1l.2.8q.3.95.95 1.7l.25.25.3.3q.85.65 1.95 1l1.4.3m-7.35-4.1l2.15-.35h.15m4.65-1l.8-.1m1.65 5.6l-1.3-1.1m-4.4-.55l-.65-1.65"/><path fill="none" stroke="#633B00" stroke-width=".05" stroke-linecap="round" stroke-linejoin="round" d="M12.1 40.7l.9.3.2.25h.05q.6.15.45-.3l.65-.55.45-.6.05-.1m10.05-4.45l-.7.75-.45.75.2.9.2.35m7.55 3.1l.2.7q.25-1 .65-1.65l.2-.3.2-1.2-.15-.7-.1-.15q-.4-.8-1.65-.85l-.75-.1-1-.4-.75-.75q-.35-.5-.85-.3l-1.3.35h-.6q-.9-.05-.9-.5M9.15 34.9l-.6-.25-.2-.05q-.65-.15-1.15.25l-1.2.9q-.6.55-.6 1.05l.15.5 1.5-.25-.2.6-.05.3q0 .9 1.65.4l.8-.15q-.75 2 1.05 1.8l2-.25-.2.5-.6.5.6-.05m19.6.4l-.1-.25-.2-1.1q-1.05.8-1.9.8h-.25q-.65-1.1-.65-2.1-.9 1.35-1.75.5l-.25-.35-.2-.6q-1.55.9-2.25 0m-15-3.1l.3.15.35.25.1.05 1.35 1.2.7.5.1.1 1.05.6q1.35.65 1.75 1.95"/><path fill="none" stroke="#913A00" stroke-width=".05" stroke-linecap="round" stroke-linejoin="round" d="M25.85 25.65l.05-.2.15.2.6.45h.05l.65.35.9.7-.2-.7-.1-.25-.05-.2-.1-.2-.5-1.6-.1-.2.35.2h.05l1.45 1.15.05-1.15-.05-.1-.25-1.4-.25-.85h.1l.45.1q.75.35 1 1.05v-.85m-4.45.85v.7l-.1.35-.05.1-.05.15-.15.85m4.3-5.05l.1.8.4 1.25m-4.45.85l-.05-.05-.1-.25-.45-.6m4.5-2.2l-1.4-1.4m-2.3 7.15l-.55-.5"/><path fill="none" stroke="#330" stroke-width=".05" stroke-linecap="round" stroke-linejoin="round" d="M14.45 15.6l-1.4.9-.2.1.4.7q.5 1 .65 2.15l.05.9-.15 1.1-.3.7.35.65v-1.15q.6.45.8 1.1l.35-1 .5.55v1.35l.2.6.65.95 1.2.2 1.45-.05.05-.05.5-.9.3-.9.15-.75.3-.55.8-.45h.8l.25.25m-6.65.3v-.65m12.45-4.6l.2 1.45-.25 1.85q-.15-.8-1.05-1.85-.3 0-.45.7.6.35.35 1.35l-.15.4V21l-.5.6-.25.15-.8.35-.55-.45h-.15q-1.1-.25-1.75 0l-.45.35"/><path fill="none" stroke="#2E2E00" stroke-width=".05" stroke-linecap="round" stroke-linejoin="round" d="M30.9 10.05l-.3-.4h1.85q-.6-1.1-1.75-1.4l2.4-.15q-1.1-1.85-3.2-.95h-.1l.05-.05.3-.75.8-1L31.5 5q-1-.3-1.95.4l-.75.7 1.1-1.7q-1.25-.4-3 .55m-1.1 1.8l.75-1.25h.05l.3-.55m1.05 12.1l-.15-.6-.75-1.25-.35-.45.7.4 1.3.95v-2.4l.55.2.6.75.05.1v-.7l-.1-.4-.3-.7q1.4.05 2 .6l-.6-1.5-.65-1.15.95-.1-.3-.75"/><path fill="none" stroke="#6D5E00" stroke-width=".05" stroke-linecap="round" stroke-linejoin="round" d="M17.75 5.7l-1.35-.55q.7.5.5 1.15l-3.2-.8q.85.95.65 1.95-.8-.7-2.05-.75.8.65.9 1.65v.15l-.15-.15H13l-2.6-.4L9.35 8 7.5 9l2.45-.15q-1.25.3-1.75 1.6 1.05-1 2.15-.55l.45.25.55-.15m3.7 2.6l-.25.2-.1-.6-.4-.7-.1-.1-.1.15-.45.55-.15-.4-.25-1.5q-1.3.75-2.1 2.1l.05-1q.1-.85-.3-1.1l-.1-.05m7-3.2l-.05-1.25m-4 2.6l-.55.05m2.1 5.55l-.05-.55v-.2q.2-.5 0-.65l-.2.1"/><path fill="none" stroke="#9F1400" stroke-width=".05" stroke-linecap="round" stroke-linejoin="round" d="M20.85 2.8l-1.5 2.15"/><path fill="none" stroke="#737373" stroke-width=".05" stroke-linecap="round" stroke-linejoin="round" d="M25.15 7.85l-.25.65-.1 1 .1.6-.05.65q-.2.4-.9.35m-.25-.05q-.75-.05-1.15.25-.5.35-.35 1.35m0 .2q.05.55-.25.75l-.85.45-.2.15-.3.15"/></svg>