<svg xmlns="http://www.w3.org/2000/svg" viewBox="0 0 18.0 29.4" width="18" height="29.4"><defs><radialGradient gradientUnits="userSpaceOnUse" r="819.2" cx="0" cy="0" spreadMethod="pad" gradientTransform="matrix(.004 0 0 .004 8.9 3.1)" id="a"><stop offset="0" stop-color="#369"/><stop offset=".388" stop-color="#930"/><stop offset="1" stop-color="#6cf"/></radialGradient><radialGradient gradientUnits="userSpaceOnUse" r="819.2" cx="0" cy="0" spreadMethod="pad" gradientTransform="matrix(.001 0 0 .001 8.8 3.15)" id="b"><stop offset="0" stop-color="#ff9"/><stop offset=".427" stop-color="#fc0"/><stop offset=".894"/></radialGradient><radialGradient gradientUnits="userSpaceOnUse" r="819.2" cx="0" cy="0" spreadMethod="pad" gradientTransform="matrix(.016 0 0 .016 9 16.8)" id="c"><stop offset="0" stop-color="#369"/><stop offset=".388" stop-color="#930"/><stop offset="1" stop-color="#6cf"/></radialGradient><radialGradient gradientUnits="userSpaceOnUse" r="819.2" cx="0" cy="0" spreadMethod="pad" gradientTransform="matrix(.003 0 0 .003 15.05 6.55)" id="d"><stop offset="0" stop-color="#369"/><stop offset=".71"/><stop offset="1" stop-color="#6cf"/></radialGradient><radialGradient gradientUnits="userSpaceOnUse" r="819.2" cx="0" cy="0" spreadMethod="pad" gradientTransform="matrix(.012 0 0 .012 13.95 17.15)" id="e"><stop offset="0" stop-color="#369"/><stop offset=".388" stop-color="#930"/><stop offset="1" stop-color="#6cf"/></radialGradient><radialGradient gradientUnits="userSpaceOnUse" r="819.2" cx="0" cy="0" spreadMethod="pad" gradientTransform="matrix(.001 0 0 .001 15.55 10.15)" id="f"><stop offset="0" stop-color="#369"/><stop offset=".71"/><stop offset="1" stop-color="#6cf"/></radialGradient><radialGradient gradientUnits="userSpaceOnUse" r="819.2" cx="0" cy="0" spreadMethod="pad" gradientTransform="matrix(.004 0 0 .004 8.15 7.55)" id="g"><stop offset="0" stop-color="#369"/><stop offset=".388" stop-color="#930"/><stop offset="1" stop-color="#6cf"/></radialGradient><radialGradient gradientUnits="userSpaceOnUse" r="819.2" cx="0" cy="0" spreadMethod="pad" gradientTransform="matrix(.001 0 0 .001 10.55 10.1)" id="h"><stop offset="0" stop-color="#369"/><stop offset=".71"/><stop offset="1" stop-color="#6cf"/></radialGradient><radialGradient gradientUnits="userSpaceOnUse" r="819.2" cx="0" cy="0" spreadMethod="pad" gradientTransform="matrix(.001 0 0 .001 11.4 12.35)" id="i"><stop offset="0" stop-color="#369"/><stop offset=".71"/><stop offset="1" stop-color="#6cf"/></radialGradient><radialGradient gradientUnits="userSpaceOnUse" r="819.2" cx="0" cy="0" spreadMethod="pad" gradientTransform="matrix(.001 0 0 .001 9.45 11.35)" id="j"><stop offset="0" stop-color="#369"/><stop offset=".71"/><stop offset="1" stop-color="#6cf"/></radialGradient><radialGradient gradientUnits="userSpaceOnUse" r="819.2" cx="0" cy="0" spreadMethod="pad" gradientTransform="matrix(.004 0 0 .004 8.85 15.05)" id="k"><stop offset="0" stop-color="#369"/><stop offset=".71"/><stop offset="1" stop-color="#6cf"/></radialGradient><radialGradient gradientUnits="userSpaceOnUse" r="819.2" cx="0" cy="0" spreadMethod="pad" gradientTransform="matrix(.003 0 0 .003 16.5 13.25)" id="l"><stop offset="0" stop-color="#369"/><stop offset=".71"/><stop offset="1" stop-color="#6cf"/></radialGradient><radialGradient gradientUnits="userSpaceOnUse" r="819.2" cx="0" cy="0" spreadMethod="pad" gradientTransform="matrix(.001 0 0 .001 5.2 9.65)" id="m"><stop offset="0" stop-color="#369"/><stop offset=".71"/><stop offset="1" stop-color="#6cf"/></radialGradient><radialGradient gradientUnits="userSpaceOnUse" r="819.2" cx="0" cy="0" spreadMethod="pad" gradientTransform="matrix(.002 0 0 .002 2.25 9.5)" id="n"><stop offset="0" stop-color="#369"/><stop offset=".71"/><stop offset="1" stop-color="#6cf"/></radialGradient><radialGradient gradientUnits="userSpaceOnUse" r="819.2" cx="0" cy="0" spreadMethod="pad" gradientTransform="matrix(.01 0 0 .01 2.55 17.5)" id="o"><stop offset="0" stop-color="#369"/><stop offset=".388" stop-color="#930"/><stop offset="1" stop-color="#6cf"/></radialGradient><radialGradient gradientUnits="userSpaceOnUse" r="819.2" cx="0" cy="0" spreadMethod="pad" gradientTransform="matrix(.002 0 0 .002 1.6 15.9)" id="p"><stop offset="0" stop-color="#369"/><stop offset=".71"/><stop offset="1" stop-color="#6cf"/></radialGradient><radialGradient gradientUnits="userSpaceOnUse" r="819.2" cx="0" cy="0" spreadMethod="pad" gradientTransform="matrix(.002 0 0 .002 6.5 11.7)" id="q"><stop offset="0" stop-color="#369"/><stop offset=".71"/><stop offset="1" stop-color="#6cf"/></radialGradient><radialGradient gradientUnits="userSpaceOnUse" r="819.2" cx="0" cy="0" spreadMethod="pad" gradientTransform="matrix(.002 0 0 .002 6.9 22.75)" id="r"><stop offset="0" stop-color="#369"/><stop offset=".71"/><stop offset="1" stop-color="#6cf"/></radialGradient><radialGradient gradientUnits="userSpaceOnUse" r="819.2" cx="0" cy="0" spreadMethod="pad" gradientTransform="matrix(.001 0 0 .001 15.05 17.75)" id="s"><stop offset="0" stop-color="#369"/><stop offset=".71"/><stop offset="1" stop-color="#6cf"/></radialGradient><radialGradient gradientUnits="userSpaceOnUse" r="819.2" cx="0" cy="0" spreadMethod="pad" gradientTransform="matrix(.002 0 0 .002 12.6 20)" id="t"><stop offset="0" stop-color="#369"/><stop offset=".71"/><stop offset="1" stop-color="#6cf"/></radialGradient></defs><path fill="#fc9" d="M5.05 5.4l.05-.1.7-.75.1.05.35.35.05.05-.15.35-.7.7v.05l-.1.05-.5.35-.05-.25.05-.5.2-.35m2.4-.35h.05q.25-.3.65-.3l.4.1.25.35v.25l-.05.05-.6 1.15L7.9 7l-.15.2-.25.3-.25-.45-.05-.5.05-.55.2-.95"/><path fill="url(#a)" d="M7.45 5.05l-.25-.1h-.5l-.4.1V5l-.05-.05-.35-.35-.1-.05q-.15-.1.1-.3l.2-.15.4-.3.05-.1.2-.4-.1-.4-.15-.15q-.15-.25.1-.45.2-.2.45-.15l.2-.05.05-.35.05-.2.35-.35.25-.2.4-.4.45-.35.45-.25L9 .5l-.1.55.4-.3h.5l.4.2.45.3.3.25.4.25.45.3.25.45.05.5-.1.5-.35.7-.1.2-.3.35-.45.35q-.15.1-.35.15l.3.2.3.45-.3-.05-.35.05-.25.1-1 .1-.3-.4-.05-.25V5.2l-.25-.35-.4-.1q-.4 0-.65.3h-.05m2.95-1.1q-.45.3-.4.85l.05.1.3.3.1.05-.1-.05-.3-.3-.05-.1q-.05-.55.4-.85m-2.1-.6l.35.1.4-.05.35-.3-.25-.15-.45-.05-.4.35h-.15l.15.1.25.25.2.05h.15l.45-.1.1-.1-.1.1-.45.1h-.15l-.2-.05-.25-.25m1.2.15l.05-.1-.1.05.05.05-.1.15-.15.25-.4-.2-.1-.05h-.1l-.1-.05.1.05h.1l.1.05.4.2.15-.25.1-.15m-.65.2l.2.05.35-.1-.35.1-.2-.05"/><path fill="url(#b)" d="M8.3 3.35l-.15-.1h.15l.4-.35.45.05.25.15-.35.3-.4.05-.35-.1"/><path fill="url(#c)" d="M11.65 4.2q.65-.05 1.2.3l.5.25q-.7.65.05 2l1.1 1.15.3.15-1.15.95-.3.35-.15.2v.15l.1.5.05.1.45.75.6.65-.1.1-.25.4-.05.05-.35.45q-.5.55-.7 1.2l-.1.8v.15l-.75 1.2-.65 1.3-.5.95-.15.15-.25.5-.1.3-.3 1.5q-.1.65.05 1.3l.05.05v1.2q.05.75-.25 1.4-.35.8.2 1.15l.7.15q.75-.15 1-.75l.8.8q.3.25.7.3.85.05 1.15-.4h.05l.9.1.1-.05.15 1.15v.1l.1.45-.05.2q-.3.4-.85.4-.6.05-.9-.3l-.35 1q-.4.45-1.2.4l-1.15-.3-.5-.35-.25-.35-.95-.3q-.7-.4-.4-1.15l.35-1.65.1-3.9-.05-.5-.15-.45-.15-.75-.2.5L9 25.8l-.35.7-1.25.2-.3.1-1.15.5-1.45.1q-.6 0-.7-.3l-.85.1q-.45-.05-.6-.3l-.4-.1q-.4-.45-.05-.9.45-.5 1.3-.35l.4-.05 1.2-.55q.6-.35.65-1l.05-.05.1-2.8-.1-.65-.15-.6-.05-.1-.15-.55-.05-.5v-.05l-.45-.7-.55-1.1-.3-.75-.1-.4-.05-1.05v-.05l.25-.95-.35-1.35-.05-.85q0-.55.15-1.15v-.05l-.4-.55v-.1l-.15-.4-.85-1L2 8l-.05-.05.95-1.25.95-1q.55-.4 1.2-.3l-.2.35-.05.5.05.25.5-.35h.05l-.2.3-.05.5.25.45.45.2h.1L7.5 9.85l.35.4.85-1.4.3-.35.15-.1.2-.3H10l.7-.3.35-.35.15-.5-.1-.5-.35-.35-.35-.2.35-.05.3.05-.3-.45-.3-.2q.2-.05.35-.15l.45-.35.3-.35.1-.2m-1 5.25q-.45.3-.55.55-.1.35.45.75l.35-.7q.3-.75-.25-.6m.7 2.3l-.05.15-.05.05-.25.9.5-.1.05-.05q.5-.4.15-.7l-.35-.25M3.9 8.9l-.25 1.35.25-1.35m.55.8q.15.35 1.3.65l.2-.6q.15-.85-.95-.8-.7.35-.55.75m.75 2.5l.25.35q.25.3.75.3 1.95 0 1.7-.8l-.2-.3-.4-.45q-1.7-1.65-2.1.3v.05l-.1.2.05.25.05.1m4.65-.8v-.05q-.55-.75-.7-.4l-.1.4-.05.25v.2h.45l.45-.25h.05l-.1-.15m-.15 1.8h-.15q-.8-.15-1.45.3h-.05q-1.4.95-1.95 2.3l-.05.1.55.1 1.5.6q0 .4.4.4h.3q1.5-.1 2.75-1.65l.15-.2-.05-.2q-.2-1.4-1.95-1.75m-2.45 8.45v-.05q-.25-.4-.55-.1l-.2.2q-.65.7-.15 1.65l.55.8q.9-.55.75-1.55l-.4-.95m-4.9 4.65q-.15.4 0 .6-.15-.2 0-.6m1.6.3l-.15.5.15-.5m9.95 1.15l.15.25-.15-.25m-3.25.05q-.15.35-.05.6-.1-.25.05-.6"/><path fill="url(#d)" d="M13.35 4.75l.25.15 1.2.85.45.7.1.35 1.3.8.4.4-2.25.05-.3-.15-1.1-1.15q-.75-1.35-.05-2"/><path fill="url(#e)" d="M17.05 8l.5.65.4 1.15.05.8-.1.75q-1.1-.15-2.2.7l-.3.25q-.7.8.05 1.75l.15.15 1.05.85.8.15-.15.4-.2.3-.25.25v.05l.3 1.15.05.65-.05.45-.1.25-.6 1.1-.65 1.2-.3.7v.05l.7 1.05.1.35-.25.95q.65-.35.8.35.1.55-.3.9l-.95.65-.1.05-.9-.1h-.05q-.3.45-1.15.4-.4-.05-.7-.3l-.8-.8q-.25.6-1 .75l-.7-.15q-.55-.35-.2-1.15.3-.65.25-1.4v-1.2l-.05-.05q-.15-.65-.05-1.3l.3-1.5.1-.3.25-.5.15-.15.5-.95.65-1.3.75-1.2v-.15l.1-.8q.2-.65.7-1.2l.35-.45.05-.05.25-.4.1-.1-.6-.65-.45-.75-.05-.1-.1-.5v-.15l.15-.2.3-.35 1.15-.95L17.05 8m-2.3 4.05l-.35-.35.35.35M11.2 23.9q.05.65.55 1.15l.15.2-.15-.2q-.5-.5-.55-1.15m4.95-14.25q-.15-.3-.65-.35-1.35.45-.55 1.05l.5.3.4.15.55.15v-.5l-.25-.8m-.3 7.75q-.15-.45-.95-.6-.45-.15-.55.6l-.15.3q-.05.35.3.65l.1.05.25.2q.5.2.8-.2l.15-.25.05-.75m-2.3 1.95l-.15-.45q-.3-.45-.9-.15l-.5.4-.5.75q-.1.65.9 1.25 1.3.75 1.25-.9l-.1-.9m2.25 5.1l.25-.35-.25.35m-2.85-.1l.8.7.8.9-.8-.9-.8-.7"/><path fill="url(#f)" d="M16.15 9.65l.25.8v.5l-.55-.15-.4-.15-.5-.3q-.8-.6.55-1.05.5.05.65.35"/><path fill="url(#g)" d="M6.3 5v.05l.4-.1h.5l.25.1-.2.95-.05.55.05.5.25.45.25-.3.15-.2.25-.35.6-1.15.05-.05.05.25.3.4 1-.1.25-.1.35.2.35.35.1.5-.15.5-.35.35-.7.3h-.65l-.2.3-.15.1-.3.35-.85 1.4-.35-.4L5.95 7.6h-.1l-.45-.2-.25-.45.05-.5.2-.3.05-.05v-.05l.7-.7L6.3 5"/><path fill="url(#h)" d="M10.65 9.45q.55-.15.25.6l-.35.7q-.55-.4-.45-.75.1-.25.55-.55"/><path fill="url(#i)" d="M11.35 11.75l.35.25q.35.3-.15.7l-.05.05-.5.1.25-.9.05-.05.05-.15"/><path fill="url(#j)" d="M9.85 11.4l.1.15H9.9l-.45.25H9v-.2l.05-.25.1-.4q.15-.35.7.4v.05"/><path fill="url(#k)" d="M9.7 13.2q1.75.35 1.95 1.75l.05.2-.15.2Q10.3 16.9 8.8 17h-.3q-.4 0-.4-.4L6.6 16l-.55-.1.05-.1q.55-1.35 1.95-2.3h.05q.65-.45 1.45-.3h.15"/><path fill="url(#l)" d="M17.9 11.35l-.05.25-.05.15v1.6l-.35 1.85-.8-.15-1.05-.85-.15-.15q-.75-.95-.05-1.75l.3-.25q1.1-.85 2.2-.7"/><path fill="url(#m)" d="M4.45 9.7q-.15-.4.55-.75 1.1-.05.95.8l-.2.6q-1.15-.3-1.3-.65"/><path fill="url(#n)" d="M1.3 10.9l.25-2.05.3-.75.1-.15L2 8l.25.2.85 1 .15.4V9.9q-.25 1.55-1.95 1"/><path fill="url(#o)" d="M1.3 10.9q1.7.55 1.95-1v-.2l.4.55v.05q-.15.6-.15 1.15l.05.85.35 1.35-.25.95v.05l.05 1.05.1.4.3.75.55 1.1V18l-.25.55q-.2.35-.25.75l-.05.5.3.55.1.3.05.1.15 1.05v.25q.35.4.15 1 .35.25.15.85-.1.4-.8.65l-.05.1q-.35.75-1.05.65l-.7-.15q-.65-.15-.95-.75-.25-.6-.2-1.3L.7 23l-.25-.15-.3-.3-.1-.3v-.5l.4-1 .2-.25.35-.75.05-.3.05-2.05.55-.35.4-.7v-.05l.05-.15q.15-.65-.05-1.05l-.5-.5-.45-.15.1-1.2.1-.5-.15-.2-.05-.1-.05-.45.25-1.1m0 1.85l.1-.3.25-.5-.25.5-.1.3m1.45 11.1l.95-.1q-.1-1.1.8-.85l.35.15-.35-.15q-.9-.25-.8.85h.05q.6.3.45.8.15-.5-.45-.8H3.7l-.95.1m.95-1.9l.2-.15h.6l.05.05.15.2-.15-.2-.05-.05h-.6l-.2.15m-1.95-.1l.1.4-.1.45-.05.1-.45.3.45-.3.05-.1.1-.45-.1-.4"/><path fill="url(#p)" d="M1.1 17.4v-2.95l.45.15.5.5q.2.4.05 1.05l-.05.15v.05l-.4.7-.55.35"/><path fill="url(#q)" d="M5.2 12.2l-.05-.1-.05-.25.1-.2v-.05q.4-1.95 2.1-.3l.4.45.2.3q.25.8-1.7.8-.5 0-.75-.3l-.25-.35"/><path fill="url(#r)" d="M7.25 21.65l.4.95q.15 1-.75 1.55l-.55-.8q-.5-.95.15-1.65l.2-.2q.3-.3.55.1v.05"/><path fill="url(#s)" d="M15.85 17.4l-.05.75-.15.25q-.3.4-.8.2l-.25-.2-.1-.05q-.35-.3-.3-.65l.15-.3q.1-.75.55-.6.8.15.95.6"/><path fill="url(#t)" d="M13.55 19.35l.1.9q.05 1.65-1.25.9-1-.6-.9-1.25l.5-.75.5-.4q.6-.3.9.15l.15.45"/><path fill="none" stroke="#162D44" stroke-width=".05" stroke-linecap="round" stroke-miterlimit="3" d="M5.8 4.55q-.15-.1.1-.3l.2-.15.4-.3.05-.1.2-.4-.1-.4-.15-.15q-.15-.25.1-.45.2-.2.45-.15l.2-.05.05-.35.05-.2.35-.35.25-.2.4-.4.45-.35.45-.25L9 .5l-.1.55.4-.3h.5l.4.2.45.3.3.25.4.25.45.3.25.45.05.5-.1.5-.35.7-.1.2-.3.35-.45.35q-.15.1-.35.15l-.1-.05-.3-.3-.05-.1q-.05-.55.4-.85m2.95.8l.25.15 1.2.85.45.7.1.35 1.3.8.4.4.5.65.4 1.15.05.8-.1.75-.05.25-.05.15v1.6l-.35 1.85-.15.4-.2.3m-.25.25v.05m.3 2.25l-.1.25m-11.7 1.15l-.05-.1m-.2-1.05v-.05m-.45-.7V18m-.25 2.35l.1.3.05.1m-3.5-1.3l.05-2.05v-2.95l.1-1.2.1-.5-.15-.2-.05-.1-.05-.45.25-1.1.25-2.05.3-.75.1-.15M6.3 5v.05l.4-.1h.5l.25.1m1.35.4l.05.25.3.4 1-.1.25-.1.35-.05.3.05-.3-.45-.3-.2m-.05.65l.35.2.35.35.1.5-.15.5-.35.35-.7.3h-.65l-.2.3-.15.1-.3.35-.85 1.4-.35-.4M5.95 7.6h-.1l-.45-.2-.25-.45.05-.5.2-.3.05-.05m7.9 3.25l-.15.2v.15l.1.5.05.1.45.75.6.65.35.35m-.35-.35l-.1.1-.25.4-.05.05m-1.15 2.45v.15m-1.9 3.45l-.15.15m-.25.5l-.1.3M8.3 3.35l-.15-.1h.15l.4-.35.45.05.25.15-.35.3-.4.05-.35-.1.25.25.2.05h.15l.45-.1.1-.1.1-.05-.05.1-.1.15-.15.25-.4-.2-.1-.05h-.1l-.1-.05m.85.05l-.35.1-.2-.05m-5.2 10.9v.05m0-4.4v.05m-2 1.65l-.25.5-.1.3"/><path fill="none" stroke="#682302" stroke-width=".05" stroke-linecap="round" stroke-miterlimit="3" d="M17.1 15.9l-.25.25m0 .05l.3 1.15.05.65-.05.45m-.1.25l-.6 1.1-.65 1.2-.3.7m-5.9 3.6l.1-3.9-.05-.5-.15-.45-.15-.75-.2.5L9 25.8m-3.5-1.9l.1-2.8-.1-.65-.15-.6m-.05-.1l-.15-.55-.05-.5m0-.05l-.45-.7m0 .05l-.25.55q-.2.35-.25.75l-.05.5.3.55m.15.4l.15 1.05M.65 20.5l.35-.75.05-.3M14 12.25l-.35.45q-.5.55-.7 1.2l-.1.8m0 .15l-.75 1.2-.65 1.3-.5.95m-.15.15l-.25.5m-.1.3l-.3 1.5q-.1.65.05 1.3m-6.55-11.8L3.9 8.9m-.25 1.4q-.15.6-.15 1.15l.05.85.35 1.35-.25.95m0 .05l.05 1.05.1.4.3.75.55 1.1"/><path fill="none" stroke="#712704" stroke-width=".05" stroke-linecap="round" stroke-miterlimit="3" d="M7.5 9.85L5.95 7.6"/><path fill="none" stroke="#843D1E" stroke-width=".05" stroke-linecap="round" stroke-miterlimit="3" d="M5.05 5.4l.05-.1.7-.75.1.05.35.35.05.05m1.15.05h.05q.25-.3.65-.3l.4.1.25.35v.25l-.05.05-.6 1.15L7.9 7l-.15.2-.25.3-.25-.45-.05-.5.05-.55.2-.95m-2.1 1.1l-.5.35-.05-.25.05-.5.2-.35m.4.7l-.1.05m.1-.05v-.05l.7-.7L6.3 5"/><path fill="none" stroke="#7798A8" stroke-width=".05" stroke-linecap="round" stroke-miterlimit="3" d="M11.65 4.2q.65-.05 1.2.3M1.95 7.95L2.9 6.7l.95-1q.55-.4 1.2-.3"/><path fill="none" stroke="#7C878C" stroke-width=".05" stroke-linecap="round" stroke-miterlimit="3" d="M12.85 4.5l.5.25"/><path fill="none" stroke="#3976B3" stroke-width=".05" stroke-linecap="round" stroke-miterlimit="3" d="M15.5 21.7v.05l.7 1.05.1.35-.25.95q.65-.35.8.35.1.55-.3.9l-.95.65.15 1.15v.1l.1.45-.05.2q-.3.4-.85.4-.6.05-.9-.3l-.35 1q-.4.45-1.2.4l-1.15-.3-.5-.35-.25-.35-.95-.3q-.7-.4-.4-1.15l.35-1.65m-.6.5l-.35.7-1.25.2-.3.1-1.15.5-1.45.1q-.6 0-.7-.3l-.85.1q-.45-.05-.6-.3l-.4-.1q-.4-.45-.05-.9.45-.5 1.3-.35l.4-.05 1.2-.55q.6-.35.65-1l.05-.05m-.8-2.1v.25q.35.4.15 1 .35.25.15.85-.1.4-.8.65l-.05.1q-.35.75-1.05.65l-.7-.15q-.65-.15-.95-.75-.25-.6-.2-1.3L.7 23l-.25-.15-.3-.3-.1-.3v-.5l.4-1 .2-.25m9.55 1.55l.05.05v1.2q.05.75-.25 1.4-.35.8.2 1.15l.7.15q.75-.15 1-.75l-.15-.2q-.5-.5-.55-1.15m-9.95-.8l.45-.3.05-.1.1-.45-.1-.4m2.95.2l-.15-.2-.05-.05h-.6l-.2.15m1.15 1.1l-.35-.15q-.9-.25-.8.85h.05q.6.3.45.8m-.5-.8l-.95.1m13.3.25l-.25.35m-1.25 1.5h.05l.9.1.1-.05m-3.7-.75l.8.8q.3.25.7.3.85.05 1.15-.4l-.8-.9-.8-.7M10.6 28.4q-.1-.25.05-.6m3.4.2l-.15-.25M3.8 27.1l.15-.5m-1.6.3q-.15-.2 0-.6"/></svg>