<svg xmlns="http://www.w3.org/2000/svg" viewBox="0 0 39.4 46.5" width="39.4" height="46.5"><defs><radialGradient gradientUnits="userSpaceOnUse" r="819.2" cx="0" cy="0" spreadMethod="pad" gradientTransform="matrix(.004 0 0 .004 36.75 3.85)" id="a"><stop offset="0" stop-color="#fff"/><stop offset=".42" stop-color="#7E0000"/><stop offset="1"/></radialGradient><radialGradient gradientUnits="userSpaceOnUse" r="819.2" cx="0" cy="0" fx="87942.4" fy="0" spreadMethod="repeat" gradientTransform="matrix(.012 0 0 .013 29 3.75)" id="b"><stop offset=".02" stop-color="#006B00"/><stop offset=".318" stop-color="#660"/><stop offset=".722" stop-color="#330"/><stop offset=".886" stop-color="#186A00"/><stop offset="1" stop-color="#004D00"/></radialGradient><radialGradient gradientUnits="userSpaceOnUse" r="819.2" cx="0" cy="0" spreadMethod="pad" gradientTransform="matrix(.046 0 0 .024 18.15 12.25)" id="c"><stop offset=".204" stop-color="#1C0000"/><stop offset=".537" stop-color="#f00"/><stop offset=".808" stop-color="#7E0000"/><stop offset="1"/></radialGradient><radialGradient gradientUnits="userSpaceOnUse" r="819.2" cx="0" cy="0" spreadMethod="pad" gradientTransform="matrix(.005 0 0 .01 29.85 19.45)" id="d"><stop offset="0" stop-color="#fff"/><stop offset="1"/></radialGradient><radialGradient gradientUnits="userSpaceOnUse" r="819.2" cx="0" cy="0" spreadMethod="pad" gradientTransform="matrix(.027 0 0 .013 18.55 22.35)" id="e"><stop offset=".384" stop-color="#1C0000"/><stop offset=".808" stop-color="#7E0000"/><stop offset="1"/></radialGradient><radialGradient gradientUnits="userSpaceOnUse" r="819.2" cx="0" cy="0" spreadMethod="pad" gradientTransform="matrix(.002 0 0 .008 25 19.75)" id="f"><stop offset="0" stop-color="#fff"/><stop offset="1"/></radialGradient><radialGradient gradientUnits="userSpaceOnUse" r="819.2" cx="0" cy="0" spreadMethod="pad" gradientTransform="matrix(.004 0 0 .008 20.65 19.4)" id="g"><stop offset="0" stop-color="#fff"/><stop offset="1"/></radialGradient><radialGradient gradientUnits="userSpaceOnUse" r="819.2" cx="0" cy="0" spreadMethod="pad" gradientTransform="matrix(.003 0 0 .005 21.1 25.15)" id="h"><stop offset="0" stop-color="#fff"/><stop offset="1"/></radialGradient><radialGradient gradientUnits="userSpaceOnUse" r="819.2" cx="0" cy="0" spreadMethod="pad" gradientTransform="matrix(.004 .001 -.003 .009 30.1 26.1)" id="i"><stop offset="0" stop-color="#fff"/><stop offset="1"/></radialGradient><radialGradient gradientUnits="userSpaceOnUse" r="819.2" cx="0" cy="0" spreadMethod="pad" gradientTransform="matrix(.036 -.002 0 .008 20.7 33.45)" id="j"><stop offset=".02" stop-color="#006B00"/><stop offset=".318" stop-color="#660"/><stop offset=".722" stop-color="#330"/><stop offset=".886" stop-color="#186A00"/><stop offset="1" stop-color="#004D00"/></radialGradient><radialGradient gradientUnits="userSpaceOnUse" r="819.2" cx="0" cy="0" spreadMethod="pad" gradientTransform="matrix(.008 0 0 .009 35.75 37.7)" id="k"><stop offset=".02"/><stop offset=".384" stop-color="#660"/><stop offset=".518" stop-color="#330"/><stop offset="1" stop-color="#630"/></radialGradient><radialGradient gradientUnits="userSpaceOnUse" r="819.2" cx="0" cy="0" spreadMethod="pad" gradientTransform="matrix(.006 0 0 .007 34.7 39.95)" id="l"><stop offset=".02"/><stop offset=".384" stop-color="#660"/><stop offset=".518" stop-color="#330"/><stop offset="1" stop-color="#630"/></radialGradient><radialGradient gradientUnits="userSpaceOnUse" r="819.2" cx="0" cy="0" spreadMethod="pad" gradientTransform="matrix(.003 0 0 .005 24.55 27.3)" id="m"><stop offset="0" stop-color="#fff"/><stop offset="1"/></radialGradient><radialGradient gradientUnits="userSpaceOnUse" r="819.2" cx="0" cy="0" spreadMethod="pad" gradientTransform="matrix(.007 0 0 .008 24.8 39.65)" id="n"><stop offset=".02"/><stop offset=".384" stop-color="#660"/><stop offset=".518" stop-color="#330"/><stop offset="1" stop-color="#630"/></radialGradient><radialGradient gradientUnits="userSpaceOnUse" r="819.2" cx="0" cy="0" spreadMethod="pad" gradientTransform="matrix(.007 0 0 .008 20.65 40)" id="o"><stop offset=".02"/><stop offset=".384" stop-color="#660"/><stop offset=".518" stop-color="#330"/><stop offset="1" stop-color="#630"/></radialGradient><radialGradient gradientUnits="userSpaceOnUse" r="819.2" cx="0" cy="0" spreadMethod="pad" gradientTransform="matrix(.004 0 0 .004 30.7 36.9)" id="p"><stop offset=".02"/><stop offset=".384" stop-color="#660"/><stop offset=".518" stop-color="#330"/><stop offset="1" stop-color="#630"/></radialGradient><radialGradient gradientUnits="userSpaceOnUse" r="819.2" cx="0" cy="0" spreadMethod="pad" gradientTransform="matrix(.008 0 0 .009 28.95 40)" id="q"><stop offset=".02"/><stop offset=".384" stop-color="#660"/><stop offset=".518" stop-color="#330"/><stop offset="1" stop-color="#630"/></radialGradient><radialGradient gradientUnits="userSpaceOnUse" r="819.2" cx="0" cy="0" spreadMethod="pad" gradientTransform="matrix(.004 0 0 .005 27.6 42.85)" id="r"><stop offset=".02"/><stop offset=".384" stop-color="#660"/><stop offset=".518" stop-color="#330"/><stop offset="1" stop-color="#630"/></radialGradient><radialGradient gradientUnits="userSpaceOnUse" r="819.2" cx="0" cy="0" spreadMethod="pad" gradientTransform="matrix(.009 0 0 .01 8.1 4.3)" id="s"><stop offset=".02" stop-color="#006B00"/><stop offset=".318" stop-color="#660"/><stop offset=".722" stop-color="#330"/><stop offset=".886" stop-color="#186A00"/><stop offset="1" stop-color="#004D00"/></radialGradient><radialGradient gradientUnits="userSpaceOnUse" r="819.2" cx="0" cy="0" spreadMethod="pad" gradientTransform="matrix(.004 0 0 .004 2.7 4.55)" id="t"><stop offset="0" stop-color="#fff"/><stop offset=".42" stop-color="#7E0000"/><stop offset="1"/></radialGradient><radialGradient gradientUnits="userSpaceOnUse" r="819.2" cx="0" cy="0" spreadMethod="pad" gradientTransform="matrix(.003 -.001 .002 .009 10.85 20.45)" id="u"><stop offset="0" stop-color="#fff"/><stop offset="1"/></radialGradient><radialGradient gradientUnits="userSpaceOnUse" r="819.2" cx="0" cy="0" spreadMethod="pad" gradientTransform="matrix(.004 -.001 .002 .011 5 22.1)" id="v"><stop offset="0" stop-color="#fff"/><stop offset="1"/></radialGradient><radialGradient gradientUnits="userSpaceOnUse" r="819.2" cx="0" cy="0" spreadMethod="pad" gradientTransform="matrix(.004 -.003 .003 .006 3.05 26.25)" id="w"><stop offset="0" stop-color="#fff"/><stop offset="1"/></radialGradient><radialGradient gradientUnits="userSpaceOnUse" r="819.2" cx="0" cy="0" spreadMethod="pad" gradientTransform="matrix(.003 0 0 .006 10.1 26.05)" id="x"><stop offset="0" stop-color="#fff"/><stop offset="1"/></radialGradient><radialGradient gradientUnits="userSpaceOnUse" r="819.2" cx="0" cy="0" spreadMethod="pad" gradientTransform="matrix(.004 0 0 .008 17.9 18.9)" id="y"><stop offset="0" stop-color="#fff"/><stop offset="1"/></radialGradient><radialGradient gradientUnits="userSpaceOnUse" r="819.2" cx="0" cy="0" spreadMethod="pad" gradientTransform="matrix(.003 0 0 .007 14.05 18.8)" id="z"><stop offset="0" stop-color="#fff"/><stop offset="1"/></radialGradient><radialGradient gradientUnits="userSpaceOnUse" r="819.2" cx="0" cy="0" spreadMethod="pad" gradientTransform="matrix(.002 0 0 .005 13.75 26.25)" id="A"><stop offset="0" stop-color="#fff"/><stop offset="1"/></radialGradient><radialGradient gradientUnits="userSpaceOnUse" r="819.2" cx="0" cy="0" spreadMethod="pad" gradientTransform="matrix(.002 0 0 .005 17 26.65)" id="B"><stop offset="0" stop-color="#fff"/><stop offset="1"/></radialGradient><radialGradient gradientUnits="userSpaceOnUse" r="819.2" cx="0" cy="0" spreadMethod="pad" gradientTransform="matrix(.007 0 0 .008 14.9 40.1)" id="C"><stop offset=".02"/><stop offset=".384" stop-color="#660"/><stop offset=".518" stop-color="#330"/><stop offset="1" stop-color="#630"/></radialGradient><radialGradient gradientUnits="userSpaceOnUse" r="819.2" cx="0" cy="0" spreadMethod="pad" gradientTransform="matrix(.004 0 0 .004 3.4 36.35)" id="D"><stop offset=".02"/><stop offset=".384" stop-color="#660"/><stop offset=".518" stop-color="#330"/><stop offset="1" stop-color="#630"/></radialGradient><radialGradient gradientUnits="userSpaceOnUse" r="819.2" cx="0" cy="0" spreadMethod="pad" gradientTransform="matrix(.007 0 0 .008 3.8 39.7)" id="E"><stop offset=".02"/><stop offset=".384" stop-color="#660"/><stop offset=".518" stop-color="#330"/><stop offset="1" stop-color="#630"/></radialGradient><radialGradient gradientUnits="userSpaceOnUse" r="819.2" cx="0" cy="0" spreadMethod="pad" gradientTransform="matrix(.006 0 0 .007 10.5 40.1)" id="F"><stop offset=".02"/><stop offset=".384" stop-color="#660"/><stop offset=".518" stop-color="#330"/><stop offset="1" stop-color="#630"/></radialGradient><radialGradient gradientUnits="userSpaceOnUse" r="819.2" cx="0" cy="0" spreadMethod="pad" gradientTransform="matrix(.003 0 0 .004 4.55 42.65)" id="G"><stop offset=".02"/><stop offset=".384" stop-color="#660"/><stop offset=".518" stop-color="#330"/><stop offset="1" stop-color="#630"/></radialGradient></defs><path fill="#900" d="M34.25 1.5L31.9 4.25l-.05.05-.3-.05 2.5-2.75.05-.1.1.05.05.05m-1.5 2.75l.05.05q-.4 1.2-1.5.95l-1.2-.35-.4-.3-.45-.25.25.2.05.1v.1l-.05.1h-.15l-.45-.65q-1.85-.95-3.9-.85l-.05-.05.05-.05V3.2h.05l.15-.15q2.8.05 5.2 1.55l1.15.4q.75.05 1.05-.75V4.2l.15.05m.7 1.1h.15v.55h-.15v-.55m-8-2.55l-.3.2-1.45 1.25q-.65.5-.75 1.3l-.05.05h-.1q-.15-.9.6-1.45l1.65-1.45v-.05l.05-.05.15-.1.05-.05.2.1-.05.15v.1m-1.65.25l-.05.05-.7.15-.85 1.45-.05.25-.05.85h-.15q-.25-1.05.25-1.85V2.3l.3-.25h.15l.05.1-.3.3.05 1.25.75-.85.6.15v.05m-2 .4l.05.05-1.05 1.65v.05l-.2-.1.9-1.6.1-.15.2.1m-9.25.75l.3.05.75 1.6V6l-.05.3v.05l-.1-.05-.05-.05V6l-.05-.05-.15-.25-.3-.8-.15-.3-.25-.3.05-.1m-1.75.15l.05-.05.1.05.5.3.45.55.15.15v.15l-.05.05h.05q.55.1 1 .45l.1 1.05-.05.05v.05h-.15l-.1-.85v-.1q-.65-.5-1.5-.55L8.8 5.6l-.15-1.1.1-.2.1.05.05.85.05.05 2.85.25-.95-.85-.05-.25v-.05m-4.65-2.1q.9.2 1.4 1.05v.05l.05.4.2.5.3.15.05.1-.05.05h-.4v.8l-.05.1-.3-.05.05-.05.05-.1.05-1.05-.15-.75L6.1 2.3l.05-.05"/><path fill="url(#a)" d="M37.65 6.55l-1-1q-.55.55-1.3.7-1.7-.8-1-2.85v-.95l.4-1.05.1-.15.6-.05 2.35.05.1.1q1 .75 1.35 2.25.6 2.4-1.55 2.9l-.05.05"/><path fill="url(#b)" d="M37.65 6.55l.15.7q.05.6-3.25.05l-.5-.55q-.65-.6-1.45-.85l-1.5-.2q-1.9.25-3.45-.85-1.85-1.2-3.3-.55-.35.15-.2.85l.55 2-4.45-.4q-.25-1.4.2-2.9.7-2.25 2.6-2.35 1.95-.1 3.6 1.1 1.7 1.2 3.5 1.1 1.4-.1 1.7-1.7Q33.3.6 34.8.45h.1q1.6-1.2 2.95.75l-.05.05-2.35-.05-.6.05-.1.15-.4 1.05v.95q-.7 2.05 1 2.85.75-.15 1.3-.7l1 1m-3.4-5.05l-.05-.05-.1-.05-.05.1-2.5 2.75.3.05.05-.05 2.35-2.75m-.8 3.85v.55h.15v-.55h-.15m-.7-1.1l-.15-.05v.05q-.3.8-1.05.75l-1.15-.4Q28 3.1 25.2 3.05l-.15.15H25v.05l-.05.05.05.05q2.05-.1 3.9.85l.45.65h.15l.05-.1v-.1l-.05-.1-.25-.2.45.25.4.3 1.2.35q1.1.25 1.5-.95l-.05-.05m1.6 2.05l1-.05-1 .05M21.8 3.45l-.2-.1-.1.15-.9 1.6.2.1v-.05l1.05-1.65-.05-.05m2-.4V3l-.6-.15-.75.85-.05-1.25.3-.3-.05-.1h-.15l-.3.25v1.65q-.5.8-.25 1.85h.15l.05-.85.05-.25.85-1.45.7-.15.05-.05m1.65-.25v-.1l.05-.15-.2-.1-.05.05-.15.1-.05.05v.05L23.4 4.15q-.75.55-.6 1.45h.1l.05-.05q.1-.8.75-1.3L25.15 3l.3-.2"/><path fill="url(#c)" d="M20.25 6.75l4.45.4 1.65-.05q1.95-.15 3.25.85l3.1 2.15q1.55.95 2.2 3l.35 1.1-1.05-.7.1.35-.05 1.9-.55 1.3-.2-.1.3-1.35q.15-.95-.35-1.7l-1.8-1.6q-1.55-.9-3.35-.85-.7 0-1.1.75l-.3.5-.2.05q-.5.15-.7.75-.3-.4-1-.5l-.4 1.15q-1.15-.8-2.1-.3l-.05-.3-.45-1-1.55-.95v.35q-1.45-.7-2.05.45-.85-.9-1.5.15-1.6-.7-2.2.55l-.45-.35-2.05-.35v.4l-.2-.05q-1.55-.25-1.7 1.05l-.5-.15-.95.1v.15q-.6-2.3-1.85.35l-.3.9-.45-.5q-.5-.4-1.35-.5-1.2-.15-1.9.7l-.8.9.05 1.95H2.1q-.7.4-.9-.85-.35-1.85.65-2.6v.05l.1-.1v-.05l.45-.4h.05l2.2-2.25L7.5 9.3l1.55-.75 2.45-.75 3.05-.6h.05l4.35-.45h1.3m4.85 6L25 13l.1-.25m8.15-.75q.6.45.9 1.2l.05.3-.05-.3q-.3-.75-.9-1.2m-21.7-3.8l-.05-.4.05.4m-9.6 6l.05-.05.4-.4-.4.4-.05.05m0-.05H2h-.05"/><path fill="url(#d)" d="M26.9 12.7l.3-.5q.4-.75 1.1-.75 1.8-.05 3.35.85l1.8 1.6q.5.75.35 1.7l-.3 1.35V17l-1.1 2.6-1.45 2.3-1.8 1.75L27 25.2l.35-3.95-.6-8.2.15-.35"/><path fill="url(#e)" d="M26.9 12.7l-.15.35.6 8.2L27 25.2l2.15-1.55 1.8-1.75 1.45-2.3 1.1-2.6.2.05.55-1.3.05-1.9-.1-.35 1.05.7 1.05 2.65q.55 1.3-.4 4.65l-.15 4.15-.45 1.8-1.1 1.65-1.15 1.45-.25-.05.05-.25-.05.25-.15.5-.05.1-.55.85q-1.95 2.2-4.55.3-1.65-1.15-2.75.2l-.3.1q-1.65.35-2.25-1.35-.9 1.2-2.55.55-.7-.25-.85 0-.5.7-1.35.5l-2.3-.3-.5.35q-1.25 1.45-2.55-.2l-.6.6q-1.95.7-3.55-.45-.45 1.7-2.35.45-1.05-.65-1.4-1.75L4 30.3l1.95.85q.8.2 1.2-.55.45-.85.15-1.85-.4-1.55-1.4-1.9l-1.95-1.8q.4-.45.45-1.15l2.05 2.2 1.2 1.05-.2-2.1.15-6.7q.15-1.45-.45-2.55l-.45-.65.3-.9q1.25-2.65 1.85-.35l-.05.5q-.2 1.75.3 3.4l1.35 3.5q.75 1.6 1.75 2.85-.85-2.3-.8-4.9l-.05-3q-.05-1.1-.5-2.1l-.55-.35q.15-1.3 1.7-1.05l.2.05q-.1 1.95.2 3.9.3 1.8 1.3 3.4 1.1 1.7 1.85 3.6l.45-6.9-.2-1.85q-.25-1-.9-1.7l-.2-.15q.6-1.25 2.2-.55l-.35.7.05.3.25 2.9q.05 2 .75 3.85l1.2 3.85-.05-2.8q-.05-1.7.25-3.3l.1-.5q.3-1.7 0-3.4l-.35-1.3-.35-.45q.6-1.15 2.05-.45-.05 1.9-.5 3.75l-.55 4 .1 5.35.3-1.15 2.35-5.25.45-2.1q.15-1.4-.1-2.7.95-.5 2.1.3-.35 1.35-.4 2.7l-.25 8.4q.7-2.65 1.95-5.2l.45-1.85.05-3-.2-1.3-.2-.4q.2-.6.7-.75l.2-.05m-5 10.45l.2-.9-.45.8q-.85 1.9-1.3 4l-.45 3.3q1.15.15 1.35-.5.5-1.4.4-3-.1-1.95.25-3.7m10.55 6.05l1.35-7.05.05-1.85-2.55 3.35q-1.4 1.65-2.95 2.9l-2 1.35.15 1.75q.15 1.1.85 1.7.75.65 2.7.5 1.95-.1 2.2-1.65l.2-1q.4.5.4 1.05 0-.55-.4-1.05m3.45-11.5v3.8-3.8m-25.75 6.65l-1.3-1.85.5 8.25.75.15 1.05-.1q.65-.15.75-1.25v-1.5q-.25-2.15-1.75-3.7m7.85 4.2l-.4-.95-.65-1.2q-.4-.95-.4-1.95l-.1 6.1q.25.5.65.35l.9-.6q.35-.65 0-1.75m-5.8-1.95l.1 1.4.65 2.65 1.9-.1q.95-.15.8-1.35-.25-2.4-1.85-4.35-.9-1-1.4-2.25l-.2 4m12.15.5q-.8 1.55-.95 3.35l.95.9q1.25-.95 1.2-3.15l-.1-3.95-1.1 2.85"/><path fill="url(#f)" d="M24.6 14.15L25 13q.7.1 1 .5l.2.4.2 1.3-.05 3-.45 1.85q-1.25 2.55-1.95 5.2l.25-8.4q.05-1.35.4-2.7"/><path fill="url(#g)" d="M20.45 11.95v-.35l1.55.95.45 1 .05.3q.25 1.3.1 2.7l-.45 2.1-2.35 5.25-.3 1.15-.1-5.35.55-4q.45-1.85.5-3.75"/><path fill="url(#h)" d="M21.9 23.15q-.35 1.75-.25 3.7.1 1.6-.4 3-.2.65-1.35.5l.45-3.3q.45-2.1 1.3-4l.45-.8-.2.9"/><path fill="url(#i)" d="M32.45 29.2l-.2 1q-.25 1.55-2.2 1.65-1.95.15-2.7-.5-.7-.6-.85-1.7l-.15-1.75 2-1.35q1.55-1.25 2.95-2.9l2.55-3.35-.05 1.85-1.35 7.05"/><path fill="url(#j)" d="M35.3 27.45l.1.25.25 3.15-.2 2.95q-.55-2.85-2.75-1.55v.8l-.05 2.05.05 1.15.05.85-.6-.8q-1.4-1.55-3.1-2.15h-.1l-1.25-.3h-1.75v.05q.2 2.35-.25 4.65-1.1-1.95-2.6-3.1l-.75-.5q-1.45-.85-3.2-1.05l-.4 1.3-.1.2-.5 3.45q-.3-1.65-1.2-2.8-1.3-1.65-3.85-2.2l-.25 1.8-.35 1.4h-.05q-.5 1.7-1.45 3.25.15-3.45-1.6-5.8-.7.8-1 1.8l-.15 1.65L7.05 36l-.5-1.2q-1.1.4-.65 1.65l-1.5-1.8v-.05l-.65-1.65q-.1-1.05.45-2 .35 1.1 1.4 1.75 1.9 1.25 2.35-.45 1.6 1.15 3.55.45l.6-.6q1.3 1.65 2.55.2l.5-.35 2.3.3q.85.2 1.35-.5.15-.25.85 0 1.65.65 2.55-.55.6 1.7 2.25 1.35l.3-.1q1.1-1.35 2.75-.2 2.6 1.9 4.55-.3l.55-.85.05-.1.4-.45 1.15-1.45 1.1-1.65"/><path fill="url(#k)" d="M35.65 30.85q1.4.45 2.2 1.75 1.35 2.25.35 3.9-.75 1.15.05 2.55 1 1.85.05 3.95l-1.35 1.55.15-2.05q-.05-1.45-.45-2.7l.1-1.6q-.3-2.05-1.9-2.55l-.1-.55q-.2-1.35-1.25-1.85l-.8-.2v-.8q2.2-1.3 2.75 1.55l.2-2.95"/><path fill="url(#l)" d="M36.65 39.8l-.05.25-.55.9q-1.65 1.5-1 3.8-.8-2.45-.75-4.55 0-.7.4-1.3.35-.6-.2-1.25-.8-1-1.8-1.4l-.05-1.15 2.2.55q1.6.5 1.9 2.55l-.1 1.6"/><path fill="url(#m)" d="M24.35 27.1l1.1-2.85.1 3.95q.05 2.2-1.2 3.15l-.95-.9q.15-1.8.95-3.35"/><path fill="url(#n)" d="M26.8 38.25l-.35.85-3.3 4.3q-.6.9-.6 2-.05-1 .2-2.1l.35-1.35q.6-1.95.45-4l-.45-2.5q1.5 1.15 2.6 3.1.45-2.3.25-4.65l.65 1.1q.65 1.7.2 3.25"/><path fill="url(#o)" d="M18.65 35.4l.1-.2.4-1.3q1.75.2 3.2 1.05l.2 1.65q.45 1.8-.85 3.15-1 1-1 2.55-.05 1.95.4 3.8-1.15-1.65-1.3-3.85l-.15-3.5q-.05-1.85-1-3.35"/><path fill="url(#p)" d="M32.15 36.3q.5 2.05-.35 3.1l-.2.25-.85-1.25-1.35-1.55q.25-.8.05-1.75l-.4-.95q1.7.6 3.1 2.15"/><path fill="url(#q)" d="M31.6 39.65q.45 1 .4 2.2-.1 2.2-1.6 3.6l-.95.75q.2-1.7.05-3.4l-.2-1.15-.1-.3q-.45-1.15-1.2-1.85l-1.2-1.25q.45-1.55-.2-3.25l-.65-1.1v-.05h1.75q.5 1.55 1.55 2.85l.15.15 1.35 1.55.85 1.25"/><path fill="url(#r)" d="M29.15 41.7q-1.5.85-2.3 2.6l-.65 1.9q-.8-3.7 1.4-6.15l.4-.55q.75.7 1.2 1.85l-.05.35"/><path fill="url(#s)" d="M10.8 4.35v.05l.05.25.95.85-2.85-.25-.05-.05-.05-.85-.1-.05-.1.2.15 1.1 2.55.05q.85.05 1.5.55v.1l.1.85h.15V7.1l.05-.05-.1-1.05q-.45-.35-1-.45H12l.05-.05v-.15l-.15-.15-.45-.55-.5-.3-.1-.05-.05.05m1.75-.15l-.05.1.25.3.15.3.3.8.15.25.05.05v.25l.05.05.1.05V6.3l.05-.3v-.15l-.75-1.6-.3-.05M1.6 1.3l.6-.55q1.25-.9 2.85-.3 1.75.65 2.6 2.4.4.8 1.05.55 1.85-.8 3.8.05l.6.4q1.45 1.25 1.5 3.35h-.05l-3.05.6q-.3-2-2.6-1.8-1.25 1.55-2.45 0l-.25.85q-.8 1.6-2.7 1.5l-.55.1q-.65 0-.85-.6l.2-.4.9.4.8-.45.7-.6q.8-1.05.65-2.8-.05-1.1-.5-1.6Q3.45.9 1.7 1.45l-.1-.15m4.5 2.95Q6.65 5 6.45 6q.2-1-.35-1.75m.05-2l-.05.05 1.25 1.15.15.75-.05 1.05-.05.1-.05.05.3.05.05-.1v-.8h.4l.05-.05-.05-.1-.3-.15-.2-.5-.05-.4V3.3q-.5-.85-1.4-1.05"/><path fill="url(#t)" d="M1.7 1.45Q3.45.9 4.85 2.4q.45.5.5 1.6.15 1.75-.65 2.8l-.7.6-.8.45-.9-.4-.3-.2.1.6q-.65-.2-1.35-.8Q-.45 5.9.25 3.6q.4-1.35 1.3-2.3l.15.15"/><path fill="url(#u)" d="M8.85 13.9v-.15l.95-.1.5.15.55.35q.45 1 .5 2.1l.05 3q-.05 2.6.8 4.9-1-1.25-1.75-2.85L9.1 17.8q-.5-1.65-.3-3.4l.05-.5"/><path fill="url(#v)" d="M6.7 15.15l.45.65q.6 1.1.45 2.55l-.15 6.7.2 2.1-1.2-1.05-2.05-2.2-.5-.7q-1.25-1.6-1.5-3.75l-.15-1.75-.05-1.95.8-.9q.7-.85 1.9-.7.85.1 1.35.5l.45.5"/><path fill="url(#w)" d="M3.95 25.05l1.95 1.8q1 .35 1.4 1.9.3 1-.15 1.85-.4.75-1.2.55L4 30.3l-1.65-1.65Q1.15 27 .8 24.8l-.25-2.7 3 2.65.4.3"/><path fill="url(#x)" d="M10.15 24.35q1.5 1.55 1.75 3.7v1.5q-.1 1.1-.75 1.25l-1.05.1-.75-.15-.5-8.25 1.3 1.85"/><path fill="url(#y)" d="M16.9 12.55q.65-1.05 1.5-.15l.35.45.35 1.3q.3 1.7 0 3.4l-.1.5q-.3 1.6-.25 3.3l.05 2.8-1.2-3.85q-.7-1.85-.75-3.85l-.25-2.9-.05-.3.35-.7"/><path fill="url(#z)" d="M12.2 12.8v-.4l2.05.35.45.35.2.15q.65.7.9 1.7l.2 1.85-.45 6.9q-.75-1.9-1.85-3.6-1-1.6-1.3-3.4-.3-1.95-.2-3.9"/><path fill="url(#A)" d="M12.2 26.6l.2-4q.5 1.25 1.4 2.25 1.6 1.95 1.85 4.35.15 1.2-.8 1.35l-1.9.1L12.3 28l-.1-1.4"/><path fill="url(#B)" d="M18 28.55q.35 1.1 0 1.75l-.9.6q-.4.15-.65-.35l.1-6.1q0 1 .4 1.95l.65 1.2.4.95"/><path fill="url(#C)" d="M12.85 35.65l.25-1.8q2.55.55 3.85 2.2l-.15.15-.5.85q-.55 1.8-.4 3.75.15 2.8.65 5.5-1.3-.3-1.75-2.25l-1-5.9q-.3-1.45-.95-2.5"/><path fill="url(#D)" d="M2.95 39.8q-.65-1.7-.6-3.55.1-2.1 1.4-3.3l.65 1.65v.05q-.1 2.05-.85 3.9l-.6 1.25"/><path fill="url(#E)" d="M2.95 39.8l.6-1.25q.75-1.85.85-3.9l1.5 1.8q-.45-1.25.65-1.65l.5 1.2-.15.1-.6.55-.2.15q-.6.5-.65 1.4 0 .85-.5 1.45l-1.55 1.4q-1.75 1.6-2.85 3.7-.1-1 .3-1.95l2.1-3"/><path fill="url(#F)" d="M8.4 36.3q.3-1 1-1.8 1.75 2.35 1.6 5.8.95-1.55 1.45-3.25h.05q.3 2.45-.7 4.45l-.75 1.1q-1 1.1-1.25 3.05-.85-1.5-.15-3.5.7-1.85-.25-3.55l-1-2.3"/><path fill="url(#G)" d="M4.95 39.65l.5.8q.3.55.25 1.2-.2 2.15-1.35 3.95.3-1.05-.05-2.1l-.9-2.45 1.55-1.4"/><path fill="none" stroke="#000" stroke-width=".05" stroke-linecap="round" stroke-miterlimit="3" d="M37.8 1.25l.1.05-.05-.1M33.5 17v-.05m-4.2 24.7l-.15.05q-1.5.85-2.3 2.6l-.65 1.9q-.8-3.7 1.4-6.15l.4-.55m-5.45 5.9l.05.3M1.55 1.3h.05m.35 12.85l-.1.1.1-.05v-.05l.45-.4m-.4.4h-.05m1.8 18.8q-1.3 1.2-1.4 3.3-.05 1.85.6 3.55m6.85 5.85l1 .8"/><path fill="none" stroke="#353300" stroke-width=".05" stroke-linecap="round" stroke-miterlimit="3" d="M35.3 27.45l.1.25.25 3.15q1.4.45 2.2 1.75 1.35 2.25.35 3.9-.75 1.15.05 2.55 1 1.85.05 3.95l-1.35 1.55.15-2.05q-.05-1.45-.45-2.7l-.05.25-.55.9q-1.65 1.5-1 3.8-.8-2.45-.75-4.55 0-.7.4-1.3.35-.6-.2-1.25-.8-1-1.8-1.4l.05.85-.6-.8q.5 2.05-.35 3.1l-.2.25q.45 1 .4 2.2-.1 2.2-1.6 3.6l-.95.75q.2-1.7.05-3.4l-.2-1.15-.1-.3q-.45-1.15-1.2-1.85l-1.2-1.25-.35.85-3.3 4.3q-.6.9-.6 2-.05-1 .2-2.1l.35-1.35q.6-1.95.45-4l-.45-2.5q1.5 1.15 2.6 3.1.45-2.3.25-4.65v-.05h1.75l1.25.3h.1q1.7.6 3.1 2.15m-23.75 0q.3-1 1-1.8 1.75 2.35 1.6 5.8.95-1.55 1.45-3.25h.05l.35-1.4.25-1.8q2.55.55 3.85 2.2.9 1.15 1.2 2.8l.5-3.45.1-.2.4-1.3q1.75.2 3.2 1.05l.75.5m-6.15.6l-.15.15-.5.85q-.55 1.8-.4 3.75.15 2.8.65 5.5-1.3-.3-1.75-2.25l-1-5.9q-.3-1.45-.95-2.5m-9.1-2.7q-.1-1.05.45-2M2.95 39.8l.6-1.25q.75-1.85.85-3.9v-.05l-.65-1.65m1.2 6.7q.5-.6.5-1.45.05-.9.65-1.4l.2-.15.6-.55m.15-.1l-.5-1.2q-1.1.4-.65 1.65l-1.5-1.8m5.4 11q-.85-1.5-.15-3.5.7-1.85-.25-3.55l-1-2.3-.15 1.65L7.05 36M3.4 41.05l.9 2.45q.35 1.05.05 2.1 1.15-1.8 1.35-3.95.05-.65-.25-1.2l-.5-.8-1.55 1.4q-1.75 1.6-2.85 3.7-.1-1 .3-1.95l2.1-3m19.4-4.85l.2 1.65q.45 1.8-.85 3.15-1 1-1 2.55-.05 1.95.4 3.8-1.15-1.65-1.3-3.85l-.15-3.5q-.05-1.85-1-3.35m-6.15 1.65q.3 2.45-.7 4.45l-.75 1.1q-1 1.1-1.25 3.05m25.85-14.8l-.2 2.95q-.55-2.85-2.75-1.55v.8l.8.2q1.05.5 1.25 1.85l.1.55q1.6.5 1.9 2.55l-.1 1.6m-3.95-3.55l-.05-1.15.05-2.05m-.05 2.05l2.2.55m-5.45 1.2q.25-.8.05-1.75l-.4-.95m-1.35-.3q.5 1.55 1.55 2.85l.15.15 1.35 1.55.85 1.25m-4.8-1.4q.45-1.55-.2-3.25l-.65-1.1"/><path fill="none" stroke="#3B3B00" stroke-width=".05" stroke-linecap="round" stroke-miterlimit="3" d="M37.85 1.2Q36.5-.75 34.9.45h-.1Q33.3.6 31.85 2q-.3 1.6-1.7 1.7-1.8.1-3.5-1.1-1.65-1.2-3.6-1.1-1.9.1-2.6 2.35-.45 1.5-.2 2.9m4.45.4l-.55-2q-.15-.7.2-.85 1.45-.65 3.3.55 1.55 1.1 3.45.85l1.5.2q.8.25 1.45.85l.5.55q3.3.55 3.25-.05l-.15-.7m-2.3-.3l-1 .05m-19.75.9q-.05-2.1-1.5-3.35l-.6-.4q-1.95-.85-3.8-.05-.65.25-1.05-.55Q6.8 1.1 5.05.45q-1.6-.6-2.85.3l-.6.55m.5 6.55q.2.6.85.6l.55-.1q1.9.1 2.7-1.5L6.45 6q.2-1-.35-1.75m5.4 3.55q-.3-2-2.6-1.8-1.25 1.55-2.45 0"/><path fill="none" stroke="#640000" stroke-width=".05" stroke-linecap="round" stroke-miterlimit="3" d="M37.8 1.25l-2.35-.05-.6.05-.1.15-.4 1.05v.95q-.7 2.05 1 2.85.75-.15 1.3-.7l1 1 .05-.05q2.15-.5 1.55-2.9-.35-1.5-1.35-2.25l-.1-.1m-36.1.2Q3.45.9 4.85 2.4q.45.5.5 1.6.15 1.75-.65 2.8l-.7.6-.8.45-.9-.4-.3-.2.1.6q-.65-.2-1.35-.8Q-.45 5.9.25 3.6q.4-1.35 1.3-2.3"/><path fill="none" stroke="#871313" stroke-width=".05" stroke-linecap="round" stroke-miterlimit="3" d="M20.25 6.75l4.45.4 1.65-.05q1.95-.15 3.25.85l3.1 2.15q1.55.95 2.2 3l.35 1.1 1.05 2.65q.55 1.3-.4 4.65l-.15 4.15-.45 1.8m-12.8-13.6q.95-.5 2.1.3L25 13l.1-.25m8.4 4.2l.3-1.35q.15-.95-.35-1.7l-1.8-1.6q-1.55-.9-3.35-.85-.7 0-1.1.75l-.3.5-.15.35.6 8.2L27 25.2l2.15-1.55 1.8-1.75 1.45-2.3 1.1-2.6m0-.05l.2.1.55-1.3.05-1.9-.1-.35-.05-.3q-.3-.75-.9-1.2m-6.35.7l-.2.05q-.5.15-.7.75l.2.4.2 1.3-.05 3-.45 1.85q-1.25 2.55-1.95 5.2l.25-8.4q.05-1.35.4-2.7M25 13q.7.1 1 .5m9.25.7l-1.05-.7m-1.35 16.75l-.05.25m.25.05l1.15-1.45 1.1-1.65m.6-5.95v-3.8M14.6 7.2h-.05l-3.05.6.05.4m8.7-1.45h-1.3l-4.35.45M2.4 13.75h.05l2.2-2.25L7.5 9.3l1.55-.75 2.45-.75m-1.2 6q.15-1.3 1.7-1.05l.2.05m2.5.3q.6-1.25 2.2-.55m1.5-.15q.6-1.15 2.05-.45M8.85 13.9q-.6-2.3-1.85.35l-.3.9M4.4 23.9q-.05.7-.45 1.15M4 30.3l.2.65m10.95 1l2.3.3q.85.2 1.35-.5.15-.25.85 0 1.65.65 2.55-.55m2.25 1.35l.3-.1m7.85-1.35l.05-.1.15-.5M2.4 13.75l-.4.4-.05.05-.1.1v-.05q-1 .75-.65 2.6.2 1.25.9.85"/><path fill="none" stroke="#5E5E5E" stroke-width=".05" stroke-linecap="round" stroke-miterlimit="3" d="M22.5 13.85l-.05-.3-.45-1-1.55-.95v.35q-.05 1.9-.5 3.75l-.55 4 .1 5.35.3-1.15 2.35-5.25.45-2.1q.15-1.4-.1-2.7m-.6 9.3q-.35 1.75-.25 3.7.1 1.6-.4 3-.2.65-1.35.5l.45-3.3q.45-2.1 1.3-4l.45-.8-.2.9m10.55 6.05l-.2 1q-.25 1.55-2.2 1.65-1.95.15-2.7-.5-.7-.6-.85-1.7l-.15-1.75 2-1.35q1.55-1.25 2.95-2.9l2.55-3.35-.05 1.85-1.35 7.05M10.3 13.8l-.5-.15-.95.1v.15l-.05.5q-.2 1.75.3 3.4l1.35 3.5q.75 1.6 1.75 2.85-.85-2.3-.8-4.9l-.05-3q-.05-1.1-.5-2.1l-.55-.35m1.9-1v-.4l2.05.35.45.35.2.15q.65.7.9 1.7l.2 1.85-.45 6.9q-.75-1.9-1.85-3.6-1-1.6-1.3-3.4-.3-1.95-.2-3.9m4.7-.25q.65-1.05 1.5-.15M6.7 15.15l.45.65q.6 1.1.45 2.55l-.15 6.7.2 2.1-1.2-1.05-2.05-2.2m-.45 1.15l1.95 1.8q1 .35 1.4 1.9.3 1-.15 1.85-.4.75-1.2.55L4 30.3l-1.65-1.65Q1.15 27 .8 24.8l-.25-2.7 3 2.65.4.3m-1.7-7.35l-.05-1.95.8-.9q.7-.85 1.9-.7.85.1 1.35.5l.45.5M2.25 17.7l.15 1.75q.25 2.15 1.5 3.75l.5.7m12.5-11.35l-.35.7.05.3.25 2.9q.05 2 .75 3.85l1.2 3.85-.05-2.8q-.05-1.7.25-3.3l.1-.5q.3-1.7 0-3.4l-.35-1.3-.35-.45m-8.25 11.95q1.5 1.55 1.75 3.7v1.5q-.1 1.1-.75 1.25l-1.05.1-.75-.15-.5-8.25 1.3 1.85m7.85 4.2q.35 1.1 0 1.75l-.9.6q-.4.15-.65-.35l.1-6.1q0 1 .4 1.95l.65 1.2.4.95m-5.8-1.95l.2-4q.5 1.25 1.4 2.25 1.6 1.95 1.85 4.35.15 1.2-.8 1.35l-1.9.1L12.3 28l-.1-1.4m12.15.5l1.1-2.85.1 3.95q.05 2.2-1.2 3.15l-.95-.9q.15-1.8.95-3.35"/><path fill="none" stroke="#1C0000" stroke-width=".05" stroke-linecap="round" stroke-miterlimit="3" d="M4.2 30.95q.35 1.1 1.4 1.75 1.9 1.25 2.35-.45 1.6 1.15 3.55.45l.6-.6q1.3 1.65 2.55.2l.5-.35"/><path fill="none" stroke="#140000" stroke-width=".05" stroke-linecap="round" stroke-miterlimit="3" d="M32.45 29.2q.4.5.4 1.05m-10.65.95q.6 1.7 2.25 1.35m.3-.1q1.1-1.35 2.75-.2 2.6 1.9 4.55-.3l.55-.85m.05-.1l.4-.45"/></svg>