<svg xmlns="http://www.w3.org/2000/svg" viewBox="0 0 64.0 49.3" width="64" height="49.3"><defs><radialGradient gradientUnits="userSpaceOnUse" r="819.2" cx="0" cy="0" fx="313.6" fy="0" spreadMethod="pad" gradientTransform="matrix(.019 .013 -.013 .019 15 10.1)" id="a"><stop offset="0" stop-color="#fcc"/><stop offset=".808" stop-color="#f90"/><stop offset="1"/></radialGradient><radialGradient gradientUnits="userSpaceOnUse" r="819.2" cx="0" cy="0" spreadMethod="pad" gradientTransform="matrix(.021 -.012 .012 .021 46 10.35)" id="b"><stop offset="0" stop-color="#fcc"/><stop offset=".808" stop-color="#f90"/><stop offset="1"/></radialGradient><radialGradient gradientUnits="userSpaceOnUse" r="819.2" cx="0" cy="0" spreadMethod="pad" gradientTransform="matrix(.005 -.003 .003 .005 49 11.25)" id="c"><stop offset="0" stop-color="#fcc"/><stop offset=".808" stop-color="#f90"/><stop offset="1"/></radialGradient><radialGradient gradientUnits="userSpaceOnUse" r="819.2" cx="0" cy="0" fx="99.2" fy="0" spreadMethod="pad" gradientTransform="matrix(.006 -.003 .003 .006 42.65 13.8)" id="d"><stop offset="0" stop-color="#fcc"/><stop offset=".808" stop-color="#f90"/><stop offset="1"/></radialGradient><radialGradient gradientUnits="userSpaceOnUse" r="819.2" cx="0" cy="0" spreadMethod="pad" gradientTransform="matrix(.004 0 0 .004 38.55 20.1)" id="e"><stop offset="0" stop-color="#fff"/><stop offset=".278" stop-color="#f00"/><stop offset=".71"/></radialGradient><radialGradient gradientUnits="userSpaceOnUse" r="819.2" cx="0" cy="0" fx="355.2" fy="0" spreadMethod="unknown" gradientTransform="matrix(.012 0 0 .012 29.55 25.45)" id="f"><stop offset="0" stop-color="#FFB0B0"/><stop offset=".369" stop-color="#f00"/><stop offset=".682" stop-color="#639"/><stop offset=".965" stop-color="#930"/></radialGradient><radialGradient gradientUnits="userSpaceOnUse" r="819.2" cx="0" cy="0" fx="1548.8" fy="0" spreadMethod="pad" gradientTransform="matrix(.02 0 0 .02 34.2 37.75)" id="g"><stop offset="0" stop-color="#FFB0B0"/><stop offset=".502" stop-color="#f00"/><stop offset="1" stop-color="#930"/></radialGradient><radialGradient gradientUnits="userSpaceOnUse" r="819.2" cx="0" cy="0" spreadMethod="pad" gradientTransform="matrix(.006 0 0 .006 42.35 26.9)" id="h"><stop offset="0" stop-color="#FFB0B0"/><stop offset=".502" stop-color="#f00"/><stop offset="1" stop-color="#930"/></radialGradient><radialGradient gradientUnits="userSpaceOnUse" r="819.2" cx="0" cy="0" spreadMethod="pad" gradientTransform="matrix(.007 0 0 .007 28.4 26.55)" id="i"><stop offset="0"/><stop offset=".376" stop-color="#900"/><stop offset=".859"/></radialGradient><radialGradient gradientUnits="userSpaceOnUse" r="819.2" cx="0" cy="0" spreadMethod="pad" gradientTransform="matrix(.005 0 0 .005 47.85 37.3)" id="j"><stop offset="0" stop-color="#FFB0B0"/><stop offset=".502" stop-color="#f00"/><stop offset="1" stop-color="#930"/></radialGradient><radialGradient gradientUnits="userSpaceOnUse" r="819.2" cx="0" cy="0" spreadMethod="pad" gradientTransform="matrix(.004 0 0 .004 43.65 40.7)" id="k"><stop offset="0" stop-color="#FFB0B0"/><stop offset=".502" stop-color="#f00"/><stop offset="1" stop-color="#930"/></radialGradient><radialGradient gradientUnits="userSpaceOnUse" r="819.2" cx="0" cy="0" spreadMethod="pad" gradientTransform="matrix(.002 0 0 .002 33.1 41)" id="l"><stop offset="0" stop-color="#FFB0B0"/><stop offset=".502" stop-color="#f00"/><stop offset="1" stop-color="#930"/></radialGradient><radialGradient gradientUnits="userSpaceOnUse" r="819.2" cx="0" cy="0" spreadMethod="pad" gradientTransform="matrix(.005 0 0 .005 21.7 17.85)" id="m"><stop offset="0" stop-color="#fff"/><stop offset=".278" stop-color="#f00"/><stop offset=".71"/></radialGradient><radialGradient gradientUnits="userSpaceOnUse" r="819.2" cx="0" cy="0" spreadMethod="pad" gradientTransform="matrix(.005 .003 -.003 .005 19.95 13.1)" id="n"><stop offset="0" stop-color="#fcc"/><stop offset=".808" stop-color="#f90"/><stop offset="1"/></radialGradient><radialGradient gradientUnits="userSpaceOnUse" r="819.2" cx="0" cy="0" spreadMethod="pad" gradientTransform="matrix(.007 0 0 .007 14.7 24.75)" id="o"><stop offset="0" stop-color="#FFB0B0"/><stop offset=".502" stop-color="#f00"/><stop offset="1" stop-color="#930"/></radialGradient><radialGradient gradientUnits="userSpaceOnUse" r="819.2" cx="0" cy="0" spreadMethod="pad" gradientTransform="matrix(.016 0 0 .016 18.5 33.05)" id="p"><stop offset="0" stop-color="#FFB0B0"/><stop offset=".502" stop-color="#f00"/><stop offset="1" stop-color="#930"/></radialGradient><radialGradient gradientUnits="userSpaceOnUse" r="819.2" cx="0" cy="0" spreadMethod="pad" gradientTransform="matrix(.004 0 0 .004 10.05 37.3)" id="q"><stop offset="0" stop-color="#FFB0B0"/><stop offset=".502" stop-color="#f00"/><stop offset="1" stop-color="#930"/></radialGradient><radialGradient gradientUnits="userSpaceOnUse" r="819.2" cx="0" cy="0" spreadMethod="pad" gradientTransform="matrix(.004 0 0 .004 22.6 36.05)" id="r"><stop offset="0" stop-color="#FFB0B0"/><stop offset=".502" stop-color="#f00"/><stop offset="1" stop-color="#930"/></radialGradient><radialGradient gradientUnits="userSpaceOnUse" r="819.2" cx="0" cy="0" spreadMethod="pad" gradientTransform="matrix(.004 0 0 .004 16.3 40.95)" id="s"><stop offset="0" stop-color="#FFB0B0"/><stop offset=".502" stop-color="#f00"/><stop offset="1" stop-color="#930"/></radialGradient></defs><path fill="#fff" d="M23.55 25.4l2.35-.55-.45 1.95-1.9-1.4m7.4-.45h.55l1.5.2q-.3 1.3-1.3 1.95.1-1.15-.75-2.15"/><path fill="#36f" d="M58.9 7.35l3.75.45-6.7 3.75q.75.8 1.9.65l-3.6 2.6q-2.15 1.45-4.5 1.5l2.7.55 1.15-.2-4.95 2.2-6.15.6 1.05.45-2.4 1.55-2.6 2.35-.5.55h-.15l-1.65-1.3.7-.85 1.6.45q1.15 0 1.95-.8.8-.75.9-1.75-.1-1.1-.9-1.85-.8-.8-1.95-.8h-.15l-1.75.65-.1.15q-.7.65-.8 1.65l-1.55 1.4-.5-.2q-.2-.7 0-1.35l.05-.2 1.2-1.45 1.1-3.5q.75-1.55 2-2.45 1.45 2.35 4.2 3.2l.8.15 4.4.15q-1.45-.35-2.55-1.4l-.95-1.2-2.3-2.35 2.75-.5q2.05 1.7 4.75 2.05l4.5.1-2.95-2.1-.45-.4 8.45-2.4.2-.1m-38.65 16l-.8-1.3q-.85-1-2.2-1.65L15 18.5l1.15-.45-1.55-.7L11.3 15l1-.15 1.1-.55-2.2-.5-3.35-2.15 1.25-.5-2.75-.85q-2.1-1-3.55-2.5l1.75-1.15-2.5-3.5q2.1 1.45 4.6 2.1l5.8 1.35 1.05.15 1.9.65-7.65-.05q3.35 1.8 6.95 1.95l4.3.15 2.3 1.6-5.95 1.7 9 .85q1.35 1.65 1.15 4.2l-.45 2.3-.8-1.45.05-.8-.25-1.35-.5-.7q-.75-.8-1.85-.8-1.05 0-1.85.8-.7.8-.7 2.05l.05.95q.15.65.65 1.1.8.8 1.85.9l.35-.1.8.9q-1.25.15-2.05.85l-.55.9"/><path fill="url(#a)" d="M2 3.05Q.85 1.6 0 0l5.1 2.95q3 1.2 6.2 1.9l6.15 1.7 5.6 3.15q2.45 1.95 3.9 4.7 1.3 2.1.85 4.95l-.05.65-1.25.15h-.1l-1.05.45-.3-.5.45-2.3q.2-2.55-1.15-4.2l-3.05-2.55-2.3-1.6-3.1-1.85-.5-.2-1.9-.65-1.05-.15-5.8-1.35q-2.5-.65-4.6-2.1L2 3.05"/><path fill="url(#b)" d="M30.7 20.15l.55-3.65q.95-3.1 2.5-4.7l4.15-2.15L49.65 7.8q2.95-.55 6-1.8L64 1.6l-2.65 3.05-3.3 2.15.85.55-.2.1-8.45 2.4-3.55.3-2.3.05-2.75.5-.8.15-2.8 1.3q-1.25.9-2 2.45l-1.1 3.5-1.2 1.45-.05.2q-.2.65 0 1.35l-1.65-.7-1.35-.25"/><path fill="url(#c)" d="M44.4 10.2l2.3-.05 3.55-.3.45.4 2.95 2.1-4.5-.1q-2.7-.35-4.75-2.05"/><path fill="url(#d)" d="M41.65 10.7l2.3 2.35.95 1.2q1.1 1.05 2.55 1.4l-4.4-.15-.8-.15q-2.75-.85-4.2-3.2l2.8-1.3.8-.15"/><path fill="url(#e)" d="M35.75 19.9q.1-1 .8-1.65l.1-.15 1.75-.65h.15q1.15 0 1.95.8.8.75.9 1.85-.1 1-.9 1.75-.8.8-1.95.8l-1.6-.45-.4-.35q-.8-.75-.8-1.75v-.2"/><path fill="url(#f)" d="M35.75 19.9v.2q0 1 .8 1.75l.4.35-.7.85 1.65 1.3.1.1.1.05 1.25 1.95-1.45.25-1.4 1.5-.65.3q-1.95.7-3.55 2.25l-1.65 1.6-1.1-1.45q-1.25-1.4-3.2-2.05L19.9 26.2q-.3-1.45.2-2.55l.1-.2.05-.1.55-.9q.8-.7 2.05-.85l-.8-.9q.8-.1 1.5-.8l.7-1.25.8 1.45.3.5 1.05-.45h.1l1.25-.15 1.35-.2h.1l1.5.35 1.35.25 1.65.7.5.2 1.55-1.4m-2.1 2.4l.55-1-.55 1m-10.1 3.1l-.5.25q-.1.8 1 1.35l3.15 1.05 4.3.25q1.8.1 2.15-1.4.35-1.35-.65-1.75l-1.5-.2h-.55l-5.05-.1-2.35.55m12.05-1.35l.65-1-.65 1m-9.35-1.5q-.55-.55-.7-1.35l-.2-.6.2.6q.15.8.7 1.35m-2.4.35l-1-1.3 1 1.3"/><path fill="url(#g)" d="M45.6 29.55l.1.3q1.05 1.7.85 3.65l-.35 1.1-.8 1.55-1.4 1.7-1.75 2v.1L40.05 43l-2.2 2.15-5.25 4.15 1.05-1.6 2.85-6.4q.55-1.1 0-1.5l-.75-.55-2.2.35q-.3.25-.65.45l-.85.8-3.3 2.25-5.6 2.85-1.35 1.45q0-2.2.65-4.15l.5-1.75.7-1.65.2-.6.8-1.4 1.15-1.45.45-.5 4.4-3.55 1.65-1.6q1.6-1.55 3.55-2.25l.65-.3 1.4-1.5 1.45-.25 1.7-.25q2.2-.25 3.2 1.4l1.35 1.95m-5.45-1.35q-1.95-.5-3.65 0 1.7-.5 3.65 0"/><path fill="url(#h)" d="M38.1 24.5l5.55-.15q2.3-.1 2.9 1.85.55 1.9-.95 3.35l-1.35-1.95q-1-1.65-3.2-1.4l-1.7.25-1.25-1.95"/><path fill="url(#i)" d="M33 25.15q1 .4.65 1.75-.35 1.5-2.15 1.4l-4.3-.25L24.05 27q-1.1-.55-1-1.35l.5-.25 1.9 1.4.45-1.95 5.05.1q.85 1 .75 2.15 1-.65 1.3-1.95"/><path fill="url(#j)" d="M46.2 34.6q1.25.5 2.05 1.6l1.95 3.75q-2.15-2.3-4.8-3.8l.8-1.55"/><path fill="url(#k)" d="M44 37.85q1.2.6 1.05 2.2l-.65 3.55-2.15-3.65v-.1l1.75-2"/><path fill="url(#l)" d="M33.55 39.6l.75 2.85-2.25-1.6.85-.8q.35-.2.65-.45"/><path fill="url(#m)" d="M22.05 20.7l-.35.1q-1.05-.1-1.85-.9-.5-.45-.65-1.1l-.05-.95q0-1.25.7-2.05.8-.8 1.85-.8 1.1 0 1.85.8l.5.7.25 1.35-.05.8-.7 1.25q-.7.7-1.5.8"/><path fill="url(#n)" d="M24.35 13.6l-9-.85 5.95-1.7 3.05 2.55"/><path fill="url(#o)" d="M9.3 24.85l1.9-1 4.3-.4q1.55.25 4.6 0v.2q-.5 1.1-.2 2.55l-1.25-.75q-1.75-1-4.15-.8l-4.35.1-.85.1"/><path fill="url(#p)" d="M9.3 24.85l.85-.1 4.35-.1q2.4-.2 4.15.8l1.25.75 6.45 2.65q1.95.65 3.2 2.05l1.1 1.45-4.4 3.55-.45.5-2.4-1.3-1.9-.7q-1-.4-2 0l1 .9q.85.85 1.3 1.9l.2.65.7 1 .95 1-.7 1.65L22 41l-4.05-1.4-2.05-.8-3.75-2.4-1.3-1.2-3.05-2.85q-1.25-1.1-1.35-2.4Q6.4 27.7 7.8 26.2l.7-.75.8-.6"/><path fill="url(#q)" d="M12.15 36.4Q9.5 37.1 8 39.45L8.35 38l1.15-1.8 1.35-1 1.3 1.2"/><path fill="url(#r)" d="M25.8 36.4l-1.15 1.45H22l-.2-.65q-.45-1.05-1.3-1.9l-1-.9q1-.4 2 0l1.9.7 2.4 1.3"/><path fill="url(#s)" d="M17.95 39.6q-2.45 1.25-3.45 3.55l.2-2.05q.2-1.5 1.2-2.3l2.05.8"/><path fill="#FFBE95" d="M19 9.45l-4.3-.15q-3.6-.15-6.95-1.95l7.65.05.5.2L19 9.45"/><path fill="none" stroke="#000" stroke-width=".05" stroke-linecap="round" stroke-linejoin="round" d="M29.1 19.8h.1m23.25-2.95l1.15-.2M38 24.45l.1.05m7.5 5.05l.1.3m-25.6-6.2l.1-.2M2.05 3.15L2 3.05M35.75 19.9q.1-1 .8-1.65m.1-.15l1.75-.65m.15 0q1.15 0 1.95.8.8.75.9 1.85-.1 1-.9 1.75-.8.8-1.95.8l-1.6-.45-.4-.35q-.8-.75-.8-1.75v-.2m6.5 20.05v-.1M22.05 20.7l-.35.1q-1.05-.1-1.85-.9-.5-.45-.65-1.1l-.05-.95q0-1.25.7-2.05.8-.8 1.85-.8 1.1 0 1.85.8l.5.7.25 1.35-.05.8-.7 1.25q-.7.7-1.5.8"/><path fill="none" stroke="#0241D2" stroke-width=".05" stroke-linecap="round" stroke-linejoin="round" d="M58.9 7.35l3.75.45-6.7 3.75q.75.8 1.9.65l-3.6 2.6q-2.15 1.45-4.5 1.5l2.7.55m1.15-.2l-4.95 2.2-6.15.6 1.05.45-2.4 1.55-2.6 2.35-.5.55m-17.8-1l-.8-1.3q-.85-1-2.2-1.65L15 18.5l1.15-.45-1.55-.7L11.3 15l1-.15 1.1-.55-2.2-.5-3.35-2.15 1.25-.5-2.75-.85q-2.1-1-3.55-2.5l1.75-1.15-2.5-3.5"/><path fill="none" stroke="#FFA123" stroke-width=".05" stroke-linecap="round" stroke-linejoin="round" d="M30.7 20.15l.55-3.65q.95-3.1 2.5-4.7l4.15-2.15L49.65 7.8q2.95-.55 6-1.8L64 1.6l-2.65 3.05-3.3 2.15.85.55"/><path fill="none" stroke="#DA8300" stroke-width=".05" stroke-linecap="round" stroke-linejoin="round" d="M27.8 19.35l-.05.65"/><path fill="none" stroke="#FFA738" stroke-width=".05" stroke-linecap="round" stroke-linejoin="round" d="M2 3.05Q.85 1.6 0 0l5.1 2.95q3 1.2 6.2 1.9l6.15 1.7 5.6 3.15q2.45 1.95 3.9 4.7 1.3 2.1.85 4.95"/><path fill="none" stroke="#6D2101" stroke-width=".05" stroke-linecap="round" stroke-linejoin="round" d="M45.7 29.85q1.05 1.7.85 3.65l-.35 1.1m-.8 1.55l-1.4 1.7m-1.75 2.1L40.05 43l-2.2 2.15-5.25 4.15 1.05-1.6 2.85-6.4q.55-1.1 0-1.5l-.75-.55-2.2.35m-1.5 1.25l-3.3 2.25-5.6 2.85-1.35 1.45q0-2.2.65-4.15l.5-1.75m16.4-15.05l1.7-.25q2.2-.25 3.2 1.4l1.35 1.95m-14.95 2.8l1.65-1.6q1.6-1.55 3.55-2.25l.65-.3 1.4-1.5 1.45-.25M36.5 28.2q1.7-.5 3.65 0m2.1 11.65l1.75-2m1.4-1.7l.8-1.55m-15.55-2.25l-4.4 3.55-.45.5-1.15 1.45-.8 1.4-.2.6-.7 1.65m9.1-.65l.85-.8q.35-.2.65-.45"/><path fill="none" stroke="#BC2100" stroke-width=".05" stroke-linecap="round" stroke-linejoin="round" d="M33.55 39.6l.75 2.85-2.25-1.6M38.1 24.5l5.55-.15q2.3-.1 2.9 1.85.55 1.9-.95 3.35m.6 5.05q1.25.5 2.05 1.6l1.95 3.75q-2.15-2.3-4.8-3.8m-1.4 1.7q1.2.6 1.05 2.2l-.65 3.55-2.15-3.65m-19.3 1.55L22 41l-4.05-1.4q-2.45 1.25-3.45 3.55l.2-2.05q.2-1.5 1.2-2.3l-3.75-2.4Q9.5 37.1 8 39.45L8.35 38l1.15-1.8 1.35-1-3.05-2.85q-1.25-1.1-1.35-2.4Q6.4 27.7 7.8 26.2l.7-.75.8-.6 1.9-1 4.3-.4q1.55.25 4.6 0m-1.45 2q-1.75-1-4.15-.8l-4.35.1-.85.1m10.6 1.35l6.45 2.65q1.95.65 3.2 2.05l1.1 1.45M25.8 36.4l-2.4-1.3-1.9-.7q-1-.4-2 0l1 .9q.85.85 1.3 1.9m.2.65h2.65m-8.75.95l2.05.8m5.7.25l-.95-1-.7-1M10.85 35.2l1.3 1.2"/><path fill="none" stroke="#C41D00" stroke-width=".05" stroke-linecap="round" stroke-linejoin="round" d="M21.8 37.2l.2.65"/><path fill="none" stroke="#B52400" stroke-width=".05" stroke-linecap="round" stroke-linejoin="round" d="M19.9 26.2l-1.25-.75"/><path fill="none" stroke="#79335D" stroke-width=".05" stroke-linecap="round" stroke-linejoin="round" d="M27.75 20l1.35-.2m.1 0l1.5.35 1.35.25 1.65.7.5.2m3.85 3.05h-.15m-17.7-.9l.05-.1.55-.9q.8-.7 2.05-.85m16.5 4.85L38.1 24.5m-12.75-3.9l1.05-.45m.1 0l1.25-.15m-7.65 3.65q-.5 1.1-.2 2.55"/><path fill="none" stroke="#673394" stroke-width=".05" stroke-linecap="round" stroke-linejoin="round" d="M34.2 21.3l1.55-1.4m1.2 2.3l-.7.85-.65 1m-1.4-2.75l-.55 1m-9.4-3.65l.8 1.45.3.5.2.6q.15.8.7 1.35m-4.2-1.85l.8.9 1 1.3"/><path fill="none" stroke="#5E0000" stroke-width=".05" stroke-linecap="round" stroke-linejoin="round" d="M33 25.15q1 .4.65 1.75-.35 1.5-2.15 1.4l-4.3-.25L24.05 27q-1.1-.55-1-1.35l.5-.25 2.35-.55 5.05.1h.55l1.5.2"/><path fill="none" stroke="#640000" stroke-width=".05" stroke-linecap="round" stroke-linejoin="round" d="M33 25.15q-.3 1.3-1.3 1.95.1-1.15-.75-2.15m-7.4.45l1.9 1.4.45-1.95"/><path fill="none" stroke="#36f" stroke-width=".05" stroke-linecap="round" stroke-linejoin="round" d="M33.75 19.55l-.05.2"/></svg>