<svg xmlns="http://www.w3.org/2000/svg" viewBox="0 0 23.0 26.2" width="23" height="26.2"><defs><radialGradient gradientUnits="userSpaceOnUse" r="819.2" cx="0" cy="0" spreadMethod="pad" gradientTransform="matrix(-.004 0 0 .004 9.2 4.05)" id="a"><stop offset="0"/><stop offset=".573" stop-color="#903"/><stop offset="1" stop-color="#663"/></radialGradient><radialGradient gradientUnits="userSpaceOnUse" r="819.2" cx="0" cy="0" spreadMethod="pad" gradientTransform="matrix(-.001 0 0 .001 10.4 4.45)" id="b"><stop offset="0"/><stop offset=".561" stop-color="#fc6"/><stop offset="1" stop-color="#fc0"/></radialGradient><radialGradient gradientUnits="userSpaceOnUse" r="819.2" cx="0" cy="0" spreadMethod="pad" gradientTransform="matrix(-.001 0 0 .001 11.45 4.85)" id="c"><stop offset="0"/><stop offset=".561" stop-color="#fc6"/><stop offset="1" stop-color="#fc0"/></radialGradient><radialGradient gradientUnits="userSpaceOnUse" r="819.2" cx="0" cy="0" spreadMethod="pad" gradientTransform="matrix(-.001 0 0 .001 10.5 8.5)" id="d"><stop offset="0"/><stop offset=".561" stop-color="#fc6"/><stop offset="1" stop-color="#fc0"/></radialGradient><radialGradient gradientUnits="userSpaceOnUse" r="819.2" cx="0" cy="0" spreadMethod="pad" gradientTransform="matrix(0 0 0 0 9.65 8.1)" id="e"><stop offset="0"/><stop offset=".561" stop-color="#fc6"/><stop offset="1" stop-color="#fc0"/></radialGradient><linearGradient gradientUnits="userSpaceOnUse" x1="-819.2" x2="819.2" gradientTransform="matrix(-.002 0 0 .002 8.6 10.25)" id="f"><stop offset="0"/><stop offset=".447" stop-color="#fff"/><stop offset="1" stop-color="#f00"/></linearGradient><radialGradient gradientUnits="userSpaceOnUse" r="819.2" cx="0" cy="0" spreadMethod="pad" gradientTransform="matrix(-.01 0 0 .01 12.6 15.75)" id="g"><stop offset="0"/><stop offset=".573" stop-color="#903"/><stop offset="1" stop-color="#663"/></radialGradient><linearGradient gradientUnits="userSpaceOnUse" x1="-819.2" x2="819.2" gradientTransform="matrix(-.002 0 0 .002 11.85 10.2)" id="h"><stop offset="0"/><stop offset=".447" stop-color="#fff"/><stop offset="1" stop-color="#f00"/></linearGradient><radialGradient gradientUnits="userSpaceOnUse" r="819.2" cx="0" cy="0" spreadMethod="pad" gradientTransform="matrix(-.009 0 0 .009 8.25 14.25)" id="i"><stop offset="0"/><stop offset=".573" stop-color="#903"/><stop offset="1" stop-color="#663"/></radialGradient><radialGradient gradientUnits="userSpaceOnUse" r="819.2" cx="0" cy="0" spreadMethod="pad" gradientTransform="matrix(-.002 0 0 .002 2.35 10.4)" id="j"><stop offset="0" stop-color="#fc6"/><stop offset=".58" stop-color="#231C0E"/></radialGradient><radialGradient gradientUnits="userSpaceOnUse" r="819.2" cx="0" cy="0" fx="87942.4" fy="0" spreadMethod="repeat" gradientTransform="matrix(-.001 0 0 .001 1.9 8.85)" id="k"><stop offset="0"/><stop offset=".561" stop-color="#fc6"/><stop offset="1" stop-color="#fc0"/></radialGradient><radialGradient gradientUnits="userSpaceOnUse" r="819.2" cx="0" cy="0" spreadMethod="pad" gradientTransform="matrix(-.202 0 0 .202 27.35 -.75)" id="l"><stop offset="0"/><stop offset=".573" stop-color="#903"/><stop offset="1" stop-color="#663"/></radialGradient><radialGradient gradientUnits="userSpaceOnUse" r="819.2" cx="0" cy="0" spreadMethod="pad" gradientTransform="matrix(-.004 0 0 .004 14 2.95)" id="m"><stop offset="0"/><stop offset=".561" stop-color="#fc6"/><stop offset="1" stop-color="#fc0"/></radialGradient><radialGradient gradientUnits="userSpaceOnUse" r="819.2" cx="0" cy="0" spreadMethod="pad" gradientTransform="matrix(-.002 0 0 .002 1.15 17)" id="n"><stop offset="0"/><stop offset=".573" stop-color="#903"/><stop offset="1" stop-color="#663"/></radialGradient><radialGradient gradientUnits="userSpaceOnUse" r="819.2" cx="0" cy="0" spreadMethod="pad" gradientTransform="matrix(-.002 0 0 .002 3.45 21.45)" id="o"><stop offset="0"/><stop offset=".573" stop-color="#903"/><stop offset="1" stop-color="#663"/></radialGradient><radialGradient gradientUnits="userSpaceOnUse" r="819.2" cx="0" cy="0" spreadMethod="pad" gradientTransform="matrix(-.004 0 0 .004 2.6 18.8)" id="p"><stop offset="0"/><stop offset=".573" stop-color="#903"/><stop offset="1" stop-color="#663"/></radialGradient><radialGradient gradientUnits="userSpaceOnUse" r="819.2" cx="0" cy="0" spreadMethod="pad" gradientTransform="matrix(-.014 0 0 .014 10.9 17.9)" id="q"><stop offset="0"/><stop offset=".737" stop-color="#F44A02"/><stop offset="1" stop-color="#660"/></radialGradient><radialGradient gradientUnits="userSpaceOnUse" r="819.2" cx="0" cy="0" spreadMethod="pad" gradientTransform="matrix(-.007 0 0 .007 11 4.5)" id="r"><stop offset="0"/><stop offset=".737" stop-color="#FD5F1C"/><stop offset="1" stop-color="#660"/></radialGradient></defs><path d="M1.1 9.4l.2-.3.45-.4.3-.2.45-.15v.05l-.2.35v.05l.1.35-.5.2-.65.05H1.1"/><path fill="#fff" d="M10.95 9.25h-.25L10.2 9l-.3.2-.2.05-.1-.1-.3-.35.2-.45.25-.05.05.1.45-.6.05.4.2-.5q.1.3.35.4l.05-.3h.05l.25.3v-.3l.3.3.1.15.05.15q0 .4-.45.35l-.1.1-.15.4m-.1-2.2l-.3.45v-.4l-.5.45-.15-.45q-.15.35-.15.75l-.25-.6q0-.3.35-.35l.55-.05.75.1.1-.05h.05v.05l-.15.65-.3-.55"/><path fill="url(#a)" d="M7.9 6.85l-.1-.15-.35-.65-.15-.7-.05-.65.9-.85.3-.2q.6-.25.8-.95.25-1.05 1.4-1.4l.45.55-.1.3-.05.5.05-.5.1-.3-.15.8-.05.25-.5.5-.6.35-.2.15q-.3.25-.35.65l-.45.2-.6.45-.4.6-.05.45.05.3.1.3"/><path fill="url(#b)" d="M10.2 4.35l.1-.25q.4.25.3.6v.05l-.1.05q-.4.05-.3-.4v-.05"/><path fill="url(#c)" d="M11.65 5.5l-.35-.45-.4-.7-.1-.1 1.2.3v.35q0 .4-.35.6"/><path fill="url(#d)" d="M10.95 7.8h-.05l.05-.1v.1"/><path fill="url(#e)" d="M9.75 8.3l-.25.05.05-.45.2.4"/><path fill="url(#f)" d="M9.95 11.55l-.15.3-.3.15-.3.1-.4.05L8 12l-.7-.45-.4-.65-.05-.1v-.45l.05-.15.2-.4.25-.25.35-.25.15-.15.1-.15.5-.35h.05l1-.3-.2.45.3.35.1.1.2.2h-.25l.15.25.2.1.3.15-1 .05.45.3-.4.1H9.3l.05.05.45.25-.3.05-.75.05.9.35-.8.05.3.15q.4.2.7 0h.1v.2"/><path fill="url(#g)" d="M9.95 11.55v-.2h-.1l-.35-.6.3-.05-.45-.25v-.05l.4-.1-.45-.3 1-.05-.3-.15-.2-.1-.15-.25h.25l-.2-.2.2-.05.3-.2.5.25h.25l.25.15-.45.1.8.3h-.65q.4.1.7.35l-.85.1.25.15.45.2-.5-.05h-.1l.7.8-.9-.25.5.45-.85-.3-.1-.1.4.75q.2.3.6.25l.8-.1.55-.15.25-.1q.15-.05.25-.15l.25-.3.15-.5.05-.3-.1-.4-.1-.2-.6-.85-.1-.3-.05-.05h.05l.45-.55q.1-.35-.2-.55l.5-.25q-.05.8.3 1.5l.4.65-.15 1q-.05.95.45 1.75l.4.6.35.55-.8.05-1.65-.2q.6 1.05 1.8 1.4l3.15.6-1 .55-.6.05.75 1.35q.55.7 1.4 1.15l.15.05.3.1-.2.05-.75-.15V19l.25 1.2.15.4-.05-.05-1.15-.3q-.3.05-.35.5v.2l.1.65.25.95q-.8-1.1-2.25-.6-.5.15-.85.65l-.05.1-1.1 1.1-.5.25.05-1.4-.1-.6-.6-.8-.45-.1-.45.2q-.65.35-.75 1.05L9.75 21l-.05-.45q-.05-.15-.3-.2l-1.05-.1-1.75.35.5-1.05.5-1.25.15.3q.7-.3.95-.85h.2q.7.1 1.2.65l.15.15 1.2 1.05q.6.35 1.25.5l1.55-.05.65-.25.7-.5.25-.4.05-.15-.05.15-.25.4-.7.5-.65.25-1.55.05q-.65-.15-1.25-.5l-1.2-1.05-.15-.15 1.15.15 1.45.95.65.1 1.95-.55.45-.2.1-.1h.05l.05-.05v-.2l-.1-.5-.5-1.15-.15-.3h-.05l-.45-.65-.45-.35-.3-.15-1.05-.6-1.35-.8-.85-.95-.75-1.5"/><path fill="url(#h)" d="M12.6 8.8l.1.3.6.85.1.2.1.4-.05.3-.15.5-.25.3q-.1.1-.25.15l-.25.1-.55.15-.8.1q-.4.05-.6-.25l-.4-.75.1.1.85.3-.5-.45.9.25-.7-.8h.1l.5.05-.45-.2-.25-.15.85-.1q-.3-.25-.7-.35h.65l-.8-.3.45-.1-.25-.15.15-.4.1-.1q.45.05.45-.35l-.05-.15.4.1.55.45h.05"/><path fill="url(#i)" d="M21.8 16.7l.35.45.7 1.35.15 1.25v1.2l-.1.4-1.1 1.05-.15.05-2.1 1.35.05-.55-.05-.25.05-.05.2-.8 1-2.1q.35-.55.3-1.2-.05-.75.2-1.45l.5-.7M1.6 15.1q-.45-.55-.45-1.45.05-.8.6-1.4l.4-.55.95-.3q-.15.3-.15.65v.25q.15.75.95 1.05l1.5.15 3.75-.5 1.55.05.85.95 1.35.8 1.05.6.3.15.45.35.45.65h.05l.15.3-.7.2-.1.05-1.35-.1-6.9-2.3-1.3-.1-1.6.1-1.3.2-.5.2"/><path fill="url(#j)" d="M2.15 11.7l.05-.55v-.2l-.45.25-.75.05q-.25-.2-.25-.75t.25-1l.1-.1h.15l.65-.05.5-.2.5.1.3-.05q.45-.1.65.25l.1.7-.4.6-.45.6v.05l-.95.3m.35-.9l-.3.15.3-.15"/><path fill="url(#k)" d="M2.5 8.35l.25-.05-.25.1v-.05"/><path fill="url(#l)" d="M13.2.2l.35.2.6.45.3.3.2.25.45.55.05.75.1.75-.05.75v.05l-.4.55-.45.4-.35.5v-.85l-.05-.4q-.05-.75-.45-1.3l.05-.1.7.55.4.4-.75-2-.3-.6.3-.05.85.8-.95-1.4-.4-.15h-.65l.45-.4"/><path fill="url(#m)" d="M13.55 3.05l-.05.1-.15-.1h.2"/><path fill="url(#n)" d="M0 18.1v-.55q-.05-.75.3-1.4l.2-.25h.85q1.2.1.9 1.15Q1 17.45 0 18.1"/><path fill="url(#o)" d="M3.4 22.75h-.05l-1.25-.7 2.65-1.85-.85 1q-.5.75-.5 1.55"/><path fill="url(#p)" d="M.75 20.8l-.25-.3q-.4-.6-.45-1.4l5.15-2.25-2.45 1.75q-1.5.9-2 2.2"/><path fill="url(#q)" d="M.75 20.8q.5-1.3 2-2.2l2.45-1.75L.05 19.1l-.05-1q1-.65 2.25-1.05.3-1.05-.9-1.15H.5l.25-.25.85-.55.5-.2 1.3-.2 1.6-.1 1.3.1 6.9 2.3 1.35.1.1-.05.7-.2.5 1.15.1.5v.2l-.1.05-.1.1-.45.2-1.95.55-.65-.1-1.45-.95-1.15-.15q-.5-.55-1.2-.65h-.2q-.25.55-.95.85l-.15-.3-.5 1.25-.5 1.05 1.75-.35 1.05.1q.25.05.3.2l.05.45.05 1.4q.1-.7.75-1.05l.45-.2.45.1.6.8.1.6-.05 1.4.5-.25 1.1-1.1.05-.1q.35-.5.85-.65 1.45-.5 2.25.6l-.25-.95-.1-.65v-.2q.05-.45.35-.5l1.15.3.05.05-.15-.4-.25-1.2v-.55l.75.15.2-.05-.3-.1-.15-.05q-.85-.45-1.4-1.15L16 15.9l.6-.05 1-.55-3.15-.6q-1.2-.35-1.8-1.4l1.65.2.8-.05-.35-.55-.4-.6q-.5-.8-.45-1.75l.15-1 .35.5h.05l1 .85 1.3.8q.55.35 1.2.55l1.4.5q.7.35 1.3.8.65.45.8 1.25l.3 1.05.05.85-.5.7q-.25.7-.2 1.45.05.65-.3 1.2l-1 2.1-.2.8-.05.05.05.25-.05.55v.05l-.4.6q-.55.5-1.25.8l-1.5.55-1.55.3-4.25.1-1.35-.25L5.7 24.3l-1.05-1-1.25-.55q0-.8.5-1.55l.85-1-2.65 1.85-.55-.4-.8-.85m17.3-.2l.05.05.3.25-.35-.3M8.4 17.7l.3.05-.3-.05"/><path fill="url(#r)" d="M7.95 9l.15-.5v-.05l-.2-.3-.2-.25v-.05q-.05-.15.05-.3l.3-.35-.15-.35-.1-.3-.05-.3.05-.45.4-.6.6-.45.45-.2q.05-.4.35-.65l.2-.15.6-.35.5-.5.05-.25.15-.8-.45-.55q-1.15.35-1.4 1.4-.2.7-.8.95l-.3.2-.9.85v-.15l.1-.7.3-.75.25-.65.4-.65.5-.5L10 .45q.35-.2.75-.25l1.4-.2.75.1.3.1-.45.4h.65l.4.15.95 1.4-.85-.8-.3.05.3.6.75 2-.4-.4-.7-.55h-.2l.15.1q.4.55.45 1.3l.05.4v.85l-.35.45v.35l-.2.75-.1.15-.5.25q.3.2.2.55l-.45.55h-.05v.05L12 8.35l-.4-.1-.1-.15-.3-.3v.3l-.25-.3v-.1l-.05.1-.05.3q-.25-.1-.35-.4l-.2.5-.05-.4-.45.6-.05-.1-.2-.4-.05.45-1 .3h-.05l-.5.35m2.25-4.65v.05q-.1.45.3.4l.1-.05V4.7q.1-.35-.3-.6l-.1.25m.6-.1l.1.1.4.7.35.45q.35-.2.35-.6v-.35l-1.2-.3-.35-.45h-.3l-.2.2-.1.2-.15.55-.2.35q-.3.3.45-.1-.75.4-.45.1l.2-.35.15-.55.1-.2.2-.2h.3l.35.45m1.6 2.8q.05.4.4.6h.05-.05q-.35-.2-.4-.6m1.15-1.5l.1.6-.1-.6m-2.7 1.5l.3.55.15-.65V6.9h-.05l-.1.05-.75-.1-.55.05q-.35.05-.35.35l.25.6q0-.4.15-.75l.15.45.5-.45v.4l.3-.45m-2.5-.15l-.3.3.3-.3"/><path fill="none" stroke="#7D2601" stroke-width=".05" stroke-linecap="round" stroke-miterlimit="3" d="M21.8 16.7l-.05-.85-.3-1.05q-.15-.8-.8-1.25-.6-.45-1.3-.8l-1.4-.5m-3.5-2.2h-.05l-.35-.5m-5.35 8.2l-.3-.05m11.15 6.1v.05l-.4.6q-.55.5-1.25.8l-1.5.55-1.55.3-4.25.1-1.35-.25L5.7 24.3l-1.05-1-1.25-.55m-1.3-.7l-.55-.4-.8-.85m-.7-1.7l-.05-1m.5-2.2l.25-.25.85-.55.5-.2 1.3-.2 1.6-.1 1.3.1 6.9 2.3 1.35.1.1-.05.7-.2M2.15 11.7l.05-.55v-.2l-.45.25-.75.05q-.25-.2-.25-.75t.25-1l.1-.1.2-.3.45-.4.3-.2.45-.15.25-.05-.25.1-.2.35v.05l.1.35.5.1.3-.05q.45-.1.65.25l.1.7-.4.6-.45.6v.05M7.95 9l.15-.5v-.05l-.2-.3-.2-.25v-.05q-.05-.15.05-.3l.3-.35-.15-.35-.1-.15-.35-.65-.15-.7-.05-.65v-.15M12.9.1l.3.1.35.2.6.45.3.3.2.25.45.55.05.75.1.75-.05.75v.05l-.4.55-.45.4-.35.5-.35.45v.35l-.2.75-.1.15m-2.4-4.75l.05-.5.1-.3m-.15.8l-.05.25-.5.5-.6.35-.2.15q-.3.25-.35.65l-.45.2-.6.45-.4.6-.05.45.05.3.1.3m2.3-2.5l.1-.25q.4.25.3.6v.05l-.1.05q-.4.05-.3-.4v-.05m1.45 1.15l-.35-.45-.4-.7-.1-.1-.35-.45h-.3l-.2.2-.1.2-.15.55-.2.35q-.3.3.45-.1m3.7 1.15l-.1-.6m-.7 2.1h-.05q-.35-.2-.4-.6m-1.55 0l-.3.45v-.4l-.5.45-.15-.45q-.15.35-.15.75l-.25-.6q0-.3.35-.35l.55-.05.75.1.1-.05h.05v.05l-.15.65-.3-.55m.75 1.2l-.1-.15-.3-.3v.3l-.25-.3m-.05 0l-.05.3q-.25-.1-.35-.4l-.2.5-.05-.4-.45.6-.05-.1m1.15-.5l.05-.1v.1M2.2 10.95l.3-.15m5.55-3.6l.3-.3M9.5 8.35l.05-.45.2.4"/><path fill="none" stroke="#434321" stroke-width=".05" stroke-linecap="round" stroke-miterlimit="3" d="M19.55 23.8l2.1-1.35.15-.05 1.1-1.05.1-.4v-1.2l-.15-1.25-.7-1.35-.35-.45-.5.7q-.25.7-.2 1.45.05.65-.3 1.2l-1 2.1-.2.8-.05.05.05.25-.05.55"/><path fill="none" stroke="#4A0018" stroke-width=".05" stroke-linecap="round" stroke-miterlimit="3" d="M3.4 22.75h-.05l-1.25-.7M.75 20.8l-.25-.3q-.4-.6-.45-1.4m-.05-1v-.55q-.05-.75.3-1.4l.2-.25m1.1-.8q-.45-.55-.45-1.45.05-.8.6-1.4l.4-.55m.95-.3q-.15.3-.15.65v.25q.15.75.95 1.05l1.5.15 3.75-.5 1.55.05-.75-1.5m3.4-4.15q-.05.8.3 1.5l.4.65m-.7-2.15l-.5.25m-.25 1.1h-.05l.05.05m-1.65.45h-.25L10.2 9l-.3.2-.2.05m-.35 1.15v.05m.15.3l.35.6m.25 7.05q-.5-.55-1.2-.65h-.2m6.65-.9l-.15-.3h-.05l-.45-.65-.45-.35-.3-.15-1.05-.6-1.35-.8-.85-.95m4.65 3.8l.5 1.15.1.5v.2l-.05.05-.05.15-.25.4-.7.5-.65.25-1.55.05q-.65-.15-1.25-.5l-1.2-1.05-.15-.15"/><path fill="none" stroke="#9C9C9C" stroke-width=".05" stroke-linecap="round" stroke-miterlimit="3" d="M9.95 11.55l-.15.3-.3.15-.3.1-.4.05M6.9 10.9l-.05-.1m0-.45l.05-.15m.8-.9l.15-.15m4.75-.35l.1.3m.1 2.7l-.25.1-.55.15-.8.1m-1-1l.1.1m.55-.7h.1l.5.05m-.45-.2l-.25-.15m.15-.45h.65m-.35-.4l-.25-.15.15-.4.1-.1q.45.05.45-.35l-.05-.15m-1.9 1l.2.2h-.25l.15.25m.2.1l.3.15-1 .05.45.3-.4.1H9.3l.05.05.45.25-.3.05-.75.05.9.35-.8.05.3.15q.4.2.7 0h.1v.2m-.45-3.2l-.2.45.3.35.1.1"/><path fill="none" stroke="#FF6767" stroke-width=".05" stroke-linecap="round" stroke-miterlimit="3" d="M8.8 12.15L8 12l-.7-.45-.4-.65m-.05-.1v-.45m.05-.15l.2-.4.25-.25.35-.25m.15-.15l.1-.15m3.25 3.15q-.4.05-.6-.25l-.4-.75m.1.1l.85.3-.5-.45.9.25-.7-.8m.6.05l-.45-.2m-.25-.15l.85-.1q-.3-.25-.7-.35m.65 0l-.8-.3.45-.1"/><path fill="none" stroke="#333" stroke-width=".05" stroke-linecap="round" stroke-miterlimit="3" d="M12.7 9.1l.6.85.1.2.1.4-.05.3-.15.5-.25.3q-.1.1-.25.15"/><path fill="none" stroke="#923710" stroke-width=".05" stroke-linecap="round" stroke-miterlimit="3" d="M12.85 7.65q.3.2.2.55l-.45.55"/><path fill="none" stroke="#A23101" stroke-width=".05" stroke-linecap="round" stroke-miterlimit="3" d="M17.95 12.25q-.65-.2-1.2-.55l-1.3-.8-1-.85"/><path fill="none" stroke="#BF4715" stroke-width=".05" stroke-linecap="round" stroke-miterlimit="3" d="M7.25 4.55l.1-.7.3-.75.25-.65.4-.65.5-.5L10 .45q.35-.2.75-.25l1.4-.2.75.1"/></svg>