<svg xmlns="http://www.w3.org/2000/svg" viewBox="0 0 32.1 32.1" width="32.1" height="32.1"><defs><radialGradient gradientUnits="userSpaceOnUse" r="819.2" cx="0" cy="0" fx="87942.4" fy="0" spreadMethod="repeat" gradientTransform="matrix(.019 0 0 .019 13.3 14.35)" id="a"><stop offset="0" stop-color="#fff"/><stop offset=".376" stop-color="#00f"/><stop offset="1"/></radialGradient><radialGradient gradientUnits="userSpaceOnUse" r="819.2" cx="0" cy="0" spreadMethod="pad" gradientTransform="matrix(.019 0 0 .019 12.6 17.5)" id="b"><stop offset=".761" stop-color="#f00"/><stop offset="1"/></radialGradient></defs><path d="M22.9 5.65l-.8-1h-.05l-.2-.25.4.2.7-.75.05-.3q.35.6 1 .65l.1-.15.1.15.2-.05.65-.3.3-.25q-.2.65.5 1.6l-.45-.45-.45-.6q-.3.15-.5.4v.05l.45.65.7.35-.3.25-.15.2q-.1.25.1.5l.45.3-.4.45-.05.3-.2-.5-.1-.1-.75-.55-.1-.05h.05l.35-.25.45-.1q-.2-.95-.7-1.1h-.05l-.15-.05q-.7 0-1.15.75m4.6 4.3l.35-.3.15-.45q-.5-.3-.35-.6l.2-.4.25.3-.1-.2-.2-.4q.5.4.5.9l.4.25q-.45.35-.55.75l-.05.2.05.55-.25.1-.7.15.35-.6h-.35l.25-.15.05-.1m.95 11.5l.6.8.3.25 1.05-.25v.4l.1 1.1q.05.4.4.7l-.45.05-.15.1q-.25.15-.2.45l.2.5q-.5 0-.75.4l.05-.55q0-.7-.4-1.15h.45l.45.2q.35-1.05-.2-1.5l-1.3-.05-.2-1.35v-.05l-.1-.25.1.15.05.05m-1.2 2.15l.5 1.3-.15.35q-.4.5-.65 1.8l.4 1.55-.05.1q-.25-.5-.45-.3l-.35.45-.1-.3q.3-.25.3-1.1l-.05-2q.45.45.5-.3l-.05-1.35-.2-1.8h.05l.3 1.6m-16.4 4l-1.15.3-.25-.2q-.4-.5-1.55-.95L6.4 27l-.1-.05q.5-.25.35-.5l-.35-.4.25-.05q.2.3 1 .45l1.85.2q-.5.45.2.6l.9.1 2 .05v.05l-1.65.15m-5.4-5.75l-.4.1.3-.15v-.15l-.1-.15-.05-.1-1.25-1.15.35-.15.4-.15q.5-.3.4-1l1.15-.1-1.15 1.4-.2.35.05.3.1.05.5.25q.45.25.85-.4.15.65.55.8l.2-.95-.3-1q-.3-.8-1.05-1.15l-.5-.1.1-.2-.2-2.95q.35 1.9.6 2.25l.3.55.45.45.05.35.55.65.55.45q.2.15-.1.75-.3.55.2 1.05l.9.65.85.15.7.05L9.2 24l-.4.8.15-1.1q-.3-1.25-1.2-1.7l-.65-.15V22l.7 1.5q-.45-.35-1-.4l-.75-.1q.85-.25.3-.9-.25-.35-.7-.25h-.2m2.6-14.2q-.1-.25-.5 0L6.4 8.6 5.3 9.65l.6-.7q.85-.95 1.15-1.7h.3L8.8 6.9l.3-.1.2-.25.8-1.05.05.05q-.15.35 0 .5l.1.05.5.05-.15.25q-.35-.15-1.05.35l-1.5 1.2v-.3m11.1-3.35v-.15l.15-.55-.1-.5q-.55.05-.55-.25l-.1-.5.4.15-.2-.15-.4-.2q.65 0 .95.4l.4.05q-.2.55-.05.95l.05.15.35.45-.2.3-.5.45v-.7l-.1.1-.15.15.05-.15m1.9 1.6l.05-.05.6.7 1.55 1.25v.35l.1.9.55.3-.55-.25.25.95 1.2 1.1-.05.1-.55.05-.05.55-.2-.2q.1-.35-.3-1.1l-1.1-1.65h.3l-.95-.3h-.6l-.55.1-.35-.15-.8.15-.65.2q-.25.1-.5-.5-.3-.6-.9-.4l-1.05.4-.05.5-.25-.25-.1.1h.05l-.2.3q-.55.85.1 1.5l-.75.9V9.6L15 9l-.65.2q-.5.15-.4.9l-1.2.05q.15-.25-.05-.4-.75-.5-1.45-.65l.95-.4.65-.45q-.5.75.3.85l.45-.05-.2-.35-.2-.2.05-.55q.1.55.6.6h.2l.2-.3-.15.3.45-.15.55-.05-.1-.4-.35-.85.75.8.6.15.7-.25-.1.25.75-.25.7-.8q.05.55.65 1.05l.95.25 1.5-.25.35-.35.05.15 1.4.95-.1-.45L22 7.1l-.95-1.2m2.75-1.4l-.4-.1-.8.3.35.15h.35l.5-.35m-3.05 6.1q.3.25.65.3.25 0 .55.3l.55-.05q.1.25.45.35l.55.1-.8.8q.15-.35-.35-.65l-.6.15q-.05-.85-1.15-.8l-.4.05.1-.7q.05-.4-.1-.3l.35-.4q-.2.5.2.85m7.4 2l.2.95q.25 1.35.65 1.95l-.15.3q-.4.55-.7 1.8l.45 1.6-.05.1q-.25-.5-.5-.3l-.3.4-.1-.25q.3-.25.3-1.1l-.1-2.05q.5.5.55-.25l-.1-1.55-.15-1.6m-.7 5.85q-.45.4-.55.8l-.05.15.1.55-1 .25.4-.6H26l.2-.15.4-.4.15-.45q-.5-.3-.3-.55l.15-.45.25.35-.05-.25-.25-.4.55.9.35.25m-3.6-5.2l.3-.25q-.25.65.45 1.6l-.4-.45-.45-.6-.5.45-.25.35q-.4-.6-.85-.5h-.05l.1.2-.25-.2-.5.2-.1.3q-.05.45.3.75l.5.4-.35-.15-.15.45v1.75l-.3-.2q-.6-.45-1.05-.2l.05.1q.1.3 2.35 1.55-1.65-.75-2.05-.8h-.55l-.6.1-.35-.15-.75.15-.6.2-.2.6q-.3.85.05 1.65l.25.45-.15.05-1.7 2.3.9-1.8-.2.05q-.35 0-.5.4l-.1.2-.6.55q-.45.35-.35.7l.5 1.05 1.05.65q-.15.7.65 1.2l.6.4-.05.1q-.9-.45-1.9-.35.3-1-.65-2.1l-1.95-2.15q.7.6 1.55.4l.65-.45 1.05-1.55q-.2.5.35.6l.1-.6-.05-.65.2-.3-.05-.85-.1-.75.1-.25-.05-.05q-.25-.6-.9-.4l-1.05.4-.6.65-.4.6-.35-1.3-.25.8-.5 2.95q.05-1-.55-1.6-.35-.3-.75-.3l-1.8-.05q.55-.15.2-.75l.2-.15.3.3q.2.3.55.2h.3l.7.2.75-.1.5-1.05q.3-.7-.05-1.25l.1-.05-.2-.35.25.3.35-.8-.25-.15-.4-.7-.25-.4-.2-.1-.1.05-1.05.35q-.65.35-.75 1-.65-.2-1.2.6l-.45.55-.05-.05q.5-.95.55-2 .9.45 2.05-.4l.35-.25-2.3-.55q.85.1 1.45-.55l.3-.75.1-1.95q.15.6.7.25l.1.2-.25.3q-.3.25-.2.6v.3l-.2.8q-.25.5.05.75l.55.35L14.1 13q-.65.65-.55 1.55v.15l.55-.2q.3.65 1.2.6h.7v.05q-.9.2-1.6.75l.75.8-.35-.1.1.15-.35.15v.2l-.15-.05-.2.25 1.9-.1.7-.8q.05.6.65 1.05l.35.1.35-.45h-.85q.25-1-.65-2.1l-1.95-2.15q.7.6 1.5.4l.65-.45 1.05-1.6q-.2.6.5.65l-.05.2-.4.15q-.3 0-.45.35l-.15.25-.55.55q-.45.3-.35.7l.5 1.05q.4.65 1 .65-.05.45.2.8l-.2-1-.5-.75-.5-.5 1.65-.3.8-.3-.8.75q-.55 1.1-.2 2.1l.2.4h.05l.6.4-.05.05-.2-.05q-.35 0-.75.35h.15l1.5-.25.05-.05-.8-.8h1.75q.55-.05.55-.3l-.15-.7q-.2-.55-.9-.45.55-.75 0-1.3l.4-.05.6-1.5.3 1 .05-.05.05-.3q.4.75 1.4.65l.65-.35m.25 6.65q-.25.3-.15.8l.2.65-.2-.35-.35.25-.9 1.5-.15-.35q-.25-.8-.9-.8l-.15.25v-.25l-.1.05-.1-.35-.15-.15-.6.15q-.1-.85-1.2-.8l-.4.05.15-.7q.05-.4-.1-.3l.3-.4q-.2.5.2.85l.7.3q.2 0 .55.3l.45.05-.1-.2.15.1.05.05.3.25.1.05.6.15-.25.15.5.3.6.05.25-.65q.15-.55-.5-.9.8-.3.65-1.05.1.25.35.15.75-.35 1.3-.9-.3.5-.25 1.1v.8q-.3-.85-.85-.2m-2.85 3.15l.3.1q-.8.3-.8 1.4l.2.75.2.35q-.55-.3-1.5.3l1.05-.8-.3-.55-.35-.35q.65-.35.6-.8l-.1-.9q-.1-.25.1-.6 0 .75.6 1.1m9.3-9.95q.6.05 1.05-.25l.05.4q-.05.55.05 1.1.05.4.4.7l-.4.05-.2.1-.2.45q.05.35.25.5-.5 0-.8.4l.1-.55q0-.7-.4-1.15h.45l.4.15q.35-1-.2-1.45l-1.3-.05-.25-1.65.75 1 .25.25M13.95 1.35l-.05.45-.95.05-.55.65-.5.3q.5-.45.4-1.2l-.1-.3q.7.4 1.45-.3l.4-.65.15-.35q.1.65 1.2 1.05L14.8.9l-.65-.2-.2.65m-.8 4.45l2.75-.15-2.1.55-.5.35-.4.45-.4.05q-.35.2-.55.55l-.45.6-.7-.15q-.5-.3-.95.2l-.65 1-.2.85v.75L7.7 9.7q-.35-.3-.7-.45l1 .2q1.15-.3 1.6-1.25l.15-1.1q.35.5 1.1.5l.95-.3q.75-.3 1.1-1.1l.1-.5.15.1m-7.7.15l-.1-.5q-1 .3-1.05 1.05 0 .7.7 1.2-.7.5-1.1 1.2l.35-1.25.05-.4-.8-.8.3-.25.8-.65.3-.8.3.35.15.1.45-.05.25-.5.75.45q-.25.1-.45.25-.55.4-.65 1l-.25-.4m-3.2 5.25l.9.05.15-.05.4-.35.75.7H3.8l.2.3-.25-.1-.55-.1-.45.1q.05.6-.25.6l-.4.1.1-.4-.15.2q-.15.2-.15.5 0-.75.35-1.05v-.5m5.65 4.1l.5.4q-.65.6.05 1.55l.25.3-.6.3-.2.25-.45-.05q.45-.1.5-.65l-.15-.75q-.1-.25-.05-.65 0-.45-.35-.5v-.55l-.2-.6 1.05.25q-.35.1-.35.7m-6.15 3.25l.6.55.3.55q-.45-.55-1.1-.4l-.3.15q.4-.8-.3-1.6l-.6-.4-.35-.15q.6-.15.95-1.35l-.15.65-.15.75.6.2h.45q-.3.7.05 1.05m13.15.55l.65.25.3-.1.3.45-.8.05q-.3.3-.35.7l-.35.55q-.3.3-.05.6l-.35.4-.2.6-.65-.95q.3.15.7-.3l-.1-.65q.8.05.9-1.15v-.45m1.7 8.6q-.15.05-.35.2l.25-.05.45-.25q-.5.55-.95.5l-.3.35-.65-.7-.1-.05h-.55l-.1-1.05.5.45.05-.35.1.25.3.45.4.25q.35-.45.6-.25l.35.25m-5.35 2.75q.45-.5.25-1.4l1.55-.05-1.05.65-.25.3q-.15.6.05 1.15l-1.35-.1q-.4 0-.7.3v-.45l-.05-.2-.4-.3-.5.2-.25-.9.5.2q.65.1 1.1-.3l-.1.5-.2.4q.9.55 1.4 0m8.65-.6l1.4 1.05.65.1.2-.7q.15-.55-.45-.9.8-.3.65-1.05.05.25.3.15l1.35-.9q-.3.55-.3 1.1l.05.85-.05-.05q-.3-.85-.8-.2-.3.35-.2.8l.25.65-.2-.35-.35.25-.9 1.5-.2-.35q-.3-.95-1.15-.75l-.25-1.2"/><path fill="#f00" d="M28.6 12.2l.15.35v.05l-.15-.4m.75 5.1v.35l-.1 1.05.1-1.4M6.05 23l-.6-1.15h.2q.45-.1.7.25.55.65-.3.9M8.8 6.9l.5-.35-.2.25-.3.1"/><path fill="url(#a)" d="M28.8 12.65l.1.3h-.05v-.05l-.05-.25m.15.45l.15.65-.05-.05v-.05l-.1-.55m.25 1.15l.2 2.35-.05.7v-1.8l-.15-1.25m.05 4.6l-.8 2.6-.05-.05.3-.65v-.15l.15-.3v-.05l.1-.35v-.05l.1-.35v-.05l.05-.1.05-.4.05-.1h.05m-.85 2.7l-1.15 2.05 1.15-2.1v.05"/><path fill="url(#b)" d="M25.3 7.3l1.2 1.25v.1h.05v.05h.05l.35.45v.05l.55.75-.05.1-.25.15h.35l-.35.6.7-.15.35.65.3.75.05.15.15.4h.05v.05l.05.25v.05h.05l.05.15.1.55v.05l.05.05.1.5.15 1.25v1.8l-.1 1.4v.15h-.05l-.05.1-.05.4-.05.1v.05l-.1.35v.05l-.1.35v.05l-.15.3v.15l-.3.65-.1-.15.1.25-1.15 2.1-.3-1.6h-.05l.2 1.8-.6.85-.5.55-.25.15-1 1-.15.05h-.05l-.25.3-1.05.6-.25.15-1.1.6-.6.25-.2.05-.1.05q-.25 0-.35.15h-.3l-.05.1-.4.05-.05.05h-.25l-.05.1-1.15.15h-2.85l-2.15-.35-.1-.1H13l-.05-.1-.35-.1q-.75-.2-1.35-.55l-.15-.1-.25-.1 1.65-.15v-.05l-2-.05-1.1-.7-1.65-1.35v-.1l-.3-.35-.15-.05-.9-1.25-.35-.55.75.1q.55.05 1 .4L7.1 22v-.15l.65.15q.9.45 1.2 1.7l-.15 1.1.4-.8 1.05-1.4-.7-.05-.85-.15-.9-.65q-.5-.5-.2-1.05.3-.6.1-.75l-.55-.45-.55-.65-.05-.35-.45-.45-.3-.55q-.25-.35-.6-2.25l.2 2.95-.1.2.5.1q.75.35 1.05 1.15l.3 1-.2.95q-.4-.15-.55-.8-.4.65-.85.4l-.5-.25-.15-.35.2-.35 1.15-1.4-1.15.1q.1.7-.4 1l-.05-.05v-.05l-.1-.35v-.05l-.05-.4-.05-.1-.1-.85v-2.9l.25-1.45v-.05h.05v-.35l.05-.05v-.05h.05l.05-.35.05-.05q.45-1.55 1.2-2.75l1.9-2.35V7.7H8v-.05h.05v.3l1.5-1.2q.7-.5 1.05-.35l.15-.25-.5-.05-.1-.05.2-.2.3-.15h.05v-.05h.05V5.6h.05l.1-.05.15-.05v-.05h.1l.05-.05.15-.1h.1l.1-.1.5-.15 1.1-.45h.15v-.05h.1V4.5l.6-.1h.05l.25-.05.05-.05.95-.15h3.3v.05l.55.1-.05.15.15-.15h.1v.6l.5-.45.85.25.3.05.1.1h.1l.1.05 1.15.45.05.05.15.1h.05l.1.05.1.1h.1v.05l.95.55.05.05.15.1h-.05l.1.05.4.3v.05h.1l.05.05.2.15.1.1.2.5.05-.3m-4.25-1.4L22 7.1l.85 1.25.1.45-1.4-.95-.05-.15-.35.35-1.5.25-.95-.25q-.6-.5-.65-1.05l-.7.8-.75.25.1-.25-.7.25-.6-.15-.75-.8.35.85.1.4-.55.05-.45.15.15-.3-.2.3h-.2q-.5-.05-.6-.6l-.05.55.2.2.2.35-.45.05q-.8-.1-.3-.85l-.65.45-.95.4q.7.15 1.45.65.2.15.05.4l1.2-.05q-.1-.75.4-.9L15 9l.3.6v1.85l.75-.9q-.65-.65-.1-1.5l.2-.3h-.05l.1-.1.25.25.05-.5 1.05-.4q.6-.2.9.4.25.6.5.5l.65-.2.8-.15.35.15.55-.1h.6l.95.3h-.3l1.1 1.65q.4.75.3 1.1l.2.2.05-.55.55-.05.05-.1-1.2-1.1-.25-.95.55.25-.55-.3-.1-.9V7.8L21.7 6.55l-.6-.7-.05.05m-.3 4.7q-.4-.35-.2-.85l-.35.4q.15-.1.1.3l-.1.7.4-.05q1.1-.05 1.15.8l.6-.15q.5.3.35.65l.8-.8-.55-.1q-.35-.1-.45-.35l-.55.05q-.3-.3-.55-.3-.35-.05-.65-.3m7.4 2l.15 1.6.1 1.55q-.05.75-.55.25l.1 2.05q0 .85-.3 1.1l.1.25.3-.4q.25-.2.5.3l.05-.1-.45-1.6q.3-1.25.7-1.8l.15-.3q-.4-.6-.65-1.95l-.2-.95m-.7 5.85l-.35-.25-.55-.9.25.4.05.25-.25-.35-.15.45q-.2.25.3.55l-.15.45-.4.4-.2.15h.35l-.4.6 1-.25-.1-.55.05-.15q.1-.4.55-.8m-6.2 4.6q-.6-.35-.6-1.1-.2.35-.1.6l.1.9q.05.45-.6.8l.35.35.3.55-1.05.8q.95-.6 1.5-.3l-.2-.35-.2-.75q0-1.1.8-1.4l-.3-.1m2.85-3.15q.55-.65.85.2v-.8q-.05-.6.25-1.1-.55.55-1.3.9-.25.1-.35-.15.15.75-.65 1.05.65.35.5.9l-.25.65-.6-.05-.5-.3.25-.15-.6-.15-.1-.05-.3-.25-.05-.05-.15-.1.1.2-.45-.05q-.35-.3-.55-.3l-.7-.3q-.4-.35-.2-.85l-.3.4q.15-.1.1.3l-.15.7.4-.05q1.1-.05 1.2.8l.6-.15.15.15.1.35.1-.05v.25l.15-.25q.65 0 .9.8l.15.35.9-1.5.35-.25.2.35-.2-.65q-.1-.5.15-.8m-.25-6.65l-.65.35q-1 .1-1.4-.65l-.05.3-.05.05-.3-1-.6 1.5-.4.05q.55.55 0 1.3.7-.1.9.45l.15.7q0 .25-.55.3h-1.75l.8.8-.05.05-1.5.25h-.15q.4-.35.75-.35l.2.05.05-.05-.6-.4h-.05l-.2-.4q-.35-1 .2-2.1l.8-.75-.8.3-1.65.3.5.5.5.75.2 1q-.25-.35-.2-.8-.6 0-1-.65l-.5-1.05q-.1-.4.35-.7l.55-.55.15-.25q.15-.35.45-.35l.4-.15.05-.2q-.7-.05-.5-.65l-1.05 1.6-.65.45q-.8.2-1.5-.4L16.65 15q.9 1.1.65 2.1h.85l-.35.45-.35-.1q-.6-.45-.65-1.05l-.7.8-1.9.1.2-.25.15.05v-.2l.35-.15-.1-.15.35.1-.75-.8q.7-.55 1.6-.75v-.05h-.7q-.9.05-1.2-.6l-.55.2v-.15q-.1-.9.55-1.55l-1.55 1.3-.55-.35q-.3-.25-.05-.75l.2-.8v-.3q-.1-.35.2-.6l.25-.3-.1-.2q-.55.35-.7-.25l-.1 1.95-.3.75q-.6.65-1.45.55l2.3.55-.35.25q-1.15.85-2.05.4-.05 1.05-.55 2l.05.05.45-.55q.55-.8 1.2-.6.1-.65.75-1l1.05-.35.1-.05.2.1.25.4.4.7.25.15-.35.8-.25-.3.2.35-.1.05q.35.55.05 1.25l-.5 1.05-.75.1-.7-.2h-.3q-.35.1-.55-.2l-.3-.3-.2.15q.35.6-.2.75l1.8.05q.4 0 .75.3.6.6.55 1.6l.5-2.95.25-.8.35 1.3.4-.6.6-.65 1.05-.4q.65-.2.9.4l.05.05-.1.25.1.75.05.85-.2.3.05.65-.1.6q-.55-.1-.35-.6l-1.05 1.55-.65.45q-.85.2-1.55-.4l1.95 2.15q.95 1.1.65 2.1 1-.1 1.9.35l.05-.1-.6-.4q-.8-.5-.65-1.2l-1.05-.65-.5-1.05q-.1-.35.35-.7l.6-.55.1-.2q.15-.4.5-.4l.2-.05-.9 1.8 1.7-2.3.15-.05-.25-.45q-.35-.8-.05-1.65l.2-.6.6-.2.75-.15.35.15.6-.1h.55q.4.05 2.05.8-2.25-1.25-2.35-1.55l-.05-.1q.45-.25 1.05.2l.3.2V15.8l.15-.45.35.15-.5-.4q-.35-.3-.3-.75l.1-.3.5-.2.25.2-.1-.2h.05q.45-.1.85.5l.25-.35.5-.45.45.6.4.45q-.7-.95-.45-1.6l-.3.25M13.15 5.8L13 5.7l-.1.5q-.35.8-1.1 1.1l-.95.3q-.75 0-1.1-.5L9.6 8.2q-.45.95-1.6 1.25l-1-.2q.35.15.7.45L9 10.85v-.75l.2-.85.65-1q.45-.5.95-.2l.7.15.45-.6q.2-.35.55-.55l.4-.05.4-.45.5-.35 2.1-.55-2.75.15M7.9 15.3q0-.6.35-.7l-1.05-.25.2.6v.55q.35.05.35.5-.05.4.05.65l.15.75q-.05.55-.5.65l.45.05.2-.25.6-.3-.25-.3q-.7-.95-.05-1.55l-.5-.4m8.7 12.4l-.35-.25q-.25-.2-.6.25l-.4-.25-.3-.45-.1-.25-.05.35-.5-.45.1 1.05h.55l.1.05.65.7.3-.35q.45.05.95-.5l-.45.25-.25.05q.2-.15.35-.2m-1.7-8.6v.45q-.1 1.2-.9 1.15l.1.65q-.4.45-.7.3l.65.95.2-.6.35-.4q-.25-.3.05-.6l.35-.55q.05-.4.35-.7l.8-.05-.3-.45-.3.1-.65-.25"/><path fill="none" stroke="#000" stroke-width=".05" stroke-linecap="round" stroke-miterlimit="3" d="M27.9 10.65l.35.65.3.75.05.15.15.4m.05.05l.1.3m.05.15l.15.65m.1.5l.2 2.35-.05.7-.1 1.4m0 .15l-.8 2.6m-.05.1l-1.15 2.05m-2.65 2.8h-.05"/></svg>