<svg xmlns="http://www.w3.org/2000/svg" viewBox="0 0 26.2 29.8" width="26.2" height="29.8"><defs><radialGradient gradientUnits="userSpaceOnUse" r="819.2" cx="0" cy="0" spreadMethod="pad" gradientTransform="matrix(-.014 0 0 .014 13.95 7)" id="a"><stop offset="0"/><stop offset=".561" stop-color="#999"/><stop offset="1" stop-color="#663"/></radialGradient><radialGradient gradientUnits="userSpaceOnUse" r="819.2" cx="0" cy="0" spreadMethod="pad" gradientTransform="matrix(-.001 0 0 .001 12.15 3.6)" id="b"><stop offset="0"/><stop offset=".561" stop-color="#999"/><stop offset="1" stop-color="#663"/></radialGradient><radialGradient gradientUnits="userSpaceOnUse" r="819.2" cx="0" cy="0" fx="87942.4" fy="0" spreadMethod="repeat" gradientTransform="matrix(-.006 0 0 .006 7.1 7.35)" id="c"><stop offset="0"/><stop offset=".561" stop-color="#999"/><stop offset="1" stop-color="#663"/></radialGradient><radialGradient gradientUnits="userSpaceOnUse" r="819.2" cx="0" cy="0" spreadMethod="pad" gradientTransform="matrix(-.005 0 0 .005 8.9 9.85)" id="d"><stop offset="0"/><stop offset=".561" stop-color="#999"/><stop offset="1" stop-color="#663"/></radialGradient><radialGradient gradientUnits="userSpaceOnUse" r="819.2" cx="0" cy="0" spreadMethod="pad" gradientTransform="matrix(-.009 0 0 .009 6.9 15.1)" id="e"><stop offset="0"/><stop offset=".561" stop-color="#999"/><stop offset="1" stop-color="#663"/></radialGradient><linearGradient gradientUnits="userSpaceOnUse" x1="-819.2" x2="819.2" gradientTransform="matrix(-.011 0 0 .013 11.75 18)" id="f"><stop offset="0" stop-color="#ff9"/><stop offset=".427"/><stop offset=".984" stop-color="#f00"/></linearGradient><radialGradient gradientUnits="userSpaceOnUse" r="819.2" cx="0" cy="0" spreadMethod="pad" gradientTransform="matrix(-.001 0 0 .001 2.1 14.8)" id="g"><stop offset="0"/><stop offset=".561" stop-color="#999"/><stop offset="1" stop-color="#663"/></radialGradient><radialGradient gradientUnits="userSpaceOnUse" r="819.2" cx="0" cy="0" spreadMethod="pad" gradientTransform="matrix(-.001 0 0 .001 .65 14.5)" id="h"><stop offset="0"/><stop offset=".561" stop-color="#999"/><stop offset="1" stop-color="#663"/></radialGradient><radialGradient gradientUnits="userSpaceOnUse" r="819.2" cx="0" cy="0" spreadMethod="pad" gradientTransform="matrix(-.001 0 0 .001 17.8 1.9)" id="i"><stop offset="0"/><stop offset=".561" stop-color="#999"/><stop offset="1" stop-color="#663"/></radialGradient><radialGradient gradientUnits="userSpaceOnUse" r="819.2" cx="0" cy="0" spreadMethod="pad" gradientTransform="matrix(-.001 0 0 .001 19.35 4.35)" id="j"><stop offset="0"/><stop offset=".561" stop-color="#999"/><stop offset="1" stop-color="#663"/></radialGradient><radialGradient gradientUnits="userSpaceOnUse" r="819.2" cx="0" cy="0" spreadMethod="pad" gradientTransform="matrix(-.001 0 0 .001 14.75 2.35)" id="k"><stop offset="0"/><stop offset=".561" stop-color="#999"/><stop offset="1" stop-color="#663"/></radialGradient><radialGradient gradientUnits="userSpaceOnUse" r="819.2" cx="0" cy="0" spreadMethod="pad" gradientTransform="matrix(-.001 0 0 .001 15.65 .65)" id="l"><stop offset="0"/><stop offset=".561" stop-color="#999"/><stop offset="1" stop-color="#663"/></radialGradient><radialGradient gradientUnits="userSpaceOnUse" r="819.2" cx="0" cy="0" spreadMethod="pad" gradientTransform="matrix(0 0 0 0 16.55 2.1)" id="m"><stop offset="0"/><stop offset=".561" stop-color="#999"/><stop offset="1" stop-color="#663"/></radialGradient><radialGradient gradientUnits="userSpaceOnUse" r="819.2" cx="0" cy="0" spreadMethod="pad" gradientTransform="matrix(-.002 0 0 .002 24.45 5.65)" id="n"><stop offset="0"/><stop offset=".561" stop-color="#999"/><stop offset="1" stop-color="#663"/></radialGradient><radialGradient gradientUnits="userSpaceOnUse" r="819.2" cx="0" cy="0" spreadMethod="pad" gradientTransform="matrix(-.001 0 0 .001 22.55 3.8)" id="o"><stop offset="0"/><stop offset=".561" stop-color="#999"/><stop offset="1" stop-color="#663"/></radialGradient><radialGradient gradientUnits="userSpaceOnUse" r="819.2" cx="0" cy="0" spreadMethod="pad" gradientTransform="matrix(-.001 0 0 .001 21.7 5.35)" id="p"><stop offset="0"/><stop offset=".561" stop-color="#999"/><stop offset="1" stop-color="#663"/></radialGradient><radialGradient gradientUnits="userSpaceOnUse" r="819.2" cx="0" cy="0" spreadMethod="pad" gradientTransform="matrix(-.001 0 0 .001 23.2 5.6)" id="q"><stop offset="0"/><stop offset=".561" stop-color="#999"/><stop offset="1" stop-color="#663"/></radialGradient><radialGradient gradientUnits="userSpaceOnUse" r="819.2" cx="0" cy="0" spreadMethod="pad" gradientTransform="matrix(-.001 0 0 .001 23.65 7.6)" id="r"><stop offset="0"/><stop offset=".561" stop-color="#999"/><stop offset="1" stop-color="#663"/></radialGradient><radialGradient gradientUnits="userSpaceOnUse" r="819.2" cx="0" cy="0" spreadMethod="pad" gradientTransform="matrix(-.001 0 0 .001 22.4 6.85)" id="s"><stop offset="0"/><stop offset=".561" stop-color="#999"/><stop offset="1" stop-color="#663"/></radialGradient><radialGradient gradientUnits="userSpaceOnUse" r="819.2" cx="0" cy="0" spreadMethod="pad" gradientTransform="matrix(-.009 0 0 .009 20.35 15.55)" id="t"><stop offset="0"/><stop offset=".561" stop-color="#999"/><stop offset="1" stop-color="#663"/></radialGradient><radialGradient gradientUnits="userSpaceOnUse" r="819.2" cx="0" cy="0" spreadMethod="pad" gradientTransform="matrix(-.001 0 0 .001 17.75 7)" id="u"><stop offset="0"/><stop offset=".561" stop-color="#999"/><stop offset="1" stop-color="#663"/></radialGradient><radialGradient gradientUnits="userSpaceOnUse" r="819.2" cx="0" cy="0" spreadMethod="pad" gradientTransform="matrix(-.001 0 0 .001 16 6.6)" id="v"><stop offset="0"/><stop offset=".561" stop-color="#999"/><stop offset="1" stop-color="#663"/></radialGradient><radialGradient gradientUnits="userSpaceOnUse" r="819.2" cx="0" cy="0" spreadMethod="pad" gradientTransform="matrix(-.003 0 0 .003 17.35 8.05)" id="w"><stop offset="0"/><stop offset=".561" stop-color="#999"/><stop offset="1" stop-color="#663"/></radialGradient><radialGradient gradientUnits="userSpaceOnUse" r="819.2" cx="0" cy="0" spreadMethod="pad" gradientTransform="matrix(-.004 0 0 .004 17.4 8.7)" id="x"><stop offset="0"/><stop offset=".561" stop-color="#999"/><stop offset="1" stop-color="#663"/></radialGradient><radialGradient gradientUnits="userSpaceOnUse" r="819.2" cx="0" cy="0" spreadMethod="pad" gradientTransform="matrix(-.001 0 0 .001 20.3 5.8)" id="y"><stop offset="0"/><stop offset=".561" stop-color="#999"/><stop offset="1" stop-color="#663"/></radialGradient><radialGradient gradientUnits="userSpaceOnUse" r="819.2" cx="0" cy="0" spreadMethod="pad" gradientTransform="matrix(-.001 0 0 .001 17.1 17.9)" id="z"><stop offset="0"/><stop offset=".561" stop-color="#999"/><stop offset="1" stop-color="#663"/></radialGradient><radialGradient gradientUnits="userSpaceOnUse" r="819.2" cx="0" cy="0" spreadMethod="pad" gradientTransform="matrix(-.001 0 0 .001 17.25 19.9)" id="A"><stop offset="0"/><stop offset=".561" stop-color="#999"/><stop offset="1" stop-color="#663"/></radialGradient><radialGradient gradientUnits="userSpaceOnUse" r="819.2" cx="0" cy="0" spreadMethod="pad" gradientTransform="matrix(-.001 0 0 .001 16.55 19.25)" id="B"><stop offset="0"/><stop offset=".561" stop-color="#999"/><stop offset="1" stop-color="#663"/></radialGradient><radialGradient gradientUnits="userSpaceOnUse" r="819.2" cx="0" cy="0" spreadMethod="pad" gradientTransform="matrix(-.001 0 0 .001 18.15 17.45)" id="C"><stop offset="0"/><stop offset=".561" stop-color="#999"/><stop offset="1" stop-color="#663"/></radialGradient><linearGradient gradientUnits="userSpaceOnUse" x1="-819.2" x2="819.2" gradientTransform="matrix(-.004 0 0 .008 22.65 23.45)" id="D"><stop offset="0" stop-color="#ff9"/><stop offset=".427"/><stop offset=".984" stop-color="#f00"/></linearGradient><radialGradient gradientUnits="userSpaceOnUse" r="819.2" cx="0" cy="0" spreadMethod="pad" gradientTransform="matrix(-.001 0 0 .001 18.4 20.4)" id="E"><stop offset="0"/><stop offset=".561" stop-color="#999"/><stop offset="1" stop-color="#663"/></radialGradient><radialGradient gradientUnits="userSpaceOnUse" r="819.2" cx="0" cy="0" spreadMethod="pad" gradientTransform="matrix(-.001 0 0 .001 18.25 18.95)" id="F"><stop offset="0"/><stop offset=".561" stop-color="#999"/><stop offset="1" stop-color="#663"/></radialGradient><linearGradient gradientUnits="userSpaceOnUse" x1="-819.2" x2="819.2" gradientTransform="matrix(-.003 0 0 .004 20.05 23.6)" id="G"><stop offset="0" stop-color="#ff9"/><stop offset=".427"/><stop offset=".984" stop-color="#f00"/></linearGradient><linearGradient gradientUnits="userSpaceOnUse" x1="-819.2" x2="819.2" gradientTransform="matrix(-.005 0 0 .004 16.25 25.25)" id="H"><stop offset="0" stop-color="#ff9"/><stop offset=".427"/><stop offset=".984" stop-color="#f00"/></linearGradient><linearGradient gradientUnits="userSpaceOnUse" x1="-819.2" x2="819.2" gradientTransform="matrix(-.002 0 0 .003 14.75 22.45)" id="I"><stop offset="0" stop-color="#ff9"/><stop offset=".427"/><stop offset=".984" stop-color="#f00"/></linearGradient><radialGradient gradientUnits="userSpaceOnUse" r="819.2" cx="0" cy="0" spreadMethod="pad" gradientTransform="matrix(-.001 0 0 .001 21.5 27.6)" id="J"><stop offset="0"/><stop offset=".561" stop-color="#999"/><stop offset="1" stop-color="#663"/></radialGradient><radialGradient gradientUnits="userSpaceOnUse" r="819.2" cx="0" cy="0" spreadMethod="pad" gradientTransform="matrix(-.001 0 0 .001 22.3 27.85)" id="K"><stop offset="0"/><stop offset=".561" stop-color="#999"/><stop offset="1" stop-color="#663"/></radialGradient><radialGradient gradientUnits="userSpaceOnUse" r="819.2" cx="0" cy="0" spreadMethod="pad" gradientTransform="matrix(0 0 0 0 14.2 26.3)" id="L"><stop offset="0"/><stop offset=".561" stop-color="#999"/><stop offset="1" stop-color="#663"/></radialGradient><radialGradient gradientUnits="userSpaceOnUse" r="819.2" cx="0" cy="0" spreadMethod="pad" gradientTransform="matrix(-.001 0 0 .001 13.5 25.4)" id="M"><stop offset="0"/><stop offset=".561" stop-color="#999"/><stop offset="1" stop-color="#663"/></radialGradient><radialGradient gradientUnits="userSpaceOnUse" r="819.2" cx="0" cy="0" spreadMethod="pad" gradientTransform="matrix(0 0 0 0 14.15 27.35)" id="N"><stop offset="0"/><stop offset=".561" stop-color="#999"/><stop offset="1" stop-color="#663"/></radialGradient><radialGradient gradientUnits="userSpaceOnUse" r="819.2" cx="0" cy="0" spreadMethod="pad" gradientTransform="matrix(-.001 0 0 .001 13 26.7)" id="O"><stop offset="0"/><stop offset=".561" stop-color="#999"/><stop offset="1" stop-color="#663"/></radialGradient><radialGradient gradientUnits="userSpaceOnUse" r="819.2" cx="0" cy="0" spreadMethod="pad" gradientTransform="matrix(0 0 0 0 13.2 27.45)" id="P"><stop offset="0"/><stop offset=".561" stop-color="#999"/><stop offset="1" stop-color="#663"/></radialGradient><radialGradient gradientUnits="userSpaceOnUse" r="819.2" cx="0" cy="0" spreadMethod="pad" gradientTransform="matrix(-.001 0 0 .001 14 28.05)" id="Q"><stop offset="0"/><stop offset=".561" stop-color="#999"/><stop offset="1" stop-color="#663"/></radialGradient><radialGradient gradientUnits="userSpaceOnUse" r="819.2" cx="0" cy="0" spreadMethod="pad" gradientTransform="matrix(-.001 0 0 .001 18.7 26)" id="R"><stop offset="0"/><stop offset=".561" stop-color="#999"/><stop offset="1" stop-color="#663"/></radialGradient><radialGradient gradientUnits="userSpaceOnUse" r="819.2" cx="0" cy="0" spreadMethod="pad" gradientTransform="matrix(0 0 0 0 19.15 25.35)" id="S"><stop offset="0"/><stop offset=".561" stop-color="#999"/><stop offset="1" stop-color="#663"/></radialGradient><radialGradient gradientUnits="userSpaceOnUse" r="819.2" cx="0" cy="0" spreadMethod="pad" gradientTransform="matrix(-.001 0 0 .001 19.5 26.1)" id="T"><stop offset="0"/><stop offset=".561" stop-color="#999"/><stop offset="1" stop-color="#663"/></radialGradient><radialGradient gradientUnits="userSpaceOnUse" r="819.2" cx="0" cy="0" spreadMethod="pad" gradientTransform="matrix(0 0 0 0 20.1 25.4)" id="U"><stop offset="0"/><stop offset=".561" stop-color="#999"/><stop offset="1" stop-color="#663"/></radialGradient><radialGradient gradientUnits="userSpaceOnUse" r="819.2" cx="0" cy="0" spreadMethod="pad" gradientTransform="matrix(-.001 0 0 .001 20.75 26.3)" id="V"><stop offset="0"/><stop offset=".561" stop-color="#999"/><stop offset="1" stop-color="#663"/></radialGradient><radialGradient gradientUnits="userSpaceOnUse" r="819.2" cx="0" cy="0" spreadMethod="pad" gradientTransform="matrix(0 0 0 0 20.6 27.5)" id="W"><stop offset="0"/><stop offset=".561" stop-color="#999"/><stop offset="1" stop-color="#663"/></radialGradient><radialGradient gradientUnits="userSpaceOnUse" r="819.2" cx="0" cy="0" spreadMethod="pad" gradientTransform="matrix(0 0 0 0 19.75 27.6)" id="X"><stop offset="0"/><stop offset=".561" stop-color="#999"/><stop offset="1" stop-color="#663"/></radialGradient><radialGradient gradientUnits="userSpaceOnUse" r="819.2" cx="0" cy="0" spreadMethod="pad" gradientTransform="matrix(-.001 0 0 .001 19.8 28.35)" id="Y"><stop offset="0"/><stop offset=".561" stop-color="#999"/><stop offset="1" stop-color="#663"/></radialGradient><radialGradient gradientUnits="userSpaceOnUse" r="819.2" cx="0" cy="0" spreadMethod="pad" gradientTransform="matrix(0 0 0 0 20.9 28.5)" id="Z"><stop offset="0"/><stop offset=".561" stop-color="#999"/><stop offset="1" stop-color="#663"/></radialGradient><radialGradient gradientUnits="userSpaceOnUse" r="819.2" cx="0" cy="0" spreadMethod="pad" gradientTransform="matrix(-.001 0 0 .001 1.05 16.2)" id="aa"><stop offset="0"/><stop offset=".561" stop-color="#999"/><stop offset="1" stop-color="#663"/></radialGradient><radialGradient gradientUnits="userSpaceOnUse" r="819.2" cx="0" cy="0" spreadMethod="pad" gradientTransform="matrix(-.001 0 0 .001 .85 17.4)" id="ab"><stop offset="0"/><stop offset=".561" stop-color="#999"/><stop offset="1" stop-color="#663"/></radialGradient><radialGradient gradientUnits="userSpaceOnUse" r="819.2" cx="0" cy="0" spreadMethod="pad" gradientTransform="matrix(-.001 0 0 .001 2.55 16.2)" id="ac"><stop offset="0"/><stop offset=".561" stop-color="#999"/><stop offset="1" stop-color="#663"/></radialGradient><radialGradient gradientUnits="userSpaceOnUse" r="819.2" cx="0" cy="0" spreadMethod="pad" gradientTransform="matrix(-.001 0 0 .001 2.3 17.5)" id="ad"><stop offset="0"/><stop offset=".561" stop-color="#999"/><stop offset="1" stop-color="#663"/></radialGradient><radialGradient gradientUnits="userSpaceOnUse" r="819.2" cx="0" cy="0" spreadMethod="pad" gradientTransform="matrix(-.001 0 0 .001 3.85 17.25)" id="ae"><stop offset="0"/><stop offset=".561" stop-color="#999"/><stop offset="1" stop-color="#663"/></radialGradient><radialGradient gradientUnits="userSpaceOnUse" r="819.2" cx="0" cy="0" spreadMethod="pad" gradientTransform="matrix(0 0 0 0 4.65 22.05)" id="af"><stop offset="0"/><stop offset=".561" stop-color="#999"/><stop offset="1" stop-color="#663"/></radialGradient><linearGradient gradientUnits="userSpaceOnUse" x1="-819.2" x2="819.2" gradientTransform="matrix(-.004 0 0 .003 6.6 23.8)" id="ag"><stop offset="0" stop-color="#ff9"/><stop offset=".427"/><stop offset=".984" stop-color="#f00"/></linearGradient><radialGradient gradientUnits="userSpaceOnUse" r="819.2" cx="0" cy="0" spreadMethod="pad" gradientTransform="matrix(-.001 0 0 .001 4.4 22.7)" id="ah"><stop offset="0"/><stop offset=".561" stop-color="#999"/><stop offset="1" stop-color="#663"/></radialGradient><radialGradient gradientUnits="userSpaceOnUse" r="819.2" cx="0" cy="0" spreadMethod="pad" gradientTransform="matrix(-.001 0 0 .001 6.35 21.75)" id="ai"><stop offset="0"/><stop offset=".561" stop-color="#999"/><stop offset="1" stop-color="#663"/></radialGradient><radialGradient gradientUnits="userSpaceOnUse" r="819.2" cx="0" cy="0" spreadMethod="pad" gradientTransform="matrix(-.001 0 0 .001 5.25 21.7)" id="aj"><stop offset="0"/><stop offset=".561" stop-color="#999"/><stop offset="1" stop-color="#663"/></radialGradient><radialGradient gradientUnits="userSpaceOnUse" r="819.2" cx="0" cy="0" spreadMethod="pad" gradientTransform="matrix(0 0 0 0 5.35 22.45)" id="ak"><stop offset="0"/><stop offset=".561" stop-color="#999"/><stop offset="1" stop-color="#663"/></radialGradient><radialGradient gradientUnits="userSpaceOnUse" r="819.2" cx="0" cy="0" spreadMethod="pad" gradientTransform="matrix(-.001 0 0 .001 7.9 22.85)" id="al"><stop offset="0"/><stop offset=".561" stop-color="#999"/><stop offset="1" stop-color="#663"/></radialGradient><radialGradient gradientUnits="userSpaceOnUse" r="819.2" cx="0" cy="0" spreadMethod="pad" gradientTransform="matrix(-.001 0 0 .001 6.35 22.9)" id="am"><stop offset="0"/><stop offset=".561" stop-color="#999"/><stop offset="1" stop-color="#663"/></radialGradient><radialGradient gradientUnits="userSpaceOnUse" r="819.2" cx="0" cy="0" spreadMethod="pad" gradientTransform="matrix(-.001 0 0 .001 5.25 26.15)" id="an"><stop offset="0"/><stop offset=".561" stop-color="#999"/><stop offset="1" stop-color="#663"/></radialGradient><radialGradient gradientUnits="userSpaceOnUse" r="819.2" cx="0" cy="0" spreadMethod="pad" gradientTransform="matrix(-.001 0 0 .001 4.8 27.15)" id="ao"><stop offset="0"/><stop offset=".561" stop-color="#999"/><stop offset="1" stop-color="#663"/></radialGradient><linearGradient gradientUnits="userSpaceOnUse" x1="-819.2" x2="819.2" gradientTransform="matrix(-.001 0 0 .001 11.65 26.65)" id="ap"><stop offset="0" stop-color="#ff9"/><stop offset=".427"/><stop offset=".984" stop-color="#f00"/></linearGradient><radialGradient gradientUnits="userSpaceOnUse" r="819.2" cx="0" cy="0" spreadMethod="pad" gradientTransform="matrix(-.001 0 0 .001 4.3 26.05)" id="aq"><stop offset="0"/><stop offset=".561" stop-color="#999"/><stop offset="1" stop-color="#663"/></radialGradient><radialGradient gradientUnits="userSpaceOnUse" r="819.2" cx="0" cy="0" spreadMethod="pad" gradientTransform="matrix(-.001 0 0 .001 3.55 26.55)" id="ar"><stop offset="0"/><stop offset=".561" stop-color="#999"/><stop offset="1" stop-color="#663"/></radialGradient><radialGradient gradientUnits="userSpaceOnUse" r="819.2" cx="0" cy="0" spreadMethod="pad" gradientTransform="matrix(0 0 0 0 3.35 27.15)" id="as"><stop offset="0"/><stop offset=".561" stop-color="#999"/><stop offset="1" stop-color="#663"/></radialGradient></defs><path fill="url(#a)" d="M16.55.35l2.1.1q.65-.05 1.1.4l.9.5 1 .4h.1L23.35 3l.75.8.15.35v.2l-.2 1.5v.2l.1.35q.15.45.7.55l-.1.7-.2.05q-.1-.55-.85-.7-.4-.05-.65.25l-.2.35v.1h-.05v.05q-.1.25-.05.4l.05.05-.45.05-1.15-.15-.75-.45-.5-.4-.4-.35-.15-.15-.15-.1-.25.15-.7.4q-.05-.85-.8-.6l-.3.35v.1l.1.45-.65.1h-.05l-.15-.05h-.3l-.7.2-.1.05-.4.15-.1.05q-.35.1-.5-.2h-.5q-.4.1-.35-.25.1-.5-.3-.5l-.5-.4v.5l-.15.7-.35.6-.5.45-.65.3-.35.2q-.3.15-.6.4l-.45.4-.35.65-.1.75v.5l-.05.15-.2.65-.1.15-.4.3-.65.3-.05-.05.55-.5.05-.05.2-.6-.05-.35-.15-.9v-.5l.35-.7.3-.3.55-.3.3-.1.55-.25.75-.35.3-.25.3-.55.05-.25V7.5l-.3.25-.65.35-.6.2-1.3.2-1.15.2-.35.3q-.15.15-.15.35l-.2.5-.2.3-.1.1-.8.55-.5.2-.35.05L4.4 11q-.8-.2-1.35-.85l.6.3.65.15.75.05.6-.15.5-.4.3-.65.35-.6.5-.45.55-.3 1.4-.5.25-.05 1.05-.2.65-.35.3-.55.1-.7V5.5l-.15-.35-.15.7-.1.35-.1.2-.5.35-.7.2-1.1-.2h-.05L8.4 6.5 8 6.15 7.9 6l-.6-.6-.3-.15-.5-.05-.4.1q-.3.1-.45.3l-.25.35h-.05l.3-.65q.15-.25.45-.4l.7-.25.7-.1.2.1.45.5.35.55.5.5.65.05.65-.25.35-.5.35-1.25.05-.1.25-.3 1.7-.1-.15-.3h-.05v-.1l-.3-.25.55-.15-.05-.2.05-.25.05-.05.2-.3.65-.4 1.2-.4v-.1l.45.05.4-.2.35-.4.05-.05.1-.2.05-.1M15.4 3l-.25-.1-1.9.1-.2-.05.2.05 1.9-.1.25.1m6.75 1.55h-.1l-.45.15-.2.15-.2.35-.05.3v.35q0 .45.45.3l.65-.7V5l-.1-.45m.5-1.05q-.25 0-.6.3l.2.3q.95.05.75-.45l-.05-.15h-.3m.25 2.15l.35.6.3-.65v-.05q.05-.5-.65-.55v.65m-.05 1.15v-.35q-.85-.25-.95.35v.15l.1.4.6-.05.15-.15.1-.35m-2.6-.6h.1q.45-.1.25-.75-.35-.05-.6.6h-.05l-.05.1.35.05m-1.8-4.8h-.2l-.4-.15-.55.15-.2.2-.05.15v.2l.05.35q.2.4.75.15l.3-.15.15-.1.15-.15.05-.15.05-.25-.05-.1-.05-.15m-2.05.95l.05-.05q.45-.1.2-.45-.45-.05-.3.45l.05.05m1.45 1.4l-.35.35v.05l-.25.25-.4-.3.1.55-.15-.1-.7-.4.05.05.2.55v.1l-.15-.1q-.35-.25-.8-.25l.1.25.2.75-.1-.1-.6-.55-.05.95.05-.95.6.55.1.1-.2-.75-.1-.25q.45 0 .8.25l.15.1v-.1l-.2-.55-.05-.05.7.4.15.1-.1-.55.4.3.25-.25V4.1l.35-.35m1.9-.05q-.45.05-.65.3l-.2.65V5l.4-.1.1-.05.4-.6-.05-.55m-5.1-1.5l-.2-.1.05.05-.05.45h.25l.25-.15-.3-.25m.2 3.55l-.05-.1V5.6l-.55-.6-.05.5-.05.15-.1.2-.25.4-.4-.9h-.05l-.3-.5-.05.4v.15l-.05.5-.25.55v.2-.2l.25-.55.05-.5v-.15l.05-.4.3.5h.05l.4.9.25-.4.1-.2.05-.15.05-.5.55.6v.05l.05.1.1.1V5.8l-.1-.05m-2.55.2l-.35 1.3-.1.15-.05.1.05-.1.1-.15.35-1.3m4.1.8l.05-.2-.75.05-.15.2.85-.05m2.1-.8l.75.7-.75-.7"/><path fill="url(#b)" d="M11.3 3.85l1.15-.75h.05l.3.25v.1h.05l.15.3-1.7.1"/><path fill="url(#c)" d="M9.5 7.55l-.1-.05h-.85l-1.15.45-.75.35-.4.25-.2.05-.2.05-1.9.85-.5.05-.5-.15-.4-.3.65.05.7-.05.7-.25 1.1-.45.3-.25.45-.4L7.7 7l.6-.2.45-.05h.05l1.1.2.7-.2.5-.35.1-.2.1-.35.15-.7.15.35v.25l-.1.7-.3.55-.65.35-1.05.2"/><path fill="url(#d)" d="M11.15 8.7l-1.1.25-.7.2-.45.15-.3.2-.4.6-.15.4-.95 1.2-.4.3-.7.15v-.05l.6-.25.5-.4.3-.5.45-1.3.35-.55.45-.45.3-.15 1.3-.2.6-.2.65-.35.3-.25v.15l-.05.25-.3.55-.3.25"/><path fill="url(#e)" d="M11.05 15.85l-.7.3-1.55.95-1.8.75-1.75.5H5.2q-.4.25-1 .35l-2 .1q-.75-.1-1.15-.7l-.15-.15.35-.2.2-.35-.2-.4q-.15-.15-.4-.15l-.25.1-.05-.7-.3-1.1.05-.1.35.1.5-.2.15-.45-.15-.45-.4-.15q.4-.3.95-.35.95-.05 1.65.65l1.2 1.35q.6.8 1.65.9l1.65-.25q.9-.35 1.65-.95l1.25-1.4.7-.8 1.4-1.3q.4-.4.75-.45v.3q-.05 1-.8 1.65l-1.25 1.35q-.5.6-.5 1.25M1.8 14.8l.1.25.2.1.2-.1.1-.25-.1-.25-.2-.1-.2.1-.1.25m.35 1.4l.15.3.25.1.3-.1.15-.3-.15-.3-.3-.1-.25.1-.15.3m-.8-.4l-.3-.15q-.2 0-.35.15l-.15.4v.05l.15.35.35.15.3-.15.15-.4-.15-.4m.7 1.45l-.1.25.1.2.25.15.25-.15.1-.2-.1-.25-.25-.15-.25.15m1.8-.5q-.2 0-.4.15l-.15.35.15.4.4.15.4-.15.15-.4-.15-.35-.4-.15"/><path fill="url(#f)" d="M20.45 7.65q.45.75.5 1.6l-.05.05-.35-.3-.05-.35q-.3-.75-1.35-.15-1.25.7-.45 1.2.15.7.8 1.1l1.45.7q.05.75-.65 1.3l-1.35 1.3-.25.25q.15.6.65.95l.9.45q-.5.15-.95.4-.5.25-.9.7l-.25-.1-.4.2-.1.2-.4.2-.15-.05q-.2 0-.3.15l-.1.3-.1.1q-.35.4-.55 1l.05.5.15.25 1 1.25.35.6q-.5-.45-1.2-.55l-1.15-.4h-.05l-.8-.1q-.75.3-1.4.8l-.7.6q-1.15 1.05-1.15 2.55l-.25 1.5-.45 1.05-.1.1-.9.6q-2.55.3-5.1 0-.7-.1-1.25.45l-.6.7.1-.6q.05-.85.55-1.4l.15-.1.05.15.2.1.15-.1.1-.25-.1-.2.15-.1.1.1.35.15.4-.15.15-.3h.05v.1l.1.25.25.15.3-.15.1-.25v-.1l1.55.35q1.1.45 1.85-.35l.25-.3.35-.7.15-.7.25-1.5.45-1.2.8-1.15.25-.2q.4-.2.35-.8v-1l-.3-.45-.5-1.75-.05-.45q0-.65.5-1.25l1.25-1.35q.75-.65.8-1.65v-.3l.45-1.6q.35-.75.85-1.4l-.05 1.4q.05 1.3 1.3.45L17.65 9q.7-.65 1.6-.9l.65-.55.05-.3.5.4m-1.8 6q-.05.4.05.7-.1-.3-.05-.7M3.35 27l-.1.05-.05.1.05.15.1.05.1-.05.05-.15-.05-.1-.1-.05m1.45-.15l-.25.1-.15.2.15.2.25.1.25-.1.1-.2-.1-.2-.25-.1"/><path fill="url(#g)" d="M1.8 14.8l.1-.25.2-.1.2.1.1.25-.1.25-.2.1-.2-.1-.1-.25"/><path fill="url(#h)" d="M.2 15v-.05L0 14.5l.2-.45q.2-.2.45-.2l.1.05.4.15.15.45-.15.45-.5.2-.35-.1L.2 15"/><path fill="url(#i)" d="M18.45 1.4l.05.15.05.1-.05.25-.05.15-.15.15-.15.1-.3.15q-.55.25-.75-.15l-.05-.35v-.2l.05-.15.2-.2.55-.15.4.15h.2"/><path fill="url(#j)" d="M19.75 3.7l.05.55-.4.6-.1.05-.4.1v-.35l.2-.65q.2-.25.65-.3"/><path fill="url(#k)" d="M14.65 2.2l.3.25-.25.15h-.25l.05-.45-.05-.05.2.1"/><path fill="url(#l)" d="M16.5.45l-.1.2-.05.05-.35.4-.4.2-.45-.05v-.1L15.2.6l-.05-.25-.3-.3.4-.05h.15l.55.05.35.25.1.1.1.05"/><path fill="url(#m)" d="M16.4 2.35l-.05-.05q-.15-.5.3-.45.25.35-.2.45l-.05.05"/><path fill="url(#n)" d="M24.25 4.35l.05.05.55 2.55q-.55-.1-.7-.55l-.1-.35v-.2l.2-1.5"/><path fill="url(#o)" d="M22.65 3.5h.3l.05.15q.2.5-.75.45l-.2-.3q.35-.3.6-.3"/><path fill="url(#p)" d="M22.15 4.55l.1.45v.45l-.65.7q-.45.15-.45-.3V5.5l.05-.3.2-.35.2-.15.45-.15h.1"/><path fill="url(#q)" d="M22.9 5.65V5q.7.05.65.55v.05l-.3.65-.35-.6"/><path fill="url(#r)" d="M24.55 7.7l-.6.25h-.2V8l-.95.2-.05-.05q-.05-.15.05-.4V7.7h.05v-.1l.2-.35q.25-.3.65-.25.75.15.85.7"/><path fill="url(#s)" d="M22.85 6.8l-.1.35-.15.15-.6.05-.1-.4V6.8q.1-.6.95-.35v.35"/><path fill="url(#t)" d="M20.95 9.3l.7.45 1.65.75.55.45.6 1.6.15 1.45v.15q.15.85-.4 1.45l-1.5 1.15-.85.5-.75.55q-.45.4-.5.95l-.25.85q-.25.5-.35 1.05l-.1.8-.15.55-.15.1-1.6.65-.2.05q-.25.1-.15-.3l-.05-1v-.05l-.35-.6-1-1.25-.15-.25-.05-.5q.2-.6.55-1l.1.05.1.45.3.15.3-.15.1-.45-.1-.45-.15-.1.4-.2-.05.3.15.45q.15.2.4.2t.4-.2l.15-.45-.15-.5v-.05l-.15-.05q.4-.45.9-.7.45-.25.95-.4l.8-.15q1-.15 1.8-.7.95-.65.5-1.7l-.6-.8q-.65-.55-1.5-.8l-.3-.1-1.45-.7q-.65-.4-.8-1.1-.8-.5.45-1.2 1.05-.6 1.35.15l.05.35.35.3h.05m-2.3-.05l.05.45-.05-.45m-.3 9.9l.05-.2-.05-.25-.1-.1-.05.1-.05.25.05.2.05.1.1-.1m.05.7q-.2 0-.3.15l-.15.4.15.4.3.2.3-.2.15-.4-.15-.4q-.1-.15-.3-.15m-1.15-.3l-.25.1-.1.25.1.25.25.1.2-.1.1-.25-.1-.25-.2-.1m-.7-.65l-.2.1-.1.25.1.3.2.1.2-.1.1-.3-.1-.25-.2-.1"/><path fill="url(#u)" d="M18.3 7.2h-.05l-.95.3-.1-.45v-.1l.3-.35q.75-.25.8.6"/><path fill="url(#v)" d="M16.4 6.75l-.85.05.15-.2.75-.05-.05.2"/><path fill="url(#w)" d="M19.55 6.9v.05l-.4.45-1 .85-1.6.95q-1.3.7-1.4-.4-.05-.7.2-1l.1-.05.7-.2h.3l.15.05h.05l.65-.1.95-.3h.05l.7-.4.25-.15.15.1.15.15"/><path fill="url(#x)" d="M19.55 6.9l.4.35-.05.3-.65.55q-.9.25-1.6.9l-1.5 1.15q-1.25.85-1.3-.45l.05-1.4.05-.35.4-.15q-.25.3-.2 1 .1 1.1 1.4.4l1.6-.95 1-.85.4-.45V6.9"/><path fill="url(#y)" d="M20.25 6.2l-.35-.05.05-.1H20q.25-.65.6-.6.2.65-.25.75h-.1"/><path fill="url(#z)" d="M17.25 17.35l.15.1.1.45-.1.45-.3.15-.3-.15-.1-.45v-.15l.1-.3q.1-.15.3-.15l.15.05"/><path fill="url(#A)" d="M17.25 19.55l.2.1.1.25-.1.25-.2.1-.25-.1-.1-.25.1-.25.25-.1"/><path fill="url(#B)" d="M16.55 18.9l.2.1.1.25-.1.3-.2.1-.2-.1-.1-.3.1-.25.2-.1"/><path fill="url(#C)" d="M18.4 16.85l.15.05v.05l.15.5-.15.45q-.15.2-.4.2t-.4-.2l-.15-.45.05-.3.1-.2.4-.2.25.1"/><path fill="url(#D)" d="M21.85 17.25l1.1 1.4q.5.8.5 1.75L23 22q-.25 1.25.55 1.8L25 24.9l.45.5q.65.8.75 1.75.1 1.1-.9 1.7-.75.45-1.75.35l-1.85-.1q-1 0-1.85.4l-.7.25.1-.35.2-.9h.1l.25.05.2-.05.1-.15-.1-.1-.2-.05-.25.05h-.05l.15-.35h.1l.2-.1.05-.2v-.1q.25-.2.6-.25l.25-.1.65.05q.45.05.85.25l-.05.05-.25.1-.15.25.15.3.25.1.3-.1.15-.3-.05-.15.35.35q.3.4.8.35.45 0 .65-.35.55-.7.2-1.6l-.35-.55q-.7-.65-1.65-.6-.5.05-.75-.3l-.3-.4q-.25-.25-.25-.65l-.1-2.1-.4-.7q-.4-.35-.9-.5.1-.55.35-1.05l.25-.85q.05-.55.5-.95l.75-.55m-1.45 10.1l-.1.15.1.15.2.05.2-.05.1-.15-.1-.15-.2-.05-.2.05m.7.25l.15.2.25.1.25-.1.1-.2-.1-.25-.25-.1-.25.1-.15.25m-.4 1.1l.2.05.2-.05.1-.2-.1-.2-.2-.05-.2.05-.1.2.1.2"/><path fill="url(#E)" d="M18.4 19.85q.2 0 .3.15l.15.4-.15.4-.3.2-.3-.2-.15-.4.15-.4q.1-.15.3-.15"/><path fill="url(#F)" d="M18.35 19.15l-.1.1-.05-.1-.05-.2.05-.25.05-.1.1.1.05.25-.05.2"/><path fill="url(#G)" d="M21.4 23.95L20.45 25l-.2.25-.15-.05-.15.05-.05.15.05.15.15.1.15-.1.05-.1.5.2.95.15 1 .5-1.6.1v-.1l-.1-.2-.3-.05-.2.05-.15.2.15.15v.05l-1.05.1-1.35-.3q-.95-.4-.7-1.25l.25-.05q1.05-.15 1.85-.9.7-.65.35-1.65l-.15-.45.15-.55.1-.8q.5.15.9.5l.4.7.1 2.1m-2.35 1.3l-.05.1.05.1.1.05.1-.05.05-.1-.05-.1-.1-.05-.1.05m.15.85l.1.25.2.15.25-.15.1-.25-.1-.25-.25-.1-.2.1-.1.25m-.7-.35l-.1.25.1.2.2.1.2-.1.1-.2-.1-.25-.2-.1q-.15 0-.2.1"/><path fill="url(#H)" d="M17.45 25.05q-.95.15-1.8.75-.65.45-.45 1.3l.35.4.65.05q.6-.05 1.2.25l.6.55q-.65-.35-1.5 0l-2.15.05v-.05l.15-.3-.15-.25-.35-.1-.3.1q-.15.1-.15.25l-.5-.45-.2-.25-.25-.6-.05-.05-.05-.5q0-.6.45-1.1.3-.3.75-.5l.15-.05.9-.15H15.9l1.6-.3q.5-.3.5-.95v-.4l1.6-.65.15-.1.15.45q.35 1-.35 1.65-.8.75-1.85.9l-.25.05M14.2 26l-.1.05-.05.25.05.2.1.1.15-.1.05-.2-.05-.25-.15-.05m-.45-.95l-.25-.15q-.15 0-.25.15l-.15.35.15.35.25.15.25-.15.1-.35-.1-.35m-.5 1.85l.15-.2-.15-.25-.25-.1-.25.1-.1.25.1.2.25.1.25-.1m-.2.7l.15.05.15-.05.1-.15-.1-.15-.15-.05-.15.05-.05.15.05.15m1.25-.4l-.15-.1q-.1 0-.15.1l-.05.15.05.2.15.05.15-.05.05-.2-.05-.15"/><path fill="url(#I)" d="M13 21.2q.65-.5 1.4-.8l.8.1.95 1.55q.75.85.05 1.8l-.4.55h-1.05l-.9.15q.25-.55.1-1.35l-.7-1.6-.25-.4"/><path fill="url(#J)" d="M21.1 27.6l.15-.25.25-.1.25.1.1.25-.1.2-.25.1-.25-.1-.15-.2"/><path fill="url(#K)" d="M22.4 27.5l.2.1.1.1.05.15-.15.3-.3.1-.25-.1-.15-.3.15-.25.25-.1h.1"/><path fill="url(#L)" d="M14.2 26l.15.05.05.25-.05.2-.15.1-.1-.1-.05-.2.05-.25.1-.05"/><path fill="url(#M)" d="M13.75 25.05l.1.35-.1.35-.25.15-.25-.15-.15-.35.15-.35q.1-.15.25-.15l.25.15"/><path fill="url(#N)" d="M14.3 27.2l.05.15-.05.2-.15.05-.15-.05-.05-.2.05-.15q.05-.1.15-.1l.15.1"/><path fill="url(#O)" d="M13.25 26.9L13 27l-.25-.1-.1-.2.1-.25.25-.1.25.1.15.25-.15.2"/><path fill="url(#P)" d="M13.05 27.6l-.05-.15.05-.15.15-.05.15.05.1.15-.1.15-.15.05-.15-.05"/><path fill="url(#Q)" d="M14.3 28.4l-.3.05-.3-.1-.15-.3q0-.15.15-.25l.3-.1.35.1.15.25-.15.3-.05.05"/><path fill="url(#R)" d="M18.5 25.75q.05-.1.2-.1l.2.1.1.25-.1.2-.2.1-.2-.1-.1-.2.1-.25"/><path fill="url(#S)" d="M19.05 25.25l.1-.05.1.05.05.1-.05.1-.1.05-.1-.05-.05-.1.05-.1"/><path fill="url(#T)" d="M19.2 26.1l.1-.25.2-.1.25.1.1.25-.1.25-.25.15-.2-.15-.1-.25"/><path fill="url(#U)" d="M20.25 25.25l.05.15v.05l-.05.1-.15.1-.15-.1-.05-.15.05-.15.15-.05.15.05"/><path fill="url(#V)" d="M21.1 26.4l-.05.05-.3.1-.15-.05-.05-.05-.15-.15.15-.2.2-.05.3.05.1.2-.05.1"/><path fill="url(#W)" d="M20.4 27.35l.2-.05.2.05.1.15-.1.15-.2.05-.2-.05-.1-.15.1-.15"/><path fill="url(#X)" d="M19.65 27.9l-.05-.1-.1-.2.1-.2.15-.05.2.05.05.1v.1l-.05.2-.2.1h-.1"/><path fill="url(#Y)" d="M19.45 28.4v-.05l.05-.1h.05l.25-.05.2.05.1.1-.1.15-.2.05-.25-.05-.1-.1"/><path fill="url(#Z)" d="M20.7 28.7l-.1-.2.1-.2.2-.05.2.05.1.2-.1.2-.2.05-.2-.05"/><path fill="url(#aa)" d="M1.35 15.8l.15.4-.15.4-.3.15-.35-.15-.15-.35v-.05l.15-.4q.15-.15.35-.15l.3.15"/><path fill="url(#ab)" d="M.9 17.95H.85q-.2 0-.4-.2L.3 17.4l.15-.4.15-.05.25-.1q.25 0 .4.15l.2.4-.2.35-.35.2"/><path fill="url(#ac)" d="M2.15 16.2l.15-.3.25-.1.3.1.15.3-.15.3-.3.1-.25-.1-.15-.3"/><path fill="url(#ad)" d="M2.05 17.25l.25-.15.25.15.1.25-.1.2-.25.15-.25-.15-.1-.2.1-.25"/><path fill="url(#ae)" d="M3.85 16.75l.4.15.15.35-.15.4-.4.15-.4-.15-.15-.4.15-.35q.2-.15.4-.15"/><path fill="url(#af)" d="M4.5 22.15l-.05-.1.1-.1.1-.05.15.05.05.1-.05.15-.15.05-.1-.05-.05-.05"/><path fill="url(#ag)" d="M4.5 22.15l.05.05.1.05.15-.05.05-.15-.05-.1.15-.1.1.15.2.1.2-.1.1-.3v-.1l.45-.1-.1.25.15.2.3.1.3-.1.1-.2-.05-.2.55.25.65.6q-.2 0-.3.15l-.15.3.15.3.3.1.3-.1.1-.15.45.85.9 1.2-.35.7-.25.3-.35-.25-1.35-1.15-1.5-1.15-1.8.1-.45.55q-.3-.75.4-1.55l.5-.45m-.1.85l.2-.1.05-.2-.05-.25-.2-.1q-.1 0-.15.1l-.05.25.05.2.15.1m1.95-.6l-.35.15-.15.35.15.3.35.15.35-.15.1-.3-.1-.35q-.15-.15-.35-.15m-1.15-.15l-.05.2.05.15.15.1.1-.1.05-.15-.05-.2-.1-.05-.15.05"/><path fill="url(#ah)" d="M4.4 23l-.15-.1-.05-.2.05-.25q.05-.1.15-.1l.2.1.05.25-.05.2-.2.1"/><path fill="url(#ai)" d="M6 21.5h.05l.3-.1.3.1.05.05.05.2-.1.2-.3.1-.3-.1-.15-.2.1-.25"/><path fill="url(#aj)" d="M4.95 21.85v-.15l.1-.3.2-.1.2.1.1.2v.1l-.1.3-.2.1-.2-.1-.1-.15"/><path fill="url(#ak)" d="M5.2 22.25l.15-.05.1.05.05.2-.05.15-.1.1-.15-.1-.05-.15.05-.2"/><path fill="url(#al)" d="M7.9 22.4l.3.15.1.3V23l-.1.15-.3.1-.3-.1-.15-.3.15-.3q.1-.15.3-.15"/><path fill="url(#am)" d="M6.35 22.4q.2 0 .35.15l.1.35-.1.3-.35.15L6 23.2l-.15-.3.15-.35.35-.15"/><path fill="url(#an)" d="M4.9 26.05l.1-.15.25-.1.3.1.1.15v.1l-.1.25-.3.15L5 26.4l-.1-.25v-.1"/><path fill="url(#ao)" d="M4.8 26.85l.25.1.1.2-.1.2-.25.1-.25-.1-.15-.2.15-.2.25-.1"/><path fill="url(#ap)" d="M12.85 27.35l-1.1.05-1.3-.5.45-1.05.5.2 1.1.15.05.5.05.05.25.6"/><path fill="url(#aq)" d="M3.85 26.25l-.05-.2.15-.3.35-.1.4.1.15.3-.15.3-.4.15-.35-.15-.1-.1"/><path fill="url(#ar)" d="M3.3 26.65v-.1l.05-.25.2-.1.15.1v.05l.1.2-.1.25-.15.1-.2-.1-.05-.15"/><path fill="url(#as)" d="M3.35 27l.1.05.05.1-.05.15-.1.05-.1-.05-.05-.15.05-.1.1-.05"/><path fill="none" stroke="#4D4D4D" stroke-width=".05" stroke-linecap="round" stroke-miterlimit="3" d="M24.25 4.2v-.05l-.15-.35-.75-.8-1.6-1.25h-.1l-1-.4-.9-.5q-.45-.45-1.1-.4l-2.1-.1-.1.05h-.05l-.1-.1-.35-.25L15.4 0h-.15l-.4.05.3.3.05.25-.05.55v.2l-1.2.4-.65.4-.2.3-.05.05-.05.25.05.2.2.05 1.9-.1.25.1m9.45 3.95L24.3 4.4v-.05l-.05-.15m.6 2.75l-.1.7-.2.05-.6.25h-.2V8l-.95.2-.45.05-1.15-.15-.75-.45m.5 1.6v.05l.7.45 1.65.75.55.45.6 1.6.15 1.45v.15q.15.85-.4 1.45l-1.5 1.15-.85.5M23 22q-.25 1.25.55 1.8L25 24.9l.45.5q.65.8.75 1.75.1 1.1-.9 1.7-.75.45-1.75.35l-1.85-.1m-2.55.65l.1-.35m.2-.9V28.35l.05-.1.15-.35-.05-.1-.1-.2.1-.2.15-.05.2.05.05.1q.25-.2.6-.25l.25-.1.65.05q.45.05.85.25l.05.05.2.1.1.1.35.35q.3.4.8.35.45 0 .65-.35.55-.7.2-1.6l-.35-.55q-.7-.65-1.65-.6-.5.05-.75-.3m-.55-1.05L20.45 25l-.2.25.05.15v.05l.5.2.95.15 1 .5-1.6.1h-.05l-.05.05-.3.1-.15-.05h-.05l-1.05.1-1.35-.3q-.95-.4-.7-1.25-.95.15-1.8.75-.65.45-.45 1.3l.35.4.65.05q.6-.05 1.2.25l.6.55q-.65-.35-1.5 0l-2.15.05h-.05l-.3.05-.3-.1-.15-.3-.5-.45-.2-.25-1.1.05m-8.45-.75v-.1l.05-.25.2-.1.15.1v.05m.15-.1l-.05-.2.15-.3.35-.1.4.1.15.3m.05 0l.1-.15.25-.1.3.1.1.15m3.4 0l-.35-.25m-4.2-3.65l-.05-.1.1-.1.1-.05.15.05m.15-.1v-.15l.1-.3.2-.1.2.1.1.2m.45-.1h.05l.3-.1.3.1.05.05.55.25.65.6.3.15.1.3V23l.45.85.9 1.2m1.4-9.2l-.7.3-1.55.95-1.8.75-1.75.5H5.2q-.4.25-1 .35l-2 .1q-.75-.1-1.15-.7l-.15-.15H.85q-.2 0-.4-.2L.3 17.4l.15-.4.15-.05-.05-.7-.3-1.1L.2 15v-.05L0 14.5l.2-.45q.2-.2.45-.2l.1.05q.4-.3.95-.35.95-.05 1.65.65l1.2 1.35q.6.8 1.65.9l1.65-.25q.9-.35 1.65-.95l1.25-1.4.7-.8 1.4-1.3q.4-.4.75-.45m1.3-3l.05-.35-.1.05q-.35.1-.5-.2h-.5q-.4.1-.35-.25.1-.5-.3-.5l-.5-.4v.5l-.15.7-.35.6-.5.45-.65.3-.35.2q-.3.15-.6.4l-.45.4-.35.65-.1.75v.5l-.05.15-.2.65-.1.15-.4.3-.65.3-.15.05.1-.1.55-.5.05-.05.2-.6-.05-.35-.15-.9v-.5l.35-.7.3-.3.55-.3.3-.1.55-.25.75-.35-1.1.25-.7.2-.45.15-.3.2-.4.6-.15.4-.95 1.2-.4.3-.7.15-.45.05.45-.1.6-.25.5-.4.3-.5.45-1.3.35-.55.45-.45.3-.15-1.15.2-.35.3q-.15.15-.15.35l-.2.5-.2.3-.1.1-.8.55-.5.2-.35.05L4.4 11q-.8-.2-1.35-.85l.6.3.65.15.75.05.6-.15.5-.4.3-.65.35-.6.5-.45.55-.3 1.4-.5.25-.05-.1-.05h-.85l-1.15.45-.75.35-.4.25-.2.05-.2.05-1.9.85-.5.05-.5-.15-.4-.3.65.05.7-.05.7-.25 1.1-.45.3-.25.45-.4L7.7 7l.6-.2.45-.05-.35-.25-.4-.35L7.9 6l-.6-.6-.3-.15-.5-.05-.4.1q-.3.1-.45.3l-.25.35-.05.1-.05.2v.05l-.05.6M18.7 9.7l-.05-.45m1.6 6.5l.8-.15q1-.15 1.8-.7.95-.65.5-1.7l-.6-.8q-.65-.55-1.5-.8l-.3-.1m-2.55 5.35l.15.05v.05l.15.5-.15.45q-.15.2-.4.2t-.4-.2l-.15-.45.05-.3m-.4.2l.15.1.1.45-.1.45-.3.15-.3-.15-.1-.45m.9 3.55v.05l.05 1q-.1.4.15.3l.2-.05 1.6-.65.15-.1.15-.55.1-.8q.1-.55.35-1.05l.25-.85q.05-.55.5-.95l.75-.55M20.9 9.3h.05M16.5.45L16.4.4m-1.45 5.4l.05-.95.6.55.1.1-.2-.75-.1-.25q.45 0 .8.25l.15.1v-.1l-.2-.55-.05-.05.7.4.15.1-.1-.55.4.3.25-.25V4.1l.35-.35m-6.55.1l1.15-.75h.05l.55-.15m-1.75.9l-.25.3-.05.1-.35 1.25-.35.5-.65.25L9 6.2l-.5-.5-.35-.55-.45-.5-.2-.1-.7.1-.7.25q-.3.15-.45.4l-.3.65-.05.1v.2m3.45.5h.05l1.1.2.7-.2.5-.35.1-.2.1-.35.15-.7.15.35v.25l-.1.7-.3.55-.65.35-1.05.2m3.2-.9v-.2l.25-.55.05-.5v-.15l.05-.4.3.5h.05l.4.9.25-.4.1-.2.05-.15.05-.5.55.6v.05l.05.1m.1.05v.05l-.1-.1M11.8 7.5l.05-.1.1-.15.35-1.3M11.15 8.7l.3-.25.3-.55.05-.25V7.5l-.3.25-.65.35-.6.2-1.3.2m11-1.25l-.4-.35v.05l-.4.45-1 .85-1.6.95q-1.3.7-1.4-.4-.05-.7.2-1l-.4.15m4.6-1.05l-.15-.15-.15-.1-.25.15-.7.4h-.05l-.95.3-.65.1h-.05l-.15-.05h-.3l-.7.2-.1.05m3.9-1.15l-.75-.7M.75 13.9l.4.15.15.45-.15.45-.5.2-.35-.1L.2 15m1.6-.2l.1.25.2.1.2-.1.1-.25-.1-.25-.2-.1-.2.1-.1.25m.35 1.4l.15.3.25.1.3-.1.15-.3-.15-.3-.3-.1-.25.1-.15.3m-.8-.4l-.3-.15q-.2 0-.35.15l-.15.4v.05l.15.35.35.15.3-.15.15-.4-.15-.4M.9 17.95l.35-.2.2-.35-.2-.4q-.15-.15-.4-.15l-.25.1m1.45.3l-.1.25.1.2.25.15.25-.15.1-.2-.1-.25-.25-.15-.25.15m1.8-.5q-.2 0-.4.15l-.15.35.15.4.4.15.4-.15.15-.4-.15-.35-.4-.15m1.1 5.1l.1.15.2.1.2-.1.1-.3v-.1m-1.05.55l.05.05.1.05.15-.05.05-.15-.05-.1M4.4 23l.2-.1.05-.2-.05-.25-.2-.1q-.1 0-.15.1l-.05.25.05.2.15.1m1.95-.6l-.35.15-.15.35.15.3.35.15.35-.15.1-.3-.1-.35q-.15-.15-.35-.15M6 21.5l-.1.25.15.2.3.1.3-.1.1-.2-.05-.2m-1.5.7l-.05.2.05.15.15.1.1-.1.05-.15-.05-.2-.1-.05-.15.05m2.7.15q-.2 0-.3.15l-.15.3.15.3.3.1.3-.1.1-.15m8.4-5.25v.15m-.9 6.5l.4-.55q.7-.95-.05-1.8l-.95-1.55m-1.35 4.05l-.15.05m-1.15 2.1l.05.05.25.6m5.5-8.2l.05-.2-.05-.25-.1-.1-.05.1-.05.25.05.2.05.1.1-.1m.05.7q-.2 0-.3.15l-.15.4.15.4.3.2.3-.2.15-.4-.15-.4q-.1-.15-.3-.15m-1.15-.3l-.25.1-.1.25.1.25.25.1.2-.1.1-.25-.1-.25-.2-.1m-.7-.65l-.2.1-.1.25.1.3.2.1.2-.1.1-.3-.1-.25-.2-.1M18 22.75v.4q0 .65-.5.95l-1.6.3h-.1m1.65.65l.25-.05q1.05-.15 1.85-.9.7-.65.35-1.65l-.15-.45m.5 3.25l-.15-.05-.15.05-.05.15.05.15.15.1.15-.1.05-.1m-1.25-.2l-.05.1.05.1.1.05.1-.05.05-.1-.05-.1-.1-.05-.1.05m.15.85l.1.25.2.15.25-.15.1-.25-.1-.25-.25-.1-.2.1-.1.25m-.7-.35l-.1.25.1.2.2.1.2-.1.1-.2-.1-.25-.2-.1q-.15 0-.2.1M20 27.5v.1l-.05.2-.2.1h-.1m-.15.35h.05l.25-.05.2.05.1.1-.1.15-.2.05-.25-.05-.1-.1M14.2 26l-.1.05-.05.25.05.2.1.1.15-.1.05-.2-.05-.25-.15-.05m-.45-.95l-.25-.15q-.15 0-.25.15l-.15.35.15.35.25.15.25-.15.1-.35-.1-.35m-.5 1.85l.15-.2-.15-.25-.25-.1-.25.1-.1.25.1.2.25.1.25-.1m-.2.7l.15.05.15-.05.1-.15-.1-.15-.15-.05-.15.05-.05.15.05.15m1.25-.4l-.15-.1q-.1 0-.15.1l-.05.15.05.2.15.05.15-.05.05-.2-.05-.15m-.75.85q0-.15.15-.25l.3-.1.35.1.15.25-.15.3-.05.05m-1.8-2.2l-1.1-.15m9.75.25l-.1-.2-.3-.05-.2.05-.15.2.15.15.05.05m.55-.2l-.05.1m-.7.95l-.1.15.1.15.2.05.2-.05.1-.15-.1-.15-.2-.05-.2.05m.7.25l.15.2.25.1.25-.1.1-.2-.1-.25-.25-.1-.25.1-.15.25m1.6.1l.05.15-.15.3-.3.1-.25-.1-.15-.3.15-.25.25-.1h.1m-1.7 1.2l.2.05.2-.05.1-.2-.1-.2-.2-.05-.2.05-.1.2.1.2"/><path fill="none" stroke="#6D6D41" stroke-width=".05" stroke-linecap="round" stroke-miterlimit="3" d="M20.45 7.65q.45.75.5 1.6M10.45 26.9l-.1.1m-7.2-.25l.15-.1.05.15.2.1.15-.1.1-.25-.1-.2.15-.1.1.1.35.15.4-.15.15-.3h.05v.1l.1.25.25.15.3-.15.1-.25v-.1M13.6 11.3l.45-1.6q.35-.75.85-1.4l-.05 1.4q.05 1.3 1.3.45L17.65 9q.7-.65 1.6-.9l.65-.55.05-.3m.95 2.05l-.35-.3-.05-.35q-.3-.75-1.35-.15-1.25.7-.45 1.2.15.7.8 1.1l1.45.7q.05.75-.65 1.3l-1.35 1.3-.25.25q.15.6.65.95l.9.45q-.5.15-.95.4-.5.25-.9.7m-.75.3l-.4.2-.15-.05q-.2 0-.3.15l-.1.3-.1.1q-.35.4-.55 1l.05.5.15.25 1 1.25.35.6m-4-10.15v.3q-.05 1-.8 1.65l-1.25 1.35m7.15-.25q-.1-.3-.05-.7m-1 3.5l.1-.2.4-.2.25.1m-3.2 3.65h.05l1.15.4q.7.1 1.2.55M3.35 27l-.1.05-.05.1.05.15.1.05.1-.05.05-.15-.05-.1-.1-.05m1.45-.15l-.25.1-.15.2.15.2.25.1.25-.1.1-.2-.1-.2-.25-.1m15.65-19.2l-.5-.4"/><path fill="none" stroke="#690000" stroke-width=".05" stroke-linecap="round" stroke-miterlimit="3" d="M21.85 17.25l1.1 1.4q.5.8.5 1.75L23 22m-1.3 7.1q-1 0-1.85.4l-.7.25m.1-.35l.2-.9m2.5-3.5l-.3-.4q-.25-.25-.25-.65m-9.65 3.45l-1.3-.5m-.1.1l-.9.6q-2.55.3-5.1 0-.7-.1-1.25.45l-.6.7.1-.6q.05-.85.55-1.4m2.5-.7l1.55.35q1.1.45 1.85-.35m-.35-.25l-1.35-1.15-1.5-1.15-1.8.1-.45.55q-.3-.75.4-1.55l.5-.45m.3-.2l.15-.1m.6-.25l.45-.1m3.65 3.55l.15-.7.25-1.5.45-1.2.8-1.15.25-.2q.4-.2.35-.8v-1l-.3-.45-.5-1.75-.05-.45m8.95 4.8q.5.15.9.5l.4.7.1 2.1m-9.85-9.35q-.5.6-.5 1.25M13 21.2q.65-.5 1.4-.8l.8.1m-2.2.7l.25.4.7 1.6q.15.8-.1 1.35l.9-.15h1.05m-4.9 1.45l.25-1.5q0-1.5 1.15-2.55l.7-.6m.7 3.4q-.45.2-.75.5-.45.5-.45 1.1l.05.5m-1.15-.65l-.5-.2-.45 1.05m-.8-1.85l-.35.7-.25.3"/></svg>