<svg xmlns="http://www.w3.org/2000/svg" viewBox="0 0 43.9 48.8" width="43.9" height="48.8"><defs><radialGradient gradientUnits="userSpaceOnUse" r="819.2" cx="0" cy="0" spreadMethod="pad" gradientTransform="matrix(.005 0 0 .004 32.05 3.75)" id="a"><stop offset="0" stop-color="#f00"/><stop offset="1"/></radialGradient><radialGradient gradientUnits="userSpaceOnUse" r="819.2" cx="0" cy="0" spreadMethod="pad" gradientTransform="matrix(.003 0 0 .002 32.75 6.5)" id="b"><stop offset="0" stop-color="#f00"/><stop offset="1"/></radialGradient><radialGradient gradientUnits="userSpaceOnUse" r="819.2" cx="0" cy="0" fx="87942.4" fy="0" spreadMethod="repeat" gradientTransform="matrix(.026 0 0 .026 26.25 24.1)" id="c"><stop offset=".106" stop-color="#600"/><stop offset="1"/></radialGradient><radialGradient gradientUnits="userSpaceOnUse" r="819.2" cx="0" cy="0" spreadMethod="pad" gradientTransform="matrix(.006 0 0 .005 26.7 1.5)" id="d"><stop offset="0" stop-color="#f00"/><stop offset="1"/></radialGradient><radialGradient gradientUnits="userSpaceOnUse" r="819.2" cx="0" cy="0" spreadMethod="pad" gradientTransform="matrix(.009 0 0 .009 22.8 17.85)" id="e"><stop offset=".106" stop-color="#600"/><stop offset="1"/></radialGradient><radialGradient gradientUnits="userSpaceOnUse" r="819.2" cx="0" cy="0" spreadMethod="pad" gradientTransform="matrix(.008 0 0 .008 29.95 18.15)" id="f"><stop offset=".106" stop-color="#600"/><stop offset="1"/></radialGradient><radialGradient gradientUnits="userSpaceOnUse" r="819.2" cx="0" cy="0" spreadMethod="pad" gradientTransform="matrix(.004 0 0 .004 42.25 16.95)" id="g"><stop offset="0" stop-color="#f00"/><stop offset="1"/></radialGradient><radialGradient gradientUnits="userSpaceOnUse" r="819.2" cx="0" cy="0" spreadMethod="pad" gradientTransform="matrix(.004 0 0 .004 31.8 28)" id="h"><stop offset=".106" stop-color="#600"/><stop offset="1"/></radialGradient><radialGradient gradientUnits="userSpaceOnUse" r="819.2" cx="0" cy="0" spreadMethod="pad" gradientTransform="matrix(.004 0 0 .004 27.35 31.1)" id="i"><stop offset=".106" stop-color="#600"/><stop offset="1"/></radialGradient><radialGradient gradientUnits="userSpaceOnUse" r="819.2" cx="0" cy="0" spreadMethod="pad" gradientTransform="matrix(.003 0 0 .003 21.15 24.05)" id="j"><stop offset=".106" stop-color="#600"/><stop offset="1"/></radialGradient><radialGradient gradientUnits="userSpaceOnUse" r="819.2" cx="0" cy="0" spreadMethod="pad" gradientTransform="matrix(.004 0 0 .004 19.2 31)" id="k"><stop offset=".106" stop-color="#600"/><stop offset="1"/></radialGradient><radialGradient gradientUnits="userSpaceOnUse" r="819.2" cx="0" cy="0" spreadMethod="pad" gradientTransform="matrix(.003 0 0 .003 21.15 4.7)" id="l"><stop offset="0" stop-color="#f00"/><stop offset="1"/></radialGradient><radialGradient gradientUnits="userSpaceOnUse" r="819.2" cx="0" cy="0" spreadMethod="pad" gradientTransform="matrix(.004 0 0 .003 18.8 5.05)" id="m"><stop offset="0" stop-color="#f00"/><stop offset="1"/></radialGradient><radialGradient gradientUnits="userSpaceOnUse" r="819.2" cx="0" cy="0" spreadMethod="pad" gradientTransform="matrix(.003 0 0 .003 15.4 6.9)" id="n"><stop offset="0" stop-color="#f00"/><stop offset="1"/></radialGradient><radialGradient gradientUnits="userSpaceOnUse" r="819.2" cx="0" cy="0" spreadMethod="pad" gradientTransform="matrix(.001 0 0 .001 14.5 6.3)" id="o"><stop offset="0" stop-color="#f00"/><stop offset="1"/></radialGradient><radialGradient gradientUnits="userSpaceOnUse" r="819.2" cx="0" cy="0" spreadMethod="pad" gradientTransform="matrix(.005 0 0 .005 17.55 12.25)" id="p"><stop offset=".106" stop-color="#f00"/><stop offset="1"/></radialGradient><radialGradient gradientUnits="userSpaceOnUse" r="819.2" cx="0" cy="0" spreadMethod="pad" gradientTransform="matrix(.002 0 0 .002 20.8 14.45)" id="q"><stop offset="0" stop-color="#f00"/><stop offset="1"/></radialGradient><radialGradient gradientUnits="userSpaceOnUse" r="819.2" cx="0" cy="0" spreadMethod="pad" gradientTransform="matrix(.007 0 0 .005 19.6 15.4)" id="r"><stop offset="0" stop-color="#fff"/><stop offset="1"/></radialGradient><radialGradient gradientUnits="userSpaceOnUse" r="819.2" cx="0" cy="0" spreadMethod="pad" gradientTransform="matrix(.003 0 0 .003 18.45 15.65)" id="s"><stop offset="0" stop-color="#fff"/><stop offset="1"/></radialGradient><radialGradient gradientUnits="userSpaceOnUse" r="819.2" cx="0" cy="0" spreadMethod="pad" gradientTransform="matrix(.006 0 0 .005 18.05 18.75)" id="t"><stop offset="0" stop-color="#f00"/><stop offset="1"/></radialGradient><radialGradient gradientUnits="userSpaceOnUse" r="819.2" cx="0" cy="0" spreadMethod="pad" gradientTransform="matrix(.003 0 0 .002 17.2 15.75)" id="u"><stop offset="0" stop-color="#fff"/><stop offset="1"/></radialGradient><radialGradient gradientUnits="userSpaceOnUse" r="819.2" cx="0" cy="0" spreadMethod="pad" gradientTransform="matrix(.003 0 0 .003 13.6 15.95)" id="v"><stop offset="0" stop-color="#fff"/><stop offset="1"/></radialGradient><radialGradient gradientUnits="userSpaceOnUse" r="819.2" cx="0" cy="0" spreadMethod="pad" gradientTransform="matrix(.002 0 0 .002 16.05 15.7)" id="w"><stop offset="0" stop-color="#fff"/><stop offset="1"/></radialGradient><radialGradient gradientUnits="userSpaceOnUse" r="819.2" cx="0" cy="0" spreadMethod="pad" gradientTransform="matrix(.001 0 0 .001 15.15 15.45)" id="x"><stop offset="0" stop-color="#fff"/><stop offset="1"/></radialGradient><radialGradient gradientUnits="userSpaceOnUse" r="819.2" cx="0" cy="0" spreadMethod="pad" gradientTransform="matrix(.002 0 0 .002 14.95 15.8)" id="y"><stop offset="0" stop-color="#fff"/><stop offset="1"/></radialGradient><radialGradient gradientUnits="userSpaceOnUse" r="819.2" cx="0" cy="0" spreadMethod="pad" gradientTransform="matrix(.007 0 0 .006 17.7 21.2)" id="z"><stop offset="0" stop-color="#f00"/><stop offset="1"/></radialGradient><radialGradient gradientUnits="userSpaceOnUse" r="819.2" cx="0" cy="0" spreadMethod="pad" gradientTransform="matrix(.002 0 0 .001 13.45 22.5)" id="A"><stop offset="0" stop-color="#f00"/><stop offset="1"/></radialGradient><radialGradient gradientUnits="userSpaceOnUse" r="819.2" cx="0" cy="0" spreadMethod="pad" gradientTransform="matrix(.002 0 0 .002 12.9 22.6)" id="B"><stop offset="0" stop-color="#fff"/><stop offset="1"/></radialGradient><radialGradient gradientUnits="userSpaceOnUse" r="819.2" cx="0" cy="0" spreadMethod="pad" gradientTransform="matrix(.002 0 0 .002 17.2 23)" id="C"><stop offset="0" stop-color="#fff"/><stop offset="1"/></radialGradient><radialGradient gradientUnits="userSpaceOnUse" r="819.2" cx="0" cy="0" spreadMethod="pad" gradientTransform="matrix(.006 0 0 .006 16.5 28.2)" id="D"><stop offset=".106" stop-color="#600"/><stop offset="1"/></radialGradient></defs><path fill="#690" d="M41 18.7l-.25.6-.05.05-.3.5q-.3.45-.95.35.65.1.95-.35h.25l-.35 1.6v.1l-.45.55-2 1.55-.3.5-1-.7.7-.35 1.3-1.5.05-.15.85-1.25.3-.6q.4-.7 1.25-.9m-4.5 6.65l-.8.2h-.35v.1q-.1.35.25.55l.6.35q.4.4.15 1.05l.15.05.35-.1h.1l.15-.1 1.1-.55.45-.3q.25-.15.5 0 .95.5 1.85-.2l-.35 1.05h-.15l-.55-.05-.9.05q-.55.1-1.05.45l-1.65.45h-.05q-.8-.05-1.2-.65.45-1.3-.45-2-.25-.25 0-.6.6-.8 1.2-.15l.65.4m-3.95 15.8q.9.05 1.05.6h-1.05l-.05-.25.05-.35m4.8 3.4l.1.05q1.15.3 1.95 1.05l.5.7-1.35-.4-.4-.05.3.2q.55.4.65 1.15-.7-.55-2.2-.65l-.15.05q.45.75.3 1.7-.65-.85-1.8-1.25l-.7 1-.2-1.5q0-.85 1.35-.45l.25-.85q.8.1 1-.65.05-.1.15-.1h.25M32.4 47.5l-.2-.1-.35-.45.05-.1h-.05l.35-.05.05.1.15.6m-16.95-7.2l-.9.5q.05.45-.55.75-1.95-.75-2.65.45l-.3-.85q-1.1.25-1.45.7-.2-.65.1-1.05l-1.2.7.7-1.2 1.2-.9 2.3-.45h.05l.45-.05.5.05h.1l-1.15.35q-.8.15-.65.6l1 .15.8-.15q.8-.1 1.65.4M11 23.55l.7.5.15.25.1.4q.25.85-.45 1.5l-.15.1-.1.05h-.05v-.15l-.3-1.6q0-.45-.4-.65l-1.8-1.2-1.6-1.6q-.15.65-.85 1.05L6.4 21q0-.7-.5-1.05.5.35.5 1.05l-.15 1.2-.05.1-.1.8h-.35l-.05.3-.55-.7-.55-1.05v-.05l-.05-.1-.35-1.6.15-.7q.2-.35.75-.5h.1q.3-.55.85-.1l.2.2.45.35.35.2q.6.3.75 1.1l.2.3.05.05.1.05.85.6.4.15h.05q.4.2.45.6l-.05.15.05.35.1.15.65.6.2.1H11M9.1 26.8l-.05-.2q-.15-.6.65-.9v.1l-.25 1H9.1m.6-1.15l-.65-.3-.9.65-.6.3-1.15.35-1.05-.2-.45-.4q.45-.05.7-.7.45.8 1.65-.15.4-.4.4-.85l1.05-.05.35.25.1.1.55 1M1.55 24.6q-.2.55 0 1.2v.15l-.45-.35-.35-.4-.7-1.5q.15-.05.25-.15l.25.35 1 .7m-.9-3.75q.5-.25.95-.55 1.25-.15 1.7.4l1.25.85.05.05v.05l.55 1.05.55.7-.4-.05q-1.2-.4-2-1l-.25-.3-.1-.1-.25-.4-.5-.6-1.55-.1m31.4-12.5l.5.55.1.45 2.2.25q1.15.55 1.3 1.55v.2l.05.3 1.35 1.05-.2.2-1.9.35q-.7 0-.6-.6l.05-.55-.15-.65-.65-.5-1.5-.6-1.8.15-.2.1v-.1q.05-.45.4-.8l.75-.45-1.5.15q-1.3.35-1.2-.4.05-.55-.35-.4l-1 .5-.1-.35-.65-.85-2.95.15q-1.15-.1-.35.4L25.5 9.5l-3.75.6-.8.05-.7.25-.1.3-1.45-.25-.25.05h-.3l-2.25.45.4-.35 1.6-.7.65-.05q1.8-.2 3.25-1.1l-1.1-.25h-.1q1.6-1.2 4-1.65l.15-.05 1.85-.3-.65-.15-1.05-.1q1.35-.95 2.85-.45l.45.15.7.8.1 1q.35-1.25 1.55-.3l.2.6 1.3.3m-5.45 12.5l-.95-.2q-1-.05-1.15-.45l.35-.1L26 20l.6.85m.4 2.6q-.4.35-.95-.5l-.15-.25v-.05q-.3-.65.3-.95l.15-.05.9.9v.35l-.25.55m4.35-10.35l-.25.1v-.05h.05l.2-.05m7.1 4q-.8-.35-1.6-.75l-.15-.05.8-.45.4-.6q.15.9 1.05 1.35l.15.1h.5q-.5.55-.2 1.4.2.7-.55 1.25-.6.35-.75.9l-.05.35q-.05.55-.45.85l-.1.1-.45.2-.1-.15v-.8l.25-1.45.4-.6q1-.7.8-1.6l.05-.05M36 12.4l.2-.75-.2.75M9.7 40.8q.25-.35.95-.45-.7.1-.95.45m1.35.35l.1-.45-.1.45m24.2 5.95l.15-.3-.15.3m2.9-1.2l-.6-.25.6.25m-1.4.75l-.2-.3.2.3m-27.7-21.3q-.25-.2 0-.8-.25.6 0 .8"/><path fill="#923107" d="M36.2 26.55h.5l.8-.1h.6l-1 1-.15.1h-.1l-.35.1-.15-.05q.25-.65-.15-1.05m-2.6 15.2h.1v.15h.05l2.2 1.25q.85.55 1.1 1.3v.05l.05.05q-.1 0-.15.1-.2.75-1 .65l-.25.85q-1.35-.4-1.35.45l.2 1.5-.4.55-.4.15q-.45-.9-1.35-1.3l-.15-.6-.05-.1-.1-1.3q0-1.05 1.3-1.4l-1.85-.35q-1.05-.15-1.05-.9v-.2q-.1-.7-.7-.9.05-.4.45-.55l.15-.05-.55-1.9-.1-1.55h.15q1.35-.2 1.6 1v2q-.25 1.35 1 1.1l.05-.05h1.05M12.5 23.6l-.3-.05h.45l-.15.05m-1.25 2.75v.1l-.6.7-.25.4-.65.1-.35-.1-.7-.1-2.1.45.1-.15 1-.7 1.25-.25h.5l.25-1v-.1l.05-.05H9.7l-.55-1-.1-.1-.35-.25-1.05.05q0 .45-.4.85-1.2.95-1.65.15-.25.65-.7.7l-.6-.85.05-.1q-.55-.2-.55-.75-.05-.95-1.3-1.05l-.05.15-.9 1.15-1-.7-.25-.35L0 23l.55-1.5.1-.65 1.55.1.5.6.25.4.1.1.25.3q.8.6 2 1l.4.05.55.7h.05l-.2-1 .1-.8.05-.1q.7-.4.85-1.05l1.6 1.6 1.8 1.2q.4.2.4.65l.3 1.6v.15h.05m18.5-2.45l.75-.15v1.45l-.75.1q-.35.15-.4.5l-.05-.5-.05-.15v-.05q-.1-.6.2-.9l.35.15-.05-.45M2.5 23.3l.55-1.25-.55 1.25m13-10.7v.5l-.5-.45v-.05h.5m-4.85 14.55l-1.2-.35 1.2.35m19.9 14.35l-.15-.35.15.35"/><path fill="#4D4302" d="M34.35 28.45q-.45.2-.8.35l-.6.25-.85-.6v-.9q.05-1.1-.25-1.85-.3-.85.5-1.35l.2-.1.15-.3q.35-.9 1.4-.9l-.05 1-.45.5-.1.05-.15.1-.2.25q-.25.4 0 1l.1.25 1.05 2.1.05.15m-.25 2.2l-.05 1.6-.1.35.55.4 1 .9-.05.05L33.2 33l-2.45-.1.75-1.35.3-.75.5-.1 1.8-.05m1.5 6.55l-.05.05v.05l-.55 1q-.15-.55-.8-.8l-1.05 1.8q-.45.95-.6 1.85l-.05.35.05.25-.05.05q-1.25.25-1-1.1v-2q-.25-1.2-1.6-1h-.15l.15-.8.1-.1-.3-.25q-1.05-.8-.6-2.15l-.35-.15-.8-.6L29 33.3l.2.15 1.6.6-.05.15-.05.1q-.1 1.05 1 1.55l2.25.4q1.2-.05 1.65.95m-3.75 9.65q-.9-.7-.7-1.95.05-.55-.45-.75-1.2-.45-1.05-1.7l.05-.1v-.2l.05-.15.05-.25q.6.2.7.9v.2q0 .75 1.05.9l1.85.35q-1.3.35-1.3 1.4l.1 1.3-.35.05M17.75 33.1l-1.25.65.05.1q.9.9.35 1.9l-.25-.35-1.5-1.15q-.9-.5-.25-1 .5-.45 1.35-.35h1.05l-.4-.3.85.5m-.2 5.4l.35.4q.55 1.15-.85 1.15.55-.55-.35-1.2l.8-.35h.05m-4.3-2.45L13 35.8q-.3-.55-.25-1.25l-1.8.3-.2.1-.05-.2q-.15-.75.25-1.45.6-1.15 1.7-1.7-.3-.45.05-.9l.15-.15.3.5.8.85-.3.1q-1.8.55-2.35 1.8l2.8.25.45.75q-1.2.1-1.3 1.1v.15m-1.05-12.5l-.5.05-.7-.05h-.15l-.2-.1-.65-.6-.1-.15-.05-.35.05-.15q-.05-.4-.45-.6H9.4l.85-.4 5.45-1.1-.55.95-.15.15-.25.15-.5.5-1 .85-1.15-1.3-.05-.05-.15-.35V21.45q.1.85.75 1.5l.25.25-.05.2-.2.15h-.45m11.65-9.3q.6-.2 1.2.5.3.4 0 .85-.7.85-.2 1.85.45.95 1.65 1.15-.3.6-1.15.5-1.8-.25-1.7-2.1l.1-2.65.1-.1M15.7 33.9l.8-.15-.8.15m15.05 2.55l.75.5 2.7.55-2.7-.55-.75-.5"/><path d="M17.3 26.35l-.55-.2q-1.2-.3-1.85-.9l-.2.1q.1.8.9 1.35l-1.15-.65q-.9-.5-1.15-1.2l3.65-.45.8-.35q.5-.3 1.05 0-.1.7-1.05.75l.15.4q.2.3 0 .45l-.05-.05q-.6-.3-1.1-.45l.9.7.05.1q.6.6.45 1.35-.15-.65-.85-.95m1.6-14.2q1.2-1 1.5.2l-.3.1-.35.05-.85-.35"/><path fill="#330" d="M18.9 12.15l.85.35.2.1-.2.25v.55l-2.2.55-1.15-.05h-.15l.05-.15 1.6-.5q.55-.4 1.25-.6l.1-.05h-.1l-1.6.15q-.4.05-.65.25.15-.55.9-.75l.45-.1h.65m-4.25 3.05h-.3l-.35.15-.95-.6-.35-.3v-.05l-.25-.25h-.05l-.05-.5.1-.1h-.05l-.5-.45V13l.1-.5.25-.05q0-.65.75-.6l.2-1 .45-.5 1-.75.4 1.1.1.05.2 1 .2.65-.05.2H15l-.55.35-.2.35-1.35-.3-.65-.05.55.25 1.4.4.05.45.3 1.05.1.1m5.1-2.7l-.5.1.5-.1m-5.85-.9q.8-.1 1.1 1-.3-1.1-1.1-1"/><path fill="#300" d="M15.65 9.15l-.1-.5-.3-.65.55.25.6.65.35-1.3.15-.1.5 1.15.1.35h.15l.1-.1q.8-.7.75-1.9l-.15-.75.8 1 .4-1.9.2.8V7l.35-.8.05-1.35-.05-.1.5.55.4.9.7-1.15.3.2v-.1l.4-.95.8-1.3.45-.55.6-.5.2.1-.1.5V3.9l-.1.75 2.1-1.8.35.05-.2.85.15.15q1.1-.6 2.55-.65l1.8.05-2.25 1.15L31.7 5l-.1.15-.55.6H31l-.15.3.35-.1.05.2q1.45.65 2.2 1.75h-.8l-.6.45-1.3-.3-.2-.6q-1.2-.95-1.55.3l-.1-1-.7-.8-.45-.15q-1.5-.5-2.85.45l1.05.1.65.15-1.85.3-.15.05q-2.4.45-4 1.65h.1l1.1.25q-1.45.9-3.25 1.1l-.65.05-1.6.7-.4.35h-.1v-.3l-.15-1.5"/><path fill="#f00" d="M16.3 13.75q.1-.55.6-.75.25-.2.65-.25l1.6-.15v.05q-.7.2-1.25.6l-1.6.5m-2.05-.45q.5.2.9.55l-.95-.25-1.4-.4.1-.2 1.35.3"/><path fill="url(#a)" d="M31 3.3l3.5 1 .1.05 1.45.4-3.35-.05-.5.1-.25.1-.25.1-2.95-.55L31 3.3"/><path fill="url(#b)" d="M31.4 5.9q.95-.05 1.9.9l1.25 1.05-.05.2-1.05-.15q-.75-1.1-2.2-1.75l.15-.25"/><path fill="url(#c)" d="M41.25 18.05l-.25.65q-.85.2-1.25.9l-.3.6-.85 1.25-.05.15-1.3 1.5-.7.35 1 .7v.05l-.05.1v.25l-1 .8-.65-.4q-.6-.65-1.2.15-.25.35 0 .6.9.7.45 2 .4.6 1.2.65h.05L38 27.9q.5-.35 1.05-.45l.9-.05.55.05-.1.3-1.95.7-2.55.95-.45.1q-.65-.1-1.1-1.05l-.05-.15-1.05-2.1-.1-.25q-.25-.6 0-1l.2-.25.15-.1.1-.05.45-.5.05-1q-1.05 0-1.4.9l-.15.3-.2.1q-.8.5-.5 1.35.3.75.25 1.85v.9l-1.05-1.25q-.6-1-.55-2v-2.5l.2-.5q.2-.45.75-.65l.65-.25.6-.1 1.2.1.5.3.1.1.75.4q1.2.35 1.5-.25h.1l.05-.05H37.05v-.05l.45-.2.1-.1q.4-.3.45-.85l.05-.35q.15-.55.75-.9.75-.55.55-1.25-.3-.85.2-1.4h-.5l-.15-.1q-.9-.45-1.05-1.35l-.4.6-.8.45-.1-.05v-.05h-.1l-.15-.1-2.25-1.25q-.7-.4-1.05-1l-.25-.65v-.1q-.75-.25-1.45 0l-.2.05h-.05l-.1.05-1.15-.6q-.95-.5-2 .3l-.95.55q1.65.6 3.05 1.8l.4.35.15.55q-.1.85-1.15 1-.75.05-.35-.4-.7-.05-.75.25-.15.9.2 1.45 1 .5.05 1.4l-.65.5q.6.9.05 1.75-.2.25.05.35l.1.05q.55.1.7.7l.35.1.65.6-.3.3q-.3.3-.2.9v.05l.05.15.05.5q.05-.35.4-.5.35.8.1 1.65l-.15.35q-.6.75.65 1.65l.95.85.5 1-.3.75-.75 1.35 2.45.1 2.25.95h.1V34h.05v.05h.1q.9 1 .35 2.25l-.45.9q-.45-1-1.65-.95l-2.25-.4q-1.1-.5-1-1.55l.05-.1.3-.05-.25-.1-1.6-.6-.2-.15-.5-.85v-.4q.05-.3.7-.35.25 0 .15-.4-.25-1.05-1.65-1.6l-.75-.5q-.55-.5-1.55-.65h-.15v-.1h-.05q-.45-.8-1.65-.75l-.1.05-.8.7h-.05l-.55.6-.3-.1q-1.2.05-2.05.65l-3.05 1.85-.25.3.5.85.4.3h-1.05q-.85-.1-1.35.35-.65.5.25 1l1.5 1.15.25.35v.05q-.4.65-.4 1.45l-.1.15.25.7.75.3.1.05.05.05h-.05l-.8.35q.9.65.35 1.2l-1.6.25q-.85-.5-1.65-.4l-.8.15-1-.15q-.15-.45.65-.6l1.15-.35h-.1v-.1h.05l1.45-.55q-.4-1.1-1.3-1.7l-.65-.55v-.15q.1-1 1.3-1.1l-.45-.75-2.8-.25q.55-1.25 2.35-1.8l.3-.1.15-.1.6-.65q.55-.55 1.45-.7v-.2l-.1-.3q.05-.6.7-1.25.35-.45.9-.4 1.2.15 1.3-.6l.1-1.35q.05-.85 1.1-.95l-.25-.85v-.1q-.3-.5-.2-.85.1.45.95.75.6.15 1.05.6.4.45.9.35l-.45-.5h-.05l-.2-.25.25-.1.15-1.9.05-.25q.2-.8.9-1.35.95-.8.15-1.65-.6-.6-.65-1.35l-.2-2q-.2-1.1.3-1.85l.2-.25q.5-.75 1.15-1.15l.6-.6q.4-.7-.45-.85H23.3q.3.8-.45 1.25L22 13.55l-.1.35q-.2 1.2 0 2.35l.25 2.35v.35l-.4 1.15-.55.7-1.05 1.05-.15.2-.25.15-.95 1.4v.45q-.55-.3-1.05 0l-.8.35-3.65.45-.1-.55v-.2h-.05q-1.05 0-.7-.4l.05-.05v-.05l.15-.05.2-.15q.05.2.55.25l3.3.15.6-.5 2.45-2.1.75-1.2.25-.9.15-1.15.35.75.25.8v-1.3q0-1.25-.35-2.35l-.25-.5V14.3l.25-1 .05-.15-.1.1-.25.2-.05.05-.15-1.45q-.25-1.15.15-1.75l.15-.15.8-.05 3.75-.6-1.85-1.05q-.8-.5.35-.4l2.95-.15.65.85.1.35 1-.5q.4-.15.35.4-.1.75 1.2.4l1.5-.15-.75.45q-.35.35-.4.8v.1l.2-.1 1.8-.15 1.5.6.65.5.15.65-.05.55q-.1.6.6.6l1.9-.35.25-.05.65.3q1.15.5 1.95 1.35.65.7.65 1.85v.1l.15.2-.15.45-.25.15h.05l.5.7.1.1m-19.4-6.35l-.25.9-.4.55.4-.55.25-.9m4.65 6.9q-1.2-.2-1.65-1.15-.5-1 .2-1.85.3-.45 0-.85-.6-.7-1.2-.5l-.1.1-.1 2.65q-.1 1.85 1.7 2.1.85.1 1.15-.5m-1.65 1.5l-.35.1q.15.4 1.15.45l.95.2L26 20l-1.15.1m1 4.25l-.25-.45.25.45m.35-2.65q-.6.3-.3.95v.05l.15.25q.55.85.95.5l.25-.55v-.35l-.9-.9-.15.05m7.65-8.35l-1-.25h-.05.05l1 .25"/><path fill="url(#d)" d="M24.5 1.7Q25.55.9 27.05.4l.85-.2 2-.2-.9.35q-1.45.65-2.1 2v.05l-.15.25-.05.05-.35.15-2.1 1.8.1-.75V2.45l.1-.5.05-.25"/><path fill="url(#e)" d="M23.3 11.25h1.05q.85.15.45.85l-.6.6q-.65.4-1.15 1.15l-.2.25q-.5.75-.3 1.85l.2 2q.05.75.65 1.35.8.85-.15 1.65-.7.55-.9 1.35l-.05.25-.15 1.9-.25.1-.9-1.25-.25-.5v-.7l.3-.5.3-.2-.15-.6.55-.7.4-1.15v-.35l-.25-2.35q-.2-1.15 0-2.35l.1-.35.85-1.05q.75-.45.45-1.25"/><path fill="url(#f)" d="M29.75 23.9l-.65-.6-.35-.1q-.15-.6-.7-.7l-.1-.05q-.25-.1-.05-.35.55-.85-.05-1.75l.65-.5q.95-.9-.05-1.4-.35-.55-.2-1.45.05-.3.75-.25-.4.45.35.4 1.05-.15 1.15-1l-.15-.55-.4-.35q-1.4-1.2-3.05-1.8l.95-.55q1.05-.8 2-.3l1.15.6h.1l.25-.1q.7-.25 1.45 0v.1l.25.65-.45 2.2-.25.55q-.55.9-1.8 1.5l-.1.1h-.05l-.05.35q-.15.85-.85 1.5l-.1.15.15.05v.45q0 .8.45 1.55l.1.05.4.4v1.05l-.75.15M29 21.3l.1-.7.3-.4-.3.4-.1.7m-.3-7.65l2.3-.45-2.3.45"/><path fill="url(#g)" d="M40.85 17.1l1.1-.4.2-.1.95-.75q.65-.7.8-1.45v1.5l-.35 1-.75.65-1.55.4v.1l-.1-.1-.5-.7h-.05l.25-.15m-11.1 6.8l.05.45-.35-.15.3-.3"/><path fill="url(#h)" d="M33.55 28.8l.05.1.5 1.75-1.8.05-.5.1-.5-1-.95-.85q-1.25-.9-.65-1.65l.15-.35q.25-.85-.1-1.65l.75-.1q-.05 1 .55 2l1.05 1.25.85.6.6-.25"/><path fill="url(#i)" d="M27.95 33.65l-1.1-1.05-.15-.2q-.65-.95-.25-1.95l.05-.05q-.8-.65-1.15-1.6l.05-.25q1 .15 1.55.65l.75.5q1.4.55 1.65 1.6.1.4-.15.4-.65.05-.7.35v.4l.5.85-1.05.35m-.2-2.7l-.95-.3-.3-.25.3.25.95.3"/><path fill="url(#j)" d="M21.9 24.55l.2.25h.05l.45.5q-.5.1-.9-.35-.45-.45-1.05-.6-.85-.3-.95-.75.1-.55 1.05-.8l.25.5.9 1.25"/><path fill="url(#k)" d="M22.05 29.05l-.2.4q-.65.95-1.75 1.55l-.45.25.05.05-1.95 1.8-.85-.5-.5-.85.25-.3 3.05-1.85q.85-.6 2.05-.65l.3.1M17.85 32l1.8-.75-1.8.75"/><path fill="url(#l)" d="M20.1 4.75v-.2l.2-1.05.45-.8.1.7q.1.8.7 1.5l.15.15L21 6.2l-.4-.9-.5-.55"/><path fill="url(#m)" d="M18.35 6.25L17.8 4.8l-.25-.5-.8-1 1.45.8 1.15.95.2.3-.4 1.9-.8-1"/><path fill="url(#n)" d="M15.25 8l-.85-1.45.15-.3 1 .35 1.05.65.15.15v.2l-.35 1.3-.6-.65-.55-.25"/><path fill="url(#o)" d="M14.4 6.55l-.65-.5.8.2-.15.3"/><path fill="url(#p)" d="M14.65 9.6l1-.45.15 1.5v.3h.1l2.25-.45h.3l.25-.05 1.45.25.1-.3.7-.25-.15.15q-.4.6-.15 1.75l.15 1.45-.7.45-1.65 1.15-.75.15-.85-.1-.45.1-1 .1-.75-.15-.1-.1-.3-1.05-.05-.45.95.25q-.4-.35-.9-.55l.2-.35.55-.35v.05l.5.45v-.5h.3l-.25-.2-.2-.65-.2-1-.1-.05-.4-1.1m2.05 2q-.9.25-1.15.8.25-.55 1.15-.8m2.2.55h-.65l-.45.1q-.75.2-.9.75-.5.2-.6.75l-.05.15h.15l1.15.05 2.2-.55v-.55l.2-.25-.2-.1.35-.05.3-.1q-.3-1.2-1.5-.2"/><path fill="url(#q)" d="M20.8 13.5l.05-.05.25-.2.1-.1-.05.15-.25 1v1.05l-.8-1.4.7-.45"/><path fill="url(#r)" d="M20.9 15.35l.25.5q.35 1.1.35 2.35v1.3l-.25-.8-.35-.75-1.3-1.75-.35-.35-.35-.35-.45-.4 1.65-1.15.8 1.4"/><path fill="url(#s)" d="M18.45 15.1l.45.4.15.45v1.75l-1.3-2.15-.05-.3.75-.15"/><path fill="url(#t)" d="M15.8 19.05l-.05-1.95.1-.15q.45-.75.55-1.6l.75 2.35.15-.25q.45-.8.45-1.9l1.3 2.15v-1.75l.2-.1.35.35 1.3 1.75-.15 1.15-.25.9-.65-.15-2.2-.75-1.85-.05"/><path fill="url(#u)" d="M16.4 15.25l.45-.1.85.1.05.3q0 1.1-.45 1.9l-.15.25-.75-2.35v-.1"/><path fill="url(#v)" d="M14.35 15.2l-.05.1-1.1 1.3-.45 1.35-.3-1.7.1-.6.5-.9.95.6.35-.15"/><path fill="url(#w)" d="M15.45 17.1l-.05-.35v-1.4l1-.1v.1q-.1.85-.55 1.6l-.1.15h-.3"/><path fill="url(#x)" d="M14.65 15.2l.75.15-.15.5-.6-.65"/><path fill="url(#y)" d="M14.65 15.2l.6.65v.05l-.6 1.05-.15-.55-.1-1.05.25-.15"/><path fill="url(#z)" d="M15.7 20.1l.1-.75v-.3l1.85.05 2.2.75.65.15-.75 1.2-2.45 2.1-.6.5-3.3-.15q-.5-.05-.55-.25l.05-.2.15.1.6-.3.25.1.25-.45q.25-.4.1-.8l.5-.5.25-.15.15-.15.55-.95.7-.15-.7.15m1.6 3.2l.05-.1.2-1.6-.15.7-.85 1.15.75-.15"/><path fill="url(#A)" d="M14.25 21.85q.15.4-.1.8l-.25.45-.25-.1-.4-.3 1-.85"/><path fill="url(#B)" d="M11.9 21.45l.2-.05 1.15 1.3.4.3-.6.3-.15-.1-.25-.25q-.65-.65-.75-1.5"/><path fill="url(#C)" d="M17.3 23.3l-.75.15.85-1.15.15-.7-.2 1.6-.05.1"/><path fill="url(#D)" d="M12.85 30.55h.05q.9-.85 2.15-1h.1l.05-.15q.1-.8.6-1.45l1.5-1.6q.7.3.85.95.15-.75-.45-1.35l.3-.15v-.05l1.9-1.2.25.85q-1.05.1-1.1.95l-.1 1.35q-.1.75-1.3.6-.55-.05-.9.4-.65.65-.7 1.25l.1.3v.2q-.9.15-1.45.7l-.6.65-.15.1-.8-.85-.3-.5"/><path fill="none" stroke="#000" stroke-width=".05" stroke-linecap="round" stroke-miterlimit="3" d="M40.85 17.1l1.1-.4.2-.1.95-.75q.65-.7.8-1.45v1.5l-.35 1-.75.65-1.55.4v.1m-.55 1.3l-.05.5m-4.45 6.7h.5l.8-.1h.6l-1 1m3.55 0l-.25.3m-4.9 6.15l.05.05m1.5 10.5l.3.1M32.4 47.5l-.2-.1-.35-.45.05-.1h-.05m-6.5-18.05l-.1-.25M13.2 38.9l.5-.05m3.6-12.5l-.55-.2q-1.2-.3-1.85-.9m-.2.1q.1.8.9 1.35l-1.15-.65q-.9-.5-1.15-1.2M.05 23.7L0 23m15.75-5.9l-.25.3-.05-.3m-.05-1l-.15-.2m1.5-8.5l.15.1m7.35-5.65l.25-.15m2.25.95v.05l-.05.2m5.25 2l-.35.25m-.4.8l.2-.05m6.15 6.8l.05.15m-18.8 11.2q-.1.7-1.05.75l.15.4q.2.3 0 .45l-.05-.05q-.6-.3-1.1-.45l.9.7.05.1m3.05-3.15q-.95.25-1.05.8m17.25-2v.2m-21.7-5.95l.15-.5m-3.35 6h-.15"/><path fill="none" stroke="#600" stroke-width=".05" stroke-linecap="round" stroke-miterlimit="3" d="M15.25 8l-.85-1.45-.65-.5.8.2 1 .35 1.05.65.15.15m1.6-1.15L17.8 4.8l-.25-.5-.8-1 1.45.8 1.15.95.2.3m.55-.6v-.2l.2-1.05.45-.8.1.7q.1.8.7 1.5l.15.15m2.8-3.35Q25.55.9 27.05.4l.85-.2 2-.2-.9.35q-1.45.65-2.1 2v.05l-.15.25M31 3.3l3.5 1 .1.05 1.45.4-3.35-.05m-.5.1l-.25.1m-.55 1q.95-.05 1.9.9l1.25 1.05.5.5-.55-.3-1.05-.15"/><path fill="none" stroke="#3F5E00" stroke-width=".05" stroke-linecap="round" stroke-miterlimit="3" d="M41 18.7l-.25.6-.05.05m-.05.5l-.35 1.6v.1l-.45.55-2 1.55-.3.5m-1.05 1.2l-.8.2h-.35m0 .1q-.1.35.25.55l.6.35m.9.9l1.1-.55.45-.3q.25-.15.5 0 .95.5 1.85-.2l-.35 1.05m-8.1 13.7q.9.05 1.05.6m3.75 2.8l.1.05q1.15.3 1.95 1.05l.5.7-1.35-.4-.4-.05.3.2q.55.4.65 1.15-.7-.55-2.2-.65m-.15.05q.45.75.3 1.7-.65-.85-1.8-1.25l-.7 1m-19.1-7.8l-.9.5q.05.45-.55.75-1.95-.75-2.65.45l-.3-.85q-1.1.25-1.45.7-.2-.65.1-1.05l-1.2.7.7-1.2 1.2-.9 2.3-.45h.05l.45-.05M11 23.55l.7.5.15.25.1.4q.25.85-.45 1.5l-.15.1-.1.05m-2.15.45l-.05-.2q-.15-.6.65-.9m0-.05l-.65-.3-.9.65-.6.3-1.15.35-1.05-.2-.45-.4M1.55 24.6q-.2.55 0 1.2v.15l-.45-.35-.35-.4-.7-1.5m.6-2.85q.5-.25.95-.55 1.25-.15 1.7.4l1.25.85.05.05-.05-.1-.35-1.6.15-.7q.2-.35.75-.5m.1 0q.3-.55.85-.1l.2.2.45.35.35.2q.6.3.75 1.1l.2.3.05.05.1.05.85.6.4.15M32.05 8.35l.5.55.1.45 2.2.25q1.15.55 1.3 1.55v.2l.05.3 1.35 1.05m.9 4.4q-.8-.35-1.6-.75l-.15-.05m2.75 3.9q.65.1.95-.35l.3-.5m-3.75 2.25v-.8l.25-1.45.4-.6q1-.7.8-1.6m-2.2-5.5l-.2.75m-30.3 11l-.55-.7-.55-1.05v-.05m1.65.6L6.4 21q0-.7-.5-1.05m5.25 20.75l-.1.45m-.4-.8q-.7.1-.95.45m26.65-13.2q.25-.65-.15-1.05m.9.9l-.15.1h-.1l-.35.1M35.4 46.8l-.15.3m1.3-.75l.2.3m.8-1l.6.25M9.05 24.55q-.25.6 0 .8"/><path fill="none" stroke="#672305" stroke-width=".05" stroke-linecap="round" stroke-miterlimit="3" d="M33.6 41.75h.1v.15h.05l2.2 1.25q.85.55 1.1 1.3m-2.5 3.65l-.4.55-.4.15q-.45-.9-1.35-1.3m-2.6-5.75q.05-.4.45-.55m.15-.05l-.55-1.9-.1-1.55m-18.5-11.35v.1l-.6.7-.25.4-.65.1-.35-.1-.7-.1-2.1.45.1-.15 1-.7 1.25-.25h.15m.6-1.1l.05-.05H9.7m-4.8.4l-.6-.85m.05-.1q-.55-.2-.55-.75-.05-.95-1.3-1.05l-.05.15-.9 1.15M0 23l.55-1.5.1-.65m2.4 1.2L2.5 23.3m3.6-.2l.1-.8.05-.1m-.55 1.2l.55.7h.05l-.2-1m3.35 3.7l1.2.35m-1.2-.35H9.1m21.3 14.35l.15.35m6.55 3.05l-.05-.05v-.05"/><path fill="none" stroke="#2E2801" stroke-width=".05" stroke-linecap="round" stroke-miterlimit="3" d="M34.35 28.45q-.45.2-.8.35m.55 1.85l-.05 1.6-.1.35.55.4 1 .9m.1 3.3l-.05.05v.05l-.55 1q-.15-.55-.8-.8l-1.05 1.8q-.45.95-.6 1.85m-.7 5.7q-.9-.7-.7-1.95.05-.55-.45-.75-1.2-.45-1.05-1.7l.05-.1v-.2l.05-.15.05-.25m-.05-4.05l.15-.8m.1-.1l-.3-.25q-1.05-.8-.6-2.15l-.35-.15-.8-.6m-10.2-.55l-1.25.65-.8.15m.85-.05q.9.9.35 1.9m.65 2.75l.35.4q.55 1.15-.85 1.15m-3.8-4L13 35.8q-.3-.55-.25-1.25l-1.8.3-.2.1-.05-.2q-.15-.75.25-1.45.6-1.15 1.7-1.7-.3-.45.05-.9l.15-.15m-.65-7l-.5.05-.7-.05M9.4 21.6l.85-.4 5.45-1.1m-1.05-4.9h-.3m-1.3-.45l-.35-.3v-.05l-.25-.25m-.05 0l-.05-.5m.1-.1h-.05l-.5-.45V13l.1-.5.25-.05q0-.65.75-.6l.2-1 .45-.5 1-.75m-5.25 12h.05q.4.2.45.6l-.05.15.05.35.1.15.65.6.2.1H11m4.5-10.95l.05-.2m-2.65.6l-.65-.05.55.25 1.4.4m-1.3-.6l1.35.3m-2.35 8.05v.1m.2-.05l-.05-.05m-.15 0V21l.15.35m.6 2.2h-.45m1.05-.85l1-.85M15 12.6q-.3-1.1-1.1-1m20.3 25.9l-2.7-.55-.75-.5m1.75 5.05l.05-.35"/><path fill="none" stroke="#300" stroke-width=".05" stroke-linecap="round" stroke-miterlimit="3" d="M41.25 18.05l-.25.65m-3.45 5.45v.05l-.05.1v.25l-1 .8m3.9 2.4l-1.95.7-2.55.95-.45.1q-.65-.1-1.1-1.05m1.2 5.5V34h.05v.05h.1q.9 1 .35 2.25l-.45.9m-10.35-8.65v-.1h-.05q-.45-.8-1.65-.75l-.1.05-.8.7h-.05l-.55.6m-5.15 6.7v.05q-.4.65-.4 1.45l-.1.15.25.7.75.3.1.05.05.05m-.5 1.55l-1.6.25m-1.75-1.45h.05l1.45-.55q-.4-1.1-1.3-1.7l-.65-.55m.05-11.2l-.1-.55m0-.2h-.05q-1.05 0-.7-.4l.05-.05v-.05m25.1-10.75l.65.3q1.15.5 1.95 1.35.65.7.65 1.85v.1l.15.2-.15.45-.25.15h.05M20.8 13.5l.05-.05.25-.2.1-.1.4-.55.25-.9m.05 12.85l.2.25m.05 0l.45.5m-2.9-1.7q-.1.35.2.85v.1m6.6-5.95q-.3.6-1.15.5-1.8-.25-1.7-2.1l.1-2.65.1-.1m-2.65-1.1l-.05.15-.25 1v1.05m-8.05 8.05l-.2.15-.15.05m12.35-3.5L26 20l.6.85m-5.4-.05l-1.05 1.05-.15.2-.25.15-.95 1.4v.45m6.8-.15l.25.45m1.15-.9l.25-.55v-.35l-.9-.9-.15.05m3.25 2.5q-.3.3-.2.9v.05l.05.15.05.5q.05-.35.4-.5m.75-.1v-1.45m-1.05.45l.3-.3m6.95-7.6l-.1-.05v-.05h-.1l-.15-.1-2.25-1.25q-.7-.4-1.05-1m3.7 8q-.3.6-1.5.25l-.75-.4-.1-.1-.5-.3-1.2-.1-.6.1-.65.25q-.55.2-.75.65l-.2.5m2.3-9.6h.05l1 .25m-2.5-.25l-.2.05h-.05l-.1.05m2.6 11.35l-.1.05-.15.1-.2.25q-.25.4 0 1m.1.25l1.05 2.1.05.15"/><path fill="none" stroke="#4E0000" stroke-width=".05" stroke-linecap="round" stroke-miterlimit="3" d="M33.6 28.9l.5 1.75m-6.15 3l-1.1-1.05-.15-.2q-.65-.95-.25-1.95m.05-.05q-.8-.65-1.15-1.6m-3.3.25l-.2.4q-.65.95-1.75 1.55l-.45.25-1.8.75m1.85-.7l-1.95 1.8m-4.9-2.55h.05q.9-.85 2.15-1h.1l.05-.15q.1-.8.6-1.45l1.5-1.6m-1.65-17.2l-.1-.5-.3-.65m1.65-.5l.5 1.15.1.35m.15 0l.1-.1q.8-.7.75-1.9l-.15-.75m1.2-.9l.2.8V7l.35-.8.05-1.35-.05-.1m1.6.3l.3.2v-.1l.4-.95.8-1.3.45-.55.6-.5M26.7 2.9l-.2.85m.15.15q1.1-.6 2.55-.65l1.8.05m.6 1.85l-.55.6H31l-.15.3.35-.1m2.25 1.95h-.8l-.6.45m-16.15 2.6l.4-.35 1.6-.7.65-.05q1.8-.2 3.25-1.1l-1.1-.25h-.1q1.6-1.2 4-1.65l.15-.05 1.85-.3-.65-.15-1.05-.1q1.35-.95 2.85-.45l.45.15.7.8.1 1q.35-1.25 1.55-.3l.2.6 1.3.3M19.9 24.55l.25.85m9.6-1.5l.75-.15V22.7l-.4-.4-.1-.05q-.45-.75-.45-1.55v-.45m-.15-.05l-.3.4-.1.7m-7.8-.5l.55-.7.4-1.15v-.35l-.25-2.35q-.2-1.15 0-2.35l.1-.35.85-1.05q.75-.45.45-1.25M20.75 22.8v-.7l.3-.5.3-.2-.15-.6m-3.2 5v-.05l1.9-1.2m2 0L21 23.3l-.25-.5m12.3-8.95l-.45 2.2-.25.55q-.55.9-1.8 1.5l-.1.1h-.05l-.05.35q-.15.85-.85 1.5l-.1.15m.35 5.1l.75-.1m2.55-11.35l-.25-.65m0-.1q-.75-.25-1.45 0m-.35.1l-2.3.45m-11 12.3q.6.6.45 1.35-.15-.65-.85-.95m14.8 2.1l-1.05-1.25q-.6-1-.55-2m3.05 3.6l-.6.25-.85-.6m-5.6 1.95l.3.25.95.3"/><path fill="none" stroke="#333" stroke-width=".05" stroke-linecap="round" stroke-miterlimit="3" d="M15.45 17.1l-.05-.35v-.65m-.15-.2l-.6 1.05-.15-.55-.1-1.05m-.05-.15l-.05.1-1.1 1.3-.45 1.35-.3-1.7.1-.6.5-.9.95.6.35-.15m6.55.15l.25.5q.35 1.1.35 2.35v1.3l-.25-.8-.35-.75m-2.45-2.85l.45.4.35.35m-4 0v.05m3.8.05l-.15-.45m-3.5-.15v.75m-2.15 6.6l.4.3m-1.55-1.6l1.15 1.3m-1.35-1.25q.1.85.75 1.5l.25.25m7.2-9.25l.8 1.4"/><path fill="none" stroke="#430000" stroke-width=".05" stroke-linecap="round" stroke-miterlimit="3" d="M15.7 20.1l.1-.75v-.3l-.05-1.95m5.15.85l-.15 1.15-.25.9-.75 1.2-2.45 2.1-.6.5-3.3-.15q-.5-.05-.55-.25m6.4-7.55l.35.35 1.3 1.75m-4.5-2.6l.75 2.35.15-.25q.45-.8.45-1.9m-1.35-.2q-.1.85-.55 1.6l-.1.15m3.3-1.15v1.75l-1.3-2.15m-3.5 6.3l.5-.5.25-.15.15-.15.55-.95.7-.15M13.65 23l-.6.3-.15-.1-.05.2m4.45-.1l-.75.15.85-1.15.15-.7-.2 1.6-.05.1"/><path fill="none" stroke="#1A0000" stroke-width=".05" stroke-linecap="round" stroke-miterlimit="3" d="M14.65 9.6l1-.45m.15 1.8v-.3l-.15-1.5m-.1 3.25q.25-.55 1.15-.8m2.2.55q1.2-1 1.5.2m-.3.1l-.35.05m-3.35 1.4h-.15l.05-.15q.1-.55.6-.75.25-.2.65-.25l1.6-.15h.1l.5-.1m-.5.1l-.1.05q-.7.2-1.25.6l-1.6.5m3.8.2l-1.65 1.15m-2.95-2.5v.5l-.5-.45v-.05m-.75.7q.5.2.9.55l-.95-.25m.45 1.6l.75.15 1-.1.45-.1.85.1.75-.15m2.35-1.6l-.7.45"/></svg>