<svg xmlns="http://www.w3.org/2000/svg" viewBox="0 0 24.7 30.1" width="24.7" height="30.1"><defs><linearGradient gradientUnits="userSpaceOnUse" x1="-819.2" x2="819.2" gradientTransform="matrix(.003 0 0 .005 19.8 7.2)" id="a"><stop offset="0"/><stop offset=".561" stop-color="#960"/><stop offset="1" stop-color="#900"/></linearGradient><linearGradient gradientUnits="userSpaceOnUse" x1="-819.2" x2="819.2" spreadMethod="repeat" gradientTransform="matrix(.009 0 0 .015 16.95 12.75)" id="b"><stop offset="0"/><stop offset=".561" stop-color="#960"/><stop offset="1" stop-color="#900"/></linearGradient><linearGradient gradientUnits="userSpaceOnUse" x1="-819.2" x2="819.2" gradientTransform="matrix(.003 0 0 .002 17.15 1.85)" id="c"><stop offset="0"/><stop offset=".561" stop-color="#960"/><stop offset="1" stop-color="#900"/></linearGradient><linearGradient gradientUnits="userSpaceOnUse" x1="-819.2" x2="819.2" gradientTransform="matrix(.003 0 0 .002 11.45 2.2)" id="d"><stop offset="0"/><stop offset=".561" stop-color="#960"/><stop offset="1" stop-color="#900"/></linearGradient><radialGradient gradientUnits="userSpaceOnUse" r="819.2" cx="0" cy="0" spreadMethod="pad" gradientTransform="matrix(.001 0 0 .001 12.65 3.3)" id="e"><stop offset="0" stop-color="#ffc"/><stop offset=".235"/><stop offset=".588" stop-color="#fc6"/><stop offset=".878" stop-color="#f00"/></radialGradient><radialGradient gradientUnits="userSpaceOnUse" r="819.2" cx="0" cy="0" spreadMethod="pad" gradientTransform="matrix(.001 0 0 .001 15.85 3.1)" id="f"><stop offset="0" stop-color="#ffc"/><stop offset=".235"/><stop offset=".588" stop-color="#fc6"/><stop offset=".878" stop-color="#f00"/></radialGradient><linearGradient gradientUnits="userSpaceOnUse" x1="-819.2" x2="819.2" gradientTransform="matrix(.006 0 0 .011 15.05 21)" id="g"><stop offset="0"/><stop offset=".561" stop-color="#960"/><stop offset="1" stop-color="#900"/></linearGradient><linearGradient gradientUnits="userSpaceOnUse" x1="-819.2" x2="819.2" gradientTransform="matrix(.001 0 0 .004 12.1 14.4)" id="h"><stop offset="0"/><stop offset=".561" stop-color="#960"/><stop offset="1" stop-color="#900"/></linearGradient><linearGradient gradientUnits="userSpaceOnUse" x1="-819.2" x2="819.2" gradientTransform="matrix(.002 0 0 .005 22.6 15)" id="i"><stop offset="0"/><stop offset=".561" stop-color="#960"/><stop offset="1" stop-color="#900"/></linearGradient><linearGradient gradientUnits="userSpaceOnUse" x1="-819.2" x2="819.2" gradientTransform="matrix(.008 0 0 .004 6.4 20.55)" id="j"><stop offset="0"/><stop offset=".561" stop-color="#960"/><stop offset="1" stop-color="#900"/></linearGradient><linearGradient gradientUnits="userSpaceOnUse" x1="-819.2" x2="819.2" gradientTransform="matrix(.002 0 0 .004 9.85 8.35)" id="k"><stop offset="0"/><stop offset=".561" stop-color="#960"/><stop offset="1" stop-color="#900"/></linearGradient></defs><path fill="#fff" d="M15.4 5.8l.25.1q.3.8.2 1.85-.25-.95-1-1.65l-.25.45-.2-.3-.15.3-.1-.35-.25.55-.1-.5q-1 .3-1 1.35l-.1-.35.1-1.3.2.2 1.1-.25 1.3-.1"/><path fill="url(#a)" d="M20.85 4.5l.3.4.4.55-.6-.3-.95.05q1.2.95 1.75 2.4l.25.7.05.6-.4-.35-1.05-.85q-.65-.4-1.25-.65L20.5 8.9l.4 1.7v.35l-.3-.8-.85-1.1-1-.9.05 2.2h-.05l-.2-1.15-.35-.6q.45-.3.05-1.25l.95.35q.1-1.2-.7-2.05 1.55-.05-.1-1.15l-.85-.45 1.8-.35.25-.2 1.15.9.1.1"/><path fill="url(#b)" d="M20.85 4.5l1.35.65 1.25 1.05 1.1 1.45-1.2-.25.05.4.4 1.3.55 1.7.1 1.7h-.05l-.05-.3-.95-.95.05.85-.6-.55-.75-.55-.55 1.85q-.4.75.6 1.75l.4.65q.4.85-.15 1.65l-.7-.3-.85-.55 2.4 3v.9l-.3-.4-.8-.55-.1.55.1.4.7.7h-.75q.1.8.5 1.4-.85.05-1.3-.45l.5 1.15-.35.4q-1 .55-2.2.5l.45.5.5.35.75-.1 1.15-.9-.5 1q-.6.6-1.55.65h-1.2l.65-.7-.5-.25q-.4-.3-.4-.85l-.4-2.15-.2-1 .25.45.2-1.15q-.05-1.45.8-2.65l.35-.7-.15-.55q-.75-.65-1-1.6-.35-1-.35-2v.95q0 1.75-.65 3.4l-.75 1.7-.4-1q-.65-1.1-.7-2.4l-.25 1-.65 1.45-.2-1.3.2 1.3-.15 2.35v1.75l-.25 1.95q-.25.85-.9 1.55l-.2.25q-1.05-.25-1.7-1.55l.85.2q.95-.25.9-1.3h.05l-.05-.05-.05-.25-.15-1.55v-.05l-.25.25-.85.55.45-.8q.45-1.05.2-1.7l-.45.6v-1.35l.1-.4.05-.2q.4-2.2 1.05-4.05l-.7.9q-.1-.95.1-1.9l.15-1.05-1.15 1.7-.85 1.3v-.05l-.1.15-.05.1q-.6-.55-.8-1.35l-.15-1h.05l.05-.55.05-.1.2-1.45.05-.25q.1-.55.45-.95l.25-.15q.05.8.6 1.7L11.7 9l.1-.6-.1.6-.75-.7.1-1.9q-.5.9-1.4 1.2-.05-1.55.35-2.9l-.65.15.4-.75 1.8-.6.55.2.2.05q.75.15 1.25-.3l-.25-.35q.65-.9-.4-2.2-.25-.25 0-.55l.4.1.4.3.35.2.45-.5.15-.05q.8 1.05 1.05 2.4l-.1.15-.55.45.15.1 1.2.2h.35l.25-.15 2.35.15-1.8.35.85.45q1.65 1.1.1 1.15.8.85.7 2.05l-.95-.35q.4.95-.05 1.25l.35.6.2 1.15v.35l.05-.35-.05-2.2 1 .9.85 1.1.3.8v-.35l-.4-1.7-1.15-1.85q.6.25 1.25.65l1.05.85.4.35-.05-.6-.25-.7Q21.2 6.15 20 5.2l.95-.05.6.3-.4-.55-.3-.4M18 8.3l.2.3-.2-.3m-2.6-2.5l-1.3.1-1.1.25-.2-.2-.1 1.3.1.35q0-1.05 1-1.35l.1.5.25-.55.1.35.15-.3.2.3.25-.45q.75.7 1 1.65.1-1.05-.2-1.85l-.25-.1m4.25 8.5l.1 1.3-.15.55.15-.55-.1-1.3M14 21.55q-.15.6-.7.75.55-.15.7-.75"/><path fill="url(#c)" d="M14.65.4l.6-.35.55-.05h.25l.45.05.25.15.2.2.35.7.65.65.85.4h-.35l-.35-.1.35.35.7.3h.55l-.3.2-.65.05-.65.05.4.15 1.1.35-.25.2L17 3.55l.15-.5h-.6q.45-.6.15-1.45.05.7-.6 1.05l-.35.2-.05-.05q-.25-1.35-1.05-2.4"/><path fill="url(#d)" d="M9.75 4.1l.35-.65-.25-.05-.35-.2-.15-.3.7-.1q.3-.3 0-.65L9.8 2q-.15-.05-.15-.25l.45.2q.45.1.9-.35l.1-.3.2-.25.15-.2.3-.3q.1-.15.3-.2h.85q-.25.3 0 .55 1.05 1.3.4 2.2-.25-.3-.65-.45l-.25-.35-.05-.25-.2.6.15.25q-.8.1-1.3-.5.1.8.55 1.1l-1.8.6"/><path fill="url(#e)" d="M13.3 3.1l.25.35q-.5.45-1.25.3l-.2-.05-.55-.2q-.45-.3-.55-1.1.5.6 1.3.5l-.15-.25.2-.6.05.25.25.35q.4.15.65.45"/><path fill="url(#f)" d="M15.75 2.85l.35-.2q.65-.35.6-1.05.3.85-.15 1.45h.6l-.15.5-.25.15h-.35l-1.2-.2-.15-.1.55-.45.15-.1"/><path fill="url(#g)" d="M18.85 25.15q-.15.45.65.95l.7-.1-.35.5q-.55.85-1.55.7l.75.6.25.35q.4.9-.85 1.25-.25.05-.45.25l-1.05.35-.5.15q.1-.8-.5-1.3l-.1-.1-.9.9-1.05.35q-.6.05-.7-.35l-.05-.25-1.7.05q-.6-.1-.75.15l.25-1.2v-.05l-1.05.15.25-1.05.3-1.2q.25-.55 1.15-.4.9.2 1.4-.6l.2-.3.2-.25q.65-.7.9-1.55l.25-1.95v-1.75l.15-2.35.65-1.45.25-1q.05 1.3.7 2.4l.4 1 .75-1.7q.65-1.65.65-3.4V12q0 1 .35 2 .25.95 1 1.6l.15.55-.35.7q-.85 1.2-.8 2.65l-.2 1.15-.25-.45.2 1 .4 2.15q0 .55.4.85l.5.25-.65.7m-.85-5.2v.25-.25m-.25 6.35l.55.9-.55-.9m-6.25.45q-.55.6-.55 1.6 0-1 .55-1.6m2-.1q-.6.65-.5 1.55l.15 1.2-.15-1.2q-.1-.9.5-1.55m1.7 1.1l.05.35.6.65-.6-.65-.05-.35"/><path fill="url(#h)" d="M12.1 17.55L12 17l-.6-1.35-.5-1.4.85-1.3 1.15-1.7-.15 1.05q-.2.95-.1 1.9l.7-.9q-.65 1.85-1.05 4.05l-.05.2h-.15"/><path fill="url(#i)" d="M23.25 19.05l-2.4-3 .85.55.7.3q.55-.8.15-1.65l-.4-.65q-1-1-.6-1.75L22.1 11l.75.55.6.55.05 1.3q.05.6.9 1.65l-1.15-.75q-.15.15-.15.4l.15 1.1.35 1.1.6.95-.3-.1-.45-.6q-.2.05-.2.45v1.45"/><path fill="url(#j)" d="M12.85 20.65l-.25.35q-.5.8-1.75 1.05-1 .25 0 .85l-2 .1q.05.75.6 1.1-2.7-.45-4.15-2.75-.75-1.15-2.25-1.5L2.4 20Q.75 21.3 0 23.05l1.25-3.5Q1.9 17.35 3.6 17q.55-.15.95.2l2.9 2.55q1.3 1.15 1.9-.15.85-1.95 2.75-2.05l.05.4v1.35l.45-.6q.25.65-.2 1.7l-.45.8.85-.55h.05"/><path fill="url(#k)" d="M9.8 12.05q-.7-1.15-.5-2.5l-.4.2q-.8.55-.85 1.45v-.7l.1-1 .6-1.9.9-1.75H9.4q-.75 0-.85.6.05-.6.4-1.05l.4-.55.65-.15q-.4 1.35-.35 2.9.9-.3 1.4-1.2l-.1 1.9.75.7-.2 1.35q-.55-.9-.6-1.7l-.25.15q-.35.4-.45.95h-.1l.05.25q-.2.8-.25 1.55l-.1.5"/><path fill="none" stroke="#644300" stroke-width=".05" stroke-linecap="round" stroke-miterlimit="3" d="M20.85 4.5l.3.4.4.55-.6-.3-.95.05m-.65 1.85L20.5 8.9l.4 1.7v.35l-.3-.8-.85-1.1-1-.9.05 2.2-.05.35v-.35l-.2-1.15-.35-.6-.2-.3m1.6-4.8l1.15.9.1.1m3.7 3.15l.05.05.1.3m-.25 4.5v.3m-1.2 6.25V17.6q0-.4.2-.45l.45.6.3.1-.6-.95-.35-1.1-.15-1.1q0-.25.15-.4l1.15.75q-.85-1.05-.9-1.65l-.05-1.3-.05-.85.95.95.05.3h.05m-1.2 6.55v.9l-.3-.4-.8-.55-.1.55.1.4.7.7h-.75q.1.8.5 1.4-.85.05-1.3-.45l.5 1.15-.35.4q-1 .55-2.2.5l.45.5.5.35.75-.1 1.15-.9-.5 1q-.6.6-1.55.65h-1.2m-2.4 5q.1-.8-.5-1.3l-.1-.1-.9.9-1.05.35q-.6.05-.7-.35l-.05-.25-1.7.05q-.6-.1-.75.15l.25-1.2v-.05l-1.05.15.25-1.05.3-1.2q.25-.55 1.15-.4.9.2 1.4-.6l.2-.3q-1.05-.25-1.7-1.55l.85.2q.95-.25.9-1.3v-.05L13.2 22l-.15-1.55-.2.2m-2 2.25l-2 .1q.05.75.6 1.1-2.7-.45-4.15-2.75-.75-1.15-2.25-1.5L2.4 20Q.75 21.3 0 23.05l1.25-3.5Q1.9 17.35 3.6 17q.55-.15.95.2l2.9 2.55m4.65-2.2L12 17l-.6-1.35-.5-1.4v-.05l-.1.15v.15l-.05-.05q-.6-.55-.8-1.35l-.15-1v-.05q-.7-1.15-.5-2.5l-.4.2q-.8.55-.85 1.45v-.7l.1-1 .6-1.9.9-1.75H9.4q-.75 0-.85.6.05-.6.4-1.05l.4-.55.4-.75.35-.65-.25-.05-.35-.2-.15-.3.7-.1q.3-.3 0-.65L9.8 2q-.15-.05-.15-.25l.45.2q.45.1.9-.35l.1-.3.2-.25.15-.2.3-.3q.1-.15.3-.2h.85l.4.1.4.3.35.2.45-.5.15-.05.6-.35.55-.05h.25l.45.05.25.15.2.2.35.7.65.65.85.4h-.35l-.35-.1.35.35.7.3h.55l-.3.2-.65.05-.65.05.4.15 1.1.35M11.7 9l.1-.6m-1.6 1.35q.1-.55.45-.95l.25-.15q.05.8.6 1.7L11.7 9m-1.5.75l-.05.25-.2 1.45-.05.1-.05.55-.05-.05.1-.5q.05-.75.25-1.55l-.05-.25m2.05 8.2v1.35l.45-.6q.25.65-.2 1.7l-.45.8.85-.55.25-.25v.05m6.55-4.3l.15-.55-.1-1.3m-1.4 6.35L18 20.2v-.25m-5.9-2.4h.15m-.15 0l.05.4m2.35-2.15l.2 1.3-.15 2.35v1.75l-.25 1.95q-.25.85-.9 1.55l-.2.25m.1-2.65l-.05-.05m.05.05q.55-.15.7-.75m1.85 7.2l-.6-.65-.05-.35m-2.05 1.65L13 28.2q-.1-.9.5-1.55m-2.55 1.7q0-1 .55-1.6"/><path fill="none" stroke="#ccc" stroke-width=".05" stroke-linecap="round" stroke-miterlimit="3" d="M15.4 5.8l-1.3.1-1.1.25-.2-.2-.1 1.3.1.35q0-1.05 1-1.35l.1.5.25-.55.1.35.15-.3.2.3.25-.45q.75.7 1 1.65.1-1.05-.2-1.85l-.25-.1"/><path fill="none" stroke="#660B00" stroke-width=".05" stroke-linecap="round" stroke-miterlimit="3" d="M18.85 25.15q-.15.45.65.95l.7-.1-.35.5q-.55.85-1.55.7l.75.6.25.35q.4.9-.85 1.25-.25.05-.45.25l-1.05.35-.5.15m3.15-14l-.35.7q-.85 1.2-.8 2.65l-.2 1.15M18 20.2l.2 1 .4 2.15q0 .55.4.85l.5.25-.65.7m-.55 2.05l-.55-.9"/><path fill="none" stroke="#8C2000" stroke-width=".05" stroke-linecap="round" stroke-miterlimit="3" d="M20 5.2q1.2.95 1.75 2.4l.25.7.05.6-.4-.35-1.05-.85q-.65-.4-1.25-.65m1.5-2.55l1.35.65 1.25 1.05 1.1 1.45-1.2-.25.05.4.4 1.3.55 1.7.1 1.7m-11.6 8.15l-.25.35q-.5.8-1.75 1.05-1 .25 0 .85m-3.4-3.15q1.3 1.15 1.9-.15.85-1.95 2.75-2.05m3.65-14.7l.35-.2q.65-.35.6-1.05.3.85-.15 1.45h.6l-.15.5m-1.25-.7l-.15.1-.55.45.15.1 1.2.2h.35m-3.45-.6l.25.35q-.5.45-1.25.3l-.2-.05-.55-.2m1.75-.4q-.25-.3-.65-.45l-.25-.35-.05-.25-.2.6.15.25q-.8.1-1.3-.5.1.8.55 1.1"/></svg>