<svg xmlns="http://www.w3.org/2000/svg" viewBox="0 0 56.0 57.0" width="56" height="57"><defs><linearGradient gradientUnits="userSpaceOnUse" x1="-819.2" x2="819.2" gradientTransform="matrix(.005 0 0 .019 45.9 17.05)" id="a"><stop offset=".02" stop-color="#480000"/><stop offset=".271" stop-color="#fcf"/><stop offset=".686"/><stop offset=".984" stop-color="#f00"/></linearGradient><linearGradient gradientUnits="userSpaceOnUse" x1="-819.2" x2="819.2" gradientTransform="matrix(.004 0 0 .007 40.5 15.65)" id="b"><stop offset=".02" stop-color="#480000"/><stop offset=".271" stop-color="#fcf"/><stop offset=".686"/><stop offset=".984" stop-color="#f00"/></linearGradient><linearGradient gradientUnits="userSpaceOnUse" x1="-819.2" x2="819.2" gradientTransform="matrix(.002 0 0 .003 42.2 15.9)" id="c"><stop offset=".02" stop-color="#480000"/><stop offset=".271" stop-color="#fcf"/><stop offset=".686"/><stop offset=".984" stop-color="#f00"/></linearGradient><linearGradient gradientUnits="userSpaceOnUse" x1="-819.2" x2="819.2" gradientTransform="matrix(.008 0 0 .021 32.7 17.5)" id="d"><stop offset=".02" stop-color="#480000"/><stop offset=".271" stop-color="#fcf"/><stop offset=".686"/><stop offset=".984" stop-color="#f00"/></linearGradient><linearGradient gradientUnits="userSpaceOnUse" x1="-819.2" x2="819.2" gradientTransform="matrix(.005 0 0 .014 24.6 20.6)" id="e"><stop offset=".02" stop-color="#480000"/><stop offset=".271" stop-color="#fcf"/><stop offset=".686"/><stop offset=".984" stop-color="#f00"/></linearGradient><radialGradient gradientUnits="userSpaceOnUse" r="819.2" cx="0" cy="0" spreadMethod="pad" gradientTransform="matrix(.014 0 0 .014 21.05 19.9)" id="f"><stop offset="0" stop-color="#660"/><stop offset=".686"/><stop offset=".984" stop-color="#f00"/></radialGradient><radialGradient gradientUnits="userSpaceOnUse" r="819.2" cx="0" cy="0" spreadMethod="pad" gradientTransform="matrix(.008 0 0 .008 24.95 24.4)" id="g"><stop offset="0" stop-color="#660"/><stop offset=".686"/><stop offset=".984" stop-color="#f00"/></radialGradient><linearGradient gradientUnits="userSpaceOnUse" x1="-819.2" x2="819.2" gradientTransform="matrix(.003 0 0 .004 31.95 28.95)" id="h"><stop offset=".02" stop-color="#480000"/><stop offset=".271" stop-color="#fcf"/><stop offset=".686"/><stop offset=".984" stop-color="#f00"/></linearGradient><linearGradient gradientUnits="userSpaceOnUse" x1="-819.2" x2="819.2" gradientTransform="matrix(.002 0 0 .004 44.4 27.9)" id="i"><stop offset=".02" stop-color="#480000"/><stop offset=".271" stop-color="#fcf"/><stop offset=".686"/><stop offset=".984" stop-color="#f00"/></linearGradient><linearGradient gradientUnits="userSpaceOnUse" x1="-819.2" x2="819.2" gradientTransform="matrix(.004 0 0 .016 52.35 18.75)" id="j"><stop offset=".02" stop-color="#480000"/><stop offset=".271" stop-color="#fcf"/><stop offset=".686"/><stop offset=".984" stop-color="#f00"/></linearGradient><linearGradient gradientUnits="userSpaceOnUse" x1="-819.2" x2="819.2" gradientTransform="matrix(.004 0 0 .009 49.6 32.15)" id="k"><stop offset=".02" stop-color="#480000"/><stop offset=".271" stop-color="#fcf"/><stop offset=".686"/><stop offset=".984" stop-color="#f00"/></linearGradient><linearGradient gradientUnits="userSpaceOnUse" x1="-819.2" x2="819.2" gradientTransform="matrix(.005 0 0 .013 41.85 41.2)" id="l"><stop offset=".02" stop-color="#480000"/><stop offset=".271" stop-color="#fcf"/><stop offset=".686"/><stop offset=".984" stop-color="#f00"/></linearGradient><linearGradient gradientUnits="userSpaceOnUse" x1="-819.2" x2="819.2" gradientTransform="matrix(.007 0 0 .017 32.9 43.35)" id="m"><stop offset=".02" stop-color="#480000"/><stop offset=".271" stop-color="#fcf"/><stop offset=".686"/><stop offset=".984" stop-color="#f00"/></linearGradient><linearGradient gradientUnits="userSpaceOnUse" x1="-819.2" x2="819.2" gradientTransform="matrix(.007 0 0 .019 5.3 20.35)" id="n"><stop offset=".02" stop-color="#480000"/><stop offset=".271" stop-color="#fcf"/><stop offset=".686"/><stop offset=".984" stop-color="#f00"/></linearGradient><radialGradient gradientUnits="userSpaceOnUse" r="819.2" cx="0" cy="0" spreadMethod="pad" gradientTransform="matrix(.007 0 0 .007 20.4 8.25)" id="o"><stop offset=".02" stop-color="#480000"/><stop offset=".686"/></radialGradient><linearGradient gradientUnits="userSpaceOnUse" x1="-819.2" x2="819.2" gradientTransform="matrix(.008 0 0 .013 14.6 20.8)" id="p"><stop offset=".02" stop-color="#480000"/><stop offset=".271" stop-color="#fcf"/><stop offset=".686"/><stop offset=".984" stop-color="#f00"/></linearGradient><radialGradient gradientUnits="userSpaceOnUse" r="819.2" cx="0" cy="0" spreadMethod="pad" gradientTransform="matrix(.006 0 0 .006 13.7 24.25)" id="q"><stop offset="0" stop-color="#660"/><stop offset=".686"/><stop offset=".984" stop-color="#f00"/></radialGradient><linearGradient gradientUnits="userSpaceOnUse" x1="-819.2" x2="819.2" gradientTransform="matrix(.003 0 0 .003 4.9 30.2)" id="r"><stop offset=".02" stop-color="#480000"/><stop offset=".271" stop-color="#fcf"/><stop offset=".686"/><stop offset=".984" stop-color="#f00"/></linearGradient><linearGradient gradientUnits="userSpaceOnUse" x1="-819.2" x2="819.2" gradientTransform="matrix(.009 0 0 .013 9 43.2)" id="s"><stop offset=".02" stop-color="#480000"/><stop offset=".271" stop-color="#fcf"/><stop offset=".686"/><stop offset=".984" stop-color="#f00"/></linearGradient></defs><path d="M43.45 10.1V10q.15-3.05-.5-5.95l-.6-2.8q1.95 2.95 4.25 5.9 1.3 1.75 2.1 3.7l.9-4.2.05-1.35 3.45 9.8h-.05l-2.7 3.05-.85-4.9-.1.05-.2-.35-2.45-3.25q-2.65-2.85-3.15.4h-.15m5.25 27.05l-2.05 2.7 1.15-4.7.1-.3h.05v.05q.1 1.15.65 2.15l.1.1M41.15 48.2l-3.65 3.35 2.7-6.45.75 2.6.2.5m-9.75 3.15l-2.45 5.7q-.45-2.7-.2-6.6v-.55l.4.35q.75.6 1.9.95l.35.15m-17.15 1.1l1.9 1.85-4.3-1.55 2.4-.3M.35 24.8L0 19.9l.3-4.8.55-2.2L2 10.3l2.75-5.55 1.35 2.8.1.05-1.15 3.05-.55 1.25L.35 24.8M9.8 11.7l-.2-1.35 2.2 2.55L9.65 15l.2-2.45-.05-.85m18.7-2.75V8.2q.1-1 .35-1.85l.45-1.85V0q1.8 2.5 2.9 5.05 1.2 2.65 2.95 5.4l1.05 1.75 1-7.3q-.1 2.25 1.35 4.15l.3.45q.9 1.3 1.15 2.8l-2.75 1.95 2.2 5.9L37 17.8l-.4-.4-2.95-3.85L30.7 9.8l-.3 1.35q-.6 2.55-2.05 4.75l-.5.7-.25.25.1-.3v-.15l.7-4.9.1-2.55"/><path fill="url(#a)" d="M49.45 22.5l-2.7 9.4-.2.55-.05.1-.3.3-.2-1.95-.65-2.1q-.8-2.1-1.85-3.6l-.45-.75q-.7-1.15-1-2.4-.3-1.2.35-2.2l.1-.15.75-1.6v-.05q.35-1.4.1-3.1l-.2-1.15-.05.05L41.45 16l.95-2.85q.5-1.5 1.15-2.7l.1-.3.1-.1-.15.05q.5-3.25 3.15-.4l2.45 3.25.2.35.1-.05.85 4.9-.15 1.7-.75 2.65m-6-12.3v-.1h.15l-.15.1m-.3 13.9l-.1.35.1-.35"/><path fill="url(#b)" d="M40.95 17.55l-.05.05-.4 1.4-.65 1.5-.6.8.25-.95-.05-.2-2.2-5.9L40 12.3l.85-.6 2.6-1.5.15-.1.15-.05-.1.1-.1.3q-.65 1.2-1.15 2.7L41.45 16l-.5 1.55"/><path fill="url(#c)" d="M40.95 17.55l.5-1.55 1.65-2.15.05-.05.2 1.15q.25 1.7-.1 3.1v.05l-2.3-.55"/><path fill="url(#d)" d="M39.25 21.3l-3 8.8-.05.1v.05l-.5.05.5-.05-1.1 2.35-.45-2.25-1.15-4.9q-2.35 3.1-4.25 6.9l-.05.1L27.6 35v-2q-.1-1.85-.6-3.5l-.35-1.05q-1.05-2.8-.5-5.05l1.2-5.25.05-.15.2-1.15.25-.25.5-.7q1.45-2.2 2.05-4.75l.3-1.35 2.95 3.75 2.95 3.85.4.4 2.45 2.35.05.2-.25.95-.4.35.4-.35"/><path fill="url(#e)" d="M22.55 30.65l-.75 1.65-.2-1.7-.7-4.25q-.35-1.55.2-2.5l.2-.35.6-.8.95-1.75q-.25-2.85.75-5l.3-.55q1.4-2.5 3.2-4.7l.35-.35 1.05-1.4-.1 2.55-.7 4.9v.15l-.1.3-.2 1.15-.1.15q-1.5 2.95-2.35 5.95l-1.45 4.25-.95 2.3"/><path fill="url(#f)" d="M21.6 30.6q-2.7-.25-4.4-2v-.1l.45-2.05q.45-2.25 1.85-3.7l.2-.2q.95-1.1 1.3-2.5V20q.15-.8-.45-1.6-2.7-.7-5.05-2.4l-.8-.55 3.15-3.3q1.85-1.7 4.6-2.35v.05l.25.55q.5 1.2.3 2.6.8-.1 1.1-.9l.05-.3-.05-.35-.65-2.05q2.15-.7 4 .95l-.35.35q-1.8 2.2-3.2 4.7l-.3.55q-1 2.15-.75 5l-.95 1.75-.6.8-.2.35q-.55.95-.2 2.5l.7 4.25"/><path fill="url(#g)" d="M27 29.5q-2 1.15-4.45 1.15l.95-2.3 1.45-4.25q.85-3 2.35-5.95h.05l-1.2 5.25q-.55 2.25.5 5.05L27 29.5"/><path fill="url(#h)" d="M29.25 32.35q1.9-3.8 4.25-6.9l1.15 4.9-.6.25q-2.2 1.1-4.75 1.85l-.05-.1"/><path fill="url(#i)" d="M43.85 31.15l-.7-1.2q-.7-2.7-.1-5.5l.45.75q1.05 1.5 1.85 3.6l.65 2.1-.95.4-1.2-.15"/><path fill="url(#j)" d="M53.1 15.1l2.35 6.4q.8 2.1.5 3.6l-.55 1.65-2.4 4.5-.4.5-.45.5h-.05q.1-1.55-.35-3.8l-.05-.25-1.2-3.7-.75-1.55-.3-.45.75-2.65.15-1.7 2.7-3.05h.05"/><path fill="url(#k)" d="M52.6 31.75l-.15.4-.3.5-3.45 4.5-.1-.1q-.55-1-.65-2.15v-.05h-.05l.05-.15 2.55-10.2 1.2 3.7.05.25q.45 2.25.35 3.8h.05l.45-.5"/><path fill="url(#l)" d="M46.2 32.85l-.1.1q-.65.75-.65 2.15-.1 2.75-.05 5.65 0 1.95-1 3.25l-3.25 4.2-.2-.5-.75-2.6.15-.45q1.4-4.1 1.9-8.15l-1.15-.2 2.75-5.15 1.2.15.95-.4.2 1.95"/><path fill="url(#m)" d="M36.2 30.25l.05-.05 2.5-.55q-1.8 2.9-3.05 6.85-.6 1.8-1.5 3.2.85-1.25 2.05-1.9-1.9 4.6-3.5 9.8l-.35 1.25-1 2.5-.35-.15q-1.15-.35-1.9-.95l-.4-.35.1-.9.25-9.2q-1 .8-1.8 1.95-.15-2.05-.15-4.3l-.1-2.5q-.1-1.2.55-1.8V35l1.6-2.55h.1q2.55-.75 4.75-1.85l.6-.25.45 2.25 1.1-2.35"/><path fill="url(#n)" d="M10.65 18.3l-.15 1.05-1.45 4.75q-.7 2.7-.5 5.9l-1.6-.95-1.55-1.1q-1.6.2-2.35 2L2.2 32.2l-.3 1.3-.05.1-.3 2.35L.35 24.9v-.1L4.5 11.9l.55-1.25L6.2 7.6q1.5 2.6 3.6 4.1l.05.85-.2 2.45-.1.5Q9.2 17 8.5 18.1l-.25.4 1.1-.4.75.05.55.15"/><path fill="url(#o)" d="M22.45 9.8q-.95-1.9-2.75-3.6-.7.9-2.3.5-1.2-.35-.45-1.9 1.05-2.3 2.7-.3l1.8 1.9 2 3 .65 2.05.05.35-.05.3q-.3.8-1.1.9.2-1.4-.3-2.6l-.25-.55V9.8"/><path fill="url(#p)" d="M17.2 28.6l-.75 2.65-.05-2.65q-.2-2.25-1-4.25-1-2.55-2.9-4.6l-.5-.5-1.35-.95-.55-.15-.75-.05-1.1.4.25-.4q.7-1.1 1.05-2.6l.1-.5 2.15-2.1h.05l2.85 2.55.8.55q2.35 1.7 5.05 2.4.6.8.45 1.6v.05q-.35 1.4-1.3 2.5l-.2.2q-1.4 1.45-1.85 3.7l-.45 2.05v.1"/><path fill="url(#q)" d="M16.4 28.6l-1.1.1-1.5-.4q-2.45-.65-2.7-3.4-.3-3.25 1.4-5.15 1.9 2.05 2.9 4.6.8 2 1 4.25"/><path fill="url(#r)" d="M6.95 29.05q1 2.25.4 3.45h-.4l-4.75-.3.85-2.25q.75-1.8 2.35-2l1.55 1.1"/><path fill="url(#s)" d="M6.95 32.5l1.75.15q-.8 1.3-1.1 2.75-.1 3.25-.9 6.55l.95-.9q-1.3 2.5.65 4.9l5.95 6.5-2.4.3-5.6-3.5Q3.45 47.2 3.15 44l-1.3-10.4.05-.1.3-1.3 4.75.3"/><path fill="none" stroke="#5B495B" stroke-width=".05" stroke-linecap="round" stroke-miterlimit="3" d="M53 31.25l-.4.5-.15.4m-.3.5l-3.45 4.5m-.8-2.3l.05-.15 2.55-10.2-.75-1.55-.3-.45m-2.7 9.4l-.2.55-.05.1-.3.45v-.15l-.1.1M44.4 44l-3.25 4.2m-.95-3.1l.15-.45q1.4-4.1 1.9-8.15l-1.15-.2 2.75-5.15-.7-1.2q-.7-2.7-.1-5.5-.7-1.15-1-2.4-.3-1.2.35-2.2l.1-.15.75-1.6-2.3-.55-.05.05-.4 1.4-.65 1.5-.6.8-.4.35m-2.6 8.45l-.05.1v.05l.05-.05m-2.05 9.5q.85-1.25 2.05-1.9-1.9 4.6-3.5 9.8l-.35 1.25-1 2.5m-2.65-1.45l.1-.9.25-9.2q-1 .8-1.8 1.95-.15-2.05-.15-4.3l-.1-2.5q-.1-1.2.55-1.8V33q-.1-1.85-.6-3.5m-4.45 1.15l-.75 1.65-.2-1.7m-9.1-10.85l-.5-.5-1.35-.95M8.55 30l-1.6-.95m.4 3.45h-.4l1.75.15q-.8 1.3-1.1 2.75-.1 3.25-.9 6.55l.95-.9q-1.3 2.5.65 4.9l5.95 6.5m-2.4.3l-5.6-3.5Q3.45 47.2 3.15 44l-1.3-10.4-.3 2.35L.35 24.9v-.1M11.8 12.9h.05l2.85 2.55M40 12.3l.85-.6m2.6-1.5v-.1m-1.05 3.05L41.45 16l1.65-2.15.05-.05.2 1.15q.25 1.7-.1 3.1v.05m.35-8l.15-.05-.1.1m-.2.05l.15-.1M41.45 16l-.5 1.55m2.1 6.9l.1-.35m7.35.4l1.2 3.7.05.25q.45 2.25.35 3.8h.05l.45-.5M46 30.9l-.65-2.1q-.8-2.1-1.85-3.6l-.45-.75m.8 6.7l1.2.15m.95-.4l.2 1.95.3-.3m-19.05-22.2l-.35.35q-1.8 2.2-3.2 4.7l-.3.55q-1 2.15-.75 5l-.95 1.75-.6.8-.2.35q-.55.95-.2 2.5l.7 4.25M27.4 18l-.1.15q-1.5 2.95-2.35 5.95l-1.45 4.25-.95 2.3m4.8-12.5l.05-.15.2-1.15m-6.6 3.2V20m-5.5-4l-.8-.55m12.65 2.7l-1.2 5.25q-.55 2.25.5 5.05L27 29.5m12.45-9.35l.05.2-.25.95M10.1 18.15l.55.15m-1-3.3l-.1.5Q9.2 17 8.5 18.1l-.25.4 1.1-.4m3.15 1.65q1.9 2.05 2.9 4.6.8 2 1 4.25m3.1-5.85l.2-.2m-2.5 6.05v-.1m-15 3.7l.85-2.25q.75-1.8 2.35-2l1.55 1.1M2.2 32.2l-.3 1.3-.05.1m5.1-1.1l-4.75-.3m34-1.95l-.5.05m-1.05.05l-1.15-4.9q-2.35 3.1-4.25 6.9l-.05.1h.1q2.55-.75 4.75-1.85l.6-.25.45 2.25 1.1-2.35m-7 2.2L27.6 35v-1.85"/><path fill="none" stroke="#610000" stroke-width=".05" stroke-linecap="round" stroke-miterlimit="3" d="M53.1 15.1l2.35 6.4q.8 2.1.5 3.6l-.55 1.65-2.4 4.5m-.55.9l-.3.5m-2.7-10.15l-2.7 9.4m-.65 1.05q-.65.75-.65 2.15-.1 2.75-.05 5.65 0 1.95-1 3.25m-5.15-22.7l-3 8.8m0 .1l2.5-.55q-1.8 2.9-3.05 6.85-.6 1.8-1.5 3.2M27 29.5q-2 1.15-4.45 1.15m-.95-.05q-2.7-.25-4.4-2m-.8 0l-1.1.1-1.5-.4m-3.15-10l-.15 1.05-1.45 4.75q-.7 2.7-.5 5.9m-1.6-.95q1 2.25.4 3.45M6.2 7.6q1.5 2.6 3.6 4.1m8.05.45q1.85-1.7 4.6-2.35m1-.4q2.15-.7 4 .95l1.05-1.4m12.35 2.75l2.6-1.5m.2-.05l-.1.3q-.65 1.2-1.15 2.7m7.95 5l-.15 1.7-.75 2.65M21 20q.15-.8-.45-1.6-2.7-.7-5.05-2.4m4.2 6.55q.95-1.1 1.3-2.5m-3.35 6.4q.45-2.25 1.85-3.7"/><path fill="none" stroke="#200000" stroke-width=".05" stroke-linecap="round" stroke-miterlimit="3" d="M22.45 9.8q-.95-1.9-2.75-3.6-.7.9-2.3.5-1.2-.35-.45-1.9 1.05-2.3 2.7-.3l1.8 1.9 2 3m-1 .4v.05l.25.55q.5 1.2.3 2.6.8-.1 1.1-.9l.05-.3-.05-.35-.65-2.05"/><path fill="none" stroke="#211A21" stroke-width=".05" stroke-linecap="round" stroke-miterlimit="3" d="M17.2 28.6l-.75 2.65-.05-2.65m.8-.1l.45-2.05"/><path fill="none" stroke="#161600" stroke-width=".05" stroke-linecap="round" stroke-miterlimit="3" d="M13.8 28.3q-2.45-.65-2.7-3.4-.3-3.25 1.4-5.15m2.2-4.3l3.15-3.3"/><path fill="none" stroke="#570000" stroke-width=".05" stroke-linecap="round" stroke-miterlimit="3" d="M45.05 31.3l.95-.4"/></svg>