<svg xmlns="http://www.w3.org/2000/svg" viewBox="-0.1 0 56.9 57.1" width="56.9" height="57.1"><defs><radialGradient gradientUnits="userSpaceOnUse" r="819.2" cx="0" cy="0" spreadMethod="pad" gradientTransform="matrix(-.002 0 0 .002 29.9 1.65)" id="a"><stop offset="0" stop-color="#900"/><stop offset=".098" stop-color="#930C0C"/><stop offset=".78" stop-color="#666"/><stop offset=".98"/></radialGradient><radialGradient gradientUnits="userSpaceOnUse" r="819.2" cx="0" cy="0" spreadMethod="pad" gradientTransform="matrix(-.002 0 0 .002 31.8 1.55)" id="b"><stop offset="0" stop-color="#900"/><stop offset=".098" stop-color="#930C0C"/><stop offset=".78" stop-color="#666"/><stop offset=".98"/></radialGradient><radialGradient gradientUnits="userSpaceOnUse" r="819.2" cx="0" cy="0" spreadMethod="pad" gradientTransform="matrix(-.003 0 0 .003 31 3.6)" id="c"><stop offset="0" stop-color="#900"/><stop offset=".098" stop-color="#930C0C"/><stop offset=".78" stop-color="#666"/><stop offset=".98"/></radialGradient><radialGradient gradientUnits="userSpaceOnUse" r="819.2" cx="0" cy="0" spreadMethod="pad" gradientTransform="matrix(-.001 0 0 .001 28.4 5.8)" id="d"><stop offset="0" stop-color="#900"/><stop offset=".098" stop-color="#930C0C"/><stop offset=".78" stop-color="#666"/><stop offset=".98"/></radialGradient><radialGradient gradientUnits="userSpaceOnUse" r="819.2" cx="0" cy="0" spreadMethod="pad" gradientTransform="matrix(-.003 0 0 .003 24.25 6.35)" id="e"><stop offset="0" stop-color="#900"/><stop offset=".098" stop-color="#930C0C"/><stop offset=".78" stop-color="#666"/><stop offset=".98"/></radialGradient><radialGradient gradientUnits="userSpaceOnUse" r="819.2" cx="0" cy="0" spreadMethod="pad" gradientTransform="matrix(-.005 0 0 .005 17.9 11.9)" id="f"><stop offset="0" stop-color="#900"/><stop offset=".098" stop-color="#930C0C"/><stop offset=".78" stop-color="#666"/><stop offset=".98"/></radialGradient><radialGradient gradientUnits="userSpaceOnUse" r="819.2" cx="0" cy="0" spreadMethod="pad" gradientTransform="matrix(-.004 0 0 .004 16.1 15.75)" id="g"><stop offset="0" stop-color="#900"/><stop offset=".098" stop-color="#930C0C"/><stop offset=".78" stop-color="#666"/><stop offset=".98"/></radialGradient><radialGradient gradientUnits="userSpaceOnUse" r="819.2" cx="0" cy="0" spreadMethod="pad" gradientTransform="matrix(-.005 0 0 .005 8.5 13.9)" id="h"><stop offset="0" stop-color="#900"/><stop offset=".098" stop-color="#930C0C"/><stop offset=".78" stop-color="#666"/><stop offset=".98"/></radialGradient><radialGradient gradientUnits="userSpaceOnUse" r="819.2" cx="0" cy="0" spreadMethod="pad" gradientTransform="matrix(-.007 0 0 .007 23.3 13.8)" id="i"><stop offset="0" stop-color="#900"/><stop offset=".098" stop-color="#930C0C"/><stop offset=".78" stop-color="#666"/><stop offset=".98"/></radialGradient><radialGradient gradientUnits="userSpaceOnUse" r="819.2" cx="0" cy="0" spreadMethod="pad" gradientTransform="matrix(-.005 0 0 .005 31.65 9.3)" id="j"><stop offset="0" stop-color="#900"/><stop offset=".098" stop-color="#930C0C"/><stop offset=".78" stop-color="#666"/><stop offset=".98"/></radialGradient><radialGradient gradientUnits="userSpaceOnUse" r="819.2" cx="0" cy="0" spreadMethod="pad" gradientTransform="matrix(-.002 0 0 .002 28.35 11.55)" id="k"><stop offset="0" stop-color="#900"/><stop offset=".098" stop-color="#930C0C"/><stop offset=".78" stop-color="#666"/><stop offset=".98"/></radialGradient><radialGradient gradientUnits="userSpaceOnUse" r="819.2" cx="0" cy="0" spreadMethod="pad" gradientTransform="matrix(-.002 0 0 .002 30.25 12.3)" id="l"><stop offset="0" stop-color="#900"/><stop offset=".098" stop-color="#930C0C"/><stop offset=".78" stop-color="#666"/><stop offset=".98"/></radialGradient><radialGradient gradientUnits="userSpaceOnUse" r="819.2" cx="0" cy="0" spreadMethod="pad" gradientTransform="matrix(-.005 0 0 .005 25.9 14.5)" id="m"><stop offset="0" stop-color="#900"/><stop offset=".098" stop-color="#930C0C"/><stop offset=".78" stop-color="#666"/><stop offset=".98"/></radialGradient><radialGradient gradientUnits="userSpaceOnUse" r="819.2" cx="0" cy="0" spreadMethod="pad" gradientTransform="matrix(-.009 0 0 .009 34.75 15.75)" id="n"><stop offset="0" stop-color="#900"/><stop offset=".098" stop-color="#930C0C"/><stop offset=".78" stop-color="#666"/><stop offset=".98"/></radialGradient><radialGradient gradientUnits="userSpaceOnUse" r="819.2" cx="0" cy="0" spreadMethod="pad" gradientTransform="matrix(-.005 0 0 .005 33.4 11.55)" id="o"><stop offset="0" stop-color="#900"/><stop offset=".098" stop-color="#930C0C"/><stop offset=".78" stop-color="#666"/><stop offset=".98"/></radialGradient><radialGradient gradientUnits="userSpaceOnUse" r="819.2" cx="0" cy="0" spreadMethod="pad" gradientTransform="matrix(0 0 0 0 29.45 13.75)" id="p"><stop offset="0" stop-color="#900"/><stop offset=".098" stop-color="#930C0C"/><stop offset=".78" stop-color="#666"/><stop offset=".98"/></radialGradient><radialGradient gradientUnits="userSpaceOnUse" r="819.2" cx="0" cy="0" spreadMethod="pad" gradientTransform="matrix(-.004 0 0 .004 18 20.05)" id="q"><stop offset="0" stop-color="#900"/><stop offset=".098" stop-color="#930C0C"/><stop offset=".78" stop-color="#666"/><stop offset=".98"/></radialGradient><radialGradient gradientUnits="userSpaceOnUse" r="819.2" cx="0" cy="0" spreadMethod="pad" gradientTransform="matrix(-.017 0 0 .017 30.75 30.45)" id="r"><stop offset="0" stop-color="#900"/><stop offset=".098" stop-color="#930C0C"/><stop offset=".78" stop-color="#666"/><stop offset=".98"/></radialGradient><radialGradient gradientUnits="userSpaceOnUse" r="819.2" cx="0" cy="0" spreadMethod="pad" gradientTransform="matrix(-.008 0 0 .008 20.65 30.2)" id="s"><stop offset="0" stop-color="#900"/><stop offset=".098" stop-color="#930C0C"/><stop offset=".78" stop-color="#666"/><stop offset=".98"/></radialGradient><radialGradient gradientUnits="userSpaceOnUse" r="819.2" cx="0" cy="0" spreadMethod="pad" gradientTransform="matrix(-.004 0 0 .004 29.05 22.9)" id="t"><stop offset="0" stop-color="#900"/><stop offset=".098" stop-color="#930C0C"/><stop offset=".78" stop-color="#666"/><stop offset=".98"/></radialGradient><radialGradient gradientUnits="userSpaceOnUse" r="819.2" cx="0" cy="0" spreadMethod="pad" gradientTransform="matrix(0 0 0 0 25.95 24.3)" id="u"><stop offset="0" stop-color="#900"/><stop offset=".098" stop-color="#930C0C"/><stop offset=".78" stop-color="#666"/><stop offset=".98"/></radialGradient><radialGradient gradientUnits="userSpaceOnUse" r="819.2" cx="0" cy="0" spreadMethod="pad" gradientTransform="matrix(-.004 0 0 .004 26.8 26.6)" id="v"><stop offset="0" stop-color="#900"/><stop offset=".098" stop-color="#930C0C"/><stop offset=".78" stop-color="#666"/><stop offset=".98"/></radialGradient><radialGradient gradientUnits="userSpaceOnUse" r="819.2" cx="0" cy="0" spreadMethod="pad" gradientTransform="matrix(-.002 0 0 .002 27.2 28.3)" id="w"><stop offset="0" stop-color="#900"/><stop offset=".098" stop-color="#930C0C"/><stop offset=".78" stop-color="#666"/><stop offset=".98"/></radialGradient><radialGradient gradientUnits="userSpaceOnUse" r="819.2" cx="0" cy="0" spreadMethod="pad" gradientTransform="matrix(-.005 0 0 .005 11.35 21.75)" id="x"><stop offset="0" stop-color="#900"/><stop offset=".098" stop-color="#930C0C"/><stop offset=".78" stop-color="#666"/><stop offset=".98"/></radialGradient><radialGradient gradientUnits="userSpaceOnUse" r="819.2" cx="0" cy="0" spreadMethod="pad" gradientTransform="matrix(-.01 0 0 .01 14.75 31.8)" id="y"><stop offset="0" stop-color="#900"/><stop offset=".098" stop-color="#930C0C"/><stop offset=".78" stop-color="#666"/><stop offset=".98"/></radialGradient><radialGradient gradientUnits="userSpaceOnUse" r="819.2" cx="0" cy="0" spreadMethod="pad" gradientTransform="matrix(-.006 0 0 .006 3.95 15.95)" id="z"><stop offset="0" stop-color="#900"/><stop offset=".098" stop-color="#930C0C"/><stop offset=".78" stop-color="#666"/><stop offset=".98"/></radialGradient><radialGradient gradientUnits="userSpaceOnUse" r="819.2" cx="0" cy="0" spreadMethod="pad" gradientTransform="matrix(0 0 0 0 5.4 16.45)" id="A"><stop offset="0" stop-color="#900"/><stop offset=".098" stop-color="#930C0C"/><stop offset=".78" stop-color="#666"/><stop offset=".98"/></radialGradient><radialGradient gradientUnits="userSpaceOnUse" r="819.2" cx="0" cy="0" spreadMethod="pad" gradientTransform="matrix(-.012 0 0 .012 9.4 16)" id="B"><stop offset="0" stop-color="#900"/><stop offset=".098" stop-color="#930C0C"/><stop offset=".78" stop-color="#666"/><stop offset=".98"/></radialGradient><radialGradient gradientUnits="userSpaceOnUse" r="819.2" cx="0" cy="0" spreadMethod="pad" gradientTransform="matrix(-.012 0 0 .012 22.15 39.85)" id="C"><stop offset="0" stop-color="#900"/><stop offset=".098" stop-color="#930C0C"/><stop offset=".78" stop-color="#666"/><stop offset=".98"/></radialGradient><radialGradient gradientUnits="userSpaceOnUse" r="819.2" cx="0" cy="0" spreadMethod="pad" gradientTransform="matrix(-.003 0 0 .003 15.6 45.25)" id="D"><stop offset="0" stop-color="#900"/><stop offset=".098" stop-color="#930C0C"/><stop offset=".78" stop-color="#666"/><stop offset=".98"/></radialGradient><radialGradient gradientUnits="userSpaceOnUse" r="819.2" cx="0" cy="0" spreadMethod="pad" gradientTransform="matrix(-.003 0 0 .003 12.25 42.9)" id="E"><stop offset="0" stop-color="#900"/><stop offset=".098" stop-color="#930C0C"/><stop offset=".78" stop-color="#666"/><stop offset=".98"/></radialGradient><radialGradient gradientUnits="userSpaceOnUse" r="819.2" cx="0" cy="0" spreadMethod="pad" gradientTransform="matrix(-.005 0 0 .005 28.6 35.4)" id="F"><stop offset="0" stop-color="#900"/><stop offset=".098" stop-color="#930C0C"/><stop offset=".78" stop-color="#666"/><stop offset=".98"/></radialGradient><radialGradient gradientUnits="userSpaceOnUse" r="819.2" cx="0" cy="0" spreadMethod="pad" gradientTransform="matrix(-.009 0 0 .009 30.5 41.95)" id="G"><stop offset="0" stop-color="#900"/><stop offset=".098" stop-color="#930C0C"/><stop offset=".78" stop-color="#666"/><stop offset=".98"/></radialGradient><radialGradient gradientUnits="userSpaceOnUse" r="819.2" cx="0" cy="0" spreadMethod="pad" gradientTransform="matrix(-.012 0 0 .012 29.1 49.4)" id="H"><stop offset="0" stop-color="#900"/><stop offset=".098" stop-color="#930C0C"/><stop offset=".78" stop-color="#666"/><stop offset=".98"/></radialGradient><radialGradient gradientUnits="userSpaceOnUse" r="819.2" cx="0" cy="0" spreadMethod="pad" gradientTransform="matrix(-.004 0 0 .004 30.65 54.05)" id="I"><stop offset="0" stop-color="#900"/><stop offset=".098" stop-color="#930C0C"/><stop offset=".78" stop-color="#666"/><stop offset=".98"/></radialGradient><radialGradient gradientUnits="userSpaceOnUse" r="819.2" cx="0" cy="0" spreadMethod="pad" gradientTransform="matrix(-.004 0 0 .004 47.05 4.7)" id="J"><stop offset="0" stop-color="#900"/><stop offset=".098" stop-color="#930C0C"/><stop offset=".78" stop-color="#666"/><stop offset=".98"/></radialGradient><radialGradient gradientUnits="userSpaceOnUse" r="819.2" cx="0" cy="0" spreadMethod="pad" gradientTransform="matrix(-.001 0 0 .001 43.05 5.45)" id="K"><stop offset="0" stop-color="#900"/><stop offset=".098" stop-color="#930C0C"/><stop offset=".78" stop-color="#666"/><stop offset=".98"/></radialGradient><radialGradient gradientUnits="userSpaceOnUse" r="819.2" cx="0" cy="0" spreadMethod="pad" gradientTransform="matrix(-.003 0 0 .003 33.85 1.55)" id="L"><stop offset="0" stop-color="#900"/><stop offset=".098" stop-color="#930C0C"/><stop offset=".78" stop-color="#666"/><stop offset=".98"/></radialGradient><radialGradient gradientUnits="userSpaceOnUse" r="819.2" cx="0" cy="0" spreadMethod="pad" gradientTransform="matrix(-.033 0 0 .033 35.4 21.65)" id="M"><stop offset="0" stop-color="#900"/><stop offset=".098" stop-color="#930C0C"/><stop offset=".78" stop-color="#666"/><stop offset=".98"/></radialGradient><radialGradient gradientUnits="userSpaceOnUse" r="819.2" cx="0" cy="0" spreadMethod="pad" gradientTransform="matrix(-.001 0 0 .001 30.75 .95)" id="N"><stop offset="0" stop-color="#900"/><stop offset=".098" stop-color="#930C0C"/><stop offset=".78" stop-color="#666"/><stop offset=".98"/></radialGradient><radialGradient gradientUnits="userSpaceOnUse" r="819.2" cx="0" cy="0" spreadMethod="pad" gradientTransform="matrix(-.002 0 0 .002 32.1 5.55)" id="O"><stop offset="0" stop-color="#900"/><stop offset=".098" stop-color="#930C0C"/><stop offset=".78" stop-color="#666"/><stop offset=".98"/></radialGradient><radialGradient gradientUnits="userSpaceOnUse" r="819.2" cx="0" cy="0" spreadMethod="pad" gradientTransform="matrix(-.003 0 0 .003 32 6.45)" id="P"><stop offset="0" stop-color="#900"/><stop offset=".098" stop-color="#930C0C"/><stop offset=".78" stop-color="#666"/><stop offset=".98"/></radialGradient><radialGradient gradientUnits="userSpaceOnUse" r="819.2" cx="0" cy="0" spreadMethod="pad" gradientTransform="matrix(-.006 0 0 .006 48.5 11.65)" id="Q"><stop offset="0" stop-color="#900"/><stop offset=".098" stop-color="#930C0C"/><stop offset=".78" stop-color="#666"/><stop offset=".98"/></radialGradient><radialGradient gradientUnits="userSpaceOnUse" r="819.2" cx="0" cy="0" spreadMethod="pad" gradientTransform="matrix(-.009 0 0 .009 52.95 23)" id="R"><stop offset="0" stop-color="#900"/><stop offset=".098" stop-color="#930C0C"/><stop offset=".78" stop-color="#666"/><stop offset=".98"/></radialGradient><radialGradient gradientUnits="userSpaceOnUse" r="819.2" cx="0" cy="0" spreadMethod="pad" gradientTransform="matrix(-.003 0 0 .003 51.75 22.55)" id="S"><stop offset="0" stop-color="#900"/><stop offset=".098" stop-color="#930C0C"/><stop offset=".78" stop-color="#666"/><stop offset=".98"/></radialGradient><radialGradient gradientUnits="userSpaceOnUse" r="819.2" cx="0" cy="0" spreadMethod="pad" gradientTransform="matrix(-.004 0 0 .004 50.7 22.7)" id="T"><stop offset="0" stop-color="#900"/><stop offset=".098" stop-color="#930C0C"/><stop offset=".78" stop-color="#666"/><stop offset=".98"/></radialGradient><radialGradient gradientUnits="userSpaceOnUse" r="819.2" cx="0" cy="0" spreadMethod="pad" gradientTransform="matrix(-.007 0 0 .007 48.2 24.9)" id="U"><stop offset="0" stop-color="#900"/><stop offset=".098" stop-color="#930C0C"/><stop offset=".78" stop-color="#666"/><stop offset=".98"/></radialGradient><radialGradient gradientUnits="userSpaceOnUse" r="819.2" cx="0" cy="0" spreadMethod="pad" gradientTransform="matrix(-.004 0 0 .004 38.75 6.75)" id="V"><stop offset="0" stop-color="#900"/><stop offset=".098" stop-color="#930C0C"/><stop offset=".78" stop-color="#666"/><stop offset=".98"/></radialGradient><radialGradient gradientUnits="userSpaceOnUse" r="819.2" cx="0" cy="0" spreadMethod="pad" gradientTransform="matrix(-.009 0 0 .009 42.85 15.7)" id="W"><stop offset="0" stop-color="#900"/><stop offset=".098" stop-color="#930C0C"/><stop offset=".78" stop-color="#666"/><stop offset=".98"/></radialGradient><radialGradient gradientUnits="userSpaceOnUse" r="819.2" cx="0" cy="0" spreadMethod="pad" gradientTransform="matrix(-.006 0 0 .006 33.85 35.55)" id="X"><stop offset="0" stop-color="#900"/><stop offset=".098" stop-color="#930C0C"/><stop offset=".78" stop-color="#666"/><stop offset=".98"/></radialGradient><radialGradient gradientUnits="userSpaceOnUse" r="819.2" cx="0" cy="0" spreadMethod="pad" gradientTransform="matrix(-.004 0 0 .004 42.1 34.6)" id="Y"><stop offset="0" stop-color="#900"/><stop offset=".098" stop-color="#930C0C"/><stop offset=".78" stop-color="#666"/><stop offset=".98"/></radialGradient><radialGradient gradientUnits="userSpaceOnUse" r="819.2" cx="0" cy="0" spreadMethod="pad" gradientTransform="matrix(-.008 0 0 .008 48.1 37.55)" id="Z"><stop offset="0" stop-color="#900"/><stop offset=".098" stop-color="#930C0C"/><stop offset=".78" stop-color="#666"/><stop offset=".98"/></radialGradient><radialGradient gradientUnits="userSpaceOnUse" r="819.2" cx="0" cy="0" spreadMethod="pad" gradientTransform="matrix(-.006 0 0 .006 39.35 52.8)" id="aa"><stop offset="0" stop-color="#900"/><stop offset=".098" stop-color="#930C0C"/><stop offset=".78" stop-color="#666"/><stop offset=".98"/></radialGradient><radialGradient gradientUnits="userSpaceOnUse" r="819.2" cx="0" cy="0" spreadMethod="pad" gradientTransform="matrix(-.005 0 0 .005 53.95 37.05)" id="ab"><stop offset="0" stop-color="#900"/><stop offset=".098" stop-color="#930C0C"/><stop offset=".78" stop-color="#666"/><stop offset=".98"/></radialGradient></defs><path fill="#900" d="M50 6.55l.3.4.2.2q.95 1.35.8 2.95l-.2 1.15-.85 1.85-.2.25-.05.05v1.05l-.15.8h.05l.3.4 1.05.2.35.2v.55l-.25-.1q-.55-.05-.55.7l.05.45q.15.55-.2 1 1.3-.3 1.95 1.2l.7 1.6q.6 1.2.8 2.55l.25 1.7.05 2-.35-.25q-.4 1.15-.15 2.15l.65.35q.15 1.45.55 2.2l1.25 2.15q.55.8.45 2.3v.1l-.1.6q0 1-.4 1.9-.25.65-.9 1.1l-.1-.1q-.25-.8-.1-1.75l.05-1.15-.15-1.05-.75-2.1-.55-.85.1.3.5 2.5q.15.9-.1 1.65l-1.65 2.6v.25l-.05.25-.35.95-1.4-.05-2.65-.4-.65-.25q-.55-.4.1-1.4.7-1.1 1.5-1.75l.3-.2.6-.4-.9-.6-.25-.4q-.25-.6-.2-1.35.1-.85-.2-1.5-.5-1.15-1.65-1.25h-.7l.3.5.45 1.2q.15.7-.45 1l-.9.35-.7.1.25.25.05.25-1.2.5.4 1.75.4 1.15.1.4-2.2-.15-.6-.55-1.25-1.4q-.05-.5.15-.95.35-.85.95-1.5l.25-.3 1.35-1.15.1-.1.2-.25.05-.5-.3-.8-.25-.4v-.1q-.65-1.35.65-1.7l.3-.05 1.75-.5.3-.05.9-.05q1.8-.8 2.8.9 1.2-.05.5-.7l-.35-.65q-.25-1-.85-1.6-.45-.5-.5-1.4v-.55l.15-.4q.45-.7 1.1.2l-.35-.6-1.65-1.25q-.65-.3-.9-.9L47 21.4q0-1.2-.8-1.75l.3-.7q-.55.05-1.15-.75l-.15-.15-.1.15v.35q.1.95-.15 1.8l-.1.3-.3.3q-.6.1-.85-.35l-.1-.5q-.15-1.3.3-1.9l.05-.05-.1-1.05-.2-.9v-.1l-.6.1-.25.1q-.45.25-.75.85l-.4.25q-.45-.5-.3-1.25l.2-.65.25-1.75q-.1-1 .6-1.65l.1-.15L44 10.8l.55-.25q-.25-.7-.95-.8l-1 .2q-1.85 1.2-2.55-.75l-.85 1.2v-.65.65l-.3.45.2.3.35 1.1q.2.65-.35.95-.5.2-.55.6l.1.5q.4.75.2 1.75l-.1.45-.25.35-2.25.1 1.65 1.45q.95.75 0 1.15-.5.95-1.75.35l-2.55-1.15q-1.6-.6-2.45-1.85l-.2-.3 1.3.05-1.3-.85q-.3-.45-.25-.9l.3-.65q.65-.95 1.65-1.2 1.1-.35 1.15-.9l1-.15q.75-.2 1.5-.6l.2-.15.3-.75.15-.7-1.35.1-.25.15q-.9.65-1.9 1l-.5.15-.65.05-1.15.7q-.85-.25-1.45-.85l-.4-.25q-.55-.3-1.55 0l-.4.2L27 11l.35.05.2.05q.95.25 1.55.95l.25.35q.25.45.15 1.2l-.2.35-.5 1-1.05.55-.15.5q-.3.85-1.1 1l-.4.05-1.85.05v-.45l.65-.8q.6-.45.15-.6l-.55-.4-.05-.75.4-.8.5-.25 2.5-.05-.3-.7-.5-.4q-.9-.25-1.1-.8l-.05-.45.2-.3.25-.2.15-1.45q-.8.2-1.25 1.15l-.55.6-1.55 1.2-.35 1.6.1.5-.2.45q-.25.55-.7.75l-1.1.3q.2.75 1.05 1.2l.25.5-.15 1.05q-.35-.2-.8 0l-.25.1-.85.6-.1.05-.2-.65-1.6 1.2-.8.2h-1.3l-.4.1 1.35.45q.45.1.45.4l-.05.35q-.2.3-.8.3h-1.3l-.2-.7v-.1L14 17.7l1.2 2.6v.1l.2.7.1.9.05.9-.05.35-.9.3-.15-.85-1.15.7-.15.05-.05.05-.75.45-.45-1.5.25-1.85.1-.2q.25-.55.1-.9l-.7-.55-.1.3q-.3.7-.85.7l-.5-.15-.65-.4-.5.6-.15.2-.85.8-.55.15h-.05l-1.2-1.3-.05-.1q-.15-1.5-.95-2.3l-.25-.2.15-.55.1-.05.35-.15.15.1.1.05 1.5.15.25-.25q.85.05 1.4-.4l.15-.1.8-1.35q1.25-.35 1.4-1.8l-3-2.05q.1 1.05-.3 1.55-.45.5-1.5.4l.35 1.7q0 1.25-1.05 1.85l-.25.15-.4-.25-.45-.2-1.3-.4-.2-1.15.05-.75.6-1.65.45-.7.85-1.45.8-.5 1.35-.65 1-.3 2.45-.4.3.5q.95.6 1.6 1.9l1.05 2.2-.1.6v.05l-.05.65-.05 1.35.05.6.4 1.75.35-.9.25-.8.65-.85.55-.1 2.65.45.15.05-.4-.4 1.05.1q-.15-.95-1.05-1.4-.45-1.2-.2-2.2l.3-.8 1.3-2.3q.9-.7 2.05-1l.2-.05.65.1h.7l1.6.15.95-.1.55-1.8.35-.85.3.05.65.2V4.4l.4-.5.2-.35.1-.1V3.4l.1-.35V3l.65-1.45.3.7.15.75-.2 1.45v.2l.1.1q.55.85 1.35.45l.35-.25.1-.05.7-1.6.05-.2.4-.15q1.05-.4 2-1l.7-.05.7.7v1.25l-.2.8-.15.35-.05.05.1.05.05.25v.1l.05.05.2.3.05.4q.15.45.7.65.9.25 1.55.9l.1-.75q.3-.85 1.7-.65l1.45.45.45-.25.55-.4.15-.15q.55.05.9-.45l.1-.2.05-.15.15-.25.25-.25.15-.2 1-.05 2.05.75L50 6.55m-11.3 14.4q-.05.85-.55 1.5l-.1.15-.4.4-1.1.65-.65.1-.05.2q-.35 1.2-1.45 1.85l-.6.25-.55.05q.5.55.05 1.3l1.9 1.2.15.15q.85.7 1.5 1.85l1.1 2.15.65 1.8.35 3.05-.05.65q-.05.9-.5 1.7V40l-.9 1.35h-.05l-.85.3q-.55-.05-.9-.7l-.15-.5-.05-.35-.05.4-.1.2-.1.3q-.8 1.4-2 2.45l-.35.25-1.35.55H30.3l-.45-.1-1.1-.65-.2-.25-.7-2.35-.05.35-.1.3-.75.45-.05-.6-.05-.2q-.2-1.05-.7-1.45l-1.1-.75q-.7-.45-.75-1.2l-.15.4-.6.85-.25-2.55q-.15-1.15.2-2.15h.05l.1-.3.95-2.05.05-.1 1.2-2.1v-.05l.65-.75 1.05-.8.35-.2-.1-.4-.6.2q-.65.4-.7 1.2l-.65.75v.05l-1.2 2.1-.05.05-.95-1.05-.15-.2-.45-.75-.4-1.55-.05-.4.1-.4.05-.15v-.05h-.05l-.15-.65.25-2.5.05-.2.1-.15.45-.5-.25-.4q-.15-.65.1-1.25l.1-.2.5-.65-.2-.3v-.1l-.2-.9.05-.95.15-.45h.05l.65.05 3.5-.75.5-.5.2-.3.1-.05q.15.65.7 1.05l3.45 1.85.85.6.55.3 1.35.45.85.15h.15l1.05.1 1.1-.2M37.5 45.2l.55.65 1.9 1.9h.1l2.05 1 1.45.5q.7.95 1.05 2.2l.3 1.15-1.7 1.8-.2.15-1.45-.7q-1.2-.6-1.95-1.6l-.2-.25-.1-.2-.35-1.05-.55-1.25q-.5.8-1.4.95l-1.35-.05q.15.8.65 1.4l.3.3.15.25v.1q.25 1.05.85 2.05.65 1.05-.1 1.6l-4.8 1.05-1.7-.45v-.75l.6-1.1q.65-.85 1.6-1.35h-.05l-1.2-.1-.95-.85-.2-.15-2.2-.95-.05.1v.5q.15 1.1-.5 1.1l.1 2.5-1.6.8q-1.1-.5-2.4-.5l-1.45-.2q-.3-.55.15-1.2l1.55-1.75-1.45-.05-.35-.1.05-.8.1-.15 4.8-2.8-.3-.25-1.05-.7q-.3-.25-.25-.8.1-.95-.4-1.4l.5-.3.15-.15.4-.05.1.2.7 1.05 1.15.75.85.15 1.6.25.35.2.25.2.9 1v.55l.05.25.4 1.15.5-1.4.25-.5.1-.15q.55-1.1 1.4-1.8l1-.95.75-.9.55-.1m-25.8-4.35l.9-1.25 4 .05 1.6-.85.05-.05.85-.65q.55.2 1.2-.4.15-.05.25-.15l1.6-.1q.95.5.3 1.65l-.05.15q-.35.65.1.8 1.1.3 1.6 1.45l.15.4.05 1.1-.2.6-2 3.3q-.6.85-1.5.65l-.6-.15-1.3-.1-.2-.15v-.25l-.15-2.05v-.05l.15-.1.25-.25.6-.35 1.6-.7-1.6.7-.6.35-.25.25-.15.1v.05l-.5.85-1.35.4-.15.1q-.55-.45-1.05-.55-.45-.15-.8 0V42.7l-.1.05-.15.05h-.05l-.05.05-.35.65-.05.05-1.15-.75-.3-.4-.15-.25-.4-.95-.05-.35m6.35-4.5l-.55.6-3.25.25.3-.6q.7-1.55.8-3.3l.05-.55L13.3 36q-.65.75-1.25.3-.8-.8-.8-2l.05-1.4.2-.85.25-.3 1.75-1.5 1.55-1.45q1.85-1.3 3.65-2.65.65-.4.5-1l1.1-.55.05.85.7 1q1.1.7.6 1.45l-.25.3q-.6-.9-.85-.25l-.1.25-.3 1q-.3 1.05-1.15 1.45-.75.35-.85 1.55v.2l.2.8.15.3q.25.7-.65 1.1-.1.85.2 1.75M4.75 20.5l-.55.4-.45-.15Q2.9 19.8 1.6 19.4l-.35-1.8q-.45-1.25-1.3-1.95l1.3-1.95q.75-1.05.85-2.35h1l-.05 1.55q-.1 1.3-.75 2.2l-.6.6q1 .55 1.95.7L3 17.45q-.4.55.3.9 1.55.75 1.45 2.15m35.6-13.25l.95-.45-.95.45m6.2 10.6l-.05 1.1.05-1.1M49.6 7.1q-.8-.15-1 .6l-.6-.3-1.2-.45q-.6.25.2.8.85.55 1.2 1.65l.05.05-.35 2.2-1.2 4.3v.45l.5-.2 1.9-1.5.45-.55.1-.3.5-3v-.2l.25-2.35q.15-1.05-.8-1.2m1 9.05l-.4-.5.4.5m-1.8 3.55l.2.55-.2-.55m1.55.5l.25.65-.25-.65m1.6 3.55q-.6-1.1-1.75-1.75l-.15-.15-.2-.15q-.5-.65-.85-1.45.05.8.5 1.7l.05.1q.4.8 1.25 1.4.95.65 1.55 1.7l-.15-.9q1-.65.35-1.7l-.85-1-1.1-.7.45.7.1.1q.65.95.85 2.05l-.05.05m.15 3l.1-.7.05-.2.1-.7-.1.7-.05.2-.1.7m1.55 5.45l.15 1.1-.15-1.1M33.5 4.55L30.6 6.7l.05.1q.4.75 1.45.9l.55.25.65-1.9.1-1.05.15-.45h.05V4.4l-.1.15m1.55 1.2l.3-.6v-.1.1l-.3.6m-.1 1.6q.5.45.05.8.45-.35-.05-.8m-2.1 2.85l2.05-.5.3-.25q.15-.8-.2-1.3l-4.1 2.25-.35-.2-1.25-1.05q-.75-.7-.8-1.8-.85 1.05-.2 1.85l.1.15 2.2 1.75.15.15 2-1.05.05.05.05-.05m-.55 1.05l.15-.15.05-.1.3-.75-.3.75-.05.1-.15.15m5.85-2.35l-.45.15h-.05l-.65.7-.05.05.05-.05.65-.7h.05l.45-.15m-10.5-3.4l-.05-.25.05.25.6 1.05.3.3-.05.05h.05l.4-.25.15-.2-.2-.3-.05-.05-.5-.95-.05-.4-.1.1-.55.65m.85 1.85V6.9v.45M27 7.9l-.25.35-.2.4-.05.05.05-.05.2-.4.25-.35m-.3 2.25h-.35v.45-.45h.35m-2.5 11l-.35-.25.35.25m-.15 1.45l.1 1.8h1.75-1.75l-.1-1.8m-.4 1l-.25-.2.25.2m-.75 3.35l-.15.45.15-.45m1.8-5.9h.75l.4-.05 1.05-.3-1.05.3-.4.05h-.75m7.45 2.05l-1.65-.2-.8-.55-.3-.25-2.35-1.5-.15.1-.25.7-.7 2.8-.05.2-.85 3.25-.35 1.15.6-.05L27 27.6l-.95.35-.4-.05.1-.85.3-.65.15-.15q.45-.5 1.25-.4 1.4.15 1.4-.95l1-.15h.05q-.2-.3-.7-.4l-.9-.1q-1.55.1-.9-1.15l.75-.7.3-.1.15.35.45.35.5.25.55.5.5.25h.1q.95-.15 1.45-.9l.55.35-.55-.35m1.75-9.65q.25-.9 1.3-.95l2.45-.35-2.45.35q-1.05.05-1.3.95m1.5 10.4l.5-.1-.5.1M19 16.1l-.4-.55.4.55m.8 1.7l.05.3-.05-.3m-3.6 24.3l-1.7.6 1.7-.6m17.75-11.2l-.3-.5.3.5.75 1.65v.15l-.45 1.9-2.15 5.1-.15.5.15-.05.5-.25.75-.6.05-.05 1.15-1.8.85-1.9.05-.05.25-1.3-.05-1-.05-.3q-.25-.9-.95-1.5l-.7-.5m-2.1 9.7l.1-.4-.1.4m1.25-12.95l.2-.25-.2.25m-4.65.1q-.25.15-.55.25.3-.1.55-.25m-5.05.55l-.65-.85.65.85m6.4 11.1l-.05-1.7-.05-.4v-.05q-.1-1-.6-1.85l-.5-1.6v-.9l.4-1.45q-.55.25-.9.85l-.55 1.4-.15.75.05 1.25.15.55.2.4 1.35 1.85.65.9.05.95-.05-.95m3.85 12.4l-.4-.35-.3-.45.3.45.4.35M30.7 24.6l-.8.15.8-.15"/><path fill="#0f0" d="M33.5 4.55h.05L33.4 5q-.45 1-1.4 1.5l-1.4.2 2.9-2.15m-5.15.6l.5.95q-.95-.1-.65-1.25l.15.3"/><path fill="url(#a)" d="M29.05 1.55l.45-.6q.7-.7 1.3-.6l-.7 1.2-.25.5-.35.95-.15-.75-.3-.7"/><path fill="url(#b)" d="M31.4 1l.75-.05 1.1.2.5.2-1.15.85-1.7-.2-1.05.05.25-.5.85-.4.45-.15"/><path fill="url(#c)" d="M31.95 3.1l-.05.2-.7 1.6-.1.05-.35.25q-.8.4-1.35-.45l-.1-.1v-.2L29.5 3l.35-.95L30.9 2l1.7.2-.65.9"/><path fill="url(#d)" d="M27.65 5.5l.55-.65.1-.1.05.4-.15-.3q-.3 1.15.65 1.25l.05.05.2.3-.15.2-.4.25h-.05l.05-.05-.3-.3-.6-1.05"/><path fill="url(#e)" d="M21.85 7.5l1.7-.4.4-.9q.45-.75 1.2-1l1.5-.2-.35.85-.55 1.8-.95.1-1.6-.15h-.7l-.65-.1m2.55-.55l-.85.15.85-.15"/><path fill="url(#f)" d="M16.1 13.95l.75-1 .3-.1-.05-.35.05-.8.35-.95.1-.2 1.85-1.9.15-.1-1.3 2.3-.3.8q-.25 1 .2 2.2.9.45 1.05 1.4l-1.05-.1-1-.75-1.1-.45m1.05-.3v-.8.8"/><path fill="url(#g)" d="M13.6 14l.9-.2 1.2.05.4.1 1.1.45 1 .75.4.4-.15-.05-2.65-.45-.55.1-.65.85-.25.8-.35.9-.4-1.75-.05-.6.05-1.35"/><path fill="url(#h)" d="M8.45 13.1v2.55l-.85.9.85-.9V13.1M5.6 16.5l.25-.15q1.05-.6 1.05-1.85l-.35-1.7q1.05.1 1.5-.4.4-.5.3-1.55l3 2.05q-.15 1.45-1.4 1.8l-.8 1.35-.15.1q-.55.45-1.4.4l-.25.25-1.5-.15-.1-.05-.15-.1m2.85-2.75l1.75-.95-1.75.95"/><path fill="url(#i)" d="M23.65 18.15l-.65.4-.4.15-.35.05-2.15.1-.05-.1.1-.05.85-.6.25-.1q.45-.2.8 0l.15-1.05-.25-.5q-.85-.45-1.05-1.2l1.1-.3q.45-.2.7-.75l.2-.45-.1-.5.35-1.6 1.55-1.2.55-.6q.45-.95 1.25-1.15l-.15 1.45-.25.2-.2.3L23.85 13l-.35.6-.25.65-.25 1.7v.55q.1 1 .65 1.65m-.35-5.35l-.4.95.4-.95"/><path fill="url(#j)" d="M32.85 10.2h-.1l-2 1.05-.15-.15-2.2-1.75-.1-.15q-.65-.8.2-1.85.05 1.1.8 1.8l1.25 1.05.35.2L35 8.15q.35.5.2 1.3l-.3.25-2.05.5"/><path fill="url(#k)" d="M29.3 10.85l.05 1.55-.25-.35q-.6-.7-1.55-.95l-.2-.05.4-.2q1-.3 1.55 0"/><path fill="url(#l)" d="M29.3 10.85l.4.25q.6.6 1.45.85l-.5.3q-.65.4-.8 1.2l-.2.15-.15.2v-.2q.1-.75-.15-1.2l-.05-1.55"/><path fill="url(#m)" d="M25.9 10.65l.05.45q.2.55 1.1.8l.5.4.3.7-2.5.05-.5.25-.4.8.05.75.55.4q.45.15-.15.6l-.65.8v.45l1.85-.05.4-.05q.8-.15 1.1-1l.15-.5 1.05-.55-.15.55-.05.8.05.35-.1.05-.2.3-.5.5-3.5.75-.65-.05-.05-.05q-.55-.65-.65-1.65v-.55l.25-1.7.25-.65.35-.6 2.05-2.35m-2.05 7.25l-.2.25.2-.25"/><path fill="url(#n)" d="M40.8 18v.1l-1.1 2.1-.35.4-.65.35-1.1.2-1.05-.1h-.15l-.85-.15-1.35-.45-.55-.3-.85-.6-3.45-1.85q-.55-.4-.7-1.05l-.05-.35.05-.8.15-.55.5-1 .2-.15.15-.2.2-.15q.75-.55 1.75-.85l2.2-.45q-.05.55-1.15.9-1 .25-1.65 1.2l-.3.65q-.05.45.25.9l1.3.85-1.3-.05.2.3q.85 1.25 2.45 1.85l2.55 1.15q1.25.6 1.75-.35.95-.4 0-1.15l-1.65-1.45 2.25-.1.25-.35.1-.45q.2-1-.2-1.75l-.1-.5q.05-.4.55-.6.55-.3.35-.95l-.35-1.1-.2-.3.3-.45v.2l.05.1.45.85 1.2.55-.35.7q-.35.85-.45 1.85l-.05.55.05.9q.1.85.5 1.55l.2.35"/><path fill="url(#o)" d="M29.85 13.45q.15-.8.8-1.2l.5-.3 1.15-.7.65-.05.5-.15q1-.35 1.9-1l.25-.15 1.35-.1-.15.7-.3.75-.2.15q-.75.4-1.5.6l-1 .15-2.2.45q-1 .3-1.75.85"/><path fill="url(#p)" d="M29.5 13.6v.2l-.2.15.2-.35"/><path fill="url(#q)" d="M20.1 18.85l.45.9-1.25.2-.1.1-.05.1-.7 1q-.5.7-1.15.8l-1.8.05-.1-.9h1.3q.6 0 .8-.3l.05-.35q0-.3-.45-.4l-1.35-.45.4-.1h1.3l.8-.2 1.6-1.2.2.65.05.1"/><path fill="url(#r)" d="M23.65 18.2v-.05l.05.05h-.05m-.95 9.2h.05v.05l-.05-.05m1.9 4.55l.05-.05-.05.1v-.05"/><path fill="url(#s)" d="M18.4 35.95l-.35.4q-.3-.9-.2-1.75.9-.4.65-1.1l-.15-.3-.2-.8v-.2q.1-1.2.85-1.55.85-.4 1.15-1.45l.3-1 .1-.25q.25-.65.85.25l.25-.3q.5-.75-.6-1.45l-.7-1-.05-.85 2.55-.55-.05.2-.25 2.5.15.65.05.05-.05.15-.1.4.05.4.4 1.55.45.75-5.1 5.25m3.75-6.65l-1.45 2.05-.15.1.05-.7q.15-1.35-.15-2.55.3 1.2.15 2.55l-.05.7.15-.1 1.45-2.05m-2.95 3.75l1.25-1.45.1-.15-.1.15-1.25 1.45"/><path fill="url(#t)" d="M25.95 24.2l.7-2.8.25-.7.15-.1 2.35 1.5.3.25.8.55 1.65.2q-.5.75-1.45.9h-.1l-.5-.25-.55-.5-.5-.25-.45-.35-.15-.35-.3.1-.75.7q-.65 1.25.9 1.15l.9.1q.5.1.7.4h-.05l-1 .15-1.6.25-1.25-.7v-.05l-.05-.2"/><path fill="url(#u)" d="M25.95 24.2l.05.2h-.1l.05-.2"/><path fill="url(#v)" d="M26 24.45l1.25.7 1.6-.25q0 1.1-1.4.95-.8-.1-1.25.4l-.15.15-.3.65-.1.85.4.05.95-.35-1.7 1.15-.6.05.35-1.15.85-3.25.1.05"/><path fill="url(#w)" d="M26.5 29q.05-.8.7-1.2l.6-.2.1.4-.35.2-1.05.8"/><path fill="url(#x)" d="M14.6 23.55l-.65.25-.7.45-.1.05-.95.3H12l-.1-.05-.15-.15q-.65-.65-1.55-.95-.35-1.35-.1-2.3l.25-.55-1.05-.05-.35-.05-.9.5.85-.8.15-.2.5-.6.65.4.5.15q.55 0 .85-.7l.1-.3.7.55q.15.35-.1.9l-.1.2-.25 1.85.45 1.5.75-.45.05-.05.15-.05 1.15-.7.15.85m-5.5-3.2L9.05 20l.05.35-.15.15.15-.15m1.3.2l.3-.6-.3.6-.05.05.05-.05"/><path fill="url(#y)" d="M14.25 37.2h-.7l-1.6 1.2-.65-1-1-2.15.1-1.65.15-.55.05-.1v-.75l.05-.1q.05-1.2.7-2.15l3.25-3.8 1.1-.3 1.6-.15.85.05 1.05-.6q.15.6-.5 1-1.8 1.35-3.65 2.65l-1.55 1.45-1.75 1.5-.25.3-.2.85-.05 1.4q0 1.2.8 2 .6.45 1.25-.3l2.1-3.25-.05.55q-.1 1.75-.8 3.3l-.3.6m1.95-10.55l1.25-.55.25-.15-.25.15-1.25.55m1.5-.7l.45-.2-.45.2"/><path fill="url(#z)" d="M6.2 19.75l-.05-.05v-.05l-1.4.85q.1-1.4-1.45-2.15-.7-.35-.3-.9l.65-1.05q-.95-.15-1.95-.7l.6-.6q.65-.9.75-2.2l.05-1.55 1.25.05-.45.7-.6 1.65-.05.75.2 1.15 1.3.4.45.2v.4l-.05.05-.15.55.25.2q.8.8.95 2.3M4.1 17.3l.9-.05-.9.05"/><path fill="url(#A)" d="M5.25 16.65H5.2v-.4l.4.25-.35.15"/><path fill="url(#B)" d="M5.25 16.65l-.1.05.05-.05h.05"/><path fill="url(#C)" d="M24.55 46.05l-.5.3q0 .75-.35 1.2l-.25.3-1.15 1-.3.2-1.3-.2h-.55q-1.25.15-2.6-.55l.15-1.4V46.3l.15-.6.5-.85.15 2.05v.25l.2.15 1.3.1.6.15q.9.2 1.5-.65l2-3.3.2-.6-.05-1.1-.15-.4q-.5-1.15-1.6-1.45-.45-.15-.1-.8l.05-.15q.65-1.15-.3-1.65l-1.6.1q-.1.1-.25.15-.65.6-1.2.4l.7-1.05q-.4-.8-1.4-1.1l5.1-5.25.15.2.95 1.05V32l-.95 2.05-.1.3h-.05q-.35 1-.2 2.15l.25 2.55v.05l.65.5q1.05.6 1.7 1.5v.75l-.1.75.9.55-1.9 2.15-.35.5.1.25M19.9 37.4l-.1-.35.1.35"/><path fill="url(#D)" d="M17.7 46.7l-2.05.95-.4.15h-.05q-1.05-.1-1.8-.85v-2.4l.35-1 .05-.05.35-.65.05-.05h.05l.15-.05.1-.05v2.95q.35-.15.8 0 .5.1 1.05.55l.15-.1 1.35-.4-.15.6v.4"/><path fill="url(#E)" d="M13.4 45l-.85-.35-.7-.8-.4-.95-.7-1.1.05-.05.3-.25.6-.65.05.35.4.95.15.25.3.4 1.15.75-.35 1V45"/><path fill="url(#F)" d="M29 31.45l-.4 1.45v.9l.5 1.6q.5.85.6 1.85v.05l.05.4.05 1.7-.65-.9-1.35-1.85-.2-.4-.15-.55-.05-1.25.15-.75.55-1.4q.35-.6.9-.85"/><path fill="url(#G)" d="M37.5 41.35l-.55.55-1.6 1.15h-.05l-.2.1-.45.15-1.05 1.2-1.05.7h-.05l-.95.6q-1.25.8-2.3-.3l-.75-.7q-.65-.5-.95-1.2l-.85-.45-.9-.55.1-.75v-1.3.55q-.65-.9-1.7-1.5l-.65-.5v-.05l.6-.85.15-.4q.05.75.75 1.2l1.1.75q.5.4.7 1.45l.05.2.05.6.75-.45.1-.3.05-.35.7 2.35.2.25 1.1.65.45.1h1.25l1.35-.55.35-.25q1.2-1.05 2-2.45l.1-.3.1-.2.05-.4.05.35.15.5q.35.65.9.7l.85-.3h.05m-10.15 1.4l.2.85-.2-.85m7.5-.25l-.2.8.2-.8"/><path fill="url(#H)" d="M35.35 43.05q.95.55 1.7 1.6l.45.55-.55.1-.75.9-1 .95q-.85.7-1.4 1.8l-.1.15-.25.5-.5 1.4-.4-1.15-.05-.25v-.55l-.9-1-.25-.2-.35-.2-1.6-.25-.85-.15-1.15-.75-.7-1.05-.1-.2-.4.05-.15.15-.5.3q.5.45.4 1.4-.05.55.25.8l1.05.7.3.25-4.8 2.8-.1.15-.05.8.35.1 1.45.05-1.55 1.75q-.45.65-.15 1.2l-.75-.2-.95-.7-.35-2.85.2-.25 1.65-1.15 1.05-.55 1.35-1.95v-.45l-.35-1.6-.1-.25.35-.5 1.9-2.15.85.45q.3.7.95 1.2l.75.7q1.05 1.1 2.3.3l.95-.6h.05l1.05-.7 1.05-1.2.45-.15.2-.1h.05m-2.55 3.6l-.2 1.15-.05.15-.05 1.1.05-1.1.05-.15.2-1.15m-8.3 2.85l-.95.55.95-.55"/><path fill="url(#I)" d="M31 56.7l-.55-.1q-1.4-.1-1.95-1.15l-.35.2-.1-2.5q.65 0 .5-1.1v-.5l.05-.1 2.2.95.2.15.95.85 1.2.1h.05q-.95.5-1.6 1.35l-.6 1.1v.75m-1.85-3.9q.05 1.35-.5 2.5l-.15.1v.05-.05l.15-.1q.55-1.15.5-2.5"/><path fill="url(#J)" d="M44.05 4.5q.45-.6.45-1.65l3.25 1.9L50 6.55 47.1 5.2l-2.05-.75-1 .05"/><path fill="url(#K)" d="M42.45 6l.65-.5.55-.55-.15.25-.05.15-.1.2q-.35.5-.9.45"/><path fill="url(#L)" d="M33.75 1.35l.85-.7.55-.65.6.1v2.5l-.7-.7-.7.05q-.95.6-2 1l-.4.15.65-.9 1.15-.85"/><path fill="url(#M)" d="M55.4 40.3h-.05l-.05-.1.1.1M35.4 5l.05.1-.1-.05.05-.05M52 23.8l-.05-.05.05-.05v.1M32.75 10.2h.1l-.05.05-.05-.05"/><path fill="url(#N)" d="M30.8.35h.05l.55.65-.45.15-.85.4.7-1.2"/><path fill="url(#O)" d="M33.55 4.55h-.05l.1-.15v.15h-.05"/><path fill="url(#P)" d="M30.6 6.7l1.4-.2q.95-.5 1.4-1.5l-.1 1.05-.65 1.9-.55-.25q-1.05-.15-1.45-.9l-.05-.1"/><path fill="url(#Q)" d="M49.3 13.85l-.05-.95-.15-.5.5-1.15.15-.9q-.05-.7-.65-1.15l-.25-.2.35-1.3-.35 1.3.25.2q.6.45.65 1.15l-.15.9-.5 1.15.15.5.05.95m.3-6.75q.95.15.8 1.2l-.25 2.35v.2l-.5 3-.1.3-.45.55-1.9 1.5-.5.2v-.45l1.2-4.3.35-2.2-.05-.05q-.35-1.1-1.2-1.65-.8-.55-.2-.8l1.2.45.6.3q.2-.75 1-.6m-2.45 8.65l.7-.5q.7-.7.7-1.65l.1-.6.45-.6-.45.6-.1.6q0 .95-.7 1.65l-.7.5M48.85 9L47.5 7.5 48.85 9"/><path fill="url(#R)" d="M51.6 16.05l.55.7q.4.75.35 1.85l.9 1.1 1.1 1.8q.5 1.05.6 2.3l.1 2-.05.55-.6 3.15v.45l-.65-.35q-.25-1 .15-2.15l.35.25-.05-2-.25-1.7q-.2-1.35-.8-2.55l-.7-1.6q-.65-1.5-1.95-1.2.35-.45.2-1l-.05-.45q0-.75.55-.7l.25.1v-.55m.15 1.6l.75.95-.75-.95m2.75 10.7l.05 1.15-.05-1.15"/><path fill="url(#S)" d="M52.2 24.25l-.2-.45v-.1q-.2-1.1-.85-2.05l-.1-.1-.45-.7 1.1.7.85 1q.65 1.05-.35 1.7"/><path fill="url(#T)" d="M52.2 24.25l.15.9q-.6-1.05-1.55-1.7-.85-.6-1.25-1.4l-.05-.1q-.45-.9-.5-1.7.35.8.85 1.45l.2.15.15.15q1.15.65 1.75 1.75l.05.05.2.45"/><path fill="url(#U)" d="M46.3 29.25l.05-.05 2.25-.8q.4-.15.25-.45-.3-.8-1.15-1.4l-.65-.85v-.05q-.35-1.1-.2-2.35l-1.05-.95-.25-.4.1-.15.05-1.6.2-.15.25-.35.05-.05q.8.55.8 1.75l.15.85q.25.6.9.9l1.65 1.25.35.6q-.65-.9-1.1-.2l-.15.4v.55q.05.9.5 1.4.6.6.85 1.6l.35.65q.7.65-.5.7-1-1.7-2.8-.9l-.9.05m2.2-5.15l-1.6-.75-.05-.05.05.05 1.6.75"/><path fill="url(#V)" d="M35.75 5.8l.35.3 1.55-.35.9.05 2.45.45.75.3-.45.25-1.45-.45q-1.4-.2-1.7.65l-.1.75q-.65-.65-1.55-.9-.55-.2-.7-.65l-.05-.4m1.35.95l-1-.65 1 .65"/><path fill="url(#W)" d="M45.55 21.95l-.05.05-.2.05q-.85.45-1.85-.45l-1.55-1.8-.05-.1-1-1.6-.05-.1-.2-.35q-.4-.7-.5-1.55l-.05-.9.05-.55q.1-1 .45-1.85l.35-.7.3-.35.9-.75-.9.75-.3.35-1.2-.55-.45-.85-.05-.1v-.2l.85-1.2q.7 1.95 2.55.75l1-.2q.7.1.95.8l-.55.25-1.5 1.15-.1.15q-.7.65-.6 1.65l-.25 1.75-.2.65q-.15.75.3 1.25l.4-.25q.3-.6.75-.85l.25-.1.6-.1v.1l.2.9.1 1.05-.05.05q-.45.6-.3 1.9l.1.5q.25.45.85.35l.3-.3.1-.3q.25-.85.15-1.8v-.35l.1-.15.15.15q.6.8 1.15.75l-.3.7-.05.05-.25.35-.2.15-.05 1.6-.1.15m.05-2.3v.05-.05l-.15-.4.15.4m0 .05l.1.5-.1-.5"/><path fill="url(#X)" d="M33.95 30.9l.7.5q.7.6.95 1.5l.05.3.05 1-.25 1.3-.05.05-.85 1.9-1.15 1.8-.05.05-.75.6-.5.25-.15.05.15-.5 2.15-5.1.45-1.9v-.15l-.75-1.65"/><path fill="url(#Y)" d="M40.8 37.6q-.8-1.05-.4-2.2l.2-.5.95-1.2.35-.25.9-.85.35-.55.15-.4.25.4.3.8-.05.5-.2.25-.1.1-1.35 1.15-.25.3q-.6.65-.95 1.5-.2.45-.15.95"/><path fill="url(#Z)" d="M52.25 41.8l-.45.8-.1.05-3.6.2-.15.05-.7-.1q-1.2.05-1.7-.65l-.2-.55q.65-.7 1-1.9.4-1.15 1.3-1.9l.05-.05.2-1.25v-.1l-.05-.5h-.05l-.55.1H45.9l-.65.65.6.8q.45.8.1 1.6l-1.1.65-.1-.4-.4-1.15-.4-1.75 1.2-.5-.05-.25-.25-.25.7-.1.9-.35q.6-.3.45-1l-.45-1.2-.3-.5h.7q1.15.1 1.65 1.25.3.65.2 1.5-.05.75.2 1.35l.25.4.9.6-.6.4-.3.2q-.8.65-1.5 1.75-.65 1-.1 1.4l.65.25 2.65.4 1.4.05m-4.75-8.65l.35 2.75-.35-2.75m-2.5 3.6l.25-.1-.25.1"/><path fill="url(#aa)" d="M43 54.55q-.65.5-1.5.8-.65-.8-2.15-.5l-.7.05-.75 1.2h-.4q.75-.55.1-1.6-.6-1-.85-2.05v-.1l-.15-.25-.3-.3q-.5-.6-.65-1.4l1.35.05q.9-.15 1.4-.95l.55 1.25.35 1.05.1.2.2.25q.75 1 1.95 1.6l1.45.7m-5.8-3.3l.7.9 1 2.2-.25.55.25-.55-1-2.2-.7-.9"/><path fill="url(#ab)" d="M55.35 40.3l-.2.1-2.25.45h-.3l.05-.25v-.25l1.65-2.6q.25-.75.1-1.65l-.5-2.5-.1-.3.55.85.75 2.1.15 1.05-.05 1.15q-.15.95.1 1.75l.05.1"/><path fill="none" stroke="#900" stroke-width=".05" stroke-linecap="round" stroke-linejoin="round" d="M51.6 16.05l.55.7m.35 1.85l.9 1.1 1.1 1.8q.5 1.05.6 2.3l.1 2-.05.55m-.6 3.15v.45m.85 10.35h-.05l-.2.1-2.25.45h-.3m-.35.95l-.45.8-.1.05-3.6.2-.15.05-.7-.1q-1.2.05-1.7-.65l-.2-.55q.65-.7 1-1.9.4-1.15 1.3-1.9l.05-.05.2-1.25v-.1l-.05-.5h-.05l-.55.1H45.9l-.65.65.6.8q.45.8.1 1.6l-1.1.65m-4.05-2.1q-.8-1.05-.4-2.2l.2-.5.95-1.2.35-.25.9-.85.35-.55.15-.4m3-2.4l.05-.05m2.25-.8q.4-.15.25-.45-.3-.8-1.15-1.4l-.65-.85v-.05q-.35-1.1-.2-2.35l-1.05-.95-.25-.4-.05.05m-3.6-2.2l-.05-.1M17.7 46.9v-.2m-2.45 1.1h-.05m-2.65-3.15l-.7-.8-.4-.95m-.7-1.1l.05-.05m8.3-3.65l.7-1.05q-.4-.8-1.4-1.1l-.35.4m-3.8.85h-.7m4.6-11.45l1.05-.6m1.1-.55l2.55-.55m.8-5.85v-.05l.2-.25m-4.55 2.05l-.1.1-.05.1-.7 1q-.5.7-1.15.8m-4.05 2.3l-.1.05m-1.15.3l-.1-.05m-5.7-4.8l-.05-.05v-.05l-1.4.85-.55.4-.45-.15Q2.9 19.8 1.6 19.4l-.35-1.8q-.45-1.25-1.3-1.95l1.3-1.95q.75-1.05.85-2.35h1M13.6 14l.9-.2m2.65-.95l-.05-.35.05-.8.35-.95.1-.2 1.85-1.9.15-.1m2.25-1.05l1.7-.4.4-.9q.45-.75 1.2-1l1.5-.2m2.4-3.45l.45-.6m1.3-.6h.05l.55.65.75-.05 1.1.2.5.2.85-.7.55-.65m.25 5l.05.1m.3.7l.35.3 1 .65m.55-1l.9.05 2.45.45M42.45 6l.65-.5.55-.55m.85-2.1l3.25 1.9L50 6.55M45.6 19.7v-.05m.3.4l-.2.15m.5-.55l-.05.05m.7 3.6l.05.05 1.6.75m4-5.5l-.75-.95m-6.5 19l-.25.1m2.85-.85l-.35-2.75M32.6 2.2l1.15-.85M31.4 1l-.45.15-.85.4-.25.5-.35.95m2.45.1l.65-.9m-2.75 11.25q.15-.8.8-1.2l.5-.3m-1.85-1.1l.05 1.55m.15 1.2v.2l.15-.2.2-.15q.75-.55 1.75-.85l2.2-.45M23.55 7.1l.85-.15m4.9 7l.2-.15m-.85 2.85l-.05-.35.05-.8.15-.55m-8.75 3.8l.05.1m3.6-.65l-.05-.05m6.45-16.6l.7-1.2M7.6 16.55l.85-.9V13.1M5.2 16.65l-.05.05m.05-.05v-.4m-.2 1l-.9.05m5 3.05l-.15.15m1.45.05l-.05.05m-.15-7.8l-1.75.95m9.7 12l-.45.2m2.1 11.1l.1.35m2.8-10l.05.05m1.85 4.5V32m-1.1-1.3l-5.1 5.25"/><path fill="none" stroke="#900" stroke-width=".05" stroke-linecap="round" stroke-miterlimit="3" d="M22.9 13.75l.4-.95m-2.85 15.4q.3 1.2.15 2.55l-.05.7.15-.1 1.45-2.05m-1.6 2.15l-.1.15-1.25 1.45"/><path fill="none" stroke="#4C4C4C" stroke-width=".05" stroke-linecap="round" stroke-linejoin="round" d="M40.85 18.1l-.05-.1v.1M24.55 46.05l-.5.3q0 .75-.35 1.2l-.25.3-1.15 1-.3.2-1.3-.2h-.55q-1.25.15-2.6-.55l.15-1.4m0-.2l-2.05.95-.4.15m-.05 0q-1.05-.1-1.8-.85V45l-.85-.35m-1.1-1.75l-.7-1.1m.05-.05l.3-.25.6-.65m1.85-3.65l-1.6 1.2-.65-1-1-2.15.1-1.65.15-.55m.05-.1v-.75m.05-.1q.05-1.2.7-2.15l3.25-3.8 1.1-.3 1.6-.15.85.05M40.9 12.1l.3-.35.9-.75m-1.2 1.1l-.35.7q-.35.85-.45 1.85l-.05.55.05.9q.1.85.5 1.55l.2.35m-1.6-7.6v.2l.05.1.45.85 1.2.55M17.7 25.95l-.25.15-1.25.55m1.65 19.05l-.15.6v.4"/><path fill="none" stroke="#666565" stroke-width=".05" stroke-linecap="round" stroke-linejoin="round" d="M13.75 43.55l-.35 1V45"/><path fill="none" stroke="#5E5E5E" stroke-width=".05" stroke-linecap="round" stroke-linejoin="round" d="M10.55 33.05l.05-.1m0-.75l.05-.1"/><path fill="none" stroke="#444" stroke-width=".05" stroke-linecap="round" stroke-linejoin="round" d="M52.15 16.75q.4.75.35 1.85m2.65 7.75l-.6 3.15-.05-1.15m-8.15.85l2.25-.8M45.5 22l-.2.05q-.85.45-1.85-.45l-1.55-1.8m-.05-.1l-1-1.6m-.05 0l-1.1 2.1-.35.4-.65.35m-1.2 20.4l-.55.55-1.6 1.15q.95.55 1.7 1.6l.45.55m5.5 9.35q-.65.5-1.5.8-.65-.8-2.15-.5l-.7.05-.75 1.2h-.4m-6.5.6l-.55-.1q-1.4-.1-1.95-1.15l-.35.2m-5.45.1l-.75-.2-.95-.7-.35-2.85.2-.25 1.65-1.15 1.05-.55 1.35-1.95v-.45l-.35-1.6m-.9-27.9l-.65.4-.4.15-.35.05-2.15.1.45.9-1.25.2m-2 2l-1.8.05m-.9 1.55l-.65.25-.7.45m-.1.05l-.95.3H12m-.1-.05l-.15-.15q-.65-.65-1.55-.95-.35-1.35-.1-2.3l.25-.55-1.05-.05-.35-.05-.9.5M3.1 11.35l1.25.05m10.15 2.4l1.2.05.4.1.75-1 .3-.1v.8M29.5.95q.7-.7 1.3-.6M35.15 0l.6.1v2.5m.35 3.5l1.55-.35m3.35.5l.75.3m2.3-2.05q.45-.6.45-1.65m1.1 16.8l-.15-.4m.25.95l-.1-.5m.1.5l-.05 1.6-.1.15m.6-2.25l-.25.35m-20-9.4L23.85 13l-.35.6-.25.65-.25 1.7v.55q.1 1 .65 1.65M9.05 20l.05.35m9.1-5.2l-1-.75-1.1-.45m-5.4 6l-.3.6M25.9 41.1v.75l-.1.75.9.55.85.45-.2-.85M25.9 41.1v-.55m-2.35-1.5v.05l.65.5q1.05.6 1.7 1.5m.8 2.05l-1.9 2.15-.35.5.1.25m3-2.45q.3.7.95 1.2l.75.7q1.05 1.1 2.3.3l.95-.6h.05l1.05-.7 1.05-1.2.2-.8m-.2.8l.45-.15.2-.1h.05m3.3 11.85l.25-.55-1-2.2-.7-.9m-8.7 4.2v-.05l.15-.1q.55-1.15.5-2.5m-5.6-2.75l.95-.55"/><path fill="none" stroke="#444" stroke-width=".05" stroke-linecap="round" stroke-miterlimit="3" d="M32.5 49.05l.05-1.1.05-.15.2-1.15"/><path fill="none" stroke="#710000" stroke-width=".05" stroke-linecap="round" stroke-linejoin="round" d="M38.7 20.95q-.05.85-.55 1.5l-.1.15-.4.4-1.1.65-.65.1-.05.2q-.35 1.2-1.45 1.85l-.6.25-.55.05q.5.55.05 1.3l1.9 1.2.15.15q.85.7 1.5 1.85l1.1 2.15.65 1.8.35 3.05-.05.65q-.05.9-.5 1.7V40l-.9 1.35m0 3.85l.55.65 1.9 1.9h.1l2.05 1 1.45.5q.7.95 1.05 2.2l.3 1.15-1.7 1.8-.2.15m-5.5 1.55l-4.8 1.05-1.7-.45m-2.85-1.05l-1.6.8q-1.1-.5-2.4-.5l-1.45-.2m-11-14.9l.9-1.25 4 .05 1.6-.85.05-.05.85-.65m-1.05-1.75l-.55.6-3.25.25m4.95-12.05l1.1-.55m2.55-.55l.1-.15.45-.5-.25-.4q-.15-.65.1-1.25l.1-.2.5-.65-.2-.3v-.1l-.2-.9.05-.95.15-.45M15.5 22l.05.9-.05.35-.9.3M8.05 21l-.55.15h-.05l-1.2-1.3-.05-.1q-.15-1.5-.95-2.3l-.25-.2.15-.55m-.8-5.3l.85-1.45.8-.5 1.35-.65 1-.3 2.45-.4.3.5q.95.6 1.6 1.9l1.05 2.2-.1.6v.05l-.05.65-.05 1.35.05.6.4 1.75 1.2 2.6v.1l.2.7.1.9m4.1-13.45q.9-.7 2.05-1l.2-.05m4.8-2.5l.3.05.65.2m1.75 7.15q.25.45.15 1.2m2.8-2.35l-1.15.7m-3.5-6.45l.6 1.05.3.3-.05.05m-2 1.8l.05-.05.2-.4.25-.35m-1.1 2.75l.2-.3.25-.2.15-1.45m-.15 1.9v-.45h.35m.65.9L27 11m.35.05l.2.05q.95.25 1.55.95l.25.35m-.55 2.55l.5-1m9.4 7l-1.1.2-1.05-.1h-.15l-.85-.15-1.35-.45-.55-.3-.85-.6-3.45-1.85q-.55-.4-.7-1.05m-.1.05l-.2.3-.5.5-3.5.75-.65-.05m.15 2.7l.35.25m-.8 2.25l.25.2m-.8.45l-.05.2-.25 2.5.15.65m13.2-3.65l-.5.1m-17.2-8.7l.4.4.4.55m-13.8.15l-.45-.2-1.3-.4-.2-1.15.05-.75.6-1.65.45-.7m1.25 5.1l.15.1.1.05 1.5.15.25-.25m-2.4-.3l.4.25m14.25 1.6l-.05-.3m.25.95l-.2-.65m-6.1 25.45l.05-.05.35-.65.05-.05h.05l.15-.05.1-.05 1.7-.6m2.15 2.75v-.05l.15-.1.25-.25.6-.35 1.6-.7m-2.6 1.45l-.5.85M33.3 27.4l-.2.25M26.5 29l1.05-.8.35-.2q.3-.1.55-.25m-3.8 4.15l1.2-2.1v-.05l.65-.75m-3.8-1.4l-.1.4.05.4.4 1.55.45.75.15.2.95 1.05m.05-.05l-.05.1-.95 2.05-.1.3h-.05q-.35 1-.2 2.15l.25 2.55m-.8-11.6l.65.85"/><path fill="none" stroke="#710000" stroke-width=".05" stroke-linecap="round" stroke-miterlimit="3" d="M22.9 13.75l-.2.45q-.25.55-.7.75l-1.1.3m5 9.15h-1.75l-.1-1.8m2.85-1.9l-1.05.3-.4.05h-.75m7.45 2.05l-1.65-.2-.8-.55-.3-.25-2.35-1.5-.15.1-.25.7-.7 2.8.05.2v.05l1.25.7 1.6-.25 1-.15h.05l.8-.15m1.45-1.5l.55.35m-6.8.95l.1.05m-.05-.25l-.05.2h.1m7.65 6l.3.5.75 1.65v.15l-.45 1.9-2.15 5.1-.15.5-.1.4M24.7 28.8l.35-1.15.85-3.25m3.1 7.05l-.4 1.45v.9l.5 1.6q.5.85.6 1.85v.05l.05.4.05 1.7.05.95M32.95 51l.3.45.4.35m-1.15-2.75v.55l.05.25.4 1.15"/><path fill="none" stroke="#710000" stroke-width=".05" stroke-miterlimit="3" d="M28.65 16.65l-.1.05m-5.8 10.7l.15-.45m-.15.5v-.05m0 .05l-.05.15"/><path fill="none" stroke="#620000" stroke-width=".05" stroke-linecap="round" stroke-linejoin="round" d="M50 6.55l.3.4.2.2q.95 1.35.8 2.95l-.2 1.15-.85 1.85-.2.25-.05.05v1.05l-.15.8h.05l.3.4 1.05.2.35.2m2.95 13.9q.15 1.45.55 2.2l1.25 2.15q.55.8.45 2.3v.1l-.1.6q0 1-.4 1.9-.25.65-.9 1.1m-2.8.55l-.35.95m-7.4-2.1l-2.2-.15-.6-.55-1.25-1.4m2.5-5.95v-.1q-.65-1.35.65-1.7l.3-.05 1.75-.5.3-.05m-18.7-24V4.4l.4-.5.2-.35.1-.1V3.4l.1-.35V3l.65-1.45m6.7 1.05v1.25l-.2.8-.15.35-.05.05v.1l-.3.6m.4-.65l.05.25v.1l.05.05.2.3m6 .75l.55-.4.15-.15m1.2-1.05l.25-.25.15-.2m-2.3 2.05l-.45.25-.95.45m6.15 11.7l.05-1.1m3.65-2.2l.4.5m-4.1 2.8l-.3.7m7.6 13.65l.1.3.5 2.5q.15.9-.1 1.65l-1.65 2.6v.25l-.05.25m1.2-7.55l-.15-1.1M35 8.15q.45-.35-.05-.8m.05.8l-4.1 2.25-.35-.2-1.25-1.05q-.75-.7-.8-1.8m4.3 2.9l.05-.05m.95 1.95l1-.15q.75-.2 1.5-.6l.2-.15.3-.75.15-.7.05-.05.65-.7h.05l.45-.15m-5.35 1.35l-.3.75-.05.1-.15.15m6.9-.85v-.65m-11.6-4.5l.05.25m.85 1.4v.45"/><path fill="none" stroke="#620000" stroke-width=".05" stroke-linecap="round" stroke-miterlimit="3" d="M49.2 7.7L48.85 9l.25.2q.6.45.65 1.15l-.15.9-.5 1.15.15.5.05.95M47.5 7.5L48.85 9m.25 3.4l-.45.6-.1.6q0 .95-.7 1.65l-.7.5m3.45 5.1l-.25-.65m-1.35.05l-.2-.55m3.15 4.05q-.6-1.1-1.75-1.75l-.15-.15-.2-.15q-.5-.65-.85-1.45m3.35 4.9l-.15-.9-.2-.45-.05-.05m.05-.05q-.2-1.1-.85-2.05l-.1-.1-.45-.7M52 23.8v-.1m.35 1.45l-.1.7-.05.2-.1.7M33.55 4.55h.05V4.4l-.1.15M28.85 6.1l.05.05.2.3m8.55 5.7l-2.45.35q-1.05.05-1.3.95"/><path fill="none" stroke="#00B700" stroke-width=".05" stroke-linecap="round" stroke-miterlimit="3" d="M33.5 4.55L30.6 6.7l1.4-.2q.95-.5 1.4-1.5l.15-.45m-5.2.6l.5.95m-.5-.95l-.15-.3q-.3 1.15.65 1.25"/></svg>