<svg xmlns="http://www.w3.org/2000/svg" viewBox="0 0 46.4 48.5" width="46.4" height="48.5"><defs><radialGradient gradientUnits="userSpaceOnUse" r="819.2" cx="0" cy="0" fx="87942.4" fy="0" spreadMethod="repeat" gradientTransform="matrix(-.017 0 0 .017 13 4.5)" id="a"><stop offset="0" stop-color="#f00"/><stop offset=".639" stop-color="#2E0000"/><stop offset="1"/></radialGradient><linearGradient gradientUnits="userSpaceOnUse" x1="-819.2" x2="819.2" gradientTransform="matrix(-.026 0 0 .029 21.1 23.8)" id="b"><stop offset="0" stop-color="#f00"/><stop offset=".639" stop-color="#2E0000"/><stop offset="1"/></linearGradient><radialGradient gradientUnits="userSpaceOnUse" r="819.2" cx="0" cy="0" spreadMethod="pad" gradientTransform="matrix(-.018 0 0 .018 10.75 12.5)" id="c"><stop offset="0" stop-color="#f00"/><stop offset=".639" stop-color="#2E0000"/><stop offset="1"/></radialGradient><radialGradient gradientUnits="userSpaceOnUse" r="819.2" cx="0" cy="0" spreadMethod="pad" gradientTransform="matrix(-.01 0 0 .01 23.25 13.6)" id="d"><stop offset="0" stop-color="#f00"/><stop offset=".639" stop-color="#2E0000"/><stop offset="1"/></radialGradient><radialGradient gradientUnits="userSpaceOnUse" r="819.2" cx="0" cy="0" spreadMethod="pad" gradientTransform="matrix(-.013 0 0 .013 29.25 9.7)" id="e"><stop offset="0" stop-color="#f00"/><stop offset=".639" stop-color="#2E0000"/><stop offset="1"/></radialGradient><radialGradient gradientUnits="userSpaceOnUse" r="819.2" cx="0" cy="0" spreadMethod="pad" gradientTransform="matrix(-.017 0 0 .017 14.55 29.35)" id="f"><stop offset="0" stop-color="#f00"/><stop offset=".639" stop-color="#2E0000"/><stop offset="1"/></radialGradient><radialGradient gradientUnits="userSpaceOnUse" r="819.2" cx="0" cy="0" spreadMethod="pad" gradientTransform="matrix(-.01 0 0 .01 11.6 23.5)" id="g"><stop offset="0" stop-color="#f00"/><stop offset=".639" stop-color="#2E0000"/><stop offset="1"/></radialGradient><radialGradient gradientUnits="userSpaceOnUse" r="819.2" cx="0" cy="0" spreadMethod="pad" gradientTransform="matrix(-.01 0 0 .01 21.7 29.6)" id="h"><stop offset="0" stop-color="#f00"/><stop offset=".639" stop-color="#2E0000"/><stop offset="1"/></radialGradient><radialGradient gradientUnits="userSpaceOnUse" r="819.2" cx="0" cy="0" spreadMethod="pad" gradientTransform="matrix(-.008 0 0 .008 28.5 29.85)" id="i"><stop offset="0" stop-color="#f00"/><stop offset=".639" stop-color="#2E0000"/><stop offset="1"/></radialGradient><linearGradient gradientUnits="userSpaceOnUse" x1="-819.2" x2="819.2" gradientTransform="matrix(0 .002 .004 -.001 19.65 47.45)" id="j"><stop offset="0" stop-color="#fff"/><stop offset=".639" stop-color="#2E0000"/><stop offset="1"/></linearGradient><radialGradient gradientUnits="userSpaceOnUse" r="819.2" cx="0" cy="0" spreadMethod="pad" gradientTransform="matrix(-.017 0 0 .017 35.35 12.5)" id="k"><stop offset="0" stop-color="#f00"/><stop offset=".639" stop-color="#2E0000"/><stop offset="1"/></radialGradient><radialGradient gradientUnits="userSpaceOnUse" r="819.2" cx="0" cy="0" spreadMethod="pad" gradientTransform="matrix(-.007 0 0 .007 37.25 20.05)" id="l"><stop offset="0" stop-color="#f00"/><stop offset=".639" stop-color="#2E0000"/><stop offset="1"/></radialGradient><radialGradient gradientUnits="userSpaceOnUse" r="819.2" cx="0" cy="0" spreadMethod="pad" gradientTransform="matrix(-.007 0 0 .007 37.75 24.25)" id="m"><stop offset="0" stop-color="#f00"/><stop offset=".639" stop-color="#2E0000"/><stop offset="1"/></radialGradient></defs><path fill="url(#a)" d="M.55 0l-.4.05L.2.1l.1.05L6.7.8q1.55.4 2.2 1.7-1.4-.75-2.85-.85L4 1.3q1.85.5 4.2 1.6 1.35.65 2.85.7 1.75.1 1.85 1.45 0 .55-.65.55L9.5 5.35l4.35 1.15 1.9.8q.5.4 0 .85l-.75.5 2.05.1 1.5.25.25-.3 4.6-3.75 2.45-1.8L6.1.1.55 0"/><path fill="url(#b)" d="M18.55 9l-1.5-.25-2.05-.1.75-.5q.5-.45 0-.85l-1.9-.8L9.5 5.35l2.75.25q.65 0 .65-.55-.1-1.35-1.85-1.45-1.5-.05-2.85-.7Q5.85 1.8 4 1.3l2.05.35q1.45.1 2.85.85Q8.25 1.2 6.7.8L.3.15.2.1.15.05Q-.15.2.2.7l.6 1.45q.6.3.65-.55l.15.85Q2.2 4 3.6 4.4q-.05 1.6.35 3.1.45 1.55 1.85 2.15l.15-.5q-.05 3.25.8 6.4l.15.35q.35 1.3 1.15.85 1.45-.85 2.15-2.45l.45-1.6v-1.35l.45 1q1.05 1.9 3.1 2.95l.6.2.1.25q.55 1.45 1.95 2.15l1.1-.05.3 1.4.45 1.1 1.4 1.7.55.5.65.3 2.55 1.5.8.6.15.15 4 2.7 5.9 4.05.1.05 3.55 2.7q1.1 1.15.8 2.85-.3 1.55-1.3 2.8l-2.3 2.25q-1.35 1-3 1.4l-2.4.8-.5.15-.2.15-2.25 1.05-5.9 1.4 5-.05 1.45-.5v-.05l.25-.05 2.1-.05q1.75 0 3.3-.7l3-1.45 2.55-1.95 2.15-2.7q.8-1.3 1.05-2.8.25-1.8-.3-3.35t-1.5-2.8l-.85-1.25-4.1-6.25-2-2.3-.15-.2h-.05l-.3-.35-.35-.4-1.95-2.45-.5-.7-11.35 1.35 4-1.25q2.9-.75.75-2.35-.9-.65-2-.8l-5.1-.3 4.75-1.1q2.45-.45 1-1.85-1.4-1.25-3.2-1.7l-.4-.1"/><path fill="url(#c)" d="M.8 2.15l.6 2.4L2.7 7.6q.85 1.85.95 4.05l.05 5.9.15 5.2-.05.6 3.2-2.6.35-.25 4.6-4.85 2.4 3.65q1.35 1.75 2.5 2.2l3.7 1 .1.05-.55-.5-1.4-1.7-.45-1.1-.3-1.4-1.1.05q-1.4-.7-1.95-2.15l-.1-.25-.6-.2q-2.05-1.05-3.1-2.95l-.45-1v1.35l-.45 1.6q-.7 1.6-2.15 2.45-.8.45-1.15-.85l-.15-.35q-.85-3.15-.8-6.4l-.15.5q-1.4-.6-1.85-2.15-.4-1.5-.35-3.1-1.4-.4-2-1.95l-.15-.85q-.05.85-.65.55"/><path fill="url(#d)" d="M18.8 8.7l-.25.3.4.1q1.8.45 3.2 1.7 1.45 1.4-1 1.85l-4.75 1.1 5.1.3q1.1.15 2 .8 2.15 1.6-.75 2.35l-4 1.25L30.1 17.1l-2.35-3.35-.5-.55q-2.15-2.15-8.45-4.5"/><path fill="url(#e)" d="M18.8 8.7q6.3 2.35 8.45 4.5l3.1 1.25-.25-.5-.45-.7-.05-.1-5.2-3.85 1.6.65 8.45 2.15-.55-.35-2.3-1.2-1.35-.35q-3.8-.55-5.5-3.55L39.7 6.5l-5.35-.6-1.05.2-3.5.3-3.3-.45-3.1-1-4.6 3.75"/><path fill="url(#f)" d="M7 29.7l-1.65 6.5q-2.45 4.95 1.3 2.2 3.7-2.8 5.7-3.15l4-1q-.35-.9-1.75-1.45l.7.2q2.2.6 4.4-1 1-.75 2.2-1.3 1.45-.6.9-1.8l-.3-.45 1-.75.9-1.1q.3-.65.25-1.45v-.2l-.8-.6-2.55-1.5-.65-.3-.1-.05-3.7-1q-1.15-.45-2.5-2.2l1.45 4.75.35 1.7-.3-.9-.35-.7-.7-1.1-2.4-2.85.5 4.7-.05 2.15-.1.85-.25.9-.9 1.9-.3.6v-2l-.4-4.1L9.8 22q.15 2.1-.75 4.25l-2 3.4-.05.05"/><path fill="url(#g)" d="M7 20.75l.45 1.2.1 4.9-.35 1.8v.05l-.2.9.05.05 2-3.4q.9-2.15.75-4.25l1.1 3.2.4 4.1v2l.3-.6.9-1.9.25-.9.1-.85.05-2.15-.5-4.7 2.4 2.85.7 1.1.35.7.3.9-.35-1.7-1.45-4.75-2.4-3.65-4.6 4.85-.35.25"/><path fill="url(#h)" d="M16.35 34.25l5.9-2.45 6.05-3.6.5-.4-4-2.7-.15-.15v.2q.05.8-.25 1.45l-.9 1.1-1 .75.3.45q.55 1.2-.9 1.8-1.2.55-2.2 1.3-2.2 1.6-4.4 1l-.7-.2q1.4.55 1.75 1.45"/><path fill="url(#i)" d="M22.25 31.8l8.3-.65 3.15.4 1 .3-5.9-4.05-.5.4-6.05 3.6"/><path fill="url(#j)" d="M29.45 44.95l-.7.25L31.1 43l.5-.35q.55-.3 1.15-.5l-2.55.8-1.55.5q-.3.35-1.8.9L20.35 46l-6.15.7-4.7-.2-2.5-.55 3.15 1.85 1.1.35 1.65.2h4.75l8.65-.75.1-.05q.75 0 2.8.9l-1.45-1.55-1.45.5-5 .05 5.9-1.4L29.45 45v-.05m-8.15 2.5l-.75.1h-.95l1.7-.1"/><path fill="url(#k)" d="M41.55 16.6l2.1-3.3q.8-1.35 1.25-2.9l1.5-6.1-12.05 1.6 5.35.6-14.95.15q1.7 3 5.5 3.55l1.35.35 2.3 1.2.55.35L26 9.95l-1.6-.65 5.2 3.85.05.1.45.7.25.5-3.1-1.25.5.55 2.35 3.35.5.7 1.95 2.45.35.4 1.25-.25q1.65-.4 2.95-1.5.7-.55 1.05-1.45.3.95.95.7l2-1.35.45-.2"/><path fill="url(#l)" d="M41.55 16.6l-.45.2-2 1.35q-.65.25-.95-.7-.35.9-1.05 1.45-1.3 1.1-2.95 1.5l-1.25.25.3.35h.05l.15.2 2 2.3 4.65-4.75 1.5-2.15"/><path fill="url(#m)" d="M39.5 29.75l.2-8.75.35-2.25-4.65 4.75 4.1 6.25"/><path fill="none" stroke="#580000" stroke-width=".05" stroke-linecap="round" stroke-miterlimit="3" d="M.15.05L.55 0m-.4.05Q-.15.2.2.7l.6 1.45.6 2.4L2.7 7.6q.85 1.85.95 4.05l.05 5.9.15 5.2-.05.6 3.2-2.6.45 1.2.1 4.9-.35 1.8v.05l-.2.9v.1l-1.65 6.5q-2.45 4.95 1.3 2.2 3.7-2.8 5.7-3.15l4-1 5.9-2.45 8.3-.65 3.15.4 1 .3.1.05 3.55 2.7m-8.7 10.25l-.2.1m-8.8-22.4l-.1-.05-3.7-1q-1.15-.45-2.5-2.2l-2.4-3.65-4.6 4.85-.35.25m13.65 1.8l.65.3 2.55 1.5.8.6.15.15 4 2.7 5.9 4.05m-12.45-.05l6.05-3.6.5-.4"/><path fill="none" stroke="#C4B7B7" stroke-width=".05" stroke-linecap="round" stroke-miterlimit="3" d="M29.45 44.95l-.7.25L31.1 43l.5-.35q.55-.3 1.15-.5l-2.55.8-1.55.5q-.3.35-1.8.9L20.35 46l-6.15.7-4.7-.2-2.5-.55 3.15 1.85 1.1.35 1.65.2h4.75l8.65-.75.1-.05q.75 0 2.8.9l-1.45-1.55"/><path fill="none" stroke="#900" stroke-width=".05" stroke-linecap="round" stroke-miterlimit="3" d="M.55 0L6.1.1l19.75 3.05"/><path fill="none" stroke="#7A0000" stroke-width=".05" stroke-linecap="round" stroke-miterlimit="3" d="M25.85 3.15l-2.45 1.8-4.6 3.75-.25.3m19.8 25.6q1.1 1.15.8 2.85-.3 1.55-1.3 2.8l-2.3 2.25q-1.35 1-3 1.4l-2.4.8m-2.4 2.2v-.05l.25-.05 2.1-.05q1.75 0 3.3-.7l3-1.45 2.55-1.95 2.15-2.7q.8-1.3 1.05-2.8.25-1.8-.3-3.35t-1.5-2.8l-.85-1.25.2-8.75.35-2.25 1.5-2.15 2.1-3.3q.8-1.35 1.25-2.9l1.5-6.1-12.05 1.6-1.05.2-3.5.3-3.3-.45-3.1-1m3.85 8.25q-2.15-2.15-8.45-4.5m11.3 8.4l.5.7 1.95 2.45.35.4.3.35h.05l.15.2 2 2.3 4.1 6.25M27.25 13.2l.5.55 2.35 3.35m9.95 1.65L35.4 23.5"/></svg>