<svg xmlns="http://www.w3.org/2000/svg" viewBox="0 0 58.5 59.4" width="58.5" height="59.4"><defs><radialGradient gradientUnits="userSpaceOnUse" r="819.2" cx="0" cy="0" spreadMethod="pad" gradientTransform="matrix(.055 0 0 .033 22.8 29.8)" id="a"><stop offset="0" stop-color="#690"/><stop offset=".149" stop-color="#630"/><stop offset=".318" stop-color="#33c"/><stop offset=".588" stop-color="#396"/><stop offset="1" stop-color="#330"/></radialGradient><linearGradient gradientUnits="userSpaceOnUse" x1="-819.2" x2="819.2" gradientTransform="matrix(.012 0 0 .01 41.35 15.25)" id="b"><stop offset="0" stop-color="#fff"/><stop offset="1"/></linearGradient><radialGradient gradientUnits="userSpaceOnUse" r="819.2" cx="0" cy="0" spreadMethod="pad" gradientTransform="matrix(.301 0 0 .301 -.75 -.45)" id="c"><stop offset="0" stop-color="#690"/><stop offset=".149" stop-color="#630"/><stop offset=".318" stop-color="#33c"/><stop offset=".588" stop-color="#396"/><stop offset="1" stop-color="#330"/></radialGradient><linearGradient gradientUnits="userSpaceOnUse" x1="-819.2" x2="819.2" gradientTransform="matrix(.001 0 0 .002 28.7 9.85)" id="d"><stop offset="0" stop-color="#fff"/><stop offset="1"/></linearGradient><linearGradient gradientUnits="userSpaceOnUse" x1="-819.2" x2="819.2" gradientTransform="matrix(.003 0 0 .004 24.8 9.55)" id="e"><stop offset="0" stop-color="#fff"/><stop offset="1"/></linearGradient><linearGradient gradientUnits="userSpaceOnUse" x1="-819.2" x2="819.2" gradientTransform="matrix(.003 0 0 .01 27.2 17.85)" id="f"><stop offset="0" stop-color="#fff"/><stop offset="1"/></linearGradient><linearGradient gradientUnits="userSpaceOnUse" x1="-819.2" x2="819.2" gradientTransform="matrix(.009 0 0 .011 36.55 15.55)" id="g"><stop offset="0" stop-color="#fff"/><stop offset="1"/></linearGradient><radialGradient gradientUnits="userSpaceOnUse" r="819.2" cx="0" cy="0" spreadMethod="pad" gradientTransform="matrix(.008 0 0 .008 37.1 19.45)" id="h"><stop offset="0" stop-color="#fff"/><stop offset="1"/></radialGradient><linearGradient gradientUnits="userSpaceOnUse" x1="-819.2" x2="819.2" gradientTransform="matrix(.005 0 0 .008 22.35 21.65)" id="i"><stop offset="0" stop-color="#fff"/><stop offset="1"/></linearGradient><linearGradient gradientUnits="userSpaceOnUse" x1="-819.2" x2="819.2" gradientTransform="matrix(.013 0 0 .005 42.7 20.75)" id="j"><stop offset="0" stop-color="#fff"/><stop offset="1"/></linearGradient><linearGradient gradientUnits="userSpaceOnUse" x1="-819.2" x2="819.2" gradientTransform="matrix(.012 0 0 .005 42 29.55)" id="k"><stop offset="0" stop-color="#fff"/><stop offset="1"/></linearGradient><radialGradient gradientUnits="userSpaceOnUse" r="819.2" cx="0" cy="0" spreadMethod="pad" gradientTransform="matrix(.007 0 0 .007 29.35 31.85)" id="l"><stop offset="0" stop-color="#fff"/><stop offset="1"/></radialGradient><radialGradient gradientUnits="userSpaceOnUse" r="819.2" cx="0" cy="0" spreadMethod="pad" gradientTransform="matrix(.009 0 0 .009 38.1 32.6)" id="m"><stop offset="0" stop-color="#fff"/><stop offset="1"/></radialGradient><linearGradient gradientUnits="userSpaceOnUse" x1="-819.2" x2="819.2" gradientTransform="matrix(.002 0 0 .004 31.35 34.75)" id="n"><stop offset="0" stop-color="#ff9"/><stop offset=".427" stop-color="#FF3922"/><stop offset=".894" stop-color="#f00"/></linearGradient><linearGradient gradientUnits="userSpaceOnUse" x1="-819.2" x2="819.2" gradientTransform="matrix(.002 0 0 .005 27.35 33.05)" id="o"><stop offset="0" stop-color="#ff9"/><stop offset=".427" stop-color="#FF3922"/><stop offset=".894" stop-color="#f00"/></linearGradient><linearGradient gradientUnits="userSpaceOnUse" x1="-819.2" x2="819.2" gradientTransform="matrix(.005 0 0 .009 26.7 46.35)" id="p"><stop offset="0" stop-color="#ff9"/><stop offset=".427" stop-color="#FF3922"/><stop offset=".894" stop-color="#f00"/></linearGradient><radialGradient gradientUnits="userSpaceOnUse" r="819.2" cx="0" cy="0" spreadMethod="pad" gradientTransform="matrix(.011 0 0 .011 26.8 46.35)" id="q"><stop offset="0" stop-color="#fff"/><stop offset="1"/></radialGradient><radialGradient gradientUnits="userSpaceOnUse" r="819.2" cx="0" cy="0" spreadMethod="pad" gradientTransform="matrix(.03 0 0 .03 27.95 44.45)" id="r"><stop offset="0" stop-color="#fff"/><stop offset="1"/></radialGradient><linearGradient gradientUnits="userSpaceOnUse" x1="-819.2" x2="819.2" gradientTransform="matrix(.002 0 0 .009 21.45 13.1)" id="s"><stop offset="0" stop-color="#fff"/><stop offset="1"/></linearGradient><linearGradient gradientUnits="userSpaceOnUse" x1="-819.2" x2="819.2" gradientTransform="matrix(.004 0 0 .008 16.85 15.5)" id="t"><stop offset="0" stop-color="#fff"/><stop offset="1"/></linearGradient><radialGradient gradientUnits="userSpaceOnUse" r="819.2" cx="0" cy="0" spreadMethod="pad" gradientTransform="matrix(.004 0 0 .004 3.4 35)" id="u"><stop offset="0" stop-color="#fff"/><stop offset="1"/></radialGradient><radialGradient gradientUnits="userSpaceOnUse" r="819.2" cx="0" cy="0" spreadMethod="pad" gradientTransform="matrix(.012 0 0 .012 9.05 40.7)" id="v"><stop offset="0" stop-color="#690"/><stop offset=".149" stop-color="#630"/><stop offset=".318" stop-color="#33c"/><stop offset=".588" stop-color="#396"/><stop offset="1" stop-color="#330"/></radialGradient><radialGradient gradientUnits="userSpaceOnUse" r="819.2" cx="0" cy="0" spreadMethod="pad" gradientTransform="matrix(.004 0 0 .004 10.5 39.95)" id="w"><stop offset="0" stop-color="#fff"/><stop offset="1"/></radialGradient><radialGradient gradientUnits="userSpaceOnUse" r="819.2" cx="0" cy="0" spreadMethod="pad" gradientTransform="matrix(.005 0 0 .005 16.85 33.3)" id="x"><stop offset="0" stop-color="#fff"/><stop offset="1"/></radialGradient><radialGradient gradientUnits="userSpaceOnUse" r="819.2" cx="0" cy="0" spreadMethod="pad" gradientTransform="matrix(0 0 0 0 14.7 33.85)" id="y"><stop offset="0" stop-color="#fff"/><stop offset="1"/></radialGradient><radialGradient gradientUnits="userSpaceOnUse" r="819.2" cx="0" cy="0" spreadMethod="pad" gradientTransform="matrix(.003 0 0 .003 16.95 38.35)" id="z"><stop offset="0" stop-color="#fff"/><stop offset="1"/></radialGradient><radialGradient gradientUnits="userSpaceOnUse" r="819.2" cx="0" cy="0" spreadMethod="pad" gradientTransform="matrix(.003 0 0 .003 20.5 34.4)" id="A"><stop offset="0" stop-color="#fff"/><stop offset="1"/></radialGradient><radialGradient gradientUnits="userSpaceOnUse" r="819.2" cx="0" cy="0" spreadMethod="pad" gradientTransform="matrix(.03 0 0 .03 34.2 24.5)" id="B"><stop offset="0" stop-color="#fff"/><stop offset="1"/></radialGradient><radialGradient gradientUnits="userSpaceOnUse" r="819.2" cx="0" cy="0" spreadMethod="pad" gradientTransform="matrix(.003 0 0 .003 16.15 41.4)" id="C"><stop offset="0" stop-color="#ff9"/><stop offset=".427" stop-color="#FF3922"/><stop offset=".894" stop-color="#f00"/></radialGradient><radialGradient gradientUnits="userSpaceOnUse" r="819.2" cx="0" cy="0" spreadMethod="pad" gradientTransform="matrix(.002 0 0 .002 24.1 45.05)" id="D"><stop offset="0" stop-color="#fff"/><stop offset="1"/></radialGradient><radialGradient gradientUnits="userSpaceOnUse" r="819.2" cx="0" cy="0" spreadMethod="pad" gradientTransform="matrix(.003 0 0 .003 12.6 43.65)" id="E"><stop offset="0" stop-color="#ff9"/><stop offset=".427" stop-color="#FF3922"/><stop offset=".894" stop-color="#f00"/></radialGradient><radialGradient gradientUnits="userSpaceOnUse" r="819.2" cx="0" cy="0" spreadMethod="pad" gradientTransform="matrix(.004 0 0 .004 8.55 52.95)" id="F"><stop offset="0" stop-color="#ff9"/><stop offset=".427" stop-color="#FF3922"/><stop offset=".894" stop-color="#f00"/></radialGradient><radialGradient gradientUnits="userSpaceOnUse" r="819.2" cx="0" cy="0" spreadMethod="pad" gradientTransform="matrix(.003 0 0 .003 13.35 52.2)" id="G"><stop offset="0" stop-color="#ff9"/><stop offset=".427" stop-color="#FF3922"/><stop offset=".894" stop-color="#f00"/></radialGradient><radialGradient gradientUnits="userSpaceOnUse" r="819.2" cx="0" cy="0" spreadMethod="pad" gradientTransform="matrix(.004 0 0 .004 10.8 57.55)" id="H"><stop offset="0" stop-color="#ff9"/><stop offset=".427" stop-color="#FF3922"/><stop offset=".894" stop-color="#f00"/></radialGradient><radialGradient gradientUnits="userSpaceOnUse" r="819.2" cx="0" cy="0" spreadMethod="pad" gradientTransform="matrix(.003 0 0 .003 14.9 58.35)" id="I"><stop offset="0" stop-color="#ff9"/><stop offset=".427" stop-color="#FF3922"/><stop offset=".894" stop-color="#f00"/></radialGradient><radialGradient gradientUnits="userSpaceOnUse" r="819.2" cx="0" cy="0" spreadMethod="pad" gradientTransform="matrix(.003 0 0 .003 18.05 52.45)" id="J"><stop offset="0" stop-color="#ff9"/><stop offset=".427" stop-color="#FF3922"/><stop offset=".894" stop-color="#f00"/></radialGradient><linearGradient gradientUnits="userSpaceOnUse" x1="-819.2" x2="819.2" gradientTransform="matrix(.036 0 0 .036 29.25 29.7)" id="K"><stop offset="0" stop-color="#222280"/><stop offset="1" stop-color="#2C421C"/></linearGradient><linearGradient gradientUnits="userSpaceOnUse" x1="-819.2" x2="819.2" gradientTransform="matrix(.003 -.012 .035 .009 15.05 14.4)" id="L"><stop offset="0" stop-color="#222280"/><stop offset="1" stop-color="#2C421C"/></linearGradient></defs><path d="M46.2 3.7q.3-1.1 1.4-1.8L49.75.6q.8-.5 1.8-.6l-.65.8-.3.55-2.25 2.9-.5.25h-.05l-.1-.1q-.65-.55-1.5-.7m6 10.35l1.75-1.5.35-1 .15 1.25q-.1.95-.7 1.6l-1.1.75q-.05-.8-.45-1.1m1.4 11.45l2.55-.1q1.35-.15 2.15-1.1l.2.65q0 .8-.5 1.45-.75.9-2.25.8-1.1-.1-1.7-.65l-.4-.35-.05-.7M44.25 34l2.5.15q1.15-.2 2.1-.85-.05.75-.95 1.25-1 .55-2.25.55l-1.1-.05-.05-.55-.25-.5M26.2 52.65l-.9-.95 1.2.2-.3.75m-1.3-1.55l-.35-.9.85.05.35.15-.85.7m-.7-1.65l-.85-1.55-.2-.5 2.7.05-.35.35-1.15 1.4-.15.25m-1.25-2.8l.05-1.6.35-1.6 1 .95.9 1.15-.8.15q-.5.15-.9.45l-.5.45-.1.05m.55-3.85l.55-1.95.05-.05q.65.35 1.05 1.2.35.7.35 1.65-.4-.6-1.25-.8l-.45-.05h-.3m7.1-35.2q-.45-.95-.3-2.15.05-1.15.65-2.1l1-1.3q-.1 1.05.15 2l.45 1.3.15 1.25-.1.05-.95.6-1.05.35m-6.45 4.2l-.7.15-.6.05-.95-1.95q-.65-1.2.15-2.3l.95-1.2q-.25.3-.2.85v.05q-.05 1.05.6 2.05.6.85.75 1.8v.5m-6.4 9l-.15.1q-.45.2-.55.6l-1-1.65q-.45-.85-.05-1.8.2-.55 1.1-.4l.55.05q-.7.1-.9.75-.25.7.25 1.35l.75 1m1.15 3.95l.05.15.3.3v.05l-.35.35q-.75.55-1.05 1.5l-.4.4q-.85.7-1.2 1.6-.6.35-.55 1.05.05.9-.55 1.55l-.05-.35-.25.8-.1 1.7h-.05l-1-2.6-.1-.95.3-1.85q-.05.75.4 1.45.4-.3.4-1l-.05-1.3-.45-1.95v-.05l1 1.4.6 1.1q.85-.55.75-1.75V23.45l1.05 1.7.1.45 1.2-.85m5.15 4.9l.1.25q.25.7-.25 1.15-.7.6-.8 1.4-.35-.55-.15-1.2l1.1-1.6m3.45-23.5l-.1-.05q.6-1.5 1.95-2.3l.6-.45-1.25 1.8-.25.45-.95.55m-8.6-2.8l-.85-.4-.45.35q0-1.9 1.85-2.5-.55.7-.55 2.55m-7.05 10.9q-.2-1.75 1.1-2.95l.9-.75q-.45 1.3-.5 2.85v1l-.2-.4q-.35-.65-.85-.2l-.45.45m7.65 21.2l.15-.05 1.6-1.1.25-.3q.45-.5.5-1.15l.05-.6.2 1.65v.35q-.05.65-.5 1.15l-1.3.9-1.6.35-.05-.05v.05l-3.95-.05-1.05-.55-.2-.4.05-.35 1.6.4.3.05 2.15.1 1.7-.3.1-.1m-7.7-3l-.5.75-.2.95.05.6-.9.65-.1.05h-.05q-.15-1 .5-1.7l1.2-1.3M6.35 35.6l-1.3.4-4.5.25-.1-.05.1-.15.55-.65 1.5-1 .25-.2.8-.5-.35.65q.7 0 .8.7l.25.25q.75.35 1.15-.45l.65.55.25.15-.05.05m2.8 1.75l.15.05q-.05.9.5 1.6.35.45.35 1.15l-.05 1.95-.05.4-.15.25-.55-.65v1.2l-.55-.8-.3 1.35-.2-.6.05-.2.1-1.15L8.4 40q-.1-1.05-.65-1.7l.25-.55.1.4.7-.75v.8l.35-.85m-6.3-3.15l.45.15-.45-.15"/><path fill="#fff" d="M7.45 45.45l-.45-.2-.35-.3-.35-.6.05-.05.7.65.4.1.25-.1-.1-.5-.1-.4.4.5.3.2.05-1.5h.05l.2.6.3-1.35.55.8v-1.2l.55.65-.05.05-1.2 1.55-1.2 1.1m-6.6-8.6l1.2-.45 2 .1 5.1.85-.35.85v-.8l-.7.75-.1-.4-.25.55-.6 1.05q0-.95-.35-1.8l-.1.6-1.35 2.3.15-.6q.4-1.35.05-2.6l-.1 1.5-.45-1.3v-.05l-.05.05-.55 1.15-.3-1.9-.65 1.15-.15 1.2-.25-.65-.1-1.35-.65 1.75-.3-.65V36.6l-.25.5-.55 1.8-.15 1.2v.45H1l-.25-1.9.1-1.8m9.65-.35l-1.25-.3 2-.15q1.05 0 2 .5l-2.75-.05m-7.55.55v-.35.35m2.05 0v.35-.35"/><path fill="url(#a)" d="M47.8 4.5l.05.05q1.25 1.2-.65.85l-.2-.05h-.15L45.8 6.7l-7 8.4-.05.05-7 8.45.3.25 18.9-9.9.35-.2h.1l.75.3h.05q.4.3.45 1.1l-.2.7-1.15.3H51l-.4.2v-.55.55l-18.15 8-.5.2.5-.2v.55h-.3.3l20.5.3h.5l.15.3.05.7q-.2.4-.95.5h-.5l-.35-.05v-.05h-.25l-18.8-1.2q-.4 1.2-.05 2.4.25.9-.2 1.6l-.2.35-.75 1.6v.15l-1.2 2.95-.45 2.75.05.15.25.55.15.2.05.1v-.1l.05-.1v-.15q.2-1.05.9-1.6l.05-.05q.75-.65.85-1.8l.05-.55.4-1.8 2.7 1.55 1.15.5q-.25 1.55-.2 2.9v1.45l-.65 2.25-1.9 2.2-2.4 2.1-.4.5q-.25.45-.15.8l.35.5.75.35.65.15 2.75-.3 1.7-1.1 1.1-1q1.15-1.1 2.6-1.75l1.45-.45 2-.15q1.85 0 3.4.75 1.2.6 1.6 1.65l.2.65.1 1.4-.1.25v3.15q0 1.6-1.45 2.7-1.2.9-3.25.85l-3.7-.15-3.55.35q-1.75.3-3.3.9-1.6.55-2.85 1.3l-2.6 1-6.4-.2-.65-.1-2.25.15-.2.1-.4.1-2.1.15-1.2-.2L14.3 57l.1-.4-.1.4-1.15-.5-1.1-.3-1.7-.05.25-.25-.25.25-1.2-.25-.05-.05-2.7-.35q1.3-.95 2.95-1.65l.75-.3 1.55-.4h.1l.95-.1h.05l2.9.15h.15l.7.1.15.05q1.35.2 2.45.75l.35.2.05.05.15.05q1 .8 2.4 1.25l3.65.45 1.75-.2 1.65-.7 2.3-1h.3l-.05-.1 3.85-1 3.6-.45 3.5.15q1.95.15 3.6-.65 1-.55 1.25-1.55l.1-.6.6-.95q.55-.95.5-2.1-.05-.85-.6-1.55l-.2-.2-1.55-1.1-2.25-.4q-1.25 0-2.05.85l-1.05 1.25-3.5 5.65-2.4 1.45-1.2.5-1.65.45-1.55.15-.2-.05-.6-.35-.25-.2-1.55-1.65q-.75-.9-.7-2.1l.05-2.3q0-1.1.55-1.9l.15-.2.1-.1 1.15-1.65-.1.5-.4 1.25-.05.1.15-.1 1.3-1.4.2-1.1v-.4.4l-.2 1.1-1.3 1.4-.15.1.05-.1.4-1.25.1-.5v-.1l.05-1.75q-.05-1.25-1-2.15V41q-.1 1 .3 1.8v.05L27.75 44q.4-.65.05-1.25-.5-.9-.25-2.15.15-1.2-.8-1.8v-.05l-.05-.05-1.65.25-.1.05-.25.05q-.9.3-1.25.85l.25-.65.65-1.05 1-.65.35-.1 1.65-.5.25-.05.35-.25.25-.25 2.2-3.85q.4-1.05.3-2.25-.1-1.1.3-2 .35-.9-.3-1.5l-.55.7-.05.05-.35.6-.45.4-.25.15-.85.65q-.95.7-1.5 1.7l-.7 1.5v.05l-.4 1.1-.95 1.15-2.45 1.75-1 1-.6.45q-.75.5-1.55.95l-.35-.55v-.1l-.05-.1v-.75l.15-.85h.05l1.6-.35 1.3-.9q.45-.5.5-1.15v-.35l-.2-1.65-.05.6q-.05.65-.5 1.15l-.25.3-1.6 1.1-.15.05-.05-.1.6-1.2q-.2.15-.45.25-.3.15-.5-.15l.3-.85.4-.75-.55.3-2.05.8.4-.9v-.05l1-2.1-.7.8-1.75 1.4-1.4.95.1-1.7.25-.8.05.35q.6-.65.55-1.55-.05-.7.55-1.05.35-.9 1.2-1.6l.4-.4q.3-.95 1.05-1.5l.35-.35v-.05l-.3-.3-.05-.15-1.05-1.1-.75-1.1v-.05l-.1-.95.05-.05q.1-.4.55-.6l.15-.1q.5-.25.65.4l.3 1.35.3.55.7.75.95.9.2.4q.3.7 1.1 1.35l1.7 1q.85.4 2 .4l.6.1-.3-3.75-.7-1.8-.65-1.25-.15-.45-1.05-2.5-.5-2.9-.05-.3-.05-.1-.4-1.8q-.25-.9.45-1.15l.6-.05.7-.15.35-.15q.5-.35.55.2l-.05.85-.25.8-.1.6v1.95q-.1.95.35 1.85l.35 1.05.05.05.2.65 1.15 5.55q.15.95 1 1.1 1.15.15 1.3-.85l.1-10.9.7-5.15v-.9l.05-.1.7-.8 1.05-.35.95-.6.1-.05.7.15q.3.2.05.8l-.05.15-.7 1.25-.05.05q-.95 1.45-1.35 3.05l-.55 3.5v.25L30 21.7l-.3 1.1q-.45 1.3.25 1.8l.2-.3.25-.1L43.55 6.5l1.05-1.45V4.9q-.05-1.35 1.05-1.25l.55.05q.85.15 1.5.7l.1.1M30.35 24.8l-.4-.2.4.2m21.85 1.9l-.35-.1.35.1m-28.15 2.95l-.05-.1-.1-.1-2.65-2-2-2.2 2 2.2 2.65 2 .1.1.05.1-1.1 1.6q-.2.65.15 1.2.1-.8.8-1.4.5-.45.25-1.15l-.1-.25m7.3-5.6l.4-.45-.4.45.65-.2h.05H32l-.65.2-.35.4.35-.4m1.15 1.35h.3-.3M31 38.7l-.05-.05-.2-.1-.3-.35.3.35.2.1.05.05q.5.85.5 1.95l-.4.95-.65.75.65-.75.4-.95q0-1.1-.5-1.95m-.8.6l.2 1.05.05 2-.05-2-.2-1.05M19.45 54.6l.05-.25-.05.25m-7.1-1.1l-.6-.35.6.35"/><path fill="url(#b)" d="M45.8 6.7q-.1 1.2.45 2.2l1.3 2 3.4 3.05-18.9 9.9-.3-.25 7-8.45.05.05v-.1l7-8.4"/><path fill="url(#c)" d="M17 21.55l.1.95v.05l.75 1.1 1.05 1.1-1.2.85-.1-.45-1.05-1.7v2.1q-1.25-.95-1.85-2l-.15-.75.15-.35.45-.55-2-2.45-1.1-2.05-.35-.9q-.5-1.4.15-2.25l.45-.45q.5-.45.85.2l.2.4v.3l.1.1.3 1.35.1.95q.05 1.75.7 2.85.8 1.35 2.45 1.6m10.5-15.4l.95-.55q.3.05.3.85l-.05.65q-.25.6-.2 1.05l-.5 1.3q-.5 1.05-.4 2.1l-.1.05-.4.4-.95.5.1-3.5.2-1.15.4-.95.5-.6.15-.15M20 5.5l-.1 6.7.15 1.85.5 1.4q.6 1.1.7 2.4v.75q-.1 1.5.65 2.15l-.35.45-.85.45-.45.1-.65-6.4v-.2L18.15 9.3l-.2-.45-.8-3.15q-.3-1.6.45-2.4l.45-.35.85.4q1.05.75 1.1 2.1v.05m-2.9 17.05l-.45-.3q-.95-.55-1.45-.35h-.05.05q.5-.2 1.45.35l.45.3"/><path fill="url(#d)" d="M28.5 8.15q.1.85 1.35 1.25l-.95 1.05-1.3 1.1q-.1-1.05.4-2.1l.5-1.3"/><path fill="url(#e)" d="M25 12.7l.05-.85q-.05-.55-.55-.2l-.35.15v-.5q-.15-.95-.75-1.8-.65-1-.6-2.05V7.4q-.05-.55.2-.85l.05-.1V6.4l.3.1 3.5.4-.4.95-.2 1.15-.1 3.5-1.15.2"/><path fill="url(#f)" d="M25 12.7l1.15-.2.95-.5.4-.4.1-.05 1.3-1.1.95-1.05-.7 5.15-.1 10.9q-.15 1-1.3.85-.85-.15-1-1.1l-1.15-5.55-.2-.65-.05-.05L25 17.9q-.45-.9-.35-1.85V14.1l.1-.6.25-.8"/><path fill="url(#g)" d="M43.55 6.5L30.4 24.2l-.25.1-.2.3q-.7-.5-.25-1.8l.3-1.1.75-5.9v-.25l.55-3.5q.4-1.6 1.35-3.05l.05-.05.7-1.25 2.5-.05 1.5-.9.2-.1 5.2-.05.75-.1"/><path fill="url(#h)" d="M38.8 15.1v.1l-.05-.05.05-.05"/><path fill="url(#i)" d="M22.9 15.35l.5 2.9 1.05 2.5.15.45.65 1.25.7 1.8.3 3.75-.6-.1q-1.15 0-2-.4l-1.7-1q-.8-.65-1.1-1.35l-.2-.4-.95-.9-.7-.75-.3-.55-.3-1.35q.75.6 1.85.55l.45-.1.85-.45.35-.45q.45-.7.5-1.65l.5-3.75"/><path fill="url(#j)" d="M50.6 16.35l-.05 1.8q-.05 1.2.35 2.4l1.65 4.3.4.35-20.5-.3v-.55l18.15-8"/><path fill="url(#k)" d="M51.65 26.65L47.8 28.6l-1.9 1.35q-.95.85-1.55 1.9-.5.8-.4 1.9l-.4-.2-5.05-.45-.4-.1-1.95-.65-2.3-1q-1.2-.5-1.5-1.6l.2-.35q.45-.7.2-1.6-.35-1.2.05-2.4l18.8 1.2.05.05"/><path fill="url(#l)" d="M30.7 26.8q.65.6.3 1.5-.4.9-.3 2 .1 1.2-.3 2.25l-2.2 3.85-.25.25.4-1 .05-.1v-.1l.2-2.4-.1-2.35q-.05-1.2.55-2l.25-.15.45-.4.35-.6.05-.05.55-.7"/><path fill="url(#m)" d="M43.95 33.75l.3.25.25.5.05.55v.05l-.3.35-.15.05-5.85-.9-1.65-.5-1.15-.5-2.7-1.55-1.15-.7.75-1.6q.3 1.1 1.5 1.6l2.3 1 1.95.65.4.1 5.05.45.4.2v.4-.4"/><path fill="url(#n)" d="M32.75 32.05l-.4 1.8-.05.55q-.1 1.15-.85 1.8l-.05.05q-.7.55-.9 1.6V38l-.05.1v.1l-.05-.1-.15-.2-.25-.55-.05-.15.45-2.75 1.2-2.95v-.15l1.15.7"/><path fill="url(#o)" d="M25.7 37.45q.45-1.25 1.4-2l.1-.05q1.25-1.05.15-2.4L26 32.55l.7-1.5q.55-1 1.5-1.7l.85-.65q-.6.8-.55 2l.1 2.35-.2 2.4v.1l-.05.1-.4 1-.35.25-.25.05-1.65.5m2.4-4.15l-.75-.3.75.3"/><path fill="url(#p)" d="M47.55 50q.15-1.4-.3-2.6-.65-1.7-2.65-1.2-1.4.3-2.45 1.55l-4.7 3.7 3.5-5.65L42 44.55q.8-.85 2.05-.85l2.25.4 1.55 1.1.2.2q.55.7.6 1.55.05 1.15-.5 2.1l-.6.95M30.4 54.05l-2.1-.3-1.4-.65-.7-.45.3-.75-1.2-.2-.4-.6.85-.7-.35-.15-.85-.05-.35-.75.15-.25 1.15-1.4.35-.35-2.7-.05-.15-.7.05-.1.5-.45q.4-.3.9-.45l.8-.15-.9-1.15-1-.95.15-.65h.3l.45.05q.85.2 1.25.8 0-.95-.35-1.65-.4-.85-1.05-1.2l.85-1.8.1-.05 1.65-.25.05.05v.05q.95.6.8 1.8-.25 1.25.25 2.15.35.6-.05 1.25l.95-1.15v-.05q-.4-.8-.3-1.8v-1.5q.95.9 1 2.15l-.05 1.75v.1l-1.15 1.65-.1.1-.15.2q-.55.8-.55 1.9l-.05 2.3q-.05 1.2.7 2.1l1.55 1.65.25.2.6.35-.05.1m-2.9-9.8l.25-.25-.25.25"/><path fill="url(#q)" d="M30.65 54l-.25.05.05-.1.2.05"/><path fill="url(#r)" d="M31.4 54.2l.25-.1.05.1h-.3"/><path fill="url(#s)" d="M22.85 12q-.7.25-.45 1.15l.4 1.8.05.1.05.3-.5 3.75q-.05.95-.5 1.65-.75-.65-.65-2.15v-.75q-.1-1.3-.7-2.4l-.5-1.4-.15-1.85.1-6.7 3.05.9v.05l-.05.1-.95 1.2q-.8 1.1-.15 2.3l.95 1.95"/><path fill="url(#t)" d="M18.4 21.2q-.15-.65-.65-.4l-.75-1q-.5-.65-.25-1.35.2-.65.9-.75l-.55-.05q-.9-.15-1.1.4-.4.95.05 1.8l1 1.65-.05.05q-1.65-.25-2.45-1.6-.65-1.1-.7-2.85l-.1-.95-.3-1.35q1.2.75 2.7-.65 1.35-1.25 1.6-2.9l.4-1.95 1.45 5.85v.2l.65 6.4q-1.1.05-1.85-.55"/><path fill="url(#u)" d="M6.45 35.55l-.1.05.05-.05h.05m-5.9.7l-.15.05.05-.1.1.05"/><path fill="url(#v)" d="M.55 36.25l4.5-.25 1.3-.4.1-.05 1.4-.1.2.4 1.75-.3h.1l.15-.05.1-.05.1-.05.9-.65.45-.2.2.25 2-.2.5-.1-.6.7-.05.1-.05.35.2.4 1.05.55 1.05.45q.85.25 1.6.7l.55.4-.4-.1-2.75-.1q.85.3 1.5 1.1l-.8 1.05-.3.85-.1.6-.55-.45-.65-.3-.1.9-.05.1-.6.4-1.05.5-.5.35-.3-.75-3.1 3.75-1.55.8-.35.05q.55-.75.6-1.6l.2.1.1.1.15-.05 1.2-1.1 1.2-1.55.05-.05.15-.25.55-.7.8-1.6.3-1 .05-.4-.55-.25-1.9-1.15-.15-.05-5.1-.85-2-.1-1.2.45-.85.8.4-1.35.15-.05M13.2 38.8h-1.45 1.45m-2.7-2.3l2.75.05q-.95-.5-2-.5l-2 .15 1.25.3m2.25 4l-1.35 1.8 1.35-1.8"/><path fill="url(#w)" d="M9.3 37.4l1.9 1.15.55.25-.05.4-.3 1-.8 1.6-.55.7.05-.4.05-1.95q0-.7-.35-1.15-.55-.7-.5-1.6"/><path fill="url(#x)" d="M14.75 33.85l1.4-.95 1.75-1.4.7-.8-1 2.1v.05l-.4.9 2.05-.8.55-.3-.4.75-.3.85q.2.3.5.15.25-.1.45-.25l-.6 1.2-.05.2-1.7.3-2.15-.1-.3-.05-1.6-.4.05-.1q1.1 0 1.05-1.15v-.2"/><path fill="url(#y)" d="M14.75 33.85v.05l-.05-.05h.05"/><path fill="url(#z)" d="M19.05 39l-2 1.1-.15-.35-.5-.7q-.65-.8-1.5-1.1l2.75.1.4.1-.55-.4q-.75-.45-1.6-.7l-1.05-.45 3.95.05-.15.85v.75l.05.1v.1l.35.55"/><path fill="url(#A)" d="M18.85 36.65h-.05v-.05l.05.05"/><path fill="url(#B)" d="M19.45 35.35l.05.1-.1.1.05-.2"/><path fill="url(#C)" d="M17.05 40.1q.15.55-.1 1.2l-.05.05v.05l-1.45 2.4-.05-1.55-.05-.25-.15-.45.1-.6.3-.85.8-1.05.5.7.15.35"/><path fill="url(#D)" d="M23 46.7l-.05-.05.1-.05-.05.1"/><path fill="url(#E)" d="M13.85 41.8l-.45 1-1.25 1.7-.05.1-.7.85.35-1.55-.05-.85.5-.35 1.05-.5.6-.4"/><path fill="url(#F)" d="M9.35 53.85q-1.85-1.15-4-1.15 1-.6 2.3-.65l1.05.05q1.55.15 2.95.95l.1.1h-.1l-1.55.4-.75.3"/><path fill="url(#G)" d="M10.35 56.15q-.5.35-1.2.5l-3.2.55q1.6-.8 3.15-1.35l.05.05 1.2.25m2.35-3.1q-.15-1.15-.9-1.55l-.75-.3 2.15.35q1.5.25 2.45 1.65l-2.9-.15h-.05"/><path fill="url(#H)" d="M14.3 57l-.3.45q-.85.7-2.05 1.05-2.25.65-4.6.05l1.95-.3q1.65-.75 2.75-2.05l1.1.3 1.15.5"/><path fill="url(#I)" d="M16.75 57.55q.05.95-.65 1.3-1.4.75-3.05.5 1.95-.35 2.5-2l1.2.2"/><path fill="url(#J)" d="M16.65 53.35l.35-.5q.15-1.25-.45-2.2 1.15.05 2 .95 1.05 1.15 1 2.5l-.05.2h-.05l-.35-.2q-1.1-.55-2.45-.75"/><path fill="none" stroke="#343434" stroke-width=".05" stroke-linecap="round" stroke-miterlimit="3" d="M46.2 3.7q.3-1.1 1.4-1.8L49.75.6q.8-.5 1.8-.6l-.65.8-.3.55-2.25 2.9-.5.25h-.05l.05.05q1.25 1.2-.65.85l-.2-.05h-.15L45.8 6.7m1.75 4.2l3.4 3.05.35-.2h.1l.75.3h.05l1.75-1.5.35-1 .15 1.25q-.1.95-.7 1.6l-1.1.75-.2.7-1.15.3H51l-.4.2-.05 1.8q-.05 1.2.35 2.4l1.65 4.3.4.35h.5l.15.3 2.55-.1q1.35-.15 2.15-1.1l.2.65q0 .8-.5 1.45-.75.9-2.25.8-1.1-.1-1.7-.65l-.4-.35q-.2.4-.95.5h-.5l-.35-.05-.1-.05-.1.05-3.85 1.95m-3.85 5.15l.3.25 2.5.15q1.15-.2 2.1-.85-.05.75-.95 1.25-1 .55-2.25.55l-1.1-.05v.05l-.3.35-.15.05M19.5 54.3v.05m11.9-.15l.25-.1m-1-.1l-.25.05m-4.2-1.4l-.9-.95m-.4-.6l-.35-.9m-.35-.75l-.85-1.55-.2-.5m-.15-.7l-.05-.05.05-1.6.35-1.6m.15-.65l.55-1.95.05-.05m.85-1.8l-.25.05q-.9.3-1.25.85l.25-.65.65-1.05 1-.65.35-.1m.3-4.9v.05l-.4 1.1-.95 1.15-2.45 1.75-1 1-.6.45q-.75.5-1.55.95m-3.85 2.55l-.55-.45-.65-.3-.1.9-.05.1m-2.15 1.25l-.3-.75-3.1 3.75M7 45.3l.2.1.1.1.15-.05M46.2 3.7l-.55-.05q-1.1-.1-1.05 1.25v.15L43.55 6.5l-.75.1-5.2.05M30.4 24.2l-.25.1-.2.3.4.2M47.8 4.5l-.1-.1q-.65-.55-1.5-.7M32.7 8.95l-.05.05m-1.9 6.55v.25M30 21.7l-.3 1.1q-.45 1.3.25 1.8m20.65-8.25v-.55m2.05-.65q-.05-.8-.45-1.1m1.45 12.15l-.05-.7m-1.75 1.15l-.05-.05h-.2m.2 0h.05l.35.1m-8.65 6.85l.4.2v.4m.3-.15l.25.5.05.55M30.6 7.6q-.45-.95-.3-2.15.05-1.15.65-2.1l1-1.3q-.1 1.05.15 2l.45 1.3.15 1.25-.1.05-.95.6-1.05.35m2.85-.05l-.05.15m-3.5.7l-.05.1m-.8 16.95q-.15 1-1.3.85-.85-.15-1-1.1l-1.15-5.55-.2-.65-.05-.05L25 17.9q-.45-.9-.35-1.85V14.1l.1-.6.25-.8.05-.85q-.05-.55-.55-.2l-.35.15-.7.15-.6.05q-.7.25-.45 1.15l.4 1.8.05.1.05.3.5 2.9 1.05 2.5.15.45.65 1.25.7 1.8.3 3.75-.6-.1q-1.15 0-2-.4l-1.7-1q-.8-.65-1.1-1.35l-.2-.4-.95-.9-.7-.75-.3-.55-.3-1.35q-.15-.65-.65-.4l-.15.1q-.45.2-.55.6l-.05.05m1.9 3.2l.05.15.3.3v.05l2 2.2 2.65 2 .1.1.05.1.1.25q.25.7-.25 1.15-.7.6-.8 1.4-.35-.55-.15-1.2l1.1-1.6m4.4-24.05l.25-.45 1.25-1.8-.6.45Q28 4.6 27.4 6.1l-.05.2m-4.3.1l.3.1m-.3-.1v.05l-.05.1q-.25.3-.2.85m1.35 3.9v.5M23 6.55l-.95 1.2q-.8 1.1-.15 2.3l.95 1.95m7-2.6l-.95 1.05-1.3 1.1m-1.45.95l-1.15.2m6.75 10.9l.3.25H32l-.65.2-.35.4m7.75-9.3l.05-.05m-6.35 9.25l-.5.2m-.2-.95l-.4.45M18.9 3.35q0-1.85.55-2.55-1.85.6-1.85 2.5m-4.25 11.1v-1q.05-1.55.5-2.85l-.9.75q-1.3 1.2-1.1 2.95m1.5.15l.1.4m4.3-3.55l.4-1.95m-1.1 12.2l-1-1.65q-.45-.85-.05-1.8.2-.55 1.1-.4l.55.05q-.7.1-.9.75-.25.7.25 1.35l.75 1m-3 13.05l.1-1.7.25-.8.05.35q.6-.65.55-1.55-.05-.7.55-1.05.35-.9 1.2-1.6l.4-.4q.3-.95 1.05-1.5l.35-.35m-2.7.3v.8q.1 1.2-.75 1.75l-.6-1.1-1-1.4-.05-.05.05.1.45 1.95.05 1.3q0 .7-.4 1-.45-.7-.4-1.45l-.3 1.85.1.95 1 2.6.05.05v-.05m4.75 1.6l.15-.05 1.6-1.1.25-.3q.45-.5.5-1.15l.05-.6.2 1.65v.35q-.05.65-.5 1.15l-1.3.9-1.6.35h-.05l-3.95-.05 1.05.45q.85.25 1.6.7l.55.4-.4-.1-2.75-.1q.85.3 1.5 1.1m-2.25-13.5l-.1-.25m-2.25 7.15l-.5.75-.2.95.05.6.45-.2.25-.25m-.05-1.85l.55-.5m-2.25 3.5q-.15-1 .5-1.7l1.2-1.3m1.9 2.75l.6-.7-.5.1-2 .2-.2-.25m-.45.2l-.9.65-.1.05-.1.05-.15.05h-.1l-1.75.3-.2-.4-1.4.1M.4 36.3L0 37.65l.85-.8m8.3.5l.15.05 1.9 1.15.55.25h1.45m1.65-2.2l-1.05-.55-.2-.4.05-.35.05-.1q1.1 0 1.05-1.15v-.15m-1.1 1.4l1.6.4.3.05 2.15.1 1.7-.3.1-.1M.45 36.2l-.05.1m.05-.1l.1-.15.55-.65 1.5-1 .25-.2.8-.5-.35.65q.7 0 .8.7l.25.25q.75.35 1.15-.45l.65.55.25.15h.05m-3.15-1.2l-.45-.15m7.25 1.25l-.05.05m0 7l.05-.4.05-1.95q0-.7-.35-1.15-.55-.7-.5-1.6m-1.55.9q.55.65.65 1.7l.05 1.9-.1 1.15-.05.2m1.6-.5l.15-.25.55-.7.8-1.6.3-1 .05-.4m-3.5 4.45v-.2m.05-.6v.8m3.1-.95l1.35-1.8m-2.6-5.05h-.05M32.8 25.4q-.4 1.2-.05 2.4.25.9-.2 1.6l-.2.35q.3 1.1 1.5 1.6M32.8 25.4h-.3m-.35-.5h.3v-.55m-.1 5.4l-.75 1.6m-2.55-2.65l.25-.15.45-.4.35-.6.05-.05.55-.7"/><path fill="none" stroke="#33410E" stroke-width=".05" stroke-linecap="round" stroke-miterlimit="3" d="M35.75 40.7l-1.9 2.2-2.4 2.1-.4.5q-.25.45-.15.8l.35.5.75.35.65.15 2.75-.3 1.7-1.1 1.1-1q1.15-1.1 2.6-1.75l1.45-.45 2-.15q1.85 0 3.4.75 1.2.6 1.6 1.65l.2.65.1 1.4-.1.25v3.15q0 1.6-1.45 2.7-1.2.9-3.25.85l-3.7-.15-3.55.35q-1.75.3-3.3.9-1.6.55-2.85 1.3l-2.6 1-6.4-.2-.65-.1-2.25.15-.2.1-.4.1-2.1.15m-1.2-.2L14.3 57l.1-.4m-2.35-.4l-1.7-.05.25-.25m-1.5-.05l-2.7-.35q1.3-.95 2.95-1.65m2.4-.7l.95-.1m2.95.15h.15l.7.1.15.05m2.85 1l.15.05q1 .8 2.4 1.25l3.65.45 1.75-.2 1.65-.7 2.3-1m.25-.1l3.85-1 3.6-.45 3.5.15q1.95.15 3.6-.65 1-.55 1.25-1.55l.1-.6m-10.1 1.45l-2.4 1.45-1.2.5-1.65.45-1.55.15m-.2-15.8l.3.35.2.1.05.05m-.55 3.65v.4l-.2 1.1-1.3 1.4-.15.1.05-.1.4-1.25.1-.5m7.25-9.4l-1.15-.5-2.7-1.55M19.5 54.35l-.05.25m0-.3l.05.05m-7.75-1.2l.6.35m-2 2.65l-1.2-.25-.05-.05"/><path fill="none" stroke="#f00" stroke-width=".05" stroke-linecap="round" stroke-miterlimit="3" d="M16.75 57.55q.05.95-.65 1.3-1.4.75-3.05.5 1.95-.35 2.5-2M14.3 57l-.3.45q-.85.7-2.05 1.05-2.25.65-4.6.05l1.95-.3q1.65-.75 2.75-2.05m-1.7-.05q-.5.35-1.2.5l-3.2.55q1.6-.8 3.15-1.35m.25-2q-1.85-1.15-4-1.15 1-.6 2.3-.65l1.05.05q1.55.15 2.95.95l.1.1m.95-.1q-.15-1.15-.9-1.55l-.75-.3 2.15.35q1.5.25 2.45 1.65m1 .15l.35-.5q.15-1.25-.45-2.2 1.15.05 2 .95 1.05 1.15 1 2.5l-.05.2M47.55 50q.15-1.4-.3-2.6-.65-1.7-2.65-1.2-1.4.3-2.45 1.55l-4.7 3.7m-7.05 2.6l-2.1-.3-1.4-.65-.7-.45m.9-17.2l.1-.05q1.25-1.05.15-2.4l.75.3m4.65-1.25l-1.15-.7v.15m-3.65 5.15l.4-1 .05-.1v-.1l.2-2.4-.1-2.35q-.05-1.2.55-2l-.85.65q-.95.7-1.5 1.7l-.7 1.5m.7 6.15l.05.05v.05m1.95 4.05v-.05M24.95 39l.1-.05m2.7 5.05l-.25.25m-10.85 9.1q1.35.2 2.45.75l.35.2m-6.75-1.25h.05l2.9.15m-6.3.65l.75-.3 1.55-.4h.1M14.3 57l-1.15-.5-1.1-.3m4.7 1.35l-1.2-.2"/><path fill="none" stroke="#273C8B" stroke-width=".05" stroke-linecap="round" stroke-miterlimit="3" d="M36.6 34.1q-.25 1.55-.2 2.9v1.45l-.65 2.25"/><path fill="none" stroke="#47337B" stroke-width=".05" stroke-linecap="round" stroke-miterlimit="3" d="M31 38.7q.5.85.5 1.95l-.4.95-.65.75-.05-2-.2-1.05"/><path fill="none" stroke="#228" stroke-width=".05" stroke-linecap="round" stroke-miterlimit="3" d="M26.75 38.8q.95.6.8 1.8-.25 1.25.25 2.15.35.6-.05 1.25l.95-1.15m0-.05q-.4-.8-.3-1.8v-1.5q.95.9 1 2.15l-.05 1.75m-4.3-4.45l1.65-.25"/><path fill="none" stroke="#FF5D37" stroke-width=".05" stroke-linecap="round" stroke-miterlimit="3" d="M25.3 51.7l-.4-.6m-.35-.9l-.35-.75m-1.05-2.05l-.15-.7m.35-3.25l.15-.65m.6-2l.85-1.8m.75-1.55q.45-1.25 1.4-2m.25-2.45L26 32.55"/><path fill="none" stroke="#443384" stroke-width=".05" stroke-linecap="round" stroke-miterlimit="3" d="M27.95 36.65l-.35.25-.25.05-1.65.5m5.9-5.95l-1.2 2.95-.45 2.75m.05.15l.25.55"/><path fill="none" stroke="#4D3363" stroke-width=".05" stroke-linecap="round" stroke-miterlimit="3" d="M30.25 37.9l.15.2m-.45-.9l.05.15"/><path fill="none" stroke="#53334B" stroke-width=".05" stroke-linecap="round" stroke-miterlimit="3" d="M30.4 38.1l.05.1"/><path fill="none" stroke="url(#K)" stroke-width=".05" stroke-linecap="round" stroke-miterlimit="3" d="M51.6 26.6l-18.8-1.2m20.15-.2l-20.5-.3"/><path fill="none" stroke="url(#L)" stroke-width=".05" stroke-linecap="round" stroke-miterlimit="3" d="M43.55 6.5L30.4 24.2m3-16.5l-.7 1.25m-.05.05q-.95 1.45-1.35 3.05l-.55 3.5m0 .25L30 21.7m2.7-15.1l.7.15q.3.2.05.8m-2.85.05l-.7.8m-.05.1v.9l-.7 5.15-.1 10.9m9.7-10.3l-7 8.45m.3.25l18.9-9.9M38.8 15.1l7-8.4M32.45 24.35l18.15-8"/><path fill="none" stroke="#555" stroke-width=".05" stroke-linecap="round" stroke-miterlimit="3" d="M37.6 6.65l-.2.1-1.5.9-2.5.05"/><path fill="none" stroke="#7E7E7E" stroke-width=".05" stroke-linecap="round" stroke-miterlimit="3" d="M45.8 6.7q-.1 1.2.45 2.2l1.3 2m.25 17.7l-1.9 1.35q-.95.85-1.55 1.9-.5.8-.4 1.9"/><path fill="none" stroke="#939393" stroke-width=".05" stroke-linecap="round" stroke-miterlimit="3" d="M44.1 35.5l-5.85-.9-1.65-.5M19.05 39l-2 1.1m6.3-33.6l3.5.4m-4.05.5v.05q-.05 1.05.6 2.05.6.85.75 1.8m4.35-3.15q.1.85 1.35 1.25M21.9 20.75q.45-.7.5-1.65l.5-3.75m-9.45-.55q1.2.75 2.7-.65 1.35-1.25 1.6-2.9m16.1 20.1l2.3 1 1.95.65m.4.1l5.05.45M18.4 21.2q.75.6 1.85.55M20 5.5l3.05.9"/><path fill="none" stroke="#959595" stroke-width=".05" stroke-linecap="round" stroke-miterlimit="3" d="M38.1 33l.4.1"/><path fill="none" stroke="#663D00" stroke-width=".05" stroke-linecap="round" stroke-miterlimit="3" d="M17 21.55l.1.95v.05l.75 1.1 1.05 1.1m8.6-18.6l.95-.55q.3.05.3.85l-.05.65q-.25.6-.2 1.05l-.5 1.3q-.5 1.05-.4 2.1l-.1.05-.4.4-.95.5.1-3.5.2-1.15.4-.95.5-.6.15-.15m-5.6 14.6q-.75-.65-.65-2.15v-.75q-.1-1.3-.7-2.4l-.5-1.4-.15-1.85.1-6.7v-.05q-.05-1.35-1.1-2.1l-.85-.4-.45.35q-.75.8-.45 2.4l.8 3.15.2.45 1.45 5.85v.2l.65 6.4.45-.1.85-.45.35-.45m-10.05-6.5l.45-.45q.5-.45.85.2l.2.4v.3l.1.1.3 1.35.1.95q.05 1.75.7 2.85.8 1.35 2.45 1.6m-5.15-7.3q-.65.85-.15 2.25l.35.9 1.1 2.05 2 2.45h.05q.5-.2 1.45.35l.45.3m-1.95-.65l-.45.55-.15.35.15.75q.6 1.05 1.85 2v-2.1l1.05 1.7.1.45 1.2-.85"/><path fill="none" stroke="#FF2516" stroke-width=".05" stroke-linecap="round" stroke-miterlimit="3" d="M17.05 40.1q.15.55-.1 1.2l-.05.05v.05l-1.45 2.4-.05-1.55-.05-.25-.15-.45m-1.35.25l-.45 1-1.25 1.7-.05.1-.7.85.35-1.55-.05-.85m4.7-4l.5.7.15.35"/><path fill="none" stroke="#ccc" stroke-width=".05" stroke-linecap="round" stroke-miterlimit="3" d="M7.45 45.45l-.45-.2-.35-.3-.35-.6v-.15l-.05-.4.1.5.7.65.4.1.25-.1-.1-.5-.1-.4-.1-.55M.85 36.85l1.2-.45 2 .1 5.1.85-.35.85v-.8l-.7.75-.1-.4-.25.55-.6 1.05q0-.95-.35-1.8l-.1.6-1.35 2.3.15-.6q.4-1.35.05-2.6l-.1 1.5-.45-1.3v-.05l-.05.05-.55 1.15-.3-1.9-.65 1.15-.15 1.2-.25-.65-.1-1.35-.65 1.75-.3-.65V36.6l-.25.5-.55 1.8-.15 1.2V41.3m1.9-4.6v.35m5.35 6.2l.2.6.3-1.35.55.8v-1.2l.55.65-.05.05-1.2 1.55-1.2 1.1m.8-2.4l.05-.6m-.05.8l-.05 1.5-.3-.2-.4-.5M1 40.55l.05.4m-.05-.4l-.25-1.9.1-1.8M5 37.4v-.35"/><path fill="none" stroke="#999" stroke-width=".05" stroke-linecap="round" stroke-miterlimit="3" d="M10.5 36.5l-1.25-.3 2-.15q1.05 0 2 .5l-2.75-.05"/><path fill="none" stroke="#333502" stroke-width=".05" stroke-linecap="round" stroke-miterlimit="3" d="M8.3 46.05l-1.55.8-.35.05q.55-.75.6-1.6"/></svg>