<svg xmlns="http://www.w3.org/2000/svg" viewBox="0 0 47.8 48.2" width="47.8" height="48.2"><defs><radialGradient gradientUnits="userSpaceOnUse" r="819.2" cx="0" cy="0" spreadMethod="pad" gradientTransform="matrix(.034 0 0 .034 23.95 20.8)" id="a"><stop offset=".098" stop-color="#660"/><stop offset=".604" stop-color="#fc0"/><stop offset=".894" stop-color="#3D3D00"/></radialGradient><linearGradient gradientUnits="userSpaceOnUse" x1="-819.2" x2="819.2" gradientTransform="matrix(.007 0 0 .007 37.9 12)" id="b"><stop offset="0" stop-color="#580000"/><stop offset=".537" stop-color="#f00"/><stop offset=".808" stop-color="#7E0000"/><stop offset="1"/></linearGradient><linearGradient gradientUnits="userSpaceOnUse" x1="-819.2" x2="819.2" gradientTransform="matrix(.003 0 0 .006 35.65 7.55)" id="c"><stop offset="0" stop-color="#580000"/><stop offset=".537" stop-color="#f00"/><stop offset=".808" stop-color="#7E0000"/><stop offset="1"/></linearGradient><linearGradient gradientUnits="userSpaceOnUse" x1="-819.2" x2="819.2" gradientTransform="matrix(.005 0 0 .004 38.05 15.4)" id="d"><stop offset="0" stop-color="#580000"/><stop offset=".537" stop-color="#f00"/><stop offset=".808" stop-color="#7E0000"/><stop offset="1"/></linearGradient><linearGradient gradientUnits="userSpaceOnUse" x1="-819.2" x2="819.2" gradientTransform="matrix(.002 0 0 .006 28.15 8.7)" id="e"><stop offset="0" stop-color="#580000"/><stop offset=".537" stop-color="#f00"/><stop offset=".808" stop-color="#7E0000"/><stop offset="1"/></linearGradient><linearGradient gradientUnits="userSpaceOnUse" x1="-819.2" x2="819.2" gradientTransform="matrix(.001 0 0 .006 27 18.95)" id="f"><stop offset="0" stop-color="#580000"/><stop offset=".537" stop-color="#f00"/><stop offset=".808" stop-color="#7E0000"/><stop offset="1"/></linearGradient><linearGradient gradientUnits="userSpaceOnUse" x1="-819.2" x2="819.2" gradientTransform="matrix(.001 0 0 .009 31.1 15.45)" id="g"><stop offset="0" stop-color="#580000"/><stop offset=".537" stop-color="#f00"/><stop offset=".808" stop-color="#7E0000"/><stop offset="1"/></linearGradient><linearGradient gradientUnits="userSpaceOnUse" x1="-819.2" x2="819.2" gradientTransform="matrix(.004 0 0 .006 31.8 23.8)" id="h"><stop offset="0" stop-color="#580000"/><stop offset=".537" stop-color="#f00"/><stop offset=".808" stop-color="#7E0000"/><stop offset="1"/></linearGradient><linearGradient gradientUnits="userSpaceOnUse" x1="-819.2" x2="819.2" gradientTransform="matrix(.002 0 0 .01 27.1 24.2)" id="i"><stop offset="0" stop-color="#580000"/><stop offset=".537" stop-color="#f00"/><stop offset=".808" stop-color="#7E0000"/><stop offset="1"/></linearGradient><linearGradient gradientUnits="userSpaceOnUse" x1="-819.2" x2="819.2" gradientTransform="matrix(.005 0 0 .003 39.6 18.5)" id="j"><stop offset="0" stop-color="#580000"/><stop offset=".537" stop-color="#f00"/><stop offset=".808" stop-color="#7E0000"/><stop offset="1"/></linearGradient><linearGradient gradientUnits="userSpaceOnUse" x1="-819.2" x2="819.2" gradientTransform="matrix(.006 0 0 .004 37 23.25)" id="k"><stop offset="0" stop-color="#580000"/><stop offset=".537" stop-color="#f00"/><stop offset=".808" stop-color="#7E0000"/><stop offset="1"/></linearGradient><radialGradient gradientUnits="userSpaceOnUse" r="819.2" cx="0" cy="0" spreadMethod="pad" gradientTransform="matrix(.009 0 0 .009 31.05 39.95)" id="l"><stop offset=".098" stop-color="#660"/><stop offset=".682"/></radialGradient><linearGradient gradientUnits="userSpaceOnUse" x1="-819.2" x2="819.2" gradientTransform="matrix(.004 0 0 .004 29.05 30.3)" id="m"><stop offset="0" stop-color="#580000"/><stop offset=".537" stop-color="#f00"/><stop offset=".808" stop-color="#7E0000"/><stop offset="1"/></linearGradient><linearGradient gradientUnits="userSpaceOnUse" x1="-819.2" x2="819.2" gradientTransform="matrix(.001 0 0 .008 17.1 7.05)" id="n"><stop offset="0" stop-color="#580000"/><stop offset=".537" stop-color="#f00"/><stop offset=".808" stop-color="#7E0000"/><stop offset="1"/></linearGradient><linearGradient gradientUnits="userSpaceOnUse" x1="-819.2" x2="819.2" gradientTransform="matrix(.007 0 0 .005 7.45 14.9)" id="o"><stop offset="0" stop-color="#580000"/><stop offset=".537" stop-color="#f00"/><stop offset=".808" stop-color="#7E0000"/><stop offset="1"/></linearGradient><linearGradient gradientUnits="userSpaceOnUse" x1="-819.2" x2="819.2" gradientTransform="matrix(.005 0 0 .005 8.05 6.65)" id="p"><stop offset="0" stop-color="#580000"/><stop offset=".537" stop-color="#f00"/><stop offset=".808" stop-color="#7E0000"/><stop offset="1"/></linearGradient><linearGradient gradientUnits="userSpaceOnUse" x1="-819.2" x2="819.2" gradientTransform="matrix(.007 0 0 .005 6.8 20)" id="q"><stop offset="0" stop-color="#580000"/><stop offset=".537" stop-color="#f00"/><stop offset=".808" stop-color="#7E0000"/><stop offset="1"/></linearGradient><linearGradient gradientUnits="userSpaceOnUse" x1="-819.2" x2="819.2" gradientTransform="matrix(.007 0 0 .004 10.9 26.45)" id="r"><stop offset="0" stop-color="#580000"/><stop offset=".537" stop-color="#f00"/><stop offset=".808" stop-color="#7E0000"/><stop offset="1"/></linearGradient><linearGradient gradientUnits="userSpaceOnUse" x1="-819.2" x2="819.2" gradientTransform="matrix(.001 0 0 .009 21.85 10.25)" id="s"><stop offset="0" stop-color="#580000"/><stop offset=".537" stop-color="#f00"/><stop offset=".808" stop-color="#7E0000"/><stop offset="1"/></linearGradient><linearGradient gradientUnits="userSpaceOnUse" x1="-819.2" x2="819.2" gradientTransform="matrix(.002 0 0 .009 20.7 18.95)" id="t"><stop offset="0" stop-color="#580000"/><stop offset=".537" stop-color="#f00"/><stop offset=".808" stop-color="#7E0000"/><stop offset="1"/></linearGradient><linearGradient gradientUnits="userSpaceOnUse" x1="-819.2" x2="819.2" gradientTransform="matrix(.003 0 0 .009 14.65 10.95)" id="u"><stop offset="0" stop-color="#580000"/><stop offset=".537" stop-color="#f00"/><stop offset=".808" stop-color="#7E0000"/><stop offset="1"/></linearGradient><linearGradient gradientUnits="userSpaceOnUse" x1="-819.2" x2="819.2" gradientTransform="matrix(.001 0 0 .009 24.8 17)" id="v"><stop offset="0" stop-color="#580000"/><stop offset=".537" stop-color="#f00"/><stop offset=".808" stop-color="#7E0000"/><stop offset="1"/></linearGradient><linearGradient gradientUnits="userSpaceOnUse" x1="-819.2" x2="819.2" gradientTransform="matrix(.006 0 0 .008 13.05 17.55)" id="w"><stop offset="0" stop-color="#580000"/><stop offset=".537" stop-color="#f00"/><stop offset=".808" stop-color="#7E0000"/><stop offset="1"/></linearGradient><linearGradient gradientUnits="userSpaceOnUse" x1="-819.2" x2="819.2" gradientTransform="matrix(.005 0 0 .006 15.95 25.9)" id="x"><stop offset="0" stop-color="#580000"/><stop offset=".537" stop-color="#f00"/><stop offset=".808" stop-color="#7E0000"/><stop offset="1"/></linearGradient><linearGradient gradientUnits="userSpaceOnUse" x1="-819.2" x2="819.2" gradientTransform="matrix(.003 0 0 .01 20.55 26.5)" id="y"><stop offset="0" stop-color="#580000"/><stop offset=".537" stop-color="#f00"/><stop offset=".808" stop-color="#7E0000"/><stop offset="1"/></linearGradient><linearGradient gradientUnits="userSpaceOnUse" x1="-819.2" x2="819.2" gradientTransform="matrix(.001 0 0 .01 24.1 29.9)" id="z"><stop offset="0" stop-color="#580000"/><stop offset=".537" stop-color="#f00"/><stop offset=".808" stop-color="#7E0000"/><stop offset="1"/></linearGradient><linearGradient gradientUnits="userSpaceOnUse" x1="-819.2" x2="819.2" gradientTransform="matrix(.005 0 0 .002 16.8 31.9)" id="A"><stop offset="0" stop-color="#580000"/><stop offset=".537" stop-color="#f00"/><stop offset=".808" stop-color="#7E0000"/><stop offset="1"/></linearGradient><radialGradient gradientUnits="userSpaceOnUse" r="819.2" cx="0" cy="0" spreadMethod="pad" gradientTransform="matrix(.008 0 0 .008 17.05 40.55)" id="B"><stop offset=".098" stop-color="#660"/><stop offset=".682"/></radialGradient></defs><path fill="#fff" d="M39.2 36.7l1.2 1.25.4.6.5 1.15.35 1.35-.1 1.45-.55 1-1.25 1.45-.65.45.55-3.05-.05-.8-.15-.6-.3-.7-1.5-2.3-.3-.15-.65-.5-.45-.15.2-.15 1.45-.9.75-.45.55 1.05M11 39.45l-.45.55-.65 1q-.35.5-.25 1.2l.25 3.15-1.05-2.15-.25-1.3v-1.05l.15-1.05.4-1.2v-.05l.4-1.4 3.55 1.2-.3.2q-.85.25-1.6.75l-.2.15m13.55 1l1.05-.5q.2.6-1.05.5"/><path fill="#090" d="M24.7 42.75l.5 1.65-.35 1.25v2.55q-1.75-.6-1.5-2.2-1 .95-2.45.75-1.8-.25-2.5.9.2-1.3 1.6-1.65 1.35-.35 2.5-1.15.55-.4.6-1.05v-1.05l-.5-1.7.15.05 1 .1.8-.05-.05.45q-.1.6.15 1.05l.05.1"/><path fill="#cf0" d="M22 38.65l-.3.15-.65.1-2.55-.15-6.8-1.95q1.25-.1 1.95-1.3.65-1.25 1.4-1.9.7-.65 3.1 1.35l2.95 2.65.9 1.05m12.7-5.2q2.35 2.1 1.9 2.6-.5.55.2.6l-7.1 2.2-4.65-.2 2.4-.6q1.2-.25 3.05-3.45 1.85-3.25 4.2-1.15"/><path fill="url(#a)" d="M34.7 33.45q-2.35-2.1-4.2 1.15-1.85 3.2-3.05 3.45l-2.4.6 4.65.2 7.1-2.2q-.7-.05-.2-.6.45-.5-1.9-2.6m4.35-23q1.1-.7 2.25-1.25l1.8-.4-1.4.95-1.5 1.4q-.9.8-1.45 1.9l.8-.35-.1 1.05v.1l-3.85 3q-1 .6-1.55 1.55l1-.15.2-.1q1.2-.35 2.25-1.1l2.6-2.55 3.4-.7.05.05.1-.1q1.3-.3 2.2-1.25l-1.4 1.15-.7.45-1.9 1.6q-.7.65-.95 1.5l-4.3 2.5q-.85.5-.9 1.4l1.6-.7 4.25-2.9q2.3.55 4.15-.35l-.95 1.35q-.7 1.2-.9 2.55l1.85-1.7-3.8 7q2-1.05 3.5-2.65l.55-.7 1.8-3.1q.05 1.75-1.1 3.1l-.2.25-.75.75-5.3 6.2 2.35-.75-1.2.75-.7.55q-1.1 1.15-.95 3.05v.15q1.2.85-.7 2.75l-.55-1.05-.75.45-1.45.9-.2.15-.3.25-2.05 1.35-9 2.35-.35.05-.8.05-1-.1-.15-.05-2.85-.5-2.35-.85q-1.05-.6-2.15-.85l-2.15-.5-3.55-1.2-.4 1.4v.05Q7.2 37.05 8.1 36.15q-.75-1.7-2.3-2.6l2.1.1L2.6 29l-.2-.2-.3-1.55 1.05 1.1q1.65 1.5 4.05 2.1-.95-3.85-4.85-5.2l-.55-.6L.2 20.5q1.1 1.8 3 2.5l1.3.35-2.85-3.75Q3.5 20.75 6 21.2q-.75-.85-1.2-2.65l6.6 5.15 1.15.4-.2-.8-.15-.3-.3-.35-2.05-1.8L4.4 17.5q-.6-2-2.05-3.5L.9 12.3l.1-.2 3.4 2.55q.8.55 2.6 1l.15.2q.85 1.1 2.1 1.95l2.3 1.35.35.15h1.05q-.1-.9-.75-1.55l-1.5-1.4-4.35-3-1.25-2.8-1.25-2.3 2.1 1.9.8.95.05-.75.15-1.55.15-3 1.4 1.4 1.1 1.4q.7 1.2 2.65 2.5L8.1 5.25q.5-1.75.4-3.75l2.05 3.6q1 1.55 2.4 2.7l.2 1.9q0 .85.55 2.05l.95 2.35q.35 1 1.15 1.75 1 .9.95 2.25l.3-.75-.05-.5-.2-.85-.05-.35-.9-2.55-.65-1.2-1.55-4v-.05q.6-1.95.8-4.2l.1-1.7.3 1.6.6 1.5.85 1.1 1.1 7.25.5-1.25q.35-1.3.2-2.75l-.3-2.25.1-.6L18 .7l.8 3.05.05.05q.45 1.45 1.35 2.65l.8 1.1.7 8.2.55 1.95.4-1.45.1-.8-.35-5.1-.35-1.85v-.15l1.2-2.6.9-3.3-.4 3.5q-.15 1.85.75 3.3l2.3-2.75q.65-1 .9-2.05V6.5l-.05.25.15.95-.05.05-.5 1.7q-.45 1.9-.6 3.85l.65-.4 1.05-1.1q1.05-.85 1.1-2.3l.1-2.1 1.1-1.6q1.4-1.7 2.3-3.85l-.05 3.9q1.35-.75 2.35-2.15.65-1 1.6-1.5l-.2.7-.6 1.4-.1.6h-.05q-1.85 1.5-2.35 3.75-.4 1.9-.5 3.85l.65-.65q1.6-1.75 2.5-4.25l.7-1.8L42.65.45l-1 2.2q-1.15 1.8-1.8 3.9l-.65 1.8v.3l-.7.5-1.15 1.05-2.55 3.3-2.25 3.9-.2.3.3-.25.65-.55 1.35-1.5.85-.7 1.1-1.3.8-1.1 1.65-1.85M8.35 35.9l-.25.25.25-.25m30.6-14.05l.15.7.7-.25-.6 1.65L41 23l2.85-1.95L41 23l-1.8.95.6-1.65-.7.25-.15-.7 3.15-1.95-5.55 2.15-2.2 1.35-1.15.9-.8.9-.5 1.1.25.3q.25-.25.65-.4l1.45-.9 2.9-2.3.2-.1 1.25-.75.35-.3M31.8 8.25l-1.65 9.95-.15 4.55.75-1.15 1.35-3.95.1-1-.1-1.85-.25-2.45-.05-2.45V8.25m-3 7.55l.05.45-.05-.45m.05.45l-.35 1.9q-.35.9-.4 1.9l-.05.25-.4 3.8-.35 1.65-.45 2.2-.55 2.25-1.05 1.95.45-.1.25-.15.15-.25.2-.45q.15-.6.6-1l.35-.6.65-1.85q.7-2.1.9-4.4l.2-1.25-.15-5.85m-1.95-.2q-.4 1.1-.5 2.25l-.25 5.65.25-.85V23l.65-1.65.55-2.85.25-4.45-.95 2m-2.55-1.9L23.9 18v2.5l.55 2.5.05.15.4.9.25-.5.1-.55.15-.4.2-1.5.2-11.15-1.45 4.2m-6.1 4.35l1.8 9.7.55 2 .95 2.2.2.3.95 1.8.2-.55-.05-1.05-.5-3.3-1.5-4.95-.55-1.3v-.05l-.5-.95-1.55-3.85-.2-1.95.2 1.95m2.4 4.65l.45.85.9 2.15.2-.55.1-.65.05-1.95-.25-2.05-1.55-4.8-.65-1.5q-.7-1.4-.85-2.8l.05 6.25q0 1 .4 1.95l1.15 3.1m2.7-2.85v1.65-1.65M30.8 23l-.1.2-.55.8-.8 1.6-1.15 3.2.65-.25 1-1.05.45-.5 1.65-2.05.8-1.95.45-.85 2.25-3.35-1.95 1.35L30.8 23M8 10.95q1.35 1.55 3.2 2.8l.5.45.7 1.05 2.7 5.25.45.55 1.05 1.65 1.5 1.45-.65-2.4-1.3-3.35-1-1.5-1.4-1.55-2.5-2.2-1.85-1.2q-.8-.4-1.4-1M5.5 23l3.2 2.55 6.05 3.7 1.7.65-.25-.5-2.55-2.15-3.7-2.3q-1-.7-2.1-1.1L5.6 23l-.2-.05.1.05m7.55 0l3.6 5.4 1.5 1.3.5.25.4.35.7.45-.9-2.15-1.25-1.85-4.65-5-.8-.65L13 23h.05m-.4 7.45q1.4.45 2.95 1.4l2.3 1.05 1.05.15 1 .2.45.15q.4.1.55-.25l-3.45-1.6q-1.15-.6-2.4-.75l-2.45-.35m9.35 8.2l-.9-1.05-2.95-2.65q-2.4-2-3.1-1.35-.75.65-1.4 1.9-.7 1.2-1.95 1.3l6.8 1.95 2.55.15.65-.1.3-.15.05.05-.05-.05m.7.2l-.65-.15.65.15M8.75 36.9l.8.25-.8-.25m30.7-1.95l-.8.7.8-.7m-7-7.9l-1.1.75-4.9 4.6q-.5.5-.7 1.2l.4-.15.4-.3.5-.55 2.25-1.8 2.6-2.9.55-.85m-9.1-5.1l.15 16 .9-2.2.35-1.3.05-6.25-1.45-6.25m-.45 16.4l.15-.4-.4-.7Q21.9 36.2 21 35.5q.9.7 1.65 1.75l.4.7-.15.4m5.15-3.55l-1.95 1.6q-1.25.7-1.55 1.85.3-1.15 1.55-1.85l1.95-1.6m-4.25 5.85q-1.15-.05-1.6-.55.45.5 1.6.55m.75-.2q1.25.1 1.05-.5l-1.05.5"/><path fill="url(#b)" d="M39.2 8.65l1.15-.9q1-.8 2.35-1l.55-.15-4.2 3.85-1.65 1.85-.8 1.1-1.1 1.3-.85.7-1.35 1.5-.65.55-.1-.05 2.25-3.9 2.55-3.3 1.15-1.05.7-.5"/><path fill="url(#c)" d="M36.9 5.8l-.7 1.8q-.9 2.5-2.5 4.25l-.65.65q.1-1.95.5-3.85.5-2.25 2.35-3.75h.05l2.3-2.25L36.9 5.8"/><path fill="url(#d)" d="M39.45 13.85l.1-.1q.9-.75 2.05-1.15l.5-.2-2 2.1-2.6 2.55q-1.05.75-2.25 1.1l-.2.1-1 .15q.55-.95 1.55-1.55l3.85-3"/><path fill="url(#e)" d="M29.55 7.4l-.1 2.1q-.05 1.45-1.1 2.3l-1.05 1.1-.65.4q.15-1.95.6-3.85l.5-1.7.05-.05 1.85-3.55-.1 3.25"/><path fill="url(#f)" d="M26.9 16.05l.95-2-.25 4.45-.55 2.85L26.4 23v.1l-.25.85.25-5.65q.1-1.15.5-2.25"/><path fill="url(#g)" d="M31.8 8.25V9.9l.05 2.45.25 2.45.1 1.85-.1 1-1.35 3.95-.75 1.15.15-4.55 1.65-9.95"/><path fill="url(#h)" d="M30.8 23l2.7-2.85 1.95-1.35-2.25 3.35-.45.85-.8 1.95L30.3 27l-.45.5-1 1.05-.65.25 1.15-3.2.8-1.6.55-.8.1-.2"/><path fill="url(#i)" d="M28.85 16.25L29 22.1l-.2 1.25q-.2 2.3-.9 4.4l-.65 1.85-.35.6q-.45.4-.6 1l-.2.45-.15.25-.25.15-.45.1 1.05-1.95.55-2.25.45-2.2.35-1.65.4-3.8.05-.25q.05-1 .4-1.9l.35-1.9"/><path fill="url(#j)" d="M40.9 17.2l.35-.2q1-.7 2.2-1.1l.1.05-1.7 1.35-.3.2-4.25 2.9-1.6.7q.05-.9.9-1.4l4.3-2.5"/><path fill="url(#k)" d="M38.95 21.85l-.35.3-1.25.75-.2.1-2.9 2.3-1.45.9q-.4.15-.65.4l-.25-.3.5-1.1.8-.9 1.15-.9 2.2-1.35 5.55-2.15-3.15 1.95"/><path fill="url(#l)" d="M37.65 37.95l-2.9 1.7q-1.25.75-2.4 1.45l-2.65 1.1-5 .55-.05-.1q-.25-.45-.15-1.05l.05-.45.35-.05 9-2.35 2.05-1.35.3-.25.45.15.65.5.3.15"/><path fill="url(#m)" d="M32.45 27.05l-.55.85-2.6 2.9-2.25 1.8-.5.55-.4.3-.4.15q.2-.7.7-1.2l4.9-4.6 1.1-.75"/><path fill="url(#n)" d="M17.8 7.15l.3 2.25q.15 1.45-.2 2.75l-.5 1.25-1.1-7.25L16.1.8l.1-.05.85 3.15.65 2.65.1.6"/><path fill="url(#o)" d="M6.35 13.35l4.35 3 1.5 1.4q.65.65.75 1.55H11.9l-.35-.15-2.3-1.35q-1.25-.85-2.1-1.95l-.15-.2-.4-.5-4.55-4.7 3.65 2.4.65.5"/><path fill="url(#p)" d="M8.1 5.25l4.15 5.85Q10.3 9.8 9.6 8.6L8.5 7.2 7.1 5.8 3.9 2.2q1.05.15 1.95.9 1.25.95 2.25 2.15"/><path fill="url(#q)" d="M4.4 17.5l5.45 3.35 2.05 1.8.3.35.15.3.2.8-1.15-.4-6.6-5.15-.1-.1-1.45-.85-2.15-1.7 1.75.85 1.55.75"/><path fill="url(#r)" d="M5.5 23l-.1-.05.2.05 2.25.85q1.1.4 2.1 1.1l3.7 2.3 2.55 2.15.25.5-1.7-.65-6.05-3.7L5.5 23"/><path fill="url(#s)" d="M22.05 8.35v.15l.35 1.85.35 5.1-.1.8-.4 1.45-.55-1.95-.7-8.2.2-4.75.8 4.65.05.9"/><path fill="url(#t)" d="M20.65 23.15l-1.15-3.1q-.4-.95-.4-1.95l-.05-6.25q.15 1.4.85 2.8l.65 1.5 1.55 4.8.25 2.05-.05 1.95-.1.65-.2.55-.9-2.15-.45-.85"/><path fill="url(#u)" d="M13.65 7.85v.05l1.55 4 .65 1.2.9 2.55.05.35.2.85.05.5-.3.75q.05-1.35-.95-2.25-.8-.75-1.15-1.75l-.95-2.35q-.55-1.2-.55-2.05l-.2-1.9-.7-4 1.4 4.05"/><path fill="url(#v)" d="M24.35 14.15l1.45-4.2-.2 11.15-.2 1.5-.15.4-.1.55-.25.5-.4-.9-.05-.15-.55-2.5V18l.45-3.85"/><path fill="url(#w)" d="M8 10.95q.6.6 1.4 1l1.85 1.2 2.5 2.2 1.4 1.55 1 1.5 1.3 3.35.65 2.4-1.5-1.45-1.05-1.65-.45-.55-2.7-5.25-.7-1.05-.5-.45Q9.35 12.5 8 10.95"/><path fill="url(#x)" d="M13.05 23H13l-.85-1.9.8.65 4.65 5 1.25 1.85.9 2.15-.7-.45-.4-.35-.5-.25-1.5-1.3-3.6-5.4"/><path fill="url(#y)" d="M18.25 18.5l1.55 3.85.5.95v.05l.55 1.3 1.5 4.95.5 3.3.05 1.05-.2.55-.95-1.8-.2-.3-.95-2.2-.55-2-1.8-9.7"/><path fill="url(#z)" d="M23.35 21.95l1.45 6.25-.05 6.25-.35 1.3-.9 2.2-.15-16"/><path fill="url(#A)" d="M12.65 30.45l2.45.35q1.25.15 2.4.75l3.45 1.6q-.15.35-.55.25l-.45-.15-1-.2-1.05-.15-2.3-1.05q-1.55-.95-2.95-1.4"/><path fill="url(#B)" d="M23.1 42.75l-3.5-.4-5.8-1.75q-1.45-.3-2.8-1.15l.2-.15q.75-.5 1.6-.75l.3-.2 2.15.5q1.1.25 2.15.85l2.35.85 2.85.5.5 1.7"/><path fill="none" stroke="#000" stroke-width=".05" stroke-linecap="round" stroke-linejoin="round" d="M28.85 16.25l-.05-.45m-10.55 2.7l-.2-1.95m5.3 5.4V20.3M22 38.65l.05.05"/><path fill="none" stroke="#665700" stroke-width=".05" stroke-linecap="round" stroke-linejoin="round" d="M39.05 10.45q1.1-.7 2.25-1.25l1.8-.4-1.4.95-1.5 1.4q-.9.8-1.45 1.9l.8-.35-.1 1.05v.1m.65.65l3.4-.7.15-.05q1.3-.3 2.2-1.25l-1.4 1.15-.7.45-1.9 1.6q-.7.65-.95 1.5m2.55-1.3l.5-.25.85-.4m-12.15 2.2l-.3.25.2-.3m6.65-8.75v-.3l.65-1.8q.65-2.1 1.8-3.9l1-2.2L36.9 5.8m-.95-.9l.1-.6.6-1.4.2-.7q-.95.5-1.6 1.5-1 1.4-2.35 2.15l.05-3.9q-.9 2.15-2.3 3.85l-1.1 1.6m-1.75.3l-.15-.95.05-.25V4.45q-.25 1.05-.9 2.05l-2.3 2.75q-.9-1.45-.75-3.3l.4-3.5-.9 3.3-1.2 2.6M21 7.55l-.8-1.1q-.9-1.2-1.35-2.65l-.05-.05L18 .7l-.1 5.85-.1.6m-1.5-1l-.85-1.1-.6-1.5-.3-1.6-.1 1.7q-.2 2.25-.8 4.2m-.7-.05q-1.4-1.15-2.4-2.7L8.5 1.5q.1 2-.4 3.75m-1 .55l-.15 3-.15 1.55-.05.75-.8-.95-2.1-1.9 1.25 2.3 1.25 2.8m.65 2.3q-1.8-.45-2.6-1L1 12.1m-.1.2L2.35 14q1.45 1.5 2.05 3.5m.4 1.05q.45 1.8 1.2 2.65-2.5-.45-4.35-1.6l2.85 3.75L3.2 23q-1.9-.7-3-2.5l1.6 4.15.55.6q3.9 1.35 4.85 5.2-2.4-.6-4.05-2.1l-1.05-1.1.3 1.55.2.2 5.3 4.65-2.1-.1q1.55.9 2.3 2.6l.25-.25m33.2-18.4q2.3.55 4.15-.35l-.95 1.35q-.7 1.2-.9 2.55l1.85-1.7-3.8 7q2-1.05 3.5-2.65l.55-.7 1.8-3.1q.05 1.75-1.1 3.1l-.2.25-.75.75-5.3 6.2 2.35-.75-1.2.75-.7.55q-1.1 1.15-.95 3.05v.15q1.2.85-.7 2.75M9.15 38.6Q7.2 37.05 8.1 36.15m35.45-20.2l.4-.3m-.1 5.4L41 23l-1.8.95.6-1.65-.7.25-.15-.7m-8.7-20.4q-.6 1.1-.6 2.45v.25l.6-2.7.4-.65M16.2.75L16.1 0v.8M.9 12.3L0 11.2l1 .9m2.85-3.85q-.85-.35-1-1.6l1 1.6m5.7 28.9l-.8-.25m4.35 1.45l2.15.5q1.1.25 2.15.85l2.35.85 2.85.5m1.95.1l.35-.05 9-2.35 2.05-1.35.3-.25m2.4-1.5l.8-.7"/><path fill="none" stroke="#8C0000" stroke-width=".05" stroke-linecap="round" stroke-linejoin="round" d="M39.45 13.85l.1-.1q.9-.75 2.05-1.15l.5-.2-2 2.1m.8 2.7l.35-.2q1-.7 2.2-1.1M39.2 8.65l1.15-.9q1-.8 2.35-1l.55-.15-4.2 3.85-1.65 1.85-.8 1.1-1.1 1.3-.85.7-1.35 1.5-.65.55m-.1-.05l2.25-3.9 2.55-3.3 1.15-1.05.7-.5M36.9 5.8l-.7 1.8q-.9 2.5-2.5 4.25l-.65.65q.1-1.95.5-3.85.5-2.25 2.35-3.75h.05l2.3-2.25L36.9 5.8m-7.35 1.6l-.1 2.1q-.05 1.45-1.1 2.3l-1.05 1.1-.65.4q.15-1.95.6-3.85l.5-1.7.05-.05m-5.75.65v.15l.35 1.85.35 5.1-.1.8-.4 1.45-.55-1.95-.7-8.2.2-4.75.8 4.65.05.9m-4.25-1.2l.3 2.25q.15 1.45-.2 2.75l-.5 1.25-1.1-7.25m-2.65 1.7v.05l1.55 4 .65 1.2.9 2.55.05.35.2.85.05.5-.3.75q.05-1.35-.95-2.25-.8-.75-1.15-1.75l-.95-2.35q-.55-1.2-.55-2.05l-.2-1.9-.7-4 1.4 4.05M8.1 5.25l4.15 5.85Q10.3 9.8 9.6 8.6L8.5 7.2 7.1 5.8 3.9 2.2q1.05.15 1.95.9 1.25.95 2.25 2.15m-1.75 8.1l4.35 3 1.5 1.4q.65.65.75 1.55H11.9l-.35-.15-2.3-1.35q-1.25-.85-2.1-1.95l-.15-.2-.4-.5-4.55-4.7 3.65 2.4.65.5M4.4 17.5l5.45 3.35 2.05 1.8.3.35.15.3.2.8-1.15-.4-6.6-5.15-.1-.1-1.45-.85-2.15-1.7 1.75.85 1.55.75m39.15-1.55l-1.7 1.35-.3.2m-2.6 4.35l-.35.3-1.25.75-.2.1-2.9 2.3-1.45.9q-.4.15-.65.4l-.25-.3.5-1.1.8-.9 1.15-.9 2.2-1.35 5.55-2.15-3.15 1.95M31.8 8.25l-1.65 9.95-.15 4.55.75-1.15 1.35-3.95.1-1-.1-1.85-.25-2.45-.05-2.45V8.25m-2.25-.85l.1-3.25L27.8 7.7m1.05 8.55L29 22.1l-.2 1.25q-.2 2.3-.9 4.4l-.65 1.85-.35.6q-.45.4-.6 1l-.2.45-.15.25-.25.15-.45.1 1.05-1.95.55-2.25.45-2.2.35-1.65.4-3.8.05-.25q.05-1 .4-1.9l.35-1.9m-1.95-.2l.95-2-.25 4.45-.55 2.85L26.4 23v.1l-.25.85.25-5.65q.1-1.15.5-2.25m-2.55-1.9l1.45-4.2-.2 11.15-.2 1.5-.15.4-.1.55-.25.5-.4-.9-.05-.15-.55-2.5V18l.45-3.85m-6.1 4.35l1.55 3.85.5.95v.05l.55 1.3 1.5 4.95.5 3.3.05 1.05-.2.55-.95-1.8-.2-.3-.95-2.2-.55-2-1.8-9.7m2.4 4.65l-1.15-3.1q-.4-.95-.4-1.95l-.05-6.25q.15 1.4.85 2.8l.65 1.5 1.55 4.8.25 2.05-.05 1.95-.1.65-.2.55-.9-2.15-.45-.85m18.8-9.3l-3.85 3q-1 .6-1.55 1.55l1-.15.2-.1q1.2-.35 2.25-1.1l2.6-2.55M30.8 23l2.7-2.85 1.95-1.35-2.25 3.35-.45.85-.8 1.95L30.3 27l-.45.5-1 1.05-.65.25 1.15-3.2.8-1.6.55-.8.1-.2m10.1-5.8l-4.3 2.5q-.85.5-.9 1.4l1.6-.7 4.25-2.9M16.1.8l.2 5.35m-.1-5.4l.85 3.15.65 2.65.1.6M8 10.95q1.35 1.55 3.2 2.8l.5.45.7 1.05 2.7 5.25.45.55 1.05 1.65 1.5 1.45-.65-2.4-1.3-3.35-1-1.5-1.4-1.55-2.5-2.2-1.85-1.2q-.8-.4-1.4-1M5.5 23l3.2 2.55 6.05 3.7 1.7.65-.25-.5-2.55-2.15-3.7-2.3q-1-.7-2.1-1.1L5.6 23l-.2-.05.1.05m7.55 0l3.6 5.4 1.5 1.3.5.25.4.35.7.45-.9-2.15-1.25-1.85-4.65-5-.8-.65L13 23h.05m-.4 7.45q1.4.45 2.95 1.4l2.3 1.05 1.05.15 1 .2.45.15q.4.1.55-.25l-3.45-1.6q-1.15-.6-2.4-.75l-2.45-.35m19.8-3.4l-.55.85-2.6 2.9-2.25 1.8-.5.55-.4.3-.4.15q.2-.7.7-1.2l4.9-4.6 1.1-.75m-9.1-5.1l1.45 6.25-.05 6.25-.35 1.3-.9 2.2-.15-16"/><path fill="none" stroke="#586F00" stroke-width=".05" stroke-linecap="round" stroke-linejoin="round" d="M22 38.65l-.3.15-.65.1-2.55-.15-6.8-1.95q1.25-.1 1.95-1.3.65-1.25 1.4-1.9.7-.65 3.1 1.35l2.95 2.65.9 1.05m12.7-5.2q2.35 2.1 1.9 2.6-.5.55.2.6l-7.1 2.2-4.65-.2 2.4-.6q1.2-.25 3.05-3.45 1.85-3.25 4.2-1.15"/><path fill="none" stroke="#666" stroke-width=".05" stroke-linecap="round" stroke-linejoin="round" d="M39.2 36.7l1.2 1.25.4.6.5 1.15.35 1.35-.1 1.45-.55 1-1.25 1.45-.65.45.55-3.05-.05-.8-.15-.6-.3-.7-1.5-2.3-.3-.15-.65-.5-.45-.15.2-.15 1.45-.9.75-.45M11 39.45l-.45.55-.65 1q-.35.5-.25 1.2l.25 3.15-1.05-2.15-.25-1.3v-1.05l.15-1.05.4-1.2v-.05l.4-1.4 3.55 1.2-.3.2q-.85.25-1.6.75l-.2.15m28.2-2.75l-.55-1.05"/><path fill="none" stroke="#006C00" stroke-width=".05" stroke-linecap="round" stroke-linejoin="round" d="M24.7 42.75l.5 1.65-.35 1.25v2.55q-1.75-.6-1.5-2.2-1 .95-2.45.75-1.8-.25-2.5.9.2-1.3 1.6-1.65 1.35-.35 2.5-1.15.55-.4.6-1.05v-1.05m-.5-1.7l.15.05 1 .1.8-.05-.05.45q-.1.6.15 1.05l.05.1m-2.1-1.7l.5 1.7"/><path fill="none" stroke="#1B1B00" stroke-width=".05" stroke-linecap="round" stroke-linejoin="round" d="M23.1 42.75l-3.5-.4-5.8-1.75q-1.45-.3-2.8-1.15m26.65-1.5l-2.9 1.7q-1.25.75-2.4 1.45l-2.65 1.1-5 .55"/><path fill="none" stroke="#715C00" stroke-width=".05" stroke-linecap="round" stroke-linejoin="round" d="M22.05 38.7l.65.15m1.85-.6q.3-1.15 1.55-1.85l1.95-1.6m-7.05.7q.9.7 1.65 1.75l.4.7-.15.4m-.7 1.75q.45.5 1.6.55m.75-.2l1.05-.5q.2.6-1.05.5"/></svg>