<svg xmlns="http://www.w3.org/2000/svg" viewBox="-0.1 0 43.5 48.1" width="43.5" height="48.1"><defs><radialGradient gradientUnits="userSpaceOnUse" r="819.2" cx="0" cy="0" spreadMethod="pad" gradientTransform="matrix(-.011 0 0 .012 33.7 16.65)" id="a"><stop offset="0" stop-color="#fff"/><stop offset="1"/></radialGradient><radialGradient gradientUnits="userSpaceOnUse" r="819.2" cx="0" cy="0" spreadMethod="pad" gradientTransform="matrix(-.005 0 0 .005 40.4 40.45)" id="b"><stop offset="0" stop-color="#fff"/><stop offset="1"/></radialGradient><radialGradient gradientUnits="userSpaceOnUse" r="819.2" cx="0" cy="0" spreadMethod="pad" gradientTransform="matrix(-.034 0 0 .037 22.05 23.55)" id="c"><stop offset="0" stop-color="#fff"/><stop offset="1"/></radialGradient><radialGradient gradientUnits="userSpaceOnUse" r="819.2" cx="0" cy="0" spreadMethod="pad" gradientTransform="matrix(-.006 0 0 .007 37.1 44.15)" id="d"><stop offset="0" stop-color="#fff"/><stop offset="1"/></radialGradient><radialGradient gradientUnits="userSpaceOnUse" r="819.2" cx="0" cy="0" spreadMethod="pad" gradientTransform="matrix(-.005 0 0 .007 29.65 5.55)" id="e"><stop offset="0" stop-color="#fff"/><stop offset="1"/></radialGradient><radialGradient gradientUnits="userSpaceOnUse" r="819.2" cx="0" cy="0" spreadMethod="pad" gradientTransform="matrix(-.004 0 0 .004 31.5 11.4)" id="f"><stop offset="0" stop-color="#fff"/><stop offset="1"/></radialGradient><radialGradient gradientUnits="userSpaceOnUse" r="819.2" cx="0" cy="0" spreadMethod="pad" gradientTransform="matrix(-.004 0 0 .007 22.7 8.05)" id="g"><stop offset="0" stop-color="#fff"/><stop offset=".192" stop-color="#f00"/><stop offset=".51"/></radialGradient><radialGradient gradientUnits="userSpaceOnUse" r="819.2" cx="0" cy="0" spreadMethod="pad" gradientTransform="matrix(-.004 0 0 .005 22.9 8.9)" id="h"><stop offset="0" stop-color="#fff"/><stop offset="1"/></radialGradient><radialGradient gradientUnits="userSpaceOnUse" r="819.2" cx="0" cy="0" spreadMethod="pad" gradientTransform="matrix(-.004 0 0 .004 19.15 21.35)" id="i"><stop offset="0" stop-color="#fff"/><stop offset="1"/></radialGradient><radialGradient gradientUnits="userSpaceOnUse" r="819.2" cx="0" cy="0" spreadMethod="pad" gradientTransform="matrix(-.003 0 0 .003 25.2 21.55)" id="j"><stop offset="0" stop-color="#fff"/><stop offset="1"/></radialGradient><radialGradient gradientUnits="userSpaceOnUse" r="819.2" cx="0" cy="0" spreadMethod="pad" gradientTransform="matrix(-.011 0 0 .007 13.6 2.2)" id="k"><stop offset="0" stop-color="#fff"/><stop offset="1"/></radialGradient><radialGradient gradientUnits="userSpaceOnUse" r="819.2" cx="0" cy="0" spreadMethod="pad" gradientTransform="matrix(-.01 0 0 .011 11.55 14.5)" id="l"><stop offset="0" stop-color="#fff"/><stop offset="1"/></radialGradient><radialGradient gradientUnits="userSpaceOnUse" r="819.2" cx="0" cy="0" spreadMethod="pad" gradientTransform="matrix(-.004 0 0 .004 6.3 1.95)" id="m"><stop offset="0" stop-color="#fff"/><stop offset="1"/></radialGradient><radialGradient gradientUnits="userSpaceOnUse" r="819.2" cx="0" cy="0" spreadMethod="pad" gradientTransform="matrix(-.002 0 0 .002 9.8 13.8)" id="n"><stop offset="0" stop-color="#fff"/><stop offset="1"/></radialGradient><radialGradient gradientUnits="userSpaceOnUse" r="819.2" cx="0" cy="0" spreadMethod="pad" gradientTransform="matrix(-.003 0 0 .003 18.1 33.65)" id="o"><stop offset="0" stop-color="#fff"/><stop offset="1"/></radialGradient><radialGradient gradientUnits="userSpaceOnUse" r="819.2" cx="0" cy="0" spreadMethod="pad" gradientTransform="matrix(-.01 0 0 .011 7.9 42.35)" id="p"><stop offset="0" stop-color="#fff"/><stop offset="1"/></radialGradient><radialGradient gradientUnits="userSpaceOnUse" r="819.2" cx="0" cy="0" spreadMethod="pad" gradientTransform="matrix(-.002 0 0 .002 27 32.55)" id="q"><stop offset="0" stop-color="#fff"/><stop offset="1"/></radialGradient></defs><path d="M36.6 18.45l.5-.15.75-.35-.1.85-.05.15v.1l-.05.05-.25 1.4-.35-1.2-.45-.85M40.25 20l1.55-1.75.2-.3.65 6v.8q-.55-2.5-1.85-4.2l-.1-.15-.45-.4m-.35-.35l-.2 1.05-.55 1.85-.15.85-.4-2.3-.3-.85.45-.2 1.15-.65v.25M24.2 8.15l-1.3-.65-1.6.15-.2.1h-.05l-.5.4v-.4l.1-.85.45.1.35-.55.8.45v-.75q.65.45 1.4.5l-.1-.7q1.2 1.1 1.85 2.45l.15-.45.25 1.9-1.6-1.7M21.1 9.8l.25.15 2.45.5 1.3-.05q.05.8-.65 1.6l-.3.4-.1-1.15-.9.7-.3-.3-.25 2.55q-.55-1.2-.95-2.9l-.05-.3v.8l-.6-1.15-.1.35q-.5-.45-.35-1.25l.05-.25.5.3m-17 7.45h1.25l.15.85.05.05v.05l-.1.1-.8 1.1-.55-2.15m6.4-2.95l.35.15.65.3-.85.75-.6.35v-.05l.15-.2.1-.25.2-1.05M6.7 16l.35.3.1.15.3.3.85.15.1.65q.2 1.15.75 2l-.95-.75-.75-.85-.15-.3L6.7 16m-1.1 2.4l.7.25h.85l-.15.4-.55 2.4-.85-3.05"/><path fill="#f00" d="M24.2 9.85l-.15-.2-.7-.45-.1-.15h.05l.15.1.7.55.1.05.05.15h-.05l-.05-.05m-.95-1V8.8l.05.05h-.05m.35-.35v-.05h.25l.2.05.1.05v.05h-.05l-.15-.05-.35-.05m-1.75 1.1l.1-.2.35-.4-.3.45-.15.15m-.5-.35l.05-.05.65-.45v.05l-.65.45v.05l-.05.05v.1l-.05.15h-.05l.05-.2v-.05l.05-.1m0-1.05h.05l.35-.05-.6.45-.05.05v.05h-.05v-.1h.05v-.05h.05V8.5l.15-.2.05-.1m2.05 2.15L23 9.8l-.05-.05-.15-.25-.05-.45.1.35.55.95"/><path fill="url(#a)" d="M37.25 13.2q1.85-.45 2.9 1.2l1.25 1.85.5 1.25.1.45-.2.3L40.25 20l-.35-.35v-.25l-1.15.65-.45.2-.3-.85-.2-.35-.1-.1.05-.15.1-.85-.75.35-.5.15-1.2-1.4-.9-.85h-.05l-3.9 2.15q-.45.35-.9 0L26.3 16.1l-.65-.25-.2-1.15q2.25-.45 3.5 1.6.95 1.5 1.8.7l3.6-2.6 2.3-1.05.6-.15m-.7 1.8q1.4 1.1 1.3 2.95.1-1.85-1.3-2.95m3.35 4.4l.1-.85v-1.2q0-1.25-.4-2.15-.5-1.05-1.55-1.55 1.05.5 1.55 1.55.4.9.4 2.15v1.2l-.1.85"/><path fill="url(#b)" d="M43.15 40.8l.1.2q.5 1-.1 2.45l-1.05.8q0-.6-.4-1.45l.4.4.5-.05-.05-.95q-.5-1.7-2.2-2.5l-3.05-1.05 1.25-.55 2.2.1q.55-.6-.25-1.25l-.3-.25.15.05q2.2.75 2.7 3.1l.1.95-1.35-1.1 1.35 1.1"/><path fill="url(#c)" d="M25.45 14.7l.2 1.15.15 3.5h-.05l-1.7 1.8q-.45.7-.55 1.55v.25q0 .9 1.05.75l2-.2h.3q.95.75 2.2 1.1 2.8.85.7 3.15-.65.65-.7 1.9v.05l-.2 1.7.1.05Q30.7 33 32.5 33.9l7.7 2.8.3.25q.8.65.25 1.25l-2.2-.1-1.25.55 3.05 1.05q1.7.8 2.2 2.5l.05.95-.5.05-.4-.4-.3-.3q-.65-.65-1.55-.7l-.55-.05q.8.7.9 2 .1 1.6-1.3.8l-2.3-1.65q.25.75-.55 1.35-.6.5-1.35.4l-2.65-.6-.15-.45-.1-.2q-1.25-2.05-1.9-3.95-.35-1.05-1.55-1.95L27 36.15q-.5-.7-.75-1.6l-.1-.2 1.6-1.7q.5-.7 0-1.2l-.6-.65.15-.85v-.1l.1-.8q.15-.95.55-1.4.65-.65.3-1.6-.35-1.05-1.7-1-2.75.15-4.05-1.8l-1.2.9-2.65.9q-.75.15-1.4.6l-.95 1.2-.25.65q-.25.95-.15 2.25v.1l.25 1.6.8.3.1 1.05.25.85.6 1.05 1.05.85-3.1 3.7-.6.1q-.8.2-1.35 1.05l-.15.35-.5.75-2.7 3q-.85.7-1.8 1.05l-2 .15q-.6-.1-.75-.8-.15-1 .2-1.85l1.05-1.7.3-.35-1.65 1.25-.8.8-.55 1.25-.25.25q-.55-.25-.65-.9-.25-1.95 1.25-3.3l-1.45.7-.8.5-.95.9-.15.1q-.25-.95 0-1.95l.85-1.95L3.8 37q-1.15.2-1.85-.4 1.6-1.1 3.55-1.25l4.65-.8.65-.2q1.5-.5 2.8-1.7l.6-.55q.2-2.25-.1-4.4l-.05-1.65.05-.45.55-1.05 1.2-.5.95-.25 1-.1 1.9.2q.75.15 1.25-.3l.15-.25.15-.2.15-.4q.25-.8-.35-1.45l-2.1-2.5.05-2.6v-.25q-.05-.8.35-1.3l.3-.35q1.35-1.1.6-2.35-.55-.6-.55-1.5l.05-.4-.05-1.3q.05-1.45.5-2.95l-1.7-1.3.65-.45.1-.15.1-.5 1.35 1.9h.05l.75-.3 1.05-.1 2.2.4.4.2.7.5.1-.5q.6-2 1.75-3.75l.05-.1.3-.35.05.4-.2.8q-.4 1-.25 2.05.05.65.45 1l-.8.5-.15.05-.45.3q.25 2.15-.1 3.6l-.6 1.35-.55.6q-.25.15-.45.95l-.05.3.5 1.5m-9.2 17.4l-.1-.65.1.65M25.8 9.85l-.25-1.9-.15.45q-.65-1.35-1.85-2.45l.1.7q-.75-.05-1.4-.5v.75l-.8-.45-.35.55-.45-.1-.1.85v.4l-.75.55.5.55.3.25-.05.25q-.15.8.35 1.25l.1-.35.6 1.15V11l.05.3q.4 1.7.95 2.9l.25-2.55.3.3.9-.7.1 1.15.3-.4q.7-.8.65-1.6l.95-.2-.2-.3-.05-.05"/><path fill="url(#d)" d="M32.05 44.05l2.65.6q.75.1 1.35-.4.8-.6.55-1.35l2.3 1.65q1.4.8 1.3-.8-.1-1.3-.9-2l.55.05q.9.05 1.55.7l.3.3q.4.85.4 1.45.15 1.45-1.5 1.6l-2.4-.2q-1.2 1.1-3.1.8l-.55-.1q-.85-.2-1.5-.75l-.75-.95-.25-.6m6.6 1.15l-.45.45.45-.45"/><path fill="url(#e)" d="M31.75 8.15l-.2.65-.45.95-.5.6-1.65-5.4V4.9l-.05.1-.8.55q-.4-.35-.45-1-.15-1.05.25-2.05l.2-.8-.05-.4q1-1.2 1.75.25L30.35 3l1.3 4.8v.15l.1.2"/><path fill="url(#f)" d="M31.75 8.15l.2.95.4 3.75-.2 1.85-1.45-4.15-.1-.2.5-.6.45-.95.2-.65"/><path fill="url(#g)" d="M23.6 8.5l.35.05.15.05h.05v-.05l-.1-.05-.2-.05h-.25v.05m-.35.35h.05l-.05-.05v.05m1 .9l-.1-.05-.7-.55-.15-.1h-.05l.1.15.7.45.15.2-.1.2-.3.4-2.45-.5-.25-.15-.1-.2-.1-.3.05-1.15.15-.4.2-.1 1.6-.15 1.3.65.1.55v.7l-.05.3v.05m-2.9-1.55l-.05.1-.15.2v.05h-.05v.05h-.05v.1h.05v-.05l.05-.05.6-.45-.35.05h-.05m0 1.05l-.05.1v.05l-.05.2h.05l.05-.15v-.1l.05-.05v-.05l.65-.45v-.05l-.65.45-.05.05m.5.35l.15-.15.3-.45-.35.4-.1.2m1.55.75l-.55-.95-.1-.35.05.45.15.25.05.05.4.55"/><path fill="url(#h)" d="M24.2 9.85l.05.05h.05l-.05-.15V9.7l.05-.3v-.7l-.1-.55 1.6 1.7.05.05.2.3-.95.2-1.3.05.3-.4.1-.2m-3.1-2.1l-.15.4-.05 1.15.1.3.1.2-.5-.3-.3-.25-.5-.55.75-.55.5-.4h.05"/><path fill="url(#i)" d="M18.95 18.8l2.1 2.5q.6.65.35 1.45l-.15.4-.15.2-.15.25q-.5.45-1.25.3l-1.9-.2-1 .1v-.05l1.9-1.15.7-.9-.05-.2-.3-.75-.1-1.95m2.15 4.55l-.6-.4-.3-.25-.8-1 .8 1 .3.25.6.4"/><path fill="url(#j)" d="M26.85 23.5h-.3l-2 .2q-1.05.15-1.05-.75v-.25q.1-.85.55-1.55l1.7-1.8h.05v.05l.05.3q.15.9-.2 1.7l-.3.5.5.65 1 .95m-2.35-.85l.85-.75-.85.75"/><path fill="url(#k)" d="M19.35 3.4l-.1.5-.1.15-.65.45-1.4-.85q-1.85-.95-4.4-.95L8.4 3l-.5-.7q-.2-.25 0-.55V1.7L9 .5l.85-.2 3.5-.3q1.5.05 2.8.75l1.55 1 .35.3 1.3 1.35"/><path fill="url(#l)" d="M19.35 14.65q-.4.5-.35 1.3v.25q-1.65-.2-3.05-1.1-1.7-1.2-3.95-1.55l-.5 1.2-.65-.3q.35-1.2-.5-1.55-1-.4-1.5.75l-.2 1v.15l-.25.8-.05.05-.05 1.25-.85-.15-.3-.3-.1-.15-.35-.3.6 1.65.15.3-.25.65-.05.05H6.3l-.7-.25-.05-.2v-.05l-.05-.05-.15-.85H4.1v-.05l-.05-.3q-.6-1.75.3-3l.5-.55.5-.35.35-1q.95-1.7 3-1.7l3.6.5q.9.3 1.2 1.1l.15.55.15.15 1.3.85q1.9 1.5 4.25 1.2M6.6 12.6l-.55.55-.25.35-.5 1q-.3 1.05-.05 2.3l.1.45-.1-.45q-.25-1.25.05-2.3l.5-1 .25-.35.55-.55m5.4-.55v1.5-1.5M7.95 13L6.9 14.05l-.25 1.05.05.9-.05-.9.25-1.05L7.95 13"/><path fill="url(#m)" d="M8.4 3l-4.7.4 1.75-1.3Q7.05 1.15 8.8.55L9 .5 7.9 1.7v.05q-.2.3 0 .55l.5.7"/><path fill="url(#n)" d="M8.65 14.8v-.15l.2-1q.5-1.15 1.5-.75.85.35.5 1.55l-.35-.15-.15-1.05q-1.15.5-1.65 1.45l-.05.1"/><path fill="url(#o)" d="M18.95 35.55l-1.05-.85-.6-1.05-.25-.85-.1-1.05q.65.3 1.1.65l.65.9q.6.65.55 1.3l-.3.95m0-1.3l-.25-.95.25.95"/><path fill="url(#p)" d="M1.95 36.6q.7.6 1.85.4l-1.4 1.65-.85 1.95q-.25 1 0 1.95l.15-.1.95-.9.8-.5 1.45-.7q-1.5 1.35-1.25 3.3.1.65.65.9l.25-.25.55-1.25.8-.8L7.55 41l-.3.35-1.05 1.7q-.35.85-.2 1.85.15.7.75.8l2-.15q.95-.35 1.8-1.05l2.7-3 .5-.75.15-.35q.55-.85 1.35-1.05l.6-.1-1.55 2-1.5 1.45-.35.25q-1.05.8-1.2 2.85-.2 2.75-2.95 2.25-1.7-.3-2.4-1.45l-1.05.1Q3.1 46.3 2.9 45q-.1-.8.4-1.95-.5 1.15-.4 1.95-1.9.5-2.7-1.8-.55-1.55.1-2.8l-.05-.95q.05-1.45 1-2.3l.7-.55m-.6 2.55L.3 40.4l1.05-1.25m4.05 6l.5 1.45-.5-1.45"/><path fill="url(#q)" d="M26.15 34.35l-.1-.45q-.25-1.35.85-1.95l.25-1.15.6.65q.5.5 0 1.2l-1.6 1.7m.6-2l.15-.4-.15.4"/><path fill="none" stroke="#9D9D9D" stroke-width=".05" stroke-linecap="round" stroke-miterlimit="3" d="M37.25 13.2l-.6.15-2.3 1.05-3.6 2.6m-5.3-2.3l.2 1.15m4 2.5q.45.35.9 0l3.9-2.15h.05l.9.85 1.2 1.4m1.25-.5q.1-1.85-1.3-2.95m1.15 3.95v.1l-.05.05m-8.7 12.35l-.1-.05.2-1.7v-.05q.05-1.25.7-1.9 2.1-2.3-.7-3.15-1.25-.35-2.2-1.1m-1.05-4.15l-.15-3.5m4.95-5.5l.1.2 1.45 4.15.2-1.85-.4-3.75-.2-.95-.1-.2V7.8L30.35 3l-.55-1.45m.8 8.8l-1.65-5.4V4.9m-.05.1l-.8.55-.8.5-.15.05-.45.3q.25 2.15-.1 3.6l-.6 1.35-.55.6q-.25.15-.45.95l-.05.3.5 1.5m-4.7-9.4h-.05m-2.2-.8l1.7 1.3q-.45 1.5-.5 2.95l.05 1.3-.05.4q0 .9.55 1.5.75 1.25-.6 2.35l-.3.35q-.4.5-.35 1.3v.25l-.05 2.6.1 1.95.3.75.05.2-.7.9-1.9 1.15-1 .25q-.7.15-1.15.55l-.55 1.05-.05.45.05 1.65q.3 2.15.1 4.4l-.6.55m3.35-.9l-.8-.3.1.65M25.8 9.85l.05.05.2.3-.95.2m-4.5-.9l-.3-.25-.5-.55.75-.55.5-.4h.05m-.5 1.75l.5.3m2.7.65l1.3-.05m.7-.55l-1.6-1.7M19.4 21.7l.8 1 .3.25.6.4m-5.2 6.4v.1m9.9-10.5v.05l.05.3q.15.9-.2 1.7l-.3.5.5.65 1 .95m-1.5-1.6l-.85.75m13.2-3.7l.05-.15M18.5 4.5l-1.4-.85q-1.85-.95-4.4-.95L8.4 3l-4.7.4 1.75-1.3Q7.05 1.15 8.8.55L9 .5l.85-.2 3.5-.3q1.5.05 2.8.75l1.55 1 .35.3 1.3 1.35M15.1 13.45l-1.3-.85-.15-.15-.15-.55q-.3-.8-1.2-1.1l-3.6-.5m-4.6 6.9v.05m4.55-2.45l.05-.1q.5-.95 1.65-1.45l.15 1.05m1 .45l.5-1.2v-1.5m-4.7 5.6l.15.3m.85-1.05l.05-1.25.05-.05.25-.8m-3.1 3.4v-.05m1.6.5l.05-.05m11.5 14.7l-.65-.9q-.45-.35-1.1-.65m2 3.8l.3-.95q.05-.65-.55-1.3l.25.95M28.95 4.9l-.05.1"/><path fill="none" stroke="#DBDBDB" stroke-width=".05" stroke-linecap="round" stroke-miterlimit="3" d="M27.3 29.85l.1-.8q.15-.95.55-1.4.65-.65.3-1.6-.35-1.05-1.7-1-2.75.15-4.05-1.8l-1.2.9-2.65.9q-.75.15-1.4.6l-.95 1.2-.25.65q-.25.95-.15 2.25m0 .1l.25 1.6"/><path fill="none" stroke="#900000" stroke-width=".05" stroke-linecap="round" stroke-miterlimit="3" d="M24.25 9.75V9.7l.05-.3v-.7l-.1-.55-1.3-.65-1.6.15-.2.1-.15.4-.05 1.15.1.3.1.2.25.15 2.45.5.3-.4.1-.2"/><path fill="none" stroke="#272727" stroke-width=".05" stroke-linecap="round" stroke-miterlimit="3" d="M30.75 17q-.85.8-1.8-.7-1.25-2.05-3.5-1.6m.2 1.15l.65.25 3.35 2.25M12 13.55q2.25.35 3.95 1.55 1.4.9 3.05 1.1m.35-1.55q-2.35.3-4.25-1.2"/><path fill="none" stroke="#212121" stroke-width=".05" stroke-linecap="round" stroke-miterlimit="3" d="M10.15 34.55l-4.65.8q-1.95.15-3.55 1.25l-.7.55q-.95.85-1 2.3l.05.95 1.05-1.25M.3 40.4q-.65 1.25-.1 2.8.8 2.3 2.7 1.8"/><path fill="none" stroke="#656565" stroke-width=".05" stroke-linecap="round" stroke-miterlimit="3" d="M2.9 45q.2 1.3 1.95 1.7l1.05-.1-.5-1.45m7.05-2.2q-1.05.8-1.2 2.85-.2 2.75-2.95 2.25-1.7-.3-2.4-1.45m-3-1.6q-.1-.8.4-1.95"/><path fill="none" stroke="#292929" stroke-width=".05" stroke-linecap="round" stroke-miterlimit="3" d="M15.85 39.25l-1.55 2-1.5 1.45"/><path fill="none" stroke="#181818" stroke-width=".05" stroke-linecap="round" stroke-miterlimit="3" d="M32.05 44.05l.25.6.75.95m8.65-2.8q.4.85.4 1.45l1.05-.8q.6-1.45.1-2.45m-5.05 4.65l2.4.2q1.65-.15 1.5-1.6M8.7 10.3q-2.05 0-3 1.7l-.35 1-.5.35-.5.55q-.9 1.25-.3 3l.05.3m1.25.05l-.1-.45q-.25-1.25.05-2.3l.5-1 .25-.35.55-.55m.1 3.4l-.05-.9.25-1.05L7.95 13M6.7 16l.6 1.65m-1.8.45l-.15-.85M7.2 18.6l.25-.65M7 19.05l.15-.4"/><path fill="none" stroke="#434343" stroke-width=".05" stroke-linecap="round" stroke-miterlimit="3" d="M33.05 45.6q.65.55 1.5.75l.55.1q1.9.3 3.1-.8l.45-.45"/><path fill="none" stroke="#2F2F2F" stroke-width=".05" stroke-linecap="round" stroke-miterlimit="3" d="M43.15 40.8l-1.35-1.1m-1.6-3l-7.7-2.8q-1.8-.9-3.55-2.45"/><path fill="none" stroke="#515151" stroke-width=".05" stroke-linecap="round" stroke-miterlimit="3" d="M27.15 30.8l.15-.85v-.1m-1.15 4.5l-.1-.45q-.25-1.35.85-1.95l.25-1.15m-1 3.55l.1.2q.25.9.75 1.6l1.35 1.35q1.2.9 1.55 1.95.65 1.9 1.9 3.95l.1.2.15.45m-5.15-12.1l-.15.4"/><path fill="none" stroke="#606060" stroke-width=".05" stroke-linecap="round" stroke-miterlimit="3" d="M13.6 32.65q-1.3 1.2-2.8 1.7l-.65.2"/><path fill="none" stroke="#373737" stroke-width=".05" stroke-linecap="round" stroke-miterlimit="3" d="M28.05 1.3l-.3.35-.05.1Q26.55 3.5 25.95 5.5l-.1.5-.7-.5-.4-.2-2.2-.4-1.05.1-.75.3m-.05 0l-1.35-1.9"/><path fill="none" stroke="#262626" stroke-width=".05" stroke-linecap="round" stroke-miterlimit="3" d="M42 17.95l-.1-.45-.5-1.25-1.25-1.85q-1.05-1.65-2.9-1.2m3 6.8l-.35-.35m-1.6.6l-.3-.85-.2-.35-.1-.1m.35-5.3q1.05.5 1.55 1.55.4.9.4 2.15v1.2l-.1.85v.25"/><path fill="none" stroke="#565656" stroke-width=".05" stroke-linecap="round" stroke-miterlimit="3" d="M29.8 1.55Q29.05.1 28.05 1.3"/></svg>