<svg xmlns="http://www.w3.org/2000/svg" viewBox="0 0 42.2 50.3" width="42.2" height="50.3"><defs><radialGradient gradientUnits="userSpaceOnUse" r="819.2" cx="0" cy="0" spreadMethod="pad" gradientTransform="matrix(.004 0 0 .004 35.2 6.45)" id="a"><stop offset="0" stop-color="#f00"/><stop offset=".349" stop-color="#6D0000"/><stop offset="1"/></radialGradient><radialGradient gradientUnits="userSpaceOnUse" r="819.2" cx="0" cy="0" spreadMethod="pad" gradientTransform="matrix(.032 0 0 .032 25.95 30.55)" id="b"><stop offset="0" stop-color="#003100"/><stop offset=".235" stop-color="#002300"/><stop offset=".702" stop-color="#007400"/><stop offset="1"/></radialGradient><radialGradient gradientUnits="userSpaceOnUse" r="819.2" cx="0" cy="0" spreadMethod="pad" gradientTransform="matrix(.024 0 0 .026 27.7 10.15)" id="c"><stop offset=".02" stop-color="#006B00"/><stop offset=".318" stop-color="#660"/><stop offset=".722" stop-color="#330"/><stop offset=".886" stop-color="#186A00"/><stop offset="1" stop-color="#004D00"/></radialGradient><radialGradient gradientUnits="userSpaceOnUse" r="819.2" cx="0" cy="0" spreadMethod="pad" gradientTransform="matrix(.004 0 0 .004 39.9 12.5)" id="d"><stop offset="0" stop-color="#f00"/><stop offset=".349" stop-color="#6D0000"/><stop offset="1"/></radialGradient><radialGradient gradientUnits="userSpaceOnUse" r="819.2" cx="0" cy="0" spreadMethod="pad" gradientTransform="matrix(.007 0 0 .003 24.9 6.65)" id="e"><stop offset="0" stop-color="#f00"/><stop offset=".349" stop-color="#6D0000"/><stop offset="1"/></radialGradient><radialGradient gradientUnits="userSpaceOnUse" r="819.2" cx="0" cy="0" spreadMethod="pad" gradientTransform="matrix(.003 0 0 .003 28.4 12.9)" id="f"><stop offset="0" stop-color="#0f0"/><stop offset="1"/></radialGradient><radialGradient gradientUnits="userSpaceOnUse" r="819.2" cx="0" cy="0" spreadMethod="pad" gradientTransform="matrix(.007 0 0 .007 25.8 13.1)" id="g"><stop offset="0" stop-color="#f00"/><stop offset=".349" stop-color="#6D0000"/><stop offset="1"/></radialGradient><radialGradient gradientUnits="userSpaceOnUse" r="819.2" cx="0" cy="0" spreadMethod="pad" gradientTransform="matrix(.007 0 0 .007 26.9 18.45)" id="h"><stop offset="0" stop-color="#003100"/><stop offset=".235" stop-color="#002300"/><stop offset=".702" stop-color="#007400"/><stop offset="1"/></radialGradient><radialGradient gradientUnits="userSpaceOnUse" r="819.2" cx="0" cy="0" spreadMethod="pad" gradientTransform="matrix(.185 0 0 .185 7.65 -.6)" id="i"><stop offset="0" stop-color="#f00"/><stop offset="1"/></radialGradient><radialGradient gradientUnits="userSpaceOnUse" r="819.2" cx="0" cy="0" spreadMethod="pad" gradientTransform="matrix(.008 0 0 .008 28.4 22.25)" id="j"><stop offset="0" stop-color="#003100"/><stop offset=".235" stop-color="#002300"/><stop offset=".702" stop-color="#007400"/><stop offset="1"/></radialGradient><radialGradient gradientUnits="userSpaceOnUse" r="819.2" cx="0" cy="0" spreadMethod="pad" gradientTransform="matrix(.032 0 0 .032 25.95 30.55)" id="k"><stop offset="0" stop-color="#0f0"/><stop offset="1"/></radialGradient><radialGradient gradientUnits="userSpaceOnUse" r="819.2" cx="0" cy="0" spreadMethod="pad" gradientTransform="matrix(.004 0 0 .004 40.95 20.85)" id="l"><stop offset="0" stop-color="#f00"/><stop offset=".349" stop-color="#6D0000"/><stop offset="1"/></radialGradient><radialGradient gradientUnits="userSpaceOnUse" r="819.2" cx="0" cy="0" spreadMethod="pad" gradientTransform="matrix(.007 0 0 .004 36.25 31.85)" id="m"><stop offset="0" stop-color="#f00"/><stop offset=".349" stop-color="#6D0000"/><stop offset="1"/></radialGradient><radialGradient gradientUnits="userSpaceOnUse" r="819.2" cx="0" cy="0" spreadMethod="pad" gradientTransform="matrix(.017 0 0 .017 17.7 40.55)" id="n"><stop offset="0" stop-color="#003100"/><stop offset=".235" stop-color="#002300"/><stop offset=".702" stop-color="#600"/><stop offset="1"/></radialGradient><radialGradient gradientUnits="userSpaceOnUse" r="819.2" cx="0" cy="0" spreadMethod="pad" gradientTransform="matrix(.01 0 0 .01 11.45 23.55)" id="o"><stop offset="0" stop-color="#003100"/><stop offset=".235" stop-color="#002300"/><stop offset=".702" stop-color="#600"/><stop offset="1"/></radialGradient><radialGradient gradientUnits="userSpaceOnUse" r="819.2" cx="0" cy="0" spreadMethod="pad" gradientTransform="matrix(.002 .001 -.001 .003 22 4.55)" id="p"><stop offset="0" stop-color="#f00"/><stop offset=".349" stop-color="#6D0000"/><stop offset="1"/></radialGradient><radialGradient gradientUnits="userSpaceOnUse" r="819.2" cx="0" cy="0" spreadMethod="pad" gradientTransform="matrix(.007 0 0 .007 12.75 17.45)" id="q"><stop offset="0" stop-color="#003100"/><stop offset=".235" stop-color="#002300"/><stop offset=".702" stop-color="#007400"/><stop offset="1"/></radialGradient><radialGradient gradientUnits="userSpaceOnUse" r="819.2" cx="0" cy="0" spreadMethod="pad" gradientTransform="matrix(.011 0 0 .003 19.8 32.6)" id="r"><stop offset="0" stop-color="#f00"/><stop offset=".349" stop-color="#6D0000"/><stop offset="1"/></radialGradient><radialGradient gradientUnits="userSpaceOnUse" r="819.2" cx="0" cy="0" spreadMethod="pad" gradientTransform="matrix(.015 0 0 .015 12.75 34.6)" id="s"><stop offset="0" stop-color="#003100"/><stop offset=".235" stop-color="#002300"/><stop offset=".702" stop-color="#600"/><stop offset="1"/></radialGradient><radialGradient gradientUnits="userSpaceOnUse" r="819.2" cx="0" cy="0" fx="99.2" fy="0" spreadMethod="pad" gradientTransform="matrix(.002 0 0 .002 11.45 48.95)" id="t"><stop offset="0" stop-color="#903"/><stop offset=".659" stop-color="#990"/><stop offset="1" stop-color="#fff"/></radialGradient><radialGradient gradientUnits="userSpaceOnUse" r="819.2" cx="0" cy="0" spreadMethod="pad" gradientTransform="matrix(.024 0 0 .026 27.7 10.15)" id="u"><stop offset=".02" stop-color="#006B00"/><stop offset=".318" stop-color="#330"/><stop offset=".722" stop-color="#330"/><stop offset=".886" stop-color="#186A00"/><stop offset="1" stop-color="#004D00"/></radialGradient><radialGradient gradientUnits="userSpaceOnUse" r="819.2" cx="0" cy="0" spreadMethod="pad" gradientTransform="matrix(.024 0 0 .026 27.7 10.15)" id="v"><stop offset=".02" stop-color="#014B01"/><stop offset=".318" stop-color="#110"/><stop offset=".722" stop-color="#330"/><stop offset=".886" stop-color="#186A00"/><stop offset="1" stop-color="#004D00"/></radialGradient></defs><path fill="#ff0" d="M24.25 38.9q2.35.6 4.55 1.65l1.3.55q-1.5.35-2.75 1.05l-1.45-1.8-1.65-1.45m4.45 6q2.7 2.15 2.9 5.4-1.1-1.35-3.2-1.45 1.3-1.05.5-3.45l-.2-.5M8.1 38.05l-.2.5q-1.25.15-2.25 1.9-.5-2.05-.5-4.2L7 37.5l1.1.55m-5-5.35l-3.1.9q.55-3.1 3.25-4.75L3 30.15v1.95l.1.6m2-7.55l-1.95-1.4L4.3 23q2.75-1.6 5.9-1.5l-.25.1-1.5.9-3.05 2.35-.3.3m9.4-5.95l-.65-.95.05-.05 1.15-.05q-.35-.45.2-.5l1-.25.4.9.5 1.05.15.25-.45-.15-.9-.85-.55-.55.05.75v.05q.2 1 .8 1.9l-.85-.55-.9-1m2.05-8.3l.95-.85.25-.15 1.4-.55q.8-.15 1.25-.7l-.15.75-1.2.85-2.3.8-.2-.15m3.35 6.75l-.45.75-.2.25-.7.65-.5-1.5.15-.05.95.8-.15-.95-.25-1.15q.35.7.95 1.05l.2.15"/><path fill="#f99" d="M21.7 3.85l1.5-2.1.1-.1 1-1.65-.15 1.9v.05l-.35 1.6-1.05.1-1.05.3v-.1m5.7.6L29 4l2.65-1.1-.55.7-1 .95v.05l-1.8 1.15-.6.35-.5.25.15-.8.05-1.1"/><path d="M20.6 8.1l-.2.55.2-.55m2.65 3.7l-.5-.45-1.45-.5-1.15-.1-.85.2-.25.3-.1.2-.15.15-1.5 1.1-.15-.75-.3-.3-.3-.1-.45-.4v-.3l.2-1.05.6-1.15.75-.6.25-.15-.45.85v.3h.3l.65-.5.8-.85.4-.7.15-.45.1.25.45.4.85-.35.95-.05-.6.55-.3.8v.4l.05.15v.05q1.6.7 1.85 2.25l.25.7-.1.1m-6.5-.75l2.3-.8 1.2-.85.15-.75q-.45.55-1.25.7l-1.4.55-.25.15-.95.85-.1.2.3-.05"/><path fill="url(#a)" d="M32.25 5.6q.95-.5 2.1-.35l2.4.85 1.4.65-1.85.45-.65.5-1.85-1.25-.1-.1-1.1-.6-.35-.15"/><path fill="url(#b)" d="M32.25 5.6l.35.15 1.1.6.1.1 1.85 1.25.5.35L37 9l.15.2.5.95 1.9 4.65.05.15.85 2.05.25 1.15.15 1.25-.35 2.55-.7 1.6-.3.6-.9 1.1-.15.15.35.45q.5.85-.1 1.8l-.2.3-.2-.45-1.15-.75-.05-.05-.3-.05v-.1l-.15.1-1.9 1.05q-.6.35-1.3.5l-.85.1h-.2l-1.45 1.3-.45.3-1.6.6-2.95.3-2-.15-1.7-.4-.6-.2-.2-.1-.25-1.3q0-1 .35-1.9l-.3-.4-.1-.4.1-.65q.7-.75 1.45-.15.25.2.1.65l-.2 1.4.15.3 2.75.6.05.05 2.05.3h.3l.75-.15q1.1-.2 1.65-1.15l.25-.75.3-1.75.3-1h.1l-.05.75q-.3 1.5 1.1 2.2l1.85.1.45-.45q.2-.8-.05-1.45l-.5-.1-.85-.75q-.55-.55-.65-1.2l.7.2.65.15q1.35.1 2.45-.65l1.2-.95q.6-.55.85-1.25l.15-1.25-.35-2.75-.6.15-1.4-.1q-.6-.2-1.45-.9l-.75-.6.9.2 1-.05.65-.25 1-.85.35-.7.05-.45-.35-1.35-1.35-2.15L34 7.6h-.05l-1.15-.65-1.3-.4-2.75-.25-1.05-.2.6-.35h1.3l2.15-.25.5.1M21.8 26.2l-.25.45v.1-.1l.25-.45m15 .35l1.65-1.15-1.65 1.15"/><path fill="url(#c)" d="M38.5 27.95l-1 1.3 1.8.1h.05l.05 1-.5.45-.85-.1-1.45-.5.05.3.6 1.65-.15.4-.1.15-.55.25h-.5q-.6-.15-.9-.8l-.95-1.9-.35.6-.85.85.1-.7.35-1.1h.05l.15-.15.15-.2v-.75l-.25-.6q.7-.15 1.3-.5l1.9-1.05h.15l.3.05.05.05 1.15.75.2.45M22 17.05l-.35 1.25 1.4-.05-1.7 1.15.5.55 1.1.15.25-.05-.15.35q-.45 1-1.65.4-1.15-.6-2.4-.95l-.2-.05-.8-.25.55-.25.7-.65.2-.25.45-.75.1-.15.5-1.3.3-1.5v-.85l1.65-.3h4l-.35.2-.4.2-2.25.7q-1.05.25-1.2 1.3l-.25 1.1"/><path fill="url(#d)" d="M37.65 10.15l1.1.35 2.15 1.2 1.3 1.25-.7.2-.35.2-.3.25-1.2 1.3-.1-.1-1.9-4.65"/><path fill="url(#e)" d="M23.25 4.95l1.85-.1 2.3-.4-.05 1.1-.15.8-.15.05-1.05.4-.05-.05v.5l-.05.35-.25.55q-.35.5-1.1.4-.85-.1-1.35.3-.3-.25-.2-.6l.05-.2.4-.95.05-.2.05-.35q0-.6-.5-.95l-.75-.5.95-.15m.2 3.25q.45-.05.45-.65l.75-.2.5-.25.8-.25-.8.25-.5.25-.75.2q0 .6-.45.65"/><path fill="url(#f)" d="M27.05 13.2l1-.85q.65-.75.4-1.55l.7.3.15.2.1 1.15-.05.2-.25.6-2.05-.05"/><path fill="url(#g)" d="M27.05 13.2l2.05.05.65-.1 1.2-.45.2-.1.55-.35-.45.35-.2.2q-.9.6-1.95.8l-1.65.05-1-.1h-4l-1.65.3-.3.1-.05.05.05-.1-.1-.45-.2-.25-.15-.05-.15-.1 7.15.15"/><path fill="url(#h)" d="M28.7 14.75l-.3.7-.2 2.25q-.15.7-.65 1.2l-1.1.7-1.1.05-.6-.15q-.85-.2-.55-1.05l.5-.75.4-.4 1.7.1.35-1.35-.05-.65q-.2-.95-1-1.65l.35-.2 1 .1 1.65-.05-.4 1.15m-3.25 4.05l.65-.5.7-.9-.7.9-.65.5"/><path fill="url(#i)" d="M32.15 11.85l-.05-.05.7-1-.3.65-.35.4"/><path fill="url(#j)" d="M29.85 18.2h.05l-.3 1.95q-.15.4.1.8l1.25-.85 1.05-1-.8 1.3-1.35 1.65-1.4 1.7-.35.4-.7.1-3.3-.7q-1.15 0-1.95.65l.8-1 .9-.8.15-.1 1.35-.3 1.3-.1 1.1-.75 1.55-1.85.55-1.1"/><path fill="url(#k)" d="M39.65 14.9l-.05.05-.05-.15.1.1"/><path fill="url(#l)" d="M40.7 18.15l.4.6.85 2.1.15 2.35h-.5l-.95.05-.85.3.7-1.6.35-2.55-.15-1.25"/><path fill="url(#m)" d="M39.35 29.35l.75.45q.55.4.6 1l-.05.45q-.1.9-.75 1.6v-.8l-1.15.1-.65-.45v.7l-.05.2-.1.2-.45 1.6q-.15-1.15-1-.95-.9.2-1.55-.4L34.9 33l-.2-.15-.25.25-.05.1-.25-.05-.9.05q-.7.2-.9.95l-.15-.85q0-.3.15-.5-.75-.6-.45-1.4.4-1 1.45-1.5L33 31l-.1.7.85-.85.35-.6.95 1.9q.3.65.9.8h.5l.55-.25.1-.15.15-.4-.6-1.65-.05-.3 1.45.5.85.1.5-.45-.05-1M37.3 30.8q.65.35.8.9-.15-.55-.8-.9m2.3.75l.25.15.05.25v.1-.1l-.05-.25-.25-.15m-5.2 0q-.1.75.3 1.3-.4-.55-.3-1.3"/><path fill="url(#n)" d="M9.05 31.55v.05q.25 1.6 1.4 2.75.5.5 1.2.55l3.4.7 4.3 1.2.3.05q2.55.55 4.6 2.05l1.65 1.45 1.45 1.8 1.35 2.75.2.5q.8 2.4-.5 3.45-.65.5-1.85.65l-3.95.05-10.85-.5v-.25l7.8-2.3q2.3-.95 2.25-3.35l-.1-.65.15-.15q1.25-1.6.55-3.9l-.1-.25q-1.65-1.15-4.1-.85l-4.55.15-4.25-.35q-1.95-.25-2.9-1.8-.4-.7-.2-1.35.35-1.4 1.85-2.1l.9-.35"/><path fill="url(#o)" d="M4.1 26.7l.1-.25.9-1.3.3-.3 3.05-2.35 1.5-.9.25-.1 4.25-2.25.05-.05.9 1 .85.55q-.6-.9-.8-1.9l.45-.2.05-.05.9.85.45.15-.15-.25-.5-1.05 1.4-.5.5 1.5-.55.25.8.25-1.8 1.5-.05.65.15 1.45q.05.65.85.95l.75.25-.3.85-.2 1.95-3.15.15q-2.2.85-4.5.95-2.35.1-4.3-1.35-.45-.35-1.05-.4l-1.1-.05m14.1-8.95l.8-.15.15.95-.95-.8"/><path fill="url(#p)" d="M20.2 5.55l1.45-1.6h.05l1.05-.3 1.05-.1-.3.8-.05.2-.2.4-.95.15-2.1.45"/><path fill="url(#q)" d="M13.8 18.2h-1.85q-.6-.25-.7-.9l.1-1.45.05-.05q-.35-.65-.2-1.3.1-.65.65-.9l.05.5q.05.55.6.4l1.25-.9.9-1.05.4.35.6.1q-1.45.45-2.35 1.8l-.45.65-.3.85-.05.4q.95.65 1.95.35l.8-.25q.9-.35 1.55-1.05l.35-.25h.95l-1.2 1.15q-.25.25 0 .45l-.65.3-1 .25q-.55.05-.2.5l-1.15.05h-.1"/><path fill="url(#r)" d="M21.95 30.85l.15.15q1.55.3 1.6 1.6l-.35 1.1-.05.05-.35.65-.15-.7-.2-.55q-.85.1-1.2-.35l-.8.95-.35.95q-.2.9.35 1.3l-.75-.15q-1.05-.3-1.45-1.25l-.15-.45q-.5.05-.9.35-.5.35-.3 1.05-1.25-.5-1.1-1.6v-.2q.2-1.05 1.1-1.5l.05-.05.15-.05q1-.6 1-1.8v-.15l.2-.05.35-.25.1-.1.4-.55-1 3.05q.6-.6 1.65-1-.6 1-.65 2.15V34l.2-.2 1.05-1.4q.15-.3.55-.35l.95.15q.05-.45-.3-.95-.2-.3.05-.4h.15m-3.2 2.1q-.5.35-.5.85v.35-.35q0-.5.5-.85"/><path fill="url(#s)" d="M18.2 29.95l-.3-.05-3.8-.3-2.7.35q-1.15.2-2 .9l-.35.7-.9.35q-1.5.7-1.85 2.1-.2.65.2 1.35.95 1.55 2.9 1.8l4.25.35 4.55-.15q2.45-.3 4.1.85l.1.25q.7 2.3-.55 3.9l-.15.15q-.35-1.65-2.25-2.3-1.95-.7-4-.6l-4.6-.55-2.75-1L7 37.5l-1.85-1.25L4 34.8l-.05-.05-.1-.05-.4-.65-.35-1.35-.1-.6v-1.95l.25-1.3.15-.55.7-1.6 1.1.05q.6.05 1.05.4 1.95 1.45 4.3 1.35 2.3-.1 4.5-.95l3.15-.15v.5l-.1.1.1.2v1.75"/><path fill="url(#t)" d="M11.75 49.05h-1.9l1.9-.25v.25"/><path fill="url(#u)" d="M14.65 12.55l.1-.05q.55-.55.55-1.3v-.05l.2-1.45q.15-.75.85-1.2l.55-.4.55-.7h-.05l.2-.35.1-.25.65-.65 1-.8.15-.2.6-.55-.3.85v.2l.35-.1h.05l2.1-.45.75.5q.5.35.5.95l-.05.35-.05.2-.4.95-.05.2q-.1.35.2.6.5-.4 1.35-.3.75.1 1.1-.4l.25-.55.05-.35v-.4H26V6.8l1.05-.4h.15v-.05l.5-.25 1.05.2 2.75.25 1.3.4 1.15.65H34l2.25 1.6 1.35 2.15.35 1.35-.05.45-.35.7-1 .85-.65.25-1 .05-.9-.2q-1-.4-2.2-.6-2.35-.45-3.1.55l.4-1.15q1.05-.2 1.95-.8l.2-.2.45-.35-.55.35-.2.1-1.2.45-.65.1.25-.6.05-.2-.1-1.15-.15-.2-.7-.3q.25.8-.4 1.55l-1 .85-7.15-.15.15.1.15.05.2.25.1.45-.05.1-1.15.65-1.15.85h-1l-.35.25q-.65.7-1.55 1.05l-.8.25q-1 .3-1.95-.35l.05-.4.3-.85.45-.65q.9-1.35 2.35-1.8l-.6-.1-.4-.35m17.5-.7l.35-.4.3-.65-.7 1-.4.45.45-.4m-8.8-.15l-.25-.7q-.25-1.55-1.85-2.25V8.7l-.05-.15v-.4l.3-.8.6-.55-.95.05-.85.35-.45-.4-.1-.25-.15.45-.4.7-.8.85-.65.5h-.3v-.3l.45-.85-.25.15-.75.6-.6 1.15-.2 1.05v.3l.45.4.3.1.3.3.15.75 1.5-1.1.15-.15.1-.2.25-.3.85-.2 1.15.1 1.45.5.5.45.05.1.15.55-.05-.55-.05-.2"/><path fill="url(#v)" d="M21.45 29.95l.05.15.1.15.3.55.05.05h-.15q-.25.1-.05.4.35.5.3.95l-.95-.15q-.4.05-.55.35l-1.05 1.4-.2.2v-.55q.05-1.15.65-2.15-1.05.4-1.65 1l1-3.05-.4.55-.1.1-.6.05V27.4l.2-1.95.3-.85-.75-.25q-.8-.3-.85-.95l-.15-1.45.05-.65 1.8-1.5.2.05q1.25.35 2.4.95 1.2.6 1.65-.4l.15-.35-.25.05-1.1-.15-.5-.55 1.7-1.15-1.4.05.35-1.25h1l1.95.25h.15l-.4.4-.5.75q-.3.85.55 1.05l.6.15 1.1-.05 1.1-.7q.5-.5.65-1.2l.2-2.25.3-.7q.75-1 3.1-.55 1.2.2 2.2.6l.75.6q.85.7 1.45.9l1.4.1.6-.15.35 2.75-.15 1.25q-.25.7-.85 1.25l-1.2.95q-1.1.75-2.45.65l-.65-.15-.7-.2q.1.65.65 1.2l.85.75.5.1q.25.65.05 1.45l-.45.45-1.85-.1q-1.4-.7-1.1-2.2l.05-.75-.05-.2-.05.15v.05l-.3 1-.3 1.75-.25.75q-.55.95-1.65 1.15l-.75.15h-.3l-2.05-.3-.05-.05-2.75-.6-.15-.3.2-1.4q.15-.45-.1-.65-.75-.6-1.45.15l-.1.65.1.4.3.4q-.35.9-.35 1.9l.25 1.3M29.9 18.2V18l-.05.2-.55 1.1-1.55 1.85-1.1.75-1.3.1-1.35.3-.15.1-.9.8-.8 1q.8-.65 1.95-.65l3.3.7.7-.1.35-.4 1.4-1.7 1.35-1.65.8-1.3-1.05 1-1.25.85q-.25-.4-.1-.8l.3-1.95"/><path fill="none" stroke="#003E00" stroke-width=".05" stroke-linecap="round" stroke-miterlimit="3" d="M39.65 14.9l-.05.05.85 2.05.25 1.15m-.9 5.4l-.3.6-.9 1.1-.15.15.35.45q.5.85-.1 1.8l-.2.3-1 1.3 1.8.1h.05m-6 .55h.05l.15-.15.15-.2v-.75l-.25-.6-.85.1h-.2l-1.45 1.3-.45.3-1.6.6-2.95.3-2-.15-1.7-.4-.6-.2-.2-.1.05.15.1.15.3.55.05.05m-3.7-.65v-.05l-.05-.2.6-.05m-4.95-11.65l-.05-.05h-1.85q-.6-.25-.7-.9l.1-1.45m.05-.05q-.35-.65-.2-1.3.1-.65.65-.9l.05.5q.05.55.6.4l1.25-.9.9-1.05.1-.05q.55-.55.55-1.3v-.05l.2-1.45q.15-.75.85-1.2l.55-.4.7-1.05.1-.25.65-.65 1-.8.15-.2.6-.55-.3.85v.2l.35-.1h.05m1.45-1.6l.05-.1m6.6 1.9h1.3l2.15-.25.5.1m3.4 2.1l.5.35L37 9l.15.2.5.95m-16.1 16.6v-.1l.25-.45m10.35-14.35l.35-.4.3-.65-.7 1-.4.45.45-.4M26 6.8v.05h-.05m-5.55 1.8l.2-.55m-3.85 2.95l-.3.05.1-.2m11.9-.1q.25.8-.4 1.55l-1 .85-7.15-.15m5.2 4.25h-.15L23 17.05h-1l.25-1.1q.15-1.05 1.2-1.3l2.25-.7.4-.2.35-.2h-4l-1.65.3v.85l-.3 1.5-.5 1.3m-1.8 10.4v.3m10.9-14.6q1.05-.2 1.95-.8l.2-.2.45-.35-.55.35-.2.1-1.2.45-.65.1m-3 .5q.8.7 1 1.65l.05.65-.35 1.35-.7.9-.65.5m1-5.25l1 .1 1.65-.05m-8.65.4l.05-.05.3-.1m-.35.15l-1.15.65-1.15.85h-.05l-1.2 1.15q-.25.25 0 .45l-.65.3m3.45.1h.3m5.1-.2l1.7.1m12.75-2.6l.05.15M13.9 18.2h-.1m23 8.35l-.15.1-1.9 1.05q-.6.35-1.3.5m5-2.8l-1.65 1.15m-15.25.2q-.35.9-.35 1.9l.25 1.3"/><path fill="none" stroke="#ff0" stroke-width=".05" stroke-linecap="round" stroke-miterlimit="3" d="M18.05 17.8l-.15-.5.3.45.8-.15"/><path fill="none" stroke="#B3B300" stroke-width=".05" stroke-linecap="round" stroke-miterlimit="3" d="M19 17.6l-.25-1.15q.35.7.95 1.05l.2.15m4.35 21.25q2.35.6 4.55 1.65l1.3.55q-1.5.35-2.75 1.05m1.35 2.75q2.7 2.15 2.9 5.4-1.1-1.35-3.2-1.45M7.9 38.55q-1.25.15-2.25 1.9-.5-2.05-.5-4.2M3.1 32.7l-3.1.9q.55-3.1 3.25-4.75m1.85-3.7l-1.95-1.4L4.3 23q2.75-1.6 5.9-1.5m4.3-2.3l-.65-.95m2.9-7.2l2.3-.8 1.2-.85.15-.75q-.45.55-1.25.7l-1.4.55-.25.15-.95.85m-.3 6.5l.4.9m-.4-.9l-1 .25q-.55.05-.2.5l-1.15.05m4.15-.4l.15-.05.95.8-.15-.95m-3.55 1.25v-.05l-.05-.75.55.55"/><path fill="none" stroke="#600000" stroke-width=".05" stroke-linecap="round" stroke-miterlimit="3" d="M15.95 18.6l.9.85.45.15-.15-.25-.5-1.05 1.4-.5m19.6-7.65l1.1.35 2.15 1.2 1.3 1.25-.7.2-.35.2-.3.25-1.2 1.3m1.05 3.25l.4.6.85 2.1.15 2.35h-.5l-.95.05-.85.3m-.45 5.8l.75.45q.55.4.6 1l-.05.45q-.1.9-.75 1.6v-.8l-1.15.1-.65-.45v.7l-.05.2-.1.2-.45 1.6q-.15-1.15-1-.95-.9.2-1.55-.4L34.9 33l-.2-.15-.25.25-.05.1-.25-.05-.9.05q-.7.2-.9.95l-.15-.85q0-.3.15-.5-.75-.6-.45-1.4.4-1 1.45-1.5m-11.4.95l.15.15q1.55.3 1.6 1.6l-.35 1.1-.05.05-.35.65-.15-.7-.2-.55q-.85.1-1.2-.35l-.8.95-.35.95q-.2.9.35 1.3l-.75-.15q-1.05-.3-1.45-1.25l-.15-.45q-.5.05-.9.35-.5.35-.3 1.05-1.25-.5-1.1-1.6v-.2q.2-1.05 1.1-1.5l.05-.05.15-.05q1-.6 1-1.8v-.15m-.05-.25l-.3-.05-3.8-.3-2.7.35q-1.15.2-2 .9l-.35.7v.05q.25 1.6 1.4 2.75.5.5 1.2.55l3.4.7 4.3 1.2.3.05q2.55.55 4.6 2.05l1.65 1.45 1.45 1.8 1.35 2.75.2.5q.8 2.4-.5 3.45-.65.5-1.85.65l-3.95.05-10.85-.5h-1.9l1.9-.25 7.8-2.3q2.3-.95 2.25-3.35l-.1-.65q-.35-1.65-2.25-2.3-1.95-.7-4-.6l-4.6-.55-2.75-1L7 37.5l-1.85-1.25L4 34.8l-.05-.05-.1-.05-.4-.65-.35-1.35-.1-.6v-1.95l.25-1.3.15-.55.7-1.6.1-.25.9-1.3.3-.3 3.05-2.35 1.5-.9.25-.1 4.25-2.25.05-.05m5.7-13.65l1.45-1.6m2.15-.4l-.3.8-.05.2-.2.4 1.85-.1 2.3-.4m4.85 1.15q.95-.5 2.1-.35l2.4.85 1.4.65-1.85.45-.65.5m2 2.45l1.9 4.65m1.15 3.35l.15 1.25-.35 2.55-.7 1.6M32.25 5.6l.35.15 1.1.6.1.1 1.85 1.25m-8.6-1.3L26 6.8m-3.7-1.7l-2.1.45m3.05-.6l-.95.15m3.65 1.75l-.8.25-.5.25-.75.2q0 .6-.45.65m3.6-1.8l.15-.05m-.15 6.85l2.05.05M18.7 24.6l-.3.85-.2 1.95v.5m0 .3v1.75m.6-.05l.1-.1m-3.45-10.95q.2 1 .8 1.9l-.85-.55-.9-1m1.45-.6l-.05.05-.45.2m3.1.45l-.5-1.5M18.1 28l.1.2m.05 5.95v-.35q0-.5.5-.85m15.95-.1q-.4-.55-.3-1.3m5.5.5v-.1l-.05-.25-.25-.15m-1.5.15q-.15-.55-.8-.9"/><path fill="none" stroke="#002E00" stroke-width=".05" stroke-linecap="round" stroke-miterlimit="3" d="M22 17.05l-.35 1.25 1.4-.05-1.7 1.15.5.55 1.1.15.25-.05-.15.35q-.45 1-1.65.4-1.15-.6-2.4-.95l-.2-.05m1.2-2.3l-.1.15-.45.75-.2.25-.7.65-.55.25.8.25"/><path fill="none" stroke="#FF6A6A" stroke-width=".05" stroke-linecap="round" stroke-miterlimit="3" d="M21.7 3.85l1.5-2.1.1-.1 1-1.65-.15 1.9v.05l-.35 1.6m3.6.9L29 4l2.65-1.1-.55.7-1 .95v.05l-1.8 1.15-.6.35-.5.25"/></svg>