<svg xmlns="http://www.w3.org/2000/svg" viewBox="0 0 48.5 47.9" width="48.5" height="47.9"><defs><radialGradient gradientUnits="userSpaceOnUse" r="819.2" cx="0" cy="0" spreadMethod="pad" gradientTransform="matrix(.02 0 0 .02 14.75 17.25)" id="a"><stop offset="0" stop-color="#900"/><stop offset=".455" stop-color="#C94800"/><stop offset=".722"/></radialGradient><radialGradient gradientUnits="userSpaceOnUse" r="819.2" cx="0" cy="0" spreadMethod="pad" gradientTransform="matrix(.03 0 0 .03 31.45 29.55)" id="b"><stop offset="0" stop-color="#f69"/><stop offset=".353" stop-color="#f00"/><stop offset=".929" stop-color="#633"/></radialGradient><radialGradient gradientUnits="userSpaceOnUse" r="819.2" cx="0" cy="0" fx="313.6" fy="0" spreadMethod="pad" gradientTransform="matrix(.03 0 0 .03 31.45 29.55)" id="c"><stop offset="0" stop-color="#900"/><stop offset=".455" stop-color="#C94800"/><stop offset=".722"/></radialGradient><radialGradient gradientUnits="userSpaceOnUse" r="819.2" cx="0" cy="0" fx="2240" fy="0" spreadMethod="pad" gradientTransform="matrix(.496 0 0 .497 -.55 -.9)" id="d"><stop offset="0" stop-color="#900"/><stop offset=".165" stop-color="#C94800"/><stop offset=".722"/></radialGradient><radialGradient gradientUnits="userSpaceOnUse" r="819.2" cx="0" cy="0" spreadMethod="pad" gradientTransform="matrix(.009 0 0 .009 12.5 2.95)" id="e"><stop offset="0" stop-color="#900"/><stop offset=".455" stop-color="#C94800"/><stop offset=".722"/></radialGradient><linearGradient gradientUnits="userSpaceOnUse" x1="-819.2" x2="819.2" gradientTransform="matrix(.002 0 0 .001 3.5 8.8)" id="f"><stop offset="0" stop-color="#900"/><stop offset=".722"/></linearGradient><radialGradient gradientUnits="userSpaceOnUse" r="819.2" cx="0" cy="0" fx="355.2" fy="0" spreadMethod="unknown" gradientTransform="matrix(.002 0 0 .002 6.7 13.35)" id="g"><stop offset="0" stop-color="#f00"/><stop offset=".51" stop-color="#f33"/><stop offset=".824"/></radialGradient><radialGradient gradientUnits="userSpaceOnUse" r="819.2" cx="0" cy="0" spreadMethod="pad" gradientTransform="matrix(.004 0 0 .004 6.85 12.45)" id="h"><stop offset="0" stop-color="#f00"/><stop offset=".51" stop-color="#f33"/><stop offset=".824"/></radialGradient><radialGradient gradientUnits="userSpaceOnUse" r="819.2" cx="0" cy="0" spreadMethod="pad" gradientTransform="matrix(.02 0 0 .02 14.75 17.25)" id="i"><stop offset="0" stop-color="#900"/><stop offset=".165" stop-color="#C94800"/><stop offset=".722"/></radialGradient><radialGradient gradientUnits="userSpaceOnUse" r="819.2" cx="0" cy="0" spreadMethod="pad" gradientTransform="matrix(.002 0 0 .002 8 7)" id="j"><stop offset="0" stop-color="#fc0"/><stop offset=".314" stop-color="#f60"/><stop offset=".475" stop-color="#451C00"/><stop offset="1"/></radialGradient><radialGradient gradientUnits="userSpaceOnUse" r="819.2" cx="0" cy="0" spreadMethod="pad" gradientTransform="matrix(.016 0 0 .016 7.9 35.05)" id="k"><stop offset="0" stop-color="#f69"/><stop offset=".353" stop-color="#f00"/><stop offset=".929" stop-color="#633"/></radialGradient><radialGradient gradientUnits="userSpaceOnUse" r="819.2" cx="0" cy="0" spreadMethod="pad" gradientTransform="matrix(.02 0 0 .02 14.75 17.25)" id="l"><stop offset="0" stop-color="#f69"/><stop offset=".353" stop-color="#f00"/><stop offset=".929" stop-color="#633"/></radialGradient><radialGradient gradientUnits="userSpaceOnUse" r="819.2" cx="0" cy="0" spreadMethod="pad" gradientTransform="matrix(.496 0 0 .497 -.55 -.9)" id="m"><stop offset="0" stop-color="#900"/><stop offset=".165" stop-color="#C94800"/><stop offset=".722"/></radialGradient><radialGradient gradientUnits="userSpaceOnUse" r="819.2" cx="0" cy="0" spreadMethod="pad" gradientTransform="matrix(.496 0 0 .497 -.55 -.9)" id="n"><stop offset="0" stop-color="#900"/><stop offset=".455" stop-color="#C94800"/><stop offset=".722"/></radialGradient></defs><path fill="#fff" d="M2.4 10.05l.9.4.25 1.55-1.15-1.95m3.05 1l1.05-.35-.15 1.75-.2.35-.2-.3-.5-1.45m1.3-.6l1.45-.8.15.05.55.55-.3.05-.3-.25-.2.4L8 10l-.35.45-.4-.2L7 11l-.25-.55"/><path fill="url(#a)" d="M16.75 4.65l4.15 1.2-.95.45 3.25 2.15q1.5 1 2.6 2.35h-2.7l3.25 3.15-1.45-.4 1.95 2.25-1 .95 1 .15-1.55 2.5 1.85-.25-.8 3.25-.6-.15.45-1.85-1.05.65-.5-2.3.45-1.45q.05-1.15-.45-2.25l-.75-1.2-1.4-1.55-1.2-1.2-.1-.05q-.55-.65.4-.65l-.55-.4-.5-.7q-.15-.5.25-.75l-.65-.5q-.8-1-2.25-1.5l-2.1-1.1.95-.8"/><path fill="url(#b)" d="M38.65 17.65q-1 .6-.65 2.35l.4 1.15.6.8.65.55 3.15 2q1.6 1.1 2.3 2.9.9 2.25-1.3 3.4-1.6.8-3.4.95l-.5.05q-2.25.05-4.2-.75l-.5-.25q-1.5-.9-1.95-2.55-.6-2.1-2.05-3.2-1.9-1.45-3.35.4-.55.7-1.75.55l-.15 1.55-1.15.7-4.4 3.15-.1.05q-1.35 1 .75 1.2l1 .1L20.8 34q-.9.2-1.2 1.8 1.95.2 3.55-.9l1.4-.95Q25 36 26.8 35.55l.65-.35q-.45.85.15 2.15l1.45 3.75 1.15 1.5-.25 1.25-4.75 2.7-1.55.45-1.1-.95v.15l-1.45.1-.9-1.2v-.2l.1-.3q.4-2.1 2.65-2l.7-1.15 1.75-1.2.05-.3q.15-1.35-.45-2.5l-1.8 1.05-1.4.3-5.3-.8-1.05-.35Q14.2 37 14.4 35.4q.15-1.3.6-2.45l.75-1.6 1.85-.1q1.55-.15 2.5-1.45l1.65-2.45q.8-1.35 2.2-1.9l.05-.1 3.15-2.5 3.2.25.55.1q2.4.45 3.35 1.95.25.45.1.9Q33.5 28.4 36.2 29q2.2.45 3.9-.7 2.05-1.35-.05-3.15l-3-2.85-.75-1q-.6-1.2-.2-2.65.4-1.45 1.5-2.1l1.05 1.1M25.5 41.85q-2.45.1-2.75 2.4l-.2 1.8.2-1.8q.3-2.3 2.75-2.4"/><path fill="url(#c)" d="M38.65 17.65l-1.05-1.1q.55-.3 1.2-.45L37.05 15q1.9-3.2 5.55-3.65l3.7.2 2.2.65-3.3.35q-1.8.55-2.45 2.3-.65 1.8-2.1 2.75-.5.3-.8-.2l-1.2.25"/><path fill="url(#d)" d="M7.55 2.75l-1.1.7.85-1.75v.65l.25.4"/><path fill="url(#e)" d="M7.55 2.75l2.8-1.9q.5-.35 1.05-.6L12.7 0l-1.75 2.1 1.4-.3H15l1.3.3 2.85.7-5.65.35-3.25.85.6.15q-.95.4-1.8 1l-.2.4-2.05-.1-.85.3.3-.75-.4-.15.25-1.35.05-.15.3.1 1.1-.7"/><path fill="url(#f)" d="M1.7 7.95h1.7l1.4.4.15.05.55.6-.05.25-.5.5L2 8.55l-.2-.15-.1-.45"/><path fill="url(#g)" d="M6.35 12.45l.15-.1q.5-.2.8.35l.45-.25.45.55-1.1 1.15q-1.15.8-1.85-.15l.9-1.2.2-.35"/><path fill="url(#h)" d="M6.35 12.45l.15-1.75.25-.25L7 11l.25-.75.4.2L8 10l.1.45.2-.4.3.25.3-.05V12q-.1 1.15-.65 2l-1.05.45-.95.3q-1.5.4-1.5-.8l1.2-1.45.2.3-.9 1.2q.7.95 1.85.15L8.2 13l-.45-.55-.45.25q-.3-.55-.8-.35l-.15.1"/><path fill="url(#i)" d="M9.95 12.15l.25-.3q.4-.7.55-.2.3.9.85.8l.6-.75.2-.95.05-1.35 2.7.2-1.95-1.9h-.05v-.05l.05-.15q2.2.45 4.3 1.25 1.2.5 2.3 1.3l-3.6-.7.75 2.55-3-1.2 1.1 2.45H15l-1.35-1.25-.5 1.2-.8 1.35-.25.2-.05-1.3-2.15.55.2-1.85-.15.1m.15-.1l.1-.2-.1.2"/><path fill="url(#j)" d="M9 7.35l-1.15.55-.2.1-.4-.2q.1-.65.65-1.05 1-.75 2.2-.8L9 7.35"/><path fill="url(#k)" d="M12.75 24l.45.55q-1.55 1.95-2.95 4.05l-.2.65 1.4.85-.45 1.15 2.15 2.2-.2.9.05 1.6q.15.9-.2 1.75l-1.2 1.55q-.6.25-1.15.6l-1.8 1.5q-.55.7-.75 1.6l-.1 1.1-.7 1.3-4.1.5-.85-1.1-.15.6-1.15.05-.65-1.1q.4-1.2 1.6-2.05 1.95.55 2.4-.9l.05-.25 4.25-3.15 1-1.4q.55-1.1-1.35-2-1.55-.75-2.45-2l-.4-.6q-.7-1.2-.45-2.15.2-.75 1.05-1.35l3.1-2.6q1.2-1.3 3.75-1.85"/><path fill="url(#l)" d="M12.75 24l-1.1-2.6-.7-.7-1.75.05 1.4-3.8q-1.05 0-1.35.9V13l.7-.85-.7.85-1.85 2.45-.9.15-.5.25-.55-.1-.95-.9-.1-.6.35-.3q0 1.2 1.5.8l.95-.3L8.25 14q.55-.85.65-2v-1.75l-.55-.55-.15-.05-1.45.8-.25.25-1.05.35-2.15-.6-.9-.4-.4-1.5 2.95 1.2.5-.5L5.5 9l-.55-.6-.15-.05-1.4-.4H1.7L4.75 6.1 4.7 6q-.55-1.9 1.4-2.5l-.25 1.35.4.15-.3.75.85-.3 2.05.1.2-.4q.85-.6 1.8-1l-.6-.15 3.25-.85 1.6.15-.5.45 1.05.35-.1.25 1.2-.1.4.05-.4.35-.95.8 2.1 1.1q1.45.5 2.25 1.5l.65.5q-.4.25-.25.75l.5.7.55.4q-.95 0-.4.65l.1.05 1.2 1.2 1.4 1.55.75 1.2q.5 1.1.45 2.25l-.45 1.45.5 2.3 1.05-.65-.45 1.85.6.15 1.5-.2-.7.65-3.15 2.5-.05.1q-1.4.55-2.2 1.9L20.1 29.8q-.95 1.3-2.5 1.45l-1.85.1-1.25.1q-2 .05-2.05-1.8v-.25q.05-.85.65-1.2l1.55-.15.1.7.1.25q-.05 1.55 1.55 1.05.7-.25.65-1.05-.1-1.8-1.45-1.5l-1.2-.25-.55-.5.2-1.1q.25-.25.7-.35l-.15-.85q-.5.35-.65.85l-.75-.75-.45-.55m9-10.2q1.25.9 1.5 2.5l-.25.85 1.65 1.6-1.65-1.6.25-.85q-.25-1.6-1.5-2.5l-.3-.25.3.25m.8 4.7l-1.15-.7 1.15 2.55.1.7-.4 2.1q.55-.6.75-1.4.4-1.8-.45-3.25M10.65 5.2q.7-.35 1.5-.45l3.4-.4-3.4.4q-.8.1-1.5.45m.9.95v.15l.7.1q1-.6 2.1-1.05-1.8-.35-2.8.8m1.6 1.5v.05h.05l1.95 1.9-2.7-.2-.05 1.35-.2.95-.6.75q-.55.1-.85-.8-.15-.5-.55.2l-.25.3.15-.1-.2 1.85 2.15-.55.05 1.3.25-.2.8-1.35.5-1.2L15 13.15l.05.15v-.15l-1.1-2.45 3 1.2-.75-2.55 3.6.7q-1.1-.8-2.3-1.3-2.1-.8-4.3-1.25l-.05.15m2.8 13.65l-1.15 1.65Q13.5 23 12 21.7l-.35-.3.35.3q1.5 1.3 2.8 1.25l1.15-1.65m-4.6-14.05l4.45-1.8-4.45 1.8M7.4 8.35l1.15-.3.45-.7-.45.7-1.15.3m1.6-1l1.1-1.4q-1.2.05-2.2.8-.55.4-.65 1.05l.4.2.2-.1L9 7.35m6.9 8.35l.2.7q.45 1.2 1.6 1.7l.25 2.65q.2 1.7 1.9 2.1-1.7-1.05-1.35-3.1l.2-.45 2.1-.6-3.55-2.95-.7-1.15-.65 1.1m1.75 10.6l-.55-.05q-.6-.2-.9-.95-.9-.15-1.45 0 .55-.15 1.45 0 .3.75.9.95l.55.05q.75.7 1.85.45.5-.2.4-.8l-.1-.45.05-.95q.05-1.15.9-1.2l-.75-.4L18.6 26l-.95.3m2.2-3.45l.15.1-.15-.1"/><path fill="url(#m)" d="M19.85 22.85q-1.7-.4-1.9-2.1l-.25-2.65q-1.15-.5-1.6-1.7l-.2-.7.65-1.1.7 1.15 3.55 2.95-2.1.6-.2.45q-.35 2.05 1.35 3.1m-2.2 3.45l.95-.3 1.4-3.05.75.4q-.85.05-.9 1.2l-.05.95.1.45q.1.6-.4.8-1.1.25-1.85-.45m-2.05 1.2q1.35-.3 1.45 1.5.05.8-.65 1.05-1.6.5-1.55-1.05.15.45.5-.2.45-.95.25-1.3"/><path fill="url(#n)" d="M15.6 27.5q.2.35-.25 1.3-.35.65-.5.2l-.1-.25-.1-.7-1.55.15-.55-.65-.15-1q-.65.85-.4 1.7l.45 1.15v.25q.05 1.85 2.05 1.8l1.25-.1-.75 1.6q-.45 1.15-.6 2.45-.2 1.6 1.05 2.25-1.3 1.1-3 1.45l-.85.15 1.2-1.55q.35-.85.2-1.75l-.05-1.6.2-.9-2.15-2.2.45-1.15-1.4-.85.2-.65q1.4-2.1 2.95-4.05l.75.75q.15-.5.65-.85l.15.85q-.45.1-.7.35-1.1.35-.95 1.8 0-.6.75-.7l.55.5 1.2.25m7.6 11l1.8-1.05q.6 1.15.45 2.5l-.05.3-1.75 1.2.1-1.05q0-1-.55-1.9m-.65-20q.85 1.45.45 3.25-.2.8-.75 1.4l.4-2.1-.1-.7-1.15-2.55 1.15.7m3.4 9.05l-.95 1.3-1.75 1.5 3.45-.45-1.75 1.25-1.3.95-.5.55.95 1.15 1.75-.5 1.25-.55q.65-.4 1.2-.45l-.1.3 1.55.6q-.75 1.5-.85 3.3-.05 1.8.45 3.45l.85 2.65-1.15-1.5-1.45-3.75q-.6-1.3-.15-2.15l-.65.35q-1.8.45-2.25-1.6l-1.4.95q-1.6 1.1-3.55.9.3-1.6 1.2-1.8l1.25-1.25-1-.1q-2.1-.2-.75-1.2l.1-.05 4.4-3.15 1.15-.7"/><path fill="#101010" d="M20.2 45.1l.9 1.2-.9.35V45.1m2.35 1.1v-.15l1.1.95-1.15.85.05-1.65m-11-40.05q1-1.15 2.8-.8-1.1.45-2.1 1.05l-.7-.1v-.15M13.1 28.2q-.6.35-.65 1.2L12 28.25q-.25-.85.4-1.7l.15 1 .55.65m.75-1.45q-.75.1-.75.7-.15-1.45.95-1.8l-.2 1.1M.2 44.3l.65 1.1-.85.25.2-1.35M2 45.35l.15-.6.85 1.1-1.1.25.1-.75"/><path fill="none" stroke="#000" stroke-width=".05" stroke-linecap="round" stroke-linejoin="round" d="M23.65 41.45l-.7 1.15q-2.25-.1-2.65 2l-.1.3m1.55-31.1l-.3-.25M20 22.95l-.15-.1M23.2 38.5q.55.9.55 1.9l-.1 1.05"/><path fill="none" stroke="#551E00" stroke-width=".05" stroke-linecap="round" stroke-linejoin="round" d="M27.15 22.85L24 25.35l-.05.1q-1.4.55-2.2 1.9L20.1 29.8q-.95 1.3-2.5 1.45l-1.85.1-.75 1.6q-.45 1.15-.6 2.45-.2 1.6 1.05 2.25l1.05.35 5.3.8 1.4-.3 1.8-1.05m-.35-18.7l.5 2.3 1.05-.65-.45 1.85.6.15 1.5-.2-.7.65m-2.5-4.1L23 17.15l.25-.85q-.25-1.6-1.5-2.5m-5.85 1.9l.2.7q.45 1.2 1.6 1.7l.25 2.65q.2 1.7 1.9 2.1m-5.1 2.45q.55-.15 1.45 0 .3.75.9.95l.55.05.95-.3 1.4-3.05m-4.4 4.55q.2.35-.25 1.3-.35.65-.5.2m-.1-.25l-.1-.7-1.55.15m-.65 1.2v.25q.05 1.85 2.05 1.8l1.25-.1m-1.7-5.7q.25-.25.7-.35m-.9 1.45l.55.5 1.2.25"/><path fill="none" stroke="#A20E00" stroke-width=".05" stroke-linecap="round" stroke-linejoin="round" d="M25.95 27.55L26.1 26q1.2.15 1.75-.55 1.45-1.85 3.35-.4 1.45 1.1 2.05 3.2.45 1.65 1.95 2.55l.5.25q1.95.8 4.2.75l.5-.05q1.8-.15 3.4-.95 2.2-1.15 1.3-3.4-.7-1.8-2.3-2.9l-3.15-2-.65-.55-.6-.8L38 20q-.35-1.75.65-2.35l1.2-.25q.3.5.8.2 1.45-.95 2.1-2.75.65-1.75 2.45-2.3l3.3-.35-2.2-.65-3.7-.2q-3.65.45-5.55 3.65l1.75 1.1q-.65.15-1.2.45-1.1.65-1.5 2.1-.4 1.45.2 2.65l.75 1 3 2.85q2.1 1.8.05 3.15-1.7 1.15-3.9.7-2.7-.6-1.85-2.95.15-.45-.1-.9-.95-1.5-3.35-1.95l-.55-.1-3.2-.25m-6.95 22.2v.05m.9 1.2l1.45-.1v-.15l.2-1.8q.3-2.3 2.75-2.4m4.7.75l-.85-2.65q-.5-1.65-.45-3.45.1-1.8.85-3.3l-1.55-.6.1-.3q-.55.05-1.2.45l-1.25.55-1.75.5-.95-1.15.5-.55 1.3-.95 1.75-1.25-3.45.45 1.75-1.5.95-1.3M30.2 42.6l-.25 1.25-4.75 2.7-1.55.45"/><path fill="none" stroke="#FF5782" stroke-width=".05" stroke-linecap="round" stroke-linejoin="round" d="M9.25 13v4.85q.3-.9 1.35-.9l-1.4 3.8 1.75-.05.7.7.35.3q1.5 1.3 2.8 1.25l1.15-1.65m-4.3.1l1.1 2.6.45.55.75.75q.15-.5.65-.85l.15.85"/><path fill="none" stroke="#101010" stroke-width=".05" stroke-linecap="round" stroke-linejoin="round" d="M11.55 6.15v.15l.7.1q1-.6 2.1-1.05-1.8-.35-2.8.8M13.1 28.2q-.6.35-.65 1.2m1.4-2.65q-.75.1-.75.7-.15-1.45.95-1.8l-.2 1.1m-.75 1.45l-.55-.65-.15-1q-.65.85-.4 1.7l.45 1.15M2 45.35l.15-.6m-.15.6l-.1.75 1.1-.25M.2 44.3L0 45.65l.85-.25m19.35-.3v1.55l.9-.35m2.55.7l-1.15.85.05-1.65"/><path fill="none" stroke="#962222" stroke-width=".05" stroke-linecap="round" stroke-linejoin="round" d="M12.75 24q-2.55.55-3.75 1.85l-3.1 2.6q-.85.6-1.05 1.35-.25.95.45 2.15l.4.6q.9 1.25 2.45 2 1.9.9 1.35 2l-1 1.4-4.25 3.15-.05.25q-.45 1.45-2.4.9Q.6 43.1.2 44.3m.65 1.1L2 45.35m1 .5l4.1-.5.7-1.3.1-1.1q.2-.9.75-1.6l1.8-1.5q.55-.35 1.15-.6l.85-.15q1.7-.35 3-1.45"/><path fill="none" stroke="#842828" stroke-width=".05" stroke-linecap="round" stroke-linejoin="round" d="M9.95 12.15l-.7.85M2 8.55l.4 1.5.9.4 2.15.6 1.05-.35.25-.25 1.45-.8m.7.6V12q-.1 1.15-.65 2l-1.05.45-.95.3q-1.5.4-1.5-.8l-.35.3.1.6.95.9.55.1.5-.25.9-.15L9.25 13m-3.3-.5l-1.2 1.45"/><path fill="none" stroke="#9A1B00" stroke-width=".05" stroke-linecap="round" stroke-linejoin="round" d="M13.15 7.65l.05-.15q2.2.45 4.3 1.25 1.2.5 2.3 1.3l-3.6-.7.75 2.55-3-1.2 1.1 2.45v.15l-.05-.15-1.35-1.25-.5 1.2-.8 1.35-.25.2-.05-1.3-2.15.55.2-1.85-.15.1m.25-.3l-.1.2"/><path fill="none" stroke="#451800" stroke-width=".05" stroke-linecap="round" stroke-linejoin="round" d="M26.35 22.4l.8-3.25-1.85.25 1.55-2.5-1-.15 1-.95-1.95-2.25 1.45.4-3.25-3.15h2.7q-1.1-1.35-2.6-2.35L19.95 6.3l.95-.45-4.15-1.2-.95.8-4.45 1.8m2.15-4.1l5.65-.35-2.85-.7-1.3-.3h-2.65l-1.4.3L12.7 0l-1.3.25q-.55.25-1.05.6l-2.8 1.9-1.1.7-.3-.1-.05.15-.25 1.35.4.15-.3.75.85-.3 2.05.1.2-.4q.85-.6 1.8-1l-.6-.15 3.25-.85 1.6.15-.5.45 1.05.35-.1.25 1.2-.1.4.05-.4.35m-1.2-.3l-3.4.4q-.8.1-1.5.45m-3.1-2.45l-.25-.4V1.7l-.85 1.75m-.35.05Q4.15 4.1 4.7 6l.05.1L1.7 7.95h1.7l1.4.4m.15.05l.55.6-.05.25-.5.5L2 8.55m-.3-.6l.1.45.2.15"/><path fill="none" stroke="#3A1400" stroke-width=".05" stroke-linecap="round" stroke-linejoin="round" d="M9 7.35l-.45.7-1.15.3m1.6-1l-1.15.55-.2.1-.4-.2q.1-.65.65-1.05 1-.75 2.2-.8L9 7.35"/><path fill="none" stroke="#D0D0D0" stroke-width=".05" stroke-linecap="round" stroke-linejoin="round" d="M8.35 9.7l.55.55-.3.05-.3-.25-.2.4L8 10l-.35.45-.4-.2L7 11l-.25-.55m-4.35-.4L3.55 12l-.25-1.55m3.05 2l-.2.35-.2-.3m-.5-1.45l.5 1.45m.4-.05l.15-1.75"/><path fill="none" stroke="#DF2C2C" stroke-width=".05" stroke-linecap="round" stroke-linejoin="round" d="M6.15 12.8l-.9 1.2q.7.95 1.85.15L8.2 13l-.45-.55-.45.25q-.3-.55-.8-.35l-.15.1"/></svg>