<svg xmlns="http://www.w3.org/2000/svg" viewBox="0 -0.1 100.0 97.1" width="100" height="97.1"><defs><radialGradient gradientUnits="userSpaceOnUse" r="819.2" cx="0" cy="0" spreadMethod="pad" gradientTransform="matrix(-.018 0 0 .018 75.45 10.6)" id="a"><stop offset="0" stop-color="#fff"/><stop offset="1"/></radialGradient><radialGradient gradientUnits="userSpaceOnUse" r="819.2" cx="0" cy="0" spreadMethod="pad" gradientTransform="matrix(-.009 0 0 .009 88.3 13.25)" id="b"><stop offset="0" stop-color="#fff"/><stop offset="1"/></radialGradient><radialGradient gradientUnits="userSpaceOnUse" r="819.2" cx="0" cy="0" spreadMethod="pad" gradientTransform="matrix(-.009 0 0 .009 92.65 17.3)" id="c"><stop offset="0" stop-color="#fff"/><stop offset="1"/></radialGradient><radialGradient gradientUnits="userSpaceOnUse" r="819.2" cx="0" cy="0" spreadMethod="pad" gradientTransform="matrix(-.01 0 0 .01 88.9 24.75)" id="d"><stop offset="0" stop-color="#fff"/><stop offset="1"/></radialGradient><radialGradient gradientUnits="userSpaceOnUse" r="819.2" cx="0" cy="0" spreadMethod="pad" gradientTransform="matrix(-.002 0 0 .002 91.8 20.9)" id="e"><stop offset="0" stop-color="#fff"/><stop offset="1"/></radialGradient><radialGradient gradientUnits="userSpaceOnUse" r="819.2" cx="0" cy="0" spreadMethod="pad" gradientTransform="matrix(-.012 0 0 .012 86.25 41.75)" id="f"><stop offset="0" stop-color="#fff"/><stop offset="1"/></radialGradient><radialGradient gradientUnits="userSpaceOnUse" r="819.2" cx="0" cy="0" spreadMethod="pad" gradientTransform="matrix(-.008 0 0 .008 85.35 33.65)" id="g"><stop offset="0" stop-color="#fff"/><stop offset="1"/></radialGradient><radialGradient gradientUnits="userSpaceOnUse" r="819.2" cx="0" cy="0" spreadMethod="pad" gradientTransform="matrix(-.01 0 0 .01 84.45 31)" id="h"><stop offset="0" stop-color="#fff"/><stop offset="1"/></radialGradient><radialGradient gradientUnits="userSpaceOnUse" r="819.2" cx="0" cy="0" spreadMethod="pad" gradientTransform="matrix(-.009 0 0 .009 85.45 53.95)" id="i"><stop offset="0" stop-color="#fff"/><stop offset="1"/></radialGradient><radialGradient gradientUnits="userSpaceOnUse" r="819.2" cx="0" cy="0" spreadMethod="pad" gradientTransform="matrix(-.014 0 0 .014 90.1 41.2)" id="j"><stop offset="0" stop-color="#fff"/><stop offset="1"/></radialGradient><radialGradient gradientUnits="userSpaceOnUse" r="819.2" cx="0" cy="0" spreadMethod="pad" gradientTransform="matrix(-.013 0 0 .013 81.4 61.45)" id="k"><stop offset="0" stop-color="#fff"/><stop offset="1"/></radialGradient><radialGradient gradientUnits="userSpaceOnUse" r="819.2" cx="0" cy="0" spreadMethod="pad" gradientTransform="matrix(-.022 0 0 .022 78.5 67.1)" id="l"><stop offset="0" stop-color="#fff"/><stop offset="1"/></radialGradient><radialGradient gradientUnits="userSpaceOnUse" r="819.2" cx="0" cy="0" spreadMethod="pad" gradientTransform="matrix(-.002 0 0 .002 87.25 68)" id="m"><stop offset="0" stop-color="#fff"/><stop offset="1"/></radialGradient><radialGradient gradientUnits="userSpaceOnUse" r="819.2" cx="0" cy="0" spreadMethod="pad" gradientTransform="matrix(-.021 0 0 .021 77.25 87.4)" id="n"><stop offset="0" stop-color="#fff"/><stop offset="1"/></radialGradient><radialGradient gradientUnits="userSpaceOnUse" r="819.2" cx="0" cy="0" spreadMethod="pad" gradientTransform="matrix(-.008 0 0 .008 60.8 5.85)" id="o"><stop offset="0" stop-color="#fff"/><stop offset="1"/></radialGradient><radialGradient gradientUnits="userSpaceOnUse" r="819.2" cx="0" cy="0" spreadMethod="pad" gradientTransform="matrix(-.005 0 0 .005 73.45 21.2)" id="p"><stop offset="0" stop-color="#fff"/><stop offset="1"/></radialGradient><radialGradient gradientUnits="userSpaceOnUse" r="819.2" cx="0" cy="0" spreadMethod="pad" gradientTransform="matrix(-.005 0 0 .009 57.05 4.55)" id="q"><stop offset="0" stop-color="#fff"/><stop offset="1"/></radialGradient><radialGradient gradientUnits="userSpaceOnUse" r="819.2" cx="0" cy="0" spreadMethod="pad" gradientTransform="matrix(-.003 0 0 .003 54.55 6.95)" id="r"><stop offset="0" stop-color="#fff"/><stop offset="1"/></radialGradient><radialGradient gradientUnits="userSpaceOnUse" r="819.2" cx="0" cy="0" spreadMethod="pad" gradientTransform="matrix(-.004 0 0 .004 52.65 6.35)" id="s"><stop offset="0" stop-color="#fff"/><stop offset="1"/></radialGradient><radialGradient gradientUnits="userSpaceOnUse" r="819.2" cx="0" cy="0" spreadMethod="pad" gradientTransform="matrix(-.003 0 0 .003 53.05 9.9)" id="t"><stop offset="0" stop-color="#fff"/><stop offset="1"/></radialGradient><radialGradient gradientUnits="userSpaceOnUse" r="819.2" cx="0" cy="0" spreadMethod="pad" gradientTransform="matrix(-.009 0 0 .009 44.95 15.25)" id="u"><stop offset="0" stop-color="#fff"/><stop offset="1"/></radialGradient><radialGradient gradientUnits="userSpaceOnUse" r="819.2" cx="0" cy="0" spreadMethod="pad" gradientTransform="matrix(-.005 0 0 .005 57.05 11.6)" id="v"><stop offset="0" stop-color="#fff"/><stop offset="1"/></radialGradient><radialGradient gradientUnits="userSpaceOnUse" r="819.2" cx="0" cy="0" spreadMethod="pad" gradientTransform="matrix(-.009 0 0 .009 56.85 30.3)" id="w"><stop offset="0" stop-color="#fff"/><stop offset="1"/></radialGradient><radialGradient gradientUnits="userSpaceOnUse" r="819.2" cx="0" cy="0" spreadMethod="pad" gradientTransform="matrix(-.009 0 0 .009 55.95 33.95)" id="x"><stop offset="0" stop-color="#fff"/><stop offset="1"/></radialGradient><radialGradient gradientUnits="userSpaceOnUse" r="819.2" cx="0" cy="0" spreadMethod="pad" gradientTransform="matrix(-.007 0 0 .007 42.65 29.6)" id="y"><stop offset="0" stop-color="#fff"/><stop offset="1"/></radialGradient><radialGradient gradientUnits="userSpaceOnUse" r="819.2" cx="0" cy="0" spreadMethod="pad" gradientTransform="matrix(-.007 0 0 .007 41.5 34.05)" id="z"><stop offset="0" stop-color="#fff"/><stop offset="1"/></radialGradient><radialGradient gradientUnits="userSpaceOnUse" r="819.2" cx="0" cy="0" spreadMethod="pad" gradientTransform="matrix(-.006 0 0 .006 42.4 27.2)" id="A"><stop offset="0" stop-color="#fff"/><stop offset="1"/></radialGradient><radialGradient gradientUnits="userSpaceOnUse" r="819.2" cx="0" cy="0" spreadMethod="pad" gradientTransform="matrix(-.005 0 0 .005 49.6 36.9)" id="B"><stop offset="0" stop-color="#fff"/><stop offset="1"/></radialGradient><radialGradient gradientUnits="userSpaceOnUse" r="819.2" cx="0" cy="0" spreadMethod="pad" gradientTransform="matrix(-.005 0 0 .005 53.35 41.1)" id="C"><stop offset="0" stop-color="#fff"/><stop offset="1"/></radialGradient><radialGradient gradientUnits="userSpaceOnUse" r="819.2" cx="0" cy="0" spreadMethod="pad" gradientTransform="matrix(-.006 0 0 .006 53.35 44.15)" id="D"><stop offset="0" stop-color="#fff"/><stop offset="1"/></radialGradient><radialGradient gradientUnits="userSpaceOnUse" r="819.2" cx="0" cy="0" spreadMethod="pad" gradientTransform="matrix(-.006 0 0 .006 52.95 48.4)" id="E"><stop offset="0" stop-color="#fff"/><stop offset="1"/></radialGradient><radialGradient gradientUnits="userSpaceOnUse" r="819.2" cx="0" cy="0" spreadMethod="pad" gradientTransform="matrix(-.009 0 0 .009 65.45 34.35)" id="F"><stop offset="0" stop-color="#fff"/><stop offset="1"/></radialGradient><radialGradient gradientUnits="userSpaceOnUse" r="819.2" cx="0" cy="0" spreadMethod="pad" gradientTransform="matrix(-.005 0 0 .005 58.3 41)" id="G"><stop offset="0" stop-color="#fff"/><stop offset="1"/></radialGradient><radialGradient gradientUnits="userSpaceOnUse" r="819.2" cx="0" cy="0" spreadMethod="pad" gradientTransform="matrix(-.012 0 0 .012 62.65 41)" id="H"><stop offset="0" stop-color="#fff"/><stop offset="1"/></radialGradient><radialGradient gradientUnits="userSpaceOnUse" r="819.2" cx="0" cy="0" spreadMethod="pad" gradientTransform="matrix(-.012 0 0 .012 67.7 43.55)" id="I"><stop offset="0" stop-color="#fff"/><stop offset="1"/></radialGradient><radialGradient gradientUnits="userSpaceOnUse" r="819.2" cx="0" cy="0" spreadMethod="pad" gradientTransform="matrix(-.014 0 0 .014 68.3 55.65)" id="J"><stop offset="0" stop-color="#fff"/><stop offset="1"/></radialGradient><radialGradient gradientUnits="userSpaceOnUse" r="819.2" cx="0" cy="0" spreadMethod="pad" gradientTransform="matrix(-.011 0 0 .011 69.7 53.45)" id="K"><stop offset="0" stop-color="#fff"/><stop offset="1"/></radialGradient><radialGradient gradientUnits="userSpaceOnUse" r="819.2" cx="0" cy="0" spreadMethod="pad" gradientTransform="matrix(-.015 0 0 .015 44.65 82.45)" id="L"><stop offset="0" stop-color="#fff"/><stop offset="1"/></radialGradient><radialGradient gradientUnits="userSpaceOnUse" r="819.2" cx="0" cy="0" spreadMethod="pad" gradientTransform="matrix(-.015 0 0 .015 67.15 70.85)" id="M"><stop offset="0" stop-color="#fff"/><stop offset="1"/></radialGradient><radialGradient gradientUnits="userSpaceOnUse" r="819.2" cx="0" cy="0" spreadMethod="pad" gradientTransform="matrix(-.011 0 0 .011 51.2 58.6)" id="N"><stop offset="0" stop-color="#fff"/><stop offset="1"/></radialGradient><radialGradient gradientUnits="userSpaceOnUse" r="819.2" cx="0" cy="0" spreadMethod="pad" gradientTransform="matrix(-.017 0 0 .017 53.85 68.9)" id="O"><stop offset="0" stop-color="#fff"/><stop offset="1"/></radialGradient><radialGradient gradientUnits="userSpaceOnUse" r="819.2" cx="0" cy="0" spreadMethod="pad" gradientTransform="matrix(-.01 0 0 .01 44.25 68.2)" id="P"><stop offset="0" stop-color="#fff"/><stop offset="1"/></radialGradient><radialGradient gradientUnits="userSpaceOnUse" r="819.2" cx="0" cy="0" spreadMethod="pad" gradientTransform="matrix(-.004 0 0 .004 43.85 76.1)" id="Q"><stop offset="0" stop-color="#fff"/><stop offset="1"/></radialGradient><radialGradient gradientUnits="userSpaceOnUse" r="819.2" cx="0" cy="0" spreadMethod="pad" gradientTransform="matrix(-.008 0 0 .008 57.9 81.05)" id="R"><stop offset="0" stop-color="#fff"/><stop offset="1"/></radialGradient><radialGradient gradientUnits="userSpaceOnUse" r="819.2" cx="0" cy="0" spreadMethod="pad" gradientTransform="matrix(-.016 0 0 .016 47.35 68.3)" id="S"><stop offset="0" stop-color="#fff"/><stop offset="1"/></radialGradient><radialGradient gradientUnits="userSpaceOnUse" r="819.2" cx="0" cy="0" spreadMethod="pad" gradientTransform="matrix(-.031 0 0 .031 73.95 91.95)" id="T"><stop offset="0" stop-color="#fff"/><stop offset="1"/></radialGradient><radialGradient gradientUnits="userSpaceOnUse" r="819.2" cx="0" cy="0" spreadMethod="pad" gradientTransform="matrix(.023 0 0 .023 56.3 20.05)" id="U"><stop offset="0" stop-color="#fff"/><stop offset="1"/></radialGradient><radialGradient gradientUnits="userSpaceOnUse" r="819.2" cx="0" cy="0" spreadMethod="pad" gradientTransform="matrix(-.005 0 0 .005 42.95 21.4)" id="V"><stop offset="0" stop-color="#fff"/><stop offset="1"/></radialGradient><radialGradient gradientUnits="userSpaceOnUse" r="819.2" cx="0" cy="0" spreadMethod="pad" gradientTransform="matrix(-.009 0 0 .009 41.7 39.7)" id="W"><stop offset="0" stop-color="#fff"/><stop offset="1"/></radialGradient><linearGradient gradientUnits="userSpaceOnUse" x1="-819.2" x2="819.2" gradientTransform="matrix(-.005 .002 .002 .007 44.55 51.05)" id="X"><stop offset=".247" stop-color="#900"/><stop offset=".376" stop-color="#fff"/><stop offset="1" stop-color="#630"/></linearGradient><radialGradient gradientUnits="userSpaceOnUse" r="819.2" cx="0" cy="0" spreadMethod="pad" gradientTransform="matrix(-.002 0 0 .002 20.6 12.25)" id="Y"><stop offset="0" stop-color="#8F8F8F"/><stop offset=".51" stop-color="#fff"/><stop offset="1"/></radialGradient><radialGradient gradientUnits="userSpaceOnUse" r="819.2" cx="0" cy="0" spreadMethod="pad" gradientTransform="matrix(-.002 0 0 .002 22.95 12)" id="Z"><stop offset="0" stop-color="#8F8F8F"/><stop offset=".51" stop-color="#fff"/><stop offset="1"/></radialGradient><radialGradient gradientUnits="userSpaceOnUse" r="819.2" cx="0" cy="0" spreadMethod="pad" gradientTransform="matrix(-.002 0 0 .002 25.75 13.15)" id="aa"><stop offset="0" stop-color="#8F8F8F"/><stop offset=".51" stop-color="#fff"/><stop offset="1"/></radialGradient><radialGradient gradientUnits="userSpaceOnUse" r="819.2" cx="0" cy="0" spreadMethod="pad" gradientTransform="matrix(-.002 0 0 .002 27.6 15.15)" id="ab"><stop offset="0" stop-color="#8F8F8F"/><stop offset=".51" stop-color="#fff"/><stop offset="1"/></radialGradient><linearGradient gradientUnits="userSpaceOnUse" x1="-819.2" x2="819.2" gradientTransform="matrix(-.002 .001 .005 .01 34.65 25.95)" id="ac"><stop offset=".247" stop-color="#900"/><stop offset=".376" stop-color="#fff"/><stop offset="1" stop-color="#630"/></linearGradient><linearGradient gradientUnits="userSpaceOnUse" x1="-819.2" x2="819.2" gradientTransform="matrix(-.004 .002 .004 .01 31.8 28.2)" id="ad"><stop offset=".247" stop-color="#900"/><stop offset=".376" stop-color="#fff"/><stop offset="1" stop-color="#630"/></linearGradient><radialGradient gradientUnits="userSpaceOnUse" r="819.2" cx="0" cy="0" spreadMethod="pad" gradientTransform="matrix(-.002 0 0 .002 18.4 13.35)" id="ae"><stop offset="0" stop-color="#8F8F8F"/><stop offset=".51" stop-color="#fff"/><stop offset="1"/></radialGradient><radialGradient gradientUnits="userSpaceOnUse" r="819.2" cx="0" cy="0" spreadMethod="pad" gradientTransform="matrix(-.002 0 0 .002 16.15 15.55)" id="af"><stop offset="0" stop-color="#8F8F8F"/><stop offset=".51" stop-color="#fff"/><stop offset="1"/></radialGradient><radialGradient gradientUnits="userSpaceOnUse" r="819.2" cx="0" cy="0" spreadMethod="pad" gradientTransform="matrix(-.002 0 0 .002 15.15 17.6)" id="ag"><stop offset="0" stop-color="#8F8F8F"/><stop offset=".51" stop-color="#fff"/><stop offset="1"/></radialGradient><radialGradient gradientUnits="userSpaceOnUse" r="819.2" cx="0" cy="0" spreadMethod="pad" gradientTransform="matrix(-.002 0 0 .002 14.15 20.1)" id="ah"><stop offset="0" stop-color="#8F8F8F"/><stop offset=".51" stop-color="#fff"/><stop offset="1"/></radialGradient><radialGradient gradientUnits="userSpaceOnUse" r="819.2" cx="0" cy="0" spreadMethod="pad" gradientTransform="matrix(-.002 0 0 .002 14.25 23.05)" id="ai"><stop offset="0" stop-color="#8F8F8F"/><stop offset=".51" stop-color="#fff"/><stop offset="1"/></radialGradient><radialGradient gradientUnits="userSpaceOnUse" r="819.2" cx="0" cy="0" spreadMethod="pad" gradientTransform="matrix(-.002 0 0 .002 14.55 26.15)" id="aj"><stop offset="0" stop-color="#8F8F8F"/><stop offset=".51" stop-color="#fff"/><stop offset="1"/></radialGradient><radialGradient gradientUnits="userSpaceOnUse" r="819.2" cx="0" cy="0" spreadMethod="pad" gradientTransform="matrix(-.002 0 0 .002 15.45 28.2)" id="ak"><stop offset="0" stop-color="#8F8F8F"/><stop offset=".51" stop-color="#fff"/><stop offset="1"/></radialGradient><radialGradient gradientUnits="userSpaceOnUse" r="819.2" cx="0" cy="0" spreadMethod="pad" gradientTransform="matrix(-.002 0 0 .002 16.35 31)" id="al"><stop offset="0" stop-color="#8F8F8F"/><stop offset=".51" stop-color="#fff"/><stop offset="1"/></radialGradient><radialGradient gradientUnits="userSpaceOnUse" r="819.2" cx="0" cy="0" spreadMethod="pad" gradientTransform="matrix(-.002 0 0 .002 17.7 32.75)" id="am"><stop offset="0" stop-color="#8F8F8F"/><stop offset=".51" stop-color="#fff"/><stop offset="1"/></radialGradient><radialGradient gradientUnits="userSpaceOnUse" r="819.2" cx="0" cy="0" spreadMethod="pad" gradientTransform="matrix(-.002 0 0 .002 18 35.25)" id="an"><stop offset="0" stop-color="#8F8F8F"/><stop offset=".51" stop-color="#fff"/><stop offset="1"/></radialGradient><radialGradient gradientUnits="userSpaceOnUse" r="819.2" cx="0" cy="0" spreadMethod="pad" gradientTransform="matrix(.002 0 0 .002 18.9 40)" id="ao"><stop offset="0" stop-color="#8F8F8F"/><stop offset=".51" stop-color="#fff"/><stop offset="1"/></radialGradient><radialGradient gradientUnits="userSpaceOnUse" r="819.2" cx="0" cy="0" spreadMethod="pad" gradientTransform="matrix(.002 0 0 .002 18.1 43.25)" id="ap"><stop offset="0" stop-color="#8F8F8F"/><stop offset=".51" stop-color="#fff"/><stop offset="1"/></radialGradient><radialGradient gradientUnits="userSpaceOnUse" r="819.2" cx="0" cy="0" spreadMethod="pad" gradientTransform="matrix(.002 0 0 .002 18 46.2)" id="aq"><stop offset="0" stop-color="#8F8F8F"/><stop offset=".51" stop-color="#fff"/><stop offset="1"/></radialGradient><radialGradient gradientUnits="userSpaceOnUse" r="819.2" cx="0" cy="0" spreadMethod="pad" gradientTransform="matrix(-.014 0 0 .014 17.8 58.6)" id="ar"><stop offset="0" stop-color="#8F8F8F"/><stop offset="1"/></radialGradient><linearGradient gradientUnits="userSpaceOnUse" x1="-819.2" x2="819.2" gradientTransform="matrix(-.007 0 0 .006 43.95 59)" id="as"><stop offset=".247" stop-color="#979797"/><stop offset=".376" stop-color="#fff"/><stop offset="1"/></linearGradient><radialGradient gradientUnits="userSpaceOnUse" r="819.2" cx="0" cy="0" spreadMethod="pad" gradientTransform="matrix(-.01 0 0 .01 21.1 58.1)" id="at"><stop offset="0" stop-color="#8F8F8F"/><stop offset="1"/></radialGradient><radialGradient gradientUnits="userSpaceOnUse" r="819.2" cx="0" cy="0" spreadMethod="pad" gradientTransform="matrix(-.006 0 0 .006 20.2 58.7)" id="au"><stop offset="0" stop-color="#8F8F8F"/><stop offset="1"/></radialGradient><radialGradient gradientUnits="userSpaceOnUse" r="819.2" cx="0" cy="0" spreadMethod="pad" gradientTransform="matrix(-.008 0 0 .008 11.2 63.65)" id="av"><stop offset="0" stop-color="#8F8F8F"/><stop offset="1"/></radialGradient><radialGradient gradientUnits="userSpaceOnUse" r="819.2" cx="0" cy="0" spreadMethod="pad" gradientTransform="matrix(.002 0 0 .002 19.15 37.75)" id="aw"><stop offset="0" stop-color="#8F8F8F"/><stop offset=".51" stop-color="#fff"/><stop offset="1"/></radialGradient></defs><path d="M88.6 4.65l4.85-.9h.1q1.8-.5 3.3-1.35l-1.8 2.15-2.2 1.6L89.4 8l-.1-.95-.7-2.4m2.3 6.95l1.85.95.3.2q1.8.9 3.5 1.5l-2.8.1-2.25.4-1.4.6.4-.5q.8-.8.7-2l-.3-1.25m3.05 4.85l4.25 2.45 1.8.7-5.25.3-1.3.2.6-2.1-.1-1.55m.2 7.9l1.1 2q.9 1.85 2.65 2.75l-2.25-.5-2.9-.2.2-.3q1.1-1.1 1.2-2.75v-1M91 32.55l5.45-.5-.5 2.8v.2l-.4 2.75-.4 1.5-1.4 8-.1.1-1.45 3-.1.1h.1v.1l-.3 4.15-.3-.3q-1.1-.8-2.5-1l-3.15-.1q-1.3.1-1.7-.7-.2-.4-.1-1l.1-.5.2-.1 2.9-.65 1.05-.6.1-.1h-.1l-3.55.4h-1.1l.8-.6.7-.4 1.3-1.2 2.55-4.45 1.1-3.85.1-.9h.1l-.1.9q-.2 3.65 1.5 6.35l1.15-2.9.3-3.15v-.5l-.3-2.3V37l-.2-1.95q-.1-1.9-1.85-1.2-1.3.5-1.6-.4 1.2-.3 1.7-.9M88.4 67.3l-.7.8-.75.9-.1-.1-.7-1.8 2.25.2m1.7 6.95l2.75 6-2.15.1-3.55.1 2.65-4.75.3-1.45m3.45 13.35v.2l2 3.95q1.2 2.1 3.15 3.75l-8.8 1-3.75-.7-5.65-2.35q-2.4-.9-4.05.6-.7.75-.9 2.05-.3 1.2-2.4.9l-23.85-.5 1.9-1q2.15-.95 3.55-2.95l1.3-1.4 1-.4q1.15-.6 2.75-.9l2.95-.65v.1l-1.05 1.65-.6 1.5.4.2 4.55 1q1.1 1.55 3.45.8l5.25-1 .4-.4-.2-.6-1.2-.8-.4-.2-.1-.1 4.1-.1 9.4.7 4.25-.6-1.6-1.85-1.8-1.3-2.55-1.4 8.2.8h.3M69.5 82.75l.3-1.2 2.4-2.45-.1-2.1-.4-1.4-2-4.25v-.1l-4.25-5.05-3.15-5.6-.1-.3-.2-.3.4-3.5q.45-2.55 1.45-4.85.2-.5.9.4l2 1.7.7 3.85.15.3.3 1.8.8 2.25.2.3 2 3.65 4.95 5.95.9.8.4.5 1.45 2.55.1.3.1 1.8-.3 1.2 3.7 1.25-.4.3-.1.1-7.15 4.75h-.1l-3.95 1.9-3.55 1.2L69.2 87l.5-.9.1-.5v-.5l.1-.35-.4-2m-7.8 2.85l-.1.3v.1q-.2 1.7-3.4 1.2l-.85-.1-5.25-1.8q-1.8-.85-2 .4l-.1.5-.1.2q-.6 2.1-2.65 2.1l-11.7-.2q-2.2 0-3.95-1.3l-3.4-2.35q-2.45-1.2-4.65-1.5l10.4-.9.7-.2-1.2.9-.6.2 1.1 2.45.1 1 6.05-.5q4.25-.6 8.5-.1 1.1.1 1.3-.6l.1-.85v-.2l-.2-.7 2.85-.1q1.3 0 2.1.9l.4.3h.7l.4-.4.2-.7v-.4l3.95 2.05 1.3.3m-20-24.05l-.4.6.2-1.55 1.35-4.2.6 1.2.8 1-1.3 1.3 1.3-1.3.7 1.3-.7-1.3q1-1 2.2-1.7 1.45-.9 2.55.6l-1.2 3.1q-.75 3.05-.35 6.3l.85 3.4 1.4 2.65q1.8 2.55 2 5.85v.2l-.6 1.15q-2.2 3.1-6.35 3.7l-4.15.7q-2.5.65-5.05 0l7.1-3.3 1.9-1.35.5-.6.5-.9 3.05.6 2 .8.5.35-.5-.35-2-.8-3.05-.6.4-1.6.1-.2h-.1q1.1-3.55.5-7l-.7-2.5-2.5-6.5-.3-.7-.65.7-.6.95m39.5-56.5l-2.3-.2-1-.4 2.2-.5.8-.4.3-.2v1.7M68.9 1.9l-2.55.3.1-.3.8-1.8 1.65 1.8m-7.4 14.05l.5.9.95.85.6.2-2.85 2.5-1.8 2.35-.1.2-1.1 1.6 3.8-8.6m8 .7L71.1 18l-.3 1.9V21q.2 1.95 1.95 2.45l.5.1.1.1 2.4 1.2q-.4-.7-.5-1.5l.2-1.95.6-1v-.1l-.4-.4q-.2-.3-.1-.8h-.1q-1.3.1-1.7-1l-.4-.5 1.5-1.65 4.35-3.5v2l.6.5 3.75.8h.3l-.2.1-2.35 1.45-1.2 1.5 2.3-.3.15.4.7.5 4.45.5-1.55.4-2.7 1.1-1.65.85h-1.2l-1.6-.2-.5.7v.6l.5.8q1.2.9 2.7 1l6.4.2-4.45 1.3-3.85.35 1.3 1.7q-1.7-.2-3.1-1.2l-.75-.6.75 1.7-.95-.3q-.2 1.9-1.5 3.55l-2.8 2.5-.2.1-.55.5-.4-.8-2.3-2.85-.7-.7-.3-1-.85-1.3-1.4-1.5 2.65 1 2.4 1.4.3.1q1-.7.6-2.3l-.6-1.05-.6-.6-.3-.5-.2-.6q-.8-.8-1.1-2-.2-1.15-.1-2.35l.4-3.25M82.3 36.8l.25-.2 3-1.95 2.75-.9-.7 3.75-.95 2.2v.1l-.3.4-2.7 6.6-.9-6.7v-.3l-.45-3m-4.1 25.65q.9.9 2.9-.6.9-.7.6-2.85l.3.1.95.6 1.3 1.55 1.2 2.7q.7 1.65-1.6 1.4h-.3l-2.35.75-1.3-.1-1.2-.85q-.6-.6-.5-1.5v-1.2M85.75 70v.1q-1 2.25-2.8 3.15l-2.65 1 2-2.1 1.05-2.75v.1l2.4.5m-6.35-1.2h-.6l-1.35.6.15-3.95 1.8 3.35M76.15 7.9l-.6.5-2 2.5Q72.3 12.55 72 14.45v.2l-.2.8-.3-.3-.4-.5q-1.6-1.7-4.45-1.6-1.1.1-2.3 1l3.1-3.45.85-1.2.1-.2.4-1.1.2-1.45 1.9 1.15 3.15.3 2.1-.2m-19.5 5.65l-.9-.8 2.05-1.55-1.15 2.35m-1.3-1.1l-.4-.45-.3-.2 1.8-.8-1.1 1.45m-1.6-.1l.7 1.4.1.4.4 2.6.1 3.35.5 1.95-1.1-1.35-2.75-4.25.6-.2v-1l-.7-2.3-.2-.5-.9-1.15h-1.8l-.4-.4 1-1.3.3-1 .1-.5q.3-1.65 1.4-.1l.3.3 2.35 4.05M47.9 19.5l-.1.3-1.25 2.75-.9-.95.4 1.65 1.2 2.1.35.4q.7 1.05 1.8.3l.8-.4 2 .3.75.5h-.4l-2.15.65v7.85q0 1.2.3 2.35l.1.8-.3-.8-.8-1.35-1.7-2.7-.2-.5v-.2l-.1-.4v.3l-.35-.4-.5-.65-.3-.5-.1-.1-.4-.6-.6-.6-1.2-2.2v-.1l-.2-.85v-1l-.2-4.75-1.55-.5-.1-.1-2.6-.5-6.65.1.8-.7 3.7-2.55 1.05.95 2.7.9 2.95.4h.5l.1.1 2 .3 1.15.4m15.45 8.6l4 1.7L62 35.65l-1.6 1.15-.6.2.2-.2 1.2-2.65 1.55-2.85.6-1.7v-1.5m-7-19l2.15-1.6 1-1.05.5-.5.6.6.3.2-.7 1.15-.6.6q-.7.5-1.5.7-.95.2-1.55 1v.1l-3.1-.1-.2-.6-.3-.6 1.3-.1 1.7.1.4.1m-11.9 2.7l-1.1 1.05-.6-.6-.55-.75 1.45.1.8.2M37.7 22.75l.3 1.9v.1l.1.6.2.3-.6.1h-.85l-3-.3.3-.1.4-.2 3.15-2.4m11.4 21l2.4 1.6Q49.75 46.2 48 47l.6.2.5.4.8 1.5q.3 1.3 1.2 2.25l1.2.1h4.75v-.2q.1-2.05.85-3.95l.1-.3.6-1.35q.2 1.05 1.1 1.85.9.8 2 1l-.8.8-.7 1-1.6 3.25-.5 1.9-.85-2.2-4.5-.1-5.3.7-1.6.4-2.1.2 1.1-1.6-1.3.7V50.9l.8-4.4q1.2-2.65 3.95-3.75l.8 1M77.25 26.9l-.5-.75-.3-.3.2.3.1.2.5.55m-2.2 14.95l-1.3-.3h-.2l-2.35-.35-1.7.15-1.3.3q-1.55.6-2.75 1.5l-2.2 1.8.4-.7 1-.9L68.3 41l.4-.3.9-.5.3-.3q.2-.5-.8-1l-.8-.3 2.8-1.1 2.45-.8v2.9h.2l1 1.1.3 1.15M35.75 31.4l-4.25-.9 1.75-.7 1.7-1 .4-.3.4 1.4.8 1.5h-.8m-2.5 3.35l.1-.2 1.7-2q.1 1.2 1 2l.3.2.2.7-1 .1-3.15-.2.85-.6m22.8 28.2q-1.2 2.75-1.3 5.85l-2.85-5.25.95.3q1.6.3 2.8-.6l.4-.3"/><path fill="url(#a)" d="M88.6 4.65l.7 2.4.1.95-3.35 1.2-4.15 1.5-.2.1-1.6 1-.4.2-.5.45-4.35 3.5-1.5 1.65-.95 1.7-1.3-1.3-1.6-1.35-.7-.4-2.25-.1-2.8 1.65-.2.1-.6-.2-.95-.85-.5-.9.1-.4L63.45 10l.1-1.3.1-.1.8-1.65v-.1l1.2-2.8.3-.7.1-.4.3-.75 2.55-.3.7.85 1.5 1.4 1.85.4 4.95-.1 1 .4 2.3.2v.1l5.15-.2 2.25-.3M76.15 7.9l-2.1.2-3.15-.3L69 6.65l-.2 1.45-.4 1.1-.1.2-.85 1.2-3.1 3.45q1.2-.9 2.3-1 2.85-.1 4.45 1.6l.4.5.3.3.2-.8v-.2q.3-1.9 1.55-3.55l2-2.5.6-.5h.9l-.8-.1-.1.1"/><path fill="url(#b)" d="M86.05 9.2l3.65 1.7 1.2.7.3 1.25q.1 1.2-.7 2l-.4.5-1.6.7-.1.1-1.25.5h-.1l-2.7 1.25-1.95.6-2.3.3 1.2-1.5 2.35-1.45.2-.1h-.3l-3.75-.8-.6-.5v-2l.5-.45.4-.2 1.6-1 .2-.1 4.15-1.5"/><path fill="url(#c)" d="M91.5 14.75l2.45 1.7.1 1.55-.6 2.1-3.25.6-3.55 1.25-2.5.4-2.35-.1 1.65-.85 2.7-1.1 1.55-.4-4.45-.5-.7-.5-.15-.4 1.95-.6 2.7-1.25h.1l.75-.1.7-.3h.1q.8-.3 1.4-.9l1.4-.6"/><path fill="url(#d)" d="M92.2 21.8l1.15 1.25v.1l.8 1.2v1q-.1 1.65-1.2 2.75l-.2.3h-.1l-1.05.1-10.5.2-1.3-1.7 3.85-.35 4.45-1.3-6.4-.2q-1.5-.1-2.7-1l-.5-.8v-.6l.5-.7 1.6.2h1.2l2.35.1 2.5-.4 3.55-1.25 2 1.1"/><path fill="url(#e)" d="M92.2 21.8l-2-1.1 3.25-.6-.3.5-.95 1.2"/><path fill="url(#f)" d="M89.3 33.45q.3.9 1.6.4 1.75-.7 1.85 1.2l.2 1.95v.1l.3 2.3v.5l-.3 3.15-1.15 2.9q-1.7-2.7-1.5-6.35l.1-.9v-.5l-.1.5-.1.9-1.1 3.85-2.55 4.45-1.3 1.2-.7.4-.8.6-1.2-.5-.35-.2q.1-2.6-.7-4.85l-1.9-3.85-.1-.3q-.6-1.4.4-2.5l.3-.9v-.3l.5.3.8.2.8-.4.45 3v.3l.9 6.7 2.7-6.6.3-.4v-.1l.95-2.2.7-3.75 1-.3"/><path fill="url(#g)" d="M89.3 33.45l-1 .3-2.75.9-3 1.95-.25.2-.8.4-.8-.2-.5-.3h-.1l-.3-.45-.5-1.1-.1-3.65.1-.8.2-.6.8.5 1 .9q.7.75 1.1.65-.6-2.15 1.55-1.85l7.55.1.1.8-.6 1.35q-.5.6-1.7.9"/><path fill="url(#h)" d="M91.6 28.5l-.1.5v1.4l-7.55-.1q-2.15-.3-1.55 1.85-.4.1-1.1-.65l-1-.9-.8-.5-.2.6-.1.8.1 3.65q-.5-1.1-.7-2.3L78.1 29l-.1-.4-.75-1.7.75.6q1.4 1 3.1 1.2l10.5-.2"/><path fill="url(#i)" d="M91.9 54.75l-.3 2.75h-1l-4.05.8-1.8-.3-3.25-2.55v-.1l-1.1-1.3-.7-1.1-.7-1v-.1l.2-.1 3.35-2.15 1.2.5h1.1l3.55-.4v.1l-1.05.6-2.9.65-.2.1-.1.5q-.1.6.1 1 .4.8 1.7.7l3.15.1q1.4.2 2.5 1l.3.3"/><path fill="url(#j)" d="M92.2 50.4v.1h-.1l.1-.1"/><path fill="url(#k)" d="M90.6 57.5v5.05q-.1 2.4-1.4 3.85l-.8.9-2.25-.2.7 1.8v.1l-.3.4v.1l-.7.5h-.1l-2.4-.5v-.1l-.3-.1-3.65-.5-1.8-3.35-.15 3.95q-1 .1-1.6-.7l-1.2-1.7q-1-1.85-2.65-2.85l1.25-.9q2.4-2.1 3.5-4.65l.4.4-.4-1.8v-.1l-.1-.4.3-1.85q.2-1.7 1.55-2h.2l1 .1.7 1.1 1.1 1.3v.1L84.75 58l1.8.3 4.05-.8m-8.9.5v1-1m0 1q.3 2.15-.6 2.85-2 1.5-2.9.6v1.2q-.1.9.5 1.5l1.2.85 1.3.1 2.35-.75h.3q2.3.25 1.6-1.4l-1.2-2.7-1.3-1.55-.95-.6-.3-.1m-3.5 3.45l-.4-.9-.65-2.35.65 2.35.4.9m-1.05-3.25V59v.2"/><path fill="url(#l)" d="M87.7 68.1l2.4 6.15-.3 1.45-2.65 4.75-4.95-.2L78.5 79l.3-1.2-.1-1.8-.1-.3-1.45-2.55-.4-.5-.9-.8-4.95-5.95-2-3.65-.2-.3-.8-2.25-.3-1.8-.15-.3-.7-3.85q1.95 1.4 4.25 1.9l2.75.45h.6l2.1.8.3.2v.1l.4 1.8-.4-.4q-1.1 2.55-3.5 4.65l-1.25.9q1.65 1 2.65 2.85l1.2 1.7q.6.8 1.6.7l1.35-.6h.6l3.65.5.3.1-1.05 2.75-2 2.1 2.65-1q1.8-.9 2.8-3.15l.1-.1.7-.5v-.1l.3-.4h.1l.75-.9"/><path fill="url(#m)" d="M86.85 68.9l.1.1h-.1v-.1"/><path fill="url(#n)" d="M90.7 80.35l1.2 2.5.3 1.2 1.35 3.55h-.3l-8.2-.8 2.55 1.4 1.8 1.3 1.6 1.85-4.25.6-9.4-.7-4.1.1.1.1.4.2 1.2.8.2.6-.4.4-5.25 1q-2.35.75-3.45-.8l-4.55-1-.4-.2.6-1.5 1.05-1.65.1-.1 1.6-.5Q66.65 88 68 86v-.1l.1-.2.4-.6 1-2.35.4 2-.1.35v.5l-.1.5-.5.9-2.25 1.5 3.55-1.2 3.95-1.9h.1l7.15-4.75.1-.1.4-.3 4.95.2 3.55-.1"/><path fill="url(#o)" d="M62.3 3.15l.65 1.1.4 1.9v.6l-.6 1.65-2.15 3.3-.1-1.1-.9-2.1.6-.6.7-1.15-.3-.2-.6-.6-.5.5.1-2.8-.8-2.55-.5-1.1h.2q2-.2 2.6.8l1.2 2.35"/><path fill="url(#p)" d="M71.1 18l1.3 1.3.95-1.7.4.5q.4 1.1 1.7 1h.1q-.1.5.1.8l.4.4v.1l-.6 1-.2 1.95q.1.8.5 1.5l-2.4-1.2-.1-.1-.5-.1Q71 22.95 70.8 21v-1.1l.3-1.9"/><path fill="url(#q)" d="M58.3 0l.5 1.1.8 2.55-.1 2.8-1 1.05-2.15 1.6-1-2.45v-.4l.3-2.2.7-2.25.5-.8 1.45-1"/><path fill="url(#r)" d="M54.25 8.9l-.5-2.65-.1-.1-.6-1.3 1.5 1.5.2.4v.1l.1.1L55.95 9l-1.7-.1"/><path fill="url(#s)" d="M54.25 8.9l-1.3.1-.75-1.4v-.1l-.6-.85-.2-.4q-.3-.4-.3-.9l.1-1.5 1.85 1 .6 1.3.1.1.5 2.65"/><path fill="url(#t)" d="M54.65 11.8l-.4.3-.5.25L51.4 8.3l.8-.8v.1l.75 1.4.3.6.2.6 1.2 1.6"/><path fill="url(#u)" d="M51.7 16.45l-.1-.1-1.3-.2H50v.2q-.9.4-1.3 1.25h-.1v.1l-.7 1.8-1.15-.4-2-.3-.1-.1h-.5l-2.95-.4-2.7-.9-1.05-.95 5.5-3.3.4-.2v-.1l1.1-1.05h.1l3.05-.5.7-.4.4.4h1.8l.9 1.15.2.5.7 2.3v1l-.6.2"/><path fill="url(#v)" d="M60.6 11.7l-.6 1.45-.1.5-.8.7-.2.1-1.3-.1-.95-.8 1.15-2.35-2.05 1.55-.4-.3 1.1-1.45-1.8.8-1.2-1.6 3.1.1v-.1q.6-.8 1.55-1 .8-.2 1.5-.7l.9 2.1.1 1.1"/><path fill="url(#w)" d="M52.95 26.45l5.05-.1 1.8.2 1.9.65 1.65.9v1.5l-.6 1.7-1.55 2.85-.6-1.1-2.7-3.65-.95-.7-1.8-.2-1.9.2L51.4 31v.1l-1 1.45V27.1l2.15-.65h.4"/><path fill="url(#x)" d="M49.7 35.95l.8 1.35.3.8-.1-.8q-.3-1.15-.3-2.35v-2.4l1-1.45V31l1.85-2.3 1.9-.2 1.8.2.95.7 2.7 3.65.6 1.1L60 36.8l-.2.2.6-.2 1.6-1.15.1.3v1.15l-.5.6v.1q-1 .7-2.3.8h-.4l-3.95-.1q-2.2.2-3.75 1.1-.7-.7-1.1-1.7l-.2-.5-.2-1.45"/><path fill="url(#y)" d="M44.25 27.4l1.2 2.2.6.6-.2.6-1.2 1.45q-1.2 1.1-3.15 2l-3.6 1.1-1.55-.6-.3-.2q-.9-.8-1-2l.7-1.15h.8q1.45 0 2.65-.7l1.7-1 .9-.4 1.45-1 1-.9m-6.65 4.95l-1.05-.95 1.05.95"/><path fill="url(#z)" d="M46.05 30.2l.4.6v.1q-.8 1.55-.8 2.55v.5q-.1 1.2-.8 2.1l-.5.55q-1 .8-2.75 1.2l-4.15-.5-.8-1.55-.1-.3 1.35-.1 3.6-1.1q1.95-.9 3.15-2l1.2-1.45.2-.6"/><path fill="url(#A)" d="M38.3 25.65l2.9.1 2.85-.3v1l.2.85v.1l-1 .9-1.45 1-.9.4-1.7 1q-1.2.7-2.65.7l-.8-1.5-.4-1.4q1.4-1.1 2-2.75h.35l.6-.1"/><path fill="url(#B)" d="M48 33.25l1.7 2.7.2 1.45.2.5q.4 1 1.1 1.7l-1.2.9-.1-.3-1-1.8-.3-.7-.6-4.45"/><path fill="url(#C)" d="M54.15 43.25l-3.75-1.8-.4-.95 1.2-.9q1.55-.9 3.75-1.1l.1 1.6.5 2.05.4.7.6.7-2.2-.2-.2-.1"/><path fill="url(#D)" d="M54.15 43.25q0 .9.7 1.4l2.6 2.25q-3.6-.5-5.95-1.55l-2.4-1.6 1.2-2 .1-.3 3.75 1.8"/><path fill="url(#E)" d="M51.5 45.35q2.35 1.05 5.95 1.55l.45.4q-.75 1.9-.85 3.95v.2H52.3l-1.2-.1q-.9-.95-1.2-2.25l-.8-1.5-.5-.4-.6-.2q1.75-.8 3.5-1.65"/><path fill="url(#F)" d="M67.35 29.8l1.25.8.7.7 2.3 2.85q-.8.7-2.1.9h-.3l-2.05.8-4.95 2.85-.5.2-.9.1-1.5-.4q1.3-.1 2.3-.8v-.1l.5-.6v-1.15l-.1-.3 5.35-5.85"/><path fill="url(#G)" d="M58.9 38.6v.1l.4-.1 1.5.4.9-.1-2.8 3.25q-.9.7-2.15 1.3l-.2.1-.6-.7-.4-.7-.5-2.05-.1-1.6 3.95.1"/><path fill="url(#H)" d="M57.45 46.9l-2.6-2.25q-.7-.5-.7-1.4l.2.1 2.2.2.2-.1q1.25-.6 2.15-1.3l2.8-3.25.5-.2 4.95-2.85 2.05-.8h.3l.1.1.5.6 1 1.75-2.8 1.1H68l-4.45 1.8q-1.55.5-2.45 1.65l-2.5 3.6L58 47l-.55-.1"/><path fill="url(#I)" d="M61.7 48.5q-1.1-.2-2-1-.9-.8-1.1-1.85l2.5-3.6q.9-1.15 2.45-1.65L68 38.6h.3l.8.3q1 .5.8 1l-.3.3-.9.5-.4.3-3.65 2.35-1 .9-.4.7 2.2-1.8q1.2-.9 2.75-1.5l1.3-.3 1.7-.15 2.35.35h.2l1.3.3.3 1.6 1.2 3.95v1l-.5-.1-3.85-1.5-1.4-.4-3.45.1-4.4 1.4-1.25.6"/><path fill="url(#J)" d="M61.7 48.5l1.25-.6 4.4-1.4 3.45-.1 1.4.4 3.85 1.5L78 50.6l-11.35-.8-2.8.4q-1.45.6-2.35 1.85-1 1.3-.5 2.7.4 1.35 1.4 1.75L62 60v.6q.1 2.35 1.25 4.45l.1.1h-.1l-.7-.9q-1.25-1.5-1.75-3.4l-.1-.25-.1-.7-.3-.8-.3-1.2-.1-.2-.3-1-1-3.15 1.6-3.25.7-1 .8-.8"/><path fill="url(#K)" d="M76.75 57.1l-.3-.2-2.1-.8h-.6L71 55.65q-2.3-.5-4.25-1.9l-2-1.7q-.7-.9-.9-.4-1 2.3-1.45 4.85-1-.4-1.4-1.75-.5-1.4.5-2.7.9-1.25 2.35-1.85l2.8-.4 11.35.8.5 1.15.1.3.1.8h-.2q-1.35.3-1.55 2l-.3 1.85.1.4"/><path fill="url(#L)" d="M34.65 82.05q2.95-.9 5.75-2.25l.3-.2 1.6-.8.1.1v-.1l.65-.3 2.5-.1-.5.9-.5.6-1.9 1.35-7.1 3.3q2.55.65 5.05 0l4.15-.7q4.15-.6 6.35-3.7l1.65 1 3.7 2.1v.4l-.2.7-.4.4h-.7l-.4-.3q-.8-.9-2.1-.9l-2.85.1.2.7v.2l-.1.85q-.2.7-1.3.6-4.25-.5-8.5.1l-6.05.5-.1-1-1.1-2.45.6-.2 1.2-.9"/><path fill="url(#M)" d="M69.8 81.55q-.7.4-.5-.7l.2-1.15.2-3.4q.1-2.35-.9-3.95l-4.45-5.95-1-1.25-.1-.1Q62.1 62.95 62 60.6V60l.2.3.1.3 3.15 5.6 4.25 5.05v.1l2 4.25.4 1.4.1 2.1-2.4 2.45"/><path fill="url(#N)" d="M43.75 54.45l2.1-.2 1.6-.4 5.3-.7 4.5.1.85 2.2.5-1.9 1 3.15-3.55 6.25-.4.3q-1.2.9-2.8.6l-.95-.3L49 57.5q-1.1-1.5-2.55-.6-1.2.7-2.2 1.7l-.8-1-.6-1.2.9-1.95"/><path fill="url(#O)" d="M60.3 59.1l-1 5.45v.5q-.3 3.65-.3 7.2l.4 4.15.1.2-1.5 1.6-.4.3-4.85 2.65-1.65-1 .6-1.15v-.2q-.2-3.3-2-5.85l-1.4-2.65-.85-3.4q-.4-3.25.35-6.3l1.2-3.1 2.9 6.05 2.85 5.25q.1-3.1 1.3-5.85l3.55-6.25.3 1 .1.2.3 1.2"/><path fill="url(#P)" d="M41.7 73.55v-12l.6-.95.65-.7.3.7 2.5 6.5.7 2.5q.6 3.45-.5 7l-2.9-1.85-1.35-1.2"/><path fill="url(#Q)" d="M41.7 73.55l1.35 1.2 2.9 1.85v.2l-.4 1.6-2.5.1-.75.1-.6-1.5v-3.55"/><path fill="url(#R)" d="M59.5 76.6v.3l3.15 8.1.4.6H61.7l-1.3-.3-3.95-2.05-3.7-2.1 4.85-2.65.4-.3 1.5-1.6"/><path fill="url(#S)" d="M45.95 76.8v-.2h.1l-.1.2"/><path fill="url(#T)" d="M62.75 89.2h.1l-.1.1v-.1"/><path fill="url(#U)" d="M65.65 4.05l-1.2 2.8v.1l-.8 1.65-.1.1-.1 1.3-1.85 5.55-.1.4-3.8 8.6 1.1-1.6.1-.2 1.8-2.35 2.85-2.5.2-.1 2.8-1.65 2.25.1.7.4-.4 3.25q-.1 1.2.1 2.35.3 1.2 1.1 2l.2.6.3.5.6.6L72 27q.4 1.6-.6 2.3l-.3-.1-2.4-1.4-2.65-1 1.4 1.5.85 1.3.3 1-1.25-.8-4-1.7-1.65-.9-1.9-.65-1.8-.2-5.05.1-.75-.5-2-.3-.8.4q-1.1.75-1.8-.3l-.35-.4-1.2-2.1-.4-1.65.9.95 1.25-2.75.1-.3.7-1.8v-.1h.1q.4-.85 1.3-1.25l.3-.1v-.1l1.3.2.1.1 2.75 4.25 1.1 1.35-.5-1.95-.1-3.35-.4-2.6-.1-.4-.7-1.4.5-.25.4-.3.3.2.4.45.4.3.9.8.95.8 1.3.1.2-.1.8-.7.1-.5.6-1.45 2.15-3.3.6-1.65v-.6l-.4-1.9-.65-1.1 1.55.2 1.8.7"/><path fill="url(#V)" d="M39.6 19.6l2.6.5.1.1 1.55.5.2 4.75-2.85.3-2.9-.1-.2-.3-.1-.6v-.1l-.3-1.9.3-.2.7-.85q.7-.9.9-2.1"/><path d="M40.4 34.65l1.5-.7q2.15-1.2 3.35.5l.2.2-3.25 1.5-3.5.95h-.1l-3.05 2.2 1.3 2.65q.5 2.3 1.75 2.9l2.2-.5 7.1-.7v.7l-2.55 1.6-1.3.75-2.75.8h-3.5q-1.55-.1-2.15-.7l-.4-.75-.1-.3-2.85.55 1.05-4.45v-.2h-.1q-.95-2.15.7-3.95l.9-.7.3-.3.2-.45.5-1.7 1.5.4H39.3l1.1-.3m-11.8-18.1l1.8-1.3q.5.8.5 2.05-1 .3-1.9 1l-1 1.1q-.95 0-.75-1.1l.45-.8.9-.95M25.25 50.4l2.55-.3 3.5-.9-2.1 1.7-2.35 1.45-.5.2v.1q-2 .9-3.3-.7-.75-1.05-.2-1.45l2.4-.1m2.35 8.8l6.45 4.15-6.9-1-.6-.2-.2-.2-.3-.2-.6-.8q-.7-2.15.5-2.65l1.65.9m-5.05 8.9l.7 6.25-2.45-2.6-1.3-2.85-.2-.9q-.3-1.2.4-2.1 1.1-1.65 2.3-1.25l.55 3.45M11.1 66.3l-4.75 4.65q-1.4 1.3-3.1 2l2.9-4.35 2.25-4.65 1.2-1.3q1.3-.6 2.3.4l.65 1.2-1.45 2.05m-3.65-9.5l-1.5-.7L0 51.65l1.7.5 7 .9q1.2.2 2.2.6l.1.1q.1.8-.3 1.3L9.6 56.1l-2.15.7M11 50.4l-1.4-2.5-.9-2.25-1.45-2.5 2.75 2.1 5.55 3.35 1.3 1.4-.6.7-2.2 1.15-1.65-.2L11 50.4"/><path fill="url(#W)" d="M47.9 43.65l-7.1.7-2.2.5q-1.25-.6-1.75-2.9l-1.3-2.65 3.05-2.2h.1l3.5-.95 3.25-1.5q1 1.6 0 2.95 2 .1 2.35 2.4.2 1.2-.85 1.85.95.6.95 1.8m-3.65-5.85l1.2-.2-1.2.2m1.1 3.4l1.1.55.5.1-.5-.1-1.1-.55"/><path fill="url(#X)" d="M41.3 47.5l2.75-.8 1.3-.75 2.95 6.6.8-.9q.5.9.7 2.4l-1 1.85q-1 1.8-1.85 1.7-2.8-.2-6.15-1.5L38 54.45l-.3-.8q1.6 1.3 3.1 1.2h.1q2.95-1.7 1.65-4.05l-1.25-3.3"/><path fill="url(#Y)" d="M21.7 11.5l.2.6v.15l-.1.6-.3.5-.9.4q-.5 0-.8-.4l-.2-.2-.1-.2-.1-.4v-.3l.4-1.05.3-.3.5-.1.9.4.2.3"/><path fill="url(#Z)" d="M21.7 11.5l.3-.5.4-.3.55-.1q.5 0 .9.4l.3 1v.1l-.3.95h-.1q-.3.4-.8.4l-.95-.4-.2-.2.1-.6v-.15l-.2-.6"/><path fill="url(#aa)" d="M24.75 12.35l.1-.25.4-.3.5-.2.9.5.4 1.05-.1.6-.2.3-.2.2q-.3.3-.8.3l-.9-.4-.3-1 .2-.8"/><path fill="url(#ab)" d="M27.05 13.85l.55-.2.9.5.4 1-.4 1-.9.4-.95-.4-.3-1 .2-.9.2-.2.3-.2"/><path fill="url(#ac)" d="M40.4 34.65l-1.1.3h-1.6l-2.25-3.45q-2.1-2.9-2.8-6.25Q32.1 22.65 31 21q-2.1-.8-2-2.7.9-.7 1.9-1l1.85-.45q1.8 1.25 1.6 3.85v.8q.5 2.45 1.8 4.35l4.25 8.8"/><path fill="url(#ad)" d="M37.7 34.95h-.35l-1.5-.4-.5 1.7-.4-1.3-5.55-12.2q-.5-.95-1.7-1.05l.1-1.3.2-1 1-1.1q-.1 1.9 2 2.7 1.1 1.65 1.65 4.25.7 3.35 2.8 6.25l2.25 3.45"/><path fill="url(#ae)" d="M19.4 12.55l.1.4.1.2v.2l-.3 1h-.1q-.3.4-.8.4l-.95-.4-.1-.1-.3-.9.4-1 .45-.35.5-.1.9.45.1.2"/><path fill="url(#af)" d="M16.95 14.55h.1l.4 1-.4 1.1-.8.45-.2-.65-.6-.3-.3-.1h-.2v-.5l.3-1 .4-.3.5-.1.8.4"/><path fill="url(#ag)" d="M16.25 17.1l.1.5-.3 1h-.1q-.3.4-.8.4h-.2l-.6-.3-.1-.1-.4-1 .4-1.15.3-.3.4-.1h.2l.3.1.6.3.2.65"/><path fill="url(#ah)" d="M14.95 19l.1.1.4 1-.4 1.1-.7.3h-.1l-.2.1-.1-.1-.7-.3-.3-1.1.3-1 .4-.3.5-.1h.2l.6.3"/><path fill="url(#ai)" d="M14.35 21.5l.8.55.4 1-.4 1-.9.4h-.4l-.5-.4-.3-1 .3-1 .4-.35.2-.1h.1l.2-.1h.1"/><path fill="url(#aj)" d="M13.95 24.85h.1l.5-.2.9.4.3 1.1-.1.65h-.2l-.5.1-.4.3-.1.1-.1.3-.7-.4-.4-1.05.4-1.1.3-.2"/><path fill="url(#ak)" d="M15.65 26.8l.7.4.4 1-.4 1-.7.4h-.2l-.9-.4-.3-1 .1-.6.1-.3.1-.1.4-.3.5-.1h.2"/><path fill="url(#al)" d="M15.75 29.8v-.1l.6-.1.9.4.35 1v.2l-.55.2-.3.35-.4.8q-.6 0-.9-.4l-.4-1.15.4-1 .3-.2"/><path fill="url(#am)" d="M17.6 31.2h.1l.9.55.3 1-.3 1h-.1l-.1.1-.4-.1-.55.2-.2.2-.1-.1-.4-.3-.4-1v-.2l.4-.8.3-.35.55-.2"/><path fill="url(#an)" d="M18.4 33.85h.1l.4.4.4.7v.3l-.3.9-.1.1v.1h-.1l-.6.35H18l-.95-.45-.3-1v-.3l.3-.7.2-.1.2-.2.55-.2.4.1"/><path fill="url(#ao)" d="M19.8 39l.3 1-.3 1h-.1q-.3.45-.8.45h-.1q-.5 0-.8-.45l-.4-1 .4-1 .2-.2.1-.1.2-.1h.7l.6.4"/><path fill="url(#ap)" d="M18.7 42.05l.2.2.4 1-.4 1v.1l-.7.3h-.4l-.75-.4-.3-1 .3-1 .4-.3.55-.1.7.2"/><path fill="url(#aq)" d="M18.2 44.75l.6.3.4 1.15-.4 1-.7.4h-.3q-.45-.1-.85-.4l-.3-1 .3-1.15.85-.4h.3l.1.1"/><path fill="url(#ar)" d="M17.7 48.4l3-.3q1.85-.1 4.55 2.3l-2.4.1q-.55.4.2 1.45 1.3 1.6 3.3.7v-.1l.5-.2.95 1.3q.6 1 .5 2.55l-1.95-.1-3.3-1.15.1 1.55q-3.35-1.35-4.75-4.25-5.55 1.2-4.15 4.75l1 2.6q.4 1.15-.8 1.25 1.2 3.6 4.25 2.4l5.95.4 1.2.4q-1.1 2.65-2 3.25l-1.3.8-.55-3.45q-1.2-.4-2.3 1.25-.7.9-.4 2.1l.2.9-1.4.1-2.85-.9-.2-.7-.7-1.2q-1.5-1.65-1.1-4.25.4-2.25-1.95-2.85-1.9 1.65-4.05 2.35l-.1-.4.3-4.25 2.15-.7 1.1-1.05q.4-.5.3-1.3l-.1-.1q-1-.4-2.2-.6l.3-.7 2-1.95 1.4 1.25 1.65.2 2.2-1.15.6-.7-1.3-1.4 2.15-.2"/><path fill="url(#as)" d="M40.8 58.3l-1.6-1.6-1.2-2.25 2.8 1.65q3.35 1.3 6.15 1.5.85.1 1.85-1.7l1-1.85.1 1q.2 3.65-.9 7l-.2 1.8-4.75-3.25q-1.85-1-3.25-2.3"/><path fill="url(#at)" d="M28.3 56.2l-.4 2.1-.3.9-1.65-.9q-1.2.5-.5 2.65l.6.8.3.2.2.2-.2.7-.5 1.1v.1l-1.2-.4-5.95-.4q-3.05 1.2-4.25-2.4 1.2-.1.8-1.25l-1-2.6q-1.4-3.55 4.15-4.75 1.4 2.9 4.75 4.25l-.1-1.55 3.3 1.15 1.95.1m-4.95 5.65L21.9 59q-1.3-2-3-3.45L18 56.7q-1.05.6-.75 1.7.45 2 3.15 2.45 2 .2 2.95 1"/><path fill="url(#au)" d="M23.35 61.85q-.95-.8-2.95-1-2.7-.45-3.15-2.45-.3-1.1.75-1.7l.9-1.15q1.7 1.45 3 3.45l1.45 2.85"/><path fill="url(#av)" d="M15.25 68.1l-1.2-.5-2.95-1.3 1.45-2.05-.65-1.2q-1-1-2.3-.4l-1.2 1.3-1.15-2.5q2.15-.7 4.05-2.35 2.35.6 1.95 2.85-.4 2.6 1.1 4.25l.7 1.2.2.7"/><path fill="url(#aw)" d="M18.9 36.35l.2-.1.9.45.4 1.1-.3.8-.1.2-.2.2-.6-.4h-.7l-.2.1-.1.1-.1-.2-.2-.8.3-1v-.1l.6-.35h.1"/><path fill="none" stroke="#636363" stroke-width=".05" stroke-linecap="round" stroke-miterlimit="3" d="M91.5 14.75l2.45 1.7M92.2 50.4v.1m-3.8 16.8l-.7.8m2.4-52.75l-1.6.7-.1.1-1.25.5M81.5 37.2l.8-.4.25-.2 3-1.95 2.75-.9 1-.3m-7 3.35l.45 3v.3l.9 6.7 2.7-6.6.3-.4v-.1l.95-2.2.7-3.75M86.95 69l.75-.9m-1.95 2l.1-.1m-9.1-12.9l-.3-.2-2.1-.8h-.6L71 55.65q-2.3-.5-4.25-1.9M86.85 69h.1M51.7 16.45l-.1-.1-1.3-.2m-2-5.25l-.7.4-3.05.5h-.1M37.9 35.35l3.6-1.1q1.95-.9 3.15-2l1.2-1.45.2-.6m.4.6v.1q-.8 1.55-.8 2.55v.5q-.1 1.2-.8 2.1l-.5.55q-1 .8-2.75 1.2l1.45.4m1.2-10.8l-1 .9-1.45 1-.9.4-1.7 1q-1.2.7-2.65.7l1.05.95M68 38.6l-4.45 1.8q-1.55.5-2.45 1.65l-2.5 3.6M32.95 19.7l-1.55-.1m6.3 3.15l-3.15 2.4-.4.2-.3.1 3 .3h.85l.6-.1m-2.55 5.75h.8l-.8-1.5-.4-1.4-.4.3-1.7 1m2.1-1.3l-.1-1.3m-1.9 7.35l-.1.2m2.3.8l1-.1-.2-.7-.3-.2q-.9-.8-1-2m2.85 2.8l-1.55-.6m1.55.6l-1.35.1.1.3.8 1.55 4.15.5-3.6 1.6-.1.1v-.1l-.45-2.1-.3-.1q-.8-.4-.5-1.45m-.9-4.35l-.7 1.15m2.3-6.8q-.6 1.65-2 2.75"/><path fill="none" stroke="#232323" stroke-width=".05" stroke-linecap="round" stroke-miterlimit="3" d="M75.05 41.85l.3 1.6 1.2 3.95v1l-.5-.1L78 50.6l.5 1.15.1.3.1.8m-2.65-4.55l-3.85-1.5-1.4-.4-3.45.1-4.4 1.4-1.25.6"/><path fill="none" stroke="#171717" stroke-width=".05" stroke-linecap="round" stroke-miterlimit="3" d="M90.7 80.35l1.2 2.5.3 1.2 1.35 3.55"/><path fill="none" stroke="#212121" stroke-width=".05" stroke-linecap="round" stroke-miterlimit="3" d="M87.7 68.1l2.4 6.15"/><path fill="none" stroke="#1B1B1B" stroke-width=".05" stroke-linecap="round" stroke-miterlimit="3" d="M91.9 54.75l-.3 2.75h-1v5.05q-.1 2.4-1.4 3.85l-.8.9m-4.65-17.2l-1.2-.5-3.35 2.15-.2.1v.1l.7 1m1.8 2.4v.1m.2 3.55v-1m0 1q.3 2.15-.6 2.85-2 1.5-2.9.6M85.85 70h-.1m.1 0l.7-.5v-.1l.3-.4m-3.5.4l-.3-.1-3.65-.5m-1.95.6q-1 .1-1.6-.7l-1.2-1.7q-1-1.85-2.65-2.85l1.25-.9m3.5-6.05v-.1m1.95-4.25l1 .1m-1-.1h-.2q-1.35.3-1.55 2l-.3 1.85.1.4m.4 1.9v.2"/><path fill="none" stroke="#575757" stroke-width=".05" stroke-linecap="round" stroke-miterlimit="3" d="M77.15 59.2l.65 2.35.4.9m1.5-9.5l.7 1.1 1.1 1.3m0 .1L84.75 58l1.8.3 4.05-.8m-17.35 5.75q2.4-2.1 3.5-4.65l.4.4-.4-1.8"/><path fill="none" stroke="#2B2B2B" stroke-width=".05" stroke-linecap="round" stroke-miterlimit="3" d="M79.3 35.15l.5 1.1.3.45h.1l.5.3m1.85 12.6l-.35-.2q.1-2.6-.7-4.85l-1.9-3.85-.1-.3q-.6-1.4.4-2.5l.3-.9v-.3M78 28.6l.1.4.5 3.85q.2 1.2.7 2.3m-35.95-22.3v.1l-.4.2-5.5 3.3"/><path fill="none" stroke="#353535" stroke-width=".05" stroke-linecap="round" stroke-miterlimit="3" d="M92.75 28.4h-.1l-1.05.1-.1.5v1.4l.1.8-.6 1.35m.6-4.05l-10.5.2"/><path fill="none" stroke="#3F3F3F" stroke-width=".05" stroke-linecap="round" stroke-miterlimit="3" d="M92.2 21.8l1.15 1.25v.1l.8 1.2m-12.35-2.1l2.35.1 2.5-.4 3.55-1.25 3.25-.6m-1.25 1.7l-2-1.1"/><path fill="none" stroke="#2C2C2C" stroke-width=".05" stroke-linecap="round" stroke-miterlimit="3" d="M86.05 9.2l3.65 1.7 1.2.7"/><path fill="none" stroke="#383838" stroke-width=".05" stroke-linecap="round" stroke-miterlimit="3" d="M89.4 8l-3.35 1.2m2.55-4.55l-2.25.3-5.15.2v-.1m-3.3-.6l-4.95.1-1.85-.4-1.5-1.4-.7-.85m-2.55.3l-.3.75-.1.4-.3.7-1.2 2.8v.1l-.8 1.65-.1.1-.1 1.3-1.85 5.55-.1.4-3.8 8.6 1.1-1.6.1-.2 1.8-2.35 2.85-2.5.2-.1 2.8-1.65 2.25.1.7.4M71.1 18l1.3 1.3.95-1.7m5.85-5.15l.5-.45.4-.2 1.6-1 .2-.1 4.15-1.5M62.3 3.15l.65 1.1.4 1.9v.6l-.6 1.65-2.15 3.3-.6 1.45-.1.5-.8.7-.2.1-1.3-.1-.95-.8-.9-.8-.4-.3-.4-.45-.3-.2m-4.35 4.35v.1l-.3.1q-.9.4-1.3 1.25h-.1v.1l-.7 1.8m5.05 6.95l5.05-.1 1.8.2 1.9.65 1.65.9m4 1.7l1.25.8M62.3 3.15l1.55.2 1.8.7M58.3 0h.2q2-.2 2.6.8l1.2 2.35m-2.8 3.3l.5-.5.6.6.3.2-.7 1.15-.6.6"/><path fill="none" stroke="#363636" stroke-width=".05" stroke-linecap="round" stroke-miterlimit="3" d="M59.6 8.5q-.7.5-1.5.7-.95.2-1.55 1v.1l-3.1-.1 1.2 1.6M58.3 0l-1.45 1-.5.8-.7 2.25-.3 2.2v.4l1 2.45 2.15-1.6 1-1.05m-6.45-1.6l-1.85-1-.1 1.5q0 .5.3.9l.2.4.6.85v.1l.75 1.4 1.3-.1 1.7.1.4.1m-3.3-4.25l1.5 1.5.2.4v.1l.1.1L55.95 9m-4.55-.7l.8-.8m1.25 2.7l-.2-.6-.3-.6"/><path fill="none" stroke="#3C3C3C" stroke-width=".05" stroke-linecap="round" stroke-miterlimit="3" d="M47.8 32.65v.1l.2.5m-.2-.7l-.1-.1v.1l.1.1m-.45-.6l.35.5m2.7 8.9l-.1.3-1.2 2 2.4 1.6q2.35 1.05 5.95 1.55l-2.6-2.25q-.7-.5-.7-1.4l-3.75-1.8-.4-.95-.1-.3-1-1.8-.3-.7-.6-4.45m1.1 10.5l-.8-1q-2.75 1.1-3.95 3.75l-.8 4.4v2.65l1.3-.7M57.9 47.3l-.45-.4.55.1m1.3-8.4h-.4l-3.95-.1q-2.2.2-3.75 1.1l-1.2.9m6.55 3.05l.2-.1q1.25-.6 2.15-1.3l2.8-3.25-.9.1-1.5-.4m-2.75 4.95l-2.2-.2-.2-.1M71.1 37.5l-1-1.75-.5-.6-.1-.1h-.3l-2.05.8-4.95 2.85-.5.2m9.9-4.75q-.8.7-2.1.9"/><path fill="none" stroke="#2E2E2E" stroke-width=".05" stroke-linecap="round" stroke-miterlimit="3" d="M62.75 89.2h.1l1.6-.5Q66.65 88 68 86v-.1l.1-.2.4-.6 1-2.35.3-1.2q-.7.4-.5-.7l.2-1.15.2-3.4q.1-2.35-.9-3.95l-4.45-5.95-.7-.6-.4-.65-.7-.9q-1.25-1.5-1.75-3.4l-.1-.25-.1-.7-.3-.8-1 5.45v.5q-.3 3.65-.3 7.2l.4 4.15.1.2v.3l3.15 8.1.4.6H61.7m-27.05-3.55q2.95-.9 5.75-2.25l.3-.2 1.6-.8-.1-.2-.5-1.5V61.55l-.4.6.2-1.55 1.35-4.2v-1.95M78.5 79l3.7 1.25 4.95.2m-17.65 2.3l.4 2-.1.35v.5l-.1.5-.5.9-2.25 1.5 3.55-1.2 3.95-1.9h.1l7.15-4.75.1-.1.4-.3m-25.75 3l-3.7-2.1-1.65-1q-2.2 3.1-6.35 3.7l-4.15.7q-2.5.65-5.05 0l7.1-3.3 1.9-1.35.5-.6.5-.9-2.5.1-.65.3v.1l-.1-.1h.1l-.1-.2h-.1m30 .5l-2.4 2.45m-6.45-16.4l-.1-.1Q62.1 62.95 62 60.6V60m1.35 5.15l1 1.25m-1-1.25l.3.65m-3.35-6.7l-.3-1.2-.1-.2-.3-1-3.55 6.25q-1.2 2.75-1.3 5.85l-2.85-5.25L49 57.5l-1.2 3.1q-.75 3.05-.35 6.3l.85 3.4 1.4 2.65q1.8 2.55 2 5.85v.2l-.6 1.15-.5-.35-2-.8-3.05-.6.4-1.6v-.2q1.1-3.55.5-7l-.7-2.5-2.5-6.5-.3-.7-.65.7-.6.95m17.9-4.85l-1-3.15M44.25 58.6l.7 1.3m-2 0l1.3-1.3-.8-1-.6-1.2.9-1.95m.5 4.15q1-1 2.2-1.7 1.45-.9 2.55.6m-5.95 21l-.75.1-.6-1.5"/><path fill="none" stroke="#929292" stroke-width=".05" stroke-linecap="round" stroke-miterlimit="3" d="M21.8 12.85l.1-.6v-.15l-.2-.6-.2-.3-.9-.4-.5.1-.3.3-.4 1.05v.3l.1.4.1.2.2.2q.3.4.8.4l.9-.4.3-.5.2.2.95.4q.5 0 .8-.4h.1l.3-.95V12l-.3-1q-.4-.4-.9-.4l-.55.1-.4.3-.3.5m3.05.85l.1-.25.4-.3.5-.2.9.5.4 1.05-.1.6.1.1.55-.2.9.5.4 1-.4 1 .1.4 1.8-1.3q.5.8.5 2.05-1 .3-1.9 1l-1 1.1q-.95 0-.75-1.1l.45-.8.9-.95m5.75 4.15v.8m-10.2-9.4l.6.25-.2.8.3 1 .9.4q.5 0 .8-.3l.2-.2.2-.3m-.4.5l-.2.9.3 1 .95.4.9-.4m-1.75-2.1l.3-.2m7.9 21.1l.4 1.3M19.4 12.55l-.1-.2-.9-.45-.5.1-.45.35-.4 1 .3.9.1.1.95.4q.5 0 .8-.4h.1l.3-1v-.2m-2.25 1.1l-.4.3h.1l.4 1-.4 1.1-.8.45.1.5-.3 1h-.1q-.3.4-.8.4h-.2l.1.1.4 1-.4 1.1-.7.3.8.55.4 1-.4 1-.9.4h-.4l.1.4h.1l.5-.2.9.4.3 1.1-.1.65.7.4.4 1-.4 1-.7.4.1.2v-.1l.6-.1.9.4.35 1v.2h.1l.9.55.3 1-.3 1h-.1l-.1.1h.1l.4.4.4.7v.3l-.3.9-.1.1v.1l.2-.1.9.45.4 1.1-.3.8-.1.2-.2.2.3 1-.3 1h-.1q-.3.45-.8.45h-.1l-.1.6.2.2.4 1-.4 1v.1l-.7.3v.1l.6.3.4 1.15-.4 1-.7.4h-.3l-.1.8m-.75-33.85l-.8-.4-.5.1-.4.3-.3 1v.5h.2l.3.1.6.3.2.65m-1.3-1.05l-.4.1-.3.3-.4 1.15.4 1 .1.1.6.3m-.6-.3h-.2l-.5.1-.4.3-.3 1 .3 1.1.7.3.1.1.2-.1h.1m-.4 0v.1h.1m-.1 0l-.2.1-.4.35-.3 1 .3 1 .5.4m1.8 2.35h-.2l-.5.1-.4.3-.1.1-.1.3-.1.6.3 1 .9.4h.2m.1.2l-.3.2-.4 1 .4 1.15q.3.4.9.4l.4-.8.3-.35.55-.2m-3.65-6.35l-.3.2-.4 1.1.4 1.05.7.4m2.9 6.55l.2-.2.55-.2.4.1m-2.05-1.3v.2l.4 1 .4.3.1.1-.2.1-.3.7v.3l.3 1 .95.45h.2l.6-.35h.1m-.7.35v.1l-.3 1 .2.8.1.2.1-.1.2-.1h.7l.6.4m-1.6-.2l-.2.2-.4 1 .4 1q.3.45.8.45m-.1.6l-.7-.2-.55.1-.4.3-.3 1 .3 1 .75.4h.4m-.1 0l.1.1m-.4-.1l-.85.4-.3 1.15.3 1q.4.3.85.4m15.45-5.95l.1.2M40.8 58.3q1.4 1.3 3.25 2.3l4.75 3.25.2-1.8q1.1-3.35.9-7l-.1-1m-9 .8h.1"/><path fill="none" stroke="#750000" stroke-width=".05" stroke-linecap="round" stroke-miterlimit="3" d="M30.9 17.3l1.85-.45q1.8 1.25 1.6 3.85m0 .8q.5 2.45 1.8 4.35l4.25 8.8m9.4 19.4q-.2-1.5-.7-2.4l-.8.9-2.95-6.6"/><path fill="none" stroke="#CDBDAD" stroke-width=".05" stroke-linecap="round" stroke-miterlimit="3" d="M28 19.4l-.2 1-.1 1.3q1.2.1 1.7 1.05l5.55 12.2"/><path fill="none" stroke="#404040" stroke-width=".05" stroke-linecap="round" stroke-miterlimit="3" d="M45.45 34.65q1 1.6 0 2.95 2 .1 2.35 2.4.2 1.2-.85 1.85.95.6.95 1.8m-.95-1.8l-.5-.1-1.1-.55m.1-3.6l-1.2.2"/><path fill="none" stroke="#202020" stroke-width=".05" stroke-linecap="round" stroke-miterlimit="3" d="M38 54.45l1.2 2.25 1.6 1.6"/><path fill="none" stroke="#630" stroke-width=".05" stroke-linecap="round" stroke-miterlimit="3" d="M38 54.45l-.3-.8q1.6 1.3 3.1 1.2m.1 0q2.95-1.7 1.65-4.05"/><path fill="none" stroke="#A48668" stroke-width=".05" stroke-linecap="round" stroke-miterlimit="3" d="M42.55 50.8l-1.25-3.3"/></svg>