<svg xmlns="http://www.w3.org/2000/svg" viewBox="0 0.1 47.5 50.0" width="47.5" height="50"><defs><radialGradient gradientUnits="userSpaceOnUse" r="819.2" cx="0" cy="0" fx="2240" fy="0" spreadMethod="pad" gradientTransform="matrix(.03 0 0 .03 19.3 10.6)" id="a"><stop offset="0" stop-color="#f00"/><stop offset=".51" stop-color="#f33"/><stop offset=".824"/></radialGradient><linearGradient gradientUnits="userSpaceOnUse" x1="-819.2" x2="819.2" gradientTransform="matrix(.003 .002 -.003 .003 33.55 10.8)" id="b"><stop offset=".176" stop-color="#fff"/><stop offset=".58" stop-color="#fc9"/></linearGradient><radialGradient gradientUnits="userSpaceOnUse" r="819.2" cx="0" cy="0" fx="100374.4" fy="0" spreadMethod="pad" gradientTransform="matrix(.03 0 0 .03 19.3 10.6)" id="c"><stop offset="0" stop-color="#900"/><stop offset=".475" stop-color="#C94800"/><stop offset=".71" stop-color="#f90"/><stop offset=".937" stop-color="#f90"/></radialGradient><radialGradient gradientUnits="userSpaceOnUse" r="819.2" cx="0" cy="0" spreadMethod="pad" gradientTransform="matrix(.03 0 0 .03 19.3 10.6)" id="d"><stop offset=".165" stop-color="#900"/><stop offset=".482" stop-color="#f30"/><stop offset=".867" stop-color="#fcc"/></radialGradient><linearGradient gradientUnits="userSpaceOnUse" x1="-819.2" x2="819.2" gradientTransform="matrix(.002 -.004 .007 .004 33.5 18.15)" id="e"><stop offset=".176" stop-color="#fff"/><stop offset=".58" stop-color="#fc9"/></linearGradient><radialGradient gradientUnits="userSpaceOnUse" r="819.2" cx="0" cy="0" spreadMethod="pad" gradientTransform="matrix(.004 0 0 .004 26.2 22.45)" id="f"><stop offset=".063" stop-color="#fff"/><stop offset=".412"/></radialGradient><radialGradient gradientUnits="userSpaceOnUse" r="819.2" cx="0" cy="0" spreadMethod="pad" gradientTransform="matrix(.03 0 0 .03 19.3 10.6)" id="g"><stop offset="0" stop-color="#fff"/><stop offset="1"/></radialGradient><linearGradient gradientUnits="userSpaceOnUse" x1="-819.2" x2="819.2" gradientTransform="matrix(0 -.002 .003 0 41.3 18.15)" id="h"><stop offset=".176" stop-color="#fff"/><stop offset=".58" stop-color="#fc9"/></linearGradient><radialGradient gradientUnits="userSpaceOnUse" r="819.2" cx="0" cy="0" fx="96985.6" fy="0" spreadMethod="pad" gradientTransform="matrix(.01 0 0 .01 39.15 25.45)" id="i"><stop offset="0" stop-color="#f00"/><stop offset=".51" stop-color="#f33"/><stop offset="1"/></radialGradient><radialGradient gradientUnits="userSpaceOnUse" r="819.2" cx="0" cy="0" fx="313.6" fy="0" spreadMethod="pad" gradientTransform="matrix(.009 0 0 .009 36.7 33.9)" id="j"><stop offset="0" stop-color="#900"/><stop offset=".455" stop-color="#C94800"/><stop offset="1" stop-color="#633"/></radialGradient><radialGradient gradientUnits="userSpaceOnUse" r="819.2" cx="0" cy="0" fx="1548.8" fy="0" spreadMethod="pad" gradientTransform="matrix(.01 0 0 .01 23.8 30.25)" id="k"><stop offset="0" stop-color="#fff"/><stop offset="1"/></radialGradient><radialGradient gradientUnits="userSpaceOnUse" r="819.2" cx="0" cy="0" spreadMethod="pad" gradientTransform="matrix(.013 0 0 .013 22.4 32.2)" id="l"><stop offset=".165" stop-color="#900"/><stop offset=".482" stop-color="#f30"/><stop offset=".867" stop-color="#fcc"/></radialGradient><radialGradient gradientUnits="userSpaceOnUse" r="819.2" cx="0" cy="0" fx="99.2" fy="0" spreadMethod="pad" gradientTransform="matrix(.008 0 0 .008 32.8 37.5)" id="m"><stop offset="0" stop-color="#f00"/><stop offset=".51" stop-color="#f33"/><stop offset="1"/></radialGradient><radialGradient gradientUnits="userSpaceOnUse" r="819.2" cx="0" cy="0" spreadMethod="pad" gradientTransform="matrix(.021 0 0 .021 11.8 33.9)" id="n"><stop offset=".227" stop-color="#900"/><stop offset=".455" stop-color="#C94800"/><stop offset=".667" stop-color="#633"/></radialGradient><radialGradient gradientUnits="userSpaceOnUse" r="819.2" cx="0" cy="0" spreadMethod="pad" gradientTransform="matrix(.021 0 0 .021 11.8 33.9)" id="o"><stop offset="0" stop-color="#900"/><stop offset=".455" stop-color="#C94800"/><stop offset="1" stop-color="#633"/></radialGradient><radialGradient gradientUnits="userSpaceOnUse" r="819.2" cx="0" cy="0" spreadMethod="pad" gradientTransform="matrix(.025 0 0 .025 11.8 32.4)" id="p"><stop offset="0" stop-color="#fff"/><stop offset="1"/></radialGradient></defs><path fill="#f00" d="M25.4 24.3l-.9-.15q-2-.2-3.1 1.3l.05-.8q.3-2.25 2.1-3.05l-.05.7q0 .6.5.9l1.4 1.1"/><path fill="url(#a)" d="M5.6 14.3l1.65-2.45L0 12.1l13.15-6L9.4 3.8l1.5-.1 7.05.15 3.75.65L19.8.55l-.5-.5 9.95 4.55 1.05.2.15-.3-.1-.85-.2-.65.1-.05V3l1.5 3.05.75 2.1q-.8.4-1.45 1.15l-1.5 1.6-.05-1.35q-.15-1.4-.65-2.15-.3 1.6-1.75 2.05-.05-2-.85-3.8-.05 1.7-.75 3.05-.25.5-.8.5-.95.05-1.65-.9l.1 1.25q-3.3-1.65-6.75-1.7 1 1.7 2.15 2.75l-.85-.45Q13.45 7.9 8.8 9.1l2.3.75q2.35 1.05 4 3l-.7-.2q-3.35-1-5.15 1.5 3.5-.05 6.4 1.55-1.9-.15-3.55.85-3.55 2.2-5.5 5.45L8 20.95q3.7-3.1 8.05-2.05-2.85 1.4-3.8 3.8l1.8-1.05q2.35-1.15 4.15-.05h-.05l-.1.15-1.15.95-.4.3q-1 1.55-1.1 3.7.25-.2.75-.25-.5.9-.65 2.3l-.05.45 1.3.1q.7.3 1.25 1.4l1 1.6 2.05 2.6-5.75-3.15-.9-.65 1.5.25-.85-1-1.55-1.65-.4-.6.95.6.65.1-.05-.1-1.6-2.7-.05.05-.65.85-.1-.3-.15-.75-.1-1.45-.7 1.05-.8 2.6-.2-.45-.55-2.7-.25-1.5L7.4 26l-1.3 2.15-.1-.3-.3-1.45-.05-5.55-.3.15-.85.05 1.45-2.35 1.7-2.75-.85.05-2.65.85L5.6 14.3m28.9-2.8l1.9-.75-.95 1.85 2.7-1-1.6 2 2.7-.05Q38 14.5 36.7 15.4l-.75.45-.15.15h-.65l-.05-.05-1.45-1.1-.9-.45.4-.2q.6-.45.7-1.15l.25-.9.4-.65m-4.45 20.9q.05-1.75-.65-3.1l-.15-.3v-1.3q-.2-1.3-1.25-2.3l-.8-.95-.05-.15q2.65.75 2.55-1.95-.05-1.5-.9-2.05-1.4-.9-2.95-1.3v-.05l4.6.05.4.05.05.1.55 1.55-1 .55.3.6q.8.85.35 1.7l-1 1.5h-.3l.5 1.9.05.45q.2.75.9.85l.6-.15.85-.55-.8 3.3-.15.4-.1.15-1.15 1.25-.05-.05-.4-.2M16.5 23L14 24.95l-.2.15-.55.6-.5-.05.3.35-.3-.35.5.05.55-.6.2-.15L16.5 23m-3.25 2.7h1.2l-.45-.75.45.75h-1.2m13.95-1.25l.8.3 1.8.3-1.8-.3-.8-.3"/><path fill="url(#b)" d="M32.5 8.15h.05l1.8-.65 5.2-.1-1.65.7-1.25.9-.65.6-1.5 1.9-.4.65-.25.9q-.1.7-.7 1.15l-.4.2h-.05l-.7-.3-1.7-.45-1.8.05-.9.15.05-.15.85-1.6.05-.05 1-1.15 1.5-1.6q.65-.75 1.45-1.15"/><path fill="url(#c)" d="M18.2 21.6q-1.8-1.1-4.15.05l-1.8 1.05q.95-2.4 3.8-3.8Q11.7 17.85 8 20.95L6.6 22q1.95-3.25 5.5-5.45 1.65-1 3.55-.85-2.9-1.6-6.4-1.55 1.8-2.5 5.15-1.5l.7.2q-1.65-1.95-4-3L8.8 9.1q4.65-1.2 8.9 1.05l.85.45Q17.4 9.55 16.4 7.85q3.45.05 6.75 1.7l-.1-1.25q.7.95 1.65.9.55 0 .8-.5.7-1.35.75-3.05.8 1.8.85 3.8Q28.55 9 28.85 7.4q.5.75.65 2.15l.05 1.35-1 1.15q-2-.75-3.75.3.05.4.45.5h-.6Q22.05 13 19.3 14l-1 .75-.8 1.5q1.15-.65 3-.55-1 1.4-1.5 3.2l1.05-.15q.1 2-1.6 2.75l-.2.05-.05.05"/><path fill="url(#d)" d="M18.2 21.6l.25-.1-.25.1.05-.05.2-.05q1.7-.75 1.6-2.75L19 18.9q.5-1.8 1.5-3.2-1.85-.1-3 .55l.8-1.5 1-.75q2.75-1 5.35-1.15h.6q-.4-.1-.45-.5 1.75-1.05 3.75-.3l-.05.05-.85 1.6-.05.15-2.45.9-1.15.85-.8.9v1.25l.45.9q.3.35.85.35l1.2-.05.15.05q1.55.4 2.95 1.3.85.55.9 2.05.1 2.7-2.55 1.95l.05.15.8.95q1.05 1 1.25 2.3V29l.15.3q.7 1.35.65 3.1l-1.3-.55-1.8-.85-3.6-1.85-2.4-2.45-1.3-1.3-1.6-.8-.1.7.05 3.65.05.35v.05l.3.9 3.05 4.8-.35-.15L19 32.3l-1-1.6q-.55-1.1-1.25-1.4l-1.3-.1.05-.45q.15-1.4.65-2.3-.5.05-.75.25.1-2.15 1.1-3.7l.4-.3 1.15-.95.1-.15h.05m3.15-5.6l1.95-1.25q.9-.45 1.85 0-.95-.45-1.85 0L21.35 16m2.2 5.6q-1.8.8-2.1 3.05l-.05.8q1.1-1.5 3.1-1.3l.9.15.25.25.55.6q-.15-.8.1-1.55l.35-1.85q-.05-.9-.65-1.25l-.65-.35-.45.05q-.55.15-.9.6-.35.3-.45.8m7.9-.9l1.3-.6 2.2 3.45-1.15-.1-.95.15 1.65 2.65.45.6-.8-.15.05.2.9 3.5.2 1.35-1.45-.9q-.7-.25-1.1.65l-.85-.65.8-3.3-.85.55-.6.15q-.7-.1-.9-.85l-.05-.45-.5-1.9h.3l1-1.5q.45-.85-.35-1.7l-.3-.6 1-.55"/><path fill="url(#e)" d="M22.5 45.75l.1.5q.05 1.2-.95 2.3L21 47.1v-.85q.15-.95 1.1-1.65l.4 1.1v.05m-5.85 2.5l-.6 1.75-1.15-1.5q-.55-.9-.75-2l-.05-.4q-.05-.8.3-1.5l.25-.3q.25-.3.7-.35l.3.4.85 1.85.2 1.7-.05.35m-10.8.8l-.15.65-.7-.6q-.8-.95-1-2.3-.1-.55.9-.55.45-.05.65.3.5 1.25.3 2.5M35.4 16.2l2.25 2.7.3.5 2.15 4.3.1.35 1 2.55-1.05-1.55-2.85-2.95-2.7-1.95-.75-.4-1.1-.4-1.85-.3h-.05l-.4-.05-4.6-.05h-.15l-1.2.05q-.55 0-.85-.35l-.45-.9V16.5l.8-.9 1.15-.85 2.45-.9.9-.15 1.8-.05 1.7.45.7.3h.05l.9.45 1.45 1.1.05.05h.05l.2.15v.05m-6.55 16.7l-.4.25-1.75.8.45-.6q.55-.75-.45-.45l-2.25.6 1.05-1.25-2.25.45q-.5.05-.4-.65l.25-.85-1.45.85q-.3-.65-.2-1.3l.25-1.3-1.05 1.05-.2-1.25v-.1L20.4 29q-.75.15-.65-.7l.1-1.95q1.35 1.25 2.4 2.8l.8 1.25.7.65 5.1 1.85"/><path fill="url(#f)" d="M23.55 21.6q.1-.5.45-.8.35-.45.9-.6l.45-.05.65.35q.6.35.65 1.25l-.35 1.85q-.25.75-.1 1.55l-.55-.6-.25-.25-1.4-1.1q-.5-.3-.5-.9l.05-.7"/><path fill="url(#g)" d="M25.85 19l-.15-.05h.15V19"/><path fill="url(#h)" d="M35.8 16l1.2.2h1.95l1.9-.3 1.95.1.65.35 1.35 1.1 2.35 2.95-.05.05-1.6-.85-1.35-.4-1.35-.2-1.6.05-2.4.35h-.85l-.3-.5-2.25-2.7.2-.15.1-.05h.1m-1.95 3.75l-.25.1-.85.25-1.3.6-.55-1.55v-.1l1.85.3 1.1.4"/><path fill="url(#i)" d="M33.85 19.75l.75.4 2.7 1.95 2.85 2.95 1.05 1.55-1-2.55-.1-.35-2.15-4.3h.85l2.4-.35 2.7 2.9q1.45 1.75 1.6 4.05l-.9-1.4q-2 2.25-2.4 5.75-.15 1.05-.85 1.5l-1-1Q38.6 29.4 34.2 26.9l-.05-.2.8.15-.45-.6-1.65-2.65.95-.15 1.15.1-2.2-3.45.85-.25.25-.1m7.55 7.4l-.2-.55.2.55"/><path fill="url(#j)" d="M41.35 31.85l.55 1.3q.3 1.6-.2 2.85l-.8 1.35-.8 1q.15 2.5-2.6 3.2.4-.4.4-1.15-1.1.6-2.4.6-1.5-.1-1.7-1.15l-.95-.3q-1.1-.6-1.35-1.8 1.3.2 1.35-2 0-1.3.8-1.75-.65-1.1-1.85-1.75v-1h-.05l.15-.4.85.65q.4-.9 1.1-.65l1.45.9-.2-1.35-.9-3.5q4.4 2.5 6.15 3.95l1 1M34.8 33.8l-1.15.2 1.15-.2m3.9 1.4q-.1 2.45-2 3.85-1.45 1.1-2.9.8 1.45.3 2.9-.8 1.9-1.4 2-3.85m-.8 5.2h.05l1.05-.75.3-.3.8-1-.8 1-.3.3-1.05.75h-.05"/><path fill="url(#k)" d="M21.4 35.05l-3.05-4.8-.3-.9v-.05l-.05-.35-.05-3.65.1-.7 1.6.8 1.3 1.3 2.4 2.45 3.6 1.85 1.8.85 1.3.55.4.2v.1l-.8.35-.75-.1-.05-.05-5.1-1.85-.7-.65-.8-1.25q-1.05-1.55-2.4-2.8l-.9-.7.4 3.45v.2q.2 1.55 1.1 3l1.2 2.3.4.7-.65-.25"/><path fill="url(#l)" d="M21.4 35.05l.65.25-.4-.7-1.2-2.3q-.9-1.45-1.1-3v-.2l-.4-3.45.9.7-.1 1.95q-.1.85.65.7l.05.15v.1l.2 1.25 1.05-1.05-.25 1.3q-.1.65.2 1.3l1.45-.85-.25.85q-.1.7.4.65l2.25-.45-1.05 1.25 2.25-.6q1-.3.45.45l-.45.6 1.75-.8.4-.25v.05h.05l.75.1.8-.35.05-.05 1.15-1.25.1-.15h.05v1q0 1.8.4 3.5l-2.4-.8-1.05-.1h-.05q-1 .2-1.75 1.65l-.05.1v1.3l-6.65-.55.6 1.55q-.9-.55-1.75-1l-3.35-2.45q-.75-.7-1.2-.75l-1.05-2.15-.8-2.9 2.35.7.85 1-1.5-.25.9.65 5.75 3.15.45.4.05.1-.15-.35m-7.2-4.1l.2.15-.2-.15"/><path fill="url(#m)" d="M37.5 41.55l-.4.3q-1.9 1-4.25.85l-1.15-.25h-1.6q-2.7 0-2.4-3 .2-2.45 1.05-4.6l1.05.1 2.4.8q-.4-1.7-.4-3.5 1.2.65 1.85 1.75-.8.45-.8 1.75-.05 2.2-1.35 2 .25 1.2 1.35 1.8l.95.3Q34 40.9 35.5 41q1.3 0 2.4-.6 0 .75-.4 1.15m-7.25-1.4q.1 1.75 1.45 2.3-1.35-.55-1.45-2.3"/><path fill="url(#n)" d="M14.55 34.7q-.95-.2-1.05 1.55l-3.5.9q.8-1.8 2.35-2.65l.1-4.95.25.1.8 2.9 1.05 2.15m6.55 5.95l1.15 1.6q.35.7.35 1.55l-.05 1.85-.05.05-.4-1.1q-.95.7-1.1 1.65v.85h-1.35l.45-.85.15-.95v-1l-.3-1q1.35-1.1 1.15-2.65m-2.7 7.3l-1.75.3.05-.35-.2-1.7-.85-1.85-.3-.4q-.45.05-.7.35l-.25.3q-.35.7-.3 1.5l.05.4q.2 1.1.75 2l-1.85.25q-1.9.25-3.45-.45l2.3-2.35.8-1.75q.4-1.55 1.85-1.5 1.9.15 2.8 1.65l.4.75.35 1.1.3 1.75m-9.95-.35l-1.15 1 .05-2.4.2.75.9.65m-5.95.7q-1.25-.8-.5-2.5l-.1-.6q-.2-1.25 0-2.5l.25-1.15.9-1.8.05 1.35.2.8.6 1v.05q.3 1.1-.35 2.35l-.2.35q-.75 1.2-.85 2.65m1.85-16.1l-1.6 1.5q-.7-2.15-.75-4.55l.05-1.65q-.95.15-1.3-.35-.5-.6-.15-2.15.45-2.05.25-4.15-.3-3 1.55-4.85l1.45-1.1q.8-.5 1.75-.6l-1.45 2.55L6.8 16l.85-.05-1.7 2.75-.8.35Q2 20.45 3 23.7q.65-.5 1.45-.65-.15 2.65-.65 4.8l-.3 1.05 1.1-.75.7.85.9 1.65-1.2.85-.65.7M2 45.8l.25-.4.05-.15 1.55-2.3.05-.05-.05.05-1.55 2.3-.05.15-.25.4"/><path fill="url(#o)" d="M13.5 36.25q1.1-.1 1.95.45l3.9 2.5 1.75 1.45q.2 1.55-1.15 2.65-.5-1.1-1.65-1.9 1.15.8 1.65 1.9l.3 1v1l-.15.95-.45.85-1.25.85-.3-1.75-.35-1.1-.4-.75q-.9-1.5-2.8-1.65-1.45-.05-1.85 1.5l-.8 1.75-2.3 2.35-.8-.45-.35-.25-.9-.65-.2-.75-.65-1.8.65 1.8-.05 2.4-.3.15-1.15.3q.2-1.25-.3-2.5-.2-.35-.65-.3-1 0-.9.55.2 1.35 1 2.3-1.25-.05-2.4-.75l-.1-.05q.1-1.45.85-2.65l.2-.35q.65-1.25.35-2.35v-.05l-.6-1-.2-.8-.05-1.35.65-.75q-.45-2.45-.25-4.75.05-1.1.9-2.05l.65-.7 1.2-.85L5.3 29l-.7-.85-1.1.75.3-1.05q.5-2.15.65-4.8-.8.15-1.45.65-1-3.25 2.15-4.65l.8-.35-1.45 2.35.85-.05.3-.15.05 5.55.3 1.45.1.3L7.4 26l2.1-2.6.25 1.5.55 2.7.2.45.8-2.6.7-1.05.1 1.45.15.75.1.3.65-.85.05-.05 1.6 2.7.05.1-.65-.1-.95-.6.4.6 1.55 1.65-2.35-.7-.25-.1-.1 4.95q-1.55.85-2.35 2.65l-1.45.5 1.45-.5 3.5-.9m-7-5.75l-.3.15.3-.15m-2.1 8.05l-.7.45.7-.45m.4 3.3l-.9 1.05.9-1.05"/><path fill="url(#p)" d="M21.05 34.9l.35.15.15.35-.05-.1-.45-.4"/><path fill="none" stroke="#000" stroke-width=".05" stroke-linecap="round" stroke-linejoin="round" d="M30.15 3l-.2-.65.3.6M35.7 16l-.1.05-.2.15m-16.95 5.3l-.25.1m2.85 13.3l.35.15.15.35m2-13.8q.1-.5.45-.8.35-.45.9-.6l.45-.05.65.35q.6.35.65 1.25l-.35 1.85q-.25.75-.1 1.55l-.55-.6m-.25-.25L24 23.2q-.5-.3-.5-.9l.05-.7M35.2 16l.2.15v.05m-21 14.9l-.2-.15m16.25 1.75l.05-.05"/><path fill="none" stroke="#333" stroke-width=".05" stroke-linecap="round" stroke-linejoin="round" d="M30.5 32.65l-.05-.05-.4-.2M41.2 19.05l2.7 2.9q1.45 1.75 1.6 4.05l-.9-1.4q-2 2.25-2.4 5.75-.15 1.05-.85 1.5M5.6 14.3l1.65-2.45L0 12.1l13.15-6L9.4 3.8l1.5-.1 7.05.15 3.75.65L19.8.55l-.5-.5 9.95 4.55 1.05.2.15-.3-.1-.85-.2-.65m.1-.05V3l1.5 3.05.75 2.1m2 3.35l1.9-.75-.95 1.85 2.7-1-1.6 2 2.7-.05Q38 14.5 36.7 15.4l-.75.45-.15.15h-.1m-.6-.05l.05.05m.05 0h.5m-17.5 5.6h-.05l-.1.15-1.15.95m4.5 12.35l-3.05-4.8-.3-.9v-.05l-.05-.35-.05-3.65.1-.7 1.6.8 1.3 1.3 2.4 2.45 3.6 1.85 1.8.85 1.3.55m.85-13.25l.55 1.55-1 .55.3.6q.8.85.35 1.7l-1 1.5h-.3l.5 1.9.05.45q.2.75.9.85l.6-.15.85-.55-.8 3.3-.15.4-.1.15-1.15 1.25m3.7-5.75q4.4 2.5 6.15 3.95l1 1M30.45 19l.4.05.05.1M5.95 18.7l1.7-2.75-.85.05-2.65.85L5.6 14.3m.35 4.4L4.5 21.05l.85-.05.3-.15.05 5.55.3 1.45.1.3L7.4 26l2.1-2.6.25 1.5.55 2.7.2.45.8-2.6.7-1.05.1 1.45.15.75.1.3.65-.85.05-.05-.3-.35.5.05.55-.6.2-.15L16.5 23m3.35 3.35l-.9-.7.4 3.45v.2q.2 1.55 1.1 3l1.2 2.3.4.7-.65-.25m-.35-.15l-5.75-3.15-.9-.65 1.5.25-.85-1-1.55-1.65-.4-.6.95.6.65.1-.05-.1-1.6-2.7m15.8 6.9l-5.1-1.85-.7-.65-.8-1.25q-1.05-1.55-2.4-2.8M14 24.95l.45.75h-1.2m16.55-.65l-1.8-.3-.8-.3m3.25 8.25l-.8.35-.75-.1m-.05-.05l.05.05"/><path fill="none" stroke="#FF3F10" stroke-width=".05" stroke-linecap="round" stroke-linejoin="round" d="M25.15 14.75q-.95-.45-1.85 0L21.35 16"/><path fill="none" stroke="#FF9887" stroke-width=".05" stroke-linecap="round" stroke-linejoin="round" d="M35.8 16l1.2.2h1.95l1.9-.3 1.95.1.65.35 1.35 1.1 2.35 2.95.35.4-.4-.35-1.6-.85-1.35-.4-1.35-.2-1.6.05m-8.7-10.9h.05l1.8-.65 5.2-.1-1.65.7-1.25.9-.65.6-1.5 1.9-.4.65-.25.9q-.1.7-.7 1.15l-.4.2.9.45 1.45 1.1m.3.25l2.25 2.7.3.5h.85l2.4-.35m0 7.55l.2.55M29.55 10.9l1.5-1.6q.65-.75 1.45-1.15M35.15 16h.05m-5.65-5.1l-1 1.15-.05.05-.85 1.6-.05.15.9-.15 1.8-.05 1.7.45.7.3h.05m-7.05 4.55l-1.2.05q-.55 0-.85-.35l-.45-.9V16.5l.8-.9 1.15-.85m.7 4.2h-.15m1.9-5.1l-2.45.9m7.6 5.35l.85-.25.25-.1-1.1-.4-1.85-.3m.55 1.65l1.3-.6m8.45 6.5l-1.05-1.55-2.85-2.95-2.7-1.95-.75-.4m-3-.7h.05m7.05.35l2.15 4.3.1.35 1 2.55m-15.35-7.65l4.6.05"/><path fill="none" stroke="#AE2000" stroke-width=".05" stroke-linecap="round" stroke-linejoin="round" d="M41.35 31.85l.55 1.3q.3 1.6-.2 2.85l-.8 1.35-.8 1q.15 2.5-2.6 3.2l-.4.3q-1.9 1-4.25.85l-1.15-.25h-1.6q-2.7 0-2.4-3 .2-2.45 1.05-4.6h-.05q-1 .2-1.75 1.65l-.05.1v1.3l-6.65-.55.6 1.55q-.9-.55-1.75-1l-3.35-2.45q-.75-.7-1.2-.75-.95-.2-1.05 1.55 1.1-.1 1.95.45l3.9 2.5 1.75 1.45 1.15 1.6q.35.7.35 1.55l-.05 1.85-.05.1.1.5m-1.6.85h-1.35l-1.25.85-1.75.3m-1.75.25l-1.85.25q-1.9.25-3.45-.45l-.8-.45-.35-.25-1.15 1-.3.15-1.15.3M5 49.1q-1.25-.05-2.4-.75l-.1-.05q-1.25-.8-.5-2.5l-.1-.6q-.2-1.25 0-2.5l.25-1.15.9-1.8.65-.75q-.45-2.45-.25-4.75.05-1.1.9-2.05l-1.6 1.5q-.7-2.15-.75-4.55l.05-1.65q-.95.15-1.3-.35-.5-.6-.15-2.15.45-2.05.25-4.15-.3-3 1.55-4.85l1.45-1.1q.8-.5 1.75-.6m27.15 5.8l2.2 3.45-1.15-.1-.95.15 1.65 2.65.45.6-.8-.15.05.2m-2.3 3.95l.85.65q.4-.9 1.1-.65l1.45.9-.2-1.35-.9-3.5m-28 3.75l.3-.15m-2.15 1.7l.65-.7 1.2-.85m3.8 6.5l-1.45.5M3.7 39l.7-.45m-.5 4.35l.9-1.05m-.9 1.05l-.05.05-1.55 2.3-.05.15-.25.4m5.35.4l-.65-1.8m1.75 3.2l-.9-.65-.2-.75m12.6-2.9q-.5-1.1-1.65-1.9m1.65 1.9l.3 1v1l-.15.95-.45.85M13.5 36.25l-3.5.9M33.65 34l1.15-.2m-3-2.55v1q1.2.65 1.85 1.75-.8.45-.8 1.75-.05 2.2-1.35 2 .25 1.2 1.35 1.8l.95.3q1.45.3 2.9-.8 1.9-1.4 2-3.85m-6.9-2.95q0 1.8.4 3.5l-2.4-.8-1.05-.1M22.5 45.7v.05m17.6-7.4l-.8 1-.3.3-1.05.75h-.05q0 .75-.4 1.15m.4-1.15q-1.1.6-2.4.6-1.5-.1-1.7-1.15m-2.1 2.6q-1.35-.55-1.45-2.3"/><path fill="none" stroke="#FF846C" stroke-width=".05" stroke-linecap="round" stroke-linejoin="round" d="M22.6 46.25q.05 1.2-.95 2.3L21 47.1m-4.35 1.15l-.6 1.75-1.15-1.5q-.55-.9-.75-2l-.05-.4q-.05-.8.3-1.5l.25-.3q.25-.3.7-.35l.3.4.85 1.85.2 1.7-.05.35m-10.8.8l-.15.65-.7-.6m14.85-22.75l-.1 1.95q-.1.85.65.7l.05.15v.1l.2 1.25 1.05-1.05-.25 1.3q-.1.65.2 1.3l1.45-.85-.25.85q-.1.7.4.65l2.25-.45-1.05 1.25 2.25-.6q1-.3.45.45l-.45.6 1.75-.8.4-.25m-23 16.15q.2-1.25-.3-2.5-.2-.35-.65-.3-1 0-.9.55.2 1.35 1 2.3m23.9-16.15h-.05v-.05M22.5 45.7l-.4-1.1q-.95.7-1.1 1.65v.85"/></svg>