<svg xmlns="http://www.w3.org/2000/svg" viewBox="0 0 51.9 54.3" width="51.9" height="54.3"><defs><radialGradient gradientUnits="userSpaceOnUse" r="819.2" cx="0" cy="0" spreadMethod="pad" gradientTransform="matrix(-.003 .001 .002 .004 3.7 10.2)" id="a"><stop offset="0" stop-color="#fff"/><stop offset=".561" stop-color="#f00"/><stop offset="1"/></radialGradient><radialGradient gradientUnits="userSpaceOnUse" r="819.2" cx="0" cy="0" spreadMethod="pad" gradientTransform="matrix(-.013 0 0 .013 7.7 17.5)" id="b"><stop offset="0" stop-color="#993"/><stop offset="1"/></radialGradient><radialGradient gradientUnits="userSpaceOnUse" r="819.2" cx="0" cy="0" spreadMethod="pad" gradientTransform="matrix(-.002 .001 .001 .004 12.1 2.9)" id="c"><stop offset="0" stop-color="#fff"/><stop offset=".561" stop-color="#f00"/><stop offset="1"/></radialGradient><radialGradient gradientUnits="userSpaceOnUse" r="819.2" cx="0" cy="0" spreadMethod="pad" gradientTransform="matrix(-.016 0 0 .016 16.4 12.8)" id="d"><stop offset="0" stop-color="#993"/><stop offset="1"/></radialGradient><radialGradient gradientUnits="userSpaceOnUse" r="819.2" cx="0" cy="0" spreadMethod="pad" gradientTransform="matrix(-.015 0 0 .015 11.55 29.9)" id="e"><stop offset="0" stop-color="#993"/><stop offset="1"/></radialGradient><radialGradient gradientUnits="userSpaceOnUse" r="819.2" cx="0" cy="0" spreadMethod="pad" gradientTransform="matrix(-.03 0 0 .03 25.05 36.65)" id="f"><stop offset="0" stop-color="#993"/><stop offset="1"/></radialGradient><radialGradient gradientUnits="userSpaceOnUse" r="819.2" cx="0" cy="0" spreadMethod="pad" gradientTransform="matrix(-.018 0 0 .018 30.65 39.25)" id="g"><stop offset="0" stop-color="#993"/><stop offset="1"/></radialGradient><radialGradient gradientUnits="userSpaceOnUse" r="819.2" cx="0" cy="0" spreadMethod="pad" gradientTransform="matrix(-.021 0 0 .021 17.15 47.7)" id="h"><stop offset="0" stop-color="#993"/><stop offset="1"/></radialGradient><radialGradient gradientUnits="userSpaceOnUse" r="819.2" cx="0" cy="0" spreadMethod="pad" gradientTransform="matrix(-.02 0 0 .02 24.1 40.65)" id="i"><stop offset="0" stop-color="#290000"/><stop offset=".271"/><stop offset=".545" stop-color="#f00"/><stop offset=".894"/></radialGradient><radialGradient gradientUnits="userSpaceOnUse" r="819.2" cx="0" cy="0" spreadMethod="pad" gradientTransform="matrix(-.003 -.001 -.003 .006 38.75 3.15)" id="j"><stop offset="0" stop-color="#fff"/><stop offset=".561" stop-color="#f00"/><stop offset="1"/></radialGradient><radialGradient gradientUnits="userSpaceOnUse" r="819.2" cx="0" cy="0" spreadMethod="pad" gradientTransform="matrix(-.017 0 0 .017 34.7 13.25)" id="k"><stop offset="0" stop-color="#993"/><stop offset="1"/></radialGradient><radialGradient gradientUnits="userSpaceOnUse" r="819.2" cx="0" cy="0" spreadMethod="pad" gradientTransform="matrix(-.014 0 0 .014 43.5 21.5)" id="l"><stop offset="0" stop-color="#993"/><stop offset="1"/></radialGradient><radialGradient gradientUnits="userSpaceOnUse" r="819.2" cx="0" cy="0" spreadMethod="pad" gradientTransform="matrix(-.003 -.002 -.003 .004 49.25 18.75)" id="m"><stop offset="0" stop-color="#fff"/><stop offset=".561" stop-color="#f00"/><stop offset="1"/></radialGradient><radialGradient gradientUnits="userSpaceOnUse" r="819.2" cx="0" cy="0" spreadMethod="pad" gradientTransform="matrix(-.012 0 0 .012 42.55 37.45)" id="n"><stop offset="0" stop-color="#993"/><stop offset="1"/></radialGradient><radialGradient gradientUnits="userSpaceOnUse" r="819.2" cx="0" cy="0" spreadMethod="pad" gradientTransform="matrix(-.001 0 0 .001 29.75 23.3)" id="o"><stop offset="0" stop-color="#993"/><stop offset="1"/></radialGradient><radialGradient gradientUnits="userSpaceOnUse" r="819.2" cx="0" cy="0" spreadMethod="pad" gradientTransform="matrix(-.003 0 0 .003 26.3 22.7)" id="p"><stop offset="0" stop-color="#993"/><stop offset="1"/></radialGradient><radialGradient gradientUnits="userSpaceOnUse" r="819.2" cx="0" cy="0" spreadMethod="pad" gradientTransform="matrix(-.005 0 0 .005 29.85 29.85)" id="q"><stop offset="0" stop-color="#993"/><stop offset="1"/></radialGradient><radialGradient gradientUnits="userSpaceOnUse" r="819.2" cx="0" cy="0" spreadMethod="pad" gradientTransform="matrix(-.001 0 0 .001 27.45 24.55)" id="r"><stop offset="0" stop-color="#993"/><stop offset="1"/></radialGradient></defs><path fill="#fff" d="M9.75 41.65l.25.3.15.1q1.05.7 2.05.8-.05-2.1 2.05-2.1l2 1.8-.25-1q-.25-1.4.35-2.05.3-.3.75-.45l.15.25q.9 1.3 2.3 2l-.2-1.35.3-1.45.55-.5.15.2q1.35 1.95 3.05 2.95.05-1.5 1.35-2.25l.15 1.05q.4 1.1.3 2.4.85-1.1 2.25-1.6 1.6-.65.15 1.6 1.6-.4 2.55-1.95l-1.05-.55q-2.55-1.5-5.25-2.75l-1-.4q-2.2-.75-4.8-.55l-1.2.15q-2.15.5-3.75 2.15l-3.35 3.2"/><path fill="url(#a)" d="M6 10.8l.1-.6q0-1-.7-1.7l-.35-.3q-.6-.45-1.35-.45-1 0-1.7.75-.7.7-.7 1.7l.15.95.55.8q.7.7 1.7.7h.2q.85-.05 1.5-.7.5-.5.6-1.15m-4.1 0l-.4.3-.05.05.05-.05.4-.3"/><path fill="url(#b)" d="M6.2 11.8l.55-1.25q.4-.75 0-1.55-.45-.8-1.25-.9l-.45.1.35.3q.7.7.7 1.7l-.1.6.2.95v.05-.05L6 10.8q-.1.65-.6 1.15-.65.65-1.5.7h-.2q-1 0-1.7-.7l-.55-.8q-.35.6.15 1.1L3 13q.55.1.75.55l-.1.5q-.15 1.6.05 3.25.35 2.5 2.15 3.85l4.8 3.8 2 2L14.1 26q-.55-1.2-1.7-1.95l-.35-.2q-2.1-1.2-3.9-2.9-1.75-1.8-1.95-4.15-.2-2.5 0-4.9v-.1"/><path fill="url(#c)" d="M14.9 2.15l-.05-.25-.7-1.05Q13.3 0 12.1 0q-1.2 0-2.05.85-.75.75-.85 1.85v.2q0 1.2.85 2.05.85.85 2.05.85 1.2 0 2.05-.85Q15 4.1 15 2.9l-.05-.65V2.2l-.05-.05"/><path fill="url(#d)" d="M9.2 2.7l-.75.75-.3.8q-.1.9.7 1.35l1.5.7 1.55.4.05-.05.1.05 2.55 1.95q1.95 1.05 3.8 2.55 1.85 1.5 3.05 3.65 1.3 2.2.8 4.65L22 20.75l-.95 2.6 3.15.05.1-1.45.05-.1.1-1.1.15-1.5q.3-2.5-.65-4.75-.95-2.35-2.75-4.05l-5.75-6 .15-.9q0-.85-.6-1.35h-.05v.05l.05.65q0 1.2-.85 2.05-.85.85-2.05.85-1.2 0-2.05-.85Q9.2 4.1 9.2 2.9v-.2M15.1 5l.35-.55-.35.55m-1.6 1.65l-1.45.05 1.45-.05m-1.8-.3l.25.3-.25-.3"/><path fill="url(#e)" d="M20 21.3l-.2.05-1.85 1.25q-1.5 1.4-3.65 1.3l-1.15-.15-.2-.05-.55.35q1.15.75 1.7 1.95l-1.45.95-2-2-1.8.75q-2.75.95-.8 3.15l.75.75q-2.05 1.2-1.1 2.7-2 .25-3.45 1.45l-.65.6q-.7.8-.3 2 .45 1.4 1.55 2.15-.4-.8 1.6-1.95L11.9 34q2.65-1.05 5.7-1.4 3-.4 1-1.75l-.15-.05q-2.95-2.05-.6-2.75l.5-.15q2-.45.75-1.6L17.85 25q-.8-.95.7-2.05 1.05-.8 1.35-1.5l.1-.15m-8.6 10.05q-1.55.7-3.5.9l-.2.05.2.25-.2-.25.2-.05q1.95-.2 3.5-.9m4.45.15q-1.2-1.05-3.45-.85-1.45.05-2.65-.5l-.95-.55.95.55q1.2.55 2.65.5 2.25-.2 3.45.85m-1.35-3.95l-.1-.55-.3-1 .3 1 .1.55"/><path fill="url(#f)" d="M22 20.75l-2 .55-.1.15q-.3.7-1.35 1.5-1.5 1.1-.7 2.05l1.25 1.3q1.25 1.15-.75 1.6l-.5.15q-2.35.7.6 2.75l.15.05q2 1.35-1 1.75-3.05.35-5.7 1.4l-5.45 2.55q-2 1.15-1.6 1.95.85.55 2 .7l-.55.15-1.75.65-2.1 1.1-.05.15-.55 2.8.9 1q1.55 1.35 3.4 1.7l1.45.05q3.35-.2 4.75 2.35.3.5-.35 1-1.9 1.6.4 2.25l2.3.1 5.5-2.5q2.4-1.3 3.45-.35.55.45.75 1.45 3.45-.3 6.1-1.6 1.85-1 2.85-.55l.85.8q.35.5-.4.85-1.5.7-.05 1.35l1.8-.7 1 .05q1.85 1.3 4.3.8l1.85-.7q1.15-.8-.1-2.25-1.45-1.75 1.15-2.25 2.15-.45 4.05-1.45 1.15-1.85-.6-3.05l-2.3-2.25q-.5-.75-1.3-1l-1.3-.4q-2.9-.85-5.55-.95 1.2-.2 2.25-1.2l-3.8-2.1h1.7q2.1-.1 3.6-1.3l1.1-1.2q1-1.35 1-2.45l-.15-.1q-1.5-.95-3.4-.9-.3.95-.9 1.35-.95.65-2.65-.45l-.4-.15.15-.65-1.8-1.2-.25-2.1q-.15-2.65-3.2-2v.05l-.45.55-.3.35-1.1.95-.6-.3-.4-.25-1.35-1.15-1.6-.15v.65-.65l-3.15-.05-.35.7.35-.7.95-2.6M33.1 44.1l-22.15.45-2 .35-.9.35q-.3-1.9 1.15-3.1l.55-.5 3.35-3.2q1.6-1.65 3.75-2.15l.45-.65q1.75-2.2 4.35-2.25l.75.05q1.6.15 2.85.95l.8.55q1.3 1.1 2.75 1.75 1.3.55 2.5 1.35l2.15 1.65q2.2 1.9 5.25 1.95h.3q2.95.1 4.8 2.25 1.15 1.25-.05 1-3-.8-6.05 0l-2.05.2q-1.45-.1-2.55-1m-22.6-5.6l-3.65.7 3.65-.7M30 25.85l-.4-1.4-.05-.5.05.5.4 1.4m.25-1.95l-.25-.5.25.5m4.8 5.7l.05-.3-.05.3M34 29.5l-.15-.4-.4-1.65.4 1.65.15.4m-7.7-.55l-.35-.4q.95.7 2.4.65h.9l2.15.4q1.3.5 2.3 1.55l-5.2-.75-.4-.2-1.8-1.25"/><path fill="url(#g)" d="M30.15 40.4q2.1 1.05 4.35 1.7l5.7 1.5-7.1.5q1.1.9 2.55 1l2.05-.2q3.05-.8 6.05 0 1.2.25.05-1-1.85-2.15-4.8-2.25h-.3q-3.05-.05-5.25-1.95l-2.15-1.65q-1.2-.8-2.5-1.35-1.45-.65-2.75-1.75l-.8-.55q-1.25-.8-2.85-.95l-.75-.05q-2.6.05-4.35 2.25l-.45.65 1.2-.15q2.6-.2 4.8.55l1 .4q2.7 1.25 5.25 2.75l1.05.55.15-.25-.15.25"/><path fill="url(#h)" d="M2.3 41.2Q.8 42.3.2 43.9l-.2.85q.05.85.9 1.3l3.55 1.15 1.15.2q3.4.35 2.15 2.85-.9 1.8.3 2.8 1.75 1.35 4.2 1.2l.3-.05q2.35-.25 4.15-1.65 1.9-1.45 4.35-1.15-.65 1 .65 1.7l.3.15q2.15 1 4.5.6l7.25-1.9q-1.45-.65.05-1.35.75-.35.4-.85l-.85-.8q-1-.45-2.85.55-2.65 1.3-6.1 1.6-.2-1-.75-1.45-1.05-.95-3.45.35l-5.5 2.5-2.3-.1q-2.3-.65-.4-2.25.65-.5.35-1-1.4-2.55-4.75-2.35l-1.45-.05q-1.85-.35-3.4-1.7l-.9-1 .55-2.8-.1-.05m19.3 9.6l-.55.6.55-.6"/><path fill="url(#i)" d="M9.75 41.65l-.55.5q-1.45 1.2-1.15 3.1l.9-.35 2-.35 22.15-.45 7.1-.5-5.7-1.5q-2.25-.65-4.35-1.7-.95 1.55-2.55 1.95 1.45-2.25-.15-1.6-1.4.5-2.25 1.6.1-1.3-.3-2.4l-.15-1.05q-1.3.75-1.35 2.25-1.7-1-3.05-2.95l-.15-.2-.55.5-.3 1.45.2 1.35q-1.4-.7-2.3-2l-.15-.25q-.45.15-.75.45-.6.65-.35 2.05l.25 1-2-1.8q-2.1 0-2.05 2.1-1-.1-2.05-.8l-.15-.1-.25-.3"/><path fill="url(#j)" d="M41.55 4.3l.2-1.15q0-1.2-.9-2.05Q40 .25 38.7.25q-1.2 0-2.1.85l-.15.15q-.75.8-.75 1.9 0 1.2.9 2.05.9.85 2.1.9 1.3-.05 2.15-.9l.7-.9"/><path fill="url(#k)" d="M41.55 4.3l-.7.9q-.85.85-2.15.9-1.2-.05-2.1-.9-.9-.85-.9-2.05 0-1.1.75-1.9-.7 0-1.25.55t-.65 1.35v1.1l.05.45v.05l-.05.2-.05.1q-.2 1.55-1.25 2.9-1.35 1.75-2.2 3.65-.85 1.95-1.25 4.4l-1 4.4-.4 1.35-.65 2.4v.05l-.2.75.6.3 1.1-.95.3-.35-.05-1.25.2-1.7 1.15-4.85q.6-2.3 1.6-4.4 1-2.05 3.05-3.35 1.25-.75 2.9-.75h.1q.8-.1 1.4-.55l1.25-.8q.75-.45.6-1.35l-.2-.65M35.5 6.05q-.7-.45-.9-1.25v-.05.05q.2.8.9 1.25"/><path fill="url(#l)" d="M39.05 28.55l-2 .3.1-.45.1-.2q.75-2.25 1-4.65.25-2.5.1-5.05-.1-2.15 1.1-3.2 2-1.6 4 0 1.65 1.3 2.5 3.2l.05.2-.05.3.05 1.05q.15.8.8 1.35l1.05.15.65-.35-1.1-.65q-.75-.75-.75-1.8 0-1.1.75-1.85.8-.75 1.85-.75t1.8.75l.6.95q.55-.7-.05-1.25l-1.15-1-1.45-.25-1.5.4-1.1.55-2.25-2.25q-1.2-1.3-3-1.2-2.5.1-3.25 2.45l-2.65 13.35-.15.65.4.15q1.7 1.1 2.65.45.6-.4.9-1.35m-2.35 1.2l.35-.9-.35.9"/><path fill="url(#m)" d="M48.5 21.2l.75.15q1.05-.05 1.8-.8.8-.75.8-1.8l-.15-.85-.05-.05-.6-.95q-.75-.75-1.8-.75t-1.85.75q-.75.75-.75 1.85 0 1.05.75 1.8l1.1.65.25-.25-.25.25"/><path fill="url(#n)" d="M47.8 45.45l.55-.35q2.25-1.4 1.15-3.95-.95-2.4-3.55-2.9-1.1-.2-1.9-.9-.8-.7-1.3-1.9l.5-.45q.55-.65.75-1.5.7-2.55-1.4-3.95 0 1.1-1 2.45l-1.1 1.2q-1.5 1.2-3.6 1.3h-1.7l3.8 2.1q-1.05 1-2.25 1.2 2.65.1 5.55.95l1.3.4q.8.25 1.3 1l2.3 2.25q1.75 1.2.6 3.05m-6.55-8.85l1.35-1.05.15-.1-.15.1-1.35 1.05"/><path fill="url(#o)" d="M30 23.35h-.05l-.45-.65.05 1.25.45-.55v-.05"/><path fill="url(#p)" d="M28.4 21.75q-.65-.4-1.5-.6l-2.45-.4-.1 1.1-.05.1-.1 1.45 1.6.15 1.35 1.15.6-.5v-.05l.65-2.4"/><path fill="url(#q)" d="M26.3 28.95l1.8 1.25.4.2 5.2.75q-1-1.05-2.3-1.55l-2.15-.4h-.9q-1.45.05-2.4-.65l.35.4"/><path fill="url(#r)" d="M27.55 24.95l.2-.75-.6.5.4.25"/><path fill="none" stroke="#000" stroke-width=".05" stroke-linecap="round" stroke-miterlimit="3" d="M5.85 21.15l4.8 3.8"/><path fill="none" stroke="#400" stroke-width=".05" stroke-linecap="round" stroke-miterlimit="3" d="M14.9 2.15l-.05-.25-.7-1.05Q13.3 0 12.1 0q-1.2 0-2.05.85-.75.75-.85 1.85v.2q0 1.2.85 2.05.85.85 2.05.85 1.2 0 2.05-.85Q15 4.1 15 2.9l-.05-.65V2.2l-.05-.05M6 10.8l.1-.6q0-1-.7-1.7l-.35-.3q-.6-.45-1.35-.45-1 0-1.7.75-.7.7-.7 1.7l.15.95.55.8q.7.7 1.7.7h.2q.85-.05 1.5-.7.5-.5.6-1.15m42.5 10.4l.75.15q1.05-.05 1.8-.8.8-.75.8-1.8l-.15-.85-.05-.05-.6-.95q-.75-.75-1.8-.75t-1.85.75q-.75.75-.75 1.85 0 1.05.75 1.8l1.1.65.25-.25M41.55 4.3l.2-1.15q0-1.2-.9-2.05Q40 .25 38.7.25q-1.2 0-2.1.85l-.15.15q-.75.8-.75 1.9 0 1.2.9 2.05.9.85 2.1.9 1.3-.05 2.15-.9l.7-.9m-40.1 6.85l.05-.05.4-.3"/><path fill="none" stroke="#3B3B13" stroke-width=".05" stroke-linecap="round" stroke-miterlimit="3" d="M9.2 2.7l-.75.75-.3.8q-.1.9.7 1.35l1.5.7 1.55.4h.15l2.55 1.95q1.95 1.05 3.8 2.55 1.85 1.5 3.05 3.65 1.3 2.2.8 4.65L22 20.75l-2 .55-.2.05-1.85 1.25q-1.5 1.4-3.65 1.3l-1.15-.15-.2-.05-.35-.1M15 2.2q.6.5.6 1.35l-.15.9-.35.55M5.05 8.2l.45-.1q.8.1 1.25.9.4.8 0 1.55L6.2 11.8v-.05L6 10.8m-4.55.35q-.35.6.15 1.1L3 13q.55.1.75.55l-.1.5q-.15 1.6.05 3.25.35 2.5 2.15 3.85m4.8 3.8l-1.8.75q-2.75.95-.8 3.15l.75.75.95.55q1.2.55 2.65.5 2.25-.2 3.45.85m-8.15.8q-2 .25-3.45 1.45l-.65.6q-.7.8-.3 2 .45 1.4 1.55 2.15.85.55 2 .7l-.55.15-1.75.65-2.1 1.1-.15.1Q.8 42.3.2 43.9l-.2.85q.05.85.9 1.3l3.55 1.15 1.15.2q3.4.35 2.15 2.85-.9 1.8.3 2.8 1.75 1.35 4.2 1.2l.3-.05q2.35-.25 4.15-1.65 1.9-1.45 4.35-1.15-.65 1 .65 1.7l.3.15q2.15 1 4.5.6l7.25-1.9 1.8-.7 1 .05q1.85 1.3 4.3.8l1.85-.7q1.15-.8-.1-2.25-1.45-1.75 1.15-2.25 2.15-.45 4.05-1.45l.55-.35m-5.6-9.65l.5-.45q.55-.65.75-1.5.7-2.55-1.4-3.95l-.15-.1q-1.5-.95-3.4-.9l-2 .3.1-.45.1-.2q.75-2.25 1-4.65.25-2.5.1-5.05-.1-2.15 1.1-3.2 2-1.6 4 0 1.65 1.3 2.5 3.2l.05.2-.05.3.05 1.05q.15.8.8 1.35l1.05.15.65-.35m3.15-3.35q.55-.7-.05-1.25l-1.15-1-1.45-.25-1.5.4-1.1.55-2.25-2.25q-1.2-1.3-3-1.2-2.5.1-3.25 2.45l-2.65 13.35-1.8-1.2-.25-2.1q-.15-2.65-3.2-2h-.05l-.45-.65.2-1.7 1.15-4.85m7.55-8.5h.1q.8-.1 1.4-.55l1.25-.8q.75-.45.6-1.35l-.2-.65m-5.1-3.05q-.7 0-1.25.55t-.65 1.35v1.1l.05.45v.05l-.05.2-.05.1q-.2 1.55-1.25 2.9-1.35 1.75-2.2 3.65-.85 1.95-1.25 4.4l-1 4.4-.4 1.35q-.65-.4-1.5-.6l-2.45-.4.15-1.5q.3-2.5-.65-4.75-.95-2.35-2.75-4.05l-5.75-6M6.2 11.8v.1m5.85 11.95l.35.2q1.15.75 1.7 1.95l.3 1 .1.55m-1.85-.6l-2-2m-2.75 7.6l-.2-.25.2-.05q1.95-.2 3.5-.9M33.1 44.1l-22.15.45-2 .35-.9.35q-.3-1.9 1.15-3.1l.55-.5m20.4-1.25q2.1 1.05 4.35 1.7l5.7 1.5-7.1.5M6.85 39.2l3.65-.7m4.4-36.35l.1.05m-2.95 4.5l1.45-.05m-1.55 0l.1.05m-.1-.05l-.25-.3m17.85 17.6l-.05-1.25m.5.65v.05l.25.5m-2.7 1.05l.2-.75v-.05l.65-2.4m1.15 2.2l.05.5.4 1.4m-5.8-2.45l.1-1.45.05-.1.1-1.1m-.25 2.65v.65m-3.15-.7l-.35.7m-8.3 0l.55-.35m8.1-.35l.95-2.6m12.6-16v.05q.2.8.9 1.25m-.4 23.25l.15-.65m-1.8-1.2l.4 1.65.15.4m1.1-.2l-.05.3m2-.75l-.35.9m6.05 5.7l-.15.1-1.35 1.05m-11.1 3.8l.15-.25M21.05 51.4l.55-.6"/><path fill="none" stroke="#ccc" stroke-width=".05" stroke-linecap="round" stroke-miterlimit="3" d="M9.75 41.65l.25.3.15.1q1.05.7 2.05.8-.05-2.1 2.05-2.1l2 1.8-.25-1q-.25-1.4.35-2.05.3-.3.75-.45l.15.25q.9 1.3 2.3 2l-.2-1.35.3-1.45.55-.5.15.2q1.35 1.95 3.05 2.95.05-1.5 1.35-2.25l.15 1.05q.4 1.1.3 2.4.85-1.1 2.25-1.6 1.6-.65.15 1.6 1.6-.4 2.55-1.95m-13.3-4.1q-2.15.5-3.75 2.15l-3.35 3.2m7.1-5.35l1.2-.15q2.6-.2 4.8.55l1 .4q2.7 1.25 5.25 2.75l1.05.55"/><path fill="none" stroke="#606020" stroke-width=".05" stroke-linecap="round" stroke-miterlimit="3" d="M30.85 16.15q.6-2.3 1.6-4.4 1-2.05 3.05-3.35 1.25-.75 2.9-.75M6.2 11.9q-.2 2.4 0 4.9.2 2.35 1.95 4.15 1.8 1.7 3.9 2.9"/><path fill="none" stroke="#636321" stroke-width=".05" stroke-linecap="round" stroke-miterlimit="3" d="M8.8 29.6q-2.05 1.2-1.1 2.7m40.65 12.8q2.25-1.4 1.15-3.95-.95-2.4-3.55-2.9-1.1-.2-1.9-.9-.8-.7-1.3-1.9"/></svg>