<svg xmlns="http://www.w3.org/2000/svg" viewBox="0.1 0 40.1 31.7" width="40.1" height="31.7"><defs><radialGradient gradientUnits="userSpaceOnUse" r="819.2" cx="0" cy="0" spreadMethod="pad" gradientTransform="matrix(.019 0 0 .019 20.5 14.5)" id="a"><stop offset="0" stop-color="#fff"/><stop offset="1"/></radialGradient><radialGradient gradientUnits="userSpaceOnUse" r="819.2" cx="0" cy="0" spreadMethod="pad" gradientTransform="matrix(.036 0 0 .013 16.45 9.5)" id="b"><stop offset="0" stop-color="#0066FD"/><stop offset=".376" stop-color="#fff"/><stop offset=".478" stop-color="#fff"/><stop offset=".502" stop-color="#960"/><stop offset=".667" stop-color="#fc0"/><stop offset="1" stop-color="#fff"/></radialGradient><radialGradient gradientUnits="userSpaceOnUse" r="819.2" cx="0" cy="0" spreadMethod="pad" gradientTransform="matrix(.008 -.004 .012 .022 32.4 17.8)" id="c"><stop offset="0" stop-color="#0066FD"/><stop offset=".376" stop-color="#fff"/><stop offset=".478" stop-color="#fff"/><stop offset=".502" stop-color="#960"/><stop offset=".667" stop-color="#fc0"/><stop offset="1" stop-color="#fff"/></radialGradient><radialGradient gradientUnits="userSpaceOnUse" r="819.2" cx="0" cy="0" spreadMethod="pad" gradientTransform="matrix(.008 0 0 .008 5.8 12.35)" id="d"><stop offset="0" stop-color="#0066FD"/><stop offset=".376" stop-color="#fff"/><stop offset=".478" stop-color="#fff"/><stop offset=".502" stop-color="#960"/><stop offset=".667" stop-color="#fc0"/><stop offset="1" stop-color="#fff"/></radialGradient><radialGradient gradientUnits="userSpaceOnUse" r="819.2" cx="0" cy="0" spreadMethod="pad" gradientTransform="matrix(.002 0 0 .002 3.4 11.55)" id="e"><stop offset="0" stop-color="#690"/><stop offset=".149" stop-color="#630"/><stop offset=".318" stop-color="#33c"/><stop offset=".588" stop-color="#396"/><stop offset="1" stop-color="#330"/></radialGradient></defs><path d="M27.05 6.95l.5 1.25-1.3-.85-1.3-.45-1.6-.55-.55-.45 4.25 1.05M30.1 9.9l.3-1.15.05-.1 3.35 2.25.85.55-1.9.35-.15-.15-2.1-1.5-.4-.25m5 4.7l1.6 2q.65 1 .5 2.2-.6-.55-1.35-.8l-.25-2.05-.15-.6-.35-.75m4.2 11.1l-.1.85q-.2 1.4.25 2.65l.75 2.5-2.1-2.65-1.15-1.95q-.4-1-1.2-1.65l-.1-.1q-.65-.5-1.5-.35l-.45.15q-1.5.65-2.45 1.85-.95 1.2-1.4 2.5l-.1.45q-.15-1.65.35-3.1.55-1.6 1.65-2.85l.25-.25 1.3-.7q-.2.3-.15 1.05l1.4-1.35v.45l.7-.6.15 1.1.4-.5.2.85.5-1.75q.1 1.05.6 1.75l.4.5q.05-.4.25-.55l.35 1.15.3-.9.9 1.45M16.7 2.65l2.1 1.05 3.1 1.85.35.3v.05l.05.2-2.4-.65-1.4-.2-3.15.2-.9-.1L13.1 5l1.75-.3q-.3-.45-.9-.6l1.15.05q.55 0 .2-.4l1.25.25v-.1l.2-.3-.45-.65.25-.3h.15m-8.55 14.1q.3 1 1.75.7l-1.35.9-1 .35-1.85-.3-.35-.15q1.1-.15 2.05-.85l.75-.65"/><path fill="#fff" d="M4.9 14v.3l-.25 1.3q-.4.7-.65.1 0 .7-.5 1l-.6-.85-.55 1.05-.4-.5.05 1.1.35 2-.85-1.45q-.7-1.2-.8-2.55l1.45-.1Q3.8 15.2 4.9 14"/><path fill="url(#a)" d="M15.2.2l2.9-.15h2.75L23.4.5l2.4.85q1.2.5 2.15 1.35 1 .85 1.65 2.1.65 1.2.85 2.5V8.65l-.05.1-.3 1.15-.45.85-1.1 1.4-.15.1-2.1 1.6-1.05.55-1.2.45-2.45.6q-1.25.3-2.35.9-1.1.55-2.15 1.25-1.1.7-2.1 1.65t-1.5 2.2q-.5 1.25.2 2.55.6 1.2 1.7 2 1 .75 2.2 1.2l2.15.55 2.15.1 5.5-.5-1.05.35-2 .45-1.05.3-1.25.35-1.8.15-3.25-.5-1.55-.4-1.4-.6-1.6-1.25-1.35-1.6q-.35-.55-.45-1.25-.15-.7.05-1.4l.5-1.45.7-1.3.9-.9.65-.55.75-.55q.45-.25 1.05-.45l1.85-.65 2.25-.55.45-.15 2.9-.7 1.4-.5.4-.2 1.8-1.2.95-1.25.2-.45.25-1.75-.15-1.15-.5-1.25-.2-.25q-.8-1.2-2-2.1L22.45 3q-1.1-.55-2.2-1l-1.7-.45-2.2-.25-.5.05-1.05.15q-.45-.35-.05-.85L15.2.2"/><path fill="url(#b)" d="M15.2.2l-.45.45q-.4.5.05.85l-.9.45q1.25-.05 2.4.5l.25.1v.1l-.25.3.45.65-.2.3V4l-1.25-.25q.35.4-.2.4l-1.15-.05q.6.15.9.6L13.1 5l1.35.35.9.1 3.15-.2 1.4.2 2.4.65-.05-.2h.55l.55.45 1.6.55 1.3.45 1.3.85.15 1.15-.25 1.75-.2.45-.95 1.25-1.8 1.2-.4.2-2.25-.4.5-.45.6-.75.1-1.2q-.05-1.05-.6-2.15l-1.5 2.15q-.15-1.55-1.35-2.8-.2 1.8-1.4 2.85-.45-2.15-2.05-3.8.3 2.15-.7 3.8l-.1-.65q-.45-2.2-2.15-3.3l.3 1.45v2.3l-.1.45q-.2 1.35-1.65.75.8-.5.95-1.35l.05-.2-.1-.6Q12 9.25 11 8.45l.3.4.25.6-.05.05q-.75-.8-1.85-.85h-.8Q7.3 8.7 7.15 7.3l-.45-.8.5-.3v-.05q.55-1.05 1.4-2l2-2q.8-.75 1.75-1.2l.55-.2L15.2.2m-3.1 4.65l.7.05.3.1-.3-.1-.7-.05"/><path fill="url(#c)" d="M25.25 14.4l1.05-.55 2.1-1.6.15-.1 1.1-1.4.45-.85.4.25 2.1 1.5.15.15-.75.4q1.75.95 3.1 2.4l.35.75.15.6.25 2.05-.75-.15q.15 1.65 1.45 2.15 1.05.35 1.8 1l.4.45q.9 1.1.75 2.5l-.2 1.75-.9-1.45-.3.9-.35-1.15q-.2.15-.25.55l-.4-.5q-.5-.7-.6-1.75l-.5 1.75-.2-.85-.4.5-.15-1.1-.7.6v-.45l-1.4 1.35q-.05-.75.15-1.05l-1.3.7 1.15-1.9.15-1.7-.5-1.2-1-1.3-1.35-1.3-1.55-.95-1.8-.8-1.85-.2"/><path fill="url(#d)" d="M6.7 6.5l.45.8q.15 1.4 1.7 1.35h.8q1.1.05 1.85.85l.05.05-.05 1.2-.65.95-1.95 1.95q-.9 1-.85 2.55l.1.55-.75.65q-.95.7-2.05.85-1.05-.45-2.25-.4l1.7-1q1.25-.7 1.75-2.2.5-1.65 1.6-3.05l.35-.35q.8-.9 1.8-1.4l.4-.2-2.1.6-1.2.65-.85.95-1.6 2.1H4.9V14q-1.1 1.2-2.75 1.4l-1.45.1-.6-.1.3-.1q1.05-.8.45-2.05-.45-.9-.35-1.85.15-1.4 1.05-2v-.05q.05-1.15.9-2.05l.25.8 2.15-.7q-.4.6-.45 1.35L5.7 7.3l1-.8m-4.3 4q-.4.45-.4 1.05 0 .6.4 1.05.45.45 1 .45l1-.45q.4-.45.4-1.05 0-.6-.4-1.05-.4-.45-1-.45-.55 0-1 .45"/><path fill="url(#e)" d="M2.4 10.5q.45-.45 1-.45.6 0 1 .45t.4 1.05q0 .6-.4 1.05l-1 .45q-.55 0-1-.45-.4-.45-.4-1.05 0-.6.4-1.05"/><path fill="#333" d="M11.75 12.45q1.45.6 1.65-.75l.1-.45v-2.3l-.3-1.45q1.7 1.1 2.15 3.3l.1.65q1-1.65.7-3.8 1.6 1.65 2.05 3.8 1.2-1.05 1.4-2.85 1.2 1.25 1.35 2.8l1.5-2.15q.55 1.1.6 2.15l-.1 1.2-.6.75-.5.45h-.05l-.5-.05q1.1-1.1.5-2.3l-.15-.35-.05.35q-.3 1.15-1.7 1.6l-.45.15q.6-.8.65-1.7 0-.8-.4-1.65.05 1-.25 1.7-.45 1-1.6 1.45l-1.25.25q.65-.8.75-1.65.2-1.15-.8-2.35.2 1.25-.2 2.35l-.9 1.55-.85.6q.45-1.15.35-2.25-.1-1.25-.9-2.4l.45 2.3-.15 1.4q-.1.6-.75.8l-1.7-.1-.55-.8.4-.25"/><path fill="none" stroke="#7AAFFD" stroke-width=".05" stroke-linecap="round" stroke-miterlimit="3" d="M32.75 11.8l-.75.4m3.85 5.8l-.75-.15m-3.1 5.9l1.15-1.9.15-1.7-.5-1.2-1-1.3m-9.55-11.8v.05h.55m-.55 0l.05.2M13.1 5l-.3-.1-.7-.05m4.6-2.2l-.15-.1-.25-.1m-9.1 3.7v.05m4.35 3.25l-.25-.6-.3-.4q1 .8 1.65 1.85l.1.6-.05.2M12.9.75l-.55.2M8.15 11.6l.35-.35q.8-.9 1.8-1.4l.4-.2-2.1.6M1.55 9.4v-.05m10 .2l-.05 1.2-.65.95M5.7 18.4l-.35-.15m6.2-8.8v.1"/><path fill="none" stroke="#BFD8FE" stroke-width=".05" stroke-linecap="round" stroke-miterlimit="3" d="M32 12.2q1.75.95 3.1 2.4m0 3.25q.15 1.65 1.45 2.15 1.05.35 1.8 1m-6.55-3.35l-1.35-1.3-1.55-.95-1.8-.8m-5.25-.8l2.25.4M12.35.95q-.95.45-1.75 1.2l-2 2q-.85.95-1.4 2m0 .05l-.5.3m6 4.6q-.15.85-.95 1.35m-3.15-2.2l-1.2.65-.85.95-1.6 2.1m-.15 2.9q1.25-.7 1.75-2.2.5-1.65 1.6-3.05"/><path fill="none" stroke="#B6B6B6" stroke-width=".05" stroke-linecap="round" stroke-miterlimit="3" d="M26.85 6.7l.2.25.5 1.25.15 1.15-.25 1.75-.2.45-.95 1.25-1.8 1.2-.4.2-1.4.5-2.9.7-.45.15-2.25.55-1.85.65q-.6.2-1.05.45l-.75.55-.65.55m7.45 10.65l1.8-.15m1.25-.35l1.05-.3 2-.45 1.05-.35m-5.5.5l-2.15-.1-2.15-.55q-1.2-.45-2.2-1.2-1.1-.8-1.7-2-.7-1.3-.2-2.55.5-1.25 1.5-2.2 1-.95 2.1-1.65 1.05-.7 2.15-1.25 1.1-.6 2.35-.9l2.45-.6 1.2-.45 1.05-.55 2.1-1.6.15-.1 1.1-1.4.45-.85"/><path fill="none" stroke="#E6B300" stroke-width=".05" stroke-linecap="round" stroke-miterlimit="3" d="M38.35 21l.4.45q.9 1.1.75 2.5l-.2 1.75M27.1 14.6l-1.85-.2M16.3 2.45q-1.15-.55-2.4-.5l.9-.45M.7 15.5l-.6-.1.3-.1q1.05-.8.45-2.05-.45-.9-.35-1.85.15-1.4 1.05-2m0-.05q.05-1.15.9-2.05l.25.8 2.15-.7q-.4.6-.45 1.35L5.7 7.3l1-.8m4.15 5.2L8.9 13.65q-.9 1-.85 2.55l.1.55m-2.8 1.5q-1.05-.45-2.25-.4l1.7-1M15.2.2l-2.3.55M.7 15.5l1.45-.1Q3.8 15.2 4.9 14"/><path fill="none" stroke="#BCBCBC" stroke-width=".05" stroke-linecap="round" stroke-miterlimit="3" d="M4.9 14v.3l-.25 1.3q-.4.7-.65.1 0 .7-.5 1l-.6-.85-.55 1.05-.4-.5.05 1.1.35 2-.85-1.45q-.7-1.2-.8-2.55m4.25-1.55L4.9 14v-.05"/><path fill="none" stroke="#335B28" stroke-width=".05" stroke-linecap="round" stroke-miterlimit="3" d="M2.4 10.5q.45-.45 1-.45.6 0 1 .45t.4 1.05q0 .6-.4 1.05l-1 .45q-.55 0-1-.45-.4-.45-.4-1.05 0-.6.4-1.05"/></svg>