<svg xmlns="http://www.w3.org/2000/svg" viewBox="0.1 0.1 100.0 114.2" width="100" height="114.2"><defs><radialGradient gradientUnits="userSpaceOnUse" r="819.2" cx="0" cy="0" spreadMethod="pad" gradientTransform="matrix(.009 0 0 .009 93.75 26.65)" id="a"><stop offset="0" stop-color="#ff9"/><stop offset=".808" stop-color="#603"/><stop offset=".894"/></radialGradient><radialGradient gradientUnits="userSpaceOnUse" r="819.2" cx="0" cy="0" spreadMethod="pad" gradientTransform="matrix(.007 0 0 .007 87.85 22.75)" id="b"><stop offset="0" stop-color="#ff9"/><stop offset=".808" stop-color="#603"/><stop offset=".894"/></radialGradient><radialGradient gradientUnits="userSpaceOnUse" r="819.2" cx="0" cy="0" spreadMethod="pad" gradientTransform="matrix(.028 0 0 .028 66.95 18.45)" id="c"><stop offset="0" stop-color="#ff9"/><stop offset=".871" stop-color="#606"/><stop offset="1"/></radialGradient><radialGradient gradientUnits="userSpaceOnUse" r="819.2" cx="0" cy="0" spreadMethod="pad" gradientTransform="matrix(.007 0 0 .007 97.05 28.45)" id="d"><stop offset="0" stop-color="#ff9"/><stop offset=".808" stop-color="#603"/><stop offset=".894"/></radialGradient><radialGradient gradientUnits="userSpaceOnUse" r="819.2" cx="0" cy="0" spreadMethod="pad" gradientTransform="matrix(.006 0 0 .006 96.65 32.55)" id="e"><stop offset="0" stop-color="#ff9"/><stop offset=".808" stop-color="#603"/><stop offset=".894"/></radialGradient><radialGradient gradientUnits="userSpaceOnUse" r="819.2" cx="0" cy="0" spreadMethod="pad" gradientTransform="matrix(.011 0 0 .011 89.65 32.95)" id="f"><stop offset="0" stop-color="#ff9"/><stop offset=".808" stop-color="#603"/><stop offset=".894"/></radialGradient><radialGradient gradientUnits="userSpaceOnUse" r="819.2" cx="0" cy="0" spreadMethod="pad" gradientTransform="matrix(-.002 .031 -.02 -.001 93.75 52.7)" id="g"><stop offset="0" stop-color="#ff9"/><stop offset=".427" stop-color="#fc0"/><stop offset=".894"/></radialGradient><radialGradient gradientUnits="userSpaceOnUse" r="819.2" cx="0" cy="0" spreadMethod="pad" gradientTransform="matrix(.066 0 0 .066 48.15 73.45)" id="h"><stop offset="0" stop-color="#ff9"/><stop offset=".427" stop-color="#606"/><stop offset=".894"/></radialGradient><radialGradient gradientUnits="userSpaceOnUse" r="819.2" cx="0" cy="0" spreadMethod="pad" gradientTransform="matrix(.019 0 0 .019 67.1 17.65)" id="i"><stop offset="0" stop-color="#ff9"/><stop offset=".427" stop-color="#03f"/><stop offset=".894"/></radialGradient><radialGradient gradientUnits="userSpaceOnUse" r="819.2" cx="0" cy="0" spreadMethod="pad" gradientTransform="matrix(.026 0 0 .026 36.8 20.4)" id="j"><stop offset="0" stop-color="#ff9"/><stop offset=".871" stop-color="#606"/><stop offset="1"/></radialGradient><radialGradient gradientUnits="userSpaceOnUse" r="819.2" cx="0" cy="0" spreadMethod="pad" gradientTransform="matrix(.005 0 0 .011 47.75 33.9)" id="k"><stop offset="0" stop-color="#ff9"/><stop offset=".427" stop-color="#f63"/><stop offset=".894"/></radialGradient><radialGradient gradientUnits="userSpaceOnUse" r="819.2" cx="0" cy="0" spreadMethod="pad" gradientTransform="matrix(.013 0 0 .013 36 22.95)" id="l"><stop offset="0" stop-color="#ff9"/><stop offset=".427" stop-color="#03f"/><stop offset=".894"/></radialGradient><radialGradient gradientUnits="userSpaceOnUse" r="819.2" cx="0" cy="0" spreadMethod="pad" gradientTransform="matrix(.012 0 0 .012 13.7 27.45)" id="m"><stop offset="0" stop-color="#ff9"/><stop offset=".808" stop-color="#603"/><stop offset=".894"/></radialGradient><radialGradient gradientUnits="userSpaceOnUse" r="819.2" cx="0" cy="0" spreadMethod="pad" gradientTransform="matrix(.012 0 0 .012 14.85 36.05)" id="n"><stop offset="0" stop-color="#ff9"/><stop offset=".808" stop-color="#603"/><stop offset=".894"/></radialGradient><radialGradient gradientUnits="userSpaceOnUse" r="819.2" cx="0" cy="0" spreadMethod="pad" gradientTransform="matrix(.006 0 0 .006 4.5 38)" id="o"><stop offset="0" stop-color="#ff9"/><stop offset=".808" stop-color="#603"/><stop offset=".894"/></radialGradient><radialGradient gradientUnits="userSpaceOnUse" r="819.2" cx="0" cy="0" spreadMethod="pad" gradientTransform="matrix(.007 0 0 .007 3.9 32.75)" id="p"><stop offset="0" stop-color="#ff9"/><stop offset=".808" stop-color="#603"/><stop offset=".894"/></radialGradient><radialGradient gradientUnits="userSpaceOnUse" r="819.2" cx="0" cy="0" spreadMethod="pad" gradientTransform="matrix(.01 0 0 .01 6.45 30.4)" id="q"><stop offset="0" stop-color="#ff9"/><stop offset=".808" stop-color="#603"/><stop offset=".894"/></radialGradient><radialGradient gradientUnits="userSpaceOnUse" r="819.2" cx="0" cy="0" spreadMethod="pad" gradientTransform="matrix(.017 .02 -.016 .013 19.2 56.2)" id="r"><stop offset="0" stop-color="#ff9"/><stop offset=".427" stop-color="#fc0"/><stop offset=".894"/></radialGradient><radialGradient gradientUnits="userSpaceOnUse" r="819.2" cx="0" cy="0" spreadMethod="pad" gradientTransform="matrix(.01 0 0 .01 66.35 110.45)" id="s"><stop offset="0" stop-color="#ff9"/><stop offset=".427" stop-color="#606"/><stop offset=".894"/></radialGradient><radialGradient gradientUnits="userSpaceOnUse" r="819.2" cx="0" cy="0" spreadMethod="pad" gradientTransform="matrix(.001 0 0 .001 58.5 111)" id="t"><stop offset="0" stop-color="#ff9"/><stop offset=".427" stop-color="#fc0"/><stop offset=".894"/></radialGradient></defs><path fill="url(#a)" d="M97.25 23.55l.2 1.15q.4 5.3-3.3 7.45l-.4.4-.8.2q-2.15.95-3.15-.8 1-.6 2.35-1.35 0-2.35-.75-3.35.75-3.7-.6-6.45 5.7-1.95 6.45 2.55v.2"/><path fill="url(#b)" d="M90.8 20.8q1.35 2.75.6 6.45-1.75-1.55-6.1.4-2.7-3.9 1.2-7.65l2.35-2.15q1.35 1.4 1.95 2.95"/><path fill="url(#c)" d="M52.85 6.7q4.5-.4 8.4-2.55 4.7-2.55 10-3.5 5.25-1.2 10.15.2 1 .2 1.4 1.15 2.5 4.9 1.35 10.2-1 5.25-2.75 10.15-.6 1.75-2.55 2.95-3.9 2.55-8.4 4.3L63 32.75h-.2l-2.55.95q-2.5 1.4-4.65 3.15l-5.7-9.4q-.4-.6-.4-1.35v-.8q.6-5.5 1.6-10.75l1.75-7.85m26 8.8q1.4-6.05-4.9-9.75-5.25.95-9.75 4.1-4.1 2.9-5.5 8.2-1.15 4.3-2.75 7.85l-.75 1.35q2.9 3.35 9.2 2.15 5.45-.95 9.2-4.5 4.1-3.9 5.25-9.4"/><path fill="url(#d)" d="M94.15 32.15q3.7-2.15 3.3-7.45l-.2-1.15q3.9.75 2.35 5.25l-.6 1q-2.35 5.3-4.85 2.35"/><path fill="url(#e)" d="M94.15 32.15q2.5 2.95 4.85-2.35l.6-1q1.55 3.95-1.95 6.85l-.4.2q-.75.8-1.75.2-3.15-1.15-1.75-3.5l.4-.4"/><path fill="url(#f)" d="M91.4 27.25q.75 1 .75 3.35-1.35.75-2.35 1.35 1 1.75 3.15.8l.8-.2q-1.4 2.35 1.75 3.5 1 .6 1.75-.2l.4-.2q-.4 2.95-3.35 2.95l-1.75-1.95q-1.15-1.15-3.5-.4-3.15 1.2-6.25 2.95-.8-1.4-.4-4.3-2.15-3.95 1.35-6.3.8-.55 1.55-.95 4.35-1.95 6.1-.4m-7.65 1.35q1.95 5.3 6.05 3.35-4.1 1.95-6.05-3.35"/><path fill="url(#g)" d="M80.45 63.65q0-4.5-.8-9-.8-5.1-1-10.15 0-2.75 2.35-4.15l1.8-1.15q3.1-1.75 6.25-2.95 2.35-.75 3.5.4l1.75 1.95.6.4q3.55 3.9 4.3 9.2.8 5.1-.2 10.15-.95 5.5-4.5 9.05-2.15 2.15-6.05.75l-2.75-.75-5.25-2.35v-1.4"/><path fill="url(#h)" d="M80.45 63.65v1.4l5.25 2.35q-1.15 1.15-2.55 3.3-1.95 0-4.85-1.95-2.35-1.75-4.35-3.7l-.15-.4Q72 61.5 71.05 58q-1.75 4.1-5.7 7.05l-.2.35q-1.15 2.55-2.9 4.7l-2.55 2.55q-1.75 1.6-2.75 3.15l6.85 5.1q3.9 2.7 3.3 8 0 1.75-1.15 3.75l-.4.75-.2.6q-1.15 3.15-4.1 5.5-3.15 2.5-.4 4.5l5.9 4.1q-1.2.2-2.15 1.55-.2-.6-.8-.8-5.1-3.9-4.9 2l-.8-.2-1.15-1.4q-1.35-1.55-1.35-3.7-.2-4.5 2.9-8.8l2.55-8.65q-1.35-2.9-3.1-5.25-2.55-3.15-5.1-3.35l-1.6 4.5q-1.15 4.3-4.5 7.05-3.5 2.95-5.85 7.25-2.15 4.1-1.95 9.4l-6.05 3.15q-3.75 1.95-8.85 2.7-2.9 1.8-3.7-.75-.2.4-1.95.75l-2.15.4q-2.95 0-2.35-1.35l-.6.75q-.4.6-2.55-.55 1.75-4.15 7.05-3.15l8.25-.2q3.7-.95 5.45-3.5l3.75-6.85L37 94.4q1.15-4.1 3.3-7.45 2.15-3.7 5.3-6.45l6.45-5.7 1-3.1q.35-2.15 1.35-3.95 1.2-2.15 1.95-5.45l.6-1.95V56.2q-3.55 1.2-6.25 3.55l-.2.4-.4.2q-4.1 1.95-8.8 3.3-1 .4-1.55 1-3.35 3.7-5.9.55l1.95-2.15 1.6-2.7.15.95q.8-.2 1.6-1.15 2.9-3.75 7.6-4.5l.4-.2h.4q3.15.2 6.65-2.15 4.1-2.75 9.4-.8 5.5-2.55 4.7-8.6-.2-1.2-.8-2.15-2.9-4.7-7.05-7.65l-.2-.4 2.55-.95h.2q3.95 2.9 7.05 7.05 2.15 2.55 2.15 5.85.2 2.75-.2 3.7l-.2.4q-.35 1.75-1.35 2.75 6.45-1 7.25 3.9v1.8q1.15 1.35 1.35 3.5 0 1.2 1.4 1.95"/><path fill="url(#i)" d="M78.85 15.5Q77.7 21 73.6 24.9q-3.75 3.55-9.2 4.5-6.3 1.2-9.2-2.15l.75-1.35q1.6-3.55 2.75-7.85 1.4-5.3 5.5-8.2 4.5-3.15 9.75-4.1 6.3 3.7 4.9 9.75"/><path fill="url(#j)" d="M39.9 34.7q-2.7-3.9-7-6.85-4.5-3.15-8.85-6.45-5.05-3.95-2.15-8.65 1-1.75 2.75-3.1Q28.2 6.9 32.7 6.5q3.9-.4 8-.2l10.95.4h1.2l-1.75 7.85q-1 5.25-1.6 10.75v.8l-6.05 5.05q-2.35 2-3.55 3.55m-9.95-10.95q5.1 1.95 9.95 4.3 5.3 2.55 5.3-1.4-1.55-4.9-5.85-7.4-5.1-2.95-9.8-2-3.9 1-1.95 4.5.8 1.2 2.35 2"/><path fill="url(#k)" d="M55.6 36.85l-2.35 2.35q-3.55 4.3-9 1.55-3.95-1.95-4.35-6.05 1.2-1.55 3.55-3.55l6.05-5.05q0 .75.4 1.35l5.7 9.4"/><path fill="url(#l)" d="M29.95 23.75q-1.55-.8-2.35-2-1.95-3.5 1.95-4.5 4.7-.95 9.8 2 4.3 2.5 5.85 7.4 0 3.95-5.3 1.4-4.85-2.35-9.95-4.3"/><path fill="url(#m)" d="M8.8 22.95l.6-1.35q2.35-5.9 8.4-1.6 2.15 2.95 1.55 7.85-1.55-.4-3.7 1.55l-.6.8q-2.7 2.75-1.15 5.85l-1 .4-3.1-.2Q7.45 35.1 7.65 30.4q.2-4.3 1.15-7.45m5.3 2.35q.95 1.75.95 4.9 0-3.15-.95-4.9"/><path fill="url(#n)" d="M10.95 44.5q-2.15-.4-3.7-3.15Q9 40.95 9 39.6q0-1-.6-1.6 1.4 1 1.4-1.75l3.1.2 1-.4q-1.55-3.1 1.15-5.85l.6-.8q2.15-1.95 3.7-1.55h.2q1 .4 1.8 1.95 2.15 4.3 0 8.8-1.4.2-2.75.8l-.2.2q-1 .75-1.75 2.15-.6.95-1.4 1.35-2.35 1.55-4.3 1.4m8.25-11.2q-1.4 3.15-5.3 2.95v-.2.2q3.9.2 5.3-2.95"/><path fill="url(#o)" d="M7.25 41.35H4.7q-6.85-.2-3.55-6.65l1.8 1.75q2.9 2.15 4.5.8l.55.55.4.2q.6.6.6 1.6 0 1.35-1.75 1.75"/><path fill="url(#p)" d="M1.15 34.7q-2.15-2.95 2-6.85.35 5.3 3.7 9l.6.4q-1.6 1.35-4.5-.8l-1.8-1.75"/><path fill="url(#q)" d="M3.15 27.85q-.6-7.05 5.65-4.9-.95 3.15-1.15 7.45-.2 4.7 2.15 5.85Q9.8 39 8.4 38l-.4-.2-.55-.55-.6-.4q-3.35-3.7-3.7-9"/><path fill="url(#r)" d="M33.85 65.2l-1.35.8q-4.7 2.55-9.8-.6-4.3-2.7-9.6-9.75Q8 48.6 10.95 44.5q1.95.15 4.3-1.4.8-.4 1.4-1.35.75-1.4 1.75-2.15l.2-.2q1.35-.6 2.75-.8 5.85-1.15 8.8 3.75 5.1 8.6 7.25 18l-1.6 2.7-1.95 2.15"/><path fill="url(#s)" d="M66.75 108.1q1.35-.2 3.1 1.15 2.75-3.3 4.1 1.6.6 2.35-2.15 2.35l-7.4.35q-3.95.4-5.7-2.15l.2-.55q-.2-5.9 4.9-2 .6.2.8.8.95-1.35 2.15-1.55"/><path fill="url(#t)" d="M58.7 111.4l-.6-.75.8.2-.2.55"/><path fill="none" stroke="#79206C" stroke-width=".05" stroke-linecap="round" stroke-linejoin="round" d="M94.15 32.15q3.7-2.15 3.3-7.45l-.2-1.15v-.2q-.75-4.5-6.45-2.55 1.35 2.75.6 6.45.75 1 .75 3.35-1.35.75-2.35 1.35 1 1.75 3.15.8l.8-.2.4-.4q2.5 2.95 4.85-2.35l.6-1q1.55-4.5-2.35-5.25m-11.95 4.1q-2.7-3.9 1.2-7.65l2.35-2.15q1.35 1.4 1.95 2.95M52.85 6.7q4.5-.4 8.4-2.55 4.7-2.55 10-3.5 5.25-1.2 10.15.2 1 .2 1.4 1.15 2.5 4.9 1.35 10.2-1 5.25-2.75 10.15-.6 1.75-2.55 2.95-3.9 2.55-8.4 4.3m-.4 10.2q2.15 2.55 2.15 5.85.2 2.75-.2 3.7l-.2.4q-.35 1.75-1.35 2.75 6.45-1 7.25 3.9v1.8q1.15 1.35 1.35 3.5 0 1.2 1.4 1.95M82.8 39.2q-.8-1.4-.4-4.3-2.15-3.95 1.35-6.3.8-.55 1.55-.95 4.35-1.95 6.1-.4m2.35 5.3q-1.4 2.35 1.75 3.5 1 .6 1.75-.2l.4-.2q3.5-2.9 1.95-6.85m-9.8 3.15q-4.1 1.95-6.05-3.35m1.95 38.8q-1.15 1.15-2.55 3.3-1.95 0-4.85-1.95-2.35-1.75-4.35-3.7l-.15-.4Q72 61.5 71.05 58q-1.75 4.1-5.7 7.05l-.2.35q-1.15 2.55-2.9 4.7l-2.55 2.55q-1.75 1.6-2.75 3.15l6.85 5.1q3.9 2.7 3.3 8 0 1.75-1.15 3.75l-.4.75-.2.6q-1.15 3.15-4.1 5.5-3.15 2.5-.4 4.5l5.9 4.1q1.35-.2 3.1 1.15m1.95 3.95l-7.4.35m-5.7-2.15l-.6-.75-1.15-1.4q-1.35-1.55-1.35-3.7-.2-4.5 2.9-8.8l2.55-8.65q-1.35-2.9-3.1-5.25-2.55-3.15-5.1-3.35l-1.6 4.5q-1.15 4.3-4.5 7.05-3.5 2.95-5.85 7.25-2.15 4.1-1.95 9.4l-6.05 3.15m-6.85-1.4q3.7-.95 5.45-3.5l3.75-6.85m21.1-36.8l.6-1.95V56.2q-3.55 1.2-6.25 3.55l-.2.4-.4.2q-4.1 1.95-8.8 3.3-1 .4-1.55 1-3.35 3.7-5.9.55m-22.9-20.7q-2.15-.4-3.7-3.15H4.7q-6.85-.2-3.55-6.65-2.15-2.95 2-6.85-.6-7.05 5.65-4.9l.6-1.35q2.35-5.9 8.4-1.6 2.15 2.95 1.55 7.85h.2q1 .4 1.8 1.95 2.15 4.3 0 8.8M37.4 60.35l.15.95q.8-.2 1.6-1.15 2.9-3.75 7.6-4.5l.4-.2h.4q3.15.2 6.65-2.15 4.1-2.75 9.4-.8 5.5-2.55 4.7-8.6-.2-1.2-.8-2.15-2.9-4.7-7.05-7.65m-.2-.4q-2.5 1.4-4.65 3.15M51.65 6.7h1.2l-1.75 7.85q-1 5.25-1.6 10.75v.8m44.8 12.5q2.95 0 3.35-2.95M63 32.75h-.2l-2.55.95m-40.9-5.85q-1.55-.4-3.7 1.55l-.6.8q-2.7 2.75-1.15 5.85v.2q3.9.2 5.3-2.95m-4.15-3.1q0-3.15-.95-4.9m-.2 10.75l-1 .4-3.1-.2Q9.8 39 8.4 38q.6.6.6 1.6 0 1.35-1.75 1.75m.2-4.1q-1.6 1.35-4.5-.8l-1.8-1.75m2-6.85q.35 5.3 3.7 9l.6.4.55.55.4.2m1.4-1.75Q7.45 35.1 7.65 30.4q.2-4.3 1.15-7.45m57.95 85.15q-1.2.2-2.15 1.55-.2-.6-.8-.8-5.1-3.9-4.9 2l-.2.55m.2-.55l-.8-.2"/><path fill="none" stroke="#D8AD00" stroke-width=".05" stroke-linecap="round" stroke-linejoin="round" d="M94.3 38.6l.6.4q3.55 3.9 4.3 9.2.8 5.1-.2 10.15-.95 5.5-4.5 9.05-2.15 2.15-6.05.75l-2.75-.75m-51.85-2.2l-1.35.8q-4.7 2.55-9.8-.6-4.3-2.7-9.6-9.75Q8 48.6 10.95 44.5"/><path fill="none" stroke="#9F5F79" stroke-width=".05" stroke-linecap="round" stroke-linejoin="round" d="M45.6 80.5l6.45-5.7 1-3.1q.35-2.15 1.35-3.95 1.2-2.15 1.95-5.45"/><path fill="none" stroke="#A3667A" stroke-width=".05" stroke-linecap="round" stroke-linejoin="round" d="M35.25 99.1L37 94.4q1.15-4.1 3.3-7.45 2.15-3.7 5.3-6.45"/><path fill="none" stroke="#985376" stroke-width=".05" stroke-linecap="round" stroke-linejoin="round" d="M39.9 34.7q-2.7-3.9-7-6.85-4.5-3.15-8.85-6.45-5.05-3.95-2.15-8.65 1-1.75 2.75-3.1Q28.2 6.9 32.7 6.5q3.9-.4 8-.2l10.95.4"/><path fill="none" stroke="#9D5B78" stroke-width=".05" stroke-linecap="round" stroke-linejoin="round" d="M70.45 29.6L63 32.75"/><path fill="none" stroke="#001362" stroke-width=".05" stroke-linecap="round" stroke-linejoin="round" d="M78.85 15.5Q77.7 21 73.6 24.9q-3.75 3.55-9.2 4.5-6.3 1.2-9.2-2.15l.75-1.35q1.6-3.55 2.75-7.85 1.4-5.3 5.5-8.2 4.5-3.15 9.75-4.1 6.3 3.7 4.9 9.75m-48.9 8.25q5.1 1.95 9.95 4.3 5.3 2.55 5.3-1.4-1.55-4.9-5.85-7.4-5.1-2.95-9.8-2-3.9 1-1.95 4.5.8 1.2 2.35 2"/></svg>