<svg xmlns="http://www.w3.org/2000/svg" viewBox="0.1 -0.1 99.8 114.4" width="99.8" height="114.4"><defs><radialGradient gradientUnits="userSpaceOnUse" r="819.2" cx="0" cy="0" fx="87942.4" fy="0" spreadMethod="repeat" gradientTransform="matrix(.029 0 0 .054 49.7 26.55)" id="a"><stop offset="0" stop-color="#900"/><stop offset=".282" stop-color="#660"/><stop offset=".49" stop-color="#E4BA54"/><stop offset=".765" stop-color="#969"/><stop offset=".98" stop-color="#fc6"/></radialGradient><radialGradient gradientUnits="userSpaceOnUse" r="819.2" cx="0" cy="0" spreadMethod="pad" gradientTransform="matrix(.014 0 0 .014 62.7 31.8)" id="b"><stop offset=".2" stop-color="#cf0"/><stop offset=".588" stop-color="#c00"/><stop offset=".808" stop-color="#6f0"/><stop offset="1" stop-color="#600"/></radialGradient><radialGradient gradientUnits="userSpaceOnUse" r="819.2" cx="0" cy="0" spreadMethod="pad" gradientTransform="matrix(.053 0 0 .053 67.4 80.85)" id="c"><stop offset="0" stop-color="#900"/><stop offset=".282" stop-color="#660"/><stop offset=".49" stop-color="#E4BA54"/><stop offset=".765" stop-color="#969"/><stop offset=".98" stop-color="#fc6"/></radialGradient><radialGradient gradientUnits="userSpaceOnUse" r="819.2" cx="0" cy="0" spreadMethod="pad" gradientTransform="matrix(.021 0 0 .021 48.7 42.4)" id="d"><stop offset="0" stop-color="#900"/><stop offset=".282" stop-color="#660"/><stop offset=".49" stop-color="#E4BA54"/><stop offset=".765" stop-color="#969"/><stop offset=".98" stop-color="#fc6"/></radialGradient><radialGradient gradientUnits="userSpaceOnUse" r="819.2" cx="0" cy="0" spreadMethod="pad" gradientTransform="matrix(.044 0 0 .044 80.55 80.85)" id="e"><stop offset="0" stop-color="#ff9"/><stop offset=".431" stop-color="#930"/><stop offset=".737"/><stop offset=".922" stop-color="#630"/></radialGradient><radialGradient gradientUnits="userSpaceOnUse" r="819.2" cx="0" cy="0" spreadMethod="pad" gradientTransform="matrix(.012 0 0 .012 35.25 31.85)" id="f"><stop offset=".2" stop-color="#cf0"/><stop offset=".588" stop-color="#c00"/><stop offset=".808" stop-color="#6f0"/><stop offset="1" stop-color="#600"/></radialGradient><radialGradient gradientUnits="userSpaceOnUse" r="819.2" cx="0" cy="0" spreadMethod="pad" gradientTransform="matrix(.04 0 0 .04 18.25 76.6)" id="g"><stop offset="0" stop-color="#ff9"/><stop offset=".431" stop-color="#930"/><stop offset=".737"/><stop offset=".922" stop-color="#630"/></radialGradient><radialGradient gradientUnits="userSpaceOnUse" r="819.2" cx="0" cy="0" spreadMethod="pad" gradientTransform="matrix(.008 0 0 .008 47.8 67.75)" id="h"><stop offset="0" stop-color="#ff0"/><stop offset=".227" stop-color="#900"/><stop offset=".51" stop-color="#060"/><stop offset=".886" stop-color="#00c"/></radialGradient><radialGradient gradientUnits="userSpaceOnUse" r="819.2" cx="0" cy="0" spreadMethod="pad" gradientTransform="matrix(.081 0 0 .039 50.35 87.65)" id="i"><stop offset="0" stop-color="#900"/><stop offset=".282" stop-color="#660"/><stop offset=".49" stop-color="#E4BA54"/><stop offset=".765" stop-color="#969"/><stop offset=".98" stop-color="#fc6"/></radialGradient><radialGradient gradientUnits="userSpaceOnUse" r="819.2" cx="0" cy="0" spreadMethod="pad" gradientTransform="matrix(.006 0 0 .006 47.8 73.8)" id="j"><stop offset="0" stop-color="#ff0"/><stop offset=".227" stop-color="#900"/><stop offset=".51" stop-color="#060"/><stop offset=".886" stop-color="#00c"/></radialGradient><radialGradient gradientUnits="userSpaceOnUse" r="819.2" cx="0" cy="0" spreadMethod="pad" gradientTransform="matrix(.005 0 0 .005 47.8 77.5)" id="k"><stop offset="0" stop-color="#ff0"/><stop offset=".227" stop-color="#900"/><stop offset=".51" stop-color="#060"/><stop offset=".886" stop-color="#00c"/></radialGradient></defs><path d="M61.7 47.9q3.5-.2 6.45 1.6l5.7 3.3q2.5 1.5 4.7 3.65l4.3 3.95-.2.3-4.2-2.1q-5.5-2.35-10.65-5.3-1.35-.8-2.7-1.15l-.55-.15-.05-.05-.7-.3-1.65-.95h-.5l.05-2.8m-28.4 2.55l-3.15 2.35-1.7 1.4q-1.85 1.3-3.35 2.9l-2.05 2.25q-3.2 3.1-7 5.35l-5.5 3.55q1.1-1.7 1.85-3.7.8-2.3 2.75-3.75 2.45-1.9 4.35-4.45 1.95-2.7 5-4.25 2.95-1.55 6-2.85l5.4-2.1-.05 1.9-.1.1-2.45 1.3"/><path fill="#fff" d="M53.55 49.85l1.7 1.55q1.9 1.5 3.45 1.8l-.15 3.1-.6 2.6q-.95 3.7-1.5 7.5l-1.75-3.45q-1.4-2.75-1.5-5.75v-.7q.05-3.3.35-6.65m-9.05-3.1l.15 2.8q.25 3.35-.8 6.15L41 61.35q-.45.7-.4 1.65-.65-2.6-1.75-5.15-1.45-3.2-.9-6.6l.05-.1q2.65-.75 4.9-2.8l1.6-1.6"/><path fill="url(#a)" d="M44.5 46.75l-1.6 1.6q-2.25 2.05-4.9 2.8l-.5.1-1.1-.15q-.6-.5-.55-1.85v-.2l.05-1.9.05-4.3-.65-.55.3-.4-.75-.25q-2.25-.9-2.2-3.15l2.6.25q4.15 0 7.05-2.05 2.95-2 3-4.85-.05-2.9-3-4.9-2.9-2.05-7.05-2-2.6-.05-4.7.75 1.1-1.75 3.65-2.2l.65-.1h-.65q.05-3.05.5-6.05l.4-2.15q.6-2.9 2.55-5.4 2-2.65 4.45-5 2.4-2.35 5.15-4.05 1.05-.65 2.5-.8 3.65-.4 6.05 1.9 2.35 2.3 3.35 5.6.55 1.8 1.45 3.6l3.15 6.15q1.7 3.15.5 6.7l-.05.1 1.9.6q2.7.7 3.55 2.45-2.95-1.2-6.95-1.2-4.7 0-8 1.75-3.25 1.7-3.25 4.25 0 2.45 3.25 4.25 3.3 1.7 8 1.7l5.5-.7q-1.3 1.35-3 1.75h-.15q.5 3.25-3 3.15l-.35 5.9-.05 2.8v1.7l-.35.25-.45-1.2.2 1.35q-1.05.65-2.35.4-1.55-.3-3.45-1.8l-1.7-1.55q-2.55-2.45-3.9-4.7-1.8-3.2-.8-6.7.9-3.25.8-6.8l-.1-5.4q.6-1 .25-1.8l-.8-1v2.8L48.95 30l-.5 7.05q-.25 2.1-1.05 4.65-.9 2.75-2.8 4.95l-.1.1"/><path fill="url(#b)" d="M69.65 27.05l1.1.55Q74 29.3 74 31.85q0 2.45-3.25 4.25l-2.55 1-5.5.7q-4.7 0-8-1.7-3.25-1.8-3.25-4.25 0-2.55 3.25-4.25 3.3-1.75 8-1.75 4 0 6.95 1.2.4.9.4 2.05 0-1.15-.4-2.05"/><path fill="url(#c)" d="M61.05 52.8q.8 5.6 1.6 7 .8 1.65.95 3.6l.4 5.2q.35 2.95-.4 5.45-.65 1.8-1.85 3.4-1.3 1.8-3 3.25-3.2 2.75-6.35 6.1-2.85 2.85-3.2 6.1l-.2-1.5q-.3-3.4-2.9-5.9L40.9 81q-2.15-1.7-3.65-3.85l-.65-1.1q-1.65-2.85-1.6-6.3l.7-12.65.1-.75.1-2.5q-.05-1.45.5-2.75l1.1.15h.45q-.55 3.4.9 6.6 1.1 2.55 1.75 5.15-.05-.95.4-1.65l2.85-5.65q1.5 3.25 5.55 2.8 1.9-.25 3.8-1.3.1 3 1.5 5.75l1.75 3.45q.55-3.8 1.5-7.5l.6-2.6.15-3.1q1.3.25 2.35-.4m-10 20.1l.1-.15q1.4-1.75 1.4-4.2 0-2.5-1.4-4.25-1.4-1.7-3.35-1.7-1.95 0-3.4 1.7-1.35 1.75-1.35 4.25 0 2.45 1.35 4.2l.2.15q-.35.75-.35 1.6 0 1.2.65 2.1l-.1.9q0 1.45.85 2.5.9 1.05 2.15 1.05T49.9 80q.9-1.05.9-2.5l-.1-.9q.7-.9.7-2.1 0-.85-.35-1.6"/><path fill="url(#d)" d="M49.55 26.25l.1 5.4q.1 3.55-.8 6.8-1 3.5.8 6.7 1.35 2.25 3.9 4.7-.3 3.35-.35 6.65v.7q-1.9 1.05-3.8 1.3-4.05.45-5.55-2.8 1.05-2.8.8-6.15l-.15-2.8.1-.1q1.9-2.2 2.8-4.95.8-2.55 1.05-4.65l.5-7.05.05-3.75h.55"/><path fill="url(#e)" d="M61.65 50.7h.5l1.65.95.7.3v.3q-.25 2.95 1.65 5.3l7.75 9.9 4.6 8.05q1.1 2.4 2.2 3.85l.15.2q3.3 1 3.75 4.8.45 3.5 1.7 6.75.65 1.7.5 2.25l.65.7 2.45 3.15q1.45 1.95 4.4 2.7l1.4.25q3.55.4 4.1 3.4.2 1.05-.55 1.5-1.6.8-2.8-.85-2.25-2.95-6.05-3.65-.3 3.25 2.15 6.1 2.85 3.35-1.3 4.15-1.8-3.55-2.7-7.8-.55-2.7-1.45-.45-1.1 2.65-.6 5.65.35 1.85-.9 2.8-.35-3.7-.05-7.5.15-1.85-1.8-2.85-1.3 3.1-3.6 2.85.4-1.25 1.3-2.05 2.85-2.5 1.9-5.9-2.15-1.25-4.1-3.65l-3.7-5.3q-1.9-3.05-1.55-6.3-.15-1.55-.75-3.05-.75-2-1.25-4.25-.65-3.35-2.55-6.15l-4.05-5.7q-1.8-2.45-4.1-8.5l.35-.25v-1.7m24.3 42l.85.65-.85-.65m-2.05 2.8l-.55.05.6.35-.05-.4-.2-.95.2.95"/><path fill="url(#f)" d="M32.65 38.5q-2.55-.4-4.45-1.8-2.95-2-2.9-4.85-.05-2.9 2.9-4.9 1.05-.8 2.35-1.25 2.1-.8 4.7-.75 4.15-.05 7.05 2 2.95 2 3 4.9-.05 2.85-3 4.85-2.9 2.05-7.05 2.05l-2.6-.25"/><path fill="url(#g)" d="M35.7 57.1l-.15.8q-.6 3.25-2.35 6.05-1.35 2.1-2.4 4.3-1.4 2.7-1.1 5.95l.05.3q1.85 3.15-1.15 5.15-1.95 1.3-3.5 3.1L22.65 85q-2.7 1.8-4.9 3.95L15 90.85l-.3.15q-.2 1.1-1.1 1.9-2.4 1.95-.95 5.05 1.1 2.6.05 5.25-.5 1.35-1.5.7-2.8-1.95-1.9-6.65-2.25 1.05-4.1 4-1.2 1.95-2.45.45-1.9-2.25 1.55-4.65Q5.55 96.1 5.9 95q.4-1.1-2.3-1.8-4.35-1.1-3.3-4.5 2.65.8 6.2 3.1 2.1-2-2.3-4.95 1.65-3.2 3.1.3 1.65 4.3 4.95 2.6.05-.95.45-1.7 1.55-3.05 4.55-5l5.25-4q2.3-2 3.9-4.5l.05-.35q.35-2.45 1.45-4.65 1.4-3.05 2.25-6.25.85-3.3 2.15-6.2 1.45-3.5 1-6.65l2.45-1.3.1-.1v.2q-.05 1.35.55 1.85-.55 1.3-.5 2.75l-.1 2.5-.1.75M12.2 90.45l.05-.7-.05.7"/><path fill="url(#h)" d="M51.05 72.9l-.7-.95Q49.3 70.9 47.8 70.9q-1.45 0-2.5 1.05l-.7.95-.2-.15q-1.35-1.75-1.35-4.2 0-2.5 1.35-4.25 1.45-1.7 3.4-1.7t3.35 1.7q1.4 1.75 1.4 4.25 0 2.45-1.4 4.2l-.1.15"/><path fill="url(#i)" d="M63.6 74.05l1.1.95q2.4 2.05 2.35 5.75-.05 3.4 1.75 6.15 1.75 2.85 4 5.55 2.2 2.8 3.2 6.25.9 3.15 2.55 5.8 2.15 3.5-1.35 4.95l-1.95.25-7-.95q-3.15-.4-5.9 1.1l-5.65 2.75q-3.2 1.5-6.8 1.7-3.5.15-6.6-1.45l-6.6-3q-3.2.05-5.75 1-3.55 1.3-6.6-.5l-1.15-1q-.8-1.55-.45-3.7.55-3.6 2.85-5.7l4.8-4.6q2.15-2.15 2.9-5.6l1.5-6.8q.75-3.25 2.45-5.8 1.5 2.15 3.65 3.85l5.2 4.5q2.6 2.5 2.9 5.9l.2 1.5q.35-3.25 3.2-6.1 3.15-3.35 6.35-6.1 1.7-1.45 3-3.25 1.2-1.6 1.85-3.4"/><path fill="url(#j)" d="M44.6 72.9l.7-.95q1.05-1.05 2.5-1.05 1.5 0 2.55 1.05l.7.95q.35.75.35 1.6 0 1.2-.7 2.1l-.8-1.65q-.85-1.05-2.1-1.05t-2.15 1.05q-.55.75-.75 1.65-.65-.9-.65-2.1 0-.85.35-1.6"/><path fill="url(#k)" d="M44.9 76.6q.2-.9.75-1.65.9-1.05 2.15-1.05t2.1 1.05l.8 1.65.1.9q0 1.45-.9 2.5-.85 1.05-2.1 1.05T45.65 80q-.85-1.05-.85-2.5l.1-.9"/><path fill="none" stroke="#BA7532" stroke-width=".05" stroke-linecap="round" stroke-miterlimit="3" d="M64.5 51.95v.3q-.25 2.95 1.65 5.3l7.75 9.9 4.6 8.05m2.2 3.85l.15.2m5.95 13.8l.65.7 2.45 3.15m-6.55-1.65q-2.15-1.25-4.1-3.65l-3.7-5.3m-6.1-19.75l-4.05-5.7q-1.8-2.45-4.1-8.5l-.25.15m2.55 10.6l.4 5.2q.35 2.95-.4 5.45l1.1.95m-40.35 35.35l-1.15-1m14.05-32.2l-.65-1.1m-1.6-6.3l.7-12.65-.15.8q-.6 3.25-2.35 6.05-1.35 2.1-2.4 4.3-1.4 2.7-1.1 5.95l.05.3q1.85 3.15-1.15 5.15-1.95 1.3-3.5 3.1L22.65 85q-2.7 1.8-4.9 3.95L15 90.85l-.3.15M4.2 86.85q1.65-3.2 3.1.3 1.65 4.3 4.95 2.6.05-.95.45-1.7 1.55-3.05 4.55-5m9.15-8.5l.05-.35q.35-2.45 1.45-4.65 1.4-3.05 2.25-6.25.85-3.3 2.15-6.2 1.45-3.5 1-6.65m2-8.15l-.45-.65M34.2 23.5v-.1m36.55 12.7l-2.55 1m18.6 56.25l-.85-.65m-2.6 2.85l.6.35-.05-.4-.2-.95m-14.05-67.5q.4.9.4 2.05M49.8 24.45l-.25 1.8M36.4 51.1q-.55 1.3-.5 2.75l-.1 2.5-.1.75M12.25 89.75l-.05.7m25.05-13.3q1.5 2.15 3.65 3.85l5.2 4.5q2.6 2.5 2.9 5.9l.2 1.5"/><path fill="none" stroke="#8A0000" stroke-width=".05" stroke-linecap="round" stroke-miterlimit="3" d="M35.9 47.15l.05-4.3-.65-.55m-.45-.65q-2.25-.9-2.2-3.15m-2.1-12.8q1.1-1.75 3.65-2.2m0-.1q.05-3.05.5-6.05l.4-2.15q.6-2.9 2.55-5.4 2-2.65 4.45-5 2.4-2.35 5.15-4.05 1.05-.65 2.5-.8 3.65-.4 6.05 1.9 2.35 2.3 3.35 5.6.55 1.8 1.45 3.6l3.15 6.15q1.7 3.15.5 6.7l-.05.1 1.9.6q2.7.7 3.55 2.45-2.95-1.2-6.95-1.2-4.7 0-8 1.75-3.25 1.7-3.25 4.25 0 2.45 3.25 4.25 3.3 1.7 8 1.7l5.5-.7q-1.3 1.35-3 1.75h-.15q.5 3.25-3 3.15l-.35 5.9M49 26.25v-2.8l.8 1q.35.8-.25 1.8l.1 5.4q.1 3.55-.8 6.8-1 3.5.8 6.7 1.35 2.25 3.9 4.7m5.15 3.35q1.3.25 2.35-.4m.25-.15l.35-.25v-1.7M49 26.25L48.95 30l-.5 7.05q-.25 2.1-1.05 4.65-.9 2.75-2.8 4.95l-.1.1M30.55 25.7q2.1-.8 4.7-.75 4.15-.05 7.05 2 2.95 2 3 4.9-.05 2.85-3 4.85-2.9 2.05-7.05 2.05l-2.6-.25m2.2-15.1l-.65.1m1.65 25.55v.2q-.05 1.35.55 1.85l1.1.15.5-.1m-3.15-9.5l.75.25"/><path fill="none" stroke="#9C6997" stroke-width=".05" stroke-linecap="round" stroke-miterlimit="3" d="M77.2 109.45l-1.95.25-7-.95q-3.15-.4-5.9 1.1l-5.65 2.75q-3.2 1.5-6.8 1.7-3.5.15-6.6-1.45l-6.6-3q-3.2.05-5.75 1-3.55 1.3-6.6-.5m-1.15-1q-.8-1.55-.45-3.7.55-3.6 2.85-5.7"/><path fill="none" stroke="#9D6A95" stroke-width=".05" stroke-linecap="round" stroke-miterlimit="3" d="M36.6 76.05q-1.65-2.85-1.6-6.3"/><path fill="none" stroke="#999" stroke-width=".05" stroke-linecap="round" stroke-miterlimit="3" d="M53.55 49.85l1.7 1.55q1.9 1.5 3.45 1.8m-14.2-6.45l.15 2.8q.25 3.35-.8 6.15m9.35 1.5v-.7q.05-3.3.35-6.65M38 51.15q2.65-.75 4.9-2.8l1.6-1.6m-6.5 4.4l-.05.1q-.55 3.4.9 6.6 1.1 2.55 1.75 5.15-.05-.95.4-1.65l2.85-5.65m9.35 1.5q.1 3 1.5 5.75l1.75 3.45q.55-3.8 1.5-7.5l.6-2.6.15-3.1"/><path fill="none" stroke="#686701" stroke-width=".05" stroke-linecap="round" stroke-miterlimit="3" d="M49.2 92.9q.35-3.25 3.2-6.1 3.15-3.35 6.35-6.1 1.7-1.45 3-3.25 1.2-1.6 1.85-3.4"/><path fill="none" stroke="#A5748D" stroke-width=".05" stroke-linecap="round" stroke-miterlimit="3" d="M43.85 55.7q1.5 3.25 5.55 2.8 1.9-.25 3.8-1.3"/><path fill="none" stroke="#686100" stroke-width=".05" stroke-linecap="round" stroke-miterlimit="3" d="M64.7 75q2.4 2.05 2.35 5.75-.05 3.4 1.75 6.15 1.75 2.85 4 5.55 2.2 2.8 3.2 6.25.9 3.15 2.55 5.8 2.15 3.5-1.35 4.95m-51.6-9.5l4.8-4.6q2.15-2.15 2.9-5.6l1.5-6.8q.75-3.25 2.45-5.8"/><path fill="none" stroke="#C58C42" stroke-width=".05" stroke-linecap="round" stroke-miterlimit="3" d="M17.25 83.05l5.25-4q2.3-2 3.9-4.5"/><path fill="none" stroke="#CB974B" stroke-width=".05" stroke-linecap="round" stroke-miterlimit="3" d="M78.5 75.5q1.1 2.4 2.2 3.85m.15.2q3.3 1 3.75 4.8.45 3.5 1.7 6.75.65 1.7.5 2.25M75.55 86.6q-1.9-3.05-1.55-6.3-.15-1.55-.75-3.05-.75-2-1.25-4.25-.65-3.35-2.55-6.15"/><path fill="none" stroke="#ca4" stroke-width=".05" stroke-linecap="round" stroke-miterlimit="3" d="M61.05 52.8q.8 5.6 1.6 7 .8 1.65.95 3.6"/><path fill="none" stroke="#668C00" stroke-width=".05" stroke-linecap="round" stroke-miterlimit="3" d="M69.65 27.05l1.1.55Q74 29.3 74 31.85q0 2.45-3.25 4.25"/><path fill="none" stroke="#669600" stroke-width=".05" stroke-linecap="round" stroke-miterlimit="3" d="M32.65 38.5q-2.55-.4-4.45-1.8-2.95-2-2.9-4.85-.05-2.9 2.9-4.9 1.05-.8 2.35-1.25"/><path fill="none" stroke="#002E42" stroke-width=".05" stroke-linecap="round" stroke-miterlimit="3" d="M44.6 72.9l.7-.95q1.05-1.05 2.5-1.05 1.5 0 2.55 1.05l.7.95.1-.15q1.4-1.75 1.4-4.2 0-2.5-1.4-4.25-1.4-1.7-3.35-1.7-1.95 0-3.4 1.7-1.35 1.75-1.35 4.25 0 2.45 1.35 4.2l.2.15q-.35.75-.35 1.6 0 1.2.65 2.1.2-.9.75-1.65.9-1.05 2.15-1.05t2.1 1.05l.8 1.65q.7-.9.7-2.1 0-.85-.35-1.6m-.35 3.7l.1.9q0 1.45-.9 2.5-.85 1.05-2.1 1.05T45.65 80q-.85-1.05-.85-2.5l.1-.9"/></svg>