<svg xmlns="http://www.w3.org/2000/svg" viewBox="0 0 48.0 48.4" width="48" height="48.4"><defs><radialGradient gradientUnits="userSpaceOnUse" r="819.2" cx="0" cy="0" fx="313.6" fy="0" spreadMethod="pad" gradientTransform="matrix(.017 0 0 .017 14.5 16.25)" id="a"><stop offset=".063" stop-color="#fff"/><stop offset=".271" stop-color="#3c3"/><stop offset=".886" stop-color="#309"/></radialGradient><radialGradient gradientUnits="userSpaceOnUse" r="819.2" cx="0" cy="0" spreadMethod="pad" gradientTransform="matrix(.006 0 0 .006 43.05 26.95)" id="b"><stop offset=".063" stop-color="#fff"/><stop offset=".271" stop-color="#3c3"/><stop offset=".886" stop-color="#309"/></radialGradient><radialGradient gradientUnits="userSpaceOnUse" r="819.2" cx="0" cy="0" spreadMethod="pad" gradientTransform="matrix(.002 0 0 .002 22.45 36.55)" id="c"><stop offset=".063" stop-color="#fff"/><stop offset=".271" stop-color="#3c3"/><stop offset=".886" stop-color="#309"/></radialGradient><radialGradient gradientUnits="userSpaceOnUse" r="819.2" cx="0" cy="0" fx="2240" fy="0" spreadMethod="pad" gradientTransform="matrix(.51 0 0 .508 -.9 -1.05)" id="d"><stop offset=".063" stop-color="#fff"/><stop offset=".271" stop-color="#3c3"/><stop offset=".886" stop-color="#309"/></radialGradient><radialGradient gradientUnits="userSpaceOnUse" r="819.2" cx="0" cy="0" spreadMethod="pad" gradientTransform="matrix(.009 0 0 .009 8.1 41.6)" id="e"><stop offset=".063" stop-color="#fff"/><stop offset=".271" stop-color="#3c3"/><stop offset=".886" stop-color="#309"/></radialGradient><radialGradient gradientUnits="userSpaceOnUse" r="819.2" cx="0" cy="0" spreadMethod="pad" gradientTransform="matrix(.012 0 0 .012 37.25 11.25)" id="f"><stop offset=".063" stop-color="#fff"/><stop offset=".271" stop-color="#3c3"/><stop offset=".886" stop-color="#309"/></radialGradient><radialGradient gradientUnits="userSpaceOnUse" r="819.2" cx="0" cy="0" spreadMethod="pad" gradientTransform="matrix(.004 0 0 .004 36.85 38.8)" id="g"><stop offset=".063" stop-color="#fff"/><stop offset=".271" stop-color="#3c3"/><stop offset=".886" stop-color="#309"/></radialGradient></defs><path fill="#900" d="M43.4 12.55l.6-.8q.25-.65.15-1.7l-.3-3.65-.2-.95-.3-2.15-.3 1.35-.25.4-.25-1.45-.6-1-.6-.4-2.05-.05q2.5-.2 2.15-2.15l.85 2q.55 1.35 1.65-.7-.4 1.3.15 3.05.5 1.75 2.2 2.1-1.1-.2-1.5 1.4-.5 1.6.5 4.55l-.5-.35q-.2 1.7 1.7 2.9l-1.2.55q-.25 0-.2-.9.05-.9-.3-.65l-1.05.4.2-.75-.8-.05-.15.15q-1.25 1.05-4.25.5l2.9-.65 1.75-1m-10 10.75q.6 3 2.7 3.2l-2.15.35q-1.45.3 1.05 2.35-1.55-.95-3.5-.85-1.9.1-2 2.15.05-1.35-1.8-2.45l-.5-.25q-1.75-.8-4.5-.55l.35-.5q-2-.9-3.1 1.1l-.75-1.6 1 .05q1 .3.65-.25l-.55-1.4.85.45q.4-.25-.25-1.15-1.4-1.95-1.15-5.55.5 2.85 1.1 3.85l1.15 2.1 1.25 1.5 1.95.75 2.55.6 4.95.55-1.65-.8-.45-.5 1.6.2q.65-.05 1.05-.4l.35-.65-.25-2.3v-.25l.05.25m6.5 2.45l-.45-.85q-.2-.55-.6-.5l-1.55.35.35-2.3q.6 1.1 1.8 1.35.6.1 1.05-.35h.05q-.15.35.1 1.7l.3 1.35q.6 2.5 4.85 1.6-1.4.7-.45 2l1.3 1.45 1.3.9-2.05-.3-2.2.5-.8.35q-1.6.65-3.1 1.45l2.25-1.55.15-.15q1.75-1.35 3.45-1.35-1.9-1.4-1.55-2.55-2.7-.05-3.1-.95l-1.1-2.15m-15.6-14.5l.3-.45 1.3.05v.1q.4 1.4 2.4-.6t2-2.35l-.3-.55q.7.15 1.95-.85l1.65-1.5q-2.85 3.7-2 6.45-.45-.5-.7-1.35-.2-.6.3-2l-1.15 1.35-2.1 1.65q-1.4 1.05-2.5.6-.6-.2-1.15 0-1.15.4-2.35 2.45l-.75 1.25.05-.85q.5-1.6-1.1-.15l.7-.85q1.3-1.6.9-2.55l.45.15.8.4q.55.3 1.3-.4m15.1 29.4l3.2-.55 3.2-1q-2.6 1.3-4.5 1.55-.95.15-.95.4l.6.1-1.25.3q-.55.1.1.25.7.2.45.3l-.9.25-.65.1q1.1-1.05-.25-1.3l-.25.3-1-.8-1.4-.4-1.85.15-.6.2.5-.3q.8-.6.35-1.05-.6-.55-1.6-.7l-.25-.05h.25q2.15 0 1.85-.5l-.5-.75q.9.55 3.55-.4l-2 .8-.35.35q-.1.25.1.45l.65.4-.5.05-1.15-.2 1.5.9 1.95.85.1.05 1.25.25h.35m-11-6.8L25.6 33l-1.55-.2q-.65 0-1.25.4l-2.05 1.3-1.5 1.25 1.15-.3.5.05-.65.55-.1.65.35.45 2 1.2q-2.65-1.4-3.55-.55l.5-1.1q.3-.75-2.1-.75 1.2-.2 1.85-1 .6-.85-.85-1.9.95.65 2.45.45 1.45-.2 2.4-1.65l.3.4q1.3-.4.25-1.8l1.5.45-.4.4q-.65.25-.1.35l1.25.5-.65.1q0 .35.95.55l1.85.6 2.65 1.65-2.4-1.2M8.35 9.55v.15q0 1.2 2.1.9l2.2-.6-.15-.6q.55.55 1.75.5l1.7-.2q-3.15 1.15-3.05 3.6l-.25-1.35q-.05-.55.65-1.3l-1.25.35H10q-1.45 0-2.25-.95Q6.5 8.6 4.35 9.9l-.85.5q-.15-.3.2-.65.75-.85-.9-.7l.8-.25Q5 8.35 4.85 7.45l.35.35.55.7q.55.7 1.55.35.95-.4 1.05.7m-4.8 7.5h.6l-.5.55q-.25.3.2.95-.65 2.1 1.8.85l1-1.1.65-1.45q.1.85.95.65 1.1-.35 2.15-1.15l.65 2.35q.35 1.6 1.2 0v.65q.4 2.2 1.7 4.2l-.9-1.15q-2.2-2.65-2.8-4.9l-3.1 1.55q-1.4.65-.3 1.55l2.05 1.9-1.95-1.4q-.75-.7-1.45-.55-1.3.25-2 .8v-.1l-.1-1.8-.2-1.3q-.3-1.7-1.5-1.5l.35-1.2-.6-1L.4 13.5l.4-.2q.35-.4 1.15 1.45l.05-1.4.05-.55.1.55q.5 3.45.95 2.15l.4-1.05.25.4.2-.1v.15l-.55.3-.55 1.4.2.2.5.25m2.85 10.3l.2-.05q1.35-.35 2.05-.95l.45-.7.8-1.9q.15.35-.3 1.25-.5.85.15 1.35l1 .25-4.1 1.05L5.3 28l-.1.55q-.4-.35-.95-.2-1.4.3-2.2.95l.2-.4q.3-1.4-.05-2.75-.25-.9-.8-1.55l.6.1q.7 0 .65 2.1L4 25.45q-1.75 3.5-.3 2.85 1.4-.65 2.7-.95M7.9 46.2q-.45 1.05-.45 2.2l-.2-2.3q-.05-1.6.55-2.7l-3.45-.3q-1.45-.2-1.2.65l.05.1.7 1.95-.85-1.6q-.3-.7-.95-.9L0 43l1.5-2 .15-.25-.1-1-.4-.2.4-.2.55-.4.05-.8-.25-.8-.1-.2.15.05h.3q.5-.1.1 1.3l1.25-1.05Q1.7 40 2.95 39.4l.9-.45v.35h.2l-.05.1-.65-.05-1.2.6.05.2q.15.45.8.55l-.75.15q-.4.1-.4.6-1.55.9.5 1.2l.55.05 1.45-.25 1.35-.6q-.4.55.4.75l2.45.2-.75 1.6q-.65 1.05 1 .5l-.4.35-.5.95"/><path fill="url(#a)" d="M27.2 27.8l-.05.05-.5.5-1.9 1.55-1 .55-.55.3-1.4.55-4.6.75h-.15l-4.8-.75q-2.45-.85-4.5-2.6l-1.1-1.05 4.1-1.05-1-.25q-.65-.5-.15-1.35.45-.9.3-1.25l-.8 1.9-.45.7q-.7.6-2.05.95l-.2.05q-2.35-2.65-2.9-6 .7-.55 2-.8.7-.15 1.45.55l1.95 1.4-2.05-1.9q-1.1-.9.3-1.55l3.1-1.55q.6 2.25 2.8 4.9l.9 1.15q-1.3-2-1.7-4.2v-.65q-.85 1.6-1.2 0l-.65-2.35q-1.05.8-2.15 1.15-.85.2-.95-.65l-.65 1.45-1 1.1q-2.45 1.25-1.8-.85-.45-.65-.2-.95l.5-.55h-.6q.7-3.8 3.8-6.65l.4-.35q.8.95 2.25.95h2.05l1.25-.35q-.7.75-.65 1.3l.25 1.35q-.1-2.45 3.05-3.6l-1.7.2q-1.2.05-1.75-.5l.15.6-2.2.6q-2.1.3-2.1-.9v-.15Q12 6.7 17.05 6.7q3.35 0 6.15 1.3l1.4.8q-.35 1.15-.3 2.45-.75.7-1.3.4l-.8-.4-.45-.15q.4.95-.9 2.55l-.7.85q1.6-1.45 1.1.15l-.05.85.75-1.25q1.2-2.05 2.35-2.45.15 3.35 2.75 5.75 1.6 1.5 3.6 2.15l-.4 3q-.75 2.45-2.5 4.5l-2.55-.6-1.95-.75-1.25-1.5-1.15-2.1q-.6-1-1.1-3.85-.25 3.6 1.15 5.55.65.9.25 1.15l-.85-.45.55 1.4q.35.55-.65.25l-1-.05.75 1.6q1.1-2 3.1-1.1l-.35.5q2.75-.25 4.5.55"/><path fill="url(#b)" d="M38.95 30.35q-.35-.75-.35-1.65 0-1.75 1.3-2.95L41 27.9q.4.9 3.1.95-.35 1.15 1.55 2.55-1.7 0-3.45 1.35l-.15.15q-1.2-.3-2.1-1.15l-1-1.4m1.7-5.2q1.1-.75 2.55-.75 1.9 0 3.25 1.25t1.35 3.05q0 1.65-1.15 2.85l-1.3-1.45q-.95-1.3.45-2-4.25.9-4.85-1.6l-.3-1.35m5.25 7q-1.15.8-2.7.85h-.3l.8-.35 2.2-.5m-13.3 6.3q1 .15 1.6.7.45.45-.35 1.05l-.35-.3q-.7-.65-.9-1.45"/><path fill="url(#c)" d="M23.3 37.55l-.35-.25q-.55-.5-.55-1.15 0-.65.55-1.15.5-.45 1.2-.45t1.25.45q.5.5.5 1.15 0 .65-.5 1.15l-1.25.45-.85-.2"/><path fill="url(#d)" d="M3.4 9.35l.15.1.05.1.05.15-.1.2-.4.05-.1-.3.05-.2.1-.05.2-.05m-1.25 4l-.1-.55-.05.55-.1-.05-.1-.3.05-.2.1-.05.2-.05.15.1.05.1.05.15-.05.2-.2.1"/><path fill="url(#e)" d="M5.7 33.4q1.4-.65 3.1-.6 3-.05 5.1 1.95 2.15 1.95 2.15 4.75t-2.15 4.75q-2.1 1.95-5.1 2l-.9-.05.5-.95.4-.35q-1.65.55-1-.5l.75-1.6-2.45-.2q-.8-.2-.4-.75l-1.35.6-1.45.25-.55-.05-.5-1.2q0-.5.4-.6L3 40.7q-.65-.1-.8-.55l-.05-.2 1.2-.6.65.05.05-.1h-.2v-.35l-.9.45q-1.25.6.65-1.95L2.35 38.5q.4-1.4-.1-1.3h-.3q.5-1.35 1.7-2.45.95-.9 2.05-1.35m1.55 12.7q-2.05-.4-3.6-1.85l-.5-.5q-.25-.85 1.2-.65l3.45.3q-.6 1.1-.55 2.7m-5.7-6.75q0-1.1.35-2l.25.8-.05.8-.55.4"/><path fill="url(#f)" d="M43.15 13.55q-.6 2.25-2.5 4-1.35 1.25-2.9 1.95l-3.85.65-3.25-.45q-2-.65-3.6-2.15-2.6-2.4-2.75-5.75.55-.2 1.15 0 1.1.45 2.5-.6l2.1-1.65L31.2 8.2q-.5 1.4-.3 2 .25.85.7 1.35-.85-2.75 2-6.45l-1.65 1.5q-1.25 1-1.95.85l.3.55q0 .35-2 2.35t-2.4.6v-.1l-1.3-.05-.3.45q-.05-1.3.3-2.45.6-2.15 2.45-3.85 2.8-2.6 6.85-2.6 3.95 0 6.75 2.6t2.8 6.3l-.05 1.3-1.75 1-2.9.65q3 .55 4.25-.5l.15-.15"/><path fill="url(#g)" d="M32.6 38.4l-.1-.7q0-1.35 1-2.25 1-.9 2.4-.9t2.4.9q.95.9.95 2.25 0 .8-.4 1.5l-.55.7-.6.45-1.95-.85-1.5-.9 1.15.2.5-.05-.65-.4q-.2-.2-.1-.45l.35-.35 2-.8q-2.65.95-3.55.4l.5.75q.3.5-1.85.5m1.35 1.9l1.85-.15 1.4.4-1.3.3q-1.1 0-1.95-.55"/><path fill="none" stroke="#000" stroke-width=".05" stroke-linecap="round" stroke-linejoin="round" d="M27.2 27.8l-.05.05m-19.4-17.8l-.4.35m9.7 21.65h.15M3.4 19.45l.1 1.8M33.85 40.2l-.35-.3"/><path fill="none" stroke="#600" stroke-width=".05" stroke-linecap="round" stroke-linejoin="round" d="M37.75 19.5q.1.95-.35 2.05-.95 2.1-3.6 1.8l-.4-.05m-6.25 4.55l.7 1.05q1.2 2.1 3.35 3.1l4.7-.1 3.05-1.55m.4 11.9q-.4 1.7-1.75 2.75-1.7 1.25-4.45 1.2-2.95-.1-3.45-2.5-.5-2.35-.3-4.95.15-2.5-.85-4.6l-.15-.3m-11.2-1.8l-.05.95q-.2 1.6.15 3l.65 1.8q1.4 2.6 3.5 1.8 1.45-.6 1.85-2.05M33.35 23.3l-3.1-.6m-22.5 6L6.5 29.95l-.9 1.35q-.35 1 .1 2.1m33.15 5.8q.45.65.55 1.45M28.15 33.4q-.9-1.45-2.25-2.6l-1.15-.9"/><path fill="none" stroke="#331B8B" stroke-width=".05" stroke-linecap="round" stroke-linejoin="round" d="M32.6 38.4l-.1-.7q0-1.35 1-2.25 1-.9 2.4-.9t2.4.9q.95.9.95 2.25 0 .8-.4 1.5l-.55.7-.6.45m-.5.2l-1.3.3q-1.1 0-1.95-.55m-.45-.4q-.7-.65-.9-1.45"/><path fill="none" stroke="#33337F" stroke-width=".05" stroke-linecap="round" stroke-linejoin="round" d="M38.95 30.35q-.35-.75-.35-1.65 0-1.75 1.3-2.95m.75-.6q1.1-.75 2.55-.75 1.9 0 3.25 1.25t1.35 3.05q0 1.65-1.15 2.85m-.75.6q-1.15.8-2.7.85h-.3m-.85-.1q-1.2-.3-2.1-1.15l-1-1.4"/><path fill="none" stroke="#336665" stroke-width=".05" stroke-linecap="round" stroke-linejoin="round" d="M23.75 30.45l-.55.3-1.4.55-4.6.75M24.6 8.8L23.2 8q-2.8-1.3-6.15-1.3-5.05 0-8.7 2.85m-1 .85q-3.1 2.85-3.8 6.65m-.05 4.3q.55 3.35 2.9 6m.25.3l1.1 1.05q2.05 1.75 4.5 2.6l4.8.75m10.7-4.85q1.75-2.05 2.5-4.5l.4-3m-6.9 10.75l1-.55 1.9-1.55.5-.5"/><path fill="none" stroke="#309" stroke-width=".05" stroke-linecap="round" stroke-linejoin="round" d="M24.6 8.8q-.35 1.15-.3 2.45m0 .55q.15 3.35 2.75 5.75 1.6 1.5 3.6 2.15"/><path fill="none" stroke="#332E81" stroke-width=".05" stroke-linecap="round" stroke-linejoin="round" d="M30.65 19.7l3.25.45 3.85-.65m5.4-5.95q-.6 2.25-2.5 4-1.35 1.25-2.9 1.95m5.65-6.95l.05-1.3q0-3.7-2.8-6.3-2.8-2.6-6.75-2.6-4.05 0-6.85 2.6-1.85 1.7-2.45 3.85"/><path fill="none" stroke="#330A93" stroke-width=".05" stroke-linecap="round" stroke-linejoin="round" d="M23.3 37.55l-.35-.25q-.55-.5-.55-1.15 0-.65.55-1.15.5-.45 1.2-.45t1.25.45q.5.5.5 1.15 0 .65-.5 1.15l-1.25.45-.85-.2"/><path fill="none" stroke="#334B73" stroke-width=".05" stroke-linecap="round" stroke-linejoin="round" d="M5.7 33.4q1.4-.65 3.1-.6 3-.05 5.1 1.95 2.15 1.95 2.15 4.75t-2.15 4.75q-2.1 1.95-5.1 2l-.9-.05m-.65-.1q-2.05-.4-3.6-1.85l-.5-.5m-1.5-3l-.1-1m0-.4q0-1.1.35-2m.05-.15q.5-1.35 1.7-2.45.95-.9 2.05-1.35m-3.35 9.25l-.5-1.2"/></svg>