<svg xmlns="http://www.w3.org/2000/svg" viewBox="0 0.1 44.3 48.3" width="44.3" height="48.3"><defs><radialGradient gradientUnits="userSpaceOnUse" r="819.2" cx="0" cy="0" spreadMethod="pad" gradientTransform="matrix(.005 0 0 .005 37.6 2.7)" id="a"><stop offset=".063" stop-color="#fff"/><stop offset=".412"/></radialGradient><radialGradient gradientUnits="userSpaceOnUse" r="819.2" cx="0" cy="0" fx="96985.6" fy="0" spreadMethod="pad" gradientTransform="matrix(.008 0 0 .008 35.35 6.6)" id="b"><stop offset=".063" stop-color="#fff"/><stop offset=".651" stop-color="#060"/></radialGradient><radialGradient gradientUnits="userSpaceOnUse" r="819.2" cx="0" cy="0" spreadMethod="pad" gradientTransform="matrix(.011 0 0 .011 27.5 12.05)" id="c"><stop offset=".063" stop-color="#fff"/><stop offset=".463" stop-color="#930"/><stop offset=".667" stop-color="#c00"/><stop offset=".922" stop-color="#339"/></radialGradient><radialGradient gradientUnits="userSpaceOnUse" r="819.2" cx="0" cy="0" spreadMethod="pad" gradientTransform="matrix(.007 0 0 .007 21 6.05)" id="d"><stop offset=".063" stop-color="#fff"/><stop offset=".651" stop-color="#060"/></radialGradient><radialGradient gradientUnits="userSpaceOnUse" r="819.2" cx="0" cy="0" spreadMethod="pad" gradientTransform="matrix(.021 0 0 .021 24.95 25.05)" id="e"><stop offset=".063" stop-color="#fff"/><stop offset=".463" stop-color="#930"/><stop offset=".667" stop-color="#c00"/><stop offset=".922" stop-color="#339"/></radialGradient><radialGradient gradientUnits="userSpaceOnUse" r="819.2" cx="0" cy="0" spreadMethod="pad" gradientTransform="matrix(.006 0 0 .006 34.05 18.65)" id="f"><stop offset=".063" stop-color="#fff"/><stop offset=".412"/></radialGradient><radialGradient gradientUnits="userSpaceOnUse" r="819.2" cx="0" cy="0" spreadMethod="pad" gradientTransform="matrix(.006 0 0 .006 22.5 15.05)" id="g"><stop offset=".063" stop-color="#fff"/><stop offset=".412"/></radialGradient><radialGradient gradientUnits="userSpaceOnUse" r="819.2" cx="0" cy="0" spreadMethod="pad" gradientTransform="matrix(.016 0 0 .016 22.25 31)" id="h"><stop offset=".063" stop-color="#fff"/><stop offset=".745"/><stop offset=".957" stop-color="#900"/></radialGradient><radialGradient gradientUnits="userSpaceOnUse" r="819.2" cx="0" cy="0" spreadMethod="pad" gradientTransform="matrix(.013 0 0 .013 21.8 31.35)" id="i"><stop offset="0" stop-color="#fc0"/><stop offset=".314" stop-color="#f60"/><stop offset=".475" stop-color="#451C00"/><stop offset="1"/></radialGradient><radialGradient gradientUnits="userSpaceOnUse" r="819.2" cx="0" cy="0" fx="99.2" fy="0" spreadMethod="pad" gradientTransform="matrix(.003 0 0 .003 24.9 19.1)" id="j"><stop offset=".063" stop-color="#fff"/><stop offset=".463" stop-color="#930"/><stop offset=".667" stop-color="#c00"/><stop offset=".922" stop-color="#339"/></radialGradient><radialGradient gradientUnits="userSpaceOnUse" r="819.2" cx="0" cy="0" spreadMethod="pad" gradientTransform="matrix(.003 0 0 .003 30.8 21.95)" id="k"><stop offset=".063" stop-color="#fff"/><stop offset=".463" stop-color="#930"/><stop offset=".667" stop-color="#c00"/><stop offset=".922" stop-color="#339"/></radialGradient><radialGradient gradientUnits="userSpaceOnUse" r="819.2" cx="0" cy="0" fx="2240" fy="0" spreadMethod="pad" gradientTransform="matrix(.007 0 0 .007 36.85 22.6)" id="l"><stop offset=".063" stop-color="#fff"/><stop offset=".463" stop-color="#930"/><stop offset=".667" stop-color="#c00"/><stop offset=".922" stop-color="#339"/></radialGradient><radialGradient gradientUnits="userSpaceOnUse" r="819.2" cx="0" cy="0" fx="313.6" fy="0" spreadMethod="pad" gradientTransform="matrix(.008 0 0 .008 40.7 26.5)" id="m"><stop offset=".063" stop-color="#fff"/><stop offset=".651" stop-color="#060"/></radialGradient><radialGradient gradientUnits="userSpaceOnUse" r="819.2" cx="0" cy="0" spreadMethod="pad" gradientTransform="matrix(.006 0 0 .006 35.25 29.65)" id="n"><stop offset=".063" stop-color="#fff"/><stop offset=".412"/></radialGradient><radialGradient gradientUnits="userSpaceOnUse" r="819.2" cx="0" cy="0" fx="1177.6" fy="0" spreadMethod="pad" gradientTransform="matrix(.005 0 0 .005 30.15 37.45)" id="o"><stop offset=".063" stop-color="#fff"/><stop offset=".463" stop-color="#930"/><stop offset=".667" stop-color="#c00"/><stop offset=".922" stop-color="#339"/></radialGradient><radialGradient gradientUnits="userSpaceOnUse" r="819.2" cx="0" cy="0" spreadMethod="pad" gradientTransform="matrix(.006 0 0 .006 32.4 41.9)" id="p"><stop offset=".063" stop-color="#fff"/><stop offset=".651" stop-color="#060"/></radialGradient><radialGradient gradientUnits="userSpaceOnUse" r="819.2" cx="0" cy="0" fx="100374.4" fy="0" spreadMethod="pad" gradientTransform="matrix(.004 0 0 .004 37.85 40.2)" id="q"><stop offset=".063" stop-color="#fff"/><stop offset=".412"/></radialGradient><radialGradient gradientUnits="userSpaceOnUse" r="819.2" cx="0" cy="0" spreadMethod="pad" gradientTransform="matrix(.004 0 0 .004 2.8 10.95)" id="r"><stop offset=".063" stop-color="#fff"/><stop offset=".412"/></radialGradient><radialGradient gradientUnits="userSpaceOnUse" r="819.2" cx="0" cy="0" fx="355.2" fy="0" spreadMethod="unknown" gradientTransform="matrix(.002 0 0 .002 18.35 3.15)" id="s"><stop offset=".063" stop-color="#fff"/><stop offset=".412"/></radialGradient><radialGradient gradientUnits="userSpaceOnUse" r="819.2" cx="0" cy="0" spreadMethod="pad" gradientTransform="matrix(.005 0 0 .005 14.25 9.45)" id="t"><stop offset=".063" stop-color="#fff"/><stop offset=".651" stop-color="#060"/></radialGradient><radialGradient gradientUnits="userSpaceOnUse" r="819.2" cx="0" cy="0" spreadMethod="pad" gradientTransform="matrix(.009 0 0 .009 6.6 15.3)" id="u"><stop offset=".063" stop-color="#fff"/><stop offset=".651" stop-color="#060"/></radialGradient><radialGradient gradientUnits="userSpaceOnUse" r="819.2" cx="0" cy="0" spreadMethod="pad" gradientTransform="matrix(.009 0 0 .009 13.5 20.2)" id="v"><stop offset=".063" stop-color="#fff"/><stop offset=".463" stop-color="#930"/><stop offset=".667" stop-color="#c00"/><stop offset=".922" stop-color="#339"/></radialGradient><radialGradient gradientUnits="userSpaceOnUse" r="819.2" cx="0" cy="0" spreadMethod="pad" gradientTransform="matrix(.002 0 0 .002 20.55 17.9)" id="w"><stop offset=".063" stop-color="#fff"/><stop offset=".463" stop-color="#930"/><stop offset=".667" stop-color="#c00"/><stop offset=".922" stop-color="#339"/></radialGradient><radialGradient gradientUnits="userSpaceOnUse" r="819.2" cx="0" cy="0" fx="44.8" fy="0" spreadMethod="pad" gradientTransform="matrix(.003 0 0 .003 12.9 32.65)" id="x"><stop offset=".063" stop-color="#fff"/><stop offset=".463" stop-color="#930"/><stop offset=".667" stop-color="#c00"/><stop offset=".922" stop-color="#339"/></radialGradient><radialGradient gradientUnits="userSpaceOnUse" r="819.2" cx="0" cy="0" spreadMethod="pad" gradientTransform="matrix(.006 0 0 .006 7.2 31.7)" id="y"><stop offset=".063" stop-color="#fff"/><stop offset=".651" stop-color="#060"/></radialGradient><radialGradient gradientUnits="userSpaceOnUse" r="819.2" cx="0" cy="0" spreadMethod="pad" gradientTransform="matrix(.005 0 0 .005 4.25 32.2)" id="z"><stop offset=".063" stop-color="#fff"/><stop offset=".412"/></radialGradient><radialGradient gradientUnits="userSpaceOnUse" r="819.2" cx="0" cy="0" spreadMethod="pad" gradientTransform="matrix(.005 0 0 .005 11.2 45.75)" id="A"><stop offset=".063" stop-color="#fff"/><stop offset=".412"/></radialGradient><radialGradient gradientUnits="userSpaceOnUse" r="819.2" cx="0" cy="0" spreadMethod="pad" gradientTransform="matrix(.005 0 0 .005 13.8 42.55)" id="B"><stop offset=".063" stop-color="#fff"/><stop offset=".651" stop-color="#060"/></radialGradient><radialGradient gradientUnits="userSpaceOnUse" r="819.2" cx="0" cy="0" spreadMethod="pad" gradientTransform="matrix(.004 0 0 .004 40.35 15.85)" id="C"><stop offset=".063" stop-color="#fff"/><stop offset=".651" stop-color="#060"/></radialGradient></defs><path fill="#f00" d="M42.35 29.65l-.35.3.85-2.6q.25 1.25-.5 2.3m-.6-4.15q.35.35-.15.55L41 24.5l.75 1m1 1.35l-.1-.6-.6-1.1q-.75-.75-.75-1.5l1.75 2.7-.05.55-1.95 1.45-.65 1.75.5-2.05 1.85-1.2m-6.8-22.6q.05-.4.35.2l.25.35.05 1.3-2.1 1.4 1.2.3h-1.9l-1.5 2.05 1.5-2.6.15.1 1.6-.65-.85-1.85.15.2Q35.4 6.8 36.2 6.2l-.15-1.35-.1-.6M23 8.4l-.05.4q.05-.4-.4-.95l-1.15-.9L20.2 6l-1-1.1 1.3 1.15.15.25-.15-1.1-.55-1.1q1.1.55 1 1.6-.05.6.25.9 1 .1 1.5 1.05l.05.15.25.6M5.9 16.05l1.45 2.25.4.1-.2.05.75.7q.2.2.65.3l1.55.3.3.2-2.7-.6-.7.05-.3-.9-1.5-.75-.8-.1.9-.2 1.3.7-1.3-1.95-.4-1-.45-.9.65.6.4 1.15M9.35 31l-.15.7-.9 1.5q-.7.1-1.15.45-.25.15-.1.25-.6 0-.1-.85l1.65-.45.75-1.6m-1.2 0l-.45.05 1.15-.85q.9.25-.7.8m8.1 11.95l-.4.3-1.5-.05 1.9-.25m-2.5-.6l.85-.15.5.2-1.35-.05M29.2 40.8l.4.5.5.7 1.5.3.1-.15h.1l2.85-.3q.7-.15 1.45.25l-3.95.55 2.2.75L30 42.25l-.85-.85.05-.6"/><path fill="#fff" d="M22.9 21.35l.45.05q.1 1.5-.4 2.9l-1.8 4.4q-.35-.5-.35-1.15l.4-6.15 1.7-.05m3.35.65q1.6.45 2 2l.25 1.75-.95 1.75-1.5 2.1-1.55 1.75L26.25 22m-3.2 19.2l-1.55.1 1.7-5 .15 3.25L23.2 41l-.15.2m-2.45-.05l-2.35-1.05 3.4-6.25-.7 6.1-.35 1.2M17 39.3l-1.2-1.15.65-1.75.9-1.7 2.2-2.9-2.5 7.45-.05.05m1.65-16.5l1.15-.85.25-.15v.3l-.25 3.45-.3 2.2q-.2 1.8-.75 2.9l-.2-6.25.1-1.6"/><path fill="url(#a)" d="M33.8 1.65l-.15-.15Q33.9.25 35.25.15q1.65-.25 3.15.6L41 2.5q.9.75.45 1.85l-.65.8-2.05-.2L35.8 3.3l-2-1.65"/><path fill="url(#b)" d="M33.8 1.65l2 1.65 2.95 1.65 2.05.2q-.45 1.15-1.6 1.75-1.45.7-2.95 1.35-1.6.65-2.35 2.15l-.5 1.15-2.9-1.6-.15-.1-.4-.15q.5-.5 1.3-.8 1.55-.65 2.25-1.85.7-1.25.4-3.1-.2-1.1-.1-2.3m2.15 2.6l.1.6.15 1.35q-.8.6-1.35-1.15l-.15-.2.85 1.85-1.6.65-.15-.1-1.5 2.6 1.5-2.05h1.9l-1.2-.3 2.1-1.4-.05-1.3-.25-.35q-.3-.6-.35-.2"/><path fill="url(#c)" d="M33.4 11.55l2.75 1.4q-2.9 1.2-5.9 2.05l3.25-2.6-4.95 2.05q-.5-2.25-.7-4.6l-.55 1.05-1 .65-.15-.7-2.4 1.95q-2-.7-3.35-2.8v.85q0 .7-.25.7l-.95-1.7-.35-.45 3.75-.3h2.95l4.4.6.4.15.15.1 2.9 1.6"/><path fill="url(#d)" d="M22.6 9.1l-1.8-1.9Q19.45 6 18.1 5.75q-1.9-.35-1.55-2.05.95.85 2.4.45.75-.2 1.05-.9l.1-.2q.95.7 1.25 1.9.3 1.3 1.9 2.1 1.25.6 2.15 1.85l.15.2H22.6m.4-.7l-.25-.6-.05-.15q-.5-.95-1.5-1.05-.3-.3-.25-.9.1-1.05-1-1.6l.55 1.1.15 1.1-.15-.25-1.3-1.15 1 1.1 1.2.95 1.15.9q.45.55.4.95l.05-.4"/><path fill="url(#e)" d="M36.15 12.95l1.6 1.95.85 1.85.55 1.25-2.4-.2q2 .75 1.95 2.65-.1 1.75.95 3.2L37.7 23l-.75-.05q0 .5.45.9-2.1-.2-2.55 1.25-.2.65.2 1.35.35.7-.6.55l-1.2-.1.7.55q-1.2.65-1.9 1.9-.9 1.4-.8 3.15l3.45-.25.1-.05-1.75 2.85q-1.15-.15-2.2-.7l.7 2.2q-2.5-.9-3.8 2.6l-.5 1.4-2.1.15 2.55-5.6q.7-1.6.85-3.4.05-1.8.65-3.2.8-2.15 2.25-3.6L31 23.65l2.25-1.9-2.9.15q-.05-.95.6-1.6l-2.55.3-2.05-.45q.05-1.2.65-2.1-2.2-.2-4.2.8l-1.1-.1q-.45-.8.25-1.65-1.9.3-2.8 1.7l-1.9.4-.6.4-.2 1.45.2 3.35-.4.35L13.3 37.4q-.75-.65-.75-1.9l-.1-.9 1.95-3.85-2.95 1.9-.5-.75-.65-3.7 1.25-3.05.3.35 2.3 1.65-2-5.9 1 .55.4-1.5 1.15-4.1.95.4-.55-3.3.45-1.15 1.7-2.25q.65-.4 1.6-.5l.35.45.95 1.7q.25 0 .25-.7V10q1.35 2.1 3.35 2.8l2.4-1.95.15.7 1-.65.55-1.05q.2 2.35.7 4.6l4.95-2.05-3.25 2.6q3-.85 5.9-2.05m-9.1 3.8l-7.35-3-1.75-.35 2.6 1.8 6.5 1.55m9.95 3.4q.9 0 1.3-.4l-2.7-.55-5.8-2 1.9 1.65q1.75 1.1 3.9 1.25l1.4.05"/><path fill="url(#f)" d="M37 20.15l-1.4-.05q-2.15-.15-3.9-1.25l-1.9-1.65 5.8 2 2.7.55q-.4.4-1.3.4"/><path fill="url(#g)" d="M27.05 16.75l-6.5-1.55-2.6-1.8 1.75.35 7.35 3"/><path fill="url(#h)" d="M25.15 40.7q-.7 1.05-1.8 1.75-2.1 1.35-4.65.45l-.45-.15-3.5-2.05-1.4-1.9q-.5-.75-.05-1.4l2.95-12.65.4-.35-.2-3.35.2-1.45.6-.4 1.9-.4 2.55-.05 1.1.1 3.55 1.3 2.05.45q1.15.4 1.75 1.35l.85 1.7.45 1.25Q30 26.35 29.2 28.5q-.6 1.4-.65 3.2-.15 1.8-.85 3.4l-2.55 5.6m-1.8-19.3l-.45-.05-1.7.05-1.15.4-.25.15-1.15.85-1.1 1.45v1.2q.1 1.7-.4 3.25l-1.8 6.15q-.6 1.7.2 2.95l.25.35L17 39.3v.05l1.25.75 2.35 1.05.9.15 1.55-.1.2-.05q1-.35 1.6-1.6l1.2-2.95q.55-1.55 1.25-2.95.65-1.35.9-3.1l.3-4.8-.25-1.75q-.4-1.55-2-2l-2.9-.6"/><path fill="url(#i)" d="M23.35 21.4l2.9.6-1.75 9.35 1.55-1.75 1.5-2.1.95-1.75-.3 4.8q-.25 1.75-.9 3.1-.7 1.4-1.25 2.95l-1.2 2.95q-.6 1.25-1.6 1.6L23.2 41l.15-1.45-.15-3.25-1.7 5-.9-.15.35-1.2.7-6.1-3.4 6.25-1.25-.75.05-.1 2.5-7.45-2.2 2.9-.9 1.7-.65 1.75-.25-.35q-.8-1.25-.2-2.95l1.8-6.15q.5-1.55.4-3.25v-1.2l1.1-1.45-.1 1.6.2 6.25q.55-1.1.75-2.9l.3-2.2.25-3.45v-.3l1.15-.4-.4 6.15q0 .65.35 1.15l1.8-4.4q.5-1.4.4-2.9"/><path fill="url(#j)" d="M22.8 18.85q2-1 4.2-.8-.6.9-.65 2.1l-3.55-1.3"/><path fill="url(#k)" d="M28.4 20.6l2.55-.3q-.65.65-.6 1.6l2.9-.15-2.25 1.9-.85-1.7q-.6-.95-1.75-1.35"/><path fill="url(#l)" d="M39.15 18l.8 1.4q.55.9.5 1.95l-.75 2.75-1.3 1.85-.2 1.15-.45-.15-3.3.25-.5.25-.7-.55 1.2.1q.95.15.6-.55-.4-.7-.2-1.35.45-1.45 2.55-1.25-.45-.4-.45-.9l.75.05 1.95.65q-1.05-1.45-.95-3.2.05-1.9-1.95-2.65l2.4.2"/><path fill="url(#m)" d="M40.45 21.35l.35.2q1.55.75 2.5 2.1t1 3.05q0 1.6-.9 2.85-1.05 1.3-2.65 1.8l-3.15.35-.5-.05.7-.35q1.25-.7 1.45-2 .2-1.45-.8-2.05l1.2-.5q1.45-.55.65-2l-.6-.65.75-2.75m2.3 5.5l-1.85 1.2-.5 2.05.65-1.75L43 26.9l.05-.55-1.75-2.7q0 .75.75 1.5l.6 1.1.1.6m-1-1.35l-.75-1 .6 1.55q.5-.2.15-.55m.6 4.15q.75-1.05.5-2.3l-.85 2.6.35-.3"/><path fill="url(#n)" d="M37.1 31.65l-2.3.55-.1.05-3.45.25q-.1-1.75.8-3.15.7-1.25 1.9-1.9l.5-.25 3.3-.25.45.15.25.15q1 .6.8 2.05-.2 1.3-1.45 2l-.7.35"/><path fill="url(#o)" d="M33.05 35.05l-2.7 4.25-3.05 1.25h-.05l.5-1.4q1.3-3.5 3.8-2.6l-.7-2.2q1.05.55 2.2.7"/><path fill="url(#p)" d="M30.35 39.3q.9 1.4 2.4 2 .7.3 1.45 0l1.3-.7 2 1.75-1.9 1.35-3.3.75q-1.75 0-3.15-.9-1.45-.95-1.8-2.65l-.05-.35 3.05-1.25m-1.15 1.5l-.05.6.85.85 4.35 1.15-2.2-.75 3.95-.55q-.75-.4-1.45-.25l-2.85.3h-.1l-.1.15-1.5-.3-.5-.7-.4-.5"/><path fill="url(#q)" d="M35.5 40.6q-.75-1.15-.05-2.35.5-.95.95-.7 1.7 0 2.95 1.05 1.35 1.15 1.3 2.8-.1 2.05-2.1 1.4l-1.05-.45-2-1.75"/><path fill="url(#r)" d="M1.85 13.6l-.65-.15q-1.85-.5-.9-2.5l1.35-1.9q1.2-1.15 2.75-.5l.8.4.2.2q.55.55 0 1.2l-1.4 2q-.8 1.35-2.15 1.25"/><path fill="url(#s)" d="M16.55 3.4q.7-1.25 2.4-1.35 1.45-.15 1.15 1l-.1.2q-.3.7-1.05.9-1.45.4-2.4-.45v-.3"/><path fill="url(#t)" d="M15.55 12.15l-.55-1q-.55-1.05-1.95-1.25-1.2-.25-1.55-1.35-.3-.8-.25-1.75l1.35 1.45.7.4 2.9.65 1.05.6-1.7 2.25"/><path fill="url(#u)" d="M11.35 21.05l-.75-.1-1.1.3-3.15-.05q-1.4-.75-2.2-2.05-.9-1.4-1.35-3l-.95-2.55q1.35.1 2.15-1.25l1.4-2q.55-.65 0-1.2l-.2-.2q1.5.3 1.65 1.75l.2 3.3Q7 15.75 8.1 16.95q1.15 1.25 2.95 1h.05l.35-.05-.1 3.15m-5.45-5l-.4-1.15-.65-.6.45.9.4 1L7 18.15l-1.3-.7-.9.2.8.1 1.5.75.3.9.7-.05 2.7.6-.3-.2-1.55-.3q-.45-.1-.65-.3l-.75-.7.2-.05-.4-.1-1.45-2.25"/><path fill="url(#v)" d="M11.7 24.9l-.35-3.85.1-3.15q.35-1 1.45-1.5 1.5-.75 2.05-2.5l.15-.5v-.1l.55 3.3-.95-.4-1.15 4.1-.4 1.5-1-.55 2 5.9-2.3-1.65-.15-.6"/><path fill="url(#w)" d="M19.15 18.8q.9-1.4 2.8-1.7-.7.85-.25 1.65l-2.55.05"/><path fill="url(#x)" d="M12.45 34.6l-1-1.95 2.95-1.9-1.95 3.85"/><path fill="url(#y)" d="M10.95 31.9L7 34.5q-1.5.7-3.15.7h-.4l2.6-1.75q1.15-1.2 1.05-2.9v-.1l3.2-2.25.65 3.7m-2.8-.9q1.6-.55.7-.8l-1.15.85.45-.05m1.2 0l-.75 1.6-1.65.45q-.5.85.1.85-.15-.1.1-.25.45-.35 1.15-.45l.9-1.5.15-.7"/><path fill="url(#z)" d="M3.45 35.2l-.1.05q-1.75.7-1.9-1.6-.15-1.7.8-3Q3 29.6 4.3 29.15l.65-.15q2-.2 2.15 1.45v.1q.1 1.7-1.05 2.9l-2.6 1.75"/><path fill="url(#A)" d="M14.5 44.45q.6.65.65 1.8.05 2.1-2.05 2.15-1.7.05-3.2-.75L7.95 46.4l-.55-.5q-.3-.5.1-1.25.55-1.2 1.9-1.45l.7-.05q1.75.05 3.35.6.6.25 1.05.7"/><path fill="url(#B)" d="M14.5 44.45q-.45-.45-1.05-.7-1.6-.55-3.35-.6l-.7.05 5.35-2.5 3.5 2.05-3.75 1.7m1.75-1.5l-1.9.25 1.5.05.4-.3m-2.5-.6l1.35.05-.5-.2-.85.15"/><path fill="url(#C)" d="M37.75 14.9h.35q1.75.25 3.25-.65l1.2-.8-1.15 2.2Q40.7 17 39 16.8l-.4-.05-.85-1.85"/><path fill="#B76F4B" d="M11.55 25.15l.15-.25.15.6-.3-.35"/><path fill="none" stroke="#000" stroke-width=".05" stroke-linecap="round" stroke-linejoin="round" d="M40.8 5.15l.65-.8q.45-1.1-.45-1.85L38.4.75q-1.5-.85-3.15-.6-1.35.1-1.6 1.35l.15.15 2 1.65 2.95 1.65 2.05.2m-3.7 26.5l-2.3.55m.7 8.4q-.75-1.15-.05-2.35.5-.95.95-.7 1.7 0 2.95 1.05 1.35 1.15 1.3 2.8-.1 2.05-2.1 1.4l-1.05-.45-2-1.75m-8.2-.05h-.05m-12.75 3.9q.6.65.65 1.8.05 2.1-2.05 2.15-1.7.05-3.2-.75L7.95 46.4l-.55-.5q-.3-.5.1-1.25.55-1.2 1.9-1.45l.7-.05q1.75.05 3.35.6.6.25 1.05.7M3.85 35.2h-.4l-.1.05q-1.75.7-1.9-1.6-.15-1.7.8-3Q3 29.6 4.3 29.15l.65-.15q2-.2 2.15 1.45M1.85 13.6l-.65-.15q-1.85-.5-.9-2.5l1.35-1.9q1.2-1.15 2.75-.5l.8.4m5.85 9h.05m4-4.55v-.1m1.45-9.6l-.1-.1.1-.2q.7-1.25 2.4-1.35 1.45-.15 1.15 1m5.3 5.85l.15.2m1.5 7.65l-7.35-3-1.75-.35 2.6 1.8 6.5 1.55m9.95 3.4q.9 0 1.3-.4l-2.7-.55-5.8-2 1.9 1.65q1.75 1.1 3.9 1.25l1.4.05m1.45 7.1q1 .6.8 2.05-.2 1.3-1.45 2l-.7.35M16.55 3.4v.3q.95.85 2.4.45.75-.2 1.05-.9l.1-.2M1.85 13.6q1.35.1 2.15-1.25l1.4-2q.55-.65 0-1.2l-.2-.2M3.45 35.2l2.6-1.75q1.15-1.2 1.05-2.9v-.1m31.1-3.35l-.45-.15-3.3.25-.5.25q-1.2.65-1.9 1.9-.9 1.4-.8 3.15l3.45-.25.1-.05m3.4-5.1l.25.15"/><path fill="none" stroke="#ccc" stroke-width=".05" stroke-linecap="round" stroke-linejoin="round" d="M23.35 21.4l-.45-.05m-1.7.05l-.4 6.15q0 .65.35 1.15l1.8-4.4q.5-1.4.4-2.9m-3.55.55l.25-.15v.3l-.25 3.45-.3 2.2q-.2 1.8-.75 2.9l-.2-6.25.1-1.6M15.8 38.15l.65-1.75.9-1.7 2.2-2.9-2.5 7.45M26.25 22l-1.75 9.35 1.55-1.75 1.5-2.1.95-1.75M23.05 41.2l.15-.2.15-1.45-.15-3.25-1.7 5m-3.25-1.2l3.4-6.25-.7 6.1-.35 1.2"/><path fill="none" stroke="#963C00" stroke-width=".05" stroke-linecap="round" stroke-linejoin="round" d="M20.6 41.15l-2.35-1.05-1.25-.75v-.05l-1.2-1.15-.25-.35q-.8-1.25-.2-2.95l1.8-6.15q.5-1.55.4-3.25v-1.2l1.1-1.45 1.15-.85m3.1-.6l-1.7.05m2.15 0l2.9.6q1.6.45 2 2l.25 1.75-.3 4.8q-.25 1.75-.9 3.1-.7 1.4-1.25 2.95l-1.2 2.95q-.6 1.25-1.6 1.6l-.2.05-1.55.1-.9-.15m-.55-19.35l1.15-.4m-4.15 17.85l-.05.1"/><path fill="none" stroke="#820000" stroke-width=".05" stroke-linecap="round" stroke-linejoin="round" d="M25.15 40.7q-.7 1.05-1.8 1.75-2.1 1.35-4.65.45l-.45-.15-3.5-2.05-1.4-1.9q-.5-.75-.05-1.4m8.4-18.65l1.1.1 3.55 1.3 2.05.45q1.15.4 1.75 1.35l.85 1.7.45 1.25Q30 26.35 29.2 28.5q-.6 1.4-.65 3.2-.15 1.8-.85 3.4l-2.55 5.6M21.7 18.75l-2.55.05-1.9.4-.6.4-.2 1.45.2 3.35-.4.35L13.3 37.4"/><path fill="none" stroke="#6EA86E" stroke-width=".05" stroke-linecap="round" stroke-linejoin="round" d="M18.25 42.75l-3.75 1.7M9.4 43.2l5.35-2.5"/><path fill="none" stroke="#595" stroke-width=".05" stroke-linecap="round" stroke-linejoin="round" d="M10.95 31.9L7 34.5q-1.5.7-3.15.7m3.25-4.75l3.2-2.25"/><path fill="none" stroke="#82B482" stroke-width=".05" stroke-linecap="round" stroke-linejoin="round" d="M11.35 21.05l-.75-.1-1.1.3-3.15-.05q-1.4-.75-2.2-2.05-.9-1.4-1.35-3l-.95-2.55M5.2 8.95q1.5.3 1.65 1.75l.2 3.3Q7 15.75 8.1 16.95q1.15 1.25 2.95 1m.05 0l.35-.05"/><path fill="none" stroke="#479047" stroke-width=".05" stroke-linecap="round" stroke-linejoin="round" d="M40.8 5.15q-.45 1.15-1.6 1.75-1.45.7-2.95 1.35-1.6.65-2.35 2.15l-.5 1.15m4.35 3.35h.35q1.75.25 3.25-.65l1.2-.8-1.15 2.2Q40.7 17 39 16.8l-.4-.05m1.85 4.6l.35.2q1.55.75 2.5 2.1t1 3.05q0 1.6-.9 2.85-1.05 1.3-2.65 1.8l-3.15.35-.5-.05m-21.55-19.5l-.55-1q-.55-1.05-1.95-1.25-1.2-.25-1.55-1.35-.3-.8-.25-1.75l1.35 1.45.7.4 2.9.65 1.05.6m5.35-.8l-1.8-1.9Q19.45 6 18.1 5.75q-1.9-.35-1.55-2.05m3.55-.65q.95.7 1.25 1.9.3 1.3 1.9 2.1 1.25.6 2.15 1.85m4.55.8q.5-.5 1.3-.8 1.55-.65 2.25-1.85.7-1.25.4-3.1-.2-1.1-.1-2.3m5.9 22.45l.6.65q.8 1.45-.65 2l-1.2.5"/><path fill="none" stroke="#4A924A" stroke-width=".05" stroke-linecap="round" stroke-linejoin="round" d="M30.35 39.3q.9 1.4 2.4 2 .7.3 1.45 0l1.3-.7m2 1.75l-1.9 1.35-3.3.75q-1.75 0-3.15-.9-1.45-.95-1.8-2.65l-.05-.35"/><path fill="none" stroke="#5F246C" stroke-width=".05" stroke-linecap="round" stroke-linejoin="round" d="M33.05 35.05l-2.7 4.25-3.05 1.25m-.05 0l-2.1.15"/><path fill="none" stroke="#9D3B0A" stroke-width=".05" stroke-linecap="round" stroke-linejoin="round" d="M34.8 32.2l-1.75 2.85"/><path fill="none" stroke="#6D1F5E" stroke-width=".05" stroke-linecap="round" stroke-linejoin="round" d="M36.15 12.95l1.6 1.95.85 1.85.55 1.25.8 1.4q.55.9.5 1.95l-.75 2.75-1.3 1.85-.2 1.15"/><path fill="none" stroke="#BD040E" stroke-width=".05" stroke-linecap="round" stroke-linejoin="round" d="M33.4 11.55l2.75 1.4M18.85 9.4l3.75-.3h2.95l4.4.6.4.15m.15.1l2.9 1.6"/><path fill="none" stroke="#562775" stroke-width=".05" stroke-linecap="round" stroke-linejoin="round" d="M14.95 13.9l.15-.5m0-.1l.45-1.15m1.7-2.25q.65-.4 1.6-.5m-1.6.5l-1.7 2.25"/><path fill="none" stroke="#BF7F5F" stroke-width=".05" stroke-linecap="round" stroke-linejoin="round" d="M11.55 25.15l.15-.25-.35-3.85.1-3.15q.35-1 1.45-1.5 1.5-.75 2.05-2.5m-3.1 11.6l-.15-.6"/><path fill="none" stroke="#339" stroke-width=".05" stroke-linecap="round" stroke-linejoin="round" d="M13.3 37.4q-.75-.65-.75-1.9l-.1-.9m-1-1.95l-.5-.75m-.65-3.7l1.25-3.05M10.3 28.2l.65 3.7"/><path fill="none" stroke="#BC7957" stroke-width=".05" stroke-linecap="round" stroke-linejoin="round" d="M12.45 34.6l-1-1.95"/></svg>