<svg xmlns="http://www.w3.org/2000/svg" viewBox="0 0.7 49.3 48.4" width="49.3" height="48.4"><defs><radialGradient gradientUnits="userSpaceOnUse" r="819.2" cx="0" cy="0" spreadMethod="pad" gradientTransform="matrix(-.005 0 0 .005 13.55 7.1)" id="a"><stop offset=".2" stop-color="#cf0"/><stop offset=".588" stop-color="#c00"/><stop offset=".808" stop-color="#6f0"/><stop offset="1" stop-color="#600"/></radialGradient><radialGradient gradientUnits="userSpaceOnUse" r="819.2" cx="0" cy="0" spreadMethod="pad" gradientTransform="matrix(-.005 0 0 .005 13.55 7.1)" id="b"><stop offset="0" stop-color="#f00"/><stop offset="1"/></radialGradient><radialGradient gradientUnits="userSpaceOnUse" r="819.2" cx="0" cy="0" spreadMethod="pad" gradientTransform="matrix(-.019 0 0 .021 7.8 13.05)" id="c"><stop offset=".2" stop-color="#cf0"/><stop offset=".588" stop-color="#c00"/><stop offset=".808" stop-color="#6f0"/><stop offset="1" stop-color="#600"/></radialGradient><radialGradient gradientUnits="userSpaceOnUse" r="819.2" cx="0" cy="0" spreadMethod="pad" gradientTransform="matrix(-.005 0 0 .005 17.8 5)" id="d"><stop offset=".2" stop-color="#cf0"/><stop offset=".588" stop-color="#c00"/><stop offset=".808" stop-color="#6f0"/><stop offset="1" stop-color="#600"/></radialGradient><radialGradient gradientUnits="userSpaceOnUse" r="819.2" cx="0" cy="0" spreadMethod="pad" gradientTransform="matrix(-.005 0 0 .005 17.8 5)" id="e"><stop offset="0" stop-color="#f00"/><stop offset="1"/></radialGradient><radialGradient gradientUnits="userSpaceOnUse" r="819.2" cx="0" cy="0" spreadMethod="pad" gradientTransform="matrix(-.006 0 0 .007 22.15 4.75)" id="f"><stop offset="0" stop-color="#f00"/><stop offset="1"/></radialGradient><radialGradient gradientUnits="userSpaceOnUse" r="819.2" cx="0" cy="0" spreadMethod="pad" gradientTransform="matrix(-.006 0 0 .007 22.15 4.75)" id="g"><stop offset=".2" stop-color="#cf0"/><stop offset=".588" stop-color="#c00"/><stop offset=".808" stop-color="#6f0"/><stop offset="1" stop-color="#600"/></radialGradient><radialGradient gradientUnits="userSpaceOnUse" r="819.2" cx="0" cy="0" spreadMethod="pad" gradientTransform="matrix(-.003 0 0 .003 21.05 24.7)" id="h"><stop offset="0" stop-color="#f00"/><stop offset="1"/></radialGradient><radialGradient gradientUnits="userSpaceOnUse" r="819.2" cx="0" cy="0" spreadMethod="pad" gradientTransform="matrix(-.012 0 0 .013 26 27.65)" id="i"><stop offset=".2" stop-color="#cf0"/><stop offset=".588" stop-color="#c00"/><stop offset=".808" stop-color="#6f0"/><stop offset="1" stop-color="#600"/></radialGradient><radialGradient gradientUnits="userSpaceOnUse" r="819.2" cx="0" cy="0" spreadMethod="pad" gradientTransform="matrix(-.01 0 0 .011 28.9 24.9)" id="j"><stop offset=".2" stop-color="#cf0"/><stop offset=".588" stop-color="#c00"/><stop offset=".808" stop-color="#6f0"/><stop offset="1" stop-color="#600"/></radialGradient><radialGradient gradientUnits="userSpaceOnUse" r="819.2" cx="0" cy="0" spreadMethod="pad" gradientTransform="matrix(-.008 0 0 .008 3.85 31.2)" id="k"><stop offset="0" stop-color="#f00"/><stop offset="1"/></radialGradient><radialGradient gradientUnits="userSpaceOnUse" r="819.2" cx="0" cy="0" spreadMethod="pad" gradientTransform="matrix(-.013 0 0 .014 11.25 44.4)" id="l"><stop offset="0" stop-color="#f00"/><stop offset="1"/></radialGradient><linearGradient gradientUnits="userSpaceOnUse" x1="-819.2" x2="819.2" gradientTransform="matrix(-.004 -.001 -.001 .006 11.6 32.25)" id="m"><stop offset=".149" stop-color="#600"/><stop offset=".588" stop-color="#c00"/><stop offset=".808" stop-color="#fff"/><stop offset="1" stop-color="#600"/></linearGradient><radialGradient gradientUnits="userSpaceOnUse" r="819.2" cx="0" cy="0" spreadMethod="pad" gradientTransform="matrix(-.005 0 0 .005 7.5 31.4)" id="n"><stop offset="0" stop-color="#f00"/><stop offset="1"/></radialGradient><radialGradient gradientUnits="userSpaceOnUse" r="819.2" cx="0" cy="0" spreadMethod="pad" gradientTransform="matrix(-.002 0 0 .002 11.75 33.3)" id="o"><stop offset="0" stop-color="#f00"/><stop offset="1"/></radialGradient><radialGradient gradientUnits="userSpaceOnUse" r="819.2" cx="0" cy="0" spreadMethod="pad" gradientTransform="matrix(-.023 0 0 .025 10.3 33.4)" id="p"><stop offset=".2" stop-color="#cf0"/><stop offset=".588" stop-color="#c00"/><stop offset=".808" stop-color="#6f0"/><stop offset="1" stop-color="#600"/></radialGradient><radialGradient gradientUnits="userSpaceOnUse" r="819.2" cx="0" cy="0" spreadMethod="pad" gradientTransform="matrix(-.003 0 0 .003 11.65 35.5)" id="q"><stop offset="0" stop-color="#f00"/><stop offset="1"/></radialGradient><radialGradient gradientUnits="userSpaceOnUse" r="819.2" cx="0" cy="0" spreadMethod="pad" gradientTransform="matrix(-.001 0 0 .002 13.35 34.8)" id="r"><stop offset="0" stop-color="#f00"/><stop offset="1"/></radialGradient><linearGradient gradientUnits="userSpaceOnUse" x1="-819.2" x2="819.2" gradientTransform="matrix(-.003 -.001 -.002 .006 16.65 33.75)" id="s"><stop offset=".149" stop-color="#600"/><stop offset=".588" stop-color="#c00"/><stop offset=".808" stop-color="#fff"/><stop offset="1" stop-color="#600"/></linearGradient><radialGradient gradientUnits="userSpaceOnUse" r="819.2" cx="0" cy="0" spreadMethod="pad" gradientTransform="matrix(-.003 0 0 .003 16 27.8)" id="t"><stop offset="0" stop-color="#f00"/><stop offset="1"/></radialGradient><radialGradient gradientUnits="userSpaceOnUse" r="819.2" cx="0" cy="0" spreadMethod="pad" gradientTransform="matrix(-.008 0 0 .008 21.65 38.35)" id="u"><stop offset="0" stop-color="#f00"/><stop offset="1"/></radialGradient><radialGradient gradientUnits="userSpaceOnUse" r="819.2" cx="0" cy="0" spreadMethod="pad" gradientTransform="matrix(-.007 0 0 .008 19.6 43.85)" id="v"><stop offset="0" stop-color="#f00"/><stop offset="1"/></radialGradient><radialGradient gradientUnits="userSpaceOnUse" r="819.2" cx="0" cy="0" spreadMethod="pad" gradientTransform="matrix(-.003 0 0 .003 22.75 40.1)" id="w"><stop offset="0" stop-color="#f00"/><stop offset="1"/></radialGradient><radialGradient gradientUnits="userSpaceOnUse" r="819.2" cx="0" cy="0" spreadMethod="pad" gradientTransform="matrix(-.006 0 0 .007 28.1 5.75)" id="x"><stop offset="0" stop-color="#f00"/><stop offset="1"/></radialGradient><radialGradient gradientUnits="userSpaceOnUse" r="819.2" cx="0" cy="0" spreadMethod="pad" gradientTransform="matrix(-.006 0 0 .007 28.1 5.75)" id="y"><stop offset=".2" stop-color="#cf0"/><stop offset=".588" stop-color="#c00"/><stop offset=".808" stop-color="#6f0"/><stop offset="1" stop-color="#600"/></radialGradient><radialGradient gradientUnits="userSpaceOnUse" r="819.2" cx="0" cy="0" spreadMethod="pad" gradientTransform="matrix(-.006 0 0 .007 32.95 9.95)" id="z"><stop offset=".2" stop-color="#cf0"/><stop offset=".588" stop-color="#c00"/><stop offset=".808" stop-color="#6f0"/><stop offset="1" stop-color="#600"/></radialGradient><radialGradient gradientUnits="userSpaceOnUse" r="819.2" cx="0" cy="0" spreadMethod="pad" gradientTransform="matrix(-.006 0 0 .007 32.95 9.95)" id="A"><stop offset="0" stop-color="#f00"/><stop offset="1"/></radialGradient><radialGradient gradientUnits="userSpaceOnUse" r="819.2" cx="0" cy="0" spreadMethod="pad" gradientTransform="matrix(-.007 0 0 .007 32.75 16.35)" id="B"><stop offset="0" stop-color="#f00"/><stop offset="1"/></radialGradient><radialGradient gradientUnits="userSpaceOnUse" r="819.2" cx="0" cy="0" spreadMethod="pad" gradientTransform="matrix(-.008 0 0 .008 31.85 20.4)" id="C"><stop offset="0" stop-color="#f00"/><stop offset="1"/></radialGradient><radialGradient gradientUnits="userSpaceOnUse" r="819.2" cx="0" cy="0" spreadMethod="pad" gradientTransform="matrix(-.008 0 0 .008 31.85 20.4)" id="D"><stop offset=".2" stop-color="#cf0"/><stop offset=".588" stop-color="#c00"/><stop offset=".808" stop-color="#6f0"/><stop offset="1" stop-color="#600"/></radialGradient><radialGradient gradientUnits="userSpaceOnUse" r="819.2" cx="0" cy="0" spreadMethod="pad" gradientTransform="matrix(-.007 0 0 .007 32.75 16.35)" id="E"><stop offset=".2" stop-color="#cf0"/><stop offset=".588" stop-color="#c00"/><stop offset=".808" stop-color="#6f0"/><stop offset="1" stop-color="#600"/></radialGradient><radialGradient gradientUnits="userSpaceOnUse" r="819.2" cx="0" cy="0" spreadMethod="pad" gradientTransform="matrix(-.01 0 0 .011 28.9 24.9)" id="F"><stop offset="0" stop-color="#f00"/><stop offset="1"/></radialGradient><radialGradient gradientUnits="userSpaceOnUse" r="819.2" cx="0" cy="0" spreadMethod="pad" gradientTransform="matrix(-.012 0 0 .013 26 27.65)" id="G"><stop offset="0" stop-color="#fff"/><stop offset="1"/></radialGradient><radialGradient gradientUnits="userSpaceOnUse" r="819.2" cx="0" cy="0" spreadMethod="pad" gradientTransform="matrix(-.012 0 0 .013 26 27.65)" id="H"><stop offset="0" stop-color="#f00"/><stop offset="1"/></radialGradient><radialGradient gradientUnits="userSpaceOnUse" r="819.2" cx="0" cy="0" spreadMethod="pad" gradientTransform="matrix(-.008 0 0 .009 38.4 27.65)" id="I"><stop offset="0" stop-color="#f00"/><stop offset="1"/></radialGradient><radialGradient gradientUnits="userSpaceOnUse" r="819.2" cx="0" cy="0" spreadMethod="pad" gradientTransform="matrix(-.009 0 0 .01 38.2 34.05)" id="J"><stop offset="0" stop-color="#f00"/><stop offset="1"/></radialGradient><radialGradient gradientUnits="userSpaceOnUse" r="819.2" cx="0" cy="0" spreadMethod="pad" gradientTransform="matrix(-.006 0 0 .007 30.05 37.15)" id="K"><stop offset="0" stop-color="#f00"/><stop offset="1"/></radialGradient><radialGradient gradientUnits="userSpaceOnUse" r="819.2" cx="0" cy="0" spreadMethod="pad" gradientTransform="matrix(-.009 0 0 .01 42.85 30.4)" id="L"><stop offset="0" stop-color="#f00"/><stop offset="1"/></radialGradient><radialGradient gradientUnits="userSpaceOnUse" r="819.2" cx="0" cy="0" spreadMethod="pad" gradientTransform="matrix(-.009 0 0 .01 39.55 36.5)" id="M"><stop offset="0" stop-color="#f00"/><stop offset="1"/></radialGradient><radialGradient gradientUnits="userSpaceOnUse" r="819.2" cx="0" cy="0" spreadMethod="pad" gradientTransform="matrix(-.005 0 0 .005 32.15 40.35)" id="N"><stop offset="0" stop-color="#f00"/><stop offset="1"/></radialGradient></defs><path d="M38.6 26.3l.65-1.25h1.4l3.45.55q-1.85-.05-3.1 1.25l-2.35-.55h-.05m7.1 4.55l2.1 2.6.9.75.6.3-1.9.05.55 2.05.5 4.5v.3l.1 1 .05.25.25 3.9q-.65-1.35-1.15-3.1l-.75-2.65v-.1l-.1-.3-.3-1.75-.1-4.1H45.3l-.3-.05.2-.8.15-.4.35-2.45m-8.3 2.05l1.6-.8.8-.35 1.25.25q1.1.65 1.7 1.9l.4.5q-1.35-.9-3.2-.65l-.25.15-.95-.6L38 33l-.6-.1m5.25 4.7l3 3.1q-.9-.6-2.05-.65L45 43.4l.2.9.05.05v.05l.6 4.65-.8-2.55-.7-1.6-1.25-2.05q-.7-1.1-.85-2.25l-.05-.4-.45.2-.7.15 1.05-1.65.05-.05.5-1.25m-11.9-1.3l1.75.75.8 1.85.05.15-1.65-.9-.9-.2q.5-.75-.05-1.6v-.05m2.3 4.05l1.4 1.95.1.2-1.05-.4.15.25q.45.8.55 1.75l.05.35-.05 1.2-.6 1.3-1.35 2.1.65-1.65.4-1.7v-.75l-.15-.9-.05-.05-.65-2.1-.55-.05q.8-.6 1.15-1.5m-8.2-2.15l.65.7.65.9q.75 1.1.65 2.5-.35-2.05-2.1-2.15h-.05l.3-.95-.1-1m-9.7 8.9q-.7.5-1.3.65l-3.3.45-2.2-.05-1.25-.45-1.75-1.3 1.75.75 2.35.4 1.35-.2.95-.35 2.1-1.35.45.8.85.65m-7.1-3.45l-.85-.1h-.05Q6 43.7 5.5 44.7v-.9l-.4.2q-1.25.85-1.35 2.35-.3-1.25-.1-2.25l-1.2 1.45-.25.45q-.25.95.2 1.2-1.05-.3-1.45-1.45-.4-1.15-.1-2.4l.25-.9q1.7-.95 3.6-.4l3.5 1.25-.15.35M5.4 35.7l-1.7 2.15q.5-1 .25-2.3l-.7-2 .05.4v1.85l-.45-1.55-.05 2.7Q1.9 36.3 1.5 35l-.35-1.9-.85-2.2-.25-1.05H.7q1.05-.05 1.75.6l.2.2Q3.7 31.8 4.5 33.8l.8 1.75.1.15m8.65-21.35q.25 1.5.95 2.75l.65.95q2.8 3.4 6.55 1.75-2.15 1.95-4.75 3.15-1.3.6-2.45.6-1.6 0-3-1.05-2.55-1.8-4.6-4.35-2.3-2.85-2.2-6.7.05-2.4.9-4.35Q7.3 4.3 10 2.9q2.55-1.35 5-2.2-1.6.8-2.9 2.4-1.7 2.15-1.45 4.2L9.7 9.15l-.4 1.65-.2 4.3q-.1 2.2 1.25 3.85 1.35 1.6 2.95 2.35l1.5.5 2.2.1.6-.2q-1.55-.95-2.85-2.45l-.5-.65q-1.15-1.5-.4-3.7l.2-.55m28.15 25.4v.45-.45m1.4.3l-.2-.3.2.3m3.6-5.9l.2.4h-.95.95l-.2-.4m-5 6.05l1-.15-1 .15M1.15 33.1L2 34.65l.25-2.2.55 1.6.05.2-.05-.2-.55-1.6-.25 2.2-.85-1.55m31.3 8.8l1.05.2-1.05-.2"/><path fill="url(#a)" d="M16.3 6.45v.25q-.2 1.2-.85 1.9l-.8.75-1.55-.85q-1.05-.8-1.15-1.95L12.4 6l1.7-1.75q.85-.65 1.65-.9v.45l.3 1.95.25.7"/><path fill="url(#b)" d="M14.65 9.35l-.85.8-.35.2-.55.05-1.1-.45q-.6-.4-.7-.95v-.15l.15-.85.7-1.45q.1 1.15 1.15 1.95l1.55.85"/><path fill="url(#c)" d="M13.45 10.35q.55.75.5 1.95l.1 2.05-.2.55q-.75 2.2.4 3.7l.5.65q1.3 1.5 2.85 2.45l-.6.2-2.2-.1-1.5-.5q-1.6-.75-2.95-2.35Q9 17.3 9.1 15.1l.2-4.3.4-1.65.95-1.85q.05.8.45 1.55V9q.1.55.7.95l1.1.45.55-.05"/><path fill="url(#d)" d="M21.35 5.95q-.35.45-1.2.65l-1.85.35-.85-.95q-1.05-1.6-.1-3.4l.05-.05 1.55-.15q1.3-.25 2.25.4l-.15.65.05 1.15.25 1.3v.05"/><path fill="url(#e)" d="M18.3 6.95l-.55.1q-.9.1-1.35-.45l-.1-.15-.25-.7-.3-1.95v-.45q.05-.8.8-.8h.85l-.05.05q-.95 1.8.1 3.4l.85.95"/><path fill="url(#f)" d="M22.6 6.3l-.6.05q-.5.05-.65-.35v-.1l-.25-1.3-.05-1.15.15-.65.1-.15q.45-.55 1.4-.5l1.4.1-1.15 1.8-.1.2q-.5 1.15-.25 2.05"/><path fill="url(#g)" d="M22.6 6.3q-.25-.9.25-2.05l.1-.2 1.15-1.8h1.05q1.4.05 2.05 1.1l-.6.75q-.55.75-.75 1.65l-.1.45-1.4.2-1.75-.1"/><path fill="url(#h)" d="M20.9 26.55l-.25-.65q-.35-1.2-.35-2.7l1.35.05 1.1.2-.25 1.05-.5-.05q-.95 0-.75.8.2.9-.3 1.3h-.05"/><path fill="url(#i)" d="M20.7 26.7l.2-.1.05-.05q.5-.4.3-1.3-.2-.8.75-.8l.5.05 4.65.1 1.95.5q1.6.5 2.25 2.1l.3 1.75v.8l-.1.15-.65.9q-1.25 1.35-3.05 1.25.05-1.45-.6-2.55-.7-1.35-2.15-2.05-.8-.45-1.75-.45l-2.4-.25-.25-.05"/><path fill="url(#j)" d="M22.75 23.45l.55-1.2q.7-1 1.85-1.45l2.4-.4h.05l2.25.5 1.85 1.3 1.5 1.9.05.1.25.3.4.5.25.65q.4 1.25-.45 2.6l-1.05 1.1-1 .5v-.9l-.3-1.75q-.65-1.6-2.25-2.1l-1.95-.5-4.65-.1.25-1.05"/><path fill="url(#k)" d="M6.35 33.45l-.3.9-.6 1.3-.05.05-.1-.15-.8-1.75q-.8-2-1.85-3.15l-.2-.2q-.7-.65-1.75-.6H.05L0 28.9l.2-1.2.45-.75q.85-.9 1.95-1.25l1.95.2q.7.4 1.05 1.45l.1.2.05.7.5 1.05q.35 1.25.3 2.6l-.2 1.55m-1.25-5.9l.65.7-.65-.7"/><path fill="url(#l)" d="M17.7 45.4v.35q-.05.9-.95 1.3l-1.5.1-.1-.05-.85-.65-.45-.8-.05-.1-.7-.5q-.5-.15-.9.3-.75.8-2 .65l-.35-.1q-.75-.25-1.05-1.05l-.05-.15-.7-1.05.15-.35-3.5-1.25q-1.9-.55-3.6.4L2 41.1l.8-.75 1.1-.7 2.25-1.1 2.25-.4.95.05 1.35.25 2 1.15.4.4.8 1.3.05.15.15.3.15 1.05q0 1.05.75 1.65l.05.05.8.15.4.2 1.45.55"/><path fill="url(#m)" d="M12.95 34.25l-.25-.2h-.05l-.4-.3q-.75-.6-.85-1.55l-1.15 1.95-.45 1.4-.1 1.7-.8-1.65-.4-1.7-.05-.9q-.1-1.1.15-2.1l.2-.55.6-1.25.55-.8q.8-.9 1.8-1.1l.4.35 1.8 3.2.75 1.05-.7 2.35h-.1q-.35.4-.8.2l-.15-.1M11.4 31.6v.6-.6"/><path fill="url(#n)" d="M8.5 33.9l-1.65-.3-.5-.15.2-1.55q.05-1.35-.3-2.6l-.5-1.05-.05-.7q1.1.25 1.55 1.6h.05q.45 1.2 1.3 1.75-.25 1-.15 2.1l.05.9"/><path fill="url(#o)" d="M11.2 34.15h-.95l1.15-1.95q.1.95.85 1.55l.4.3-.2.05-1.25.05"/><path fill="url(#p)" d="M28.15 34.65l.65.3-.1.05-.55.35-2 .8-.95.1q-.6 0-1.15-.4v.05q-.6.55-1.35.65l-.05.05-1.1-.85-.5-.6-1.15.2q-.9.35-.4 1.15l.25.5-1.3.35-.9-.1q-1.15-.3-2-.95l.75-1 2.1.15q.9-.5.8-1.8v-.3q.4-1.05.4-2.25.05-1.5-.6-2.35l-1.55.05-1.1.4q-1 .55-1.4 1.85l-.25.75-.75-1.05.1-.05q.25-1.15 1.25-1.65l.1-.05 2.1-1.05q-.15-.2-.5-.25l1-.55.3-.15q1.05-.6 2.25-.35l.1.05h.05l.25.05 2.4.25q.95 0 1.75.45 1.45.7 2.15 2.05.65 1.1.6 2.55l-.05 1.6q0 .6.3.95l.05.05m-3.45-3.2q.65.9.45 2.05t-.8 2q.6-.85.8-2 .2-1.15-.45-2.05m-.35 4.05l-.15.2-.15.15.15-.15.15-.2"/><path fill="url(#q)" d="M12.65 34.05q-.1 1.15-.55 1.85-.6 1-.5 2.3l-.4-4.05 1.25-.05.2-.05"/><path fill="url(#r)" d="M13.7 36.05l-.35-.1q-1.2-.45-.4-1.7l.15.1q.45.2.8-.2h.1l-.3 1.9"/><path fill="url(#s)" d="M13.7 36.05l.3-1.9.7-2.35.25-.75q.4-1.3 1.4-1.85l1.1-.4 1.55-.05q.65.85.6 2.35 0 1.2-.4 2.25v.3q.1 1.3-.8 1.8l-2.1-.15-.75 1-1.7 2.5-.15-2.75m3.4-1.7l-.8.95.8-.95"/><path fill="url(#t)" d="M15.3 29l-.1-1.5q-.15-1.85 1.3-1.1l1.5.75-1 .55q.35.05.5.25L15.4 29h-.1"/><path fill="url(#u)" d="M22.65 36.6h.05l1.85 1.3.3.3.1 1-.3.95h-.05l-.45-.05-2.2-.15q-.85-.1-1.4-.55l-.3-.3q-.4-.5-.35-1.15l-.15-.95-.25-.5q-.5-.8.4-1.15l1.15-.2.5.6 1.1.85"/><path fill="url(#v)" d="M22.65 41.2q-.15.8-1 1.45h1.55l-1.75 1.05q2.1.2 4.05 0l-.75.4-4.35 1.85q-1.2.4-2.35-.35l-.35-.2-1.45-.55-.4-.2q-.15-.25.25-.6l1.7-1.8v-.05q.45-.55 1-.8l1.8-1.3.85.75.85.3.35.05"/><path fill="url(#w)" d="M22.65 41.2l-.35-.05-.85-.3-.85-.75-.15-.25q-.15-.3.1-.45.55.45 1.4.55l2.2.15q-.45 1.25-1.5 1.1"/><path fill="url(#x)" d="M27.2 7.5l-.35-.05q-1.15-.2-1.1-1.25l.1-.45q.2-.9.75-1.65l.6-.75L28 3l2.3.45 2.1 1.3-2.1.75-.1.05-3 1.95"/><path fill="url(#y)" d="M27.2 7.5l3-1.95.1-.05 2.1-.75q1 .75.75 2.2l-.95.15q-.25.15-.55.25l-1.1.65-3.35-.5"/><path fill="url(#z)" d="M32.25 14.75q-.8-.9-.95-2.05l-.2-1.85q0-.85-.6-1.45-.4-.4-.5-.9l.55-.5 1.1-.65 1.25 1.1 2.5 4.5.2 1-.35.2-.15-.05-.85-.05-.5.1-1.3.45-.2.15"/><path fill="url(#A)" d="M33.15 6.95l1.35.4q1.15.6 1.65 1.75l1 2.3q.6 1.5-.4 2.05l-.2-.15q-.5-.35-1.15-.35l-2.5-4.5-1.25-1.1q.3-.1.55-.25l.95-.15"/><path fill="url(#B)" d="M36.75 13.45q.65.55.95 1.45l.15.4q.35 1.35 0 2.6l-.3.95-.75 1.3-1.05.1-.65-.4h-.05l-.65-.6q.45-1.45.3-3.25-.05-1.15-.45-1.95l.85.05.15.05.35-.2-.2-1q.65 0 1.15.35l.2.15"/><path fill="url(#C)" d="M36.8 20.15l.4-.25.3-.25.25-.15q.4.65.35 1.6-.05 1.35-.8 2.5l-1.15 1.25q-.4.25-.85.45l-.8.25v-.05l-.6-.5-.4-.5-.25-.3q.95-.75 1.7-1.9.65-1 .8-2.05l1.05-.1"/><path fill="url(#D)" d="M27.6 20.4q.35-1.35 1.4-2.2.7-.55 1.7-.6h.5l1.5.45.65.4 1.05.8.65.6h.05l.65.4q-.15 1.05-.8 2.05-.75 1.15-1.7 1.9l-.05-.1-1.5-1.9-1.85-1.3-2.25-.5"/><path fill="url(#E)" d="M30.7 17.6q.25-2 1.55-2.85l.2-.15 1.3-.45.5-.1q.4.8.45 1.95.15 1.8-.3 3.25l-1.05-.8-.65-.4-1.5-.45h-.5"/><path fill="url(#F)" d="M34.5 25.55l.1.05.3.2.9.2 1-.2q.25 1.4-.55 2.95l-1.05 1.5-.2.25-.45.45q-.6.55-1.45.75l-.45.1h-.05l-.45-.5q-.4-.6-.5-1.45l1-.5 1.05-1.1q.85-1.35.45-2.6L33.9 25l.6.5v.05"/><path fill="url(#G)" d="M31.55 29.9l.1-.15v.1l-.1.05"/><path fill="url(#H)" d="M31.55 29.9l.1-.05q.1.85.5 1.45l.45.5h.05l.25.15q.9.35 1.8 0l-.4.4-.1.1-1.35 1.1-.5.35-1.7.7-.45.1-2.05-.05-.05-.05q-.3-.35-.3-.95l.05-1.6q1.8.1 3.05-1.25l.65-.9m-3.2 4.15l-.25.55.25-.55"/><path fill="url(#I)" d="M41 26.85l-.1.15-1.35 1.75-4.45 3.2-.8.4.4-.4q-.9.35-1.8 0l-.25-.15.45-.1q.85-.2 1.45-.75l.45-.45.2-.25 1.45-1.4L38.1 27l.45-.7h.1l2.35.55"/><path fill="url(#J)" d="M32.85 33.55l2.75-.15 1.25-.3.55-.2.6.1.75.3.95.6-.05.05-.85.75v.05q-.45.5-1.1.7l-.15.05-2.55.05-3.7-.75-.65-.2 1.7-.7.5-.35"/><path fill="url(#K)" d="M28.15 35.35l2.15.75.3.15.15.05v.05q.55.85.05 1.6L29 37.9h-.05l-1.4-.2-1.8-.95-.55-.5.95-.1 2-.8"/><path fill="url(#L)" d="M40.9 27l4.8 3.85-.35 2.45-.15.4-.2.8q-.4-.05-.65-.3-.5-.5-.4-1.3-.5-1.2-1.45-1.9l-1.75-1.25-.1-.05-1.1-.95L40.9 27"/><path fill="url(#M)" d="M39.65 33.95l1.3 1.9 1.7 1.75-.5 1.25-.05.05-1.05 1.65-.85-.3q-.55-.45-.45-1.4.1-.6-.25-1.05l-1.8-2.35q.65-.2 1.1-.7v-.05l.85-.75"/><path fill="url(#N)" d="M31.7 38.15l.9 1.55.2.25.25.4q-.35.9-1.15 1.5h-.85q-1.15.05-1.55-.9l-.2-1.15-.05-1.6-.25-.3 1.8.05.9.2"/><path fill="none" stroke="#B00000" stroke-width=".05" stroke-linecap="round" stroke-miterlimit="3" d="M41 26.85l-.1.15 4.8 3.85 2.1 2.6.9.75.6.3-1.9.05-.2-.4m-.75.4H45.3l-.3-.05q-.4-.05-.65-.3-.5-.5-.4-1.3-.5-1.2-1.45-1.9l-1.75-1.25-.1-.05-1.1-.95-4.45 3.2-.8.4v.05l-.1.05-1.35 1.1 2.75-.15 1.25-.3.55-.2 1.6-.8.8-.35 1.25.25q1.1.65 1.7 1.9l.4.5q-1.35-.9-3.2-.65l-.25.15-.05.05 1.3 1.9 1.7 1.75 3 3.1q-.9-.6-2.05-.65m-1.4.15l-.45.2-.7.15-.85-.3q-.55-.45-.45-1.4.1-.6-.25-1.05l-1.8-2.35-.15.05-2.55.05-3.7-.75-.65-.2-.45.1-2.05-.05-.05-.05.25-.55m.45.9l-.1.05m-.55.35l2.15.75.3.15m.15.05l1.75.75.8 1.85m.05.15l-1.65-.9.9 1.55.2.25.25.4 1.4 1.95.1.2-1.05-.4-1.05-.2-.55-.05h-.85q-1.15.05-1.55-.9l-.2-1.15-.05-1.6-.25-.3h-.05l-1.4-.2-1.8-.95-.55-.5m-1.15-.4v.05m-1.35.65l-.05.05h.05l1.85 1.3.3.3.65.7.65.9q.75 1.1.65 2.5-.35-2.05-2.1-2.15m-.1 0l-.45-.05q-.45 1.25-1.5 1.1-.15.8-1 1.45h1.55l-1.75 1.05q2.1.2 4.05 0l-.75.4-4.35 1.85q-1.2.4-2.35-.35l-.35-.2v.35q-.05.9-.95 1.3l-1.5.1-.1-.05m-1.3-1.45l-.05-.1-.7-.5q-.5-.15-.9.3-.75.8-2 .65l-.35-.1q-.75-.25-1.05-1.05l-.05-.15-.7-1.05m-6.95-1.2L2 41.1l.8-.75 1.1-.7 2.25-1.1 2.25-.4.95.05 1.35.25 2 1.15.4.4.8 1.3.05.15.15.3.15 1.05q0 1.05.75 1.65l.05.05.8.15q-.15-.25.25-.6l1.7-1.8v-.05q.45-.55 1-.8l1.8-1.3-.15-.25q-.15-.3.1-.45l-.3-.3q-.4-.5-.35-1.15l-.15-.95-1.3.35-.9-.1q-1.15-.3-2-.95l-1.7 2.5m-.15-2.75l-.35-.1q-1.2-.45-.4-1.7l-.25-.2h-.05q-.1 1.15-.55 1.85-.6 1-.5 2.3l-.4-4.05h-.95l-.45 1.4-.1 1.7M8.5 33.9l-1.65-.3-.5-.15-.3.9-.6 1.3-.05.05-1.7 2.15q.5-1 .25-2.3l-.7-2 .05.4v1.85l-.45-1.55-.05 2.7Q1.9 36.3 1.5 35l-.35-1.9-.85-2.2-.25-1.05L0 28.9l.2-1.2.45-.75q.85-.9 1.95-1.25l1.95.2q.7.4 1.05 1.45l.1.2q1.1.25 1.55 1.6h.05q.45 1.2 1.3 1.75l.2-.55.6-1.25.55-.8m1.8-1.1l.4.35 1.8 3.2m.1-.05q.25-1.15 1.25-1.65V29l-.1-1.5q-.15-1.85 1.3-1.1l1.5.75.3-.15q1.05-.6 2.25-.35h.1l.05.05.2-.1v-.05l-.25-.65q-.35-1.2-.35-2.7l1.35.05 1.1.2m2.4-2.65l2.4-.4h.05q.35-1.35 1.4-2.2.7-.55 1.7-.6m.6-4.9l-.2-1.85q0-.85-.6-1.45-.4-.4-.5-.9l.55-.5 1.1-.65q.3-.1.55-.25l.95-.15 1.35.4q1.15.6 1.65 1.75l1 2.3q.6 1.5-.4 2.05.65.55.95 1.45l.15.4q.35 1.35 0 2.6l-.3.95-.75 1.3.4-.25.3-.25.25-.15q.4.65.35 1.6-.05 1.35-.8 2.5l-1.15 1.25q-.4.25-.85.45l-.8.25.1.05.3.2.9.2 1-.2q.25 1.4-.55 2.95l-1.05 1.5 1.45-1.4L38.1 27l.45-.7h.05M27.2 7.5l-.35-.05q-1.15-.2-1.1-1.25l-1.4.2m-1.75-.1l-.6.05q-.5.05-.65-.35v-.1l-.25-1.3-.05-1.15.15-.65.1-.15q.45-.55 1.4-.5l1.4.1h1.05m-5 4.35l-1.85.35-.55.1q-.9.1-1.35-.45l-.1-.15v.25q-.2 1.2-.85 1.9l-.8.75-.85.8-.35.2m-2.35-1.5l.15-.85.7-1.45m3.8-3.2q.05-.8.8-.8h.85l1.55-.15m8.25.95L28 3l2.3.45 2.1 1.3m14.05 29.8h.95m-4 5.2l.2.3m-1.4.15v-.45m1 .3l-1 .15m-6.8-27.25q.65 0 1.15.35l.2.15m-11-7.25l.1-.45q.2-.9.75-1.65l.6-.75M22.5 24.5l-.5-.05q-.95 0-.75.8.2.9-.3 1.3l-.05.05m12.3-2.5l.05.1.25.3m2.25-4.25l-.65-.4h-.05l-.65-.6m-3.2-1.65h-.5m4.7-4.65l.2 1-.35.2-.15-.05-.85-.05-.5.1m-1.3.45l-.2.15M33.9 25l.6.5v.05m1.25-5.3l1.05-.1M15.75 3.35v.45l.3 1.95.25.7M15.4 29l-.1.05m-.35 2l-.25.75-.7 2.35-.3 1.9m4.3-8.9l-1 .55q.35.05.5.25L15.4 29m.9 6.3l2.1.15q.9-.5.8-1.8v-.3q.4-1.05.4-2.25.05-1.5-.6-2.35l-1.55.05m-4.8 5.25l-.4-.3q-.75-.6-.85-1.55l-1.15 1.95m1.15-1.95v-.6m1.25 2.45l-.2.05-1.25.05m2.7 0q-.35.4-.8.2l-.15-.1m2.6 2.05l.75-1 .8-.95M19.75 37l-.25-.5q-.5-.8.4-1.15l1.15-.2.5.6 1.1.85m-7.95-4.8l-.75-1.05m-7.6 2.7l.2-1.55q.05-1.35-.3-2.6l-.5-1.05-.65-.7m.65.7l-.05-.7m-2.85 6.7l-.05-.2-.55-1.6-.25 2.2-.85-1.55m7.45-2.2q-.25 1-.15 2.1l.05.9m7.35 10.75l.4.2 1.45.55m13.95-15.55q.1.85.5 1.45l.45.5h.05l.45-.1q.85-.2 1.45-.75l.45-.45.2-.25m-3.55-.5v-.8l-.3-1.75m.3 2.65v-.1m1 2.05l.25.15q.9.35 1.8 0l-.4.4-.1.1m-1.35 1.1l-.5.35-1.7.7m.15 3.35l.9.2m6-2.7q.65-.2 1.1-.7v-.05l.85-.75m-18.7-7.2l-.25-.05h-.05l-.1-.05m3.6 13.45l-2.2-.15q-.85-.1-1.4-.55m.05.7l.85.75.85.3.35.05m8.15-3.25L29 37.9m10.55-9.15L40.9 27"/><path fill="none" stroke="#a70" stroke-width=".05" stroke-linecap="round" stroke-miterlimit="3" d="M13.45 10.35q.55.75.5 1.95l.1 2.05m-3.4-7.05q.05.8.45 1.55m2.35 1.5l-.55.05-1.1-.45q-.6-.4-.7-.95v-.15"/><path fill="none" stroke="#665300" stroke-width=".05" stroke-linecap="round" stroke-miterlimit="3" d="M28.15 34.65l.65.3m-.1.05l-.55.35m-2.95.9q-.6 0-1.15-.4m0 .05q-.6.55-1.35.65m.05-13.1l.55-1.2q.7-1 1.85-1.45m7.1-6.05q-.8-.9-.95-2.05m-9.95-6.75q-.35.45-1.2.65M14.1 4.25q.85-.65 1.65-.9m3.2-.95q1.3-.25 2.25.4m3.95-.55q1.4.05 2.05 1.1m5.2 1.4q1 .75.75 2.2M22.5 24.5l.25-1.05m5.1 8.6l-.05 1.6q0 .6.3.95m-.25-2.55q.05-1.45-.6-2.55-.7-1.35-2.15-2.05-.8-.45-1.75-.45l-2.4-.25m4.25 9.5l.95-.1 2-.8"/><path fill="none" stroke="#66AB00" stroke-width=".05" stroke-linecap="round" stroke-miterlimit="3" d="M24.35 35.5q.6-.85.8-2 .2-1.15-.45-2.05"/><path fill="none" stroke="#66A100" stroke-width=".05" stroke-linecap="round" stroke-miterlimit="3" d="M24.05 35.85l.15-.15.15-.2"/><path fill="none" stroke="#DF5F5F" stroke-width=".05" stroke-linecap="round" stroke-miterlimit="3" d="M13.85 38.8l-.15-2.75m-4 1.2l-.8-1.65-.4-1.7m1.45-5.6q.8-.9 1.8-1.1m5.7 1.6l-1.1.4q-1 .55-1.4 1.85"/><path fill="none" stroke="#CC6900" stroke-width=".05" stroke-linecap="round" stroke-miterlimit="3" d="M30.7 17.6q.25-2 1.55-2.85M27.6 20.4l2.25.5 1.85 1.3 1.5 1.9m1.2-4.85l-1.05-.8-.65-.4-1.5-.45m.15 9.6q-.65-1.6-2.25-2.1l-1.95-.5-4.65-.1m11.25-10.35l-1.3.45"/><path fill="none" stroke="#CC5F00" stroke-width=".05" stroke-linecap="round" stroke-miterlimit="3" d="M30.55 8l-3.35-.5m-2.85-1.1l-1.75-.1m-10.65.25L12.4 6l1.7-1.75"/></svg>