<svg xmlns="http://www.w3.org/2000/svg" viewBox="0 0 33.9 34.8" width="33.9" height="34.8"><path fill="#ff0" d="M20.9 2.2l-.85-1.05q-.6.25-.95.75l-.5.7q-.75-1.15-1.6-.95-.85.15-1.55.45l-1.1-.1q1.3-.15 1.8-1.45L16.3 0q.7 1.4 2.65 1.15.75-.1 1.3-.55l.55-.45q-.4 1.15.95 2.9l-.85-.85M27 9.9l.2.1q-.8.65-1.05 1.4l-.05.3q-.1.5.1 1-.6.4-1.85.45l.7-1.05-.65.05.45-.35.65-.65.05-.05.2-.5.15-.35q-.95-.55-.65-1l.35-.8.45.6-.1-.4-.55-.75q1.1.7 1.15 1.6l.45.4M14.5 8.65l3.55 1.95q-2.6-1.15-3.6-1.35l-1.5-.1-.7.05-.4.15-.65-.25-1.5.2-1.25.45q-.3.1-.65-.3l-.4-.6q-.55-1.1-1.75-.75l-2 .75-.7.5-.45.65-.1.1-.55.8-.2.2-.1-.35-.8-2.8L0 6.5l1.5 1.4 3.8-.2q.9-.55 1.3-1.45.1 1.1 1.3 1.9l.05.05 1.75.45 2.05-.05.85-.4.7-.65.15.3 1.05.8m-1.2 4.7l.9.55q.6.45 1.05-.1l.85.6 1.1.25q-.6.4-1.05.9l-.5.55.05-.5q-.15-.35-.7-.75l-1.15.35q-.1-.95-.9-1.3l-1.05-.15-1.1.05.1-.4.15-.9q.05-.65-.25-.5l.7-.75q-.4.95.35 1.55.6.5 1.3.55h.15M5.45 15.2l.95-1.25q-.4 1.05.9 1.1l-.05.4-.8.2-.45.15q-.3.2-.45.55l-.2.45-1.15 1q-.9.55-.65 1.25l.95 1.85.35.5q.65.7 1.6.7-.15.9.5 1.6l.25.2.6.4 1.15.7-.1.15q-1.2-.55-2.5-.6H5.2v-.05q.35-1.4-.6-2.9l-.7-.85L.15 16.9q1.3 1.1 2.9.7l1.25-.8 1.15-1.6m14.5 11.85l.55-.5-.3.7q-.25.6-.2 1.3V30q-.55-1.45-1.5-.5l-.15.15q-.5.6-.3 1.4l.4 1.2-.35-.6q-.5.1-.7.45l-.45.75-1.25 1.95-.35-.65q-.6-1.75-2.25-1.35l-.2-.9-.3-1.25q1.25 1.05 2.75 1.9l1.2.1.45-1.2q.25-.95-.95-1.6 1.55-.6 1.25-1.95l.4.35.25-.05q1.1-.45 2-1.15m6.5-.75l.6 2.1-.1.1q-.5-.85-.95-.45l-.6.75-.2-.5q.6-.4.6-2.05v-.65l-.15-2.95q.8.7.95-.15l.05-.4-.1-2.45v-.35l-.3-2.35-.1-.5h.1l.05.4.25 1.3.4 1.6.85 1.95-.3.55-.2.3q-.65 1-1.1 2.95l.25.8m4.65-5.15l-.5-.65h.95q.4 0 .8.3.65-1.85-.4-2.65L29.4 18q0-1.6-.55-2.95l1.5 1.85.5.4 2.1-.4v.65l.15 2q.1.75.8 1.3l-.85.1-.35.15q-.45.3-.4.85.05.65.45.9-.95 0-1.5.7l.15-1-.1-.85-.2-.55M11 7.7l-.1-.2.15.2H11"/><path fill="#f00" d="M25.5 11.15l-.65.65-.45.35.65-.05-.7 1.05q1.25-.05 1.85-.45-.2-.5-.1-1l.05-.3q.25-.75 1.05-1.4l-.2-.1 2.4-2 1.05-.8q-.65 1.1-.9 2.4l-.3 1.8-.05.9v.75l-.2.6-2.7 3.3-.05-.4h-.1l.1.5L24.9 18l-2.4.95q-.2.05-.25.4-.15 1.05.2 1.85l.2.45 1.05 1.55 2.1 2.4v.65q0 1.65-.6 2.05l.2.5.6-.75q.45-.4.95.45l.1-.1-.6-2.1 1.4 1.6q1 1.15 2.4 1.8l.85.35-.55.15q-.3.6.35.85l.9.55-2.05-.5-4.55-1.35-2.05-.35q-.65-.05-1.2-.6l-1.4-1.3-.35-.25.3-.7-.55.5q-1.45-.95-3.1-1.55-.75-.25-.95-.9-.4-1.3-1.05-.35l-.1.15-1.9 1.35q-1.25.75-2.7 1.2-2.1.7-3.95 1.65-.9.45-1.3 1-.8 1-2 1.3l-1.65.25.65-.45.8-.8-.9-.2q.3-1.35 1.1-2.3.7-.85 1.75-1.6l1.7-1.25q1.3.05 2.5.6l.1-.15-1.15-.7-.6-.4 1.65-1.2q1.2-1.1.9-2.9-.1-.55-.8-.7l-.65-.8L6 15.8l.45-.15.8-.2.05-.4Q6 15 6.4 13.95l-.95 1.25-2.4-2.3q-1.1-1-1.7-2.35l.2.2.1.35.2-.2.45.2.1-1 .1-.1.45-.65.4.3L7 11.9l2.1.9h.05l1.75.6-.1.4 1.1-.05.15.05.85.1h.05q.8.35.9 1.3l1.15-.35q.55.4.7.75l-2.4.3q-1.6.1-2.7.6l-.1.05q-.15.3-.15.7l.05.55-.05-.55q0-.4.15-.7l-.1.7v.55q.35 1.5 1.35 2.5l1.55 1.35.55.35 1.2.45.75.05h.1q.9-.05 1.55-.7l1.05-1.25.8-1 1.55-2.05.65-.95 1-1.2-1 1.2.25-.4.45-.5.3-.3h-3.85l-2.25.15-.25.05q.45-.5 1.05-.9l-1.1-.25-.85-.6q-.45.55-1.05.1l-.9-.55.8-1.8.05-.35.3-1.95q1 .2 3.6 1.35L14.5 8.65v-.3q.1-1.45.85-2.7.75-1.3 1.95-2.25.4-.3.95-.45l-.05.55-.3.7-.2.6.5-.15.45-.35-.2 1.75-.2 2.1q-.15 1 .8.85l.3.35.3 1.5.05.8.35 1.65q.25.95 1.35.9l.2-.7q.35-1.4 2.05-1.65l1.85-.7"/><path fill="#600" d="M25.5 11.15l-1.85.7q-1.7.25-2.05 1.65l-.2.7q-1.1.05-1.35-.9l-.35-1.65 1.3-.45 3.5-.8h.6l.65.2-.2.5-.05.05m-11.4.4l-.8 1.8h-.15q-.7-.05-1.3-.55-.75-.6-.35-1.55l-.7.75q.3-.15.25.5l-.15.9-1.75-.6H9.1q-.4-1.05-1.15-2.05-.4-.55-.25-1l.1-.3q.35.4.65.3L9.7 9.3l1.5-.2.65.25.4-.15 1.85 2.35m7.4 5l-.65.95-1.55 2.05-.8 1-.05-.3-.05-.05-.05-.4-1.45 1.5-.35-.25q-1.2-.75-2-1.9l2.15.35.65.15-1.4-1.2.15-.2 1-.2-.25.8 1.05-.95.35-.05-.2-.1 2-1.85-.9 2.25.7-.45 1.65-1.15M13.85 22l-.55-.35-1.55-1.35q-1-1-1.35-2.5l.6.8 1.2 1.25-.25-1.8v-.8q.05-.4.35-.55l.1.3q.35 1.2 1.2 2.2l.05.15-1.3-.75-.1-.95q0-.35.15-.65-.15.3-.15.65l.1.95.15.55.9 1.5.05.1q.05.7.4 1.25m-.9-8.1h-.05l-.85-.1-.15-.05 1.05.15M8.3 18.3l.65.8q.7.15.8.7.3 1.8-.9 2.9l-1.9 1q-.65-.7-.5-1.6-.95 0-1.6-.7l1.75-1.65q.75-.85 1.7-1.45m6.55 5.95q.65-.95 1.05.35.2.65.95.9 1.65.6 3.1 1.55-.9.7-2 1.15l-.25.05-2.85-4m5.35 3l.35.25.85 2.35q.35.8 1 1.4l-1.05-.55q-.8-.5-1.6-.5l.25.8q-.9-.65-1.5-1.5.95-.95 1.5.5v-1.45q-.05-.7.2-1.3m2.45-5.6l-.2-.45q-.35-.8-.2-1.85.05-.35.25-.4l2.4-.95q.55.2 1.1.55l.2.3q-.3.55.35.8l.1 2.45-.05.4-.95-.2-2.85-.6-.15-.05m6.55-9.45l.05-.9h1.85l-1.1.5-.8.4m-2.25 7.55l3.65.8-.45.25-.25.3 1.2.05.2.55-.2.1-2.65.75H27.3l.2-.3.3-.55-.85-1.95M11 7.7h.05l-.15-.2.1.2M9.2 3.85l.1.7q.3 1.2 1.1 2.25l1.35 1.8-2.05.05-1.75-.45-.1-3.7q-.05-.8.05-1.6l.25.8q.1.55.75.5l.3-.35m-4 20.65l-.95.3-2.5.1.05-.75-1 .35-.6.3.7-1.05q.6-.8 1.8-1.05l1.3-.6.6-.5q.95 1.5.6 2.9m11.45-7.05l.25-.3.3-.1v.5l-.55-.1m3.2.25l-.6 1.1-.8 1.4h-.05.05l.8-1.4.6-1.1m-5.45 3.5l-.45-.75 1.7.7.75.3h.05l-.25.55-1.8-.8m4.05-1v.05-.05"/><path fill="#fff" d="M16.15 15.55l.25-.05 2.25-.15h3.85l-.3.3-.45.5-.25.4-1.65 1.15-.7.45.9-2.25-2 1.85-.15.15-1.05.95.25-.8.1-.5v-.8l-.3.4-.25.3-.55.8-.15.2-.35.5-1.05-2-.1.65-.4 2.15-.45-.55q-.85-1-1.2-2.2l-.1-.3q-.3.15-.35.55v.8l.25 1.8L11 18.6l-.6-.8v-.55l.1-.7.1-.05q1.1-.5 2.7-.6l2.4-.3-.05.5.5-.55m2.35 5l-1.05 1.25q-.65.65-1.55.7h-.1l-.75-.05-1.2-.45q-.35-.55-.4-1.25v-.2l.95.65 1.8.8.25-.55.1-.4q-.05.3.05.4h.05l.25-.15 1.45-1.5.05.4.05.05.05.3"/><path fill="none" stroke="#CA0000" stroke-width=".05" stroke-linecap="round" stroke-miterlimit="3" d="M25.5 11.15l-1.85.7q-1.7.25-2.05 1.65l-.2.7q-1.1.05-1.35-.9l-.35-1.65-.05-.8-.3-1.5-.3-.35q-.95.15-.8-.85l.2-2.1.2-1.75-.45.35-.5.15.2-.6.3-.7.05-.55q-.55.15-.95.45-1.2.95-1.95 2.25-.75 1.25-.85 2.7v.3m-.05.6l-.3 1.95-.05.35-.8 1.8m3.1 2.15l2.25-.15h3.85m-1 1.2l-.65.95-1.55 2.05-.8 1-1.05 1.25q-.65.65-1.55.7m-.1 0l-.75-.05-1.2-.45-.55-.35-1.55-1.35q-1-1-1.35-2.5m.2-1.3q1.1-.5 2.7-.6l2.4-.3m-2.75-1.7h-.05l-.85-.1-.15-.05m-1-.35l-1.75-.6H9.1L7 11.9 3.35 9.65l-.4-.3m-.55.75l-.1 1-.45-.2m-.3-.15l-.2-.2q.6 1.35 1.7 2.35l2.4 2.3m.55.6l2.3 2.5.65.8q.7.15.8.7.3 1.8-.9 2.9L7.2 23.9m-.85.65l-1.7 1.25q-1.05.75-1.75 1.6-.8.95-1.1 2.3l.9.2-.8.8-.65.45 1.65-.25q1.2-.3 2-1.3.4-.55 1.3-1 1.85-.95 3.95-1.65 1.45-.45 2.7-1.2l1.9-1.35.1-.15q.65-.95 1.05.35.2.65.95.9 1.65.6 3.1 1.55m.25.2l.35.25 1.4 1.3q.55.55 1.2.6l2.05.35 4.55 1.35 2.05.5-.9-.55q-.65-.25-.35-.85l.55-.15-.85-.35q-1.4-.65-2.4-1.8l-1.4-1.6m-.65-.7l-2.1-2.4-1.05-1.55-.2-.45q-.35-.8-.2-1.85.05-.35.25-.4l2.4-.95 1.35-1.05m.05-.1l2.7-3.3.2-.6v-.75l.05-.9.3-1.8q.25-1.3.9-2.4l-1.05.8-2.4 2m-5.5 6.65l.25-.4m.9 5.5l.15.05M7.8 9.45l-.1.3M8.9 4.2l.3-.35M.8 24.5l-.6.3m6.75-1.1l1.9-1"/><path fill="none" stroke="#510000" stroke-width=".05" stroke-linecap="round" stroke-miterlimit="3" d="M19.7 11.65l1.3-.45 3.5-.8h.6l.65.2m3.5.7h1.85l-1.1.5-.8.4m-2.25 7.55l3.65.8-.45.25-.25.3 1.2.05m.2.55l-.2.1-2.65.75H27.3m-4.5-.85l2.85.6.95.2m-.05-2.85q-.65-.25-.35-.8l-.2-.3q-.55-.35-1.1-.55M9.2 3.85l.1.7q.3 1.2 1.1 2.25l1.35 1.8M7.7 9.75q-.15.45.25 1 .75 1 1.15 2.05m5-1.25L12.25 9.2m-4.3-1l-.1-3.7q-.05-.8.05-1.6l.25.8q.1.55.75.5M4.85 21.4l1.75-1.65q.75-.85 1.7-1.45m-3.1 6.2l-.95.3-2.5.1.05-.75-1 .35m-.6.3l.7-1.05q.6-.8 1.8-1.05l1.3-.6.6-.5m13.1 6.65l-2.85-4m3.65 5.25q.6.85 1.5 1.5l-.25-.8q.8 0 1.6.5l1.05.55q-.65-.6-1-1.4l-.85-2.35"/><path fill="none" stroke="#FF6F6F" stroke-width=".05" stroke-linecap="round" stroke-miterlimit="3" d="M16.15 15.55l.25-.05m6.1-.15l-1 1.2m-5.6 5.95h-.1m-5.4-4.7l-.05-.55q0-.4.15-.7l.1-.05m11.15-.35l.45-.5.3-.3m-6.55 3.1l.15-.2.55-.8.25-.3.3-.4v.8l-.1.5-.25.8 1.05-.95.15-.15 2-1.85-.9 2.25.7-.45 1.65-1.15m-4.3 1l-.55-.1m.25-.3l.3-.1m-1.1 1.2l1-.2m.8-.15l.35-.05-.2-.1m-7.65.05l.6.8 1.2 1.25-.25-1.8v-.8q.05-.4.35-.55l.1.3q.35 1.2 1.2 2.2l.45.55.4-2.15.1-.65 1.05 2 .35-.5 1.4 1.2-.65-.15-2.15-.35q.8 1.15 2 1.9l.35.25 1.45-1.5.05.4h.05l.8-1.4.6-1.1m-9.35-1.15l-.1.7v.55m2-.8q-.15.3-.15.65l.1.95 1.3.75-.05-.15m.8 2l-.45-.75 1.7.7.75.3h.05l.1-.4q-.05.3.05.4h.05l.25-.15m-3.45-.55v-.2l.95.65 1.8.8.25-.55m-4.1-2.85l.15.55.9 1.5.05.1q.05.7.4 1.25m4.65-1.45l-.05-.3-.05-.05m.05.05v-.05"/></svg>