<svg xmlns="http://www.w3.org/2000/svg" viewBox="0 -0.1 100.1 108.5" width="100.1" height="108.5"><defs><linearGradient gradientUnits="userSpaceOnUse" x1="-819.2" x2="819.2" gradientTransform="matrix(.032 0 0 .018 42.25 14.45)" id="a"><stop offset="0" stop-color="#2F2F00"/><stop offset=".239" stop-color="#EAEAEA"/><stop offset=".765" stop-color="#660"/><stop offset="1"/></linearGradient><linearGradient gradientUnits="userSpaceOnUse" x1="-819.2" x2="819.2" spreadMethod="repeat" gradientTransform="matrix(-.001 -.007 .008 -.001 65.7 17.8)" id="b"><stop offset="0" stop-color="#2F2F00"/><stop offset=".239" stop-color="#EAEAEA"/><stop offset=".765" stop-color="#600"/><stop offset="1"/></linearGradient><linearGradient gradientUnits="userSpaceOnUse" x1="-819.2" x2="819.2" gradientTransform="matrix(.008 -.002 .002 .008 71.4 30.65)" id="c"><stop offset="0" stop-color="#2F2F00"/><stop offset=".239" stop-color="#EAEAEA"/><stop offset=".765" stop-color="#660"/><stop offset="1"/></linearGradient><linearGradient gradientUnits="userSpaceOnUse" x1="-819.2" x2="819.2" gradientTransform="matrix(.01 -.002 .002 .008 71.6 22.75)" id="d"><stop offset="0" stop-color="#2F2F00"/><stop offset=".239" stop-color="#EAEAEA"/><stop offset=".765" stop-color="#660"/><stop offset="1"/></linearGradient><linearGradient gradientUnits="userSpaceOnUse" x1="-819.2" x2="819.2" gradientTransform="matrix(.005 -.004 .006 .009 81.35 42.95)" id="e"><stop offset="0" stop-color="#2F2F00"/><stop offset=".239" stop-color="#EAEAEA"/><stop offset=".765" stop-color="#660"/><stop offset="1"/></linearGradient><linearGradient gradientUnits="userSpaceOnUse" x1="-819.2" x2="819.2" gradientTransform="matrix(.01 0 0 .008 55.85 23.65)" id="f"><stop offset="0" stop-color="#2F2F00"/><stop offset=".239" stop-color="#EAEAEA"/><stop offset=".765" stop-color="#660"/><stop offset="1"/></linearGradient><linearGradient gradientUnits="userSpaceOnUse" x1="-819.2" x2="819.2" gradientTransform="matrix(.01 0 0 .009 55.5 33.6)" id="g"><stop offset="0" stop-color="#2F2F00"/><stop offset=".239" stop-color="#EAEAEA"/><stop offset=".765" stop-color="#660"/><stop offset="1"/></linearGradient><linearGradient gradientUnits="userSpaceOnUse" x1="-819.2" x2="819.2" gradientTransform="matrix(.003 -.002 .01 .018 61.75 52.85)" id="h"><stop offset="0" stop-color="#2F2F00"/><stop offset=".239" stop-color="#EAEAEA"/><stop offset=".765" stop-color="#660"/><stop offset="1"/></linearGradient><linearGradient gradientUnits="userSpaceOnUse" x1="-819.2" x2="819.2" gradientTransform="matrix(.006 -.003 .006 .014 63.55 49.15)" id="i"><stop offset="0" stop-color="#2F2F00"/><stop offset=".239" stop-color="#EAEAEA"/><stop offset=".765" stop-color="#660"/><stop offset="1"/></linearGradient><linearGradient gradientUnits="userSpaceOnUse" x1="-819.2" x2="819.2" gradientTransform="matrix(.01 -.002 .003 .02 60.8 56.1)" id="j"><stop offset="0" stop-color="#2F2F00"/><stop offset=".239" stop-color="#EAEAEA"/><stop offset=".765" stop-color="#660"/><stop offset="1"/></linearGradient><linearGradient gradientUnits="userSpaceOnUse" x1="-819.2" x2="819.2" gradientTransform="matrix(.004 0 0 .007 48.25 46.25)" id="k"><stop offset="0" stop-color="#2F2F00"/><stop offset=".239" stop-color="#EAEAEA"/><stop offset=".765" stop-color="#660"/><stop offset="1"/></linearGradient><linearGradient gradientUnits="userSpaceOnUse" x1="-819.2" x2="819.2" gradientTransform="matrix(.014 -.002 .005 .033 88.65 69.35)" id="l"><stop offset="0" stop-color="#2F2F00"/><stop offset=".239" stop-color="#EAEAEA"/><stop offset=".765" stop-color="#900"/><stop offset="1"/></linearGradient><linearGradient gradientUnits="userSpaceOnUse" x1="-819.2" x2="819.2" gradientTransform="matrix(.009 -.002 .006 .029 79.5 67.05)" id="m"><stop offset="0" stop-color="#2F2F00"/><stop offset=".239" stop-color="#EAEAEA"/><stop offset=".765" stop-color="#900"/><stop offset="1"/></linearGradient><linearGradient gradientUnits="userSpaceOnUse" x1="-819.2" x2="819.2" gradientTransform="matrix(.01 0 0 .006 61.1 64.8)" id="n"><stop offset="0" stop-color="#2F2F00"/><stop offset=".239" stop-color="#EAEAEA"/><stop offset=".765" stop-color="#660"/><stop offset="1"/></linearGradient><linearGradient gradientUnits="userSpaceOnUse" x1="-819.2" x2="819.2" gradientTransform="matrix(.008 0 0 .01 59.15 69.6)" id="o"><stop offset="0" stop-color="#2F2F00"/><stop offset=".239" stop-color="#EAEAEA"/><stop offset=".765" stop-color="#660"/><stop offset="1"/></linearGradient><linearGradient gradientUnits="userSpaceOnUse" x1="-819.2" x2="819.2" gradientTransform="matrix(.01 -.002 .002 .008 69.55 88.25)" id="p"><stop offset="0" stop-color="#2F2F00"/><stop offset=".239" stop-color="#EAEAEA"/><stop offset=".765" stop-color="#660"/><stop offset="1"/></linearGradient><linearGradient gradientUnits="userSpaceOnUse" x1="-819.2" x2="819.2" gradientTransform="matrix(.004 -.008 .005 .003 21.95 22.05)" id="q"><stop offset="0" stop-color="#2F2F00"/><stop offset=".239" stop-color="#EAEAEA"/><stop offset=".765" stop-color="#600"/><stop offset="1"/></linearGradient><linearGradient gradientUnits="userSpaceOnUse" x1="-819.2" x2="819.2" gradientTransform="matrix(.011 0 0 .011 34.9 22.65)" id="r"><stop offset="0" stop-color="#2F2F00"/><stop offset=".239" stop-color="#EAEAEA"/><stop offset=".765" stop-color="#660"/><stop offset="1"/></linearGradient><linearGradient gradientUnits="userSpaceOnUse" x1="-819.2" x2="819.2" gradientTransform="matrix(.001 0 0 .002 32.6 16.8)" id="s"><stop offset="0" stop-color="#2F2F00"/><stop offset=".239" stop-color="#EAEAEA"/><stop offset=".765" stop-color="#660"/><stop offset="1"/></linearGradient><linearGradient gradientUnits="userSpaceOnUse" x1="-819.2" x2="819.2" gradientTransform="matrix(.007 0 0 .005 26.65 26.8)" id="t"><stop offset="0" stop-color="#2F2F00"/><stop offset=".239" stop-color="#EAEAEA"/><stop offset=".765" stop-color="#660"/><stop offset="1"/></linearGradient><linearGradient gradientUnits="userSpaceOnUse" x1="-819.2" x2="819.2" gradientTransform="matrix(.008 .006 -.017 .023 5.8 59.6)" id="u"><stop offset="0" stop-color="#2F2F00"/><stop offset=".239" stop-color="#EAEAEA"/><stop offset=".765" stop-color="#900"/><stop offset="1"/></linearGradient><linearGradient gradientUnits="userSpaceOnUse" x1="-819.2" x2="819.2" gradientTransform="matrix(.007 .003 -.003 .007 19 43.3)" id="v"><stop offset="0" stop-color="#2F2F00"/><stop offset=".239" stop-color="#EAEAEA"/><stop offset=".765" stop-color="#660"/><stop offset="1"/></linearGradient><linearGradient gradientUnits="userSpaceOnUse" x1="-819.2" x2="819.2" gradientTransform="matrix(.007 .002 -.006 .026 12.8 62.6)" id="w"><stop offset="0" stop-color="#2F2F00"/><stop offset=".239" stop-color="#EAEAEA"/><stop offset=".765" stop-color="#900"/><stop offset="1"/></linearGradient><linearGradient gradientUnits="userSpaceOnUse" x1="-819.2" x2="819.2" gradientTransform="matrix(.009 0 0 .009 37.1 36.7)" id="x"><stop offset="0" stop-color="#2F2F00"/><stop offset=".239" stop-color="#EAEAEA"/><stop offset=".765" stop-color="#660"/><stop offset="1"/></linearGradient><linearGradient gradientUnits="userSpaceOnUse" x1="-819.2" x2="819.2" gradientTransform="matrix(.005 0 0 .007 24.5 35.8)" id="y"><stop offset="0" stop-color="#2F2F00"/><stop offset=".239" stop-color="#EAEAEA"/><stop offset=".765" stop-color="#660"/><stop offset="1"/></linearGradient><linearGradient gradientUnits="userSpaceOnUse" x1="-819.2" x2="819.2" gradientTransform="matrix(.007 .002 -.004 .01 32.8 47.8)" id="z"><stop offset="0" stop-color="#2F2F00"/><stop offset=".239" stop-color="#EAEAEA"/><stop offset=".765" stop-color="#660"/><stop offset="1"/></linearGradient><linearGradient gradientUnits="userSpaceOnUse" x1="-819.2" x2="819.2" gradientTransform="matrix(.009 .002 -.005 .017 32.7 54.75)" id="A"><stop offset="0" stop-color="#2F2F00"/><stop offset=".239" stop-color="#EAEAEA"/><stop offset=".765" stop-color="#660"/><stop offset="1"/></linearGradient><linearGradient gradientUnits="userSpaceOnUse" x1="-819.2" x2="819.2" gradientTransform="matrix(.006 0 0 .011 41.75 48.6)" id="B"><stop offset="0" stop-color="#2F2F00"/><stop offset=".239" stop-color="#EAEAEA"/><stop offset=".765" stop-color="#660"/><stop offset="1"/></linearGradient><linearGradient gradientUnits="userSpaceOnUse" x1="-819.2" x2="819.2" gradientTransform="matrix(.008 0 0 .008 41.25 65.85)" id="C"><stop offset="0" stop-color="#2F2F00"/><stop offset=".239" stop-color="#EAEAEA"/><stop offset=".765" stop-color="#660"/><stop offset="1"/></linearGradient><linearGradient gradientUnits="userSpaceOnUse" x1="-819.2" x2="819.2" gradientTransform="matrix(.008 0 0 .005 34.95 64.3)" id="D"><stop offset="0" stop-color="#2F2F00"/><stop offset=".239" stop-color="#EAEAEA"/><stop offset=".765" stop-color="#660"/><stop offset="1"/></linearGradient><linearGradient gradientUnits="userSpaceOnUse" x1="-819.2" x2="819.2" gradientTransform="matrix(.009 .002 -.002 .009 32.1 82.45)" id="E"><stop offset="0" stop-color="#2F2F00"/><stop offset=".239" stop-color="#EAEAEA"/><stop offset=".765" stop-color="#660"/><stop offset="1"/></linearGradient><linearGradient gradientUnits="userSpaceOnUse" x1="-819.2" x2="819.2" gradientTransform="matrix(.006 0 0 .013 69.9 98)" id="F"><stop offset="0" stop-color="#2F2F00"/><stop offset=".239" stop-color="#EAEAEA"/><stop offset="1"/></linearGradient><linearGradient gradientUnits="userSpaceOnUse" x1="-819.2" x2="819.2" gradientTransform="matrix(.01 0 0 .007 83.05 93.85)" id="G"><stop offset="0" stop-color="#2F2F00"/><stop offset=".239" stop-color="#EAEAEA"/><stop offset="1"/></linearGradient><linearGradient gradientUnits="userSpaceOnUse" x1="-819.2" x2="819.2" gradientTransform="matrix(.007 0 0 .008 20.7 87.1)" id="H"><stop offset="0" stop-color="#2F2F00"/><stop offset=".239" stop-color="#EAEAEA"/><stop offset="1"/></linearGradient><linearGradient gradientUnits="userSpaceOnUse" x1="-819.2" x2="819.2" gradientTransform="matrix(.004 0 0 .01 30.85 91.1)" id="I"><stop offset="0" stop-color="#2F2F00"/><stop offset=".239" stop-color="#EAEAEA"/><stop offset="1"/></linearGradient></defs><path d="M78.2 35.3l-8-.9-1.5 4.2-.95-1 .4-2.9V34q3.85-1.55 8.45-1.4l1.25.05v1.25q-.05.8.35 1.4m-18 47.65l.2-1.5q.15-1.7-.15-3.2l5.7-.65.25.65q.85 2.45 2.4 4.05v.25l-2.1-.1-6.3.5m-19-10.85l-.4 2-.05 1.65-8.8-.2 2.95-3.35 6.3-.1m9.2-57.3l-.4.2-.05.05-.85.65-.6.6-.4.7-.25.65q-2.65 2.3-3 5.6-.45 3.9 3.15 5.65l.3.1.45.9-1.1.35-.05.05h1.15l-.05.45-.8.9-.8.8q-1.45 1.65-1.15 4.35l.85 7.05v.1l-.6.55-.1-.05-.1-.05.05-.6-.1-1.55-.45-1.35-.4-1.1-.35-2.8q-.5-4.95 2.05-6.4l-.05-.05-1.3-1.55-1.65-1.45L45.45 29l-1.65 1.3q-2.1 1.15-5.55 1-3.45-.15-5.8 1.8L31 31.95l-.3-.35 1.3-.65q3.35-1.3 7.4-.75l2.6-.05q1.7-.55 1.8-2.6l-.35-.3q-1.85-1.45-3.1-3.3l-.05-.1.95-2.1q1.85-3.25 4.85-5.65l1.75-1.9.05-.05.05-.1V14v.05l-.05.1-.05.05-1.75 1.9q-3 2.4-4.85 5.65l-.95 2.1-.05-.05.7-2.35q.8-2.65 1.95-5.05 1.2-2.45 3.05-4.65l1.15-1.15q2.3-2.2 5.4-3.2l11.9-3.75-4.95 2.9L53.2 9.4Q49.6 11 47.95 14q1.3.15 2.35.75l.1.05M63.6.25Q59.55 2.4 54.95 3l-7.55.5q-5.85.15-9.15 3.95-1.3 1.5-3.75-.25-3.65-2.55-4.55-6.6l.85.15 10.3.45 14.5-1 8 .05M48.75 29.9q3.65-1.1 7.55-1.05 2.35.05 3.85-.95l.7-.55.35.2 1.2.7-.55.55-4.5 1.05-8.6.45v-.4M15.3 37.05q1.15-.95 2.7-1.4l2.15-.95 1.5-.05 5.5.6-.25.7q-.45 1.3.05 3.1l.6 2.9-.05.2-2.05 2-.1-1.7q-.2-2.15-1.1-3.9l-.95-1.45-.45-.05q-4.1-.3-7.55 0"/><path fill="#f00" d="M48.05 5.3l.1.1-1 .75-5.2 5.05-2.65 2.3-.2.4-.15 9.4-.25-.1-2.4-9.4-.25-.35q-2.15-2.2-4.9-4.25L29.1 7.3v-.05q1.2.75 2.55 1.15 1.45.4 2.65 1.4 1.2.95 2.7 1.3l1.2.4q.8 0 1.55-.55l8.3-5.65"/><path fill="url(#a)" d="M48.05 5.3l-8.3 5.65q-.75.55-1.55.55l-1.2-.4q-1.5-.35-2.7-1.3-1.2-1-2.65-1.4Q30.3 8 29.1 7.25l-.5-.3.5.35 2.05 1.9q2.75 2.05 4.9 4.25l.25.35 2.4 9.4.1 1.25.15-1.15.15-9.4.2-.4 2.65-2.3 5.2-5.05 1-.75 1.35-1-1.45.9M63.6.25l5.1.3-1.5 1.95-1 .25q-.45.5-1.5.8l-.3.1L52.5 7.4q-3.1 1-5.4 3.2l-1.15 1.15q-1.85 2.2-3.05 4.65-1.15 2.4-1.95 5.05l-.7 2.35v.25l-1.45 4.9-1.2-3.15-3.75-7.25-1.55-3.4-.45-1.35-.3-1.5q-.8-2.15-3.4-3.4-3.35-1.65-6.2-4T15.8.7q6-1.45 14.15-.1.9 4.05 4.55 6.6 2.45 1.75 3.75.25 3.3-3.8 9.15-3.95l7.55-.5q4.6-.6 8.65-2.75M50.05 4l-.55.4.55-.4m-22.4 2.45l.95.5-.95-.5"/><path fill="url(#b)" d="M78.85 9.55q-1.15 1.75-3 2.8-2.3 1.3-4.8 2.1-2.1.6-3.85 2l-2 1.85q-2 2.25-4.75 3l-1.7.4-5.4.35q-2.2-.1-3.45-1.15-1.5-1.2-1.8-3.5V17l.4-.7.6-.6.85-.65L50 15l.4-.2 4.45-1.85 3.25-1.45q2.3-1.25 4.6-2.15l2.15-.5q7.75-.85 14 .7"/><path fill="url(#c)" d="M73.75 23.65q2.85 1.65 4.6 1.8l-.5 7.2-1.25-.05q-4.6-.15-8.45 1.4v.7l-.4 2.9-2.6-3.15-.65-5.4.45.15 2.1.35q3.8.35 5-2.15l1.7-3.75"/><path fill="url(#d)" d="M73.75 23.65l-1.7 3.75q-1.2 2.5-5 2.15l-2.1-.35-.45-.15h-.1l-2-.8-1.2-.7-.35-.2-.25-.15-.05-.05q-2.2-1.5-1.8-5.45l1.7-.4q2.75-.75 4.75-3l2-1.85q1.95 2.65 6 2.55 2.35 0 1.7 1.7l-1.15 2.95"/><path fill="url(#e)" d="M78.2 35.3l.05.05 1.05 1 14.8 9.8-4.6-2.05-1.95-.7q-3.15-1.1-6.4-1.85-2.2.45-3.9 1.35-2 1-3.3 2.55-.9 1-1.5 2.25l-.3.65q-.6 1.45-.85 3.15-1.3-2.95-1.9-6.25l-.3-2.6q-.15-1.6.95-2.7L68.7 38.6l1.5-4.2 8 .9"/><path fill="url(#f)" d="M48.1 17.4q.3 2.3 1.8 3.5 1.25 1.05 3.45 1.15l5.4-.35q-.4 3.95 1.8 5.45l.05.05.25.15-.7.55q-1.5 1-3.85.95-3.9-.05-7.55 1.05l-.45-.9-.3-.1q-3.6-1.75-3.15-5.65.35-3.3 3-5.6l.25-.25"/><path fill="url(#g)" d="M46.8 43.95v-.1l-.85-7.05q-.3-2.7 1.15-4.35l.8-.8.8-.9.05-.45 8.6-.45 4.5-1.05q-1.2 1.4-1.25 3.9l.2 2.45-3.75.8-2.15.2q-.3.15-.15.45l.65.75q-.85-.1-1.5.4v.05l-2.05 1.65-1.7 1.5-3.35 3"/><path fill="url(#h)" d="M54.9 36.15l.05.1 1.15 1.35.65 1.2q1.15 2.8 2.9 5.35l.4.6 2.4 3.05q2.5 3.15 4.4 6.75 1.9 3.75 4.15 7.25l.25 1.3q.55 2.45.35 5l-.1 1.45q-3.3-2.75-6.3-5.85l-.2-.25q-3-3.15-4.7-7.15l-2.6-5.35-.05-.1-2.35-3.75-1.65-2.75-.25-.6q-.8-1.7-1.3-3.45l-.25-.85 2.05-1.65v-.05q.65-.5 1.5-.4l-.65-.75q-.15-.3.15-.45m.1 1.6l1.1-.15-1.1.15"/><path fill="url(#i)" d="M56.1 37.6l.15-.05q1.3-.3 2.05-.95l3.1 2.4.5.55q2.25 2.25 3.8 5.15l1.3 2q1.55 2.05 1.95 4.6L71 61.8q-2.25-3.5-4.15-7.25-1.9-3.6-4.4-6.75l-2.4-3.05-.4-.6q-1.75-2.55-2.9-5.35l-.65-1.2"/><path fill="url(#j)" d="M65.05 63.85l-9.9-7.25q-1.4-1.35-2.25-3-1-1.65-1.5-3.65v-.15l-.5-3.2-.05-4.6q-.1-.75-.7-1.05l1.7-1.5.25.85q.5 1.75 1.3 3.45l.25.6 1.65 2.75 2.35 3.75.05.1 2.6 5.35q1.7 4 4.7 7.15l.2.25q3 3.1 6.3 5.85v.05l-.35 3.1v.05L69.6 69.3q-1.75-3.1-4.55-5.45"/><path fill="url(#k)" d="M51.4 49.8l-.05.05-1.15.95q-1.95 1.15-5.05.6v-.3q1.1-1.6 1.35-3.45l.1-1.3-.4-1.75v-.1l.6-.55 3.35-3q.6.3.7 1.05l.05 4.6.5 3.2"/><path fill="url(#l)" d="M89.5 44.1l1 2.2q1.05 2 2.55 3.75 2.35 2.8 4.1 5.8.45.85.5 1.95.15 3.5.8 7 .6 3.3.75 6.75l.85 22.35q-1.25-.65-3.55 1.35l-2.6 1.9q.35-2.7 1.15-5.35l.25-1.2-2 .1q-.15-2.35.3-4.85l.1-1.4q-.55.15-1 .65.35-4.05.15-9-1 .5-1.2.8 1.05-4.5 1-9.25v-1.4q-1-1.65-1.1-2.9L89.6 65.2l-.45-4.1-3.2 1.15q-.6-1.4-.8-3.6l-.65-3.8q-.7-3.15-1.95-6.05l-.1-.35q-.8-1.5-2.25-2.45l-.45-.25q-1.2-.9-1.95-2.3l-.55-.55q1.7-.9 3.9-1.35 3.25.75 6.4 1.85l1.95.7"/><path fill="url(#m)" d="M82.45 48.45l-3.2 2.65q-2.9 2.6-3.55 6.5.35-1.75 1.85-2.8-.4 2.45-.65 5.65l3.3-.15q-1 3.4-1.1 6.8 2.8 1.8 4.1 5.65.5-1.15 1.7-1.4.75 3.25.8 6.6l1.45-1.7-.25 7.6-.7 6.55q.25-3.05-.2-5.65-.4-2.7-2.55-4.95l-4.95-5.55q-2.15-2.65-3.8-5.7-1.6-3.1-2.25-6.45-.75-3.7-.6-7.55l.3-6.2.3-.65q.6-1.25 1.5-2.25 1.3-1.55 3.3-2.55l.55.55q.75 1.4 1.95 2.3l.45.25q1.45.95 2.25 2.45"/><path fill="url(#n)" d="M52.6 61.05l.3-.8.65.45h.05l5.5 3.25q3 1.45 5.95-.1 2.8 2.35 4.55 5.45l-6.95-.55v.35l-4.85-1.75-1.35-.95-2.25-2.75q-.95-1.3-1.6-2.6m10.15 7.05l-.1.65.1-.65"/><path fill="url(#o)" d="M60.25 78.25q-.5-2.05-1.7-3.7l-.85-1.45q-1.25-2.3-2.65-4.25l-.65-.9q-2.7-3.65-1.8-6.9.65 1.3 1.6 2.6l2.25 2.75 1.35.95 4.85 1.75.4 1.1q1.75 2.75 2.55 6.1l.35 1.3-5.7.65"/><path fill="url(#p)" d="M65 96.25q-1.7-1.35-3.85-.7-.1-2.6-.6-5-.5-2.7-2.3-4.2l1-1.4.95-2 6.3-.5 2.1.1h.25l1.85 1.4.65.3q3.9 1.5 4.45 4.85-.6.5-1.1 1.35-.5-1.95-2.45-2.5l-2.2-.35-2.9.25-.4.1-.15.35q-1.75 4.1-1.6 7.95"/><path fill="url(#q)" d="M23.6 22.75l-.1-.05h-.05l-.9-.15q-3.35-.65-5.15-3.75-1.45-2.5-1.9-5.4l4.65.7q2.75.6 5.1-.1l.7.8 2.85 3.35 1.85 3q1.15 2.55-1.05 2.35h-.2l-5.8-.75"/><path fill="url(#r)" d="M33.85 18.55l3.75 7.25 1.2 3.15 1.45-4.9.1-.1q1.25 1.85 3.1 3.3l.35.3q-.1 2.05-1.8 2.6l-2.6.05q-4.05-.55-7.4.75l-1.3.65-.95-1.45-.5-1.7q.4-1.25.2-3l-.05-1.95h.2q2.2.2 1.05-2.35l-1.85-3-2.85-3.35q2-2.5 4.8 1.2l.65.75-.15.55.15-.55 2.45 1.8"/><path fill="url(#s)" d="M33.85 18.55l-2.45-1.8q.25-.95.9-1.6l1.55 3.4"/><path fill="url(#t)" d="M29.4 23.5l.05 1.95q.2 1.75-.2 3l-.75 1.3-.1.1q-1.2 1.3-3.55 1.6l-1.2-.15-.6-.25-1.3-.8q-2.05-1.55-3.6-4.6 2.3-.65 5.3-2.85l.15-.05 5.8.75"/><path fill="url(#u)" d="M.55 68.1L.1 61.35q-.5-3.85 1.1-7.05l.9-2Q3 49.75 5 49l1.85-.3q1.45.05 1.85-1.1 1.15-3.2 3.4-5l.25-.2.05.05h.1l6.8-1.15 1.1-.3-3.95 2.15q-2.7 1.3-2.7 4.45l-.1 2.2-.4 3.6-.1.3-.7 3-.35.95-1.35 3.05q-.8-1.55-1-3.25.25 2.65-1.25 4.9-1.1-1.75-1.45-2.9l.6 7.4q-.55-.9-.75-1.95.6 4 .75 8.1-2.7-3.05-3.25-5.95l.1 7q.45 3.2.5 6.55l-1.65-1.55q.35 1.65.25 3.4-.9-1.05-1.05-2.7-.55 3.55-.6 7.2-.8-2.5-.8-5.15.05-3.35-.25-6.75L.55 68.1m3.65 4.5l.2 2.45.1-1-.3-1.45m-1.65 3.85q-.05 1.4.8 2.6l-.8-2.6"/><path fill="url(#v)" d="M15.3 37.05q3.45-.3 7.55 0l.45.05.95 1.45q.9 1.75 1.1 3.9l.1 1.7-.05.05h-.05q-2.55 2.8-3.7 5.45v-1.4l-.35-7.45v-.05l-.2.05-.7.2-1.1.3-6.8 1.15v-.15l.55-1.7q.7-2.3 2.25-3.55"/><path fill="url(#w)" d="M20.4 41l.7-.2h.2l.35 7.45-.05.2q-.85 3-1.1 5.15l-.05.55Q20 57.6 20.1 61.1v.25q0 2.9-1.25 5.7l-4.4 7.65Q13 77 11.95 79.55l-1.8 4.9v-5.5l-.4 1.2q-.2-3.55 0-7.75l-.25-.05 1.85-6.1q.4.55.2 2.45 2.95-3.1 4.05-6.15l.1.05.15-.85-.2.6v-.4q-.15-2.05-1-4l-.35-.75q-.8-1.65-1.15-3.5l.1-.3.4-3.6.1-2.2q0-3.15 2.7-4.45L20.4 41m-4.75 23.2l.05-1.6-.05 1.6"/><path fill="url(#x)" d="M45.45 29l1.3 1.55.05.05q-2.55 1.45-2.05 6.4l.35 2.8.4 1.1.45 1.35.1 1.55-.05.6-.9-.65v-.05l-3.65-4.05-.35-.45-.6-.65.35-1.8v-2.3q-1.9.9-3.45 1.05l-.3-3.3-1.55 2.7-3.1-1.8q2.35-1.95 5.8-1.8 3.45.15 5.55-1l1.65-1.3"/><path fill="url(#y)" d="M23.05 31.05l.6.25 1.2.15q2.35-.3 3.55-1.6l.1-.1.15.1.15.3.1.75v.1l-.3 3.65-1.05 7.3-.6-2.9q-.5-1.8-.05-3.1l.25-.7-5.5-.6-1.5.05 1.4-1.1q1-1.1 1.5-2.55"/><path fill="url(#z)" d="M26.9 56.45l.15-2.25q.25-3.65 1.6-7.2.95-2.45 2.3-4.25l1.45-1.6q.7-.7 1.7-1.05 2-.85 4.55-.95L35 43q-2.1 2.6-3.45 5.7-1.2 2.75-3 5.25l-1.65 2.5"/><path fill="url(#A)" d="M26.9 56.45l1.65-2.5q1.8-2.5 3-5.25Q32.9 45.6 35 43l3.65-3.85 2.45.05.35.45-1.15 7.05q-.85 4.05-2.7 9l-.65 1.85q-2.15 1.1-3.9 2.75l-.95.85q-2.1 2.3-3.8 4.95l-1.55 2.6.15-12.25"/><path fill="url(#B)" d="M45 51.35q-1.95 2.75-4.5 4.4l-2.1 1.05-1.45.75.65-1.85q1.85-4.95 2.7-9l1.15-7.05 3.65 4.05v.05l.9.65.2.2.4 1.75-.1 1.3q-.25 1.85-1.35 3.45l-.15.25"/><path fill="url(#C)" d="M41.55 63.65q2.45-.45 4.2-2.55l.15-.1 1.7-1.5q-.15 2.1-.95 4-.75 1.8-2.4 3.3l-1.4 1.65-.4.7q-.85 1.45-1.25 2.95l-6.3.1q1.1-1.7 1.55-3.85l.05-.6q.1-.75.8-1.1l4.25-3"/><path fill="url(#D)" d="M41.55 63.65l-4.25 3q-.7.35-.8 1.1l-.05.6q-3.15-2.1-6.85-2.2l-1.3-.05q1.7-2.65 3.8-4.95l.95-.85q2.55 3.15 6.4 3.45l2.1-.1"/><path fill="url(#E)" d="M40.75 75.75l.1 1.7.4 1.85q.6 2.35 2.5 4.15l-4.3 2.35-2.1 1.45-2.9 2.65-.45-.85-.55-1.85q-.4-2.8-2.6-4.15-1.2 1.45-1.9 3.6-1-.65-3.55-1.35l-.15-.05.55-.5q1.15-1.3.95-2.9 2.05-.45 2.85-2.4.85-2.15 2.35-3.9l8.8.2"/><path fill="url(#F)" d="M74.75 95.05q-.3 7-1.95 13.4-.95-4.1-4.25-7.65-1-1.05-1.7-2.3l-.15-.15q-.8-1.4-1.7-2.1-.15-3.85 1.6-7.95l.15-.35.4-.1 2.9-.25 2.2.35q1.95.55 2.45 2.5l.15 1.4-.1 3.2"/><path fill="url(#G)" d="M74.75 95.05l.1-3.2-.15-1.4q.5-.85 1.1-1.35 1.6-1.5 3.55-.25l6.3 4.25q3.05 2.15 5.2 5.2l.6 1.1q-2.2-.9-5.35-1.65-2.45-.65-4.7-1.65-1.6-.7-3.5-.7l-3.15-.35"/><path fill="url(#H)" d="M25.25 85.25l-.7.5q-5.6 3.35-9.9 8.15.45-1.85 1.25-3.55 1.55-3.25 4.05-6.1l.95-1.7Q22 79.2 24.05 81h.05q.85-.2 2.55.55l.1.3q.2 1.6-.95 2.9l-.55.5"/><path fill="url(#I)" d="M28.95 86.65q.7-2.15 1.9-3.6 2.2 1.35 2.6 4.15l.55 1.85.45.85-1.65 2.25q-2.5 4.1-5.45 7.1-.2-3.95.4-7.7.4-2.3 1.05-4.5l.15-.4"/><path fill="none" stroke="#585800" stroke-width=".05" stroke-linecap="round" stroke-miterlimit="3" d="M92.65 67.65q-1-1 0-1.4-.5.7 0 1.4M86.2 90.4l-.1.85m3.4-47.15l4.6 2.05-14.8-9.8-1.05-1-.05-.05m-9.5 3.3l1.35 1.35q-1.1 1.1-.95 2.7l.3 2.6q.6 3.3 1.9 6.25.25-1.7.85-3.15M60.2 82.95l.2-1.5q.15-1.7-.15-3.2m-5.85-10.3q-2.7-3.65-1.8-6.9l.3-.8.65.45h.05m1.55-4.1q-1.4-1.35-2.25-3-1-1.65-1.5-3.65v-.15l-.05.05-1.15.95q-1.95 1.15-5.05.6l-.15-.05q-1.95 2.75-4.5 4.4l-2.1 1.05-1.45.75m-3.9 2.75q2.55 3.15 6.4 3.45l2.1-.1q2.45-.45 4.2-2.55l.15-.1 1.7-1.5m-4.75 8.95l-.4.7M41.2 72.1l-.4 2-.05 1.65m-6.3 14.15l.5.5m43.9-80.85q-6.25-1.55-14-.7l-2.15.5q-2.3.9-4.6 2.15l-3.25 1.45-4.45 1.85-.4.2-.05.05-.85.65-.6.6-.4.7v.4m19.1-.95q1.95 2.65 6 2.55 2.35 0 1.7 1.7l-1.15 2.95q2.85 1.65 4.6 1.8l-.5 7.2v1.25q-.05.8.35 1.4M64.4 3.65l.3-.1q1.05-.3 1.5-.8l1-.25L68.7.55l-5.1-.3M29.95.6Q21.8-.75 15.8.7q3.3 1.85 6.15 4.2 2.85 2.35 6.2 4 2.6 1.25 3.4 3.4l.3 1.5.45 1.35 1.55 3.4 3.75 7.25 1.2 3.15 1.45-4.9v-.25l.7-2.35q.8-2.65 1.95-5.05 1.2-2.45 3.05-4.65l1.15-1.15q2.3-2.2 5.4-3.2l11.9-3.75-4.95 2.9L53.2 9.4Q49.6 11 47.95 14q1.3.15 2.35.75l.1.05m-.9-10.4l.55-.4m-1.9 1.4l1.35-1-1.45.9m-9.1 18l-.15 1.15-.1-1.25M29.1 7.3l-.5-.35-.95-.5M47.95 14v.05l-.05.1-.05.05-1.75 1.9q-3 2.4-4.85 5.65l-.95 2.1.05.1q1.25 1.85 3.1 3.3l.35.3L45.45 29l1.3 1.55.05.05q-2.55 1.45-2.05 6.4l.35 2.8.4 1.1.45 1.35.1 1.55-.05.6.1.05.1.05.6-.55v-.1l-.85-7.05q-.3-2.7 1.15-4.35l.8-.8.8-.9.05-.45m0-.4l-.45-.9-.3-.1q-3.6-1.75-3.15-5.65.35-3.3 3-5.6l.25-.65m-.25.65l.25-.25M29.95.6l.85.15 10.3.45 14.5-1 8 .05M56.1 37.6l.15-.05M61.4 39l.5.55q2.25 2.25 3.8 5.15l1.3 2q1.55 2.05 1.95 4.6L71 61.8l.25 1.3q.55 2.45.35 5l-.1 1.45v.05l-.35 3.1m0 .05L69.6 69.3l-6.95-.55v.35l.4 1.1q1.75 2.75 2.55 6.1l.35 1.3.25.65q.85 2.45 2.4 4.05l.25.25m-7-53.75q-1.2 1.4-1.25 3.9l.2 2.45-3.75.8-2.15.2q-.3.15-.15.45l.65.75q-.85-.1-1.5.4v.05l-2.05 1.65m9-12.1l-.25-.15-.05-.05q-2.2-1.5-1.8-5.45m2.1 5.65l.35.2 1.2.7 2 .8h.1l.45.15 2.1.35m5-2.15l1.7-3.75m-25 6.25v.4m13.1-1.5l.55-.55M30.7 31.6l.3.35 1.45 1.15m4.65-.9l.3 3.3q1.55-.15 3.45-1.05v2.3l-.35 1.8.6.65.35.45 3.65 4.05v.05l.9.65.2.2-.1-.15m.1.15l.4 1.75-.1 1.3q-.25 1.85-1.35 3.45l-.15.25m5.15-10.4l-3.35 3m9.3-6.35l-1.1.15M51.4 49.8l-.5-3.2-.05-4.6q-.1-.75-.7-1.05l1.7-1.5m15.9-1.85l.95 1m-4.2-9.55l.65 5.4 2.6 3.15M29.1 7.25l-.5-.3m-5 15.8l-.1-.05h-.05m-7.95-9.3l4.65.7q2.75.6 5.1-.1l.7.8q2-2.5 4.8 1.2l.65.75q.25-.95.9-1.6m-6.35-.35l2.85 3.35m.6 5.35l.05 1.95q.2 1.75-.2 3m-5.65-5.7l-.15.05q-3 2.2-5.3 2.85 1.55 3.05 3.6 4.6l1.3.8m.6.25l1.2.15q2.35-.3 3.55-1.6l.1-.1.75-1.3m2.15-11.7l-.15.55m2.6 1.25l-2.45-1.8m8.85 7.05l.05.05-.05.2M20.15 34.7l-2.15.95q-1.55.45-2.7 1.4m10.15 7.1l2.05-2 .05-.2m-7.4-7.25l1.4-1.1m-9.2 8.8l.15-.1.55-1.7q.7-2.3 2.25-3.55m-2.8 5.25l-.1.15m8.7-1.65l.2-.05v.05m.35 7.45v1.4q1.15-2.65 3.7-5.45h.05l.05-.05m3.05-14.4l.15.1.15.3.1.75v.1l-.3 3.65-1.05 7.3M9.75 72.4l-.55 1.25.3-1.3m6.1-9.8l.05-.2M28.3 66.1l1.3.05m6.85 2.2l.05-.6m-.05.6Q36 70.5 34.9 72.2m-19.2-9.6l-.05-.25m16.3 13.2l2.95-3.35m34.7-2.9q-1.75-3.1-4.55-5.45m-2.4 4.9l.1-.65m-8.55-4.45q-.95-1.3-1.6-2.6"/><path fill="none" stroke="#A21B1B" stroke-width=".05" stroke-linecap="round" stroke-miterlimit="3" d="M89.5 44.1l1 2.2q1.05 2 2.55 3.75 2.35 2.8 4.1 5.8.45.85.5 1.95.15 3.5.8 7 .6 3.3.75 6.75l.85 22.35q-1.25-.65-3.55 1.35l-2.6 1.9q.35-2.7 1.15-5.35l.25-1.2-2 .1q-.15-2.35.3-4.85l.1-1.4q-.55.15-1 .65.35-4.05.15-9-1 .5-1.2.8 1.05-4.5 1-9.25v-1.4q-1-1.65-1.1-2.9L89.6 65.2l-.45-4.1-3.2 1.15q-.6-1.4-.8-3.6l-.65-3.8q-.7-3.15-1.95-6.05l-.1-.35-3.2 2.65q-2.9 2.6-3.55 6.5.35-1.75 1.85-2.8-.4 2.45-.65 5.65l3.3-.15q-1 3.4-1.1 6.8 2.8 1.8 4.1 5.65.5-1.15 1.7-1.4.75 3.25.8 6.6l1.45-1.7-.25 7.6-.7 6.55q.25-3.05-.2-5.65-.4-2.7-2.55-4.95l-4.95-5.55m-6.35-25.9l.3-.65q.6-1.25 1.5-2.25 1.3-1.55 3.3-2.55 1.7-.9 3.9-1.35 3.25.75 6.4 1.85l1.95.7m-7.05 4.35q-.8-1.5-2.25-2.45l-.45-.25q-1.2-.9-1.95-2.3l-.55-.55m-65.15-.3l.25-.2m.05.05h.1l6.8-1.15 1.1-.3.7-.2m.2 0l.35 7.45-.05.2q-.85 3-1.1 5.15l-.05.55Q20 57.6 20.1 61.1v.25q0 2.9-1.25 5.7l-4.4 7.65Q13 77 11.95 79.55l-1.8 4.9v-5.5l-.4 1.2q-.2-3.55 0-7.75m3.4-18.7l.1-.3.4-3.6.1-2.2q0-3.15 2.7-4.45L20.4 41M9.5 72.35l1.85-6.1q.4.55.2 2.45 2.95-3.1 4.05-6.15m.05-.2v-.4q-.15-2.05-1-4l-.35-.75q-.8-1.65-1.15-3.5l-.7 3-.35.95-1.35 3.05q-.8-1.55-1-3.25.25 2.65-1.25 4.9-1.1-1.75-1.45-2.9l.6 7.4q-.55-.9-.75-1.95.6 4 .75 8.1-2.7-3.05-3.25-5.95l.1 7q.45 3.2.5 6.55l-1.65-1.55q.35 1.65.25 3.4-.9-1.05-1.05-2.7-.55 3.55-.6 7.2-.8-2.5-.8-5.15.05-3.35-.25-6.75L.55 68.1m3.65 4.5l.2 2.45.1-1-.3-1.45m11.45-10.25l.2-.6-.15.85-.05 1.6M2.55 76.45q-.05 1.4.8 2.6l-.8-2.6"/><path fill="none" stroke="#A01414" stroke-width=".05" stroke-linecap="round" stroke-miterlimit="3" d="M48.15 5.4l-1 .75-5.2 5.05-2.65 2.3-.2.4-.15 9.4m-.25-.1l-2.4-9.4-.25-.35q-2.15-2.2-4.9-4.25L29.1 7.3m18.95-2l-8.3 5.65q-.75.55-1.55.55l-1.2-.4q-1.5-.35-2.7-1.3-1.2-1-2.65-1.4Q30.3 8 29.1 7.25"/><path fill="none" stroke="#6A0808" stroke-width=".05" stroke-linecap="round" stroke-miterlimit="3" d="M67.2 16.45q1.75-1.4 3.85-2 2.5-.8 4.8-2.1 1.85-1.05 3-2.8M48.1 17.4q.3 2.3 1.8 3.5 1.25 1.05 3.45 1.15l5.4-.35 1.7-.4q2.75-.75 4.75-3l2-1.85M23.45 22.7l-.9-.15q-3.35-.65-5.15-3.75-1.45-2.5-1.9-5.4m13.3 4.75l1.85 3q1.15 2.55-1.05 2.35h-.2l-5.8-.75"/><path fill="none" stroke="#717114" stroke-width=".05" stroke-linecap="round" stroke-miterlimit="3" d="M.55 68.1L.1 61.35q-.5-3.85 1.1-7.05l.9-2Q3 49.75 5 49l1.85-.3"/><path fill="none" stroke="#92924E" stroke-width=".05" stroke-linecap="round" stroke-miterlimit="3" d="M78.5 74.25q-2.15-2.65-3.8-5.7-1.6-3.1-2.25-6.45-.75-3.7-.6-7.55l.3-6.2M65 96.25q-1.7-1.35-3.85-.7-.1-2.6-.6-5-.5-2.7-2.3-4.2l1-1.4.95-2m-19.45-7.2l.1 1.7.4 1.85q.6 2.35 2.5 4.15l-4.3 2.35-2.1 1.45-2.9 2.65m34.4-7.35l1.85 1.4.65.3q3.9 1.5 4.45 4.85m-49.05-7.25q2.05-.45 2.85-2.4.85-2.15 2.35-3.9m-6.7 9.7l.15.05q2.55.7 3.55 1.35"/><path fill="none" stroke="#A2A26A" stroke-width=".05" stroke-linecap="round" stroke-miterlimit="3" d="M60.25 78.25q-.5-2.05-1.7-3.7l-.85-1.45q-1.25-2.3-2.65-4.25l-.65-.9m-.8-7.25l5.5 3.25q3 1.45 5.95-.1l-9.9-7.25m-18.2.95q-2.15 1.1-3.9 2.75m14.55-.8q-.15 2.1-.95 4-.75 1.8-2.4 3.3l-1.4 1.65m-.4.7q-.85 1.45-1.25 2.95m15.05-34.55q1.3-.3 2.05-.95l3.1 2.4m5.65-9.45q3.8.35 5-2.15m-39.6 5.7l3.1 1.8 1.55-2.7m-7.85-3.75l.5 1.7.95 1.45m-7.65-.55l.6.25m-2.1 2.3q1-1.1 1.5-2.55M6.85 48.7q1.45.05 1.85-1.1 1.15-3.2 3.4-5m26.55-3.45q-2.55.1-4.55.95-1 .35-1.7 1.05l-1.45 1.6q-1.35 1.8-2.3 4.25-1.35 3.55-1.6 7.2l-.15 2.25-.15 12.25 1.55-2.6q1.7-2.65 3.8-4.95l.95-.85m5.6-21.15l2.45.05M29.6 66.15q3.7.1 6.85 2.2m.05-.6q.1-.75.8-1.1l4.25-3m21.1 5.45l-4.85-1.75-1.35-.95-2.25-2.75"/><path fill="none" stroke="#6A6A6A" stroke-width=".05" stroke-linecap="round" stroke-miterlimit="3" d="M75.8 89.1q1.6-1.5 3.55-.25l6.3 4.25q3.05 2.15 5.2 5.2l.6 1.1q-2.2-.9-5.35-1.65-2.45-.65-4.7-1.65-1.6-.7-3.5-.7l-3.15-.35q-.3 7-1.95 13.4-.95-4.1-4.25-7.65-1-1.05-1.7-2.3l-.15-.15q-.8-1.4-1.7-2.1-.15-3.85 1.6-7.95l.15-.35.4-.1 2.9-.25 2.2.35q1.95.55 2.45 2.5l.15 1.4-.1 3.2m1.05-5.95q-.6.5-1.1 1.35m-47.95-8.6l-.1-.3q-1.7-.75-2.55-.55h-.05Q22 79.2 20.9 82.55l-.95 1.7q-2.5 2.85-4.05 6.1-.8 1.7-1.25 3.55 4.3-4.8 9.9-8.15l.7-.5.55-.5q1.15-1.3.95-2.9m2.2 4.8q.7-2.15 1.9-3.6 2.2 1.35 2.6 4.15l.55 1.85.45.85-1.65 2.25q-2.5 4.1-5.45 7.1-.2-3.95.4-7.7.4-2.3 1.05-4.5l.15-.4"/></svg>