<svg xmlns="http://www.w3.org/2000/svg" viewBox="-0.1 0.1 47.0 49.4" width="47" height="49.4"><defs><linearGradient gradientUnits="userSpaceOnUse" x1="-819.2" x2="819.2" gradientTransform="matrix(-.012 0 0 .013 9.5 20.4)" id="a"><stop offset="0" stop-color="#003000"/><stop offset=".106"/><stop offset=".176" stop-color="#004C00"/><stop offset=".427" stop-color="#007D00"/><stop offset=".616" stop-color="#0f0"/><stop offset=".851"/></linearGradient><linearGradient gradientUnits="userSpaceOnUse" x1="-819.2" x2="819.2" gradientTransform="matrix(-.007 0 0 .015 8.6 35.2)" id="b"><stop offset="0" stop-color="#003000"/><stop offset=".106"/><stop offset=".176" stop-color="#004C00"/><stop offset=".427" stop-color="#007D00"/><stop offset=".616" stop-color="#0f0"/><stop offset=".851"/></linearGradient><radialGradient gradientUnits="userSpaceOnUse" r="819.2" cx="0" cy="0" spreadMethod="pad" gradientTransform="matrix(.012 -.004 .004 .011 20 7.15)" id="c"><stop offset="0" stop-color="#ff0"/><stop offset=".341" stop-color="#f00"/><stop offset="1"/></radialGradient><linearGradient gradientUnits="userSpaceOnUse" x1="-819.2" x2="819.2" gradientTransform="matrix(-.007 0 0 .02 17.55 31.45)" id="d"><stop offset="0" stop-color="#003000"/><stop offset=".106"/><stop offset=".176" stop-color="#004C00"/><stop offset=".427" stop-color="#007D00"/><stop offset=".616" stop-color="#0f0"/><stop offset=".851"/></linearGradient><linearGradient gradientUnits="userSpaceOnUse" x1="-819.2" x2="819.2" gradientTransform="matrix(-.017 0 0 .011 32.9 24.35)" id="e"><stop offset="0" stop-color="#003000"/><stop offset=".106"/><stop offset=".176" stop-color="#004C00"/><stop offset=".427" stop-color="#007D00"/><stop offset=".616" stop-color="#0f0"/><stop offset=".851"/></linearGradient><linearGradient gradientUnits="userSpaceOnUse" x1="-819.2" x2="819.2" gradientTransform="matrix(-.007 0 0 .015 23.1 28.45)" id="f"><stop offset="0" stop-color="#003000"/><stop offset=".106"/><stop offset=".176" stop-color="#004C00"/><stop offset=".427" stop-color="#007D00"/><stop offset=".616" stop-color="#0f0"/><stop offset=".851"/></linearGradient><linearGradient gradientUnits="userSpaceOnUse" x1="-819.2" x2="819.2" gradientTransform="matrix(-.004 0 0 .004 22.4 26.7)" id="g"><stop offset="0" stop-color="#003000"/><stop offset=".106"/><stop offset=".176" stop-color="#004C00"/><stop offset=".427" stop-color="#007D00"/><stop offset=".616" stop-color="#0f0"/><stop offset=".851"/></linearGradient><linearGradient gradientUnits="userSpaceOnUse" x1="-819.2" x2="819.2" gradientTransform="matrix(.007 -.002 .005 .014 21 28.2)" id="h"><stop offset="0" stop-color="#003000"/><stop offset=".106"/><stop offset=".176" stop-color="#004C00"/><stop offset=".427" stop-color="#007D00"/><stop offset=".616" stop-color="#0f0"/><stop offset=".851"/></linearGradient><linearGradient gradientUnits="userSpaceOnUse" x1="-819.2" x2="819.2" gradientTransform="matrix(-.008 0 0 .009 33.55 34.35)" id="i"><stop offset="0" stop-color="#003000"/><stop offset=".106"/><stop offset=".176" stop-color="#004C00"/><stop offset=".427" stop-color="#007D00"/><stop offset=".616" stop-color="#0f0"/><stop offset=".851"/></linearGradient><linearGradient gradientUnits="userSpaceOnUse" x1="-819.2" x2="819.2" gradientTransform="matrix(-.003 0 0 .005 15.45 45.5)" id="j"><stop offset="0" stop-color="#003000"/><stop offset=".106"/><stop offset=".176" stop-color="#004C00"/><stop offset=".427" stop-color="#007D00"/><stop offset=".616" stop-color="#0f0"/><stop offset=".851"/></linearGradient></defs><path fill="#fc0" d="M20.6 16.55l-.75-1.1-.85-.6-.3-.15q-1.1-.5-1.9.55-.6.75-1.25.8-.75 0-1.75-1.05-1.25-1.45-2.2-3.25-1.05-1.95-1-4.05.05-2.15 1.15-3.35Q13 3 14.9 3l.1-.15q1.15-1.5 2.85-2.2 1.75-.75 3.6-.6 1.75.2 3.5 1.15 1.75.9 3.1 2.55 1.25 1.6 1.75 3.75.55 2.2 0 4.2-.5 2-1.65 3.5-1.2 1.5-2.95 2l-3.45.55h-.4l-.4.05-.35-1.25m.3-11.3l.5.55 2.1-2.45-2.6 1.9-.25-.15.25.15m-1.1-.4l.7.15.15.1-.15-.15.1-3.9-.8 3.8-.6.05.6-.05m-1.2.35l.6-.3-.6-3.3v3.6l-.05.1.05-.1m-.5 1.25l.15-.75.3-.4-1.45-2.1 1.15 2.5-2.6-.65 2.45 1.4v.1-.1m.05.8l-.05-.3v-.4L15.55 7.8l2.6-.55.25.4-.25-.4m.65.55l-.3-.1-.1-.05-.75 1.4L18.8 7.8l.4.1-.4-.1m.85.1h-.45l-.25 1.6.55-1.35.15-.25q.7-.05-.1-1.4.8 1.35.1 1.4m2.3.6l-.35.7-.65.6 3.95 5.65-3.25-6.25 5.1 4.1-4.8-4.8v-.25.25m-.05-1.15l.05.9 5.25.25-5.3-1.25v.1M21.85 7l.05.25-.05-.25 3.45-1.7-3.65.95.2.75m-1.1 2.95l.2-.15-.2.15-1.1.35 1.85 6.05-.75-6.4m.65-4.15l.25.45-.25-.45m-2.45 4.55l.7-.05-.7.05-1.4-.15-.3 3.65 1.7-3.5m-2.15-.4l.75.25-.75-.25-.6-.35-1.3 2.5 1.95-2.1-.05-.05m-1.05-.75l.45.4-.45-.4-.65-.85-2.25 1.2 2.9-.35M14.5 7.05l.6 1.3-.6-1.3-.05-.3-.15-.55-2.3.7 2.5.15m-.25-1.5v.05l.05.6-.05-.6v-.75l-1.5-.2 1.5.9M14.9 3l-.65 1.85L14.9 3"/><path fill="url(#a)" d="M15.9 21.9l-1.4 1.05q-1.2.65-2.4.45-.7-.1-1.35-.5-1.55-.85-1.85-2.85-.4-2.9-1.75-5.7-1-2.1-2.9-2-1.05.05-1.7.65-.65.6-.65 1.8-.05 1.35.9 2.4L4 18.45l.9 1.45.8 2.15q.45 1.25.2 2.4-.2 1-.9 1.8l-.95.7q-1 .3-1.8.85-1.45 1.1-.75 3.4-.8-.8-1.25-2-.9-2.3 1.1-3.15 1.75-.75 2.4-2.8.65-2.1-1.15-3.85Q1 17.85.8 15.6q-.15-2.3 1-3.95Q2.95 10 4.95 9.7q1.3-.2 2.25.8 1.2 1.25 1.9 3.1.7 2.15 1.8 4.1 1.25 2.05 2.9 2 .45-.05.45-.55-.2-2.3 1.3-3.1.65-.05 1.25-.8.8-1.05 1.9-.55l.3.15-.6.45q-1.75.4-1.55 2.3v1.8q-.2 1.5-.95 2.5"/><path fill="url(#b)" d="M14.5 22.95l-.3.9q-.4 1.6-1.55 3.15-1.2 1.45-3.05 1.95-1.8.4-3.45 1.05-1.05.4-1.35 1.45-.6 2.1 1.25 3.4l2.9 2.3 1.25 1.45q1.3 2.1.1 3.7-1.1 1.45-3.1 1.8l-.65.35q-.7 1.15-1.15 3.05l-.25-1.35q-.85-2.6 1-3 1.05-.2 1.95-.8 1.95-1.4.2-3l-3.15-2.4q-1.75-1.2-2.35-3.4-.55-2.3.9-3.7 1.3-1.4 3.1-2 1.7-.6 3.25-1.65 1.5-1.1 2.05-2.8 1.2.2 2.4-.45"/><path fill="url(#c)" d="M21.05 19.85q-1.35-.7-1-2.1l.55-1.2.35 1.25.4-.05-.3 2.1M21.4 5.8l-.5-.55 2.6-1.9-2.1 2.45m-.75-.7L20.5 5l-.7-.15.8-3.8-.1 3.9V5v-.05l.15.15m-1.45-.2l-.6.3V1.6l.6 3.3m-.65.4l-.3.4-.15.75-2.45-1.4 2.6.65-1.15-2.5 1.45 2.1m-.45 1.25v.4l.05.3-2.6.55 2.55-1.25m.3 1.1l.1.05.3.1-1.15 1.25.75-1.4m.8.25h.45l-.15.25-.55 1.35.25-1.6m2.4 1.3l.35-.7 4.8 4.8-5.1-4.1h-.05.05l3.25 6.25-3.95-5.65.65-.6m.35-.95l-.05-.9v-.1l5.3 1.25-5.25-.25M21.85 7l-.2-.75 3.65-.95L21.85 7m-1.1 2.95l.75 6.4-1.85-6.05 1.1-.35m-1.8.4l-1.7 3.5.3-3.65 1.4.15m-2.15-.4l.05.05-1.95 2.1 1.3-2.5.6.35m-1.05-.75l-2.9.35 2.25-1.2.65.85M14.5 7.05L12 6.9l2.3-.7.15.55.05.3m-.25-1.5l-1.5-.9 1.5.2v.7m5.8 12.2l.9.05-.9-.05"/><path fill="url(#d)" d="M19.85 15.45l-.7.25-.05.1q-1.15.9-1.6 2.65-.4 1.45 0 3.15l1.6 4.55.15.4v.5l-.3.3-3.4 1.45q-1.75.55-2 2.8-.15 2.25.8 4.35 1 2 2.7 3.25l1.55 1.15 1.3.75.4.25q1.85.95 2.7 2.85.95 2.3.55 3.85l-.95-2.4-.8-.8-3.9-2.65-.9-.65-3.8-3.05q-1.25-1.2-1.65-3-.25-1.1-.05-2.2.2-1.35.8-2.45l1.15-1.9.9-1.15 2-1.15q.95-.45.8-1.65-.25-2-1.25-3.1.75-1 .95-2.5v-1.8q-.2-1.9 1.55-2.3l.6-.45.85.6"/><path fill="url(#e)" d="M19.85 15.45l.75 1.1-.55 1.2q-.35 1.4 1 2.1l.15.1q1.8.85 3.55.4l3.45-1q1.75-.65 3.6-.7 1.95-.05 3.25 1.75t1.9 4l1.1 4.15q.55 2.45 2.6 2.85l3.55-.3q1.7-.8 2.1-2.9l.1-2.1.5 3.2q.1 1.8-1.2 2.75-.9.7-2.15 1.05l-2.15.15-2.25-.8q-1.1-.5-2-1.7l-1.1-2.2-2-5.65q-.55-1.6-1.9-2.1l-3.05.15-2.95 1.15-3.85.1-1.35-.45-.2-.05-.8-.95q-1.5-1.9-.85-4.95l.05-.1.7-.25"/><path fill="url(#f)" d="M19.1 15.8q-.65 3.05.85 4.95l.8.95.15.15 4.8 4.55 1 1.3 1.1 1.9.25.55q.8 2.15.8 4.4 0 2.15-1.05 3.8-.7 1-2.15 1.4L19.9 41.1l-1.3-.75q1.7-1 3.6-1.5 1.6-.4 2.85-1.2 1.1-.65 1.75-1.9.25-.55.1-1.4l-1.15-4.2-.9-1.85-.8-1.1-2.65-2.4-.35-.25-2.05-1.4-.1-.05q-.85-.55-1.4-1.5-.4-1.7 0-3.15.45-1.75 1.6-2.65"/><path fill="url(#g)" d="M19 23.15l2.05 1.4q.15 1.6.95 3.1.75 1.45 2.15.9l.7-.25.9 1.85-2.5.1q-1.55-.35-2.95-1.35-.65-.5-.95-1.55l-.1-.3v-.5l-.15-.4-.1-3"/><path fill="url(#h)" d="M19 23.15l.1 3-1.6-4.55q.55.95 1.4 1.5l.1.05m1.75-1.45l.2.05-.05.1-.15-.15"/><path fill="url(#i)" d="M26.7 27.7l1-.25q1.8-.5 3.45.75 1.6 1.25 2.75 2.9 1.15 1.85 1.8 4.05.6 2.3 1.8 4 1.15 1.5 2.9 2.2-1.7.5-3.3-1.05l-1.6-1.7q-1.25-1.5-2.1-3.35l-1.35-2.7q-.7-1.4-1.75-2.15-1.05-.65-2.05-.75l-.45-.05-1.1-1.9"/><path fill="url(#j)" d="M17.9 42.2q-1.05.85-1.8 2.05l-3 5.2q-.25-1.1.2-2.75l.5-1.25.4-.7.75-1 2.05-2.2.9.65"/><path fill="none" stroke="#050" stroke-width=".05" stroke-linecap="round" stroke-miterlimit="3" d="M36.05 28.55l1.1 2.2q.9 1.2 2 1.7l2.25.8 2.15-.15q1.25-.35 2.15-1.05 1.3-.95 1.2-2.75l-.5-3.2-.1 2.1q-.4 2.1-2.1 2.9l-3.55.3q-2.05-.4-2.6-2.85l-1.1-4.15m-8.75-5.05l-3.45 1q-1.75.45-3.55-.4l-.15-.1q-1.35-.7-1-2.1l.55-1.2m-.75-1.1l-.7.25-.05.1q-.65 3.05.85 4.95l.8.95.2.05 1.35.45 3.85-.1m20.25 4l-.15-1.1m-24.9-7.25l-.3 2.1m-.1-2.05l-.9-.05m.85 4.1l-.15-.15m.2.05l-.05.1 4.8 4.55 1 1.3 1-.25q1.8-.5 3.45.75 1.6 1.25 2.75 2.9 1.15 1.85 1.8 4.05.6 2.3 1.8 4 1.15 1.5 2.9 2.2-1.7.5-3.3-1.05l-1.6-1.7m-3.45-6.05q-.7-1.4-1.75-2.15-1.05-.65-2.05-.75l-.45-.05.25.55q.8 2.15.8 4.4 0 2.15-1.05 3.8-.7 1-2.15 1.4M19.9 41.1l.4.25q1.85.95 2.7 2.85.95 2.3.55 3.85l-.95-2.4-.8-.8-3.9-2.65q-1.05.85-1.8 2.05m-3 5.2q-.25-1.1.2-2.75l.5-1.25.4-.7.75-1 2.05-2.2.9.65m-4.7-3.7q-1.25-1.2-1.65-3-.25-1.1-.05-2.2.2-1.35.8-2.45l1.15-1.9.9-1.15m1.55-5.9l-1.4 1.05-.3.9q-.4 1.6-1.55 3.15-1.2 1.45-3.05 1.95-1.8.4-3.45 1.05-1.05.4-1.35 1.45-.6 2.1 1.25 3.4m2.9 2.3l1.25 1.45q1.3 2.1.1 3.7-1.1 1.45-3.1 1.8l-.65.35q-.7 1.15-1.15 3.05l-.25-1.35m0-9.2q-1.75-1.2-2.35-3.4-.55-2.3.9-3.7 1.3-1.4 3.1-2 1.7-.6 3.25-1.65 1.5-1.1 2.05-2.8 1.2.2 2.4-.45M2.8 17.2L4 18.45l.9 1.45.8 2.15q.45 1.25.2 2.4-.2 1-.9 1.8l-.95.7q-1 .3-1.8.85-1.45 1.1-.75 3.4-.8-.8-1.25-2-.9-2.3 1.1-3.15 1.75-.75 2.4-2.8.65-2.1-1.15-3.85Q1 17.85.8 15.6q-.15-2.3 1-3.95Q2.95 10 4.95 9.7q1.3-.2 2.25.8 1.2 1.25 1.9 3.1.7 2.15 1.8 4.1 1.25 2.05 2.9 2 .45-.05.45-.55-.2-2.3 1.3-3.1m3.45-1.2l-.6.45q-1.75.4-1.55 2.3v1.8q-.2 1.5-.95 2.5m3.2-6.1q-1.15.9-1.6 2.65-.4 1.45 0 3.15.55.95 1.4 1.5l.1.05 2.05 1.4.35.25 2.65 2.4.8 1.1.9 1.85 1.15 4.2m-8.3 6l1.3.75m5.85-10.95l-2.5.1q-1.55-.35-2.95-1.35-.65-.5-.95-1.55l-.1-.3-.3.3m.3-.3v-.5l-.15-.4-.1-3m8.8 6.45l-1.1-1.9m-5.65-3.15q.15 1.6.95 3.1.75 1.45 2.15.9l.7-.25"/><path fill="none" stroke="#C19B00" stroke-width=".05" stroke-linecap="round" stroke-miterlimit="3" d="M20.6 16.55l-.75-1.1m1.05-10.2l.5.55m-.5-.55l-.25-.15-.15-.1-.7-.15-.6.05-.6.3-.05.1-.3.4-.15.75v.5l.05.3.25.4.1.05.3.1.4.1h.45q.7-.05-.1-1.4m1.1-1.4l-.15-.15m-4.95 11.1q-.75 0-1.75-1.05-1.25-1.45-2.2-3.25-1.05-1.95-1-4.05.05-2.15 1.15-3.35Q13 3 14.9 3l.1-.15q1.15-1.5 2.85-2.2 1.75-.75 3.6-.6 1.75.2 3.5 1.15 1.75.9 3.1 2.55 1.25 1.6 1.75 3.75.55 2.2 0 4.2-.5 2-1.65 3.5-1.2 1.5-2.95 2l-3.45.55h-.4l-.4.05-.35-1.25m1.35-8.05l-.35.7-.65.6-.2.15-1.1.35-.7.05-1.4-.15-.75-.25.05.05m5.1-1.5v-.25l-.05-.9m0-.1L21.85 7l-.2-.75-.25-.45m-5.2 3.8l-.45-.4-.65-.85-.6-1.3-.05-.3-.15-.55-.05-.6v-.75L14.9 3m.65 13.05q.65-.05 1.25-.8.8-1.05 1.9-.55l.3.15.85.6m-.35-7.3l.15-.25M16.8 9.95l-.6-.35"/><path fill="none" stroke="#A00000" stroke-width=".05" stroke-linecap="round" stroke-miterlimit="3" d="M21.4 5.8l2.1-2.45-2.6 1.9m-.4-.3V5m0-.05l.1-3.9-.8 3.8m1.8 4.35h.05l5.1 4.1-4.8-4.8m-.05-1.15v-.1m-1.15 2.7l.75 6.4-1.85-6.05m-.7.05l-1.7 3.5.3-3.65m-.7-.2l-1.95 2.1 1.3-2.5m-.45-.4l-2.9.35 2.25-1.2m-.6-1.3L12 6.9l2.3-.7m-.05-.65l-1.5-.9 1.5.2m6.7 4.95l3.95 5.65-3.25-6.25m.2-2.2l3.45-1.7-3.65.95m.3 2l5.25.25-5.3-1.25M19.2 4.9l-.6-3.3v3.6m-.05.1L17.1 3.2l1.15 2.5-2.6-.65 2.45 1.4m0 .1L15.55 7.8l2.6-.55"/><path fill="none" stroke="#CE0000" stroke-width=".05" stroke-linecap="round" stroke-miterlimit="3" d="M19.2 7.9l-.25 1.6.55-1.35m-.7-.35l-1.15 1.25.75-1.4"/><path fill="none" stroke="#007800" stroke-width=".05" stroke-linecap="round" stroke-miterlimit="3" d="M34.05 22.9l2 5.65M35.5 38.6q-1.25-1.5-2.1-3.35"/><path fill="none" stroke="#00A500" stroke-width=".05" stroke-linecap="round" stroke-miterlimit="3" d="M33.4 35.25l-1.35-2.7m4.9-8.15q-.6-2.2-1.9-4-1.3-1.8-3.25-1.75-1.85.05-3.6.7m-2.05 2.75l2.95-1.15 3.05-.15q1.35.5 1.9 2.1m-8.4 16.85L19.9 41.1m-3.8 3.15l-3 5.2m3.9-7.9l-3.8-3.05m1.15-10.7l2-1.15q.95-.45.8-1.65-.25-2-1.25-3.1M6.05 34.85l2.9 2.3m-3.8 9q-.85-2.6 1-3 1.05-.2 1.95-.8 1.95-1.4.2-3l-3.15-2.4M12.1 23.4q-.7-.1-1.35-.5-1.55-.85-1.85-2.85-.4-2.9-1.75-5.7-1-2.1-2.9-2-1.05.05-1.7.65-.65.6-.65 1.8-.05 1.35.9 2.4m24.1 17.15q.15.85-.1 1.4-.65 1.25-1.75 1.9-1.25.8-2.85 1.2-1.9.5-3.6 1.5m.35-13l-3.4 1.45m1.5 10.4l1.55 1.15"/><path fill="none" stroke="#007000" stroke-width=".05" stroke-linecap="round" stroke-miterlimit="3" d="M15.55 28.8q-1.75.55-2 2.8-.15 2.25.8 4.35 1 2 2.7 3.25"/></svg>