<svg xmlns="http://www.w3.org/2000/svg" viewBox="0 0 100.0 112.6" width="100" height="112.6"><defs><linearGradient gradientUnits="userSpaceOnUse" x1="-819.2" x2="819.2" gradientTransform="matrix(-.045 0 0 .026 52.3 57.85)" id="a"><stop offset="0" stop-color="#0066FD"/><stop offset=".376" stop-color="#fff"/><stop offset=".478" stop-color="#fff"/><stop offset=".502" stop-color="#960"/><stop offset=".667" stop-color="#fc0"/><stop offset="1" stop-color="#fff"/></linearGradient><linearGradient gradientUnits="userSpaceOnUse" x1="-819.2" x2="819.2" gradientTransform="matrix(.006 -.004 .01 .017 16.65 51.3)" id="b"><stop offset="0" stop-color="#0066FD"/><stop offset=".376" stop-color="#fff"/><stop offset=".478" stop-color="#fff"/><stop offset=".502" stop-color="#960"/><stop offset=".667" stop-color="#fc0"/><stop offset="1" stop-color="#fff"/></linearGradient><radialGradient gradientUnits="userSpaceOnUse" r="819.2" cx="0" cy="0" spreadMethod="pad" gradientTransform="matrix(-.004 0 0 .004 9.6 55.75)" id="c"><stop offset="0" stop-color="#ff0"/><stop offset=".227" stop-color="#900"/><stop offset=".51" stop-color="#060"/><stop offset=".886" stop-color="#00c"/></radialGradient><linearGradient gradientUnits="userSpaceOnUse" x1="-819.2" x2="819.2" gradientTransform="matrix(-.014 0 0 .01 16.3 77.35)" id="d"><stop offset="0" stop-color="#ff0"/><stop offset=".227" stop-color="#900"/><stop offset=".51" stop-color="#060"/><stop offset=".886" stop-color="#00c"/></linearGradient><linearGradient gradientUnits="userSpaceOnUse" x1="-819.2" x2="819.2" gradientTransform="matrix(.006 .001 -.001 .032 58.45 36.75)" id="e"><stop offset="0" stop-color="#0066FD"/><stop offset=".376" stop-color="#fff"/><stop offset=".478" stop-color="#fff"/><stop offset=".502" stop-color="#960"/><stop offset=".667" stop-color="#fc0"/><stop offset="1" stop-color="#fff"/></linearGradient><linearGradient gradientUnits="userSpaceOnUse" x1="-819.2" x2="819.2" gradientTransform="matrix(-.006 .002 .006 .022 46.55 42.3)" id="f"><stop offset="0" stop-color="#0066FD"/><stop offset=".376" stop-color="#fff"/><stop offset=".478" stop-color="#fff"/><stop offset=".502" stop-color="#960"/><stop offset=".667" stop-color="#fc0"/><stop offset="1" stop-color="#fff"/></linearGradient><linearGradient gradientUnits="userSpaceOnUse" x1="-819.2" x2="819.2" gradientTransform="matrix(.004 0 0 .024 47.9 22.8)" id="g"><stop offset="0" stop-color="#0066FD"/><stop offset=".376" stop-color="#fff"/><stop offset=".478" stop-color="#fff"/><stop offset=".502" stop-color="#960"/><stop offset=".667" stop-color="#fc0"/><stop offset="1" stop-color="#fff"/></linearGradient><linearGradient gradientUnits="userSpaceOnUse" x1="-819.2" x2="819.2" gradientTransform="matrix(.008 -.001 .005 .036 45.8 34.65)" id="h"><stop offset="0" stop-color="#0066FD"/><stop offset=".376" stop-color="#fff"/><stop offset=".478" stop-color="#fff"/><stop offset=".502" stop-color="#960"/><stop offset=".667" stop-color="#fc0"/><stop offset="1" stop-color="#fff"/></linearGradient><linearGradient gradientUnits="userSpaceOnUse" x1="-819.2" x2="819.2" gradientTransform="matrix(.004 0 0 .024 41.4 41.75)" id="i"><stop offset="0" stop-color="#0066FD"/><stop offset=".376" stop-color="#fff"/><stop offset=".478" stop-color="#fff"/><stop offset=".502" stop-color="#960"/><stop offset=".667" stop-color="#fc0"/><stop offset="1" stop-color="#fff"/></linearGradient><linearGradient gradientUnits="userSpaceOnUse" x1="-819.2" x2="819.2" gradientTransform="matrix(.006 -.001 .004 .027 38.5 22.2)" id="j"><stop offset="0" stop-color="#0066FD"/><stop offset=".376" stop-color="#fff"/><stop offset=".478" stop-color="#fff"/><stop offset=".502" stop-color="#960"/><stop offset=".667" stop-color="#fc0"/><stop offset="1" stop-color="#fff"/></linearGradient><linearGradient gradientUnits="userSpaceOnUse" x1="-819.2" x2="819.2" gradientTransform="matrix(.007 -.001 .003 .021 40.8 38.3)" id="k"><stop offset="0" stop-color="#0066FD"/><stop offset=".376" stop-color="#fff"/><stop offset=".478" stop-color="#fff"/><stop offset=".502" stop-color="#960"/><stop offset=".667" stop-color="#fc0"/><stop offset="1" stop-color="#fff"/></linearGradient><linearGradient gradientUnits="userSpaceOnUse" x1="-819.2" x2="819.2" gradientTransform="matrix(-.008 .001 .005 .031 55.35 42.7)" id="l"><stop offset="0" stop-color="#0066FD"/><stop offset=".376" stop-color="#fff"/><stop offset=".478" stop-color="#fff"/><stop offset=".502" stop-color="#960"/><stop offset=".667" stop-color="#fc0"/><stop offset="1" stop-color="#fff"/></linearGradient><linearGradient gradientUnits="userSpaceOnUse" x1="-819.2" x2="819.2" gradientTransform="matrix(.006 .002 -.006 .026 58.25 36.4)" id="m"><stop offset="0" stop-color="#0066FD"/><stop offset=".376" stop-color="#fff"/><stop offset=".478" stop-color="#fff"/><stop offset=".502" stop-color="#960"/><stop offset=".667" stop-color="#fc0"/><stop offset="1" stop-color="#fff"/></linearGradient><linearGradient gradientUnits="userSpaceOnUse" x1="-819.2" x2="819.2" gradientTransform="matrix(-.004 .002 .009 .019 38.5 46.75)" id="n"><stop offset="0" stop-color="#0066FD"/><stop offset=".376" stop-color="#fff"/><stop offset=".478" stop-color="#fff"/><stop offset=".502" stop-color="#960"/><stop offset=".667" stop-color="#fc0"/><stop offset="1" stop-color="#fff"/></linearGradient><linearGradient gradientUnits="userSpaceOnUse" x1="-819.2" x2="819.2" gradientTransform="matrix(.006 -.004 .01 .017 23.35 32.15)" id="o"><stop offset="0" stop-color="#0066FD"/><stop offset=".376" stop-color="#fff"/><stop offset=".478" stop-color="#fff"/><stop offset=".502" stop-color="#960"/><stop offset=".667" stop-color="#fc0"/><stop offset="1" stop-color="#fff"/></linearGradient><linearGradient gradientUnits="userSpaceOnUse" x1="-819.2" x2="819.2" spreadMethod="repeat" gradientTransform="matrix(.006 -.001 .004 .027 31.8 41.15)" id="p"><stop offset="0" stop-color="#0066FD"/><stop offset=".376" stop-color="#fff"/><stop offset=".478" stop-color="#fff"/><stop offset=".502" stop-color="#960"/><stop offset=".667" stop-color="#fc0"/><stop offset="1" stop-color="#fff"/></linearGradient><linearGradient gradientUnits="userSpaceOnUse" x1="-819.2" x2="819.2" gradientTransform="matrix(-.006 -.004 -.01 .015 80.85 47.3)" id="q"><stop offset="0" stop-color="#0066FD"/><stop offset=".376" stop-color="#fff"/><stop offset=".478" stop-color="#fff"/><stop offset=".502" stop-color="#960"/><stop offset=".667" stop-color="#fc0"/><stop offset="1" stop-color="#fff"/></linearGradient><linearGradient gradientUnits="userSpaceOnUse" x1="-819.2" x2="819.2" gradientTransform="matrix(-.007 -.001 -.003 .018 63.6 43.85)" id="r"><stop offset="0" stop-color="#0066FD"/><stop offset=".376" stop-color="#fff"/><stop offset=".478" stop-color="#fff"/><stop offset=".502" stop-color="#960"/><stop offset=".667" stop-color="#fc0"/><stop offset="1" stop-color="#fff"/></linearGradient><linearGradient gradientUnits="userSpaceOnUse" x1="-819.2" x2="819.2" gradientTransform="matrix(-.006 -.001 -.004 .023 65.9 38.5)" id="s"><stop offset="0" stop-color="#0066FD"/><stop offset=".376" stop-color="#fff"/><stop offset=".478" stop-color="#fff"/><stop offset=".502" stop-color="#960"/><stop offset=".667" stop-color="#fc0"/><stop offset="1" stop-color="#fff"/></linearGradient><linearGradient gradientUnits="userSpaceOnUse" x1="-819.2" x2="819.2" gradientTransform="matrix(-.004 0 0 .021 62.65 39.45)" id="t"><stop offset="0" stop-color="#0066FD"/><stop offset=".376" stop-color="#fff"/><stop offset=".478" stop-color="#fff"/><stop offset=".502" stop-color="#960"/><stop offset=".667" stop-color="#fc0"/><stop offset="1" stop-color="#fff"/></linearGradient><linearGradient gradientUnits="userSpaceOnUse" x1="-819.2" x2="819.2" gradientTransform="matrix(.004 .002 -.009 .022 66.65 41.55)" id="u"><stop offset="0" stop-color="#0066FD"/><stop offset=".376" stop-color="#fff"/><stop offset=".478" stop-color="#fff"/><stop offset=".502" stop-color="#960"/><stop offset=".667" stop-color="#fc0"/><stop offset="1" stop-color="#fff"/></linearGradient><linearGradient gradientUnits="userSpaceOnUse" x1="-819.2" x2="819.2" gradientTransform="matrix(-.009 -.002 -.006 .023 77.95 46.9)" id="v"><stop offset="0" stop-color="#0066FD"/><stop offset=".376" stop-color="#fff"/><stop offset=".478" stop-color="#fff"/><stop offset=".502" stop-color="#960"/><stop offset=".667" stop-color="#fc0"/><stop offset="1" stop-color="#fff"/></linearGradient><linearGradient gradientUnits="userSpaceOnUse" x1="-819.2" x2="819.2" gradientTransform="matrix(-.006 -.001 -.004 .023 71.85 39.05)" id="w"><stop offset="0" stop-color="#0066FD"/><stop offset=".376" stop-color="#fff"/><stop offset=".478" stop-color="#fff"/><stop offset=".502" stop-color="#960"/><stop offset=".667" stop-color="#fc0"/><stop offset="1" stop-color="#fff"/></linearGradient><linearGradient gradientUnits="userSpaceOnUse" x1="-819.2" x2="819.2" gradientTransform="matrix(-.006 -.004 -.01 .015 86.8 47.7)" id="x"><stop offset="0" stop-color="#0066FD"/><stop offset=".376" stop-color="#fff"/><stop offset=".478" stop-color="#fff"/><stop offset=".502" stop-color="#960"/><stop offset=".667" stop-color="#fc0"/><stop offset="1" stop-color="#fff"/></linearGradient><radialGradient gradientUnits="userSpaceOnUse" r="819.2" cx="0" cy="0" spreadMethod="pad" gradientTransform="matrix(-.018 0 0 .018 51.15 81.4)" id="y"><stop offset="0" stop-color="#ff0"/><stop offset=".227" stop-color="#900"/><stop offset=".51" stop-color="#060"/><stop offset=".886" stop-color="#00c"/></radialGradient><linearGradient gradientUnits="userSpaceOnUse" x1="-819.2" x2="819.2" gradientTransform="matrix(-.01 0 0 .009 79.7 77)" id="z"><stop offset="0" stop-color="#ff0"/><stop offset=".227" stop-color="#900"/><stop offset=".51" stop-color="#060"/><stop offset=".886" stop-color="#00c"/></linearGradient><linearGradient gradientUnits="userSpaceOnUse" x1="-819.2" x2="819.2" gradientTransform="matrix(.008 -.005 .014 .024 25.1 45.95)" id="A"><stop offset="0" stop-color="#0066FD"/><stop offset=".376" stop-color="#fff"/><stop offset=".478" stop-color="#fff"/><stop offset=".502" stop-color="#960"/><stop offset=".667" stop-color="#fc0"/><stop offset="1" stop-color="#fff"/></linearGradient><linearGradient gradientUnits="userSpaceOnUse" x1="-819.2" x2="819.2" gradientTransform="matrix(-.005 .002 .01 .026 44.05 47.5)" id="B"><stop offset="0" stop-color="#0066FD"/><stop offset=".376" stop-color="#fff"/><stop offset=".478" stop-color="#fff"/><stop offset=".502" stop-color="#960"/><stop offset=".667" stop-color="#fc0"/><stop offset="1" stop-color="#fff"/></linearGradient><radialGradient gradientUnits="userSpaceOnUse" r="819.2" cx="0" cy="0" spreadMethod="pad" gradientTransform="matrix(-.014 0 0 .014 47.7 87.9)" id="C"><stop offset="0" stop-color="#ff0"/><stop offset=".227" stop-color="#900"/><stop offset=".51" stop-color="#060"/><stop offset=".886" stop-color="#00c"/></radialGradient><radialGradient gradientUnits="userSpaceOnUse" r="819.2" cx="0" cy="0" spreadMethod="pad" gradientTransform="matrix(-.002 0 0 .002 29.3 77)" id="D"><stop offset="0" stop-color="#ff0"/><stop offset=".227" stop-color="#900"/><stop offset=".51" stop-color="#060"/><stop offset=".886" stop-color="#00c"/></radialGradient><radialGradient gradientUnits="userSpaceOnUse" r="819.2" cx="0" cy="0" spreadMethod="pad" gradientTransform="matrix(-.003 0 0 .003 29.3 75.25)" id="E"><stop offset="0" stop-color="#ff0"/><stop offset=".227" stop-color="#900"/><stop offset=".51" stop-color="#060"/><stop offset=".886" stop-color="#00c"/></radialGradient></defs><path d="M15.35 56.1l-3.1-5.75q.4 2.7.4 5.2l-.2 1.7-.2 1.55q-1.35 7.25-4.2 12.25L1.55 85.4 11.7 71.25q1.7-2.3 3.8-4.25 2.1-1.9 5 1.35l.55.8.8-2.5-.95-1.9q-1.95-2.15-3.45-5l-.2-.4-1.9-3.25m12.8 13.4l-4.6 9q-3.05 6.15-4.2 10.95-.95 4.55-.95 6.5l1.15 15.3q.55-18 2.85-22.2l4.6-9.6 1.15-2.1.2-.35 1.75-3.45.15 2.65.2 1.35v1.15q.4 4.4 2.1 8.45 2.9-.2 4.4-3.25l.2-.6 2.7-5.35-4.6-.2-3.05-6.7q-.8-1.55-1.15-3.45l-.2-2.1v-.2l-2.7 4.2m30.3 14.95q1.7 2.85 5.9 1.9 1.35-.35 1.75-2.1l1.15-2.5q3.25-6.1 4 1.35l.8 5.55q0 .8.35 1.75l1.55 4q2.3 7.5 6.15 15.7l.35-.2-.75-3.25q-2.3-13.4-5-26.8l-.55-2.7-2.3-7.45-.6-1.35-.35-.35-5.75 9.75-2.3 3.85q-1.55-1.15-3.65-1.95-1.55 0-2.3.6l.75 1.9q.2 1.35.8 2.3m19.35-10.9l.75-.8q3.65-5.15 5.55-10.9.95 1.55.95 3.45.4 4.6 2.9 8.25 6.3 9 12.05 16.25l-.75-1.7q-4.25-9.6-7.7-19.75-1.9-5.55-4-10.5L82 60.15l-1.35 2.45-1.35-.15-1.7 2.45-.4 2.3.6 6.35m9.55-16.5L85.8 53.8 83.35 58l4-.95"/><path fill="url(#a)" d="M87.35 57.05l-4 .95L82 60.15l5.55-2.3 1.55-1.15-1.75.35m-72-.95l1.9 3.25 1.15.6-1.75-3.65-1.3-.2m6.5 10.55l-.8 2.5-2.1 6.5 9.2-6.15 2.7-4.2-.95-1.9-.8-.4-.15-1.55-1.35-2.65-.2-.6-.75.2-3.3-.55 5 6.1-1.15 2.5q-.55 1.7-2.1 1.9l-2.3.2-.95-1.9m56.1 8.6l-.15-1.7-.6-6.35-.2 1.15-2.65.8q-1.75.15-3.1-.8l.6 1.35 6.1 5.55m-8.4-33.7l.95-3.85-.75 1.15-.2 2.7M38.3 54.2l-2.85 1.15.95 3.45 3.85 5.55-1.55 3.05q-.75 2.1-2.9 2.1h-2.85l-2.1-4 .2 2.1q.35 1.9 1.15 3.45l3.05 6.7 4.6.2 19.55.95 5.75-1.15L70.9 68l-2.3-2.3 1.9-4.6.2-.4-1.15-2.5V58l-.8-.55-1.3.2h-2.5l2.3 7.45q-.4.6-1.55.95l-3.45.95-3.8-.15-1.55-.6-.4-3.65-.55-.15q-1.55-.8-2.7-1.95l.2-.55-.75.2 2.65 5.7-1.9 2.15Q51.9 69.15 50 69.9l-2.5.4-1.5-6.35-2.9-.2-1.7-.55v-1.55l-1.75-.35-1.7-1.15.35-5.95m-11.65 4.2l.95.4-.95-.4"/><path fill="url(#b)" d="M16.65 56.3l1.75 3.65 2.5 4.8.95 1.9.95 1.9 2.3-.2q1.55-.2 2.1-1.9l1.15-2.5-5-6.1L5 34.1l11.65 22.2"/><path fill="url(#c)" d="M12.65 55.55L6.3 54.2l6.15 3.05.2-1.7"/><path fill="url(#d)" d="M18.95 75.65L4.4 85.2l19.15-6.7 4.6-9-9.2 6.15"/><path fill="url(#e)" d="M60.9 42.9l-1.15-13.8-.55-6.9-.95-11.65L56.5 27.4v1.5l-.2 1.55-2.65 26.8-.2 2.7-.2.55q1.15 1.15 2.7 1.95l.55.15q1.75.6 3.45.8l2.5-.2-.2-2.3-.95-13.2-.4-3.85v-.95"/><path fill="url(#f)" d="M51.35 44.25l-.6-1.75-1.3.2H47.9l1.55 7.1 1.9-5.55M45.4 29.3l-1.15-2.85.95 4.55.2-1.7m8.25 27.95l-2.5-.2 1.55 3.1.75-.2.2-2.7"/><path fill="url(#g)" d="M50.75 42.5l.6-.2L47.5 2.85 45.4 29.3l-.2 1.7 2.7 11.7h1.55l1.3-.2"/><path fill="url(#h)" d="M44.25 26.45L39.65 5l.6 23.35v.2l.15 3.05.8 25.85.2 4.2v1.55l1.7.55 2.9.2h.95q2.1-.2 3.6-1.5l1.35-1.15-.95-4.45-1.5-7.05-1.55-7.1L45.2 31l-.95-4.55"/><path fill="url(#i)" d="M38.5 51.3l-.2 2.9-.35 5.95 1.7 1.15 1.75.35-.2-4.2-1.15-.6-.95-11.65-.6 6.1m1.9-19.7l-.15-3.05-.2 2.1.35.95"/><path fill="url(#j)" d="M40.25 28.35L33.5 0l1.95 37.55.2 5.35v1.15l.35.2h2.9l-2.1-27 3.25 13.4.2-2.1v-.2"/><path fill="url(#k)" d="M40.4 31.6l-.35-.95-3.25-13.4 2.1 27 .2.95.95 11.65 1.15.6-.8-25.85"/><path fill="url(#l)" d="M56.5 28.7l-3.8-12.25 1.7 19.35 1.9-5.35.2-1.55v-.2m5.2 17.85v-.2l-.8-2.5.4 3.85.4-1.15m2.5 8.2l-1.75 6.15h-.2l.2 2.3-2.5.2q-1.7-.2-3.45-.8l.4 3.65 1.55.6 3.8.15 3.45-.95q1.15-.35 1.55-.95l-2.3-7.45-.2-.95-.55-1.95"/><path fill="url(#m)" d="M59.75 29.1l2.3-14.95-2.85 8.05.55 6.9m-5.35 6.7l-3.05 8.45-1.9 5.55 1.5 7.05.2.2 2.5.2 2.65-26.8-1.9 5.35"/><path fill="url(#n)" d="M35.45 37.55l-3.85-6.7 4.05 12.05-.2-5.35m.55 6.7l2.5 7.05.6-6.1-.2-.95H36"/><path fill="url(#o)" d="M33.7 47.7l1.15-2.7-2.65-3.45 1.5 6.15m-5.9-12.1L11.7 15.15 28.35 47.1l-.55-11.5"/><path fill="url(#p)" d="M27.8 35.6l.55 11.5v.6l8.05 11.1-.95-3.45-1.75-7.65-1.5-6.15-5.4-22.6 1 16.65m1.15 25.85L29.1 63l.8.4-.95-1.95"/><path fill="url(#q)" d="M79.7 53.6l12.45-21.05L81.4 44.6l-1.7 9M69.55 58v.2l1.15 2.5.95-2.7-1.75-.15-.35.15"/><path fill="url(#r)" d="M67.05 33.7l.55-8.05-3.25 11.3-2.65 9.4v.2l4.95-9.6.4-3.25m-1.7 17.45l-1.15 3.6.55 1.95.2-.6.4-4.95"/><path fill="url(#s)" d="M69.15 47.85l.4-6.3.2-2.7.15-3.05-4.4 14.35.6 5.2-1.15.75-.2.6.2.95h2.5l1.3-.2v-.2l-1.7-1.35 2.1-8.05m1.15-17.8l.6-10.5-3.85 14.15-.4 3.25 3.65-6.9"/><path fill="url(#t)" d="M64.35 36.95L63.2 22.2l-2.3 20.7v.95l.8 2.5 2.65-9.4m.6 19.15l1.15-.75-.6-5.2-.15 1-.4 4.95"/><path fill="url(#u)" d="M69.9 35.8l3.65-12.45-3.25 6.7-3.65 6.9-4.95 9.6-.4 1.15.95 13.2h.2l1.75-6.15 1.15-3.6.15-1 4.4-14.35"/><path fill="url(#v)" d="M79.7 53.8v-.2l1.7-9 4.05-21.45L75.1 49.4 71.65 58l-.95 2.7-.2.4-1.9 4.6 2.3 2.3.35.35q1.35.95 3.1.8l2.65-.8.2-1.15.4-2.3.55-2.65 1.55-8.45"/><path fill="url(#w)" d="M75.1 49.4l1.7-29.5-7.65 27.95-2.1 8.05 1.7 1.35 1.15.6 1.75.15 3.45-8.6"/><path fill="url(#x)" d="M85.8 53.8l12.3-20.85L79.7 53.8l-1.55 8.45 1.15.2 1.35.15L82 60.15 83.35 58l2.45-4.2"/><path fill="url(#y)" d="M37.15 83.3l.95.4.2-.8q.95-4 5.95-4 5.2 0 9.75.95 2.3.4 1.75 1.9Q56.9 83.5 57.3 85l1.15-.55q-.6-.95-.8-2.3l-.75-1.9q.75-.6 2.3-.6 2.1.8 3.65 1.95l2.3-3.85-5.75 1.15-19.55-.95-2.7 5.35"/><path fill="url(#z)" d="M74.15 77.15l13.4 7.1-9.6-9-6.1-5.55 2.3 7.45"/><path fill="url(#A)" d="M28.35 47.7L9.75 21.85 27.4 58.2l.2.6 1.35 2.65.95 1.95.95 1.9v.2l2.1 4h2.85q2.15 0 2.9-2.1l1.55-3.05-3.85-5.55-8.05-11.1"/><path fill="url(#B)" d="M51.15 57.05l-.2-.2.95 4.45-1.35 1.15q-1.5 1.3-3.6 1.5H46l1.5 6.35 2.5-.4q1.9-.75 3.45-1.9l1.9-2.15-2.65-5.7-1.55-3.1"/><path fill="url(#C)" d="M38.1 83.7q-.55 2.45 0 5.35 1 5.55 6.15 7.1-3.45-2.9-3.25-6.7.2-4.05 4.4-4.8t5.35 3.65q1.15 4.4-2.1 8.4 4.8-2.7 7.65-6.1 1.95-2.3 1-5.6-.4-1.5-1.55-3.25.55-1.5-1.75-1.9-4.55-.95-9.75-.95-5 0-5.95 4l-.2.8"/><path fill="url(#D)" d="M28.15 77.35l2.3.2-.2-1.35-1.9.8-.2.35"/><path fill="url(#E)" d="M28.35 77l1.9-.8-.15-2.65L28.35 77"/><path fill="none" stroke="#999" stroke-width=".05" stroke-linecap="round" stroke-miterlimit="3" d="M12.65 55.55L6.3 54.2l6.15 3.05M1.55 85.4l-.2.6L0 88.1m15.35-32l1.3.2 1.75 3.65-1.15-.6M1.55 85.4v.2l-.2.4m26.8-8.65l2.3.2m6.7 5.75l.95.4M57.3 85l1.15-.55M80.1 110.1l1.15 2.5-.8-2.7m-2.5-34.65l-.15-1.7m9.75-15.7l1.55-1.15-1.75.35-1.55-3.25 12.3-20.85M79.7 53.8v-.2l12.45-21.05M81.4 44.6l4.05-21.45m-15.9 18.4l.95-3.85-.75 1.15m3.8-15.5l-3.25 6.7.6-10.5-3.85 14.15.55-8.05-3.25 11.3L63.2 22.2m-3.45 6.9l2.3-14.95-2.85 8.05-.95-11.65L56.5 27.4m0 1.3l-3.8-12.25 1.7 19.35 1.9-5.35.2-1.55v-.2m-5.15 15.55l-.6-1.75.6-.2M47.5 2.85L45.4 29.3l-1.15-2.85L39.65 5l.6 23.35L33.5 0m1.95 37.55l-3.85-6.7 4.05 12.05m0 1.15l.35.2m-3.8-2.7l-5.4-22.6 1 16.65M11.7 15.15L28.35 47.1v.6M9.75 21.85L27.4 58.2l-.75.2-3.3-.55M5 34.1l11.65 22.2M40.4 31.6l-.15-3.05v-.2m-.2 2.3l.35.95m.8 25.85l-1.15-.6-.95-11.65-.2-.95-2.1-27 3.25 13.4.2-2.1M45.2 31l-.95-4.55m9.4 30.8l-2.5-.2-.2-.2M38.9 44.25H36M67.05 33.7l-.4 3.25-4.95 9.6v-.2m0 .2l-.4 1.15m9-17.65l-3.65 6.9m-4.2 23.95h-.2m6.5-3.45l.8.55v.2m1.15 2.5l-.2.4m-5.35 16.65L59.4 78.9l-19.55-.95m-9-12.45l2.1 4h2.85q2.15 0 2.9-2.1m28.35-11.5l1.7 1.35v.2m-4-.75l.2-.6.4-4.95m6.3 6.85l-1.75-.15-1.15-.6m9.4 5l-.55 2.65m-.4 2.3l-.2 1.15-2.65.8q-1.75.15-3.1-.8m8.05-5.9l-1.15-.2 1.55-8.45m-14 12.25l-3.45.95m-5.75-4.4q1.75.6 3.45.8l2.5-.2-.2-2.3m7.3-2.9l.35-.15m13.45.15l2.45-4.2M82 60.15L83.35 58l4-.95m-58.4 4.4L27.6 58.8l-.2-.6m.2.6l-.95-.4m13 2.9l1.75.35m4.6 2.3l1.5 6.35m5.2-10.15l.75-.2-.2.55q1.15 1.15 2.7 1.95l.55.15m-26.6.8l.95 1.9m-3.65 1.15q-.55 1.7-2.1 1.9l-2.3.2-.95-1.9m8.05-3.25l-.8-.4-.15-1.55.95 1.95m20.65-.95q-1.5 1.3-3.6 1.5H46M28.35 77l1.9-.8m8.25-24.9l.6-6.1m40.6 8.4l1.7-9M59.2 22.2l.55 6.9m-40.8 46.55l2.1-6.5m-.15-4.4l-2.5-4.8"/><path fill="none" stroke="#003561" stroke-width=".05" stroke-linecap="round" stroke-miterlimit="3" d="M38.1 83.7q-.55 2.45 0 5.35 1 5.55 6.15 7.1-3.45-2.9-3.25-6.7.2-4.05 4.4-4.8t5.35 3.65q1.15 4.4-2.1 8.4 4.8-2.7 7.65-6.1 1.95-2.3 1-5.6-.4-1.5-1.55-3.25.55-1.5-1.75-1.9-4.55-.95-9.75-.95-5 0-5.95 4l-.2.8"/><path fill="none" stroke="#001D90" stroke-width=".05" stroke-linecap="round" stroke-miterlimit="3" d="M23.55 78.5L4.4 85.2l14.55-9.55 9.2-6.15"/><path fill="none" stroke="#002B74" stroke-width=".05" stroke-linecap="round" stroke-miterlimit="3" d="M74.15 77.15l13.4 7.1-9.6-9-6.1-5.55"/><path fill="none" stroke="#0261EE" stroke-width=".05" stroke-linecap="round" stroke-miterlimit="3" d="M75.1 49.4l1.7-29.5m-7.65 27.95l.4-6.3.2-2.7.15-3.05m-15.5 0l-3.05 8.45M33.5 0l1.95 37.55m.2 5.35v1.15m2.85 7.25l-.2 2.9-.35 5.95 1.7 1.15m.75-29.7l.8 25.85m4.2-28.15l-.2 1.7m11.1-.55l-2.65 26.8m-4.2-7.45l1.9-5.55m-15.7-1.35l-.2-5.35m-7.1 9.55l-.55-11.5m33.1 8.25l.8 2.5m3.25 9.75l1.15-.75-.6-5.2m3.25 7.3l-1.3.2h-2.5l-.2-.95m-.55-1.95l.55 1.95m.2.95l2.3 7.45q-.4.6-1.55.95m-24.3-4.4v1.55l1.7.55 2.9.2m4 5.95q1.9-.75 3.45-1.9l1.9-2.15-2.65-5.7-1.55-3.1m-9.75 4.6l-.2-4.2m12.25 2.5l.2-2.7"/><path fill="none" stroke="#D3A000" stroke-width=".05" stroke-linecap="round" stroke-miterlimit="3" d="M98.1 32.95L79.7 53.8m12.45-21.25L81.4 44.6m4.05-21.45L75.1 49.4 71.65 58l-.95 2.7m6.1-40.8l-7.65 27.95-2.1 8.05m2.85-20.1l3.65-12.45M63.2 22.2l-2.3 20.7-1.15-13.8m-8.4 13.2L47.5 2.85M36 44.25l2.5 7.05m-.2 2.9l-2.85 1.15-1.75-7.65 1.15-2.7-2.65-3.45m-4.4-5.95L11.7 15.15M28.35 47.7L9.75 21.85m13.6 36L5 34.1m45.95 22.75l-1.5-7.05-1.55-7.1L45.2 31m5.55 11.5l-1.3.2H47.9m-14.2 5l-1.5-6.15m29.5 4.8l2.65-9.4M61.3 47.7l-.4-3.85v-.95m4.6 7.25l4.4-14.35m-4.4 14.35l-.15 1-1.15 3.6-1.75 6.15m-.2 0l-.95-13.2m8.25 10.5l1.15 2.5m-.2.4l-1.9 4.6 2.3 2.3m-32.2-.6l1.55-3.05-3.85-5.55-.95-3.45M62.25 67l-3.8-.15-1.55-.6-.4-3.65m-9 7.7l2.5-.4M23.35 57.85l5 6.1-1.15 2.5m23.75-9.6l.95 4.45-1.35 1.15M28.35 47.7l8.05 11.1"/></svg>