<svg xmlns="http://www.w3.org/2000/svg" viewBox="0.1 -0.1 37.0 40.4" width="37" height="40.4"><defs><linearGradient gradientUnits="userSpaceOnUse" x1="-819.2" x2="819.2" gradientTransform="matrix(-.009 -.005 .006 -.01 20.15 8.9)" id="a"><stop offset="0" stop-color="#ff0"/><stop offset=".227" stop-color="#ff9"/><stop offset=".525" stop-color="#fff"/><stop offset="1" stop-color="#06f"/></linearGradient><linearGradient gradientUnits="userSpaceOnUse" x1="-819.2" x2="819.2" gradientTransform="matrix(.002 0 0 .005 21.65 20.35)" id="b"><stop offset="0" stop-color="#ff0"/><stop offset=".227" stop-color="#f60"/><stop offset=".525" stop-color="#3f0"/><stop offset=".886" stop-color="#06f"/></linearGradient><radialGradient gradientUnits="userSpaceOnUse" r="819.2" cx="0" cy="0" spreadMethod="pad" gradientTransform="matrix(.017 0 0 .017 12.9 28.35)" id="c"><stop offset="0" stop-color="#ff0"/><stop offset=".227" stop-color="#f60"/><stop offset=".525" stop-color="#f00"/><stop offset=".886"/></radialGradient><linearGradient gradientUnits="userSpaceOnUse" x1="-819.2" x2="819.2" gradientTransform="matrix(.003 0 .001 .012 6.9 9.9)" id="d"><stop offset="0" stop-color="#ff0"/><stop offset=".227" stop-color="#ff9"/><stop offset=".525" stop-color="#fff"/><stop offset="1" stop-color="#06f"/></linearGradient><radialGradient gradientUnits="userSpaceOnUse" r="819.2" cx="0" cy="0" spreadMethod="pad" gradientTransform="matrix(.013 0 0 .013 3.25 26.3)" id="e"><stop offset="0" stop-color="#ff0"/><stop offset=".227" stop-color="#f60"/><stop offset=".525" stop-color="#f00"/><stop offset=".886"/></radialGradient><radialGradient gradientUnits="userSpaceOnUse" r="819.2" cx="0" cy="0" spreadMethod="pad" gradientTransform="matrix(.005 0 0 .005 7.55 23.05)" id="f"><stop offset="0" stop-color="#fc0"/><stop offset=".239" stop-color="#f60"/><stop offset=".612" stop-color="#306"/></radialGradient><linearGradient gradientUnits="userSpaceOnUse" x1="-819.2" x2="819.2" spreadMethod="unknown" gradientTransform="matrix(.002 0 0 .003 10.45 20.7)" id="g"><stop offset="0" stop-color="#ff0"/><stop offset=".227" stop-color="#f60"/><stop offset=".525" stop-color="#3f0"/><stop offset=".886" stop-color="#06f"/></linearGradient><linearGradient gradientUnits="userSpaceOnUse" x1="-819.2" x2="819.2" gradientTransform="matrix(.002 0 0 .003 15.8 18.6)" id="h"><stop offset="0" stop-color="#ff0"/><stop offset=".227" stop-color="#f60"/><stop offset=".525" stop-color="#3f0"/><stop offset=".886" stop-color="#06f"/></linearGradient><linearGradient gradientUnits="userSpaceOnUse" x1="-819.2" x2="819.2" gradientTransform="matrix(.002 0 0 .002 15.4 22.9)" id="i"><stop offset="0" stop-color="#ff0"/><stop offset=".227" stop-color="#f60"/><stop offset=".525" stop-color="#3f0"/><stop offset=".886" stop-color="#06f"/></linearGradient><linearGradient gradientUnits="userSpaceOnUse" x1="-819.2" x2="819.2" gradientTransform="matrix(0 0 0 .001 18.75 23.95)" id="j"><stop offset="0" stop-color="#ff0"/><stop offset=".227" stop-color="#f60"/><stop offset=".525" stop-color="#3f0"/><stop offset=".886" stop-color="#06f"/></linearGradient><linearGradient gradientUnits="userSpaceOnUse" x1="-819.2" x2="819.2" gradientTransform="matrix(.012 0 0 .01 27.05 31.8)" id="k"><stop offset="0" stop-color="#ff0"/><stop offset=".227" stop-color="#f60"/><stop offset=".525" stop-color="#3f0"/><stop offset=".886" stop-color="#06f"/></linearGradient><linearGradient gradientUnits="userSpaceOnUse" x1="-819.2" x2="819.2" gradientTransform="matrix(.003 0 0 .002 27.15 22.65)" id="l"><stop offset="0" stop-color="#ff0"/><stop offset=".227" stop-color="#f60"/><stop offset=".525" stop-color="#3f0"/><stop offset=".886" stop-color="#06f"/></linearGradient></defs><path d="M18.15 15.95l3.2.15.35.1v.05q-.75 1.4-1.2 2.95l-.7 2.05-.1-.8-.05-2.4q-.15 1-.95 1.35l-1.65.55.35-3.4.75-.6m5.35.95l1.25.85 2.2 3.05L25 24.45l-4 .1.5-2.05 2-5.6m-3.1 22.15q-1.6.2-2.9.9l-.45.35q.4-.75 1.3-1.4.85-.6 2.15-.75l-.1.9m5.75-6.7l-3.4-.45h3.75l-.35.45M18.4 24.5l-2.1-.05.6-3.05 1.75-.45.1 1.55.15.9-.5 1.1m-4.5-.75l-1.35-.9-.1-.15-.45-.55 2.15-.4-.25 2m-2.05-4.1l1.2-.25 1.15-.65v2l-2.5.8q-.3-.9.15-1.9"/><path fill="url(#a)" d="M11.85 19.65l-1.2-.45.6-.85 5.95-9.1 3.95-4.65Q23.2 2.35 25.8.85l1.45-.9q-.85 1.05-1 2.9-.15 1.55-.7 2.95l-1.6 3.65-2.2 3.15-3.6 3.35-.75.6-3.2 2.2-1.15.65-1.2.25"/><path fill="url(#b)" d="M21.7 16.2l.65.2 1.15.5-2 5.6-.5 2.05h-.4q-.6-1.6-.8-3.3l.7-2.05q.45-1.55 1.2-2.95v-.05"/><path fill="url(#c)" d="M20.6 24.55l.25.65.15.2q.5 1.1.45 2.4L4.35 38.75l5.55-5.4q1.45-1.15 3.25-2.3l6.15-4.35-.25-2.2-.15-1.1-.15-.9-.1-1.55-1.75.45-2.75.35-2.15.4-1.45.55.55-.65.45-.4.15-.1 2.5-.8 2.85-.8 1.65-.55q.8-.35.95-1.35l.05 2.4.1.8q.2 1.7.8 3.3"/><path fill="url(#d)" d="M6.8.35q.05 2.5 1.15 5.6.95 2.6.85 5.4l-.1 3.8q0 1.8-.6 4.35-1.3-2.65-1.35-5.65L6.8.35"/><path fill="url(#e)" d="M5.65 21.25l-3.15-1.6q-.55 1.85-.4 4.15l.05 8.8Q2 34.85 1 36.7l.25-1.45q.1-2.15-.15-4.2l-1-7.85q-.1-2 .9-3.7L2.75 16q0 1.25 1.05 2.15l2.6 2.25-.75.85"/><path fill="url(#f)" d="M5.65 21.25l.75-.85 1.45-.9.25.05.3.15 1.4.95q.65.65-.05 1.55l-.55.6-3.3 3.8q-.85-2.05-.9-3-.05-1.35.65-2.35"/><path fill="url(#g)" d="M12.45 22.7l-3.25.1.55-.6q.7-.9.05-1.55l-1.4-.95q1.05-1.25 2.85-1.35l-.6.85 1.2.45q-.45 1-.15 1.9l-.15.1-.45.4-.55.65 1.45-.55.45.55"/><path fill="url(#h)" d="M14.2 18.75l3.2-2.2-.35 3.4-2.85.8v-2"/><path fill="url(#i)" d="M16.3 24.45q-1.35-.15-2.4-.7l.25-2 2.75-.35-.6 3.05"/><path fill="url(#j)" d="M19.05 24.5h-.65l.5-1.1.15 1.1"/><path fill="url(#k)" d="M28.6 23.2q1.5.75 2.75 1.65l3.35 2.65q1.5 1.4 2.15 3.45.65 2.2-.2 4-1.05 1.95-2.85 3.2-1.85 1.2-4.05 1.3l-8.3-.5-1.05.1.1-.9.45-.05 10.15-.05 1.45-.4 1.4-.95q1.3-.85 1.75-2.4.55-2.1-1-3.1-.65-.4-1.8.3-2.25 1.35-5.35 1l-1.4-.15.35-.45.85-.1 4.2-.85q1.2-.4.95-1.55-.3-1.25-1.45-2.4l-1.65-1.5-1.65-1.05-.2-.1 1.8-.2-.75-.95"/><path fill="url(#l)" d="M28.6 23.2l.75.95-1.8.2-2.55.1 1.95-3.65 1.65 2.4"/><path fill="none" stroke="#000" stroke-width=".05" stroke-linecap="round" stroke-linejoin="round" d="M18.15 15.95l3.2.15.35.1m1.8.7l1.25.85 2.2 3.05M20.4 39.05q-1.6.2-2.9.9l-.45.35q.4-.75 1.3-1.4.85-.6 2.15-.75m5.65-5.8l-3.4-.45h3.75M25 24.45l-4 .1m-2.6-.05l-2.1-.05m-2.4-.7l-1.35-.9-.1-.15m-.75-1.15q-.3-.9.15-1.9m.15 2.5l.45.55"/><path fill="none" stroke="#BBD6FF" stroke-width=".05" stroke-linecap="round" stroke-linejoin="round" d="M27.25-.05q-.85 1.05-1 2.9-.15 1.55-.7 2.95l-1.6 3.65-2.2 3.15-3.6 3.35m-7.5 3.25l1.2.45 1.2-.25 1.15-.65 3.2-2.2.75-.6"/><path fill="none" stroke="#C1DAFF" stroke-width=".05" stroke-linecap="round" stroke-linejoin="round" d="M6.8.35q.05 2.5 1.15 5.6.95 2.6.85 5.4l-.1 3.8q0 1.8-.6 4.35"/><path fill="none" stroke="#E9F2FF" stroke-width=".05" stroke-linecap="round" stroke-linejoin="round" d="M11.25 18.35l5.95-9.1 3.95-4.65Q23.2 2.35 25.8.85l1.45-.9m-16 18.4l-.6.85"/><path fill="none" stroke="#DBE9FF" stroke-width=".05" stroke-linecap="round" stroke-linejoin="round" d="M8.1 19.5q-1.3-2.65-1.35-5.65L6.8.35"/><path fill="none" stroke="#0169F9" stroke-width=".05" stroke-linecap="round" stroke-linejoin="round" d="M31.35 24.85l3.35 2.65q1.5 1.4 2.15 3.45.65 2.2-.2 4-1.05 1.95-2.85 3.2-1.85 1.2-4.05 1.3m1.35-1.4l1.45-.4 1.4-.95q1.3-.85 1.75-2.4.55-2.1-1-3.1-.65-.4-1.8.3-2.25 1.35-5.35 1m4-1.55q1.2-.4.95-1.55-.3-1.25-1.45-2.4"/><path fill="none" stroke="#30F80B" stroke-width=".05" stroke-linecap="round" stroke-linejoin="round" d="M27.55 32.5l-1.4-.15m.35-.45l.85-.1 4.2-.85"/><path fill="none" stroke="#88BE00" stroke-width=".05" stroke-linecap="round" stroke-linejoin="round" d="M29.75 39.45l-8.3-.5m-.5-.85l10.15-.05"/><path fill="none" stroke="#E67800" stroke-width=".05" stroke-linecap="round" stroke-linejoin="round" d="M21.45 38.95l-1.05.1m.1-.9l.45-.05"/><path fill="none" stroke="#23D04D" stroke-width=".05" stroke-linecap="round" stroke-linejoin="round" d="M28.6 23.2q1.5.75 2.75 1.65m-.3 2.15l-1.65-1.5-1.65-1.05"/><path fill="none" stroke="#CA0000" stroke-width=".05" stroke-linecap="round" stroke-linejoin="round" d="M20.6 24.55l.25.65.15.2q.5 1.1.45 2.4L4.35 38.75l5.55-5.4q1.45-1.15 3.25-2.3l6.15-4.35-.25-2.2-.15-1.1-.15-.9-.1-1.55-1.75.45-2.75.35-2.15.4-1.45.55.55-.65.45-.4.15-.1 2.5-.8 2.85-.8 1.65-.55q.8-.35.95-1.35l.05 2.4.1.8q.2 1.7.8 3.3"/><path fill="none" stroke="#EB0000" stroke-width=".05" stroke-linecap="round" stroke-linejoin="round" d="M5.65 21.25l-3.15-1.6q-.55 1.85-.4 4.15l.05 8.8Q2 34.85 1 36.7l.25-1.45q.1-2.15-.15-4.2l-1-7.85q-.1-2 .9-3.7L2.75 16q0 1.25 1.05 2.15l2.6 2.25"/><path fill="none" stroke="#306" stroke-width=".05" stroke-linecap="round" stroke-linejoin="round" d="M6.4 20.4l1.45-.9.25.05.3.15m.8 3.1l-3.3 3.8q-.85-2.05-.9-3-.05-1.35.65-2.35M9.2 22.8l.55-.6q.7-.9.05-1.55l-1.4-.95m-2 .7l-.75.85"/><path fill="none" stroke="#32FD02" stroke-width=".05" stroke-linecap="round" stroke-linejoin="round" d="M12.45 22.7l-3.25.1m-.8-3.1q1.05-1.25 2.85-1.35"/><path fill="none" stroke="#0B87C7" stroke-width=".05" stroke-linecap="round" stroke-linejoin="round" d="M21.7 16.2l.65.2 1.15.5m3.45 3.9l1.65 2.4.75.95-1.8.2-2.55.1m-4 .1h-.4m-1.55-.05h-.65m-2.1-.05q-1.35-.15-2.4-.7"/><path fill="none" stroke="#2CEC1E" stroke-width=".05" stroke-linecap="round" stroke-linejoin="round" d="M27.75 24.45l-.2-.1"/></svg>