<svg xmlns="http://www.w3.org/2000/svg" viewBox="-0.1 0 100.2 100.4" width="100.2" height="100.4"><defs><radialGradient gradientUnits="userSpaceOnUse" r="819.2" cx="0" cy="0" spreadMethod="pad" gradientTransform="matrix(.027 0 0 .025 70.1 23.8)" id="a"><stop offset="0" stop-color="#036"/><stop offset=".561" stop-color="#0cf"/><stop offset="1" stop-color="#fff"/></radialGradient><linearGradient gradientUnits="userSpaceOnUse" x1="-819.2" x2="819.2" gradientTransform="matrix(.016 0 0 .019 78.65 15.8)" id="b"><stop offset="0" stop-color="#FF3922"/><stop offset=".29" stop-color="#932114"/><stop offset=".949"/></linearGradient><radialGradient gradientUnits="userSpaceOnUse" r="819.2" cx="0" cy="0" spreadMethod="pad" gradientTransform="matrix(.013 0 0 .012 51.25 7.6)" id="c"><stop offset="0" stop-color="#036"/><stop offset=".561" stop-color="#0cf"/><stop offset="1" stop-color="#fff"/></radialGradient><radialGradient gradientUnits="userSpaceOnUse" r="819.2" cx="0" cy="0" spreadMethod="pad" gradientTransform="matrix(.012 0 0 .011 51.05 16.95)" id="d"><stop offset="0" stop-color="#036"/><stop offset=".561" stop-color="#0cf"/><stop offset="1" stop-color="#fff"/></radialGradient><linearGradient gradientUnits="userSpaceOnUse" x1="-819.2" x2="819.2" gradientTransform="matrix(.01 0 0 .008 50.1 27.8)" id="e"><stop offset="0" stop-color="#FF3922"/><stop offset=".29" stop-color="#932114"/><stop offset=".949"/></linearGradient><radialGradient gradientUnits="userSpaceOnUse" r="819.2" cx="0" cy="0" spreadMethod="pad" gradientTransform="matrix(.013 0 0 .012 50.75 36.85)" id="f"><stop offset="0" stop-color="#036"/><stop offset=".561" stop-color="#0cf"/><stop offset="1" stop-color="#fff"/></radialGradient><radialGradient gradientUnits="userSpaceOnUse" r="819.2" cx="0" cy="0" spreadMethod="pad" gradientTransform="matrix(.014 0 0 .013 73.4 44.45)" id="g"><stop offset="0" stop-color="#036"/><stop offset=".561" stop-color="#0cf"/><stop offset="1" stop-color="#fff"/></radialGradient><radialGradient gradientUnits="userSpaceOnUse" r="819.2" cx="0" cy="0" spreadMethod="pad" gradientTransform="matrix(.017 0 0 .016 75.15 60.05)" id="h"><stop offset="0" stop-color="#036"/><stop offset=".561" stop-color="#0cf"/><stop offset="1" stop-color="#fff"/></radialGradient><radialGradient gradientUnits="userSpaceOnUse" r="819.2" cx="0" cy="0" spreadMethod="pad" gradientTransform="matrix(.016 0 0 .015 91.4 38.95)" id="i"><stop offset="0" stop-color="#036"/><stop offset=".561" stop-color="#0cf"/><stop offset="1" stop-color="#fff"/></radialGradient><linearGradient gradientUnits="userSpaceOnUse" x1="-819.2" x2="819.2" gradientTransform="matrix(.006 0 0 .015 84.85 39.5)" id="j"><stop offset="0" stop-color="#FF3922"/><stop offset=".29" stop-color="#932114"/><stop offset=".949"/></linearGradient><radialGradient gradientUnits="userSpaceOnUse" r="819.2" cx="0" cy="0" spreadMethod="pad" gradientTransform="matrix(.012 0 0 .012 87.2 59)" id="k"><stop offset="0" stop-color="#036"/><stop offset=".561" stop-color="#0cf"/><stop offset="1" stop-color="#fff"/></radialGradient><linearGradient gradientUnits="userSpaceOnUse" x1="-819.2" x2="819.2" gradientTransform="matrix(.006 0 0 .012 83.3 61.2)" id="l"><stop offset="0" stop-color="#FF3922"/><stop offset=".29" stop-color="#932114"/><stop offset=".949"/></linearGradient><radialGradient gradientUnits="userSpaceOnUse" r="819.2" cx="0" cy="0" spreadMethod="pad" gradientTransform="matrix(.019 0 0 .018 80.1 76.6)" id="m"><stop offset="0" stop-color="#036"/><stop offset=".561" stop-color="#0cf"/><stop offset="1" stop-color="#fff"/></radialGradient><radialGradient gradientUnits="userSpaceOnUse" r="819.2" cx="0" cy="0" spreadMethod="pad" gradientTransform="matrix(.006 0 0 .006 71.7 74.7)" id="n"><stop offset="0" stop-color="#036"/><stop offset=".561" stop-color="#0cf"/><stop offset="1" stop-color="#fff"/></radialGradient><radialGradient gradientUnits="userSpaceOnUse" r="819.2" cx="0" cy="0" spreadMethod="pad" gradientTransform="matrix(.02 0 0 .018 45.8 77.55)" id="o"><stop offset="0" stop-color="#036"/><stop offset=".561" stop-color="#0cf"/><stop offset="1" stop-color="#fff"/></radialGradient><radialGradient gradientUnits="userSpaceOnUse" r="819.2" cx="0" cy="0" spreadMethod="pad" gradientTransform="matrix(.029 0 0 .027 46.65 86.5)" id="p"><stop offset="0" stop-color="#036"/><stop offset=".561" stop-color="#0cf"/><stop offset="1" stop-color="#fff"/></radialGradient><radialGradient gradientUnits="userSpaceOnUse" r="819.2" cx="0" cy="0" spreadMethod="pad" gradientTransform="matrix(.011 0 0 .01 69.8 91.1)" id="q"><stop offset="0"/><stop offset=".561" stop-color="#666"/><stop offset="1" stop-color="#fff"/></radialGradient><radialGradient gradientUnits="userSpaceOnUse" r="819.2" cx="0" cy="0" spreadMethod="pad" gradientTransform="matrix(.012 0 0 .011 56.85 95.75)" id="r"><stop offset="0"/><stop offset=".561" stop-color="#666"/><stop offset="1" stop-color="#fff"/></radialGradient><linearGradient gradientUnits="userSpaceOnUse" x1="-819.2" x2="819.2" gradientTransform="matrix(.017 0 0 .017 16.95 15.15)" id="s"><stop offset="0" stop-color="#FF3922"/><stop offset=".29" stop-color="#932114"/><stop offset=".949"/></linearGradient><radialGradient gradientUnits="userSpaceOnUse" r="819.2" cx="0" cy="0" spreadMethod="pad" gradientTransform="matrix(.022 0 0 .02 11.05 14)" id="t"><stop offset="0" stop-color="#036"/><stop offset=".561" stop-color="#0cf"/><stop offset="1" stop-color="#fff"/></radialGradient><radialGradient gradientUnits="userSpaceOnUse" r="819.2" cx="0" cy="0" spreadMethod="pad" gradientTransform="matrix(.015 0 0 .014 5.75 39.5)" id="u"><stop offset="0" stop-color="#036"/><stop offset=".561" stop-color="#0cf"/><stop offset="1" stop-color="#fff"/></radialGradient><radialGradient gradientUnits="userSpaceOnUse" r="819.2" cx="0" cy="0" spreadMethod="pad" gradientTransform="matrix(.026 0 0 .025 20 20.45)" id="v"><stop offset="0" stop-color="#036"/><stop offset=".561" stop-color="#0cf"/><stop offset="1" stop-color="#fff"/></radialGradient><radialGradient gradientUnits="userSpaceOnUse" r="819.2" cx="0" cy="0" spreadMethod="pad" gradientTransform="matrix(.014 0 0 .013 10.2 57.95)" id="w"><stop offset="0" stop-color="#036"/><stop offset=".561" stop-color="#0cf"/><stop offset="1" stop-color="#fff"/></radialGradient><radialGradient gradientUnits="userSpaceOnUse" r="819.2" cx="0" cy="0" spreadMethod="pad" gradientTransform="matrix(.011 0 0 .01 35.05 15.15)" id="x"><stop offset="0" stop-color="#036"/><stop offset=".561" stop-color="#0cf"/><stop offset="1" stop-color="#fff"/></radialGradient><linearGradient gradientUnits="userSpaceOnUse" x1="-819.2" x2="819.2" gradientTransform="matrix(.005 0 0 .018 43.8 26.35)" id="y"><stop offset="0" stop-color="#FF3922"/><stop offset=".29" stop-color="#932114"/><stop offset=".949"/></linearGradient><linearGradient gradientUnits="userSpaceOnUse" x1="-819.2" x2="819.2" gradientTransform="matrix(.009 0 0 .007 32.95 23.5)" id="z"><stop offset="0" stop-color="#FF3922"/><stop offset=".29" stop-color="#932114"/><stop offset=".949"/></linearGradient><radialGradient gradientUnits="userSpaceOnUse" r="819.2" cx="0" cy="0" spreadMethod="pad" gradientTransform="matrix(.013 0 0 .012 21.05 41.5)" id="A"><stop offset="0" stop-color="#036"/><stop offset=".561" stop-color="#0cf"/><stop offset="1" stop-color="#fff"/></radialGradient><radialGradient gradientUnits="userSpaceOnUse" r="819.2" cx="0" cy="0" spreadMethod="pad" gradientTransform="matrix(.011 0 0 .01 32.85 33.7)" id="B"><stop offset="0" stop-color="#036"/><stop offset=".561" stop-color="#0cf"/><stop offset="1" stop-color="#fff"/></radialGradient><linearGradient gradientUnits="userSpaceOnUse" x1="-819.2" x2="819.2" gradientTransform="matrix(.004 0 0 .011 10.6 40.95)" id="C"><stop offset="0" stop-color="#FF3922"/><stop offset=".29" stop-color="#932114"/><stop offset=".949"/></linearGradient><radialGradient gradientUnits="userSpaceOnUse" r="819.2" cx="0" cy="0" spreadMethod="pad" gradientTransform="matrix(.014 0 0 .013 21.55 52.9)" id="D"><stop offset="0" stop-color="#036"/><stop offset=".561" stop-color="#0cf"/><stop offset="1" stop-color="#fff"/></radialGradient><linearGradient gradientUnits="userSpaceOnUse" x1="-819.2" x2="819.2" gradientTransform="matrix(.004 0 0 .011 14.95 57.3)" id="E"><stop offset="0" stop-color="#FF3922"/><stop offset=".29" stop-color="#932114"/><stop offset=".949"/></linearGradient><radialGradient gradientUnits="userSpaceOnUse" r="819.2" cx="0" cy="0" spreadMethod="pad" gradientTransform="matrix(.756 0 0 .705 -9.2 -2.35)" id="F"><stop offset="0" stop-color="#ff9"/><stop offset=".427" stop-color="#fc0"/><stop offset=".894"/></radialGradient><radialGradient gradientUnits="userSpaceOnUse" r="819.2" cx="0" cy="0" spreadMethod="pad" gradientTransform="matrix(.009 0 0 .009 27.9 67.4)" id="G"><stop offset="0" stop-color="#036"/><stop offset=".561" stop-color="#0cf"/><stop offset="1" stop-color="#fff"/></radialGradient><radialGradient gradientUnits="userSpaceOnUse" r="819.2" cx="0" cy="0" spreadMethod="pad" gradientTransform="matrix(.02 0 0 .019 20.4 69.1)" id="H"><stop offset="0" stop-color="#036"/><stop offset=".561" stop-color="#0cf"/><stop offset="1" stop-color="#fff"/></radialGradient><radialGradient gradientUnits="userSpaceOnUse" r="819.2" cx="0" cy="0" spreadMethod="pad" gradientTransform="matrix(.011 0 0 .01 24.1 94.9)" id="I"><stop offset="0"/><stop offset=".561" stop-color="#666"/><stop offset="1" stop-color="#fff"/></radialGradient><radialGradient gradientUnits="userSpaceOnUse" r="819.2" cx="0" cy="0" spreadMethod="pad" gradientTransform="matrix(.009 0 0 .008 39.55 97)" id="J"><stop offset="0"/><stop offset=".561" stop-color="#666"/><stop offset="1" stop-color="#fff"/></radialGradient><radialGradient gradientUnits="userSpaceOnUse" r="819.2" cx="0" cy="0" spreadMethod="pad" gradientTransform="matrix(.026 0 0 .026 88.65 13.45)" id="K"><stop offset="0" stop-color="#036"/><stop offset=".561" stop-color="#0cf"/><stop offset="1" stop-color="#fff"/></radialGradient></defs><path d="M61.7 41.8q-1.05 2.35-3.25 3.8-2.45 1.6-5.8.65h-.1l-2.85-.75-8-1.8h-1.9l-3.05.85q-2.25 1.6-3.6.45l-4.3-4.65.6-1.8 1.3.2 6.6-.5q1.15-.1 2 .5 1.05.75 1.4 2.55l2.3-.45 4.65.25 6 1.75q1.45.55 2.2-.3l3.15-2.95 1.15 1.15 1.5 1.05M49.45 49l-.3 3.45-.1.55-7.25-1.9-.1-4.35 6.1 1.6 1.65.65m-1.15 9.65v.55l-.5 2.75-2.45-.85-2.7-1.35-.45-3.4 6.1 2.3m-1.05 5.1q1.7 0 2.2.95l.25.7-.1.95-.45 1.6q-.5 1.05-1.8 1.05-3.45-.1-6.1-1.8l.2-2.2.55-.75.65-.4.4-.45.2-.1.2 1.15v.35l.55 1.35q.85 1.15 2.75-.3l-.1-.55.6-1.45v-.1m20 34.2l-.8.1-.35-.3-2.3-3.15-1.15-2.2 1.65-.1q.65 2.5 2.25 4.7l.7.95m-19.55 1.6l-1.4.1-.6-5.25 1.55-.35.45 5.5m-14.85-.2h-1.3l.85-4.95.55.1h.1l-.2 4.85m8.1-92.6L40.1 4l14.55-1.15-5.3 1.55-.7.1-7.7 2.25M61.5 6.1l1.15.3-2.75 4.55-.65 2-3.15-.55 3.5-3.45 1.9-2.85"/><path fill="url(#a)" d="M65.5 3.7q2.6 2.2 6.3 3.45 5.25 1.9 6.75 6.85 1.05 3.7 3.35 6.85l.45.65q2.6 4 2.2 8.5l-.1 1.4-.2.3-4 5.7-3.4 3.25-1.15.75q-2.3 1.35-4.85 2.2l-5.15.1-1.15-.4q-1.5-.65-2.85-1.5l-1.5-1.05-1.15-1.15q-1.05-1.05-1.7-2.4l-1.25-3.05-.4-3.4q0-3.35 1.35-6.4l1.05-2.85.45-1.6q-.45 0-.35-1.15l1.05-5.8.65-2 2.75-4.55 2.85-2.7m-6.65 14.6l-.3 1.6.3-1.6"/><path fill="url(#b)" d="M72.2.2l6.75 8.65q3.05 3.8 6.85 6.85l2.65 2.6L90 20.85q1.5 2.95 1.8 6.2l-2.3.45-2.2 1.25-2.85 2.65.1-1.4q.4-4.5-2.2-8.5l-.45-.65Q79.6 17.7 78.55 14q-1.5-4.95-6.75-6.85-3.7-1.25-6.3-3.45l2.1-1.6 1.65-.95L72.2.2"/><path fill="url(#c)" d="M41.25 9.8v-.1l-.2-2.75-.1-.2 7.7-2.25.7-.1 5.3-1.55 2.6-.1q1.6 2 3.5 3.05l.75.3-1.9 2.85-3.5 3.45-7.9-.8-5.8-.25h-1.15V9.8"/><path fill="url(#d)" d="M48.2 11.6l7.9.8 3.15.55-1.05 5.8q-.1 1.15.35 1.15l-.45 1.6-15.25.95 1.45-4.35 3.9-6.5"/><path fill="url(#e)" d="M42.85 22.45l15.25-.95-1.05 2.85q-1.35 3.05-1.35 6.4l.4 3.4-6.75-2.35Q46 30.65 42.4 30.75l-.1-1.6q-.3-3.55.55-6.7"/><path fill="url(#f)" d="M56.1 34.15l1.25 3.05q.65 1.35 1.7 2.4l-3.15 2.95q-.75.85-2.2.3l-6-1.75-4.65-.25-.65-10.1q3.6-.1 6.95 1.05l6.75 2.35"/><path fill="url(#g)" d="M67.8 48.75h-.1l-.3-.1q-3.9-.95-2.85-5.35l1.15.4 5.15-.1q2.55-.85 4.85-2.2l1.15-.75 3.4-3.25 1.15 4.5 1.05 7.5.1 2.1-3.9.1-10.85-2.85"/><path fill="url(#h)" d="M67.8 48.75l10.85 2.85.3 6.1q.2 3.5 1.15 7l.65 2.3 1.9 4.1q-4 .95-7.35-2.1l-4.05-4.75-2-4.2Q67.4 55 67.8 48.75"/><path fill="url(#i)" d="M91.8 27.05l3.5.1.1.95q.2 3.6-.45 7.2l-1.65 6.95-2.1 5.15h-.15l-1.85 2.4-1.8 1.1 1.05-4.85.1-.85q.75-4.55.75-9.2l.2-8.5 2.3-.45"/><path fill="url(#j)" d="M84.45 31.4l2.85-2.65 2.2-1.25-.2 8.5q0 4.65-.75 9.2l-.1.85-1.05 4.85-3.05.5-1.8.1-.1-2.1-1.05-7.5-1.15-4.5 4-5.7h.2v-.3"/><path fill="url(#k)" d="M89.2 49.8q.1 6.05.7 10.05v3.75q-.4 2.65-2 4.45l-1.45-6.55q-.65-4.7-2-9.25l-.1-.85 3.05-.5 1.8-1.1"/><path fill="url(#l)" d="M87.9 68.05l-2.3 1.8-.1.1-2.85 1.15-1.9-4.1-.65-2.3q-.95-3.5-1.15-7l-.3-6.1 3.9-.1 1.8-.1.1.85q1.35 4.55 2 9.25l1.45 6.55"/><path fill="url(#m)" d="M85.6 69.85l1.9 5.45q1.35 3.6 1.45 7.5.35 8.3-4.4 5.25-4.95-3.05-8.45-8.2l-1.55-2.65-.65-1.15q-1.25-2.5-1.9-5.35l-.1-.35q-.65-2.95-.65-6.1L75.3 69q3.35 3.05 7.35 2.1l2.85-1.15.1-.1"/><path fill="url(#n)" d="M74.55 77.2q-3.05 2.35-5.7 1.15L72 70.7q.65 2.85 1.9 5.35l.65 1.15"/><path fill="url(#o)" d="M49.45 64.7h.35q3.15-.15 4.6 3.35l4.15 10 .6 1.15-.5 2.45q-1.15 4.6-5.3 7.35l-2 .85L43.8 91q-4.75.1-7.4-3.15l-2.6-4.55-1.4-5.35v-.3l1.4-5.7q.7-3.05 2.6-5.7l.1-.2q1.9-2.65 5.5-1.8l-.55.75-.2 2.2q2.65 1.7 6.1 1.8 1.3 0 1.8-1.05l.45-1.6.1-.95-.25-.7"/><path fill="url(#p)" d="M59.15 79.2l.55.75q1.65 2.65 4.3 4l.55.3q2.6 1.5 4.2 4.15l.65 1.05-1.4.95q-1.45 1.65-3.7 1.9l-1.65.1-.45-.1-5.65-.15-9.3 1.9-1.55.35h-.45l-5.9.5-6.3-.4h-.1l-.55-.1-6.1-.45q-2.75 0-2.4-2.4l1.35-.85 1.5-1.9 3.35-5.6q1.35-2.1 2.2-5.25h.1l1.4 5.35 2.6 4.55q2.65 3.25 7.4 3.15l7.55-1.15 2-.85q4.15-2.75 5.3-7.35l.5-2.45"/><path fill="url(#q)" d="M64.55 84.25h2.2l6.1 1.1q1.15.3 1.8 1.65l.1.1q1.6 3.4-1.15 5.8l-4.85 4.45-1.15.5-.35.1-.7-.95q-1.6-2.2-2.25-4.7 2.25-.25 3.7-1.9l1.4-.95-.65-1.05q-1.6-2.65-4.2-4.15"/><path fill="url(#r)" d="M66.45 98.05l-18.75 1.5-.45-5.5 9.3-1.9 5.65.15.45.1 1.15 2.2 2.3 3.15.35.3"/><path fill="url(#s)" d="M4.2 28.75L2.9 27.5l.95-2q1.5-4.55 1.8-9.3.35-2.1 1.5-3.8 2.2-3.15 6.2-5.15l3.7-2.2 3.8-2.85L22.2.95l3.7.75 5.05 1.65L26.4 6.1l-3.45 1.5-3.5.95q-5.25 1.15-7.8 5.65-2.3 4.1-3.35 8.55-.85 3.8-3.4 6.55l-.7-.55"/><path fill="url(#t)" d="M2.9 27.5l-1.85-3.3q-1.3-2.95-1.1-6.6.25-3.5 1.7-6.45l3.8-5.8 2.65-2.4 2.2-1.05 3.35-.95 6.55-.2 2 .2-1.35 1.25-3.8 2.85-3.7 2.2q-4 2-6.2 5.15-1.15 1.7-1.5 3.8-.3 4.75-1.8 9.3l-.95 2"/><path fill="url(#u)" d="M5.25 48.45l-.55-.5Q2.3 45.3 2.2 41.7l.7-6.65 1.1-4.7.9-1.05 3.6 3.05-.4 3.05q-.75 4.2-.1 8.4l1.35 5.8q-2.4.2-4.1-1.15"/><path fill="url(#v)" d="M30.95 3.35L32 3.8q3.05 1.45 3.05 5.45-3.25.75-5.6 4l-1.9 4.35v.1l-.8 1.55q-1.6 2.65-1.2 5.9v.65l.65 3.5 1.45 5.05-.6.7-3.9 1.3-3.05 1.15-4.55-1.05h-.2l-2.65-.85-2-1.25-2.2-2-3.6-3.05q2.55-2.75 3.4-6.55 1.05-4.45 3.35-8.55 2.55-4.5 7.8-5.65l3.5-.95 3.45-1.5 4.55-2.75"/><path fill="url(#w)" d="M14.3 67.1q-1.35.85-2.95-1.7L8.6 60.15 6.1 53l-.85-4.55q1.7 1.35 4.1 1.15l2.4-.3 1.3 13.4q.4 2.3 2 3.75l-.75.65"/><path fill="url(#x)" d="M35.05 9.25l3.7.1 2.5.45v1.55h1.15l-1.9 9.9-12.95-3.55v-.1l1.9-4.35q2.35-3.25 5.6-4"/><path fill="url(#y)" d="M42.4 11.35l5.8.25-3.9 6.5-1.45 4.35q-.85 3.15-.55 6.7l.1 1.6.65 10.1-2.3.45q-.35-1.8-1.4-2.55l.1-10 1.05-7.5 1.9-9.9"/><path fill="url(#z)" d="M26.2 29.3l-.65-3.5v-.65q-.4-3.25 1.2-5.9l.8-1.55 12.95 3.55-1.05 7.5-12.1.2-1.15.35"/><path fill="url(#A)" d="M28.85 40.35q-.75 1.55-2.1 2.65l-.25.1v.1l-2.7 1.65-1.6.75-5.9 2.35-.65.2-2 .6-1.05-9.35.1-3.8 2.65.85h.2l4.55 1.05 3.05-1.15 3.9-1.3.6-.7.95 3.25.75.95h.1l-.6 1.8"/><path fill="url(#B)" d="M39.35 38.75q-.85-.6-2-.5l-6.6.5-1.3-.2h-.1l-.75-.95-.95-3.25-1.45-5.05 1.15-.35 12.1-.2-.1 10"/><path fill="url(#C)" d="M8.5 32.35l2.2 2 2 1.25-.1 3.8 1.05 9.35-1.9.55-2.4.3L8 43.8q-.65-4.2.1-8.4l.4-3.05"/><path fill="url(#D)" d="M26.5 43.2l.95 6.2q.55 3.35-1.65 5.15l-.85.55q-2.35 1.35-3.8 3.55L18.1 62.7l-1.4-6.65-.1-.35q-.95-3.65-.95-7.55l.65-.2 5.9-2.35 1.6-.75 2.7-1.65"/><path fill="url(#E)" d="M11.75 49.3l1.9-.55 2-.6q0 3.9.95 7.55l.1.35 1.4 6.65-3.05 3.75q-1.6-1.45-2-3.75l-1.3-13.4"/><path fill="url(#F)" d="M49.7 45.5l-.25 3.5-1.65-.65-6.1-1.6V43.7l8 1.8m-.65 7.5l-.75 5.65-6.1-2.3-.4-5.25 7.25 1.9m-1.25 8.95l-.55 1.65v.25l-.6 1.45.1.55q-1.9 1.45-2.75.3l-.55-1.35v-.35l-.2-1.15-.6-3.55 2.7 1.35 2.45.85"/><path fill="url(#G)" d="M26.2 60.55q2.4 2 3.15 5.6l.2 1.25q.55 2.75.75 5.6l.1 1.25-3.9-5.35-1.05-.95v-.65q-.1-3.35.65-6.65l.1-.1"/><path fill="url(#H)" d="M26.2 60.55l-.1.1q-.75 3.3-.65 6.65v.65l.2 6.4q.15 3.4-.8 6.65-1.3 4.65-3.7.95L14.3 67.1l.75-.65 3.05-3.75 3.05-4.05q1.45-2.2 3.8-3.55l.85-.55q1.15 2.85.4 6"/><path fill="url(#I)" d="M31.55 99.35h-.7l-6.45 1.05-6.2-.55-1.15-.7Q15.35 96.9 16 92.4l3.9-2.45q3.15-2.2 5.35.75l-1.35.85q-.35 2.4 2.4 2.4l6.1.45-.85 4.95"/><path fill="url(#J)" d="M46.3 99.65l-13.45-.3.2-4.85 6.3.4 5.9-.5h.45l.6 5.25"/><path fill="url(#K)" d="M91.8 27.05q-.3-3.25-1.8-6.2l-1.55-2.55-2.65-2.6q-3.8-3.05-6.85-6.85L72.2.2l1.4-.2 6.4.85q3.05.85 5.9 2.6L90.45 6q2.75 1.25 4.85 3.45l3.8 4.75q.8 1.15.95 3.6.2 3.6-1.4 6.65-1.35 2.3-3.35 2.7l-3.5-.1"/><path fill="none" stroke="#00C9FC" stroke-width=".05" stroke-linecap="round" stroke-miterlimit="3" d="M95.3 27.15l.1.95q.2 3.6-.45 7.2l-1.65 6.95-2.1 5.15h-.15l-1.85 2.4q.1 6.05.7 10.05v3.75q-.4 2.65-2 4.45m-2.3 1.8l1.9 5.45q1.35 3.6 1.45 7.5.35 8.3-4.4 5.25-4.95-3.05-8.45-8.2l-1.55-2.65q-3.05 2.35-5.7 1.15L72 70.7l-.1-.35q-.65-2.95-.65-6.1l-2-4.2Q67.4 55 67.8 48.75h-.1l-.3-.1q-3.9-.95-2.85-5.35-1.5-.65-2.85-1.5M49.45 64.7h.35q3.15-.15 4.6 3.35l4.15 10 .6 1.15.55.75q1.65 2.65 4.3 4l.55.3m-39.3 6.45l1.5-1.9 3.35-5.6q1.35-2.1 2.2-5.25l.1-.3 1.4-5.7q.7-3.05 2.6-5.7l.1-.2q1.9-2.65 5.5-1.8m-13.15-23.9q-.75 1.55-2.1 2.65l-.25.1v.1l.95 6.2q.55 3.35-1.65 5.15 1.15 2.85.4 6 2.4 2 3.15 5.6l.2 1.25q.55 2.75.75 5.6l.1 1.25-3.9-5.35-1.05-.95.2 6.4q.15 3.4-.8 6.65-1.3 4.65-3.7.95L14.3 67.1q-1.35.85-2.95-1.7L8.6 60.15 6.1 53l-.85-4.55-.55-.5Q2.3 45.3 2.2 41.7l.7-6.65 1.1-4.7.2-1.6M2.9 27.5l-1.85-3.3q-1.3-2.95-1.1-6.6.25-3.5 1.7-6.45l3.8-5.8 2.65-2.4 2.2-1.05 3.35-.95 6.55-.2 2 .2m8.75 2.4L32 3.8q3.05 1.45 3.05 5.45l3.7.1 2.5.45v-.1l-.2-2.75-.1-.2m13.7-3.9l2.6-.1q1.6 2 3.5 3.05l.75.3m1.15.3l2.85-2.7m18.95 27.7l-.2.3m3.15 19.2l1.8-1.1m-8.95-12.4l-3.4 3.25-1.15.75q-2.3 1.35-4.85 2.2l-5.15.1-1.15-.4M41.25 9.8v1.55h1.15m5.8.25l7.9.8m2 9.1l.45-1.6q-.45 0-.35-1.15l1.05-5.8-3.15-.55m0 21.75l1.25 3.05q.65 1.35 1.7 2.4m-.5-19.7l.3-1.6m3.8-11.9l-2.75 4.55-.65 2M4.9 29.3l3.6 3.05m4.2 3.25l2.65.85h.2l4.55 1.05 3.05-1.15 3.9-1.3.6-.7-1.45-5.05m1.35-11.6v-.1l1.9-4.35q2.35-3.25 5.6-4m-19.4 38.9l.65-.2 5.9-2.35 1.6-.75 2.7-1.65m-8.4 19.5l3.05-4.05q1.45-2.2 3.8-3.55l.85-.55m1.85-20.2l.95 3.25.75.95h.1m-4 29.4v-.65q-.1-3.35.65-6.65l.1-.1M9.35 49.6q-2.4.2-4.1-1.15m9.8 18l-.75.65m10.95 23.6l-1.35.85q-.35 2.4 2.4 2.4l6.1.45.55.1h.1l6.3.4 5.9-.5h.45l1.55-.35 9.3-1.9 5.65.15.45.1 1.65-.1q2.25-.25 3.7-1.9l1.4-.95-.65-1.05q-1.6-2.65-4.2-4.15m6.7-20L75.3 69q3.35 3.05 7.35 2.1m-8.1 6.1l-.65-1.15q-1.25-2.5-1.9-5.35m6.65-19.1L67.8 48.75"/><path fill="none" stroke="#5B140C" stroke-width=".05" stroke-linecap="round" stroke-miterlimit="3" d="M72.2.2l-2.95.95-1.65.95-2.1 1.6m18.95 27.7l2.85-2.65 2.2-1.25 2.3-.45m-3.9 41l-2.3 1.8M4.2 28.75L2.9 27.5M22.2.95l3.7.75 5.05 1.65m53.4 48.05l-1.8.1-3.9.1m4 19.5l2.85-1.15.1-.1m1.8-18.95l-3.05.5M42.4 11.35l5.8.25-3.9 6.5-1.45 4.35q-.85 3.15-.55 6.7l.1 1.6.65 10.1M58.1 21.5l-1.05 2.85q-1.35 3.05-1.35 6.4l.4 3.4m-15.6-12.9l1.9-9.9m-33.9 21l2.2 2 2 1.25m13.5-6.3l-.65-3.5v-.65q-.4-3.25 1.2-5.9l.8-1.55M4.9 29.3l-.7-.55m7.55 20.55l1.9-.55 2-.6m23.8-19.4l1.05-7.5m-1.15 17.5l.1-10M11.75 49.3l-2.4.3m8.75 13.1l-3.05 3.75m65.2-29.05l4-5.7"/><path fill="none" stroke="#8C7E00" stroke-width=".05" stroke-linecap="round" stroke-miterlimit="3" d="M49.7 45.5l-.25 3.5m-.4 4l-.75 5.65m-.5 3.3l-.55 1.65v.15m-4-.45l-.6-3.55m-.45-3.4l-.4-5.25m-.1-4.35V43.7"/><path fill="none" stroke="#9B9B9B" stroke-width=".05" stroke-linecap="round" stroke-miterlimit="3" d="M72.85 85.35q1.15.3 1.8 1.65l.1.1q1.6 3.4-1.15 5.8l-4.85 4.45-1.15.5-.35.1-.8.1-18.75 1.5-1.4.1-13.45-.3h-2l-6.45 1.05-6.2-.55-1.15-.7Q15.35 96.9 16 92.4"/><path fill="none" stroke="#949494" stroke-width=".05" stroke-linecap="round" stroke-miterlimit="3" d="M16 92.4l3.9-2.45q3.15-2.2 5.35.75m39.3-6.45h2.2l6.1 1.1"/><path fill="none" stroke="#008BBE" stroke-width=".05" stroke-linecap="round" stroke-miterlimit="3" d="M91.8 27.05l3.5.1q2-.4 3.35-2.7 1.6-3.05 1.4-6.65-.15-2.45-.95-3.6l-3.8-4.75Q93.2 7.25 90.45 6L85.9 3.45Q83.05 1.7 80 .85L73.6 0l-1.4.2"/></svg>