<svg xmlns="http://www.w3.org/2000/svg" viewBox="-0.1 -0.1 100.1 100.5" width="100.1" height="100.5"><defs><radialGradient gradientUnits="userSpaceOnUse" r="819.2" cx="0" cy="0" spreadMethod="pad" gradientTransform="matrix(-.004 0 0 .004 16 2)" id="a"><stop offset="0" stop-color="#930"/><stop offset=".843" stop-color="#f60"/></radialGradient><radialGradient gradientUnits="userSpaceOnUse" r="819.2" cx="0" cy="0" spreadMethod="pad" gradientTransform="matrix(-.057 0 0 .057 43.6 37.1)" id="b"><stop offset="0" stop-color="#930"/><stop offset=".843" stop-color="#f60"/></radialGradient><radialGradient gradientUnits="userSpaceOnUse" r="819.2" cx="0" cy="0" spreadMethod="pad" gradientTransform="matrix(-.01 0 0 .01 29.45 21.6)" id="c"><stop offset="0" stop-color="#ff9"/><stop offset=".176" stop-color="#FF3922"/><stop offset=".498"/></radialGradient><radialGradient gradientUnits="userSpaceOnUse" r="819.2" cx="0" cy="0" spreadMethod="pad" gradientTransform="matrix(-.017 0 0 .017 22.2 29.8)" id="d"><stop offset="0"/><stop offset=".58" stop-color="#900"/><stop offset="1"/></radialGradient><radialGradient gradientUnits="userSpaceOnUse" r="819.2" cx="0" cy="0" spreadMethod="pad" gradientTransform="matrix(-.733 0 0 .733 102.95 -1.1)" id="e"><stop offset="0" stop-color="#ff9"/><stop offset=".569" stop-color="#fc0"/><stop offset=".894"/></radialGradient><radialGradient gradientUnits="userSpaceOnUse" r="819.2" cx="0" cy="0" spreadMethod="pad" gradientTransform="matrix(-.017 0 0 .017 38.35 55.7)" id="f"><stop offset="0" stop-color="#930"/><stop offset=".843" stop-color="#f60"/></radialGradient><radialGradient gradientUnits="userSpaceOnUse" r="819.2" cx="0" cy="0" spreadMethod="pad" gradientTransform="matrix(-.018 0 0 .018 20.25 42.15)" id="g"><stop offset="0" stop-color="#930"/><stop offset=".843" stop-color="#f60"/></radialGradient><radialGradient gradientUnits="userSpaceOnUse" r="819.2" cx="0" cy="0" spreadMethod="pad" gradientTransform="matrix(-.013 0 0 .013 25.85 59.2)" id="h"><stop offset="0" stop-color="#930"/><stop offset=".843" stop-color="#f60"/></radialGradient><radialGradient gradientUnits="userSpaceOnUse" r="819.2" cx="0" cy="0" spreadMethod="pad" gradientTransform="matrix(-.008 0 0 .008 13.85 18.65)" id="i"><stop offset="0" stop-color="#930"/><stop offset=".843" stop-color="#f60"/></radialGradient><radialGradient gradientUnits="userSpaceOnUse" r="819.2" cx="0" cy="0" spreadMethod="pad" gradientTransform="matrix(-.008 0 0 .008 13.9 18.65)" id="j"><stop offset="0" stop-color="#ff9"/><stop offset=".176" stop-color="#FF3922"/><stop offset=".498"/></radialGradient><radialGradient gradientUnits="userSpaceOnUse" r="819.2" cx="0" cy="0" spreadMethod="pad" gradientTransform="matrix(-.005 0 0 .005 9.15 28.6)" id="k"><stop offset="0" stop-color="#930"/><stop offset=".843" stop-color="#f60"/></radialGradient><radialGradient gradientUnits="userSpaceOnUse" r="819.2" cx="0" cy="0" spreadMethod="pad" gradientTransform="matrix(-.012 0 0 .012 8.35 54.45)" id="l"><stop offset="0" stop-color="#930"/><stop offset=".843" stop-color="#f60"/></radialGradient><radialGradient gradientUnits="userSpaceOnUse" r="819.2" cx="0" cy="0" spreadMethod="pad" gradientTransform="matrix(-.004 0 0 .004 6.25 50.2)" id="m"><stop offset="0" stop-color="#930"/><stop offset=".843" stop-color="#f60"/></radialGradient><radialGradient gradientUnits="userSpaceOnUse" r="819.2" cx="0" cy="0" spreadMethod="pad" gradientTransform="matrix(-.017 0 0 .017 24.2 81.9)" id="n"><stop offset="0" stop-color="#930"/><stop offset=".843" stop-color="#f60"/></radialGradient><radialGradient gradientUnits="userSpaceOnUse" r="819.2" cx="0" cy="0" spreadMethod="pad" gradientTransform="matrix(-.003 0 0 .003 33.15 53.9)" id="o"><stop offset="0" stop-color="#930"/><stop offset=".843" stop-color="#f60"/></radialGradient><radialGradient gradientUnits="userSpaceOnUse" r="819.2" cx="0" cy="0" spreadMethod="pad" gradientTransform="matrix(-.008 0 0 .008 33.8 70.3)" id="p"><stop offset="0" stop-color="#930"/><stop offset=".843" stop-color="#f60"/></radialGradient><radialGradient gradientUnits="userSpaceOnUse" r="819.2" cx="0" cy="0" spreadMethod="pad" gradientTransform="matrix(-.007 0 0 .007 48.1 56.65)" id="q"><stop offset="0" stop-color="#930"/><stop offset=".843" stop-color="#f60"/></radialGradient><radialGradient gradientUnits="userSpaceOnUse" r="819.2" cx="0" cy="0" spreadMethod="pad" gradientTransform="matrix(-.007 0 0 .007 44.7 63.3)" id="r"><stop offset="0" stop-color="#930"/><stop offset=".843" stop-color="#f60"/></radialGradient><radialGradient gradientUnits="userSpaceOnUse" r="819.2" cx="0" cy="0" spreadMethod="pad" gradientTransform="matrix(-.013 0 0 .013 52.05 67.35)" id="s"><stop offset="0" stop-color="#930"/><stop offset=".843" stop-color="#f60"/></radialGradient><radialGradient gradientUnits="userSpaceOnUse" r="819.2" cx="0" cy="0" spreadMethod="pad" gradientTransform="matrix(-.026 0 0 .026 82.3 31.15)" id="t"><stop offset="0" stop-color="#930"/><stop offset=".843" stop-color="#f60"/></radialGradient><radialGradient gradientUnits="userSpaceOnUse" r="819.2" cx="0" cy="0" spreadMethod="pad" gradientTransform="matrix(-.008 0 0 .008 62.25 77.4)" id="u"><stop offset="0" stop-color="#930"/><stop offset=".843" stop-color="#f60"/></radialGradient><radialGradient gradientUnits="userSpaceOnUse" r="819.2" cx="0" cy="0" spreadMethod="pad" gradientTransform="matrix(-.007 0 0 .007 89.2 62.75)" id="v"><stop offset="0" stop-color="#930"/><stop offset=".843" stop-color="#f60"/></radialGradient><radialGradient gradientUnits="userSpaceOnUse" r="819.2" cx="0" cy="0" spreadMethod="pad" gradientTransform="matrix(-.005 0 0 .005 90.1 74.9)" id="w"><stop offset="0" stop-color="#930"/><stop offset=".843" stop-color="#f60"/></radialGradient><radialGradient gradientUnits="userSpaceOnUse" r="819.2" cx="0" cy="0" spreadMethod="pad" gradientTransform="matrix(-.012 0 0 .012 89.15 88.4)" id="x"><stop offset="0" stop-color="#930"/><stop offset=".843" stop-color="#f60"/></radialGradient><radialGradient gradientUnits="userSpaceOnUse" r="819.2" cx="0" cy="0" spreadMethod="pad" gradientTransform="matrix(-.015 0 0 .015 62.15 93.6)" id="y"><stop offset="0" stop-color="#930"/><stop offset=".843" stop-color="#f60"/></radialGradient></defs><path fill="#400000" d="M60.15 26.8l1.45 1.75q2.05 2.35 3.15 5.15l1.4 2.9.35.1q2.85 1.05 3.65 4.05l.5 2.5v2.9q3.05 2.15 5.35 5v.15l-11.65 1.6q-3.8-5.1-5.75-10.85.8 2.15 3 3.1 3.3 1.35 3.25-1.25-.2-10.55-10.9-12.1l.85-1.05q.7-.7.6-1.45-.1-2.85-2-4.75-1.15-1.1-2.9-1.9l-.7-.3.6-.95q.55-1.2-.5-2.05h.05l3.85 1.25q1.65.55 2.9 1.75l.1.15-1.85 1.05.05.05q1.05 1.15 1.85 1.5l.7.65q.9.75 2.45 1l.15.05M86.4 55.15l2.95 3.55-1.3.9-.1.05-2.6 1.75-.55-.75q-1.2-1.5-2.65-1.95l-1-.25 5.25-3.3m6.65 11.25q.7 2.75.35 5.65l-.1.45-4.45-.9v-.25q-.15-2.4-.8-4.55l5-.4m-1.5 11.75l-1.85 2.8-5.3.15-.25-1.35q0-1.25 1.1-1.8l1.6-1.1q2.4.45 4.7 1.3M67.25 66.7l1.5 2.05q1 1 2.35 1.65-1.55.05-2.55.55-1.1.55-1.6 1.75l.15 1.65-7.65-.95q2.9-2.15.9-5.05-.75-1.1-1.05-2.2l7.95.55m0 14.65l-.15 2.85q-.1 1.95.4 3.35l-.95-.15-12.9-.55q3.05-1.45 3.4-4.15l.3-2.7 5.4.4q2.05.15 3.9.75l.6.2M45.95 67.8q-1.85.8-3.55 1.95l-1.85 1.3-.9-.65-7.8-4.05q.45-.55.25-1.75l-1.25-.75-.4-.05h-.15v-.15q-.7-1.3-.5-2.7l.05-.05h.3q.1 1.6 1.25 2.3 1 .55 2.75.5l2.1-.4 2.7.15 2.9 1.45q2.2 1.1 4.2 2.45l-.1.45m-10.7 6.45l-2.1 1.1q-1 .5-1.65 1.2-1.5-.95-3.2-1.5l-6.95-2.3q2.5-.35 4.3-1.95l1.4-1.6q2.05.9 3.9 2.1l4.3 2.95M8.9 8.4l1.4-1.8 2.5-2.3.3-.2.65-.1 2.95-.05q-.35 1.55.15 3.55l-5.5.45-2.45.45m36.7 2.9l1.85.15 12.25-.7.15-.05 6.35-.4-5.45 2.9-5.6 2.85-1.8.75-2 .55-.85-1.45-.15-.2-.05-.05-1.8-2.25q-1.3-1.3-2.9-2.1m-2.1 36.45l-.4-1.4-.85-1.75-.05-.15h.05l1.75-.4q2.9-.55 5.5.05l.5.1v.05q1.15 2.7.6 5.4-2.3-1.05-4.85-1.55h-.1l-2.15-.35m26.4.8q.6-.7.7-1.85l.05-.55-.05.55q-.1 1.15-.7 1.85M24.35 18.5q-1.55-3.1 4.3-4.65l5.65-.5q-3.05.55-5.9 3.55 6.65-2.8 10.55 1.15l.75.8.7 1 .6 1.45q-.9-1.8-2.8-2.1h-1.6v.1l.15.2 2.35 4.65q-.85-1.25-3.9-1.8l-1.05-1.6-.6-.7q-2-2.55-5.4-2.2l-3.8.65M7.9 19.9l-3.15-.45q2.05-2 4.8-2.05-.45-1-1.9-1.5 4.35-2.15 6.7.3l.7.95-1.35.05q-3.2.25-5.6 2.55l-.2.15m7.85-2.7v-1.45l-.55-1.5 1.75 1.1q.75.85.45 2.15l-1.65-.3m50.9 56.6l.3-1.1-.3 1.1m-8.1-13.4q-2.3-1-5-1.4l-.95-.1q.5-1.25.15-3l-.25-.95q2.9-.1 5.45.75.45 1.8.5 3.7l.1 1"/><path fill="#fff" d="M8.65 41.4l-.6-.4q-.5-.45-.7-1.05-.65-1.6.15-3.15L9.25 34l-.35 3.55q0 1.5.25 2.85l.3 1.05-.8-.05m-2.8-14l-.85 1q-2.05 2.45-2.75 5.35-.25-2.35-.2-4.8.1-2.3 1.05-4.1l.6-1.05 1.9-2.3q.2 1 1.1 1.8l1.55 1.45-2.4 2.65m29.05 9.05q-.5 2-1.8 3.65l-1.45 1.7q.5-1.2.6-2.95l.05-1.4-.35-3.3-1.15-4.3.55-.2h.3q1.55-.3 2.65-1 1 2.35.95 5.1v.2l-.05.9-.3 1.6M11.35 42.6q-.5-.8-.7-1.8-.15-1 .3-1.85l1.85-3.4-1.05 2.85q-.8 2.1-.4 4.2m7.25.7q-.8-.3-.4-1.35l.75-1.65 1.9-3.25-.95 2.9q-.6 2.05-.6 4.2 0-.65-.7-.85m4.8-7.85l.45 1.2.3 1.75q0 1.15-.5 2.35l-1.5 2.45q-.9-.9-.9-1.75.1-1.2.75-2.25l.1-.15q1.1-1.65 1.3-3.6"/><path d="M21.3 21.95q2.15.85 3.55 2.6l-3.55.7q-3.35.15-5.9-1.6-.6-.45-.35-.9l.05-.1q1.45-1.95 4.85-1.1l1.35.4"/><path fill="#cc0" d="M65.15 19.35l4.3.1-3.75 1.5q.45.75 2.1 1.1l1.2.55q-.3 1-1.45.85l8.8 3.7q-.5.4-1.35.4l-2.6-.4 6.75 3.3-9.45-.55-.4-.05-3.4-1.6-5.75-1.45-.15-.05q-1.55-.25-2.45-1l-.7-.65q-.8-.35-1.85-1.5l-.05-.05 1.85-1.05 2.9-1.35q2.5-1.1 5.15-1.75l.3-.05"/><path fill="#660" d="M65.15 19.35l4.7-.8q2.75-.3 5.5.05l3.05.65 1.6.5q2.2.8 4.2 2.05l6.8 3.45q-6.2-1.4-12.6-1.2h-.1l-1.55.05 1.65.5q2.7.85 5.3 2.25 4.5 2.45 8.1 6.1 3.15 3.25 5.5 7l2.15 3.8-.1.1q-1.9-2.2-4.9-4.3-3.95-2.8-8.25-4.95l-4.45-2.1q2.25 3.8 2.2 8.5l-.3 2.1-4.45-5.5-5.4-5q-1.9-1.55-4.1-2.6v-.1l9.45.55-6.75-3.3 2.6.4q.85 0 1.35-.4l-8.8-3.7q1.15.15 1.45-.85l-1.2-.55q-1.65-.35-2.1-1.1l3.75-1.5-4.3-.1"/><path fill="url(#a)" d="M13.1 4.1l5.85-4.15-1.35 2.1q-.6.85-.9 1.9L13.75 4l-.65.1"/><path fill="url(#b)" d="M76.8 51.2h.25q5.75.45 8.8 3.4l.55.55-5.25 3.3h-.05l-10.75-.95-1.7.15q-3.45.75-2.45 5.85.35 1.8 1.05 3.2l-7.95-.55-.05-.45q-.55-2.6-.7-5.3l-.1-1q-.05-1.9-.5-3.7-2.55-.85-5.45-.75-.75-2-2.8-2.95l.7-1.65.2-.7q.55-2.7-.6-5.4l.05-.05H50l-.5-.1q-2.6-.6-5.5-.05l-1.75.4h-.05l-.25-.35q-.85-1.4-2.2-2.4l-.2-.15q-.9-2.15-1.1-4.5-.25 1.9-.6 2.25-.55-.15-1.25-1.55-.35-.75-.25-1.55-.75-.15-1.45.25l.3-1.6.05-.9q2.6-.35 4.35 1.3l-1.45-2.75-.45-.65 2.15-.15q3.2-.05 6.35.8-.25-1.85-1.35-3.25l-1.7-1.55 1.3-.95 1.1-.95q-1.1-.95-1.8-2.1l-.7-1.6.7 1.6q.7 1.15 1.8 2.1l-1.1.95-1.3.95 1.7 1.55q1.1 1.4 1.35 3.25-3.15-.85-6.35-.8l-2.15.15.45.65 1.45 2.75q-1.75-1.65-4.35-1.3v-.2q.05-2.75-.95-5.1-1.1.7-2.65 1h-.3l-.55.2-2.05.25-6.05-.3q-1.8-.15-2.85-1.2-.75-.75-1.1-1.9-2.2 2.6-5.7 1.55l-1.15-.5-1.35-.9-2.3-2.1L6.7 23.3q-.9-.8-1.1-1.8l-1.9 2.3q-1-1.45-2.85-.9l.05-1.1.45-1.1q1.25-2.15 3.2-3.75l.35-.3 1-1.8q1-1.35 2.3-2.35-.55-2.3.2-3.45l.5-.65 2.45-.45 5.5-.45.3.85 12.2 1.8q2.25.15 4.3.95l1.05.45q1.65-.85 3.8-1 3.05-.3 6.1.55l1 .2q1.6.8 2.9 2.1l1.8 2.25.05.05.15.2.85 1.45-1.85.2-4.8.05 4.6 1.5.6.25q1.05.85.5 2.05l-.6.95.7.3q1.75.8 2.9 1.9 1.9 1.9 2 4.75.1.75-.6 1.45l-.85 1.05q10.7 1.55 10.9 12.1.05 2.6-3.25 1.25-2.2-.95-3-3.1 1.95 5.75 5.75 10.85L76 51.3l.8-.1M41.9 17.45l2.8.15-2.8-.15m4.65 21.85q1.95 1.7 3.25 4.5l.2.4-.2-.4q-1.3-2.8-3.25-4.5M32.9 12.7l.5-.4 1.3-.75-1.3.75-.5.4m2.3 9.65q3.05.55 3.9 1.8l-2.35-4.65-.15-.2v-.1h1.6q1.9.3 2.8 2.1l-.6-1.45-.7-1-.75-.8q-3.9-3.95-10.55-1.15 2.85-3 5.9-3.55l-5.65.5q-5.85 1.55-4.3 4.65l-2.3.7q.6 1.5 2.55 2.05l6.25 1.55q3.5.7 5.4 2.15l.5.45-.15-.5-1.4-2.55m-13.9-.4l-1.35-.4q-3.4-.85-4.85 1.1l-.05.1q-.25.45.35.9 2.55 1.75 5.9 1.6l3.55-.7q-1.4-1.75-3.55-2.6m-6.25-4.8l-.7-.95q-2.35-2.45-6.7-.3 1.45.5 1.9 1.5-2.75.05-4.8 2.05l3.15.45-.7.55 1.3-.25 7.7-.55q1.95.05 3.55-1.25-1.15-.6-2.35-.9.3-1.3-.45-2.15l-1.75-1.1.55 1.5v1.45l-.7-.05m-9.55-.9l-.6.4.6-.4m.15 3.9L5.6 21.5l.05-1.35m4.65-9.05l-2.1 1.4 2.1-1.4m25.55 16.1l-1.55 1.45 1.55-1.45M54.6 48q1.65 2.35 2.7 5.4l.65 2.3-.65-2.3q-1.05-3.05-2.7-5.4"/><path fill="url(#c)" d="M35.2 22.35l1.4 2.55.15.5-.5-.45q-1.9-1.45-5.4-2.15l-6.25-1.55q-1.95-.55-2.55-2.05l2.3-.7 3.8-.65q3.4-.35 5.4 2.2l.6.7 1.05 1.6"/><path fill="url(#d)" d="M8.25 42.55l.05-.3.35-.85.8.05-.3-1.05L11 36.75q.95-1.85 1.25-3.95l.1-1.6v-.4q0-1.65-.45-3.05l1.15.5q3.5 1.05 5.7-1.55.35 1.15 1.1 1.9 1.05 1.05 2.85 1.2l6.05.3 2.05-.25 1.15 4.3-3.75 4.7Q26.6 41 24 42.8l-1.4.8-1.3.45-.25.1-6.25.65q-3 0-5.65-1.3l-.25-.15q-.55-.3-.65-.8m10.35.75q.7.2.7.85 0-2.15.6-4.2l.95-2.9-1.9 3.25-.75 1.65q-.4 1.05.4 1.35m-7.25-.7q-.4-2.1.4-4.2l1.05-2.85-1.85 3.4q-.45.85-.3 1.85.2 1 .7 1.8m12.05-7.15q-.2 1.95-1.3 3.6l-.1.15q-.65 1.05-.75 2.25 0 .85.9 1.75l1.5-2.45q.5-1.2.5-2.35l-.3-1.75-.45-1.2"/><path fill="url(#e)" d="M27.3 49.4q-.65-2.2-1.7-4.1 1.05-.4 1.9-1.2-1.95-1.45.6-2.8l.75-.8q1.1-1.85 2.8-2.8l.65-.25-.05 1.4q-.1 1.75-.6 2.95l1.45-1.7q1.3-1.65 1.8-3.65.7-.4 1.45-.25-.1.8.25 1.55.7 1.4 1.25 1.55.35-.35.6-2.25.2 2.35 1.1 4.5l.2.15q1.35 1 2.2 2.4l.25.35.05.15.85 1.75.4 1.4q.15 1.25-.55 2.15-.5.75-1.6 1.2-.35-.8-.9-1.4-.8-.7-2.05-1.1-2.75-.85-4.3 1.1-1.35 1.6-.3 2.65l-.35.2-1 1-.85-1.25q-1.05-1.35-2.55-2v1.25q-1.2-.35-1.55-1.55l-.2-.6"/><path fill="url(#f)" d="M43.5 47.75l2.15.35h.1q2.55.5 4.85 1.55l-.2.7-.7 1.65-.35-.15.35.15q-.95 1.8-2.8 3.15l-.75.55-.25.5q-1.05 1.7-2.6 3.05l-.35-.1-.3-.05.3.05.35.1-.9.65q-.75.5-1.1 1.25l-.7 1.05q-.7.9-1.65 1.25l-2.7-.15-2.1.4q-1.75.05-2.75-.5-1.15-.7-1.25-2.3h-.3l-2.05-.45q-2.35-.8-1.4-3.05 1.25-2.8 4.4-3.5l.35-.05q.65-.05 1.05.45 2.75 2.9 2.9-1.2h-.05l-1.25-.75q-1.05-1.05.3-2.65 1.55-1.95 4.3-1.1 1.25.4 2.05 1.1.55.6.9 1.4 1.1-.45 1.6-1.2.7-.9.55-2.15m-10.85 12.9l-2.5.25 2.5-.25m4.55 2.15l-.95.5.95-.5"/><path fill="url(#g)" d="M25.6 45.3l-1.25.2q-4.1.3-.1 2.15-.45.55-1.4.75l-4.6.4-4.05-.35q.3 1.3 1.7 1.65-1.8-.05-2.8-1.2-.5-.6-.8-1.4-.3-.75-.9-.95Q9.75 46.1 8.95 45q-.4-.55-.55-1.3l-.15-1.15q.1.5.65.8l.25.15q2.65 1.3 5.65 1.3l6.25-.65.25-.1 1.3-.45 1.4-.8q2.6-1.8 4.2-3.95l3.75-4.7.35 3.3-.65.25q-1.7.95-2.8 2.8l-.75.8q-2.55 1.35-.6 2.8-.85.8-1.9 1.2"/><path fill="url(#h)" d="M27.3 68.9h-.25l-.05.05-.4.05q-3.3.5-4.2-3h-.65q-3.15-.15-1.9-4 .65-1.9.85-4.1.25-3 2.35-5.1 1.9-2 4.25-3.4l.2.6q.35 1.2 1.55 1.55V50.3q1.5.65 2.55 2l-.45 1.55-.35.05q-3.15.7-4.4 3.5-.95 2.25 1.4 3.05l2.05.45-.05.05q-.2 1.4.5 2.7v.15h.15l.4.05 1.25.75q.2 1.2-.25 1.75-.5.7-2.05.4.35 1.4-2.5 2.15m-3.55-8.4q1 .4 1.5 1.75l.4 1.4q0 2.05-3.15 2.3l-.1.05.1-.05q3.15-.25 3.15-2.3l-.4-1.4q-.5-1.35-1.5-1.75m5.05 4.75l.55.6.45.9-.45-.9-.55-.6"/><path fill="url(#i)" d="M7.9 19.9l.2-.15-.05.2-.15-.05"/><path fill="url(#j)" d="M8.1 19.75q2.4-2.3 5.6-2.55l1.35-.05.55 1.05.15-1 1.65.3q1.2.3 2.35.9-1.6 1.3-3.55 1.25l-7.7.55-.45-.25.05-.2"/><path fill="url(#k)" d="M12.35 31.2Q9.3 29.65 8.9 32.5q-.1-1.3-1.15-3.15-1.7-.3-1.9-1.95l2.4-2.65 2.3 2.1 1.35.9q.45 1.4.45 3.05v.4"/><path fill="url(#l)" d="M13.1 48.9q-.85.45-.65 1.55.2 1.8 1.05 3.05.6.95 1.6 1.55 3.55 2.15-.65 3.55l.75.55q2.3 3-2.05 2.85-.75 1.9-3.75 1.85-2.15-.05-3.6-1.15-.9-.8-1.55-2.05l-.45-.05Q0 59.95-.05 56.35q0-.95.9-1.3 2.8-1.1 3.45-3.2l.1.05q.75.85 1.85.7 1.9-.2 2.8-2.95-.45-1.75-1.8-1.85.4-1.85 1.7-2.8.8 1.1 2.45 1.55.6.2.9.95.3.8.8 1.4m.3 9.75l1.05-.05-1.05.05m-3.7 1.7q.45-1.9 2.2-1.3 1.8.65 1.35 2.45l-.1.5.1-.5q.45-1.8-1.35-2.45-1.75-.6-2.2 1.3m-5-4q1.55-.5 3.05.7.95.7.45 1.95-.85 2-3.95 1.65Q7.35 61 8.2 59q.5-1.25-.45-1.95-1.5-1.2-3.05-.7"/><path fill="url(#m)" d="M4.3 51.8q-1.85-2.15.45-3.35 1.5-.75 2.5-.65 1.35.1 1.8 1.85-.9 2.75-2.8 2.95-1.1.15-1.85-.7l-.1-.1.1-.55-.1.55"/><path fill="url(#n)" d="M31.5 76.55q-1.6 1.65-.75 4.6l.1.15q2.55 1.7 6.35.95-.95 2.45-2.9 2.25-6.4-.6-8.1 3.25-1.95 4.25-7.7 3.05-4.15-.9-3.95-3.5-2.65-.5-3.15-3-.9-4.2 2.3-5.35.25-6.25 5.95-6.1l1.45-.05.25-.05 6.95 2.3q1.7.55 3.2 1.5M16.45 78.5l-2.75.45 2.75-.45m-.75 5.95q-1.05 1.6-1.15 2.85.1-1.25 1.15-2.85"/><path fill="url(#o)" d="M33.8 52.35l1.25.75h.05q-.15 4.1-2.9 1.2-.4-.5-1.05-.45l.45-1.55.85 1.25 1-1 .35-.2"/><path fill="url(#p)" d="M40.55 71.05l-2 1.3-3.3 1.9-4.3-2.95q-1.85-1.2-3.9-2.1l.25-.3q2.85-.75 2.5-2.15 1.55.3 2.05-.4l7.8 4.05.9.65"/><path fill="url(#q)" d="M52.5 54.95l.25.95q.35 1.75-.15 3-.45 1.35-1.8 2.2l-.35.25-.35-.25q-2.55-2.1-3.55 0-1.4-1.4-3.25-1.85 1.55-1.35 2.6-3.05l.25-.5.75-.55q1.85-1.35 2.8-3.15 2.05.95 2.8 2.95"/><path fill="url(#r)" d="M50.45 61.35Q48 62.9 45.7 63.8q-1.25.4-.55 1.25 1 1.15.9 2.3-2-1.35-4.2-2.45l-2.9-1.45q.95-.35 1.65-1.25l.7-1.05q.35-.75 1.1-1.25l.9-.65q1.85.45 3.25 1.85 1-2.1 3.55 0l.35.25"/><path fill="url(#s)" d="M50.45 61.35l.35-.25q1.35-.85 1.8-2.2l.95.1q2.7.4 5 1.4.15 2.7.7 5.3l.05.45q.3 1.1 1.05 2.2 2 2.9-.9 5.05h-.1v.15q-1.05.7-2.15.9l-.35.05-1.4-.15q-.5 1.1-2.7 1.35l-5-.45q-1.05.35-2.55-.35l-1.15-.7q-.9-.65-1.1-1.4-.15-.6.1-1.2.35-.8 1.4-1.65 1.25-1.05 1.5-2.15l.1-.45q.1-1.15-.9-2.3-.7-.85.55-1.25 2.3-.9 4.75-2.45m-1.1 12.35q-.65 1.2-1.6 1.55.95-.35 1.6-1.55m5.7-1.9q.85 1.6.4 2.55.45-.95-.4-2.55"/><path fill="url(#t)" d="M99.35 43.85l.1-.1-.1.15v-.05"/><path fill="url(#u)" d="M67.1 74.35l.15 7-.6-.2q-1.85-.6-3.9-.75l-5.4-.4q.15-2.9-.15-5.55 1.1-.2 2.15-.9l.1-.15 7.65.95"/><path fill="url(#v)" d="M89.35 58.7l2.3 3.75q1 1.9 1.4 3.95l-5 .4q-.85-2.95-2.7-5.4l2.6-1.75.1-.05 1.3-.9"/><path fill="url(#w)" d="M93.3 72.5q-.25 2.55-1.3 4.75l-.45.9q-2.3-.85-4.7-1.3 2.1-2 2-5.25l4.45.9"/><path fill="url(#x)" d="M89.7 80.95q-.6 1.25 1.4 2.75l.05.05q3.85 2.95 4.1 7.4 0 .9-.8 1.6-2.2 1.9-4.85 3.1 4.3-4.85-1.7-7.7-1-.45-1.75-1.05-1.55-1.15-2.35-2.8l-.5-1.15q-.4-1.25-.2-2.05h1.3l5.3-.15"/><path fill="url(#y)" d="M67.5 87.55q1.25 3.15 5.8 3.35-.15 1.3-1.2 1.85-3.5 1.65 1.45 2.35-1.65-.2-3 0-3.75.45-5.1 2.75-.6 1.05-1.8 1.55-4.95 2.2-5.55-.55-2.9 1.05-4.3 1-2.15-.1-2.65-1.75-.4-1.15-.35-2.1.05-1.4.85-2.35-.7-1.55-.5-3.3l.5-2q.35-.9 1.05-1.15l.95-.35 12.9.55.95.15m-9.35 9q-.2 1.4-.05 2.3-.15-.9.05-2.3m-2.4-4.9q-2.1.4-3.3 1.3l-.8.7.8-.7q1.2-.9 3.3-1.3"/><path fill="none" stroke="#660" stroke-width=".05" stroke-linecap="round" stroke-miterlimit="3" d="M69.3 29.85l-3.4-1.6-5.75-1.45m-3.35-4.3l2.9-1.35q2.5-1.1 5.15-1.75l.3-.05M55 23.6q1.05 1.15 1.85 1.5l.7.65q.9.75 2.45 1m-3.2-4.25l-1.85 1.05"/><path fill="none" stroke="#4A4A00" stroke-width=".05" stroke-linecap="round" stroke-miterlimit="3" d="M69.7 30q2.2 1.05 4.1 2.6l5.4 5 4.45 5.5.3-2.1q.05-4.7-2.2-8.5l4.45 2.1q4.3 2.15 8.25 4.95 3 2.1 4.9 4.3m.1-.1l-2.15-3.8q-2.35-3.75-5.5-7-3.6-3.65-8.1-6.1-2.6-1.4-5.3-2.25l-1.65-.5 1.55-.05h.1q6.4-.2 12.6 1.2l-6.8-3.45q-2-1.25-4.2-2.05l-1.6-.5-3.05-.65q-2.75-.35-5.5-.05l-4.7.8"/><path fill="none" stroke="#A53900" stroke-width=".05" stroke-linecap="round" stroke-miterlimit="3" d="M69.7 30l-.4-.15m6.7 21.3l.8.05h.25q5.75.45 8.8 3.4l.55.55m2.95 3.55l2.3 3.75q1 1.9 1.4 3.95m.25 6.1q-.25 2.55-1.3 4.75l-.45.9m-1.85 2.8q-.6 1.25 1.4 2.75l.05.05q3.85 2.95 4.1 7.4 0 .9-.8 1.6-2.2 1.9-4.85 3.1 4.3-4.85-1.7-7.7-1-.45-1.75-1.05-1.55-1.15-2.35-2.8l-.5-1.15q-.4-1.25-.2-2.05.2-.9 1.05-1.35m2.7-2.9q2.1-2 2-5.25m-.8-4.8q-.85-2.95-2.7-5.4m-4.2-2.95h-.05l-10.75-.95-1.7.15q-3.45.75-2.45 5.85.35 1.8 1.05 3.2m-.15 7.65l.15 7m.25 6.2q1.25 3.15 5.8 3.35-.15 1.3-1.2 1.85-3.5 1.65 1.45 2.35-1.65-.2-3 0-3.75.45-5.1 2.75-.6 1.05-1.8 1.55-4.95 2.2-5.55-.55-2.9 1.05-4.3 1-2.15-.1-2.65-1.75-.4-1.15-.35-2.1.05-1.4.85-2.35-.7-1.55-.5-3.3l.5-2q.35-.9 1.05-1.15l.95-.35m3.7-6.85q.15-2.9-.15-5.55l-.35.05-1.4-.15q-.5 1.1-2.7 1.35l-5-.45q-1.05.35-2.55-.35l-1.15-.7q-.9-.65-1.1-1.4-.15-.6.1-1.2.35-.8 1.4-1.65 1.25-1.05 1.5-2.15m-5.4 3.25l-2 1.3-3.3 1.9m-3.75 2.3q-1.6 1.65-.75 4.6l.1.15q2.55 1.7 6.35.95-.95 2.45-2.9 2.25-6.4-.6-8.1 3.25-1.95 4.25-7.7 3.05-4.15-.9-3.95-3.5-2.65-.5-3.15-3-.9-4.2 2.3-5.35.25-6.25 5.95-6.1l1.45-.05.25-.05m5.7-3.55l.25-.3h-.25l-.05.05-.4.05q-3.3.5-4.2-3h-.65q-3.15-.15-1.9-4 .65-1.9.85-4.1.25-3 2.35-5.1 1.9-2 4.25-3.4l.2.6q.35 1.2 1.55 1.55V50.3q1.5.65 2.55 2l.85 1.25 1-1 .35-.2 1.25.75h.05q-.15 4.1-2.9 1.2-.4-.5-1.05-.45l-.35.05q-3.15.7-4.4 3.5-.95 2.25 1.4 3.05l2.05.45M25.6 45.3l-1.25.2q-4.1.3-.1 2.15-.45.55-1.4.75l-4.6.4-4.05-.35q.3 1.3 1.7 1.65-1.8-.05-2.8-1.2-.85.45-.65 1.55.2 1.8 1.05 3.05.6.95 1.6 1.55 3.55 2.15-.65 3.55l.75.55q2.3 3-2.05 2.85-.75 1.9-3.75 1.85-2.15-.05-3.6-1.15-.9-.8-1.55-2.05l-.45-.05Q0 59.95-.05 56.35q0-.95.9-1.3 2.8-1.1 3.45-3.2v-.05q-1.85-2.15.45-3.35 1.5-.75 2.5-.65.4-1.85 1.7-2.8-.4-.55-.55-1.3l-.15-1.15.05-.3.35-.85m.5-1L11 36.75q.95-1.85 1.25-3.95l.1-1.6Q9.3 29.65 8.9 32.5q-.1-1.3-1.15-3.15-1.7-.3-1.9-1.95M3.7 23.8q-1-1.45-2.85-.9l.05-1.1.45-1.1q1.25-2.15 3.2-3.75l.35-.3 1-1.8q1-1.35 2.3-2.35-.55-2.3.2-3.45l.5-.65m4.2-4.3l5.85-4.15-1.35 2.1q-.6.85-.9 1.9m.15 3.55l.3.85 12.2 1.8q2.25.15 4.3.95l1.05.45q1.65-.85 3.8-1 3.05-.3 6.1.55l1 .2m5.75 6.05l-1.85.2-4.8.05 4.6 1.5m50.15 24.65l.6 1-.7-.85v-.05M44.7 17.6l-2.8-.15m-6.65 16.5q2.6-.35 4.35 1.3l-1.45-2.75-.45-.65 2.15-.15q3.2-.05 6.35.8-.25-1.85-1.35-3.25l-1.7-1.55 1.3-.95 1.1-.95q-1.1-.95-1.8-2.1l-.7-1.6M32.3 37.45l-.65.25q-1.7.95-2.8 2.8l-.75.8q-2.55 1.35-.6 2.8-.85.8-1.9 1.2M50 44.2l-.2-.4q-1.3-2.8-3.25-4.5m-3.05 8.45q.15 1.25-.55 2.15-.5.75-1.6 1.2-.35-.8-.9-1.4-.8-.7-2.05-1.1-2.75-.85-4.3 1.1-1.35 1.6-.3 2.65m-3.65 8.55l2.5-.25m2.05-49.1l-1.3.75-.5.4m2.3 9.65l1.4 2.55.15.5-.5-.45q-1.9-1.45-5.4-2.15l-6.25-1.55q-1.95-.55-2.55-2.05l2.3-.7m-3.05 3.45l-1.35-.4q-3.4-.85-4.85 1.1l-.05.1q-.25.45.35.9 2.55 1.75 5.9 1.6l3.55-.7q-1.4-1.75-3.55-2.6m-6.25-4.8l.7.05m1.65.3q1.2.3 2.35.9-1.6 1.3-3.55 1.25l-7.7.55-1.3.25.7-.55m-2.3 1.6l.05-1.35m-.75-3.5l.6-.4m2.7-3.75l2.1-1.4m1.6 16.65l1.15.5q3.5 1.05 5.7-1.55.35 1.15 1.1 1.9 1.05 1.05 2.85 1.2l6.05.3 2.05-.25m3.5-1.2l1.55-1.45m-23.95.55l-1.35-.9-2.3-2.1m4.1 6.45v-.4q0-1.65-.45-3.05m20.05 6.4l-3.75 4.7Q26.6 41 24 42.8l-1.4.8-1.3.45-.25.1-6.25.65q-3 0-5.65-1.3l-.25-.15q-.55-.3-.65-.8m.7 2.45q.8 1.1 2.45 1.55.6.2.9.95.3.8.8 1.4m18.5 3.4l-.45 1.55m-1.35 12.9l-.45-.9-.55-.6m-6.4.75l.1-.05q3.15-.25 3.15-2.3l-.4-1.4q-.5-1.35-1.5-1.75m3.55 8.4q2.85-.75 2.5-2.15 1.55.3 2.05-.4m4.4-3.05l.95-.5M13.15 62l.1-.5q.45-1.8-1.35-2.45-1.75-.6-2.2 1.3m4.75-1.75l-1.05.05M7.25 47.8q1.35.1 1.8 1.85-.9 2.75-2.8 2.95-1.1.15-1.85-.7l-.1-.1.1-.55m-.15 9.4Q7.35 61 8.2 59q.5-1.25-.45-1.95-1.5-1.2-3.05-.7m9.85 30.95q.1-1.25 1.15-2.85m-2-5.5l2.75-.45M52.6 58.9q-.45 1.35-1.8 2.2l-.35.25Q48 62.9 45.7 63.8q-1.25.4-.55 1.25 1 1.15.9 2.3m11.9-11.65l-.65-2.3q-1.05-3.05-2.7-5.4m-4 1.65l-.2.7-.7 1.65q2.05.95 2.8 2.95M49.7 52l-.35-.15m-6.05 7.4q1.55-1.35 2.6-3.05l.25-.5.75-.55q1.85-1.35 2.8-3.15m-6.4 7.25l-.35-.1-.3-.05m-3.7 4.35q.95-.35 1.65-1.25l.7-1.05q.35-.75 1.1-1.25l.9-.65q1.85.45 3.25 1.85 1-2.1 3.55 0l.35.25m8.1-.95q.15 2.7.7 5.3l.05.45m.05 7.4l.1-.15m-7.8 20.25l.8-.7q1.2-.9 3.3-1.3m2.35 7.2q-.15-.9.05-2.3m-.95-22.1q1.1-.2 2.15-.9m-3.9.8q.45-.95-.4-2.55m-7.3 3.45q.95-.35 1.6-1.55"/><path fill="none" stroke="#999" stroke-width=".05" stroke-linecap="round" stroke-miterlimit="3" d="M8.65 41.4l-.6-.4q-.5-.45-.7-1.05-.65-1.6.15-3.15L9.25 34l-.35 3.55q0 1.5.25 2.85m-3.3-13l-.85 1q-2.05 2.45-2.75 5.35-.25-2.35-.2-4.8.1-2.3 1.05-4.1l.6-1.05m31.2 12.65q-.5 2-1.8 3.65l-1.45 1.7q.5-1.2.6-2.95l.05-1.4M8.25 24.75L6.7 23.3q-.9-.8-1.1-1.8l-1.9 2.3m27.1 6.05l.55-.2h.3q1.55-.3 2.65-1 1 2.35.95 5.1v.2l-.05.9-.3 1.6M8.25 24.75l-2.4 2.65m2.8 14l.8.05-.3-1.05m9.45 2.9q.7.2.7.85 0-2.15.6-4.2l.95-2.9-1.9 3.25-.75 1.65q-.4 1.05.4 1.35m-7.25-.7q-.4-2.1.4-4.2l1.05-2.85-1.85 3.4q-.45.85-.3 1.85.2 1 .7 1.8M30.8 29.85l1.15 4.3.35 3.3m-8.9-2q-.2 1.95-1.3 3.6l-.1.15q-.65 1.05-.75 2.25 0 .85.9 1.75l1.5-2.45q.5-1.2.5-2.35l-.3-1.75-.45-1.2"/><path fill="none" stroke="#2B0000" stroke-width=".05" stroke-linecap="round" stroke-miterlimit="3" d="M60.15 26.8l1.45 1.75q2.05 2.35 3.15 5.15l1.4 2.9.35.1q2.85 1.05 3.65 4.05l.5 2.5v2.9q3.05 2.15 5.35 5m10.4 4l2.95 3.55m3.7 7.7q.7 2.75.35 5.65l-.1.45m-1.75 5.65l-1.85 2.8m-5.55-1.2q0-1.25 1.1-1.8l1.6-1.1m2-5.25v-.25q-.15-2.4-.8-4.55m-2.7-5.4l-.55-.75q-1.2-1.5-2.65-1.95l-1-.25m-13.9 8.25l1.5 2.05q1 1 2.35 1.65-1.55.05-2.55.55-1.1.55-1.6 1.75l.15 1.65m.15 7l-.15 2.85q-.1 1.95.4 3.35m-13.85-.7q3.05-1.45 3.4-4.15l.3-2.7m-11.4-12.2q-1.85.8-3.55 1.95l-1.85 1.3m-5.3 3.2l-2.1 1.1q-1 .5-1.65 1.2m-10.15-3.8q2.5-.35 4.3-1.95l1.4-1.6M8.9 8.4l1.4-1.8 2.5-2.3.3-.2m3.6-.15q-.35 1.55.15 3.55m28.75 3.8l1.85.15 12.25-.7.15-.05 6.35-.4-5.45 2.9-5.6 2.85-1.8.75-2 .55m-1.45 2h.05l3.85 1.25q1.65.55 2.9 1.75l.1.15m27.6 58.6l-.25-1.35m-29.2-56.2l.05.05m5 3.15l.15.05M43.5 47.75l-.4-1.4-.85-1.75-.05-.15m7.8-.25v.05q1.15 2.7.6 5.4M29.85 60.9h.3m40.5-14.75l-.05.55q-.1 1.15-.7 1.85M24.35 18.5l3.8-.65q3.4-.35 5.4 2.2l.6.7 1.05 1.6M7.9 19.9l.2-.15q2.4-2.3 5.6-2.55l1.35-.05m2.35.35l-1.65-.3m14.1 43.7l-.05.05q-.2 1.4.5 2.7v.15h.15l.4.05 1.25.75q.2 1.2-.25 1.75m7.1-2.9l-2.7-.15-2.1.4q-1.75.05-2.75-.5-1.15-.7-1.25-2.3m36.8 11.8l-.3 1.1m-8.1-13.4l-.1-1q-.05-1.9-.5-3.7m-5.45-.75l.25.95q.35 1.75-.15 3m-6.55 8.45l-.1.45m13.5 5.6q2.9-2.15.9-5.05-.75-1.1-1.05-2.2"/><path fill="none" stroke="#EAD200" stroke-width=".05" stroke-linecap="round" stroke-miterlimit="3" d="M27.3 49.4q-.65-2.2-1.7-4.1"/></svg>