<svg xmlns="http://www.w3.org/2000/svg" viewBox="-0.1 0 54.4 53.0" width="54.4" height="53"><defs><radialGradient gradientUnits="userSpaceOnUse" r="819.2" cx="0" cy="0" spreadMethod="pad" gradientTransform="matrix(-.006 0 0 .006 11.25 10.85)" id="a"><stop offset=".204" stop-color="#f00"/><stop offset=".682" stop-color="#cf0"/></radialGradient><radialGradient gradientUnits="userSpaceOnUse" r="819.2" cx="0" cy="0" spreadMethod="pad" gradientTransform="matrix(-.005 0 0 .005 8.55 13.15)" id="b"><stop offset=".204" stop-color="#f00"/><stop offset=".682" stop-color="#cf0"/></radialGradient><radialGradient gradientUnits="userSpaceOnUse" r="819.2" cx="0" cy="0" spreadMethod="pad" gradientTransform="matrix(-.027 -.017 -.013 .021 20.7 27.1)" id="c"><stop offset=".149" stop-color="#532A15"/><stop offset=".482" stop-color="#7B3D1E"/><stop offset=".588" stop-color="#542A15"/><stop offset=".78" stop-color="#201008"/><stop offset=".973" stop-color="#c63"/></radialGradient><radialGradient gradientUnits="userSpaceOnUse" r="819.2" cx="0" cy="0" spreadMethod="pad" gradientTransform="matrix(-.004 0 0 .004 7.8 17.2)" id="d"><stop offset="0" stop-color="#fff"/><stop offset=".353" stop-color="#f00"/><stop offset="1"/></radialGradient><radialGradient gradientUnits="userSpaceOnUse" r="819.2" cx="0" cy="0" spreadMethod="pad" gradientTransform="matrix(-.006 0 0 .006 14.05 22.95)" id="e"><stop offset=".149" stop-color="#532A15"/><stop offset=".482" stop-color="#7B3D1E"/><stop offset=".588" stop-color="#542A15"/><stop offset=".78" stop-color="#201008"/><stop offset=".973" stop-color="#c63"/></radialGradient><radialGradient gradientUnits="userSpaceOnUse" r="819.2" cx="0" cy="0" spreadMethod="pad" gradientTransform="matrix(-.004 0 0 .004 11.1 24.7)" id="f"><stop offset=".035" stop-color="#f30"/><stop offset=".761"/></radialGradient><radialGradient gradientUnits="userSpaceOnUse" r="819.2" cx="0" cy="0" spreadMethod="pad" gradientTransform="matrix(-.002 0 0 .002 5.2 22.85)" id="g"><stop offset="0" stop-color="#f00"/><stop offset="1"/></radialGradient><radialGradient gradientUnits="userSpaceOnUse" r="819.2" cx="0" cy="0" spreadMethod="pad" gradientTransform="matrix(-.002 0 0 .002 6.15 25.25)" id="h"><stop offset="0" stop-color="#f00"/><stop offset="1"/></radialGradient><radialGradient gradientUnits="userSpaceOnUse" r="819.2" cx="0" cy="0" spreadMethod="pad" gradientTransform="matrix(-.002 0 0 .002 2.05 25.1)" id="i"><stop offset="0" stop-color="#f00"/><stop offset="1"/></radialGradient><radialGradient gradientUnits="userSpaceOnUse" r="819.2" cx="0" cy="0" spreadMethod="pad" gradientTransform="matrix(-.001 0 0 .001 10.75 26.8)" id="j"><stop offset="0" stop-color="#f00"/><stop offset="1"/></radialGradient><radialGradient gradientUnits="userSpaceOnUse" r="819.2" cx="0" cy="0" spreadMethod="pad" gradientTransform="matrix(-.001 0 0 .001 12.25 26.6)" id="k"><stop offset="0" stop-color="#f00"/><stop offset="1"/></radialGradient><radialGradient gradientUnits="userSpaceOnUse" r="819.2" cx="0" cy="0" spreadMethod="pad" gradientTransform="matrix(-.003 0 0 .003 19.65 8.45)" id="l"><stop offset=".204" stop-color="#f00"/><stop offset=".682" stop-color="#cf0"/></radialGradient><radialGradient gradientUnits="userSpaceOnUse" r="819.2" cx="0" cy="0" spreadMethod="pad" gradientTransform="matrix(-.019 0 0 .019 42.6 9.85)" id="m"><stop offset=".204" stop-color="#f00"/><stop offset=".682" stop-color="#cf0"/></radialGradient><radialGradient gradientUnits="userSpaceOnUse" r="819.2" cx="0" cy="0" spreadMethod="pad" gradientTransform="matrix(-.017 0 0 .017 38.25 9.85)" id="n"><stop offset=".204" stop-color="#f00"/><stop offset=".682" stop-color="#cf0"/></radialGradient><radialGradient gradientUnits="userSpaceOnUse" r="819.2" cx="0" cy="0" spreadMethod="pad" gradientTransform="matrix(-.004 0 0 .004 24.25 15.1)" id="o"><stop offset=".204" stop-color="#f00"/><stop offset=".682" stop-color="#cf0"/></radialGradient><radialGradient gradientUnits="userSpaceOnUse" r="819.2" cx="0" cy="0" spreadMethod="pad" gradientTransform="matrix(-.009 .006 .011 .018 24.75 29.65)" id="p"><stop offset=".086" stop-color="#006"/><stop offset=".412" stop-color="#005B2A"/><stop offset="1" stop-color="#090"/></radialGradient><radialGradient gradientUnits="userSpaceOnUse" r="819.2" cx="0" cy="0" spreadMethod="pad" gradientTransform="matrix(-.008 0 0 .008 40.25 7.65)" id="q"><stop offset="0" stop-color="#fc0"/><stop offset="1"/></radialGradient><radialGradient gradientUnits="userSpaceOnUse" r="819.2" cx="0" cy="0" spreadMethod="pad" gradientTransform="matrix(-.008 0 0 .008 44.7 8.25)" id="r"><stop offset="0" stop-color="#FFED83"/><stop offset=".545" stop-color="#fc0"/><stop offset="1"/></radialGradient><radialGradient gradientUnits="userSpaceOnUse" r="819.2" cx="0" cy="0" spreadMethod="pad" gradientTransform="matrix(-.01 0 0 .01 41.65 15.35)" id="s"><stop offset="0" stop-color="#fc0"/><stop offset="1"/></radialGradient><radialGradient gradientUnits="userSpaceOnUse" r="819.2" cx="0" cy="0" spreadMethod="pad" gradientTransform="matrix(-.007 0 0 .007 42.4 17.2)" id="t"><stop offset="0" stop-color="#FFED83"/><stop offset=".545" stop-color="#fc0"/><stop offset="1"/></radialGradient><radialGradient gradientUnits="userSpaceOnUse" r="819.2" cx="0" cy="0" spreadMethod="pad" gradientTransform="matrix(-.009 0 0 .009 36.2 49.85)" id="u"><stop offset="0" stop-color="#f00"/><stop offset="1"/></radialGradient><radialGradient gradientUnits="userSpaceOnUse" r="819.2" cx="0" cy="0" spreadMethod="pad" gradientTransform="matrix(-.007 0 0 .012 24.45 37.1)" id="v"><stop offset=".149" stop-color="#532A15"/><stop offset=".482" stop-color="#7B3D1E"/><stop offset=".588" stop-color="#542A15"/><stop offset=".78" stop-color="#201008"/><stop offset=".973" stop-color="#c63"/></radialGradient></defs><path fill="#330" d="M36.15 21.7l1.3 1.85.05.05 3.9 4.65q1.2 1.1 2.6 1.75l2.65 1.6 2.45 2.2 1.85 2.55q.8 1.45.6 3.1-.2 1.6-.9 3.1l-.6 1.05-1.4 1.45-.45.3-1.25.55-.1.1-.5.3 2.7-2.8.1-.05q1.15-1.2 1.25-2.85.1-1.65-.4-3.2-.5-1.6-1.55-2.9l-2.2-2.4-2.55-2-5.45-3.4q-1.2-1.05-2-2.45l-.2-.5-.15-1.25.25-.8m1.8 13.8l-.35.85q-.8 1.35-.85 3.2 0 1.5 1 2.05.35.2.25.6l-.25 1.35v.1l-.05.65q-.05 1.8-.75 2.95l-1.6 2-.6-1.65q-1.2.45-2.35 1.3V46l-.35.1-1.3.55-1.15.7.3-1.35q.4-1.15 1.35-2l.15.7 1.9-.05q-.1 1.5.2 2.7 1.5-1.2 1.7-2.5 0 1.55.95 2.15.9-2 .25-3.8l-.15-.35q-.45-1.15-.25-2.5l.45-3.55 1.5-1.3m-11.1-1.25q-.5.7-.55 1.7l.3 2.55q.45 1.7 1.7 1.45l-1.25 2q-.55.8-1.65.95.85-.35 1.25-1.25.65-1.5-.15-3.05l-1.75-2.8q-.75-1.05-.65-2.5l.6.3 1.45.5.7.15M25 43l-1.3.65q-1 .75-1.6 1.7l.05-1.95q.1-1.15-.35-1.1-1.45.05-2.7.7l.4-.55q.9-1.15 1.9-1.8l-.35-.2-2.2.2 1.4-.75q.8-.45 1.65-.4l1.05 1.5 1.9.05-.6.75q-1.1 1.25-.1 1.3L25 43m-4.4-17.8l-.1.05q-.5.25-.5 1.05l.15.35q.75.55.2 1.25h.25l.25.2q.05.75-.65 1.1l-.45-.05q-.85-.4-1.15-1.15l-.05-.1q-.05-.95-.65-1.65-.55-.65-.5-1.55l.45-.5 1-.75.15-.2.05-.15.65-.75.75-.15.05.25v.3l-.1.3v.25l.1 1.15.15.7-.05.05m11.7-2.25q.35.5-.15 1.6l-.05.2q-.25.65-.2 1.1l.05.15q2.65-.05 1.6 1.9-.35.65-1 .8v-.45q-.3-.75-1.2-1.3L31 26.8q-1.1-.25-.75.75l-.35-.15q-.4-.35-.25-.75l.25-.35 1.8-1.7.5-1 .1-.65m.1 22.75v.3-.3"/><path d="M7.9 18.95l.65-.15.4-.2q.8-.75.5-1.95l-.2-.75q1.35 0 1.05 1.9-.15.95-.8 1.2l-1.2.05-.35-.1H7.9"/><path fill="#f00" d="M21.9 12.7l-.95-1.7-2.1-5.05V5.9l1.75-2.6L22.2.65l.35-.65L22 2.55q-.15.6.05 1.15l.8 1.45q.95 1.25 2.45.75l.95-.35q-.5 1.35-1.55 2.5l-.9 1.85v.85q.2.6.75 1 1.6 1 3.45 1.6l.65.25L26.8 15l-.35.45-1.8-.5q-1.65-.6-2.6-2l-.15-.25"/><path fill="url(#a)" d="M6.45 12.3l.1-.5q.2-1.1 1.15-1.7l-.2 1.25.05.6q1.7-.9 3.2-2.15.95-.75 1.2-1.75.1 1-.2 2l-.7 1.5q1.8.25 3.1-1l1.75-1.7q.2.8 0 1.65l-.65.9-1.5 1.25h-.05l-1.3.8-.25.15-.25.1-.45-.4-1.15-.7-.85-.2-3-.1"/><path fill="url(#b)" d="M6.45 12.3l3 .1.85.2 1.15.7.45.4-1 .95v.15q-.05.5-.6.6v-.05l-.65-1.4-.05-.2v-.35q-.7-.5-1.6-.45-.85.05-1.2.55l-.1.3-.95.6-.5.25-.1-1.95.55-1.7h.05v1.45l.55.95.15-1.1"/><path fill="url(#c)" d="M31.05 19.75l2.85-.1 1.65 1.3.6.75-.25.8.15 1.25.2.5q.8 1.4 2 2.45l5.45 3.4 2.55 2 2.2 2.4q1.05 1.3 1.55 2.9.5 1.55.4 3.2-.1 1.65-1.25 2.85l-.1.05-2.7 2.8-3.35 3-.45.35q-1.35.6-1.15-1.1l.5-1.85 4.5-3.55.75-.75q1.4-1.5.6-3.5-.7-1.85-2.05-3.6-1.3-1.75-3.5-1.9l-4.35-.1.1.45q.2.9 0 1.75l-1.5 1.3-.45 3.55q-.2 1.35.25 2.5l.15.35q.65 1.8-.25 3.8-.95-.6-.95-2.15-.2 1.3-1.7 2.5-.3-1.2-.2-2.7l-1.9.05-.15-.7.1-.1.3-.25 1.4-1.65-.6-1.4-.1-.1-2.75-4.4-.25-1.55.15-.7.2-.55.65-1.1-1.6-1.1-2.35-2.25-.55-.95-.05-1.1q.25-1.8-1.05-2.75l-4.85-4q-.7-.6-1.6-.75l-1.35-.05-.95.25-.15.1v-.05q-.15-.85-1-1h-.6v.15l-1.05-.95-.25 1.05-.9 1.15-.35.3-.3.2-2.8 2.2-.2.2-.1.05-.35.1q-.9.15-1.6.7l-.55.55-.9.15h-.2l-2.55.3-1.25-.1-.2-.1H.65Q-.5 23.95.3 23.2l.55-.65q.45-.75 1.35-.65l.05.05.95-.7q.85-.65.6-1.55l-.65-.6-.05-.35 1.1-1.45q.6-.65.6-1.65 0-.7.45-1l.5-.25.95-.6.1-.3q.35-.5 1.2-.55.9-.05 1.6.45v.35l.05.2.65 1.4v.05q.55-.1.6-.6v-.15l1-.95.25-.1.25-.15 1.8-.2 1.8-.5 1.9.1.35.15-.8.5 2.65.1q.95.05 1.75.6l.95.75.2.6h-.25l.25.05q.6.05 1.1.5l.55.6.3.45 1.4.1 2.35.05.6.15-.75.45-.1.65.55.5.8.45 1.25.25m-2.6 4.45l-.05.15-1.55 1.95q-.6.75-.2 1.35l1.45 1.4 1 1.4.8.15 1.35-.55-.4-.3h.65l.2-.05q.6-.2.85-1-.25.8-.85 1l-.2.05h-.65l.4.3-1.35.55-.8-.15-1-1.4-1.45-1.4q-.4-.6.2-1.35l1.55-1.95.05-.15-.55-.35-.6-.5-.25-.35v-.1q-.35-.8-.15-1.65-.2.85.15 1.65v.1l.25.35.6.5.55.35.05-.4-.05.4m4.1 4.5q.65-.15 1-.8 1.05-1.95-1.6-1.9l-.05-.15q-.05-.45.2-1.1l.05-.2q.5-1.1.15-1.6l-.1.65-.5 1-1.8 1.7-.25.35q-.15.4.25.75l.35.15q-.35-1 .75-.75l.35.15q.9.55 1.2 1.3v.45m-2.5-8.4l1.45 1.05.6.7.15.75.05.15-.05-.15-.15-.75-.6-.7-1.45-1.05m-20.8-4.4l-.7-1.35-.2.95-.9 1.4-1.05 1.25-.4.9.05.85 1.55-.85.3-.1h.05l.35.1L9.5 19q.65-.25.8-1.2.3-1.9-1.05-1.9M4.8 20.5l-.25-.35-.75-.45.75.45-.25-1.05v-.05l.25-.85.95-1.5-.95 1.5-.25.85v.05l.25 1.05.25.35M6.25 23q-.2-.35-.65-.35l-1.5.4L6.25 23m8.05-5.3l-.05.85.05-.85M32 30.75l-.75.55-.9.9.9-.9.75-.55m5 .9q.6.6.85 1.6v.05-.05q-.25-1-.85-1.6"/><path fill="url(#d)" d="M7.9 18.95l-.3.1-1.55.85-.05-.85.4-.9 1.05-1.25.9-1.4.2-.95.7 1.35.2.75q.3 1.2-.5 1.95l-.4.2-.65.15"/><path fill="url(#e)" d="M15.3 20.3l-.3.05v.05l-.35 1.05-.25.25-.85 1.2-.05.15-.3 1.8-.2 1.9q-.1.65-.8.7l.15-.2.05-.1.15-.25q.35-.65.3-1.4l-.35-2.75.05-1-3.2.8-.1.05-.8.25H8.4l.2-.2 2.8-2.2.3-.2.35-.3.9-1.15.25-1.05 1.05.95v-.15h.6q.85.15 1 1v.05l-.55.7m-1.05-1.6l-.2 1.35-.6 1.1-.35.3-.55.3.55-.3.35-.3.6-1.1.2-1.35"/><path fill="url(#f)" d="M12.2 27.45l-.1.1q-.35.25-.8 0v-.25l-.05-.4-.45-1.4-.95-1.55q-.45-.6-.5-1.4l3.2-.8-.05 1 .35 2.75q.05.75-.3 1.4l-.6-.85q-.2.6.45 1.1l-.05.1-.15.2"/><path fill="url(#g)" d="M6.25 23l-2.15.05 1.5-.4q.45 0 .65.35"/><path fill="url(#h)" d="M5.8 24.25l1.05 1.5.7.5q-1.3-.2-2.25-1.1l-.6-.75h.2l.9-.15"/><path fill="url(#i)" d="M2.15 24.7l1 1-.9-.3-1.35-.8 1.25.1"/><path fill="url(#j)" d="M11.3 27.3l-.25-.1q-.8-.15-.9-.9l1.1.6.05.4"/><path fill="url(#k)" d="M12.55 26.9l-.15.25q-.65-.5-.45-1.1l.6.85"/><path fill="url(#l)" d="M20.95 11L19 8.65q-1.15-1.1-.2-2.7h.05l2.1 5.05"/><path fill="url(#m)" d="M50.95 10.65l.55.25-2.65.75-1.25.4-6.1 1.45h-.1l-1.1.2-2.05.6-2.85 1.25q-1.4.7-.7 2.3l.75.85.6.35-.7.25-1.45.35-2.85.1q-.35-.6-.15-1.2l.25-.5 1.75-2.7.4-.85.35-2.05-.1-3.35q.05-1.65.6-3.15.65-1.5 2-2.2 1.45-.75 3-1.15L48.1 0h6.2l-5.6 1.65q-1.65.55-3.1 1.4l-.15.1-4.85 1.2q-1.3.5-2.75 1.35L35.6 7.6q-.7.8-.5 1.7l.55 1.05q1 1.25 2.6 1.6l1.7.25h1.45l9.55-1.55"/><path fill="url(#n)" d="M48.1 0l-8.95 2.6q-1.55.4-3 1.15-1.35.7-2 2.2-.55 1.5-.6 3.15l.1 3.35-.35 2.05-.4.85-1.75 2.7-.25.5q-.2.6.15 1.2l-1.25-.25-.8-.45-.55-.5.1-.65.75-.45 1.7-1.4.65-1.15.15-1.75q-.15-1.65-1.05-3.1l-.35-.65-.75-2.15q-.25-1.4 1-2.35l2.8-1.9q1.35-.85 2.9-1.4l3.1-.85 6.4-.7L48.1 0"/><path fill="url(#o)" d="M22.8 14.95l-.8-2h.05q.95 1.4 2.6 2l1.8.5-.2.6v.25l.1.95-1.4-.1-.3-.45-.55-.6q-.5-.45-1.1-.5v-.05l.25-.05-.45-.55"/><path fill="url(#p)" d="M29.35 34.55l-2.45-.3h-.05l-.7-.15-1.45-.5-.6-.3-.8-.85-.65-1.3-.3-1.2-.05-.05-.15-.85v-.1l-.35-1.3-.25-.4-.9-2.05v-.05l-.15-.7-.1-1.15v-.25l.1-.3v-.3l-.05-.25-.45-.7q-.65-.7-1.45-1l-1.85-.35-1.4.15.55-.7.15-.1.95-.25 1.35.05q.9.15 1.6.75l4.85 4q1.3.95 1.05 2.75l.05 1.1.55.95 2.35 2.25 1.6 1.1-.65 1.1-.2.55-.15.7"/><path fill="url(#q)" d="M39.95 12.2l-1.7-.25q-1.6-.35-2.6-1.6L35.1 9.3q-.2-.9.5-1.7l2.25-1.9q1.45-.85 2.75-1.35l4.85-1.2q-.5.4-.4 1.25l-1.8.8-2.35 1.5-1.95 1.8q-.75.85-.5 1.9l.2.5q.45.95 1.3 1.3"/><path fill="url(#r)" d="M39.95 12.2q-.85-.35-1.3-1.3l-.2-.5q-.25-1.05.5-1.9l1.95-1.8 2.35-1.5 1.8-.8v.15q.35 1.55 1.4 2.85 1.85 2.1 4.5 3.25L41.4 12.2h-1.45"/><path fill="url(#s)" d="M36.05 19.05l-.6-.35-.75-.85q-.7-1.6.7-2.3l2.85-1.25 2.05-.6 1.1-.2h.1l6.1-1.45 1.25-.4q-1.6.65-2.95 1.65l-.3.3-3.45.7-.35.1-.6.1-2.1.85q-1.2.65-1.2 1.9.05.65.4 1.2h-.05l-2.2.6"/><path fill="url(#t)" d="M45.6 13.6q-1.05.95-.9 2.55.15 1.8 1.1 3.3l1.05 1.4L45 19.4q-1.15-.65-2.6-.95l-2.05-.2-2.05.2q-.35-.55-.4-1.2 0-1.25 1.2-1.9l2.1-.85.6-.1.35-.1 3.45-.7"/><path fill="url(#u)" d="M42.55 49.65l-1.3 1q-2.05 1.4-4.3 2.05l-7.15.3q6.15-.75 8.1-2.65l4-3.65-.5 1.85q-.2 1.7 1.15 1.1"/><path fill="url(#v)" d="M25.4 42.9l-.25.05-.1.05H25l-.85.1q-1-.05.1-1.3l.6-.75-1.9-.05-1.05-1.5h.35q1.1.2.75-.85l-.6-1.95-.2-.5q-.4-1.3-.15-2.95l.6-2.1.65 1.3.8.85q-.1 1.45.65 2.5l1.75 2.8q.8 1.55.15 3.05-.4.9-1.25 1.25"/><path fill="none" stroke="#000" stroke-width=".05" stroke-linecap="round" stroke-linejoin="round" d="M38.3 18.45h-.05M25.4 42.9l-.25.05m-.1.05H25m-3.1-3.5h.35q1.1.2.75-.85l-.6-1.95-.2-.5q-.4-1.3-.15-2.95l.6-2.1m-2-5.95h-.05M5.7 11l.1-.25-.05.25m8 1.65h-.05m8.3.3l-.1-.25m-3.1-6.75l.05-.05M23 15.55l.25-.05-.45-.55m.2.6v.05"/><path fill="none" stroke="#C39C00" stroke-width=".05" stroke-linecap="round" stroke-linejoin="round" d="M45.6 3.05q1.45-.85 3.1-1.4L54.3 0h-6.2l-2.25.05-6.4.7-3.1.85q-1.55.55-2.9 1.4l-2.8 1.9q-1.25.95-1 2.35l.75 2.15.35.65q.9 1.45 1.05 3.1l-.15 1.75-.65 1.15-1.7 1.4m4.6 2.2l1.45-.35.7-.25m12.8-7.4q-1.6.65-2.95 1.65m-.3.3q-1.05.95-.9 2.55.15 1.8 1.1 3.3l1.05 1.4L45 19.4q-1.15-.65-2.6-.95l-2.05-.2-2.05.2m-.05 0l-2.2.6m14.9-8.4Q48.3 9.5 46.45 7.4q-1.05-1.3-1.4-2.85"/><path fill="none" stroke="#AA1E00" stroke-width=".05" stroke-linecap="round" stroke-linejoin="round" d="M48.85 11.65l2.65-.75-.55-.25-9.55 1.55h-.85m-.6 0l-1.7-.25q-1.6-.35-2.6-1.6m-.25 5.2l2.85-1.25 2.05-.6 1.1-.2h.1l6.1-1.45"/><path fill="none" stroke="#685300" stroke-width=".05" stroke-linecap="round" stroke-linejoin="round" d="M35.65 10.35L35.1 9.3q-.2-.9.5-1.7l2.25-1.9q1.45-.85 2.75-1.35l4.85-1.2m-9.4 15.9l-.6-.35-.75-.85q-.7-1.6.7-2.3"/><path fill="none" stroke="#f00" stroke-width=".05" stroke-linecap="round" stroke-linejoin="round" d="M47.6 12.05l1.25-.4"/><path fill="none" stroke="#C6A20F" stroke-width=".05" stroke-linecap="round" stroke-linejoin="round" d="M45.9 13.3l-.3.3"/><path fill="none" stroke="#403300" stroke-width=".05" stroke-linecap="round" stroke-linejoin="round" d="M45.45 3.15l.15-.1m-.55 1.35q-.1-.85.4-1.25m-.4 1.4V4.4"/><path fill="none" stroke="#8A0000" stroke-width=".05" stroke-linecap="round" stroke-linejoin="round" d="M21.9 12.7l-.95-1.7m-2.1-5.1l1.75-2.6L22.2.65l.35-.65L22 2.55q-.15.6.05 1.15l.8 1.45q.95 1.25 2.45.75l.95-.35q-.5 1.35-1.55 2.5l-.9 1.85v.85q.2.6.75 1 1.6 1 3.45 1.6l.65.25L26.8 15l-.35.45"/><path fill="none" stroke="#E48500" stroke-width=".05" stroke-linecap="round" stroke-linejoin="round" d="M26.45 15.45l-.2.6v.25l.1.95m-3.55-2.3l-.8-2M20.95 11L19 8.65q-1.15-1.1-.2-2.7"/><path fill="none" stroke="#9D0000" stroke-width=".05" stroke-linecap="round" stroke-linejoin="round" d="M7.55 11.95q1.7-.9 3.2-2.15.95-.75 1.2-1.75.1 1-.2 2l-.7 1.5q1.8.25 3.1-1"/><path fill="none" stroke="#607700" stroke-width=".05" stroke-linecap="round" stroke-linejoin="round" d="M14.15 10.55l1.75-1.7q.2.8 0 1.65l-.65.9-1.5 1.25m-8.5 2l-.1-1.95.55-1.7m.05 0v1.45l.55.95.15-1.1.1-.5q.2-1.1 1.15-1.7l-.2 1.25.05.6m6.15.7l-1.3.8"/><path fill="none" stroke="#2C160B" stroke-width=".05" stroke-linecap="round" stroke-linejoin="round" d="M12.4 13.45l1.8-.2 1.8-.5 1.9.1.35.15-.8.5 2.65.1q.95.05 1.75.6l.95.75.2.6m8.05 4.2l2.85-.1m-4.6-2.2l-.75.45-.1.65.55.5.8.45 1.25.25m15.3 26.55l-3.35 3m-.8-15.9l-4.35-.1.1.45q.2.9 0 1.75m-6.7 8.5l.1-.1.3-.25 1.4-1.65-.6-1.4-.1-.1-2.75-4.4-.25-1.55M8.3 22.9l-.35.1q-.9.15-1.6.7l-.55.55m-1.1.15l-2.55.3M.9 24.6l-.2-.1H.65Q-.5 23.95.3 23.2l.55-.65q.45-.75 1.35-.65l.05.05.95-.7q.85-.65.6-1.55l-.65-.6-.05-.35 1.1-1.45q.6-.65.6-1.65 0-.7.45-1m21.1 2.6l2.35.05.6.15M23 15.6q.6.05 1.1.5l.55.6.3.45 1.4.1M23 15.6l-.25-.05H23m3.9 5.7q-.2.85.15 1.65v.1l.25.35.6.5.55.35.05-.4m4.05 4.9q-.25.8-.85 1l-.2.05h-.65l.4.3-1.35.55-.8-.15-1-1.4-1.45-1.4q-.4-.6.2-1.35l1.55-1.95.05-.15m3.85-1.25l-.1.65-.5 1-1.8 1.7-.25.35q-.15.4.25.75l.35.15q-.35-1 .75-.75l.35.15q.9.55 1.2 1.3v.45m-.25-5.75l-.05-.15-.15-.75-.6-.7-1.45-1.05m6.1 1.4l-.6-.75-1.65-1.3m-22-5.95l-1 .95v.15q-.05.5-.6.6v-.05l-.65-1.4-.05-.2v-.35q-.7-.5-1.6-.45-.85.05-1.2.55l-.1.3-.95.6-.5.25M3.8 19.7l.75.45-.25-1.05v-.05l.25-.85.95-1.5m-.95 3.45l.25.35m9.45-1.8v-.15l.05-.85m-1.9-4.25l-.25.15-.25.1m18.45 18.5l.9-.9.75-.55m5.85 2.55v-.05q-.25-1-.85-1.6"/><path fill="none" stroke="#202000" stroke-width=".05" stroke-linecap="round" stroke-linejoin="round" d="M46.35 46.3l.5-.3.1-.1 1.25-.55.45-.3 1.4-1.45.6-1.05q.7-1.5.9-3.1.2-1.65-.6-3.1L49.1 33.8l-2.45-2.2L44 30q-1.4-.65-2.6-1.75l-3.9-4.65-.05-.05-1.3-1.85m1.8 13.8l-.35.85q-.8 1.35-.85 3.2 0 1.5 1 2.05.35.2.25.6l-.25 1.35v.1l-.05.65q-.05 1.8-.75 2.95l-1.6 2-.6-1.65q-1.2.45-2.35 1.3V46l-.35.1-1.3.55-1.15.7.3-1.35q.4-1.15 1.35-2m-4.4-9.75q-.5.7-.55 1.7l.3 2.55q.45 1.7 1.7 1.45l-1.25 2q-.55.8-1.65.95m-.4.1l-1.3.65q-1 .75-1.6 1.7l.05-1.95q.1-1.15-.35-1.1-1.45.05-2.7.7l.4-.55q.9-1.15 1.9-1.8l-.35-.2-2.2.2 1.4-.75q.8-.45 1.65-.4m-1.3-14.3l-.1.05q-.5.25-.5 1.05l.15.35q.75.55.2 1.25h.25l.25.2q.05.75-.65 1.1l-.45-.05q-.85-.4-1.15-1.15l-.05-.1q-.05-.95-.65-1.65-.55-.65-.5-1.55l.45-.5 1-.75.15-.2.05-.15.65-.75.75-.15m.15 3l.05-.05M32.4 46v-.3"/><path fill="none" stroke="#000264" stroke-width=".05" stroke-linecap="round" stroke-linejoin="round" d="M22.65 31.15l-.3-1.2-.05-.05-.15-.85v-.1l-.35-1.3-.25-.4-.9-2.05m3.45 8.1l.6.3 1.45.5.7.15m-4.2-3.1l.65 1.3.8.85"/><path fill="none" stroke="#00481C" stroke-width=".05" stroke-linecap="round" stroke-linejoin="round" d="M29.35 34.55l-2.45-.3h-.05m-6.4-12.05l-.45-.7q-.65-.7-1.45-1l-1.85-.35-1.4.15m5.35 4.85l-.15-.7-.1-1.15v-.25l.1-.3v-.3l-.05-.25m.2 2.95v.05"/><path fill="none" stroke="#3F1F0F" stroke-width=".05" stroke-linecap="round" stroke-linejoin="round" d="M29.35 34.55l.15-.7.2-.55.65-1.1"/><path fill="none" stroke="#4A0000" stroke-width=".05" stroke-linecap="round" stroke-linejoin="round" d="M42.55 49.65l-1.3 1q-2.05 1.4-4.3 2.05l-7.15.3q6.15-.75 8.1-2.65l4-3.65"/><path fill="none" stroke="#864322" stroke-width=".05" stroke-linecap="round" stroke-linejoin="round" d="M41.9 46.7l4.5-3.55.75-.75q1.4-1.5.6-3.5-.7-1.85-2.05-3.6-1.3-1.75-3.5-1.9"/><path fill="none" stroke="#31180C" stroke-width=".05" stroke-linecap="round" stroke-linejoin="round" d="M15.3 20.3l-.3.05v.05l-.35 1.05-.25.25-.85 1.2-.05.15-.3 1.8-.2 1.9q-.1.65-.8.7l-.1.1q-.35.25-.8 0v-.25l-.25-.1m-1.7-4.65l-.1.05-.8.25-.15.05m4.25-1.15l.55-.3.35-.3.6-1.1.2-1.35m-1.7 8.2q.35-.65.3-1.4l-.35-2.75.05-1-3.2.8m1.9 4.35l.05.4m1.25-.4l-.15.25-.05.1-.15.2"/><path fill="none" stroke="#211008" stroke-width=".05" stroke-linecap="round" stroke-linejoin="round" d="M9.25 15.9l-.7-1.35-.2.95-.9 1.4-1.05 1.25-.4.9.05.85 1.55-.85.3-.1.65-.15.4-.2q.8-.75.5-1.95l-.2-.75"/><path fill="none" stroke="#430D00" stroke-width=".05" stroke-linecap="round" stroke-linejoin="round" d="M11.05 27.2q-.8-.15-.9-.9l1.1.6-.45-1.4-.95-1.55q-.45-.6-.5-1.4m-3.55 1.7l1.05 1.5.7.5q-1.3-.2-2.25-1.1l-.6-.75h.2l.9-.15m-3.65.45l1 1-.9-.3-1.35-.8 1.25.1m4.1-1.7l-2.15.05 1.5-.4q.45 0 .65.35m6.15 4.15q-.65-.5-.45-1.1l.6.85"/></svg>