<svg xmlns="http://www.w3.org/2000/svg" viewBox="0.1 0 100.0 77.2" width="100" height="77.2"><defs><radialGradient gradientUnits="userSpaceOnUse" r="819.2" cx="0" cy="0" spreadMethod="pad" gradientTransform="matrix(.013 0 0 .011 54.5 3.25)" id="a"><stop offset="0"/><stop offset=".325" stop-color="#EA0000"/><stop offset=".639" stop-color="#f60"/><stop offset=".851"/></radialGradient><radialGradient gradientUnits="userSpaceOnUse" r="819.2" cx="0" cy="0" spreadMethod="pad" gradientTransform="matrix(.066 0 0 .066 53.7 41.15)" id="b"><stop offset="0"/><stop offset=".561" stop-color="#fc6"/><stop offset="1" stop-color="#fc0"/></radialGradient><radialGradient gradientUnits="userSpaceOnUse" r="819.2" cx="0" cy="0" fx="87942.4" fy="0" spreadMethod="repeat" gradientTransform="matrix(.01 0 0 .01 3.35 28.5)" id="c"><stop offset="0"/><stop offset=".325" stop-color="#EA0000"/><stop offset=".639" stop-color="#f60"/><stop offset=".851"/></radialGradient><radialGradient gradientUnits="userSpaceOnUse" r="819.2" cx="0" cy="0" spreadMethod="pad" gradientTransform="matrix(.004 0 0 .004 30.95 41.1)" id="d"><stop offset="0"/><stop offset=".561" stop-color="#fc6"/><stop offset="1" stop-color="#fc0"/></radialGradient><radialGradient gradientUnits="userSpaceOnUse" r="819.2" cx="0" cy="0" spreadMethod="pad" gradientTransform="matrix(.007 0 0 .007 40.25 52.15)" id="e"><stop offset="0"/><stop offset=".561" stop-color="#fc6"/><stop offset="1" stop-color="#fc0"/></radialGradient><radialGradient gradientUnits="userSpaceOnUse" r="819.2" cx="0" cy="0" spreadMethod="pad" gradientTransform="matrix(.002 0 0 .002 41.65 46.6)" id="f"><stop offset="0"/><stop offset=".561" stop-color="#fc6"/><stop offset="1" stop-color="#fc0"/></radialGradient><radialGradient gradientUnits="userSpaceOnUse" r="819.2" cx="0" cy="0" spreadMethod="pad" gradientTransform="matrix(.001 0 0 .001 38.55 45.55)" id="g"><stop offset="0"/><stop offset=".561" stop-color="#fc6"/><stop offset="1" stop-color="#fc0"/></radialGradient><radialGradient gradientUnits="userSpaceOnUse" r="819.2" cx="0" cy="0" spreadMethod="pad" gradientTransform="matrix(.015 0 0 .015 25.15 55.75)" id="h"><stop offset="0"/><stop offset=".467" stop-color="#0f0"/><stop offset=".945"/></radialGradient><radialGradient gradientUnits="userSpaceOnUse" r="819.2" cx="0" cy="0" spreadMethod="pad" gradientTransform="matrix(.003 0 0 .003 48.7 59.2)" id="i"><stop offset="0"/><stop offset=".561" stop-color="#fc6"/><stop offset="1" stop-color="#fc0"/></radialGradient><radialGradient gradientUnits="userSpaceOnUse" r="819.2" cx="0" cy="0" spreadMethod="pad" gradientTransform="matrix(.002 0 0 .002 27.25 41.9)" id="j"><stop offset="0"/><stop offset=".561" stop-color="#fc6"/><stop offset="1" stop-color="#fc0"/></radialGradient><radialGradient gradientUnits="userSpaceOnUse" r="819.2" cx="0" cy="0" spreadMethod="pad" gradientTransform="matrix(.003 0 0 .003 23.1 47.6)" id="k"><stop offset="0"/><stop offset=".561" stop-color="#fc6"/><stop offset="1" stop-color="#fc0"/></radialGradient><radialGradient gradientUnits="userSpaceOnUse" r="819.2" cx="0" cy="0" spreadMethod="pad" gradientTransform="matrix(.004 0 0 .004 28.75 46.75)" id="l"><stop offset="0"/><stop offset=".561" stop-color="#fc6"/><stop offset="1" stop-color="#fc0"/></radialGradient><radialGradient gradientUnits="userSpaceOnUse" r="819.2" cx="0" cy="0" spreadMethod="pad" gradientTransform="matrix(.007 0 0 .007 17.6 41.6)" id="m"><stop offset="0"/><stop offset=".561" stop-color="#fc6"/><stop offset="1" stop-color="#fc0"/></radialGradient><radialGradient gradientUnits="userSpaceOnUse" r="819.2" cx="0" cy="0" spreadMethod="pad" gradientTransform="matrix(.003 0 0 .003 19.2 48.45)" id="n"><stop offset="0"/><stop offset=".561" stop-color="#fc6"/><stop offset="1" stop-color="#fc0"/></radialGradient><radialGradient gradientUnits="userSpaceOnUse" r="819.2" cx="0" cy="0" spreadMethod="pad" gradientTransform="matrix(.003 0 0 .003 14.9 49.05)" id="o"><stop offset="0"/><stop offset=".561" stop-color="#fc6"/><stop offset="1" stop-color="#fc0"/></radialGradient><radialGradient gradientUnits="userSpaceOnUse" r="819.2" cx="0" cy="0" spreadMethod="pad" gradientTransform="matrix(.001 0 0 .001 16 51.2)" id="p"><stop offset="0"/><stop offset=".561" stop-color="#fc6"/><stop offset="1" stop-color="#fc0"/></radialGradient><radialGradient gradientUnits="userSpaceOnUse" r="819.2" cx="0" cy="0" spreadMethod="pad" gradientTransform="matrix(.002 0 0 .002 42.35 65.05)" id="q"><stop offset="0"/><stop offset=".561" stop-color="#fc6"/><stop offset="1" stop-color="#fc0"/></radialGradient><radialGradient gradientUnits="userSpaceOnUse" r="819.2" cx="0" cy="0" spreadMethod="pad" gradientTransform="matrix(.002 0 0 .002 43.45 65.4)" id="r"><stop offset="0"/><stop offset=".561" stop-color="#fc6"/><stop offset="1" stop-color="#fc0"/></radialGradient><radialGradient gradientUnits="userSpaceOnUse" r="819.2" cx="0" cy="0" spreadMethod="pad" gradientTransform="matrix(.01 0 0 .01 39.85 71.45)" id="s"><stop offset="0"/><stop offset=".561" stop-color="#fc6"/><stop offset="1" stop-color="#fc0"/></radialGradient><radialGradient gradientUnits="userSpaceOnUse" r="819.2" cx="0" cy="0" spreadMethod="pad" gradientTransform="matrix(.002 0 0 .002 40.55 64.5)" id="t"><stop offset="0"/><stop offset=".561" stop-color="#fc6"/><stop offset="1" stop-color="#fc0"/></radialGradient><radialGradient gradientUnits="userSpaceOnUse" r="819.2" cx="0" cy="0" spreadMethod="pad" gradientTransform="matrix(.004 0 0 .004 51.1 69.1)" id="u"><stop offset="0"/><stop offset=".561" stop-color="#fc6"/><stop offset="1" stop-color="#fc0"/></radialGradient><radialGradient gradientUnits="userSpaceOnUse" r="819.2" cx="0" cy="0" spreadMethod="pad" gradientTransform="matrix(.004 0 0 .004 88.95 61.35)" id="v"><stop offset="0"/><stop offset=".561" stop-color="#fc6"/><stop offset="1" stop-color="#fc0"/></radialGradient><radialGradient gradientUnits="userSpaceOnUse" r="819.2" cx="0" cy="0" spreadMethod="pad" gradientTransform="matrix(.003 0 0 .003 77.85 59.75)" id="w"><stop offset="0"/><stop offset=".561" stop-color="#fc6"/><stop offset="1" stop-color="#fc0"/></radialGradient><radialGradient gradientUnits="userSpaceOnUse" r="819.2" cx="0" cy="0" spreadMethod="pad" gradientTransform="matrix(.005 0 0 .005 81.5 49.55)" id="x"><stop offset="0"/><stop offset=".561" stop-color="#fc6"/><stop offset="1" stop-color="#fc0"/></radialGradient><radialGradient gradientUnits="userSpaceOnUse" r="819.2" cx="0" cy="0" spreadMethod="pad" gradientTransform="matrix(.011 0 0 .011 64.2 50.75)" id="y"><stop offset="0"/><stop offset=".561" stop-color="#fc6"/><stop offset="1" stop-color="#fc0"/></radialGradient><radialGradient gradientUnits="userSpaceOnUse" r="819.2" cx="0" cy="0" spreadMethod="pad" gradientTransform="matrix(.003 0 0 .003 59.05 57.95)" id="z"><stop offset="0"/><stop offset=".561" stop-color="#fc6"/><stop offset="1" stop-color="#fc0"/></radialGradient><radialGradient gradientUnits="userSpaceOnUse" r="819.2" cx="0" cy="0" spreadMethod="pad" gradientTransform="matrix(.004 0 0 .004 66.65 67.7)" id="A"><stop offset="0"/><stop offset=".561" stop-color="#fc6"/><stop offset="1" stop-color="#fc0"/></radialGradient><radialGradient gradientUnits="userSpaceOnUse" r="819.2" cx="0" cy="0" spreadMethod="pad" gradientTransform="matrix(.004 0 0 .004 61.5 69.4)" id="B"><stop offset="0"/><stop offset=".561" stop-color="#fc6"/><stop offset="1" stop-color="#fc0"/></radialGradient><radialGradient gradientUnits="userSpaceOnUse" r="819.2" cx="0" cy="0" spreadMethod="pad" gradientTransform="matrix(.002 0 0 .002 80.7 63.3)" id="C"><stop offset="0"/><stop offset=".561" stop-color="#fc6"/><stop offset="1" stop-color="#fc0"/></radialGradient><radialGradient gradientUnits="userSpaceOnUse" r="819.2" cx="0" cy="0" spreadMethod="pad" gradientTransform="matrix(.003 0 0 .003 71.8 63)" id="D"><stop offset="0"/><stop offset=".561" stop-color="#fc6"/><stop offset="1" stop-color="#fc0"/></radialGradient><radialGradient gradientUnits="userSpaceOnUse" r="819.2" cx="0" cy="0" spreadMethod="pad" gradientTransform="matrix(.002 0 0 .002 73.45 67.4)" id="E"><stop offset="0"/><stop offset=".561" stop-color="#fc6"/><stop offset="1" stop-color="#fc0"/></radialGradient></defs><path fill="#990" d="M17.05 50.95l9.45 1.6L32.15 54l.6.15q.95.35 1.7.85l1 1.05-1 .65-.2.1-2.7.15q-2.8.8-5.15 1.8l-1.2.55.25-.45 1.15-3.3.25-1.15-5.15 2.8.9-2.25v-.4l-.2-.4-.35.3-.6.3-1.6.6.25-.85v-.4l-.15-.7-.05-.05-.25-.3-.2.25-.95.95q-1.9 1.6-2.95-.5l-.35-.8-.5-2.3.25.05 1.95.95.15-.7"/><path fill="url(#a)" d="M45 5.05l.05-.15q1.7-4.6 6.4-4.9 5.2-.25 7.75 3 2.1 2.65 1.9 5.75l-.7 2.95q-.65 1.7-1.65 2.9-2.4-3.2-2.05 1.75l-1.45.75q-1.55.65-1.45-.45L51.15 16q0-1.5 1.25-3.3-2.55-1-5.9.75l-.15-.1q-3.4-2.55-1.4-8.25l.05-.05"/><path fill="url(#b)" d="M95.95 57.4l1.45 1.75.3.45q1.35 2 1.95 4.3l.2 1.05v.1l.15 1.45-.05.7q-.3 3.5-4.5 3.65l-.6.05q-3.15 0-6.05-1.1l-1.7-.75q-3.35-1.65-6.9-1.55l-2.9.35q-2.2.5-4.2 1.35-1.9.8-3.65 1.95L66.9 73.1q-1.8 1.6-4 2.55l-3.8 1.15-5 .4-7.4-.85.55-1.85-.1-.9-.25-.85-.75-1.15-1.4-1.25-3.05-1.9q-1.95-1.05-4-1.6l-.7-.15-2.45.15q-.4.1-.75.35-.8.5-1.3 1.15l-1.6-1.65-.1-.75-.45-1.45-.15-.25q-.6-1.15-1.45-.65l-.5-1.15-1.35.4-1.1.6-.9.5q-3.45 1.75-6-.2l-.25-.2-1.05-1.1-2.15-3.05q-1.3-2.15-2.2-4.5L11 49.95l-.75-.65q-.85-1-.95-2.15-.05-.8.3-1.7l.6-1.1.65-.8q.85-.85 2.1-1.5.6 1.15 1.95 1.7l.2.1 1.55.35 1.05.1 1.55-.2.2-.05.75-.3.2-.1 1.15-1.05.4-.6.35-1.3-.05-1.3-.1-.5.65-.25 1.6-.75q2.55-1.4 3.4-3.65l.2-.55q.5-1.85.4-3.15-.1-1.65-1.25-2.45-1-.65-2.65-.7-1.1-.05-1.65.6-2.2 2.95-5.4 3.95l-1.5.35-.3.75q-1.05 2.45-3.3 4.05l-2.15 1.1q-.65-.25-.6-1.35v-.05l.3-.95 1.35-1.15.8-.7q1.1-1.2 1.3-2.9.2-1.45-.3-3.25-.35.45-1.2.35-.6-.1-.9-.4-.45-.4-.4-1.25l.05-.4q.85-.4 1.3-.8 1.25-1.25-.55-3.05Q10 21 7.65 20.7l-.15-.05-.05-.05Q9 18.05 12 19.6l4.6 2.7q4 2.5 8.55 1.45l2.6-.65q4-1.1 5.15 1.55l.25 1.05.1.4-.1 10.5q2.05-.2 4.4 1.4l.2.1L40 35.6q.9.1 2.3-.75 2-1.2 1.85-3.15l1.8-2.4.7-1.25.8-1.6.25-.65.55-2.5q.2-2.7-1.4-5.1l-.1-.05q-1.15-.75-1.6-2.35-2.05-1.95-2.65-4.35l-.8-2.3q-.95-2.2.95-3l2.3-1.1v.05q-2 5.7 1.4 8.25l.1.15.05-.05q3.35-1.75 5.9-.75-1.25 1.8-1.25 3.3l2.65.65q-.1 1.1 1.45.45l1.45-.75q-.35-4.95 2.05-1.75 1-1.2 1.65-2.9l.7-2.95.8-.6q1.2 4.95-1.15 8.65l-.8 1.4Q57.8 22 53.8 20.65l-2.9 8.75q-.5 2.3-2.2 4.15l-3.55 3.6-3.9 3.45.55.3.8.45 1.15.9 1.3 1.5.85 1.4.6 1.35q.75 2.05 1.85 3.4l7.4-.5 1.3 2q1 1.25 2.65 1.75l2 .4 3.75.15q3-.2 5.6-1.6 1.45-.8 1.6-2.45l-.1-1.4 5.1.5q.75.45 1.65.75l4.5.85 1.55-.05 3.05 1.4q1.3.7 2.5 1.55l.3.2.1.05 4.65 3.9m-7.6 1.1l-.25.2-.05.05-.5.4-.7 1.05q-.2.65.1 1.4.4.85 1.55 1.8l.25.2q2.1 1.65 2.35-.4l.05-.4q.05-1.05-.3-1.95l-.6-.95-.8-.85-.75-.55-.2-.1-.1-.1-.05.2m-7.3 4.2q-1.5-1.25-1.8.1l-.1.55v.15q.1 1.7 3.05.4l-1.15-1.2M45.8 13.85l.65-.35-.65.35m-.2 2.35l-.45-.4.45.4m7 2.55q-1.5-1.2-1.45-2.75-.05 1.55 1.45 2.75m-.45 1.2l1.65.7-1.65-.7m4.7-2.15l-.15-1.45.15 1.45m2.55-2.2l-.65-1 .65 1m-9.6 3.05q-1.8.25-2.95-.45 1.15.7 2.95.45M39.25 43.6l.7-1.3.95-1.25V41l.35-.35v-.05.05l-.35.35v.05l-.95 1.25-.7 1.3m1.85 2.1l-.2.45q-.8 1.65 1.65 1.2 1.4-.25 0-1.15l-1.25-.7h-.05q-.4-.15-.15.2M16.3 30.25l-.15 1.4-.2.65.2-.65.15-1.4m.75 20.7v-.9q-.15-3.05-4.15-2.9-.4 2 .55 2.3l.15.2q.35.45 1.1.9v.1h-.5l.25 1.7.35 1.3q.8 2.3 2.5 4.2l1.45 1.35.65.45q2.7 1.7 6.2 1.05l9.3-2 1.1-.6.1-.6-.1-.4v-.05l-.55-1-1-1.05q-.75-.5-1.7-.85l-.6-.15-5.65-1.45-9.45-1.6m11.45-10.8l.15.75.4.7.45.55 1.1.85.95.4.4.1 1.25-.15.25-.9-.05-.2v-.1l-.25-.9-.45-1.1q-1.3-2.6-3.8-.7l-.25-.15q-.2.4-.15.85m-1.95 1.1l-.2.65v.2q-.1 1.1 1.8.35l-.55-.7q-1-1.1-1.05-.5m-2 7.85q-1.25-2.4-2.4-3-.35.7-.35 1.65-.75 1.45 2.75 1.35m1.8-3.2q-.75 2.25 2.55 2.9 4.3.85.95-2.85l-.35-.35q-1.8-1.8-2.75-.65l-.35.75-.05.2m8.7-5.35l.5-.35 2.2-2.1-2.2 2.1-.5.35m3.85 5.9l.2-.3.3-.8q.1-.85-1.05-.65l-1.1.3.25.4.65.7.75.35m-2.4 7.3l.45.6 1.1 1.2q1.6 1.3 3.85 1.45 1.45.1 2.35-.5.85-.6 1.15-1.85l.1-1.05v-.5q-.05-3.35-3.15-5-3.45-1.75-6.35.2-1.1.7-.95 2.1l.05.55.55.25.2 1.25.65 1.3m3.2 10.45l.6 1.2.4.4.45.05.3-.05-.75-1.5-.25-.4-.7-.75-.1.8.05.25m-5.15-2.3q-.3.7-1.4.5-2.7-.5-4.9.05 2.2-.55 4.9-.05 1.1.2 1.4-.5m37.6-.55q-1.85-.3-2.2.3l-.05.1-.05.35.1.25q.15.5.65 1.1l.25.3.85.75q.95.6 1.6-.3l.25-.45.2-.8-.1-.55-.15-.35-.3-.4q-.5-.45-1.05-.3m6.8.3l.1-.65q.45-4.1-1.95-2.85-1.2 2.15.4 3.05l1.45.45m-17.45-2.6l-.2-.95-.25-.6-.85-1.2-.7-.45-1.75.2-.35.45q-.65.95-.8 1.65v.3l.05.3v.05l.3.55.7.45 2 .35h.45l1.1-.35.3-.75m5.15 6.45q-.45-.35-.85-.35-.4-.05-.75.2l-.2.1-.4.8-.3 1.05-.05.2q-.1.95.45 1.55l.25.3q.7.6 2.1.85 2.85.5 2.2-1.35l-.05-.15-.3-.7-.4-.6-.1-.1v-.05l-.55-.75-1.05-1m-3.2 3.8q-1.25-1.3-2.1-1.65l-1.15.05q-.5.35-.75 1.2h-.55l.1.9.1.15.35.55.2.2q.9.6 2.8.5 2.5-.1 1.3-1.6l-.3-.3m9.05-2.35l-.2.15-.1.15-.1.1q-.25.4 0 .9l.05-.05.1.15.3.1 2.3-.15v-.15L74.8 68l-.15-.95-.05-.05-.15-.3q-.55-.85-1.9.2l-.05.05M47 49.9h.5q.5 1.9 1.7 3.35l.8.85 1.95 1.4L50 54.1l-.8-.85Q48 51.8 47.5 49.9H47m2.75 8.8q-1.25-1.2-3.1-1.25l-.1.85.15.65.2.55.4.55q.05.9 2.7.9 1.3 0 .6-1.2l-.85-1.05m-.4 8.3v.35L49 68.4l-.05.05-.3.35.05.6.2.8.35.55.4.4q.55.45 1.4.65 2.9.85 2.5-1.2l-.05-.25-.45-1.2-.35-.65h-.05l-.15-.3v-.05l-.9-1.1q-1.05-.95-2.25-.85v.8m-6.75-3.2l-.5.6q-.45.85.45 1.75l.25.15 1.25.8.15-.7q.2-1.15 0-1.85-.35-.95-1.6-.75m4.65-15.05l.25 1.15-.25-1.15m-29.65-1.7q.25 2.7 3.15 2.85-.1-3.45-3.15-2.85"/><path fill="url(#c)" d="M9.9 35.85l-2.45.8q-4.2.85-6.2-2.85Q-.2 31.1.1 28.4l.05-.5.3-1.3.6-1.5q1.9-3.95 6.35-4.45h.1l.15.05q2.35.3 3.7 1.6 1.8 1.8.55 3.05-.45.4-1.3.8l-.05.4q-.05.85.4 1.25.3.3.9.4.85.1 1.2-.35.5 1.8.3 3.25-.2 1.7-1.3 2.9l-.8.7-.75.5-.6.65"/><path fill="url(#d)" d="M40 35.6l1.95-1.85 2.2-2.05q.15 1.95-1.85 3.15-1.4.85-2.3.75m-11.5 4.55q-.05-.45.15-.85l.25.15q2.5-1.9 3.8.7l.45 1.1.25.9v.1l.05.2-.25.9-1.25.15-.4-.1-.95-.4-1.1-.85-.45-.55-.4-.7-.15-.75"/><path fill="url(#e)" d="M36.5 53.75l-.65-1.3-.2-1.25-.55-.25-.05-.55q-.15-1.4.95-2.1 2.9-1.95 6.35-.2 3.1 1.65 3.15 5v.5l-.1 1.05q-.3 1.25-1.15 1.85-.9.6-2.35.5-2.25-.15-3.85-1.45l-1.1-1.2-.45-.6"/><path fill="url(#f)" d="M41.1 45.7l1.45 1.65q-2.45.45-1.65-1.2l.2-.45"/><path fill="url(#g)" d="M38.35 44.7q1.15-.2 1.05.65l-.3.8-.2.3-.65-.35q-.55-.35-.5-.75.05-.3.6-.65"/><path fill="url(#h)" d="M35.45 56.05l.55 1v.05l.1.4-.1.6-1.1.6-9.3 2q-3.5.65-6.2-1.05l-.65-.45-1.45-1.35q-1.7-1.9-2.5-4.2l-.35-1.3-.25-1.7h.5l.5 2.3.35.8q1.05 2.1 2.95.5l.95-.95.2-.25.25.3.05.05.15.7v.4l-.25.85 1.6-.6.6-.3.35-.3.2.4v.4l-.9 2.25 5.15-2.8-.25 1.15-1.15 3.3-.25.45 1.2-.55q2.35-1 5.15-1.8l2.7-.15.2-.1 1-.65"/><path fill="url(#i)" d="M49.75 58.7l.85 1.05q.7 1.2-.6 1.2-2.65 0-2.7-.9l-.4-.55-.2-.55-.15-.65.1-.85q1.85.05 3.1 1.25"/><path fill="url(#j)" d="M26.55 41.25q.05-.6 1.05.5l.55.7q-1.9.75-1.8-.35v-.2l.2-.65"/><path fill="url(#k)" d="M24.55 49.1q-3.5.1-2.75-1.35 0-.95.35-1.65 1.15.6 2.4 3"/><path fill="url(#l)" d="M26.35 45.9l.05-.2.35-.75q.95-1.15 2.75.65l.35.35q3.35 3.7-.95 2.85-3.3-.65-2.55-2.9"/><path fill="url(#m)" d="M12.95 42.05l.55-.25 1.2-.45 7.45-2.45.1.5.05 1.3-.35 1.3-.4.6-1.15 1.05-.2.1-.75.3-.2.05-1.55.2-1.05-.1-1.55-.35-.2-.1q-1.35-.55-1.95-1.7"/><path fill="url(#n)" d="M17.6 47.05q3.05-.6 3.15 2.85-2.9-.15-3.15-2.85"/><path fill="url(#o)" d="M14.7 50.55q-.75-.45-1.1-.9l-.15-.2q-.95-.3-.55-2.3 4-.15 4.15 2.9v.9l-2.1-.25-.25-.15"/><path fill="url(#p)" d="M14.95 50.7l2.1.25-.15.7-1.95-.95"/><path fill="url(#q)" d="M42.8 66.3l-.25-.15q-.9-.9-.45-1.75l.5-.6v.65q-.05.95.15 1.7l.05.15"/><path fill="url(#r)" d="M42.8 66.3l-.05-.15q-.2-.75-.15-1.7v-.65q1.25-.2 1.6.75.2.7 0 1.85l-.15.7-1.25-.8"/><path fill="url(#s)" d="M46.7 76.35L43 75.1l-3.05-1.5-1.45-.8-4.55-3.2-1.45-1.25q.5-.65 1.3-1.15.35-.25.75-.35L37 66.7l.7.15q2.05.55 4 1.6l3.05 1.9 1.4 1.25.75 1.15.25.85.1.9-.55 1.85"/><path fill="url(#t)" d="M39.7 64.2l-.05-.25.1-.8.7.75.25.4.75 1.5-.3.05-.45-.05-.4-.4-.6-1.2"/><path fill="url(#u)" d="M49.35 67v-.8q1.2-.1 2.25.85l.9 1.1v.05l.15.3h.05l.35.65.45 1.2.05.25q.4 2.05-2.5 1.2-.85-.2-1.4-.65l-.4-.4-.35-.55-.2-.8-.05-.6.3-.35.05-.05.35-1.05V67"/><path fill="url(#v)" d="M88.5 58.4l.2.1.75.55.8.85.6.95q.35.9.3 1.95l-.05.4q-.25 2.05-2.35.4l-.25-.2q-1.15-.95-1.55-1.8-.3-.75-.1-1.4l.7-1.05.5-.4.05-.05.25-.2.15-.1"/><path fill="url(#w)" d="M78.95 61.65l-1.45-.45q-1.6-.9-.4-3.05 2.4-1.25 1.95 2.85l-.1.65"/><path fill="url(#x)" d="M77.65 48.75l1.9.2q3 .35 5.8 1.35l-1.55.05-4.5-.85q-.9-.3-1.65-.75"/><path fill="url(#y)" d="M55.75 49.4l5-.95 4.25-.6 1.75-.1 5.8.5.1 1.4q-.15 1.65-1.6 2.45-2.6 1.4-5.6 1.6l-3.75-.15-2-.4q-1.65-.5-2.65-1.75l-1.3-2M65 47.85l-.45.4.45-.4"/><path fill="url(#z)" d="M61.5 59.05l-.3.75-1.1.35h-.45l-2-.35-.7-.45-.3-.55v-.05l-.05-.3v-.3q.15-.7.8-1.65l.35-.45 1.75-.2.7.45.85 1.2.25.6.2.95"/><path fill="url(#A)" d="M66.65 65.5l1.05 1 .55.75v.05l.1.1.4.6.3.7.05.15q.65 1.85-2.2 1.35-1.4-.25-2.1-.85l-.25-.3q-.55-.6-.45-1.55l.05-.2.3-1.05.4-.8.2-.1q.35-.25.75-.2.4 0 .85.35"/><path fill="url(#B)" d="M63.45 69.3l.3.3q1.2 1.5-1.3 1.6-1.9.1-2.8-.5l-.2-.2-.35-.55-.1-.15-.1-.9h.55q.25-.85.75-1.2l1.15-.05q.85.35 2.1 1.65"/><path fill="url(#C)" d="M81.05 62.7l1.15 1.2q-2.95 1.3-3.05-.4v-.15l.1-.55q.3-1.35 1.8-.1"/><path fill="url(#D)" d="M72.15 61.35q.55-.15 1.05.3l.3.4.15.35.1.55-.2.8-.25.45q-.65.9-1.6.3l-.85-.75-.25-.3q-.5-.6-.65-1.1l-.1-.25.05-.35.05-.1q.35-.6 2.2-.3"/><path fill="url(#E)" d="M72.15 68.2q-.2-.3.15-.9l.1-.2.1-.15.05-.05q1.35-1.05 1.9-.2l.15.3.05.05.15.95.05.15v.15l-2.3.15-.3-.1-.1-.15"/><path fill="none" stroke="#7B6231" stroke-width=".05" stroke-linecap="round" stroke-miterlimit="3" d="M43 75.1l-3.05-1.5-1.45-.8m-12.7-9.35l-.9.5m-6-.2l-.25-.2m-5.7-21.5l.55-.25m1.2-.45l7.45-2.45.65-.25m5-4.4l.2-.55m-12.05-1.4l-.3.75q-1.05 2.45-3.3 4.05l-2.15 1.1q-.65-.25-.6-1.35v-.05l.3-.95.6-.65.75-.5-1.35 1.15m-2.5-15.2l.05-.05Q9 18.05 12 19.6l4.6 2.7m16.55 3.4l.1.4m-.1 10.5q2.05-.2 4.4 1.4l.2.1L40 35.6m4.15-3.9l1.8-2.4.7-1.25.8-1.6.25-.65.55-2.5q.2-2.7-1.4-5.1l-.1-.05m-1.8-13.1H45l.05-.15m8.75 15.75l-2.9 8.75q-.5 2.3-2.2 4.15l-3.55 3.6-3.9 3.45.55.3.8.45 1.15.9 1.3 1.5.85 1.4.6 1.35q.75 2.05 1.85 3.4l7.4-.5 5-.95 4.25-.6 1.75-.1 5.8.5m18.65 5.2l.1.05M44.95 5.1l.05-.05m-.05.05q-2 5.7 1.4 8.25l.15.1q3.35-1.75 5.9-.75-1.25 1.8-1.25 3.3l2.65.65m2.9-.3q-.35-4.95 2.05-1.75 1-1.2 1.65-2.9l.7-2.95M46.45 13.5l.05-.05m-1.35 2.35l.45.4m-4.35 24.4v.05l-.35.35v.05l-.95 1.25-.7 1.3M7.65 20.7q2.35.3 3.7 1.6 1.8 1.8.55 3.05-.45.4-1.3.8l-.05.4q-.05.85.4 1.25.3.3.9.4.85.1 1.2-.35.5 1.8.3 3.25-.2 1.7-1.3 2.9l-.8.7m4.7-2.4l.2-.65.15-1.4m.75 20.7l9.45 1.6L32.15 54l.6.15q.95.35 1.7.85l1 1.05.55 1v.05l.1.4-.1.6-1.1.6-9.3 2q-3.5.65-6.2-1.05l-.65-.45-1.45-1.35q-1.7-1.9-2.5-4.2l-.35-1.3-.25-1.7h.5m.25.05l2.1.25m-2.1-.25l-.25-.05m4.75 2.65l.2-.25m.25.3l.05.05m.15.7v.4m1.95-.05l.35-.3m.2.4v.4m11.65 1.85l.2-.1m3.3-18.6l-2.2 2.1-.5.35m16.9 14.95L50 54.1l-.8-.85Q48 51.8 47.5 49.9H47m.5 0l-.25-1.15M64.55 48.25l.45-.4"/><path fill="none" stroke="#9D0000" stroke-width=".05" stroke-linecap="round" stroke-miterlimit="3" d="M45.05 4.9q1.7-4.6 6.4-4.9 5.2-.25 7.75 3 2.1 2.65 1.9 5.75"/><path fill="none" stroke="#AB8844" stroke-width=".05" stroke-linecap="round" stroke-miterlimit="3" d="M95.95 57.4l1.45 1.75.3.45q1.35 2 1.95 4.3l.2 1.05v.1l.15 1.45-.05.7q-.3 3.5-4.5 3.65l-.6.05q-3.15 0-6.05-1.1l-1.7-.75q-3.35-1.65-6.9-1.55"/><path fill="none" stroke="#AE8B45" stroke-width=".05" stroke-linecap="round" stroke-miterlimit="3" d="M80.2 67.5l-2.9.35q-2.2.5-4.2 1.35-1.9.8-3.65 1.95L66.9 73.1q-1.8 1.6-4 2.55l-3.8 1.15-5 .4-7.4-.85L43 75.1m-4.5-2.3l-4.55-3.2-1.45-1.25-1.6-1.65-1.55-2.15-.6-.95-.5-1.15-1.35.4-1.1.6m-.9.5q-3.45 1.75-6-.2m-.25-.2l-1.05-1.1-2.15-3.05q-1.3-2.15-2.2-4.5L11 49.95l-.75-.65q-.85-1-.95-2.15-.05-.8.3-1.7l.6-1.1.65-.8q.85-.85 2.1-1.5m.55-.25l1.2-.45m8.1-2.7l1.6-.75q2.55-1.4 3.4-3.65m.2-.55q.5-1.85.4-3.15-.1-1.65-1.25-2.45-1-.65-2.65-.7-1.1-.05-1.65.6-2.2 2.95-5.4 3.95l-1.5.35m.65-10q4 2.5 8.55 1.45l2.6-.65q4-1.1 5.15 1.55l.25 1.05m.1.4l-.1 10.5m6.85-1l1.95-1.85 2.2-2.05m2.6-13.55q-1.15-.75-1.6-2.35-2.05-1.95-2.65-4.35l-.8-2.3q-.95-2.2.95-3l2.3-1.1m16.15 3.7l.8-.6q1.2 4.95-1.15 8.65l-.8 1.4Q57.8 22 53.8 20.65l-1.65-.7m20.4 28.3l5.1.5 1.9.2q3 .35 5.8 1.35l3.05 1.4q1.3.7 2.5 1.55l.3.2m.1.05l4.65 3.9M53.8 16.65q-.1 1.1 1.45.45l1.45-.75.15 1.45m-10.4-4.3l-.65.35m1.05 4.35q1.15.7 2.95.45m8.95-4.05l.65 1m-8.25.4q-.05 1.55 1.45 2.75m-24.35 43.7q2.2-.55 4.9-.05 1.1.2 1.4-.5"/><path fill="none" stroke="#005300" stroke-width=".05" stroke-linecap="round" stroke-miterlimit="3" d="M14.7 50.65l.5 2.3.35.8q1.05 2.1 2.95.5l.95-.95m.2-.25l.25.3m.05.05l.15.7m0 .4l-.25.85 1.6-.6.6-.3m.35-.3l.2.4m0 .4l-.9 2.25 5.15-2.8-.25 1.15-1.15 3.3-.25.45 1.2-.55q2.35-1 5.15-1.8l2.7-.15m.2-.1l1-.65"/></svg>