<svg xmlns="http://www.w3.org/2000/svg" viewBox="0 0 47.2 49.3" width="47.2" height="49.3"><defs><radialGradient gradientUnits="userSpaceOnUse" r="819.2" cx="0" cy="0" spreadMethod="pad" gradientTransform="matrix(.015 0 0 .016 28.35 11.6)" id="a"><stop offset="0" stop-color="#f00"/><stop offset=".165" stop-color="#ff0"/><stop offset=".365" stop-color="#0f0"/><stop offset=".498" stop-color="#0ff"/><stop offset=".667" stop-color="#00f"/><stop offset=".831" stop-color="#f0f"/><stop offset="1" stop-color="#f00"/></radialGradient><radialGradient gradientUnits="userSpaceOnUse" r="819.2" cx="0" cy="0" fx="96985.6" fy="0" spreadMethod="pad" gradientTransform="matrix(.01 .002 -.002 .014 20.65 14.6)" id="b"><stop offset="0" stop-color="#f00"/><stop offset=".165" stop-color="#ff0"/><stop offset=".365" stop-color="#0f0"/><stop offset=".498" stop-color="#0ff"/><stop offset=".667" stop-color="#00f"/><stop offset=".831" stop-color="#f0f"/><stop offset="1" stop-color="#f00"/></radialGradient><radialGradient gradientUnits="userSpaceOnUse" r="819.2" cx="0" cy="0" spreadMethod="pad" gradientTransform="matrix(.043 0 0 .043 18.2 19.85)" id="c"><stop offset="0" stop-color="#f69"/><stop offset=".624" stop-color="#6fc"/><stop offset="1"/></radialGradient><radialGradient gradientUnits="userSpaceOnUse" r="819.2" cx="0" cy="0" fx="2240" fy="0" spreadMethod="pad" gradientTransform="matrix(.012 -.017 .01 .007 35.65 24.6)" id="d"><stop offset="0" stop-color="#f00"/><stop offset=".165" stop-color="#ff0"/><stop offset=".365" stop-color="#0f0"/><stop offset=".498" stop-color="#0ff"/><stop offset=".667" stop-color="#00f"/><stop offset=".831" stop-color="#f0f"/><stop offset="1" stop-color="#f00"/></radialGradient><radialGradient gradientUnits="userSpaceOnUse" r="819.2" cx="0" cy="0" spreadMethod="pad" gradientTransform="matrix(.017 0 0 .017 21.65 33)" id="e"><stop offset="0" stop-color="#f69"/><stop offset=".624" stop-color="#6fc"/><stop offset="1"/></radialGradient><radialGradient gradientUnits="userSpaceOnUse" r="819.2" cx="0" cy="0" spreadMethod="pad" gradientTransform="matrix(.016 0 0 .016 23.3 30.85)" id="f"><stop offset="0" stop-color="#f69"/><stop offset=".624" stop-color="#6fc"/><stop offset="1"/></radialGradient><radialGradient gradientUnits="userSpaceOnUse" r="819.2" cx="0" cy="0" spreadMethod="pad" gradientTransform="matrix(.003 0 0 .003 33.2 43.1)" id="g"><stop offset="0" stop-color="#f69"/><stop offset=".624" stop-color="#6fc"/><stop offset="1"/></radialGradient><radialGradient gradientUnits="userSpaceOnUse" r="819.2" cx="0" cy="0" spreadMethod="pad" gradientTransform="matrix(.002 0 0 .002 10.4 3.55)" id="h"><stop offset="0" stop-color="#2F2F00"/><stop offset=".533" stop-color="#f00"/><stop offset="1"/></radialGradient><radialGradient gradientUnits="userSpaceOnUse" r="819.2" cx="0" cy="0" fx="99.2" fy="0" spreadMethod="pad" gradientTransform="matrix(.001 0 0 .001 8.85 2.25)" id="i"><stop offset="0" stop-color="#2F2F00"/><stop offset=".533" stop-color="#f00"/><stop offset="1"/></radialGradient><radialGradient gradientUnits="userSpaceOnUse" r="819.2" cx="0" cy="0" fx="355.2" fy="0" spreadMethod="unknown" gradientTransform="matrix(.002 0 0 .002 15.45 5.35)" id="j"><stop offset="0" stop-color="#f69"/><stop offset=".624" stop-color="#6fc"/><stop offset="1"/></radialGradient><radialGradient gradientUnits="userSpaceOnUse" r="819.2" cx="0" cy="0" spreadMethod="pad" gradientTransform="matrix(.001 0 0 .001 13.9 6.2)" id="k"><stop offset="0" stop-color="#2F2F00"/><stop offset=".533" stop-color="#f00"/><stop offset="1"/></radialGradient><radialGradient gradientUnits="userSpaceOnUse" r="819.2" cx="0" cy="0" spreadMethod="pad" gradientTransform="matrix(.005 0 0 .005 17 5.35)" id="l"><stop offset="0" stop-color="#f69"/><stop offset=".624" stop-color="#6fc"/><stop offset="1"/></radialGradient><radialGradient gradientUnits="userSpaceOnUse" r="819.2" cx="0" cy="0" spreadMethod="pad" gradientTransform="matrix(.002 0 0 .002 15.3 7.35)" id="m"><stop offset="0" stop-color="#2F2F00"/><stop offset=".533" stop-color="#f00"/><stop offset="1"/></radialGradient><radialGradient gradientUnits="userSpaceOnUse" r="819.2" cx="0" cy="0" spreadMethod="pad" gradientTransform="matrix(.002 0 0 .002 7.1 .9)" id="n"><stop offset="0" stop-color="#2F2F00"/><stop offset=".533" stop-color="#f00"/><stop offset="1"/></radialGradient><radialGradient gradientUnits="userSpaceOnUse" r="819.2" cx="0" cy="0" spreadMethod="pad" gradientTransform="matrix(.01 0 0 .01 10.5 15)" id="o"><stop offset="0" stop-color="#f69"/><stop offset=".624" stop-color="#6fc"/><stop offset="1"/></radialGradient><radialGradient gradientUnits="userSpaceOnUse" r="819.2" cx="0" cy="0" spreadMethod="pad" gradientTransform="matrix(.005 0 0 .005 11.9 17.35)" id="p"><stop offset="0" stop-color="#f69"/><stop offset=".624" stop-color="#6fc"/><stop offset="1"/></radialGradient><radialGradient gradientUnits="userSpaceOnUse" r="819.2" cx="0" cy="0" spreadMethod="pad" gradientTransform="matrix(.005 0 0 .005 12.15 19)" id="q"><stop offset="0" stop-color="#f69"/><stop offset=".624" stop-color="#6fc"/><stop offset="1"/></radialGradient><radialGradient gradientUnits="userSpaceOnUse" r="819.2" cx="0" cy="0" spreadMethod="pad" gradientTransform="matrix(.004 0 0 .004 18.4 35.5)" id="r"><stop offset="0" stop-color="#f69"/><stop offset=".624" stop-color="#6fc"/><stop offset="1"/></radialGradient><radialGradient gradientUnits="userSpaceOnUse" r="819.2" cx="0" cy="0" spreadMethod="pad" gradientTransform="matrix(.008 0 0 .008 17.65 13.15)" id="s"><stop offset="0" stop-color="#f69"/><stop offset=".624" stop-color="#6fc"/><stop offset="1"/></radialGradient><radialGradient gradientUnits="userSpaceOnUse" r="819.2" cx="0" cy="0" spreadMethod="pad" gradientTransform="matrix(.002 0 0 .002 12.2 4.95)" id="t"><stop offset="0" stop-color="#2F2F00"/><stop offset=".533" stop-color="#f00"/><stop offset="1"/></radialGradient><radialGradient gradientUnits="userSpaceOnUse" r="819.2" cx="0" cy="0" fx="313.6" fy="0" spreadMethod="pad" gradientTransform="matrix(.023 0 0 .023 30.05 27.2)" id="u"><stop offset="0" stop-color="#f00"/><stop offset=".165" stop-color="#ff0"/><stop offset=".365" stop-color="#0f0"/><stop offset=".498" stop-color="#0ff"/><stop offset=".667" stop-color="#00f"/><stop offset=".831" stop-color="#f0f"/><stop offset="1" stop-color="#f00"/></radialGradient></defs><path d="M3.25 34l3-2.45.25-.05.75.5-2.15 3.6L3.25 34M2.1 16.65l2.15 2.95-.15.25-.45-.05-1.4-.8L0 17.9l2.1-1.25M9 39.3l.9.3q1.35.5 2.3 1.55l-.05.5-.1.05-4.4-.3.15-.6q.25-.85 1.2-1.5m25 9.2q-.3.35-1.1.35l-4.6.45q.6-1.4 1.7-2.45l4 1.65"/><path fill="#f00" d="M18.2 9.5l-.2.4q-.4 1.15-1.3 1.2l1.5-1.6m-1.6 4.8l-.65-.4q.6-.4.65.4"/><path fill="url(#a)" d="M38.5 5.1l-2.1.15q-1.6.1-2.85 1-.9.65-1.15 1.55 1.35.55 2.25 1.45.85.95 1.15 2.15-.55-.3-1.1-.5l-.9-.05-1.65.4q.85 1.25.7 2.75-.1 1.15-1 1.75l-.5-1.05-.95.3 2 2.25-1.05-.15-.9-.15 1.25 2.85q-.85-.35-1.7 0l-.9.75-.85.95-1 .05-1.1 3.25q-.2-.9-.25-1.8-.05-.65.2-1.25l1-1.75.55-.65.1-.65.15-.35.2-.3.55-.45.65-2.55v-.2l-.05-.1q.65-1.5 2.2-1.95l-.8-.7 1.1-.8-1.25-1.15.05-.5.25-.4.6-.65 1.2-.45-3.75-1.25-1.65-.55-5.25-.6.8-.45-3.2.55-.65.45-.6.5-.1-.05.45-.85-.25-1.35 7.7-1.65 1.4-.75v.1l-.75.65.2 1.15 4.4.55L36 4.15l2.5.95"/><path fill="url(#b)" d="M18.3 6.8l.6-.5.65-.45 3.2-.55-.8.45 5.25.6 1.65.55 3.75 1.25-1.2.45-.6.65-.25.4-.05.5 1.25 1.15-1.1.8.8.7q-1.55.45-2.2 1.95l.05.1v.2l-.65 2.55-.55.45-.2.3-.15.35-.1.65-.55.65-1 1.75q-.25.6-.2 1.25.05.9.25 1.8l-.1.8-.05.05q-1.05-.35-1.6-1.35-.55-.95-.3-2l.55-1.85.4-1.1.9-2.25.8-2.85.1-1.7-.45-1.8-.65-1.05-1.8-1.85q-.85-.75-1.9-.65l-1.7-.45-2.05.05"/><path fill="url(#c)" d="M18.3 6.8l2.05-.05 1.7.45q1.05-.1 1.9.65l1.8 1.85.65 1.05.45 1.8-.1 1.7-.8 2.85-.9 2.25-.4 1.1-.55 1.85q-.25 1.05.3 2 .55 1 1.6 1.35l.6.2 2.95 1h.05l.95.75q.6.65.75 1.6l.3 2.2-.8.95-.7.7q-.5.7-.55 1.6l.2 1.5q.15.6.75 1.1.75.7 1.85.2.9-.35 1.5.5h.05l-.7 2.8q-.45.95-.4 1.85l.3.95 1.1 1.35 1 .8.25.1q1.1.45 1.85 1.25l1.15 1.5q-.85-1.15-2.1-.95l-2.3-.15h-.1q.35.65.05 1v.05l-4-1.65.75-.9q1.35-1.7.75-3.65l-.45-.65-1.15-.9-.2-.15-.4-.2-.3-.3-.1-.3-.35-1q-.2-.5-.6-.65l-1.7-.6-1.1-.35-1.8-1.1-.15-.8q-.2-1.55.35-2.9.35-1 1.05-1.9l.75-.85-1.6-.8q-.85-.45-1.8-.5-.85-.05-1.6.65l-.7.45-1.8.05-.5-.1-1.3-.55-1.9-1.25q.6-.8.7-1.6l-3.65-.4-.1-.05q-3.4-1.15-6.85-.7l-.6.6v1.6q.05 1.7 1.55 2.4.55.25 1 .6l.15.3 2.55 1.2-2.55-.1-.1.1-3 2.45-.05-.2-.95-5.6-1-4-.05-.55.15-.45.25-.3 2.9.1 5.9-1.1 2.1-1.5q-.15-.8.25-1.45l.6-.65 1.7-1.3-.05-.05.2-.05 1.8-.35 1.65-.6 1-.45 1.45-.5q1.15-.3 1.3-1.45l.05-.3L21 10.5l.2-2.1-.2 2.1-1.05.8-1.4 1.1-.45 2.45q-.7.65-1.4.35-.8-.45-1.8-.8l.45-1.1.6-1.5.15-.9q-.45-.4-.45-.95L15.6 8.5l.5-.9v.25l.3.4 1 .8-.5-.75-.05-.15.05-.95h.05l.2-2.8-.35-2.95 1.6 3.1.25 1.35-.45.85-.05.05h.15M17 25.2q-.75.75-1.75.8h-.4.4q1-.05 1.75-.8m1.2-15.7l-1.5 1.6q.9-.05 1.3-1.2l.2-.4m-1.6 4.8q-.05-.8-.65-.4l.65.4"/><path fill="url(#d)" d="M32.65 25.4l.9-1.35.55-1.5.1-.9-.05-.95q-.05-.65.05-1.25l.3-.95.2-.5.15-.25.2-.25q.8-1.1 1.8-1.65-.15.7.25.8l1.95.3q2.55.15 4.85 1.25l.15.05q1.75.9 1.65 1.95l-.3 2.2-1.2-1.7-.05-.1q-.4-.4-.95-.25-.65.15-.7 1.15l-.05.1-.2 3.8-.05.05-.85 4.4-.4.7-2.85 2.65-.5.8-.05.3q-.2.5-.25 1.05l-.45-.95 1-3.45.25-1.9q0-1-.4-1.85l-1.4-2.45-.9 2.15-.95-.7-1.8-.8"/><path fill="url(#e)" d="M20.05 30.45h.1l.65.3q.65.25 1.25.65l.55.65.25 3.35.05.1q-1.25 0-2.1.95-.9.9-.9 2.2l-1.25.05q-1.2-.2-2.2.3l-.95.45.65 2.05-.9-.75-.8-.5.5.8-1.75-.85-1 .95q-.95-1.05-2.3-1.55l-.9-.3.2-.15.45-.25q1.1-.65 2.35-1l4.3-.95.65-.05h.2q1-.1 1.65-.55l.9-1.1q.65-1.2-.85-2.05l-2-.9q0-.75 1-1.3.9-.5 2.2-.55m11.55.95l-.2 1.6q-.5 2.05.25 3.9l1.25.15 1 .85-.05.05q-.6-.85-1.5-.5-1.1.5-1.85-.2-.6-.5-.75-1.1l-.2-1.5q.05-.9.55-1.6l.7-.7.8-.95"/><path fill="url(#f)" d="M11.2 25.6l3.65.4q-.1.8-.7 1.6l1.9 1.25 1.3.55.5.1 1.8-.05.7-.45q.75-.7 1.6-.65.95.05 1.8.5l1.6.8-.75.85q-.7.9-1.05 1.9-.55 1.35-.35 2.9l.15.8-.45-.6-.05-.1-.25-3.35-.55-.65q-.6-.4-1.25-.65l-.65-.3h-.1q-3.7 0-6.3-1.4-2.65-1.4-2.65-3.4l.1-.05m22.65 12.35l.05-.05v.05h-.05"/><path fill="url(#g)" d="M33.2 40.75l.3 2.2q.15 1.1.7 1.95l-1.1-1.35-.3-.95q-.05-.9.4-1.85"/><path fill="url(#h)" d="M11 4.45l-.2-.05q-1-.4-1.55-1.5l.5-.3 1.8 1.25-.55.6"/><path fill="url(#i)" d="M9.75 2.6l-.5.3L7.9 1.75l.35-.15 1.5 1"/><path fill="url(#j)" d="M15.85 5.9l-.15.8-.55-.4L14.4 4l.05-.05 1.4 1.95"/><path fill="url(#k)" d="M12.75 6l.7-.85.85.35.2.15.5.55-.9 1q-.55 0-.95-.35-.4-.35-.4-.85"/><path fill="url(#l)" d="M15.85 5.9l.3-.75.35.15q.25-.65.65-.9l-.2 2.8h-.05l-.05.95.05.15.5.75-1-.8-.3-.4V7.6l.35-.4-.75-.5.15-.8"/><path fill="url(#m)" d="M15.7 6.7l.75.5-.35.4-.5.9q-1-.35-1.5-1.3l.9-1 .15.1.55.4"/><path fill="url(#n)" d="M7.9 1.75L5.95 0l2.3 1.6-.35.15"/><path fill="url(#o)" d="M11.75 14.8l-.85.4-1.7.5q-1 .25-1.4 1.05v.05l-.1.3L6.55 19l.25.7-.5 1.15-.15-.3-.05-.1L5 18.8l-.75.8-2.15-2.95.75-.25 1.6-.15q.95.1 1.95-.6.95-.7 2-1.25.9-.5 1.9-.85 1.15.2 1.45 1.25"/><path fill="url(#p)" d="M11.75 14.8l1.65 2.65-2.2 1.8-.25-1.9q-.15-.75-.6-1.1l-.25-.1-.55-.25-1.7.9-.05-.05q.4-.8 1.4-1.05l1.7-.5.85-.4"/><path fill="url(#q)" d="M15 16.95l.05.05-1.7 1.3-.6.65q-.4.65-.25 1.45l-2.1 1.5v-.95q.05-1 .8-1.7l2.2-1.8q.75-.3 1.6-.5"/><path fill="url(#r)" d="M16.85 32.3l2 .9q1.5.85.85 2.05l-.9 1.1q-.65.45-1.65.55h-.2v-.1q.9-.15 1.25-.5.55-.6-.4-1.7-1.2-1.25-.95-2.3"/><path fill="url(#s)" d="M21 10.5l1.45 2.75-.05.3q-.15 1.15-1.3 1.45l-1.45.5.75-.8q.6-.75.5-1.8-.15-1.15-.95-1.6l1.05-.8"/><path fill="url(#t)" d="M11 4.45l.55-.6q.8 0 1.35.4.55.35.55.9l-.7.85L11 4.45"/><path fill="url(#u)" d="M42.6 15.6h.2q1.6.25 2.65 1.5 1.65 2.05 1.75 4.55l-.25 4.1-.1.55-.05.15-.15 1.4-.35-1.65-.55-1.4-1.25-2.25-.95-1.2.05 6.35-.15.95-.75 1.6-.05.15-.15.15v.05l-.1.1-.95 1.3q-1.55 2.15-2.65 4.65l-.05.15q-.4.85-.4 1.7l.15 1.45.55 1.85-.7-.9q-.65-.95-1.05-2.15-.35-.9-.45-1.95l-.05-.05q-.15-1.05 0-2.05l.05-.3.45.95q.05-.55.25-1.05l.05-.3.5-.8 2.85-2.65.4-.7.85-4.4.05-.05.2-3.8.05-.1q.05-1 .7-1.15.55-.15.95.25l.05.1 1.2 1.7.3-2.2q.1-1.05-1.65-1.95l-.15-.05q-2.3-1.1-4.85-1.25l-1.95-.3q-.4-.1-.25-.8-1 .55-1.8 1.65l-.2.25-.15.25-.2.5-.3.95q-.1.6-.05 1.25l.05.95-.1.9-.55 1.5-.9 1.35-1.75 1.3-.35.9-.95-.75.45-.3.8-.75.35-.45q.55-.8.7-1.85l1.8-6.65q.75-1.6 2.25-2.35 1.95-.95 4.1-.9-1.55.55-2.1 2.95 1.85-1.35 4.65-.95"/><path fill="none" stroke="#000" stroke-width=".05" stroke-linecap="round" stroke-linejoin="round" d="M36.8 36.75l.05.05M16.9 8.3l-.05-.15m.05-.95h.05M2.1 16.65L0 17.9 2.25 19l1.4.8.45.05.15-.25M9.2 39.15l-.2.15q-.95.65-1.2 1.5l-.15.6 4.4.3.1-.05.05-.5m10.7-5.65l-.05-.1M6.5 31.5l.75.5-2.15 3.6L3.25 34m30.65 3.9v.05m.1 10.5v.05q-.3.35-1.1.35l-4.6.45q.6-1.4 1.7-2.45m-.45-20h.05"/><path fill="none" stroke="#55D4AA" stroke-width=".05" stroke-linecap="round" stroke-linejoin="round" d="M29.6 26.85l.95.75m1.05 3.8l-.3-2.2q-.15-.95-.75-1.6m3.35 10.3l-1-.85-1.25-.15q-.75-1.85-.25-3.9l.2-1.6m2.3 6.55l-.7 2.8.3 2.2q.15 1.1.7 1.95l1 .8.25.1q1.1.45 1.85 1.25l1.15 1.5M26.05 25.6l.55.25 2.95 1m-2.95-1l-.6-.2"/><path fill="none" stroke="#F04288" stroke-width=".05" stroke-linecap="round" stroke-linejoin="round" d="M22.85 35.4l-.25-3.35-.55-.65q-.6-.4-1.25-.65l-.65-.3m3.2 5.65l-.45-.6"/><path fill="none" stroke="#3F9F7F" stroke-width=".05" stroke-linecap="round" stroke-linejoin="round" d="M12.2 41.15l1-.95 1.75.85-.5-.8.8.5.9.75-.65-2.05.95-.45q1-.5 2.2-.3l1.25-.05m18.55 9.9q-.85-1.15-2.1-.95l-2.3-.15h-.1q.35.65.05 1m-4-1.6l.75-.9q1.35-1.7.75-3.65l-.45-.65-1.15-.9-.2-.15-.4-.2-.3-.3-.1-.3-.35-1q-.2-.5-.6-.65l-1.7-.6-1.1-.35-1.8-1.1"/><path fill="none" stroke="#ED779E" stroke-width=".05" stroke-linecap="round" stroke-linejoin="round" d="M19.9 38.65q0-1.3.9-2.2.85-.95 2.1-.95"/><path fill="none" stroke="#E97BA0" stroke-width=".05" stroke-linecap="round" stroke-linejoin="round" d="M26 25.65q-1.05-.35-1.6-1.35-.55-.95-.3-2l.55-1.85.4-1.1.9-2.25.8-2.85.1-1.7-.45-1.8-.65-1.05-1.8-1.85q-.85-.75-1.9-.65l-1.7-.45-2.05.05m-.15 0l.05-.05m1.85 23.7q-1.3.05-2.2.55-1 .55-1 1.3"/><path fill="none" stroke="#3D9A7B" stroke-width=".05" stroke-linecap="round" stroke-linejoin="round" d="M20.15 30.45h-.1q-3.7 0-6.3-1.4-2.65-1.4-2.65-3.4"/><path fill="none" stroke="#348268" stroke-width=".05" stroke-linecap="round" stroke-linejoin="round" d="M16.3 36.95l-4.3.95q-1.25.35-2.35 1l-.45.25m7.75-2.35l-.65.15m.65-.15q.9-.15 1.25-.5.55-.6-.4-1.7-1.2-1.25-.95-2.3"/><path fill="none" stroke="#F0749D" stroke-width=".05" stroke-linecap="round" stroke-linejoin="round" d="M18.3 6.8h-.15"/><path fill="none" stroke="#5AE1B4" stroke-width=".05" stroke-linecap="round" stroke-linejoin="round" d="M16.1 7.6v.25l.3.4 1 .8-.5-.75m-.05-.15l.05-.95"/><path fill="none" stroke="#7BE9C4" stroke-width=".05" stroke-linecap="round" stroke-linejoin="round" d="M18.4 4.55l.25 1.35-.45.85m-2.35-.85l-.15.8m1.25.5l.2-2.8-.35-2.95 1.6 3.1m-4-.55l-.15-.2.2.15 1.4 1.95M14.4 4l.75 2.3"/><path fill="none" stroke="#E67EA1" stroke-width=".05" stroke-linecap="round" stroke-linejoin="round" d="M17.15 4.4q-.4.25-.65.9l-.35-.15-.3.75"/><path fill="none" stroke="#FF00A6" stroke-width=".05" stroke-linecap="round" stroke-linejoin="round" d="M26.1 2.9l-7.7 1.65"/><path fill="none" stroke="#347E60" stroke-width=".05" stroke-linecap="round" stroke-linejoin="round" d="M12.5 20.4l-2.1 1.5L4.5 23l-2.9-.1-.25.3-.15.45.05.55 1 4 .95 5.6.05.2m3-2.45l.1-.1 2.55.1-2.55-1.2-.15-.3q-.45-.35-1-.6-1.5-.7-1.55-2.4v-1.6l.6-.6q3.45-.45 6.85.7l.1.05 3.65.4h.4q1-.05 1.75-.8m-5.9.45v-.1m-4.75 5.9l.15.05"/><path fill="none" stroke="#4DC19B" stroke-width=".05" stroke-linecap="round" stroke-linejoin="round" d="M11.2 19.25l2.2-1.8m1.6-.5q-.85.2-1.6.5m-2.2 1.8q-.75.7-.8 1.7v.95"/><path fill="none" stroke="#378A6E" stroke-width=".05" stroke-linecap="round" stroke-linejoin="round" d="M11.75 14.8q-.3-1.05-1.45-1.25-1 .35-1.9.85-1.05.55-2 1.25-1 .7-1.95.6l-1.6.15-.75.25m2.15 2.95l.75-.8 1.1 1.65.05.1.15.3.5-1.15-.25-.7 1.15-1.9m.15-.3l1.7-.9.55.25.25.1q.45.35.6 1.1l.25 1.9m2.2-1.8l-1.65-2.65m-3.95 2h.05l-.15.3m2.4-.95l.2.15.05-.05"/><path fill="none" stroke="#DE5C91" stroke-width=".05" stroke-linecap="round" stroke-linejoin="round" d="M21.2 8.4l-.2 2.1m-5.4-2l.05 1.45q0 .55.45.95l-.15.9-.6 1.5-.45 1.1q1 .35 1.8.8.7.3 1.4-.35l.45-2.45 1.4-1.1 1.05-.8"/><path fill="none" stroke="#8F1900" stroke-width=".05" stroke-linecap="round" stroke-linejoin="round" d="M18.2 9.5l-1.5 1.6q.9-.05 1.3-1.2l.2-.4m-1.6 4.8q-.05-.8-.65-.4l.65.4"/><path fill="none" stroke="#760D01" stroke-width=".05" stroke-linecap="round" stroke-linejoin="round" d="M15.7 6.7l.75.5-.35.4-.5.9q-1-.35-1.5-1.3M9.25 2.9Q9.8 4 10.8 4.4l.2.05m.55-.6L9.75 2.6m-.5.3L7.9 1.75 5.95 0l2.3 1.6 1.5 1m5.4 3.7l.55.4M12.75 6q0 .5.4.85t.95.35m.9-1l-.5-.55m-.2-.15l-.85-.35q0-.55-.55-.9-.55-.4-1.35-.4M12.75 6L11 4.45m4 1.75l.15.1"/><path fill="none" stroke="#59DFB2" stroke-width=".05" stroke-linecap="round" stroke-linejoin="round" d="M19.95 11.3q.8.45.95 1.6.1 1.05-.5 1.8l-.75.8"/><path fill="none" stroke="#D7427E" stroke-width=".05" stroke-linecap="round" stroke-linejoin="round" d="M19.65 15.5l-1 .45-1.65.6-1.8.35-.2.05"/><path fill="none" stroke="#1200FF" stroke-width=".05" stroke-linecap="round" stroke-linejoin="round" d="M36 4.15l-4.65.45-4.4-.55-.2-1.15.75-.65m0-.1l-1.4.75"/><path fill="none" stroke="#001DFF" stroke-width=".05" stroke-linecap="round" stroke-linejoin="round" d="M33.8 10.85l.9.05q.55.2 1.1.5-.3-1.2-1.15-2.15-.9-.9-2.25-1.45.25-.9 1.15-1.55 1.25-.9 2.85-1l2.1-.15"/><path fill="none" stroke="#FF0076" stroke-width=".05" stroke-linecap="round" stroke-linejoin="round" d="M38.5 5.1L36 4.15"/><path fill="none" stroke="#01BA13" stroke-width=".05" stroke-linecap="round" stroke-linejoin="round" d="M30.45 16.95l.9.15 1.05.15-2-2.25.95-.3.5 1.05q.9-.6 1-1.75.15-1.5-.7-2.75l1.65-.4"/><path fill="none" stroke="#3600FF" stroke-width=".05" stroke-linecap="round" stroke-linejoin="round" d="M27.25 21.55l1-.05.85-.95.9-.75q.85-.35 1.7 0l-1.25-2.85"/><path fill="none" stroke="#CA0253" stroke-width=".05" stroke-linecap="round" stroke-linejoin="round" d="M26.15 24.8l1.1-3.25m-1.2 4.05l.1-.8"/><path fill="none" stroke="#18DB02" stroke-width=".05" stroke-linecap="round" stroke-linejoin="round" d="M33.7 16.85l-1.8 6.65q-.15 1.05-.7 1.85l-.35.45-.8.75-.45.3m.95.75l.35-.9 1.75-1.3"/><path fill="none" stroke="#2400FF" stroke-width=".05" stroke-linecap="round" stroke-linejoin="round" d="M37.95 16.55q.55-2.4 2.1-2.95-2.15-.05-4.1.9-1.5.75-2.25 2.35"/><path fill="none" stroke="#3000FF" stroke-width=".05" stroke-linecap="round" stroke-linejoin="round" d="M42.6 15.6q-2.8-.4-4.65.95"/><path fill="none" stroke="#D20241" stroke-width=".05" stroke-linecap="round" stroke-linejoin="round" d="M46.65 27.85l.15-1.4.05-.15.1-.55.25-4.1q-.1-2.5-1.75-4.55-1.05-1.25-2.65-1.5h-.2"/><path fill="none" stroke="#0005FF" stroke-width=".05" stroke-linecap="round" stroke-linejoin="round" d="M36.85 34.4l-.05.3q-.15 1 0 2.05m.05.05q.1 1.05.45 1.95.4 1.2 1.05 2.15l.7.9-.55-1.85-.15-1.45q0-.85.4-1.7l.05-.15q1.1-2.5 2.65-4.65l.95-1.3.1-.1v-.05l.15-.15.05-.15.75-1.6.15-.95-.05-6.35.95 1.2 1.25 2.25.55 1.4.35 1.65"/><path fill="none" stroke="#C10202" stroke-width=".05" stroke-linecap="round" stroke-linejoin="round" d="M36.85 34.4l1-3.45.25-1.9q0-1-.4-1.85l-1.4-2.45-.9 2.15-.95-.7-1.8-.8"/></svg>