<svg xmlns="http://www.w3.org/2000/svg" viewBox="4 -1.4 90.5 95.0" width="90.5" height="95.0"><defs><linearGradient gradientUnits="userSpaceOnUse" x1="-819.2" x2="819.2" gradientTransform="matrix(.029 0 0 .016 36.25 11.4)" id="a"><stop offset="0"/><stop offset=".447" stop-color="#f30"/><stop offset=".796" stop-color="#60f"/></linearGradient><radialGradient gradientUnits="userSpaceOnUse" r="819.2" cx="0" cy="0" spreadMethod="pad" gradientTransform="matrix(.072 0 0 .072 48.45 51.2)" id="b"><stop offset=".141"/><stop offset=".455" stop-color="#63f"/><stop offset=".667" stop-color="#f00"/></radialGradient><radialGradient gradientUnits="userSpaceOnUse" r="819.2" cx="0" cy="0" spreadMethod="pad" gradientTransform="matrix(.014 0 0 .014 52.8 50.7)" id="c"><stop offset="0"/><stop offset="1" stop-color="#f00"/></radialGradient><radialGradient gradientUnits="userSpaceOnUse" r="819.2" cx="0" cy="0" spreadMethod="pad" gradientTransform="matrix(.012 0 0 .012 20.7 30.5)" id="d"><stop offset="0" stop-color="#fff"/><stop offset=".247"/><stop offset=".482" stop-color="#f00"/><stop offset=".553" stop-color="#FFE5E5"/><stop offset="1" stop-color="#fff"/></radialGradient><radialGradient gradientUnits="userSpaceOnUse" r="819.2" cx="0" cy="0" spreadMethod="pad" gradientTransform="matrix(.021 0 0 .021 35.15 46.35)" id="e"><stop offset="0"/><stop offset="1" stop-color="#f00"/></radialGradient><radialGradient gradientUnits="userSpaceOnUse" r="819.2" cx="0" cy="0" spreadMethod="pad" gradientTransform="matrix(.009 0 0 .009 34.3 78.7)" id="f"><stop offset="0"/><stop offset="1" stop-color="#f00"/></radialGradient><radialGradient gradientUnits="userSpaceOnUse" r="819.2" cx="0" cy="0" spreadMethod="pad" gradientTransform="matrix(.033 0 0 .033 65.55 78.5)" id="g"><stop offset="0"/><stop offset="1" stop-color="#f00"/></radialGradient><radialGradient gradientUnits="userSpaceOnUse" r="819.2" cx="0" cy="0" spreadMethod="pad" gradientTransform="matrix(.004 0 0 .004 69.5 61.7)" id="h"><stop offset="0"/><stop offset="1" stop-color="#f00"/></radialGradient><radialGradient gradientUnits="userSpaceOnUse" r="819.2" cx="0" cy="0" spreadMethod="pad" gradientTransform="matrix(.012 0 0 .012 60.8 76.35)" id="i"><stop offset="0"/><stop offset="1" stop-color="#f00"/></radialGradient></defs><path fill="#039" d="M85.2 35.9l.65-.5-3.75 2.15-.3.05h-.1l-9.55 1q1.8-.75 3.15-1.7l1.85-1.45 3.8-.35-3.8.35q.65-.4 1.75-.65.95-.7 1.45-1.75-3.1-.1-6.15.05l-1.5.15-.5-.05 1.85-.6q5.6-1.75 11.15-4.25 1.85-.8 3.95-.7-3.85 3.9-8.2 7.45l4.3-.3q4.1-.25 8.25-.05-2.05.5-3.9 1.95l-5 4.25h.4l3.45.45q2.25.55 4.4 1.75.8.5 1.65.85l-1.7.2-.55.25q-2.5 1.4-5.2 2.4l-7.1 2-1.2-1.15 1.3-.5q2.35-.95 3.3-2.7l.45-1.1-.65.2-2.45-.05-.45-.1h-.05l-2.95 1.1-4.55.95h-.1l-3.95.15.05-.35q.15-1.6 2.15-1.65l1-.1 4.2-.85h.05l.65-.25 2.35-1.15 2.3-1.55 2.35-2.4-.55.1 2-1.55m-.6 5.05l-3.8 2.3-.55.2.55-.2 3.8-2.3m1.35 9.5l3.05-.3 5.35-1.2q-.85.8-1.3 2.05l-.35.8q-1.05 2-2.95 3.35-.85.6-1.8.8l-2.65-.05-.15-.05-.1-.05q-.65-.75.2-.95l.65-.1 2.35.1q2.9-.15 1.85-4.05H90l-1.4.2-2.35-.4-.3-.15m-28.3 6.3l-2.45-1Q51.9 54.4 50.45 53l-.1-.15q.55-.65 1.35-.85l1.35-.05 6.7.95 3.5 3.3-.9.2-4.7.35m7.55-9.5l-6.15 3.55q-1.95-1-4.1-1.45l-2.4-.35-7.85-.35 2.95-2.05q3.6-2.4 7.8-2.55h.15l.35.05 6.9 2.15q1.25.45 2.35 1M76.45 28.6l-.45.75q-.4.8-1.2 1.4l-4.25 2.05-3.85-1.65q1.75.2 2.65-1.25l.85-1.55L71.65 26l.3-.4-.35.25q-1.45 1-3.45 1.4L58.2 29.5q2.85-1.85 5.65-3.75 8.05-5.85 17-7.85l6.8-1q-4.5 2.9-7.85 6.95-1.85 2.2-3.35 4.75m-8.5 20.45l2.35 2.25-4.05-.3-.55-.15-.1-.05 2.35-1.75M51.15 57l6.45 5.4q2.45 2.35 2.25 6-1.95-2-4.9-2.85l-3.5-.95q-1.4-.7-1.7-2.1l-.1-.7-.05-.7.3-.6-.1-.05-.65-.85-.05-.1-1.25-.85.5-.8 1.1-.95.5-.2.9.05.3.25"/><path fill="#f60" d="M20.75 40.85q1.95 3.05.8 7l-.2-.25q-1.95-1.8-3-4.05l.05 1.7q-.6 6.2-3.75 9.25l-.1-2.2q-.25-3-.15-6l-.3 1.2q-2 7.15-2.6 13.6l.35-10.95-.55 1.15q-.6 1.05-.75 2.5-.9 7.45-.5 15.35-3.55-3.25-3.7-7.8-.25-4.55-.1-9.05.1-4.55-.85-8.95 3.9.85 6 2.3l.7.75.25 1q-.05 1.45-.5 2.75.45-1.3.5-2.75l-.25-1 .7-.75 1.6-2.8.25-1.05 1.95.1q.75.05 1.2.5l.15.2-.1-.3q-.15-.65.5-2.35.55-1.4 1.65-.15v.05l.75 1m-6.1.95l-.25 4.5.25-3.05V41.8m3.3.8l.4.95-.4-.95"/><path d="M5.4 43.35l-.95-4.8q-.5-3.25.8-6.2-2.75-4.6.75-8l2.7-2.65q.15 1.95.6 4 .45 2.05-.6 3.6Q5.65 33.85 7 39.65q.45 2.1 3.05 2.15l1-1.75 1.3 3.75.45 1.85-.7.75-.7-.75q-2.1-1.45-6-2.3m21.1-19.1q-1.1-1.2-3.05-1.15l-2.55.45-.9.35-2.1 1.3.25-.8.65-1.2 1.1-1.15.55-.4q2.3-1.45 5.5-1.05l-.25 1.55q.05.65.4 1.15l.4.95m-20.15 6.1l-1.1 2 1.1-2"/><path fill="#ff9" d="M47.65 2.8l3.4.25q4 .1 7.75 1.55l.75.3q3.85 1.55 7.55 3.4 3.75 1.85 6.95 4.65l3.85 3.25q-5.7-1.6-11.6-2.6l-6.45-1.4L52.2 10l-2.4-.25-.9.05-3.75-1.4 11 .75 3.9-.25L49.8 4.2l-2.15-1.4m-36.1 16.05l.35-1.35q.3-1.8.25-3.75l.3-4.5v-.1l3.7-4.9-.75 2.5-.75 7 1.85-2.2 3.3-2.95.4-.3 1.75-1.65.55-.7-.3.6-1.15 1.5q-1.1 1.6-1 3.5.65-2.95 3.45-3.8 3-.95 6.3-1.1l.8-.1.7-.35-.45 1.5-.2 1.45.05 4.6.85.1 4.5-.45.35.7q-3.1 1.85-6.6 3.3.45-.8.55-1.95V14.4q0-2.25-.5-4.4-.25-1.05-1.05-1.15-.95-.1-2.5 1l-1.25 1Q22.2 13.3 21 16.95l-2.25.65-8.3 4.15.35-.7.75-2.2"/><path fill="url(#a)" d="M23.8.6l14.3-1.8 5.15-.2-6.9 2.9 5.5.3 5.8 1 2.15 1.4 10.25 4.7-3.9.25-11-.75 3.75 1.4-1.25-.05q-2.3-.1-4.05 1.1l-3.3 1.8q1.35 1.25 2.2 2.75.7 1.2.95 2.65l.1.6q.2 1.5-1 2l-1.6.8-.05.3q-.2 1.2-1.8 1.35h-.75q-1.15 0-1.7 1.15.25-.85.75-1.65.6-1.05 1.65-2l1.15-1.65q.4-1 0-2.45l-.3-1q-1.15-2.85-2.8-1.85l-.7.45-.35-.7-4.5.45-.85-.1-.05-4.6.2-1.45.45-1.5-.7.35-.8.1q-3.3.15-6.3 1.1-2.8.85-3.45 3.8-.1-1.9 1-3.5l1.15-1.5.3-.6-.55.7L20.2 8.3l-.4.3-3.3 2.95-1.85 2.2.75-7 .75-2.5-3.7 4.9Q12.85 6.9 13.6 5l.45-.8q.55-.75 1.6-1.15Q19.6 1.3 23.8.6m10.4 1.45l2.15-.55-2.15.55m5.8 19.9l.95-.5-.95.5"/><path fill="url(#b)" d="M39.1 23.1q-.15 3.8 2.7 6.2 3.1 2.6 7.1 3.6-1 6.55 4.75 2.15.85-.7.9-2.05.05-1.2.9-1.65.15 1.1.6 2.15.15-2.35 2.15-4l9.95-2.25q2-.4 3.45-1.4l.35-.25-.3.4-1.45 2.35-.85 1.55q-.9 1.45-2.65 1.25l3.85 1.65L63 35.5l9.2-2.3.5.05 1.5-.15q3.05-.15 6.15-.05-.5 1.05-1.45 1.75-1.1.25-1.75.65L75.3 36.9q-1.35.95-3.15 1.7l9.55-1h.1l.3-.05 1.05-.1 2.05-1.55-2 1.55.55-.1-2.35 2.4-2.3 1.55-2.35 1.15-.65.25h-.05l-4.2.85-1 .1q-2 .05-2.15 1.65l-.05.35 3.95-.15h.1l4.55-.95 2.95-1.1h.05l.45.1 2.45.05.65-.2-.45 1.1q-.95 1.75-3.3 2.7l-1.3.5 1.2 1.15h-.15l-2.15.3.5.3 1.4.65 2.25.4 4.15-.05.3.15 2.35.4 1.4-.2h.1q1.05 3.9-1.85 4.05l-2.35-.1-.65.1q-.85.2-.2.95l.1.05-.05.05.25.15.75.6.4.35.5.6q1.2 1.6 1.2 3.95v.3q.05 1.25.25 2.5-.95.5-1.65 1.3l-.05.1-.7 1q-.65 1.2-.9 2.8l-.55 1.25-.8.6q-1.95.9-3.95 1.75l-.45.2-2 .7q.7.5 1.55.8H79l.45.15h.15l-.2.25q-2.2 2.25-4.95 3.3-2.3.85-4.95.85h-.65l.35.25q1.4 1.15 3.3.95-4.85 4.45-10.25 3.45l2.7 1.2q-2.8 1.85-6 2.75l-3.25.65-3.45.15 2.25.6q-4.8 2.9-10.55 0 .05 2.15-1.7 2l-3.2-1.45-.45-.35q-2.35-1.75-3.3-4.55l-.25-.85 1.3-.4q5.6-2.4 4.25-6.45l-.15-.5q-.55-1.35-1.4-2.2l-.1-.05q-.75-.75-1.7-1.05l-3.7-.25q-1.65.25-3.1.95-1.5.75-2.7 1.95l-1.45.6q-2.05 1-4.15 2.2-4 2.35-5.55 6.75-1.55 4.55-6 6.5L7.75 93.6q5.9-3.55 7.85-12 1.9-8.3 8.75-14l4.7-3.75 1.5-1 1.65-.65.1-.85q.3-1.1.85-1.95l.85-.95 1.55-1.9q.9-1.7.85-4 0-4.9.55-9.7.15-1.55.95-2.8.7-1.25 2-2.05l.9-.55h-1.45q-6.5.25-3.9-4.95-2.05-1.15-3.75-2.7-.6 2.6-2.2 4.55v.05l-1.6 1.65q-3.15 2.65-7.15 4.8l-.75-1v-.05q-1.1-1.25-1.65.15-.65 1.7-.5 2.35l-.05.1q-.45-.45-1.2-.5l-1.95-.1-.25 1.05-1.6 2.8-.45-1.85-1.3-3.75-1 1.75q-2.6-.05-3.05-2.15-1.35-5.8 1.7-10.35 1.05-1.55.6-3.6-.45-2.05-.6-4l2.85-2.85-.75 2.2-.35.7 8.3-4.15 2.25-.65q1.2-3.65 4.05-6.1l1.25-1q1.55-1.1 2.5-1 .8.1 1.05 1.15.5 2.15.5 4.4v1.05q-.1 1.15-.55 1.95 3.5-1.45 6.6-3.3l.7-.45q1.65-1 2.8 1.85l.3 1q.4 1.45 0 2.45l-1.15 1.65q-1.05.95-1.65 2-.5.8-.75 1.65.55-1.15 1.7-1.15h.75m25.1 15.3q1.9-1.45 4.45-1.95l1.3-.2.15-.05 7.05-.75-7.05.75-.15.05-1.3.2q-2.55.5-4.45 1.95m20 17.7l.8-.2h.1-.1l-.8.2M83.05 55l2.05.9-2.05-.9M43.2 47.55l.2 1.7-.25 2.55q3.35.55 5.95 2.2l1.5 1.1h.05l1.6 1.6-1.45-.2-.65.1-.2.1-.5.2-1.1.95-.5.8 1.25.85.05.1.65.85-.2.15v.5l.05.7.1.7q.3 1.4 1.7 2.1l3.5.95q2.95.85 4.9 2.85.2-3.65-2.25-6L51.15 57l.15-.15 3.7.75 5.65.2-3-1.05 4.7-.35.9-.2-3.5-3.3 2.65.05 5.4-4.05-.05-.05q-1.2-.9-2.55-1.6-1.1-.55-2.35-1l-6.9-2.15v-.05L61.8 44l-4.15-.45q-4.4.05-8.65 1.2l-2.5.9q-1.8.75-3.3 1.9l-.45.35.45-.35m24.75 1.5l-.15-.15.15.15-2.35 1.75.1.05.55.15 4.05.3-2.35-2.25M26.5 24.25l-.4-.95q-.35-.5-.4-1.15l.25-1.55q-3.2-.4-5.5 1.05l-.55.4-1.1 1.15-.65 1.2-.25.8-.9.8-.95 1.2L15 29.1q-1.7 4.1-1.3 8.8L26 30.65q1.15-.8 1.55-1.8l.15-1.55-.35-1.6q-.3-.85-.8-1.4l-.05-.05M31.55 26l.3.5q.3.8.15 1.85l-.3 1.45.3-1.45q.15-1.05-.15-1.85l-.3-.5M43.3 66.5l-1.05-1.2-2.1-1.9q-.7-.6-1.45-.9l-.45-.2-1.5-.45-.95-.1-2.45.15-1.15.3 1.15-.3 2.45-.15.95.1 1.5.45.45.2q.75.3 1.45.9l2.1 1.9 1.05 1.2 1.7 2.7 1 2.45-1-2.45-1.7-2.7m3 6.15l-.3-.95v-.05.05l.3.95q.35 1.6.3 3.3-.15 3 1.55 4.6-1.7-1.6-1.55-4.6.05-1.7-.3-3.3m2.6 8.55l-.75-.65.75.65q1.45.9 3.8 1.15l1.35.05-1.35-.05q-2.35-.25-3.8-1.15m17.3-7.8q-.6 2.1-2.3 3.75-2.35 2.2-5.05 3.7l-1.35.7q-1.6.8-3.45.85l3.1.35.75-.1 2-.45q2.95-1.1 4.7-4.3l.95-1.35q1.35-1.55 1.8-3.1.35-1.25 0-2.45l-.45-1.05-.7 3.45m.6-9.15l.2 2.45-.1 3.25.1-3.25-.2-2.45.25-.65-.25.65m5.85-4.05l-2.55-.35q-5.4.3-3.05 3.75 1.25-2.8 4-3.25l1.6-.15 1.8-.1-1.8.1"/><path fill="url(#c)" d="M82.1 37.55l3.75-2.15-.65.5-2.05 1.55-1.05.1M50.8 56.5l1.45.2-1.6-1.6h-.05L49.1 54q-2.6-1.65-5.95-2.2l.25-2.55-.2-1.7q1.5-1.15 3.3-1.9l2.5-.9q4.25-1.15 8.65-1.2l4.15.45-5.85.05h-.5q-4.2.15-7.8 2.55l-2.95 2.05 7.85.35 2.4.35q2.15.45 4.1 1.45l6.15-3.55q1.35.7 2.55 1.6l.05.05-5.4 4.05-2.65-.05-6.7-.95-1.35.05q-.8.2-1.35.85l.1.15q1.45 1.4 4.75 2.75l2.45 1 3 1.05-5.65-.2-3.7-.75-.45-.1-.05-.25"/><path fill="url(#d)" d="M17.9 25.2l2.1-1.3.9-.35 2.55-.45q1.95-.05 3.05 1.15l.05.05q.5.55.8 1.4l.35 1.6-.15 1.55q-.4 1-1.55 1.8L13.7 37.9q-.4-4.7 1.3-8.8l1.05-1.9L17 26l.9-.8"/><path fill="url(#e)" d="M30.55 62.85v-7q.25-3.65 1.9-6.7 1.65-3.05 1.45-6.75l-.1-1.25q-.4-3.1-2.35-5.2l-1.95-1.6q1.6-1.95 2.2-4.55 1.7 1.55 3.75 2.7-2.6 5.2 3.9 4.95h1.45l-.9.55q-1.3.8-2 2.05-.8 1.25-.95 2.8-.55 4.8-.55 9.7.05 2.3-.85 4L34 58.45l-.85.95q-.55.85-.85 1.95l-.1.85-1.65.65"/><path fill="url(#f)" d="M35.05 84.2l-.05-.3v-.05l-.1-1.1q-.05-2.5 2.05-4.55-.2-.95-.7-1.55-.7-.75-1.8-.95-2.55-.5-4.8 0l-1.9.5q1.2-1.2 2.7-1.95 1.45-.7 3.1-.95l3.7.25q.95.3 1.7 1.05l.1.05q.85.85 1.4 2.2l.15.5q1.35 4.05-4.25 6.45l-1.3.4"/><path fill="url(#g)" d="M88.45 64.35l.35 1.85q.25 2.3-.75 4.45l-1.4 2.2-7.7 7.3-6 4.45q-2.7 1.65-5.65 2.8-3.3 1.15-6.5 2.5l-2.2.9q-1.8.8-3.65 1.25l-5.35.55q-3.9-.05-7.35-1.2 1.75.15 1.7-2 5.75 2.9 10.55 0l-2.25-.6 3.45-.15 3.25-.65q3.2-.9 6-2.75l-2.7-1.2q5.4 1 10.25-3.45-1.9.2-3.3-.95l-.35-.25h.65q2.65 0 4.95-.85 2.75-1.05 4.95-3.3l.2-.25h-.15l-.45-.15h-.05q-.85-.3-1.55-.8l2-.7.45-.2q2-.85 3.95-1.75l.8-.6.55-1.25q.25-1.6.9-2.8l.7-1 .05-.1q.7-.8 1.65-1.3"/><path fill="url(#h)" d="M67.05 63.6q-2.35-3.45 3.05-3.75l2.55.35-1.6.15q-2.75.45-4 3.25"/><path fill="url(#i)" d="M54.05 82.4q1.85-.05 3.45-.85l1.35-.7q2.7-1.5 5.05-3.7 1.7-1.65 2.3-3.75l.7-3.45.45 1.05q.35 1.2 0 2.45-.45 1.55-1.8 3.1l-.95 1.35q-1.75 3.2-4.7 4.3l-2 .45-.75.1-3.1-.35"/><path fill="none" stroke="#500000" stroke-width=".05" stroke-linecap="round" stroke-miterlimit="3" d="M41.85 1.8l5.8 1m1.25 7l-1.25-.05q-2.3-.1-4.05 1.1l-3.3 1.8q1.35 1.25 2.2 2.75.7 1.2.95 2.65l.1.6q.2 1.5-1 2l-1.6.8-.05.3q-.2 1.2-1.8 1.35-.15 3.8 2.7 6.2 3.1 2.6 7.1 3.6l.7.15m19.05 12.6l3.95-.15m10.55-8.05l2.05-1.55m-5.25 12.95h-.15l-2.15.3.5.3 1.4.65 2.25.4 4.15-.05m-.65 5.45h-.2l.25.15m-46.3 33.9l-.45-.35m-3.55-5.4l-.05-.3v-.05m1.95-5.65q-.2-.95-.7-1.55-.7-.75-1.8-.95-2.55-.5-4.8 0l-1.9.5-1.45.6m4.25-20.95q.25-3.65 1.9-6.7 1.65-3.05 1.45-6.75l-.1-1.25q-.4-3.1-2.35-5.2l-1.95-1.6v.05l-1.6 1.65q-3.15 2.65-7.15 4.8M5.4 43.35l-.95-4.8q-.5-3.25.8-6.2-2.75-4.6.75-8l2.7-2.65 2.85-2.85m.9-9.7Q12.85 6.9 13.6 5l.45-.8q.55-.75 1.6-1.15Q19.6 1.3 23.8.6m34.4 28.9q-2 1.65-2.15 4-.45-1.05-.6-2.15-.85.45-.9 1.65-.05 1.35-.9 2.05-5.75 4.4-4.75-2.15m1.95 23.85l.45.1 3.7.75 5.65.2-3-1.05-2.45-1Q51.9 54.4 50.45 53l-.1-.15q.55-.65 1.35-.85l1.35-.05 6.7.95 2.65.05 5.4-4.05-.05-.05q-1.2-.9-2.55-1.6l-6.15 3.55q-1.95-1-4.1-1.45l-2.4-.35-7.85-.35 2.95-2.05q3.6-2.4 7.8-2.55h.5L61.8 44l-4.15-.45q-4.4.05-8.65 1.2l-2.5.9q-1.8.75-3.3 1.9l-.45.35m12.85-3.85l.35.05 6.9 2.15q1.25.45 2.35 1m2.6 1.65l.15.15 2.35 2.25-4.05-.3-.55-.15-.1-.05 2.35-1.75m-31.3-24.8q.55-1.15 1.7-1.15h.75m-21.2 2.1l2.1-1.3.9-.35 2.55-.45q1.95-.05 3.05 1.15m-8.6.95l-.9.8-.95 1.2L15 29.1q-1.7 4.1-1.3 8.8L26 30.65q1.15-.8 1.55-1.8l.15-1.55-.35-1.6q-.3-.85-.8-1.4l-.05-.05m-21.25 8.1l1.1-2m6.45 15.3l1.6-2.8m.25-1.05l1.95.1q.75.05 1.2.5m.05-.1q-.15-.65.5-2.35.55-1.4 1.65-.15m-8.6 5.85q-2.1-1.45-6-2.3M31.7 29.8q-.6 2.6-2.2 4.55m2.2-4.55l.3-1.45q.15-1.05-.15-1.85l-.3-.5m28.2 26.9l3.5 3.3-.9.2-4.7.35M49.6 61.1v-.5m-8.65-39.15l-.95.5"/><path fill="none" stroke="#B04600" stroke-width=".05" stroke-linecap="round" stroke-miterlimit="3" d="M20.75 40.85q1.95 3.05.8 7l-.2-.25q-1.95-1.8-3-4.05l.05 1.7q-.6 6.2-3.75 9.25l-.1-2.2q-.25-3-.15-6l-.3 1.2q-2 7.15-2.6 13.6l.35-10.95-.55 1.15q-.6 1.05-.75 2.5-.9 7.45-.5 15.35-3.55-3.25-3.7-7.8-.25-4.55-.1-9.05.1-4.55-.85-8.95m9-.5l.25-1.05v1.45l-.25 3.05.25-4.5m5.35-2v.05l.75 1M17.8 42.4l.15.2-.1-.3m-5.75 4.1l-.7-.75m.7.75l.25 1q-.05 1.45-.5 2.75m.95-4.5l-.7.75m6.25-2.85l-.4-.95"/><path fill="none" stroke="#dd0" stroke-width=".05" stroke-linecap="round" stroke-miterlimit="3" d="M47.65 2.8l3.4.25q4 .1 7.75 1.55l.75.3q3.85 1.55 7.55 3.4 3.75 1.85 6.95 4.65l3.85 3.25q-5.7-1.6-11.6-2.6l-6.45-1.4L52.2 10l-2.4-.25-.9.05"/><path fill="none" stroke="#B3B300" stroke-width=".05" stroke-linecap="round" stroke-miterlimit="3" d="M11.55 18.85l.35-1.35q.3-1.8.25-3.75l.3-4.5v-.1M36.4 14.1q-3.1 1.85-6.6 3.3.45-.8.55-1.95V14.4q0-2.25-.5-4.4-.25-1.05-1.05-1.15-.95-.1-2.5 1l-1.25 1Q22.2 13.3 21 16.95l-2.25.65-8.3 4.15.35-.7.75-2.2"/><path fill="none" stroke="#C02600" stroke-width=".05" stroke-linecap="round" stroke-miterlimit="3" d="M23.8.6l14.3-1.8 5.15-.2-6.9 2.9 5.5.3m-5.5-.3l-2.15.55m2.9 11.6q1.65-1 2.8 1.85l.3 1q.4 1.45 0 2.45l-1.15 1.65q-1.05.95-1.65 2-.5.8-.75 1.65"/><path fill="none" stroke="#6E0000" stroke-width=".05" stroke-linecap="round" stroke-miterlimit="3" d="M86.1 56.65l.4.35m1.7 4.55v.3m.25 2.5l.35 1.85q.25 2.3-.75 4.45l-1.4 2.2-7.7 7.3-6 4.45q-2.7 1.65-5.65 2.8-3.3 1.15-6.5 2.5l-2.2.9q-1.8.8-3.65 1.25l-5.35.55q-3.9-.05-7.35-1.2l-3.2-1.45m-3.75-4.9l-.25-.85m-.05-.35l-.1-1.1q-.05-2.5 2.05-4.55M7.75 93.6q5.9-3.55 7.85-12 1.9-8.3 8.75-14M85.1 55.9H85l-.8.2m.9-.2l-2.05-.9"/><path fill="none" stroke="#BF0000" stroke-width=".05" stroke-linecap="round" stroke-miterlimit="3" d="M26.3 76.8q-2.05 1-4.15 2.2-4 2.35-5.55 6.75-1.55 4.55-6 6.5L7.75 93.6"/><path fill="none" stroke="#AB0000" stroke-width=".05" stroke-linecap="round" stroke-miterlimit="3" d="M86.5 57l.5.6q1.2 1.6 1.2 3.95m0 .3q.05 1.25.25 2.5M38.6 89.6q-2.35-1.75-3.3-4.55"/><path fill="none" stroke="#730000" stroke-width=".05" stroke-linecap="round" stroke-miterlimit="3" d="M30.55 62.85v-7"/><path fill="none" stroke="#2B156C" stroke-width=".05" stroke-linecap="round" stroke-miterlimit="3" d="M66.9 69.95l.1-3.25-.2-2.45"/><path fill="none" stroke="#1C0E46" stroke-width=".05" stroke-linecap="round" stroke-miterlimit="3" d="M82.1 37.55l3.75-2.15-.65.5-2 1.55M72.6 45.5h.1l4.55-.95 2.95-1.1h.05l.55-.2 3.8-2.3 5-4.25q1.85-1.45 3.9-1.95-4.15-.2-8.25.05l-4.3.3-3.8.35m3.8-.35q4.35-3.55 8.2-7.45-2.1-.1-3.95.7-5.55 2.5-11.15 4.25l-1.85.6m7.75 15.65l7.1-2q2.7-1 5.2-2.4l.55-.25 1.7-.2q-.85-.35-1.65-.85-2.15-1.2-4.4-1.75L85 40.95h-.4m1.35 9.5l3.05-.3 5.35-1.2q-.85.8-1.3 2.05l-.35.8q-1.05 2-2.95 3.35-.85.6-1.8.8l-2.65-.05m-8.85-27.3l-.45.75q-.4.8-1.2 1.4l-4.25 2.05M58.2 29.5q2.85-1.85 5.65-3.75 8.05-5.85 17-7.85l6.8-1q-4.5 2.9-7.85 6.95"/><path fill="none" stroke="#1D0E49" stroke-width=".05" stroke-linecap="round" stroke-miterlimit="3" d="M51.15 57l6.45 5.4q2.45 2.35 2.25 6-1.95-2-4.9-2.85l-3.5-.95q-1.4-.7-1.7-2.1l-.1-.7m-.2-4.9l.5-.2m1.2.3l-.3-.25-.9-.05"/><path fill="none" stroke="#1F0F4F" stroke-width=".05" stroke-linecap="round" stroke-miterlimit="3" d="M77.15 35.45l-7.05.75-.15.05-1.3.2q-2.55.5-4.45 1.95M24.35 67.6l4.7-3.75 1.5-1 1.65-.65 1.15-.3 2.45-.15.95.1 1.5.45.45.2q.75.3 1.45.9l2.1 1.9 1.05 1.2m27.25-33.7L63 35.5l9.2-2.3M46 71.65v.05l.3.95m19.9.75l.7-3.45m-.1-5.7l.25-.65q1.25-2.8 4-3.25l1.6-.15 1.8-.1"/><path fill="none" stroke="#6432FB" stroke-width=".05" stroke-linecap="round" stroke-miterlimit="3" d="M46.3 72.65q.35 1.6.3 3.3-.15 3 1.55 4.6m.75.65q1.45.9 3.8 1.15l1.35.05q1.85-.05 3.45-.85l1.35-.7q2.7-1.5 5.05-3.7 1.7-1.65 2.3-3.75"/><path fill="none" stroke="#5F2FEF" stroke-width=".05" stroke-linecap="round" stroke-miterlimit="3" d="M48.15 80.55l.75.65"/><path fill="none" stroke="#2C166F" stroke-width=".05" stroke-linecap="round" stroke-miterlimit="3" d="M43.3 66.5l1.7 2.7 1 2.45"/><path fill="none" stroke="#8C0000" stroke-width=".05" stroke-linecap="round" stroke-miterlimit="3" d="M36.4 14.1l.7-.45"/></svg>