<svg xmlns="http://www.w3.org/2000/svg" viewBox="-0.1 -0.1 100.1 111.2" width="100.1" height="111.2"><defs><linearGradient gradientUnits="userSpaceOnUse" x1="-819.2" x2="819.2" gradientTransform="matrix(-.029 0 0 .022 24.05 34.25)" id="a"><stop offset="0"/><stop offset=".573" stop-color="#903"/><stop offset="1" stop-color="#663"/></linearGradient><radialGradient gradientUnits="userSpaceOnUse" r="819.2" cx="0" cy="0" spreadMethod="pad" gradientTransform="matrix(-.053 0 0 .092 58.15 49.85)" id="b"><stop offset="0" stop-color="#f00"/><stop offset=".165" stop-color="#cc0"/><stop offset=".369" stop-color="#690"/><stop offset=".498" stop-color="#0ff"/><stop offset=".667" stop-color="#003"/><stop offset=".831" stop-color="#f39"/><stop offset="1" stop-color="#f33"/></radialGradient><radialGradient gradientUnits="userSpaceOnUse" r="819.2" cx="0" cy="0" spreadMethod="pad" gradientTransform="matrix(-.009 0 0 .011 38.75 13.4)" id="c"><stop offset="0" stop-color="#EA0000"/><stop offset=".463" stop-color="#f60"/><stop offset=".682" stop-color="#fc0"/><stop offset="1"/></radialGradient><radialGradient gradientUnits="userSpaceOnUse" r="819.2" cx="0" cy="0" spreadMethod="pad" gradientTransform="matrix(-.025 0 0 .025 23.55 31.8)" id="d"><stop offset="0" stop-color="#f00"/><stop offset=".165" stop-color="#ff0"/><stop offset=".365" stop-color="#0f0"/><stop offset=".498" stop-color="#0ff"/><stop offset=".667" stop-color="#00f"/><stop offset=".831" stop-color="#f0f"/><stop offset="1" stop-color="#f00"/></radialGradient><radialGradient gradientUnits="userSpaceOnUse" r="819.2" cx="0" cy="0" spreadMethod="pad" gradientTransform="matrix(-.004 0 0 .004 24.55 51.9)" id="e"><stop offset="0" stop-color="#f00"/><stop offset=".165" stop-color="#ff0"/><stop offset=".365" stop-color="#0f0"/><stop offset=".498" stop-color="#0ff"/><stop offset=".667" stop-color="#00f"/><stop offset=".831" stop-color="#f0f"/><stop offset="1" stop-color="#f00"/></radialGradient><radialGradient gradientUnits="userSpaceOnUse" r="819.2" cx="0" cy="0" spreadMethod="pad" gradientTransform="matrix(-.011 0 0 .011 19.6 70.2)" id="f"><stop offset="0" stop-color="#f00"/><stop offset=".165" stop-color="#ff0"/><stop offset=".365" stop-color="#0f0"/><stop offset=".498" stop-color="#0ff"/><stop offset=".667" stop-color="#00f"/><stop offset=".831" stop-color="#f0f"/><stop offset="1" stop-color="#f00"/></radialGradient><linearGradient gradientUnits="userSpaceOnUse" x1="-819.2" x2="819.2" gradientTransform="matrix(-.012 0 0 .008 17.5 89)" id="g"><stop offset="0"/><stop offset=".561" stop-color="#960"/><stop offset="1" stop-color="#900"/></linearGradient><radialGradient gradientUnits="userSpaceOnUse" r="819.2" cx="0" cy="0" spreadMethod="pad" gradientTransform="matrix(-.006 0 0 .006 27 63.05)" id="h"><stop offset="0" stop-color="#f00"/><stop offset=".165" stop-color="#ff0"/><stop offset=".365" stop-color="#0f0"/><stop offset=".498" stop-color="#0ff"/><stop offset=".667" stop-color="#00f"/><stop offset=".831" stop-color="#f0f"/><stop offset="1" stop-color="#f00"/></radialGradient><linearGradient gradientUnits="userSpaceOnUse" x1="-819.2" x2="819.2" gradientTransform="matrix(-.013 0 0 .014 32.95 100)" id="i"><stop offset="0"/><stop offset=".561" stop-color="#960"/><stop offset="1" stop-color="#900"/></linearGradient><linearGradient gradientUnits="userSpaceOnUse" x1="-819.2" x2="819.2" gradientTransform="matrix(-.004 -.021 -.013 .003 75.65 58.35)" id="j"><stop offset="0" stop-color="#ff9"/><stop offset=".427"/><stop offset=".984" stop-color="#f00"/></linearGradient><linearGradient gradientUnits="userSpaceOnUse" x1="-819.2" x2="819.2" gradientTransform="matrix(.01 -.002 -.002 -.009 75.7 86.1)" id="k"><stop offset="0" stop-color="#ff9"/><stop offset=".427"/><stop offset=".984" stop-color="#f00"/></linearGradient><radialGradient gradientUnits="userSpaceOnUse" r="819.2" cx="0" cy="0" spreadMethod="pad" gradientTransform="matrix(.077 0 0 .077 49.95 55.55)" id="l"><stop offset="0" stop-color="#f00"/><stop offset=".165" stop-color="#ff0"/><stop offset=".365" stop-color="#0f0"/><stop offset=".498" stop-color="#0ff"/><stop offset=".667" stop-color="#00f"/><stop offset=".831" stop-color="#f0f"/><stop offset="1" stop-color="#f00"/></radialGradient></defs><path d="M41.2 56.95v-.05q-.55-1-1.2-1.45-3.1-2.55-7 .05l-5.4 3.65-1.9 1.25q-3.05 2-6.55 2.75l-.65-.45q-.9-.95-1.85-.85-.15-2.15 2.8-4.35 2.4-1.7 5.05-2.7l1.5-.45 1.1-.25q3.3-.65 6.05-2.45 1.3-.8 2.7-1.15 3.9-.95 6.55 3l1.25 1.65q1.55 1.65 3.2 2.7l-.25 2.5q-3.1.55-5.4-3.4M33.15 44.9l9 .25q2.3.05 2.7 1.65l1.95 6.45-2.2 1.3q-.4-.25-.4-.9.25-6-3.95-4.8-3.9 1.2-7.9 1.7-4.05.5-8.3-.85l-.35-.7 3.25-1.05q3.2-1.1 6.2-3.05m4.75-34.7l1.65.25.85.55q1.95 2.25-.9 4.6l-.55.4q-3.05 2.15-3.4-2.7-.15-2.2 1.4-2.85l.95-.25"/><path fill="url(#a)" d="M23.05 49.2L12.5 51.9l-6.9.5q-4.7-.6-4.2-5.05.45-4.4 4.6-5.95 3.8-1.35 7.85-1.05l7.65.35 7.95-.65q3.8-.7 7.45-2.05l4.05-1.6q4.5-1.9 3.7-6.45-.3-1.7-1.25-2.7-1.35-1.45-4.05-1.3-4 .2-7.7 1.25L24 29.15l-7.75 1.45-7.6.65q-2.75.15-5.05-.95-1.35-.7-2.65-1.85Q-.7 26.8.35 24.8q2.05-3.65 5.4-6.05 3.4-2.5 7.45-2.75 2.75-.2 3.15 1.55l-.05 1.3q-.25 1.75.35 3.45 1.3 3.7 6.4 1.75 3.8-1.45 7.9-1.1 2.9-.85 6.4-.95 4.25-.1 7.3 2.45 1.75 1.45 2.75 3.5 1.9 3.95-.9 7.35-2.55 3-6.15 5.1l-2.45 1.4-4.75 3.1q-3 1.95-6.2 3.05L23.7 49l-.65.2m6.65-25.85l1.25-.4-1.25.4m-26.1 6.5v.45-.45"/><path fill="url(#b)" d="M67.5 3.85Q68.65.95 72.05.5l7.45-.55-2.75 1.65q6 .55 10.65 5.1l4.95 4.05q2.15 1.5 3.7 3.9 3 4.75 3.6 10.35-2.6-4.5-7.1-4.4 4.35 3.9 3.85 10.8-.2 3.25-1.15 6.5-1.6 5.5-5.3 9.6L87 50.4l-5.3 3.5-3.75 1.85-3.45.5-12.45.75q-1.55 0-3 .5l-1 .45q-2.9 1.2-5.25 3.25-3.65 3.1-6.2 7.2-2.3 3.8-.15 7.4.4.7 1.1 1l.15.15q2.45 2.3 6.45 3.05 3.95.75 7.75 2.1 3.05 1 5.85 2.5l14.95 9.05q1.45.6 2.8.4l.65-.15 6.9-1.85q3.8-.75 6.95-3.2-5.35 6.25-12.55 9.55-1.9.9-4.15 1.2l-2.8.2-7.95-.95q-4.45-.9-8.8-.9-.65.5-1.7.85l-4 .3q-4.65.55-8.4-1.75-1.9-1.2-4.1-1.55.3 4.2-2 2.5l-.4-.25q-1.05-.75-2.4-1.3-2.7-1.15-5.3-3.15l-1.35-.9q-2.55-1.35-4.05-3.3l-.45-.55q-1.4.1-2.6.65l-2.1-1.7q-1.6-1.4-2.05-3.7l-.5-1.4-.5-.55q1.55-1.2 3.55-.95 4.05.55 7.3 2.1 3.5 1.65 7.45 3.1 3.55 1.25 7.25 1.6l-3.35-1.65q-3.25-1.8-6.5-4.15-2.9-2.1-4.85-5.1-.7-1.3-.7-2.6-.05-4.2 1.3-8 1.45-4.05 4.7-6.95l3.2-2.6q2.3 3.95 5.4 3.4l.25-2.5q-1.65-1.05-3.2-2.7l.95-.6 2.2-1.3q1.8-.85 3.7-1.45l7.55-2.5q4.05-1.45 6.4-3.85.5-.65.4-1.35-.45-2.25-3.35-2.1l-.05-.05q4-.7 7.3-3.6 3.1-2.8 5.75-6 2.75-3.25 1.95-7.2-.7-4.2-2.85-7.25.8 3.2.45 6.6-.3 3-1.65 5.75-1.65 3.6-5.05 5.8l-6.95 4.1q-3.45 1.8-7.4 1.65H37.9l2.45-1.4q3.6-2.1 6.15-5.1 2.8-3.4.9-7.35-1-2.05-2.75-3.5-3.05-2.55-7.3-2.45-3.5.1-6.4.95-4.1-.35-7.9 1.1-5.1 1.95-6.4-1.75-.6-1.7-.35-3.45l.05-1.3q3.85-1.8 6.7-3.75 3.35-2.2 5.6-5.65 1.8-2.75 5.2-4.05 3.5-1.3 7.55-1.9l8.15-1.05 8.3-.55q4.1-.05 7.7 2.05l1.95 1.2 4.65 3.7q1.5 1.4 2.55.4-1.05 1-2.55-.4l-4.65-3.7m5.75 12.95l.35 1.1-.35-1.1M40.7 8.2l-.1-.15h-.05q-2.45-1.25-4.95 0-1.95 1.05-3.4 3.05-.9 1.35-.2 3.45 1.15 3.6 4.25 4.4 2.9.75 5.7.05l1.7-.75q1.3-.9 1.85-2.5.45-1.35-.05-2.15l-.6-1.15Q43.25 9.6 40.7 8.2M28.9 88l.7.85-.7-.85q1.75-1 3.6-.9 3.7.2 7.55 2.15 3.4 1.75 6.85 3.05 3.7 1.45 6.45.1-2.75 1.35-6.45-.1-3.45-1.3-6.85-3.05-3.85-1.95-7.55-2.15-1.85-.1-3.6.9m18.5 0l3.2 1.2q1 1.95 2.75 3.2-1.75-1.25-2.75-3.2L47.4 88m6 4.35l-.05.05.05-.05q4-1.95 7.45-.15-3.45-1.8-7.45.15m-1.8-2.85l-1-.3 1 .3m12.7 7.8l-.55.65.55-.65"/><path fill="url(#c)" d="M40.55 8.05l.15.15q2.55 1.4 4.15 4.25l.6 1.15q.5.8.05 2.15-.55 1.6-1.85 2.5l-1.7.75q-2.8.7-5.7-.05-3.1-.8-4.25-4.4-.7-2.1.2-3.45 1.45-2 3.4-3.05 2.5-1.25 4.95 0M37.9 10.2l-.95.25q-1.55.65-1.4 2.85.35 4.85 3.4 2.7l.55-.4q2.85-2.35.9-4.6l-.85-.55-1.65-.25"/><path fill="url(#d)" d="M43.4 27.25q-1.1 1.35-1.8 3.2l-.8-1.9-1.65 3.4q-1.55-1.15-3.4-3.4-1.9 2.25-2.25 5.1-.9-2.1-2-3.35l.2 5.45q-5.1.1-8.65-3.15v2.75q-5.2-.4-9.8-3.15-.4 1.95-.35 5.15-3.05 1.2-6.3-1.25-2.95-2.2-3-5.8 2.3 1.1 5.05.95l7.6-.65L24 29.15l7.65-1.95q3.7-1.05 7.7-1.25 2.7-.15 4.05 1.3"/><path fill="url(#e)" d="M24.5 54.8l-1-3.4q-.4-1.25-.45-2.2l.65-.2.35.7L26 54.35l-1.5.45"/><path fill="url(#f)" d="M19.15 63.15q3.6 2.9 3 8.25-.35 3.6.35 7.1-.75-1.65-1.1-3.45-.8-4-2.9-7.4-1.55-2.65-1.85-5.8.95-.1 1.85.85l.65.45"/><path fill="url(#g)" d="M22.9 95l-10.85-.3q-2.1-.1-4.05.7.5-3.05 2-6.25 1.7-3.7 5.3-5.25 3.4-1.4 7.05-1.2l.5 1.4q.45 2.3 2.05 3.7l2.1 1.7q-2.25 1.05-3.55 3.95L22.9 95"/><path fill="url(#h)" d="M27.6 59.15q1 3.95.5 7.8-1.6-3.1-2.4-6.55l1.9-1.25"/><path fill="url(#i)" d="M43.15 98.05l-1 1.75-2.8 2.25q-4.3 3.55-3.6 9.1-1.35 0-2.6-.85-3.35-2.2-6.4-5.05-1.85-1.7-3-4.05-1.6-3.05-.85-6.2l.55-1.55q1.3-2.9 3.55-3.95 1.2-.55 2.6-.65l.45.55q1.5 1.95 4.05 3.3l1.35.9q2.6 2 5.3 3.15 1.35.55 2.4 1.3"/><path fill="url(#j)" d="M89.95 47.5q2.05 3 2.3 7.05.15 3.3.95 6.55l-.2.2q-1.6-1.6-2.4-4l-.45-2q-4.25 4.55-2.9 10.55.45 1.8 1.3 3.2-3.95.85-4.7-4.3-.3-2.55-.95-4.85-3.75-.6-4.45 2.15-.8 3.35-.35 6.6-4.85-1.65-5.55-7.45-5.45.55-4.7 5.15-1.75-5-7.8-5.8-2.35-.35-2-2.6l1-.45q1.45-.5 3-.5l12.45-.75 3.45-.5 3.75-1.85 5.3-3.5 2.95-2.9"/><path fill="url(#k)" d="M75.9 78.5q2.05 3.55 2.1 7.6 0 1.6 1.45.9l3.1-1.75q.75 2.75 1.1 6.1-.25 1.55-.95 2.3L67.75 84.6q1.3-.3 2.65-1 3.65-1.9 5.5-5.1"/><path fill="none" stroke="#000" stroke-width=".05" stroke-linecap="round" stroke-miterlimit="3" d="M22.35 82.7l-.5-.55"/><path fill="none" stroke="url(#l)" stroke-width=".05" stroke-linecap="round" stroke-miterlimit="3" d="M67.5 3.85Q68.65.95 72.05.5l7.45-.55-2.75 1.65q6 .55 10.65 5.1l4.95 4.05q2.15 1.5 3.7 3.9 3 4.75 3.6 10.35-2.6-4.5-7.1-4.4 4.35 3.9 3.85 10.8-.2 3.25-1.15 6.5-1.6 5.5-5.3 9.6L87 50.4l-5.3 3.5-3.75 1.85-3.45.5-12.45.75q-1.55 0-3 .5l-1 .45q-2.9 1.2-5.25 3.25-3.65 3.1-6.2 7.2-2.3 3.8-.15 7.4.4.7 1.1 1l.15.15q2.45 2.3 6.45 3.05 3.95.75 7.75 2.1 3.05 1 5.85 2.5l14.95 9.05q1.45.6 2.8.4l.65-.15 6.9-1.85q3.8-.75 6.95-3.2-5.35 6.25-12.55 9.55-1.9.9-4.15 1.2l-2.8.2-7.95-.95q-4.45-.9-8.8-.9-.65.5-1.7.85l-4 .3q-4.65.55-8.4-1.75-1.9-1.2-4.1-1.55.3 4.2-2 2.5l-.4-.25M47.4 88l-3.35-1.65q-3.25-1.8-6.5-4.15-2.9-2.1-4.85-5.1-.7-1.3-.7-2.6-.05-4.2 1.3-8 1.45-4.05 4.7-6.95l3.2-2.6m-24.85-39.4q3.85-1.8 6.7-3.75 3.35-2.2 5.6-5.65 1.8-2.75 5.2-4.05 3.5-1.3 7.55-1.9l8.15-1.05M37.9 41.8H53q3.95.15 7.4-1.65l6.95-4.1q3.4-2.2 5.05-5.8 1.35-2.75 1.65-5.75.35-3.4-.45-6.6l-.35-1.1M46.8 53.25q1.8-.85 3.7-1.45l7.55-2.5q4.05-1.45 6.4-3.85.5-.65.4-1.35-.45-2.25-3.35-2.1m-.05-.05q4-.7 7.3-3.6 3.1-2.8 5.75-6 2.75-3.25 1.95-7.2-.7-4.2-2.85-7.25m-44 70.95l-.7-.85m15.7-33.45l-.95.6m9.7 37.25l.05-.05m10.35 5.6l.55-.65"/><path fill="none" stroke="#832B33" stroke-width=".05" stroke-linecap="round" stroke-miterlimit="3" d="M23.05 49.2L12.5 51.9l-6.9.5q-4.7-.6-4.2-5.05.45-4.4 4.6-5.95 3.8-1.35 7.85-1.05l7.65.35 7.95-.65q3.8-.7 7.45-2.05l4.05-1.6q4.5-1.9 3.7-6.45-.3-1.7-1.25-2.7-1.35-1.45-4.05-1.3-4 .2-7.7 1.25L24 29.15l-7.75 1.45-7.6.65q-2.75.15-5.05-.95v-.45m0 .45q-1.35-.7-2.65-1.85Q-.7 26.8.35 24.8q2.05-3.65 5.4-6.05 3.4-2.5 7.45-2.75 2.75-.2 3.15 1.55l-.05 1.3q-.25 1.75.35 3.45 1.3 3.7 6.4 1.75 3.8-1.45 7.9-1.1 2.9-.85 6.4-.95 4.25-.1 7.3 2.45 1.75 1.45 2.75 3.5 1.9 3.95-.9 7.35-2.55 3-6.15 5.1l-2.45 1.4-4.75 3.1m-2.2-21.95l-1.25.4M23.05 49.2l.65-.2"/><path fill="none" stroke="#402A00" stroke-width=".05" stroke-linecap="round" stroke-miterlimit="3" d="M43.15 98.05l-1 1.75-2.8 2.25q-4.3 3.55-3.6 9.1-1.35 0-2.6-.85-3.35-2.2-6.4-5.05-1.85-1.7-3-4.05-1.6-3.05-.85-6.2l-10.85-.3q-2.1-.1-4.05.7.5-3.05 2-6.25 1.7-3.7 5.3-5.25 3.4-1.4 7.05-1.2l.5 1.4q.45 2.3 2.05 3.7l2.1 1.7q-2.25 1.05-3.55 3.95L22.9 95m20.25 3.05q-1.05-.75-2.4-1.3-2.7-1.15-5.3-3.15l-1.35-.9q-2.55-1.35-4.05-3.3l-.45-.55"/><path fill="none" stroke="#995F00" stroke-width=".05" stroke-linecap="round" stroke-miterlimit="3" d="M27.6 59.15q1 3.95.5 7.8-1.6-3.1-2.4-6.55m-6.55 2.75q3.6 2.9 3 8.25-.35 3.6.35 7.1-.75-1.65-1.1-3.45-.8-4-2.9-7.4-1.55-2.65-1.85-5.8m7.85-7.05l-1-3.4q-.4-1.25-.45-2.2m1 .5L26 54.35"/><path fill="none" stroke="#785000" stroke-width=".05" stroke-linecap="round" stroke-miterlimit="3" d="M89.95 47.5q2.05 3 2.3 7.05.15 3.3.95 6.55l.25.65-.45-.45q-1.6-1.6-2.4-4l-.45-2q-4.25 4.55-2.9 10.55.45 1.8 1.3 3.2-3.95.85-4.7-4.3-.3-2.55-.95-4.85-3.75-.6-4.45 2.15-.8 3.35-.35 6.6-4.85-1.65-5.55-7.45-5.45.55-4.7 5.15L68.3 68M58.05 57.95q-.35 2.25 2 2.6 6.05.8 7.8 5.8"/><path fill="none" stroke="#666" stroke-width=".05" stroke-linecap="round" stroke-miterlimit="3" d="M43.4 27.25q-1.1 1.35-1.8 3.2l-.8-1.9-1.65 3.4q-1.55-1.15-3.4-3.4-1.9 2.25-2.25 5.1-.9-2.1-2-3.35l.2 5.45q-5.1.1-8.65-3.15v2.75q-5.2-.4-9.8-3.15-.4 1.95-.35 5.15-3.05 1.2-6.3-1.25-2.95-2.2-3-5.8"/><path fill="none" stroke="#382D00" stroke-width=".05" stroke-linecap="round" stroke-miterlimit="3" d="M40.55 8.05l.15.15q2.55 1.4 4.15 4.25l.6 1.15q.5.8.05 2.15-.55 1.6-1.85 2.5l-1.7.75q-2.8.7-5.7-.05-3.1-.8-4.25-4.4-.7-2.1.2-3.45 1.45-2 3.4-3.05 2.5-1.25 4.95 0"/><path fill="none" stroke="#540000" stroke-width=".05" stroke-linecap="round" stroke-miterlimit="3" d="M82.7 93.65q.7-.75.95-2.3-.35-3.35-1.1-6.1L79.45 87q-1.45.7-1.45-.9-.05-4.05-2.1-7.6"/><path fill="none" stroke="#791863" stroke-width=".05" stroke-linecap="round" stroke-miterlimit="3" d="M21.85 82.15q1.55-1.2 3.55-.95 4.05.55 7.3 2.1 3.5 1.65 7.45 3.1 3.55 1.25 7.25 1.6"/><path fill="none" stroke="#851A68" stroke-width=".05" stroke-linecap="round" stroke-miterlimit="3" d="M28.9 88q1.75-1 3.6-.9 3.7.2 7.55 2.15 3.4 1.75 6.85 3.05 3.7 1.45 6.45.1"/><path fill="none" stroke="#006483" stroke-width=".05" stroke-linecap="round" stroke-miterlimit="3" d="M53.35 92.4q-1.75-1.25-2.75-3.2L47.4 88m6 4.35q4-1.95 7.45-.15m-10.25-3l1 .3"/><path fill="none" stroke="#4F4F2F" stroke-width=".05" stroke-linecap="round" stroke-miterlimit="3" d="M75.9 78.5q-1.85 3.2-5.5 5.1-1.35.7-2.65 1"/><path fill="none" stroke="#002F58" stroke-width=".05" stroke-linecap="round" stroke-miterlimit="3" d="M49.55 1.15l8.3-.55q4.1-.05 7.7 2.05l1.95 1.2 4.65 3.7q1.5 1.4 2.55.4"/></svg>