<svg xmlns="http://www.w3.org/2000/svg" viewBox="0 0 100.0 91.4" width="100" height="91.4"><defs><radialGradient gradientUnits="userSpaceOnUse" r="819.2" cx="0" cy="0" fx="87942.4" fy="0" spreadMethod="repeat" gradientTransform="matrix(.059 0 0 .059 58.3 47.45)" id="a"><stop offset="0" stop-color="#f00"/><stop offset=".596" stop-color="#093"/><stop offset="1" stop-color="#633"/></radialGradient><radialGradient gradientUnits="userSpaceOnUse" r="819.2" cx="0" cy="0" spreadMethod="pad" gradientTransform="matrix(.016 0 0 .016 74.65 13.35)" id="b"><stop offset="0" stop-color="#f00"/><stop offset=".596" stop-color="#093"/><stop offset="1" stop-color="#633"/></radialGradient><radialGradient gradientUnits="userSpaceOnUse" r="819.2" cx="0" cy="0" spreadMethod="pad" gradientTransform="matrix(.025 0 0 .025 91.55 51.2)" id="c"><stop offset="0" stop-color="#f00"/><stop offset=".596" stop-color="#093"/><stop offset="1" stop-color="#633"/></radialGradient><linearGradient gradientUnits="userSpaceOnUse" x1="-819.2" x2="819.2" gradientTransform="matrix(.004 .007 -.004 .002 55.25 .5)" id="d"><stop offset="0" stop-color="#f90"/><stop offset=".502" stop-color="#BF7300"/><stop offset=".71" stop-color="#221500"/><stop offset=".773" stop-color="#9F6000"/><stop offset=".859"/><stop offset="1" stop-color="#E28800"/></linearGradient><radialGradient gradientUnits="userSpaceOnUse" r="819.2" cx="0" cy="0" spreadMethod="pad" gradientTransform="matrix(.017 0 0 .017 61.5 24.15)" id="e"><stop offset="0" stop-color="#f00"/><stop offset=".596" stop-color="#093"/><stop offset="1" stop-color="#633"/></radialGradient><radialGradient gradientUnits="userSpaceOnUse" r="819.2" cx="0" cy="0" spreadMethod="pad" gradientTransform="matrix(.014 0 0 .014 47.15 21.45)" id="f"><stop offset="0" stop-color="#fc0"/><stop offset=".859"/></radialGradient><radialGradient gradientUnits="userSpaceOnUse" r="819.2" cx="0" cy="0" spreadMethod="pad" gradientTransform="matrix(.012 0 0 .012 40.2 42.05)" id="g"><stop offset=".204" stop-color="#069"/><stop offset=".859"/></radialGradient><radialGradient gradientUnits="userSpaceOnUse" r="819.2" cx="0" cy="0" spreadMethod="pad" gradientTransform="matrix(.043 0 0 .016 61 46.3)" id="h"><stop offset="0" stop-color="#f00"/><stop offset=".596" stop-color="#093"/><stop offset="1" stop-color="#633"/></radialGradient><linearGradient gradientUnits="userSpaceOnUse" x1="-819.2" x2="819.2" gradientTransform="matrix(.006 -.004 .004 .006 25.85 8.45)" id="i"><stop offset="0" stop-color="#f90"/><stop offset=".502" stop-color="#BF7300"/><stop offset=".71" stop-color="#221500"/><stop offset=".773" stop-color="#9F6000"/><stop offset=".859"/><stop offset="1" stop-color="#E28800"/></linearGradient><radialGradient gradientUnits="userSpaceOnUse" r="819.2" cx="0" cy="0" spreadMethod="pad" gradientTransform="matrix(.012 0 0 .012 30.4 23.15)" id="j"><stop offset="0" stop-color="#fc0"/><stop offset=".859"/></radialGradient><linearGradient gradientUnits="userSpaceOnUse" x1="-819.2" x2="819.2" gradientTransform="matrix(-.004 -.011 .007 -.002 20.95 50)" id="k"><stop offset="0" stop-color="#f90"/><stop offset=".502" stop-color="#BF7300"/><stop offset=".71" stop-color="#221500"/><stop offset=".773" stop-color="#9F6000"/><stop offset=".859"/><stop offset="1" stop-color="#E28800"/></linearGradient><linearGradient gradientUnits="userSpaceOnUse" x1="-819.2" x2="819.2" gradientTransform="matrix(.003 .007 -.006 .002 8.95 49.65)" id="l"><stop offset="0" stop-color="#f90"/><stop offset=".502" stop-color="#BF7300"/><stop offset=".71" stop-color="#221500"/><stop offset=".773" stop-color="#9F6000"/><stop offset=".859"/><stop offset="1" stop-color="#E28800"/></linearGradient><radialGradient gradientUnits="userSpaceOnUse" r="819.2" cx="0" cy="0" spreadMethod="pad" gradientTransform="matrix(.004 0 0 .004 36.15 43.25)" id="m"><stop offset="0" stop-color="#c00"/><stop offset=".212" stop-color="#c00"/><stop offset=".376" stop-color="#fff"/><stop offset=".427" stop-color="#ff0"/><stop offset=".639" stop-color="#fc0"/><stop offset=".788" stop-color="#f60"/><stop offset="1" stop-color="#f00"/></radialGradient><radialGradient gradientUnits="userSpaceOnUse" r="819.2" cx="0" cy="0" spreadMethod="pad" gradientTransform="matrix(.013 0 0 .013 30.05 60.65)" id="n"><stop offset="0" stop-color="#900"/><stop offset=".431" stop-color="#200000"/><stop offset=".859"/></radialGradient><radialGradient gradientUnits="userSpaceOnUse" r="819.2" cx="0" cy="0" spreadMethod="pad" gradientTransform="matrix(.022 0 0 .022 64 74)" id="o"><stop offset="0" stop-color="#f00"/><stop offset=".596" stop-color="#093"/><stop offset="1" stop-color="#633"/></radialGradient><radialGradient gradientUnits="userSpaceOnUse" r="819.2" cx="0" cy="0" spreadMethod="pad" gradientTransform="matrix(.683 0 0 .683 -1.7 -8.1)" id="p"><stop offset="0" stop-color="#f00"/><stop offset=".596" stop-color="#093"/><stop offset="1" stop-color="#633"/></radialGradient><radialGradient gradientUnits="userSpaceOnUse" r="819.2" cx="0" cy="0" spreadMethod="pad" gradientTransform="matrix(.019 0 0 .031 50.15 71.45)" id="q"><stop offset="0" stop-color="#f00"/><stop offset=".596" stop-color="#093"/><stop offset="1" stop-color="#633"/></radialGradient><radialGradient gradientUnits="userSpaceOnUse" r="819.2" cx="0" cy="0" spreadMethod="pad" gradientTransform="matrix(.016 .001 -.002 .02 55.75 71.8)" id="r"><stop offset="0" stop-color="#f00"/><stop offset=".596" stop-color="#093"/><stop offset="1" stop-color="#633"/></radialGradient></defs><path d="M90.2 83.45l.5 2.55-.5.35-2.7.5-.35-.2-6.05-.3.3-.85v-.2q.35-.65.2-1.15l8.6-.7m-9.1 5.4q.15.85.65 1.7l-.35.35q-2.35 1.2-4.7-.7-1.85 2.05-3.75-.15l-1.15.85-1.7.5q-1.7 0-2.05-1.7l-.15-.5-1 .5h-.35q-2.2.35-2.55 0h-.3q-.35-1-.2-1.85.35-.65 1.2-1.2l1.2.7 2.5 1 2.2.5h2.35q4.1-.15 8.15 0M61.3 85l-.5 1q-1.15 1.85-2.85 1.2l-.5-.2h-.2l-2 .85q-1.85.5-3.05-.65l-1.2.5-2.35.65q-2.05 0-2.7-.5-1.5-.15-1.5-1.7l.5-1.35 2.85 1 2.9.55h1l5.4-.35 2.55-1 1.35-.2.3.2M28.7 55.75l2.4.7 3.35 1.65q-.65 1.05-1.7 1.9-1-1.7-1-3.05-.15 2-1.2 3.2l-1.35-2.7-.5-1.7.2 1.85q.15 1.55-.35 2.7l-2.2-2.85-.85-2.2.5.15 2.7.35M52.2 87.2q-.35-.2-.5-.85.15.65.5.85m-6.4-.55q-.2.7.15 1.2-.35-.5-.15-1.2"/><path fill="url(#a)" d="M63.2 14.7l2.15-1q4.4-1.35 8.15 1.15l.5.35q3.7 2.9 8.75 1.55l4.4-.85 1.7 1.15q1.85 1.7 3.05 4.05l1 2.2.85 3.05.5 5.75v.35l-.15 8.6h-.2l.35.15q1.55 1.55 1.55 3.75l-.35 3.7-.5 1.55q-.7 1.85-2.2 3.2l-2.4 1.5q-1.85.85-2 2.55l-.85 4.05-1.5 3.9-2.7 4.7 2.15-1 3.4-1.35q1.85-.5 2.55.65l-2.2 1.9q-.7 1.5-.7 3.35l-.15 3.75q0 1.85 1 3.55l.85 2.5-8.6.7q.15.5-.2 1.15v.2l-.3.85-.2.3v1.05l.2 1.15q-4.05-.15-8.15 0H70.6l-2.2-.5q-.15-.65 0-1.7l.35-1.35q1.5-4.9 5.4-6.55l1.2-.35-.85-.5-.85-.85q-.35-.85 0-2.05v-.85q.15-2.35-2.85-3.7l-2.05-1-1.85-1.35-1-1.2q-1.35-1.85-1.2-4.4l-4.4-.15q-4.05-.85-7.6-2.9V58.1l.15-.65-.3-.2q-1.05-.65-1.35-2.15-.7-4.25 3.2-4.6 2.55-.15 5.4-1.5 3.55-1.85 3.4-5.25l-5.45.5-2.35-.15q0 1-.65 1.5l-3.9 3.05h-.15l-.15.2h-.05Q49 50 47.65 51.55q-1.7 2-1.7 4.7l.15.5v.35q0 .85-.3 1l-3.4 1.7L38 62l.35-2.85-2.2-.35-.5-.2-1.2-.5-3.35-1.65-2.4-.7-2.7-.35-.5-.15-4.4-.5q-.3-1.35-.15-2.9L24 51.7l2.85-.85q1.55-.65 2.55-2 .85-1.55.15-3.75v-.15q-.15-.7-.65-1.35l-1.55-1.7-1-.7-2.05-.3v-1.55l.35-1.5.2-.2-.2-.5.2-5.9q0-3.05-.55-5.75-.5-2.2-.5-4.4-.3-2.85 2.4-4.35 2.2-1.2 3.2-2.9l.15-.5 3.2-4.05.7-.5q1.7-1.05 4.05.65 2.7 2.4 3.7-.65.35-1.35 1.85-1.7l2.55-.15h1.55q1.15 0 2.35-.55 2.85-1.35 4.4 1.05l.5.65 2 4.25q1.7.15 2.7 1.35v.15q1.05 1.2.85 2.55l-.3 1-.7 1.35q-.85 1.2-1.2 2.35-.3 1.35-.15 2.9.35 2.85 1 5.55l1.85 1.7q1.35 1.7-2.15 2.9-1.9.65-3.55 1.65l4.2.2q4.75.85 7.75-1.7l.7-.7.85-1.65V30.6q-.5-2.2-2.7-4.4-2.35-2.4-2.55-5.25-.15-1.35.2-2.85v-.55l.15-1.65-.15-1.2M47.95 36.85q2.05 1 3.75 2.5l.35.35h.15q.85.7 2 .5.85-.15.2-1.15l-.85-1.4-.15-.8 1.35-1.05-1.35 1.05.15.8.85 1.4q.65 1-.2 1.15-1.15.2-2-.5h-.15l-.35-.35q-1.7-1.5-3.75-2.5l-.5-.35h-.3q-2.4-1.2-5.1-1.85l-.65-.2-1.55-.15q-1.35.5-2.5 1.35h-.2l-1.85 1.5q-1.85 1.9-2.85 4.6-.7 1.5-.7 2.85 0 2.85 2.55 4.55.65.5 1.5.7h1.85l3.4-.7 4.75-.65.3-.2q1.2-.85 2.05-2.2.85-1.15.35-2.85l-.55-1.35q-.65-2.85 0-5.05m-11.3-1.9q1.55-.65 3.2-.65-1.65 0-3.2.65m44.95-1q2.2 2.05 2.85 5.1.5 1.85.5 3.85v2.05L84.3 49l.65-4.05V42.9q0-2-.5-3.85-.65-3.05-2.85-5.1m12.85 9.45l-.2-2.2.2 2.2M78.2 61.5l1.85-2.2q1.05-1.5 1.9-3.2 1-1.85 1.65-4.05l.7-3.05-.7 1.5q-1 2.55-2.85 4.6l-3.55 4.2 1 2.2q.5 1.85-.5 3.55l-.15.35.65 1.35 1.85 2.35.7.65q.85.85 1.35 1.9l.65 1.5.2 1.85q0 2.2-.35 4.25l-1 4.9 1-4.9q.35-2.05.35-4.25l-.2-1.85-.65-1.5q-.5-1.05-1.35-1.9l-.7-.65-1.85-2.35-.65-1.35.15-.35q1-1.7.5-3.55M48.3 10.45q-2.7.35-5.4 1.2-2 .7-2.7 2.35l-.35 1.7.2 5.75.15 3.9.15 1.85.35 1.2q.35 1.15 1.2 1.85l.15.35q1.85 1.35 4.55 1.65l1.35-.15 1.2-.5q1.7-1.2 2.55-3.05l2.2-5.25.3-2v-1.2l-.5-2.2v-.15l-.15-.5-2.35-5.4q-1.2-1.55-2.9-1.4m7.1 32.45v1.2-1.2m-1.7 12.85l-.85 1.5v.2-.2l.85-1.5M25.5 24q1 2.7.85 5.75-.15 3.55 3.2 1.5 2.05-1.2 3.75-1.7l1.85-5.05.65-3.7v-2.7l-.35-3.05q-.15-.7-1-.7-3.05-.35-5.05 2.2l-2.35 2.35Q24.3 20.95 25.5 24m1.55 10.45q-1.35 1.2-2.05 2.7l-.15.5.15-.5q.7-1.5 2.05-2.7M77.2 59.3L75 56.6q-2.05-2.05-4.9-2.7 2.85.65 4.9 2.7l2.2 2.7-1 1 1-1m-34.3-6.6q-1.2 1.35-1.7 3.2l-.3.85q-.55 2.2-2.55 2.4 2-.2 2.55-2.4l.3-.85q.5-1.85 1.7-3.2"/><path fill="url(#b)" d="M87.15 15.9l-4.4.85Q77.7 18.1 74 15.2l-.5-.35q-3.75-2.5-8.15-1.15l-2.15 1q-.35-1.35-1.2-2.35l7.45-2.55 1.5-.15H75l.15.15q2.7.5 4.9 2.35l3.05 2.9h.5q2.05 0 3.55.85m-9.3-.7l5.25-.15-5.25.15"/><path fill="url(#c)" d="M94.25 32.45l1.35 1.5q1.85 2.2 3.2 4.9 1.2 2.55 1.2 5.75 0 3.05-1.35 5.75l-2.7 4.55q-1.5 2.35-3.7 4.25L90.9 60.5l.8 2.7q.35 1.35.35 2.85 0 1.35-.65 2.35-.7-1.15-2.55-.65l-3.4 1.35-2.15 1 2.7-4.7 1.5-3.9.85-4.05q.15-1.7 2-2.55l2.4-1.5q1.5-1.35 2.2-3.2l.5-1.55.35-3.7q0-2.2-1.55-3.75l-.15-.15.15-8.6M84.3 49l-.7 3.05q-.65 2.2-1.65 4.05-.85 1.7-1.9 3.2l-1.85 2.2-1-2.2 3.55-4.2q1.85-2.05 2.85-4.6l.7-1.5m4.2 13.85l2.4-2.35-2.4 2.35"/><path fill="url(#d)" d="M45.6 6.95q1.85-2.2 4.25-3.9Q52.2 1.5 54.9.7q2.7-.85 5.75-.7l8.6.7-3.55.3q-2.5.35-4.55 1.2-2.35 1-4.2 2.85L54.4 8.1l-.5-.65q-1.55-2.4-4.4-1.05-1.2.55-2.35.55H45.6"/><path fill="url(#e)" d="M63.2 14.7l.15 1.2-.15 1.65v.55q-.35 1.5-.2 2.85.2 2.85 2.55 5.25 2.2 2.2 2.7 4.4v1.35l-.85 1.65-.7.7q-3 2.55-7.75 1.7l-4.2-.2q1.65-1 3.55-1.65 3.5-1.2 2.15-2.9l-1.85-1.7q-.65-2.7-1-5.55-.15-1.55.15-2.9.35-1.15 1.2-2.35l.7-1.35.3-1q.2-1.35-.85-2.55 1.35-1 2.9-1.5.85 1 1.2 2.35"/><path fill="url(#f)" d="M48.3 10.45q1.7-.15 2.9 1.4l2.35 5.4.15.5v.15l.5 2.2v1.2l-.3 2-2.2 5.25q-.85 1.85-2.55 3.05l-1.2.5-1.35.15q-2.7-.3-4.55-1.65l-.15-.35q-.85-.7-1.2-1.85l-.35-1.2-.15-1.85-.15-3.9-.2-5.75.35-1.7q.7-1.65 2.7-2.35 2.7-.85 5.4-1.2"/><path fill="url(#g)" d="M47.95 36.85q-.65 2.2 0 5.05l.55 1.35q.5 1.7-.35 2.85-.85 1.35-2.05 2.2l-.3.2-4.75.65-3.4.7H35.8q-.85-.2-1.5-.7-2.55-1.7-2.55-4.55 0-1.35.7-2.85 1-2.7 2.85-4.6l1.85-1.5h.2q1.15-.85 2.5-1.35l1.55.15.65.2q2.7.65 5.1 1.85h.3l.5.35M44.1 42.4q0 1.2-.5 2.05l-.35.85q-2.05 2.15-5.05 2.85 3-.7 5.05-2.85l.35-.85q.5-.85.5-2.05m-2.4-2.35q.35.35.35.85.2 1-.15 1.65-.35 1.55-1.35 2.55-2.2 1.85-5.1 2.7 2.9-.85 5.1-2.7 1-1 1.35-2.55.35-.65.15-1.65 0-.5-.35-.85m4.1 3.35q.5.85-.2 2.05v.15q-1.5 2.4-4.55 3.55Q44.1 48 45.6 45.6v-.15q.7-1.2.2-2.05m-9.5-3q-2.35 1.5-2.5 3.85v.85q.15 1.7 2.35.7 1.85-.85 2.35-2.55.2-.85 0-2.05-.15-1.15-1.7-1l-.5.2m6.1-3.25l-4.05.5q-2.9.7-4.05 3.25-.85 1.65-1 3.55l-.2 2 .2-2q.15-1.9 1-3.55 1.15-2.55 4.05-3.25l4.05-.5"/><path fill="url(#h)" d="M46.1 56.75l-.15-.5q0-2.7 1.7-4.7Q49 50 50.5 48.85h.05l.15-.2h.15l3.9-3.05q.65-.5.65-1.5l2.35.15 5.45-.5q.15 3.4-3.4 5.25-2.85 1.35-5.4 1.5-3.9.35-3.2 4.6.3 1.5 1.35 2.15l.3.2-.15.65V59.45q.15.85.7 1.55l1.5 2q-.15.35-.85.35-3.2.15-4.05-2.85l-.85-1.7-.35-.5-.65-.7q-.85-.5-2.05-.85m12.5-10.1l-2.5 1-5.25 1 5.25-1 2.5-1m-7.75 2l-.3.2.3-.2"/><path fill="url(#i)" d="M29.55 13.35l-1.5-1.5q-2.2-2.05-3.55-4.4-1.7-2.7-2.7-6.1 1.5 1 3.55 1.35 2.7.7 4.9 2.35 1.85 1.35 3.2 3.75l-.7.5-3.2 4.05"/><path fill="url(#j)" d="M25.5 24q-1.2-3.05 1.55-5.1l2.35-2.35q2-2.55 5.05-2.2.85 0 1 .7l.35 3.05v2.7l-.65 3.7-1.85 5.05q-1.7.5-3.75 1.7-3.35 2.05-3.2-1.5.15-3.05-.85-5.75"/><path fill="url(#k)" d="M20.95 51.85l-6.1.5q4.2-2.85 9.1-4.85l-2.65.3-10.3-.35 4.7-4.9q1.85-1.85 4.75-1.85l3.85.2 2.05.3 1 .7 1.55 1.7q.5.65.65 1.35v.15q.7 2.2-.15 3.75-1 1.35-2.55 2L24 51.7l-3.05.15"/><path fill="url(#l)" d="M14.85 52.35L10.8 53.4Q4.2 54.9 0 57.45q1.5-1.85 3.9-3.75l7.1-6.25 10.3.35 2.65-.3q-4.9 2-9.1 4.85"/><path fill="url(#m)" d="M36.3 40.4l.5-.2q1.55-.15 1.7 1 .2 1.2 0 2.05-.5 1.7-2.35 2.55-2.2 1-2.35-.7v-.85q.15-2.35 2.5-3.85"/><path fill="url(#n)" d="M35.65 58.6l.85 4.25.3.85q.7 1.7 2.4 2.85l-3.05-.3-3.55-1.05-3.7-1.5-3.2-2.05-2.05-1.85-.15-.15-1.55-2.55q-.65-1.2-.85-2.35l4.4.5.85 2.2 2.2 2.85q.5-1.15.35-2.7l-.2-1.85.5 1.7 1.35 2.7q1.05-1.2 1.2-3.2 0 1.35 1 3.05 1.05-.85 1.7-1.9l1.2.5"/><path fill="url(#o)" d="M64.7 86.65l.65-.3 1.05-1.2.5-4.2.35-2.05q.5-2.55 1.85-4.4-1.35-.5-2.7-1.35l-1.55-1.35-.65-.65-2.4-3.4.7.15-.7-.15-4.05-2.35-.5-.35L54.9 63l-1.5-2q-.55-.7-.7-1.55 3.55 2.05 7.6 2.9l4.4.15q-.15 2.55 1.2 4.4l1 1.2 1.85 1.35 2.05 1q3 1.35 2.85 3.7V75q-.35 1.2 0 2.05l.85.85.85.5-1.2.35q-3.9 1.65-5.4 6.55l-.35 1.35q-.15 1.05 0 1.7l-2.5-1-1.2-.7m1-17.9l-2.2-.35-1-.5 1 .5 2.2.35m4.4 5.9l-1-.15 1 .15q.35 0 .85.35-.5-.35-.85-.35"/><path fill="url(#p)" d="M64.85 71.8l-.5.5Q63 73.5 63.2 75.35l.15 2.05-1.55-1.35q-.3-.35-.5-1.2-.15-1.2-.85-2.35l-.8-1.7-1.55-4.25-.35-1.15 4.05 2.35 2.4 3.4.65.65m-1.5 7.75v3.9q0 1.2.35 1.55-1.05.3-2.4 0l1.9-5.45h.15"/><path fill="url(#q)" d="M44.95 84.8l1.65-1.7q1.05-1.65.85-4.35 0-2.05-1.15-3.55l-3.05-4.6q-1.55-2.35-1.7-5.2-.15-2.7.5-4.9l.35-.7 3.4-1.7q.3-.15.3-1v-.35q1.2.35 2.05.85l-.2.35v1Q47.8 61 49.5 62.5q2.2 1.85 3.7 5.1l4.25 7.6q.85 1.35 1.15 2.85.5 1.85.2 4.05l-.5 1.55L57.1 86l-5.4.35h-1l-2.9-.55-2.85-1"/><path fill="url(#r)" d="M63.35 77.4q.5.65.15 1.5l-.15.15-.15.5L61.3 85l-.3-.2-1.35.2-2.55 1 1.2-2.35.5-1.55q.3-2.2-.2-4.05-.3-1.5-1.15-2.85l-4.25-7.6q-1.5-3.25-3.7-5.1-1.7-1.5-1.55-3.55v-1l.2-.35.65.7.35.5.85 1.7q.85 3 4.05 2.85.7 0 .85-.35l2.35 2.05.5.35.35 1.15 1.55 4.25.8 1.7q.7 1.15.85 2.35.2.85.5 1.2l1.55 1.35"/><path fill="none" stroke="#000" stroke-width=".05" stroke-linecap="round" stroke-miterlimit="3" d="M83.1 15.05h.5m10.65 17.4l1.35 1.5m-5.4 49.5l.5 2.55-.5.35-2.7.5-.35-.2-6.05-.3m0 2.5q.15.85.65 1.7l-.35.35q-2.35 1.2-4.7-.7-1.85 2.05-3.75-.15l-1.15.85-1.7.5q-1.7 0-2.05-1.7l-.15-.5-1 .5h-.35q-2.2.35-2.55 0h-.3q-.35-1-.2-1.85.35-.65 1.2-1.2m4.4-12.15q-1.35-.5-2.7-1.35l-1.55-1.35m-1.35 7.1l-.15.15v.5M61.3 85l-.5 1q-1.15 1.85-2.85 1.2l-.5-.2h-.2l-2 .85q-1.85.5-3.05-.65l-1.2.5-2.35.65q-2.05 0-2.7-.5-1.5-.15-1.5-1.7l.5-1.35m-2.9-24.3l.35-.7m51.85-18.6l-.15-.15m-30.9 38.5l.15-.5m-11.65 7.3q.15.65.5.85m-6.25.65q-.35-.5-.15-1.2"/><path fill="none" stroke="#8B0000" stroke-width=".05" stroke-linecap="round" stroke-miterlimit="3" d="M39.85 34.3q-1.65 0-3.2.65m50.5-19.05l1.7 1.15q1.85 1.7 3.05 4.05l1 2.2.85 3.05.5 5.75v.35M91.4 68.4l-2.2 1.9q-.7 1.5-.7 3.35l-.15 3.75q0 1.85 1 3.55l.85 2.5M64.85 71.8l-.5.5Q63 73.5 63.2 75.35l.15 2.05m0 2.15v3.9q0 1.2.35 1.55-1.05.3-2.4 0m32.95-43.8l.2 2.2m-.35-2.35l.15-8.6m-41.4 25v-.2l.85-1.5m10.5 15.4l.65.65m-12-14.35l-.15.65v1.2"/><path fill="none" stroke="#422800" stroke-width=".05" stroke-linecap="round" stroke-miterlimit="3" d="M20.95 51.85l-6.1.5-4.05 1.05Q4.2 54.9 0 57.45q1.5-1.85 3.9-3.75l7.1-6.25 4.7-4.9q1.85-1.85 4.75-1.85l3.85.2m5.25-27.55l-1.5-1.5q-2.2-2.05-3.55-4.4-1.7-2.7-2.7-6.1 1.5 1 3.55 1.35 2.7.7 4.9 2.35 1.85 1.35 3.2 3.75M45.6 6.95q1.85-2.2 4.25-3.9Q52.2 1.5 54.9.7q2.7-.85 5.75-.7l8.6.7-3.55.3q-2.5.35-4.55 1.2-2.35 1-4.2 2.85L54.4 8.1"/><path fill="none" stroke="#850000" stroke-width=".05" stroke-linecap="round" stroke-miterlimit="3" d="M35.65 58.6l.85 4.25.3.85q.7 1.7 2.4 2.85l-3.05-.3-3.55-1.05-3.7-1.5-3.2-2.05-2.05-1.85-.15-.15-1.55-2.55q-.65-1.2-.85-2.35"/><path fill="none" stroke="#3B5D33" stroke-width=".05" stroke-linecap="round" stroke-miterlimit="3" d="M83.6 15.05q2.05 0 3.55.85m8.45 18.05q1.85 2.2 3.2 4.9 1.2 2.55 1.2 5.75 0 3.05-1.35 5.75m-6.4 8.8L90.9 60.5l.8 2.7q.35 1.35.35 2.85 0 1.35-.65 2.35M64.7 86.65l.65-.3 1.05-1.2.5-4.2.35-2.05q.5-2.55 1.85-4.4l1 .15m-6.75 2.75q.5.65.15 1.5m-18.55 5.9l1.65-1.7q1.05-1.65.85-4.35 0-2.05-1.15-3.55l-3.05-4.6q-1.55-2.35-1.7-5.2-.15-2.7.5-4.9M59.1 13.85q1.35-1 2.9-1.5l7.45-2.55 1.5-.15m9.1 2.5l3.05 2.9-5.25.15M90.9 60.5l-2.4 2.35m-26 5.05l1 .5 2.2.35m-13-9.3q.15.85.7 1.55l1.5 2 2.35 2.05m.5.35l4.05 2.35M61.3 85l1.9-5.45M48.15 57.6q-.85-.5-2.05-.85M63.35 77.4l-1.55-1.35q-.3-.35-.5-1.2-.15-1.2-.85-2.35l-.8-1.7-1.55-4.25-.35-1.15"/><path fill="none" stroke="#004162" stroke-width=".05" stroke-linecap="round" stroke-miterlimit="3" d="M47.95 36.85l-.5-.35h-.3q-2.4-1.2-5.1-1.85l-.65-.2-1.55-.15m-4.4 13.5q2.9-.85 5.1-2.7 1-1 1.35-2.55.35-.65.15-1.65 0-.5-.35-.85m-3.5 8.1q3-.7 5.05-2.85l.35-.85q.5-.85.5-2.05m-3.05 6.75Q44.1 48 45.6 45.6v-.15q.7-1.2.2-2.05m-9.5-3q-2.35 1.5-2.5 3.85v.85q.15 1.7 2.35.7 1.85-.85 2.35-2.55.2-.85 0-2.05-.15-1.15-1.7-1l-.5.2m-3.2 6.05l.2-2q.15-1.9 1-3.55 1.15-2.55 4.05-3.25l4.05-.5"/><path fill="none" stroke="#6C5600" stroke-width=".05" stroke-linecap="round" stroke-miterlimit="3" d="M50.85 48.65l5.25-1 2.5-1m-8.05 2.2l.3-.2"/><path fill="none" stroke="#520000" stroke-width=".05" stroke-linecap="round" stroke-miterlimit="3" d="M98.65 50.35l-2.7 4.55q-1.5 2.35-3.7 4.25m-21.3-49.5H75l.15.15q2.7.5 4.9 2.35M54.9 63q-.15.35-.85.35-3.2.15-4.05-2.85l-.85-1.7-.35-.5-.65-.7"/><path fill="none" stroke="#376133" stroke-width=".05" stroke-linecap="round" stroke-miterlimit="3" d="M61.8 67.75l.7.15m-5.25-2.85l.5.35m4.05 2.35l2.4 3.4m5.9 3.5q.35 0 .85.35"/><path fill="none" stroke="#4A3B00" stroke-width=".05" stroke-linecap="round" stroke-miterlimit="3" d="M48.3 10.45q1.7-.15 2.9 1.4l2.35 5.4.15.5v.15l.5 2.2v1.2l-.3 2-2.2 5.25q-.85 1.85-2.55 3.05l-1.2.5-1.35.15q-2.7-.3-4.55-1.65l-.15-.35q-.85-.7-1.2-1.85l-.35-1.2-.15-1.85-.15-3.9-.2-5.75.35-1.7q.7-1.65 2.7-2.35 2.7-.85 5.4-1.2M25.5 24q1 2.7.85 5.75-.15 3.55 3.2 1.5 2.05-1.2 3.75-1.7l1.85-5.05.65-3.7v-2.7l-.35-3.05q-.15-.7-1-.7-3.05-.35-5.05 2.2l-2.35 2.35Q24.3 20.95 25.5 24"/><path fill="none" stroke="#C60000" stroke-width=".05" stroke-linecap="round" stroke-miterlimit="3" d="M81.1 86.35l-.2.3v1.05l.2 1.15M84.3 49l.65-4.05V42.9q0-2-.5-3.85-.65-3.05-2.85-5.1M84.3 49l-.7 1.5q-1 2.55-2.85 4.6l-3.55 4.2 1 2.2q.5 1.85-.5 3.55l-.15.35.65 1.35 1.85 2.35.7.65q.85.85 1.35 1.9l.65 1.5.2 1.85q0 2.2-.35 4.25l-1 4.9q.15.5-.2 1.15v.2l-.3.85M77.2 59.3l-1 1m-6.1-6.4q2.85.65 4.9 2.7l2.2 2.7"/><path fill="none" stroke="#C10000" stroke-width=".05" stroke-linecap="round" stroke-miterlimit="3" d="M54.75 35.8l-1.35 1.05.15.8.85 1.4q.65 1-.2 1.15-1.15.2-2-.5h-.15l-.35-.35q-1.7-1.5-3.75-2.5M42.4 59.8L38 62l.35-2.85-2.2-.35-.5-.2M21.1 54.75q-.3-1.35-.15-2.9M24.3 40.9v-1.55l.35-1.5.2-.2-.2-.5.2-5.9q0-3.05-.55-5.75-.5-2.2-.5-4.4-.3-2.85 2.4-4.35 2.2-1.2 3.2-2.9l.15-.5m3.9-4.55q1.7-1.05 4.05.65 2.7 2.4 3.7-.65.35-1.35 1.85-1.7l2.55-.15m8.8 1.15l2 4.25q1.7.15 2.7 1.35v.15M54.4 8.1l-.5-.65q-1.55-2.4-4.4-1.05-1.2.55-2.35.55H45.6m9.15 28.85q1.65-1 3.55-1.65 3.5-1.2 2.15-2.9l-1.85-1.7q-.65-2.7-1-5.55-.15-1.55.15-2.9.35-1.15 1.2-2.35l.7-1.35.3-1q.2-1.35-.85-2.55m-13 42.9l-.15-.5q0-2.7 1.7-4.7Q49 50 50.5 48.85h.05l.15-.2h.15l3.9-3.05q.65-.5.65-1.5v-1.2M33.45 8.8l-.7.5-3.2 4.05M24.3 40.9l2.05.3 1 .7 1.55 1.7q.5.65.65 1.35v.15q.7 2.2-.15 3.75-1 1.35-2.55 2L24 51.7l-3.05.15m3.9-14.2l.15-.5q.7-1.5 2.05-2.7m7.4 23.65l1.2.5m-1.2-.5l-3.35-1.65-2.4-.7m-3.2-.5l.5.15 2.7.35m-3.2-.5l-4.4-.5m17.25 4.4q2-.2 2.55-2.4l.3-.85q.5-1.85 1.7-3.2m3.2 4.05v.35q0 .85-.3 1l-3.4 1.7"/></svg>