<svg xmlns="http://www.w3.org/2000/svg" viewBox="0 0.1 99.8 101.2" width="99.8" height="101.2"><defs><radialGradient gradientUnits="userSpaceOnUse" r="819.2" cx="0" cy="0" fx="87942.4" fy="0" spreadMethod="repeat" gradientTransform="matrix(.083 0 0 .083 52.65 50.4)" id="a"><stop offset="0" stop-color="#ff9"/><stop offset=".427" stop-color="#FF3922"/><stop offset=".894" stop-color="#f00"/></radialGradient><radialGradient gradientUnits="userSpaceOnUse" r="819.2" cx="0" cy="0" spreadMethod="pad" gradientTransform="matrix(.006 0 0 .006 52.2 37)" id="b"><stop offset="0" stop-color="#ff9"/><stop offset=".427" stop-color="#FF3922"/><stop offset=".894" stop-color="#f00"/></radialGradient><radialGradient gradientUnits="userSpaceOnUse" r="819.2" cx="0" cy="0" spreadMethod="pad" gradientTransform="matrix(.019 0 0 .019 41.1 42.45)" id="c"><stop offset="0" stop-color="#ff9"/><stop offset=".427" stop-color="#FF3922"/><stop offset=".894" stop-color="#f00"/></radialGradient><radialGradient gradientUnits="userSpaceOnUse" r="819.2" cx="0" cy="0" spreadMethod="pad" gradientTransform="matrix(.011 0 0 .011 87 77.55)" id="d"><stop offset="0" stop-color="#ff9"/><stop offset=".427" stop-color="#FF3922"/><stop offset=".894" stop-color="#f00"/></radialGradient><radialGradient gradientUnits="userSpaceOnUse" r="819.2" cx="0" cy="0" spreadMethod="pad" gradientTransform="matrix(.014 0 0 .014 37.45 9.65)" id="e"><stop offset="0" stop-color="#ff9"/><stop offset=".427" stop-color="#FF3922"/><stop offset=".894" stop-color="#f00"/></radialGradient><radialGradient gradientUnits="userSpaceOnUse" r="819.2" cx="0" cy="0" spreadMethod="pad" gradientTransform="matrix(.021 0 0 .021 18.55 48.6)" id="f"><stop offset="0" stop-color="#ff9"/><stop offset=".427" stop-color="#FF3922"/><stop offset=".894" stop-color="#f00"/></radialGradient><radialGradient gradientUnits="userSpaceOnUse" r="819.2" cx="0" cy="0" spreadMethod="pad" gradientTransform="matrix(.013 0 0 .013 31.7 63.6)" id="g"><stop offset="0" stop-color="#ff9"/><stop offset=".427" stop-color="#FF3922"/><stop offset=".894" stop-color="#f00"/></radialGradient><radialGradient gradientUnits="userSpaceOnUse" r="819.2" cx="0" cy="0" spreadMethod="pad" gradientTransform="matrix(.018 0 0 .018 15.6 73.45)" id="h"><stop offset="0" stop-color="#ff9"/><stop offset=".427" stop-color="#FF3922"/><stop offset=".894" stop-color="#f00"/></radialGradient><linearGradient gradientUnits="userSpaceOnUse" x1="-819.2" x2="819.2" spreadMethod="repeat" gradientTransform="matrix(.056 0 0 .061 52.6 50.4)" id="i"><stop offset="0" stop-color="#FFE589"/><stop offset="1" stop-color="#D0BE1E"/></linearGradient></defs><path fill="#360" d="M78.5 19.75q.55 1.8 1.8 3.6l1.35 2.55.15.55q.4 1.55.2 3.2-.15 1.6-1.25 2.55-.9.75-2.3 1.15-.85.2-1.55.55-1.35.65-2.3 1.7l-.55.7-.7 1.25-.45 1.4-.05.3q-.2 1.15 0 2.35l-.4-2.4v-.25l-.05-1.8.15-1.8.15-.75q.2-.75.65-1.25l1.1-1.35q1.05-1.65 1.35-3.4.2-1.25 0-2.5l-.4-1.9-.15-.4q-.8-2.6-2.35-4.9l-1.3-2.15 2.75 1.2 4.15 1.8M61.15 22.6q2.85 1 4.65 3.15l1.6 2.2q.9 1.4.7 2.9l-.2.8-3.5 7.3.05-1-.1-2.35-.25-1.6v-.05l-2.35-9.6v-.05l-.6-1.7m24.85 1l2.1 1.5 2.4 2.25.9 1.25.35 1-15.6 10.95.65-1.65q.85-1.7 2.25-2.8 1.05-.9 2.55-1.5 2.1-.85 3.1-2.25l.1-.05q1-1.55.7-3.7l-.05-.9q-.1-1.55.15-2.95l.4-1.15m.5 44.15l.15-5q.05-1.75.9-2.8l.2-.2 1.4-1.05.25.15q-.35.5-.55 1.15l-.05.15q-.5 1.6-.35 4 .2 2.15-1.1 3.1l-.85.5m9.45.25q1.2.3 2.25 1.1-2.6.55-5 2.05l-1.45.95-.15-.05q-3.95-1.4-5.2-.45l1.15-1.05q2.25-1.85 5.5-2.5l1.3-.15 1.6.1m-2.4 10l.9-1.35.1-.2q.4-.9 1.05-1.5 1.5-1.5 4.15-1.5h.1q-1.85.3-2.6 1.5-.5.75-.5 1.95l.25 1.9-2-.4-1.45-.4M52.1 45.4l4.35-1.15 2.7-1.2 1.45.85.25.2q.65.45.7 1l-.2.8q-1.2 2.45-5.35 1.55-4.15-.9-7.2 1.4-.85.65-2.95.95 1.25-3.65 6.25-4.4M26.35 13.65l.15.4.05.05V14l1.2.6q.9.65 1.25 1.7l.1.15q.3.95.1 2.15l-.2 1.65q-.35 3.2-.1 6.1l.6 3.55-1.1-.75-2.4-2.1-1.2-1.8q-.8-1.65-.45-3.6L25.8 16l.25-.7v-.05q.7-.45.5-1.15l-.5 1.15H26l-.6.65-2.15 1.8-1.7 1.05q-2.15 1.2-3.55 2.6L16.55 23l-.45.8.65-2.3q.6-1.9 1.55-3.65.6-1.05 1.35-1.85l.95-.75q2.2-1.65 5.75-1.6m-17.95.7q1.25.7 1.3 2.4.05 2.35.75 4.45l.15.5.95 2.1-2.25-2.25-.75-.9q-.95-1.3-1.2-2.55l-.85 1.45-.3.35-.9 1.4q-.65 1.15-1.05 2.45L3.6 27.4 3.05 26q-.45-1.3-.4-2.65-.05-1.05.3-2.15l.75-2.1q.8-1.65 2-3.05Q3.25 17.4 0 17.1q1.95-5.05 6.95-2.35l-1.25 1.3 1.25-.8.4.9.3-.9.5-1 .25.1M7.35 18.1q.25-.95 0-1.95.25 1 0 1.95M18 44.75q-.75-1.05-1.05-2.3L16.7 41v-1.75l.15-.7.35-.6 3.2-2.4-1.05 2.55-.2.75-.25 2.3.25 2.2-1.15 1.4m10.65-2.85l-.1.1q-.9 1.2-.7 3.35.05 1.05-1.25 1.65l-1.9.35q-.55-3.75 2.1-5.3l.45-.25 2.7-.9-1.3 1M7.25 57.3l-.55-.55-.45-.75q-.7-1.25-.75-3-.05-4.65 4-5.65L8.1 50.5q-1.6 2.85-1.2 5.4l.35 1.4m12.2 0l.1 1.55q.35 1.7 1.75 3.4-1.85 1.8-1.8 2.1-1.95-3.05-.85-5.65l.8-1.4M2.95 71.85q-1.2 2.1.15 4.25l.95 1.25.1.1-.4.45q-1.4 1.85-1.15 2.75l.05.2-.15-.2q-.75-1.15-1.05-2.35l-.25-1.15v-1.4l.4-2.05q.35-1.15 1.35-1.85m64.65-17.5l-.1.8q-.1.85.1 1.8l.3 1q1.75 4.35-1.9 4.6.6-.85.5-1.75l-.75-5.5.85-1 1 .05m-33.2 38.6l-2.15-.85 5.35-2.85q3.65-2.2 7.75-.4.5 1.95-.95 2.8-1.6 1-3.2 1.5l-2.55.45-4.25-.65m17.95-2.7q-.25-1.55-.05-2.75.2-1.5 1.1-2.35l.6-.55.85-.45.4-.15 1.35-.2 1.7.25 1.5.6q2.45 1.1 4.4 2.85l-1.95.85-3.6.8-3.5-.2q-1.35-.2-2.8 1.3"/><path d="M52.35 90.25q1.45-1.5 2.8-1.3-1.2 1.1-2.8 1.3m20.95-45.8l-.55 2.4-.4.7-.1-.75q-.05-1 .25-2.4v-.2l.5-1.95.3 2.05v.15m-35.5 38.4l.15.1q.55.45-.25.9-.25.15-.55.25l-2.1.55.65-.65.65-.45q.65-.45 1.45-.7"/><path fill="url(#a)" d="M9 12.35q-.3.5-.45 1.15l-.15.85-.25-.1-.5 1q0-.7.3-1.3l.4-.75.65-.85"/><path fill="url(#b)" d="M56.2 37.35l-4 3.95-.45-1.65q-.4-1.4-1.15-2.3l-1.05-.95-1.3-.65.65-.75q.85-.9 2.05-1.55l1.6-.75.3.1q2.35 1.2 3.1 3.4l.25 1.15"/><path fill="url(#c)" d="M52.55 32.7l-1.6.75q-1.2.65-2.05 1.55l-.65.75-2.9-.1q-1 .2-1.25.7l-.1.2v.1l-1.15 6.15v.1q-.4 2.2-1.65 4.15-1 1.65-2.3 2.75l-1.35.95q-3.65 2.2-7.85 2.55l-.05-.15q2.95-.45 4.6-2.7l.6-1.2.05-.1q2.7-1.05 2.9-4.55l.6-4.6q.4-1.75 1.05-3.35l.2-.5q.8-1.65 2.2-2.7 1.3-1.05 3.2-1.45l.05-.05q2.95-.65 5.6.1l1.85.65"/><path fill="url(#d)" d="M79.05 72.9q1.55.7 3.35.9 2 .2 2.95-.75-.6.85-.7 1.6l-.05.2q-.15 2.1 3.35 3.6Q91.7 80 93.55 78l1.45.4q.1 1.35-.2 2.25-.8 2.15-4 1.4h-.05q-3.3-.85-5.55-2.55l-5-3.25-1.1-.6-.15-1.45.1-1.3"/><path fill="url(#e)" d="M32.8 4.75l4.55.5L48.5 9.5q-3.3-.8-6.25-.05l-1.2.35-1.75.85-2.1-.1-3.55.5-1.05.35q-1.7.7-3.2 1.9l-1.65 1.3-1.2-.6-.05.05-.15-.4 2.9-2.9 2.8-1.95.45-.2q2.75-1.75 1.25-3.2l-.95-.65"/><path fill="url(#f)" d="M34.9 49.15l-.05.1-.6 1.2q-1.65 2.25-4.6 2.7l-3.85.05q-1.8-.3-3.4-1.05-2.6-1.15-4.95-2.8T12 47.45l-5.45-.3q-2.8 0-4.3 1.55.75-1.4 2-2.4l.15-.15Q7.6 43.6 12 44.1q3.2.35 6.35 1.15l6.35 2.1 2.7 1.2q2.65 1.25 5.45 1.05l1.9-.35.15-.1"/><path fill="url(#g)" d="M40.15 57.6l-1 5.6q-2.15.95-3.4 3l-.85 1.2q-1.9 2.05-5.2 2.1h-6.45q1.05-.55 2.35-.6 2.65-.05 2.7-1.9l-.3-1.6 1.65-.2q3.65-.55 5.9-4l.15-.2q1.6-2.65 4.45-3.4"/><path fill="url(#h)" d="M28 65.4l.3 1.6q-.05 1.85-2.7 1.9-1.3.05-2.35.6l-1.5-.05q-2.6-.1-3.6 1.45l-.2.4-.35 1.45v.05l-1 5.95-.05.1v.05l-.2.6q-.8 2-2.8 2.6l-.7.15q-5.25.95-9.9-1.35 2.65.9 5.35.5l1.6-.3q2.05-.6 2.95-2.1l.4-.8.25-1.75V75.2l-.05-.2q-.2-1.55 0-3.05l.15-1.05.6-1.8 1.1-2.05.65-.9q1.5-1.65 3.55-1.8l2.4.35q2.95.85 6.1.7"/><path fill="#464400" d="M39.45 79.8l.05-.05q.3-1.45 1.15-3.3l1.05-2.1V63.9q.75 2.8 2.3-.3l.6-1.15q2.2-4.1 5.1-7.55l.6-.75-.35.8q-1.85 3.6-2.85 7.75v.05l-.35 1.35 1-1.25q3.05-3.6 6.8-7.45L57 52.95q1.45-1.3 3.1-2.45l-2.8 5.2q-1.95 3.8-3.7 7.9l-3.25 7.3 10.9-8.6-3.3 8.35-2.6 5.25q2.15-.15 5.3-1.7l.6-.35-12.6 9.5-.1.05-2.3 1.8.15-7.95-.35-1.55-2.15 1.2q-2.3 1.35-4.35 2.85l-.1.05"/><path fill="url(#i)" d="M39.45 79.8l.1-.05q2.05-1.5 4.35-2.85l2.15-1.2.35 1.55-.15 7.95 2.3-1.8.1-.05 12.6-9.5-.6.35q-3.15 1.55-5.3 1.7l2.6-5.25 3.3-8.35-10.9 8.6 3.25-7.3q1.75-4.1 3.7-7.9l2.8-5.2q-1.65 1.15-3.1 2.45l-2.45 2.45q-3.75 3.85-6.8 7.45l-1 1.25.35-1.35v-.05q1-4.15 2.85-7.75l.35-.8-.6.75q-2.9 3.45-5.1 7.55L44 63.6q-1.55 3.1-2.3.3v10.45l-1.05 2.1q-.85 1.85-1.15 3.3l-.05.05M78.5 19.75l6.6 3.3.9.55-.4 1.15q-.25 1.4-.15 2.95l.05.9q.3 2.15-.7 3.7l-.1.05q-1 1.4-3.1 2.25-1.5.6-2.55 1.5-1.4 1.1-2.25 2.8l-.65 1.65 15.6-10.95.15.55.1 2.1-.05.55q-.1 1.15-.55 2.05l-1.15 1.9q-1.25 1.7-3.1 3.1-1.4 1-2.85 1.95-2 1.3-3.9 2.9l-3.15 2.85q-2.65 3.05-3.6 7.15-.25 1.05.15 1.85.3.6.9 1l.9.5q1.95 1 4.45 1.3-1.75 2.3-4.15 3.7-2.1 1.2-3.85 2.7l-2.1 1.85q-.85.8-.95 1.55-.15.85.6 1.6l1 .7q1.3-.45 2.5-.6l3.05.1.35.05.25.3q1.05 1 2.3 1.6l-.1 1.3.15 1.45-.75-.4-1.2-.5q-3.3-1.25-7.65-.35v.1q-.55 3.35-3.15 5.2v.05l.4 1 1.8 3.2 1.15 1.7q2.8 0 5.15 1.15 1.25.6 2.4 1.5l7.3 5.15 4.3 2.3q2.15.75 3.85.4l5.5-1q-.95.35-1.8.85l-1.05.55-1.45 1q-.8.6-1.7.8l-.15.05-3.2-.35L80.3 95l-2.45-.7-5.75-.5 1.2 1.7v.05l.8 1.25-1.05 2q-2.65-3.15-7.95-2.7l-6.3.95-7.45-.25q-1.55 1.4-3.5 2.05-3.9 1.4-8.2 1.15-1.5-.1-2.7.35 2.65-1.7 4.65-4.15l.3-.3.85-1.2q.5-.75.05-1.1l-1.55-.25h-.05l-2.55.35q-3.3.7-5.95 2.95l-1.75 1.55q-3.45 2.8-6.8 1.95l-2.75-.4h-1.45l-10.2.9h-2.7q4.75-1.1 9.8-2.9l1.05-.45 3.4-1.65q1.55-.9.5-2.65l-.95-1.1-.1-.1q-1.45-1.05-3.75-.85 3.1-2.75 7.5-.55l1.7-.05q1.65-1.45 3.85-2.55l2.6-1.45q-.1-1.35.2-2.5l.35-1.05.5-1 .75-1 2.25-2.15 1.05-1.7 1.15-3.05.6-2.85q.25-1.95-.35-3.4l-.2-.35q-.5-.95-.25-1.95l.45-2.15 1-5.6.05-.25q.2-1.55.75-3 .7-2.05 2.1-3.9l.2-.25q2.6-3.3 5.55-5.9l3.4-3 4-3.95 3.35-4.25 1.15-1.8q1.45-3.1.7-6.9l-.45-1.75v-.1H61l.15.05-.7-1.45-1.3-2.4-2.35-2.2Q55 15.2 52.7 14.1l-2.1-.85-5.2-1.7-6.1-.9 1.75-.85 1.2-.35q2.95-.75 6.25.05L37.35 5.25l-4.55-.5-.3-.15-.15-.1Q29 2.95 24.8 3.7l-.25.1q-3.8.7-7.45 2.45-1.3.6-2.3 1.35l-1.35 1.1-1.4 1.45-.2.25q-1 .25-1.7.75l-.65.55 4.05-5.2q2.15-2.3 4.75-3.8h.05q.75-.35 1.45-.75Q23.65.25 27.85.5q4.1.2 7.7 1.4l7.6 2.6q3.8 1.25 8.1.9-.05-1.05.2-1.9.4-1.6 1.75-2.3 3.4-1.85 7.6-.6-2.35.85-4.6 2.3-.95.55-1.1 1.45v.05q-.25 1.6.1 3 .55 1.95 2.45 3.4l1.65 1.1q2.3 1.3 4.85 1.8l1.55.2q1.4.35 2.8 1.2l3.1 1.65 1.3 2.15q1.55 2.3 2.35 4.9l.15.4.4 1.9q.2 1.25 0 2.5-.3 1.75-1.35 3.4l-1.1 1.35q-.45.5-.65 1.25l-.15.75-.15 1.8.05 1.8v.25l.4 2.4q-.2-1.2 0-2.35l.05-.3.45-1.4.7-1.25.55-.7q.95-1.05 2.3-1.7.7-.35 1.55-.55 1.4-.4 2.3-1.15 1.1-.95 1.25-2.55.2-1.65-.2-3.2l-.15-.55-1.35-2.55q-1.25-1.8-1.8-3.6M61.15 22.6l.6 1.7v.05l2.35 9.6V34l.25 1.6.1 2.35-.05 1 3.5-7.3.2-.8q.2-1.5-.7-2.9l-1.6-2.2Q64 23.6 61.15 22.6m-7.9 71.9l-.95 1.3-.95 1 .95-1 .95-1.3M52.1 45.4q-5 .75-6.25 4.4 2.1-.3 2.95-.95 3.05-2.3 7.2-1.4 4.15.9 5.35-1.55l.2-.8q-.05-.55-.7-1l-.25-.2-1.45-.85-2.7 1.2-4.35 1.15m21.2-.95v-.15l-.3-2.05-.5 1.95v.2q-.3 1.4-.25 2.4l.1.75.4-.7.55-2.4m-35.5 38.4q-.8.25-1.45.7l-.65.45-.65.65 2.1-.55q.3-.1.55-.25.8-.45.25-.9l-.15-.1m-3.4 10.1l4.25.65 2.55-.45q1.6-.5 3.2-1.5 1.45-.85.95-2.8-4.1-1.8-7.75.4l-5.35 2.85 2.15.85m33.2-38.6l-1-.05-.85 1 .75 5.5q.1.9-.5 1.75 3.65-.25 1.9-4.6l-.3-1q-.2-.95-.1-1.8l.1-.8m-12.45 34.6l3.5.2 3.6-.8 1.95-.85q-1.95-1.75-4.4-2.85l-1.5-.6-1.7-.25-1.35.2-.4.15-.85.45-.6.55q-.9.85-1.1 2.35-.2 1.2.05 2.75 1.6-.2 2.8-1.3m10.9-10.65l.3 1.4-.3-1.4m4.05 7.8l-.4-.45.4.45m.05 5.05l1.95 2.65-1.95-2.65"/><path fill="none" stroke="#CAC500" stroke-width=".05" stroke-linecap="round" stroke-miterlimit="3" d="M39.3 10.65l6.1.9 5.2 1.7 2.1.85q2.3 1.1 4.1 2.45l2.35 2.2 1.3 2.4m.5 1.4v.1l.45 1.75q.75 3.8-.7 6.9l-1.15 1.8-3.35 4.25m-4 3.95l-3.4 3q-2.95 2.6-5.55 5.9l-.2.25q-1.4 1.85-2.1 3.9-.55 1.45-.75 3l-.05.25m-1 5.6l-.45 2.15q-.25 1 .25 1.95l.2.35q.6 1.45.35 3.4l-.6 2.85-1.15 3.05-1.05 1.7-2.25 2.15-.75 1-.5 1-.35 1.05q-.3 1.15-.2 2.5l-2.6 1.45q-2.2 1.1-3.85 2.55l-1.7.05q-4.4-2.2-7.5.55 2.3-.2 3.75.85l.1.1.95 1.1q1.05 1.75-.5 2.65l-3.4 1.65-1.05.45q-5.05 1.8-9.8 2.9h2.7l10.2-.9h1.45l2.75.4q3.35.85 6.8-1.95l1.75-1.55q2.65-2.25 5.95-2.95l2.55-.35h.05l1.55.25q.45.35-.05 1.1l-.85 1.2-.3.3q-2 2.45-4.65 4.15 1.2-.45 2.7-.35 4.3.25 8.2-1.15 1.95-.65 3.5-2.05l.95-1 .95-1.3m32.1-21.45l.7-1.3.05-.2.4-3.8m2.65-9.05l.65-.3.7-.6m-1.1 1.05l.4-.45M73.3 95.5v.05m-.25 3.25q-2.65-3.15-7.95-2.7l-6.3.95-7.45-.25m9.6-74.25l-.05-.05-.45-1.35m-42.1 24.1l-.35-.5m11.95-3.85l.45-.15M72.1 93.8l-1.95-2.65m-33.2 9.2l-1.8.95"/><path fill="none" stroke="#214200" stroke-width=".05" stroke-linecap="round" stroke-miterlimit="3" d="M86.5 67.75l.15-5q.05-1.75.9-2.8l.2-.2 1.4-1.05m.25.15q-.35.5-.55 1.15l-.05.15q-.5 1.6-.35 4 .2 2.15-1.1 3.1l-.85.5m9.45.25q1.2.3 2.25 1.1-2.6.55-5 2.05l-1.45.95-.15-.05q-3.95-1.4-5.2-.45l1.15-1.05q2.25-1.85 5.5-2.5l1.3-.15m-.8 10.1l.9-1.35.1-.2q.4-.9 1.05-1.5 1.5-1.5 4.15-1.5h.1q-1.85.3-2.6 1.5-.5.75-.5 1.95l.25 1.9-2-.4M26.5 14.05l.05.05V14m-.2-.35q-3.55-.05-5.75 1.6l-.95.75q-.75.8-1.35 1.85-.95 1.75-1.55 3.65l-.65 2.3.45-.8L18 21.35q1.4-1.4 3.55-2.6l1.7-1.05 2.15-1.8.6-.65h.05l.5-1.15q.2.7-.5 1.15v.05l-.25.7-1.45 5.65q-.35 1.95.45 3.6l1.2 1.8 2.4 2.1 1.1.75-.6-3.55q-.25-2.9.1-6.1l.2-1.65q.2-1.2-.1-2.15l-.1-.15q-.35-1.05-1.25-1.7M8.4 14.35q1.25.7 1.3 2.4.05 2.35.75 4.45l.15.5.95 2.1-2.25-2.25-.75-.9q-.95-1.3-1.2-2.55l-.85 1.45-.3.35-.9 1.4q-.65 1.15-1.05 2.45L3.6 27.4 3.05 26q-.45-1.3-.4-2.65-.05-1.05.3-2.15l.75-2.1q.8-1.65 2-3.05Q3.25 17.4 0 17.1q1.95-5.05 6.95-2.35l-1.25 1.3 1.25-.8.4.9.3-.9.5-1 .25.1m-1.05 1.8q.25 1 0 1.95M18 44.75q-.75-1.05-1.05-2.3L16.7 41v-1.75l.15-.7.35-.6 3.2-2.4-1.05 2.55-.2.75-.25 2.3.25 2.2-1.15 1.4m10.65-2.85l1.3-1-2.7.9-.45.25q-2.65 1.55-2.1 5.3l1.9-.35q1.3-.6 1.25-1.65-.2-2.15.7-3.35l.1-.1m-9.2 15.4l-.8 1.4q-1.1 2.6.85 5.65-.05-.3 1.8-2.1-1.4-1.7-1.75-3.4l-.1-1.55m-12.2 0l-.35-1.4q-.4-2.55 1.2-5.4l1.4-3.15q-4.05 1-4 5.65.05 1.75.75 3l.45.75.55.55m-4.3 14.55q-1.2 2.1.15 4.25l.95 1.25.1.1-.4.45q-1.4 1.85-1.15 2.75l.05.2-.15-.2q-.75-1.15-1.05-2.35l-.25-1.15v-1.4l.4-2.05q.35-1.15 1.35-1.85"/><path fill="none" stroke="#f00" stroke-width=".05" stroke-linecap="round" stroke-miterlimit="3" d="M79.05 72.9q1.55.7 3.35.9 2 .2 2.95-.75-.6.85-.7 1.6l-.05.2q-.15 2.1 3.35 3.6Q91.7 80 93.55 78l1.45.4q.1 1.35-.2 2.25-.8 2.15-4 1.4h-.05q-3.3-.85-5.55-2.55l-5-3.25-1.1-.6m-22.9-38.3l-.25-1.15q-.75-2.2-3.1-3.4l-.3-.1-1.85-.65q-2.65-.75-5.6-.1l-.05.05q-1.9.4-3.2 1.45-1.4 1.05-2.2 2.7l-.2.5q-.65 1.6-1.05 3.35l-.6 4.6q-.2 3.5-2.9 4.55m13.35-13.4l1.3.65 1.05.95q.75.9 1.15 2.3l.45 1.65m-22.5 12q4.2-.35 7.85-2.55l1.35-.95q1.3-1.1 2.3-2.75 1.25-1.95 1.65-4.15v-.1L44 36.65v-.1l.1-.2q.25-.5 1.25-.7l2.9.1m-15.45-31l.95.65q1.5 1.45-1.25 3.2l-.45.2-2.8 1.95-2.9 2.9.15.4m.05-.05l1.2.6 1.65-1.3q1.5-1.2 3.2-1.9l1.05-.35 3.55-.5 2.1.1M25.8 53.2q-1.8-.3-3.4-1.05-2.6-1.15-4.95-2.8T12 47.45l-5.45-.3q-2.8 0-4.3 1.55.75-1.4 2-2.4l.15-.15Q7.6 43.6 12 44.1q3.2.35 6.35 1.15l6.35 2.1 2.7 1.2q2.65 1.25 5.45 1.05l1.9-.35.15-.1m5.25 8.45q-2.85.75-4.45 3.4l-.15.2q-2.25 3.45-5.9 4l-1.65.2q-3.15.15-6.1-.7l-2.4-.35q-2.05.15-3.55 1.8l-.65.9-1.1 2.05-.6 1.8-.15 1.05q-.2 1.5 0 3.05l.05.2v1.25l-.25 1.75-.4.8q-.9 1.5-2.95 2.1l-1.6.3q-2.7.4-5.35-.5 4.65 2.3 9.9 1.35l.7-.15q2-.6 2.8-2.6l.2-.6v-.05l.05-.1 1-5.95v-.05l.35-1.45.2-.4q1-1.55 3.6-1.45l1.5.05h6.45q3.3-.05 5.2-2.1l.85-1.2q1.25-2.05 3.4-3"/><path fill="none" stroke="#FF0C07" stroke-width=".05" stroke-linecap="round" stroke-miterlimit="3" d="M29.7 53.3l-2.5.05-1.4-.15"/><path fill="none" stroke="#A6A200" stroke-width=".05" stroke-linecap="round" stroke-miterlimit="3" d="M86 23.6l-.9-.55-6.6-3.3-4.15-1.8-2.75-1.2-3.1-1.65q-1.4-.85-2.8-1.2l-1.55-.2q-2.55-.5-4.85-1.8l-1.65-1.1q-1.9-1.45-2.45-3.4-.35-1.4-.1-3v-.05q.15-.9 1.1-1.45 2.25-1.45 4.6-2.3-4.2-1.25-7.6.6-1.35.7-1.75 2.3-.25.85-.2 1.9-4.3.35-8.1-.9l-7.6-2.6Q31.95.7 27.85.5q-4.2-.25-8.05 1.45-.7.4-1.45.75h-.05q-2.6 1.5-4.75 3.8L9.5 11.7l.65-.55q.7-.5 1.7-.75l.2-.25 1.4-1.45 1.35-1.1q1-.75 2.3-1.35 3.65-1.75 7.45-2.45l.25-.1q4.2-.75 7.55.8l.15.1.3.15M91.75 29.6l-.35-1-.9-1.25-2.4-2.25-2.1-1.5m5.75 6l.15.55.1 2.1-.05.55q-.1 1.15-.55 2.05l-1.15 1.9q-1.25 1.7-3.1 3.1-1.4 1-2.85 1.95-2 1.3-3.9 2.9l-3.15 2.85q-2.65 3.05-3.6 7.15-.25 1.05.15 1.85.3.6.9 1l.9.5q1.95 1 4.45 1.3-1.75 2.3-4.15 3.7-2.1 1.2-3.85 2.7l-2.1 1.85q-.85.8-.95 1.55-.15.85.6 1.6l1 .7q1.3-.45 2.5-.6l3.05.1.35.05.25.3q1.05 1 2.3 1.6m.05 2.75l-.75-.4-1.2-.5q-3.3-1.25-7.65-.35v.1q-.55 3.35-3.15 5.2v.05l.4 1 1.8 3.2 1.15 1.7q2.8 0 5.15 1.15 1.25.6 2.4 1.5l7.3 5.15 4.3 2.3q2.15.75 3.85.4l5.5-1q-.95.35-1.8.85l-1.05.55-1.45 1q-.8.6-1.7.8l-.15.05-3.2-.35L80.3 95m-2.45-.7l-5.75-.5 1.2 1.7m0 .05l.8 1.25-1.05 2m-61.2-88.4q-.3.35 1.5.7M9 12.35l.4-.55.1-.1-.5.65q-.3.5-.45 1.15l-.15.85m-1.45.4l1-.8.4-.75.65-.85m-1.05 1.6q-.3.6-.3 1.3m-.7 0l.3-.3-.3-.2m62.75 70.9l.4.45m-3.75-6.4l-.3-1.4"/></svg>