<svg xmlns="http://www.w3.org/2000/svg" viewBox="0 0 100.0 97.5" width="100" height="97.5"><defs><radialGradient gradientUnits="userSpaceOnUse" r="819.2" cx="0" cy="0" spreadMethod="pad" gradientTransform="matrix(.037 0 0 .021 81.65 34.75)" id="a"><stop offset=".204" stop-color="#fff"/><stop offset=".561" stop-color="#900"/><stop offset="1"/></radialGradient><radialGradient gradientUnits="userSpaceOnUse" r="819.2" cx="0" cy="0" spreadMethod="pad" gradientTransform="matrix(.033 0 0 .033 88.65 71.15)" id="b"><stop offset="0" stop-color="#f00"/><stop offset="1"/></radialGradient><radialGradient gradientUnits="userSpaceOnUse" r="819.2" cx="0" cy="0" spreadMethod="pad" gradientTransform="matrix(.033 0 0 .033 52.75 36.75)" id="c"><stop offset="0" stop-color="#fff"/><stop offset=".659" stop-color="#f60"/><stop offset="1"/></radialGradient><radialGradient gradientUnits="userSpaceOnUse" r="819.2" cx="0" cy="0" spreadMethod="pad" gradientTransform="matrix(.005 0 0 .018 52.1 37.7)" id="d"><stop offset="0" stop-color="#fff"/><stop offset=".361" stop-color="#f00"/><stop offset="1"/></radialGradient><radialGradient gradientUnits="userSpaceOnUse" r="819.2" cx="0" cy="0" spreadMethod="pad" gradientTransform="matrix(.024 0 0 .024 22.4 9.55)" id="e"><stop offset=".027" stop-color="#836900"/><stop offset=".404" stop-color="#fc0"/><stop offset="1"/></radialGradient><radialGradient gradientUnits="userSpaceOnUse" r="819.2" cx="0" cy="0" spreadMethod="pad" gradientTransform="matrix(.047 0 0 .026 25.15 38.85)" id="f"><stop offset=".204" stop-color="#fff"/><stop offset=".561" stop-color="#900"/><stop offset="1"/></radialGradient><radialGradient gradientUnits="userSpaceOnUse" r="819.2" cx="0" cy="0" spreadMethod="pad" gradientTransform="matrix(.029 0 0 .029 28.55 75.3)" id="g"><stop offset="0" stop-color="#f00"/><stop offset="1"/></radialGradient><radialGradient gradientUnits="userSpaceOnUse" r="819.2" cx="0" cy="0" spreadMethod="pad" gradientTransform="matrix(.027 0 0 .027 11.7 69.05)" id="h"><stop offset="0" stop-color="#f00"/><stop offset="1"/></radialGradient><radialGradient gradientUnits="userSpaceOnUse" r="819.2" cx="0" cy="0" spreadMethod="pad" gradientTransform="matrix(.031 0 0 .031 64.1 75.3)" id="i"><stop offset="0" stop-color="#f00"/><stop offset="1"/></radialGradient><radialGradient gradientUnits="userSpaceOnUse" r="819.2" cx="0" cy="0" spreadMethod="pad" gradientTransform="matrix(.025 0 0 .025 80.55 10.1)" id="j"><stop offset=".027" stop-color="#836900"/><stop offset=".404" stop-color="#fc0"/><stop offset="1"/></radialGradient></defs><path d="M71 17.2q1.8 4.45 9.25 1.4 0 4.45 5.4 6.15l4.6 1.25q2.65.45 2.95 1.85.65 2.2 3.1 3.4l2.45 1.25q-4.15.65-5.85 4.8l-2.15 3.05-4.45 4.45-3.7 4.8-.95 1.6q-.7-2.15-2.45-1.6-1.2.3-2.85 1.9l-1.85 1.7-7.2 5.85-4.35 3-3.3 3.05v-3.5l-7.75.85-.5-1.6q-4.05 2.75-8.3-1.15 1.15 3.5 4.05 7-5.65-6.25-13.5-9.25l-1.9-.65-4.9-1.25-3.6-.75-4.65-.95q1.8-2.15-1.1-4.55l-.3-.35-4.8-3.05q-1.45-2.65-4.55-4.05 5.3-1.8 7.45-6.5 2.1-4.55 5.4-8.25l5.65-6.05-.85 1.8 6.75-7 3.3-2.9.1 1.9q2.8-1.55 5.95-2.4l7.65-1.1q2-1.35 4.9-6.15 0 2.75-.85 6.7 4.45.4 6.15-3.2.1 4.05 1.7 5.65L68.9 14l1.5-1.05q0 2.55.6 4.25m21.55 14.75l-2.1-.85q-4.7-1.8-9.15-4.45-3.9-2.45-8.25-4.15l-2.35-.95q-3.2-1.5-6.15-3.4-3.6-2.45-8.05-2.3l-9.25-.25q-5.2-.3-9.45 2.35L31.3 22l-1.35.95-6.6 5.75L12.1 41.85 14.55 43l12.4 7.55q3 2.15 6.6 3.6l4.65 1.6 3.85.95L53.3 58q2.85.1 5-1.05 5.1-2.45 10.3-4.6 4.45-1.9 8.45-4.55l5.2-3.85q2.55-1.7 4.7-4 2.35-2.45 3.8-5.45l1.8-2.55"/><path fill="url(#a)" d="M92.55 31.95l-1.8 2.55q-1.45 3-3.8 5.45-2.15 2.3-4.7 4l-5.2 3.85q1-3.3.85-6.8l-.6-8.2q-.55-4.45-3.75-7.5-1.8-1.7-2.85-3.75l2.35.95q4.35 1.7 8.25 4.15 4.45 2.65 9.15 4.45l2.1.85"/><path fill="url(#b)" d="M86.3 44.8q2.25 1.1 3.5 3.15l.15.3q.7 1.2 1.05 2.75 1.15 5.3-2.15 9.1-2.95 3.65-2.85 8.95.1 4.15 1.8 7.55l1.5 1.9q3.9 3.4 6.9 7.4 3.4 4.7-.85 8.3-3.95 3.4-9.25 3.3-5.4-.1-5.3-3.8 1.25 2.1 4.75 1.9 4.6-.45 4.45-5.65-.1-3.05-1.35-5.6-1.3-2.55-3.3-4.6-3.6-3.5-5-8.4-2.2-8.1 2.75-14.15l1.85-1.95q1.05-1 .5-2.35-.75-2.45-2.85-3.3l3.7-4.8"/><path fill="url(#c)" d="M77.05 47.8q-4 2.65-8.45 4.55-5.2 2.15-10.3 4.6-2.15 1.15-5 1.05l-11.25-1.3-3.85-.95q-3.4-2.45-5.95-5.95-2.85-3.9-4.1-8.8-1.3-5 0-9.9 1.05-4.75 3.15-9.1l6.5-4.05q4.25-2.65 9.45-2.35l9.25.25q4.45-.15 8.05 2.3 2.95 1.9 6.15 3.4 1.05 2.05 2.85 3.75 3.2 3.05 3.75 7.5l.6 8.2q.15 3.5-.85 6.8m-12.3-27.75v-.1l-5.4-.95q-.45.2 0 .45l5.4.6m-6.7 27.45l-.3-.15-.1.15-.55 2.95-.3.4q-.95 2.25-.55 4.6l.55-.2v-.45q-.1-1.8.5-3.5l.65-.65.1-3.15M46.2 18.05l.2-.1v-.1l-3.6-.45-.1.1-.15.25 3.65.3m2 19.25q0 5.2 1.15 10.2 1.05 4.45 3 6.65 1.7-3.05 2.55-6.55 1.05-5.1 1.05-10.3 0-5.2-1.05-8.95l-3.5-9.75-2.05 9.75Q48.2 32.1 48.2 37.3m23.25 4.95v.45l.1.4.3 3.65-.2.1-.2.4q.3.65.95.25l.1-.45q.45-2.65-.65-5h-.3l-.1.2M67 47.05l-1.1 2-3.6 4.6.55.1.65-.65q4.85-4.15 5.5-10.5h-.85l-.1.3.3.55-1.35 3.6m10.2-10l-.15-.1q-2.75-2.2-4.35-5.3h-.3l-.1.2q1.5 3.3 4.35 5.75h.3l.1-.3.15-.25m-5-8.6l.1-.1v-.1q-1.7-1.4-3.95-1.7l-.1.2 3.2 1.7h.75M34.5 22.6l.75.35.2-.2 5-1.95v-.1l-.95-.3-.75.2q-2.55.55-4.25 2m5.85 24.15L40 46.5v.15q-2.75 1.7-5.7 2.75v.1q3.5 0 6.25-2.65l-.2-.1M30.7 40.8l-.15.2v.4l.15.15 4.75 3.25 1.05-.2-.1-.1q-3.15-1.4-5.4-3.7l-.2-.1-.1.1m4.1-5.45h-.3l-.1.1-.65.55-4.25.3-.2.25-.1.5.1.25h.4l.15-.15v-.2l4.55-.4.4-.1.15-.25q.1-.4-.15-.85m-2.55-5.8l-.95.6q-1.35.85-1.7 2.45l-1.8.55q1.3 1.15 2.55-.35v-.4l.35-.45.2-.5 1.6-1.2 1.05-.2.3-.4.25-.45-.15-.1-.5-.1-.2.2v.1l-1 .25M41.5 49.8h-.3l-.1.1q-1.2 2.25-.85 4.8l.5-.2.1-.25.65-4.45"/><path fill="#f00" d="M41.5 49.8l-.65 4.45-.1.25-.5.2q-.35-2.55.85-4.8l.1-.1h.3m23.25-29.75l-5.4-.6q-.45-.25 0-.45l5.4.95v.1m-18.55-2l-3.65-.3.15-.25.1-.1 3.6.45v.1l-.2.1M58.05 47.5l-.1 3.15-.65.65q-.6 1.7-.5 3.5v.45l-.55.2q-.4-2.35.55-4.6l.3-.4.55-2.95.1-.15.3.15M72.2 28.45h-.75l-3.2-1.7.1-.2q2.25.3 3.95 1.7v.1l-.1.1m5 8.6l-.15.25-.1.3h-.3q-2.85-2.45-4.35-5.75l.1-.2h.3q1.6 3.1 4.35 5.3l.15.1m-10.2 10l1.35-3.6-.3-.55.1-.3H69q-.65 6.35-5.5 10.5l-.65.65-.55-.1 3.6-4.6 1.1-2m4.45-4.8l.1-.2h.3q1.1 2.35.65 5l-.1.45q-.65.4-.95-.25l.2-.4.2-.1-.3-3.65-.1-.4v-.45M34.5 22.6q1.7-1.45 4.25-2l.75-.2.95.3v.1l-5 1.95-.2.2-.75-.35m-2.25 6.95l1-.25v-.1l.2-.2.5.1.15.1-.25.45-.3.4-1.05.2-1.6 1.2-.2.5-.35.45v.4q-1.25 1.5-2.55.35l1.8-.55q.35-1.6 1.7-2.45l.95-.6m2.55 5.8q.25.45.15.85l-.15.25-.4.1-4.55.4v.2l-.15.15h-.4l-.1-.25.1-.5.2-.25 4.25-.3.65-.55.1-.1h.3m-4.1 5.45l.1-.1.2.1q2.25 2.3 5.4 3.7l.1.1-1.05.2-4.75-3.25-.15-.15V41l.15-.2m9.65 5.95l.2.1Q37.8 49.5 34.3 49.5v-.1q2.95-1.05 5.7-2.75v-.15l.35.25"/><path fill="url(#d)" d="M48.2 37.3q0-5.2 1.15-8.95l2.05-9.75 3.5 9.75q1.05 3.75 1.05 8.95 0 5.2-1.05 10.3-.85 3.5-2.55 6.55-1.95-2.2-3-6.65-1.15-5-1.15-10.2"/><path fill="url(#e)" d="M41.6 12.45q-3.15.85-5.95 2.4l-.1-1.9-3.3 2.9-.5-.85q-3.1-3.95-8.4-5.75-1.4-.55-2.45.5l-5.1 5q-2.3 2.25-5.7.55l-3.85-1.8q-3.9-1.7-2.85-5.65Q5 13.5 11.15 13.3q4.45-.25 6.15-5.25 1.6-4.85 7.45-4.85 4.95-.1 9.65 1.9 4.35 2 7.2 7.35"/><path fill="url(#f)" d="M38.2 55.75l-4.65-1.6q-3.6-1.45-6.6-3.6L14.55 43l-2.45-1.15L23.35 28.7l6.6-5.75L31.3 22q-2.1 4.35-3.15 9.1-1.3 4.9 0 9.9 1.25 4.9 4.1 8.8 2.55 3.5 5.95 5.95"/><path fill="url(#g)" d="M31.75 56.8q-1.2 1.85.4 4.15l6.5 8.1q5.95 6.25 2.65 14.1-2 4.9-6.6 5.65l-7.85.3q-8.05-.5-12.1 5.95-.4-6.05 5.3-7.55l9.45-1.9q6.4-1.05 5.55-6.9-.75-5-4.9-8.4-2.85-2.35-3.6-5.85-1.05-4.85.3-8.9l4.9 1.25"/><path fill="url(#h)" d="M23.25 54.8q-.85 2.35-3.4 3.4-2.45 1.15-4.05 2.55-1.35 1.4.35 2.75 5.4 4.35 3.9 10.55-.95 4.25-5.5 3.8-6.25-.55-12.3 3.95-1.7 3.25-1 7.1L.3 85.3q-1.45-5.85 3.75-8l8.8-4q4.35-2.25.4-7.35-3.25-4.35-2-9.65 1.05-5.1 6.25-7 2.9 2.4 1.1 4.55l4.65.95"/><path fill="url(#i)" d="M74.5 53.2q.35 4.05 2.8 7.55.5.85.1 2-1.9 5.1-7.25 4.7-4.75-.35-7.95 1.7l-1.8 1.7q-3.4 4.65 2 7.3l8.85 3.4q6.15 1.95 3.8 7.25-1.8 4.25-6.8 4.55-5.3.45-10.1 1.9L51.9 97.4q5.65-3.2 12.2-4.8 4.6-1.05 2.65-5.1-.5-1.15-2.1-1.45l-8.5-2.8q-3.6-1.35-4.9-4.55-.7-2.1-.5-4.55.2-2.9 2.35-4.05l2.4-.95q2.45-.55 4.35-2.05 2.55-2 5.2-2.75 2.7-.6 2.7-3.6l-.45-1.7 7.2-5.85"/><path fill="url(#j)" d="M71.95 0l9.25 1.15q5 1.1 8.8 4.6 2.15 1.9 1.7 5.1-.95 6.45 5.1 7.4 2.8.45 3.2-2.1-.3 2.95-2.75 3.6-3.85.95-7.35-.75-2.3-1.15-3.15-3.8-1.3-4.05-3.75-7-2.2-2.9-5.95-2.9-4.25 0-3.9 3.95.2 2.95-.95 5.6L71 17.2q-.6-1.7-.6-4.25L68.9 14l-7.75.35q2.75-1.3 2.95-5.85.35-5.1 4.25-7.55l3.6-.95"/><path fill="none" stroke="#9C0000" stroke-width=".05" stroke-linecap="round" stroke-linejoin="round" d="M86.3 44.8q2.25 1.1 3.5 3.15l.15.3q.7 1.2 1.05 2.75 1.15 5.3-2.15 9.1-2.95 3.65-2.85 8.95.1 4.15 1.8 7.55l1.5 1.9q3.9 3.4 6.9 7.4 3.4 4.7-.85 8.3-3.95 3.4-9.25 3.3-5.4-.1-5.3-3.8 1.25 2.1 4.75 1.9 4.6-.45 4.45-5.65-.1-3.05-1.35-5.6-1.3-2.55-3.3-4.6-3.6-3.5-5-8.4-2.2-8.1 2.75-14.15l1.85-1.95q1.05-1 .5-2.35-.75-2.45-2.85-3.3m-8.1 3.6q.35 4.05 2.8 7.55.5.85.1 2-1.9 5.1-7.25 4.7-4.75-.35-7.95 1.7l-1.8 1.7q-3.4 4.65 2 7.3l8.85 3.4q6.15 1.95 3.8 7.25-1.8 4.25-6.8 4.55-5.3.45-10.1 1.9L51.9 97.4q5.65-3.2 12.2-4.8 4.6-1.05 2.65-5.1-.5-1.15-2.1-1.45l-8.5-2.8q-3.6-1.35-4.9-4.55-.7-2.1-.5-4.55.2-2.9 2.35-4.05l2.4-.95q2.45-.55 4.35-2.05 2.55-2 5.2-2.75 2.7-.6 2.7-3.6l-.45-1.7M31.75 56.8q-1.2 1.85.4 4.15l6.5 8.1q5.95 6.25 2.65 14.1-2 4.9-6.6 5.65l-7.85.3q-8.05-.5-12.1 5.95-.4-6.05 5.3-7.55l9.45-1.9q6.4-1.05 5.55-6.9-.75-5-4.9-8.4-2.85-2.35-3.6-5.85-1.05-4.85.3-8.9m-3.6-.75q-.85 2.35-3.4 3.4-2.45 1.15-4.05 2.55-1.35 1.4.35 2.75 5.4 4.35 3.9 10.55-.95 4.25-5.5 3.8-6.25-.55-12.3 3.95-1.7 3.25-1 7.1l1.1 2.85m68.35-70.2l2.35.95q4.35 1.7 8.25 4.15 4.45 2.65 9.15 4.45l2.1.85m-80.45 9.9L23.35 28.7l6.6-5.75L31.3 22M17.5 49.3q-5.2 1.9-6.25 7-1.25 5.3 2 9.65 3.95 5.1-.4 7.35l-8.8 4q-5.2 2.15-3.75 8l.95 3.6"/><path fill="none" stroke="#7F6600" stroke-width=".05" stroke-linecap="round" stroke-linejoin="round" d="M61.15 14.35q2.75-1.3 2.95-5.85.35-5.1 4.25-7.55l3.6-.95M20.9 9.75q1.05-1.05 2.45-.5 5.3 1.8 8.4 5.75l.5.85m-28.85-8Q2.35 11.8 6.25 13.5l3.85 1.8"/><path fill="none" stroke="#783000" stroke-width=".05" stroke-linecap="round" stroke-linejoin="round" d="M77.05 47.8q-4 2.65-8.45 4.55-5.2 2.15-10.3 4.6-2.15 1.15-5 1.05l-11.25-1.3-3.85-.95M31.3 22l6.5-4.05q4.25-2.65 9.45-2.35l9.25.25q4.45-.15 8.05 2.3 2.95 1.9 6.15 3.4 1.05 2.05 2.85 3.75 3.2 3.05 3.75 7.5l.6 8.2q.15 3.5-.85 6.8M31.3 22q-2.1 4.35-3.15 9.1-1.3 4.9 0 9.9 1.25 4.9 4.1 8.8 2.55 3.5 5.95 5.95"/><path fill="none" stroke="#B79300" stroke-width=".05" stroke-linecap="round" stroke-linejoin="round" d="M41.6 12.45Q38.75 7.1 34.4 5.1q-4.7-2-9.65-1.9-5.85 0-7.45 4.85-1.7 5-6.15 5.25Q5 13.5 3.4 7.85m6.7 7.45q3.4 1.7 5.7-.55l5.1-5"/><path fill="none" stroke="#B99400" stroke-width=".05" stroke-linecap="round" stroke-linejoin="round" d="M71.95 0l9.25 1.15q5 1.1 8.8 4.6 2.15 1.9 1.7 5.1-.95 6.45 5.1 7.4 2.8.45 3.2-2.1-.3 2.95-2.75 3.6-3.85.95-7.35-.75-2.3-1.15-3.15-3.8-1.3-4.05-3.75-7-2.2-2.9-5.95-2.9-4.25 0-3.9 3.95.2 2.95-.95 5.6L71 17.2"/></svg>