<svg xmlns="http://www.w3.org/2000/svg" viewBox="0 0.1 100.0 101.7" width="100" height="101.7"><defs><linearGradient gradientUnits="userSpaceOnUse" x1="-819.2" x2="819.2" gradientTransform="matrix(.005 .002 -.004 .009 84.7 10.85)" id="a"><stop offset=".2" stop-color="#090"/><stop offset=".361" stop-color="#366"/><stop offset=".573" stop-color="#6c9"/><stop offset=".745" stop-color="#66B58D"/><stop offset=".902" stop-color="#030"/></linearGradient><linearGradient gradientUnits="userSpaceOnUse" x1="-819.2" x2="819.2" spreadMethod="repeat" gradientTransform="matrix(0 .006 -.004 0 84.45 24.3)" id="b"><stop offset=".2" stop-color="#090"/><stop offset=".361" stop-color="#366"/><stop offset=".573" stop-color="#6c9"/><stop offset=".745" stop-color="#66B58D"/><stop offset=".902" stop-color="#030"/></linearGradient><radialGradient gradientUnits="userSpaceOnUse" r="819.2" cx="0" cy="0" spreadMethod="pad" gradientTransform="matrix(.034 .006 -.004 .024 70.15 30.2)" id="c"><stop offset="0" stop-color="#900"/><stop offset=".2" stop-color="#090"/><stop offset=".463" stop-color="#D7C456"/><stop offset=".573" stop-color="#603"/><stop offset=".745" stop-color="#66B58D"/><stop offset=".902" stop-color="#030"/></radialGradient><radialGradient gradientUnits="userSpaceOnUse" r="819.2" cx="0" cy="0" spreadMethod="pad" gradientTransform="matrix(.003 0 0 .003 63.4 27.85)" id="d"><stop offset="0"/><stop offset=".737" stop-color="#930"/><stop offset="1" stop-color="#660"/></radialGradient><radialGradient gradientUnits="userSpaceOnUse" r="819.2" cx="0" cy="0" spreadMethod="pad" gradientTransform="matrix(.019 0 0 .012 43.1 25)" id="e"><stop offset="0" stop-color="#900"/><stop offset=".2" stop-color="#090"/><stop offset=".463" stop-color="#D7C456"/><stop offset=".573" stop-color="#603"/><stop offset=".745" stop-color="#66B58D"/><stop offset=".902" stop-color="#030"/></radialGradient><radialGradient gradientUnits="userSpaceOnUse" r="819.2" cx="0" cy="0" spreadMethod="pad" gradientTransform="matrix(.055 0 0 .044 66.8 76.8)" id="f"><stop offset="0" stop-color="#900"/><stop offset=".2" stop-color="#090"/><stop offset=".463" stop-color="#D7C456"/><stop offset=".573" stop-color="#603"/><stop offset=".745" stop-color="#66B58D"/><stop offset=".902" stop-color="#030"/></radialGradient><radialGradient gradientUnits="userSpaceOnUse" r="819.2" cx="0" cy="0" spreadMethod="pad" gradientTransform="matrix(.033 0 0 .036 84.65 55.15)" id="g"><stop offset="0" stop-color="#900"/><stop offset=".2" stop-color="#090"/><stop offset=".463" stop-color="#D7C456"/><stop offset=".573" stop-color="#603"/><stop offset=".745" stop-color="#66B58D"/><stop offset=".902" stop-color="#030"/></radialGradient><radialGradient gradientUnits="userSpaceOnUse" r="819.2" cx="0" cy="0" spreadMethod="pad" gradientTransform="matrix(.004 0 0 .004 77.4 54.15)" id="h"><stop offset="0"/><stop offset=".737" stop-color="#930"/><stop offset="1" stop-color="#660"/></radialGradient><radialGradient gradientUnits="userSpaceOnUse" r="819.2" cx="0" cy="0" spreadMethod="pad" gradientTransform="matrix(.003 0 0 .003 84.25 33.85)" id="i"><stop offset="0"/><stop offset=".737" stop-color="#930"/><stop offset="1" stop-color="#660"/></radialGradient><radialGradient gradientUnits="userSpaceOnUse" r="819.2" cx="0" cy="0" spreadMethod="pad" gradientTransform="matrix(.003 0 0 .003 86.85 41.35)" id="j"><stop offset="0"/><stop offset=".737" stop-color="#930"/><stop offset="1" stop-color="#660"/></radialGradient><radialGradient gradientUnits="userSpaceOnUse" r="819.2" cx="0" cy="0" spreadMethod="pad" gradientTransform="matrix(.005 0 0 .005 95.1 63.4)" id="k"><stop offset="0"/><stop offset=".737" stop-color="#930"/><stop offset="1" stop-color="#660"/></radialGradient><radialGradient gradientUnits="userSpaceOnUse" r="819.2" cx="0" cy="0" spreadMethod="pad" gradientTransform="matrix(.004 0 0 .004 86.5 61.15)" id="l"><stop offset="0"/><stop offset=".737" stop-color="#930"/><stop offset="1" stop-color="#660"/></radialGradient><radialGradient gradientUnits="userSpaceOnUse" r="819.2" cx="0" cy="0" spreadMethod="pad" gradientTransform="matrix(.006 0 0 .006 88.1 74.1)" id="m"><stop offset="0"/><stop offset=".737" stop-color="#930"/><stop offset="1" stop-color="#660"/></radialGradient><radialGradient gradientUnits="userSpaceOnUse" r="819.2" cx="0" cy="0" spreadMethod="pad" gradientTransform="matrix(.029 0 0 .039 32.2 73.55)" id="n"><stop offset="0" stop-color="#900"/><stop offset=".2" stop-color="#090"/><stop offset=".463" stop-color="#D7C456"/><stop offset=".573" stop-color="#603"/><stop offset=".745" stop-color="#66B58D"/><stop offset=".902" stop-color="#030"/></radialGradient><linearGradient gradientUnits="userSpaceOnUse" x1="-819.2" x2="819.2" gradientTransform="matrix(.007 0 0 .012 39 10.8)" id="o"><stop offset=".2" stop-color="#090"/><stop offset=".361" stop-color="#366"/><stop offset=".573" stop-color="#6c9"/><stop offset=".745" stop-color="#66B58D"/><stop offset=".902" stop-color="#030"/></linearGradient><linearGradient gradientUnits="userSpaceOnUse" x1="-819.2" x2="819.2" gradientTransform="matrix(.002 -.008 .008 .002 18.5 20.45)" id="p"><stop offset=".2" stop-color="#090"/><stop offset=".361" stop-color="#366"/><stop offset=".573" stop-color="#6c9"/><stop offset=".745" stop-color="#66B58D"/><stop offset=".902" stop-color="#030"/></linearGradient><linearGradient gradientUnits="userSpaceOnUse" x1="-819.2" x2="819.2" gradientTransform="matrix(.005 .01 -.011 .006 30.35 37.15)" id="q"><stop offset=".2" stop-color="#090"/><stop offset=".361" stop-color="#366"/><stop offset=".573" stop-color="#6c9"/><stop offset=".745" stop-color="#66B58D"/><stop offset=".902" stop-color="#030"/></linearGradient><radialGradient gradientUnits="userSpaceOnUse" r="819.2" cx="0" cy="0" spreadMethod="pad" gradientTransform="matrix(.028 0 0 .028 22 74.35)" id="r"><stop offset="0" stop-color="#c00"/><stop offset=".878" stop-color="#330"/></radialGradient><radialGradient gradientUnits="userSpaceOnUse" r="819.2" cx="0" cy="0" spreadMethod="pad" gradientTransform="matrix(.741 0 0 .74 -6.9 -4.55)" id="s"><stop offset="0" stop-color="#c00"/><stop offset=".878" stop-color="#330"/></radialGradient></defs><path d="M49.15 94.65q-.8.1-1.45.85-2.7 3 .9 5.4l1.25.85q-4.65-.85-9.1-2.3l-3.95-1.1-1.05-.5q-1.25-.8-2-2l-.95-1.5-.15-.75 1.3.15q2.7.2 5.4 0 2.85-.2 5.25-1.8l1.75-1.25q2.15-1.6 2.85-4.15l.15-.9.3-5.65q-.05-2.55.3-5.05.1-1 .65-1.8 1.6-2.4 1.2-5.3-.45-2.6-2-4.9-1.45-2.05-3.75-3.5L37.8 53.8q-1.25-.85-2.7-.35-2.45.9-5.55.5l-3.45.35q-.55-2.45-.3-5.1.2-2.4 1.8-4.4 1.65-2.2 4.2-3.55 2.4-1.35 5.25-1.15-1.45-.05-2.7.9l-2.1 1.8q-1.15 1.1-1.85 2.6-.9 1.85-1.45 4-.55 1.65.9 2.95l.8-.45.85-1.15q1.35-2.4 3.85-3.75l3.45-2q5.8-3.25 12.4-1.15l4.1 1.7q-3.2-1.1-6.5 0-2.75 1-4.75 3.25l-.45.55-1.75 1.85q-.85.9-.9 2.35-.05 1.35 1 1.95 2.2 1.2 4.25-.4 1.05-.85 2.45-1.15 9-1.7 16.45 4.35l3.95 3.2q2.5 1.9 3.3 4.9-4.3-3.9-10.3-5l-7-.6q-1.1.05-1.45 1.15-1.15 3.1 1.85 5.05 8.2 5.4 13 13.9.9 1.5.45 3.3-.95 3.6-2.55 6.3-.9-4.8-3.5-8.85-2.55-4.05-7-5.1-.7-.2-1.15.35-.9 1-1.05 2.45-.85 9.25 5.4 16.2l-8.15-.7-1.2-.2h-.55"/><path fill="url(#a)" d="M79.1 18.15q.55-1.8.55-3.75-.1-8.95 7.85-12.25-.9 6.4-3.7 12.3-.75 1.55-2.2 2.35l-2.5 1.35"/><path fill="url(#b)" d="M76.95 22.05q5.75-4.4 12.45-.75 2.45 1.3 3.6 3.65l-12.2.5q-3.1-.15-4.2-2.95l.35-.45"/><path fill="url(#c)" d="M73.65 25.1l4.55 1.75q6.1 2.7 10.6 7.65l-3.75.65.3-1.3q0-.85-.35-1.4-.3-.55-.75-.55t-.75.55q-.3.55-.3 1.4 0 .8.3 1.35l.15.2-7.45 1.9-.55.2-.75-.35q-7.3-3.15-14-5.25-2.95-.9-5.85-1.2l-.45-.05q-1 .25-2.35-.5l-.75-.3q-.15-3.1.15-6.15l3.85.1q3.45-1.15 7.7-.8 5.4.45 10.45 2.1l-.45.25.45-.25m-7.95 2.75q0-.5-.65-.85l-1.65-.35-1.6.35q-.7.35-.7.85 0 .55.7.85.65.4 1.6.4l1.65-.4q.65-.3.65-.85"/><path fill="url(#d)" d="M65.7 27.85q0 .55-.65.85l-1.65.4q-.95 0-1.6-.4-.7-.3-.7-.85 0-.5.7-.85l1.6-.35 1.65.35q.65.35.65.85"/><path fill="url(#e)" d="M51.5 29.85l-2.7-.4q-8.75.55-12.1-5l-1.6-2.55-.45-1.05 1.15-.7v.05q1.5 2.05 4.25 2.4l11.6 1.1q-.3 3.05-.15 6.15"/><path fill="url(#f)" d="M99.6 70.95q-.5 3-1.4 5.85-2.4 7.65-7.85 13.75-5.3 5.95-13.3 7.45-7.4 1.35-15.4-.9-5.3-1.5-10.75-2.2v-.05l8.15.7q-6.25-6.95-5.4-16.2.15-1.45 1.05-2.45.45-.55 1.15-.35 4.45 1.05 7 5.1 2.6 4.05 3.5 8.85 1.6-2.7 2.55-6.3.45-1.8-.45-3.3-4.8-8.5-13-13.9-3-1.95-1.85-5.05.35-1.1 1.45-1.15l7 .6q6 1.1 10.3 5-.8-3-3.3-4.9l-3.95-3.2q-7.45-6.05-16.45-4.35-1.4.3-2.45 1.15-2.05 1.6-4.25.4-1.05-.6-1-1.95.05-1.45.9-2.35l1.75-1.85q5.75-1.25 12.35 0l11.85 1.9 2 .8q2.5 1.05 5 2.25 0 1.25.75 2.2.8 1 1.85 1 1.1 0 1.85-.95l4.8 2.65q-.55.85-.55 1.95 0 1.4.85 2.35.9 1 2.15 1 1.3 0 2.15-1l.65-1.05 2 1.4q.2.85 1.05 1.55.9.65 2.05.8l4.4 3.95.8.8M85.35 71q-1.15 1.3-1.15 3.1 0 1.85 1.15 3.1 1.15 1.3 2.75 1.3t2.75-1.3Q92 75.95 92 74.1q0-1.8-1.15-3.1t-2.75-1.3q-1.6 0-2.75 1.3"/><path fill="url(#g)" d="M88.8 34.5l.65.7q4.9 5.7 7.3 12.1 2.75 7.2 3.2 14.75.25 4.6-.35 8.9l-.8-.8-4.4-3.95.7.05q1.6 0 2.7-.85 1.15-.85 1.15-2t-1.15-2q-1.1-.8-2.7-.8t-2.75.8q-1.1.85-1.1 2l.05.45-2-1.4.2-1.3q0-1.35-.85-2.35t-2.15-1q-1.25 0-2.15 1l-.3.4-4.8-2.65v-.05q.8-.95.8-2.35 0-1.35-.8-2.35-.75-.95-1.85-.95-1.05 0-1.85.95-.75 1-.75 2.35v.15q-2.5-1.2-5-2.25l-2-.8 3.4.45q1.3.15 2.9-.95 6.85-4.55 2.95-11.9-.45-.8-1.4-1.35l.55-.2 7.45-1.9.6.35q.45 0 .75-.55l.05-.05 3.75-.65m.7 6.85q0-1.15-.8-2-.8-.8-1.85-.8t-1.85.8q-.8.85-.8 2t.8 1.95q.8.85 1.85.85t1.85-.85q.8-.8.8-1.95"/><path fill="url(#h)" d="M79.25 56.55q-.75.95-1.85.95-1.05 0-1.85-1-.75-.95-.75-2.2v-.15q0-1.35.75-2.35.8-.95 1.85-.95 1.1 0 1.85.95.8 1 .8 2.35 0 1.4-.8 2.35v.05"/><path fill="url(#i)" d="M83.65 35.4l-.15-.2q-.3-.55-.3-1.35 0-.85.3-1.4.3-.55.75-.55t.75.55q.35.55.35 1.4l-.3 1.3-.05.05q-.3.55-.75.55l-.6-.35"/><path fill="url(#j)" d="M89.5 41.35q0 1.15-.8 1.95-.8.85-1.85.85T85 43.3q-.8-.8-.8-1.95t.8-2q.8-.8 1.85-.8t1.85.8q.8.85.8 2"/><path fill="url(#k)" d="M91.3 63.85l-.05-.45q0-1.15 1.1-2 1.15-.8 2.75-.8t2.7.8q1.15.85 1.15 2t-1.15 2q-1.1.85-2.7.85l-.7-.05q-1.15-.15-2.05-.8-.85-.7-1.05-1.55"/><path fill="url(#l)" d="M89.3 62.45l-.65 1.05q-.85 1-2.15 1-1.25 0-2.15-1-.85-.95-.85-2.35 0-1.1.55-1.95l.3-.4q.9-1 2.15-1 1.3 0 2.15 1 .85 1 .85 2.35l-.2 1.3"/><path fill="url(#m)" d="M85.35 71q1.15-1.3 2.75-1.3t2.75 1.3Q92 72.3 92 74.1q0 1.85-1.15 3.1-1.15 1.3-2.75 1.3t-2.75-1.3q-1.15-1.25-1.15-3.1 0-1.8 1.15-3.1"/><path fill="url(#n)" d="M32.65 93.6l-6.1-1q-2.1-.65-3.5-2.35l1.6.1 5.6-.3 1.8-.3 2.25-.7.95-.4 4.1-2.7.7-.75 2-3.25.45-.95.35-.9q.15-.8.6-1.35.6-.8.55-1.9v-1.5l-.25-2-1-3.7q-.5-2-.55-4 0-.95-.35-1.7l-.6-.8-.9-.65q-.5-.45-1.25-.65l-2.05-1.05-1.45-.6-.85-.25-5.75-1-6.75-.6q.5-1.85 2.1-3.05.8-.65 1.75-1l3.45-.35q3.1.4 5.55-.5 1.45-.5 2.7.35l8.25 5.65q2.3 1.45 3.75 3.5 1.55 2.3 2 4.9.4 2.9-1.2 5.3-.55.8-.65 1.8-.35 2.5-.3 5.05l-.3 5.65-.15.9q-.7 2.55-2.85 4.15l-1.75 1.25q-2.4 1.6-5.25 1.8-2.7.2-5.4 0l-1.3-.15.05-.4-.05.4m-11.6-9.2l-.25-2.2 3.35.55 8 .6 5.7-.15 1.65-.25q-1.5 1.65-3.9 2.1L26.65 87l-1.25-1.8-1.25-2.45 1.25 2.45-4.35-.8m-.85-6.6l-.1-2.2 2.95-.4 9.5-1.6 3 .15 3.3.9 1.2.15q-3.8 2.35-8.1 3.7l-2.8.6-5.9.4-.2-2.4v-1.9 1.15q-.95 1.3-2.85 1.45m0-7.45l.05-1.2 3.1.1.45-2 16.95.6-8.9 1.8-8.65.45-3 .25m3.15-1.1l-.15.85.15-.85"/><path fill="url(#o)" d="M35.8 20.15q-2.45-1.6-5-6 5.55-5.1 4.45-14.1Q37.4 1.9 39.3 4.2q5.5 6.7-1.95 12.7-2.5 1.95-1.55 3.25"/><path fill="url(#p)" d="M34.2 21.35l-.05.1-1.35.7-.15.1q-.85 2.2-2.15 3.05-7.25 4.35-14.15-1-7.1-5.4-13.55-3.55 1.45-1.75 3.35-3 5.95-4 13.5-4.15 4.25-.05 6.3 3.4 3.75 6.6 8.1 4.2l.15.15m-2.75 1.5l1.2-.6-1.2.6"/><path fill="url(#q)" d="M36.7 24.45q.85 1.9.75 3.85-.15 2.15-1.35 3.5-6.95 8-19.85 10 .75-1.25 1.15-3.3 1.55-8.05 10.1-9.35 9.65-1.55 7.6-7.25l1.6 2.55"/><path fill="url(#r)" d="M23.05 90.25l-2.45-.35-4.4-1.25-4.35-1.85-4.5-2.75 9.05 2.05h.05l.35.1 5.4.85 4.45-.05 8.95-1.95q2.4-.45 3.9-2.1l-1.65.25-5.7.15-8-.6-3.35-.55-4.65-.95-.75-.2q-2.75-.55-4.35-1.3l12.2-.25 5.9-.4 2.8-.6q4.3-1.35 8.1-3.7l-1.2-.15-3.3-.9-3-.15-9.5 1.6-2.95.4-9.6 1.5-8.3 2.5L3.85 78l4.3-2.9q4.2-3.25 9.4-4.3l2.65-.45 3-.25 8.65-.45 8.9-1.8-16.95-.6-15 .6-8.8 1.1 1.5-1.45q1.9-2.05 4.5-3.15 1.75-.8 3.6-1.3 2.15-.65 4.35-.85l4.3-.15-1.15-.45-6.3-.55q-1.35-.15-2.35.45.7-1.1 2.2-1.4l4.9-1 6.7-.75 6.75.6 5.75 1 .85.25 1.45.6 2.05 1.05q.75.2 1.25.65l.9.65.6.8q.35.75.35 1.7.05 2 .55 4l1 3.7.25 2v1.5q.05 1.1-.55 1.9-.45.55-.6 1.35l-.35.9-.45.95-2 3.25-.7.75-4.1 2.7-.95.4-2.25.7-1.8.3-5.6.3-1.6-.1M22.1 59.4l.15-1.05-.15 1.05m13.2 3.3l-5.05-.05-10.6-.55 10.6.55 5.05.05m-15.65-.6l-.45-.15-.95.1 1.4.05"/><path fill="url(#s)" d="M16.8 86.2l-.35-.2q-2.15-1.35-3.2-3.15l7.8 1.55 4.35.8 1.25 1.8-4.45.05-5.4-.85m-1.4-4.9l-1.35.05-2.6-.4-4.5-1.65 2.45-.65q2.4-1 5.35-.8 2.6.2 5.3 0l.15-.05q1.9-.15 2.85-1.45v.75l.2 2.4-12.2.25q1.6.75 4.35 1.3v.25m4.85-12.15l-4.3.3q-3.15.15-6.1 1.05-3.1.85-6.05 2.15l2.5-2.7q1.15-1.25 2.5-2.1l15-.6-.45 2-3.1-.1"/><path fill="none" stroke="#66354D" stroke-width=".05" stroke-linecap="round" stroke-miterlimit="3" d="M79.1 18.15q-.65 2.1-2.15 3.9l-.4.35.05.1-2.95 2.6-.45.25m5 1.5q6.1 2.7 10.6 7.65l.65.7q4.9 5.7 7.3 12.1 2.75 7.2 3.2 14.75.25 4.6-.35 8.9-.5 3-1.4 5.85-2.4 7.65-7.85 13.75-5.3 5.95-13.3 7.45-7.4 1.35-15.4-.9-5.3-1.5-10.75-2.2l-1.75-.25m-16.35-.3l-.15-.75M16.8 86.2l-.35-.2q-2.15-1.35-3.2-3.15l7.8 1.55-.25-2.2m-4.65-.95l-.75.05-1.35.05-2.6-.4-4.5-1.65 2.45-.65q2.4-1 5.35-.8 2.6.2 5.3 0l.15-.05-.1-2.2m.1-5.25l.05-1.2-4.3.3q-3.15.15-6.1 1.05-3.1.85-6.05 2.15l2.5-2.7q1.15-1.25 2.5-2.1m34.8-18.5q5.75-1.25 12.35 0l11.85 1.9 3.4.45m4.45-14.2l-.75-.35M55.05 30.7l-.45-.05q-1 .25-2.35-.5l-.75-.3-2.7-.4q-8.75.55-12.1-5m-1.6-2.55l-.6-.7v.05l-.1-.1.1.05-.05-.25-.1.05h-.05l-.1.35m-.15-.15l.25-.2.05-.7.3.55 1.15-.7.85-.45m42.45-1.55l-1.1.55m-26.35 5l3.85.1m-3.85-.1l-11.6-1.1q-2.75-.35-4.25-2.4v-.05m-1.45.15l.1.65.2-.1.45 1.05M23.35 69.25l-3.1-.1m2.8 7.2v.75m-2 7.3l4.35.8m-5.2-7.4q1.9-.15 2.85-1.45"/><path fill="none" stroke="#16501F" stroke-width=".05" stroke-linecap="round" stroke-miterlimit="3" d="M79.1 18.15q.55-1.8.55-3.75-.1-8.95 7.85-12.25-.9 6.4-3.7 12.3-.75 1.55-2.2 2.35l-2.5 1.35m-2.15 3.9q5.75-4.4 12.45-.75 2.45 1.3 3.6 3.65l-12.2.5q-3.1-.15-4.2-2.95l.35-.45m-40.25 2.4q.85 1.9.75 3.85-.15 2.15-1.35 3.5-6.95 8-19.85 10 .75-1.25 1.15-3.3 1.55-8.05 10.1-9.35 9.65-1.55 7.6-7.25l1.6 2.55m-2.5-3.1l-.05.1-1.35.7-.15.1q-.85 2.2-2.15 3.05-7.25 4.35-14.15-1-7.1-5.4-13.55-3.55 1.45-1.75 3.35-3 5.95-4 13.5-4.15 4.25-.05 6.3 3.4 3.75 6.6 8.1 4.2m1.75-1.05q-2.45-1.6-5-6 5.55-5.1 4.45-14.1Q37.4 1.9 39.3 4.2q5.5 6.7-1.95 12.7-2.5 1.95-1.55 3.25m-3.15 2.1l-1.2.6"/><path fill="none" stroke="#9B0700" stroke-width=".05" stroke-linecap="round" stroke-miterlimit="3" d="M23.05 90.25l-2.45-.35-4.4-1.25-4.35-1.85-4.5-2.75 9.05 2.05h.05l.35.1m4-4l-4.65-.95m3.95-5.65l-9.6 1.5-8.3 2.5L3.85 78l4.3-2.9q4.2-3.25 9.4-4.3l2.65-.45m-11.4-2.5L0 68.95l1.5-1.45q1.9-2.05 4.5-3.15 1.75-.8 3.6-1.3 2.15-.65 4.35-.85l4.3-.15-1.15-.45-6.3-.55q-1.35-.15-2.35.45.7-1.1 2.2-1.4l4.9-1 6.7-.75-.15 1.05m1.7 7.85l-15 .6M23.25 79.5l5.9-.4 2.8-.6q4.3-1.35 8.1-3.7l-1.2-.15-3.3-.9-3-.15-9.5 1.6-2.95.4m3.15 3.9l-12.2.25q1.6.75 4.35 1.3l.75.2m3.5-19.15l10.6.55 5.05.05m-11.5 4.55l16.95.6-8.9 1.8-8.65.45-3 .25m-.55-8.25l-1.4-.05.95-.1.45.15m7 24.9l8.95-1.95q2.4-.45 3.9-2.1l-1.65.25-5.7.15-8-.6-3.35-.55m5.85 4.8l-4.45.05-5.4-.85"/><path fill="none" stroke="#66183F" stroke-width=".05" stroke-linecap="round" stroke-miterlimit="3" d="M32.65 93.6l-6.1-1q-2.1-.65-3.5-2.35l1.6.1 5.6-.3 1.8-.3 2.25-.7.95-.4 4.1-2.7.7-.75 2-3.25.45-.95.35-.9q.15-.8.6-1.35.6-.8.55-1.9v-1.5l-.25-2-1-3.7q-.5-2-.55-4 0-.95-.35-1.7l-.6-.8-.9-.65q-.5-.45-1.25-.65l-2.05-1.05-1.45-.6-.85-.25-5.75-1-6.75-.6q.5-1.85 2.1-3.05.8-.65 1.75-1l3.45-.35q3.1.4 5.55-.5 1.45-.5 2.7.35l8.25 5.65q2.3 1.45 3.75 3.5 1.55 2.3 2 4.9.4 2.9-1.2 5.3-.55.8-.65 1.8-.35 2.5-.3 5.05l-.3 5.65-.15.9q-.7 2.55-2.85 4.15l-1.75 1.25q-2.4 1.6-5.25 1.8-2.7.2-5.4 0m-1.3-.15l.05-.4"/><path fill="none" stroke="#215D2D" stroke-width=".05" stroke-linecap="round" stroke-miterlimit="3" d="M71.2 51.7q1.3.15 2.9-.95 6.85-4.55 2.95-11.9-.45-.8-1.4-1.35m-.75-.35q-7.3-3.15-14-5.25-2.95-.9-5.85-1.2"/><path fill="none" stroke="#2B6A3B" stroke-width=".05" stroke-linecap="round" stroke-miterlimit="3" d="M73.65 25.1l4.55 1.75M55.5 23.8q3.45-1.15 7.7-.8 5.4.45 10.45 2.1"/><path fill="none" stroke="#366300" stroke-width=".05" stroke-linecap="round" stroke-miterlimit="3" d="M23.35 69.25l.45-2m-.6 2.85l.15-.85m-.3 5.95v1.15m0 .75l.2 2.4m.9 3.25l1.25 2.45 1.25 1.8"/></svg>