<svg xmlns="http://www.w3.org/2000/svg" viewBox="0 0 100.0 99.1" width="100" height="99.1"><defs><radialGradient gradientUnits="userSpaceOnUse" r="819.2" cx="0" cy="0" spreadMethod="pad" gradientTransform="matrix(-.046 .009 .003 .014 45.45 30.45)" id="a"><stop offset="0"/><stop offset="1" stop-color="#f30"/></radialGradient><radialGradient gradientUnits="userSpaceOnUse" r="819.2" cx="0" cy="0" spreadMethod="pad" gradientTransform="matrix(-.002 0 0 .002 37.85 34.3)" id="b"><stop offset="0" stop-color="#fff"/><stop offset=".361" stop-color="#f00"/><stop offset="1"/></radialGradient><radialGradient gradientUnits="userSpaceOnUse" r="819.2" cx="0" cy="0" spreadMethod="pad" gradientTransform="matrix(-.01 .002 .002 .01 37.55 33.5)" id="c"><stop offset=".349" stop-color="#fff"/><stop offset="1" stop-color="#f00"/></radialGradient><radialGradient gradientUnits="userSpaceOnUse" r="819.2" cx="0" cy="0" spreadMethod="pad" gradientTransform="matrix(-.01 .002 .002 .01 54.15 30.15)" id="d"><stop offset=".349" stop-color="#fff"/><stop offset="1" stop-color="#f00"/></radialGradient><radialGradient gradientUnits="userSpaceOnUse" r="819.2" cx="0" cy="0" spreadMethod="pad" gradientTransform="matrix(-.003 .001 0 .002 47.85 37.85)" id="e"><stop offset="0" stop-color="#fff"/><stop offset=".439"/></radialGradient><radialGradient gradientUnits="userSpaceOnUse" r="819.2" cx="0" cy="0" spreadMethod="pad" gradientTransform="matrix(-.032 .006 .001 .004 47.75 44.75)" id="f"><stop offset="0" stop-color="#f00"/><stop offset="1"/></radialGradient><linearGradient gradientUnits="userSpaceOnUse" x1="-819.2" x2="819.2" gradientTransform="matrix(-.001 0 0 .001 50.1 43.45)" id="g"><stop offset=".192" stop-color="#fff"/><stop offset=".537" stop-color="#FF9797"/><stop offset=".945" stop-color="#FFFAFA"/></linearGradient><linearGradient gradientUnits="userSpaceOnUse" x1="-819.2" x2="819.2" gradientTransform="matrix(0 0 0 .001 49.1 43.45)" id="h"><stop offset=".192" stop-color="#fff"/><stop offset=".537" stop-color="#FF9797"/><stop offset=".945" stop-color="#FFFAFA"/></linearGradient><linearGradient gradientUnits="userSpaceOnUse" x1="-819.2" x2="819.2" gradientTransform="matrix(0 0 0 .001 48.4 43.55)" id="i"><stop offset=".192" stop-color="#fff"/><stop offset=".537" stop-color="#FF9797"/><stop offset=".945" stop-color="#FFFAFA"/></linearGradient><linearGradient gradientUnits="userSpaceOnUse" x1="-819.2" x2="819.2" gradientTransform="matrix(-.001 0 0 .001 47.55 43.65)" id="j"><stop offset=".192" stop-color="#fff"/><stop offset=".537" stop-color="#FF9797"/><stop offset=".945" stop-color="#FFFAFA"/></linearGradient><linearGradient gradientUnits="userSpaceOnUse" x1="-819.2" x2="819.2" gradientTransform="matrix(0 0 0 .001 45.45 44.15)" id="k"><stop offset=".192" stop-color="#fff"/><stop offset=".537" stop-color="#FF9797"/><stop offset=".945" stop-color="#FFFAFA"/></linearGradient><linearGradient gradientUnits="userSpaceOnUse" x1="-819.2" x2="819.2" gradientTransform="matrix(-.001 0 0 .001 46.35 43.95)" id="l"><stop offset=".192" stop-color="#fff"/><stop offset=".537" stop-color="#FF9797"/><stop offset=".945" stop-color="#FFFAFA"/></linearGradient><linearGradient gradientUnits="userSpaceOnUse" x1="-819.2" x2="819.2" gradientTransform="matrix(0 0 0 .001 44.75 44.35)" id="m"><stop offset=".192" stop-color="#fff"/><stop offset=".537" stop-color="#FF9797"/><stop offset=".945" stop-color="#FFFAFA"/></linearGradient><linearGradient gradientUnits="userSpaceOnUse" x1="-819.2" x2="819.2" gradientTransform="matrix(0 0 0 .001 46.65 46.55)" id="n"><stop offset=".192" stop-color="#fff"/><stop offset=".537" stop-color="#FF9797"/><stop offset=".945" stop-color="#FFFAFA"/></linearGradient><linearGradient gradientUnits="userSpaceOnUse" x1="-819.2" x2="819.2" gradientTransform="matrix(-.001 0 0 .001 47.55 46.65)" id="o"><stop offset=".192" stop-color="#fff"/><stop offset=".537" stop-color="#FF9797"/><stop offset=".945" stop-color="#FFFAFA"/></linearGradient><linearGradient gradientUnits="userSpaceOnUse" x1="-819.2" x2="819.2" gradientTransform="matrix(0 0 0 .001 45.35 46.55)" id="p"><stop offset=".192" stop-color="#fff"/><stop offset=".537" stop-color="#FF9797"/><stop offset=".945" stop-color="#FFFAFA"/></linearGradient><linearGradient gradientUnits="userSpaceOnUse" x1="-819.2" x2="819.2" gradientTransform="matrix(0 0 0 .001 45.65 46.65)" id="q"><stop offset=".192" stop-color="#fff"/><stop offset=".537" stop-color="#FF9797"/><stop offset=".945" stop-color="#FFFAFA"/></linearGradient><linearGradient gradientUnits="userSpaceOnUse" x1="-819.2" x2="819.2" gradientTransform="matrix(0 0 0 .001 46.15 46.45)" id="r"><stop offset=".192" stop-color="#fff"/><stop offset=".537" stop-color="#FF9797"/><stop offset=".945" stop-color="#FFFAFA"/></linearGradient><linearGradient gradientUnits="userSpaceOnUse" x1="-819.2" x2="819.2" gradientTransform="matrix(0 0 0 .001 49.4 46.35)" id="s"><stop offset=".192" stop-color="#fff"/><stop offset=".537" stop-color="#FF9797"/><stop offset=".945" stop-color="#FFFAFA"/></linearGradient><linearGradient gradientUnits="userSpaceOnUse" x1="-819.2" x2="819.2" gradientTransform="matrix(0 0 0 .001 49.9 46.05)" id="t"><stop offset=".192" stop-color="#fff"/><stop offset=".537" stop-color="#FF9797"/><stop offset=".945" stop-color="#FFFAFA"/></linearGradient><linearGradient gradientUnits="userSpaceOnUse" x1="-819.2" x2="819.2" gradientTransform="matrix(-.001 0 0 .001 48.5 46.45)" id="u"><stop offset=".192" stop-color="#fff"/><stop offset=".537" stop-color="#FF9797"/><stop offset=".945" stop-color="#FFFAFA"/></linearGradient><linearGradient gradientUnits="userSpaceOnUse" x1="-819.2" x2="819.2" gradientTransform="matrix(-.003 0 0 .001 42.9 46.15)" id="v"><stop offset=".192" stop-color="#fff"/><stop offset=".537" stop-color="#FF9797"/><stop offset=".945" stop-color="#FFFAFA"/></linearGradient><radialGradient gradientUnits="userSpaceOnUse" r="819.2" cx="0" cy="0" spreadMethod="pad" gradientTransform="matrix(-.174 0 0 .041 52.95 32.4)" id="w"><stop offset="0"/><stop offset="1" stop-color="#f30"/></radialGradient><linearGradient gradientUnits="userSpaceOnUse" x1="-819.2" x2="819.2" gradientTransform="matrix(-.001 0 0 .001 40.4 44.05)" id="x"><stop offset=".192" stop-color="#fff"/><stop offset=".537" stop-color="#FF9797"/><stop offset=".945" stop-color="#FFFAFA"/></linearGradient><linearGradient gradientUnits="userSpaceOnUse" x1="-819.2" x2="819.2" gradientTransform="matrix(0 0 0 .001 42 44.35)" id="y"><stop offset=".192" stop-color="#fff"/><stop offset=".537" stop-color="#FF9797"/><stop offset=".945" stop-color="#FFFAFA"/></linearGradient><linearGradient gradientUnits="userSpaceOnUse" x1="-819.2" x2="819.2" gradientTransform="matrix(0 0 0 .001 41.4 44.15)" id="z"><stop offset=".192" stop-color="#fff"/><stop offset=".537" stop-color="#FF9797"/><stop offset=".945" stop-color="#FFFAFA"/></linearGradient><linearGradient gradientUnits="userSpaceOnUse" x1="-819.2" x2="819.2" gradientTransform="matrix(0 0 0 .001 42.6 44.45)" id="A"><stop offset=".192" stop-color="#fff"/><stop offset=".537" stop-color="#FF9797"/><stop offset=".945" stop-color="#FFFAFA"/></linearGradient><linearGradient gradientUnits="userSpaceOnUse" x1="-819.2" x2="819.2" gradientTransform="matrix(0 0 0 .001 43.2 44.65)" id="B"><stop offset=".192" stop-color="#fff"/><stop offset=".537" stop-color="#FF9797"/><stop offset=".945" stop-color="#FFFAFA"/></linearGradient><linearGradient gradientUnits="userSpaceOnUse" x1="-819.2" x2="819.2" gradientTransform="matrix(0 0 0 .001 43.95 44.55)" id="C"><stop offset=".192" stop-color="#fff"/><stop offset=".537" stop-color="#FF9797"/><stop offset=".945" stop-color="#FFFAFA"/></linearGradient><linearGradient gradientUnits="userSpaceOnUse" x1="-819.2" x2="819.2" gradientTransform="matrix(-.001 0 0 .001 37.95 43.65)" id="D"><stop offset=".192" stop-color="#fff"/><stop offset=".537" stop-color="#FF9797"/><stop offset=".945" stop-color="#FFFAFA"/></linearGradient><linearGradient gradientUnits="userSpaceOnUse" x1="-819.2" x2="819.2" gradientTransform="matrix(0 0 0 .001 39.25 43.85)" id="E"><stop offset=".192" stop-color="#fff"/><stop offset=".537" stop-color="#FF9797"/><stop offset=".945" stop-color="#FFFAFA"/></linearGradient><linearGradient gradientUnits="userSpaceOnUse" x1="-819.2" x2="819.2" gradientTransform="matrix(-.001 0 0 .001 36.65 43.2)" id="F"><stop offset=".192" stop-color="#fff"/><stop offset=".537" stop-color="#FF9797"/><stop offset=".945" stop-color="#FFFAFA"/></linearGradient><radialGradient gradientUnits="userSpaceOnUse" r="819.2" cx="0" cy="0" spreadMethod="pad" gradientTransform="matrix(-.042 0 0 .042 36.45 71.25)" id="G"><stop offset="0"/><stop offset="1" stop-color="#f30"/></radialGradient><radialGradient gradientUnits="userSpaceOnUse" r="819.2" cx="0" cy="0" spreadMethod="pad" gradientTransform="matrix(-.046 0 0 .023 20.35 82.8)" id="H"><stop offset="0"/><stop offset="1" stop-color="#f30"/></radialGradient><radialGradient gradientUnits="userSpaceOnUse" r="819.2" cx="0" cy="0" spreadMethod="pad" gradientTransform="matrix(-.046 0 0 .021 57.7 84.1)" id="I"><stop offset="0"/><stop offset="1" stop-color="#f30"/></radialGradient><radialGradient gradientUnits="userSpaceOnUse" r="819.2" cx="0" cy="0" spreadMethod="pad" gradientTransform="matrix(-.002 0 0 .002 54.75 31.3)" id="J"><stop offset="0" stop-color="#fff"/><stop offset=".361" stop-color="#f00"/><stop offset="1"/></radialGradient><linearGradient gradientUnits="userSpaceOnUse" x1="-819.2" x2="819.2" gradientTransform="matrix(-.002 0 0 .001 54.35 41.5)" id="K"><stop offset=".192" stop-color="#fff"/><stop offset=".537" stop-color="#FF9797"/><stop offset=".945" stop-color="#FFFAFA"/></linearGradient><linearGradient gradientUnits="userSpaceOnUse" x1="-819.2" x2="819.2" gradientTransform="matrix(0 0 0 .001 52.65 42.2)" id="L"><stop offset=".192" stop-color="#fff"/><stop offset=".537" stop-color="#FF9797"/><stop offset=".945" stop-color="#FFFAFA"/></linearGradient><linearGradient gradientUnits="userSpaceOnUse" x1="-819.2" x2="819.2" gradientTransform="matrix(-.002 0 0 .001 53.45 44.05)" id="M"><stop offset=".192" stop-color="#fff"/><stop offset=".537" stop-color="#FF9797"/><stop offset=".945" stop-color="#FFFAFA"/></linearGradient><linearGradient gradientUnits="userSpaceOnUse" x1="-819.2" x2="819.2" gradientTransform="matrix(-.001 0 0 .001 51.4 42.9)" id="N"><stop offset=".192" stop-color="#fff"/><stop offset=".537" stop-color="#FF9797"/><stop offset=".945" stop-color="#FFFAFA"/></linearGradient><linearGradient gradientUnits="userSpaceOnUse" x1="-819.2" x2="819.2" gradientTransform="matrix(-.001 0 0 .001 56.9 40.1)" id="O"><stop offset=".192" stop-color="#fff"/><stop offset=".537" stop-color="#FF9797"/><stop offset=".945" stop-color="#FFFAFA"/></linearGradient><linearGradient gradientUnits="userSpaceOnUse" x1="-819.2" x2="819.2" gradientTransform="matrix(-.001 0 0 .001 58.3 39.05)" id="P"><stop offset=".192" stop-color="#fff"/><stop offset=".537" stop-color="#FF9797"/><stop offset=".945" stop-color="#FFFAFA"/></linearGradient><linearGradient gradientUnits="userSpaceOnUse" x1="-819.2" x2="819.2" gradientTransform="matrix(0 0 0 .001 56.05 40.5)" id="Q"><stop offset=".192" stop-color="#fff"/><stop offset=".537" stop-color="#FF9797"/><stop offset=".945" stop-color="#FFFAFA"/></linearGradient><linearGradient gradientUnits="userSpaceOnUse" x1="-819.2" x2="819.2" gradientTransform="matrix(0 0 0 .001 58.8 38.85)" id="R"><stop offset=".192" stop-color="#fff"/><stop offset=".537" stop-color="#FF9797"/><stop offset=".945" stop-color="#FFFAFA"/></linearGradient><linearGradient gradientUnits="userSpaceOnUse" x1="-819.2" x2="819.2" gradientTransform="matrix(0 0 0 .001 51.2 45.35)" id="S"><stop offset=".192" stop-color="#fff"/><stop offset=".537" stop-color="#FF9797"/><stop offset=".945" stop-color="#FFFAFA"/></linearGradient><linearGradient gradientUnits="userSpaceOnUse" x1="-819.2" x2="819.2" gradientTransform="matrix(0 0 0 .001 51.5 45.05)" id="T"><stop offset=".192" stop-color="#fff"/><stop offset=".537" stop-color="#FF9797"/><stop offset=".945" stop-color="#FFFAFA"/></linearGradient></defs><path fill="#420000" d="M98.9 49.5l.1.1.8-1.3-.9 1.2M60.55 6.4L59.1 4.55l-2.5-2L54.45 0l2.05 4.85.2 2.55-.3.8-1.15 1.5.1.1v.1l.6-.4 1.85-1.9 2-1.2h.75m-30.4 7.45q-2.4-.5-3.15-1.8l-.8-2.45.1-5.25q-.7 2.85-1.4 3.75l-1.2 2.1-.7 2.55-.15 1.3.65-.6q1.2-1 2.4-.4l1.85 1h.2l2.2.1v-.3"/><path fill="#600" d="M30.15 13.85v.3l2.05.1-2.05-.4M61.65 9l-.9-2.4-.2-.2h-.75l-2 1.2-1.85 1.9 1.15-.7 1-.4 1.3-.3q1.15.1 2.05 1l.2-.1m-6.4.7l-2.2 1.55q.9-.1 1.8-.9l.5-.45v-.1l-.1-.1m-32.4 4.35L23 15.3l.2.7.3.9.2-.1.2-.8q.4-1.5 2.1-1.85l1.75-.1-1.85-1q-1.2-.6-2.4.4l-.65.6"/><path fill="#4D200D" d="M23.2 16l-8.65.7q5.8 2.35 7.2 8-4.85-4.45-11.95-2.95l1.85 3.85q.5 1.35 0 2.35-1.35 3.05-5.6 2.5 6.4 3.25 7.6 10.95l.1.4-.4-.3-.7 1 .4.6 1.1 1.25 1.35 1.1 2.2 2.35 1 .5 1.35 1.5 1.9 4.75.3.5.75.75q.7.6 1.1 1.5.7 1.3 0 3.35l-.1.3v.3l3.15-2.15-.65-2.3v-.2l-.5-1.95q-3.25-.5-4.45-3.15-.8-2-.6-4.15.6-6.45-3.65-11.8 4.65.2 1.4-6.5-.9-2 1.75-1 4.15 1.6 7 .9l.2-3.05.1-.4-.5-1.6-2.55-4.25-1-2.15-.2-.6-.3-.9m-5.8 42.6l-3.65 2.95 1.35 6.05 6.45-4.75-.1-.1-.5-2.3h-.3l-.7-.85-2.25 1.35.1-2.35-.1 2.35 2.25-1.35-.5-1.3-.2.1-1.45.2h-.4M8.2 68.95Q4.65 75 4.85 80.35L9.1 74l-.4 7-.1.6-.1 6.45 3.35-5.65 2.5-4.15L18.1 83l5.4 5.65q-1.35-2.3-.95-4.95l4.15 3.45.1.1 1.95 1.3q-.9-.7-1.2-2.4-.4-2.85.5-5.25l1.9 3.95 1.35-4.25q1.3-3.55 3.3-6.6l-.7-.7q-2.4 3-7.4 2.8-1.9-.1-2.9-2.1.5 6.8-4.15 2.75L17.3 74l-1.7.6-6.7-6.35-.7.7m33.5 2.8q1.5 3.05 2.45 6.2-1.95 2.2-5 3.25l5.8.1.2 1.5-.2 2.15q-.6 3.6-4.25 7.05 3.85-1.2 7.15-3.35l.65-.4q4.05-2.6 7.25-6.55-.2 2.8.2 5.05l6.3-5.45-.6-.6q-1.95 2.6-3.35-2.45-3.75 1.1-8.8 5.85-.6-.8-.3-2.1 1.2-6-.6-10.15-3.15 1.95-5.2-3.6l-1.7 3.5m37.35-24.8l.8.3 4.05 2.65q3.85 3.05 6.8 6.7l2 2.6-.4-2.6v-.2l-.5-4.05q-1.3-8.2-5.35-10.15 7.8 3.45 12.45 7.3l.9-1.2q-2.05-8-8.6-13.05-3.95-3.05-8-4.8h-.1v.2q5.55 3.35 7.4 9.05-6.7.5-10.65-1.95l3.05 8.2q-2.75-1.9-5.65-2.6l1.8 3.6M84.3 25.7q5.4-.5 9.1 2.45l-4.75-4.05q-4.95-3.15-10.5-3.55L73.1 23.2q5.85-.4 11 2.4l.2.1M70.95 13.15l-3.25 1.2-2.6 1.45.6.3 4.05 2.95 1.2-5.9m-9.1 52.25q-.7-4.35-.6-8.8l.8-6.1 2 2.55.3-.3-1.9-2.55-4.25-3.95q1.8 10.45-6.7 6.1-3-1.55-4.05 1Q42.5 51 40.6 50.4q-6.1 4.25-12.25 4.35l-.5 3.95.7-.4.6 3.15 1.7-1.5 3.35-2.05.7-1.8.85 1 2.8 3.65 1.85-4.15q2-3.15 3.65-.7l2.8 4.35.4-1.95 1.45 1.85L52.85 67q-.2-5.75 4.45-10.4l.3-.3v.3q1.2 4.95 3.45 8.9l.8-.1m3.65-9.3l.4.5q.5 1-.2 2.4l.9 1.95q2.1 2 2.85 4.85l-2.05.1q4.05 2.1 4.45 6.5v.3l.5 2.6q.75 1.65 2.05 2.55l1.1-1.2-.2-.2q0-1.35.7-1.95l1.25-1.1q-3.55-2.05-3.45-4.45.3-6.2-2.85-10.45l-3.05-4.45q-.6-.9-1.7.6l-.7 1.45m-20.05 20l-.8 3.25-.5-1.4 1.3-1.85"/><path fill="#f00" d="M13.05 43.1l-1-.7-1.6-.2-2.95 1q-.1 1.75-.8 3.15 1.3-.2 1.7-1.7.3-1.3 1.6-1.1l1.25.3 1.6 1.1q.2 2.2 1.7 3.75l.65.6.8.5-1.55.2-.3-.3v-.1l-1.3-.7-.6-1-.1-.1h-.1l-2.75-.85h-.4l-.5.55-1.7-.25-.3-.2-.25.3-1.7.15q-1 .2-1.1 1.5l-.5 3.85q-1.75.1-2.05 1.8L.1 58q-.4 1.7.5 3.25l.9 1.2.1.3.1.1-.3 2.45.5 1.8.55 1.15.4-3.05q.2-1.2 1.1-1.85l1.8-2.2.75-.4.4-.1.5-1.15q.3-1.2 1.2-1.1 1.7.1 2.95-1.5.6-.8 1.9-.6l3.85.5h.5l1.45-.4.1-.1 1.2-.4-.1.7.5 2.6.2.2.5.65.7.5.5.2 1.15.2.1-.3q.7-2.05 0-3.35-.4-.9-1.1-1.5l-.75-.75-.3-.5-1.9-4.75-1.35-1.5-1-.5-2.2-2.35-1.35-1.1-1.1-1.25M75.4 88.05h.8l.7-.1h3.95q2.35-.1 2.85-2.4l5.35.3q1.75.2 2.25-1.1l.6-2.45.4-.1-.2-.6.3-2.35.7-.5v-.7l-.3-3.95V74l-.1-.2-.4-.3-.8-.9q-.6-.85-.6-1.95l-.1-.1q-1.35-1.2.4-2.55l.4 1.45.5.9q1.75 2.55 4.65 3.35.9.9 1.1 2.6l.15 1.65q0 1.9-1.95 2-2.1.1-2.65 1.95l4.35-.3 2.05-3.85.2-2.35-.9-1.8-4.85-7.4-.4-1.5q-.55-1.45-1.75-2.25l-2.3-1.6q-1.85-1.45-3.65-2.25l-.5-.5-.75-1.3-.4-.5-1.4-1.35q-1.6-1.4-4.45-.9h-.4v1.6l.6 1.95.6.9q1.6 1.65 4.65 1.75l-.7 1.4-.2.2q-.9 1.1-1.1 2.65l-.3 5.45q0 1.9-1.25 2.55l-1.9 1.6q-.7.8-.8 2-.2 1.35-1.85 1.55l-1.5.3h-.1l-.9 1.4-1.25.7q-1.3.3-2.2 1.35l-1.45.8-1.3.1-4.15-.2 1.3 1.1q1.05.8 2.45 1.2l3.35.25 1.8 1.8q1.55 1.4 3.35 1.6M6.15 47.35l-.6 1.45q1.35-.4 2.25-.9l.6-.4-.6.4q-.9.5-2.25.9l.6-1.45m-3.7 12.5L1.3 58.9l-.1-2.1.7-1.95.35.3h1l-.3-1-.1-.5v-.8.8l.1.5.3 1q1.2-.2 1.8-1.7L6.3 49.5l1.1-.2.5.3 4.55 1.1.2.1-.1.2-.9.4-2.35-.2-.5-.2-2.2 1.15-.3.1-.35 1.1-.3.6-.5 2.15 1 .1 2.05-.4.1-.15h.1q1-.5 1.3-1.4-.3.9-1.3 1.4h-.1Q8.4 57 7.2 57.7l-.6.3-1.55 1.3-2.6 4.25-.45-.2v-1.5l.45-2m-.75 3l.3.5-.3-.5m14.1-9.5q.3 1.1-1.45 1.8l-1.5.1-1.8-.5-.1.1-1.45.7 1.45-.7.1-.1 4.75-1.4 1.3-.9-1.3.9M91.9 82.3l-2.1.5 1.9-2.85.7-.7-.7.7-1.9 2.85 2.1-.5m-5.65-14.9l1.6-1.5-1.6 1.5q-.7.95-1.15 2.15l-1.9 4.15-.2-2.65q0-1.3.5-2.1 1.4-2.15 2.75-1.55M82 75.3l1.1-1.4.1-.2-.1.2-1.1 1.4m6.65-2.7h.1l.2-.1v.3q.4 1.6.1 3.65l.3 2.9.2.7q.65 1.45-.5 1.55l-5.55.8q-2.1.4-2.75 2l1.25.75 1.7.4-1.7-.4-1.25-.75-.2 1.45.3.5-2.8.4-2.35-.5-.4-.2-1-1.2.1-.45h-.6l-2.25-.1-2-.3-.2-.6 6.25-2.5 2.35-1.85.4-.7q1.2-1.5 3.05-1.1l-.25.2-1 2.6-.1 1.45 2.95-.2.9-.2h.4l1.25-.2.1-.3 2.1-2.75-.2-.9q-.3-1.45 0-2.55l.3-.6.8-1.2m-5.25 3.1l-2 1.45v.1-.1l2-1.45m-13.15 8.95l-.7-.65.7.65m10.2-26.45l-1 .3 1-.3"/><path fill="#c00" d="M6.7 46.35l-.3.6v.1l.3.2 1.7.25.5-.55.6-1.2h.1l.4.1 1.05-.2 1.1 1.85.1.4.6 1 1.3.7h.1l.2.4-.2-.4h-.1v.1l.3.3 1.55-.2-.8-.5-.65-.6q-1.5-1.55-1.7-3.75l-1.6-1.1-1.25-.3q-1.3-.2-1.6 1.1-.4 1.5-1.7 1.7m.2 14.3H7l.9-.6.2.1 1.4-.2L12.15 58l.8-.1 4.45.7h.4l1.45-.2.2-.1.5 1.3.7.85h.3l.5 2.3.1.1.4.6.3.2L23.5 65l.5.8-.1-3.95.1-.6v-.3l-1.15-.2-.5-.2-.7-.5-.5-.65-.2-.2-.5-2.6.1-.7-1.2.4-.1.1-1.45.4h-.5l-3.85-.5q-1.3-.2-1.9.6-1.25 1.6-2.95 1.5-.9-.1-1.2 1.1l-.5 1.15M92.3 82.2l.2-.1.9-.2q.55-1.85 2.65-1.95 1.95-.1 1.95-2l-.15-1.65q-.2-1.7-1.1-2.6-2.9-.8-4.65-3.35l-.5-.9-.4-1.45q-1.75 1.35-.4 2.55l.1.1q0 1.1.6 1.95l.8.9.4.3.5.2q.65 1.3 2.15 2-.5.55-.5 1.45v.7l-1.75.6-.7.5-.3 2.35.2.6M9.5 44.85v.9-.9m-6.25 10.3h-1l-.35-.3-.7 1.95.1 2.1 1.15.95.2-.75 1.4-2.8.2.2.9.5v-.9l.5-2.15.3-.6.35-1.1.4-1.65h.1l.6-.1 1.4.5.5.2 2.35.2.9-.4.1-.2-.2-.1-4.55-1.1-.5-.3-1.1.2-1.25 3.95q-.6 1.5-1.8 1.7l.8 1.15-.8-1.15M2 61.85v1.5l.45.2 2.6-4.25L6.6 58l.6-.3q1.2-.7 1.1-2.05l-.1.15-2.05.4L2 61.85m6.5-2.65l-.6.85.6-.85m2.55-4.45l1.8.5 1.5-.1q1.75-.7 1.45-1.8l-4.75 1.4m66.2 18.65L76 74.5q-.7.6-.7 1.95l.2.2-1.1 1.2v.1h.1l1.5-.3q1.65-.2 1.85-1.55.1-1.2.8-2l1.9-1.6q1.25-.65 1.25-2.55l.3-5.45q.2-1.55 1.1-2.65l.2-.2.7-1.4q-3.05-.1-4.65-1.75l-.6-.9-.6-1.95v-1.6H77l-5.25-1.1q1.35.9 2.45 2.95l.2.4.8.9q1.4 1.1 2.85 1.3h1.4-1.4v.4l2.5 2.25-.2.2q-1 2.1-.8 4.65v4.25l-.4 1.1-1.9 2.05m3.3-12.25l1.15.5 1.5.2-1.5-.2-1.15-.5M91 69.75l-.1.7v.2-.2l.1-.7m-4.75-2.35q-1.35-.6-2.75 1.55-.5.8-.5 2.1l.2 2.65 1.9-4.15q.45-1.2 1.15-2.15m-5.5 17q.65-1.6 2.75-2l5.55-.8q1.15-.1.5-1.55l-.2-.7-.3-2.9q.3-2.05-.1-3.65v-.3l-.2.1h-.1l-.8 1.2-.3.6q-.3 1.1 0 2.55l.2.9.2 1.9v.1l-.3 1.05h-2.1l-1.25.2h-.4l-.9.2-2.95.2-1.2-.3.5 1.4.1.4 1.3 1.4-1.3-1.4-.8.3-4.25 1.1-.1.45 1 1.2.4.2 2.35.5 2.8-.4-.3-.5.2-1.45m-.6-4.35l1-2.6.25-.2q-1.85-.4-3.05 1.1l-.4.7-2.35 1.85-6.25 2.5.2.6 2 .3 1.3-.5 3.45-1.7q1.75-1.1 3.85-2.05m8.2.85h-.7.7m7.5-5.3l-.5.3v.1-.1l.5-.3m.3 2.75l-.9-.2h-.4.4l.9.2M76.6 76l-1.1.65 1.1-.65M19.25 56.4v1.1l.2.8-.2-.8v-1.1m1.7 4.05l.2-1.05-.2 1.05"/><path fill="#CA2800" d="M53.05 11.25l-.5.3v-.1l-.4-.1-8.95-.4.1.1 5.1 1.1 1.8 1v-.1l.6-.1 2.05-.5 1.9-1.4.3-.5-.2-.2q-.9.8-1.8.9m-17.95 2.6l-1.2.85-.2.1-1.5-.55-2.05-.1-2.2-.1v.1l2.1.65 4.65.4.5-1.15-.1-.2M27.25 23.9l.5 1.6-.1.4-.2 3.05v1.2L26.4 32.2v1.2l-.3 2.45v.2l-1.5 7.5-.4 1.4.1.3.9-.7v-.4h.1q1.2-4.65 3.45-8l-.2-.2v-.1l.2-.1.1-.1q.7-.75.7-1.55l-.4-3.25V25.9l-.1-.1-.4-.8-1.4-1.1m11.6-2.75l4.75 3.75.95 1-.4-1.7-.3-.6q-.45-1.25-1.45-1.95l-.3-.2q-.9-.7-2-1l-2.25-1.2-2.1-1.35 1.3 1.55 1.8 1.7m-7.7 2.15l-.6 2.5.4-.5.2-.5.95-1.7.1-.1q.5-.85.3-1.95l-1.35 2.25m3.55-8.1l-1-.4 1 .4m17.1 1.9l-5.55 5.05-.9 1.85-.1.4 2.1-2.25 1.95-1.5 1.3-1.4 1.3-2.15h-.1m.75-5.55l-1.75 1.4 1.75-1.4m2.4 5.75l.1.8 2.05 2.15.9 1.2.4.7-.2-1.3-1.3-2-1.95-1.55m-7.8 22.9l.6.4q.75.2 1.45-.5l.6-.5 1-1.25.1-.5-1.8-1.5q-1.25-.4-1.75.6l1.95.2.9.7v.4l-.5.7-.4.35q-.9.7-1.75.8l-.4.1m-9.2 2v-.1l-4.45-2.2-1.8-1.65-.2.2q2.7 3.45 5.65 3.65l.8.1m5.65 4.55l-.4.4.1.1 1.55 1.45 2.4.5 2.95-.8q1.6-.7 2.95-1.75l.9-1-.1-.3.4-.4H53.15l-.5.5q-2.85 2.75-5 2.55l-2.5-.5-1.55-.75m-11.1-2.1l-.4-.5.1-.2-1.15-1.05-.5-1-.9 1.95-.6 2.3-.7 5.35v.15l-.3 1 .7-.4.1-.4v-.2q1.4-6.8 3.65-7m29.05-4.45q.9-.2 2 .7l3.35 3.85.6.2-2.6-4.25-.2-.1q-.55-.8-.75-1.85l-.2-1.8-1.4 2-.6.65.1.2-.3.4m2.6-13.6l-.1-.1h-.1l-.5-.7-.9-1 .7 4.25v1.3l5.05 7.7h.2l.85.3.3.3-.1-.4v-1.1L67.7 33.9l-.4-.5-2.5-4.35-.65-2.45m-35.6 9.25v-.2l-.6-1.95-.5-3.55.5 3.55.6 1.95v.2"/><path fill="#ffc" d="M26 54.65l.5 1.95v.2l.95-2.05.1-.5.5-1.6q-.8.1-1.25-1.35l-1.2-4.15-.4-2.5-.1 2.6.9 7.4m45.05-4.95q-.7-7.2-1.9-10.1l-.3-.95-.55-.6-.6-.2.1.3.1 1 .6 3.05q.65 1.75-.1 2.95l-.9-.2.8 1.1.4.8 2.35 2.85m.7-6.9l.6.95-2.9-9.75.1 3.15.2.6.2.3.1.4 1.7 4.05v.3M24.2 44.95l-.9-4.15h-.1l-.2 9 .2 2.05.1-.2.7-5.8.2-.9"/><path fill="#FFFF7D" d="M24.2 44.95l-.2.9-.7 5.8h.1l1.7-4.4.1-2.6v-.1l-.9.7-.1-.3m2.3 11.85l.65 2.3.5 1.55.2-1.95.5-3.95.4-2.5-.7.4-.5 1.6-.1.5-.95 2.05m40.4-12.05l4.35 7.7-.2-2.75-2.35-2.85-.4-.8-.8-1.1-.6-.2m2.25-5.15l2.4 3 .2-.1-1.7-4.05-.1-.4-.2-.3-.2-.6v1.1l.1.4-.3-.3-.85-.3h-.2l.55.6.3.95"/><path d="M32.1 17.5l-1.25-.6-2-.4-1.3-.6v-.1l-.65-.7.1.9.15.3.7 3.25 1.2 2.8 2.45-3.4.6-1.45m26.8.6l.1-.4v-3l-.5-3.35v-.3l-.2-.85-.4.95-4.05 3.35.7.9 3.15 2.1 1.2.6m-6.75 23.4v.2l.1.7-.25 1.15-.4-1.45-.2 1.55-.5-1.45.1 1.95-.6-1.85v1.95l-.3-1.15-.2-.3v.3l-.1 1.25v.1l-.1.3v-.3l-.4-1.95-.1 2.05v.6l-.2-.6-.1-.9v-.1l-.2-1.25-.2.2.1 2.15v.6l-.1-.6-.5-1.85v2.15l-.15-.2q-.2-1.1-.7-1.85l.1 1.95-.5-1.85v2.15l-.1-.2-.4-1.5v.4l-.1 1.2v.1l-.1.2v-.2l-.4-1.95-.2 2.15-.3-1.1-.1-.8h-.1l-.2 2.1-.5-2.1q.2 1.4-.3 2.3l-.35-1.2v-.3l-.2-.6v.6l-.1.3-.1.8-.1.4v-.4l-.4-1.6-.2 1.6-.3-1.1h-.1l-.3.9-.2-1.3-.1-.1-.4 1.2v-1.3H41l-.5 1.4-.2-1.7-.4 1.8-.2-1.5h-.25l-.1.3-.1.8-.1.4v-.4l-.3-1.65-.3 1.65-.3-1.1v-.3l-.1.2-.3.8-.2-1.35-.4 1.05.6.3.1.1.5.3.1.1.6.3 1.25.4.2.1.1-.4q.3.7.4 0l.4.6.1-.5.2.5.2-.4.2.6.2-.6.2.6.2-.5.1.3.4.4.2-.5.2.8.15-.7.4.8.2-1 .3 1 .1-.4.2.7h.1v-.1l.2-.9.2 1.3.1-1.2h.1l.2.7.1-.1v-.8l.1.2.3 1 .1-1.1.5 1.2h.1l-.1-.1v-1l.6 1.3-.1-1.05.55 1.05-.1-1.5.6 1.4-.1-1.7.5 1 .1.7h.3l-.3-.7v-.1l-.1-.7v-.3l.1.3.7 1.2-.2-1.2.5.6v.1h.1v-1.3l.4 1.1h.1v-.1l-.2-1.1v-.3l.4.8.1.6h.2l-.3-1.2-.1-.1v-.2l.1.2.6.9-.3-1.2.5.9v.1l.1-.1v-.6l.2.3v-.3l-.1-.7.55.9.1-.9.3.6v-.1l-.1-.8.3.5.2-.9.4.5v-.75l.3.55V43l.3.45v-.65l.3.4.1-.6.2.2.1-.3.2.2 1.15-1.2v-.1l-.45-.7-.2-.7-.1-.1v.1h-.2v.1l.5 1.8-1-1.5.3 1.6-.9-1.2.3 1.3-.7-1.1.2 1.5-.5-.9v.1l-.1-.2-.1-.1v.1l.1.2v1.2l-.7-1.5.2 1.6.1.45-.2-.35-.7-1.6m-16.4 1.2l-.85-.3q.1.5.85.6v-.3m.4.65l.4.2-.2-.85-.2.65m.6.4h.1l.3.3V42.9l-.4.85M56.4 41.3v.2l.4-.4V41l-.65-1.3.25 1.6m.6-.4l.4-.3v-.1l.5-.3-.6-.9.1 1.2-.6-.7.1.3.1.8m1-.8l.3-.3v-.1l-.6-.65.3 1.05"/><path fill="#5B1200" d="M40.5 28.35l.9 1.5.6.7.5.3 1.2.25q.65-.1.35-.55v-.1l-.1-.1-2.05-.9-1.4-1.1m8.6.6l-1.45.8-.3.8 1.25-.3q.8-.4 1.3-1.4v-.1l1-1.9-.7.9-.7.7-.4.5M45.85 34l-.3-.3v-.3l-.1-.5.1-.4q.4-.2.2-.8l-.4-.1v.2l-.5.3-6.2 1-.2-.1h-1.4l-1.75-.3-.3-.3-.4.4H33l-.8-.2-.5-.5-.55-.7-.7-1.65h-.2l.1 2.15.2 1.1-.2 1 .7 1 1.75 1.45 1.2.8.2.1h.1l1.65 1-.5-.9-.15-.1.15-.2h1.7q.7.1 1.1-.4l.9-.6 1.95-.4q.6-.1.9-.4l.8-.65 1.85-.9h.3l.9.3V34m.1.2l-1.3.2h-.3l-1.15.75-.3.3-.4 1.3h.2q.5-1.6 1.95-1.75-.6.45-.5 1.55l.3-.2.9-1q1.5-.85 1.6.5l.4-.85q1.55-.6 2.35.65l-.3-.75q-.4-.6-1.2-.6l.8-.1 3.15.8-1.65-1-.1-.1-1.8-.3-.3.1h-.1l-.1.1-1.15.2-1 .2m1.2-.4l.2-.3.3-.2.1-.1.45-.1h1.6l.3.2.1.1.6.2h1l2.15-.3 1 .2.1.1h.1l1-.1.55-.3 1.1-.4h.1l.1.3-.1 1 .3-.4.9-1 .2-.3h.1l.2-.3.2-.2 1.45-2.65.4-1.2-.4-.5-.3-1.25L60 24l-.1.1v1.7l-.2.8-.4.75-.6.5q-.6.5-1.5.6l-.5-.2-.2.4-.95.6-1.6.7-.3.1-.9.4-5.5 1.05-.6-.1-.3.2.4.6.3.3.1.5v.6l-.1.2h.1m13.15-5.15l.25.2q.1.8-.65 1.4l-1.4 1.35-.4.2-1.2.4-5.7.8-3.1-.7.5-.1 4.25-1.1h.4l2-.75.5-.1 4.8-1.9.2-.2-.2.3-.25.2M43.7 33l.15.2-.25.1-1.9 1.4-5.55 1.35H34.4l-1.7-.6-1.1-1.25-.1-.5.4.1h4.55l.6-.1 2.1-.1h.3l4.25-.6.65-.1-.65.1m-2.4 2.75l-3.45 1.4.2.4 1.3-.5 1.95-1.3m13.45-1.95l-.1.1-.4-.1-2-.1q-.45 0-.55.3l.65.2 3.3.1.85.1-1.75-.6"/><path fill="#881C00" d="M45.85 34.1l.1.1-.1-.2v.1m1.1-.1l.2-.2h-.1l-.1.2"/><path fill="#370B00" d="M53.55 32.3l-1.2.3H50.4l-1.5-.4h-.3l-.5.1 3.1.7 5.7-.8 1.2-.4.4-.2 1.4-1.35q.75-.6.65-1.4l-.25-.2-.9 1.2-.7.7-.8.55-1.4.6h-.35l-2.6.6M31.5 33.7l.1.5 1.1 1.25 1.7.6h1.75l5.55-1.35 1.9-1.4.25-.1-.15-.2-.2.1-1.3.9-.2.2-1.5.5-1.25.2-2.6.45H34.9l-.7-.2h-.1l-2.5-1.35-.1-.1"/><path fill="#f30" d="M25.2 44.55l.1-.4h-.1v.4m46.35-1.95l.2.2v-.3l-.2.1m-2.1-8.6q-1.05-2.7-2.05-3.75l-3.25-3.65.65 2.45 2.5 4.35.4.5 1.85 3.25-.1-3.15M24.2 44.95l.4-1.4 1.5-7.5v-.2l.3-2.45v-1.2l-2.5 5.75-.7 2.55v.3h.1l.9 4.15m4.35-9.1v.1l.2.2-.2-.3m-5.25 15.8l-.1.2v.5l.2-.7h-.1"/><path fill="#BB2500" d="M62.55 31.9l-.1-.1-.8 1.2-1.55 1.8-1.8 1.55q-.9.8-2 1.4l-4.6 2.45-2.2.9-.1.1.1.2 2.95-1 5.85-2.75q2.35-1.1 3.75-4.35l.5-1.4-.5 1.4q-1 3.95-2.45 6l1.15-.75 2-4.45q.6-1 .2-2.3l-.4.1m-31.5 6.05l-.2-.3-.1-.3-.2-.2q-.4.5-.1 1.5l.95 1.55 2.7 3.35 1.75 1.4 2.3.5q-1.7-.6-3.05-1.9l-4.05-5.6"/><path fill="url(#a)" d="M31.05 37.95l.45.5.2-.2 1.8 1.65 4.45 2.2v.1l7.2-.1 1-.1.8-.2 2.55-.4-.1-.2.1-.1 2.2-.9 4.6-2.45q1.1-.6 2-1.4l1.8-1.55 1.55-1.8.8-1.2.1.1.4-.1q.4 1.3-.2 2.3l-2 4.45-1.15.75-1.6 1.8-2.45 1.8-2.3 2.05h1.1l1.4-1.3 1.85-1.35.2-.2 1.8-.8h.2l.95-.4.5-.4.3-.3.3-.4-.1-.2.6-.65 1.4-2 .2 1.8q.2 1.05.75 1.85l.2.1 2.6 4.25.9.2q.75-1.2.1-2.95l-.6-3.05-.1-1-.1-.3.6.2-5.05-7.7v-1.3l-.7-4.25-1.5-4.05-.1-.5h.1l-.1-.7q-.2-1.85.2-3.45l.7-5.9-.2-1.2-.2.1q-.9-.9-2.05-1l-1.3.3-1 .4-1.15.7-.6.4-.5.45.2.2-.3.5-1.9 1.4-2.05.5-.6.2.6-.2-.6.1v.1l-1.8-1-5.1-1.1-.1-.1-2.1.5q-2.85.7-5.55 2.2l-.45.2.1.2-.5 1.15-4.65-.4-2.1-.65v-.1h-.2l-1.75.1q-1.7.35-2.1 1.85l-.2.8-.2.1.2.6 1 2.15 2.55 4.25 1.4 1.1.4.8.1.1v4.95l.4 3.25q0 .8-.7 1.55l-.1.5.1-.5-.1.1-.2.1.2.3q-2.25 3.35-3.45 8l-.1.4v.1l.4 2.5 1.2 4.15q.45 1.45 1.25 1.35l.3-1v-.15l.7-5.35.6-2.3.9-1.95.5 1 1.15 1.05-.1.2.4.5 1 .6h.3l7.8 1.3 1.6.7v.1l.1-.1-.1-.1.4-.4-5.25-1.3h-.2l-2.3-.5-1.75-1.4-2.7-3.35-.95-1.55q-.3-1 .1-1.5l.2.2.1.3.2.3m-2-15.6l-1.2-2.8-.7-3.25L27 16l-.1-.9.65.7v.1l1.3.6 2 .4 1.25.6-.6 1.45-2.45 3.4.3.55-.3-.55m2.1.95l1.35-2.25q.2 1.1-.3 1.95l-.1.1-.95 1.7-.2.5-.4.5.6-2.5m7.7-2.15l-1.8-1.7-1.3-1.55 2.1 1.35 2.25 1.2q1.1.3 2 1l.3.2q1 .7 1.45 1.95l.3.6.4 1.7-.95-1-4.75-3.75m15-6.65l4.05-3.35.4-.95.2.85v.3l.5 3.35v3l-.1.4-1.2-.6-3.15-2.1-.7-.9m-2.05 2.6h.1l-1.3 2.15-1.3 1.4-1.95 1.5-2.1 2.25.1-.4.9-1.85 5.55-5.05m3.15.2l1.95 1.55 1.3 2 .2 1.3-.4-.7-.9-1.2-2.05-2.15-.1-.8M40.5 28.35l1.4 1.1 2.05.9.1.1v.1q.3.45-.35.55l-1.2-.25-.5-.3-.6-.7-.9-1.5m8.6.6l.4-.5.7-.7.7-.9-1 1.9v.1q-.5 1-1.3 1.4l-1.25.3.3-.8 1.45-.8m-3.25 5.15l-.9-.3h-.3l-1.85.9-.8.65q-.3.3-.9.4l-1.95.4-.9.6q-.4.5-1.1.4h-1.7l-.15.2.15.1.5.9-1.65-1h-.1l-.2-.1-1.2-.8L31.05 35l-.7-1 .2-1-.2-1.1-.1-2.15h.2l.7 1.65.55.7.5.5.8.2h1.6l.4-.4.3.3 1.75.3h1.4l.2.1 6.2-1 .5-.3v-.2l.4.1q.2.6-.2.8l-.1.4.1.5v.3l.3.3.1.2-.1-.1m1.1-.1l1.15-.2.1-.1h.1l.3-.1 1.8.3.1.1 1.65 1-3.15-.8-.8.1q.8 0 1.2.6l.3.75q-.8-1.25-2.35-.65l-.4.85q-.1-1.35-1.6-.5l-.9 1-.3.2q-.1-1.1.5-1.55-1.45.15-1.95 1.75h-.2l.4-1.3.3-.3 1.15-.75h.3l1.3-.2 1-.2.1-.2.1-.2V33l-.1-.5-.3-.3-.4-.6.3-.2.6.1 5.5-1.05.9-.4.3-.1 1.6-.7.95-.6.2-.4.5.2q.9-.1 1.5-.6l.6-.5.4-.75.2-.8v-1.7l.1-.1.95 2.3.3 1.25.4.5-.4 1.2-1.45 2.65-.2.2-.2.3h-.1l-.2.3-.9 1-.3.4.1-1-.1-.3h-.1l-1.1.4-.55.3-1 .1h-.1l-.1-.1-1-.2-2.15.3h-1l-.6-.2-.1-.1-.3-.2h-1.6l-.45.1-.1.1-.3.2-.2.3-.2.2m.2 6.2l-1.6-.2-1.3-.6-.1-.1.5-1.25 1-.6 1.2-.4.5-.1q.5-1 1.75-.6l1.8 1.5-.1.5-1 1.25-.6.5q-.7.7-1.45.5l-.6-.4m-5.85-4.45l-1.95 1.3-1.3.5-.2-.4 3.45-1.4m13.45-1.95l1.75.6-.85-.1-3.3-.1-.65-.2q.1-.3.55-.3l2 .1.4.1.1-.1"/><path fill="url(#b)" d="M36.65 35.35l2.6-.45v-.8l-.1-.5-2.1.1-.6.1v.8l.2.75"/><path fill="url(#c)" d="M36.65 35.35l-.2-.75v-.8H31.9l-.4-.1.1.1 2.5 1.35h.1l.7.2h1.75m2.6-.45l1.25-.2 1.5-.5.2-.2 1.3-.9.2-.1-4.25.6h-.3l.1.5v.8"/><path fill="url(#d)" d="M48.6 32.2h.3l1.5.4h1.95l1.2-.3-.3-.7v-.5h-.4l-4.25 1.1m7.55-.5h.35l1.4-.6.8-.55.7-.7.9-1.2.25-.2.2-.3-.2.2-4.8 1.9.4.85v.6"/><path fill="url(#e)" d="M47.35 36.95l-.5.1-1.2.4-1 .6-.5 1.25.1.1 1.3.6 1.6.2.4-.1q.85-.1 1.75-.8l.4-.35.5-.7v-.4l-.9-.7-1.95-.2"/><path fill="url(#f)" d="M52.15 41.7v-.2l.6-.1v-.1l.6.1.2-.2.2-.3h.1l.4-.2.5-.4h.1l.5-.3h.2v-.1l.1.1v-.1l.4-.2h.1v-.1h.15l.4.2q-.1-.75.6-.65 0-.6.4-.3l.6-.2.2 1.05h-.2v.1l-.3.3-.1.1-.5.3v.1l-.4.3v.1h-.1l-.1.1-.4.4v-.2l-.1.1v.1l-1.15 1.2-.2-.2-.1.3.1.1-.4.3-.6.65-.6.4-.2.2-.3.2v.1l-.3.3-.75.6v-.2l-.1.1-.2.2v.1l-.3.3h-.5v.1h-.1l-.3.2h-.2v.2l-.3.3v.1l-.4.2h-.3l-.4-.1v.1q-.1.45-.6.25v-.15H48l-.15-.1-.2.1-.5-.1v-.1h-.1l-.1.1q-.2.35-.5 0v-.1l-.3.2-.1-.7-.1.1v.6l-.4-.1-.3-.2-.1-.1h-.1l-.3-.2-.6.1v-.1h-.1l-.35-.2-.7-.2-.4-.2h-.4l-.4-.2h-.3l-.8-.3h-.1l-.2-.1-1.25-.4-.6-.3-.1-.1-.5-.3-.1-.1-.6-.3h-.1l-.3-.3h-.1v.2h-.1l-.1-.4-.4-.2-.1.5-.3-.85q-.75-.1-.85-.6l.85.3.1-.1.5.1.8.2.1-.2.3.2h.1q.5-.3.6.3l.6-.1h.6v.55h.25v-.55l.6.25.7.3h.1v-.1l.5.2q.4-.1.6.2l.4-.2h.1l.7-.1q.3-.55.85-.2H45.05v-.35q.3-.2.5.25l.1-.15v-.1q.5-.4.6.35l.5-.45h.3l.1-.3q.4-.6.85 0l.5-.2.2-.2.7.1h-.1v.1q.4-.1.5.3l.2-.3.4-.2h.3l.1-.1.7-.1V42q.1-.5.65-.3m6.15-3.05l.2-.4.5-.1v.1l.1.3-.2 1.05-.6-.95m-5.45 4.45l.2.35-.1-.45-.1.1m-2.75 0l-.2-.4v.1l.2.3m-.3 1.25l-.1.1v.3l.1-.3v-.1m-.6.2H49l.2.6v-.6M62.05 33.3q-1.4 3.25-3.75 4.35l-5.85 2.75-2.95 1-2.55.4-.8.2-1 .1-7.2.1-.8-.1q-2.95-.2-5.65-3.65l-.45-.5 4.05 5.6q1.35 1.3 3.05 1.9h.2l5.25 1.3 1.55.75 2.5.5q2.15.2 5-2.55l.5-.5h.1l2.3-2.05L58 41.1l1.6-1.8q1.45-2.05 2.45-6M50.9 44.85l-.1-.2v.2h.1M48 42.8v-.1h-.15l.15.1m-1.85 2.25l-.1.1v.2l.1-.2v-.1m.5-.1l.1.2v-.2h-.1m1.2-.2l.15.2v-.2h-.15m.65-.1l.1.6v-.6h-.1m-6.3-.4v-.3l-.1.3h.1m-.6-.4v-.1h-.1l.1.1m7.5 1.9l-.1-.3v.3h.1m-9.85-1h-.1v.4l.1-.4"/><path fill="url(#g)" d="M50.4 42.3l-.4.2-.2.3q-.1-.4-.5-.3l.4 1.95.1-.1.1-1.25v-.4l.2.4.3 1.15V42.3"/><path fill="url(#h)" d="M49.3 42.5v-.1h.1l-.7-.1.2 1.25v.1l.1.9h.2l.1-2.05"/><path fill="url(#i)" d="M48.5 42.5l-.5.2v.1l.5 1.85h.1l-.1-2.15"/><path fill="url(#j)" d="M48 42.7q-.45-.6-.85 0l-.1.3h-.3l.5 1.85-.1-1.95q.5.75.7 1.85H48V42.8l-.15-.1H48"/><path fill="url(#k)" d="M45.65 43.2l-.1.15q-.2-.45-.5-.25v.35l.1.8.3 1.1.2-2.15"/><path fill="url(#l)" d="M46.75 43l-.5.45.4 1.5h.1V43"/><path fill="url(#m)" d="M44.95 43.45h-.7l.5 2.1.2-2.1"/><path fill="url(#n)" d="M46.45 47.15v.1q.3.35.5 0l.1-.1-.5-1.2-.1 1.1v.1"/><path fill="url(#o)" d="M47.15 47.15v.1l.5.1.2-.1.15.1h.1l-.55-1.05.1 1.05-.6-1.3v1l.1.1"/><path fill="url(#p)" d="M45.15 46.95l.1.1.3.2-.2-1.3-.2.9v.1"/><path fill="url(#q)" d="M45.55 47.25l.4.1v-.6l-.2-.7h-.1l-.1 1.2"/><path fill="url(#r)" d="M46.05 46.65l.1.7.3-.2v-.1l-.3-1-.1-.2v.8"/><path fill="url(#s)" d="M49.4 47.25l.4-.2v-.1l-.7-1.2H49l.1.7v.1l.3.7"/><path fill="url(#t)" d="M49.8 46.95l.3-.3V46.35l-.5-.6.2 1.2"/><path fill="url(#u)" d="M48.1 47.35v.15q.5.2.6-.25v-.1l.4.1-.1-.7-.5-1 .1 1.7-.6-1.4.1 1.5"/><path fill="url(#v)" d="M40.6 45.65h.1l.8.3h.3l.4.2h.4l.4.2.7.2.35.2h.1v.1l.6-.1.3.2-.2-.7-.1.4-.3-1-.2 1-.4-.8-.15.7-.2-.8-.2.5-.4-.4-.1-.3-.2.5-.2-.6-.2.6-.2-.6-.2.4-.2-.5-.1.5-.4-.6q-.1.7-.4 0l-.1.4"/><path fill="url(#w)" d="M13.35 41.5L8.5 37.85q2.35 1.85 4.15 4.65l.7-1M84.5 56.3V56q-.2-2.25-1.4-3.65l-4.05-5.4-1.8-3.6q2.9.7 5.65 2.6l-3.05-8.2Q83.8 40.2 90.5 39.7q-1.85-5.7-7.4-9.05v-.2l-1.3-.5-6-1.3q1.55-1.3 3.95-2.05l4.55-.9-.2-.1q-5.15-2.8-11-2.4l5.05-2.65H75q-1.6.2-1.7-.5-.3-2.35 1.5-4.35 2.1-2.25 4.55-3.35l4.35-.9-4.45.2-8.3 1.5-1.2 5.9-4.05-2.95-.6-.3q-2.1 1.9-4.15 3.75l.1.7h-.1l.1.5 1.5 4.05.9 1 .5.7h.1l.1.1 3.25 3.65q1 1.05 2.05 3.75l2.9 9.75-.6-.95-.2-.2-2.4-3q1.2 2.9 1.9 10.1l.2 2.75-4.35-7.7-3.35-3.85q-1.1-.9-2-.7l-.3.3-.5.4-.95.4h-.2l-1.8.8-.2.2-1.85 1.35-1.4 1.3-.4.4.1.3-.9 1Q51.8 47.7 50.2 48.4l-2.95.8-2.4-.5-1.55-1.45-.1.1v-.1l-1.6-.7-7.8-1.3h-.3l-1-.6q-2.25.2-3.65 7v.2l-.1.4-.4 2.5q6.15-.1 12.25-4.35 1.9.6 6.85 2.95 1.05-2.55 4.05-1 8.5 4.35 6.7-6.1l4.25 3.95 1.9 2.55-.3.3.75 3.05v.5l-.1.8.8-1.3.7-1.45q1.1-1.5 1.7-.6l3.05 4.45q3.15 4.25 2.85 10.45-.1 2.4 3.45 4.45l1.9-2.05.4-1.1V66q-.2-2.55.8-4.65l.2-.2-2.5-2.25v-.4q-1.45-.2-2.85-1.3l-.8-.9-.2-.4q-1.1-2.05-2.45-2.95l5.25 1.1h1.65q2.85-.5 4.45.9l1.4 1.35M99 49.6l.8.6v-1.9l-.8 1.3M27.45 28.95q-2.85.7-7-.9-2.65-1-1.75 1 3.25 6.7-1.4 6.5 4.25 5.35 3.65 11.8-.2 2.15.6 4.15 1.2 2.65 4.45 3.15l-.9-7.4-1.7 4.4-.2.7v-.5L23 49.8l.2-9v-.3l.7-2.55 2.5-5.75 1.05-2.05v-1.2m-.3 30.15L24 61.25l-.1.6.1 3.95-.5-.8q.5 3.25.3 6.65.6-3.75 2.4-6.65l2.95-3.55-.6-3.15-.7.4-.2 1.95-.5-1.55M76.6 46.35l2.45.6-2.45-.6M61.85 65.4l-.8.1 1.3 1.9-.5-2m-9 1.6l-4.15-6.85-1.45-1.85-.4 1.95 7.1 11.6q-.9-2.5-1.1-4.85m-14.3-6.25l-2.8-3.65-.85-1-.7 1.8 1.55-.8q-.3 6.25 2.3 11.65-.6-4.25.5-8M65.7 59l-.4.7 1.3 1.25-.9-1.95m.9-10.6q.6 3.45-.4 6.25 1-2.8.4-6.25"/><path fill="url(#x)" d="M41 43.65l-.7-.3-.6-.25v.55l.2 1.5.4-1.8.2 1.7.5-1.4"/><path fill="url(#y)" d="M42.2 43.95q-.2-.3-.6-.2v.1l.2 1.3.3-.9.1-.3"/><path fill="url(#z)" d="M41.6 43.75l-.5-.2V44.95l.4-1.2h.1"/><path fill="url(#A)" d="M42.7 43.75h-.1l-.4.2v.3l.3 1.1.2-1.6"/><path fill="url(#B)" d="M42.7 43.75l.4 1.6v.4l.1-.4.1-.8.1-.3v-.6l-.7.1"/><path fill="url(#C)" d="M44.25 43.45q-.55-.35-.85.2l.2.6v.3l.35 1.2q.5-.9.3-2.3"/><path fill="url(#D)" d="M38.85 43.1l-.6.1q-.1-.6-.6-.3h-.1l-.3-.2-.1.2v1.15h.1l.4-1.05.2 1.35.3-.8.1-.2v.3l.3 1.1.3-1.65"/><path fill="url(#E)" d="M38.85 43.1l.3 1.65h.1l.1-.8.1-.3v-.55h-.6"/><path fill="url(#F)" d="M37.15 42.9l-.8-.2-.5-.1-.1.1v.3l.3.85.1-.5.2-.65.2.85.1.4h.1v-.2l.4-.85"/><path fill="url(#G)" d="M13.75 61.55Q10.95 64.3 8.7 68l-.5.95.7-.7 6.7 6.35 1.7-.6 2.15 2.75Q24.1 80.8 23.6 74q1 2 2.9 2.1 5 .2 7.4-2.8l.7.7v4.25l1.25-2.85q1.7-3 5.25-4.65l.1-.1.5 1.1 1.7-3.5q2.05 5.55 5.2 3.6Q50.4 76 49.2 82q-.3 1.3.3 2.1 5.05-4.75 8.8-5.85 1.4 5.05 3.35 2.45l.6.6 2-2.25.65-.7 1.1-1.4q1.9 1 2.1 2.4L68 74.7q-.4-4.55-3.1-6.7l-.75-.5 1.75-2.3q1-2.05.7-4.25l-1.3-1.25.4-.7q.7-1.4.2-2.4l-.4-.5-.8 1.3.1-.8v-.5l-.75-3.05-2-2.55-.8 6.1q-.1 4.45.6 8.8l.5 2-1.3-1.9q-2.25-3.95-3.45-8.9v-.3l-.3.3q-4.65 4.65-4.45 10.4.2 2.35 1.1 4.85l-7.1-11.6-2.8-4.35q-1.65-2.45-3.65.7l-1.85 4.15q-1.1 3.75-.5 8-2.6-5.4-2.3-11.65l-1.55.8-3.35 2.05-1.7 1.5L26.2 65q-1.8 2.9-2.4 6.65.2-3.4-.3-6.65l-1.25-1.35-.3-.2-.4-.6-6.45 4.75-1.35-6.05m44.65 7.8v4.45l3.95-6 .1-.3.1-.1 1.4-2.8-.3 2.6-.1.2-.3.85v.1l.9-.85-.9.85v-.1l.3-.85.1-.2.3-2.6-1.4 2.8-.1.1-.1.3-3.95 6v-4.45m5.05 7.6l1.45 1.4-1.45-1.4M41 70.15l.2.5-.2-.5m4.45 5.95l-1.3 1.85.5 1.4.8-3.25"/><path fill="url(#H)" d="M11.85 82.4l5.65 1.1-10.8 8.7 9.6-2.4q10.2-2.15 4.65 6.35 4.75-2.7 11.15-5.55 4.15 1.9 6.65 4.95-2.6-3.45-3.2-9.6-2.75-1.85-4.25-5.35l-1.35 4.25-1.9-3.95q-.9 2.4-.5 5.25.3 1.7 1.2 2.4l-1.95-1.3-.1-.1-4.15-3.45q-.4 2.65.95 4.95L18.1 83l-3.75-4.75-2.5 4.15"/><path fill="url(#I)" d="M48.5 88.25l.8 1.25q5.45 2.7 4.35 9.6l8.6-6.7q4.95.55 6.35 6.4 2.75-2.45 2.15-6.6 4.85 1.95 7.9 4.8-.1-5.7-3.25-8.95-1.8-.2-3.35-1.6l-1.8-1.8-3.35-.25q-1.4-.4-2.45-1.2l-1.3-1.1 4.15.2 1.3-.1Q66 81 64.25 79.05l-2 2.25-6.3 5.45q-.4-2.25-.2-5.05-3.2 3.95-7.25 6.55m24.35-4.45l-1.3.5 2.25.1-.95-.6"/><path fill="url(#J)" d="M53.55 32.3l2.6-.6v-.6l-.4-.85-.5.1-2 .75v.5l.3.7"/><path fill="url(#K)" d="M55.35 40l-.5.3h-.1l-.5.4-.4.2h-.1l-.2.3-.2.2-.6-.1v.1l.7 1.5v-1.2l-.1-.2v-.1l.1.1.1.2v-.1l.5.9-.2-1.5.7 1.1-.3-1.3.9 1.2-.3-1.6 1 1.5-.5-1.8V40"/><path fill="url(#L)" d="M52.75 41.4l-.6.1.7 1.6.1-.1-.2-1.6"/><path fill="url(#M)" d="M51.8 45.45v.2l.75-.6.3-.3-.3-.6-.1.9-.55-.9.1.7v.3l-.2-.3v.6m1.05-.8l.3-.2.2-.2.6-.4.6-.65.4-.3-.1-.1-.2-.2-.1.6-.3-.4v.65l-.3-.45v.75l-.3-.55v.75l-.4-.5-.2.9-.3-.5.1.8"/><path fill="url(#N)" d="M52.15 41.7q-.55-.2-.65.3v.1l-.7.1-.1.1h-.3l.6 1.85-.1-1.95.5 1.45.2-1.55.4 1.45.25-1.15-.1-.7"/><path fill="url(#O)" d="M56.8 41.1l.1-.1h.1v-.1l-.1-.8-.1-.3.6.7-.1-1.2v-.15q-.7-.1-.6.65l-.4-.2h-.15v.1l.65 1.3v.1"/><path fill="url(#P)" d="M57.9 40.2l.1-.1-.3-1.05.6.65h.2l-.2-1.05-.6.2q-.4-.3-.4.3v.15l.6.9"/><path fill="url(#Q)" d="M56.3 41.4l.1-.1-.25-1.6h-.1l-.4.2v.1l.2.7.45.7"/><path fill="url(#R)" d="M58.3 38.65l.6.95.2-1.05-.1-.3v-.1l-.5.1-.2.4"/><path fill="url(#S)" d="M50.2 46.45h.1l.3-.2-.4-1.1v1.3m.5-.3h.3l-.1-.6-.4-.8v.3l.2 1.1m.5 0l.3-.3v-.1l-.6-.9h-.1l.1.1.3 1.2"/><path fill="url(#T)" d="M51.5 45.75l.2-.2v-.1l-.5-.9.3 1.2"/><path fill="none" stroke="#8F1C00" stroke-width=".05" stroke-linecap="round" stroke-miterlimit="3" d="M23.2 16l-8.65.7q5.8 2.35 7.2 8-4.85-4.45-11.95-2.95l1.85 3.85q.5 1.35 0 2.35-1.35 3.05-5.6 2.5 6.4 3.25 7.6 10.95l.1.4-.4-.3-4.85-3.65q2.35 1.85 4.15 4.65l.4.6m4.35 15.5l-3.65 2.95Q10.95 64.3 8.7 68l-.5.95M8.7 81l-.7.4.6.2m3.25.8l5.65 1.1-10.8 8.7 9.6-2.4q10.2-2.15 4.65 6.35 4.75-2.7 11.15-5.55 4.15 1.9 6.65 4.95-2.6-3.45-3.2-9.6-2.75-1.85-4.25-5.35m3.3-6.6v4.25l1.25-2.85q1.7-3 5.25-4.65l.1-.1.5 1.1m7.6 17.75q5.45 2.7 4.35 9.6l8.6-6.7q4.95.55 6.35 6.4 2.75-2.45 2.15-6.6 4.85 1.95 7.9 4.8-.1-5.7-3.25-8.95m9.1-31.75V56q-.2-2.25-1.4-3.65l-4.05-5.4.8.3 4.05 2.65q3.85 3.05 6.8 6.7l2 2.6-.4-2.6v-.2l-.5-4.05q-1.3-8.2-5.35-10.15 7.8 3.45 12.45 7.3l.1.1.8.6v-1.9q-2.05-8-8.6-13.05-3.95-3.05-8-4.8h-.1l-1.3-.5-6-1.3q1.55-1.3 3.95-2.05l4.55-.9q5.4-.5 9.1 2.45l-4.75-4.05q-4.95-3.15-10.5-3.55H75q-1.6.2-1.7-.5-.3-2.35 1.5-4.35 2.1-2.25 4.55-3.35l4.35-.9-4.45.2-8.3 1.5-3.25 1.2-2.6 1.45q-2.1 1.9-4.15 3.75-.2-1.85.2-3.45l.7-5.9-.2-1.2-.9-2.4-.2-.2-1.45-1.85-2.5-2L54.45 0l2.05 4.85.2 2.55-.3.8-1.15 1.5-2.2 1.55-.5.3m0-.1l-.4-.1m-16.6 2.3l-.45.2m-1.2.85l-.2.1 1 .4m-2.5-.95l-2.05-.4q-2.4-.5-3.15-1.8l-.8-2.45.1-5.25q-.7 2.85-1.4 3.75l-1.2 2.1-.7 2.55-.15 1.3.15 1.25.2.7.3.9.2.6 1 2.15 2.55 4.25.5 1.6-.1.4-.2 3.05M17.8 58.6l-.1 2.35 2.25-1.35m9.1-37.25l-1.2-2.8-.7-3.25L27 16l-.1-.9.65.7v.1l1.3.6 2 .4 1.25.6m-3.05 4.85l.3.55m20.85-9.75l.6-.2 1.75-1.4m1.3 2.95l4.05-3.35.4-.95.2.85v.3l.5 3.35v3l-.1.4M48.6 32.2h.3l1.5.4h1.95l1.2-.3 2.6-.6h.35l1.4-.6.8-.55.7-.7.9-1.2.25-.2.2-.3-.2.2-4.8 1.9-.5.1-2 .75m-5.15 1.2l.5-.1 4.25-1.1h.4m-5.9 5.85l-.5.1-1.2.4-1 .6-.5 1.25.1.1 1.3.6 1.6.2m.2-3.25l1.95.2.9.7v.4l-.5.7-.4.35q-.9.7-1.75.8l-.4.1M31.5 33.7l.1.1 2.5 1.35h.1l.7.2h1.75l2.6-.45 1.25-.2 1.5-.5.2-.2 1.3-.9.2-.1.65-.1m-5.2.7h.3l4.25-.6m18.85-1.1l-.5 1.4q-1.4 3.25-3.75 4.35l-5.85 2.75-2.95 1-2.55.4-.8.2-1 .1-7.2.1m-6.45-3.75l-.45-.5-.2-.3-.1-.3m7.4 8.1h.2l5.25 1.3m-.4.4l.1.1 1.55 1.45 2.4.5 2.95-.8q1.6-.7 2.95-1.75l.9-1-.1-.3.4-.4 1.4-1.3 1.85-1.35.2-.2 1.8-.8h.2l.95-.4.5-.4.3-.3q.9-.2 2 .7l3.35 3.85m-23.7 2.6v-.1l-1.6-.7-7.8-1.3h-.3l-1-.6-.4-.5m-6.9.4l.1-.4q1.2-4.65 3.45-8l.1-.5m42.9 7.15l.6.95M69.45 34q-1.05-2.7-2.05-3.75l-3.25-3.65-.1-.1h-.1l-.5-.7-.9-1-1.5-4.05-.1-.5m.1 0l-.1-.7M59.6 39.3L58 41.1l-2.45 1.8-2.3 2.05h-.1l-.5.5q-2.85 2.75-5 2.55l-2.5-.5-1.55-.75m-16.15-16.6v-1.2M23.2 40.8v-.3l.7-2.55 2.5-5.75 1.05-2.05.5 3.55.6 1.95v.2m.2.3l-.2-.3m7.9-2.05l.6-.1 2.1-.1m-2.7.2H31.9l-.4-.1m0 4.75q2.7 3.45 5.65 3.65l.8.1m.2 3.25q-1.7-.6-3.05-1.9l-4.05-5.6m46.2 5.4l1.8 3.6-2.45-.6m-8.3-8.3l-5.05-7.7v-1.3l-.7-4.25m-.7 15l-.3.4m-1.95-.9q1.45-2.05 2.45-6m2 19.75l-2-2.55-.8 6.1q-.1 4.45.6 8.8l.5 2-1.3-1.9q-2.25-3.95-3.45-8.9v-.3l-.3.3q-4.65 4.65-4.45 10.4.2 2.35 1.1 4.85l-7.1-11.6-2.8-4.35q-1.65-2.45-3.65.7l-1.85 4.15q-1.1 3.75-.5 8-2.6-5.4-2.3-11.65l-1.55.8-3.35 2.05-1.7 1.5L26.2 65q-1.8 2.9-2.4 6.65.2-3.4-.3-6.65m40.55-11.95l.75 3.05v.5l-.1.8.8-1.3.4.5q.5 1-.2 2.4l-.4.7 1.3 1.25q.3 2.2-.7 4.25l-1.75 2.3-.9.85v-.1l.3-.85.1-.2.3-2.6-1.4 2.8-.1.1-.1.3-3.95 6v-4.45m16 8.5q-1.3-.9-2.05-2.55l-.5-2.6v-.3q-.4-4.4-4.45-6.5l2.05-.1q-.75-2.85-2.85-4.85L65.7 59m-.2-2.9l.7-1.45q1-2.8.4-6.25m-2.45 19.1l.75.5q2.7 2.15 3.1 6.7l.1 4.65q-.2-1.4-2.1-2.4l-1.1 1.4-1.45-1.4m.8 2.1Q66 81 68.6 82.2m-4.35-3.15l-2 2.25m2.65-2.95l-.65.7m8.6 4.75l.95.6M23.4 51.65l-.2.7v-.5m9.3-7.2q-2.25.2-3.65 7v.2l-.1.4m12.45 18.4l-.2-.5"/><path fill="none" stroke="#8F1C00" stroke-width=".5" stroke-linecap="round" stroke-miterlimit="3" d="M13.05 43.1l-1-.7-1.6-.2-2.95 1q-.1 1.75-.8 3.15l-.3.6v.1l-.25.3-1.7.15q-1 .2-1.1 1.5l-.5 3.85q-1.75.1-2.05 1.8L.1 58q-.4 1.7.5 3.25l.9 1.2.1.3.1.1-.3 2.45.5 1.8.55 1.15.4-3.05q.2-1.2 1.1-1.85l1.8-2.2.75-.4.4-.1H7l.9-.6.6-.85m-.4.95l1.4-.2L12.15 58l.8-.1 4.45.7h.4l1.45-.2M75.4 88.05h.8l.7-.1h3.95q2.35-.1 2.85-2.4l5.35.3q1.75.2 2.25-1.1l.6-2.45.4-.1.2-.1.9-.2 4.35-.3 2.05-3.85.2-2.35-.9-1.8-4.85-7.4-.4-1.5q-.55-1.45-1.75-2.25l-2.3-1.6q-1.85-1.45-3.65-2.25l-.5-.5-.75-1.3-.4-.5M24 61.25v-.3l.1-.3q.7-2.05 0-3.35-.4-.9-1.1-1.5l-.75-.75-.3-.5-1.9-4.75-1.35-1.5-1-.5-2.2-2.35-1.35-1.1-1.1-1.25m1.4 6.9l-.2-.4h-.1l-1.3-.7-.6-1-.1-.4-1.1-1.85-1.05.2-.4-.1m-.1 0v-.9m2.75 3.05l-.1-.1h-.1l-2.75-.85h-.4l.6-1.2M8.4 47.5l-.6.4q-.9.5-2.25.9l.6-1.45m2.75-.4l-.5.55M2.45 59.85l-.45 2v1.5l-.3-.5m1.15-10v.8l.1.5.3 1m9.3-4.15l-.9.4-2.35-.2-.5-.2-1.4-.5-.6.1h-.1l-.4 1.65-.35 1.1-.3.6-.5 2.15v.9l-.9-.5-.2-.2-.8-1.15m3.05-2.9l.3-.1L8.8 51m-.5 4.65h.1q1-.5 1.3-1.4M5.15 56.1l1 .1L2 61.85m4.15-5.65l2.05-.4.1-.15m-5.85 4.2l.2-.75 1.4-2.8m11.75-2.95l1.3-.9m-6.05 2.3l-.1.1-1.45.7m10.45 4.05l.7.85m.3 0l.5 2.3.1.1m-2.1-4.55l.5 1.3m-4.15-6.25l-4.75 1.4m66.2 18.65L76 74.5q-.7.6-.7 1.95m.2.2l-1.1 1.2m3.85-23.8h.4q2.85-.5 4.45.9l1.4 1.35m-6.45 2.2q-1.45-.2-2.85-1.3l-.8-.9-.2-.4q-1.1-2.05-2.45-2.95l5.25 1.1h1.25m1.2 4.45h-1.4m0 .4l2.5 2.25m-.2.2q-1 2.1-.8 4.65v4.25l-.4 1.1-1.9 2.05m6.15-11.75l-.2.2-1.5-.2-1.15-.5m10.35 9.5q0 1.1.6 1.95l.8.9.4.3.1.2v.1l.3 3.95v.7l-.7.5-.7.7-1.9 2.85 2.1-.5m-1-11.65v-.2l.1-.7m1.7 4.05l.5.2q.65 1.3 2.15 2-.5.55-.5 1.45v.5m0 .2l-1.75.6M87.85 65.9l-1.6 1.5q-.7.95-1.15 2.15l-1.9 4.15-.1.2-1.1 1.4m6.65-2.7l-.8 1.2-.3.6q-.3 1.1 0 2.55l.2.9-2.1 2.75-.1.3-1.25.2h-.4l-.9.2-2.95.2.1-1.45 1-2.6.25-.2v-.1l2-1.45m-9 2.25v-.1m13.35 0l.2 1.9v.1l-.3 1.05h-2.1m2.1 0h.7m-4.65 4.65l-1.7-.4-1.25-.75-1.3-1.4-.1-.4-.5-1.4 1.2.3m-5.65 2.9l4.25-1.1.8-.3m15.4-4.85h.4l.9.2m-.8-2.35v-.1l.5-.3M68.6 82.2l-1.3.1-4.15-.2 1.3 1.1q1.05.8 2.45 1.2l3.35.25 1.8 1.8q1.55 1.4 3.35 1.6m-6.8-5.85l1.45-.8q.9-1.05 2.2-1.35l1.25-.7.9-1.4m1.1-1.3l1.1-.65m-5.05 8.3l1.3-.5 3.45-1.7q1.75-1.1 3.85-2.05M73.8 84.4l-2.25-.1-2-.3.7.65m4.15-.25h-.6m5.65-25.9l1-.3m-61 .1l-.2-.8v-1.1M24 61.25l-.1.6.1 3.95-.5-.8-1.25-1.35-.3-.2-.4-.6m-.4-3.45l-.2 1.05"/><path fill="none" stroke="#979700" stroke-width=".05" stroke-linecap="round" stroke-miterlimit="3" d="M26 54.65l.5 1.95v.2l.65 2.3.5 1.55.2-1.95.5-3.95m-3.15-10.1v-.1m41.7.2l4.35 7.7-.2-2.75q-.7-7.2-1.9-10.1l2.4 3 .2.2m.6.95L69.45 34M25.1 47.25l.1-2.6m-2 7.2L23 49.8l.2-9m45.1-2.75l.55.6.3.95M23.4 51.65l1.7-4.4.9 7.4m2.75-2.4l-.4 2.5"/><path fill="none" stroke="#CA2800" stroke-width=".05" stroke-linecap="round" stroke-miterlimit="3" d="M52.15 11.35l-8.95-.4-2.1.5q-2.85.7-5.55 2.2m-.45.2l-1.2.85m-.2.1l-1.5-.55"/></svg>