<svg xmlns="http://www.w3.org/2000/svg" viewBox="0 0 100.0 101.3" width="100" height="101.3"><defs><radialGradient gradientUnits="userSpaceOnUse" r="819.2" cx="0" cy="0" fx="87942.4" fy="0" spreadMethod="repeat" gradientTransform="matrix(.074 0 0 .074 51.95 51.35)" id="a"><stop offset="0" stop-color="#ccc"/><stop offset=".235" stop-color="#4678ED"/><stop offset=".439" stop-color="#c9c"/><stop offset="1" stop-color="#06f"/></radialGradient><linearGradient gradientUnits="userSpaceOnUse" x1="-819.2" x2="819.2" gradientTransform="matrix(.014 0 0 .008 63 13.15)" id="b"><stop offset="0"/><stop offset=".561" stop-color="#c9c"/><stop offset="1"/></linearGradient><radialGradient gradientUnits="userSpaceOnUse" r="819.2" cx="0" cy="0" spreadMethod="pad" gradientTransform="matrix(.022 0 0 .022 64 33.55)" id="c"><stop offset="0"/><stop offset=".455" stop-color="#f00"/><stop offset=".929"/></radialGradient><radialGradient gradientUnits="userSpaceOnUse" r="819.2" cx="0" cy="0" spreadMethod="pad" gradientTransform="matrix(.028 0 0 .028 64.3 30.3)" id="d"><stop offset="0" stop-color="#ccc"/><stop offset=".573" stop-color="#c9c"/><stop offset="1" stop-color="#06f"/></radialGradient><radialGradient gradientUnits="userSpaceOnUse" r="819.2" cx="0" cy="0" spreadMethod="pad" gradientTransform="matrix(.013 0 0 .013 90.8 41.15)" id="e"><stop offset="0" stop-color="#ccc"/><stop offset=".573" stop-color="#c9c"/><stop offset="1" stop-color="#06f"/></radialGradient><radialGradient gradientUnits="userSpaceOnUse" r="819.2" cx="0" cy="0" spreadMethod="pad" gradientTransform="matrix(.027 0 0 .027 94.1 71.1)" id="f"><stop offset="0" stop-color="#ccc"/><stop offset=".573" stop-color="#c9c"/><stop offset="1" stop-color="#06f"/></radialGradient><radialGradient gradientUnits="userSpaceOnUse" r="819.2" cx="0" cy="0" spreadMethod="pad" gradientTransform="matrix(.007 0 0 .007 76.65 64.65)" id="g"><stop offset="0" stop-color="#ccc"/><stop offset=".573" stop-color="#c9c"/><stop offset="1" stop-color="#06f"/></radialGradient><radialGradient gradientUnits="userSpaceOnUse" r="819.2" cx="0" cy="0" spreadMethod="pad" gradientTransform="matrix(.029 0 0 .029 22.05 14.65)" id="h"><stop offset="0" stop-color="#fff"/><stop offset=".349" stop-color="#f00"/><stop offset="1" stop-color="#690"/></radialGradient><radialGradient gradientUnits="userSpaceOnUse" r="819.2" cx="0" cy="0" spreadMethod="pad" gradientTransform="matrix(.024 0 0 .024 18.9 45.9)" id="i"><stop offset="0" stop-color="#ccc"/><stop offset=".573" stop-color="#c9c"/><stop offset="1" stop-color="#06f"/></radialGradient><radialGradient gradientUnits="userSpaceOnUse" r="819.2" cx="0" cy="0" spreadMethod="pad" gradientTransform="matrix(.019 0 0 .019 15.8 87.2)" id="j"><stop offset="0" stop-color="#ccc"/><stop offset=".573" stop-color="#c9c"/><stop offset="1" stop-color="#06f"/></radialGradient><radialGradient gradientUnits="userSpaceOnUse" r="819.2" cx="0" cy="0" spreadMethod="pad" gradientTransform="matrix(.006 0 0 .006 35.35 66.3)" id="k"><stop offset="0" stop-color="#ccc"/><stop offset=".573" stop-color="#c9c"/><stop offset="1" stop-color="#06f"/></radialGradient><radialGradient gradientUnits="userSpaceOnUse" r="819.2" cx="0" cy="0" spreadMethod="pad" gradientTransform="matrix(.019 0 0 .019 40.3 88.7)" id="l"><stop offset="0" stop-color="#ccc"/><stop offset=".573" stop-color="#c9c"/><stop offset="1" stop-color="#06f"/></radialGradient><radialGradient gradientUnits="userSpaceOnUse" r="819.2" cx="0" cy="0" spreadMethod="pad" gradientTransform="matrix(.016 0 0 .016 87.5 94.3)" id="m"><stop offset="0" stop-color="#ccc"/><stop offset=".573" stop-color="#c9c"/><stop offset="1" stop-color="#06f"/></radialGradient><radialGradient gradientUnits="userSpaceOnUse" r="819.2" cx="0" cy="0" spreadMethod="pad" gradientTransform="matrix(.013 0 0 .013 80.75 90.5)" id="n"><stop offset="0" stop-color="#ccc"/><stop offset=".573" stop-color="#c9c"/><stop offset="1" stop-color="#06f"/></radialGradient></defs><path fill="#fff" d="M66.3 18.75l.65 2.65q.5 2.15.5 4.6l.3 2.95.2 5.1q0 4.15-1.5 7.25-.15-1.3-.8-2.65-1-2.8-1.85-5.75l-4.1-14.45-.8-2.5q-.35-2.3 2.1-1.95 2 .3 3.45 1.65.85.65 1.2 1.45l.65 1.65m-8.1.15l.7 2.5.65 6.4q.65 7.4.65 14-.8-1.5-1.8-2.65-2-2.15-3.3-4.75-1.5-2.5-2.45-5.45Q51.5 26 50.8 23.2l-.3-1.3q-.35-1.8-.35-3.65v-1.3l.5-.8q.35-.5 1.65-1 2.45-.65 3.8.65.95.8 1.65 2.3l.45.8"/><path fill="#ffc" d="M81.6 40.8l3.45 2.15q1.65 1-.65 1-2.15-.35-3.65-1.5l.85-1.65m-1.65 2.5l.65.45q2.6 1.65 4.25 4.15 2.3 3.6-1.15 3.3-3.6-.5-3.45-3.95.2-2.15-1.3-3.15l1-.8M74 45.9l.65 1q2 1.95-.3 3.45-2.15 1.3-1.65-.65.5-2.15-.65-3.45L74 45.9m-10 1.5q.95 2.45-2 2.8-1.45.15-.8 1.95.5 1.35.3 3-.3 4.25-2.95.95-1-1.15-.35-2.3 1-3.1.35-5.4l5.45-1m-8.55 1.45q.3 1.85-1.65 1.65-.5 1.65-2.3 2.3-1.5.5-1-.45.8-1.85-1.15-1.85-1.15-.15-2.3 1.85l-1-.5q-1.65-1.35 1.15-3.8-1.3-2.65.5-3.6l.8 1.45q2.3 3.3 6.95 2.95"/><path fill="url(#a)" d="M55.45 48.85l1.6-.3h.2l1.3-.15q.65 2.3-.35 5.4-.65 1.15.35 2.3 2.65 3.3 2.95-.95.2-1.65-.3-3-.65-1.8.8-1.95 2.95-.35 2-2.8l8.05-1.15q1.15 1.3.65 3.45-.5 1.95 1.65.65 2.3-1.5.3-3.45l-.65-1 2.65-.8.3-.2q1.2-.3 2-.8 1.5 1 1.3 3.15-.15 3.45 3.45 3.95 3.45.3 1.15-3.3-1.65-2.5-4.25-4.15l-.65-.45.8-.85q1.5 1.15 3.65 1.5 2.3 0 .65-1L81.6 40.8q.45-1.45.15-3.45-.85-4.95-3.95-9.05l-6.6-7.75q-3.45-3.75-7.4-6.75-3.95-3.1-9.05-1.8-3.75 1-5.25 4.15-.8-3.5 2-4.65h.15l5.1-1.95q2.95-1 5.6.65l12 9.7.8 1-.8-1q.15-3.45-1.8-6.1-2.65-3.25-5.95-5.55-3.1-2.15-7.9-1.85l-5.55.35.15-.35 4.1-3.25Q59.7 1.3 63 1.5l6.25.45q3.1.2 5.4 2.15 2.3 2 3.8 4.45l2.8 4.6q1.8 2.5 2.3 5.3.65 2.95 2 5.9l2.45 6.9q.8 3 2.15 5.6-3.8 3.95-2.65 8.4.35.8.15 1.8Q87.15 51 91.6 51q-.5 3.65-1.8 6.75-1.5 3.65 1.15 6.1-1 2.8 1.3 3.95 4.8 2.15-.3 5.9-4.1 3-1 6.95 1.3 1.3 2.8 2.3 2.15 1.3 0 3.1l-4.3-.8q-2.3-.65-4.1-1.5-.5 5.1-3.75 7.6-3.45 2.6-7.25 4.6l-2.15.95-.3.2-12.2.15q-3.1 0-6.1-.8l-3.45-.85q-.3-1.65-3.1-2.65-6.25-2.1-.15-3.6 3.1-.65 6.25 0 2.95.65.8-1.5-1.65-1.3-3.8-1.6-4.6-.35-8.2-1.65 5.25.15 9.05-1.85-6.1-2.8-12.5-1.65l-2.65.35q-3.8-1.5-4.25 1.65-4.95-.65-5.8 1.5-.3.95.85 1.65 4.95 3.1 8.2 7.05.7.8.5 1.8l-.5 1.35q-.65.3-1.15.95-.8 1.15-1.95 1.85-2.45 1.3-3.6.3-3.3 1.15-5.6 1.5-1-2.5 0-5.3 1.95-5.25-2.8-5.75-4.1 4.8-7.9 4.95-.85.15-1.5-.35-2.95-1.95 1-4.4 3.8-2.15 6.4-5.8 2-2.8-2.1-3.6 5.05.65 8.2-3.3 1-1.3 1.15-2.45l-6.1-1.8q.65-2.15 1.8-3.5-.45-1.15.35-1.65l.65-.3q1.8-1.15 2.5-2.8l.15-.15 1.95-4.6.35-.85q1.5-2.45 3.8-4.25 2.45-2 5.4-1.85h4.45q.65-.5 1.3-.8l1-.15q1.95.15 3.45-.5l1 .5q1.15-2 2.3-1.85 1.95 0 1.15 1.85-.5.95 1 .45 1.8-.65 2.3-2.3 1.95.2 1.65-1.65m31.7 7.1q1.15 1.3.85 3.1-.5 2.65-3.6 3.15-2.65.5-3.3 2.65-.85 2.95 1.3 5.1 2.15.65 3.15 2.3 2.6.15 2.75 3.6l-4.4-.65q1.8 2.95-1.65 1.5-.2-2.8-2-4.45-1.3-1.15-1.95-2.65.65 1.5 1.95 2.65 1.8 1.65 2 4.45 3.45 1.45 1.65-1.5l4.4.65q-.15-3.45-2.75-3.6-1-1.65-3.15-2.3-2.15-2.15-1.3-5.1.65-2.15 3.3-2.65 3.1-.5 3.6-3.15.3-1.8-.85-3.1M38.8 55.6q.5-1.45 1.5-2.3-1 .85-1.5 2.3M20.7 69.75l1-1.95-1 1.95m13.5-7.4q-1.65 1.35-1.3 4.15.3 2.6 2.65 3.6l2.3.35-1-.7q-2.45-2.1-2.65-5.25v-2.15q.2-1.95 1.15-3.45-.95 1.5-1.15 3.45m3.95 8.25v-.15h-.3l.3.15q1.8 1 4.3 1 3.1-.2 5.75.95 1 .35 1.8.85l1.3.8-1.3-.8q-.8-.5-1.8-.85-2.65-1.15-5.75-.95-2.5 0-4.3-1m40.15-1q-.65-1.15-.85-2.65-.15-3.25 1.15-5.9l1-1.5q-3.3-.3-5.1 3-2.6 4.75 1.65 6.75l2 .3h.15M50 73.4q-3.8-.35-4.3 2.8.7 1.45 2 1.45l.65-.15q2.15-.65 5.25 0 1 .15 1.65-.5 2.15-2.45 0-5.1-1.95-2.3-4.75-3.3-2.8-.95-4.1-3.6-1.65-3.15 1.15-4.6-2.8 1.45-1.15 4.6 1.3 2.65 4.1 3.6 2.8 1 4.75 3.3 2.15 2.65 0 5.1-.65.65-1.65.5-3.1-.65-5.25 0l-.65.15q-1.3 0-2-1.45.5-3.15 4.3-2.8m32.9-16.45q-2 .8-3.3 2.6 1.3-1.8 3.3-2.6m-55.6 41.3q.15.8.85 1.3-.7-.5-.85-1.3"/><path fill="url(#b)" d="M53.15 6.75l5.55-.35q4.8-.3 7.9 1.85 3.3 2.3 5.95 5.55 1.95 2.65 1.8 6.1l-12-9.7q-2.65-1.65-5.6-.65l-5.1 1.95h-.15q-.2-2.95 1.65-4.75"/><path fill="url(#c)" d="M76.65 45.1l-2.65.8-1.95.35L64 47.4l-5.45 1-1.3.15h-.2q-.3-1.15-1.6-1.65-2.8-1-5.1-2.95-2.15-1.65-1.35-5.1l1-5.75-.15-5.95q-.2-1.5.15-2.95l.5-2.3.3 1.3q.7 2.8 1.85 5.75.95 2.95 2.45 5.45 1.3 2.6 3.3 4.75 1 1.15 1.8 2.65 0-6.6-.65-14l-.65-6.4-.7-2.5 1.5-.45 4.1 14.45q.85 2.95 1.85 5.75.65 1.35.8 2.65 1.5-3.1 1.5-7.25l-.2-5.1-.3-2.95q0-2.45-.5-4.6l-.65-2.65q1.45.65 2.6 2l3.45 4.45q1.85 2.3 3.15 4.75l2.65 5.1q1.15 2.45.8 5.6 0 1-.5 1.3-1.8 1.35-1.8 2.95v.2"/><path fill="url(#d)" d="M49.5 16.15Q51 13 54.75 12q5.1-1.3 9.05 1.8 3.95 3 7.4 6.75l6.6 7.75q3.1 4.1 3.95 9.05.3 2-.15 3.45l-.85 1.65-.8.85-1 .8q-.8.5-2 .8h-.3q0-1.6 1.8-2.95.5-.3.5-1.3.35-3.15-.8-5.6l-2.65-5.1q-1.3-2.45-3.15-4.75l-3.45-4.45q-1.15-1.35-2.6-2l-.65-1.65q-.35-.8-1.2-1.45Q63 14.3 61 14q-2.45-.35-2.1 1.95l.8 2.5-1.5.45-.45-.8q-.7-1.5-1.65-2.3-1.35-1.3-3.8-.65-1.3.5-1.65 1l-.5.8v1.3q0 1.85.35 3.65l-.5 2.3q-.35 1.45-.15 2.95L50 33.1l-1 5.75q-.8 3.45 1.35 5.1 2.3 1.95 5.1 2.95 1.3.5 1.6 1.65l-1.6.3q-4.65.35-6.95-2.95l-.8-1.45q-1.65-3.5-.15-8.1 1.15-3.95.95-7.4-.65-5.4.2-10.2.15-1.45.8-2.6"/><path fill="url(#e)" d="M88 31.25q1 2.15 2.45 3.95 1.8 2.65 2 5.6 0 1.65-.85 2.65v.15q.2 2.95 1.8 5.45l1 1.8-2.8.15q-4.45 0-3.95-3.95.2-1-.15-1.8-1.15-4.45 2.65-8.4-1.35-2.6-2.15-5.6m2.15 14.15q.15-.65.65-.95l.8-.85-.8.85q-.5.3-.65.95"/><path fill="url(#f)" d="M94.4 50.85q.5 1.8-.3 3.8-.5 1.65-1.85 2.6.85 3 3.3 4.8 2.65 1.8 3.45 4.75 1 3.45-1.15 5.25l-.5.5h-.15l.35.5q.3 2.3 1.3 4.45 1.5 2.8 1 6.1-.35 3.1-2.95 5.25l-.2.15q-2.45 1.85-5.25 2.15l-3.15.35q.85-2.95 1.15-6.25l4.3.8q2.15-1.8 0-3.1-1.5-1-2.8-2.3-3.1-3.95 1-6.95 5.1-3.75.3-5.9-2.3-1.15-1.3-3.95-2.65-2.45-1.15-6.1 1.3-3.1 1.8-6.75l2.8-.15m.65 24l2.15-2.3-2.15 2.3"/><path fill="url(#g)" d="M79.6 59.55l-1 1.5q-1.3 2.65-1.15 5.9.2 1.5.85 2.65h-.15l-2-.3q-4.25-2-1.65-6.75 1.8-3.3 5.1-3"/><path fill="url(#h)" d="M21.7 27.15v-.8q-3.95.95-7.25-1.85l-2.3-2.3L11 20.55l1-.15-1 .15-.95-2.1Q8.7 15.3 9.2 12l.5-1.95 1.3.5-1.3-.5Q11 5.9 14 4.1l.45-.3 1.5-.65q3.15-1.35 6.75-1.5 4.25-.15 7.75 1.65 1.3.65 2.45 1.8l1.15 2q.65 1.15.8 2.6.35 4.6-1.95 8.25l-1.5 2.3-.95 1.3L28.3 24q-2.15 2.35-4.8 2.8l.5.85-2.3-.5M32.75 7.4l1.3-.3-1.3.3m-2.5-1.15L32.9 5.1l-2.65 1.15M28.8 17.6l2.6 2.65-2.6-2.65M15.95 3.15l.35 1.15-.35-1.15m-.8 2.1L14 4.1l1.15 1.15M10.2 12.2l-1-.2 1 .2m1.95 10l1.35-.5-1.35.5"/><path fill="url(#i)" d="M24.35 64.85L21.7 63.2q-3.45-2-5.6-5.6-1.95-3.3-3.6-6.9-1.8-3.95.35-7.9.95-1.65 2.8-2.5 3.6-1.8 6.25-4.45 3.1-3.1.45-7.2l-.65-1.5 2.3.5q1 1.8 1.5 4.1.3 1.8-.35 3.45-1.8 3.45-5.6 5.6-1.8 1.15-2.6 3.15-1.65 3.95 0 8.2 1.45 4.15 5.25 6.25 2 1.15 4.1 1.85l-1.95 4.6"/><path fill="url(#j)" d="M22.55 101.05l-1.35.15q-2.8.35-3.1-1.8l-2.65.15q-2.95.5-6.05 0-2-.15-2.5-1.65-.65-2.15.5-3.95L9.85 90q-.15-1.3.35-2.6l1.8-5.6q1-2.8 3.65-4.3 2.45-1.3 3.25-4.25l6.1 1.8q-.15 1.15-1.15 2.45-3.15 3.95-8.2 3.3 4.1.8 2.1 3.6-2.6 3.65-6.4 5.8-3.95 2.45-1 4.4.65.5 1.5.35 3.8-.15 7.9-4.95 4.75.5 2.8 5.75-1 2.8 0 5.3m-8.25-17.3l-3.6 4.95-.85 1.3.85-1.3 3.6-4.95m4.95 9.9q-1.5 2.6-1.15 5.75-.35-3.15 1.15-5.75"/><path fill="url(#k)" d="M37.85 70.45l-2.3-.35q-2.35-1-2.65-3.6-.35-2.8 1.3-4.15v2.15q.2 3.15 2.65 5.25l1 .7"/><path fill="url(#l)" d="M50.15 95.6l-7.55-2.15-.35.35q-2.1 1.8-5.25 2.15-1.3 0-2.15.5l.5-1.35q.2-1-.5-1.8-3.25-3.95-8.2-7.05-1.15-.7-.85-1.65.85-2.15 5.8-1.5.45-3.15 4.25-1.65l2.65-.35q6.4-1.15 12.5 1.65-3.8 2-9.05 1.85 3.6 1.3 8.2 1.65 2.15.3 3.8 1.6 2.15 2.15-.8 1.5-3.15-.65-6.25 0-6.1 1.5.15 3.6 2.8 1 3.1 2.65M33.7 85.55q2 1.85 3.95 4.45 1.8 2.3 4.6 3.3l.35.15-.35-.15q-2.8-1-4.6-3.3-1.95-2.6-3.95-4.45"/><path fill="url(#m)" d="M96.7 89q2.95 1.5 2.95 4.45.2.65-.3 1-2.45.85-5.1.5.5 2.45-1.15 3.3l-1.8.3-5.75-.15-.35.15q-1.65 1.5-4.1.7-2.65-.85-5.1-2.15l-1-.35 3.3-.65 5.9-1.15q3.15-.65 4.1-3.45l3.15-.35q2.8-.3 5.25-2.15m-2.95 4.65l.5 1.3-.5-1.3"/><path fill="url(#n)" d="M75 96.75l-2.8.35v-.2l2.15-.95q3.8-2 7.25-4.6 3.25-2.5 3.75-7.6 1.8.85 4.1 1.5-.3 3.3-1.15 6.25-.95 2.8-4.1 3.45l-5.9 1.15-3.3.65"/><path fill="none" stroke="#919191" stroke-width=".05" stroke-linecap="round" stroke-linejoin="round" d="M53.15 6.75l.15-.35 4.1-3.25Q59.7 1.3 63 1.5l6.25.45q3.1.2 5.4 2.15 2.3 2 3.8 4.45l2.8 4.6q1.8 2.5 2.3 5.3.65 2.95 2 5.9l2.45 6.9q1 2.15 2.45 3.95 1.8 2.65 2 5.6 0 1.65-.85 2.65v.15q.2 2.95 1.8 5.45m1 1.8q.5 1.8-.3 3.8-.5 1.65-1.85 2.6.85 3 3.3 4.8 2.65 1.8 3.45 4.75 1 3.45-1.15 5.25l-.5.5.2.5q.3 2.3 1.3 4.45 1.5 2.8 1 6.1-.35 3.1-2.95 5.25l-.2.15m-2.45 5.95q.5 2.45-1.15 3.3l-1.8.3-5.75-.15-.35.15m-13-1.45h-.3l-12.2.15q-3.1 0-6.1-.8l-3.45-.85-7.55-2.15-.35.35q-2.1 1.8-5.25 2.15-1.3 0-2.15.5-.65.3-1.15.95-.8 1.15-1.95 1.85-2.45 1.3-3.6.3-3.3 1.15-5.6 1.5M7.4 93.95L9.85 90q-.15-1.3.35-2.6l1.8-5.6q1-2.8 3.65-4.3 2.45-1.3 3.25-4.25.65-2.15 1.8-3.5-.45-1.15.35-1.65l.65-.3q1.8-1.15 2.5-2.8l.15-.15M21.7 63.2q-3.45-2-5.6-5.6-1.95-3.3-3.6-6.9-1.8-3.95.35-7.9.95-1.65 2.8-2.5 3.6-1.8 6.25-4.45 3.1-3.1.45-7.2l-.65-1.5m-9.55-4.95q-1.3.5-2.3 1.65M91.6 43.6l-.8.85q-.5.3-.65.95m-8.55-4.6l3.45 2.15q1.65 1-.65 1-2.15-.35-3.65-1.5m-.8.85l.65.45q2.6 1.65 4.25 4.15 2.3 3.6-1.15 3.3-3.6-.5-3.45-3.95.2-2.15-1.3-3.15m-2 .8l-.3.2m-2.65.8l.65 1q2 1.95-.3 3.45-2.15 1.3-1.65-.65.5-2.15-.65-3.45M64 47.4q.95 2.45-2 2.8-1.45.15-.8 1.95.5 1.35.3 3-.3 4.25-2.95.95-1-1.15-.35-2.3 1-3.1.35-5.4m-1.5.15l-1.6.3q.3 1.85-1.65 1.65-.5 1.65-2.3 2.3-1.5.5-1-.45.8-1.85-1.15-1.85-1.15-.15-2.3 1.85l-1-.5q-1.5.65-3.45.5l-1 .15q-.65.3-1.3.8-1 .85-1.5 2.3m39.5 14q.65 1.5 1.95 2.65 1.8 1.65 2 4.45 3.45 1.45 1.65-1.5l4.4.65q-.15-3.45-2.75-3.6-1-1.65-3.15-2.3-2.15-2.15-1.3-5.1.65-2.15 3.3-2.65 3.1-.5 3.6-3.15.3-1.8-.85-3.1m10.2 16.6h-.15l.35.5M75 96.75l3.3-.65 5.9-1.15q3.15-.65 4.1-3.45m5.95 3.45l-.5-1.3m3.45-21.1l-2.15 2.3M74.35 19.9l.8 1m-.8-1l-12-9.7q-2.65-1.65-5.6-.65l-5.1 1.95h-.15q-2.8 1.15-2 4.65m2-4.65q-.2-2.95 1.65-4.75m-5.45 37.7q-1.8.95-.5 3.6-2.8 2.45-1.15 3.8M32.9 5.1l3.95-1.95m-2.8 3.95l2.3-.5m-5.9 14.95l1.6 2m-.65-3.3l3.8 3.3M15.95 3.15q-.3-1.2-1-2.15M14 4.1L10.2 0m-1 12l-4.9-.3m5.4-1.65Q6.4 8.9 2.8 8.4L0 8.05m11 12.5q-2.3.35-4.25 2m19.55 37.7q-2.1-.7-4.1-1.85-3.8-2.1-5.25-6.25-1.65-4.25 0-8.2.8-2 2.6-3.15 3.8-2.15 5.6-5.6M40.3 53.3h-4.45q-2.95-.15-5.4 1.85-2.3 1.8-3.8 4.25l-.35.85-1.95 4.6M21.7 67.8l-1 1.95m13.5-7.4q.2-1.95 1.15-3.45m-1.15 3.45v2.15q.2 3.15 2.65 5.25l1 .7m.3.15q1.8 1 4.3 1 3.1-.2 5.75.95 1 .35 1.8.85l1.3.8m-13.15-3.6l-.3-.15M9.85 90l.85-1.3 3.6-4.95m28.3 9.7l-.35-.15q-2.8-1-4.6-3.3-1.95-2.6-3.95-4.45m45.9-26l-1 1.5q-1.3 2.65-1.15 5.9.2 1.5.85 2.65m1.3-10.05q1.3-1.8 3.3-2.6M47.55 60.4q-2.8 1.45-1.15 4.6 1.3 2.65 4.1 3.6 2.8 1 4.75 3.3 2.15 2.65 0 5.1-.65.65-1.65.5-3.1-.65-5.25 0l-.65.15q-1.3 0-2-1.45.5-3.15 4.3-2.8M28.15 99.55q-.7-.5-.85-1.3"/><path fill="none" stroke="#146BF9" stroke-width=".05" stroke-linecap="round" stroke-linejoin="round" d="M93.4 49.05l1 1.8M96.7 89q2.95 1.5 2.95 4.45.2.65-.3 1-2.45.85-5.1.5m-9.05 3.6q-1.65 1.5-4.1.7-2.65-.85-5.1-2.15l-1-.35-2.8.35m-49.65 3.95l-1.35.15q-2.8.35-3.1-1.8l-2.65.15q-2.95.5-6.05 0-2-.15-2.5-1.65-.65-2.15.5-3.95m16.95-29.1L21.7 63.2m27.8-47.05Q51 13 54.75 12q5.1-1.3 9.05 1.8 3.95 3 7.4 6.75l6.6 7.75q3.1 4.1 3.95 9.05.3 2-.15 3.45l-.85 1.65-.8.85-1 .8q-.8.5-2 .8m12.5 40.35q-.3 3.3-1.15 6.25l3.15-.35q2.8-.3 5.25-2.15M49.5 16.15q-.65 1.15-.8 2.6-.85 4.8-.2 10.2.2 3.45-.95 7.4-1.5 4.6.15 8.1l.8 1.45q2.3 3.3 6.95 2.95M25.15 35.2q.65-1.65.35-3.45-.5-2.3-1.5-4.1M18.1 99.4q-.35-3.15 1.15-5.75"/><path fill="none" stroke="#730000" stroke-width=".05" stroke-linecap="round" stroke-linejoin="round" d="M76.65 45.1l-2.65.8m-1.95.35L64 47.4m-5.45 1l-1.3.15h-.2M50.5 21.9l-.5 2.3q-.35 1.45-.15 2.95L50 33.1l-1 5.75q-.8 3.45 1.35 5.1 2.3 1.95 5.1 2.95 1.3.5 1.6 1.65m19.6-3.65q0-1.6 1.8-2.95.5-.3.5-1.3.35-3.15-.8-5.6l-2.65-5.1q-1.3-2.45-3.15-4.75l-3.45-4.45q-1.15-1.35-2.6-2m5.75 27.5L74 45.9m2.65-.8v-.2m-18.1 3.5l5.45-1"/><path fill="none" stroke="#666" stroke-width=".05" stroke-linecap="round" stroke-linejoin="round" d="M66.3 18.75l.65 2.65q.5 2.15.5 4.6l.3 2.95.2 5.1q0 4.15-1.5 7.25-.15-1.3-.8-2.65-1-2.8-1.85-5.75l-4.1-14.45m-1.5.45l.7 2.5.65 6.4q.65 7.4.65 14-.8-1.5-1.8-2.65-2-2.15-3.3-4.75-1.5-2.5-2.45-5.45Q51.5 26 50.8 23.2l-.3-1.3m15.8-3.15l-.65-1.65q-.35-.8-1.2-1.45Q63 14.3 61 14q-2.45-.35-2.1 1.95l.8 2.5m-1.5.45l-.45-.8q-.7-1.5-1.65-2.3-1.35-1.3-3.8-.65-1.3.5-1.65 1l-.5.8v1.3q0 1.85.35 3.65"/><path fill="none" stroke="#B01600" stroke-width=".05" stroke-linecap="round" stroke-linejoin="round" d="M21.7 27.15v-.8q-3.95.95-7.25-1.85l-2.3-2.3L11 20.55l1-.15m3.95-17.25q3.15-1.35 6.75-1.5 4.25-.15 7.75 1.65 1.3.65 2.45 1.8l-2.65 1.15m1.15 14l1.5-2.3q2.3-3.65 1.95-8.25-.15-1.45-.8-2.6l-1.3.3m1.3-.3l-1.15-2M24 27.65l-.5-.85q2.65-.45 4.8-2.8l2.15-2.45.95-1.3-2.6-2.65M16.3 4.3l-.35-1.15-1.5.65-.45.3 1.15 1.15m-5.45 4.8L9.2 12l1 .2m3.3 9.5l-1.35.5M11 20.55l-.95-2.1Q8.7 15.3 9.2 12m.5-1.95l1.3.5m3-6.45q-3 1.8-4.3 5.95"/></svg>