<svg xmlns="http://www.w3.org/2000/svg" viewBox="0 0 100.0 98.6" width="100.0" height="98.6"><defs><linearGradient gradientUnits="userSpaceOnUse" x1="-819.2" x2="819.2" gradientTransform="matrix(.019 0 0 .012 77.55 15.7)" id="a"><stop offset="0" stop-color="#ff9"/><stop offset=".192" stop-color="#ff0"/><stop offset=".588"/><stop offset="1" stop-color="#f00"/></linearGradient><linearGradient gradientUnits="userSpaceOnUse" x1="-819.2" x2="819.2" gradientTransform="matrix(.019 .012 -.01 .017 77.05 41.7)" id="b"><stop offset="0" stop-color="#ff0"/><stop offset="1" stop-color="#0cf"/></linearGradient><linearGradient gradientUnits="userSpaceOnUse" x1="-819.2" x2="819.2" gradientTransform="matrix(.012 0 0 .023 43.4 19.7)" id="c"><stop offset="0" stop-color="#ff0"/><stop offset="1" stop-color="#0cf"/></linearGradient><radialGradient gradientUnits="userSpaceOnUse" r="819.2" cx="0" cy="0" spreadMethod="pad" gradientTransform="matrix(.017 0 0 .017 60.35 41)" id="d"><stop offset="0" stop-color="#ff9"/><stop offset=".427" stop-color="#6cc"/><stop offset=".937"/></radialGradient><radialGradient gradientUnits="userSpaceOnUse" r="819.2" cx="0" cy="0" spreadMethod="pad" gradientTransform="matrix(.022 0 0 .02 34.9 47)" id="e"><stop offset="0" stop-color="#ff9"/><stop offset=".427" stop-color="#fc0"/><stop offset=".894"/></radialGradient><linearGradient gradientUnits="userSpaceOnUse" x1="-819.2" x2="819.2" gradientTransform="matrix(.001 -.005 .005 .001 63.55 58.6)" id="f"><stop offset="0" stop-color="#ff9"/><stop offset=".431" stop-color="#930"/><stop offset=".737"/><stop offset=".922" stop-color="#630"/></linearGradient><linearGradient gradientUnits="userSpaceOnUse" x1="-819.2" x2="819.2" gradientTransform="matrix(.006 0 0 .017 53.1 61.25)" id="g"><stop offset="0" stop-color="#ff9"/><stop offset=".427" stop-color="#FF3922"/><stop offset=".894" stop-color="#f00"/></linearGradient><linearGradient gradientUnits="userSpaceOnUse" x1="-819.2" x2="819.2" gradientTransform="matrix(.001 -.006 .003 .001 74.8 60.25)" id="h"><stop offset="0" stop-color="#ff9"/><stop offset=".431" stop-color="#930"/><stop offset=".737"/><stop offset=".922" stop-color="#630"/></linearGradient><linearGradient gradientUnits="userSpaceOnUse" x1="-819.2" x2="819.2" gradientTransform="matrix(.003 -.004 .003 .002 79.7 64.95)" id="i"><stop offset="0" stop-color="#ff9"/><stop offset=".431" stop-color="#930"/><stop offset=".737"/><stop offset=".922" stop-color="#630"/></linearGradient><linearGradient gradientUnits="userSpaceOnUse" x1="-819.2" x2="819.2" gradientTransform="matrix(.008 -.004 .005 .009 73.15 70.15)" id="j"><stop offset="0" stop-color="#ff9"/><stop offset=".431" stop-color="#930"/><stop offset=".737"/><stop offset=".922" stop-color="#630"/></linearGradient><linearGradient gradientUnits="userSpaceOnUse" x1="-819.2" x2="819.2" gradientTransform="matrix(.005 -.002 .004 .011 48.9 69.45)" id="k"><stop offset="0" stop-color="#ff9"/><stop offset=".431" stop-color="#930"/><stop offset=".737"/><stop offset=".922" stop-color="#630"/></linearGradient><linearGradient gradientUnits="userSpaceOnUse" x1="-819.2" x2="819.2" gradientTransform="matrix(.012 0 0 .011 10.5 50.5)" id="l"><stop offset="0" stop-color="#ff9"/><stop offset=".427" stop-color="#FF3922"/><stop offset=".894" stop-color="#f00"/></linearGradient><radialGradient gradientUnits="userSpaceOnUse" r="819.2" cx="0" cy="0" spreadMethod="pad" gradientTransform="matrix(.016 0 0 .016 41.85 25.3)" id="m"><stop offset="0" stop-color="#ff9"/><stop offset=".427" stop-color="#6cc"/><stop offset=".937"/></radialGradient><linearGradient gradientUnits="userSpaceOnUse" x1="-819.2" x2="819.2" gradientTransform="matrix(.012 0 0 .012 23.6 31.45)" id="n"><stop offset="0" stop-color="#ff0"/><stop offset="1" stop-color="#0cf"/></linearGradient><radialGradient gradientUnits="userSpaceOnUse" r="819.2" cx="0" cy="0" spreadMethod="pad" gradientTransform="matrix(.007 0 0 .007 28.45 36.05)" id="o"><stop offset="0" stop-color="#ff9"/><stop offset=".427" stop-color="#6cc"/><stop offset=".937"/></radialGradient><radialGradient gradientUnits="userSpaceOnUse" r="819.2" cx="0" cy="0" spreadMethod="pad" gradientTransform="matrix(.011 0 0 .011 21.35 57.85)" id="p"><stop offset="0" stop-color="#ff9"/><stop offset=".427" stop-color="#006"/><stop offset=".894"/></radialGradient><radialGradient gradientUnits="userSpaceOnUse" r="819.2" cx="0" cy="0" spreadMethod="pad" gradientTransform="matrix(.015 0 0 .015 29.55 55.4)" id="q"><stop offset="0" stop-color="#ff9"/><stop offset=".427" stop-color="#ff3"/><stop offset=".894" stop-color="#f00"/></radialGradient><radialGradient gradientUnits="userSpaceOnUse" r="819.2" cx="0" cy="0" spreadMethod="pad" gradientTransform="matrix(.009 0 0 .009 25.35 63.1)" id="r"><stop offset="0" stop-color="#ff9"/><stop offset=".427" stop-color="#fc0"/><stop offset=".894"/></radialGradient><radialGradient gradientUnits="userSpaceOnUse" r="819.2" cx="0" cy="0" spreadMethod="pad" gradientTransform="matrix(.012 0 0 .012 36.85 61.45)" id="s"><stop offset="0" stop-color="#ff9"/><stop offset=".427" stop-color="#006"/><stop offset=".894"/></radialGradient><linearGradient gradientUnits="userSpaceOnUse" x1="-819.2" x2="819.2" gradientTransform="matrix(.002 .007 -.004 .001 12.15 65.95)" id="t"><stop offset="0" stop-color="#ff9"/><stop offset=".431" stop-color="#930"/><stop offset=".737"/><stop offset=".922" stop-color="#630"/></linearGradient></defs><path fill="#f90" d="M62.1 23.35l-.3.65-.2.3q.2 1 1.75 1.4l2.35.1q1.85-.2 2.95-1.7l.4-.55 6.05 1.75-11.45 2.8-2.05.7q-1.15-2.55-3.3-3.9l-1.6-.8-1.25-.45 6.65-.3M78.4 55.7l-1.35 1.05-1.45.8-1.7.55 1-1.35.8-1.85 2.7.8M57.1 30.55l-.3.1-6.45 3.15q-3.1 1.55-5.15 3.5l4.75-6.35 1.9-2.75v-.1l.75-1.35v-.2l.2.1 3.35 2.65.95 1.15v.1m10.55 22l2.45.7-1.45 2.15-.5.55-.2.1-4.8-.55-.55.1-.7-.2v-.1l.7-1.1q.85-1.55.85-3.2l4.2 1.55M53.5 58.9l-1.4-1.75-2.6-.7 1.55-1.35.4-.5.85 1.85 1.2 2.45m-.1-12.5q1.85.3 3.5 1.35l2.65 1.4-.5 1.95-1.45 3.5h-1.45l-2.25.7-1.4-2.25 3.05-4.7-2.75.9.6-2.85m-1.3 10.75l-.25-.4.45-.3-.45.3.25.4"/><path d="M98.65 24.6l.5-.2h.85l-.25.2-1 .6-2.15.3h-.3l-13.5 1.65-12.3.2-1.75.4-4.4 1.65-11.45 6.65-1.85 1.45.4-1.45-6.25 1.45v-.2q2.05-1.95 5.15-3.5l6.45-3.15.3-.1 4.5-1.75-4.5 1.75v-.1l-.95-1.15-3.35-2.65-.2-.1.5-2.35 2.35-.55 1.25.45 1.6.8q2.15 1.35 3.3 3.9l2.05-.7 11.45-2.8 20.8-.3 1-.1 1.75-.3m-2.05.9l.3-.6-.3.6M73.9 58.1l-.35.1-5.6-2.15.2-.1.5-.55 1.45-2.15 5.6 1.65-.8 1.85-1 1.35m13.9 8.6q2.95 1.8 5.2 4.9l4.95 5.4q-2.35-.3-4.85-1.4l-2.45-1.25Q88.1 72.8 87 70.45L84.95 67l2.85-.3m-8.3 11.65l3.2 7.45 4.05 6.8-6.4-5.95v-.1L79.3 84.8q-1.85-3.3-2.95-6.95l2.55.3.6.2m-30.1 4.6q3.5-.2 6.65 1.55l5.85 3.6 3.15 2.85q-2.85-1.35-6.1-2.05l-.65-.2-3.75-.5q-2.8-.35-4.85-1.65l-2.45-1.65 2.15-1.95M28.55 68.7L28 72.5q.25 4.95-.5 8.2l-1-9.6q-1.15 1.4-1.55 3.85l-.5 2.35-1.75-5.6-1.35 1.45 1.25-5.45.4.3q1.65 1.25 3.6 1.05l1.95-.35M5.4 74.65q1.05 3.1 3.4 5.75l3.95 5.75q.75 1.1.85 2.45l-3.7-5.05-3.15-3.15Q5.1 79.15 5 76.9l.1-1.75.3-.5M25.85 50.6l-5.2-6.95-1.85-2.15-1.5-1.45 3.55 1.75 2.85 2.75L27 50.2l.8 1.95q-.8.3-1.4-.75l-.55-.8m.15-7.8l-4.2-3.95q-2.8-2.3-5.25-5.45-2.05-2.45-2.85-5.95-.95-3.9-.7-7.85l.5-2.15.2 4.2L14.8 25q1.95 4.5 4.6 8.4l4.3 5.2 2.6 2.4.1.1-.4 1.7m4.7-19.45l-.3-5.6q0-4 2.55-7.2l4.6-5.6q2.05-2.7 4.9-4.1L44.1 0l-1.35 1.15-.1.1-3.35 3.4q-2.45 2.75-4.2 6.45-1.65 3.35-1.55 7.65l.1 1.75L35.2 29l.3 6.55-.2.1-1.65 1.05-.8-3.7-.95-3.4-.1-.2-.9-4-.2-2.05m17.2 25l-.45.2-.3.2-2.45 1.35-5.6 2.55-.85.4-2.05.95q-.8.3-1.65-.55l3.2-1.8 4.4-2.5q1.85-1 4-1.6l.3-.1 4.4-.75-1.75.85-1.2.8m11.65.8l3.9 1.85q0 1.65-.85 3.2l-.7 1.1v.1l-4.3-.8 1.45-3.5.5-1.95"/><path fill="#6f0" d="M24.45 77.3l-1.15 7.1.1 4.4.45 3.05v.1l.2 1.25-.65-.2-2.55-1.15-1.2-3.15q-.75-2.45-.45-4.8l2.15-10.75 1.35-1.45 1.75 5.6"/><path fill="#f00" d="M24.05 93.2l1.8 5.4L23 95.35l-2.15-3.5L23.4 93l.65.2"/><path fill="url(#a)" d="M86.15 6.25l7.4-.6-3.9 1.45-12.1 7.45-7.95 8.2-.55.8-.4.55q-1.1 1.5-2.95 1.7l-2.35-.1q-1.55-.4-1.75-1.4l.2-.3.3-.65q1.55-2.95 4.1-5.6l5.65-4.95Q75 10.45 78.6 8.95l7.55-2.7"/><path fill="url(#b)" d="M64.35 29.4l4.4-1.65 1.75-.4 12.3-.2 13.5-1.65h.3q-2.35 2.45-2.75 5.95L91.8 45.8q-.75 3.7-2.25 6.55-1.95 3.15-4.3 5.3l-2.65-.1-4.2-1.85-2.7-.8-5.6-1.65-2.45-.7-.45-1.25-5.2-7.65-1.1-1.95-.1-.4q-.85-1.95 3.35-2.9l7.5-1.5-3.4-.2q-6.35-.95-12.6-.15 1.95-2.55 4.9-4.5l3.8-2.65"/><path fill="url(#c)" d="M42.65 1.25q-.1 4.6 2.05 7.8l4.6 5.6q2.8 2.8 3.6 6.25l.3 2.35-.1.95-.5 2.35v.2l-.75 1.35v.1l-1.9 2.75-.45.1-1.3.1q-1.45-.2-1.45-1.95l.3-1.95q.6-2.35 1.85-4.1l-4.9 3.8-6.75 4.8L39.1 12.4q-2.25 1.95-3.8 4.6l-1.65 3.5-.1-1.75q-.1-4.3 1.55-7.65 1.75-3.7 4.2-6.45l3.35-3.4"/><path fill="url(#d)" d="M51.05 37.5l1.85-1.45 11.45-6.65-3.8 2.65q-2.95 1.95-4.9 4.5 6.25-.8 12.6.15l3.4.2-7.5 1.5q-4.2.95-3.35 2.9l.1.4 1.1 1.95 5.2 7.65.45 1.25-4.2-1.55-3.9-1.85-2.65-1.4q-1.65-1.05-3.5-1.35.85-3.05 1.95-5.75-2.85 1.75-6.25 2.7l1.95-5.85"/><path fill="url(#e)" d="M51.05 37.5l-1.95 5.85q3.4-.95 6.25-2.7-1.1 2.7-1.95 5.75l-.6 2.85 2.75-.9-3.05 4.7-3.4-5.5 1.75-.85-4.4.75-.3.1q-2.15.6-4 1.6l-4.4 2.5-.8-1.15q-2.15-2.25-1.35-5.3l-.9.9q-1.75 1.45-3.8 2.45L27 50.2l-.7-4.2q-.55-1.65-.3-3.2l.4-1.7V41l1.4-3.1-.1 3.4 4.6-3.8 1.25-.8h.1l1.65-1.05.2-.1 11.95-4.3q-3.35 2.95-5.1 6.95l2.25-.5.3-.1.3-.1 6.25-1.45-.4 1.45M49.5 56.45l-.5.2q-.5 2.35.7 3.15l-1.8-.1-.65.65.4 1-4.4.4-.5-.1v-.1q.65-1.3.65-2.85v-4.8l-4.85.4-.2.1-.1-1.35.85-.4 5.6-2.55 2.45-1.35.3-.2.45-.2 3.55 6.25-.4.5-1.55 1.35"/><path fill="url(#f)" d="M71.5 61.25l1.75 1.45-2.25-.45-4.7-.5h-.8l-5.25-.4-3.9-1-1.4-3.3-1.05-1.65v-.1l2.25-.7h1.45l4.3.8.7.2.55.1 3.25 1.55.1.1 1.95 1.25 3.05 2.65"/><path fill="url(#g)" d="M56.35 60.35l1.15 3.05.8 4.3.1 4.5-.4 2.65-.1-1.6-.7-4.3-3.7-10.05-1.2-2.45-.85-1.85-3.55-6.25 1.2-.8 3.4 5.5 1.4 2.25v.1l1.05 1.65 1.4 3.3"/><path fill="url(#h)" d="M73.55 58.2l5.65 2.45 7.05 1H79.2l-1.45-.2-5.1-.2H71.5l-3.05-2.65-1.95-1.25-.1-.1-3.25-1.55v-.2l4.8.55 5.6 2.15"/><path fill="url(#i)" d="M87.8 66.7l-2.85.3-.45.1q-4.5.2-7.75-1.75-1.85-1.15-4.1-4.1l5.1.2 1.45.2h.2q2.75 2.35 6.35 3.4l3.3 1.4-1.25.25"/><path fill="url(#j)" d="M71 62.25l5.25 5.15q2.85 2.55 3.65 6.15.55 2.45.1 5l-.5-.2-.6-.2-2.55-.3q-1.95 0-3.3-1.85l-4.7-6.65-2.05-7.6 4.7.5"/><path fill="url(#k)" d="M47.9 59.7l4.2 5.75q2.25 2.05 2.95 5.95v4l-1.75.3q-1.2 4.2-3.5 6.75l-.4.5-2.15 1.95h-.1l-1.2.8 4.4-8.5L49 79.05q-1-2.95-3.45-6.25-1.95-2.65-2.5-5.6-.4-2.15.2-5.45l4.4-.4-.4-1 .65-.65m5.4 16q-1.55.4-2.65 1.3l-.3.2.3-.2q1.1-.9 2.65-1.3"/><path fill="url(#l)" d="M20.65 43.65L14.7 45.8l-4.6 3.55L.5 59.7v-.1l5.3-7.15 9.55-8.8q1.5-1.45 3.45-2.15l1.85 2.15"/><path fill="url(#m)" d="M33.65 20.5L35.3 17q1.55-2.65 3.8-4.6l-1.85 19.35 6.75-4.8 4.9-3.8q-1.25 1.75-1.85 4.1l-.3 1.95q0 1.75 1.45 1.95l1.3-.1.45-.1-4.75 6.35-.3.3-.3.1-2.25.5q1.75-4 5.1-6.95l-11.95 4.3-.3-6.55-1.55-8.5"/><path fill="url(#n)" d="M13.7 21.65q3.05 1.9 7.05 1.7h9.95l.2 2.05.9 4 .1.2.95 3.4-.2.9q-.35 1.05-1.15 1.15-3.05 0-3.4-4.2 0 1.55-.5 2.85l-.2.4q-2.05 4.3-4.1-1.1l.4 5.6-4.3-5.2q-2.65-3.9-4.6-8.4l-1.1-3.35"/><path fill="url(#o)" d="M33.65 36.7h-.1l-1.25.8-4.6 3.8.1-3.4-1.4 3.1h-.1l-2.6-2.4-.4-5.6q2.05 5.4 4.1 1.1l.2-.4q.5-1.3.5-2.85.35 4.2 3.4 4.2.8-.1 1.15-1.15l.2-.9.8 3.7"/><path fill="url(#p)" d="M18.5 62.5q-.6-3.3-.1-6.55.3-2.3 1.45-4l2.65-2.9 2.15 2.25-1.15.75q-1.6 1.2-2.25 3.25l-.5 1.75-.6 2.25-.4 3.5q-.1 1.75.6 2.95v1.05l-.1.1-.85-1.55-.9-2.35v-.5"/><path fill="url(#q)" d="M24.65 51.3l1.2-.7.55.8q.6 1.05 1.4.75L27 50.2l3.9-1.65q2.05-1 3.8-2.45l.9-.9q-.8 3.05 1.35 5.3l.8 1.15-3.2 1.8q.85.85 1.65.55l2.05-.95.1 1.35-2.25 1.1-2.65 2.45-1.65 3.8-.7 3.6-.85.3V64.3q-.5 0-1.9.75.1-2.25-.85-2.25l-2.15 1.75-.4-1.25q-.1-1.85-.6-2.55Q23.5 63 22.1 63.7l-.55-1.85-.8-4.8.5-1.75q.65-2.05 2.25-3.25l1.15-.75"/><path fill="url(#r)" d="M30.6 68.1l-1.85.6h-.2l-1.95.35q-1.95.2-3.6-1.05l-.4-.3-1.35-1-.9-.95q-.7-1.2-.6-2.95l.4-3.5.6-2.25.8 4.8.55 1.85q1.4-.7 2.25-2.95.5.7.6 2.55l.4 1.25 2.15-1.75q.95 0 .85 2.25 1.4-.75 1.9-.75v1.35l.85-.3-.1.9-.4 1.85"/><path fill="url(#s)" d="M30.6 68.1l.4-1.85.1-.9.7-3.6 1.65-3.8 2.65-2.45 2.25-1.1.2-.1 4.85-.4v4.8q0 1.55-.65 2.85v.1q-1.2 2.65-3.25 4.3-1.95 1.55-4.4 2.05l-4.7 1.05.2-.95"/><path fill="url(#t)" d="M20.25 66.9l-3.4 1.2-4.5.95-3.45.3-.75 1.3-.1.55-2.65 3.45-.1-.5-.2 1-1.15 1.95.1-7.65-3.05.4 3.15-1.65.55-.2q3.35-1.65 6.95-2.65 3.25-.95 6.85-2.85v.5l.9 2.35.85 1.55M8.9 69.35l-4.85.1.1-1.25-.1 1.25 4.85-.1"/><path fill="none" stroke="#C0823B" stroke-width=".05" stroke-linecap="round" stroke-miterlimit="3" d="M98.65 24.6l.5-.2h-.2l-.3.2-1.75.3-.3.6 2.15-.3 1-.6.25-.2h-.85M78.6 8.95q-3.6 1.5-6.75 3.85l-5.65 4.95q-2.55 2.65-4.1 5.6l-.3.65-.2.3q.2 1 1.75 1.4l2.35.1q1.85-.2 2.95-1.7l.4-.55.55-.8 7.95-8.2m.85 41.15l-1.35 1.05-1.45.8-1.7.55-.35.1 5.65 2.45 7.05 1h.5M96.9 24.9l-1 .1-20.8.3-11.45 2.8-2.05.7-4.5 1.75-.3.1-6.45 3.15q-3.1 1.55-5.15 3.5l-.3.3.3-.1 6.25-1.45-.4 1.45 1.85-1.45 11.45-6.65M87.8 66.7l-2.85.3-.45.1q-4.5.2-7.75-1.75-1.85-1.15-4.1-4.1H71.5l1.75 1.45-2.25-.45 5.25 5.15q2.85 2.55 3.65 6.15.55 2.45.1 5l-.5-.2-.6-.2-2.55-.3q-1.95 0-3.3-1.85l-4.7-6.65-2.05-7.6h-.8l-5.25-.4-3.9-1M53.5 58.9l-1.4-1.75-2.6-.7-.5.2q-.5 2.35.7 3.15l-1.8-.1 4.2 5.75q2.25 2.05 2.95 5.95v4l-1.75.3q-1.2 4.2-3.5 6.75l-.4.5m-2.15 1.95h-.1l-1.2.8m4.4-8.5L49 79.05m-5.75-17.3l-.5-.1M30.6 68.1l-1.85.6h-.2m-5.95-1l-1.35-1-.9.1-.1.2v-.1l-3.4 1.2-4.5.95-3.45.3-.75 1.3-.1.55-2.65 3.45-.1-.5-.2 1-1.15 1.95.1-7.65-3.05.4 3.15-1.65.55-.2q3.35-1.65 6.95-2.65 3.25-.95 6.85-2.85m6.15-11.2l1.2-.7M.5 59.7l-.5.75.5-.85M27 50.2l-.7-4.2q-.55-1.65-.3-3.2M42.75 1.15l-.1.1M53.1 24.2l2.35-.55 6.65-.3M87.8 66.7l1.25-.25-3.3-1.4q-3.6-1.05-6.35-3.4h-.2l-1.45-.2-5.1-.2m-22.7-30.3L45.2 37.3m-.3.3l-.3.1-2.25.5m-6.85-2.65l-.2.1-1.65 1.05h-.1l-1.25.8-4.6 3.8.1-3.4-1.4 3.1v.1l-.4 1.7m12.25 10.25l.1 1.35m15.05-8q1.85.3 3.5 1.35l2.65 1.4 3.9 1.85 4.2 1.55M53.4 46.4q.85-3.05 1.95-5.75-2.85 1.75-6.25 2.7l1.95-5.85m1.45 15.55l3.05-4.7-2.75.9.6-2.85m21.7-21.1l-6.05-1.75M26.3 41l.1.1m.6 9.1l3.9-1.65q2.05-1 3.8-2.45l.9-.9q-.8 3.05 1.35 5.3l.8 1.15m-17.4 14.1l.9.95m1.35 1l.4.3q1.65 1.25 3.6 1.05l1.95-.35m-24.4-.5l-.1 1.25 4.85-.1M63.15 55.5l-.55.1.55.1m0-.2l4.8.55 5.6 2.15M62.6 55.6l-.7-.2-4.3-.8h-1.45l-2.25.7m12.5 1.95l-3.25-1.55m8.35 5.55l-3.05-2.65-1.95-1.25m-.2 4.4l4.7.5m-21.5-5.8l1.55-1.35.4-.5m.85 1.85l-.45.3.25.4m-8.85 4.6l4.4-.4-.4-1 .65-.65m2.45 17.5l.3-.2q1.1-.9 2.65-1.3m-6.05 9.2l2.15-1.95m30-21.3h6.85"/><path fill="none" stroke="#4F9E9E" stroke-width=".05" stroke-linecap="round" stroke-miterlimit="3" d="M64.35 29.4l4.4-1.65 1.75-.4 12.3-.2 13.5-1.65h.3q-2.35 2.45-2.75 5.95L91.8 45.8q-.75 3.7-2.25 6.55-1.95 3.15-4.3 5.3l-2.65-.1-4.2-1.85m-10.75-3.15l2.45.7 5.6 1.65 2.7.8M13.7 21.65q3.05 1.9 7.05 1.7h9.95m11.95-22.1q-.1 4.6 2.05 7.8l4.6 5.6q2.8 2.8 3.6 6.25l.3 2.35-.1.95m-3.15 6.75l1.9-2.75v-.1l.75-1.35v-.2l.5-2.35M42.65 1.25l-3.35 3.4q-2.45 2.75-4.2 6.45-1.65 3.35-1.55 7.65l.1 1.75M13.7 21.65L14.8 25q1.95 4.5 4.6 8.4l4.3 5.2m9.15-5.6l-.95-3.4-.1-.2-.9-4-.2-2.05"/><path fill="none" stroke="#4FC600" stroke-width=".05" stroke-linecap="round" stroke-miterlimit="3" d="M24.45 77.3l-1.15 7.1.1 4.4.45 3.05v.1l.2 1.25m-3.2-1.35l-1.2-3.15q-.75-2.45-.45-4.8l2.15-10.75"/><path fill="none" stroke="#B00000" stroke-width=".05" stroke-linecap="round" stroke-miterlimit="3" d="M93.55 5.65l-7.4.6m-29.8 54.1l1.15 3.05.8 4.3.1 4.5-.4 2.65-.1-1.6-.7-4.3-3.7-10.05-1.2-2.45M24.05 93.2l1.8 5.4L23 95.35l-2.15-3.5m-.2-48.2L14.7 45.8l-4.6 3.55L.5 59.7m0-.1l5.3-7.15 9.55-8.8q1.5-1.45 3.45-2.15m29.1 6.85l1.2-.8 3.4 5.5 1.4 2.25v.1l1.05 1.65 1.4 3.3m-35.7-16.7L18.8 41.5m32.65 13.1l-3.55-6.25m3.55 6.25l.85 1.85"/><path fill="none" stroke="#DBB864" stroke-width=".05" stroke-linecap="round" stroke-miterlimit="3" d="M49 79.05q-1-2.95-3.45-6.25-1.95-2.65-2.5-5.6-.4-2.15.2-5.45"/><path fill="none" stroke="#E0C16B" stroke-width=".05" stroke-linecap="round" stroke-miterlimit="3" d="M45.95 85.7l4.4-8.5"/><path fill="none" stroke="#244949" stroke-width=".05" stroke-linecap="round" stroke-miterlimit="3" d="M26.3 41l-2.6-2.4"/><path fill="none" stroke="#4E9C9C" stroke-width=".05" stroke-linecap="round" stroke-miterlimit="3" d="M42.35 38.2q1.75-4 5.1-6.95l-11.95 4.3"/><path fill="none" stroke="#000050" stroke-width=".05" stroke-linecap="round" stroke-miterlimit="3" d="M42.75 61.65q-1.2 2.65-3.25 4.3-1.95 1.55-4.4 2.05l-4.7 1.05.2-.95m-12.1-5.6q-.6-3.3-.1-6.55.3-2.3 1.45-4l2.65-2.9 2.15 2.25-1.15.75q-1.6 1.2-2.25 3.25l-.5 1.75m17.6-2.65l.2-.1 4.85-.4v4.8q0 1.55-.65 2.85v.1m-11.65 3.7l.7-3.6 1.65-3.8 2.65-2.45 2.25-1.1M31.1 65.35l-.1.9-.4 1.85m-10.35-1.2l.1-.1v-1.05q-.7-1.2-.6-2.95l.4-3.5.6-2.25m-.5 9.85l-.85-1.55-.9-2.35v-.5"/></svg>