<svg xmlns="http://www.w3.org/2000/svg" viewBox="0 0 100.0 104.0" width="100" height="104"><defs><radialGradient gradientUnits="userSpaceOnUse" r="819.2" cx="0" cy="0" spreadMethod="pad" gradientTransform="matrix(.027 0 0 .027 77.8 13.05)" id="a"><stop offset="0" stop-color="#fff"/><stop offset="1"/></radialGradient><radialGradient gradientUnits="userSpaceOnUse" r="819.2" cx="0" cy="0" spreadMethod="pad" gradientTransform="matrix(.023 0 0 .023 71.7 21.15)" id="b"><stop offset="0" stop-color="#fff"/><stop offset="1"/></radialGradient><radialGradient gradientUnits="userSpaceOnUse" r="819.2" cx="0" cy="0" spreadMethod="pad" gradientTransform="matrix(.006 0 0 .006 57.45 3.15)" id="c"><stop offset="0" stop-color="#fff"/><stop offset="1"/></radialGradient><radialGradient gradientUnits="userSpaceOnUse" r="819.2" cx="0" cy="0" spreadMethod="pad" gradientTransform="matrix(.027 0 0 .027 67.55 30.55)" id="d"><stop offset="0" stop-color="#fff"/><stop offset="1"/></radialGradient><radialGradient gradientUnits="userSpaceOnUse" r="819.2" cx="0" cy="0" spreadMethod="pad" gradientTransform="matrix(.015 0 0 .015 46.3 21.5)" id="e"><stop offset="0" stop-color="#6f9"/><stop offset=".639" stop-color="#2E0000"/><stop offset="1"/></radialGradient><radialGradient gradientUnits="userSpaceOnUse" r="819.2" cx="0" cy="0" spreadMethod="pad" gradientTransform="matrix(.015 0 0 .015 60.65 44.2)" id="f"><stop offset="0" stop-color="#fff"/><stop offset="1"/></radialGradient><radialGradient gradientUnits="userSpaceOnUse" r="819.2" cx="0" cy="0" spreadMethod="pad" gradientTransform="matrix(.004 0 0 .004 48.2 31.75)" id="g"><stop offset="0" stop-color="#fff"/><stop offset="1"/></radialGradient><radialGradient gradientUnits="userSpaceOnUse" r="819.2" cx="0" cy="0" spreadMethod="pad" gradientTransform="matrix(.01 0 0 .01 48.75 50.55)" id="h"><stop offset="0" stop-color="#fff"/><stop offset="1"/></radialGradient><radialGradient gradientUnits="userSpaceOnUse" r="819.2" cx="0" cy="0" spreadMethod="pad" gradientTransform="matrix(.024 0 0 .024 35.7 60.5)" id="i"><stop offset="0" stop-color="#fff"/><stop offset="1"/></radialGradient><radialGradient gradientUnits="userSpaceOnUse" r="819.2" cx="0" cy="0" spreadMethod="pad" gradientTransform="matrix(.009 0 0 .009 62.15 58.3)" id="j"><stop offset="0" stop-color="#fff"/><stop offset="1"/></radialGradient><radialGradient gradientUnits="userSpaceOnUse" r="819.2" cx="0" cy="0" spreadMethod="pad" gradientTransform="matrix(.009 0 0 .009 70.4 50.9)" id="k"><stop offset="0" stop-color="#fff"/><stop offset="1"/></radialGradient><radialGradient gradientUnits="userSpaceOnUse" r="819.2" cx="0" cy="0" spreadMethod="pad" gradientTransform="matrix(.018 0 0 .018 27.05 30.8)" id="l"><stop offset="0" stop-color="#6f9"/><stop offset=".639" stop-color="#2E0000"/><stop offset="1"/></radialGradient><radialGradient gradientUnits="userSpaceOnUse" r="819.2" cx="0" cy="0" spreadMethod="pad" gradientTransform="matrix(.007 0 0 .007 5.15 53.25)" id="m"><stop offset="0" stop-color="#fff"/><stop offset="1"/></radialGradient><radialGradient gradientUnits="userSpaceOnUse" r="819.2" cx="0" cy="0" spreadMethod="pad" gradientTransform="matrix(.028 0 0 .028 14.45 79.55)" id="n"><stop offset="0" stop-color="#fff"/><stop offset="1"/></radialGradient><radialGradient gradientUnits="userSpaceOnUse" r="819.2" cx="0" cy="0" spreadMethod="pad" gradientTransform="matrix(.027 0 0 .027 30.1 72.4)" id="o"><stop offset="0" stop-color="#fff"/><stop offset="1"/></radialGradient><radialGradient gradientUnits="userSpaceOnUse" r="819.2" cx="0" cy="0" spreadMethod="pad" gradientTransform="matrix(.006 0 0 .006 38.9 36.45)" id="p"><stop offset="0" stop-color="#fff"/><stop offset="1"/></radialGradient><radialGradient gradientUnits="userSpaceOnUse" r="819.2" cx="0" cy="0" spreadMethod="pad" gradientTransform="matrix(.029 0 0 .029 69.9 91.65)" id="q"><stop offset="0" stop-color="#6fc"/><stop offset=".639" stop-color="#2E0000"/><stop offset="1"/></radialGradient></defs><path d="M61.8 5.5q3.4-1.5 7.05-2.2l7.4.35q3.4.95 6.35 2.6l6.1 3.5q3.2 1.9 6.15 4.1l4.35 3.2-.15.1-1.4-.95-4.1-2.35L78.4 5.9q-2.5-1.2-5.05-1.45l-5.8.35q-2.9.85-5.75.7-3.05 1.55-5.3 3.2l6.25 1.5 7.65 1.55q3.85.6 6.8 2.6l10.1 7.4h.15l-.15.35-13.4-7.2q-3.85-1.75-7.75-3.15-2.95-1.05-6.1-1.3l-4-.1q1.65 2.8 3.75 5.3l4.85 5.05q2.7 2.7 5.75 4.9l9.25 6.5v.2l-2.1-1.15-2.95-1.55-4.7-2.9q-2.7-1.65-5.05-4l-5.5-5.9q-2.5-2.8-4.85-3.75-.45.45-.7 1.15l.15.5 1.5 4.9q1.2 3.1 3.55 5.2 2.1 2 3.5 5.15.6 1.45-.1 2-3.65-.1-5.4.85l-.7-.85.35-.2q2.1-1.45 2.2-3.65l-3.75-7.05Q53.25 18 52.65 14.7q-.7-3.65 0-7.2.25-1.15.8-2 .7.95 1.55.95l-.25.6Q58.5 6.8 61.8 5.5M25.75 86.95l.9 1.55-1.25-1.2q-2.15-2-3.8-4.2-2.2-2.7-4.2-5.8-2-3.05-3.3-6.45-1.3-3.3-1.55-6.7-.35-3.5-.2-7.05L8.7 59.35q-2.95 1.85-3.55 5.4L4 72.05q-.45 3.4-.45 6.9 0 3.65 1.4 6.85l2.55 6.35Q8.6 95.2 10.45 98l2.5 3.9L14 104l-2.7-3.55q-2.25-3.05-3.8-6.3L4.35 87.8Q2.7 84.75 2.7 81.1q0-3.65.35-7.3.35-3.4.95-6.8.45-3.65 1.75-6.85 1.2-3.25 3.4-5.75l.6-.35h.1l.5-1.05-.15-.8q2.75.35 5.1 1.75 2.8 1.5 7.15 1.4 3.85-.25 6.7-2.45l5.75-4.35q1.9-1.3 3.05-2.95l.95 1.05.7 1.55q-2.35 0-4.35 1.75-2.25 2-5.15 3.65l-4.85 2.9-.45.4-.5.35-1.75.1q-3.5.1-6.35 1.15h-.1v.15q-.1.35 1.15 1.05 1.8.8 5.55 1.65 3.75.7 6.95 2Q33 64.5 36.2 66.3q3.05 1.5 6.35 3.75l-.15.1-1.75-.95q-3.3-1.65-6.7-3.05-3.3-1.5-7.05-2.55l-7.15-2q-4.1-1.1-6-3.8l.25 4.25q-.25 3.65 1.3 6.45l10.45 18.45M53.8 14.2l-.2-1.25q-.85-3.3 1.15-5.9-2 2.6-1.15 5.9l.2 1.25M9.85 54.05l6.6 2.25q2.45.7 6.1 1.05-3.65-.35-6.1-1.05l-6.6-2.25"/><path fill="#f00" d="M41.35 40.9l3.2-.25q-.15-.7-1.2-1.5l2 .45 1.4.1-.2-1.65 1.3 2.5L48.9 37l.2 1.65 2.7-2.7v.7l1.1-.95-3.1 3.65q-.8.95-1.95 1.3l-1.2.25-5.65.45.35-.45"/><path fill="url(#a)" d="M61.8 5.5q2.85.15 5.75-.7l5.8-.35q2.55.25 5.05 1.45l15.15 7.95 4.1 2.35 1.4.95q-3.75.1-7.4 1.05-3.05.85-4.1 3.2l-.1.2-.15.15-10.1-7.4q-2.95-2-6.8-2.6l-7.65-1.55-6.25-1.5q2.25-1.65 5.3-3.2"/><path fill="url(#b)" d="M87.3 22.2q-3.3 1.4-5.5 3.9-2.15 2.35-2.15 6l-9.25-6.5q-3.05-2.2-5.75-4.9l-4.85-5.05q-2.1-2.5-3.75-5.3l4 .1q3.15.25 6.1 1.3 3.9 1.4 7.75 3.15l13.4 7.2h-.1l.1.1"/><path fill="url(#c)" d="M53.45 5.5q.95-1.95 3.2-3.15Q59 1.05 61.55 0q-2.2 1.4-4.3 4.7L55.6 6.35l-.6.1q-.85 0-1.55-.95"/><path fill="url(#d)" d="M81.2 33.15q-2.25 2.55-4.95 4.45-2.7 1.9-5.25 4.35l-3.1 3.2L66.4 47q-.35.5-.35 1.2l-1.3-.85-.35-2.7q-.5-3.5-3.3-5.3l-5.75-3.85h-.1l.1-.6.25-.7q.45-.85 1.4-1.4 1.75-.95 5.4-.85.7-.55.1-2-1.4-3.15-3.5-5.15-2.35-2.1-3.55-5.2l-1.5-4.9-.15-.5q.25-.7.7-1.15 2.35.95 4.85 3.75l5.5 5.9q2.35 2.35 5.05 4l4.7 2.9 2.95 1.55 2.1 1.15 1.55.85"/><path fill="url(#e)" d="M47.45 29.6q.15-3.05-.8-6-1.15-3.25-2-6.55-.95-3.4-2.45-6.6 1.15 2 3.05 4.25 1.5 1.85 2.2 4L49 23.05q.95 2.8 1.2 5.85.1 1.2-.15 2-.45 1.2-1.4 1.75l-1.2-1.75v-1.3"/><path fill="url(#f)" d="M76.5 54.4v.25l.8 2.1 2 3.9q.85 1.4 2.25 2.7 2.6 2.45 4.25 5.15 1.85 3.2.2 6.7-1.3 2.95-4.9 3.65-3.8.7-7.55.1-2.8-.45-4.2 1.1l-.5.45.7.1q2.85.7 4.95 3.2l2.35 2.35-1.4-.85v.7l-.85-.1q-1.4-.8-2-1.9.15.85-.45.95l-1.55-.2q-1.4-.85-1.85-1.65-.25.9-1.3 1.5l-.45.15q-.85-1.1-.6-2.25l-.7.6q-.7.9-1.8 1.4-.2-1.3-.1-2.6l-1.4 1.05q-1.4 1.8-2.35 2.25l.25-1.9-4.15 3.3.5-1.65 1.05-1.85q-1.05.45-2.25 1.05-1.5.8-3.05 1.75-.7.35-1.3.85.85-1.45 2-2.6 1.8-1.75 4.7-2.5 3.05-.9 6-2.9l1.3-1.05q1.3-.75 3.05-.6l7.65.2q4.1.4 6-2.8 2-3.4-.5-6.45-2.2-2.85-5.5-4.45l-2.35-1.1q-2.1-.8-4.45-1.05l-.35-.1q-.85-.5-1.9-.7l-2.6-.7-1.05-.5q-1.65-.8-2.6-2.35-.55-.8-.7-1.85l-1.3.8q-1.5.95-3.25 1.4l-.85.25-3.05.1-.6-.1 2.5-3.05.55-1.05.95-2.5q.6-1.85.35-4-.2-2.1-2.35-3.15L51 43.5l-1.75.1-.5.1-1.4.95Q45.95 45.7 44.9 47h-.15L43 49.25l-.1.1-.5.7-.8-1.5-.25-.15-1.75-.2-.7-1.55-.95-1.05 1.2-2Q37.6 42.55 37 41.15q.85-.25 1.3-1.3.95-2.15 3.05-2.95l-.1-.6q-.35-1.3-1.55-2.95-.55-.7-.8-1.5 2.8 1.15 4.25-1.3 1.15.45 1.95-.45l1.9 2.8q1.55 2.45 2.95.25.45-.85 1.15-1.4 1.2.7 2.25.8l2.1-.1.85-.5.7.85q-.95.55-1.4 1.4l-.25.7-.1.6h.1l5.75 3.85q2.8 1.8 3.3 5.3l.35 2.7.45 2.1-.9.75.7.35 11.5 3.85M52.9 35.7l.55-.8h-.55q-3.55.35-6.6 1.75-1.4.6-2.45 1.55-1.45 1.15-2.5 2.7l-.35.45 5.65-.45 1.2-.25q1.15-.35 1.95-1.3l3.1-3.65M61 54.3l-1.2.95 1.2-.95"/><path fill="url(#g)" d="M45.1 30.1l.5-.7 1.85.2v1.3l1.2 1.75q.95-.55 1.4-1.75l1.05.85q-.7.55-1.15 1.4-1.4 2.2-2.95-.25l-1.9-2.8"/><path fill="url(#h)" d="M42.4 50.05l.5-.7.1-.1L44.75 47h.15q1.05-1.3 2.45-2.35l1.4-.95.5-.1 1.75-.1 1.75.45Q54.9 45 55.1 47.1q.25 2.15-.35 4l-.95 2.5-.55 1.05-2.5 3.05q-3.5-.45-5.75-3.55l-2.6-4.1"/><path fill="url(#i)" d="M42.4 50.05l2.6 4.1q2.25 3.1 5.75 3.55l.6.1 3.05-.1.85-.25.2.35-1.05.5q-2.7 1.5-3.85 3.75l-2.5 4.45q-1.75 3.2-1.5 6.35l-1.3-.95-2.7-1.85q-3.3-2.25-6.35-3.75-3.2-1.8-6.45-2.95-3.2-1.3-6.95-2-3.75-.85-5.55-1.65Q16 59 16.1 58.65v-.15h.1q2.85-1.05 6.35-1.15l1.75-.1.5-.35.45-.4 4.85-2.9q2.9-1.65 5.15-3.65 2-1.75 4.35-1.75l1.75.2.25.15.8 1.5"/><path fill="url(#j)" d="M69 61.45l-.6-.1-6.95-.35q-4.1 0-6-3.2l-.2-.35Q57 57 58.5 56.05l1.3-.8q.15 1.05.7 1.85.95 1.55 2.6 2.35l1.05.5 2.6.7q1.05.2 1.9.7l.35.1"/><path fill="url(#k)" d="M66.05 48.2h.2l4.35 2 1.65.45q1.1.35 1.8.8l1.5 1.3.95 1.65L65 50.55l-.7-.35.9-.75-.45-2.1 1.3.85"/><path fill="url(#l)" d="M36.3 38.65l-1.65-.45-3.5-2-.7-.5q-2.7-1.85-5.05-4.3-2.35-2.5-5.05-4.7-2.95-2.35-5.8-3.65l7.65 1.3q3.4.8 6.7 2.2 3.4 1.3 6 3.55 2 1.75 3.15 3.85L39 35.6q1.05 2.45-.55 2.95l-2.15.1"/><path fill="url(#m)" d="M9.15 54.4q-.9.15-2.2-.6-3.2-1.75-6.95-1.05.45-.35 1.3-.45l7.3-.35 1.6.25.15.8-.5 1.05h-.1l-.6.35"/><path fill="url(#n)" d="M25.4 87.3q-3.65 1.2-6.15 2.85-3.15 2.1-4.8 5.05-1.75 3.05-1.5 6.7l-2.5-3.9Q8.6 95.2 7.5 92.15L4.95 85.8q-1.4-3.2-1.4-6.85 0-3.5.45-6.9l1.15-7.3q.6-3.55 3.55-5.4l3.65-2.25q-.15 3.55.2 7.05.25 3.4 1.55 6.7 1.3 3.4 3.3 6.45 2 3.1 4.2 5.8 1.65 2.2 3.8 4.2"/><path fill="url(#o)" d="M46.55 73.2h-.15L43 75.35q-2.8 1.75-6.35 3.15-3.65 1.3-6.2 3.4-2.95 2.25-4.7 5.05L15.3 68.5q-1.55-2.8-1.3-6.45l-.25-4.25q1.9 2.7 6 3.8l7.15 2q3.75 1.05 7.05 2.55 3.4 1.4 6.7 3.05l1.75.95 2.85 1.75 1.3.95v.35"/><path fill="url(#p)" d="M37 41.15q-.55-1.1-.7-2.5l2.15-.1q1.6-.5.55-2.95l-.95-1.65q.5-1.05.4-2.2l.45.1q.25.8.8 1.5 1.2 1.65 1.55 2.95l.1.6q-2.1.8-3.05 2.95-.45 1.05-1.3 1.3"/><path fill="url(#q)" d="M76.85 86.15l1.05 1.05q1.65 1.3 3.55 3.65 1.85 2.45 3.85 4 2.95 2.2 6.45 3.15-3.75 2.6-8.8 2.1-5.4-.55-10.45-3.05-3.4-1.65-6.7-3.65-2.35-1.5-5.4-1.5-2.7-.1-4.6 1.15-2.55 1.65-4.9 3.55-2.35 1.9-2.85 4.8l.15-4.35q.1-3.5 1.4-7.05.6-1.85 1.5-3.25.6-.5 1.3-.85 1.55-.95 3.05-1.75 1.2-.6 2.25-1.05l-1.05 1.85-.5 1.65 4.15-3.3-.25 1.9q.95-.45 2.35-2.25l1.4-1.05q-.1 1.3.1 2.6 1.1-.5 1.8-1.4l.7-.6q-.25 1.15.6 2.25l.45-.15q1.05-.6 1.3-1.5.45.8 1.85 1.65l1.55.2q.6-.1.45-.95.6 1.1 2 1.9l.85.1v-.7l1.4.85"/><path fill="none" stroke="#7D7D7D" stroke-width=".05" stroke-linecap="round" stroke-miterlimit="3" d="M97.65 16.2l1.4.95.95.6-.8-.7m-.15.1q-3.75.1-7.4 1.05-3.05.85-4.1 3.2l-.1.2.7.6.3.35.3.2.3.25.35.25m-1.25-1.05h-.85q-3.3 1.4-5.5 3.9-2.15 2.35-2.15 6l1.65 1.05 1.2.8-1.3-.8q-2.25 2.55-4.95 4.45-2.7 1.9-5.25 4.35l-3.1 3.2L66.4 47q-.35.5-.35 1.2h.2l4.35 2 1.65.45q1.1.35 1.8.8l1.5 1.3.95 1.65v.25m.35 31.5l1.05 1.05q1.65 1.3 3.55 3.65 1.85 2.45 3.85 4 2.95 2.2 6.45 3.15m-43.7 3.4l.15-4.35q.1-3.5 1.4-7.05.6-1.85 1.5-3.25M69 61.45l-.6-.1-6.95-.35q-4.1 0-6-3.2l-1.05.5q-2.7 1.5-3.85 3.75l-2.5 4.45q-1.75 3.2-1.5 6.35l.35.25-.35.1h-.15L43 75.35q-2.8 1.75-6.35 3.15-3.65 1.3-6.2 3.4-2.95 2.25-4.7 5.05l.9 1.55-1.25-1.2q-3.65 1.2-6.15 2.85-3.15 2.1-4.8 5.05-1.75 3.05-1.5 6.7m-3.8-47.5q-.9.15-2.2-.6-3.2-1.75-6.95-1.05.45-.35 1.3-.45l7.3-.35 1.6.25m24.7-3.65q1.9-1.3 3.05-2.95M37 41.15q-.55-1.1-.7-2.5m1.75-4.7q.5-1.05.4-2.2l.45.1q2.8 1.15 4.25-1.3 1.15.45 1.95-.45l.5-.7 1.85.2m2.6 1.3l1.05.85M53.45 5.5q.95-1.95 3.2-3.15Q59 1.05 61.55 0q-2.2 1.4-4.3 4.7L55.6 6.35l-.6.1-.25.6q-2 2.6-1.15 5.9l.2 1.25q.25-.7.7-1.15m7.3-7.55q-3.05 1.55-5.3 3.2m30.95 12.9v.15l.55.45m-.7-.1h-.1l.35.1-.25-.1.15-.35h-.15M79.65 32.1v.2l1.55.85h.1m7.45-10.4l-.15-.05.45.3m-.6-.45l.15.15M53.45 5.5q.7.95 1.55.95m22.55 24.7l2.1 1.15M53.8 14.2l.15.5m1.3 20.8h.1l5.75 3.85q2.8 1.8 3.3 5.3l.35 2.7 1.3.85m-24.7-7.3l-.35.45m9.75 16.35l.6.1 3.05-.1.85-.25Q57 57 58.5 56.05l1.3-.8 1.2-.95m3.75-6.95l.45 2.1M25.25 56.5l-.45.4-.5.35-1.75.1q-3.65-.35-6.1-1.05l-6.6-2.25.5-1.05-.15-.8m6 6.3h-.1m26.45 11.55l2.7 1.85 1.3.95v.35M9.15 54.4l.6-.35h.1m45.6 3.75l-.2-.35m-4.5.25q-3.5-.45-5.75-3.55l-2.6-4.1m0 20.1l2.85 1.75"/><path fill="none" stroke="#436450" stroke-width=".05" stroke-linecap="round" stroke-miterlimit="3" d="M91.75 98q-3.75 2.6-8.8 2.1-5.4-.55-10.45-3.05-3.4-1.65-6.7-3.65-2.35-1.5-5.4-1.5-2.7-.1-4.6 1.15-2.55 1.65-4.9 3.55-2.35 1.9-2.85 4.8"/><path fill="none" stroke="#3C4127" stroke-width=".05" stroke-linecap="round" stroke-miterlimit="3" d="M36.3 38.65l-1.65-.45-3.5-2-.7-.5q-2.7-1.85-5.05-4.3-2.35-2.5-5.05-4.7-2.95-2.35-5.8-3.65l7.65 1.3q3.4.8 6.7 2.2 3.4 1.3 6 3.55 2 1.75 3.15 3.85L39 35.6q1.05 2.45-.55 2.95l-2.15.1m11.15-9.05q.15-3.05-.8-6-1.15-3.25-2-6.55-.95-3.4-2.45-6.6 1.15 2 3.05 4.25 1.5 1.85 2.2 4L49 23.05q.95 2.8 1.2 5.85.1 1.2-.15 2-.45 1.2-1.4 1.75l-1.2-1.75v-1.3"/></svg>