<svg xmlns="http://www.w3.org/2000/svg" viewBox="0 0 53.8 49.6" width="53.8" height="49.6"><defs><radialGradient gradientUnits="userSpaceOnUse" r="819.2" cx="0" cy="0" fx="87942.4" fy="0" spreadMethod="repeat" gradientTransform="matrix(.005 0 0 .005 45.1 2.95)" id="a"><stop offset="0" stop-color="#fff"/><stop offset=".306" stop-color="#0ff"/><stop offset="1" stop-color="#06f"/></radialGradient><radialGradient gradientUnits="userSpaceOnUse" r="819.2" cx="0" cy="0" spreadMethod="pad" gradientTransform="matrix(.014 0 0 .038 25.5 25.35)" id="b"><stop offset="0" stop-color="#fff"/><stop offset=".129" stop-color="#0ff"/><stop offset=".361" stop-color="#06f"/><stop offset=".894" stop-color="#00c"/></radialGradient><radialGradient gradientUnits="userSpaceOnUse" r="819.2" cx="0" cy="0" spreadMethod="pad" gradientTransform="matrix(.003 0 0 .003 37.75 6.05)" id="c"><stop offset="0" stop-color="#fff"/><stop offset=".306" stop-color="#0ff"/><stop offset="1" stop-color="#06f"/></radialGradient><radialGradient gradientUnits="userSpaceOnUse" r="819.2" cx="0" cy="0" spreadMethod="pad" gradientTransform="matrix(.001 0 0 .001 46.85 9.35)" id="d"><stop offset="0" stop-color="#fff"/><stop offset=".306" stop-color="#0ff"/><stop offset="1" stop-color="#06f"/></radialGradient><radialGradient gradientUnits="userSpaceOnUse" r="819.2" cx="0" cy="0" spreadMethod="pad" gradientTransform="matrix(.001 0 0 .001 26.85 2.85)" id="e"><stop offset="0" stop-color="#fff"/><stop offset=".306" stop-color="#0ff"/><stop offset="1" stop-color="#06f"/></radialGradient><radialGradient gradientUnits="userSpaceOnUse" r="819.2" cx="0" cy="0" spreadMethod="pad" gradientTransform="matrix(.002 0 0 .002 29 4.65)" id="f"><stop offset="0" stop-color="#fff"/><stop offset=".306" stop-color="#0ff"/><stop offset="1" stop-color="#06f"/></radialGradient><radialGradient gradientUnits="userSpaceOnUse" r="819.2" cx="0" cy="0" spreadMethod="pad" gradientTransform="matrix(.005 0 0 .005 27.9 9.15)" id="g"><stop offset="0" stop-color="#fff"/><stop offset=".306" stop-color="#0ff"/><stop offset="1" stop-color="#06f"/></radialGradient><radialGradient gradientUnits="userSpaceOnUse" r="819.2" cx="0" cy="0" spreadMethod="pad" gradientTransform="matrix(.001 0 0 .001 32.25 15.55)" id="h"><stop offset="0" stop-color="#fff"/><stop offset=".306" stop-color="#0ff"/><stop offset="1" stop-color="#06f"/></radialGradient><radialGradient gradientUnits="userSpaceOnUse" r="819.2" cx="0" cy="0" spreadMethod="pad" gradientTransform="matrix(.002 0 0 .002 30.9 13.1)" id="i"><stop offset="0" stop-color="#fff"/><stop offset=".306" stop-color="#0ff"/><stop offset="1" stop-color="#06f"/></radialGradient><radialGradient gradientUnits="userSpaceOnUse" r="819.2" cx="0" cy="0" spreadMethod="pad" gradientTransform="matrix(.005 0 0 .005 32.6 23.45)" id="j"><stop offset="0" stop-color="#fff"/><stop offset=".306" stop-color="#0ff"/><stop offset="1" stop-color="#06f"/></radialGradient><radialGradient gradientUnits="userSpaceOnUse" r="819.2" cx="0" cy="0" spreadMethod="pad" gradientTransform="matrix(.002 0 0 .002 49.5 12.65)" id="k"><stop offset="0" stop-color="#fff"/><stop offset=".306" stop-color="#0ff"/><stop offset="1" stop-color="#06f"/></radialGradient><radialGradient gradientUnits="userSpaceOnUse" r="819.2" cx="0" cy="0" spreadMethod="pad" gradientTransform="matrix(.002 0 0 .002 44.75 15.7)" id="l"><stop offset="0" stop-color="#fff"/><stop offset=".306" stop-color="#0ff"/><stop offset="1" stop-color="#06f"/></radialGradient><radialGradient gradientUnits="userSpaceOnUse" r="819.2" cx="0" cy="0" spreadMethod="pad" gradientTransform="matrix(.001 0 0 .001 42.85 14.2)" id="m"><stop offset="0" stop-color="#fff"/><stop offset=".306" stop-color="#0ff"/><stop offset="1" stop-color="#06f"/></radialGradient><radialGradient gradientUnits="userSpaceOnUse" r="819.2" cx="0" cy="0" spreadMethod="pad" gradientTransform="matrix(.003 0 0 .003 50.05 20)" id="n"><stop offset="0" stop-color="#fff"/><stop offset=".306" stop-color="#0ff"/><stop offset="1" stop-color="#06f"/></radialGradient><radialGradient gradientUnits="userSpaceOnUse" r="819.2" cx="0" cy="0" spreadMethod="pad" gradientTransform="matrix(.005 0 0 .005 50.35 23.2)" id="o"><stop offset="0" stop-color="#fff"/><stop offset=".306" stop-color="#0ff"/><stop offset="1" stop-color="#06f"/></radialGradient><radialGradient gradientUnits="userSpaceOnUse" r="819.2" cx="0" cy="0" spreadMethod="pad" gradientTransform="matrix(.002 0 0 .002 45.5 24.1)" id="p"><stop offset="0" stop-color="#fff"/><stop offset=".306" stop-color="#0ff"/><stop offset="1" stop-color="#06f"/></radialGradient><radialGradient gradientUnits="userSpaceOnUse" r="819.2" cx="0" cy="0" spreadMethod="pad" gradientTransform="matrix(.003 0 0 .003 48.9 35.35)" id="q"><stop offset="0" stop-color="#fff"/><stop offset=".306" stop-color="#0ff"/><stop offset="1" stop-color="#06f"/></radialGradient><radialGradient gradientUnits="userSpaceOnUse" r="819.2" cx="0" cy="0" spreadMethod="pad" gradientTransform="matrix(.004 0 0 .004 49.9 45.5)" id="r"><stop offset="0" stop-color="#fff"/><stop offset=".306" stop-color="#0ff"/><stop offset="1" stop-color="#06f"/></radialGradient><radialGradient gradientUnits="userSpaceOnUse" r="819.2" cx="0" cy="0" spreadMethod="pad" gradientTransform="matrix(.002 0 0 .002 39 27.5)" id="s"><stop offset="0" stop-color="#fff"/><stop offset=".306" stop-color="#0ff"/><stop offset="1" stop-color="#06f"/></radialGradient><radialGradient gradientUnits="userSpaceOnUse" r="819.2" cx="0" cy="0" spreadMethod="pad" gradientTransform="matrix(.002 0 0 .002 43.05 33.6)" id="t"><stop offset="0" stop-color="#fff"/><stop offset=".306" stop-color="#0ff"/><stop offset="1" stop-color="#06f"/></radialGradient><radialGradient gradientUnits="userSpaceOnUse" r="819.2" cx="0" cy="0" spreadMethod="pad" gradientTransform="matrix(.001 0 0 .001 39.65 35.2)" id="u"><stop offset="0" stop-color="#fff"/><stop offset=".306" stop-color="#0ff"/><stop offset="1" stop-color="#06f"/></radialGradient><radialGradient gradientUnits="userSpaceOnUse" r="819.2" cx="0" cy="0" spreadMethod="pad" gradientTransform="matrix(.002 0 0 .002 34.95 38.3)" id="v"><stop offset="0" stop-color="#fff"/><stop offset=".306" stop-color="#0ff"/><stop offset="1" stop-color="#06f"/></radialGradient><radialGradient gradientUnits="userSpaceOnUse" r="819.2" cx="0" cy="0" spreadMethod="pad" gradientTransform="matrix(.004 0 0 .004 35.4 43.6)" id="w"><stop offset="0" stop-color="#fff"/><stop offset=".306" stop-color="#0ff"/><stop offset="1" stop-color="#06f"/></radialGradient><radialGradient gradientUnits="userSpaceOnUse" r="819.2" cx="0" cy="0" spreadMethod="pad" gradientTransform="matrix(.003 0 0 .003 30.65 47)" id="x"><stop offset="0" stop-color="#fff"/><stop offset=".306" stop-color="#0ff"/><stop offset="1" stop-color="#06f"/></radialGradient><radialGradient gradientUnits="userSpaceOnUse" r="819.2" cx="0" cy="0" spreadMethod="pad" gradientTransform="matrix(.003 0 0 .003 26.5 45.8)" id="y"><stop offset="0" stop-color="#fff"/><stop offset=".306" stop-color="#0ff"/><stop offset="1" stop-color="#06f"/></radialGradient><radialGradient gradientUnits="userSpaceOnUse" r="819.2" cx="0" cy="0" spreadMethod="pad" gradientTransform="matrix(.004 0 0 .004 40.1 46.85)" id="z"><stop offset="0" stop-color="#fff"/><stop offset=".306" stop-color="#0ff"/><stop offset="1" stop-color="#06f"/></radialGradient><radialGradient gradientUnits="userSpaceOnUse" r="819.2" cx="0" cy="0" spreadMethod="pad" gradientTransform="matrix(.002 0 0 .002 43.6 42.3)" id="A"><stop offset="0" stop-color="#fff"/><stop offset=".306" stop-color="#0ff"/><stop offset="1" stop-color="#06f"/></radialGradient><radialGradient gradientUnits="userSpaceOnUse" r="819.2" cx="0" cy="0" spreadMethod="pad" gradientTransform="matrix(.002 0 0 .002 24.8 2.4)" id="B"><stop offset="0" stop-color="#fff"/><stop offset=".306" stop-color="#0ff"/><stop offset="1" stop-color="#06f"/></radialGradient><radialGradient gradientUnits="userSpaceOnUse" r="819.2" cx="0" cy="0" spreadMethod="pad" gradientTransform="matrix(.003 0 0 .003 18.75 3.25)" id="C"><stop offset="0" stop-color="#fff"/><stop offset=".306" stop-color="#0ff"/><stop offset="1" stop-color="#06f"/></radialGradient><radialGradient gradientUnits="userSpaceOnUse" r="819.2" cx="0" cy="0" spreadMethod="pad" gradientTransform="matrix(.002 0 0 .002 14.6 9.6)" id="D"><stop offset="0" stop-color="#fff"/><stop offset=".306" stop-color="#0ff"/><stop offset="1" stop-color="#06f"/></radialGradient><radialGradient gradientUnits="userSpaceOnUse" r="819.2" cx="0" cy="0" spreadMethod="pad" gradientTransform="matrix(.002 0 0 .002 17.6 9.9)" id="E"><stop offset="0" stop-color="#fff"/><stop offset=".306" stop-color="#0ff"/><stop offset="1" stop-color="#06f"/></radialGradient><radialGradient gradientUnits="userSpaceOnUse" r="819.2" cx="0" cy="0" spreadMethod="pad" gradientTransform="matrix(.005 0 0 .005 21.85 10.8)" id="F"><stop offset="0" stop-color="#fff"/><stop offset=".306" stop-color="#0ff"/><stop offset="1" stop-color="#06f"/></radialGradient><radialGradient gradientUnits="userSpaceOnUse" r="819.2" cx="0" cy="0" spreadMethod="pad" gradientTransform="matrix(.002 0 0 .002 13.6 1.75)" id="G"><stop offset="0" stop-color="#fff"/><stop offset=".306" stop-color="#0ff"/><stop offset="1" stop-color="#06f"/></radialGradient><radialGradient gradientUnits="userSpaceOnUse" r="819.2" cx="0" cy="0" spreadMethod="pad" gradientTransform="matrix(.003 0 0 .003 10.75 2.55)" id="H"><stop offset="0" stop-color="#fff"/><stop offset=".306" stop-color="#0ff"/><stop offset="1" stop-color="#06f"/></radialGradient><radialGradient gradientUnits="userSpaceOnUse" r="819.2" cx="0" cy="0" spreadMethod="pad" gradientTransform="matrix(.003 0 0 .003 8.4 4.45)" id="I"><stop offset="0" stop-color="#fff"/><stop offset=".306" stop-color="#0ff"/><stop offset="1" stop-color="#06f"/></radialGradient><radialGradient gradientUnits="userSpaceOnUse" r="819.2" cx="0" cy="0" spreadMethod="pad" gradientTransform="matrix(.004 0 0 .004 10.4 14.8)" id="J"><stop offset="0" stop-color="#fff"/><stop offset=".306" stop-color="#0ff"/><stop offset="1" stop-color="#06f"/></radialGradient><radialGradient gradientUnits="userSpaceOnUse" r="819.2" cx="0" cy="0" spreadMethod="pad" gradientTransform="matrix(.008 0 0 .008 2.9 27.75)" id="K"><stop offset="0" stop-color="#fff"/><stop offset=".306" stop-color="#0ff"/><stop offset="1" stop-color="#06f"/></radialGradient><radialGradient gradientUnits="userSpaceOnUse" r="819.2" cx="0" cy="0" spreadMethod="pad" gradientTransform="matrix(.005 0 0 .005 10 24.75)" id="L"><stop offset="0" stop-color="#fff"/><stop offset=".306" stop-color="#0ff"/><stop offset="1" stop-color="#06f"/></radialGradient><radialGradient gradientUnits="userSpaceOnUse" r="819.2" cx="0" cy="0" spreadMethod="pad" gradientTransform="matrix(.003 0 0 .003 15 26.15)" id="M"><stop offset="0" stop-color="#fff"/><stop offset=".306" stop-color="#0ff"/><stop offset="1" stop-color="#06f"/></radialGradient><radialGradient gradientUnits="userSpaceOnUse" r="819.2" cx="0" cy="0" spreadMethod="pad" gradientTransform="matrix(.005 0 0 .005 12.45 27.15)" id="N"><stop offset="0" stop-color="#fff"/><stop offset=".306" stop-color="#0ff"/><stop offset="1" stop-color="#06f"/></radialGradient><radialGradient gradientUnits="userSpaceOnUse" r="819.2" cx="0" cy="0" spreadMethod="pad" gradientTransform="matrix(.004 0 0 .004 22.5 19.75)" id="O"><stop offset="0" stop-color="#fff"/><stop offset=".306" stop-color="#0ff"/><stop offset="1" stop-color="#06f"/></radialGradient><radialGradient gradientUnits="userSpaceOnUse" r="819.2" cx="0" cy="0" spreadMethod="pad" gradientTransform="matrix(.002 0 0 .002 25.2 15.5)" id="P"><stop offset="0" stop-color="#fff"/><stop offset=".306" stop-color="#0ff"/><stop offset="1" stop-color="#06f"/></radialGradient><radialGradient gradientUnits="userSpaceOnUse" r="819.2" cx="0" cy="0" spreadMethod="pad" gradientTransform="matrix(.003 0 0 .003 17.9 17.9)" id="Q"><stop offset="0" stop-color="#fff"/><stop offset=".306" stop-color="#0ff"/><stop offset="1" stop-color="#06f"/></radialGradient><radialGradient gradientUnits="userSpaceOnUse" r="819.2" cx="0" cy="0" spreadMethod="pad" gradientTransform="matrix(.006 0 0 .006 19.7 29.55)" id="R"><stop offset="0" stop-color="#fff"/><stop offset=".306" stop-color="#0ff"/><stop offset="1" stop-color="#06f"/></radialGradient><radialGradient gradientUnits="userSpaceOnUse" r="819.2" cx="0" cy="0" spreadMethod="pad" gradientTransform="matrix(.001 0 0 .001 24.7 29.25)" id="S"><stop offset="0" stop-color="#fff"/><stop offset=".306" stop-color="#0ff"/><stop offset="1" stop-color="#06f"/></radialGradient><radialGradient gradientUnits="userSpaceOnUse" r="819.2" cx="0" cy="0" spreadMethod="pad" gradientTransform="matrix(.001 0 0 .001 24.5 31.3)" id="T"><stop offset="0" stop-color="#fff"/><stop offset=".306" stop-color="#0ff"/><stop offset="1" stop-color="#06f"/></radialGradient><radialGradient gradientUnits="userSpaceOnUse" r="819.2" cx="0" cy="0" spreadMethod="pad" gradientTransform="matrix(.002 0 0 .002 6.45 30.55)" id="U"><stop offset="0" stop-color="#fff"/><stop offset=".306" stop-color="#0ff"/><stop offset="1" stop-color="#06f"/></radialGradient><radialGradient gradientUnits="userSpaceOnUse" r="819.2" cx="0" cy="0" spreadMethod="pad" gradientTransform="matrix(.003 0 0 .003 8.05 31.45)" id="V"><stop offset="0" stop-color="#fff"/><stop offset=".306" stop-color="#0ff"/><stop offset="1" stop-color="#06f"/></radialGradient><radialGradient gradientUnits="userSpaceOnUse" r="819.2" cx="0" cy="0" spreadMethod="pad" gradientTransform="matrix(.008 0 0 .008 9.3 41.15)" id="W"><stop offset="0" stop-color="#fff"/><stop offset=".306" stop-color="#0ff"/><stop offset="1" stop-color="#06f"/></radialGradient><radialGradient gradientUnits="userSpaceOnUse" r="819.2" cx="0" cy="0" spreadMethod="pad" gradientTransform="matrix(.004 0 0 .004 16.25 44.85)" id="X"><stop offset="0" stop-color="#fff"/><stop offset=".306" stop-color="#0ff"/><stop offset="1" stop-color="#06f"/></radialGradient><radialGradient gradientUnits="userSpaceOnUse" r="819.2" cx="0" cy="0" spreadMethod="pad" gradientTransform="matrix(.008 0 0 .008 16 48.05)" id="Y"><stop offset="0" stop-color="#fff"/><stop offset=".306" stop-color="#0ff"/><stop offset="1" stop-color="#06f"/></radialGradient><radialGradient gradientUnits="userSpaceOnUse" r="819.2" cx="0" cy="0" spreadMethod="pad" gradientTransform="matrix(.001 0 0 .001 16.3 43.45)" id="Z"><stop offset="0" stop-color="#fff"/><stop offset=".306" stop-color="#0ff"/><stop offset="1" stop-color="#06f"/></radialGradient><radialGradient gradientUnits="userSpaceOnUse" r="819.2" cx="0" cy="0" spreadMethod="pad" gradientTransform="matrix(.005 0 0 .005 45.1 2.95)" id="aa"><stop offset="0" stop-color="#fff"/><stop offset=".306" stop-color="#0ff"/><stop offset="1" stop-color="#06f"/></radialGradient></defs><path fill="url(#a)" d="M42.05 5.9v-.1.1"/><path fill="url(#b)" d="M42.05 5.9v-.1q.05-.55.5-.9 1.05-.75 1.7.15l.15.25-.5.6-.15.3h.05l.25.2q.95.65.3.95l-.5.15-.15-.05-1.3-.1.1.2q.55.8 2 .85l-1.95.6.7.65h.15l.15-.05q1.15-.55 2.5-.8.35.75.15 1.15-.25.5-1.4.45l-.6.8 2.85.1 1.85.45-.15.35-.7 1.05-1.95-.35H45l.7.95q.35.85.1 1.85v.05l-1.1-.45-.75-.45-.25-.15v-.05l-.2-.15-.1-.05-1.1-.9.25.75.15.75-.15.3-.05.4-.7.35-.25.25q-.45.55.25 1.5-.2.5.05.75l-.4.25-1.2.85-.1.1q-.15.2-.05.55l.05.25-.7.4q-1.2.35-1.05 1.25l-.6-.1h-.05q-.85 1.85-2.3 1.85l-.4-.6q-.2-.55-.25-1.3l-.15-1.8-.2-.45-.6.45-.05.05-.9.7-.25.1q-1.95.3-1.7 1.65l.1.35.1.25v.55q-.6 1-.6 1.8 0 .7-.45.95l.7.2.6.35-.5.75q-.35.6-.35 1.35l.1.6.2.45q.25.7.8 1.2l.65.65q1.7 1.45 3.75 2.2 1.15.4 1.9 1.35l.05.05.2.15q.25.15.5-.2l.05-.1.1-.1.2-.35.7.4.3.25q-.35 1.05.45 1.15l.05.05h.15l.8-.55.55-1.05.05-.45v-.3l.45-.4q.75-.6 1.2-.3l-.25.5q-.2.55-.05.95v.05l.2.25.7.4q.6.25 1.1-.25l.45-.45 1-.75q.7.15 1.35.55l.7.6.2.25.25.9-1.8.85q-1.35.45-2.45 1.25l-.45.35q-.2.2-.05.45l.15.15 1.1.9 2 .95 1.95 1 .35 1.2v.1l-3-.25q.5.1.95.4l.15.1q.45.3.5.9.2 1.4-1.1 1.35l-.35-.2-2.9-1.2q-1.75-.6-3.15.4h-.05l-.4-.45v.1q-.45 2-2.5 1.45-.6.5-1.35.65l-.15-.3q-.65-1.4-2.1-1.4l-.65.15q-.9.35-.75.95l-.85.4-.15-.1-.7-.8-.15-.45-.05-.6-1.2 1.05-.25.15-1.45.5q-.55.1-.5-.3.05-.85.35-1.6l.4-.9-.65.3-2.35.95-.65.2.55-.65q.4-.45.15-.85l-.1-.1-1.55.85v-.2q-1.2-.05-1.8.45l-.55.85-.1.2q-.15.7.05 1.35l-.35.2q-1.55 1.05-3.5 1.05-.65.05-1.15-.3l-.4-.4-.2-.35v-.45q-1.05.75-2.85 0l.1-.6.05-.2.8-.45.9.05 2.85-.35q-.65-.2-.25-.65L19 43.6l-3 .05.8-.35-1 .3.2.05-1.75.35.7-.4q-2.35-.95-4.7 1.1-1 .9-2.25.9.5-1.45 1.55-2.15.6-.4 1.4-.6l.8-.15h.2l.7-.05.3-.1q-1.4-.45-2.75.25-1.55.5-2.2-.85-.9.8-2.1.6-1-.2-.55-.9.95-1.4 2.6-.5.1-1.25 2.35-1l.8-.15.1-.05.7.05q1.55.8 3.35.65l.6-.2.35.05h.2q1.55.15 2.55-.8l.25-.2q.8-.6 1.95-.7 2.4-.1 1.7-2.4l-.05-.2-.55-1.05-1.05-.75.75-1.1q-.75-.4 0-1.1l.7-1h-.9l-1.05-.6q.45-.8 1.85-.6-1-.4-1.65-1.45l-.2-.35q1.15-1.15.25-2.25-.75 1.45-2.35 1.65-.8.1-.8-.55 0-.85.25-1.55l.4-.8q-.45.45-.9.35.1-.95-.35-1.9-.85 1.15-1.05.4V22.4q-.55.55-.35 1.5v.05l.1 1.4-.65.3-.3-1-.4-.65.4-3.85q-.4.3-.6.85-.6 1.4-.6 2.95l-.05 1.75q-.7.8-.9-.85l-.3-1.65.1-3.5v-.35l-.55.6q-.25.4-.35.9l-1.4 1.4-.65-.65q.25 1.2-.2 2.25-.45 1.25-.7-.3l-.15-2.1v-.2l-.15.25q-.15.3-.15.75l.25 2.7.1 1.1-.25 1.6v-.05l-.2.5q-.1.55.2 1.05L9 30.7l-.35.1q-1.45.1-1.6-1.3v-.05q-.2.65-1 .9L6 30.1l-.05-2-.9.8q-.65.75-1.05 1.8l-.35.75-.45.7-.75.6q-1.35 1.2-1.65-.2-.1-.7.15-1.35l.15-.3 2.5-3.95q1-1.5 2.15-2.25-.65.05-.95-.4-.3-.35-.2-.7.1-.4.8-.75-.5.15-.55-.4v-.8l.95-.95 2.3-2.25q.65-.7.85-1.55v-.15h1.65q1.75-.1 1.45-1.1l-.1-.25-.05-.05q-.15-.25-.5-.3.5-.75 1.45-.9.4-.05.3-.65v-.1l2.35.1.75-.2 2.8-1.55.5-.3q.6-.5.65-1.45v-.7l-.05-.05-.05-.1L20 9l-.1-.05q-.25 0-.5.35l-.75.85q-1.15.05-1.1-.9.6-.55 1.3-.85-1.6.2-2.85 1.35l.1-.2-.05-.95.05-.1 3.3-1-1.7-.7q2.2.35 1.35-1.2.5-.9.6-2 .05-.6.25-.9l.1-.15.9-.55.3.3q.75.85 1.6 1.3l.25-.6.15.15-.05.8q1.2.5 1.05-.55l1.15-.7h.35q-.6.55.05.95l.05-.05.55-.55q.15.7.7.75l-.15.3 1.35.2.3.55-.1.5-.4.3-1.2-.15q-.45-.15-.65.35l-.05.1v.15l-.45.45-.5.9-.15.8.05.9-.1.3-.25.35q-.35.4-1.1.55l.85.15q1.25.1 2.45-.45.75-.4 1 0-.9.05-1.75.5l-.4.25q-.6.45-.5.95v.15l.15.25.25.3.4-.3q.65-.45 1.15-.3l-.05.25-.05.95.1.25q1.05-.25 1.5.3l.8-.55q.25.4-.15.9h.3l-.2.3 2.15.25.1.05.65.25q.25.75-1.15.55l.05.4.5.25q.6.4 1 .2.85 1.4 2.8.55 1.6-.65 1.8-2.3l.25-3.15q.05-1.65 1.3-2.35v-.1l.05-.1-.1-.7-.05-.1-.25-.35.55-.8.1-.1v.05l.2.25q.4.3.95.4l.15-.1q.85-.5 1.35-1.45l.15.05m1.65 36.05l-.15-.1-.85-.4.45.55.05.05 1.3 1.05q-.05-.7-.8-1.15M22.9 7.1l-.2-.2-.2-.15-.6-.1-.25 4.15-.35 1.4-.2.45-.25.8-.2 1.2v.3l.05-.3.3-1.25 1.75-4.05.3-.95q.1-.65-.15-1.3m5.45 6.9l.4-.4.65.35-.65-.35-.4.4m-4.25 1.75q.7.7 1.8.75h.4l.05-.3-.1-.5-.8-1.15-.8-.6q-.85-.65-1.35-1.45l-.45-.75.45.75q.5.8 1.35 1.45l.8.6q0 .55-.65.9l-.7.3-.6-.85.6.85m-2.55 1.7l-.3 1-.35.65-.4.55q-.45.6-.55 1.05-.25.9 1 1.35l1-1.85q-.2 1.05.65 1.4l.65-1.05q0 1.05 1.5.65l.35-.95.05-.4-1.05.05-.7-.05q-.5-.3-.5-1.3l.05-1q-1.3 1.25-1.4-.1l.05-.9-.05.9m3.55 1.45l.05.95-.05-.95m5.6-3.35l.6.2-.6-.2M30 18.4l.45.4q.55.4 1.3.6l.5.1v-.35L32.2 19q-.25-.6-1.4-.75 1.15.15 1.4.75l.05.15v.35l-.5-.1q-.75-.2-1.3-.6l-.45-.4M19.1 17l-.05-.15-.2-.5-.1-.15-.4-.3-.6.05-.4.8-.55 2.05-.1.8.95-1.4-.15.5q-.1.7.4 1.35l1-1.45.15-.5.05-1.1m1.15 25.3l-.8.1-.1-.05q.75-.7 1.65-.95l.75-.15-.75.15q-.9.25-1.65.95l.1.05.8-.1m11.25-8.45l1.8 1.65.6.1q.4-1.25-1.2-1.9-1.25-.45-2.2-1.25l-.6-.5.6.5q.95.8 2.2 1.25 1.6.65 1.2 1.9l-.6-.1-1.8-1.65m-3.7-2.6q0 1 .7 1.65l.3.25q.95.7 1.4 1.85.3.75.15 1.4l-.9-.7q-1.05-1.2-1.75-2.6l-1.6-3-.15-1.55q-.1-1.7-.7-3.25.6 1.55.7 3.25l.15 1.55 1.6 3q.7 1.4 1.75 2.6l.9.7q.15-.65-.15-1.4-.45-1.15-1.4-1.85l-.3-.25q-.7-.65-.7-1.65m-3.25-.9l-.1.35v.15q-.15.7.1 1.35l.05-1.35-.05-.5.25-1.45-.15-.75-.1 2.2m2.1 7.25q.35.55.3 1.25l-.1.45q-.25 1.15-1.05.3l-.25-.25q-1.05-1.3-.35-2.8l.1-.25q.45-1.25.2-2.55.25 1.3-.2 2.55l-.1.25q-.7 1.5.35 2.8l.25.25q.8.85 1.05-.3l.1-.45q.05-.7-.3-1.25m4.7 1.9l-1.65-.9-1.5-1.35-.8-.95-.7-1.55-.35-1.25-.25-3.4.25 3.4.35 1.25.7 1.55.8.95 1.5 1.35 1.65.9m5.15-.7q-.25-.2-.55-.3l-2.5-.95.6.6q.5.45 1.2.75l1.25-.1m.95 2.6l.95.2 1.7-.4q.8-.35.9-.85l-.8-.25-5.05-.5 5.05.5.8.25q-.1.5-.9.85l-1.7.4-.95-.2m-1.35 3.25l1.1.05 1.05-.4-.85-.1-1.45-.35-3.4-1.4 3.15 2 .4.2"/><path fill="url(#c)" d="M38.6 7.6l-.55-.45-.9-.35q-1.4-.35-1.4-.8.05-.4 1.05-.9l.5-.15.15.95.2.5-.05-.5q0-1 .8-1.4-.4 1-.35 1.4l.8-.05.2-.15q.2-.65 0-.75.85.15.6.9l-.3.55-.1.3-.1.1-.55.8"/><path fill="url(#d)" d="M46.05 8.8l.25-.05q1.4-.25 1.35.7 0 .7-.9.55l-.55-.05q.2-.4-.15-1.15"/><path fill="url(#e)" d="M26.35 3.05l.75-1.1q.4.95-.05 1.85-.55-.05-.7-.75"/><path fill="url(#f)" d="M28.25 4.3l.8-.7.9 1.1v.2q-.05.45-1.1.7l-.7.05h-.1l.4-.3.1-.5-.3-.55"/><path fill="url(#g)" d="M25.1 9.15l.1.25.15.2.2-.2q.9-.95 2.15-1.6l-.95 1.25 1.3-.25h.05l2.2.05q.55.1 1.15.35l.35.15q.6.35.05.75l-2 .2-.35-.1-1.55-.15q-.25-.4-1 0-1.2.55-2.45.45l-.85-.15q.75-.15 1.1-.55l.25-.35.1-.3"/><path fill="url(#h)" d="M32.4 14.8l.6.3q.45.3.15.75l-.35.35q-.4.2-1-.2l-.5-.25-.05-.4q1.4.2 1.15-.55"/><path fill="url(#i)" d="M29.55 13.05q.75-.4 1.6-.65l1.15.05q.25.3-.25 1.25l-1.5-.2q-.6.05-.85.45h-.3q.4-.5.15-.9"/><path fill="url(#j)" d="M35.05 23.3l-1.8-1.8-.2-.15-.45.55q-.8 1.1-.45 2.1-.4 1.15 1.25 1.7-1.2.5-2 1.45l-.6-.35-.7-.2q.45-.25.45-.95 0-.8.6-1.8v-.55l-.1-.25-.1-.35q-.25-1.35 1.7-1.65l.25-.1.9-.7.05-.05.6-.45.2.45.15 1.8q.05.75.25 1.3"/><path fill="url(#k)" d="M48.9 11.75l.35.15q1 .45 1.65 1.4-1.1.45-2.3 0l-.55-.15.7-1.05.15-.35"/><path fill="url(#l)" d="M45.8 15.65v.05q-.65 2.2-1.5.2l-.6-1.3.25.15.75.45 1.1.45"/><path fill="url(#m)" d="M43.4 14.35l-.35.15-.35.45-.15-.75-.25-.75 1.1.9"/><path fill="url(#n)" d="M47.75 19.45l3.7.3.9.5-.6.25-1-.1-3-.95"/><path fill="url(#o)" d="M48.9 22.85l-2.05-1.2 4.45 1.3q1.05.4 2.05.95.95.55-.1.8l-1.5-.2-1.3-.7-1.55-.95"/><path fill="url(#p)" d="M45.1 22.7l.8 2.1.1.65q-.65-.55-.95-1.5-.2-.7.05-1.25"/><path fill="url(#q)" d="M46.9 34.65l.9-.55q1.75-.9 2.85.5l.3.65-.5.85-.05.05-1 .8-.25-.9-.2-.25-.7-.6q-.65-.4-1.35-.55"/><path fill="url(#r)" d="M49.85 42.85l.2.15 1.25.9 1.05 1.4q.55 1 0 2-.8 1.4-2.5.45l-2.15-1.1q1.3.05 1.1-1.35-.05-.6-.5-.9l-.15-.1q-.45-.3-.95-.4l3 .25v-.1l-.35-1.2"/><path fill="url(#s)" d="M38.9 27.85q-.35-.9-1.15-1.25 1.6.3 2.3 1.4l.2.35-1.1-.1-.25-.4"/><path fill="url(#t)" d="M42.1 34.65l-.05-.1q-.05-.45.05-.75.1-.6.55-.95.65-.55 1.3.15.2.25 0 .6l-.2.35q-.45-.3-1.2.3l-.45.4"/><path fill="url(#u)" d="M39.05 35.15l.5-.4.7.05-.1.7-.1.3-.3-.25-.7-.4"/><path fill="url(#v)" d="M36.5 38.8l-1.25.1q-.7-.3-1.2-.75l-.6-.6 2.5.95q.3.1.55.3"/><path fill="url(#w)" d="M36.1 44.65l-.4-.2-3.15-2 3.4 1.4 1.45.35.85.1-1.05.4-1.1-.05"/><path fill="url(#x)" d="M32.5 47.2l-1.5.9q-1.6 1.15-2.05 0l-.05-.2v-.35l.3-.4.05-.05.55-.4.6-.4-.4.15.25-.15 1.2-1.05.05.6.15.45.7.8.15.1"/><path fill="url(#y)" d="M28.55 46.95L27 47.5q-.5.2-.4-.65.1-.9.45-1.55-1.4.9-2.85.4v-.05l-.05-.4v-.3l.05-.1 1.55-.85.1.1q.25.4-.15.85l-.55.65.65-.2 2.35-.95.65-.3-.4.9q-.3.75-.35 1.6-.05.4.5.3"/><path fill="url(#z)" d="M41.25 45.65q-1.2.85.9 1.45.65.15 1.1.5-1.75-.2-3.5-.05-.9 1.65-2.5.55-.3-.2-.25-.7.75-.15 1.35-.65 2.05.55 2.5-1.45v-.1l.4.45"/><path fill="url(#A)" d="M43.7 41.95q.75.45.8 1.15l-1.3-1.05-.05-.05-.45-.55.85.4.15.1"/><path fill="url(#B)" d="M24.2 3.4l-.7-1.8 1.4-.1q.8.1 1.2.9l-.4.3h-.35l-1.15.7"/><path fill="url(#C)" d="M19.05 5.6l-.4-.45-.05-.05h-.35q-1.35-.55.05-1.4-.45-.45-1.5.3l-.05-.3q-.1-1.1 1.95-1-.35-1.3-2.05-.95 1.25-.35 2.95 0-.25-.4-.05-.85.65.1 1.05.7l.3.4-.9.55-.1.15q-.2.3-.25.9-.1 1.1-.6 2"/><path fill="url(#D)" d="M16 9.75l-.15.15-1.25.65q-2.45.5-.85-1.2l.25-.2q.35-.3.85-.4l1.25-.25-.05.1.05.95-.1.2"/><path fill="url(#E)" d="M18.65 10.15l-.1.05q-.85.55-1.95.3l.05-.1.9-1.15q-.05.95 1.1.9"/><path fill="url(#F)" d="M22.9 7.1q.25.65.15 1.3l-.3.95L21 13.4l-.3 1.25-.05.3v-.3l.2-1.2.25-.8.2-.45.35-1.4.25-4.15.6.1.2.15.2.2"/><path fill="url(#G)" d="M13.75.5q.25-.2.05.55-.3 1.3.3 2Q12.4 1.5 13.75.5"/><path fill="url(#H)" d="M12.9 4.3q-.5-.45-1.4-.95L8.8 1.6q-.35-.3 0-.55 1.2-.8 2.2.6l1.9 2.65"/><path fill="url(#I)" d="M6.1 5.05q.2-.9 1.35-1.1 1.8-.3 3.2.7l-2.4.15-2.15.25"/><path fill="url(#J)" d="M8.95 16.75v-1.3l-1.3.05.05-.35q.2-.95 1.5-.9h.05v-.05H9.2q-.35-.2-.25-.5l.05-.1q.55-1.1 1.8-.55l.65.4 1.7-.05v.1q.1.6-.3.65-.95.15-1.45.9.35.05.5.3l.05.05.1.25q.3 1-1.45 1.1H8.95m.95-2.45l-.65-.05.65.05"/><path fill="url(#K)" d="M3.2 32.15l-1.6 1.5-.5.2q-.6.15-.9-.55l-.1-.35q-.25-.9.25-1.75l.05-.05q1.8-3.05 3.7-5.5-.4.5-1.25.7.15-1.65.95-3.15l1.05-1.55v.8q.05.55.55.4-.7.35-.8.75-.1.35.2.7.3.45.95.4-1.15.75-2.15 2.25L1.1 30.9l-.15.3q-.25.65-.15 1.35.3 1.4 1.65.2l.75-.6"/><path fill="url(#L)" d="M11.7 20.85l-.05.75q.05 1.65-1.15 2.55l-.15-.8q-.4.1-.35.5.2 1.5-.5 2.5l-.25.3v.2q-.1.7.2 1.65-.65.45-1.05-.85l.25-1.6-.1-1.1-.25-2.7q0-.45.15-.75l.15-.25v.2l.15 2.1q.25 1.55.7.3.45-1.05.2-2.25l.65.65 1.4-1.4"/><path fill="url(#M)" d="M15.9 25.35l-.15.9-.8 1.35-.85.75.45-4.35.4.65.3 1 .65-.3"/><path fill="url(#N)" d="M13.7 25.7l-.3 1.45q-.6 2.3-2.15 3.95 0-1.05.3-2.05l.45-2.1.5-3.75.3 1.65q.2 1.65.9.85"/><path fill="url(#O)" d="M21.95 20.2l-1 1.85q-1.25-.45-1-1.35.1-.45.55-1.05l.4-.55.35-.65.3-1q.1 1.35 1.4.1l-.05 1q0 1 .5 1.3l.7.05 1.05-.05-.05.4-.35.95q-1.5.4-1.5-.65l.15-.7-.15.7-.65 1.05q-.85-.35-.65-1.4l.2-.7-.2.7"/><path fill="url(#P)" d="M25.45 14.55l.8 1.15.1.5-.05.3h-.4q-1.1-.05-1.8-.75l.7-.3q.65-.35.65-.9"/><path fill="url(#Q)" d="M19.1 17l-.05 1.1-.15.5-1 1.45q-.5-.65-.4-1.35l.15-.5-.95 1.4.1-.8.55-2.05.4-.8.6-.05.4.3.1.15.2.5.05.15"/><path fill="url(#R)" d="M21.2 34.4l-.45-.25-1.3.25q-1.1.05-.3-.75.95-.9 1.05-2.25v-.7l-.3.5-.1.15-.35.15-.1.05-.35-.1-.25-.15q-.55-.5.4-1.65l1.15-1.15.05-1.3q-.3.8-.9 1.2l-1.7.25q-.85-.1-1-.65-.2-.6.35-1.7l.3-.6.15-.65q.45.1.9-.35l-.4.8q-.25.7-.25 1.55 0 .65.8.55 1.6-.2 2.35-1.65.9 1.1-.25 2.25l.2.35q.65 1.05 1.65 1.45-1.4-.2-1.85.6l1.05.6h.9l-.7 1q-.75.7 0 1.1l-.75 1.1m-.15-.75l-.3.5.3-.5"/><path fill="url(#S)" d="M24.55 30.35l.1-2.2.15.75-.25 1.45"/><path fill="url(#T)" d="M24.55 30.35l.05.5-.05 1.35q-.25-.65-.1-1.35v-.15l.1-.35"/><path fill="url(#U)" d="M7.05 29.6l-.1 1.15q-.1.65-.6.85l-.55.1.05-.15L6 30.1l.05.25q.8-.25 1-.9V29.6"/><path fill="url(#V)" d="M7.05 29.6v-.1q.15 1.4 1.6 1.3l.35-.1.05.95-.05.55q-.2 2.05-1.1.45l-.45-1.05q-.4-.95-.4-2"/><path fill="url(#W)" d="M10.2 42.8l-1.3.7-1.45.35-1.2-.25q-.9-.35-1.55-1.25l-.2-.4q-.35.3-1.15-.2l-.6-1.7q1.1.4 1.85-.2 1.55-1.35 2.3-.55l.3.35.15.7q.9-1.4 2.25-1.8 1-.3 2.2 0 .55.1.7.7l.15.7q.8-1.1 1.95-.15.55.45 1.25.65l-.6.2q-1.8.15-3.35-.65l-.7-.05-.1.05-.8.15q-2.25-.25-2.35 1-1.65-.9-2.6.5-.45.7.55.9 1.2.2 2.1-.6.65 1.35 2.2.85"/><path fill="url(#X)" d="M14.3 46q.15-.05.25-.15 1.3-.6 2.75-.6h.05q.5-1.05-.7-.95l-.5.05q-1.6.35-2.6 1.7-.3-1.35.7-2.05l1.75-.35 3-.05-1.2 1.45q-.4.45.25.65l-2.85.35-.9-.05"/><path fill="url(#Y)" d="M21.8 47.5l.1.3q.6 1.6-1.65 1.35l-2.75-.05-7.45.55q1.2-1.75 3.15-3l.3-.2-.05.2-.1.6q1.8.75 2.85 0v.45l.2.35.4.4q.5.35 1.15.3 1.95 0 3.5-1.05l.35-.2"/><path fill="url(#Z)" d="M16 43.65l-.2-.05 1-.3-.8.35"/><path fill="url(#aa)" d="M41.9 5.85l.3-.9 1.1-3.1Q44.05.15 45.85 0q1.8-.15.3.95-1.35.95-2.05 2.45l-.25.85Q45 3.65 46.3 3.2l1.05-.15q.8.05.9.45l-.15.7h-.05q-.45.75-1.7.65h-.05q-1.2-.1-1.9.45l-.15-.25q-.65-.9-1.7-.15-.45.35-.5.9v.1l-.15-.05"/><path fill="none" stroke="#000" stroke-width=".05" stroke-linecap="round" stroke-miterlimit="3" d="M26.2 5.85l-.05.25"/><path fill="none" stroke="#00c" stroke-width=".05" stroke-linecap="round" stroke-miterlimit="3" d="M26.15 6.1l-.45.45-.5.9-.15.8.05.9M44.4 5.3l-.5.6-.15.3h.05l.25.2q.95.65.3.95l-.5.15-.15-.05-1.3-.1.1.2q.55.8 2 .85l-1.95.6.7.65h.15l.15-.05q1.15-.55 2.5-.8m.15 1.15q-.25.5-1.4.45l-.6.8 2.85.1 1.85.45m-.85 1.4l-1.95-.35H45l.7.95q.35.85.1 1.85v.05m-2.1-1.05v-.05l-.2-.15-.1-.05m-.7.6l-.15.3-.05.4-.7.35M31.4 27.15l-.5.75q-.35.6-.35 1.35l.1.6.2.45q.25.7.8 1.2l.65.65q1.7 1.45 3.75 2.2 1.15.4 1.9 1.35l.05.05.2.15q.25.15.5-.2l.05-.1.1-.1.2-.35m1 .65q-.35 1.05.45 1.15l.05.05h.15l.8-.55.55-1.05.05-.45v-.3m1.65-.7l-.25.5q-.2.55-.05.95v.05l.2.25.7.4q.6.25 1.1-.25l.45-.45 1-.75m2.5 2.3l-1.8.85q-1.35.45-2.45 1.25l-.45.35q-.2.2-.05.45l.15.15 1.1.9 2 .95 1.95 1m-2.15 3.8l-.35-.2-2.9-1.2q-1.75-.6-3.15.4h-.05M37 47.4l-.15-.3q-.65-1.4-2.1-1.4l-.65.15q-.9.35-.75.95l-.85.4m-2.5-.75l-1.45.5m-4.35-2.1v-.2q-1.2-.05-1.8.45l-.55.85-.1.2q-.15.7.05 1.35m-8.3-1.05l.8-.45m-.05-2l.7-.4q-2.35-.95-4.7 1.1-1 .9-2.25.9.5-1.45 1.55-2.15.6-.4 1.4-.6l.8-.15m.2 0l.7-.05.3-.1q-1.4-.45-2.75.25m5.65-2.35l.35.05h.2q1.55.15 2.55-.8l.25-.2q.8-.6 1.95-.7 2.4-.1 1.7-2.4l-.05-.2-.55-1.05-1.05-.75m-3.65-9.35q.1-.95-.35-1.9-.85 1.15-1.05.4V22.4q-.55.55-.35 1.5v.05l.1 1.4M14.55 24l.4-3.85q-.4.3-.6.85-.6 1.4-.6 2.95l-.05 1.75m-1.2-2.5l.1-3.5v-.35l-.55.6q-.25.4-.35.9m-3.3 6.8v-.05l-.2.5q-.1.55.2 1.05L9 30.7m-3-.6l-.05-2-.9.8q-.65.75-1.05 1.8l-.35.75-.45.7m1.65-10.5l.95-.95 2.3-2.25q.65-.7.85-1.55v-.15m4.2-3.35l2.35.1.75-.2 2.8-1.55.5-.3q.6-.5.65-1.45v-.7l-.05-.05-.05-.1L20 9l-.1-.05q-.25 0-.5.35l-.75.85m-1.1-.9q.6-.55 1.3-.85-1.6.2-2.85 1.35m.1-1.25l3.3-1-1.7-.7q2.2.35 1.35-1.2M20.9 2l.3.3q.75.85 1.6 1.3l.25-.6.15.15-.05.8q1.2.5 1.05-.55m1.5-.7q-.6.55.05.95m.05-.05l.55-.55m.7.75l-.15.3 1.35.2m-.2 1.35l-1.2-.15q-.45-.15-.65.35l-.05.1v.15m1.8 3.95q-.9.05-1.75.5l-.4.25q-.6.45-.5.95v.15l.15.25.25.3.4-.3q.65-.45 1.15-.3l-.05.25-.05.95.1.25q1.05-.25 1.5.3l.8-.55m.15.9l-.2.3 2.15.25m.1.05l.65.25m6.85-8.1v.05l.2.25q.4.3.95.4l.15-.1q.85-.5 1.35-1.45m-12.5 8.1l-.65-.35-.4.4m-2.9.55l.8 1.15.1.5-.05.3h-.4q-1.1-.05-1.8-.75l-.6-.85m1.95-.35l-.8-.6q-.85-.65-1.35-1.45l-.45-.75m-1.3 5.7l-.3 1-.35.65-.4.55q-.45.6-.55 1.05-.25.9 1 1.35l1-1.85.2-.7m-.55-2.95l-.05.9m3.6 2.4l-.05-.95m-1.7.95l-.15.7q0 1.05 1.5.65l.35-.95.05-.4m-3.2.35q-.2 1.05.65 1.4l.65-1.05m7.55-2.3q1.15.15 1.4.75l.05.15v.35l-.5-.1q-.75-.2-1.3-.6l-.45-.4m-8.25 22.85l-.75.15q-.9.25-1.65.95l.1.05.8-.1m9.65-10.35l.6.5q.95.8 2.2 1.25 1.6.65 1.2 1.9l-.6-.1-1.8-1.65m-6.25-8.55q.6 1.55.7 3.25l.15 1.55 1.6 3q.7 1.4 1.75 2.6l.9.7q.15-.65-.15-1.4-.45-1.15-1.4-1.85l-.3-.25q-.7-.65-.7-1.65m-2.3 2.5q.25 1.3-.2 2.55l-.1.25q-.7 1.5.35 2.8l.25.25q.8.85 1.05-.3l.1-.45q.05-.7-.3-1.25m-.55-7.5l.25 3.4.35 1.25.7 1.55.8.95 1.5 1.35 1.65.9m3.8.1l5.05.5.8.25q-.1.5-.9.85l-1.7.4-.95-.2"/><path fill="none" stroke="#007E91" stroke-width=".05" stroke-linecap="round" stroke-miterlimit="3" d="M41.9 5.85l.3-.9 1.1-3.1Q44.05.15 45.85 0q1.8-.15.3.95-1.35.95-2.05 2.45l-.25.85Q45 3.65 46.3 3.2l1.05-.15q.8.05.9.45l-.15.7h-.05q-.45.75-1.7.65h-.05q-1.2-.1-1.9.45m1.65 3.5l.25-.05q1.4-.25 1.35.7 0 .7-.9.55l-.55-.05m2.7 1.8l.35.15q1 .45 1.65 1.4-1.1.45-2.3 0l-.55-.15m-2.25 2.5v.05q-.65 2.2-1.5.2l-.6-1.3m-.3-.25l-.35.15-.35.45m-7.65 8.35l-1.8-1.8-.2-.15-.45.55q-.8 1.1-.45 2.1-.4 1.15 1.25 1.7-1.2.5-2 1.45m7.65 8l.5-.4.7.05-.1.7-.1.3m2.05-1.15l-.05-.1q-.05-.45.05-.75.1-.6.55-.95.65-.55 1.3.15.2.25 0 .6l-.2.35m3.15.7l.9-.55q1.75-.9 2.85.5l.3.65-.5.85-.05.05-1 .8m.45 5.9l.2.15 1.25.9 1.05 1.4q.55 1 0 2-.8 1.4-2.5.45l-2.15-1.1m-6.45-1q-1.2.85.9 1.45.65.15 1.1.5-1.75-.2-3.5-.05-.9 1.65-2.5.55-.3-.2-.25-.7m-4.5-.2l-1.5.9q-1.6 1.15-2.05 0l-.05-.2v-.35l.3-.4.05-.05.55-.4.6-.4-.4.15m-1.45.5L27 47.5q-.5.2-.4-.65.1-.9.45-1.55-1.4.9-2.85.4v-.05l-.05-.4v-.3l.05-.1m-2.4 2.65l.1.3q.6 1.6-1.65 1.35l-2.75-.05-7.45.55q1.2-1.75 3.15-3l.3-.2m.8-.45q.15-.05.25-.15 1.3-.6 2.75-.6h.05q.5-1.05-.7-.95l-.5.05q-1.6.35-2.6 1.7-.3-1.35.7-2.05m-4.05-1.2l-1.3.7-1.45.35-1.2-.25q-.9-.35-1.55-1.25l-.2-.4q-.35.3-1.15-.2l-.6-1.7q1.1.4 1.85-.2 1.55-1.35 2.3-.55l.3.35.15.7q.9-1.4 2.25-1.8 1-.3 2.2 0 .55.1.7.7l.15.7q.8-1.1 1.95-.15.55.45 1.25.65m5.35-6.05l-.45-.25-1.3.25q-1.1.05-.3-.75.95-.9 1.05-2.25v-.7l-.3.5-.1.15-.35.15m-.1.05l-.35-.1-.25-.15q-.55-.5.4-1.65l1.15-1.15.05-1.3q-.3.8-.9 1.2l-1.7.25q-.85-.1-1-.65-.2-.6.35-1.7l.3-.6.15-.65m-1.65.3l-.15.9-.8 1.35-.85.75.45-4.35m-.85 1.7l-.3 1.45q-.6 2.3-2.15 3.95 0-1.05.3-2.05l.45-2.1.5-3.75m-.8-2.35l-.05.75q.05 1.65-1.15 2.55l-.15-.8q-.4.1-.35.5.2 1.5-.5 2.5l-.25.3v.2q-.1.7.2 1.65-.65.45-1.05-.85M9 30.7l.05.95-.05.55q-.2 2.05-1.1.45l-.45-1.05q-.4-.95-.4-2l-.1 1.15q-.1.65-.6.85l-.55.1.05-.15L6 30.1m-2.8 2.05l-1.6 1.5-.5.2q-.6.15-.9-.55l-.1-.35q-.25-.9.25-1.75l.05-.05q1.8-3.05 3.7-5.5-.4.5-1.25.7.15-1.65.95-3.15l1.05-1.55m4.1-4.9v-1.3l-1.3.05.05-.35q.2-.95 1.5-.9h.05v-.05H9.2q-.35-.2-.25-.5l.05-.1q.55-1.1 1.8-.55l.65.4 1.7-.05m5.5-3.25l-.1.05q-.85.55-1.95.3l.05-.1.9-1.15m-1.55.5l-.15.15-1.25.65q-2.45.5-.85-1.2l.25-.2q.35-.3.85-.4l1.25-.25m2.95-2.9l-.4-.45-.05-.05h-.35q-1.35-.55.05-1.4-.45-.45-1.5.3l-.05-.3q-.1-1.1 1.95-1-.35-1.3-2.05-.95 1.25-.35 2.95 0-.25-.4-.05-.85.65.1 1.05.7l.3.4m3.3 1.4l-.7-1.8 1.4-.1q.8.1 1.2.9l-.4.3m.65.35l.75-1.1q.4.95-.05 1.85m1.2.5l.8-.7.9 1.1v.2q-.05.45-1.1.7l-.7.05h-.1m-2.95 3.5l.1.25.15.2.2-.2q.9-.95 2.15-1.6l-.95 1.25 1.3-.25m.05 0l2.2.05q.55.1 1.15.35l.35.15q.6.35.05.75l-2 .2-.35-.1-1.55-.15m1.6 3q.75-.4 1.6-.65l1.15.05q.25.3-.25 1.25l-1.5-.2q-.6.05-.85.45m2.7.85l.6.3q.45.3.15.75l-.35.35m5.8-8.6l-.55-.45-.9-.35q-1.4-.35-1.4-.8.05-.4 1.05-.9l.5-.15.15.95.2.5-.05-.5q0-1 .8-1.4-.4 1-.35 1.4l.8-.05.2-.15q.2-.65 0-.75.85.15.6.9l-.3.55-.1.3m5.85 16l.8 2.1.1.65q-.65-.55-.95-1.5-.2-.7.05-1.25l-.45-.8m3.1-2.45h-.7m1.85 3.4l-2.05-1.2 4.45 1.3q1.05.4 2.05.95.95.55-.1.8l-1.5-.2-1.3-.7-1.55-.95m-1.15-3.4l3.7.3.9.5-.6.25-1-.1-3-.95M13.75.5q.25-.2.05.55-.3 1.3.3 2Q12.4 1.5 13.75.5m-.85 3.8L11 1.65q-1-1.4-2.2-.6-.35.25 0 .55l2.7 1.75q.9.5 1.4.95m-6.8.75l2.15-.25 2.4-.15q-1.4-1-3.2-.7-1.15.2-1.35 1.1m3.15 9.2l.65.05M7.05 29.5v.1m31.85-1.75q-.35-.9-1.15-1.25 1.6.3 2.3 1.4l.2.35-1.1-.1-.25-.4m-18.15 6.3l.3-.5M46.2 9.95q.2-.4-.15-1.15"/><path fill="none" stroke="#00009D" stroke-width=".05" stroke-linecap="round" stroke-miterlimit="3" d="M41.55 16.25q-.45.55.25 1.5-.2.5.05.75l-.4.25-1.2.85-.1.1q-.15.2-.05.55l.05.25-.7.4q-1.2.35-1.05 1.25l-.6-.1h-.05q-.85 1.85-2.3 1.85l-.4-.6"/><path fill="none" stroke="#000075" stroke-width=".05" stroke-linecap="round" stroke-miterlimit="3" d="M32.8 16.2q.85 1.4 2.8.55 1.6-.65 1.8-2.3l.25-3.15q.05-1.65 1.3-2.35v-.1l.05-.1-.1-.7-.05-.1-.25-.35m-7.3 8.15l.5.25q.6.4 1 .2m-1.5-.45l-.6-.2"/></svg>