<svg xmlns="http://www.w3.org/2000/svg" viewBox="0 0 100.1 103.5" width="100.1" height="103.5"><defs><radialGradient gradientUnits="userSpaceOnUse" r="819.2" cx="0" cy="0" spreadMethod="pad" gradientTransform="matrix(.048 0 0 .048 49.25 32.85)" id="a"><stop offset=".098" stop-color="#660"/><stop offset=".604" stop-color="#630"/><stop offset=".894" stop-color="#3D3D00"/></radialGradient><radialGradient gradientUnits="userSpaceOnUse" r="819.2" cx="0" cy="0" spreadMethod="pad" gradientTransform="matrix(.53 0 0 .53 -3.3 -2.15)" id="b"><stop offset=".114" stop-color="#fff"/><stop offset=".212" stop-color="#f00"/><stop offset=".808" stop-color="#7E0000"/><stop offset="1"/></radialGradient><radialGradient gradientUnits="userSpaceOnUse" r="819.2" cx="0" cy="0" spreadMethod="pad" gradientTransform="matrix(.011 0 0 .011 91.8 27.45)" id="c"><stop offset=".098" stop-color="#660"/><stop offset=".604" stop-color="#630"/><stop offset=".894" stop-color="#3D3D00"/></radialGradient><radialGradient gradientUnits="userSpaceOnUse" r="819.2" cx="0" cy="0" fx="87942.4" fy="0" spreadMethod="repeat" gradientTransform="matrix(.016 0 0 .016 86.15 27.9)" id="d"><stop offset=".098" stop-color="#660"/><stop offset=".604" stop-color="#630"/><stop offset=".894" stop-color="#3D3D00"/></radialGradient><radialGradient gradientUnits="userSpaceOnUse" r="819.2" cx="0" cy="0" spreadMethod="pad" gradientTransform="matrix(.055 0 0 .055 57.05 63.7)" id="e"><stop offset=".098" stop-color="#660"/><stop offset=".604" stop-color="#630"/><stop offset=".894" stop-color="#3D3D00"/></radialGradient><radialGradient gradientUnits="userSpaceOnUse" r="819.2" cx="0" cy="0" spreadMethod="pad" gradientTransform="matrix(.008 0 0 .016 62.75 55.75)" id="f"><stop offset=".114" stop-color="#fff"/><stop offset=".212" stop-color="#f00"/><stop offset=".808" stop-color="#7E0000"/><stop offset="1"/></radialGradient><radialGradient gradientUnits="userSpaceOnUse" r="819.2" cx="0" cy="0" spreadMethod="pad" gradientTransform="matrix(.011 0 0 .011 86.6 41.7)" id="g"><stop offset=".098" stop-color="#660"/><stop offset=".604" stop-color="#630"/><stop offset=".894" stop-color="#3D3D00"/></radialGradient><radialGradient gradientUnits="userSpaceOnUse" r="819.2" cx="0" cy="0" spreadMethod="pad" gradientTransform="matrix(.012 0 0 .012 85.1 52.8)" id="h"><stop offset=".098" stop-color="#660"/><stop offset=".604" stop-color="#630"/><stop offset=".894" stop-color="#3D3D00"/></radialGradient><radialGradient gradientUnits="userSpaceOnUse" r="819.2" cx="0" cy="0" spreadMethod="pad" gradientTransform="matrix(.022 0 0 .022 96.1 27.2)" id="i"><stop offset=".098" stop-color="#660"/><stop offset=".604" stop-color="#630"/><stop offset=".894" stop-color="#3D3D00"/></radialGradient><radialGradient gradientUnits="userSpaceOnUse" r="819.2" cx="0" cy="0" spreadMethod="pad" gradientTransform="matrix(.026 0 0 .026 87.9 84.5)" id="j"><stop offset=".098" stop-color="#660"/><stop offset=".604" stop-color="#630"/><stop offset=".894" stop-color="#3D3D00"/></radialGradient><radialGradient gradientUnits="userSpaceOnUse" r="819.2" cx="0" cy="0" spreadMethod="pad" gradientTransform="matrix(.011 0 0 .016 41.8 60.3)" id="k"><stop offset=".114" stop-color="#fff"/><stop offset=".212" stop-color="#f00"/><stop offset=".808" stop-color="#7E0000"/><stop offset="1"/></radialGradient><radialGradient gradientUnits="userSpaceOnUse" r="819.2" cx="0" cy="0" spreadMethod="pad" gradientTransform="matrix(.027 0 0 .027 61.3 84.1)" id="l"><stop offset=".098" stop-color="#660"/><stop offset=".604" stop-color="#630"/><stop offset=".894" stop-color="#3D3D00"/></radialGradient><radialGradient gradientUnits="userSpaceOnUse" r="819.2" cx="0" cy="0" spreadMethod="pad" gradientTransform="matrix(.02 0 0 .02 74.9 87.35)" id="m"><stop offset=".098" stop-color="#660"/><stop offset=".604" stop-color="#630"/><stop offset=".894" stop-color="#3D3D00"/></radialGradient><radialGradient gradientUnits="userSpaceOnUse" r="819.2" cx="0" cy="0" spreadMethod="pad" gradientTransform="matrix(.024 0 0 .024 10.35 42.65)" id="n"><stop offset=".098" stop-color="#660"/><stop offset=".604" stop-color="#630"/><stop offset=".894" stop-color="#3D3D00"/></radialGradient><radialGradient gradientUnits="userSpaceOnUse" r="819.2" cx="0" cy="0" spreadMethod="pad" gradientTransform="matrix(.007 0 0 .007 16.6 43.25)" id="o"><stop offset=".098" stop-color="#660"/><stop offset=".604" stop-color="#630"/><stop offset=".894" stop-color="#3D3D00"/></radialGradient><radialGradient gradientUnits="userSpaceOnUse" r="819.2" cx="0" cy="0" spreadMethod="pad" gradientTransform="matrix(.014 0 0 .014 17.4 55.55)" id="p"><stop offset=".098" stop-color="#660"/><stop offset=".604" stop-color="#630"/><stop offset=".894" stop-color="#3D3D00"/></radialGradient><radialGradient gradientUnits="userSpaceOnUse" r="819.2" cx="0" cy="0" spreadMethod="pad" gradientTransform="matrix(.035 0 0 .035 23.15 83.05)" id="q"><stop offset=".098" stop-color="#660"/><stop offset=".604" stop-color="#630"/><stop offset=".894" stop-color="#3D3D00"/></radialGradient><radialGradient gradientUnits="userSpaceOnUse" r="819.2" cx="0" cy="0" spreadMethod="pad" gradientTransform="matrix(.012 0 0 .012 27 66.2)" id="r"><stop offset=".098" stop-color="#660"/><stop offset=".604" stop-color="#630"/><stop offset=".894" stop-color="#3D3D00"/></radialGradient><radialGradient gradientUnits="userSpaceOnUse" r="819.2" cx="0" cy="0" spreadMethod="pad" gradientTransform="matrix(.012 0 0 .012 17.25 70)" id="s"><stop offset=".098" stop-color="#660"/><stop offset=".604" stop-color="#630"/><stop offset=".894" stop-color="#3D3D00"/></radialGradient><radialGradient gradientUnits="userSpaceOnUse" r="819.2" cx="0" cy="0" spreadMethod="pad" gradientTransform="matrix(.004 0 0 .004 23.35 72.05)" id="t"><stop offset=".098" stop-color="#660"/><stop offset=".604" stop-color="#630"/><stop offset=".894" stop-color="#3D3D00"/></radialGradient></defs><path d="M74.15 13.3q-5.85 4.5-11.3 9.6l-3 3-1.45-12.85q5.05-7 10.7-12.95-1.9 6.9-1.5 14.05 2.85-.45 6.45-2.7l.1 1.85m-18.8 2.55q-.95 4.8-3.05 9.3-.7 1.5-1.75 2.25-1-1.95-.9-4.2l.1-1.85v-2l-.15 2q-.85 7-2.3 13.95-.25 1.2-.95 1.95-1.95-1.65-2.65-4.1l-.95-3.65-.2 2.85q-.8-2.65-3.05-4.05-1.7-1.1-2.7-2.7-2.05-3.35-5.05-6L31 25.75l-.5-1.5q-.85-2.05-2-3.75L26.45 18q-.9-4.15-1.05-8.4-.05-1.3-.45-2.3 2.5 5.55 8.25 8.5 2.15 1.05 3.35 2.5-.9-7.15-.8-14.4 2.6 4.6 7.6 9.1 3.2-4.9 4.55-10.6-.35 8.6 6.75 13.15l.7.3"/><path fill="url(#a)" d="M55.35 15.85q.65-3.25.8-6.65.05-1.75 1-3.2.55 1.85.9 4.35l.35 2.7 1.45 12.85 3-3q5.45-5.1 11.3-9.6l.25-.2q2.65-2.05 4.35-4.65.4.15-.75 2.45-2.15 4.2-3.85 8.55L72.5 23.9l-.2.55q-.7.7-.35 1.05l.35-1.05.55-.45 1.2-.8 5.5-3.3 2.05-1.4q.35 1.1-1.2 3.3-4.05 6.05-5.2 13.2l-.75 3.15-.9 3.05-.25.2-.4-12.85-8.4 9.35-1.3 1.25-.55-12.9q-.5 5.25-1.5 10.4l-.25 1.3-2.15 8.1q-.9 2.85-2.3 4.8l-1.3-3.75-.6-2.8-.2-2.2v2.2l.5 15.4-.05.05q-.5-3-1.7-5.85l-.8-1.75Q50.7 49 48.75 46l-1.55-2.6 1.3 4.65q.65 2.25.25 3.85-3.2-6.4-7.25-12.25l-.55-.7q-2.55-3.6-5.5-6.95l-3.85-4.4-.4 8.5-1.7-3.1q-.4-1.6-1.2-3.15L24.65 23l-5.35-7.9q-1.55-2.25-2.5-4.75 2.75 2.85 6.35 5.05l3.3 2.6 2.05 2.5q1.15 1.7 2 3.75l.5 1.5.75-6.15q3 2.65 5.05 6 1 1.6 2.7 2.7 2.25 1.4 3.05 4.05l.2-2.85.95 3.65q.7 2.45 2.65 4.1.7-.75.95-1.95 1.45-6.95 2.3-13.95h.15l-.1 1.85q-.1 2.25.9 4.2 1.05-.75 1.75-2.25 2.1-4.5 3.05-9.3M31.1 26.05l-.1-.3.1.3M47.15 43.3q-.55-2.2-1.55-4.15l-.2-.4.15.45q.6 2.1 1.6 4.1"/><path fill="url(#b)" d="M74.05 23.2l-1.2.8-.35-.1 1.65-4.45-.1 3.75"/><path fill="url(#c)" d="M90.3 33.1l.2-14.45q.5 3.5 1.9 6.65l.95 2.3q-1.55 3.35-1.85 7.05l-.1 1.55-.75-1.95-.05-.2-.3-.95"/><path fill="url(#d)" d="M86.15 40.75V39.7l-.25-.8q-.95-2.95-1.55-6l-.65-2.45.7-6.9q.4-3.65.4-7.35v-1.15q1 3.45 2.55 6.8l1.25 3.3q-.9-1.6-2.5-2.65-.55 2.8-.45 7.55l.05 1.7q.65 2.65 2.2 5l.05.1.05.05-1.85 3.85m0-2.15v1.1-1.1"/><path fill="url(#e)" d="M78.5 58.75q-2.4 1.8-3.7 3.75l-1.7 2.35v.3q2.7-1.45 5.65-1.9-.3 1.65.15 3.35l-1.35-.85q1.1 4.15 1.4 8.5l-1.45-.65 4.8 5.45 4.05 5.05.4.6q1.8 2.45 2.35 5.45l.4 2.25q-1.3.05-2.25 1.1l-.15.05q-.15-.75-.7-1.35l-.05-.15.7-.65.05-.1-2.8-5.35-.05-.15-4.55-1.9h-.2q-.6.35-.7 1.35L73 81.8q-3.35-2.15-6.1-5-1.05-1.05-1.2-2.4l-.15 6.55-.6 3.6-.65-.15-.7-2-.35-1.75q-.45-2.4-.25-4.9l-.05-1.55-3.5 6.5v-4.4l.1-7.95q.05-1.1-.3-1.7l-1.45 2.1Q55.85 71.7 54.75 75q-.7 2.35-1.8 4.5-1.2 2.4-2.75 4.6l-1 .95-.7-2.05q-.45-1.6-.6-3.6l-.4 4.3-.35 2.05-3.5 1.15q-.85.3-1.2 1-1.8 3.75.9 6.25l.7.75 1.35-.55.05.15q.4 2.55-1.4 3.45-3.6 1.7-7.55 3.2L40.85 98q1.2-.8 1.2-2.15-.05-1.8-2.05-3.7-2.5-2.5-1.1-5.15l-.75-.15 2.15-3.05q.2-2.55 1.25-4.95l.3-.7 1.8-3.45 1.55-3.3-1.6 1.1-2.05 1.85-.5.6.95-2.75q.85-2.25 2.15-4.2 1.2-1.75 1.4-3.3-3.4 3.85-7.2 7.2-2.35 2.15-4.85 3.7l1.3-3.45q1-2.5.55-2.5-1.1 3.3-3.4 5.9L29 78.9l.55-2.35q.75-3 1-6.1l.05-.75q.25-2.6.85-5.2.75-3.05.75-6.2v-.75q0-2.5-.75-4.85l-.55-1.65q-1.35-3.35-1.95-6.65l-.7-3.3-1.05-3.5q-.8-2.55-2.55-4.75l5.25 3.45-.1-2.1-.3-1.2 1.7 3.1.4-8.5 3.85 4.4q2.95 3.35 5.5 6.95l.55.7q4.05 5.85 7.25 12.25.4-1.6-.25-3.85l-1.3-4.65 1.55 2.6q1.95 3 3.55 6.15l.8 1.75q1.2 2.85 1.7 5.85l-1.3.5 1.4.3 2.05-.25q3.9-1 7.95-.6 4.05.4 4.9 4.5l-.1-1.15q-.3-3.9-.45-7.8l-.1-1.9-.15-9.8v-.4l-.1.4-2.6 6.9q-.55 1.45-1.5 2.6l-.5.6q-1.65 1.8-3.85 3.2-2.65 1.6-5.6 2.85l-.5-15.4h.2l.6 2.8 1.3 3.75q1.4-1.95 2.3-4.8l2.15-8.1.25-1.3q1-5.15 1.5-10.4l.55 12.9 1.3-1.25 8.4-9.35.4 12.85.25-.2-1.1 5.15q-.55 3.4-.75 6.85l-.05.75 1.05-.85 4.3-4 3.15 4.2-2.1 3.1q-1.25 1.5.45 2.35M40.3 83.8l2.65-2.75-1.7 1.5-.95 1.25M69 42.2v.95-.95M54.9 60.55v.2l-.1 6.05.05 3.25.2-4.35q.15-2.6-.15-5.15m-18.55-7.5l-2.7-4.45.1 6.5q.3 6 1.05 11.9.35-5.05 3.65-5.7l3.55-.35 10.25.2-6.9-1.2q-3.55-.5-5.5-2.5-2.05-2.1-3.5-4.4m35 1.1l.3-.2-.1 3.8.1-3.8-.3.2M39.55 86l-.65 1 .65-1m32.4-29.4q.1 3.55.95 7.05l.2 1.2-2.85 2.75 2.85-2.75-.2-1.2q-.85-3.5-.95-7.05"/><path fill="url(#f)" d="M54.85 59.7q2.95-1.25 5.6-2.85 2.2-1.4 3.85-3.2l.5-.6q.95-1.15 1.5-2.6l2.6-6.9h.1l.15 9.8.1 1.9q.15 3.9.45 7.8l.1 1.15q-.85-4.1-4.9-4.5-4.05-.4-7.95.6l-2.05.25-.05-.85"/><path fill="url(#g)" d="M88 36.9q.65.9 1.35.9.55-.5.95-1.95l.05-.05.3-1.55.75 1.95-.1 5.2 1.55-1.45q.65 1.85.9 3.75l.2.95-1.35 1.55-.2 2.6q-.9-1.3-1.5-2.85l-.4-1.1q-.6 3.1-3.4 4.85l-1 .35q-2.85-3.85-5.25-4.55l-1.5-.5q-.2-3.05.35-5.9l.15-.65q.75-2.9 2.7-5.15-.95 1.7-1.5 3.6l1.6 1.75.25.35q-1.65.3-2.7 1.1v.1q-.35 1.95.3 3.5 2.9.7 5.65 2.1v-5.05L88 36.9m4.8 7.75l-.2 1.55.2-1.55M80.25 39.7l-.05.4.05-.4"/><path fill="url(#h)" d="M86.1 50.05l1-.35q2.8-1.75 3.4-4.85l.4 1.1q.6 1.55 1.5 2.85v2.1l-2.85-.1v.55q-.2 3.3 2.75 5.6.6.45.35 1.3-.75 2.05-2.15 2.5-.75-.35-1.3-1.1-.05-2.85-1.35-4.75-2.55.65-5.5 2.85H79.9l-1.4 1q-1.7-.85-.45-2.35l2.1-3.1.7 1.4q1.8-1.2 5.2-2.7l.45-.3.5-.45-.9-1.2m1.3 1.8l-.4-.6.4.6m-1.45.6l.1-.45-.1.45m-5.15 4.7l-.9.6h-.55.55l.9-.6"/><path fill="url(#i)" d="M92.85 39.95l.3-.3q2.15-2.4 3.25-5.8l-.15-13.3-.7-7.05q-.35-2.2-1.05-3.75 1.7 3.3 2.75 6.6.75 2.2 2.05 4.2h-1.05q-.4 2.55-.05 5.05l1.2 3.75-.65 1-.95 3 .4 5.25-1.4 1.55q-1.35 1.75-1.9 3.75l-.95.75-.2-.95q-.25-1.9-.9-3.75m4.3-4.8l.65-1.8-.65 1.8m.55-3.2l.1 1.4-.1-1.4m0-7.95l.5 1.6-.5-1.6"/><path fill="url(#j)" d="M78.9 66.6q.4 1.65 1.5 3.35.75 1.15.9 2.4.45 4 2 6.6 1.2-.2 1.85-.95l3.3 6.7 1.15 2.65q.45 1.15 2.25 1l1.7.3 1.2-1.8q.9-2-.15-4.05-1.65-3.1-2.75-6.35l-.75-2.6.6-.75q.2 3.8 1.9 6.25 1.25 1.8 2.4 2.65l.75-2.45-1-6.7q2.65 3.7 2.2 9.15l-.05 1.5q-1.5 1.7-2 3.8-.25 1-.25 2.1v2.1l.1.15q1.95 2.95 2.5 5.85.15.55-.1 1.3-.95 3.1-2.7 4.45l-.95-1.9q-.05-.7.4-1.4l.15.9.95-2 .1-.4-.1-.3q-.9-2.8-3.4-4-1.7-.75-2.85-1.75h-.25l-.4-2.25q-.55-3-2.35-5.45l-.4-.6-4.05-5.05-4.8-5.45 1.45.65q-.3-4.35-1.4-8.5l1.35.85m16.25 34.55l-.1-.3.1.3"/><path fill="url(#k)" d="M36.35 53.05q1.45 2.3 3.5 4.4 1.95 2 5.5 2.5l6.9 1.2-10.25-.2-3.55.35q-3.3.65-3.65 5.7-.75-5.9-1.05-11.9l-.1-6.5 2.7 4.45"/><path fill="url(#l)" d="M64.3 84.4q-1.5-.15-2.5 1.55 1.35.9 1.7 2.25.5 2.05.4 4.2-.2 4 4.4 5.1 2.45.6 3.45 1.4l3.6.1-.05 1.55-2 .3v-.65l-4.75.2q-2.4.25-4.4 1.1.05-.85-.55-.8l1.3-1.65q-1.35-.7-2.3-1.85l-1.75-6.65q-3.45-1.65-6.1.45-1.1.9-1.4 2.2-1.85-.9-.2-3.65.6-3.2-.8-4.9l-5.2 1.1.35-2.05.4-4.3q.15 2 .6 3.6l.7 2.05 1-.95q1.55-2.2 2.75-4.6 1.1-2.15 1.8-4.5 1.1-3.3 3.05-6.25l1.45-2.1q.35.6.3 1.7l-.1 7.95v4.4l3.5-6.5.05 1.55q-.2 2.5.25 4.9l.35 1.75.7 2m-11.3.1l-.65.15.65-.15m.55-2.65q2.4 2.15 5.75 3 1.55.4 2.5 1.1-.95-.7-2.5-1.1-3.35-.85-5.75-3M60.7 90l.15.55-.15-.55"/><path fill="url(#m)" d="M78.8 85.25q-.1.6-.05 1.3l.1 1v.15q.05 1.6-.95 2.35.65 1.4 2.65 2.6.5-1.45 1.05-2.1l.6 1.45q1.6 2.7 2.65 5.5l-2.8-2.25-1.15.15q1.95 2.1 3.6 4.8l-.15.1-.05-.05-.75-.55q-3.05-1.65-4.85-5.15-1.55-2.9-5.65-3.5-4.1-.5-5.7-5-1.35-1.15-2.4-1.5l.6-3.6.15-6.55q.15 1.35 1.2 2.4 2.75 2.85 6.1 5l5.8 3.45m1.5 7.95l.25-.55-.25.55M69.85 82.4l.1 1.9q.05 3.6 3.6 4.45 1.1-1.75 3.5-1.65l.65 2.5.2.45-.2-.45-.65-2.5q-2.4-.1-3.5 1.65-3.55-.85-3.6-4.45l-.1-1.9m11 11.75l1.2 1.1-1.2-1.1"/><path fill="url(#n)" d="M10.35 49.15q1.35-.7 2.1-1.8 1.5-2.25 2.15-5.15l.2-1q-1.15-2.1-1.85-5.8l-.05-.2-.1-1.55q.1-3.6 1.55-7 .4.7.35 1.5-.2 3.8.65 7.15.4 1.5 1.1 2.85l-1 4.65-1.1 5.6v.1q-1.3 1.35-1.45 3.45l-.05 1.2.05.4v.05l-1.35 3.7Q9.4 54.75 9.2 52.25v-1l-.45 4.7-.65-1.35q-2.25 4.1-2.85 7.3 0-3.3.45-7.35v-.2l.35-.4 2-4.95q-.9-2.2-1.1-4.35-.4.75-.9-.7v-.1q-1.1-3.2-1.75-6.65l.05-.15.45-1.5q.75-3.3 2.45-6.25 1.65-2.85 2.7-5.9.15 1.1-.25 2.05-1.4 3.3-1.65 6.85l-.35 7q1.5 1.6 2.45 3.5l.6 1.45q-.45 2.5-.4 4.9l-.1.05-.5.2.5-.2.1-.05M8.6 53.7l-.5.9.5-.9"/><path fill="url(#o)" d="M16.45 38.15q.95 1.9 2.4 3.45l-.65 1.35Q16.85 46 14.45 48.4h-.1l1.1-5.6 1-4.65"/><path fill="url(#p)" d="M12.9 53.6q1.2 2.05 3.95 2.2 2.7-1.85 5.85-2.8l.4-1q.25-1.3-.8-2.8-.45.45-1.5.65-2.3.5-4.1 1.9l-1.8 1.8q.3-.9 1.15-1.75l1.6-1.2 5.9-4.4 2.5 3.75-.1 2.3-.6 1.7-3.7 2.9q-1.9 1.4-.95 4.5l.65 1.25-1.2 2.25q-.65-2.1-2.4-3.5-3.2-1.4-5.7-3.05-1.3 1.25-1.5 2.85-.7-2.8-1.8-5.2l.45-4.7v1q.2 2.5 2.35 5.05l1.35-3.7.1.7-.1-.7m3.55 2.45l.4-.25h1.1-1.1l-.4.25"/><path fill="url(#q)" d="M38.15 86.85q-3.25-.55-4 2.05-.65 2.35-2.4 3.45-1.95 1.3-2.7 3.2l-3.8 5.8q1.9-6.9 2.85-8.65l.25-.45-3.6.25q-3.3-.8-3 2.3l-2.95.4-.15.2q-4 5.25-9.05 4.2 4.3-2.4 6.8-6.6l-1.85-.85-1.6.1-4.5 2.65-.95-2.5-1.6 1.8Q3.7 96.9.75 97.3q2.8-3.75 4.5-7.4 2.85-.15 4.6-1.4-.4 1.95.3 3.2 1.35-.4 2.65-1.2 1.85-1.2 3.05-3 1.15.95 2.75 1.75 2.4 1.25 5.9-.7 2.75-1.55 3.7-4.7l.2-.7q.15-2.15.6-4.25l2.95-3.35q2.3-2.6 3.4-5.9.45 0-.55 2.5l-1.3 3.45q2.5-1.55 4.85-3.7 3.8-3.35 7.2-7.2-.2 1.55-1.4 3.3-1.3 1.95-2.15 4.2l-.95 2.75.5-.6 2.05-1.85 1.6-1.1-1.55 3.3-1.8 3.45-.3.7q-1.05 2.4-1.25 4.95l-2.15 3.05m1.2-6q-3.9-2.9-5.25.4l-3.15 6.4-2.6 4.6 2.6-4.6 3.15-6.4q1.35-3.3 5.25-.4m-20.2 13.8l-.35.55.35-.55M33.5 75.6q-.75.65-.8 1.4v.45l.25-.4.55-1.45"/><path fill="url(#r)" d="M32.2 58.2v.1q0 3.15-.75 6.2-.6 2.6-.85 5.2l-.75.25Q26.2 71.2 25.9 74.8h-.95v-3.45q0-1.35-.4-2.05l-1 1.25-1.35 1.1-.35.25.85-3.5.7-4 .95 1.4 3.05-5.6.1-.15q1.6-3.6 4.7-1.85m-6.85 10.15q-.3-1.35-.9-2.4l-.1-.15.1.15q.6 1.05.9 2.4"/><path fill="url(#s)" d="M21.55 62.2l1.85 2.2-.7 4-.85 3.5-.4.55q-1.45 1.05-2.1 2.6l-.3.85-1.75-.05q-3.35.8-6.25 1.95 2.25-2.05 5-3.35l.8-.35 1.45-.9q2.25-1.9 2.2-5.8 0-1.4-.35-2.55l1.2-2.25.2-.4"/><path fill="url(#t)" d="M21.85 71.9l.35-.25 1.35-1.1 1-1.25q.4.7.4 2.05v3.45H23.4q-.05-1.6-1.35-2.75l-.3.2.1-.35"/><path fill="none" stroke="#543700" stroke-width=".05" stroke-linecap="round" stroke-linejoin="round" d="M92.85 39.95l.3-.3q2.15-2.4 3.25-5.8l-.15-13.3-.7-7.05q-.35-2.2-1.05-3.75 1.7 3.3 2.75 6.6.75 2.2 2.05 4.2h-1.05q-.4 2.55-.05 5.05l1.2 3.75.6-1m-13.85 12.4V39.7l-.25-.8q-.95-2.95-1.55-6l-.65-2.45.7-6.9q.4-3.65.4-7.35v-1.15q1 3.45 2.55 6.8l1.25 3.3q-.9-1.6-2.5-2.65-.55 2.8-.45 7.55l.05 1.7q.65 2.65 2.2 5l.05.1.05.05q.65.9 1.35.9.55-.5.95-1.95l.05-.05-.05-2.7.2-14.45q.5 3.5 1.9 6.65l.95 2.3q-1.55 3.35-1.85 7.05l-.1 1.55-.1 5.2 1.55-1.45m1.1 4.7l.95-.75q.55-2 1.9-3.75l1.4-1.55-.4-5.25-.65 1.8m2.25-5.8l.2.7m-.2-.7l-.65 1-.95 3-.1-1.4M80.2 40.1q1.05-.8 2.7-1.1l-.25-.35-1.6-1.75q.55-1.9 1.5-3.6-1.95 2.25-2.7 5.15l-.15.65q-.55 2.85-.35 5.9l1.5.5q2.4.7 5.25 4.55l.9 1.2-.5.45-.45.3-.1.45m6.45-3.65l.2-2.6.2-1.55m-2.45-8.85l.3-1.55-.05-.2m-4.45 5.65v-1.1m0 2.15v5.05q-2.75-1.4-5.65-2.1-.65-1.55-.3-3.5v-.1l.05-.4m13.7 4.95L92.6 46.2m5.6-20.6l-.5-1.6m-5.3 24.8v2.1l-2.85-.1v.55q-.2 3.3 2.75 5.6.6.45.35 1.3-.75 2.05-2.15 2.5-.75-.35-1.3-1.1v1.3m-2.2-9.7l.4.6m-5.05 5.9l-.75.55m7.6 1.35q-.05-2.85-1.35-4.75-2.55.65-5.5 2.85H79.9l-1.4 1q-2.4 1.8-3.7 3.75l-1.7 2.35v.3q2.7-1.45 5.65-1.9-.3 1.65.15 3.35.4 1.65 1.5 3.35.75 1.15.9 2.4.45 4 2 6.6 1.2-.2 1.85-.95l3.3 6.7 1.15 2.65q.45 1.15 2.25 1l1.7.3 1.2-1.8q.9-2-.15-4.05-1.65-3.1-2.75-6.35l-.75-2.6.6-.75q.2 3.8 1.9 6.25 1.25 1.8 2.4 2.65l.75-2.45-1-6.7q2.65 3.7 2.2 9.15l-.05 1.5q-1.5 1.7-2 3.8-.25 1-.25 2.1v2.1l.1.15q1.95 2.95 2.5 5.85.15.55-.1 1.3-.95 3.1-2.7 4.45l.15.35M84.25 85.8l-4.55-1.9m-.2 0q-.6.35-.7 1.35-.1.6-.05 1.3l.1 1v.15q.05 1.6-.95 2.35.65 1.4 2.65 2.6.5-1.45 1.05-2.1l.6 1.45q1.6 2.7 2.65 5.5l.2.45m1.3-5.9l.7-.65m.05-.1l-2.8-5.35m10.6 14l.15.9.95-2 .1-.4-.1-.3q-.9-2.8-3.4-4-1.7-.75-2.85-1.75h-.25q-1.3.05-2.25 1.1m-.15.05q-.15-.75-.7-1.35m-1.55 5.3l-2.8-2.25-1.15.15q1.95 2.1 3.6 4.8v.05l.1.55-.25-.5-.05-.05-.75-.55q-3.05-1.65-4.85-5.15-1.55-2.9-5.65-3.5-4.1-.5-5.7-5-1.35-1.15-2.4-1.5l-.65-.15q-1.5-.15-2.5 1.55 1.35.9 1.7 2.25.5 2.05.4 4.2-.2 4 4.4 5.1 2.45.6 3.45 1.4l3.6.1-.05 1.55-2 .3v-.65l-4.75.2q-2.4.25-4.4 1.1.05-.85-.55-.8l1.3-1.65q-1.35-.7-2.3-1.85l-1.75-6.65q-3.45-1.65-6.1.45-1.1.9-1.4 2.2-1.85-.9-.2-3.65.6-3.2-.8-4.9l-5.2 1.1-3.5 1.15q-.85.3-1.2 1-1.8 3.75.9 6.25l.7.75 1.35-.55m.05.15q.4 2.55-1.4 3.45-3.6 1.7-7.55 3.2L40.85 98q1.2-.8 1.2-2.15-.05-1.8-2.05-3.7-2.5-2.5-1.1-5.15l-.75-.15q-3.25-.55-4 2.05-.65 2.35-2.4 3.45-1.95 1.3-2.7 3.2l-3.8 5.8q1.9-6.9 2.85-8.65l.25-.45-3.6.25q-3.3-.8-3 2.3l-2.95.4-.15.2q-4 5.25-9.05 4.2 4.3-2.4 6.8-6.6l-1.85-.85-1.6.1-4.5 2.65-.95-2.5-1.6 1.8Q3.7 96.9.75 97.3l-.8 1m74.2-78.85q1.7-4.35 3.85-8.55 1.15-2.3.75-2.45-1.7 2.6-4.35 4.65l-.25.2m-15.75-.25l-.35-2.7q-.35-2.5-.9-4.35-.95 1.45-1 3.2-.15 3.4-.8 6.65M31 25.75l.1.3M73.55 41.2l.9-3.05.75-3.15q1.15-7.15 5.2-13.2 1.55-2.2 1.2-3.3l-2.05 1.4-5.5 3.3-1.2.8-.55.45-.35 1.05q-.35-.35.35-1.05l.2-.55 1.65-4.45M29.5 33l.3 1.2.1 2.1-5.25-3.45q1.75 2.2 2.55 4.75l1.05 3.5.7 3.3q.6 3.3 1.95 6.65l.55 1.65q.75 2.35.75 4.85v.75q0 3.15-.75 6.2-.6 2.6-.85 5.2l-.05.75q-.25 3.1-1 6.1L29 78.9q-.45 2.1-.6 4.25l-.2.7q-.95 3.15-3.7 4.7-3.5 1.95-5.9.7-1.6-.8-2.75-1.75-1.2 1.8-3.05 3-1.3.8-2.65 1.2-.7-1.25-.3-3.2-1.75 1.25-4.6 1.4-1.7 3.65-4.5 7.4l-.85.05M73.55 41.2l-1.1 5.15q-.55 3.4-.75 6.85l-.05.75 1.05-.85 4.3-4 3.15 4.2.7 1.4q1.8-1.2 5.2-2.7m-31.2 7.7q2.95-1.25 5.6-2.85 2.2-1.4 3.85-3.2l.5-.6q.95-1.15 1.5-2.6l2.6-6.9.1-.4v-.95m0 1.35v-.4m0 .4l.15 9.8.1 1.9q.15 3.9.45 7.8l.1 1.15q-.85-4.1-4.9-4.5-4.05-.4-7.95.6l-2.05.25-1.4-.3 1.3-.5.05-.05M26.45 18l-3.3-2.6q-3.6-2.2-6.35-5.05.95 2.5 2.5 4.75l5.35 7.9 3.65 6.85q.8 1.55 1.2 3.15m-13.05 5.15q-.7-1.35-1.1-2.85-.85-3.35-.65-7.15.05-.8-.35-1.5-1.45 3.4-1.55 7l.1 1.55.05.2q.7 3.7 1.85 5.8l-.2 1q-.65 2.9-2.15 5.15-.75 1.1-2.1 1.8l-.1.05-.5.2m.6-.25q-.05-2.4.4-4.9l-.6-1.45q-.95-1.9-2.45-3.5l.35-7q.25-3.55 1.65-6.85.4-.95.25-2.05-1.05 3.05-2.7 5.9-1.7 2.95-2.45 6.25l-.45 1.5-.05.15q.65 3.45 1.75 6.65v.1q.5 1.45.9.7.2 2.15 1.1 4.35l-2 4.95-.35.4v.2q-.45 4.05-.45 7.35.6-3.2 2.85-7.3l.5-.9m5.85-5.3q2.4-2.4 3.75-5.45l.65-1.35q-1.45-1.55-2.4-3.45m-2 10.25l-.1.1q-1.3 1.35-1.45 3.45l-.05 1.2.05.4v.05q1.2 2.05 3.95 2.2 2.7-1.85 5.85-2.8l.4-1q.25-1.3-.8-2.8-.45.45-1.5.65-2.3.5-4.1 1.9l-1.8 1.8q.3-.9 1.15-1.75l1.6-1.2 5.9-4.4 2.5 3.75-.1 2.3-.6 1.7-3.7 2.9q-1.9 1.4-.95 4.5l.85.85 1.85 2.2.95 1.4 3.05-5.6.1-.15q1.6-3.6 4.7-1.85m-7.55-25.35L20.4 27.2m15.95 25.85l-2.7-4.45.1 6.5q.3 6 1.05 11.9.35-5.05 3.65-5.7l3.55-.35 10.25.2-6.9-1.2q-3.55-.5-5.5-2.5-2.05-2.1-3.5-4.4m-12 12.75l.1.15q.6 1.05.9 2.4m-.4 6.45h.95q.3-3.6 3.95-4.85l.75-.25m-8.85 2.55l.3-.2q1.3 1.15 1.35 2.75h1.55m-3.5-2.35l.3-.2m-.3.2q-1.45 1.05-2.1 2.6l-.3.85-1.75-.05q-3.35.8-6.25 1.95l-.5.2M20.7 61.35l.65 1.25m-1.2 2.25q.35 1.15.35 2.55.05 3.9-2.2 5.8l-1.45.9-.8.35q-2.75 1.3-5 3.35M13 54.3l-.1-.7m-4.15 2.35q1.1 2.4 1.8 5.2.2-1.6 1.5-2.85 2.5 1.65 5.7 3.05 1.75 1.4 2.4 3.5m-9.6-3.7v.3m7.4-5.65h-1.1l-.4.25m-7.7-.1L8.1 54.6m-2.4-.25l.1-.6m13 41.45l.35-.55m9.2-2.4l2.6-4.6 3.15-6.4q1.35-3.3 5.25-.4M38.9 87l.65-1m32-28.25l.1-3.8-.3.2m8 3.6h.55l.9-.6M70.25 67.6l2.85-2.75-.2-1.2q-.85-3.5-.95-7.05M61.8 85.95q-.95-.7-2.5-1.1-3.35-.85-5.75-3m-1.2 2.8l.65-.15m24.9 5.55l-.2-.45-.65-2.5q-2.4-.1-3.5 1.65-3.55-.85-3.6-4.45l-.1-1.9m10.7 10.25l-.25.55m-19.45-2.65L60.7 90m34.35 10.85l.1.3m-.25-1.2v-.35m-.4 1.75q-.05-.7.4-1.4m-.4 1.4l-.5-.85m1.45 2.75l-.95-1.9m-12.45-6.1l-1.2-1.1"/></svg>