<svg xmlns="http://www.w3.org/2000/svg" viewBox="-0.1 0 100.1 107.1" width="100.1" height="107.1"><defs><radialGradient gradientUnits="userSpaceOnUse" r="819.2" cx="0" cy="0" spreadMethod="pad" gradientTransform="matrix(-.008 0 0 .008 44.1 5.75)" id="a"><stop offset="0" stop-color="#ccc"/><stop offset=".753" stop-color="#630"/><stop offset=".894" stop-color="#f00"/></radialGradient><radialGradient gradientUnits="userSpaceOnUse" r="819.2" cx="0" cy="0" spreadMethod="pad" gradientTransform="matrix(-.011 0 0 .011 47.15 4.85)" id="b"><stop offset="0" stop-color="#ccc"/><stop offset=".937" stop-color="#093"/></radialGradient><radialGradient gradientUnits="userSpaceOnUse" r="819.2" cx="0" cy="0" spreadMethod="pad" gradientTransform="matrix(-.01 0 0 .01 41.65 7.4)" id="c"><stop offset="0" stop-color="#ccc"/><stop offset=".937" stop-color="#093"/></radialGradient><radialGradient gradientUnits="userSpaceOnUse" r="819.2" cx="0" cy="0" spreadMethod="pad" gradientTransform="matrix(-.021 0 0 .021 60.7 16.15)" id="d"><stop offset="0" stop-color="#ccc"/><stop offset=".388" stop-color="#690"/><stop offset=".894" stop-color="#f00"/></radialGradient><radialGradient gradientUnits="userSpaceOnUse" r="819.2" cx="0" cy="0" spreadMethod="pad" gradientTransform="matrix(-.006 0 0 .006 54.15 10.85)" id="e"><stop offset="0" stop-color="#ccc"/><stop offset=".376" stop-color="#f00"/><stop offset="1"/></radialGradient><radialGradient gradientUnits="userSpaceOnUse" r="819.2" cx="0" cy="0" spreadMethod="pad" gradientTransform="matrix(-.007 0 0 .007 39.8 15.1)" id="f"><stop offset="0" stop-color="#ccc"/><stop offset=".937" stop-color="#093"/></radialGradient><radialGradient gradientUnits="userSpaceOnUse" r="819.2" cx="0" cy="0" spreadMethod="pad" gradientTransform="matrix(-.015 0 0 .015 58.5 23.95)" id="g"><stop offset="0" stop-color="#ccc"/><stop offset=".753" stop-color="#630"/><stop offset=".894" stop-color="#f00"/></radialGradient><radialGradient gradientUnits="userSpaceOnUse" r="819.2" cx="0" cy="0" spreadMethod="pad" gradientTransform="matrix(-.008 0 0 .006 32.65 51.75)" id="h"><stop offset="0" stop-color="#ccc"/><stop offset=".753" stop-color="#630"/><stop offset=".894" stop-color="#f00"/></radialGradient><radialGradient gradientUnits="userSpaceOnUse" r="819.2" cx="0" cy="0" spreadMethod="pad" gradientTransform="matrix(-.011 0 0 .007 37.1 55.55)" id="i"><stop offset="0" stop-color="#ccc"/><stop offset=".753" stop-color="#630"/><stop offset=".894" stop-color="#f00"/></radialGradient><radialGradient gradientUnits="userSpaceOnUse" r="819.2" cx="0" cy="0" spreadMethod="pad" gradientTransform="matrix(-.016 0 0 .016 49.9 43.2)" id="j"><stop offset="0" stop-color="#ccc"/><stop offset=".937" stop-color="#093"/></radialGradient><radialGradient gradientUnits="userSpaceOnUse" r="819.2" cx="0" cy="0" spreadMethod="pad" gradientTransform="matrix(-.013 0 0 .008 35.9 68.45)" id="k"><stop offset="0" stop-color="#ccc"/><stop offset=".753" stop-color="#630"/><stop offset=".894" stop-color="#f00"/></radialGradient><radialGradient gradientUnits="userSpaceOnUse" r="819.2" cx="0" cy="0" spreadMethod="pad" gradientTransform="matrix(-.017 0 0 .011 31.85 76.3)" id="l"><stop offset="0" stop-color="#ccc"/><stop offset=".753" stop-color="#630"/><stop offset=".894" stop-color="#f00"/></radialGradient><radialGradient gradientUnits="userSpaceOnUse" r="819.2" cx="0" cy="0" spreadMethod="pad" gradientTransform="matrix(-.011 0 0 .008 38.25 62.7)" id="m"><stop offset="0" stop-color="#ccc"/><stop offset=".753" stop-color="#630"/><stop offset=".894" stop-color="#f00"/></radialGradient><radialGradient gradientUnits="userSpaceOnUse" r="819.2" cx="0" cy="0" spreadMethod="pad" gradientTransform="matrix(-.02 0 0 .02 54.1 63.6)" id="n"><stop offset="0" stop-color="#ccc"/><stop offset=".58" stop-color="#030"/><stop offset="1" stop-color="#f00"/></radialGradient><radialGradient gradientUnits="userSpaceOnUse" r="819.2" cx="0" cy="0" spreadMethod="pad" gradientTransform="matrix(-.01 0 0 .014 50.05 94.35)" id="o"><stop offset="0" stop-color="#ccc"/><stop offset=".753" stop-color="#630"/><stop offset=".894" stop-color="#f00"/></radialGradient><radialGradient gradientUnits="userSpaceOnUse" r="819.2" cx="0" cy="0" spreadMethod="pad" gradientTransform="matrix(-.011 0 0 .015 39.5 90.5)" id="p"><stop offset="0" stop-color="#ccc"/><stop offset=".753" stop-color="#630"/><stop offset=".894" stop-color="#f00"/></radialGradient><radialGradient gradientUnits="userSpaceOnUse" r="819.2" cx="0" cy="0" spreadMethod="pad" gradientTransform="matrix(-.02 0 0 .014 32.5 83.65)" id="q"><stop offset="0" stop-color="#ccc"/><stop offset=".753" stop-color="#630"/><stop offset=".894" stop-color="#f00"/></radialGradient><radialGradient gradientUnits="userSpaceOnUse" r="819.2" cx="0" cy="0" spreadMethod="pad" gradientTransform="matrix(-.011 0 0 .011 74.95 5.05)" id="r"><stop offset="0" stop-color="#ccc"/><stop offset=".937" stop-color="#093"/></radialGradient><radialGradient gradientUnits="userSpaceOnUse" r="819.2" cx="0" cy="0" spreadMethod="pad" gradientTransform="matrix(-.011 0 0 .011 80.15 6.95)" id="s"><stop offset="0" stop-color="#ccc"/><stop offset=".937" stop-color="#093"/></radialGradient><radialGradient gradientUnits="userSpaceOnUse" r="819.2" cx="0" cy="0" spreadMethod="pad" gradientTransform="matrix(-.01 0 0 .01 80.65 17.4)" id="t"><stop offset="0" stop-color="#ccc"/><stop offset=".937" stop-color="#093"/></radialGradient><radialGradient gradientUnits="userSpaceOnUse" r="819.2" cx="0" cy="0" spreadMethod="pad" gradientTransform="matrix(-.008 0 0 .008 67.8 12.65)" id="u"><stop offset="0" stop-color="#ccc"/><stop offset=".376" stop-color="#f00"/><stop offset="1"/></radialGradient><radialGradient gradientUnits="userSpaceOnUse" r="819.2" cx="0" cy="0" spreadMethod="pad" gradientTransform="matrix(-.02 0 0 .02 78.9 42.15)" id="v"><stop offset="0" stop-color="#ccc"/><stop offset=".937" stop-color="#093"/></radialGradient><radialGradient gradientUnits="userSpaceOnUse" r="819.2" cx="0" cy="0" spreadMethod="pad" gradientTransform="matrix(-.016 0 0 .009 61.1 31.8)" id="w"><stop offset="0" stop-color="#ccc"/><stop offset=".753" stop-color="#630"/><stop offset=".894" stop-color="#f00"/></radialGradient><radialGradient gradientUnits="userSpaceOnUse" r="819.2" cx="0" cy="0" spreadMethod="pad" gradientTransform="matrix(-.009 0 0 .008 63.25 38.55)" id="x"><stop offset="0" stop-color="#ccc"/><stop offset=".753" stop-color="#630"/><stop offset=".894" stop-color="#f00"/></radialGradient><radialGradient gradientUnits="userSpaceOnUse" r="819.2" cx="0" cy="0" spreadMethod="pad" gradientTransform="matrix(-.017 0 0 .014 64.2 45.3)" id="y"><stop offset="0" stop-color="#ccc"/><stop offset=".753" stop-color="#630"/><stop offset=".894" stop-color="#f00"/></radialGradient><radialGradient gradientUnits="userSpaceOnUse" r="819.2" cx="0" cy="0" spreadMethod="pad" gradientTransform="matrix(-.008 0 0 .008 76.5 52.7)" id="z"><stop offset="0" stop-color="#ccc"/><stop offset=".753" stop-color="#630"/><stop offset=".894" stop-color="#f00"/></radialGradient><radialGradient gradientUnits="userSpaceOnUse" r="819.2" cx="0" cy="0" spreadMethod="pad" gradientTransform="matrix(-.022 0 0 .022 77.5 61.6)" id="A"><stop offset="0" stop-color="#ccc"/><stop offset=".58" stop-color="#030"/><stop offset="1" stop-color="#f00"/></radialGradient><radialGradient gradientUnits="userSpaceOnUse" r="819.2" cx="0" cy="0" spreadMethod="pad" gradientTransform="matrix(-.012 0 0 .012 65.1 58.95)" id="B"><stop offset="0" stop-color="#ccc"/><stop offset=".753" stop-color="#630"/><stop offset=".894" stop-color="#f00"/></radialGradient><radialGradient gradientUnits="userSpaceOnUse" r="819.2" cx="0" cy="0" spreadMethod="pad" gradientTransform="matrix(-.008 0 0 .008 52.9 52.7)" id="C"><stop offset="0" stop-color="#ccc"/><stop offset=".753" stop-color="#630"/><stop offset=".894" stop-color="#f00"/></radialGradient><radialGradient gradientUnits="userSpaceOnUse" r="819.2" cx="0" cy="0" spreadMethod="pad" gradientTransform="matrix(-.013 0 0 .013 66.7 73.85)" id="D"><stop offset="0" stop-color="#ccc"/><stop offset=".753" stop-color="#630"/><stop offset=".894" stop-color="#f00"/></radialGradient><radialGradient gradientUnits="userSpaceOnUse" r="819.2" cx="0" cy="0" spreadMethod="pad" gradientTransform="matrix(-.006 .012 .008 .004 57.05 76.1)" id="E"><stop offset="0" stop-color="#ccc"/><stop offset=".58" stop-color="#030"/><stop offset="1" stop-color="#f00"/></radialGradient><radialGradient gradientUnits="userSpaceOnUse" r="819.2" cx="0" cy="0" spreadMethod="pad" gradientTransform="matrix(-.006 0 0 .006 81.95 60.9)" id="F"><stop offset="0" stop-color="#ccc"/><stop offset=".753" stop-color="#630"/><stop offset=".894" stop-color="#f00"/></radialGradient><radialGradient gradientUnits="userSpaceOnUse" r="819.2" cx="0" cy="0" spreadMethod="pad" gradientTransform="matrix(-.005 0 0 .005 81.2 71)" id="G"><stop offset="0" stop-color="#ccc"/><stop offset=".753" stop-color="#630"/><stop offset=".894" stop-color="#f00"/></radialGradient><radialGradient gradientUnits="userSpaceOnUse" r="819.2" cx="0" cy="0" spreadMethod="pad" gradientTransform="matrix(-.005 0 0 .005 75.95 72.05)" id="H"><stop offset="0" stop-color="#ccc"/><stop offset=".753" stop-color="#630"/><stop offset=".894" stop-color="#f00"/></radialGradient><radialGradient gradientUnits="userSpaceOnUse" r="819.2" cx="0" cy="0" spreadMethod="pad" gradientTransform="matrix(-.004 .016 .01 .003 78.4 80.65)" id="I"><stop offset="0" stop-color="#ccc"/><stop offset=".58" stop-color="#030"/><stop offset="1" stop-color="#f00"/></radialGradient><radialGradient gradientUnits="userSpaceOnUse" r="819.2" cx="0" cy="0" spreadMethod="pad" gradientTransform="matrix(-.012 0 0 .012 68.5 87.2)" id="J"><stop offset="0" stop-color="#ccc"/><stop offset=".753" stop-color="#630"/><stop offset=".894" stop-color="#f00"/></radialGradient><radialGradient gradientUnits="userSpaceOnUse" r="819.2" cx="0" cy="0" spreadMethod="pad" gradientTransform="matrix(-.007 0 0 .007 62.35 88.45)" id="K"><stop offset="0" stop-color="#ccc"/><stop offset=".937" stop-color="#093"/></radialGradient><radialGradient gradientUnits="userSpaceOnUse" r="819.2" cx="0" cy="0" spreadMethod="pad" gradientTransform="matrix(-.009 0 0 .009 54.65 89.8)" id="L"><stop offset="0" stop-color="#ccc"/><stop offset=".937" stop-color="#093"/></radialGradient><radialGradient gradientUnits="userSpaceOnUse" r="819.2" cx="0" cy="0" spreadMethod="pad" gradientTransform="matrix(-.003 0 0 .003 82.65 68.3)" id="M"><stop offset="0" stop-color="#ccc"/><stop offset=".753" stop-color="#630"/><stop offset=".894" stop-color="#f00"/></radialGradient><radialGradient gradientUnits="userSpaceOnUse" r="819.2" cx="0" cy="0" spreadMethod="pad" gradientTransform="matrix(-.011 0 0 .011 92 95.75)" id="N"><stop offset="0" stop-color="#ccc"/><stop offset=".937" stop-color="#093"/></radialGradient><radialGradient gradientUnits="userSpaceOnUse" r="819.2" cx="0" cy="0" spreadMethod="pad" gradientTransform="matrix(-.011 0 0 .011 84.8 98.6)" id="O"><stop offset="0" stop-color="#ccc"/><stop offset=".937" stop-color="#093"/></radialGradient><radialGradient gradientUnits="userSpaceOnUse" r="819.2" cx="0" cy="0" spreadMethod="pad" gradientTransform="matrix(-.011 0 0 .011 63.05 96.55)" id="P"><stop offset="0" stop-color="#ccc"/><stop offset=".753" stop-color="#630"/><stop offset=".894" stop-color="#f00"/></radialGradient></defs><path d="M82.8.7l1.15-.7-1 1.2-10.1 8.45-.1.15-3.9-.45L82.8.7m.15 21.25l.9.45-8.6-1.75.6-.8q.55-.85.5-1.7l2.15 1.35q1.95 1.25 4 2.2l.45.25m-15.9 4.4l4.45 6.1q2.3 3.2 5.45 5.45l6.5 4.2 6.35 3.3q3.5 1.6 7.5 1.9v.05l-5.6-.2h-.35l-2.6-.55q-1.55-.3-3.05-1.05-2-.9-3.8-2.1-4.25-2.7-7.95-5.4-3.25-2.35-6.15-5.6l-1-1.05v-.45q.1-1.4-.9-2.8l1.15-1.8m17.1-13.65v.25l-6.8.55-.05-.2-1.1-1.15 7.95.55m.1 68.45q1.65 1.1 2.15 3.65l.3 1.1q.6 1.65 1.95 2.9 1.8 1.55 3.85 2.55 2.15 1.1 4.45 1.7 2.3.6 3.05 2h-1.85q-1.6-.2-2.9-.9L91.2 92.1q-2.15-1.05-3.6-2.4-2.05-2.05-1.75 1.65.25 2.25 1.2 4.45 1 2.15 2.3 4.15 1.3 1.95 3.6 2.3l.95.25q1 .4 1.6 1.4l-4.35-.2-.15-.05q-1.4-.5-2.65-1.4-1.2-.85-1.85-2.2l-1.4-3.1-1.35-4.05q-.65-2-2.75-1.45-.85.2-1.2 1-2.35 4.85-.25 9.85.85 2 .7 3.6l-.3 1.1q-2.65-.3-3.85-2.4-1.05-1.8-1.15-3.85l-.15-4.7q0-3.55 1.3-6.4l.4-.8 1.1.25q2.55.35 4.5-.9 1.15-.85 1.65-2.3l.35-1.35.15-3.4M28.8 48.6l-12.45.4q-3.8.15-6.3-1.35-3.7-2.25-6.3-5.5-2.5-3.1-3.45-6.75-.45-1.7-.3-3.5l.4-3.1q.3-1.95 1.05-3.2l.15-.3 1.45-1.75q.85-.75 2-1.05L3.8 24.35Q2.6 26.6 2.1 29.4q-.6 4.05 1.15 7.4 1.95 3.5 4.95 6.05 2.85 2.45 6.65 3.3l7.85.4 4.25.25q1.3.35 2.4 1.05l-.55.75M51 85.05l1.75-2.4.55-.6.65.3q1.7.5 3.4-.3 1.1-.5 1.85-1.55l.65-1 1.25-2.55q.7 1 .25 2.95l-.1.85v.1q-.05 1.25.45 2.3.75 1.3 1.8 2.2l2.6 1.7q1.4.6 1.5 1.75l-1.3-.2q-1.05-.25-1.7-.9l-2.2-1.9q-1.15-.95-1.75-2.1Q59.9 82 59 84.75q-.55 1.75-.6 3.5 0 1.7.3 3.3.3 1.6 1.8 2.05l.55.3q.6.4.65 1.2-1.7.15-2.9-.55l-.1-.05-1.4-1.3q-.55-.7-.65-1.8l.05-2.45.35-3.15q.2-1.6-1.45-1.35-.65.1-1.15.65-3.1 3.4-3.25 7.4 0 1.55-.65 2.75l-.5.8q-1.8-.45-2-2.15-.1-1.4.45-3l1.35-3.5q.5-1.25 1.15-2.35M67.6 1.2v.75l-.5 7.4-1 .15-1.55-.7 3.05-7.6M58 8.3l-1.35.4-1.45-.6.05-1.6q.1-2.5-.35-4.85h.05l.85 2.25L58 8.3M38.95 3.2L43 5.25l3.95 1.45L50 7.8l-.7.25-1.8.6-2.45-.95q-1.7-.7-3.35-1.85L38.2 3.1l.15-.25.3.15.3.2m6.95 8.5l-.7.85-.55.9-9.75-1.4-.25-.05v-.25l11.25-.05m8.55 14.7l.9 1q-.1 2.2.5 4.15-.7 2.1-1.8 4.4-1.35 2.85-3.25 5.65-1.45 2.1-8.85 6.8l-2.4 1.5 2.1-1.75q6.65-5.45 8.3-8.55l3.2-6.85q1.25-3.05 1.3-6.35"/><path fill="#060" d="M62.5 15.65l.6.3q1 .55 2.4.7 2.15.3 2.85 1.9l-.15.1-.1.05-4.7.3-1.6-.05 1.6.05 4.7-.3.1-.05.3.15.05.1q.4 1.2.1 2.2-1.05 1-2.5 1.6l-3.05.25q-1.15-.2-2.25-1L60 21.6l1.65-2.65h.15v-.3q.75-1.4.7-3m-4.25 5.9l-.65-.05v-.1q.45-1.45 1.15-2.8l.15-.25.3.1-.95 3.1m-2 0H53.3q-1.75.1-2.8-1.1-1-1.15-1.65-2.45l-.2-.55q.35-.9 1.05-1.5l2.1-1.15 2.2-.35 3.2.1q-.7 1.3-.8 2.8l-.15 4.2M51.8 14.8l4.6 2.55-4.6-2.55"/><path fill="#fff" d="M61.8 18.65l-.15.3L60 21.6l-2.45 3.3.7-3.35.95-3.1.9-2.75.1-.25v-.05l.15-.5-.15.5v.05l-.1.25-1.2 2.65-.15.25q-.7 1.35-1.15 2.8l-.05.1q-.5 1.65-.65 3.25l-.35-1.15-.3-2.05.15-4.2q.1-1.5.8-2.8l3.15.35 2.15.75q.05 1.6-.7 3m-1.7-2.95l.1-.3-.1.3"/><path fill="url(#a)" d="M38.35 2.85l-.15.25.15-.3v.05"/><path fill="url(#b)" d="M54.9 1.65q.45 2.35.35 4.85l-.05 1.6-1.5-.45-3.7.15-3.05-1.1L43 5.25 38.95 3.2l.05-.15q10.2.75 15.9-1.4"/><path fill="url(#c)" d="M47.5 8.65l-1 .25q1.3.45 2.05 1.5-1.55.25-2.65 1.3l-11.25.05Q38.4 7.7 38.2 3.1l3.5 2.75Q43.35 7 45.05 7.7l2.45.95"/><path fill="url(#d)" d="M47.5 8.65l1.8-.6.7-.25 3.7-.15 1.5.45 1.45.6L58 8.3l3.75-.2 2.8.7 1.55.7 1-.15h1.75l3.9.45.35.05q1.1.25 2 1.1l1.1 1.2 1.1 1.15q-1.1.05-2.1.5l-.25.2-1.05.95 1.65 1.5q.7.85.8 1.7.05.85-.5 1.7l-.6.8-2.6 2.05-3.85 2-.8.1h-.05l-.15-.1q-1.3-.8-.15-2 .8-.75 1-1.6.3-1-.1-2.2l-.05-.1-.15-.25q-.7-1.6-2.85-1.9-1.4-.15-2.4-.7l-.6-.3-2.15-.75-3.15-.35-3.2-.1-2.2.35-2.1 1.15q-.7.6-1.05 1.5-.45 1.05-.35 2.5l-.05 1q-.25 1.65-2.2-.35-.9-1-1.4-2.25l-.1-.25-.35-1.2q-.25-1.85.45-3.45l.55-.9.7-.85q1.1-1.05 2.65-1.3-.75-1.05-2.05-1.5l1-.25m10.15.6l-1-.55 1 .55m6.15.85l2.3-.6-2.3.6m0 1.15q-1.7.55-1.75 1.4.05.85 1.75 1.45l4 .65 4.1-.65q1.7-.6 1.65-1.45.05-.85-1.65-1.4-1.7-.65-4.1-.65-2.35 0-4 .65m6.75 5.1q1.85.7 2.95-.9l.4-.5-.4.5q-1.1 1.6-2.95.9m-19.3-7.7q-1.5.15-1.7.85-.2.75 1.05 1.7 1.2.9 3.1 1.45l3.4.45q1.5-.15 1.7-.85.15-.75-1.05-1.7-1.25-.9-3.15-1.45l-3.35-.45M50.1 12.1q-.75-.15-.95-.7l-.6-1 .6 1q.2.55.95.7"/><path fill="url(#e)" d="M51.25 8.65l3.35.45q1.9.55 3.15 1.45 1.2.95 1.05 1.7-.2.7-1.7.85l-3.4-.45q-1.9-.55-3.1-1.45-1.25-.95-1.05-1.7.2-.7 1.7-.85"/><path fill="url(#f)" d="M44.65 13.45q-.7 1.6-.45 3.45l.35 1.2q-4.5-4.25-9.65-6.05l9.75 1.4"/><path fill="url(#g)" d="M67.95 24.8l-.9 1.55-1.15 1.8-.7 1.05-1.65 1.05q-4.2.95-7-1.7l-1.2-1.15-.9-1-1.25-1.5q-2.15-2.65-4.95-3.95l.05-1q-.1-1.45.35-2.5l.2.55q.65 1.3 1.65 2.45 1.05 1.2 2.8 1.1h2.95l.3 2.05.35 1.15q.15-1.6.65-3.25h.05l.65.05-.7 3.35L60 21.6l.85.35q1.1.8 2.25 1l3.05-.25q1.45-.6 2.5-1.6-.2.85-1 1.6-1.15 1.2.15 2l.15.1m-13.5.75v.85-.85"/><path fill="url(#h)" d="M32 53.3l-1.2-.15q-3.5-.9-2.3-3.85v-.1l.1-.1.2-.5.55-.75q1.3-1.45 3.6-1 2.55.45 4.15 2.85l-2.65.2q-2.1.65-2.4 2.95l-.05.45"/><path fill="url(#i)" d="M32 53.3l.05-.45q.3-2.3 2.4-2.95l2.65-.2q2.2.45 3.55 2.9 1.3 2.45 1 4.55-1-.85-2.65-1.35-4.05-1.2-5.05 2.2-2.15-1.65-1.95-4.7"/><path fill="url(#j)" d="M41.95 48.4q7.4-4.7 8.85-6.8 1.9-2.8 3.25-5.65 1.1-2.3 1.8-4.4.5 1.55 1.4 3l.55.6-.25 1.55q-.35 1.55 0 2.9-1.6 1.35-3.05 2.85-1.3 1.55-1.05 4.15v.2q-1 1.5-1.7 3.35-.7 1.9-.6 4.05l.05.7q-4.15-5.95-9.25-6.5"/><path fill="url(#k)" d="M30.05 67.2q.15-2.8 2.85-4.35l.6-.3q3.05-1.35 6.1.85 1.5 1.05 2 2.45.5 1.6-.25 3.55-.3.9-1 1.5l-.55.55-1.3-1.8q-2.45-2.8-6.6-2.7l-1.85.25"/><path fill="url(#l)" d="M30.05 67.2l1.85-.25q4.15-.1 6.6 2.7l1.3 1.8q.9 1.7.45 3.45-2.05-1.45-4.6-1.75-4.15-.5-7.8 1-1.9.8-3.5 2.15-.05-3.15 1.45-5.85 1.45-2.55 4.25-3.25"/><path fill="url(#m)" d="M33.5 62.55l.25-3.5.2-1.05q1-3.4 5.05-2.2 1.65.5 2.65 1.35 1.55 1.35 1.3 3.7-.2 2.7-1.35 5-.5-1.4-2-2.45-3.05-2.2-6.1-.85"/><path fill="url(#n)" d="M53.2 73.9q-1.35 3.15-3 5.65l2.1-11.35q-.95.9-2.35 1.4l-3.3.9q1.7-.5 2.8-1.65 1.3-1.3 1.45-3.6-.7-1.3-.4-2.8l1.1-3.75.05-.1 1.55-3.4q.45-1.1 1.4-1.4-1.55-1.25-1.65-3.8-.1-1.85 1.3-2.3h.2q1.6-.3 2.3 1.7l.05.3 2.65 1.7.45.3q2.2 1.6 1.3 3.75l-.05.15q.9 2.15.55 4.05L60.65 64l-.9 2.3-.7 1.2v.35l-.2.5.2 1.45.2.8q.85 2.95.9 5.45-.95-3.15-2.65-5.4l-.7-.9.2 1.3q.35 3.55-.45 6.05-.35-2.35-1.05-4.75l-.95-2.9q-.05 1.15-.5 2.45l-.85 2m4.15-19.7l-1.15-.5-1.6.1 1.6-.1 1.15.5m3.6 2.15l.2-.75-.2.75M52.25 67l-.55-.6-.8-1.15.8 1.15.55.6"/><path fill="url(#o)" d="M58.85 102q-2.6 1.9-6.35 1.8-4.15-.25-7.35-2.5l-.9-.65q-2.6-2.3-2.9-5.4-.4-4.3 2-7.15 2.45-2.9 6.1-3.2h.7l.85.15q-.65 1.1-1.15 2.35l-1.35 3.5q-.55 1.6-.45 3 .2 1.7 2 2.15l.5-.8 3.85-.6q.1 2.2 1.5 4.65 1.15 2.05 2.95 2.7"/><path fill="url(#p)" d="M44.25 100.65l-6.3-.7q-3.9-1-6.3-4.05-1.35-1.6-1.8-3.6-.4-1.7-.15-3.65.5-3.9 3.5-5.95 2.6-1.8 6.5-2.25l4.25.15H44l2.85.9q2.2 1.05 2.6 3.4-3.65.3-6.1 3.2-2.4 2.85-2 7.15.3 3.1 2.9 5.4"/><path fill="url(#q)" d="M29.85 92.3q-2.65-1.8-4.75-4.35-2.45-3.05-3.4-6.2-.5-1.85.6-3.3l2.05-2.15q1.6-1.35 3.5-2.15 3.65-1.5 7.8-1 2.55.3 4.6 1.75l1.8 1.6q1.6 1.75 1.9 4.1l-4.25-.15q-3.9.45-6.5 2.25-3 2.05-3.5 5.95-.25 1.95.15 3.65"/><path fill="url(#r)" d="M67.1 9.35l.5-7.4q8.05.5 15.2-1.25L68.85 9.35H67.1"/><path fill="url(#s)" d="M82.95 1.2q-1 6.9 4.5 11.5h-3.3l-7.95-.55-1.1-1.2q-.9-.85-2-1.1l-.25-.2 10.1-8.45"/><path fill="url(#t)" d="M87.45 12.85q-4.5 4.3-4.5 9.1l-.45-.25q-2.05-.95-4-2.2l-2.15-1.35q-.1-.85-.8-1.7l-1.65-1.5 1.05-.95 2.4-.5 6.8-.55 3.3-.1"/><path fill="url(#u)" d="M63.8 11.25q1.65-.65 4-.65 2.4 0 4.1.65 1.7.55 1.65 1.4.05.85-1.65 1.45l-4.1.65-4-.65q-1.7-.6-1.75-1.45.05-.85 1.75-1.4"/><path fill="url(#v)" d="M91.35 47.25q-3.4 1.05-6.85 2.6-2.75 1.25-5.1 3-.55-1.8-1.9-3.15l-2.7-2.3q.4-1.2-.05-2.55-.7-2.1-2.1-3.6-1.55-1.7-3.6-2.45-.4-2.85-2.65-5.7l.4-1.7 1 1.05q2.9 3.25 6.15 5.6 3.7 2.7 7.95 5.4 1.8 1.2 3.8 2.1 1.5.75 3.05 1.05l2.6.55v.1"/><path fill="url(#w)" d="M66.8 31.4l-.4 1.7q-.85 2.25-3.4 2.9-3.5.8-5.2-.85l-.55-.6q-.9-1.45-1.4-3-.6-1.95-.5-4.15l1.2 1.15q2.8 2.65 7 1.7l1.65-1.05.7-1.05q1 1.4.9 2.8v.45"/><path fill="url(#x)" d="M66.4 33.1q2.25 2.85 2.65 5.7l.05.9q.2 3.35-3.45 4.1-4.15.85-6.9-2.15-.85-.95-1.2-2.05-.35-1.35 0-2.9l.25-1.55q1.7 1.65 5.2.85 2.55-.65 3.4-2.9"/><path fill="url(#y)" d="M69.05 38.8q2.05.75 3.6 2.45 1.4 1.5 2.1 3.6.45 1.35.05 2.55l-1 1.45-.1-.15q-.6-1.8-2.45-1.75-2.3.05-2.3 2.65l-1.4 1.2q-1.9 1-4.4.95l-3.7-.35-2.65-1.7-.05-.3q-.7-2-2.3-1.7h-.2q-.6-.15-.8-.9v-.2q-.25-2.6 1.05-4.15 1.45-1.5 3.05-2.85.35 1.1 1.2 2.05 2.75 3 6.9 2.15 3.65-.75 3.45-4.1l-.05-.9"/><path fill="url(#z)" d="M79.4 52.85l.25.85q.3 1.35.25 2.7l-.2 1.65-1.35-1.4-3.15-2.85q-.9-.95-2.1-.95 1.35-1.55.65-3.9l.05-.1 1-1.45 2.7 2.3q1.35 1.35 1.9 3.15"/><path fill="url(#A)" d="M84.1 65.45l.65.35q1.95.9 4.45.8l-4.7.05-.4-.05-3-.6 2.95 4.6 3.75 5.65-4.25-3.2-3.2-3q-1-1.1-1.45-2.2l-.1 4.3.45 3.6q-1.15-1.4-1.9-3.3-.55-1.25-.95-2.75l-.1-.95q-1.65 2.9-1.7 6.65l-.1.1q-.75-2.3-.8-5.2 0-1.45-.35-2.3l-.4-.35-.15-.35-.1-.1-1.9-1.5-1.2-1.3-2.85-3.9q-1.1-1.7-.8-4.05l-.15-.15q-1.85-1.75.2-3.95l1.55-1.55 1.4-1.2q0-2.6 2.3-2.65 1.85-.05 2.45 1.75l.05.25q.7 2.35-.65 3.9 1.2 0 2.1.95l3.15 2.85 1.35 1.4L81.15 60q.95 1.3.55 2.8.9 1.75 2.4 2.65m-3.4-.6l.45-.75.55-1.3-.55 1.3-.45.75M69.95 54q.55-.45 1.2-.75l1.95-.4-1.95.4q-.65.3-1.2.75m-3.5 3.15l-.5-.7.5.7m2.9-7.85l-.4.3.4-.3"/><path fill="url(#B)" d="M59.45 51.4l3.7.35q2.5.05 4.4-.95L66 52.35q-2.05 2.2-.2 3.95l.15.15q-.3 2.35.8 4.05l2.85 3.9 1.2 1.3-2.2.9-4.8.5q-2.2-.1-4.05-.8l.9-2.3 1.05-4.35q.35-1.9-.55-4.05l.05-.15q.9-2.15-1.3-3.75l-.45-.3"/><path fill="url(#C)" d="M53.45 46.8q.2.75.8.9-1.4.45-1.3 2.3.1 2.55 1.65 3.8-.95.3-1.4 1.4l-1.55 3.4-.05.05-.3-1.5-.1-2.25-.05-.7q-.1-2.15.6-4.05.7-1.85 1.7-3.35"/><path fill="url(#D)" d="M59.75 66.3q1.85.7 4.05.8l4.8-.5 2.2-.9 1.9 1.5.1.1.15.35.4.35q.35.85.35 2.3.05 2.9.8 5.2l-.8 1.3q-.4.65-.5 1.5v.2l-.4 2.8-.65.2-4.7.5-4.4-.6-1.8-.55v-.1l.1-.85q.45-1.95-.25-2.95l.35-.95.85-3.4q.2-1.6-1.2-2.5l-1-.35-1.05.05-.2-1.45.2-.5v-.35l.7-1.2"/><path fill="url(#E)" d="M53.3 82.05q-.95-.5-1.35-1.55l-.2-.95q0-1.1.75-2.35l1.2-2.3.6-1.1.8-1.05.4-.4q.7 2.4 1.05 4.75.8-2.5.45-6.05l.5-.4q1.7 2.25 2.65 5.4-.05-2.5-.9-5.45l-.2-.8 1.05-.05 1 .35q1.4.9 1.2 2.5l-.85 3.4-.35.95-1.25 2.55-.65 1q-.75 1.05-1.85 1.55-1.7.8-3.4.3l-.65-.3"/><path fill="url(#F)" d="M79.9 56.4q1.75.9 2.9 2.5 1.45 1.9 1.3 4.35v2.2q-1.5-.9-2.4-2.65.4-1.5-.55-2.8l-1.45-1.95.2-1.65"/><path fill="url(#G)" d="M83.55 73.05l-.75 1.1q-.85-1.1-2.3-1.65l-1.7-.35.1-4.3q.45 1.1 1.45 2.2l3.2 3"/><path fill="url(#H)" d="M77.35 72.45l-1 .8-1.75 2.15q.05-3.75 1.7-6.65l.1.95q.4 1.5.95 2.75"/><path fill="url(#I)" d="M77.35 72.45q.75 1.9 1.9 3.3l-.45-3.6 1.7.35q1.45.55 2.3 1.65l.7 1.35q.6 2.05.75 4.35v1.3l-.15 3.4-.35 1.35q-.5 1.45-1.65 2.3-1.95 1.25-4.5.9l-1.1-.25-.7-.25-.05-.05q-1.1-.5-1.95-1.5l-.85-1.15q-.6-1.3-.35-3.05l.2-1.55.4-2.8v-.2q.1-.85.5-1.5l.8-1.3.1.25v-.35l1.75-2.15 1-.8"/><path fill="url(#J)" d="M75.8 88.6q-1.2 3.15-4.15 4.45l-.2.1Q68.1 94.4 65.5 91.9q-.65-.7-1.6-1.15l2.4-2.15 1.3.2q-.1-1.15-1.5-1.75l-2.6-1.7q-1.05-.9-1.8-2.2-.5-1.05-.45-2.3l1.8.55 4.4.6 4.7-.5.65-.2-.2 1.55q-.25 1.75.35 3.05l.85 1.15q.85 1 1.95 1.5l.05.05"/><path fill="url(#K)" d="M61.05 93.9l-.55-.3q-1.5-.45-1.8-2.05-.3-1.6-.3-3.3.05-1.75.6-3.5.9-2.75 1.65-1.05.6 1.15 1.75 2.1l2.2 1.9q.65.65 1.7.9l-2.4 2.15-.8.75q-1.3 1.05-2.05 2.4"/><path fill="url(#L)" d="M50.55 95.25q.65-1.2.65-2.75.15-4 3.25-7.4.5-.55 1.15-.65 1.65-.25 1.45 1.35l-.35 3.15-.05 2.45q.1 1.1.65 1.8l1.4 1.3v.05l-4.3.1-3.85.6"/><path fill="url(#M)" d="M84.1 66.6l-.05 4L81.1 66l3 .6"/><path fill="url(#N)" d="M98.15 95.05l-2.8 4.05q-1.15 1.55-1.45 3.4l-.95-.25q-2.3-.35-3.6-2.3-1.3-2-2.3-4.15-.95-2.2-1.2-4.45-.3-3.7 1.75-1.65 1.45 1.35 3.6 2.4l4.05 2.05q1.3.7 2.9.9"/><path fill="url(#O)" d="M91 103.7l-7.1 1.1q-1.9.4-3.65 1.1.15-1.6-.7-3.6-2.1-5 .25-9.85.35-.8 1.2-1 2.1-.55 2.75 1.45l1.35 4.05 1.4 3.1q.65 1.35 1.85 2.2 1.25.9 2.65 1.4v.05"/><path fill="url(#P)" d="M71.65 93.05q.15 3.45-2.45 5.7-3 2.6-6.8 3.4l-3.55-.15q-1.8-.65-2.95-2.7-1.4-2.45-1.5-4.65l4.3-.1h.1q1.2.7 2.9.55-.05-.8-.65-1.2.75-1.35 2.05-2.4l.8-.75q.95.45 1.6 1.15 2.6 2.5 5.95 1.25l.2-.1"/><path fill="none" stroke="#060" stroke-width=".05" stroke-linecap="round" stroke-miterlimit="3" d="M82.8.7l1.15-.7-1 1.2q-1 6.9 4.5 11.5h.9l-.85.15h-.05q-4.5 4.3-4.5 9.1l.9.45M97.3 47.3l1.6.05h-1.6m-5.6-.2l-.35.1q-3.4 1.05-6.85 2.6-2.75 1.25-5.1 3m4.7 12.6l.65.35q1.95.9 4.45.8l.85-.05m-5.9-53.6l3.3-.1M82.5 21.7l.45.25m1.2-9.25h3.3M81.7 62.8l-.55 1.3-.45.75m8.5 1.75l-4.7.05-.4-.05m-.05 4l3.75 5.65-4.25-3.2m14.6 22l-2.8 4.05q-1.15 1.55-1.45 3.4m-2.75 1.2H91l-7.1 1.1q-1.9.4-3.65 1.1m-26.55-31l-.5-1m-3 5.65l2.1-11.35q-.95.9-2.35 1.4l-3.3.9-.15.05-.1.05h-.1l-.65.15m27.45-17.9l-1.95.4q-.65.3-1.2.75m2.9-44.35l-.1.15M67.6 1.95V1.2m0 .75q8.05.5 15.2-1.25M61.65 18.95h.15l1.6.05 4.7-.3.1-.05.3.15m6.45-4.8l2.4-.5M54.95 1.65L54.7.9l.2.75Q49.2 3.8 39 3.05L38.65 3M58.9 18.35l.3.1m-2.8-1.1l-4.6-2.55m2.8 39l1.6-.1 1.15.5m-3.9-7.4q-1 1.5-1.7 3.35-.7 1.9-.6 4.05l.05.7.1 2.25.3 1.5v.05l-1.1 3.75q-.3 1.5.4 2.8l.8 1.15.55.6m-.6-8.4l1.55-3.4q.45-1.1 1.4-1.4m19.15-4.85l-.05-.25M38.2 3.1l-.45-.45.6.15v.05m-.15.25q.2 4.6-3.55 8.65m0 .25l-.8-.2.8-.05m31.3 44.7l.5.7m-5.3-1.55l-.2.75M74.5 75.5l.1-.1m-23-16.7l.05-.1m-.75 6.65q-.15 2.3-1.45 3.6-1.1 1.15-2.8 1.65m8.85 1.85l-.95-2.9q-.05 1.15-.5 2.45l-.85 2m4.3-3.25l-.7-.9.2 1.3M68.95 49.6l.4-.3m-27.4-.9q5.1.55 9.25 6.5M34.9 12.05q5.15 1.8 9.65 6.05"/><path fill="none" stroke="#6C3C0C" stroke-width=".05" stroke-linecap="round" stroke-miterlimit="3" d="M67.95 24.8l-.9 1.55m12.35 26.5l.25.85q.3 1.35.25 2.7 1.75.9 2.9 2.5 1.45 1.9 1.3 4.35v2.2q-1.5-.9-2.4-2.65.4-1.5-.55-2.8l-1.45-1.95-1.35-1.4-3.15-2.85q-.9-.95-2.1-.95M66.8 31.4l-.4 1.7q2.25 2.85 2.65 5.7 2.05.75 3.6 2.45 1.4 1.5 2.1 3.6.45 1.35.05 2.55l2.7 2.3q1.35 1.35 1.9 3.15m4.7 13.75l-.05 4m-.5 2.45l-.75 1.1m-7 14.45q-1.2 3.15-4.15 4.45.15 3.45-2.45 5.7-3 2.6-6.8 3.4l-3.55-.15m-13.7-.7l-.9-.65m-14.4-8.35q-2.65-1.8-4.75-4.35-2.45-3.05-3.4-6.2-.5-1.85.6-3.3l2.05-2.15q-.05-3.15 1.45-5.85 1.45-2.55 4.25-3.25.15-2.8 2.85-4.35l.6-.3.25-3.5.2-1.05Q31.8 56.35 32 53.3l-1.2-.15q-3.5-.9-2.3-3.85v-.1l.1-.1.2-.5m8.3 1.1q2.2.45 3.55 2.9 1.3 2.45 1 4.55 1.55 1.35 1.3 3.7-.2 2.7-1.35 5 .5 1.6-.25 3.55-.3.9-1 1.5l-.55.55q.9 1.7.45 3.45m3.7 5.7H44m5.45 4.3h.7l.85.15M84.1 66.6l-3-.6 2.95 4.6m-15.4-49.5q-1.05 1-2.5 1.6l-3.05.25q-1.15-.2-2.25-1L60 21.6m-1.75-.05l-.65-.05h-.05m-1.3.05H53.3q-1.75.1-2.8-1.1-1-1.15-1.65-2.45l-.2-.55m-.4 3.5q2.8 1.3 4.95 3.95l1.25 1.5v-.85m.9 1.85l1.2 1.15q2.8 2.65 7 1.7l1.65-1.05.7-1.05m-8.1 7l-.25 1.55q-.35 1.55 0 2.9-1.6 1.35-3.05 2.85-1.3 1.55-1.05 4.15v.2q.2.75.8.9h.2m14.65-8l-.05-.9m-13.2-7.25q.5 1.55 1.4 3l.55.6q1.7 1.65 5.2.85 2.55-.65 3.4-2.9m-9.65 16.3l.05.3m2.65 1.7l3.7.35q2.5.05 4.4-.95m6.25-1.95l1-1.45m-1 1.45l-.05.1q.7 2.35-.65 3.9m-41.05 0l-.05.45m47.7 4.75l.2-1.65m-14.1-.1l.15.15m-4.75-1l-.05.15q.9 2.15.55 4.05L60.65 64l-.9 2.3-.7 1.2v.35l-.2.5.2 1.45m9.55-3.2l2.2-.9-1.2-1.3-2.85-3.9q-1.1-1.7-.8-4.05m-4.7 24.4l1.8.55 4.4.6 4.7-.5.65-.2m1.7-5.8q-.75-2.3-.8-5.2 0-1.45-.35-2.3l-.4-.35-.15-.35-.1-.1-1.9-1.5m3.8 9.7q.05-3.75 1.7-6.65l.1.95q.4 1.5.95 2.75m6.2.6l-3.2-3q-1-1.1-1.45-2.2l-.1 4.3M59.45 51.4l.45.3m-1.2 42.85h.1m-4.4.1q.1 2.2 1.5 4.65 1.15 2.05 2.95 2.7m5.05-11.25q.95.45 1.6 1.15 2.6 2.5 5.95 1.25l.2-.1"/><path fill="none" stroke="#9F0C00" stroke-width=".05" stroke-linecap="round" stroke-miterlimit="3" d="M75.25 20.65l-2.6 2.05-3.85 2-.8.1h-.05m8.25-12.65l1.1 1.15q-1.1.05-2.1.5l-.25.2-1.05.95 1.65 1.5q.7.85.8 1.7M58.85 102q-2.6 1.9-6.35 1.8-4.15-.25-7.35-2.5m-.9-.65l-6.3-.7q-3.9-1-6.3-4.05-1.35-1.6-1.8-3.6-.4-1.7-.15-3.65.5-3.9 3.5-5.95 2.6-1.8 6.5-2.25l4.25.15m-14.6-32.75q1.3-1.45 3.6-1 2.55.45 4.15 2.85l-2.65.2q-2.1.65-2.4 2.95m8.2 22.05l1.8 1.6q1.6 1.75 1.9 4.1m.05 0l2.85.9q2.2 1.05 2.6 3.4-3.65.3-6.1 3.2-2.4 2.85-2 7.15.3 3.1 2.9 5.4M53.2 73.9q-1.35 3.15-3 5.65M72.75 9.8l.35.05q1.1.25 2 1.1l1.1 1.2M64.55 8.8l1.55.7 1-.15m1.75 0l3.9.45m-8.2-1l-2.8-.7-3.75.2-1.35.4 1 .55m11.2.1H67.1m-1 .15l-2.3.6m0 1.15q-1.7.55-1.75 1.4.05.85 1.75 1.45l4 .65 4.1-.65q1.7-.6 1.65-1.45.05-.85-1.65-1.4-1.7-.65-4.1-.65-2.35 0-4 .65m4.7 7.55l.05.1m.1 2.2q-.2.85-1 1.6-1.15 1.2.15 2l.15.1m-19.3-7.35q-.45 1.05-.35 2.5l-.05 1m25.65-6l-.4.5q-1.1 1.6-2.95.9m4.7 4.3l.6-.8q.55-.85.5-1.7m-25.1-9.5q-1.5.15-1.7.85-.2.75 1.05 1.7 1.2.9 3.1 1.45l3.4.45q1.5-.15 1.7-.85.15-.75-1.05-1.7-1.25-.9-3.15-1.45l-3.35-.45M50 7.8l3.7-.15 1.5.45 1.45.6m-9.15-.05l1.8-.6.7-.25m-2.5.85l-1 .25q1.3.45 2.05 1.5l.6 1q.2.55.95.7m-1.55-1.7q-1.55.25-2.65 1.3l-.7.85-.55.9q-.7 1.6-.45 3.45l.35 1.2.1.25q.5 1.25 1.4 2.25 1.95 2 2.2.35m9.3 18.65q.35 1.1 1.2 2.05 2.75 3 6.9 2.15 3.65-.75 3.45-4.1m-14.65 8q1.6-.3 2.3 1.7m.05.3l2.65 1.7m8.1-.6l1.4-1.2q0-2.6 2.3-2.65 1.85-.05 2.45 1.75m-19.45-1q-1.4.45-1.3 2.3.1 2.55 1.65 3.8M33.95 58q1-3.4 5.05-2.2 1.65.5 2.65 1.35M30.05 67.2l1.85-.25q4.15-.1 6.6 2.7l1.3 1.8m1.8-5.6q-.5-1.4-2-2.45-3.05-2.2-6.1-.85m6.75 12.35q-2.05-1.45-4.6-1.75-4.15-.5-7.8 1-1.9.8-3.5 2.15m43.2-25.5L66 52.35q-2.05 2.2-.2 3.95m-6.05 10q1.85.7 4.05.8l4.8-.5m-8.7-14.9q2.2 1.6 1.3 3.75"/><path fill="none" stroke="#1C481C" stroke-width=".05" stroke-linecap="round" stroke-miterlimit="3" d="M58.7 94.55l-4.3.1-3.85.6m13.35-4.5l-.8.75q-1.3 1.05-2.05 2.4m5.25-5.3l-2.4 2.15"/><path fill="none" stroke="#2C542C" stroke-width=".05" stroke-linecap="round" stroke-miterlimit="3" d="M82.8 74.15l.7 1.35q.6 2.05.75 4.35v1.3l-.15 3.4-.35 1.35q-.5 1.45-1.65 2.3-1.95 1.25-4.5.9l-1.1-.25-.7-.25-.05-.05q-1.1-.5-1.95-1.5l-.85-1.15q-.6-1.3-.35-3.05l.2-1.55.4-2.8v-.2q.1-.85.5-1.5l.8-1.3m-21.2 6.55q-.95-.5-1.35-1.55l-.2-.95q0-1.1.75-2.35l1.2-2.3m5.35-5.1l1.05-.05 1 .35q1.4.9 1.2 2.5l-.85 3.4-.35.95-1.25 2.55-.65 1q-.75 1.05-1.85 1.55-1.7.8-3.4.3l-.65-.3m29.5-7.9q-.85-1.1-2.3-1.65l-1.7-.35.45 3.6q-1.15-1.4-1.9-3.3l-1 .8-1.75 2.15v.35l-.1-.25m-15.45-5.7l.2.8q.85 2.95.9 5.45-.95-3.15-2.65-5.4l-.5.4q.35 3.55-.45 6.05-.35-2.35-1.05-4.75l-.4.4-.8 1.05-.6 1.1"/><path fill="none" stroke="#666" stroke-width=".05" stroke-linecap="round" stroke-miterlimit="3" d="M61.8 18.65l-.15.3M60 21.6l-2.45 3.3.7-3.35m-.7-.05q-.5 1.65-.65 3.25l-.35-1.15-.3-2.05.15-4.2q.1-1.5.8-2.8m4.6 4.1q.75-1.4.7-3m-2.15-.75l-.15.5v.05l-.1.25-.9 2.75-.95 3.1m1.85-5.85l-1.2 2.65m1.3-2.95l-.1.3m-2.55 5.8l.05-.1q.45-1.45 1.15-2.8l.15-.25M60 21.6l1.65-2.65"/><path fill="none" stroke="#74A01C" stroke-width=".05" stroke-linecap="round" stroke-miterlimit="3" d="M62.5 15.65l.6.3q1 .55 2.4.7 2.15.3 2.85 1.9l.15.25m.05.1q.4 1.2.1 2.2m-6.15-5.45l-2.15-.75m-11.7 2.55q.35-.9 1.05-1.5l2.1-1.15 2.2-.35 3.2.1 3.15.35"/></svg>