<svg xmlns="http://www.w3.org/2000/svg" viewBox="-0.1 0 100.1 100.1" width="100.1" height="100.1"><defs><radialGradient gradientUnits="userSpaceOnUse" r="819.2" cx="0" cy="0" fx="87942.4" fy="0" spreadMethod="repeat" gradientTransform="matrix(.021 0 0 .021 82.5 7.35)" id="a"><stop offset=".098" stop-color="#660"/><stop offset=".604" stop-color="#fc0"/><stop offset=".894" stop-color="#3D3D00"/></radialGradient><radialGradient gradientUnits="userSpaceOnUse" r="819.2" cx="0" cy="0" spreadMethod="pad" gradientTransform="matrix(.046 0 0 .046 86.75 52.95)" id="b"><stop offset=".098" stop-color="#660"/><stop offset=".604" stop-color="#030"/><stop offset=".894" stop-color="#3D3D00"/></radialGradient><radialGradient gradientUnits="userSpaceOnUse" r="819.2" cx="0" cy="0" spreadMethod="pad" gradientTransform="matrix(.03 0 0 .03 63.6 22.85)" id="c"><stop offset=".098" stop-color="#660"/><stop offset=".604" stop-color="#0A3800"/><stop offset=".894" stop-color="#3D3D00"/></radialGradient><linearGradient gradientUnits="userSpaceOnUse" x1="-819.2" x2="819.2" gradientTransform="matrix(.022 0 0 .028 75.8 46.65)" id="d"><stop offset=".098" stop-color="#660"/><stop offset=".604" stop-color="#9cc"/><stop offset=".894" stop-color="#3D3D00"/></linearGradient><radialGradient gradientUnits="userSpaceOnUse" r="819.2" cx="0" cy="0" spreadMethod="pad" gradientTransform="matrix(.034 0 0 .034 52.2 48.55)" id="e"><stop offset=".098" stop-color="#660"/><stop offset=".604" stop-color="#606"/><stop offset=".894" stop-color="#3D3D00"/></radialGradient><radialGradient gradientUnits="userSpaceOnUse" r="819.2" cx="0" cy="0" spreadMethod="pad" gradientTransform="matrix(.029 0 0 .029 49.9 59.9)" id="f"><stop offset=".098" stop-color="#660"/><stop offset=".604" stop-color="#639"/><stop offset=".894" stop-color="#3D3D00"/></radialGradient><radialGradient gradientUnits="userSpaceOnUse" r="819.2" cx="0" cy="0" spreadMethod="pad" gradientTransform="matrix(.022 0 0 .022 68.45 80.55)" id="g"><stop offset="0" stop-color="#309"/><stop offset=".604" stop-color="#630"/><stop offset=".894" stop-color="#3D3D00"/></radialGradient><radialGradient gradientUnits="userSpaceOnUse" r="819.2" cx="0" cy="0" spreadMethod="pad" gradientTransform="matrix(.019 0 0 .019 50.05 72.35)" id="h"><stop offset=".098" stop-color="#660"/><stop offset=".604" stop-color="#fc0"/><stop offset=".894" stop-color="#3D3D00"/></radialGradient><radialGradient gradientUnits="userSpaceOnUse" r="819.2" cx="0" cy="0" spreadMethod="pad" gradientTransform="matrix(.024 0 0 .024 50.75 83.1)" id="i"><stop offset=".098" stop-color="#660"/><stop offset=".604" stop-color="#c93"/><stop offset=".894" stop-color="#3D3D00"/></radialGradient><radialGradient gradientUnits="userSpaceOnUse" r="819.2" cx="0" cy="0" spreadMethod="pad" gradientTransform="matrix(.022 0 0 .022 50.35 77.85)" id="j"><stop offset=".098" stop-color="#660"/><stop offset=".604" stop-color="#606"/><stop offset=".894" stop-color="#3D3D00"/></radialGradient><radialGradient gradientUnits="userSpaceOnUse" r="819.2" cx="0" cy="0" spreadMethod="pad" gradientTransform="matrix(.013 0 0 .013 8.65 12)" id="k"><stop offset=".098" stop-color="#660"/><stop offset=".604" stop-color="#fc0"/><stop offset=".894" stop-color="#3D3D00"/></radialGradient><radialGradient gradientUnits="userSpaceOnUse" r="819.2" cx="0" cy="0" spreadMethod="pad" gradientTransform="matrix(.034 0 0 .034 26.9 24)" id="l"><stop offset=".098" stop-color="#660"/><stop offset=".604" stop-color="#0A3800"/><stop offset=".894" stop-color="#3D3D00"/></radialGradient><radialGradient gradientUnits="userSpaceOnUse" r="819.2" cx="0" cy="0" spreadMethod="pad" gradientTransform="matrix(.034 0 0 .034 9.45 52.45)" id="m"><stop offset=".098" stop-color="#660"/><stop offset=".604" stop-color="#030"/><stop offset=".894" stop-color="#3D3D00"/></radialGradient><linearGradient gradientUnits="userSpaceOnUse" x1="-819.2" x2="819.2" gradientTransform="matrix(.022 0 0 .027 19.85 47.55)" id="n"><stop offset=".098" stop-color="#660"/><stop offset=".604" stop-color="#9cc"/><stop offset=".894" stop-color="#3D3D00"/></linearGradient><radialGradient gradientUnits="userSpaceOnUse" r="819.2" cx="0" cy="0" spreadMethod="pad" gradientTransform="matrix(.019 0 0 .019 32.2 81.15)" id="o"><stop offset="0" stop-color="#309"/><stop offset=".604" stop-color="#630"/><stop offset=".894" stop-color="#3D3D00"/></radialGradient><radialGradient gradientUnits="userSpaceOnUse" r="819.2" cx="0" cy="0" spreadMethod="pad" gradientTransform="matrix(.008 0 0 .008 39.05 85.35)" id="p"><stop offset=".098" stop-color="#660"/><stop offset=".604" stop-color="#fc0"/><stop offset=".894" stop-color="#3D3D00"/></radialGradient><radialGradient gradientUnits="userSpaceOnUse" r="819.2" cx="0" cy="0" spreadMethod="pad" gradientTransform="matrix(.03 0 0 .03 89.5 9.65)" id="q"><stop offset=".098" stop-color="#660"/><stop offset=".604" stop-color="#fc0"/><stop offset=".894" stop-color="#3D3D00"/></radialGradient></defs><path d="M72.05 41.15q.15-.05.25-.15 1.1-.85 1.95-2.1l.6-1.15 1.6-3.15q1-1.8 1.35-3.75l.35-1.45q.1 3.45 1.7 6.55.6 1.2.75 2.5l.2 2.15-.2 4.1q-.25 1.6-1.2 3l-1.85 2.2.55-7 .1-3-.1-.85q-.9.9-2.2 1.25l-3.85.85m-36.8-1.9l-8.9-1.5.2 10.65-.1.05q-1.8-1.95-2.4-4.5-.3-1.25-.2-2.55l.3-2 .3-2.3q.05-1.9-.85-3.55-.95-1.9-1.25-3.4.3 1.25 1.25 2.3l2.5 2.2q1.35 1.05 2.95 1.6l3.85 1.2q1.6.45 2.35 1.8m-2.4 12.65q.65-1.05 1.7-1.6l.2.65q-.4 2 1.7 2.5l1.5.25-.15 1.05v.65h-.05l-1.2-.4-.9-.5-1-.2H33.4l-.55-2.4m8.35-.15l.85-.2q-.3 2.1 1.1 3.55l.3.35 1.25.95-.55.7q-.4.8-1.7-.15-.8-.65-1.1-1.5l-.15-1v-2.7m6.5 5.8q.45-.1 1.15.75.65.75 1.65 1 1.75.4 2.45-1.15.6-1.45.15-3.05l.95.7-.05.9-.55 1.6-.7 1.1-1.5 1.65-.9.55h-1.5q-.85-.45-1-1.4-.25-1.3-.15-2.65m7.7-2.35l.25-2.9-.2-1 2.05.7.1 1.6-.25 1.8q-.3.95-1.05 1.7l-.9-1.9m4.05-3.9l.15-2.4 3.25 2.35.05.05.05.1-.3 1.35q-.5 1.05-1.6.9-.25-1.15-1.1-1.9l-.5-.45m8.9-4.45q1.35-.85 2.8-1.55L73 44.15l2.65-2.6q-.05.85-.7 2.2l-2.7 4.65-1.35 1.5-1 .75q-1.1.65-2.4.6l-.8-.75q-.3-.35-.4-.9l-.2-1 2.25-1.75M28 41.45l-.65-1.15-.05-.15q1.6.4 2.95 1.35l2.35 1.9 1.5 1.8q.7 1 1.05 2.1l-.35.5-.5.2h-.05l-.45.4-.85-.5-1.3-.9-2-2q-.65-.65-.9-1.6l-.3-1.05-.45-.9m5.35 19.45l-.85-1.15q-.65-.8-.8-1.8-.25-1.15 0-1.95.75 1.5 2.5 2.45.75.45.85-.25l.65-3.05.95 1.55 2.2 2.1q1.5 1.3 3.3 2.15.55.3 1 0 1.05-.7 1.35-1.8h.15q.2 1.65.75 3.2.55 1.55 1.9 2.6 1 .8.25 1.2-.55.25-.8.75l-.5 1.5-.15.7-4.4.25-3.15-2.1-.7-.6q-1.2-1.15-1.9-2.45l2.3 1.65q1.35.9 3 1.15l3.1-.05.7-.15.8-.35.5-.6q.1-.4-.15-.7l-1.1-.7-11.75-3.55m22.75 8.85q-.4-1.45-1.6-2.5l-2.6-1.9 2.55-2.65.6-.85q1.1-1.75 2.35-3.25l.4-.45-.15 3.25q1.25-1.1 2.9-1.65 3.1-1.05 5.1-3.55l.95-1.45.45-.5q-.3 1.2-.35 2.45v1.15q.6-.2 1.05-.95l.5-.7v1.9q-.05.85-.45 1.55l-.1.25-.05.1-.35.15-1.6.7-3.5 1.8q-1.8.9-3.85 1.15-1.75.2-3.25 1.05l.3.65q.25.65.85 1 2.8 1.3 5.75-.1l2.75-1.45h.05q-1.15 2.35-2.6 3.45-1.55 1.15-3.25 1.65h-.2l-2.55-.3h-.1m-6.65 6.15l-2.85-.95q-1.8-.75-1.1-2.4.25-.7.95-.7l3.95-.55q.05-.15.75 0 2.2.4 1.75 2.8l-.05.25q-.55 2.15-2.65 1.75l-.75-.2m-12.8 3.3l.15.7.2 1.8q.1-.9.65-1.65l1-.75 1.05-.3v1.8l.1.55q.45 3.05 2.25 5.45v.05l.05-.05.05-.7.5-1.4.4-.55.55.9-.9 1.5-.3.4q-.25.15-.25.5l.35 3.4q-1.3-1.5-2.15-3.2-.4.35-.45.95-.25 1.65.2 3.15l-.75-.8q-.4-.8-1.05-1.15l-.55-.15q-1.7-.3-3.15.45l-.1-.05q.25-.7.95-1.3 1.1-.85 2.15-1.1 1.2-1.55 1.3-3.2l-.15-2.1-.1-.5Q37 82.9 35.5 84.4l-.25-.1 1.4-5.1M58 85.9l1.5-1.75.05 1.05.2.8L62 83.3q2.05-2.35 3.6-4.9l1.1.25q.5.05.7-.35l-.45 1q-.8 1.4-2 2.35-.95.75-1.6 1.8l-.5 1.3-.15.55q-.25 1.55.8 1.8.95.25 1.5 1l.45.75q-1.75-.75-3.65-.4l-.7.2q-.35.15-.6.4l-.05-.15-.55-.9-1.9-2.1m-17.05 6.95l.35 1.2-.05 1.2-.3.45-.4.4-1.6.6q-1.25.75-2.15 1.7l-.6-1.5-.2.2q-.9.75-1.55 1.85l-.2.6-.4-.2-1.35-1.65-.15-.25-.15.9-2.05-1.3q-.5-.4-1.05-.55-.6-.15-.4-.8l.15-.65 1.95.15 1.2-.4-.05 1.1 2.55.3q1.8-.15 2.6-.8v-.3q1.5.4 2.55-.85l1.3-1.4M36.2 96.9l.7-.95.2-.55-.2.55-.7.95m-3.85.55l-.25-.55-.15-1 .15 1 .25.55m40.2-3.95l.6 2.05q.2.75-.5.9l-.45.2-.9.5-2.55 1.5-.05-.45-.1-.6-1.95 2.2-.5.25-.25-.7q-.8-1.25-1.9-2.15l-.3-.25q-.55.85-.75 1.75l-2.65-1.95q-.75-.45-1.55-.55l-.5-.2-.5-.4-.35-.55-.1-.7q.8.55 1.9.7l3.25-.2.15-.05q-.05.6.2 1.05l.1.1 2.85-.05q1.35-.15 1.85-1.4l.55-.75.65-.3.25 1.1 2.35.05.25-.2.9-.9m-9.65 2.45l.8 1-.8-1m5.7 1.65l.3-.65.2-1.8-.05-.6.05.6-.2 1.8-.3.65"/><path fill="#900" d="M35.95 64.2l-.7-.5q-1.6-1.25-2.4-3l.5.2 11.75 3.55 1.1.7q.25.3.15.7l-.5.6-.8.35-.7.15-3.1.05q-1.65-.25-3-1.15l-2.3-1.65m31.85-4.15l-.7 1.9q-.6 1.95-2.3 3h-.05L62 66.4q-2.95 1.4-5.75.1-.6-.35-.85-1l-.3-.65q1.5-.85 3.25-1.05 2.05-.25 3.85-1.15l3.5-1.8 1.6-.7.35-.15.15.05"/><path fill="url(#a)" d="M67.15.75L67.1.8V.75h.05"/><path fill="url(#b)" d="M94.1 69.65q-.75-3.85-.85-7.8-.2-7.6-1.8-15.15l-1.75-7.1q-1.1-4.1-4.2-7l-7-5.95q-2.2-1.7-4.8-2.5l-.15-1.85q-.1-1.55.15-3.15.15-.9.55-1.7l1.3.25Q82 19.05 87 23.1q7.45 6.05 9.45 15.05L98.4 48.4l1.35 8.95q.6 4.2 0 8.4-1.6 11.45-3.55 22.7l.1-4.15q.15-2.7-.3-5.35l-1.35-6.75-.55-2.55"/><path fill="url(#c)" d="M74.25 17.45q-.4.8-.55 1.7-.25 1.6-.15 3.15l.15 1.85-.75-.25q-2.45-.7-4.35.7-1.8 1.3-2.7 4.2l-1.35 3.25-.9 2.05-1.6 4.2q-1.85 3.95-4.55 7.25l-.65.15q-.05-.55.2-1.15L53 44.8q1.55-4.15 2.45-8.6l1.4-8.45.75-8.95.4-9.25q.1-2.25-.25-4.45-.45-2.45-1.5-4.8l10.7.45.15.05q-.45.8-.5 2-.05 1.5.35 2.7l.45 1.1q-1.05.35-2 1-1.45.95-1.75 2.95-.2 1.1 1.05 2.5 1.5 1.7 3.5 2.55 2.85 1.25 6.05 1.85"/><path fill="url(#d)" d="M73.7 24.15q2.6.8 4.8 2.5l7 5.95q3.1 2.9 4.2 7l1.75 7.1q1.6 7.55 1.8 15.15.1 3.95.85 7.8l-2.55-1.85q-3.3-2.65-7-4.65-3.8-2.05-7.8-3.55-2.65-1-5.4-1.2-.6-1.9-1.75-3.6l.35-.4 1.65-.6q3.2-1.45 5.7-3.7l.1-.05.15.1v-.25l1.85-2.2q.95-1.4 1.2-3l.2-4.1-.2-2.15q-.15-1.3-.75-2.5-1.6-3.1-1.7-6.55l-.35 1.45q-.35 1.95-1.35 3.75l-1.6 3.15-.6 1.15q-.85 1.25-1.95 2.1-.1.1-.25.15l-.75.1.05.25-3.2 1.3-3.15.85q-2.1.55-3.05 1.9.05-.4-.75-.4l-3.7.4q2.7-3.3 4.55-7.25l1.6-4.2.9-2.05 1.35-3.25q.9-2.9 2.7-4.2 1.9-1.4 4.35-.7l.75.25"/><path fill="url(#e)" d="M57.5 45.55l3.7-.4q.8 0 .75.4.95-1.35 3.05-1.9l3.15-.85 3.2-1.3h.1l.6-.35 3.85-.85q1.3-.35 2.2-1.25l.1.85-.1 3-.55 7-.15.15-.1.05q-2.5 2.25-5.7 3.7l-1.65.6-.35.4-2.5-2.9q-1-1-2.3-1.8-1.9-1.2-2.65-2.8-.15.45.05.9l.6 1.9.15 1.2h-.05l-.05-.05-3.25-2.35-.15 2.4-1.85-1.55q-1.05-.85-1.8-1.05l.95 1.6.55 1.1.2.6-2.05-.7.2 1-.25 2.9-1.15-1.55-.2 2.15-.95-.7q.45 1.6-.15 3.05-.7 1.55-2.45 1.15-1-.25-1.65-1-.7-.85-1.15-.75v-.35l.35-2.45-.95.45-.7.15q-1 .25-1.65 1l-.05.05-1.25-.95-.3-.35q-1.4-1.45-1.1-3.55l-.85.2V50.4q-.6-.05-1.25.35-1.05 1.15-1.6 2.05l-.4.9-1.5-.25q-2.1-.5-1.7-2.5l-.2-.65q-1.05.55-1.7 1.6-.2-1.6.2-3.2-1.1 1.5-1.9 3.2l-.35-.45-.75-.4-1.7-.95-1.8-1.6v-.1l-.2-10.65 8.9 1.5.4.85q.5 1.6 1.25 3.05l.2.3q1.2.9 1.8 2.65l1.95-.8.85-.35 1.65.15.8.35q1.6.55 2.5-.85l1.4-1.45q0 1.55.7 2.95 1.95-.85 4.05-1.25l.2-.05 4.05-.25q-.25.6-.2 1.15l.65-.15m10.85 1.3L66.1 48.6l.2 1q.1.55.4.9l.8.75q1.3.05 2.4-.6l1-.75 1.35-1.5 2.7-4.65q.65-1.35.7-2.2L73 44.15l-1.85 1.15q-1.45.7-2.8 1.55M28 41.45l.45.9.3 1.05q.25.95.9 1.6l2 2 1.3.9.85.5.45-.4h.05l.5-.2.35-.5q-.35-1.1-1.05-2.1l-1.5-1.8-2.35-1.9q-1.35-.95-2.95-1.35l.05.15.65 1.15"/><path fill="url(#f)" d="M69.6 54.8q1.15 1.7 1.75 3.6l.2.75q.55 2.35-.3 4.55l1-2.2q.4-.9.95-1.75l-.2 2.1-.55 2.2-.75 1.4-.3.35q-1 1.2-2.65 2.25-1.45.85-3.05 1.5l-.65.25-.15.05-3.8 1.05-.15.05-5.6 1.2-1.35.4q.65-.55 1.45-1.05.9-.55 2-.95l1.3-.4.2-.1q1.7-.5 3.25-1.65 1.45-1.1 2.6-3.45 1.7-1.05 2.3-3l.7-1.9.05-.1-.15-.05.1-.25q.4-.7.45-1.55v-1.9l-.5.7q-.45.75-1.05.95V56.7q.05-1.25.35-2.45l-.45.5-.95 1.45q-2 2.5-5.1 3.55-1.65.55-2.9 1.65l.15-3.25-.4.45q-1.25 1.5-2.35 3.25l-.6.85-2.55 2.65 2.6 1.9q1.2 1.05 1.6 2.5l-10-.65.15-.7.5-1.5q.25-.5.8-.75.75-.4-.25-1.2-1.35-1.05-1.9-2.6-.55-1.55-.75-3.2l-.05-.8-.1.8q-.3 1.1-1.35 1.8-.45.3-1 0-1.8-.85-3.3-2.15l-2.2-2.1-.95-1.55-.65 3.05q-.1.7-.85.25-1.75-.95-2.5-2.45-.25.8 0 1.95.15 1 .8 1.8l.85 1.15-.5-.2q.8 1.75 2.4 3l.7.5q.7 1.3 1.9 2.45l.7.6 3.15 2.1 2.5 1.35 1 .75-10.05-2.65-.15-.05-.45-.15q-2.4-.65-4.05-1.95l-.65-.6-1.1-1.3-1.45-2.5q-.5-.95-.7-1.95.35.95 1.25 1.65l1.55.8.15-3v-2.3l.2-1.4v-.1l.4-1.45q.35-1.3.95-2.5l.05-.1q.8-1.7 1.9-3.2-.4 1.6-.2 3.2l.55 2.4h1.25l1 .2.9.5 1.2.4h.05v-.65l.15-1.05.4-.9q.55-.9 1.6-2.05.65-.4 1.25-.35V54.45l.15 1q.3.85 1.1 1.5 1.3.95 1.7.15l.55-.7.15.05-.1-.1q.65-.75 1.65-1l.7-.15.95-.45-.35 2.45v.35q-.1 1.35.15 2.65.15.95 1 1.4h1.5l.9-.55 1.5-1.65.7-1.1.55-1.6.05-.9.2-2.15 1.15 1.55.9 1.9q.75-.75 1.05-1.7l.25-1.8-.1-1.6-.2-.6-.55-1.1-.95-1.6q.75.2 1.8 1.05l1.85 1.55.5.45q.85.75 1.1 1.9 1.1.15 1.6-.9l.3-1.35v-.1l-.15-1.2-.6-1.9q-.2-.45-.05-.9.75 1.6 2.65 2.8 1.3.8 2.3 1.8l2.5 2.9m1.35 9.5l.3-.6-.3.6m-22.85.55q.2-.6 1.1-.45.75.15.95 1.2v1.75-1.75q-.2-1.05-.95-1.2-.9-.15-1.1.45"/><path fill="url(#g)" d="M65.7 69.55q1.6-.65 3.05-1.5Q70.4 67 71.4 65.8l.3-.35q.6.25 1.2 1.05 1.7-.35 3.05-1.35l-.1 2.4.7-.3 3.05-.2-.35.65q-2.1 1.85-3.2 4.35l-.1.3q-.45 1.3.3 2.5 1.15 1.95 1.9 4.05l-2.95-2q.35.8.15 1.95Q75 80.8 73.3 81.8q-1.7 1-2.85 2.2-1.2 1.25-1.45 2.9-.2 1.4.15 2.7l.4 1.1q.1.7.85 1l.1.05 1.7-.05q0 .85.3 1.7l.05.1-.9.9-.25.2-2.35-.05-.25-1.1-.65.3-.55.75q-.5 1.25-1.85 1.4l-2.85.05-.1-.1q-.25-.45-.2-1.05l-.15.05-3.25.2q-1.1-.15-1.9-.7l.05-.75q.2-1.15.75-2.1l.55-.45L59.8 90l.7-.95q.25-.25.6-.4l.7-.2q1.9-.35 3.65.4L65 88.1q-.55-.75-1.5-1-1.05-.25-.8-1.8l.15-.55.5-1.3q.65-1.05 1.6-1.8 1.2-.95 2-2.35l.45-1q-.2.4-.7.35l-1.1-.25.75-1.25.55-1.7.15-2.5-1.1.7-.7.9v-.75l.2-1.45.05-.3.2-2.5m8.95-1.2l1.2-.8-1.2.8m-12 25.75l-.05.7.05-.7m3.1-5.1l-.3-.15.1.2.2-.05 1.1.4.65.4-.65-.4-1.1-.4m3.65 4.6l-.6-.15.6.15"/><path fill="url(#h)" d="M46.1 69.1l10 .65h.1l2.55.3v.1l-1.3.4q-1.1.4-2 .95-.8.5-1.45 1.05l1.35-.4 5.6-1.2.15-.05 3.8-1.05.05.1-.8.75q-1.75 1.1-3.7 1.7l-2.55.4-1.55.6q-1.75.85-3.45.95v-.25q.45-2.4-1.75-2.8-.7-.15-.75 0l-3.95.55q-.7 0-.95.7-.7 1.65 1.1 2.4l2.85.95q-2.2.2-4.35-1.1-1-.6-2.05-1.05l-1.35-.8q-.2-.1-.05.65l.2.65.3.6-2.55-1.15-1.45-.85q-1.15-.75-3-4.05l10.05 2.65-1-.75-2.5-1.35 4.4-.25"/><path fill="url(#i)" d="M35.5 73.55l.9-.05q1.6 0 2.75 1.4l5.3 5.45 2.25 2.4L47 81v-1.85l1.75 3.95.7 2.6.2.65.3.5 1.5-2.6 4.1-7.55 1.25 4.55.8 1.55 5.9-8.9-.4 1.25v.8l.2-.7.5-1 1.45-1.95.2.05-.2 1.45v.75l.7-.9 1.1-.7-.15 2.5-.55 1.7-.75 1.25q-1.55 2.55-3.6 4.9L59.75 86l-.2-.8-.05-1.05L58 85.9l-2.8 2.5q-.4.3-.6.75l-.2-.1q-.25-1.4-.15-2.9-2 1.25-2.75 3.45l-1.7 4.25-4.05-5.3-2.15-3.5-.55-.9-.4.55-.5 1.4-.05.7-.05.05v-.05q-1.8-2.4-2.25-5.45l-.1-.55V79l-1.05.3-1 .75q-.55.75-.65 1.65l-.2-1.8-.15-.7-.5-2.55-.05-.85-.85.3-.75.45.3-1.25q.2-.95.7-1.75"/><path fill="url(#j)" d="M35.5 73.55l.05-.05.2-1.05-.05-.65-.7-3h.15q1.85 3.3 3 4.05l1.45.85 2.55 1.15-.3-.6-.2-.65q-.15-.75.05-.65l1.35.8q1.05.45 2.05 1.05 2.15 1.3 4.35 1.1l.75.2q2.1.4 2.65-1.75h.05q1.7-.1 3.45-.95l1.55-.6 2.55-.4q1.95-.6 3.7-1.7l.8-.75.1-.15.65-.25-.2 2.5-.25.25-1.45 1.95-.5 1-.2-.1.4-1.25-5.9 8.9-.8-1.55-1.25-4.55-4.1 7.55-1.5 2.6-.3-.5-.2-.65-.7-2.6L47 79.15V81l-.3 1.75-2.25-2.4-5.3-5.45Q38 73.5 36.4 73.5l-.9.05"/><path fill="url(#k)" d="M9.75 5.45l3.75.9q1.4.45 2.4 1l1.1.75-4.75.7q-1.75.3-3.3 1.1-1.15.55-2.15 1.4l-2.55 1.9Q1.2 15.2.3 18.55q.4-3.9 2.85-6.9L7 7.55q1.25-1.2 2.75-2.1"/><path fill="url(#l)" d="M9.75 5.45q1.75-1.05 3.8-1.55l5.75-.7 13.1-.65-.7 1-.5 1.65q-1.1 4.75-.8 9.65.35 4.85 2.4 9.35l6.4 13.05q1.9 3.9 4.95 8.2l-.8-.35-1.65-.15-.85.35-5.35-10.15q-1.1-2.3-2.95-4.25-2.45-2.55-6.65-5.6l-3.1.45q-1.75.4-3.25 1.4l-.6.45-.25-.4q-1.35-1.9-5.4-.95l-2.1.65 1.85-2.45q2.15-2.7 4.6-4.95 3.4-3.1 6.15-6.7.85-1.1.45-2.7-.7-2.8-5.75-2.2l-1.5.2-1.1-.75q-1-.55-2.4-1l-3.75-.9"/><path fill="url(#m)" d="M11.2 26.9l2.1-.65q4.05-.95 5.4.95l.25.4-1.5 1.15Q12.15 33.3 9.4 40q-1.95 4.8-3.05 9.9l-2.1 10.05-1.5 6.95-.65 2.95-.5 3.1q-.4 3-.5 6l-.2-.05q-.8-3.4-.9-7.05Q-.5 55.2 4.75 39.6 6.6 34.1 9.6 29.25l1.6-2.35"/><path fill="url(#n)" d="M40.85 45.3l-1.95.8q-.6-1.75-1.8-2.65l-.2-.3q-.75-1.45-1.25-3.05l-.4-.85q-.75-1.35-2.35-1.8l-3.85-1.2q-1.6-.55-2.95-1.6l-2.5-2.2q-.95-1.05-1.25-2.3.3 1.5 1.25 3.4.9 1.65.85 3.55l-.3 2.3-.3 2q-.1 1.3.2 2.55.6 2.55 2.4 4.5l.1.05 1.8 1.6 1.7.95.75.4.35.45-.05.1q-.6 1.2-.95 2.5l-.4 1.45v.1l-.2 1.4-5.4 1.05q-4.45.7-8.65 3.5-3.7 2.45-8 4.05-3.55 1.3-5.4 3.8l.65-2.95 1.5-6.95 2.1-10.05q1.1-5.1 3.05-9.9 2.75-6.7 8.05-11.25l1.5-1.15.6-.45q1.5-1 3.25-1.4l3.1-.45q4.2 3.05 6.65 5.6 1.85 1.95 2.95 4.25l5.35 10.15"/><path fill="url(#o)" d="M32.45 89.45v-.6q-.05-1.1-.45-2.05-1.1-2.6-4.85-3.95-2.5-.9-1.5-3.25-.1-1.4-2.15-1.75l1.05-1.45q.3-.5.2-1-.55-2.7-.05-5.6l1.45 1.3q-.4-1.9.95-3.25.4.05.95.55l.65.4.65-1.85.5-.9.65.6q1.65 1.3 4.05 1.95l.45.15v.05l.7 3 .05.65-.2 1.05-.05.05q-.5.8-.7 1.75l-.3 1.25.75-.45.85-.3.05.85.5 2.55-1.4 5.1-.1.5.35-.4q1.5-1.5 3.15-2.55l.1.5.15 2.1q-.1 1.65-1.3 3.2-1.05.25-2.15 1.1-.7.6-.95 1.3v.1l-.8.35-.5.3.5-.3.8-.35.1-.05q1.45-.75 3.15-.45l.55.15q.65.35 1.05 1.15l.75.8.15.1.4.4.3.6-1.3 1.4q-1.05 1.25-2.55.85v.3q-.8.65-2.6.8l-2.55-.3.05-1.1-1.2.4-1.95-.15.35-1.2.25-1.45q.65.35 1.4 0 .45-.2 1-1.4l.35-.85.25-.55v-.15m-6.3-18.35l.4.45-.4-.45M32 94.75v.05l.1-.05H32l.15-.95-.15.95m5.05-.3l.05.55v.1-.1l-.05-.55"/><path fill="url(#p)" d="M34.5 90.05l.1.05h-.1v-.05"/><path fill="url(#q)" d="M67.15.75L78 3.65q4.05 1.15 8.05 2.75 4.4 1.7 8.3 4.1 2.15 1.35 4.1 3.4-1.75-1.6-6.15-2.55l-18.95-4.8q-3.4-.75-5.95.05l-.45-1.1q-.4-1.2-.35-2.7.05-1.2.5-2l.05-.05"/><path fill="none" stroke="#083400" stroke-width=".05" stroke-linecap="round" stroke-linejoin="round" d="M73.7 24.15q2.6.8 4.8 2.5l7 5.95q3.1 2.9 4.2 7l1.75 7.1q1.6 7.55 1.8 15.15.1 3.95.85 7.8l.55 2.55L96 78.95q.45 2.65.3 5.35l-.1 4.15q1.95-11.25 3.55-22.7.6-4.2 0-8.4L98.4 48.4l-1.95-10.25q-2-9-9.45-15.05-5-4.05-11.45-5.4l-1.3-.25m-.55 6.7l-.75-.25q-2.45-.7-4.35.7-1.8 1.3-2.7 4.2l-1.35 3.25-.9 2.05-1.6 4.2q-1.85 3.95-4.55 7.25l3.7-.4m16.2 4.9l-.1.05M67.4 6.6q-1.05.35-2 1-1.45.95-1.75 2.95-.2 1.1 1.05 2.5 1.5 1.7 3.5 2.55 2.85 1.25 6.05 1.85M66.95.75L56.25.3q1.05 2.35 1.5 4.8.35 2.2.25 4.45l-.4 9.25-.75 8.95-1.4 8.45q-.9 4.45-2.45 8.6l4.05-.25q-.25.6-.2 1.15l.65-.15M67.1.75h-.15M37.1 43.45l-.2-.3M26.55 48.5l1.8 1.6m2.45 1.35l.35.45m13.55 4.5l.05-.05M53 44.8l-.2.05q-2.1.4-4.05 1.25-.7-1.4-.7-2.95l-1.4 1.45q-.9 1.4-2.5.85-3.05-4.3-4.95-8.2L32.8 24.2q-2.05-4.5-2.4-9.35-.3-4.9.8-9.65l.5-1.65.7-1-13.1.65-5.75.7q-2.05.5-3.8 1.55M17 8.1l1.5-.2q5.05-.6 5.75 2.2.4 1.6-.45 2.7-2.75 3.6-6.15 6.7-2.45 2.25-4.6 4.95L11.2 26.9l-1.6 2.35q-3 4.85-4.85 10.35Q-.5 55.2 0 71.85q.1 3.65.9 7.05l.15.95.05-.9q.1-3 .5-6l.5-3.1.65-2.95 1.5-6.95 2.1-10.05q1.1-5.1 3.05-9.9 2.75-6.7 8.05-11.25l1.5-1.15.6-.45q1.5-1 3.25-1.4l3.1-.45q4.2 3.05 6.65 5.6 1.85 1.95 2.95 4.25l5.35 10.15m27.5 1.55q1.35-.85 2.8-1.55L73 44.15l2.65-2.6q-.05.85-.7 2.2l-2.7 4.65-1.35 1.5-1 .75q-1.1.65-2.4.6l-.8-.75q-.3-.35-.4-.9l-.2-1 2.25-1.75m3.1-5.35h-.1M28 41.45l.45.9.3 1.05q.25.95.9 1.6l2 2 1.3.9.85.5.45-.4h.05l.5-.2.35-.5q-.35-1.1-1.05-2.1l-1.5-1.8-2.35-1.9q-1.35-.95-2.95-1.35l.05.15.65 1.15m-1.55 7l.1.05M1.05 79.85q.2 1.5 0 3.1m31.15 7.2l.25-.7m8.5 3.4l.35 1.2-.05 1.2-.3.45-.4.4-1.6.6q-1.25.75-2.15 1.7l-.6-1.5-.2.2q-.9.75-1.55 1.85l-.2.6-.4-.2-1.35-1.65-.15-.25-.15.9-2.05-1.3q-.5-.4-1.05-.55-.6-.15-.4-.8l.15-.65m8.25.35l-.2.55-.7.95m-4.25-1l.15 1 .25.55m45.05-47.4l.15-.15m-9.85 10l-.05.1.2-.05m-2.9 10l.1-.15m7.5 23.7l.6 2.05q.2.75-.5.9l-.45.2-.9.5-2.55 1.5-.05-.45-.1-.6-1.95 2.2-.5.25-.25-.7q-.8-1.25-1.9-2.15l-.3-.25q-.55.85-.75 1.75l-2.65-1.95q-.75-.45-1.55-.55l-.5-.2-.5-.4-.35-.55-.1-.7m3.2-5.3l-.05-.15m-1.7-18.85h.2m-6.1 4.3h.05m10.8 22.6l-.8-1m6.15-1.4l.05.6-.2 1.8-.3.65"/><path fill="none" stroke="#4F5929" stroke-width=".05" stroke-linecap="round" stroke-linejoin="round" d="M71.35 58.4q2.75.2 5.4 1.2 4 1.5 7.8 3.55 3.7 2 7 4.65l2.55 1.85m-64.55-12.2l-5.4 1.05q-4.45.7-8.65 3.5-3.7 2.45-8 4.05-3.55 1.3-5.4 3.8"/><path fill="none" stroke="#A08C00" stroke-width=".05" stroke-linecap="round" stroke-linejoin="round" d="M67.15.75h-.05M17 8.1l-4.75.7q-1.75.3-3.3 1.1-1.15.55-2.15 1.4l-2.55 1.9Q1.2 15.2.3 18.55q.4-3.9 2.85-6.9L7 7.55q1.25-1.2 2.75-2.1"/><path fill="none" stroke="#958500" stroke-width=".05" stroke-linecap="round" stroke-linejoin="round" d="M67.15.75L78 3.65q4.05 1.15 8.05 2.75 4.4 1.7 8.3 4.1 2.15 1.35 4.1 3.4-1.75-1.6-6.15-2.55l-18.95-4.8q-3.4-.75-5.95.05"/><path fill="none" stroke="#453A00" stroke-width=".05" stroke-linecap="round" stroke-linejoin="round" d="M32.45 89.45v-.6q-.05-1.1-.45-2.05-1.1-2.6-4.85-3.95-2.5-.9-1.5-3.25-.1-1.4-2.15-1.75l1.05-1.45q.3-.5.2-1-.55-2.7-.05-5.6l1.45 1.3q-.4-1.9.95-3.25.4.05.95.55l.65.4.65-1.85.5-.9m-3.3 5.5l-.4-.45M35 68.75v.05l.7 3 .05.65-.2 1.05-.05.05m30-1.5l.2-2.5M34.6 90.1q1.45-.75 3.15-.45l.55.15q.65.35 1.05 1.15l.75.8.15.1.4.4.3.6m-12.1 2.2l.35-1.2.25-1.45q.65.35 1.4 0 .45-.2 1-1.4l.35-.85m.25-.7v.15l-.25.55M32 94.8v-.05l.15-.95m4.95 1.3v.15m-2.6-5.1l-.8.35-.5.3m1.3-.65l.1-.05M32 94.8l-.05 1.1m5.15-.8V95l-.05-.55m28.45-22.4l-.05.3m6.25-6.9q.6.25 1.2 1.05 1.7-.35 3.05-1.35l-.1 2.4.7-.3 3.05-.2-.35.65q-2.1 1.85-3.2 4.35l-.1.3q-.45 1.3.3 2.5 1.15 1.95 1.9 4.05l-2.95-2q.35.8.15 1.95Q75 80.8 73.3 81.8q-1.7 1-2.85 2.2-1.2 1.25-1.45 2.9-.2 1.4.15 2.7l.4 1.1q.1.7.85 1l.1.05 1.7-.05q0 .85.3 1.7l.05.1m-15.25.85l.05-.75q.2-1.15.75-2.1l.55-.45L59.8 90l.7-.95q.25-.25.6-.4l.7-.2q1.9-.35 3.65.4l.3.15 1.1.4.65.4m8.35-22.25l-1.2.8M62.6 94.8l.05-.7m.25 1.85l-.1-.1q-.25-.45-.2-1.05m6.2-1.35l.6.15m-.6-.15l.25 1.1"/><path fill="none" stroke="#93741F" stroke-width=".05" stroke-linecap="round" stroke-linejoin="round" d="M39.7 80.8l.1.55m2.25 5.45v.05l.05-.05m.95-2.65l.55.9 2.15 3.5 4.05 5.3 1.7-4.25q.75-2.2 2.75-3.45-.1 1.5.15 2.9m.2.1q.2-.45.6-.75l2.8-2.5"/><path fill="none" stroke="#3D3D00" stroke-width=".05" stroke-linecap="round" stroke-linejoin="round" d="M35.15 68.8q1.85 3.3 3 4.05m22.3-.45q1.95-.6 3.7-1.7l.8-.75m.65 8.45l.75-1.25.55-1.7.15-2.5-1.1.7-.7.9v-.75l.2-1.45m-29.95 1.2q-.5.8-.7 1.75l-.3 1.25.75-.45.85-.3.05.85.5 2.55"/><path fill="none" stroke="#6F0000" stroke-width=".05" stroke-linecap="round" stroke-linejoin="round" d="M35.95 64.2l2.3 1.65q1.35.9 3 1.15l3.1-.05.7-.15.8-.35.5-.6q.1-.4-.15-.7l-1.1-.7-11.75-3.55m34.3-.9l-.35.15-1.6.7-3.5 1.8q-1.8.9-3.85 1.15-1.75.2-3.25 1.05l.3.65q.25.65.85 1 2.8 1.3 5.75-.1l2.75-1.45h.05"/><path fill="none" stroke="#6C5F00" stroke-width=".05" stroke-linecap="round" stroke-linejoin="round" d="M38.15 72.85l1.45.85 2.55 1.15-.3-.6-.2-.65q-.15-.75.05-.65l1.35.8q1.05.45 2.05 1.05 2.15 1.3 4.35 1.1m3.45-1.55q1.7-.1 3.45-.95l1.55-.6 2.55-.4M41.7 69.35l4.4-.25m10 .65h.1l2.55.3"/><path fill="none" stroke="#400D70" stroke-width=".05" stroke-linecap="round" stroke-linejoin="round" d="M69.6 54.8q1.15 1.7 1.75 3.6l.2.75q.55 2.35-.3 4.55l-.3.6m-39.8-12.4q.8-1.7 1.9-3.2-.4 1.6-.2 3.2m5.1 1.8l.4-.9q.55-.9 1.6-2.05.65-.4 1.25-.35v1.35m3.55 4.6q.65-.75 1.65-1l.7-.15.95-.45-.35 2.45v.35q-.1 1.35.15 2.65.15.95 1 1.4h1.5l.9-.55 1.5-1.65.7-1.1.55-1.6.05-.9.2-2.15 1.15 1.55.9 1.9q.75-.75 1.05-1.7l.25-1.8-.1-1.6-.2-.6-.55-1.1-.95-1.6q.75.2 1.8 1.05l1.85 1.55m3.5 0l-.15-1.2-.6-1.9q-.2-.45-.05-.9.75 1.6 2.65 2.8 1.3.8 2.3 1.8l2.5 2.9m-31.65-1.1l-.15 1.05v.65h-.05l-1.2-.4-.9-.5-1-.2H33.4l-.55-2.4m-3.3 5.55l.2-1.4v-.1l.4-1.45q.35-1.3.95-2.5l.05-.1m4.8 12.3l-.7-.5q-1.6-1.25-2.4-3l.5.2-.85-1.15q-.65-.8-.8-1.8-.25-1.15 0-1.95.75 1.5 2.5 2.45.75.45.85-.25l.65-3.05.95 1.55 2.2 2.1q1.5 1.3 3.3 2.15.55.3 1 0 1.05-.7 1.35-1.8l.1-.8.05.8q.2 1.65.75 3.2.55 1.55 1.9 2.6 1 .8.25 1.2-.55.25-.8.75l-.5 1.5-.15.7 10 .65q-.4-1.45-1.6-2.5l-2.6-1.9 2.55-2.65.6-.85q1.1-1.75 2.35-3.25l.4-.45-.15 3.25q1.25-1.1 2.9-1.65 3.1-1.05 5.1-3.55l.95-1.45.45-.5q-.3 1.2-.35 2.45v1.15q.6-.2 1.05-.95l.5-.7v1.9q-.05.85-.45 1.55l-.1.25m.15.05l-.05.1-.7 1.9q-.6 1.95-2.3 3-1.15 2.35-2.6 3.45-1.55 1.15-3.25 1.65l-.2.1-1.3.4q-1.1.4-2 .95-.8.5-1.45 1.05l1.35-.4 5.6-1.2.15-.05 3.8-1.05.15-.05.65-.25q1.6-.65 3.05-1.5Q70.4 67 71.4 65.8l.3-.35.75-1.4.55-2.2.2-2.1q-.55.85-.95 1.75l-1 2.2m-41.4 2.35l-1.1-1.3-1.45-2.5q-.5-.95-.7-1.95.35.95 1.25 1.65l1.55.8.15-3v-2.3m.3 8.6l.65.6q1.65 1.3 4.05 1.95l.45.15.15.05 10.05 2.65-1-.75-2.5-1.35-3.15-2.1-.7-.6q-1.2-1.15-1.9-2.45m27-12.8l-.3 1.35q-.5 1.05-1.6.9-.25-1.15-1.1-1.9l-.5-.45m3.5 0v.1m-18.25 5l-.55.7q-.4.8-1.7-.15-.8-.65-1.1-1.5l-.15-1v-2.7m8.95 15.6V65.6q-.2-1.05-.95-1.2-.9-.15-1.1.45"/><path fill="none" stroke="#470145" stroke-width=".05" stroke-linecap="round" stroke-linejoin="round" d="M61.2 45.15q.8 0 .75.4.95-1.35 3.05-1.9l3.15-.85 3.2-1.3m5.95 8.6q-2.5 2.25-5.7 3.7l-1.65.6-.35.4m-25.45-9.35l-.8-.35-1.65-.15-.85.35-1.95.8q-.6-1.75-1.8-2.65m-.2-.3q-.75-1.45-1.25-3.05l-.4-.85m-6.9 10.85l1.7.95.75.4m41.25-10.3l-.6.35"/></svg>