<svg xmlns="http://www.w3.org/2000/svg" viewBox="0 0 100.0 99.6" width="100" height="99.6"><defs><radialGradient gradientUnits="userSpaceOnUse" r="819.2" cx="0" cy="0" spreadMethod="pad" gradientTransform="matrix(-.062 0 0 .062 44.65 47.75)" id="a"><stop offset="0" stop-color="#ccc"/><stop offset=".396" stop-color="#690"/><stop offset=".937" stop-color="#360"/></radialGradient><radialGradient gradientUnits="userSpaceOnUse" r="819.2" cx="0" cy="0" spreadMethod="pad" gradientTransform="matrix(-.011 0 0 .011 59.6 14.55)" id="b"><stop offset="0" stop-color="#ccc"/><stop offset=".396" stop-color="#690"/><stop offset=".937" stop-color="#360"/></radialGradient><radialGradient gradientUnits="userSpaceOnUse" r="819.2" cx="0" cy="0" spreadMethod="pad" gradientTransform="matrix(-.004 0 0 .004 45 10.7)" id="c"><stop offset="0" stop-color="#ccc"/><stop offset=".396" stop-color="#690"/><stop offset=".937" stop-color="#360"/></radialGradient><radialGradient gradientUnits="userSpaceOnUse" r="819.2" cx="0" cy="0" spreadMethod="pad" gradientTransform="matrix(-.016 0 0 .016 52.4 21.6)" id="d"><stop offset="0" stop-color="#ccc"/><stop offset=".396" stop-color="#690"/><stop offset=".937" stop-color="#360"/></radialGradient><radialGradient gradientUnits="userSpaceOnUse" r="819.2" cx="0" cy="0" spreadMethod="pad" gradientTransform="matrix(-.83 0 0 .83 107.95 -15.1)" id="e"><stop offset="0" stop-color="#ff9"/><stop offset=".427" stop-color="#FF3922"/><stop offset=".894" stop-color="#f00"/></radialGradient><radialGradient gradientUnits="userSpaceOnUse" r="819.2" cx="0" cy="0" spreadMethod="pad" gradientTransform="matrix(-.004 0 0 .004 50.2 27.3)" id="f"><stop offset="0" stop-color="#ff9"/><stop offset=".2" stop-color="#FF3922"/><stop offset=".553" stop-color="#f00"/><stop offset="1"/></radialGradient><radialGradient gradientUnits="userSpaceOnUse" r="819.2" cx="0" cy="0" spreadMethod="pad" gradientTransform="matrix(-.033 0 0 .033 47.8 39.45)" id="g"><stop offset="0"/><stop offset=".588" stop-color="#f00"/><stop offset="1"/></radialGradient><radialGradient gradientUnits="userSpaceOnUse" r="819.2" cx="0" cy="0" spreadMethod="pad" gradientTransform="matrix(-.024 0 0 .024 48.7 32.1)" id="h"><stop offset="0" stop-color="#ff9"/><stop offset=".427" stop-color="#fc0"/><stop offset=".894"/></radialGradient><radialGradient gradientUnits="userSpaceOnUse" r="819.2" cx="0" cy="0" spreadMethod="pad" gradientTransform="matrix(-.008 0 0 .008 60.15 44.25)" id="i"><stop offset="0" stop-color="#ccc"/><stop offset=".396" stop-color="#690"/><stop offset=".937" stop-color="#360"/></radialGradient><radialGradient gradientUnits="userSpaceOnUse" r="819.2" cx="0" cy="0" spreadMethod="pad" gradientTransform="matrix(-.037 0 0 .037 60.9 64.35)" id="j"><stop offset="0" stop-color="#ccc"/><stop offset=".396" stop-color="#690"/><stop offset=".937" stop-color="#360"/></radialGradient><radialGradient gradientUnits="userSpaceOnUse" r="819.2" cx="0" cy="0" spreadMethod="pad" gradientTransform="matrix(-.039 0 0 .039 26.2 59.75)" id="k"><stop offset="0" stop-color="#ccc"/><stop offset=".396" stop-color="#690"/><stop offset=".937" stop-color="#360"/></radialGradient><radialGradient gradientUnits="userSpaceOnUse" r="819.2" cx="0" cy="0" spreadMethod="pad" gradientTransform="matrix(-.013 0 0 .013 35.6 39.85)" id="l"><stop offset="0" stop-color="#ccc"/><stop offset=".396" stop-color="#690"/><stop offset=".937" stop-color="#360"/></radialGradient></defs><path d="M89.85 60.7l.9-.95.75-1.1v-.35q.2-.55 0-1.3l-.15-.75 3.3-.9q.2.7-.2 1.45-.35.95-1.3 1.65v.2q-1.45 1.3-3.3 2.05m8.5-18.3l-.55-.55-5.35-3.5-.75-.9 3.5-2.2q2.05-1.7 2.05-4.1 1.25 1.85 2.2 4.65l.35 1.1q.55 3.1-1.3 5.15l-.15.35m-3.5-17.7l-2.8-.55q-2.75 0-2.2-2.95l.2-2.95-.2-1.3.55-2.75q.55-5.15-1.85-9.2l4.25 3.5q2.6 2.55 3.15 6.45.55 2.4.35 4.95l-.35 2.4-1.1 2.4m-79.9 34.5h-.75q-3.3-.35-4.6-1.65l2.6-1.85q1.1 1.65 2.75 2.75l.2.2-.2.55m-3.5-5.7h-.2q-3.7 1.85-6.45-.2l-.55-.35Q1.5 50.55 0 47.05q3.15 1.65 6.1 1.25l.55.6L10.5 52q.75.55.95 1.5M2.2 34.1v-2.55q.75-4.6.95-9.25 0 2.25.7 4.25.6 2.05 1.85 3.7L2.2 34.1m7.95-21l.75-1.65q1.65-2.8 3.7-5.2l3.65-3.65 3.7-2.6q-2.2 3.3-3.7 7-1.1 2.6-1.3 5.35v.95l-2.75-1.15q-2.75-.9-3.85.95h-.2"/><path fill="#ff6" d="M71.6 30.25l5.15-.75 1.65-.55.75-.35h.2l.55-.2q4.25-2 7.2-5.9l2.4-4.25.35-1.3.2 1.3-.2 2.95q-.55 2.95 2.2 2.95l2.8.55-1.5 1.85Q90.4 29.9 86.7 32.1q-2.55 1.45-5.5 2l-2.25.2.4 1.3q.55 1.1 2.2 2.2l1.65.95 5.9-.2 2.6-1.1.75.9 5.35 3.5.55.55q-1.1 1.15-2.4 1.7l-1.1.35-4.25.9-5.35-.15h-.2q-3.3-.4-5.15-1.85l-.2-.2-.35 1.65q-.4 2.05-.2 4.25 0 2.4.75 4.05.9 1.3 2.2 2.05 1.65 1.1 3.9 1.3l5.35-.2.15.75q.2.75 0 1.3v.35l-.75 1.1-.9.95-2.2.9-5.35.95-3.9-.2-1.65-.55 1.65 2.75q.95 1.3 2.6 1.1-2.4 1.3-5.9 1.1l-1.65-.15-.55-.2-.4-.75.4-.15q2-1.15 3.3-3.15 1.5-2.05.75-4.6l-2.05-4.8.2-.55q.75-2.25-.4-4.25-1.1-2.2-3.1-3.35.55-1.1.7-2.4v-1.25q-.15-1.7-1.65-2.8l1.5-.7q1.3-.95.35-2.6l-2.2-1.1 1.3-3.7M12.2 55.7l.15-.35q1.5-1.85 2.05-4.05-1.3 1.45-2.95 2.2-.2-.95-.95-1.5l-3.85-3.1-.55-.6 1.85-.55q2.4-.9 4.6-2.95L14 43.15l.95-1.3q.55-1.65-2.05-1.45h-2.4L8.65 40q-2-.55-3.65-1.65l-.4-.15-1.85-2.25-.55-1.85 3.5-3.85q1.7 1.85 4.1 3.15l2.95 1.1q3.3.75 6.6 0l-3.5-2.4-1.65-1.85-1.3-2.05q-2.2-3.85-2.95-8.3l-.35-2.55q0-2.05.55-3.9l.2-.35q1.1-1.85 3.85-.95l2.75 1.15.2 3.3.4 2.05q.55 2.4 1.65 4.6l3.7 5.9 3.1 3.5-.15.35q-1.5 1.85-.55 5.2-4.25 1.45-5.2 5.15l-.15 1.3q-.2 2.55 0 5.15v1.1q-3 3.35-4.65 7.55l-.15.2-.2-.2q-1.65-1.1-2.75-2.75"/><path fill="#333" d="M78.05 85.95q5.7-1.1 8.5 3.15 1.1 1.85 1.25 3.85-2-2.4-7.15-3.5l-3.55-.55q.95-1.1.95-2.95M75.3 90q2.75 3.7.9 7-1.85-4.05-5.35-7h4.45m-10.55.2q.75 3.7 3.35 5.35-6.5-.55-7.95-5.35 1.45.2 2.75 0h1.85m-28.6-1.5l1.5 1.85q1.65 2.6.55 6.3-1.1-4.25-5.9-6.1l2.4-.95 1.45-1.1m-11.6 2.4q-1.85 2.95-4.25 5.75-1.3 1.85-2.75 2.75-.2-3.15.15-6.8v-1.3q.2-.75 0-1.5v-.2l.4.2 2.95.75 3.5.35M13.1 86.5q-2.2 1.1-3.7 3.5-1.3-1.45.4-5.35.55-1.3 2.55-2.2l-.15 1.45q0 1.5.9 2.6"/><path fill="url(#a)" d="M71.6 30.25l-1.3 3.7 2.2 1.1q.95 1.65-.35 2.6l-1.5.7-1.3.75.2.2q.55.15.4.7l-1.15 2.8q-1.65 2.4.75 3.5l2.4 1.45q.75.4.75.95l-.2.35-2.75 3.35-1.3 1.45q-.55.55-.35 1.3l.15.55q.95 1.3 1.85-.2 0 1.3-.55 2.4l-2.4 3.35Q66.05 62.9 64 63.8l-3.5 1.3-2.4.4-5.7.15q2.4 2.95 7 2.8l6.1-.75q2.2-.4 3.3 1.45.75.95.4 2.25-.2.7-.95 1.1l-2 1.45q-2.8 1.85-5.9 2.95-1.7.75-3.7.4-4.05-.4-7.55-2.05l.9 2.2q1.5 2.05 4.05 2.8l4.6.55 9.25-.95q2.95 0 1.65 2.8-.9 2.2-3.5 2.75l-4.8.35-4.8-.7q-2.2-.75-4.05-2.05-1.85-1.65-3.7-2.75-2.2-1.3-3.85 1.25-.75 1.3-1.1 2.6l-2.05.2-2.95-.75q-.95.95-1.1 2.4-.2 1.3-.95 2.2l-.55.55-1.45 1.1-2.4.95-1.65.2-6.1.15-3.5-.35L18.1 90l-.4-.2-1.45-.7v-.2q-.2-2.05 1.1-3.3l4.4-3.7q1.15-.95.2-1.65-1.3-1.1-1.85-2.6l-.55-1.1q2.2 1.65 4.8 2l1.85.4q3.3 0 6.45-1.5l-2 .2q-2.05-.2-3.7-1.45l-4.05-3.7q-1.5-1.65-2.6-3.5-.75-1.3-.75-2.8l.4-1.85q.35-1.45 1.1-2.75l1.25 1.5.75.7.75.4 3.15 1.1q6.65 1.45 13.45-.95h-4.8q-5.35-.15-8.3-3.3-1.3-1.3-2.2-3.3l-.95-2.6-.15-1.3v-2q-.2-3.7.7-7.2l.4-1.5L26.2 45q1.5 1.85 4.05 2.05l-.75-1.3-2-6.85q-.4-2.4.55-4.4l.9-1.5q1.7-1.85-.15-2.75h-.2q.2-.75-.2-.9-1.45-.95-1.85-2.4-.35-1.15-.15-1.7.35-.7 1.3-.9l2.95-.2q.35-.9.35-2.4-.2-1.85.2-3.5v-.55q.35-1.65 1.1-3.3l1.1-1.85 2.6-3.5 3.1-2.8q3.9-2.95 8.85-1.1Q52.2 6.8 57.2 7q4.8.4 9.05 2.6l2.75 2 .75.75q1.1 1.1 1.85 2.75l.35.75v.2l.2.75q1.1 2.95.9 6.25L72.7 26l-1.1 4.25m-5-12.35q.35.35.35.75v-.55l-.35-1.85-1.1-1.7q-.9-.9-2.05-1.45-.9-.55-2-.95L55.7 10.7l-3.3-.2v.2q.2 1.3 1.65 1.85l3.5.75q2.25.55 4.25 1.45l4.8 2.95v.2M45.4 9.4l-2.05.55q-1.65.55-.75 1.3l1.15.75h2.55q1.5-.55 1.5-1.65l-.4-.55h-.15q-.75-.6-1.85-.4m16.95 17l2.05.7-1.65-2.4-2.4-2.4-3.7-2.55q-2.4-1.85-5.35-3.15l-5.55-.2q-1.65.55-3.15 1.7l-2 1.1 2.55-.4h.2l4.05.4 2.6.9 5 2.75 2 1.5 5.35 2.05m-15.1.7l1.1.55q.55.55 1.3.75l1.65.35.35.2h.2l4.6-.2-3.3-1.45-5.35-1.85-4.8-.2.35.2q1.85.35 3.9 1.65M29.7 25.65h-.75l2.6 3.7.2.55v.15q.15 1.3.9 2.25.2.55 0 .9l-.75 1.85v.75q1.85 1.65 1.7 4.05l-.55 4.95v1.7q.35 1.25 1.25 2.2 1.3 1.1 2.8 1.3 1.1 0 .55-1.5l-1.85-3.7q-.4-.9.35-1.45 1.65-.95 2.4 1.3L39.5 43l1.45.55 1.1.35v.2q-.15 2-1.1 3.65l-.2.2q-1.1 2.05-.7 4.6l.55 2.4L41.7 57q1.3 1.85 3.3 2.95l.95.55 3.7.55 9.2-.75q2.4-.55 4.05-1.85 1.7-1.1 1.85-2.95v-1.1q-.15-1.45-.75-2.55l-1.45-1.7-1.1-.7q-1.3-.55-3.15-.4l-4.45.95-3.5-.2q-.9-.35-1.25-.9-.4-1.15 1.25-2.4 1.3-1.15 1.85-2.6h.2l1.85-.2.55 1.65q.2 2.95 3.15 3.15l-.2-4.05q0-.55.55-.55h1.65q2.4.2 4.65-1.1 1.45-.75 1.25-1.65 0-.55-.55-1.15l4.45-2.35.55-.6-.2-.15-2.4-1.1-1.3-.55-16.75-5.2-2.4-.15h1.45-1.45l-1.7-.55-2.95-1.15-10.7-2.4-2.2-.15m19 4.25l.95.15-.95-.15m19.4 9.75l1.25-.55-1.25.55m1.25-6.1l.95.4-.95-.4m-36.9-9.4h-1.8 1.8m4.45 58.5l1.85.9-1.85-.9"/><path fill="url(#b)" d="M66.6 17.9v-.2l-4.8-2.95q-2-.9-4.25-1.45l-3.5-.75Q52.6 12 52.4 10.7v-.2l3.3.2 5.75 1.45q1.1.4 2 .95 1.15.55 2.05 1.45l1.1 1.7.35 1.85v.55q0-.4-.35-.75"/><path fill="url(#c)" d="M45.4 9.4q1.1-.2 1.85.4h.15l.4.55q0 1.1-1.5 1.65h-2.55l-1.15-.75q-.9-.75.75-1.3l2.05-.55"/><path fill="url(#d)" d="M43.15 18.8l-2.55.4 2-1.1q1.5-1.15 3.15-1.7l5.55.2q2.95 1.3 5.35 3.15l3.7 2.55 2.4 2.4 1.65 2.4-2.05-.7q-1.1-.95-2.4-1.5-2.75-1.5-5.35-3.85-3.1-3.15-8.3-2.6l-2.95.35 2.95-.35q5.2-.55 8.3 2.6 2.6 2.35 5.35 3.85 1.3.55 2.4 1.5L57 24.35l-2-1.5-5-2.75-2.6-.9-4.05-.4h-.2"/><path fill="url(#e)" d="M47.25 27.1q-2.05-1.3-3.9-1.65l-.35-.2 4.8.2-.2.2-.35 1.45m5.9.2l3.3 1.45-4.6.2.55-.35.35-.4.4-.9"/><path fill="url(#f)" d="M53.15 27.3l-.4.9-.35.4-.55.35h-.2l-.35-.2-1.65-.35q-.75-.2-1.3-.75l-1.1-.55.35-1.45.2-.2 5.35 1.85"/><path fill="url(#g)" d="M29.7 25.65l.35.75q.75 1.1 2.05 1.65h.55q0 .7.4.9l1.45 1.1h.2q1.3.75 2.95 1.1v-1.1l.15 2.25 4.8 2.4q.75-.95.95-1.85l.2.55.9 1.1 2.75.9q2.95 1.1 3.15-1.3v1.15q2.2 1.25 4.8 1.8 2.05.4 3.3-2.2 0 .55-.35.95-1.1 1.1-.2 1.1 2.4.35 4.45 1.3l1.65.15q2.2-.55 3.35-2.4l.15-.15 2.4 1.1.2.15-.55.6L65.3 40l-6.65 2.6q-2 .95-4.4 1.1l-1.85.2h-.2q-.55 1.45-1.85 2.6-1.65 1.25-1.25 2.4.35.55 1.25.9l3.5.2 4.45-.95q1.85-.15 3.15.4l1.1.7 1.45 1.7q.6 1.1.75 2.55v1.1q-.15 1.85-1.85 2.95-1.65 1.3-4.05 1.85l-9.2.75-3.7-.55-.95-.55q-2-1.1-3.3-2.95l-1.1-2.05-.55-2.4q-.4-2.55.7-4.6l.2-.2q.95-1.65 1.1-3.65v-.2l-1.1-.35L39.5 43q-1.5-.95-2.25-2.6l-4.4-9.25-1.1-1.25-.2-.55-2.6-3.7h.75m9.4 11.6q-.35.55 0 1.3.75 2.05 2.25 3.5.9.75.7 1.85.2-1.1-.7-1.85-1.5-1.45-2.25-3.5-.35-.75 0-1.3m12 2.95q2.2 1.1 1.3 3.7.9-2.6-1.3-3.7"/><path fill="url(#h)" d="M67.7 35.8l-.15.15q-1.15 1.85-3.35 2.4l-1.65-.15q-2.05-.95-4.45-1.3-.9 0 .2-1.1.35-.4.35-.95-1.25 2.6-3.3 2.2-2.6-.55-4.8-1.8V34.1q-.2 2.4-3.15 1.3l-2.75-.9-.9-1.1-.2-.55q-.2.9-.95 1.85l-4.8-2.4-.15-2.25v1.1q-1.65-.35-2.95-1.1h-.2l-1.45-1.1q-.4-.2-.4-.9h-.55q-1.3-.55-2.05-1.65l-.35-.75 2.2.15 10.7 2.4 2.95 1.15 1.7.55 2.4.15 16.75 5.2 1.3.55m-17.15-2.6v.9-.9m-6.8-1.5l-.2 1.15.2-1.15"/><path fill="url(#i)" d="M54.25 43.7q2.4-.15 4.4-1.1L65.3 40q.55.6.55 1.15.2.9-1.25 1.65-2.25 1.3-4.65 1.1H58.3q-.55 0-.55.55l.2 4.05q-2.95-.2-3.15-3.15l-.55-1.65"/><path fill="url(#j)" d="M70.65 38.35q1.5 1.1 1.65 2.8v1.25q-.15 1.3-.7 2.4 2 1.15 3.1 3.35 1.15 2 .4 4.25l-.2.55 2.05 4.8q.75 2.55-.75 4.6-1.3 2-3.3 3.15l-.4.15.4.75.15.55q.4 1.5.2 3.15l-1.65 3.5-.75.75-2.2 1.85 3.65 1.65q5 1.65 5.75 6.45v1.65q0 1.85-.95 2.95-.55.75-1.8 1.1h-4.45l-6.1.2H62.9q-1.3.2-2.75 0-3.3-.55-5.9-2.6-3.35-2.95-7.2-4.4l-3.3.9q.35-1.3 1.1-2.6 1.65-2.55 3.85-1.25 1.85 1.1 3.7 2.75 1.85 1.3 4.05 2.05l4.8.7 4.8-.35q2.6-.55 3.5-2.75 1.3-2.8-1.65-2.8l-9.25.95-4.6-.55q-2.55-.75-4.05-2.8l-.9-2.2q3.5 1.65 7.55 2.05 2 .35 3.7-.4 3.1-1.1 5.9-2.95l2-1.45q.75-.4.95-1.1.35-1.3-.4-2.25-1.1-1.85-3.3-1.45l-6.1.75q-4.6.15-7-2.8l5.7-.15 2.4-.4 3.5-1.3q2.05-.9 3.15-2.55l2.4-3.35q.55-1.1.55-2.4-.9 1.5-1.85.2l-.15-.55q-.2-.75.35-1.3l1.3-1.45 2.75-3.35.2-.35q0-.55-.75-.95l-2.4-1.45q-2.4-1.1-.75-3.5l1.15-2.8q.15-.55-.4-.7l-.2-.2 1.3-.75m.55 7.6l.4-1.15-.4 1.15m2.95 8.3l.75-1.3-.75 1.3m-9.2 23.6q1.1-.2 2-.75l1.7-.9-1.7.9q-.9.55-2 .75m5.9-11.45l1.65-.75-1.65.75"/><path fill="url(#k)" d="M16.25 89.1Q14.6 88 13.3 86.5h-.2q-.9-1.1-.9-2.6l.15-1.45q.55-2.6 3.9-5.55-1.1-1.65-1.65-3.7-1.3-4.75 1.65-8.1-1.1-1.45-1.5-2.75-.35-1.65.2-3.15l.2-.55.15-.2q1.65-4.2 4.65-7.55v-1.1q-.2-2.6 0-5.15l.15-1.3q.95-3.7 5.2-5.15-.95-3.35.55-5.2l.15-.35q.95-1.1 2.6-1.85v-.55h.2q1.85.9.15 2.75l-.9 1.5q-.95 2-.55 4.4l2 6.85.75 1.3q-2.55-.2-4.05-2.05l-1.1-1.85-.4 1.5q-.9 3.5-.7 7.2v2l.15 1.3.95 2.6q.9 2 2.2 3.3 2.95 3.15 8.3 3.3h4.8q-6.8 2.4-13.45.95l-3.15-1.1-.75-.4-.75-.7-1.25-1.5q-.75 1.3-1.1 2.75l-.4 1.85q0 1.5.75 2.8 1.1 1.85 2.6 3.5l4.05 3.7q1.65 1.25 3.7 1.45l2-.2q-3.15 1.5-6.45 1.5l-1.85-.4q-2.6-.35-4.8-2l.55 1.1q.55 1.5 1.85 2.6.95.7-.2 1.65l-4.4 3.7q-1.3 1.25-1.1 3.3v.2m6.45-31.35q-1.5-1.3-2.05-3.5l-.7-3.35.7 3.35q.55 2.2 2.05 3.5m3.5-16.45l-.9-3.1.9 3.1m-7.4 38.2l-2.4-2.2-.15-.4.15.4 2.4 2.2m-.15-9.4q-.4-2.8-2.4-5 2 2.2 2.4 5"/><path fill="url(#l)" d="M31.75 29.9l1.1 1.25 4.4 9.25Q38 42.05 39.5 43l-.95 1.65q-.75-2.25-2.4-1.3-.75.55-.35 1.45l1.85 3.7q.55 1.5-.55 1.5-1.5-.2-2.8-1.3-.9-.95-1.25-2.2v-1.7l.55-4.95q.15-2.4-1.7-4.05v-.75l.75-1.85q.2-.35 0-.9-.75-.95-.9-2.25v-.15"/><path fill="none" stroke="#3C6F00" stroke-width=".05" stroke-linecap="round" stroke-miterlimit="3" d="M71.6 30.25l-1.3 3.7 2.2 1.1q.95 1.65-.35 2.6l-1.5.7q1.5 1.1 1.65 2.8v1.25q-.15 1.3-.7 2.4 2 1.15 3.1 3.35 1.15 2 .4 4.25l-.2.55 2.05 4.8q.75 2.55-.75 4.6-1.3 2-3.3 3.15l-.4.15.4.75.15.55q.4 1.5.2 3.15l-1.65 3.5-.75.75-2.2 1.85 3.65 1.65q5 1.65 5.75 6.45v1.65m-.95 2.95q-.55.75-1.8 1.1m-4.45 0l-6.1.2m-4.6 0q-3.3-.55-5.9-2.6-3.35-2.95-7.2-4.4l-3.3.9-2.05.2-2.95-.75q-.95.95-1.1 2.4-.2 1.3-.95 2.2l-.55.55m-3.85 2.05l-1.65.2-6.1.15m-6.85-1.3l-1.45-.7Q14.6 88 13.3 86.5h-.2m-.75-4.05q.55-2.6 3.9-5.55-1.1-1.65-1.65-3.7-1.3-4.75 1.65-8.1-1.1-1.45-1.5-2.75-.35-1.65.2-3.15M26 32.65q.95-1.1 2.6-1.85v-.55q.2-.75-.2-.9-1.45-.95-1.85-2.4-.35-1.15-.15-1.7.35-.7 1.3-.9l2.95-.2q.35-.9.35-2.4-.2-1.85.2-3.5v-.55q.35-1.65 1.1-3.3l1.1-1.85 2.6-3.5 3.1-2.8q3.9-2.95 8.85-1.1Q52.2 6.8 57.2 7q4.8.4 9.05 2.6l2.75 2 .75.75q1.1 1.1 1.85 2.75l.35.75v.2l.2.75q1.1 2.95.9 6.25L72.7 26l-1.1 4.25M43.15 18.8h.2l2.95-.35q5.2-.55 8.3 2.6 2.6 2.35 5.35 3.85 1.3.55 2.4 1.5m-10.7 2.55l-.35-.2-1.65-.35q-.75-.2-1.3-.75l-1.1-.55q-2.05-1.3-3.9-1.65l-.35-.2 4.8.2 5.35 1.85 3.3 1.45-4.6.2m-2.2 1.1l-.95-.15m21.6 4.05l-.95-.4m0 5.55l-1.25.55m1.25-.55l1.3-.75m.95 6.45l-.4 1.15m-40.55-21.8h1.8M25.3 38.2q-4.25 1.45-5.2 5.15l-.15 1.3q-.2 2.55 0 5.15v1.1l.7 3.35q.55 2.2 2.05 3.5m3.3-25.1l-.15.35q-1.5 1.85-.55 5.2l.9 3.1m-6.25 9.6q-3 3.35-4.65 7.55m.95 6.65q2 2.2 2.4 5m-2.4 6.8l.15.4 2.4 2.2m19.95 4.05l-1.85-.9m38-29.7l-.75 1.3m-1.65 11.4l-1.65.75m-2.2 9.8l-1.7.9q-.9.55-2 .75M15.3 58.45l-.15.2"/><path fill="none" stroke="#700" stroke-width=".05" stroke-linecap="round" stroke-miterlimit="3" d="M28.95 25.65l2.6 3.7.2.55 1.1 1.25 4.4 9.25Q38 42.05 39.5 43l1.45.55 1.1.35q.2-1.1-.7-1.85-1.5-1.45-2.25-3.5-.35-.75 0-1.3m2.95 6.65v.2q-.15 2-1.1 3.65l-.2.2q-1.1 2.05-.7 4.6l.55 2.4L41.7 57q1.3 1.85 3.3 2.95l.95.55 3.7.55 9.2-.75q2.4-.55 4.05-1.85 1.7-1.1 1.85-2.95v-1.1q-.15-1.45-.75-2.55l-1.45-1.7-1.1-.7q-1.3-.55-3.15-.4l-4.45.95-3.5-.2q-.9-.35-1.25-.9-.4-1.15 1.25-2.4 1.3-1.15 1.85-2.6h.2q.9-2.6-1.3-3.7m1.3 3.7l1.85-.2q2.4-.15 4.4-1.1L65.3 40l4.45-2.35.55-.6"/><path fill="none" stroke="#735C00" stroke-width=".05" stroke-linecap="round" stroke-miterlimit="3" d="M67.7 35.8l-.15.15q-1.15 1.85-3.35 2.4l-1.65-.15q-2.05-.95-4.45-1.3-.9 0 .2-1.1.35-.4.35-.95-1.25 2.6-3.3 2.2-2.6-.55-4.8-1.8V34.1q-.2 2.4-3.15 1.3l-2.75-.9-.9-1.1-.2-.55q-.2.9-.95 1.85l-4.8-2.4-.15-2.25v1.1q-1.65-.35-2.95-1.1h-.2l-1.45-1.1q-.4-.2-.4-.9h-.55q-1.3-.55-2.05-1.65l-.35-.75m13.85 7.2l.2-1.15m6.8 2.4v-.9"/><path fill="none" stroke="#3A6D00" stroke-width=".05" stroke-linecap="round" stroke-miterlimit="3" d="M29.7 25.65h-.75M48.7 29.9h-1.45l2.4.15m-19.95-4.4l2.2.15 10.7 2.4 2.95 1.15 1.7.55m23.05 7.15l-.2-.15-2.4-1.1-1.3-.55-16.75-5.2"/><path fill="none" stroke="#DFDF00" stroke-width=".05" stroke-linecap="round" stroke-miterlimit="3" d="M89.85 16.95l-.35 1.3-2.4 4.25q-2.95 3.9-7.2 5.9l-.55.2h-.2l-.75.35-1.65.55-5.15.75m1.3 36.15l.55.2 1.65.15q3.5.2 5.9-1.1-1.65.2-2.6-1.1l-1.65-2.75 1.65.55 3.9.2 5.35-.95 2.2-.9m1.5-4.45l-5.35.2q-2.25-.2-3.9-1.3-1.3-.75-2.2-2.05-.75-1.65-.75-4.05-.2-2.2.2-4.25l.35-1.65.2.2q1.85 1.45 5.15 1.85h.2l5.35.15 4.25-.9 1.1-.35q1.3-.55 2.4-1.7m-6.65-4.95l-2.6 1.1-5.9.2-1.65-.95q-1.65-1.1-2.2-2.2l-.4-1.3 2.25-.2q2.95-.55 5.5-2 3.7-2.2 6.65-5.55l1.5-1.85m-82.65 31l.15-.35q1.5-1.85 2.05-4.05-1.3 1.45-2.95 2.2M6.1 48.3l1.85-.55q2.4-.9 4.6-2.95L14 43.15l.95-1.3q.55-1.65-2.05-1.45h-2.4L8.65 40q-2-.55-3.65-1.65l-.4-.15-1.85-2.25-.55-1.85m3.5-3.85q1.7 1.85 4.1 3.15l2.95 1.1q3.3.75 6.6 0l-3.5-2.4-1.65-1.85-1.3-2.05q-2.2-3.85-2.95-8.3l-.35-2.55q0-2.05.55-3.9v-.35m6.8.2l.2 3.3.4 2.05q.55 2.4 1.65 4.6l3.7 5.9 3.1 3.5"/><path fill="none" stroke="#202020" stroke-width=".05" stroke-linecap="round" stroke-miterlimit="3" d="M78.05 85.95q5.7-1.1 8.5 3.15 1.1 1.85 1.25 3.85-2-2.4-7.15-3.5l-3.55-.55M75.3 90q2.75 3.7.9 7-1.85-4.05-5.35-7m-6.1.2q.75 3.7 3.35 5.35-6.5-.55-7.95-5.35 1.45.2 2.75 0h1.85m-28.6-1.5l1.5 1.85q1.65 2.6.55 6.3-1.1-4.25-5.9-6.1m-7.75.35q-1.85 2.95-4.25 5.75-1.3 1.85-2.75 2.75-.2-3.15.15-6.8v-1.3q.2-.75 0-1.5v-.2m-4.6-3.3q-2.2 1.1-3.7 3.5-1.3-1.45.4-5.35.55-1.3 2.55-2.2m.75 4.05q-.9-1.1-.9-2.6l.15-1.45m12.2 8.65l-3.5-.35L18.1 90l-.4-.2m18.45-1.1l-1.45 1.1-2.4.95m45.75-4.8q0 1.85-.95 2.95M75.3 90h-4.45"/></svg>