<svg xmlns="http://www.w3.org/2000/svg" viewBox="0 -0.1 100.0 104.2" width="100" height="104.2"><defs><radialGradient gradientUnits="userSpaceOnUse" r="819.2" cx="0" cy="0" spreadMethod="pad" gradientTransform="matrix(-.003 0 0 .006 30.25 12)" id="a"><stop offset="0" stop-color="#fff"/><stop offset=".384" stop-color="#e00"/><stop offset=".49" stop-color="#f00"/><stop offset="1"/></radialGradient><radialGradient gradientUnits="userSpaceOnUse" r="819.2" cx="0" cy="0" spreadMethod="pad" gradientTransform="matrix(-.04 0 0 .04 52.4 27.95)" id="b"><stop offset="0" stop-color="#f00"/><stop offset=".063" stop-color="#309"/><stop offset=".176" stop-color="#390"/><stop offset=".271" stop-color="#330"/><stop offset=".396" stop-color="#006"/><stop offset=".49" stop-color="#f00"/><stop offset=".659" stop-color="#334500"/><stop offset=".8" stop-color="#003"/></radialGradient><radialGradient gradientUnits="userSpaceOnUse" r="819.2" cx="0" cy="0" spreadMethod="pad" gradientTransform="matrix(-.005 0 0 .006 14.95 25.95)" id="c"><stop offset="0" stop-color="#fff"/><stop offset=".384" stop-color="#e00"/><stop offset=".49" stop-color="#f00"/><stop offset="1"/></radialGradient><radialGradient gradientUnits="userSpaceOnUse" r="819.2" cx="0" cy="0" spreadMethod="pad" gradientTransform="matrix(-.005 0 0 .006 45.65 26.55)" id="d"><stop offset="0" stop-color="#fff"/><stop offset=".384" stop-color="#e00"/><stop offset=".49" stop-color="#f00"/><stop offset="1"/></radialGradient><radialGradient gradientUnits="userSpaceOnUse" r="819.2" cx="0" cy="0" spreadMethod="pad" gradientTransform="matrix(-.006 0 0 .004 30.65 34.75)" id="e"><stop offset="0" stop-color="#fff"/><stop offset=".384" stop-color="#e00"/><stop offset=".49" stop-color="#f00"/><stop offset="1"/></radialGradient><radialGradient gradientUnits="userSpaceOnUse" r="819.2" cx="0" cy="0" spreadMethod="pad" gradientTransform="matrix(-.004 0 0 .006 45.15 48.65)" id="f"><stop offset="0" stop-color="#fff"/><stop offset=".384" stop-color="#e00"/><stop offset=".49" stop-color="#f00"/><stop offset="1"/></radialGradient><radialGradient gradientUnits="userSpaceOnUse" r="819.2" cx="0" cy="0" spreadMethod="pad" gradientTransform="matrix(-.057 0 0 .057 45.6 75.1)" id="g"><stop offset="0" stop-color="#f00"/><stop offset=".063" stop-color="#309"/><stop offset=".176" stop-color="#390"/><stop offset=".271" stop-color="#330"/><stop offset=".396" stop-color="#006"/><stop offset=".49" stop-color="#f00"/><stop offset=".659" stop-color="#334500"/><stop offset=".8" stop-color="#003"/></radialGradient><radialGradient gradientUnits="userSpaceOnUse" r="819.2" cx="0" cy="0" spreadMethod="pad" gradientTransform="matrix(-.003 0 0 .003 4.25 55.45)" id="h"><stop offset="0" stop-color="#690"/><stop offset=".149" stop-color="#630"/><stop offset=".318" stop-color="#33c"/><stop offset=".588" stop-color="#396"/><stop offset="1" stop-color="#330"/></radialGradient><radialGradient gradientUnits="userSpaceOnUse" r="819.2" cx="0" cy="0" spreadMethod="pad" gradientTransform="matrix(-.003 0 0 .003 3.25 58.7)" id="i"><stop offset="0" stop-color="#690"/><stop offset=".149" stop-color="#630"/><stop offset=".318" stop-color="#33c"/><stop offset=".588" stop-color="#396"/><stop offset="1" stop-color="#330"/></radialGradient><radialGradient gradientUnits="userSpaceOnUse" r="819.2" cx="0" cy="0" spreadMethod="pad" gradientTransform="matrix(-.003 0 0 .003 2.15 63.55)" id="j"><stop offset="0" stop-color="#690"/><stop offset=".149" stop-color="#630"/><stop offset=".318" stop-color="#33c"/><stop offset=".588" stop-color="#396"/><stop offset="1" stop-color="#330"/></radialGradient><radialGradient gradientUnits="userSpaceOnUse" r="819.2" cx="0" cy="0" spreadMethod="pad" gradientTransform="matrix(-.003 0 0 .003 5.7 62.1)" id="k"><stop offset="0" stop-color="#690"/><stop offset=".149" stop-color="#630"/><stop offset=".318" stop-color="#33c"/><stop offset=".588" stop-color="#396"/><stop offset="1" stop-color="#330"/></radialGradient><radialGradient gradientUnits="userSpaceOnUse" r="819.2" cx="0" cy="0" spreadMethod="pad" gradientTransform="matrix(-.004 0 0 .004 3.4 67.8)" id="l"><stop offset="0" stop-color="#690"/><stop offset=".149" stop-color="#630"/><stop offset=".318" stop-color="#33c"/><stop offset=".588" stop-color="#396"/><stop offset="1" stop-color="#330"/></radialGradient><radialGradient gradientUnits="userSpaceOnUse" r="819.2" cx="0" cy="0" spreadMethod="pad" gradientTransform="matrix(-.002 0 0 .002 6.5 70.9)" id="m"><stop offset="0" stop-color="#690"/><stop offset=".149" stop-color="#630"/><stop offset=".318" stop-color="#33c"/><stop offset=".588" stop-color="#396"/><stop offset="1" stop-color="#330"/></radialGradient><radialGradient gradientUnits="userSpaceOnUse" r="819.2" cx="0" cy="0" spreadMethod="pad" gradientTransform="matrix(-.002 0 0 .002 9.15 58.55)" id="n"><stop offset="0" stop-color="#690"/><stop offset=".149" stop-color="#630"/><stop offset=".318" stop-color="#33c"/><stop offset=".588" stop-color="#396"/><stop offset="1" stop-color="#330"/></radialGradient><radialGradient gradientUnits="userSpaceOnUse" r="819.2" cx="0" cy="0" spreadMethod="pad" gradientTransform="matrix(-.003 0 0 .003 10.6 64.2)" id="o"><stop offset="0" stop-color="#690"/><stop offset=".149" stop-color="#630"/><stop offset=".318" stop-color="#33c"/><stop offset=".588" stop-color="#396"/><stop offset="1" stop-color="#330"/></radialGradient><radialGradient gradientUnits="userSpaceOnUse" r="819.2" cx="0" cy="0" spreadMethod="pad" gradientTransform="matrix(-.003 0 0 .003 9.95 68.95)" id="p"><stop offset="0" stop-color="#690"/><stop offset=".149" stop-color="#630"/><stop offset=".318" stop-color="#33c"/><stop offset=".588" stop-color="#396"/><stop offset="1" stop-color="#330"/></radialGradient><radialGradient gradientUnits="userSpaceOnUse" r="819.2" cx="0" cy="0" spreadMethod="pad" gradientTransform="matrix(-.003 0 0 .003 31.75 102)" id="q"><stop offset="0" stop-color="#690"/><stop offset=".149" stop-color="#630"/><stop offset=".318" stop-color="#33c"/><stop offset=".588" stop-color="#396"/><stop offset="1" stop-color="#330"/></radialGradient><radialGradient gradientUnits="userSpaceOnUse" r="819.2" cx="0" cy="0" spreadMethod="pad" gradientTransform="matrix(-.002 0 0 .002 27.7 102.5)" id="r"><stop offset="0" stop-color="#690"/><stop offset=".149" stop-color="#630"/><stop offset=".318" stop-color="#33c"/><stop offset=".588" stop-color="#396"/><stop offset="1" stop-color="#330"/></radialGradient><radialGradient gradientUnits="userSpaceOnUse" r="819.2" cx="0" cy="0" spreadMethod="pad" gradientTransform="matrix(-.003 0 0 .003 22 102.65)" id="s"><stop offset="0" stop-color="#690"/><stop offset=".149" stop-color="#630"/><stop offset=".318" stop-color="#33c"/><stop offset=".588" stop-color="#396"/><stop offset="1" stop-color="#330"/></radialGradient><radialGradient gradientUnits="userSpaceOnUse" r="819.2" cx="0" cy="0" spreadMethod="pad" gradientTransform="matrix(-.002 0 0 .002 14.5 101)" id="t"><stop offset="0" stop-color="#690"/><stop offset=".149" stop-color="#630"/><stop offset=".318" stop-color="#33c"/><stop offset=".588" stop-color="#396"/><stop offset="1" stop-color="#330"/></radialGradient><radialGradient gradientUnits="userSpaceOnUse" r="819.2" cx="0" cy="0" spreadMethod="pad" gradientTransform="matrix(-.005 0 0 .007 56.75 6.65)" id="u"><stop offset="0" stop-color="#fff"/><stop offset=".384" stop-color="#e00"/><stop offset=".49" stop-color="#f00"/><stop offset="1"/></radialGradient><radialGradient gradientUnits="userSpaceOnUse" r="819.2" cx="0" cy="0" spreadMethod="pad" gradientTransform="matrix(-.004 0 0 .006 64.25 25.85)" id="v"><stop offset="0" stop-color="#fff"/><stop offset=".384" stop-color="#e00"/><stop offset=".49" stop-color="#f00"/><stop offset="1"/></radialGradient><radialGradient gradientUnits="userSpaceOnUse" r="819.2" cx="0" cy="0" spreadMethod="pad" gradientTransform="matrix(-.003 0 0 .006 80.6 10.8)" id="w"><stop offset="0" stop-color="#fff"/><stop offset=".384" stop-color="#e00"/><stop offset=".49" stop-color="#f00"/><stop offset="1"/></radialGradient><radialGradient gradientUnits="userSpaceOnUse" r="819.2" cx="0" cy="0" spreadMethod="pad" gradientTransform="matrix(-.005 0 0 .006 83.75 30)" id="x"><stop offset="0" stop-color="#fff"/><stop offset=".384" stop-color="#e00"/><stop offset=".49" stop-color="#f00"/><stop offset="1"/></radialGradient><radialGradient gradientUnits="userSpaceOnUse" r="819.2" cx="0" cy="0" spreadMethod="pad" gradientTransform="matrix(-.004 0 0 .006 64.45 43.3)" id="y"><stop offset="0" stop-color="#fff"/><stop offset=".384" stop-color="#e00"/><stop offset=".49" stop-color="#f00"/><stop offset="1"/></radialGradient><radialGradient gradientUnits="userSpaceOnUse" r="819.2" cx="0" cy="0" spreadMethod="pad" gradientTransform="matrix(-.003 0 0 .003 82.6 100.2)" id="z"><stop offset="0" stop-color="#690"/><stop offset=".149" stop-color="#630"/><stop offset=".318" stop-color="#33c"/><stop offset=".588" stop-color="#396"/><stop offset="1" stop-color="#330"/></radialGradient><radialGradient gradientUnits="userSpaceOnUse" r="819.2" cx="0" cy="0" spreadMethod="pad" gradientTransform="matrix(-.003 0 0 .003 87.45 96.95)" id="A"><stop offset="0" stop-color="#690"/><stop offset=".149" stop-color="#630"/><stop offset=".318" stop-color="#33c"/><stop offset=".588" stop-color="#396"/><stop offset="1" stop-color="#330"/></radialGradient><radialGradient gradientUnits="userSpaceOnUse" r="819.2" cx="0" cy="0" spreadMethod="pad" gradientTransform="matrix(-.003 0 0 .003 77.05 101.85)" id="B"><stop offset="0" stop-color="#690"/><stop offset=".149" stop-color="#630"/><stop offset=".318" stop-color="#33c"/><stop offset=".588" stop-color="#396"/><stop offset="1" stop-color="#330"/></radialGradient><radialGradient gradientUnits="userSpaceOnUse" r="819.2" cx="0" cy="0" spreadMethod="pad" gradientTransform="matrix(-.003 0 0 .003 67.6 86.05)" id="C"><stop offset="0" stop-color="#690"/><stop offset=".149" stop-color="#630"/><stop offset=".318" stop-color="#33c"/><stop offset=".588" stop-color="#396"/><stop offset="1" stop-color="#330"/></radialGradient><radialGradient gradientUnits="userSpaceOnUse" r="819.2" cx="0" cy="0" spreadMethod="pad" gradientTransform="matrix(-.003 0 0 .003 68.05 88.8)" id="D"><stop offset="0" stop-color="#690"/><stop offset=".149" stop-color="#630"/><stop offset=".318" stop-color="#33c"/><stop offset=".588" stop-color="#396"/><stop offset="1" stop-color="#330"/></radialGradient><radialGradient gradientUnits="userSpaceOnUse" r="819.2" cx="0" cy="0" spreadMethod="pad" gradientTransform="matrix(-.002 0 0 .002 70.5 89.3)" id="E"><stop offset="0" stop-color="#690"/><stop offset=".149" stop-color="#630"/><stop offset=".318" stop-color="#33c"/><stop offset=".588" stop-color="#396"/><stop offset="1" stop-color="#330"/></radialGradient></defs><path fill="#fff" d="M75.55 7.5l.1-.1q1.75-1.6 4.1-1.6 2.45 0 4.15 1.7 1.75 1.75 1.75 4.2 0 2.4-1.75 4.15l-1.4 1.05-2.75.65q-2.45 0-4.2-1.7-1.75-1.75-1.75-4.15 0-2.45 1.75-4.2m9.05 13.55q2.55.35 4.45 2.25 2.35 2.4 2.35 5.75 0 3.4-2.35 5.8-2.35 2.35-5.65 2.35h-.55L81 36.85q-1.8-.55-3.25-2-2.35-2.4-2.35-5.8 0-3.35 2.35-5.75t5.65-2.35l1.2.1M83.15 8.3q-1.3-1.1-3.1-1.05-1.85-.05-3.1 1.05-1.3 1.05-1.3 2.5t1.3 2.5q1.25 1.1 3.1 1.1 1.8 0 3.1-1.1 1.25-1.05 1.25-2.5t-1.25-2.5m-1.4 28.4l1.1.5-1.1-.5m1.45-11.8q-2.1 0-3.6 1.5-1.45 1.5-1.5 3.6.05 2.1 1.5 3.55 1.5 1.5 3.6 1.5t3.6-1.5q1.45-1.45 1.45-3.55 0-2.1-1.45-3.6-1.5-1.5-3.6-1.5M59.95 49.2l-.85-.55-.5-.45Q56 45.95 56 42.75q0-3.15 2.6-5.45 2.55-2.25 6.15-2.25 3.65 0 6.25 2.25 2.55 2.3 2.55 5.45l-.05 1-.25 1.1q-.6 1.9-2.25 3.35l-1.05.75q-2.25 1.5-5.2 1.5-2.65 0-4.8-1.25l-.05-.4.05.4m-6.05 1.3q-.5 2.1-2.2 3.8-2.5 2.45-6.05 2.45l-1.45-.1q-2.55-.45-4.55-2.35-2.45-2.45-2.5-5.9l.05-.8q.25-2.95 2.45-5.1 2.5-2.45 6-2.45 3.55 0 6.05 2.45 2.45 2.45 2.45 5.9l-.25 2.1m8.65-43.85q0-1.95-1.7-3.35-1.7-1.35-4.15-1.35-2.4 0-4.1 1.35-1.75 1.4-1.75 3.35 0 1.95 1.75 3.35 1.7 1.4 4.1 1.4 2.45 0 4.15-1.4 1.7-1.4 1.7-3.35m-14.6.3q.35-2.65 2.5-4.6 2.65-2.4 6.35-2.4 3.65 0 6.3 2.4 1.5 1.4 2.15 3.1.45 1.25.45 2.65 0 3.35-2.6 5.75-2.65 2.4-6.3 2.4-3.7 0-6.35-2.4-2.6-2.4-2.6-5.75l.1-1.15m17.8 10.75l1.05.05q2.4.3 4.15 2.05 2.2 2.05 2.15 5.05.05 3-2.15 5.1-1.4 1.35-3.2 1.85l-2 .25q-3.05 0-5.2-2.1-2.15-2.1-2.15-5.1 0-3 2.15-5.05 2.15-2.1 5.2-2.1m-1.05 3.95q-1.75 0-2.95 1.2-1.2 1.25-1.2 3t1.2 3q1.2 1.2 2.95 1.2 1.75 0 2.95-1.2 1.2-1.25 1.2-3t-1.2-3q-1.2-1.2-2.95-1.2m-19.05.55q-1.95 0-3.35 1.25-1.4 1.3-1.4 3.15 0 1.8 1.4 3.05 1.4 1.3 3.35 1.3 2 0 3.4-1.3 1.4-1.25 1.4-3.05 0-1.85-1.4-3.15-1.4-1.25-3.4-1.25m-4.35-.05q2.3-2.1 5.55-2.05l2.65.4q1.6.45 2.9 1.65 2.35 2.1 2.35 5.1 0 2.95-2.35 5.05-2.25 2.05-5.55 2.05-3.25 0-5.55-2.05l-.05-.1Q39 30.15 39 27.25q0-3 2.3-5.1m.25 22.05Q40 45.6 40 47.7q0 2 1.55 3.45 1.5 1.45 3.6 1.45 2.15 0 3.65-1.45t1.5-3.45q0-2.1-1.5-3.5-1.5-1.45-3.65-1.45-2.1 0-3.6 1.45M59 42.25q0 2 1.5 3.4 1.55 1.4 3.7 1.4 2.15 0 3.65-1.4 1.55-1.4 1.55-3.4 0-1.95-1.55-3.35-1.5-1.4-3.65-1.4t-3.7 1.4Q59 40.3 59 42.25M25 17.2q-1.25-1.55-1.25-3.6 0-2.65 2.1-4.55 2.15-1.85 5.1-1.8 3-.05 5.15 1.8l.65.7q1.45 1.65 1.45 3.85 0 2.65-2.1 4.5-2.15 1.85-5.15 1.85-2.95 0-5.1-1.85l-.85-.9m1.75-7.35q-1.4 1.2-1.45 2.9.05 1.7 1.45 2.85 1.45 1.2 3.5 1.25 2.05-.05 3.5-1.25 1.45-1.15 1.4-2.85.05-1.7-1.4-2.9t-3.5-1.2q-2.05 0-3.5 1.2m-6.55 22.9q-1.5.6-3.2.6-3.35 0-5.7-2.3-2.4-2.3-2.4-5.55t2.4-5.55q2.35-2.3 5.7-2.3t5.7 2.3l.4.4q1.95 2.2 1.95 5.15 0 3.25-2.35 5.55l-2.5 1.7M12.35 22.6q-1.4 1.35-1.4 3.35 0 1.95 1.4 3.35 1.4 1.35 3.35 1.35 2 0 3.4-1.35 1.4-1.4 1.4-3.35 0-2-1.4-3.35-1.4-1.4-3.4-1.4-1.95 0-3.35 1.4m13 14.3Q25 35.85 25 34.7q0-2.7 1.85-4.6 1.85-1.9 4.45-1.9t4.5 1.9q1.85 1.9 1.8 4.6.05 2.7-1.8 4.6-1.45 1.45-3.35 1.8l-1.15.1q-2.6 0-4.45-1.9-1.05-1.1-1.5-2.4m5.3-5.85q-1.55 0-2.65 1.1-1.1 1.1-1.1 2.65 0 1.5 1.1 2.6t2.65 1.1q1.5 0 2.6-1.1t1.1-2.6q0-1.55-1.1-2.65-1.1-1.1-2.6-1.1"/><path fill="url(#a)" d="M26.75 9.85q1.45-1.2 3.5-1.2t3.5 1.2q1.45 1.2 1.4 2.9.05 1.7-1.4 2.85-1.45 1.2-3.5 1.25-2.05-.05-3.5-1.25-1.4-1.15-1.45-2.85.05-1.7 1.45-2.9"/><path fill="url(#b)" d="M75.55 7.5q-1.75 1.75-1.75 4.2 0 2.4 1.75 4.15 1.75 1.7 4.2 1.7l2.75-.65q.15 2.35-1.5 3.3l1.1.05q1.45.15 2.5.8l-1.2-.1q-3.3-.05-5.65 2.35-2.35 2.4-2.35 5.75 0 3.4 2.35 5.8 1.45 1.45 3.25 2-.75.5-1.75.5-.05 3.1-3.25 4 .25 1.5-1.5 2.2l-1 .2.05-1q0-3.15-2.55-5.45-2.6-2.25-6.25-2.25-3.6 0-6.15 2.25-2.6 2.3-2.6 5.45 0 3.2 2.6 5.45l.5.45q-1.7 1.1-2.8-1-.05 2.7-2.4 2.85l.25-2.1q0-3.45-2.45-5.9-2.5-2.45-6.05-2.45-3.5 0-6 2.45-2.2 2.15-2.45 5.1-1.3-.15-2-1.15l-.05-.05q-.9-1.3-.8-3 .1-1 .5-2.1l-2.4-.2q1.9-.35 3.35-1.8 1.85-1.9 1.8-4.6.05-2.7-1.8-4.6-1.9-1.9-4.5-1.9t-4.45 1.9Q25 32 25 34.7q0 1.15.35 2.2l-.15.05-1.05-.75q-1-1.05-1.3-2.65-1.8.25-2.65-.8l2.5-1.7q2.35-2.3 2.35-5.55 0-2.95-1.95-5.15l1.3-.1.05-.4q-.05-.9 1.2-1.05-.55-.75-.65-1.6l.85.9q2.15 1.85 5.1 1.85 3 0 5.15-1.85 2.1-1.85 2.1-4.5 0-2.2-1.45-3.85 2.25-.55 3.5 1.65l1.05-.9q1.95-1.6 5.3-1.15.05-1.85 1.35-2.4l-.1 1.15q0 3.35 2.6 5.75 2.65 2.4 6.35 2.4 3.65 0 6.3-2.4 2.6-2.4 2.6-5.75 0-1.4-.45-2.65l1.2 1.6q.8-.45 1.8-.4 2.85.1 4.65 1.7Q74 6.8 75.6 7.4l-.05.1m-3.45 2.9l.4-1.25.4-.8-.4.8-.4 1.25m-4.55-.55q-.4-1.65-1.1-2.8.7 1.15 1.1 2.8m-20.8 1.65l-.15-2.15.15 2.15m19 6.2q-3.05 0-5.2 2.1-2.15 2.05-2.15 5.05t2.15 5.1q2.15 2.1 5.2 2.1l2-.25q1.8-.5 3.2-1.85 2.2-2.1 2.15-5.1.05-3-2.15-5.05-1.75-1.75-4.15-2.05l-1.05-.05m-6.2 1.2q1.45-1.95 4.6-1.85 1.6.05 2.65.7-1.05-.65-2.65-.7-3.15-.1-4.6 1.85l-.7 1.05.7-1.05m15.7 4.35l1.95-1.65q1.6-1.35 3.8-1.4-2.2.05-3.8 1.4l-1.95 1.65m-34.95-9.3q.75-1.25-.05-2.55.8 1.3.05 2.55m1 8.2q-2.3 2.1-2.3 5.1 0 2.9 2.25 4.95l.05.1q2.3 2.05 5.55 2.05 3.3 0 5.55-2.05 2.35-2.1 2.35-5.05 0-3-2.35-5.1-1.3-1.2-2.9-1.65l-2.65-.4q-3.25-.05-5.55 2.05m12.45 13.2q-.25.6-1.1.8l-5.45.25q-2.6-.45-4.6-2.35-.9-.8-1.3-1.75.4.95 1.3 1.75 2 1.9 4.6 2.35l5.45-.25q.85-.2 1.1-.8m2.1-13q-1.15-1.45-2.65-1.9-2.1-.8-3.7.05 1.6-.85 3.7-.05 1.5.45 2.65 1.9m-1.1 20.7q-.1 1.65.6 2.8l.95 1.8-.95-1.8q-.7-1.15-.6-2.8M73.4 32.5l.2 1.25q1.1 2.45 3.95 3.3l1.7.3-1.7-.3q-2.85-.85-3.95-3.3l-.2-1.25m-13.25-.6q1 1.95 4.15 1.85 2.55-.05 3.45-1.95-.9 1.9-3.45 1.95-3.15.1-4.15-1.85m14.95 7.45q.8 1.15.9 2-.1-.85-.9-2m-49.6-18.8l-1.1-.3 1.1.3m1.85.1l-.95-1.05-.75-.8.75.8.95 1.05m-2.9 14.75l-.3.8.3-.8m14.2 3.15l-1.85 1.8-1.95.95 1.95-.95 1.85-1.8"/><path fill="url(#c)" d="M12.35 22.6q1.4-1.4 3.35-1.4 2 0 3.4 1.4 1.4 1.35 1.4 3.35 0 1.95-1.4 3.35-1.4 1.35-3.4 1.35-1.95 0-3.35-1.35-1.4-1.4-1.4-3.35 0-2 1.4-3.35"/><path fill="url(#d)" d="M45.65 22.2q2 0 3.4 1.25 1.4 1.3 1.4 3.15 0 1.8-1.4 3.05-1.4 1.3-3.4 1.3-1.95 0-3.35-1.3-1.4-1.25-1.4-3.05 0-1.85 1.4-3.15 1.4-1.25 3.35-1.25"/><path fill="url(#e)" d="M30.65 31.05q1.5 0 2.6 1.1t1.1 2.65q0 1.5-1.1 2.6t-2.6 1.1q-1.55 0-2.65-1.1-1.1-1.1-1.1-2.6 0-1.55 1.1-2.65 1.1-1.1 2.65-1.1"/><path fill="url(#f)" d="M41.55 44.2q1.5-1.45 3.6-1.45 2.15 0 3.65 1.45 1.5 1.4 1.5 3.5 0 2-1.5 3.45-1.5 1.45-3.65 1.45-2.1 0-3.6-1.45Q40 49.7 40 47.7q0-2.1 1.55-3.5"/><path fill="url(#g)" d="M88.15 95.1l-.7-.15q-.85 0-1.5.6-.6.55-.6 1.4 0 .8.6 1.35l.25.25-1.4 1.15-.15.1-.55-.75q-.65-.5-1.5-.5-.9 0-1.5.5-.65.45-.65 1.15t.65 1.15l.05.25-1.6.5-.05-.25q0-.7-.75-1.2-.7-.45-1.7-.45-1.05 0-1.75.45-.7.5-.7 1.2 0 .6.55 1l-2.5.1L59 101.8q-2.25-.35-3.95-1.45-1.6-1.05-3.05-3.1l.7 6.9q-4.7-1.85-5.85-7.2-.3 5.8-5.85 6.5l2.45-6.5-10.15 4.25-.25-.25q-.55-.4-1.3-.4-.7 0-1.25.4-.55.45-.55 1.05l.05.3-.7.15q0-.4-.45-.65l-1.15-.3q-.7 0-1.15.3-.5.3-.5.7l.1.35H23.8v-.2q0-.6-.55-1.05l-1.25-.4q-.75 0-1.25.4t-.55.95l-4-.9.1-.65q0-.7-.5-1.25-.55-.55-1.3-.55t-1.25.55l-.4.6-.05-.05q-6.85-3.1-1.85-7.95l4.55-4.15q5.7-4.85 2.7-10.8-.55-1.2-2.05-1.4-4.75-.75-8.35-3.8l.1-.15q.6-.45.6-1.15l-.25-.75.2.2q.65.55 1.5.55t1.5-.55q.6-.6.6-1.4 0-.85-.6-1.4-.65-.55-1.5-.55t-1.5.55q-.65.55-.65 1.4 0 .55.3 1l-.2-.2q-.55-.5-1.4-.5-.7 0-1.25.35l-.2-.25.55-.3q.9-.5.9-1.25 0-.7-.9-1.25T3.4 66h-.2l-.3-1.05.75-.35q.6-.45.6-1.05.6.5 1.45.5t1.5-.55q.6-.6.6-1.4 0-.8-.6-1.4-.65-.55-1.5-.55l-.8.15-.15-.25.15-.1q.65-.5.65-1.25t-.65-1.3l-.6-.3.05-.2q.9-.05 1.5-.45.65-.4.65-1t-.65-1.05l-.25-.1 3.05-5.6q1-1.75 2.05-2.6 1.85 7.15 3 13.15.25 1.2 0 2.9-.95 7.95 4.8 10.55 5.7 2.6 5 10.05-.65 7.15-6.2 10.6-6.8 4.25 1.8 5.35 6.8.9 13.1-.6.95-.25 1.85-.9 4.2-2.9 8.95-7.6 3-2.95 3.5-7.5.7-6.1 2.15-12.3 1.7-7.05-2.85-11.35l-1.6-1.8 1.45.1q3.55 0 6.05-2.45 1.7-1.7 2.2-3.8 2.35-.15 2.4-2.85 1.1 2.1 2.8 1l.85.55q.95 7.05-3.95 11.5-2.5 2.35-2.55 6l-.55 13.7Q52.35 87.8 55 93q3.05 6.15 9.7 6.6 7.25.4 12.8-2.05 4.9-2.2 3-8.65-.85-2.8-4.2-1.6l-2.45.9-2.25.6-.25-.55q-.35-.4-.85-.4l-.45.1-.35-.3q-.3-.2-.65-.3l.05-.05q.65-.5.65-1.25t-.65-1.3q-.55-.5-1.4-.5v-.75q0-3.05 2.55-3.8-.4 8.55 8 5.4 6.55-2.45 9.2 4.5 1.2 3.05.7 5.5m-77.4-36.55q0-.7-.45-1.2-.5-.45-1.15-.45-.7 0-1.15.45-.5.5-.5 1.2 0 .65.5 1.15.45.45 1.15.45.65 0 1.15-.45.45-.5.45-1.15M9.1 65.5q.65.5 1.5.5t1.5-.5q.65-.55.65-1.3 0-.7-.65-1.25-.65-.5-1.5-.5t-1.5.5q-.6.55-.6 1.25 0 .75.6 1.3"/><path fill="url(#h)" d="M5.6 54.3l.25.1q.65.45.65 1.05 0 .6-.65 1-.6.4-1.5.45l-.6-.05-1.15-.4q-.65-.4-.65-1t.65-1.05q.65-.45 1.65-.45.75 0 1.35.35"/><path fill="url(#i)" d="M4.3 57.1l.6.3q.65.55.65 1.3t-.65 1.25l-.15.1-1.5.45h-.3q-.75-.1-1.3-.55-.7-.5-.7-1.25t.7-1.3q.65-.5 1.6-.5l.55.05.5.15"/><path fill="url(#j)" d="M4.25 63.55q0 .6-.6 1.05l-.75.35-.75.1q-.9 0-1.5-.45Q0 64.15 0 63.55q0-.6.65-1 .6-.45 1.5-.45l.5.05.95.4q.15.55.6.95l.05.05"/><path fill="url(#k)" d="M4.25 63.55l-.05-.05q-.45-.4-.6-.95l-.05-.45q0-.8.65-1.4l.7-.4.8-.15q.85 0 1.5.55.6.6.6 1.4 0 .8-.6 1.4-.65.55-1.5.55t-1.45-.5"/><path fill="url(#l)" d="M3.2 66h.2q1.3 0 2.2.55.9.55.9 1.25 0 .75-.9 1.25l-.55.3-1.65.25q-1.25 0-2.15-.55-.95-.5-.95-1.25 0-.7.95-1.25.8-.45 1.95-.55"/><path fill="url(#m)" d="M5.25 69.6q.55-.35 1.25-.35.85 0 1.4.5l.2.2.15.2.25.75q0 .7-.6 1.15l-.15.1-1.25.4q-.8 0-1.35-.5-.6-.45-.6-1.15t.6-1.15l.1-.15"/><path fill="url(#n)" d="M10.75 58.55q0 .65-.45 1.15-.5.45-1.15.45-.7 0-1.15-.45-.5-.5-.5-1.15 0-.7.5-1.2.45-.45 1.15-.45.65 0 1.15.45.45.5.45 1.2"/><path fill="url(#o)" d="M9.1 65.5q-.6-.55-.6-1.3 0-.7.6-1.25.65-.5 1.5-.5t1.5.5q.65.55.65 1.25 0 .75-.65 1.3-.65.5-1.5.5t-1.5-.5"/><path fill="url(#p)" d="M8.1 69.95q-.3-.45-.3-1 0-.85.65-1.4.65-.55 1.5-.55t1.5.55q.6.55.6 1.4 0 .8-.6 1.4-.65.55-1.5.55t-1.5-.55l-.2-.2-.15-.2"/><path fill="url(#q)" d="M30 102.3l-.05-.3q0-.6.55-1.05.55-.4 1.25-.4.75 0 1.3.4l.25.25.25.8q0 .6-.5 1.05-.55.4-1.3.4-.7 0-1.25-.4l-.5-.75"/><path fill="url(#r)" d="M26.15 102.85l-.1-.35q0-.4.5-.7.45-.3 1.15-.3l1.15.3q.45.25.45.65v.05l-.45.65-1.15.3-1.15-.3-.4-.3"/><path fill="url(#s)" d="M20.2 102.55q.05-.55.55-.95.5-.4 1.25-.4l1.25.4q.55.45.55 1.05v.05l-.05.15q-.05.5-.5.85-.5.45-1.25.45l-1.25-.45q-.55-.45-.55-1.05v-.1"/><path fill="url(#t)" d="M12.85 100.35l.4-.6q.5-.55 1.25-.55t1.3.55q.5.55.5 1.25l-.1.65-.4.6q-.55.55-1.3.55t-1.25-.55q-.55-.5-.55-1.25l.15-.65"/><path fill="url(#u)" d="M62.55 6.65q0 1.95-1.7 3.35-1.7 1.4-4.15 1.4-2.4 0-4.1-1.4-1.75-1.4-1.75-3.35 0-1.95 1.75-3.35 1.7-1.35 4.1-1.35 2.45 0 4.15 1.35 1.7 1.4 1.7 3.35"/><path fill="url(#v)" d="M64.7 21.65q1.75 0 2.95 1.2 1.2 1.25 1.2 3t-1.2 3q-1.2 1.2-2.95 1.2-1.75 0-2.95-1.2-1.2-1.25-1.2-3t1.2-3q1.2-1.2 2.95-1.2"/><path fill="url(#w)" d="M83.15 8.3q1.25 1.05 1.25 2.5t-1.25 2.5q-1.3 1.1-3.1 1.1-1.85 0-3.1-1.1-1.3-1.05-1.3-2.5t1.3-2.5q1.25-1.1 3.1-1.05 1.8-.05 3.1 1.05"/><path fill="url(#x)" d="M83.2 24.9q2.1 0 3.6 1.5 1.45 1.5 1.45 3.6t-1.45 3.55q-1.5 1.5-3.6 1.5t-3.6-1.5Q78.15 32.1 78.1 30q.05-2.1 1.5-3.6 1.5-1.5 3.6-1.5"/><path fill="url(#y)" d="M59 42.25q0-1.95 1.5-3.35 1.55-1.4 3.7-1.4 2.15 0 3.65 1.4 1.55 1.4 1.55 3.35 0 2-1.55 3.4-1.5 1.4-3.65 1.4t-3.7-1.4q-1.5-1.4-1.5-3.4"/><path fill="url(#z)" d="M81.1 101.35q-.65-.45-.65-1.15t.65-1.15q.6-.5 1.5-.5.85 0 1.5.5l.55.75.05.4q0 .7-.6 1.15-.65.5-1.5.5-.7 0-1.25-.35l-.25-.15"/><path fill="url(#A)" d="M86.2 98.55l-.25-.25q-.6-.55-.6-1.35 0-.85.6-1.4.65-.6 1.5-.6l.7.15.8.45q.65.55.65 1.4 0 .8-.65 1.35-.6.6-1.5.6l-1.25-.35"/><path fill="url(#B)" d="M75.15 102.85q-.55-.4-.55-1 0-.7.7-1.2.7-.45 1.75-.45 1 0 1.7.45.75.5.75 1.2l-.05.3q-.15.5-.7.85l-1.7.45-1.75-.45-.15-.15"/><path fill="url(#C)" d="M67.7 84.25q.85 0 1.4.5.65.55.65 1.3t-.65 1.25l-.05.05q-.6.5-1.45.5l-1.05-.25-.45-.3q-.6-.5-.6-1.25t.6-1.3q.65-.5 1.5-.5h.1"/><path fill="url(#D)" d="M69.05 87.35q.35.1.65.3l.35.3-.3.3q-.4.45-.4 1.05l.2.75-1.5.4q-.95 0-1.6-.5-.65-.45-.65-1.15 0-.65.65-1.15l.1-.05 1.05.25q.85 0 1.45-.5"/><path fill="url(#E)" d="M70.05 87.95l.45-.1q.5 0 .85.4l.25.55.05.5-.3 1.05q-.35.45-.85.45-.45 0-.75-.45l-.2-.3-.2-.75q0-.6.4-1.05l.3-.3"/><path fill="none" stroke="#a02" stroke-width=".05" stroke-linecap="round" stroke-miterlimit="3" d="M82.85 37.2l.4.2m-13 42.3q-2.55.75-2.55 3.8v.75m3.9 4.55l2.25-.6 2.45-.9M44.2 56.65l1.6 1.8M4.35 56.9l-.05.2m-1.4 7.85L3.2 66m1.85 3.35l.2.25m2.55 2.6q3.6 3.05 8.35 3.8 1.5.2 2.05 1.4 3 5.95-2.7 10.8l-4.55 4.15m1.85 7.95l.05.05m3.35 1.3l4 .9m3.6.3h2.35m3.15-.4l.7-.15m3.3-1.1l10.15-4.25-2.45 6.5q5.55-.7 5.85-6.5 1.15 5.35 5.85 7.2l-.7-6.9q1.45 2.05 3.05 3.1 1.7 1.1 3.95 1.45l13.65 1.15 2.5-.1m9.5-3.05l.15-.1M47.95 6.95q-1.3.55-1.35 2.4l.15 2.15m12.8 7.4l-.7 1.05M46.6 9.35q-3.35-.45-5.3 1.15l-1.05.9q.8 1.3.05 2.55m-3.55-4.2l-.65-.7m4.15 2.35Q39 9.2 36.75 9.75m-29 62.4l.05.05m71.65 29.95l.1-.05m-55.75.75h-.05m57.6-1.35l-.2.1"/><path fill="none" stroke="#999" stroke-width=".05" stroke-linecap="round" stroke-miterlimit="3" d="M82.5 16.9l1.4-1.05q1.75-1.75 1.75-4.15 0-2.45-1.75-4.2-1.7-1.7-4.15-1.7-2.35 0-4.1 1.6l-.1.1q-1.75 1.75-1.75 4.2 0 2.4 1.75 4.15 1.75 1.7 4.2 1.7l2.75-.65m2.1 4.15q2.55.35 4.45 2.25 2.35 2.4 2.35 5.75 0 3.4-2.35 5.8-2.35 2.35-5.65 2.35h-.55l-1.1-.5m1.5.7q4.6 2.5 5.55 8.65 1 6.6 7.4 8.65 2.45.8 3.8 2.85m-15.4-36.5l-1.2-.1q-3.3-.05-5.65 2.35-2.35 2.4-2.35 5.75 0 3.4 2.35 5.8 1.45 1.45 3.25 2l1.85.35m-5.95 4.4q4.95 3.5 4.25 10.4-.7 6.85 4.7 10.3 3.45 2.2 6.8 4.6 4.7 3.45 3.8 9.55M59.95 49.2l-.85-.55m-5.2 1.85q-.5 2.1-2.2 3.8-2.5 2.45-6.05 2.45l-1.45-.1m3.75-49.7q.35-2.65 2.5-4.6 2.65-2.4 6.35-2.4 3.65 0 6.3 2.4 1.5 1.4 2.15 3.1.45 1.25.45 2.65 0 3.35-2.6 5.75-2.65 2.4-6.3 2.4-3.7 0-6.35-2.4-2.6-2.4-2.6-5.75l.1-1.15m17.8 10.75q-3.05 0-5.2 2.1-2.15 2.05-2.15 5.05t2.15 5.1q2.15 2.1 5.2 2.1l2-.25q1.8-.5 3.2-1.85 2.2-2.1 2.15-5.1.05-3-2.15-5.05-1.75-1.75-4.15-2.05l-1.05-.05M41.3 22.15q-2.3 2.1-2.3 5.1 0 2.9 2.25 4.95l.05.1q2.3 2.05 5.55 2.05 3.3 0 5.55-2.05 2.35-2.1 2.35-5.05 0-3-2.35-5.1-1.3-1.2-2.9-1.65l-2.65-.4q-3.25-.05-5.55 2.05m32.2 21.6l.05-1q0-3.15-2.55-5.45-2.6-2.25-6.25-2.25-3.6 0-6.15 2.25-2.6 2.3-2.6 5.45 0 3.2 2.6 5.45l.5.45m.85.55l-.05-.4m-6 1.7l.25-2.1q0-3.45-2.45-5.9-2.5-2.45-6.05-2.45-3.5 0-6 2.45-2.2 2.15-2.45 5.1l-.05.8q.05 3.45 2.5 5.9 2 1.9 4.55 2.35m29.3-12.9l-.25 1.1q5 2.95 3.8 10-.8 4.75-3.15 9.2-3.45 6.55.9 11.3 1.9 2.1 4.05 3.7M59.95 49.2q2.15 1.25 4.8 1.25 2.95 0 5.2-1.5L71 48.2q1.65-1.45 2.25-3.35M36.1 9.05q-2.15-1.85-5.15-1.8-2.95-.05-5.1 1.8-2.1 1.9-2.1 4.55 0 2.05 1.25 3.6m.85.9q2.15 1.85 5.1 1.85 3 0 5.15-1.85 2.1-1.85 2.1-4.5 0-2.2-1.45-3.85m-16.55 23q-1.5.6-3.2.6-3.35 0-5.7-2.3-2.4-2.3-2.4-5.55t2.4-5.55q2.35-2.3 5.7-2.3t5.7 2.3l.4.4q1.95 2.2 1.95 5.15 0 3.25-2.35 5.55l-2.5 1.7m5.15 4.15Q25 35.85 25 34.7q0-2.7 1.85-4.6 1.85-1.9 4.45-1.9t4.5 1.9q1.85 1.9 1.8 4.6.05 2.7-1.8 4.6-1.45 1.45-3.35 1.8l-1.15.1q-2.6 0-4.45-1.9-1.05-1.1-1.5-2.4m-1.2-.7q-2.3 7.15-3.2 12.9-.4 2.3-1.4 3.9m14.8-9.6q-5.8 1.85-8.15 7.95-1.75 4.45-1.1 9.4.3 2.3-1.3 2.65m11.4-16.95q-5.35 4.3-2.65 10.65Q35 62.85 36.4 68.9q1.6 6.8-3.6 10.95-1.55 1.25-3.5 1.15m40.65-32.05q3.9 4.15 1 8.9"/><path fill="none" stroke="#243D18" stroke-width=".05" stroke-linecap="round" stroke-miterlimit="3" d="M86.2 98.55l-.25-.25q-.6-.55-.6-1.35 0-.85.6-1.4.65-.6 1.5-.6l.7.15M67.7 84.25q.85 0 1.4.5.65.55.65 1.3t-.65 1.25l-.05.05q.35.1.65.3l.35.3.45-.1q.5 0 .85.4l.25.55m-66-34.5l.25.1q.65.45.65 1.05 0 .6-.65 1-.6.4-1.5.45m-.05.2l.6.3q.65.55.65 1.3t-.65 1.25l-.15.1m.15.25l.8-.15q.85 0 1.5.55.6.6.6 1.4 0 .8-.6 1.4-.65.55-1.5.55t-1.45-.5q0 .6-.6 1.05l-.75.35M3.2 66h.2q1.3 0 2.2.55.9.55.9 1.25 0 .75-.9 1.25l-.55.3m.2.25q.55-.35 1.25-.35.85 0 1.4.5l.2.2q-.3-.45-.3-1 0-.85.65-1.4.65-.55 1.5-.55t1.5.55q.6.55.6 1.4 0 .8-.6 1.4-.65.55-1.5.55t-1.5-.55l-.2-.2.25.75q0 .7-.6 1.15m4.95 28.3l.4-.6q.5-.55 1.25-.55t1.3.55q.5.55.5 1.25l-.1.65-.4.6q-.55.55-1.3.55t-1.25-.55q-.55-.5-.55-1.25l.15-.65m7.35 2.2q.05-.55.55-.95.5-.4 1.25-.4l1.25.4q.55.45.55 1.05v.05m2.35.15l-.1-.35q0-.4.5-.7.45-.3 1.15-.3l1.15.3q.45.25.45.65v.05l-.45.65-1.15.3-1.15-.3-.4-.3m3.85-.55l-.05-.3q0-.6.55-1.05.55-.4 1.25-.4.75 0 1.3.4l.25.25.25.8q0 .6-.5 1.05-.55.4-1.3.4-.7 0-1.25-.4l-.5-.75m45.15.55q-.55-.4-.55-1 0-.7.7-1.2.7-.45 1.75-.45 1 0 1.7.45.75.5.75 1.2m1.6-.5q-.65-.45-.65-1.15t.65-1.15q.6-.5 1.5-.5.85 0 1.5.5l.55.75m1.55-1.25l1.25.35q.9 0 1.5-.6.65-.55.65-1.35 0-.85-.65-1.4l-.8-.45m-77.4-36.55q0-.7-.45-1.2-.5-.45-1.15-.45-.7 0-1.15.45-.5.5-.5 1.2 0 .65.5 1.15.45.45 1.15.45.65 0 1.15-.45.45-.5.45-1.15M5.6 54.3q-.6-.35-1.35-.35-1 0-1.65.45-.65.45-.65 1.05 0 .6.65 1l1.15.4.6.05m-.05.2l-.5-.15-.55-.05q-.95 0-1.6.5-.7.55-.7 1.3t.7 1.25q.55.45 1.3.55h.3l1.5-.45m.15.25l-.7.4q-.65.6-.65 1.4l.05.45q.15.55.6.95l.05.05M9.1 65.5q.65.5 1.5.5t1.5-.5q.65-.55.65-1.3 0-.7-.65-1.25-.65-.5-1.5-.5t-1.5.5q-.6.55-.6 1.25 0 .75.6 1.3m-5.5-2.95l-.95-.4-.5-.05q-.9 0-1.5.45-.65.4-.65 1t.65 1.05q.6.45 1.5.45l.75-.1M3.2 66q-1.15.1-1.95.55Q.3 67.1.3 67.8q0 .75.95 1.25.9.55 2.15.55l1.65-.25m3.05.6l.15.2m-3-.55l-.1.15q-.6.45-.6 1.15t.6 1.15q.55.5 1.35.5l1.25-.4.15-.1m59.8 12.2h-.1q-.85 0-1.5.5-.6.55-.6 1.3t.6 1.25l.45.3 1.05.25q.85 0 1.45-.5m1 .6l-.3.3q-.4.45-.4 1.05l.2.75.2.3q.3.45.75.45.5 0 .85-.45l.3-1.05-.05-.5m-5.05-1.2l-.1.05q-.65.5-.65 1.15 0 .7.65 1.15.65.5 1.6.5l1.5-.4m5.6 12.8l.15.15 1.75.45 1.7-.45q.55-.35.7-.85l.05-.3m-55.75 1q-.05.5-.5.85-.5.45-1.25.45l-1.25-.45q-.55-.45-.55-1.05v-.1m3.55.3l.05-.15m57.3-1.35l.25.15q.55.35 1.25.35.85 0 1.5-.5.6-.45.6-1.15l-.05-.4"/><path fill="none" stroke="#335444" stroke-width=".05" stroke-linecap="round" stroke-miterlimit="3" d="M76.3 87.3q3.35-1.2 4.2 1.6 1.9 6.45-3 8.65-5.55 2.45-12.8 2.05-6.65-.45-9.7-6.6-2.65-5.2-2.1-12.6l.55-13.7q.05-3.65 2.55-6 4.9-4.45 3.95-11.5"/><path fill="none" stroke="#003" stroke-width=".05" stroke-linecap="round" stroke-miterlimit="3" d="M82.5 16.9q.15 2.35-1.5 3.3l1.1.05q1.45.15 2.5.8M72.9 8.35l-.4.8-.4 1.25m3.55-3h-.05q-1.6-.6-2.7.95-1.8-1.6-4.65-1.7-1-.05-1.8.4.7 1.15 1.1 2.8m-2.3-4.4l1.2 1.6M81 20.2q-2.2.05-3.8 1.4l-1.95 1.65m4 14.1l-1.7-.3q-2.85-.85-3.95-3.3l-.2-1.25m7.6 4.35q-.75.5-1.75.5-.05 3.1-3.25 4 .25 1.5-1.5 2.2l-1 .2m2.5-2.4q-.1-.85-.9-2M25 17.2l.85.9m-2.75 2.25l1.3-.1.05-.4q-.05-.9 1.2-1.05-.55-.75-.65-1.6m-4.8 15.55q.85 1.05 2.65.8.3 1.6 1.3 2.65l.3-.8m1.2-16.6l.75.8.95 1.05m-2.95-.4l1.1.3m-.3 16.4l-1.05-.75"/><path fill="none" stroke="#293709" stroke-width=".05" stroke-linecap="round" stroke-miterlimit="3" d="M59.1 48.65q-1.7 1.1-2.8-1-.05 2.7-2.4 2.85m2.4-2.85l-.95-1.8q-.7-1.15-.6-2.8"/><path fill="none" stroke="#330" stroke-width=".05" stroke-linecap="round" stroke-miterlimit="3" d="M32.45 41.1l2.4.2 1.95-.95 1.85-1.8m-3.45 7.9l-.05-.05q-.9-1.3-.8-3 .1-1 .5-2.1m2.35 6.3q-1.3-.15-2-1.15"/><path fill="none" stroke="#2B2B0F" stroke-width=".05" stroke-linecap="round" stroke-miterlimit="3" d="M49.5 20.5q1.6-.85 3.7-.05 1.5.45 2.65 1.9M41.3 32.3q.4.95 1.3 1.75 2 1.9 4.6 2.35l5.45-.25q.85-.2 1.1-.8"/><path fill="none" stroke="#0B0B4F" stroke-width=".05" stroke-linecap="round" stroke-miterlimit="3" d="M66.8 17.75q-1.05-.65-2.65-.7-3.15-.1-4.6 1.85m8.2 12.9q-.9 1.9-3.45 1.95-3.15.1-4.15-1.85"/><path fill="none" stroke="#191933" stroke-width=".05" stroke-linecap="round" stroke-miterlimit="3" d="M45.8 58.45q4.55 4.3 2.85 11.35Q47.2 76 46.5 82.1q-.5 4.55-3.5 7.5-4.75 4.7-8.95 7.6-.9.65-1.85.9-6.3 1.5-13.1.6-8.6-1.1-1.8-5.35 5.55-3.45 6.2-10.6.7-7.45-5-10.05-5.75-2.6-4.8-10.55.25-1.7 0-2.9-1.15-6-3-13.15"/></svg>