<svg xmlns="http://www.w3.org/2000/svg" viewBox="0 0.1 100.0 94.5" width="100" height="94.5"><defs><radialGradient gradientUnits="userSpaceOnUse" r="819.2" cx="0" cy="0" spreadMethod="pad" gradientTransform="matrix(.037 0 0 .018 79.25 8.4)" id="a"><stop offset="0"/><stop offset=".561" stop-color="#fc6"/><stop offset="1" stop-color="#fc0"/></radialGradient><radialGradient gradientUnits="userSpaceOnUse" r="819.2" cx="0" cy="0" fx="87942.4" fy="0" spreadMethod="repeat" gradientTransform="matrix(.062 0 0 .062 54.55 26.35)" id="b"><stop offset="0"/><stop offset=".561" stop-color="#fc6"/><stop offset="1" stop-color="#fc0"/></radialGradient><radialGradient gradientUnits="userSpaceOnUse" r="819.2" cx="0" cy="0" spreadMethod="pad" gradientTransform="matrix(.031 0 0 .015 74.35 16.65)" id="c"><stop offset="0"/><stop offset=".561" stop-color="#fc6"/><stop offset="1" stop-color="#fc0"/></radialGradient><radialGradient gradientUnits="userSpaceOnUse" r="819.2" cx="0" cy="0" spreadMethod="pad" gradientTransform="matrix(.009 0 0 .009 60.9 28.95)" id="d"><stop offset="0"/><stop offset=".561" stop-color="#fc6"/><stop offset="1" stop-color="#fc0"/></radialGradient><radialGradient gradientUnits="userSpaceOnUse" r="819.2" cx="0" cy="0" spreadMethod="pad" gradientTransform="matrix(.01 0 0 .01 46.2 36.5)" id="e"><stop offset="0"/><stop offset=".561" stop-color="#fc6"/><stop offset="1" stop-color="#fc0"/></radialGradient><radialGradient gradientUnits="userSpaceOnUse" r="819.2" cx="0" cy="0" spreadMethod="pad" gradientTransform="matrix(.009 0 0 .008 53.8 43.8)" id="f"><stop offset="0"/><stop offset=".561" stop-color="#fc6"/><stop offset="1" stop-color="#fc0"/></radialGradient><radialGradient gradientUnits="userSpaceOnUse" r="819.2" cx="0" cy="0" spreadMethod="pad" gradientTransform="matrix(.012 0 0 .012 10.45 8.9)" id="g"><stop offset="0"/><stop offset=".561" stop-color="#fc6"/><stop offset="1" stop-color="#fc0"/></radialGradient><radialGradient gradientUnits="userSpaceOnUse" r="819.2" cx="0" cy="0" spreadMethod="pad" gradientTransform="matrix(.019 0 0 .019 29.55 21.4)" id="h"><stop offset="0"/><stop offset=".561" stop-color="#fc6"/><stop offset="1" stop-color="#fc0"/></radialGradient><radialGradient gradientUnits="userSpaceOnUse" r="819.2" cx="0" cy="0" spreadMethod="pad" gradientTransform="matrix(.002 0 0 .002 47.65 26.4)" id="i"><stop offset="0"/><stop offset=".561" stop-color="#fc6"/><stop offset="1" stop-color="#fc0"/></radialGradient><radialGradient gradientUnits="userSpaceOnUse" r="819.2" cx="0" cy="0" spreadMethod="pad" gradientTransform="matrix(.005 0 0 .005 31.55 15.2)" id="j"><stop offset="0"/><stop offset=".561" stop-color="#fc6"/><stop offset="1" stop-color="#fc0"/></radialGradient><radialGradient gradientUnits="userSpaceOnUse" r="819.2" cx="0" cy="0" spreadMethod="pad" gradientTransform="matrix(.004 0 0 .004 32.25 46.05)" id="k"><stop offset="0"/><stop offset=".561" stop-color="#fc6"/><stop offset="1" stop-color="#fc0"/></radialGradient><linearGradient gradientUnits="userSpaceOnUse" x1="-819.2" x2="819.2" gradientTransform="matrix(.025 -.08 .035 .011 68.5 27.9)" id="l"><stop offset="0"/><stop offset=".275" stop-color="#fc0"/></linearGradient></defs><path fill="url(#a)" d="M92.1 3.65l1.05 1.25-2.2 1.25q-1.15.6-1.8 1.55l-3.9.7Q80 9.25 74.9 11.3l-3.45 1.1-4.85.75h-1.25l.3-.75q.25-.8.9-1.25l1.85-1.2q.7-.65 1.6-.85 2.9-.85 5.7-2.2l4.05-1.6 6.65-1.5 1.45-.2 4.25.05"/><path fill="url(#b)" d="M92.1 3.65l-4.25-.05-1.45.2-6.65 1.5-4.05 1.6Q72.9 8.25 70 9.1q-.9.2-1.6.85l-1.85 1.2q-.65.45-.9 1.25l-.3.75h1.25l4.85-.75 3.45-1.1Q80 9.25 85.25 8.4l3.9-.7 1.1-.2q1.35-.25 2.3-.7l-6.2 3.45-2.2 1q-3.1 1.2-6.25 1.85l-5.25.75-7 .15q-.4 1.4-.45 3.15-.1 1.85.85 3.3l1.2 1.25 2.05 1.4.65-1 .05.2-.05.4q-.1.6.35.6l.35.65-.1 1.45-.35 1.1q-.5 1-.7 2.1l-1.3 5.35-.1-2.55-.8-5.05q-.4-1.95-2.7-1.5l-3.4.8q-1.7.35-3.15 1.4l-2.8 2q-.4.3-.45.75-.2 1.4-1.05 1.8l2 .25q1.85.4 3.45 1.35l-.45-.9 2.9 1.75 1.05.9-1 2.1-.95.9q-.8.35-1.05.95l-1.3-.7q-1.3.8-.75 2.1.9 2.2 3.45 1.8.9 1-.6 2.4-1 .95-1.35 2.25-.55 2 1.35 2.15 1.05.05 1.15-1.3.55 3.25-2.25 4.7l-.6.25q-1.7.75-2.6-1.8l-.25-1.2q0-1.15.7-2.1l1.1-1.8.4-1.35-1.8-.1q-1.75 0-3.2-1.15-.45-.4-.55-1.3-.2-1.65.4-2.75l.15-.25q-2-.15-1.6-1.9.45-1.8-1.4-1.5-2.05.3-3.95-.4l-.5-.35q-.75-2.2-2.6-1.85-1 .1-1.95.65-2.05 1.1-1.9 3.3l.1 3.6-.05.05-2.6 4.5q-.9 1.65-2.9 2.75-1.8 1-3.85.35l.85-.2.95-.4L34 45.4q.7-.65.5-1.2-.95 1.2-2.8 1.1h-.9l.25-1q.55-1.35 2.5-1.6 1.6-.25 1.7-1.9v-.15L33.9 37.8q-.4-1.45-.35-2.45.15 2.15 2.05 3.6l.55.7-.1-4.15q.2.9.8 2l1.35-3.85.25-2.05.55.8q.4-1.55 1.5-2.45l.1-.1 1.9-.55q2.1-.9.95-2.5-1.2-1.65-2.95-2.8l-2.7-1.85q-1.6-1.05-3.25-1.85l-6.35-2.55q-1.85-.55-3.05-1.8L22.2 13.3q-1.35-1.05-2.85 1.25l-1.05.7-2.15.15.25-.65q.6-1.4 2.05-2l.45-.4-2.8-.75-7.05-2q1.55-.2 3.05 0l7.75.7-.45-.8q-.55-.9-.35-1.7l.35.05 5.95 1q1.25.1 2.25.85 1.15.9 2.55 1.35 2.45.7 4.35 2.5l1.85 1.85-1.75-.75-.45-.25-.35-.25-1.2-.15-4.15.05q.65.8 1.75 1.25 1.7.75 3.5 1l1 .2 1.1.9 1.4.7q1.4.6 2.55 1.75l2.5 2.15 3.05 1.85.6.55.5.6q-.3 1.05-.15 2.2l1.5.55 1.3-1.35.75-.45q.75-.4 1.65-.45l3.4-.5q1.7-.4 3.25-1.2 1.55-.8 2.75-1.95 1.3-1.3 1.2-3.15-.15-1.75-1-3.3-.7-1.25-2.1-2.15l-1.85-1.5q-1.4-1.25-3.1-1.5-1.7-.35-3.3.65l-2 1.25q.6-1.4 2-2.3.9-.65 2.05-.7 2.45-.25 4.65 1.45.65.55 1.5.75l2.45-.4q1.8-.15 3.4-1.1Q66.2 9 67.1 7.55l1.05-1.4q1.3-1.2 2.9-2.1L74.1 2.5 80.2.45l3.15-.4L89.3.3l6.35 1.85q1.6.45 3 1.25l1.35.55-7.9-.3M47.45 28.3l.3-.55-.3.55m4 2.95q.15.45.95.4l1.35-.05-1.35.05q-.8.05-.95-.4m3.75 4.7l-1.8 2.55-.25.25.25-.25 1.8-2.55m5.35-.7q.25 1.7-1.6 2.6l-.55.35.55-.35q1.85-.9 1.6-2.6m-32.65-21l.55-.2-.55.2M39.6 33.4l-.45-.8-.15-.2.15.2.45.8"/><path fill="url(#c)" d="M86.35 10.25l-.15.3q-.75 1.6-2.05 2.7l-1.9 1.3q-1.35.85-2.85 1.5l-8.05 3.65q-1.7.95-1.4 2.4l-.65 1-2.05-1.4-1.2-1.25q-.95-1.45-.85-3.3.05-1.75.45-3.15l7-.15 5.25-.75q3.15-.65 6.25-1.85l2.2-1"/><path fill="url(#d)" d="M68.1 31.4q-.95-1.35-2.45-2.05-1.45-.65-3.1-.7H59.2q-1.1.05-1.65.6-.25.25-.05.65.45 1.3 1.25 2.4l.45.9q-1.6-.95-3.45-1.35l-2-.25q.85-.4 1.05-1.8.05-.45.45-.75l2.8-2q1.45-1.05 3.15-1.4l3.4-.8q2.3-.45 2.7 1.5l.8 5.05"/><path fill="url(#e)" d="M49.8 38.1l-.95-.95q-.6.15-1.6-.4l-1-.7q-1.65-1.35-3.5-1.3l-.65.2q-1.3 1.1-1.65 2.7-.35 1.4-1.1 2.65l-.1-3.6q-.15-2.2 1.9-3.3.95-.55 1.95-.65 1.85-.35 2.6 1.85l.5.35q1.9.7 3.95.4 1.85-.3 1.4 1.5-.4 1.75 1.6 1.9L53 39l-1.6.05-1.6-.95m-.35-1.45l-.6.5.6-.5"/><path fill="url(#f)" d="M55.95 49.55l-.55-.1q-1.8-.7-1.35-3.15-1.3-1.2-2.95-1.9-1.75-.65-1.65-2.55l.35-3.75 1.6.95L53 39q-.6 1.1-.4 2.75.1.9.55 1.3 1.45 1.15 3.2 1.15l1.8.1-.4 1.35-1.1 1.8q-.7.95-.7 2.1"/><path fill="url(#g)" d="M9.05 9.6L3.6 9q-1.4-.05-2.45.55l-.1-.05 2.1-1.1 1.65-.55 2.05-.25h9.7l2.5.2q-.2.8.35 1.7l.45.8-7.75-.7q-1.5-.2-3.05 0"/><path fill="url(#h)" d="M40.6 29.85q1.35-1.3.65-2.6-.65-1.3-1.8-2.25l-2.85-2.15-2.7-1.6-2.7-1.3q-1.3-.65-2.6-1l-2.65-1.15-2.75-2-2-1.75q-1.85.8-3 2.25l-3 3.55q.2-2.35.95-4.45l2.15-.15 1.05-.7q1.5-2.3 2.85-1.25l2.95 2.65q1.2 1.25 3.05 1.8l6.35 2.55q1.65.8 3.25 1.85L40.5 24q1.75 1.15 2.95 2.8 1.15 1.6-.95 2.5l-1.9.55"/><path fill="url(#i)" d="M46.4 25q.9 1 2.65 1.4l-1.3 1.35-1.5-.55q-.15-1.15.15-2.2"/><path fill="url(#j)" d="M34.7 16.5l-1-.2q-1.8-.25-3.5-1-1.1-.45-1.75-1.25L32.6 14l1.2.15.35.25q-.1 1.25.55 2.1"/><path fill="url(#k)" d="M29.95 47.95v-.05q.8-.35.75-1.55l.1-1.05h.9q1.85.1 2.8-1.1.2.55-.5 1.2l-2.25 1.95-.95.4-.85.2"/><path fill="url(#l)" d="M62.7 34.95l.95 1.3 3.1 5.8q.7 1.6.65 3.45l-.4 6.8q-.25 1.55-1.65 2.55l-2.7 1.95q-1.3 1.05-3 1.45-.9.25-1.65.85l-.45.35-4.4 2.65q-2.5 1.25-5.5 2.15-3.05.9-5.95 2.5-2.9 1.5-5.25 3.25-2.35 1.65-4 3.65T30.35 79q-.55 3.6 1.35 6.4 1 1.5 2.9 3.25 1.95 1.7 4 2.35l13.55 3.55-8.1-.65-5.1-.9q-2.5-.6-4.8-1.8-2.5-1.25-4.5-3.15-2.6-2.4-2.6-5.75 0-3.1.75-6.1.85-3.45 3.35-5.65L34.6 68q2.8-1.8 5.45-3.9l5.2-3.55 7.9-3.45q3.1-1.25 6.05-2.85 2.6-1.4 3.3-4.85.7-3.35.05-6.5-.5-2.5-2.85-4 .25-.6 1.05-.95l.95-.9 1-2.1"/><path fill="none" stroke="#836934" stroke-width=".05" stroke-linecap="round" stroke-miterlimit="3" d="M92.1 3.65l1.05 1.25-2.2 1.25q-1.15.6-1.8 1.55l-3.9.7Q80 9.25 74.9 11.3l-3.45 1.1-4.85.75h-1.25l.3-.75q.25-.8.9-1.25l1.85-1.2q.7-.65 1.6-.85 2.9-.85 5.7-2.2l4.05-1.6 6.65-1.5 1.45-.2 4.25.05m-5.75 6.6l-.15.3q-.75 1.6-2.05 2.7l-1.9 1.3q-1.35.85-2.85 1.5l-8.05 3.65q-1.7.95-1.4 2.4l.1-.1-.05.3M35.6 38.95l.55.7M39 32.4q.4-1.55 1.5-2.45l.1-.1M16.15 15.4l.25-.65q.6-1.4 2.05-2l.45-.4-2.8-.75-7.05-2m-7.9-.05l-.7.5-.45.35m69.95 11.7l-.65 1-2.05-1.4-1.2-1.25q-.95-1.45-.85-3.3.05-1.75.45-3.15l7-.15 5.25-.75q3.15-.65 6.25-1.85l2.2-1M69.95 22.1l.05.2M46.4 25q.9 1 2.65 1.4l-1.3 1.35-.3.55m6.3 3.3l-1.35.05q-.8.05-.95-.4m6.95 6.95l.55-.35q1.85-.9 1.6-2.6m-7.4 3.5l.25-.25 1.8-2.55m.75 13.6q0-1.15.7-2.1l1.1-1.8.4-1.35-1.8-.1q-1.75 0-3.2-1.15-.45-.4-.55-1.3-.2-1.65.4-2.75M34.7 16.5q-.65-.85-.55-2.1l-.35-.25-1.2-.15-4.15.05-.55.2m6.8 2.25l1.1.9 1.4.7m-3.05-3.7l.45.25M1.05 9.5l-.6.55M39 32.4l.15.2.45.8"/><path fill="none" stroke="#D0A653" stroke-width=".05" stroke-linecap="round" stroke-miterlimit="3" d="M68.1 31.4q-.95-1.35-2.45-2.05-1.45-.65-3.1-.7H59.2q-1.1.05-1.65.6-.25.25-.05.65.45 1.3 1.25 2.4m-8.95 5.8l-.95-.95q-.6.15-1.6-.4l-1-.7q-1.65-1.35-3.5-1.3l-.65.2q-1.3 1.1-1.65 2.7-.35 1.4-1.1 2.65m1.25-10.45q1.35-1.3.65-2.6-.65-1.3-1.8-2.25l-2.85-2.15-2.7-1.6-2.7-1.3q-1.3-.65-2.6-1l-2.65-1.15-2.75-2-2-1.75q-1.85.8-3 2.25l-3 3.55q.2-2.35.95-4.45m-7.1-5.8L3.6 9q-1.4-.05-2.45.55M68.1 31.4l-.8-5.05q-.4-1.95-2.7-1.5l-3.4.8q-1.7.35-3.15 1.4l-2.8 2q-.4.3-.45.75-.2 1.4-1.05 1.8l2 .25q1.85.4 3.45 1.35l-.45-.9M53 39l.15-.25m-4.3-1.6l.6-.5M19.05 7.8l-2.5-.2h-9.7l-2.05.25-1.65.55-2.1 1.1"/><path fill="none" stroke="#D5AB55" stroke-width=".05" stroke-linecap="round" stroke-miterlimit="3" d="M62.7 34.95l.95 1.3m-7.7 13.3l-.55-.1q-1.8-.7-1.35-3.15-1.3-1.2-2.95-1.9-1.75-.65-1.65-2.55l.35-3.75m3.2.9l-1.6.05-1.6-.95"/><path fill="none" stroke="#BE984C" stroke-width=".05" stroke-linecap="round" stroke-miterlimit="3" d="M29.95 47.9q.8-.35.75-1.55l.1-1.05"/><path fill="none" stroke="#D3A900" stroke-width=".05" stroke-linecap="round" stroke-miterlimit="3" d="M63.65 36.25l3.1 5.8q.7 1.6.65 3.45l-.4 6.8q-.25 1.55-1.65 2.55l-2.7 1.95q-1.3 1.05-3 1.45-.9.25-1.65.85m-12.75 1.45l7.9-3.45q3.1-1.25 6.05-2.85 2.6-1.4 3.3-4.85.7-3.35.05-6.5-.5-2.5-2.85-4"/></svg>